<svg width="457" height="560" viewBox="0 0 457 560" fill="none" xmlns="http://www.w3.org/2000/svg">
<path d="M381.459 297.51C382.246 382.257 455.804 410.458 456.619 410.817C455.997 412.805 444.865 451.006 417.865 490.464C394.524 524.579 370.3 558.567 332.14 559.271C294.643 559.962 282.586 537.036 239.716 537.036C196.86 537.036 183.464 558.568 147.969 559.963C111.134 561.358 83.0841 523.074 59.5506 489.084C11.4606 419.559 -25.2901 292.622 24.0568 206.937C48.5713 164.386 92.3805 137.44 139.932 136.749C176.102 136.059 210.242 161.084 232.355 161.084C254.453 161.084 295.941 130.99 339.556 135.41C357.815 136.169 409.069 142.785 441.979 190.958C439.327 192.602 380.823 226.66 381.459 297.51ZM310.989 89.4124C330.545 65.7409 343.707 32.7879 340.116 0C311.928 1.13293 277.842 18.7838 257.623 42.4423C239.503 63.393 223.634 96.9259 227.916 129.065C259.335 131.496 291.432 113.099 310.989 89.4124Z" fill="#8E8E8E"/>
</svg>
