<svg width="374" height="560" viewBox="0 0 374 560" fill="none" xmlns="http://www.w3.org/2000/svg">
<path d="M93.3819 560C144.902 560 186.715 518.187 186.715 466.667V373.333H93.3819C41.8619 373.333 0.048584 415.147 0.048584 466.667C0.048584 518.187 41.8619 560 93.3819 560Z" fill="#0ACF83"/>
<path d="M0.048584 280C0.048584 228.48 41.8619 186.667 93.3819 186.667H186.715V373.333H93.3819C41.8619 373.333 0.048584 331.52 0.048584 280Z" fill="#A259FF"/>
<path d="M0.0488281 93.3333C0.0488281 41.8133 41.8622 0 93.3822 0H186.715V186.667H93.3822C41.8622 186.667 0.0488281 144.853 0.0488281 93.3333Z" fill="#F24E1E"/>
<path d="M186.715 0H280.049C331.569 0 373.382 41.8133 373.382 93.3333C373.382 144.853 331.569 186.667 280.049 186.667H186.715V0Z" fill="#FF7262"/>
<path d="M373.382 280C373.382 331.52 331.569 373.333 280.049 373.333C228.529 373.333 186.715 331.52 186.715 280C186.715 228.48 228.529 186.667 280.049 186.667C331.569 186.667 373.382 228.48 373.382 280Z" fill="#1ABCFE"/>
</svg>
