<svg width="560" height="560" viewBox="0 0 560 560" fill="none" xmlns="http://www.w3.org/2000/svg">
<path fill-rule="evenodd" clip-rule="evenodd" d="M280 0C434.643 0 559.999 128.518 559.999 287.082C559.999 413.894 479.863 521.47 368.676 559.466C354.48 562.294 349.44 553.329 349.44 545.685C349.44 536.221 349.775 505.31 349.775 466.894C349.775 440.126 340.816 422.655 330.764 413.751C393.12 406.639 458.639 382.361 458.639 272.097C458.639 240.737 447.775 215.147 429.799 195.043C432.711 187.791 442.315 158.591 427.055 119.055C427.055 119.055 403.591 111.362 350.139 148.49C327.767 142.134 303.8 138.936 280 138.824C256.2 138.936 232.26 142.134 209.916 148.49C156.408 111.362 132.888 119.055 132.888 119.055C117.684 158.591 127.288 187.791 130.172 195.043C112.28 215.147 101.332 240.737 101.332 272.097C101.332 382.081 166.712 406.732 228.9 413.984C220.892 421.152 213.64 433.797 211.12 452.361C195.16 459.697 154.616 472.393 129.64 428.517C129.64 428.517 114.828 400.934 86.7159 398.918C86.7159 398.918 59.4159 398.555 84.8119 416.363C84.8119 416.363 103.152 425.183 115.892 458.363C115.892 458.363 132.328 509.602 210.224 492.242C210.364 516.238 210.616 538.853 210.616 545.685C210.616 553.273 205.464 562.153 191.492 559.493C80.2198 521.554 0 413.922 0 287.082C0 128.518 125.384 0 280 0Z" fill="#8E8E8E"/>
</svg>
