<svg width="560" height="560" viewBox="0 0 560 560" fill="none" xmlns="http://www.w3.org/2000/svg">
<g clip-path="url(#clip0_3300_123)">
<g clip-path="url(#clip1_3300_123)">
<path d="M352.011 359.396H313.612L310.405 356.189V266.301C310.405 250.308 304.12 237.913 284.834 237.48C274.909 237.219 263.554 237.48 251.419 237.956L249.598 239.82V276.139V356.145L246.391 359.352H207.991L204.784 356.145V202.591L207.991 199.383H294.412C328.001 199.383 355.219 226.601 355.219 260.19V356.189L352.011 359.396Z" fill="#8E8E8E"/>
<path d="M151.345 444.473H146.057L119.664 418.078V412.791L160.013 372.441H187.968L191.695 376.168V404.123L151.345 444.473Z" fill="#55BAB9"/>
<path d="M119.664 145.945V140.657L146.057 114.263H151.345L191.695 154.613V182.567L187.968 186.295H160.013L119.664 145.945Z" fill="#55BAB9"/>
<path d="M156.805 301.84H3.20718L0 298.632V260.146L3.20718 256.939H156.805L160.013 260.146V298.632L156.805 301.84Z" fill="#55BAB9"/>
<path d="M556.837 301.84H403.238L400.031 298.632V260.146L403.238 256.939H556.837L560.044 260.146V298.632L556.837 301.84Z" fill="#55BAB9"/>
<path d="M257.875 151.406V36.2072L261.082 33H299.569L302.776 36.2072V151.406L299.569 154.613H261.082L257.875 151.406Z" fill="#55BAB9"/>
<path d="M257.875 522.571V407.374L261.082 404.166H299.569L302.776 407.374V522.571L299.569 525.778H261.082L257.875 522.571Z" fill="#55BAB9"/>
</g>
</g>
<defs>
<clipPath id="clip0_3300_123">
<rect width="560" height="560" fill="white"/>
</clipPath>
<clipPath id="clip1_3300_123">
<rect width="560" height="494.375" fill="white" transform="translate(0 33)"/>
</clipPath>
</defs>
</svg>
