<svg width="561" height="493" viewBox="0 0 561 493" fill="none" xmlns="http://www.w3.org/2000/svg">
<path d="M352.011 326.396H313.612L310.405 323.189V233.301C310.405 217.308 304.12 204.913 284.834 204.48C274.909 204.219 263.554 204.48 251.419 204.956L249.598 206.82V243.139V323.145L246.391 326.352H207.991L204.784 323.145V169.591L207.991 166.383H294.412C328.001 166.383 355.219 193.601 355.219 227.19V323.189L352.011 326.396Z" fill="#8E8E8E"/>
<path d="M151.345 411.473H146.057L119.664 385.078V379.791L160.013 339.441H187.968L191.695 343.168V371.123L151.345 411.473Z" fill="#55BAB9"/>
<path d="M119.664 112.945V107.657L146.057 81.263H151.345L191.695 121.613V149.567L187.968 153.295H160.013L119.664 112.945Z" fill="#55BAB9"/>
<path d="M156.805 268.84H3.20718L0 265.632V227.146L3.20718 223.939H156.805L160.013 227.146V265.632L156.805 268.84Z" fill="#55BAB9"/>
<path d="M556.837 268.84H403.238L400.031 265.632V227.146L403.238 223.939H556.837L560.044 227.146V265.632L556.837 268.84Z" fill="#55BAB9"/>
<path d="M257.875 118.406V3.20718L261.082 0H299.569L302.776 3.20718V118.406L299.569 121.613H261.082L257.875 118.406Z" fill="#55BAB9"/>
<path d="M257.875 489.571V374.374L261.082 371.166H299.569L302.776 374.374V489.571L299.569 492.778H261.082L257.875 489.571Z" fill="#55BAB9"/>
</svg>
