<svg width="447" height="560" viewBox="0 0 447 560" fill="none" xmlns="http://www.w3.org/2000/svg">
<path d="M10.4444 145.755C7.42104 147.677 4.93382 150.333 3.21493 153.476C1.49604 156.619 0.601535 160.147 0.614894 163.729V435.305C0.661924 443.438 3.00713 451.392 7.37997 458.25C11.7528 465.107 17.9751 470.588 25.3292 474.062L192.712 553.26C202.356 557.701 212.847 560 223.465 560C234.082 560 244.573 557.701 254.217 553.26L421.6 474.062C428.954 470.588 435.176 465.107 439.549 458.25C443.922 451.392 446.267 443.438 446.314 435.305V163.729C446.333 160.114 445.411 156.555 443.638 153.404C441.866 150.252 439.304 147.617 436.204 145.755L373.576 113.458V85.3737C373.57 80.2068 372.11 75.1458 369.363 70.7698L332.011 10.1075C330.135 7.02144 327.495 4.47045 324.347 2.70018C321.199 0.92991 317.648 0 314.037 0C310.425 0 306.874 0.92991 303.726 2.70018C300.578 4.47045 297.939 7.02144 296.063 10.1075L259.974 69.3656L241.439 39.3153C239.517 36.2919 236.861 33.8047 233.718 32.0858C230.574 30.3669 227.047 29.4724 223.465 29.4857C219.874 29.5924 216.364 30.568 213.233 32.3289C210.103 34.0897 207.446 36.5834 205.491 39.5961L187.236 69.3656L150.445 10.1075C148.569 7.02144 145.93 4.47045 142.782 2.70018C139.634 0.92991 136.083 0 132.471 0C128.86 0 125.309 0.92991 122.161 2.70018C119.013 4.47045 116.373 7.02144 114.497 10.1075L77.5661 70.7698C74.819 75.1458 73.3591 80.2068 73.3535 85.3737V113.458L10.4444 145.755ZM373.576 145.474L393.235 155.304L373.576 164.572V145.474ZM305.05 49.1448H323.024L337.066 71.8932H291.008L305.05 49.1448ZM345.491 99.9776V177.771L328.36 185.916V99.9776H345.491ZM282.863 99.9776H300.275V199.116L282.863 207.541V99.9776ZM123.625 49.1448H141.599L155.641 71.8932H109.582L123.625 49.1448ZM164.066 99.9776V207.26L146.935 199.116V99.9776H164.066ZM101.438 99.9776H118.85V185.916L101.438 177.771V99.9776ZM73.3535 145.474V164.572L53.6944 155.304L73.3535 145.474ZM37.1246 448.505C34.6119 447.332 32.4852 445.467 30.9932 443.13C29.5012 440.792 28.7055 438.078 28.6993 435.305V174.401L209.282 259.778V529.107L37.1246 448.505ZM209.282 228.604L192.151 220.46V129.466H209.282V228.604ZM200.295 101.382L214.618 78.3526H232.03L246.353 101.382H200.295ZM254.779 129.466V220.741L237.366 228.885V129.466H254.779ZM237.507 529.388V260.059L418.37 174.401V435.305C418.368 438.116 417.542 440.863 415.995 443.209C414.447 445.555 412.246 447.396 409.664 448.505L237.507 529.388Z" fill="#8E8E8E"/>
</svg>
