<svg width="560" height="560" viewBox="0 0 560 560" fill="none" xmlns="http://www.w3.org/2000/svg">
<path fill-rule="evenodd" clip-rule="evenodd" d="M123.058 511.848C251.105 598.525 425.171 564.988 511.846 436.942C598.525 308.896 564.99 134.829 436.944 48.1521C308.898 -38.5248 134.829 -4.98844 48.1523 123.057C-38.5248 251.102 -4.98845 425.171 123.058 511.848ZM160.194 514.136C277.326 574.06 425.908 517.808 492.068 388.498C558.226 259.184 516.905 105.775 399.772 45.8492C282.644 -14.0761 134.058 42.1739 67.9001 171.487C1.74196 300.799 43.0631 454.208 160.194 514.136Z" fill="#0062FF"/>
<path fill-rule="evenodd" clip-rule="evenodd" d="M193.573 544.717C299.305 579.13 423.686 488.221 471.39 341.663C519.09 195.106 472.045 48.4005 366.314 13.9871C260.582 -20.4261 136.202 70.4845 88.5001 217.042C40.7991 363.599 87.8423 510.305 193.573 544.717ZM225.917 533.579C315.397 552.665 412.154 454.597 442.028 314.544C471.898 174.488 423.578 45.479 334.096 26.3934C244.615 7.30777 147.859 105.373 117.987 245.429C88.1143 385.483 136.436 514.493 225.917 533.579Z" fill="#0062FF"/>
<path fill-rule="evenodd" clip-rule="evenodd" d="M250.447 556.674C321.194 564.226 391.798 446.227 408.146 293.112C424.497 139.997 380.399 9.74912 309.654 2.19513C238.909 -5.35894 168.305 112.642 151.955 265.756C135.606 418.87 179.703 549.121 250.447 556.674ZM283.553 510.07C334.751 509.262 374.629 405.616 372.621 278.572C370.616 151.527 327.482 49.1923 276.285 50.0012C225.085 50.8103 185.208 154.456 187.215 281.502C189.222 408.546 232.354 510.879 283.553 510.07Z" fill="#0062FF"/>
</svg>
