<svg width="400" height="560" viewBox="0 0 400 560" fill="none" xmlns="http://www.w3.org/2000/svg">
<path d="M246.108 213.5C195.428 194.693 167.802 180.227 167.802 157.29C167.802 137.9 183.738 126.84 212.158 126.84C264.122 126.84 317.508 146.86 354.258 164.897L375.025 36.7033C345.882 22.75 286.265 0 203.852 0C145.565 0 97.0784 15.26 62.4284 43.68C26.4018 73.43 7.66508 116.48 7.66508 168.42C7.66508 262.663 65.2284 302.82 158.772 336.863C219.088 358.33 239.155 373.59 239.155 397.133C239.155 420 219.555 433.183 184.228 433.183C140.478 433.183 68.3784 411.693 21.1284 383.973L0.128418 513.59C40.7518 536.433 115.652 560 193.328 560C254.952 560 306.332 545.44 340.982 517.697C379.808 487.247 399.898 442.19 399.898 383.95C399.898 287.63 341.005 247.427 246.038 213.5H246.108Z" fill="#635BFF"/>
</svg>
