<svg width="280" height="280" viewBox="0 0 280 280" fill="none" xmlns="http://www.w3.org/2000/svg">
<rect width="280" height="280" fill="#0D0D0D"/>
<circle cx="148.85" cy="125.841" r="4.42478" fill="white"/>
<circle cx="132.035" cy="125.841" r="4.42478" fill="white"/>
<circle cx="124.956" cy="112.566" r="4.42478" fill="white"/>
<circle cx="140" cy="108.142" r="4.42478" fill="white"/>
<circle cx="156.814" cy="112.566" r="4.42478" fill="white"/>
<circle cx="168.319" cy="101.062" r="4.42478" fill="white"/>
<circle cx="186.018" cy="93.9824" r="4.42478" fill="white"/>
<circle cx="196.637" cy="83.3628" r="4.42478" fill="white"/>
<circle cx="214.336" cy="78.0532" r="4.42478" fill="white"/>
<circle cx="201.947" cy="66.5488" r="4.42478" fill="white"/>
<circle cx="185.133" cy="73.6284" r="4.42478" fill="white"/>
<circle cx="188.673" cy="56.8139" r="4.42478" fill="white"/>
<circle cx="171.858" cy="84.248" r="4.42478" fill="white"/>
<circle cx="155.929" cy="93.9824" r="4.42478" fill="white"/>
<circle cx="156.814" cy="78.0532" r="4.42478" fill="white"/>
<circle cx="156.814" cy="61.2387" r="4.42478" fill="white"/>
<circle cx="170.973" cy="65.6636" r="4.42478" fill="white"/>
<circle cx="173.628" cy="49.7343" r="4.42478" fill="white"/>
<circle cx="157.699" cy="45.3095" r="4.42478" fill="white"/>
<circle cx="140" cy="44.4248" r="4.42478" fill="white"/>
<circle cx="124.071" cy="45.3095" r="4.42478" fill="white"/>
<circle cx="108.142" cy="49.7343" r="4.42478" fill="white"/>
<circle cx="93.0974" cy="56.8139" r="4.42478" fill="white"/>
<circle cx="79.823" cy="66.5488" r="4.42478" fill="white"/>
<circle cx="67.4337" cy="78.0532" r="4.42478" fill="white"/>
<circle cx="57.6991" cy="92.2124" r="4.42478" fill="white"/>
<circle cx="50.6195" cy="107.257" r="4.42478" fill="white"/>
<circle cx="66.5487" cy="109.026" r="4.42478" fill="white"/>
<circle cx="74.5133" cy="95.7524" r="4.42478" fill="white"/>
<circle cx="84.2478" cy="83.3628" r="4.42478" fill="white"/>
<circle cx="96.6372" cy="73.6284" r="4.42478" fill="white"/>
<circle cx="110.796" cy="65.6636" r="4.42478" fill="white"/>
<circle cx="124.956" cy="61.2387" r="4.42478" fill="white"/>
<circle cx="140" cy="60.354" r="4.42478" fill="white"/>
<circle cx="140" cy="76.2832" r="4.42478" fill="white"/>
<circle cx="140" cy="92.2124" r="4.42478" fill="white"/>
<circle cx="125.841" cy="93.9824" r="4.42478" fill="white"/>
<circle cx="112.566" cy="101.062" r="4.42478" fill="white"/>
<circle cx="101.947" cy="111.682" r="4.42478" fill="white"/>
<circle cx="85.1328" cy="108.142" r="4.42478" fill="white"/>
<circle cx="94.8673" cy="94.8672" r="4.42478" fill="white"/>
<circle cx="108.142" cy="84.248" r="4.42478" fill="white"/>
<circle cx="124.071" cy="78.0532" r="4.42478" fill="white"/>
<circle cx="132.035" cy="154.159" r="4.42478" fill="white"/>
<circle cx="124.956" cy="167.434" r="4.42478" fill="white"/>
<circle cx="112.566" cy="178.938" r="4.42478" fill="white"/>
<circle cx="95.7522" cy="185.133" r="4.42478" fill="white"/>
<circle cx="84.2478" cy="196.637" r="4.42478" fill="white"/>
<circle cx="78.9381" cy="213.451" r="4.42478" fill="white"/>
<circle cx="67.4337" cy="201.062" r="4.42478" fill="white"/>
<circle cx="74.5133" cy="184.248" r="4.42478" fill="white"/>
<circle cx="85.1328" cy="171.858" r="4.42478" fill="white"/>
<circle cx="101.947" cy="167.434" r="4.42478" fill="white"/>
<circle cx="113.451" cy="155.929" r="4.42478" fill="white"/>
<circle cx="94.8673" cy="154.159" r="4.42478" fill="white"/>
<circle cx="78.9381" cy="156.814" r="4.42478" fill="white"/>
<circle cx="62.1239" cy="155.044" r="4.42478" fill="white"/>
<circle cx="46.1947" cy="155.929" r="4.42478" fill="white"/>
<circle cx="50.6195" cy="172.743" r="4.42478" fill="white"/>
<circle cx="66.5487" cy="170.088" r="4.42478" fill="white"/>
<circle cx="57.6991" cy="187.788" r="4.42478" fill="white"/>
<circle cx="148.85" cy="154.159" r="4.42478" fill="white"/>
<circle cx="155.929" cy="140" r="4.42478" fill="white"/>
<circle cx="168.319" cy="124.071" r="4.42478" fill="white"/>
<circle cx="179.823" cy="111.682" r="4.42478" fill="white"/>
<circle cx="195.752" cy="108.142" r="4.42478" fill="white"/>
<circle cx="207.257" cy="95.7524" r="4.42478" fill="white"/>
<circle cx="214.336" cy="109.912" r="4.42478" fill="white"/>
<circle cx="201.947" cy="123.186" r="4.42478" fill="white"/>
<circle cx="218.761" cy="124.071" r="4.42478" fill="white"/>
<circle cx="234.69" cy="123.186" r="4.42478" fill="white"/>
<circle cx="230.265" cy="107.257" r="4.42478" fill="white"/>
<circle cx="186.018" cy="124.956" r="4.42478" fill="white"/>
<circle cx="223.186" cy="92.2124" r="4.42478" fill="white"/>
<circle cx="171.858" cy="140" r="4.42478" fill="white"/>
<circle cx="168.319" cy="155.929" r="4.42478" fill="white"/>
<circle cx="156.814" cy="167.434" r="4.42478" fill="white"/>
<circle cx="140" cy="171.858" r="4.42478" fill="white"/>
<circle cx="140" cy="187.788" r="4.42478" fill="white"/>
<circle cx="125.841" cy="185.133" r="4.42478" fill="white"/>
<circle cx="124.956" cy="201.947" r="4.42478" fill="white"/>
<circle cx="124.956" cy="217.876" r="4.42478" fill="white"/>
<circle cx="124.071" cy="233.805" r="4.42478" fill="white"/>
<circle cx="140" cy="235.575" r="4.42478" fill="white"/>
<circle cx="140" cy="220.531" r="4.42478" fill="white"/>
<circle cx="140" cy="203.717" r="4.42478" fill="white"/>
<circle cx="155.044" cy="185.133" r="4.42478" fill="white"/>
<circle cx="157.699" cy="201.062" r="4.42478" fill="white"/>
<circle cx="155.929" cy="217.876" r="4.42478" fill="white"/>
<circle cx="156.814" cy="233.805" r="4.42478" fill="white"/>
<circle cx="172.743" cy="229.38" r="4.42478" fill="white"/>
<circle cx="170.973" cy="213.451" r="4.42478" fill="white"/>
<circle cx="172.743" cy="194.867" r="4.42478" fill="white"/>
<circle cx="168.319" cy="178.938" r="4.42478" fill="white"/>
<circle cx="178.938" cy="168.318" r="4.42478" fill="white"/>
<circle cx="186.018" cy="155.044" r="4.42478" fill="white"/>
<circle cx="202.832" cy="155.929" r="4.42478" fill="white"/>
<circle cx="218.761" cy="155.044" r="4.42478" fill="white"/>
<circle cx="235.575" cy="155.929" r="4.42478" fill="white"/>
<circle cx="230.265" cy="172.743" r="4.42478" fill="white"/>
<circle cx="223.186" cy="187.788" r="4.42478" fill="white"/>
<circle cx="214.336" cy="201.062" r="4.42478" fill="white"/>
<circle cx="201.947" cy="213.451" r="4.42478" fill="white"/>
<circle cx="188.673" cy="222.301" r="4.42478" fill="white"/>
<circle cx="185.133" cy="206.372" r="4.42478" fill="white"/>
<circle cx="197.522" cy="196.637" r="4.42478" fill="white"/>
<circle cx="207.257" cy="183.363" r="4.42478" fill="white"/>
<circle cx="214.336" cy="170.088" r="4.42478" fill="white"/>
<circle cx="195.752" cy="171.858" r="4.42478" fill="white"/>
<circle cx="186.018" cy="185.133" r="4.42478" fill="white"/>
<circle cx="109.027" cy="195.752" r="4.42478" fill="white"/>
<circle cx="96.6372" cy="206.372" r="4.42478" fill="white"/>
<circle cx="110.796" cy="213.451" r="4.42478" fill="white"/>
<circle cx="108.142" cy="229.38" r="4.42478" fill="white"/>
<circle cx="93.0974" cy="222.301" r="4.42478" fill="white"/>
<circle cx="187.788" cy="140" r="4.42478" fill="white"/>
<circle cx="203.717" cy="140" r="4.42478" fill="white"/>
<circle cx="219.646" cy="140" r="4.42478" fill="white"/>
<circle cx="235.575" cy="140" r="4.42478" fill="white"/>
<circle cx="124.071" cy="140" r="4.42478" fill="white"/>
<circle cx="108.142" cy="140" r="4.42478" fill="white"/>
<circle cx="112.566" cy="124.071" r="4.42478" fill="white"/>
<circle cx="94.8673" cy="124.956" r="4.42478" fill="white"/>
<circle cx="78.9381" cy="124.071" r="4.42478" fill="white"/>
<circle cx="62.1239" cy="124.071" r="4.42478" fill="white"/>
<circle cx="46.1947" cy="123.186" r="4.42478" fill="white"/>
<circle cx="92.2124" cy="140" r="4.42478" fill="white"/>
<circle cx="76.2832" cy="140" r="4.42478" fill="white"/>
<circle cx="60.354" cy="140" r="4.42478" fill="white"/>
<circle cx="44.4248" cy="140" r="4.42478" fill="white"/>
<circle cx="140" cy="140" r="4.42478" fill="white"/>
</svg>
