<svg width="280" height="280" viewBox="0 0 280 280" fill="none" xmlns="http://www.w3.org/2000/svg">
<rect width="280" height="280" fill="#0D0D0D"/>
<path d="M64.6575 139.507L40 151.963L40 127.05L64.6575 139.507Z" fill="#555555"/>
<ellipse cx="158.493" cy="139.507" rx="75.3425" ry="75.3425" fill="#0D0D0D"/>
<rect x="157.124" y="58" width="2.73973" height="163.014" fill="#F9F7F4"/>
<rect x="187.756" y="63.4219" width="2.73973" height="163.014" transform="rotate(22 187.756 63.4219)" fill="#F9F7F4"/>
<rect x="215.158" y="80.9043" width="2.73973" height="163.014" transform="rotate(45 215.158 80.9043)" fill="#F9F7F4"/>
<rect x="232.985" y="106.399" width="2.73973" height="163.014" transform="rotate(67 232.985 106.399)" fill="#F9F7F4"/>
<rect x="76.9861" y="140.877" width="2.73973" height="163.014" transform="rotate(-90 76.9861 140.877)" fill="#F9F7F4"/>
<rect x="82.9304" y="108.921" width="2.73973" height="163.014" transform="rotate(-67 82.9304 108.921)" fill="#F9F7F4"/>
<rect x="99.8909" y="82.8423" width="2.73973" height="163.014" transform="rotate(-45 99.8909 82.8423)" fill="#F9F7F4"/>
<rect x="125.385" y="65.0156" width="2.73973" height="163.014" transform="rotate(-23 125.385 65.0156)" fill="#F9F7F4"/>
<ellipse cx="158.493" cy="139.507" rx="53.4247" ry="53.4247" fill="#3C3A41"/>
</svg>
