<svg width="640" height="480" viewBox="0 0 640 480" fill="none" xmlns="http://www.w3.org/2000/svg">
<g id="af" clip-path="url(#clip0_2194_149)">
<g id="Group">
<path id="Vector" fill-rule="evenodd" clip-rule="evenodd" d="M0 0H640V480H0V0Z" fill="#000001" style="fill:#000001;fill:color(display-p3 0.0000 0.0000 0.0039);fill-opacity:1;"/>
<path id="Vector_2" fill-rule="evenodd" clip-rule="evenodd" d="M426.7 0H640V480H426.7V0Z" fill="#009900" style="fill:#009900;fill:color(display-p3 0.0000 0.6000 0.0000);fill-opacity:1;"/>
<path id="Vector_3" fill-rule="evenodd" clip-rule="evenodd" d="M213.3 0H426.7V480H213.3V0Z" fill="#BF0000" style="fill:#BF0000;fill:color(display-p3 0.7490 0.0000 0.0000);fill-opacity:1;"/>
</g>
<g id="Group_2">
<path id="Vector_4" fill-rule="evenodd" clip-rule="evenodd" d="M340.776 267.429H349.602C349.602 270.832 351.729 274.448 354.388 276.469H337.373C340.031 274.129 340.776 271.151 340.776 267.429Z" fill="white" stroke="#BD6B00" style="fill:white;fill-opacity:1;stroke:#BD6B00;stroke:color(display-p3 0.7412 0.4196 0.0000);stroke-opacity:1;" stroke-width="0.53173"/>
<path id="Vector_5" fill-rule="evenodd" clip-rule="evenodd" d="M284.625 217.128L289.517 222.445L350.134 222.657L355.026 217.34L339.5 217.021L332.055 211.704H307.596L300.577 217.128H284.625Z" fill="white" style="fill:white;fill-opacity:1;"/>
<path id="Vector_6" fill-rule="evenodd" clip-rule="evenodd" d="M309.403 210.959H330.353C333.118 209.471 334.076 204.685 334.076 202.026C334.076 194.157 328.439 190.328 322.909 190.116C321.917 190.045 321.243 189.584 320.889 188.733C320.357 187.032 320.463 185.862 319.825 185.968C319.4 185.968 319.506 187.032 319.081 188.52C318.655 189.442 317.946 190.009 316.954 190.222C310.148 190.541 305.681 195.539 305.788 202.026C305.894 206.28 306.426 208.833 309.403 210.959Z" fill="white" stroke="#BD6B00" style="fill:white;fill-opacity:1;stroke:#BD6B00;stroke:color(display-p3 0.7412 0.4196 0.0000);stroke-opacity:1;" stroke-width="0.53173"/>
<path id="Vector_7" fill-rule="evenodd" clip-rule="evenodd" d="M275.054 285.508H364.703L356.727 279.021H282.923L275.054 285.508Z" fill="white" style="fill:white;fill-opacity:1;"/>
<g id="Vector_8">
<path fill-rule="evenodd" clip-rule="evenodd" d="M316.209 260.942L317.805 265.834H321.527L318.549 260.942H316.209ZM314.083 265.834L315.146 270.726H319.4L317.805 265.834H314.083ZM321.527 265.834L324.504 270.726H330.779L325.887 265.834H321.527ZM284.837 276.894C288.134 273.81 290.261 271.258 290.261 267.536H298.343C298.343 269.663 298.981 270.726 300.258 270.726H308.446V265.94H302.491V239.673C302.278 230.315 313.764 224.997 318.443 224.997H290.474V224.146H349.283V224.997H321.101C329.503 224.997 337.585 232.973 337.691 239.673V247.117H336.628L336.522 239.779C336.522 232.441 327.269 225.635 319.825 225.848C313.444 225.954 303.448 232.122 303.554 239.673V242.013L318.762 242.119L318.655 244.778L320.995 246.266L325.781 247.755V251.796L329.184 252.754V256.688L333.225 258.496V262.537L335.883 264.133L335.777 268.28L339.287 270.726H330.992L336.203 276.575H328.439L324.611 270.726H319.613L321.846 276.469H316.529L315.146 270.726H308.553V276.894H284.944H284.837ZM308.446 260.942V265.834H314.083L313.019 260.942H308.34H308.446Z" fill="white" style="fill:white;fill-opacity:1;"/>
<path d="M317.805 265.834L316.209 260.942H318.549L321.527 265.834M317.805 265.834H321.527M317.805 265.834L319.4 270.726H315.146M317.805 265.834H314.083M321.527 265.834L324.504 270.726H330.779L325.887 265.834H321.527ZM314.083 265.834L315.146 270.726M314.083 265.834H308.446V260.942H308.34H313.019L314.083 265.834ZM315.146 270.726L316.529 276.469H321.846L319.613 270.726H324.611L328.439 276.575H336.203L330.992 270.726H339.287L335.777 268.28L335.883 264.133L333.225 262.537V258.496L329.184 256.688V252.754L325.781 251.796V247.755L320.995 246.266L318.655 244.778L318.762 242.119L303.554 242.013V239.673C303.448 232.122 313.444 225.954 319.825 225.848C327.269 225.635 336.522 232.441 336.522 239.779L336.628 247.117H337.691V239.673C337.585 232.973 329.503 224.997 321.101 224.997H349.283V224.146H290.474V224.997H318.443C313.764 224.997 302.278 230.315 302.491 239.673V265.94H308.446V270.726H300.258C298.981 270.726 298.343 269.663 298.343 267.536H290.261C290.261 271.258 288.134 273.81 284.837 276.894H284.944H308.553V270.726H315.146Z" stroke="#BD6B00" style="stroke:#BD6B00;stroke:color(display-p3 0.7412 0.4196 0.0000);stroke-opacity:1;" stroke-width="0.53173"/>
</g>
<path id="Vector_9" fill-rule="evenodd" clip-rule="evenodd" d="M308.766 252.435H312.275V260.517H308.766V252.435Z" stroke="#BD6B00" style="stroke:#BD6B00;stroke:color(display-p3 0.7412 0.4196 0.0000);stroke-opacity:1;" stroke-width="0.53173"/>
<path id="Vector_10" fill-rule="evenodd" clip-rule="evenodd" d="M303.767 261.048H307.17V255.093C307.17 252.541 309.51 249.882 310.573 249.776C311.849 249.776 313.657 252.222 313.764 254.88V261.048H317.379V245.735H303.767V261.048ZM330.992 264.558H335.245V267.961H330.992V264.558ZM328.439 258.922H332.693V262.218H328.439V258.922ZM324.292 253.179H328.546V256.476H324.292V253.179ZM320.782 248.393H325.036V251.69H320.782V248.393Z" stroke="#BD6B00" style="stroke:#BD6B00;stroke:color(display-p3 0.7412 0.4196 0.0000);stroke-opacity:1;" stroke-width="0.53173"/>
<path id="Vector_11" fill-rule="evenodd" clip-rule="evenodd" d="M317.911 261.049L322.378 261.261L330.141 268.067V264.026L327.482 262.112V258.922L323.654 256.795V253.285L319.932 252.009V247.436L318.124 245.841L317.911 261.049Z" stroke="#BD6B00" style="stroke:#BD6B00;stroke:color(display-p3 0.7412 0.4196 0.0000);stroke-opacity:1;" stroke-width="0.53173"/>
<path id="Vector_12" fill-rule="evenodd" clip-rule="evenodd" d="M336.416 250.946H337.479V258.496H336.416V250.946Z" fill="white" stroke="#BD6B00" style="fill:white;fill-opacity:1;stroke:#BD6B00;stroke:color(display-p3 0.7412 0.4196 0.0000);stroke-opacity:1;" stroke-width="0.53173"/>
<g id="af-a">
<path id="Vector_13" fill-rule="evenodd" clip-rule="evenodd" d="M274.628 225.635C273.352 223.509 271.757 228.613 266.333 232.335C263.887 234.037 262.079 238.61 262.079 241.587C262.15 243.714 262.15 245.77 262.079 247.755C261.973 248.925 260.591 251.797 261.548 252.541C263.887 254.243 266.971 258.284 268.354 259.666C269.63 260.73 270.693 254.03 271.544 251.159C272.608 247.968 272.182 244.033 274.947 241.162C276.861 239.035 281.753 237.121 281.328 236.27L274.628 225.635Z" fill="white" stroke="#BD6B00" style="fill:white;fill-opacity:1;stroke:#BD6B00;stroke:color(display-p3 0.7412 0.4196 0.0000);stroke-opacity:1;" stroke-width="0.53173"/>
<path id="Vector_14" fill-rule="evenodd" clip-rule="evenodd" d="M274.309 242.013C273.887 241.009 273.313 240.077 272.608 239.248C271.933 238.404 271.055 237.745 270.056 237.333C269.069 237.059 268.183 236.505 267.503 235.738C267.109 235.274 266.818 234.73 266.652 234.143V232.016L266.333 232.335C263.887 234.037 262.08 238.61 262.08 241.587V244.033C262.221 244.6 262.434 245.061 262.718 245.416L263.887 246.266L266.759 247.011C267.836 247.491 268.784 248.22 269.524 249.138C270.292 249.962 270.936 250.894 271.438 251.903L271.651 251.052C272.501 248.181 272.395 244.778 274.416 242.013H274.309Z" fill="#BF0000" stroke="#BD6B00" style="fill:#BF0000;fill:color(display-p3 0.7490 0.0000 0.0000);fill-opacity:1;stroke:#BD6B00;stroke:color(display-p3 0.7412 0.4196 0.0000);stroke-opacity:1;" stroke-width="0.53173"/>
<path id="Vector_15" d="M266.652 231.91C266.121 235.419 268.141 236.695 270.055 237.333C271.97 238.078 273.565 240.098 274.309 242.013M261.867 243.608C262.717 246.798 264.844 246.373 266.759 247.011C268.673 247.649 270.693 250.201 271.544 252.115" stroke="#BD6B00" style="stroke:#BD6B00;stroke:color(display-p3 0.7412 0.4196 0.0000);stroke-opacity:1;" stroke-width="0.53173"/>
<path id="Vector_16" fill-rule="evenodd" clip-rule="evenodd" d="M272.82 223.508L273.884 222.87L292.707 254.668L291.644 255.306L272.82 223.508Z" fill="white" stroke="#BD6B00" style="fill:white;fill-opacity:1;stroke:#BD6B00;stroke:color(display-p3 0.7412 0.4196 0.0000);stroke-opacity:1;" stroke-width="0.53173"/>
<path id="Vector_17" fill-rule="evenodd" clip-rule="evenodd" d="M274.841 222.232C274.841 222.796 274.617 223.337 274.218 223.736C273.819 224.135 273.278 224.359 272.714 224.359C272.15 224.359 271.609 224.135 271.21 223.736C270.811 223.337 270.587 222.796 270.587 222.232C270.587 221.668 270.811 221.127 271.21 220.728C271.609 220.33 272.15 220.105 272.714 220.105C273.278 220.105 273.819 220.33 274.218 220.728C274.617 221.127 274.841 221.668 274.841 222.232ZM291.006 196.709H298.663V198.411H291.006V196.709ZM291.006 200.006H298.663V214.682H291.006V200.006ZM290.58 194.689H299.088C299.301 191.817 296.429 188.733 294.834 188.733C293.133 188.84 290.474 191.924 290.58 194.689Z" fill="white" stroke="#BD6B00" style="fill:white;fill-opacity:1;stroke:#BD6B00;stroke:color(display-p3 0.7412 0.4196 0.0000);stroke-opacity:1;" stroke-width="0.53173"/>
<path id="Vector_18" fill-rule="evenodd" clip-rule="evenodd" d="M312.168 192.987C310.573 193.625 309.297 195.433 308.553 197.56C307.808 199.687 307.489 202.133 307.915 204.047C307.986 204.756 308.163 205.288 308.446 205.642C308.659 205.997 308.872 206.174 309.084 206.174C309.439 206.174 309.687 206.068 309.829 205.855L310.042 205.004C309.9 202.877 310.006 200.963 310.361 199.262C310.858 197.383 311.984 195.732 313.551 194.582C313.835 194.37 314.012 194.122 314.083 193.838L313.764 193.093C313.267 192.739 312.736 192.704 312.168 192.987ZM312.381 193.413C312.807 193.271 313.161 193.306 313.445 193.519L313.551 193.732C313.551 193.802 313.445 193.944 313.232 194.157C311.585 195.342 310.416 197.077 309.935 199.049C309.5 201.003 309.392 203.015 309.616 205.004L309.403 205.642C309.403 205.642 309.403 205.749 309.191 205.642C309.191 205.642 309.049 205.536 308.765 205.323L308.34 204.047C308.056 201.991 308.305 199.864 309.084 197.666C309.864 195.61 310.928 194.192 312.275 193.413H312.381Z" fill="#BD6B00" style="fill:#BD6B00;fill:color(display-p3 0.7412 0.4196 0.0000);fill-opacity:1;"/>
<path id="Vector_19" fill-rule="evenodd" clip-rule="evenodd" d="M314.933 195.008C313.303 195.859 312.239 197.347 311.743 199.474C311.192 201.519 311.083 203.658 311.424 205.749C311.778 207.167 312.346 207.876 313.125 207.876C313.48 208.017 313.764 207.911 313.976 207.557C314.189 207.202 314.26 206.848 314.189 206.493C313.764 204.721 313.657 202.913 313.87 201.07C314.153 199.226 314.933 197.773 316.209 196.709C316.564 196.426 316.741 196.142 316.741 195.859L316.529 195.221C316.032 194.866 315.501 194.795 314.933 195.008ZM315.146 195.54C315.571 195.398 315.926 195.398 316.209 195.54L316.316 195.859L315.997 196.284C314.598 197.475 313.689 199.142 313.444 200.963C313.161 202.948 313.232 204.792 313.657 206.493C313.657 206.919 313.657 207.202 313.657 207.344L313.125 207.45C312.806 207.45 312.062 206.919 311.849 205.642C311.53 203.835 311.637 201.495 312.168 199.581C312.736 197.525 313.728 196.178 315.146 195.54Z" fill="#BD6B00" style="fill:#BD6B00;fill:color(display-p3 0.7412 0.4196 0.0000);fill-opacity:1;"/>
<path id="Vector_20" fill-rule="evenodd" clip-rule="evenodd" d="M290.58 226.593H299.088V238.291H290.58V226.593ZM291.112 245.097H299.301V247.649H291.112V245.097ZM290.899 249.457H299.407V258.709H290.899V249.457ZM290.261 260.623H299.513V265.834H290.261V260.623ZM291.431 242.97H298.875L300.364 240.418H290.155L291.431 242.97ZM301.427 233.824L301.534 227.443H306.638C304.434 229.141 302.65 231.324 301.427 233.824Z" fill="white" stroke="#BD6B00" style="fill:white;fill-opacity:1;stroke:#BD6B00;stroke:color(display-p3 0.7412 0.4196 0.0000);stroke-opacity:1;" stroke-width="0.53173"/>
<path id="Vector_21" fill-rule="evenodd" clip-rule="evenodd" d="M291.963 236.483C291.963 237.865 293.558 237.334 293.558 236.589V230.634C293.558 229.57 296.11 229.783 296.11 230.527V236.908C296.11 237.972 297.918 237.865 297.812 236.908V229.464C297.812 227.124 291.963 227.231 291.963 229.358V236.483ZM291.963 250.627H298.025V258.071H291.963V250.627Z" stroke="#BD6B00" style="stroke:#BD6B00;stroke:color(display-p3 0.7412 0.4196 0.0000);stroke-opacity:1;" stroke-width="0.53173"/>
<g id="Vector_22">
<path fill-rule="evenodd" clip-rule="evenodd" d="M295.791 253.817H297.918V254.881H295.791V253.817ZM292.069 253.817H294.196V254.881H292.069V253.817ZM294.196 250.627H295.791V253.817H294.196V250.627ZM294.196 254.881H295.791V258.177H294.196V254.881ZM260.484 175.121C260.91 180.97 258.996 184.267 255.911 183.735C255.061 180.545 256.975 178.311 260.484 175.121ZM253.572 188.202C250.807 186.819 252.827 175.972 253.891 171.399C254.635 177.248 256.018 185.543 253.572 188.202Z" fill="white" style="fill:white;fill-opacity:1;"/>
<path d="M295.791 253.817H297.918V254.881H295.791M295.791 253.817V254.881M295.791 253.817V250.627H294.196V253.817M295.791 253.817H294.196M295.791 254.881H294.196M295.791 254.881V258.177H294.196V254.881M294.196 253.817H292.069V254.881H294.196M294.196 253.817V254.881M260.484 175.121C260.91 180.97 258.996 184.267 255.911 183.735C255.061 180.545 256.975 178.311 260.484 175.121ZM253.572 188.202C250.807 186.819 252.827 175.972 253.891 171.399C254.635 177.248 256.018 185.543 253.572 188.202Z" stroke="#BD6B00" style="stroke:#BD6B00;stroke:color(display-p3 0.7412 0.4196 0.0000);stroke-opacity:1;" stroke-width="0.53173"/>
</g>
<path id="Vector_23" fill-rule="evenodd" clip-rule="evenodd" d="M254.529 188.733C259.208 190.329 263.036 185.33 264.206 179.481C260.378 184.799 254.103 184.799 254.635 188.733H254.529ZM251.019 194.157C247.404 193.2 249.53 181.714 250.275 177.142C251.019 181.927 253.572 192.562 251.019 194.157ZM252.295 193.838C252.508 189.903 256.443 190.967 259.208 188.84C258.676 190.967 257.081 194.37 252.295 193.838ZM247.829 199.155C244.213 198.092 246.34 185.756 246.127 180.651C247.191 185.118 250.594 197.985 247.829 199.155ZM249.53 198.624C252.508 199.581 256.443 197.56 256.762 194.051C254.103 195.859 250.062 194.476 249.53 198.624Z" fill="white" stroke="#BD6B00" style="fill:white;fill-opacity:1;stroke:#BD6B00;stroke:color(display-p3 0.7412 0.4196 0.0000);stroke-opacity:1;" stroke-width="0.53173"/>
<path id="Vector_24" fill-rule="evenodd" clip-rule="evenodd" d="M245.064 204.579C241.661 204.898 243.15 194.37 243.15 184.586C244.426 193.732 247.935 202.133 245.064 204.579Z" fill="white" stroke="#BD6B00" style="fill:white;fill-opacity:1;stroke:#BD6B00;stroke:color(display-p3 0.7412 0.4196 0.0000);stroke-opacity:1;" stroke-width="0.53173"/>
<path id="Vector_25" fill-rule="evenodd" clip-rule="evenodd" d="M246.34 204.153C248.68 205.217 252.827 203.409 253.997 199.474C249.743 201.282 246.978 199.474 246.34 204.153ZM273.565 180.545C272.927 185.756 270.8 188.733 267.716 188.202C266.865 185.011 269.417 182.884 273.565 180.545ZM265.27 193.732C270.481 194.476 272.289 190.541 275.905 185.33C270.906 188.946 265.057 189.584 265.27 193.838V193.732Z" fill="white" stroke="#BD6B00" style="fill:white;fill-opacity:1;stroke:#BD6B00;stroke:color(display-p3 0.7412 0.4196 0.0000);stroke-opacity:1;" stroke-width="0.53173"/>
<path id="Vector_26" fill-rule="evenodd" clip-rule="evenodd" d="M263.675 193.2C260.91 189.797 263.675 185.437 265.802 181.821C265.376 187.244 267.184 190.328 263.675 193.2ZM262.611 198.836C262.186 195.433 267.929 194.689 270.481 192.881C269.524 194.795 268.354 200.006 262.505 198.836H262.611Z" fill="white" stroke="#BD6B00" style="fill:white;fill-opacity:1;stroke:#BD6B00;stroke:color(display-p3 0.7412 0.4196 0.0000);stroke-opacity:1;" stroke-width="0.53173"/>
<path id="Vector_27" fill-rule="evenodd" clip-rule="evenodd" d="M261.335 198.836C257.4 198.411 258.996 191.711 261.867 188.095C260.697 193.2 263.994 196.709 261.335 198.836Z" fill="white" stroke="#BD6B00" style="fill:white;fill-opacity:1;stroke:#BD6B00;stroke:color(display-p3 0.7412 0.4196 0.0000);stroke-opacity:1;" stroke-width="0.53173"/>
<path id="Vector_28" fill-rule="evenodd" clip-rule="evenodd" d="M258.357 204.472C253.891 202.346 256.762 196.816 258.357 193.519C257.719 197.879 261.335 201.176 258.357 204.366V204.472Z" fill="white" stroke="#BD6B00" style="fill:white;fill-opacity:1;stroke:#BD6B00;stroke:color(display-p3 0.7412 0.4196 0.0000);stroke-opacity:1;" stroke-width="0.53173"/>
<path id="Vector_29" fill-rule="evenodd" clip-rule="evenodd" d="M259.208 203.834C261.548 207.025 266.121 202.984 267.078 198.304C263.143 201.601 260.165 201.069 259.208 203.941V203.834ZM248.999 225.423C248.574 220.85 251.977 212.661 249.531 208.195C249.212 207.557 250.275 205.961 251.02 206.918C252.083 208.514 253.147 212.98 253.678 211.279C254.21 209.577 254.21 206.387 255.805 205.749C256.869 205.43 258.251 205.111 257.826 206.812C257.4 208.301 256.55 210.428 257.507 210.534C258.039 210.534 259.634 208.407 261.016 207.344C262.08 206.493 263.781 207.982 262.08 209.258C256.975 213.512 251.977 215.532 248.999 225.423ZM239.747 294.016C239.109 294.016 238.365 293.697 239.109 294.654C245.171 302.098 246.872 304.225 255.699 303.162C264.526 301.992 266.653 299.546 272.927 296.036C276.609 294.151 280.88 293.77 284.838 294.973C286.539 295.505 287.603 295.505 286.327 294.229C285.05 292.952 283.668 291.357 282.073 290.187C278.085 287.583 273.269 286.56 268.567 287.316C262.186 288.38 256.762 292.527 250.275 294.122C246.801 294.824 243.221 294.824 239.747 294.122V294.016ZM290.58 307.309C291.644 307.522 292.388 309.649 293.026 308.266C293.877 305.82 293.239 304.012 292.176 304.119C290.899 304.438 288.879 307.309 290.58 307.309Z" fill="white" stroke="#BD6B00" style="fill:white;fill-opacity:1;stroke:#BD6B00;stroke:color(display-p3 0.7412 0.4196 0.0000);stroke-opacity:1;" stroke-width="0.53173"/>
<path id="Vector_30" fill-rule="evenodd" clip-rule="evenodd" d="M235.599 221.913C234.323 220.495 234.677 219.822 236.663 219.893C238.151 219.893 241.129 220.956 242.299 219.999C243.362 219.255 242.831 216.064 243.362 214.682C243.575 213.725 244.107 212.555 245.489 214.469C249.318 220.637 253.997 228.081 256.124 235.313C257.187 239.354 256.124 245.735 252.508 249.989C252.508 246.373 251.232 243.927 249.637 240.843C247.51 236.908 239.959 225.955 235.599 221.807V221.913Z" fill="white" style="fill:white;fill-opacity:1;"/>
<path id="Vector_31" fill-rule="evenodd" clip-rule="evenodd" d="M251.445 254.243C255.699 254.243 256.443 248.606 256.443 247.011C254.316 247.436 250.701 250.946 251.445 254.243ZM288.135 309.436C291.112 310.074 291.006 302.843 287.922 299.759C289.304 304.438 285.795 308.692 288.028 309.33L288.135 309.436ZM286.858 309.33C287.071 312.733 278.351 308.904 276.224 306.139C281.328 308.373 286.646 306.565 286.858 309.33ZM283.136 304.438C283.455 307.735 275.692 304.757 273.246 302.205C278.457 303.906 282.817 301.673 283.136 304.331V304.438ZM284.519 304.863C287.603 305.608 287.071 298.057 284.093 295.505C285.582 300.503 282.179 304.119 284.519 304.863ZM281.328 300.29C284.412 301.035 282.605 294.548 280.371 291.995C280.797 296.675 279.308 299.971 281.435 300.29H281.328ZM279.733 300.29C280.052 303.693 273.991 301.141 271.651 297.844C276.756 299.44 279.414 297.525 279.733 300.29ZM278.138 297.632C280.052 296.249 278.032 292.527 274.203 292.74C274.629 294.973 275.905 299.014 278.138 297.632ZM293.026 313.265C293.133 316.668 284.519 314.966 281.754 311.35C287.284 312.414 292.707 310.5 292.92 313.265H293.026ZM258.57 307.096C258.889 310.5 249.425 306.671 247.085 303.481C252.083 305.182 258.251 304.331 258.57 307.096ZM264.313 308.479C266.334 307.096 262.292 303.481 258.996 302.63C259.421 304.863 262.186 309.861 264.313 308.585V308.479ZM264.951 310.925C265.164 314.009 254.848 312.307 252.19 309.436C261.016 311.031 264.632 308.266 264.951 310.925Z" fill="white" stroke="#BD6B00" style="fill:white;fill-opacity:1;stroke:#BD6B00;stroke:color(display-p3 0.7412 0.4196 0.0000);stroke-opacity:1;" stroke-width="0.53173"/>
<path id="Vector_32" fill-rule="evenodd" clip-rule="evenodd" d="M269.843 312.945C270.906 315.817 261.016 315.072 257.507 313.477C263.143 313.477 268.992 310.925 269.843 312.945Z" fill="white" stroke="#BD6B00" style="fill:white;fill-opacity:1;stroke:#BD6B00;stroke:color(display-p3 0.7412 0.4196 0.0000);stroke-opacity:1;" stroke-width="0.53173"/>
<path id="Vector_33" fill-rule="evenodd" clip-rule="evenodd" d="M274.416 315.072C275.479 317.625 266.333 317.625 261.867 316.136C267.822 316.136 273.352 312.52 274.416 315.072ZM281.115 316.455C282.817 319.539 273.033 319.752 269.949 318.263C275.479 317.518 279.733 314.009 281.115 316.455ZM269.736 311.244C266.652 313.158 266.865 307.416 264.419 303.481C268.247 306.99 271.863 309.436 269.736 311.244Z" fill="white" stroke="#BD6B00" style="fill:white;fill-opacity:1;stroke:#BD6B00;stroke:color(display-p3 0.7412 0.4196 0.0000);stroke-opacity:1;" stroke-width="0.53173"/>
<path id="Vector_34" fill-rule="evenodd" clip-rule="evenodd" d="M275.266 313.371C272.714 315.604 270.587 307.734 268.248 303.268C272.076 307.522 277.606 311.456 275.266 313.264V313.371ZM282.498 315.498C280.371 318.05 273.99 308.053 271.651 302.736C275.16 306.884 284.199 313.371 282.498 315.498ZM276.33 323.155C275.266 326.983 259.102 319.539 257.188 315.604C266.546 320.496 276.543 319.432 276.33 323.048V323.155ZM224.539 244.671C224.114 244.139 223.05 244.671 223.263 245.841C223.582 247.436 225.922 255.625 229.963 258.39C232.834 260.517 248.042 263.813 254.848 265.302C258.605 266.011 261.76 267.89 264.313 270.939C263.44 267.409 262.375 263.93 261.122 260.517C259.846 257.326 256.443 253.923 252.827 253.817C246.34 253.498 237.833 252.966 231.558 250.308C228.716 249.109 226.253 247.161 224.433 244.671H224.539Z" fill="white" stroke="#BD6B00" style="fill:white;fill-opacity:1;stroke:#BD6B00;stroke:color(display-p3 0.7412 0.4196 0.0000);stroke-opacity:1;" stroke-width="0.53173"/>
<path id="Vector_35" fill-rule="evenodd" clip-rule="evenodd" d="M262.079 277.107C264.206 278.596 266.44 273.172 263.887 267.961C263.781 272.959 259.846 274.661 262.079 277.107Z" fill="white" stroke="#BD6B00" style="fill:white;fill-opacity:1;stroke:#BD6B00;stroke:color(display-p3 0.7412 0.4196 0.0000);stroke-opacity:1;" stroke-width="0.53173"/>
<path id="Vector_36" fill-rule="evenodd" clip-rule="evenodd" d="M264.1 282.105C266.972 282.956 267.822 277.851 266.014 273.81C266.334 278.17 261.442 280.829 264.1 282.105Z" fill="white" stroke="#BD6B00" style="fill:white;fill-opacity:1;stroke:#BD6B00;stroke:color(display-p3 0.7412 0.4196 0.0000);stroke-opacity:1;" stroke-width="0.53173"/>
<path id="Vector_37" fill-rule="evenodd" clip-rule="evenodd" d="M266.333 286.146C269.098 287.529 270.055 282.318 268.141 278.596C268.354 283.381 264.206 284.87 266.333 286.04V286.146Z" fill="white" stroke="#BD6B00" style="fill:white;fill-opacity:1;stroke:#BD6B00;stroke:color(display-p3 0.7412 0.4196 0.0000);stroke-opacity:1;" stroke-width="0.53173"/>
<path id="Vector_38" fill-rule="evenodd" clip-rule="evenodd" d="M265.163 286.465C264.1 289.656 257.719 283.594 256.656 280.297C260.591 284.232 265.908 283.7 265.163 286.359V286.465Z" fill="white" stroke="#BD6B00" style="fill:white;fill-opacity:1;stroke:#BD6B00;stroke:color(display-p3 0.7412 0.4196 0.0000);stroke-opacity:1;" stroke-width="0.53173"/>
<path id="Vector_39" fill-rule="evenodd" clip-rule="evenodd" d="M262.292 281.467C261.016 284.657 253.04 276.15 251.232 272.215C255.167 276.15 263.143 279.127 262.292 281.361V281.467Z" fill="white" stroke="#BD6B00" style="fill:white;fill-opacity:1;stroke:#BD6B00;stroke:color(display-p3 0.7412 0.4196 0.0000);stroke-opacity:1;" stroke-width="0.53173"/>
<path id="Vector_40" fill-rule="evenodd" clip-rule="evenodd" d="M260.697 276.469C259.421 280.191 250.807 270.301 248.254 266.791C252.508 270.62 261.654 273.81 260.697 276.469ZM260.378 272.853C263.568 272.215 260.271 269.663 256.443 265.515C256.337 269.875 256.975 272.959 260.378 272.853Z" fill="white" stroke="#BD6B00" style="fill:white;fill-opacity:1;stroke:#BD6B00;stroke:color(display-p3 0.7412 0.4196 0.0000);stroke-opacity:1;" stroke-width="0.53173"/>
<path id="Vector_41" fill-rule="evenodd" clip-rule="evenodd" d="M255.167 270.301C256.549 268.918 253.997 268.28 250.807 264.664C250.275 267.11 253.784 271.577 255.273 270.301H255.167ZM270.055 286.465C271.757 287.529 272.82 284.019 270.8 280.935C270.268 284.338 268.566 285.189 270.055 286.465ZM233.685 264.877C230.175 267.004 224.539 258.496 223.05 254.987C226.134 259.028 234.323 262.644 233.685 264.877Z" fill="white" stroke="#BD6B00" style="fill:white;fill-opacity:1;stroke:#BD6B00;stroke:color(display-p3 0.7412 0.4196 0.0000);stroke-opacity:1;" stroke-width="0.53173"/>
<path id="Vector_42" fill-rule="evenodd" clip-rule="evenodd" d="M236.769 269.769C234.749 271.896 228.581 266.047 226.454 263.069C229.644 265.94 237.62 266.259 236.769 269.769Z" fill="white" stroke="#BD6B00" style="fill:white;fill-opacity:1;stroke:#BD6B00;stroke:color(display-p3 0.7412 0.4196 0.0000);stroke-opacity:1;" stroke-width="0.53173"/>
<path id="Vector_43" fill-rule="evenodd" clip-rule="evenodd" d="M240.066 274.235C239.428 277.213 230.495 270.513 228.368 267.323C232.196 271.045 240.704 270.726 240.066 274.235Z" fill="white" stroke="#BD6B00" style="fill:white;fill-opacity:1;stroke:#BD6B00;stroke:color(display-p3 0.7412 0.4196 0.0000);stroke-opacity:1;" stroke-width="0.53173"/>
<path id="Vector_44" fill-rule="evenodd" clip-rule="evenodd" d="M238.684 277.532C237.301 280.191 229.963 273.491 228.155 270.088C232.728 273.917 239.853 274.874 238.79 277.532H238.684ZM234.961 264.452C237.195 262.006 236.238 260.836 234.536 257.008C233.685 260.942 232.303 262.538 234.961 264.452ZM238.045 269.025C242.299 269.237 238.045 264.133 236.982 259.773C237.407 264.664 235.919 268.599 238.045 269.025Z" fill="white" stroke="#BD6B00" style="fill:white;fill-opacity:1;stroke:#BD6B00;stroke:color(display-p3 0.7412 0.4196 0.0000);stroke-opacity:1;" stroke-width="0.53173"/>
<path id="Vector_45" fill-rule="evenodd" clip-rule="evenodd" d="M240.704 273.066C243.575 272.428 242.831 268.28 240.491 263.282C241.023 268.705 238.045 271.789 240.704 273.066ZM239.64 281.254C238.577 284.445 230.282 277 229.006 274.023C233.26 277.638 240.385 278.808 239.64 281.254Z" fill="white" stroke="#BD6B00" style="fill:white;fill-opacity:1;stroke:#BD6B00;stroke:color(display-p3 0.7412 0.4196 0.0000);stroke-opacity:1;" stroke-width="0.53173"/>
<path id="Vector_46" fill-rule="evenodd" clip-rule="evenodd" d="M244.639 286.359C243.469 289.549 234.748 282.956 232.09 279.34C237.301 283.594 245.277 283.169 244.639 286.359Z" fill="white" stroke="#BD6B00" style="fill:white;fill-opacity:1;stroke:#BD6B00;stroke:color(display-p3 0.7412 0.4196 0.0000);stroke-opacity:1;" stroke-width="0.53173"/>
<path id="Vector_47" fill-rule="evenodd" clip-rule="evenodd" d="M249.744 291.57C248.361 296.143 239.215 288.805 236.557 285.189C242.299 289.656 250.382 288.379 249.744 291.57ZM241.236 279.872C243.682 281.042 244.639 274.129 243.256 269.131C243.256 274.448 238.258 278.489 241.13 279.765L241.236 279.872Z" fill="white" stroke="#BD6B00" style="fill:white;fill-opacity:1;stroke:#BD6B00;stroke:color(display-p3 0.7412 0.4196 0.0000);stroke-opacity:1;" stroke-width="0.53173"/>
<path id="Vector_48" fill-rule="evenodd" clip-rule="evenodd" d="M245.383 285.402C248.361 286.252 247.51 278.702 244.851 273.704C244.532 278.702 242.405 283.275 245.383 285.402ZM250.7 290.613C253.891 290.719 251.764 284.126 248.999 280.403C249.424 285.189 247.935 289.975 250.7 290.613ZM244.851 293.378C243.788 295.079 241.448 291.995 237.407 289.656C241.023 290.719 245.277 291.782 244.851 293.378ZM242.937 237.333C246.128 234.994 243.682 230.74 242.937 226.699C241.874 230.527 239.321 235.632 242.937 237.333ZM242.937 242.97C238.152 242.438 238.896 236.483 238.683 232.654C240.172 237.865 244.001 238.716 242.937 243.076V242.97ZM243.575 242.225C247.51 242.013 247.297 237.546 247.51 233.079C245.49 237.227 243.256 237.865 243.575 242.225Z" fill="white" stroke="#BD6B00" style="fill:white;fill-opacity:1;stroke:#BD6B00;stroke:color(display-p3 0.7412 0.4196 0.0000);stroke-opacity:1;" stroke-width="0.53173"/>
<path id="Vector_49" fill-rule="evenodd" clip-rule="evenodd" d="M243.469 247.755C240.279 248.074 238.79 244.99 238.152 240.311C241.023 244.671 243.576 243.289 243.469 247.755ZM244.533 247.436C248.467 247.968 247.723 243.395 247.723 239.992C246.447 243.183 243.256 244.246 244.533 247.436Z" fill="white" stroke="#BD6B00" style="fill:white;fill-opacity:1;stroke:#BD6B00;stroke:color(display-p3 0.7412 0.4196 0.0000);stroke-opacity:1;" stroke-width="0.53173"/>
<path id="Vector_50" fill-rule="evenodd" clip-rule="evenodd" d="M238.364 245.522C238.683 248.5 240.598 253.604 243.682 252.434C244.851 248.819 240.917 248.074 238.364 245.522Z" fill="white" stroke="#BD6B00" style="fill:white;fill-opacity:1;stroke:#BD6B00;stroke:color(display-p3 0.7412 0.4196 0.0000);stroke-opacity:1;" stroke-width="0.53173"/>
<path id="Vector_51" fill-rule="evenodd" clip-rule="evenodd" d="M244.533 252.754C243.256 250.201 247.723 248.819 248.574 245.416C249.105 250.308 248.68 253.498 244.533 252.86V252.754ZM231.877 221.701C234.323 219.148 232.196 214.894 231.452 210.853C230.388 214.682 228.793 219.786 231.877 221.701ZM231.877 226.592C227.624 227.124 226.56 218.404 226.028 214.575C227.517 219.786 232.409 222.02 231.877 226.699V226.592ZM232.728 226.592C235.706 224.997 235.068 221.594 235.918 219.148C234.004 222.232 232.09 222.658 232.728 226.592Z" fill="white" stroke="#BD6B00" style="fill:white;fill-opacity:1;stroke:#BD6B00;stroke:color(display-p3 0.7412 0.4196 0.0000);stroke-opacity:1;" stroke-width="0.53173"/>
<path id="Vector_52" fill-rule="evenodd" clip-rule="evenodd" d="M231.771 232.335C227.411 232.654 224.752 222.977 224.54 219.148C225.922 224.359 232.409 227.124 231.877 232.335H231.771ZM232.728 232.122C236.982 231.165 236.45 228.4 235.812 224.04C234.43 228.507 232.09 227.55 232.728 232.122Z" fill="white" stroke="#BD6B00" style="fill:white;fill-opacity:1;stroke:#BD6B00;stroke:color(display-p3 0.7412 0.4196 0.0000);stroke-opacity:1;" stroke-width="0.53173"/>
<path id="Vector_53" fill-rule="evenodd" clip-rule="evenodd" d="M231.771 237.865C226.879 238.716 227.198 230.846 223.263 225.21C226.666 229.464 232.834 234.781 231.771 237.865ZM232.834 237.546C236.663 237.759 237.088 232.122 236.875 229.783C235.918 232.122 231.558 234.249 232.941 237.652L232.834 237.546Z" fill="white" stroke="#BD6B00" style="fill:white;fill-opacity:1;stroke:#BD6B00;stroke:color(display-p3 0.7412 0.4196 0.0000);stroke-opacity:1;" stroke-width="0.53173"/>
<path id="Vector_54" fill-rule="evenodd" clip-rule="evenodd" d="M224.114 231.803C225.922 237.865 228.58 243.927 231.771 243.502C233.366 239.992 228.687 239.567 224.114 231.803Z" fill="white" stroke="#BD6B00" style="fill:white;fill-opacity:1;stroke:#BD6B00;stroke:color(display-p3 0.7412 0.4196 0.0000);stroke-opacity:1;" stroke-width="0.53173"/>
<path id="Vector_55" fill-rule="evenodd" clip-rule="evenodd" d="M232.941 242.544C231.665 239.886 236.131 238.61 236.982 235.207C237.514 240.098 237.088 243.289 232.941 242.544ZM225.39 238.716C228.049 244.14 229.219 250.414 232.834 249.457C234.217 245.203 228.793 244.352 225.39 238.716Z" fill="white" stroke="#BD6B00" style="fill:white;fill-opacity:1;stroke:#BD6B00;stroke:color(display-p3 0.7412 0.4196 0.0000);stroke-opacity:1;" stroke-width="0.53173"/>
<path id="Vector_56" fill-rule="evenodd" clip-rule="evenodd" d="M233.579 248.5C231.984 245.522 236.45 244.565 237.62 240.63C238.152 245.735 237.62 249.457 233.579 248.393V248.5ZM241.236 211.81C243.788 212.449 246.553 209.577 245.596 205.217C242.618 205.855 241.342 208.62 241.236 211.81ZM232.834 209.577C233.047 210.853 234.642 210.96 234.11 209.152C233.688 207.984 233.688 206.704 234.11 205.536C234.589 203.941 234.589 202.24 234.11 200.644C233.685 199.581 232.196 200.219 232.834 201.069C233.472 201.92 233.579 204.047 233.047 205.004C232.551 206.564 232.48 208.088 232.834 209.577ZM257.188 226.593C256.124 227.975 254.104 227.018 255.699 224.997C256.975 223.402 258.889 222.02 258.889 220.318C259.102 218.191 260.272 215.001 261.441 213.831C262.611 212.661 263.994 214.256 262.718 215.107C261.335 215.958 260.378 219.786 260.484 221.275C260.378 223.402 258.357 224.997 257.188 226.593ZM253.997 224.147C252.934 225.635 251.445 224.678 252.296 222.339C253.04 220.743 253.146 218.617 253.997 217.447C255.273 215.639 257.188 214.15 258.357 212.98C259.634 211.917 260.484 212.98 259.421 214.044C258.117 215.346 256.942 216.77 255.911 218.298C254.423 220.637 255.061 222.551 253.997 224.147ZM237.301 216.49C237.195 218.617 238.896 219.042 238.79 216.064C238.79 212.874 236.45 209.896 237.726 205.111C238.577 202.771 238.577 198.411 238.152 196.178C237.726 193.944 236.025 195.327 236.769 197.135C237.407 199.262 236.663 203.09 236.131 205.111C234.536 210.853 237.407 213.618 237.195 216.49H237.301ZM241.874 204.792C241.661 206.812 239.96 206.919 240.491 204.26C240.917 202.204 240.917 200.325 240.491 198.624C239.853 196.39 240.066 192.562 240.491 190.967C241.023 189.265 242.618 190.222 241.98 191.498C241.244 193.51 241.133 195.697 241.661 197.773C242.299 199.9 242.193 202.877 241.874 204.898V204.792ZM225.284 244.246C226.135 245.203 227.411 244.565 226.347 243.182C225.284 242.119 225.603 241.906 224.965 240.63C224.327 239.141 224.433 238.397 223.689 237.44C222.944 236.376 221.987 237.44 222.625 238.184C223.476 239.248 223.263 239.886 223.689 240.843C224.752 242.438 224.433 243.289 225.284 244.246ZM246.978 270.407C248.256 271.152 249.343 272.184 250.155 273.42C250.967 274.656 251.481 276.064 251.658 277.532C251.769 280.18 252.497 282.766 253.785 285.083C251.658 284.551 250.594 281.148 250.275 277.851C249.956 274.448 248.148 273.066 247.085 270.407H246.978ZM252.402 276.681C254.21 279.978 256.656 281.254 256.869 283.7C257.081 286.572 257.294 286.678 258.038 289.443C255.911 288.911 255.38 288.699 254.848 284.445C254.529 281.467 252.083 279.446 252.402 276.681Z" fill="white" stroke="#BD6B00" style="fill:white;fill-opacity:1;stroke:#BD6B00;stroke:color(display-p3 0.7412 0.4196 0.0000);stroke-opacity:1;" stroke-width="0.53173"/>
<path id="Vector_57" fill-rule="evenodd" clip-rule="evenodd" d="M308.34 307.309C309.403 309.223 310.467 312.095 312.594 311.563C312.594 310.18 310.361 309.117 308.34 307.309ZM311.53 307.947C315.465 309.649 318.975 309.223 319.506 311.776C315.678 312.201 314.189 310.712 311.424 307.947H311.53ZM294.409 294.441C297.051 296.495 298.924 299.38 299.726 302.63C300.583 305.57 301.874 308.365 303.554 310.925C300.789 309.067 298.787 306.272 297.918 303.055C297.174 299.865 296.217 297.419 294.409 294.548V294.441ZM297.705 294.441C300.683 296.781 303.448 299.546 304.299 302.843C305.15 305.927 305.681 308.266 307.702 311.35C304.512 309.33 303.342 306.352 302.385 303.055C301.64 299.865 299.726 297.525 297.705 294.548V294.441ZM307.489 302.204C307.424 301.937 307.465 301.654 307.604 301.416C307.743 301.178 307.968 301.003 308.234 300.928L310.999 300.078C312.062 299.758 312.7 300.503 312.7 301.035V303.162C312.7 303.8 312.452 304.119 311.956 304.119C311.105 304.119 310.254 304.367 309.403 304.863C308.695 305.218 308.163 305.04 307.808 304.331L307.489 302.204ZM318.762 302.204C318.762 301.495 318.549 301.07 318.124 300.928C317.321 300.578 316.444 300.432 315.572 300.503C314.65 300.503 314.26 300.716 314.402 301.141V303.374C314.402 304.225 314.402 304.225 314.827 304.438C315.749 304.367 316.635 304.579 317.486 305.076C318.124 305.359 318.514 305.147 318.656 304.438L318.762 302.204Z" fill="white" style="fill:white;fill-opacity:1;"/>
</g>
<g id="af-a_2">
<path id="Vector_58" fill-rule="evenodd" clip-rule="evenodd" d="M365.448 225.635C366.724 223.509 368.319 228.613 373.743 232.335C376.189 234.037 377.997 238.61 377.997 241.587C377.926 243.714 377.926 245.77 377.997 247.755C378.103 248.925 379.486 251.797 378.529 252.541C376.189 254.243 373.105 258.284 371.722 259.666C370.446 260.73 369.383 254.03 368.532 251.159C367.469 247.968 367.894 244.033 365.129 241.162C363.215 239.035 358.323 237.121 358.748 236.27L365.448 225.635Z" fill="white" stroke="#BD6B00" style="fill:white;fill-opacity:1;stroke:#BD6B00;stroke:color(display-p3 0.7412 0.4196 0.0000);stroke-opacity:1;" stroke-width="0.53173"/>
<path id="Vector_59" fill-rule="evenodd" clip-rule="evenodd" d="M365.767 242.013C366.189 241.009 366.763 240.077 367.468 239.248C368.143 238.404 369.021 237.745 370.021 237.333C371.007 237.059 371.894 236.505 372.573 235.738C372.968 235.274 373.258 234.73 373.424 234.143V232.016L373.743 232.335C376.189 234.037 377.997 238.61 377.997 241.587V244.033C377.855 244.6 377.642 245.061 377.358 245.416L376.189 246.266L373.317 247.011C372.24 247.491 371.293 248.22 370.552 249.138C369.784 249.962 369.14 250.894 368.638 251.903L368.425 251.052C367.575 248.181 367.681 244.778 365.66 242.013H365.767Z" fill="#BF0000" stroke="#BD6B00" style="fill:#BF0000;fill:color(display-p3 0.7490 0.0000 0.0000);fill-opacity:1;stroke:#BD6B00;stroke:color(display-p3 0.7412 0.4196 0.0000);stroke-opacity:1;" stroke-width="0.53173"/>
<path id="Vector_60" d="M373.424 231.91C373.956 235.419 371.935 236.695 370.021 237.333C368.107 238.078 366.511 240.098 365.767 242.013M378.209 243.608C377.359 246.798 375.232 246.373 373.318 247.011C371.403 247.649 369.383 250.201 368.532 252.115" stroke="#BD6B00" style="stroke:#BD6B00;stroke:color(display-p3 0.7412 0.4196 0.0000);stroke-opacity:1;" stroke-width="0.53173"/>
<path id="Vector_61" fill-rule="evenodd" clip-rule="evenodd" d="M367.256 223.508L366.192 222.87L347.369 254.668L348.433 255.306L367.256 223.508Z" fill="white" stroke="#BD6B00" style="fill:white;fill-opacity:1;stroke:#BD6B00;stroke:color(display-p3 0.7412 0.4196 0.0000);stroke-opacity:1;" stroke-width="0.53173"/>
<path id="Vector_62" fill-rule="evenodd" clip-rule="evenodd" d="M365.235 222.232C365.235 222.796 365.459 223.337 365.858 223.736C366.257 224.135 366.798 224.359 367.362 224.359C367.926 224.359 368.467 224.135 368.866 223.736C369.265 223.337 369.489 222.796 369.489 222.232C369.489 221.668 369.265 221.127 368.866 220.728C368.467 220.33 367.926 220.105 367.362 220.105C366.798 220.105 366.257 220.33 365.858 220.728C365.459 221.127 365.235 221.668 365.235 222.232ZM349.07 196.709H341.413V198.411H349.07V196.709ZM349.07 200.006H341.413V214.682H349.07V200.006ZM349.496 194.689H340.988C340.775 191.817 343.647 188.733 345.242 188.733C346.943 188.84 349.602 191.924 349.496 194.689Z" fill="white" stroke="#BD6B00" style="fill:white;fill-opacity:1;stroke:#BD6B00;stroke:color(display-p3 0.7412 0.4196 0.0000);stroke-opacity:1;" stroke-width="0.53173"/>
<path id="Vector_63" fill-rule="evenodd" clip-rule="evenodd" d="M327.908 192.987C329.503 193.625 330.779 195.433 331.523 197.56C332.268 199.687 332.587 202.133 332.162 204.047C332.091 204.756 331.913 205.288 331.63 205.642C331.417 205.997 331.204 206.174 330.992 206.174C330.637 206.174 330.389 206.068 330.247 205.855L330.035 205.004C330.176 202.877 330.07 200.963 329.716 199.262C329.218 197.383 328.092 195.732 326.525 194.582C326.242 194.37 326.064 194.122 325.993 193.838L326.312 193.093C326.809 192.739 327.341 192.704 327.908 192.987ZM327.695 193.413C327.27 193.271 326.915 193.306 326.632 193.519L326.525 193.732C326.525 193.802 326.632 193.944 326.844 194.157C328.491 195.342 329.661 197.077 330.141 199.049C330.576 201.003 330.684 203.015 330.46 205.004L330.673 205.642C330.673 205.642 330.673 205.749 330.885 205.642C330.885 205.642 331.027 205.536 331.311 205.323L331.736 204.047C332.02 201.991 331.772 199.864 330.992 197.666C330.212 195.61 329.148 194.192 327.801 193.413H327.695Z" fill="#BD6B00" style="fill:#BD6B00;fill:color(display-p3 0.7412 0.4196 0.0000);fill-opacity:1;"/>
<path id="Vector_64" fill-rule="evenodd" clip-rule="evenodd" d="M325.143 195.008C326.773 195.859 327.837 197.347 328.333 199.474C328.885 201.519 328.993 203.658 328.652 205.749C328.298 207.167 327.731 207.876 326.951 207.876C326.596 208.017 326.313 207.911 326.1 207.557C325.887 207.202 325.816 206.848 325.887 206.493C326.313 204.721 326.419 202.913 326.206 201.07C325.923 199.226 325.143 197.773 323.867 196.709C323.512 196.426 323.335 196.142 323.335 195.859L323.548 195.221C324.044 194.866 324.576 194.795 325.143 195.008ZM324.93 195.54C324.505 195.398 324.15 195.398 323.867 195.54L323.76 195.859L324.079 196.284C325.479 197.475 326.388 199.142 326.632 200.963C326.915 202.948 326.844 204.792 326.419 206.493C326.419 206.919 326.419 207.202 326.419 207.344L326.951 207.45C327.27 207.45 328.014 206.919 328.227 205.642C328.546 203.835 328.44 201.495 327.908 199.581C327.341 197.525 326.348 196.178 324.93 195.54Z" fill="#BD6B00" style="fill:#BD6B00;fill:color(display-p3 0.7412 0.4196 0.0000);fill-opacity:1;"/>
<path id="Vector_65" fill-rule="evenodd" clip-rule="evenodd" d="M349.496 226.593H340.988V238.291H349.496V226.593ZM348.964 245.097H340.776V247.649H348.964V245.097ZM349.177 249.457H340.669V258.709H349.177V249.457ZM349.815 260.623H340.563V265.834H349.815V260.623ZM348.645 242.97H341.201L339.712 240.418H349.921L348.645 242.97ZM338.649 233.824L338.542 227.443H333.438C335.643 229.141 337.426 231.324 338.649 233.824Z" fill="white" stroke="#BD6B00" style="fill:white;fill-opacity:1;stroke:#BD6B00;stroke:color(display-p3 0.7412 0.4196 0.0000);stroke-opacity:1;" stroke-width="0.53173"/>
<path id="Vector_66" fill-rule="evenodd" clip-rule="evenodd" d="M348.113 236.483C348.113 237.865 346.518 237.334 346.518 236.589V230.634C346.518 229.57 343.966 229.783 343.966 230.527V236.908C343.966 237.972 342.158 237.865 342.264 236.908V229.464C342.264 227.124 348.113 227.231 348.113 229.358V236.483ZM348.113 250.627H342.052V258.071H348.113V250.627Z" stroke="#BD6B00" style="stroke:#BD6B00;stroke:color(display-p3 0.7412 0.4196 0.0000);stroke-opacity:1;" stroke-width="0.53173"/>
<g id="Vector_67">
<path fill-rule="evenodd" clip-rule="evenodd" d="M344.285 253.817H342.158V254.881H344.285V253.817ZM348.007 253.817H345.88V254.881H348.007V253.817ZM345.88 250.627H344.285V253.817H345.88V250.627ZM345.88 254.881H344.285V258.177H345.88V254.881ZM379.592 175.121C379.166 180.97 381.081 184.267 384.165 183.735C385.015 180.545 383.101 178.311 379.592 175.121ZM386.504 188.202C389.269 186.819 387.249 175.972 386.185 171.399C385.441 177.248 384.058 185.543 386.504 188.202Z" fill="white" style="fill:white;fill-opacity:1;"/>
<path d="M344.285 253.817H342.158V254.881H344.285M344.285 253.817V254.881M344.285 253.817V250.627H345.88V253.817M344.285 253.817H345.88M344.285 254.881H345.88M344.285 254.881V258.177H345.88V254.881M345.88 253.817H348.007V254.881H345.88M345.88 253.817V254.881M379.592 175.121C379.166 180.97 381.081 184.267 384.165 183.735C385.015 180.545 383.101 178.311 379.592 175.121ZM386.504 188.202C389.269 186.819 387.249 175.972 386.185 171.399C385.441 177.248 384.058 185.543 386.504 188.202Z" stroke="#BD6B00" style="stroke:#BD6B00;stroke:color(display-p3 0.7412 0.4196 0.0000);stroke-opacity:1;" stroke-width="0.53173"/>
</g>
<path id="Vector_68" fill-rule="evenodd" clip-rule="evenodd" d="M385.547 188.733C380.868 190.329 377.04 185.33 375.87 179.481C379.698 184.799 385.973 184.799 385.441 188.733H385.547ZM389.057 194.157C392.673 193.2 390.546 181.714 389.801 177.142C389.057 181.927 386.505 192.562 389.057 194.157ZM387.781 193.838C387.568 189.903 383.633 190.967 380.868 188.84C381.4 190.967 382.995 194.37 387.781 193.838ZM392.247 199.155C395.863 198.092 393.736 185.756 393.949 180.651C392.885 185.118 389.482 197.985 392.247 199.155ZM390.546 198.624C387.568 199.581 383.633 197.56 383.314 194.051C385.973 195.859 390.014 194.476 390.546 198.624Z" fill="white" stroke="#BD6B00" style="fill:white;fill-opacity:1;stroke:#BD6B00;stroke:color(display-p3 0.7412 0.4196 0.0000);stroke-opacity:1;" stroke-width="0.53173"/>
<path id="Vector_69" fill-rule="evenodd" clip-rule="evenodd" d="M395.012 204.579C398.415 204.898 396.926 194.37 396.926 184.586C395.65 193.732 392.141 202.133 395.012 204.579Z" fill="white" stroke="#BD6B00" style="fill:white;fill-opacity:1;stroke:#BD6B00;stroke:color(display-p3 0.7412 0.4196 0.0000);stroke-opacity:1;" stroke-width="0.53173"/>
<path id="Vector_70" fill-rule="evenodd" clip-rule="evenodd" d="M393.736 204.153C391.396 205.217 387.249 203.409 386.079 199.474C390.333 201.282 393.098 199.474 393.736 204.153ZM366.511 180.545C367.149 185.756 369.276 188.733 372.36 188.202C373.211 185.011 370.659 182.884 366.511 180.545ZM374.806 193.732C369.595 194.476 367.787 190.541 364.172 185.33C369.17 188.946 375.019 189.584 374.806 193.838V193.732Z" fill="white" stroke="#BD6B00" style="fill:white;fill-opacity:1;stroke:#BD6B00;stroke:color(display-p3 0.7412 0.4196 0.0000);stroke-opacity:1;" stroke-width="0.53173"/>
<path id="Vector_71" fill-rule="evenodd" clip-rule="evenodd" d="M376.401 193.2C379.166 189.797 376.401 185.437 374.275 181.821C374.7 187.244 372.892 190.328 376.401 193.2ZM377.465 198.836C377.89 195.433 372.148 194.689 369.595 192.881C370.552 194.795 371.722 200.006 377.571 198.836H377.465Z" fill="white" stroke="#BD6B00" style="fill:white;fill-opacity:1;stroke:#BD6B00;stroke:color(display-p3 0.7412 0.4196 0.0000);stroke-opacity:1;" stroke-width="0.53173"/>
<path id="Vector_72" fill-rule="evenodd" clip-rule="evenodd" d="M378.741 198.836C382.676 198.411 381.081 191.711 378.209 188.095C379.379 193.2 376.082 196.709 378.741 198.836Z" fill="white" stroke="#BD6B00" style="fill:white;fill-opacity:1;stroke:#BD6B00;stroke:color(display-p3 0.7412 0.4196 0.0000);stroke-opacity:1;" stroke-width="0.53173"/>
<path id="Vector_73" fill-rule="evenodd" clip-rule="evenodd" d="M381.719 204.472C386.185 202.346 383.314 196.816 381.719 193.519C382.357 197.879 378.741 201.176 381.719 204.366V204.472Z" fill="white" stroke="#BD6B00" style="fill:white;fill-opacity:1;stroke:#BD6B00;stroke:color(display-p3 0.7412 0.4196 0.0000);stroke-opacity:1;" stroke-width="0.53173"/>
<path id="Vector_74" fill-rule="evenodd" clip-rule="evenodd" d="M380.868 203.834C378.528 207.025 373.955 202.984 372.998 198.304C376.933 201.601 379.911 201.069 380.868 203.941V203.834ZM391.077 225.423C391.502 220.85 388.099 212.661 390.545 208.195C390.864 207.557 389.801 205.961 389.056 206.918C387.993 208.514 386.93 212.98 386.398 211.279C385.866 209.577 385.866 206.387 384.271 205.749C383.207 205.43 381.825 205.111 382.25 206.812C382.676 208.301 383.526 210.428 382.569 210.534C382.038 210.534 380.442 208.407 379.06 207.344C377.996 206.493 376.295 207.982 377.996 209.258C383.101 213.512 388.099 215.532 391.077 225.423ZM400.329 294.016C400.967 294.016 401.712 293.697 400.967 294.654C394.906 302.098 393.204 304.225 384.377 303.162C375.551 301.992 373.424 299.546 367.149 296.036C363.467 294.151 359.196 293.77 355.238 294.973C353.537 295.505 352.473 295.505 353.75 294.229C355.026 292.952 356.408 291.357 358.003 290.187C361.991 287.583 366.807 286.56 371.509 287.316C377.89 288.38 383.314 292.527 389.801 294.122C393.275 294.824 396.855 294.824 400.329 294.122V294.016ZM349.496 307.309C348.432 307.522 347.688 309.649 347.05 308.266C346.199 305.82 346.837 304.012 347.901 304.119C349.177 304.438 351.197 307.309 349.496 307.309Z" fill="white" stroke="#BD6B00" style="fill:white;fill-opacity:1;stroke:#BD6B00;stroke:color(display-p3 0.7412 0.4196 0.0000);stroke-opacity:1;" stroke-width="0.53173"/>
<path id="Vector_75" fill-rule="evenodd" clip-rule="evenodd" d="M404.477 221.913C405.753 220.495 405.399 219.822 403.414 219.893C401.925 219.893 398.947 220.956 397.777 219.999C396.714 219.255 397.246 216.064 396.714 214.682C396.501 213.725 395.969 212.555 394.587 214.469C390.758 220.637 386.079 228.081 383.952 235.313C382.889 239.354 383.952 245.735 387.568 249.989C387.568 246.373 388.844 243.927 390.439 240.843C392.566 236.908 400.117 225.955 404.477 221.807V221.913Z" fill="white" style="fill:white;fill-opacity:1;"/>
<path id="Vector_76" fill-rule="evenodd" clip-rule="evenodd" d="M388.632 254.243C384.378 254.243 383.633 248.606 383.633 247.011C385.76 247.436 389.376 250.946 388.632 254.243ZM351.942 309.436C348.964 310.074 349.071 302.843 352.155 299.759C350.772 304.438 354.282 308.692 352.048 309.33L351.942 309.436ZM353.218 309.33C353.006 312.733 361.726 308.904 363.853 306.139C358.748 308.373 353.431 306.565 353.218 309.33ZM356.94 304.438C356.621 307.735 364.385 304.757 366.831 302.205C361.62 303.906 357.259 301.673 356.94 304.331V304.438ZM355.558 304.863C352.474 305.608 353.006 298.057 355.983 295.505C354.494 300.503 357.898 304.119 355.558 304.863ZM358.748 300.29C355.664 301.035 357.472 294.548 359.705 291.995C359.28 296.675 360.769 299.971 358.642 300.29H358.748ZM360.343 300.29C360.024 303.693 366.086 301.141 368.426 297.844C363.321 299.44 360.663 297.525 360.343 300.29ZM361.939 297.632C360.024 296.249 362.045 292.527 365.873 292.74C365.448 294.973 364.172 299.014 361.939 297.632ZM347.05 313.265C346.944 316.668 355.558 314.966 358.323 311.35C352.793 312.414 347.369 310.5 347.157 313.265H347.05ZM381.506 307.096C381.187 310.5 390.652 306.671 392.992 303.481C387.993 305.182 381.825 304.331 381.506 307.096ZM375.764 308.479C373.743 307.096 377.784 303.481 381.081 302.63C380.656 304.863 377.891 309.861 375.764 308.585V308.479ZM375.126 310.925C374.913 314.009 385.228 312.307 387.887 309.436C379.06 311.031 375.445 308.266 375.126 310.925Z" fill="white" stroke="#BD6B00" style="fill:white;fill-opacity:1;stroke:#BD6B00;stroke:color(display-p3 0.7412 0.4196 0.0000);stroke-opacity:1;" stroke-width="0.53173"/>
<path id="Vector_77" fill-rule="evenodd" clip-rule="evenodd" d="M370.233 312.945C369.17 315.817 379.06 315.072 382.569 313.477C376.933 313.477 371.084 310.925 370.233 312.945Z" fill="white" stroke="#BD6B00" style="fill:white;fill-opacity:1;stroke:#BD6B00;stroke:color(display-p3 0.7412 0.4196 0.0000);stroke-opacity:1;" stroke-width="0.53173"/>
<path id="Vector_78" fill-rule="evenodd" clip-rule="evenodd" d="M365.661 315.072C364.597 317.625 373.743 317.625 378.209 316.136C372.254 316.136 366.724 312.52 365.661 315.072ZM358.961 316.455C357.259 319.539 367.043 319.752 370.127 318.263C364.597 317.518 360.343 314.009 358.961 316.455ZM370.34 311.244C373.424 313.158 373.211 307.416 375.657 303.481C371.829 306.99 368.213 309.436 370.34 311.244Z" fill="white" stroke="#BD6B00" style="fill:white;fill-opacity:1;stroke:#BD6B00;stroke:color(display-p3 0.7412 0.4196 0.0000);stroke-opacity:1;" stroke-width="0.53173"/>
<path id="Vector_79" fill-rule="evenodd" clip-rule="evenodd" d="M364.81 313.371C367.362 315.604 369.489 307.734 371.829 303.268C368 307.522 362.47 311.456 364.81 313.264V313.371ZM357.578 315.498C359.705 318.05 366.086 308.053 368.426 302.736C364.916 306.884 355.877 313.371 357.578 315.498ZM363.746 323.155C364.81 326.983 380.974 319.539 382.889 315.604C373.53 320.496 363.534 319.432 363.746 323.048V323.155ZM415.537 244.671C415.962 244.139 417.026 244.671 416.813 245.841C416.494 247.436 414.154 255.625 410.113 258.39C407.242 260.517 392.034 263.813 385.228 265.302C381.471 266.011 378.316 267.89 375.763 270.939C376.637 267.409 377.702 263.93 378.954 260.517C380.23 257.326 383.633 253.923 387.249 253.817C393.736 253.498 402.244 252.966 408.518 250.308C411.36 249.109 413.823 247.161 415.643 244.671H415.537Z" fill="white" stroke="#BD6B00" style="fill:white;fill-opacity:1;stroke:#BD6B00;stroke:color(display-p3 0.7412 0.4196 0.0000);stroke-opacity:1;" stroke-width="0.53173"/>
<path id="Vector_80" fill-rule="evenodd" clip-rule="evenodd" d="M377.997 277.107C375.87 278.596 373.637 273.172 376.189 267.961C376.295 272.959 380.23 274.661 377.997 277.107Z" fill="white" stroke="#BD6B00" style="fill:white;fill-opacity:1;stroke:#BD6B00;stroke:color(display-p3 0.7412 0.4196 0.0000);stroke-opacity:1;" stroke-width="0.53173"/>
<path id="Vector_81" fill-rule="evenodd" clip-rule="evenodd" d="M375.976 282.105C373.105 282.956 372.254 277.851 374.062 273.81C373.743 278.17 378.635 280.829 375.976 282.105Z" fill="white" stroke="#BD6B00" style="fill:white;fill-opacity:1;stroke:#BD6B00;stroke:color(display-p3 0.7412 0.4196 0.0000);stroke-opacity:1;" stroke-width="0.53173"/>
<path id="Vector_82" fill-rule="evenodd" clip-rule="evenodd" d="M373.743 286.146C370.978 287.529 370.021 282.318 371.935 278.596C371.722 283.381 375.87 284.87 373.743 286.04V286.146Z" fill="white" stroke="#BD6B00" style="fill:white;fill-opacity:1;stroke:#BD6B00;stroke:color(display-p3 0.7412 0.4196 0.0000);stroke-opacity:1;" stroke-width="0.53173"/>
<path id="Vector_83" fill-rule="evenodd" clip-rule="evenodd" d="M374.913 286.465C375.976 289.656 382.357 283.594 383.42 280.297C379.486 284.232 374.168 283.7 374.913 286.359V286.465Z" fill="white" stroke="#BD6B00" style="fill:white;fill-opacity:1;stroke:#BD6B00;stroke:color(display-p3 0.7412 0.4196 0.0000);stroke-opacity:1;" stroke-width="0.53173"/>
<path id="Vector_84" fill-rule="evenodd" clip-rule="evenodd" d="M377.784 281.467C379.06 284.657 387.036 276.15 388.844 272.215C384.909 276.15 376.933 279.127 377.784 281.361V281.467Z" fill="white" stroke="#BD6B00" style="fill:white;fill-opacity:1;stroke:#BD6B00;stroke:color(display-p3 0.7412 0.4196 0.0000);stroke-opacity:1;" stroke-width="0.53173"/>
<path id="Vector_85" fill-rule="evenodd" clip-rule="evenodd" d="M379.379 276.469C380.655 280.191 389.269 270.301 391.822 266.791C387.568 270.62 378.422 273.81 379.379 276.469ZM379.698 272.853C376.508 272.215 379.805 269.663 383.633 265.515C383.739 269.875 383.101 272.959 379.698 272.853Z" fill="white" stroke="#BD6B00" style="fill:white;fill-opacity:1;stroke:#BD6B00;stroke:color(display-p3 0.7412 0.4196 0.0000);stroke-opacity:1;" stroke-width="0.53173"/>
<path id="Vector_86" fill-rule="evenodd" clip-rule="evenodd" d="M384.909 270.301C383.527 268.918 386.079 268.28 389.27 264.664C389.801 267.11 386.292 271.577 384.803 270.301H384.909ZM370.021 286.465C368.319 287.529 367.256 284.019 369.277 280.935C369.808 284.338 371.51 285.189 370.021 286.465ZM406.391 264.877C409.901 267.004 415.537 258.496 417.026 254.987C413.942 259.028 405.753 262.644 406.391 264.877Z" fill="white" stroke="#BD6B00" style="fill:white;fill-opacity:1;stroke:#BD6B00;stroke:color(display-p3 0.7412 0.4196 0.0000);stroke-opacity:1;" stroke-width="0.53173"/>
<path id="Vector_87" fill-rule="evenodd" clip-rule="evenodd" d="M403.307 269.769C405.328 271.896 411.496 266.047 413.623 263.069C410.432 265.94 402.456 266.259 403.307 269.769Z" fill="white" stroke="#BD6B00" style="fill:white;fill-opacity:1;stroke:#BD6B00;stroke:color(display-p3 0.7412 0.4196 0.0000);stroke-opacity:1;" stroke-width="0.53173"/>
<path id="Vector_88" fill-rule="evenodd" clip-rule="evenodd" d="M400.01 274.235C400.649 277.213 409.582 270.513 411.708 267.323C407.88 271.045 399.372 270.726 400.01 274.235Z" fill="white" stroke="#BD6B00" style="fill:white;fill-opacity:1;stroke:#BD6B00;stroke:color(display-p3 0.7412 0.4196 0.0000);stroke-opacity:1;" stroke-width="0.53173"/>
<path id="Vector_89" fill-rule="evenodd" clip-rule="evenodd" d="M401.393 277.532C402.775 280.191 410.113 273.491 411.921 270.088C407.348 273.917 400.223 274.874 401.286 277.532H401.393ZM405.115 264.452C402.881 262.006 403.839 260.836 405.54 257.008C406.391 260.942 407.773 262.538 405.115 264.452ZM402.031 269.025C397.777 269.237 402.031 264.133 403.094 259.773C402.669 264.664 404.158 268.599 402.031 269.025Z" fill="white" stroke="#BD6B00" style="fill:white;fill-opacity:1;stroke:#BD6B00;stroke:color(display-p3 0.7412 0.4196 0.0000);stroke-opacity:1;" stroke-width="0.53173"/>
<path id="Vector_90" fill-rule="evenodd" clip-rule="evenodd" d="M399.372 273.066C396.501 272.428 397.245 268.28 399.585 263.282C399.053 268.705 402.031 271.789 399.372 273.066ZM400.436 281.254C401.499 284.445 409.794 277 411.07 274.023C406.816 277.638 399.691 278.808 400.436 281.254Z" fill="white" stroke="#BD6B00" style="fill:white;fill-opacity:1;stroke:#BD6B00;stroke:color(display-p3 0.7412 0.4196 0.0000);stroke-opacity:1;" stroke-width="0.53173"/>
<path id="Vector_91" fill-rule="evenodd" clip-rule="evenodd" d="M395.437 286.359C396.607 289.549 405.328 282.956 407.986 279.34C402.775 283.594 394.799 283.169 395.437 286.359Z" fill="white" stroke="#BD6B00" style="fill:white;fill-opacity:1;stroke:#BD6B00;stroke:color(display-p3 0.7412 0.4196 0.0000);stroke-opacity:1;" stroke-width="0.53173"/>
<path id="Vector_92" fill-rule="evenodd" clip-rule="evenodd" d="M390.333 291.57C391.715 296.143 400.861 288.805 403.52 285.189C397.777 289.656 389.695 288.379 390.333 291.57ZM398.84 279.872C396.394 281.042 395.437 274.129 396.82 269.131C396.82 274.448 401.818 278.489 398.947 279.765L398.84 279.872Z" fill="white" stroke="#BD6B00" style="fill:white;fill-opacity:1;stroke:#BD6B00;stroke:color(display-p3 0.7412 0.4196 0.0000);stroke-opacity:1;" stroke-width="0.53173"/>
<path id="Vector_93" fill-rule="evenodd" clip-rule="evenodd" d="M394.693 285.402C391.715 286.252 392.566 278.702 395.225 273.704C395.544 278.702 397.671 283.275 394.693 285.402ZM389.376 290.613C386.185 290.719 388.312 284.126 391.077 280.403C390.652 285.189 392.141 289.975 389.376 290.613ZM395.225 293.378C396.288 295.079 398.628 291.995 402.669 289.656C399.053 290.719 394.799 291.782 395.225 293.378ZM397.139 237.333C393.949 234.994 396.395 230.74 397.139 226.699C398.202 230.527 400.755 235.632 397.139 237.333ZM397.139 242.97C401.925 242.438 401.18 236.483 401.393 232.654C399.904 237.865 396.075 238.716 397.139 243.076V242.97ZM396.501 242.225C392.566 242.013 392.779 237.546 392.566 233.079C394.587 237.227 396.82 237.865 396.501 242.225Z" fill="white" stroke="#BD6B00" style="fill:white;fill-opacity:1;stroke:#BD6B00;stroke:color(display-p3 0.7412 0.4196 0.0000);stroke-opacity:1;" stroke-width="0.53173"/>
<path id="Vector_94" fill-rule="evenodd" clip-rule="evenodd" d="M396.607 247.755C399.797 248.074 401.286 244.99 401.924 240.311C399.053 244.671 396.501 243.289 396.607 247.755ZM395.544 247.436C391.609 247.968 392.353 243.395 392.353 239.992C393.629 243.183 396.82 244.246 395.544 247.436Z" fill="white" stroke="#BD6B00" style="fill:white;fill-opacity:1;stroke:#BD6B00;stroke:color(display-p3 0.7412 0.4196 0.0000);stroke-opacity:1;" stroke-width="0.53173"/>
<path id="Vector_95" fill-rule="evenodd" clip-rule="evenodd" d="M401.712 245.522C401.393 248.5 399.479 253.604 396.395 252.434C395.225 248.819 399.16 248.074 401.712 245.522Z" fill="white" stroke="#BD6B00" style="fill:white;fill-opacity:1;stroke:#BD6B00;stroke:color(display-p3 0.7412 0.4196 0.0000);stroke-opacity:1;" stroke-width="0.53173"/>
<path id="Vector_96" fill-rule="evenodd" clip-rule="evenodd" d="M395.544 252.754C396.82 250.201 392.353 248.819 391.503 245.416C390.971 250.308 391.396 253.498 395.544 252.86V252.754ZM408.199 221.701C405.753 219.148 407.88 214.894 408.624 210.853C409.688 214.682 411.283 219.786 408.199 221.701ZM408.199 226.592C412.453 227.124 413.516 218.404 414.048 214.575C412.559 219.786 407.667 222.02 408.199 226.699V226.592ZM407.348 226.592C404.37 224.997 405.008 221.594 404.158 219.148C406.072 222.232 407.986 222.658 407.348 226.592Z" fill="white" stroke="#BD6B00" style="fill:white;fill-opacity:1;stroke:#BD6B00;stroke:color(display-p3 0.7412 0.4196 0.0000);stroke-opacity:1;" stroke-width="0.53173"/>
<path id="Vector_97" fill-rule="evenodd" clip-rule="evenodd" d="M408.305 232.335C412.665 232.654 415.324 222.977 415.537 219.148C414.154 224.359 407.667 227.124 408.199 232.335H408.305ZM407.348 232.122C403.094 231.165 403.626 228.4 404.264 224.04C405.646 228.507 407.986 227.55 407.348 232.122Z" fill="white" stroke="#BD6B00" style="fill:white;fill-opacity:1;stroke:#BD6B00;stroke:color(display-p3 0.7412 0.4196 0.0000);stroke-opacity:1;" stroke-width="0.53173"/>
<path id="Vector_98" fill-rule="evenodd" clip-rule="evenodd" d="M408.305 237.865C413.197 238.716 412.878 230.846 416.813 225.21C413.41 229.464 407.242 234.781 408.305 237.865ZM407.242 237.546C403.413 237.759 402.988 232.122 403.201 229.783C404.158 232.122 408.518 234.249 407.135 237.652L407.242 237.546Z" fill="white" stroke="#BD6B00" style="fill:white;fill-opacity:1;stroke:#BD6B00;stroke:color(display-p3 0.7412 0.4196 0.0000);stroke-opacity:1;" stroke-width="0.53173"/>
<path id="Vector_99" fill-rule="evenodd" clip-rule="evenodd" d="M415.962 231.803C414.155 237.865 411.496 243.927 408.305 243.502C406.71 239.992 411.39 239.567 415.962 231.803Z" fill="white" stroke="#BD6B00" style="fill:white;fill-opacity:1;stroke:#BD6B00;stroke:color(display-p3 0.7412 0.4196 0.0000);stroke-opacity:1;" stroke-width="0.53173"/>
<path id="Vector_100" fill-rule="evenodd" clip-rule="evenodd" d="M407.135 242.544C408.412 239.886 403.945 238.61 403.094 235.207C402.563 240.098 402.988 243.289 407.135 242.544ZM414.686 238.716C412.027 244.14 410.858 250.414 407.242 249.457C405.859 245.203 411.283 244.352 414.686 238.716Z" fill="white" stroke="#BD6B00" style="fill:white;fill-opacity:1;stroke:#BD6B00;stroke:color(display-p3 0.7412 0.4196 0.0000);stroke-opacity:1;" stroke-width="0.53173"/>
<path id="Vector_101" fill-rule="evenodd" clip-rule="evenodd" d="M406.497 248.5C408.093 245.522 403.626 244.565 402.456 240.63C401.925 245.735 402.456 249.457 406.497 248.393V248.5ZM398.84 211.81C396.288 212.449 393.523 209.577 394.48 205.217C397.458 205.855 398.734 208.62 398.84 211.81ZM407.242 209.577C407.029 210.853 405.434 210.96 405.966 209.152C406.388 207.984 406.388 206.704 405.966 205.536C405.487 203.941 405.487 202.24 405.966 200.644C406.391 199.581 407.88 200.219 407.242 201.069C406.604 201.92 406.497 204.047 407.029 205.004C407.525 206.564 407.596 208.088 407.242 209.577ZM382.889 226.593C383.952 227.975 385.973 227.018 384.377 224.997C383.101 223.402 381.187 222.02 381.187 220.318C380.974 218.191 379.805 215.001 378.635 213.831C377.465 212.661 376.082 214.256 377.359 215.107C378.741 215.958 379.698 219.786 379.592 221.275C379.698 223.402 381.719 224.997 382.889 226.593ZM386.079 224.147C387.142 225.635 388.631 224.678 387.781 222.339C387.036 220.743 386.93 218.617 386.079 217.447C384.803 215.639 382.889 214.15 381.719 212.98C380.443 211.917 379.592 212.98 380.655 214.044C381.959 215.346 383.134 216.77 384.165 218.298C385.654 220.637 385.016 222.551 386.079 224.147ZM402.775 216.49C402.882 218.617 401.18 219.042 401.286 216.064C401.286 212.874 403.626 209.896 402.35 205.111C401.499 202.771 401.499 198.411 401.925 196.178C402.35 193.944 404.051 195.327 403.307 197.135C402.669 199.262 403.413 203.09 403.945 205.111C405.54 210.853 402.669 213.618 402.882 216.49H402.775ZM398.202 204.792C398.415 206.812 400.117 206.919 399.585 204.26C399.16 202.204 399.16 200.325 399.585 198.624C400.223 196.39 400.01 192.562 399.585 190.967C399.053 189.265 397.458 190.222 398.096 191.498C398.832 193.51 398.943 195.697 398.415 197.773C397.777 199.9 397.883 202.877 398.202 204.898V204.792ZM414.792 244.246C413.942 245.203 412.665 244.565 413.729 243.182C414.792 242.119 414.473 241.906 415.111 240.63C415.749 239.141 415.643 238.397 416.388 237.44C417.132 236.376 418.089 237.44 417.451 238.184C416.6 239.248 416.813 239.886 416.388 240.843C415.324 242.438 415.643 243.289 414.792 244.246ZM393.098 270.407C391.82 271.152 390.733 272.184 389.921 273.42C389.109 274.656 388.595 276.064 388.419 277.532C388.307 280.18 387.579 282.766 386.292 285.083C388.419 284.551 389.482 281.148 389.801 277.851C390.12 274.448 391.928 273.066 392.991 270.407H393.098ZM387.674 276.681C385.866 279.978 383.42 281.254 383.208 283.7C382.995 286.572 382.782 286.678 382.038 289.443C384.165 288.911 384.696 288.699 385.228 284.445C385.547 281.467 387.993 279.446 387.674 276.681Z" fill="white" stroke="#BD6B00" style="fill:white;fill-opacity:1;stroke:#BD6B00;stroke:color(display-p3 0.7412 0.4196 0.0000);stroke-opacity:1;" stroke-width="0.53173"/>
<path id="Vector_102" fill-rule="evenodd" clip-rule="evenodd" d="M331.736 307.309C330.673 309.223 329.609 312.095 327.482 311.563C327.482 310.18 329.716 309.117 331.736 307.309ZM328.546 307.947C324.611 309.649 321.102 309.223 320.57 311.776C324.398 312.201 325.887 310.712 328.652 307.947H328.546ZM345.667 294.441C343.025 296.495 341.152 299.38 340.35 302.63C339.493 305.57 338.203 308.365 336.522 310.925C339.287 309.067 341.289 306.272 342.158 303.055C342.902 299.865 343.86 297.419 345.667 294.548V294.441ZM342.371 294.441C339.393 296.781 336.628 299.546 335.777 302.843C334.927 305.927 334.395 308.266 332.374 311.35C335.565 309.33 336.734 306.352 337.692 303.055C338.436 299.865 340.35 297.525 342.371 294.548V294.441ZM332.587 302.204C332.652 301.937 332.611 301.654 332.473 301.416C332.334 301.178 332.108 301.003 331.843 300.928L329.077 300.078C328.014 299.758 327.376 300.503 327.376 301.035V303.162C327.376 303.8 327.624 304.119 328.12 304.119C328.971 304.119 329.822 304.367 330.673 304.863C331.382 305.218 331.913 305.04 332.268 304.331L332.587 302.204ZM321.314 302.204C321.314 301.495 321.527 301.07 321.952 300.928C322.755 300.578 323.632 300.432 324.505 300.503C325.426 300.503 325.816 300.716 325.674 301.141V303.374C325.674 304.225 325.674 304.225 325.249 304.438C324.327 304.367 323.441 304.579 322.59 305.076C321.952 305.359 321.562 305.147 321.421 304.438L321.314 302.204Z" fill="white" style="fill:white;fill-opacity:1;"/>
</g>
<g id="Group_3">
<path id="Vector_103" fill-rule="evenodd" clip-rule="evenodd" d="M350.347 332.088C350.276 333.364 350.63 334.463 351.41 335.384C346.545 333.915 341.305 334.332 336.735 336.554C334.82 337.405 332.481 335.491 334.714 333.683C337.904 331.237 345.03 332.619 350.347 332.088ZM289.198 332.088C289.29 333.169 289.145 334.258 288.772 335.278C293.452 333.47 298.45 335.065 303.236 336.98C306.426 338.362 306.745 335.916 306.213 335.172C305.598 334.309 304.805 333.587 303.888 333.055C302.971 332.523 301.951 332.193 300.896 332.088H289.198ZM293.239 309.011C291.821 308.514 290.403 309.011 288.985 310.499C284.412 314.966 278.989 319.326 274.628 322.836C273.033 324.218 271.438 326.77 278.244 329.216C278.563 329.429 283.562 331.343 286.752 331.343C288.134 331.343 288.134 333.257 287.815 333.789C287.284 334.853 287.709 335.278 286.646 336.235C285.476 337.299 286.646 338.468 287.709 337.618C291.537 334.215 297.918 336.448 303.98 338.362C305.469 338.787 308.021 338.681 308.021 336.66C308.021 334.64 309.616 333.045 310.573 332.938C313.126 333.364 325.462 333.47 329.184 333.045C331.311 332.726 331.524 336.129 332.693 337.299C333.544 338.256 336.628 338.468 338.861 337.511C343.115 335.597 349.496 335.597 352.155 337.511C353.218 338.256 354.175 337.511 353.537 336.767C352.686 335.703 352.793 335.065 352.367 334.215C351.304 332.088 352.155 331.662 353.218 331.556C364.916 329.961 368.745 326.026 365.129 322.729C360.45 318.688 355.345 314.541 350.879 309.755C349.602 308.479 348.752 307.947 346.306 309.011C337.832 312.837 328.692 314.969 319.4 315.285C310.397 314.704 301.554 312.619 293.239 309.117V309.011Z" fill="white" style="fill:white;fill-opacity:1;"/>
<path id="Vector_104" fill-rule="evenodd" clip-rule="evenodd" d="M348.326 309.649L346.625 310.074C337.053 313.477 328.333 315.817 319.294 315.817C310.467 315.817 301.215 313.264 292.813 309.861C292.302 309.654 291.73 309.654 291.218 309.861C290.651 310.003 290.19 310.251 289.836 310.606C285.904 314.536 281.712 318.195 277.287 321.559C276.543 322.091 276.649 323.474 277.819 323.899C286.645 327.089 295.259 332.938 319.932 332.726C344.923 332.513 353.75 326.77 361.619 324.112C362.187 323.899 362.647 323.545 363.002 323.048L363.108 322.197L362.47 321.347C357.897 317.625 353.112 314.647 349.921 310.287C349.567 309.79 349.035 309.613 348.326 309.755V309.649ZM348.326 310.18C348.964 310.18 349.354 310.287 349.496 310.499C352.686 315.072 357.685 317.944 362.151 321.666L362.576 322.41V322.836C362.364 323.19 362.009 323.438 361.513 323.58C353.431 326.345 344.817 332.088 320.038 332.3C295.366 332.513 286.858 326.664 278.031 323.474C277.181 323.048 277.287 322.198 277.606 321.985C282.143 318.511 286.326 314.824 290.155 310.925L291.325 310.287H292.601C301.006 313.938 310.028 315.959 319.187 316.242C328.439 316.242 337.266 313.903 346.837 310.606L348.432 310.18H348.326Z" fill="#BD6B00" style="fill:#BD6B00;fill:color(display-p3 0.7412 0.4196 0.0000);fill-opacity:1;"/>
<path id="Vector_105" fill-rule="evenodd" clip-rule="evenodd" d="M287.815 149.173C287.815 147.684 289.942 147.577 289.73 149.598C289.411 152.044 294.515 158.425 294.941 162.359C295.26 165.018 293.345 167.251 291.537 168.74C290.477 169.438 289.256 169.853 287.991 169.946C286.725 170.039 285.457 169.807 284.306 169.272C283.349 168.421 282.498 165.762 283.242 164.699C283.455 164.38 284.625 168.634 287.177 168.634C290.687 168.634 293.558 165.975 293.558 163.636C293.771 159.594 287.922 153.214 287.815 149.173ZM297.918 159.169C298.556 158.744 299.407 160.552 298.769 160.977C298.131 161.402 297.174 159.594 297.918 159.063V159.169ZM299.513 155.447C299.194 155.66 298.663 155.447 298.769 155.234C299.791 153.814 301.094 152.62 302.597 151.725C303.023 151.512 303.661 152.15 303.448 152.469C302.363 153.73 301.022 154.745 299.513 155.447ZM312.913 144.812C313.232 144.174 315.146 143.43 315.678 143.004C316.103 142.473 316.316 143.43 316.103 143.749C315.784 144.493 314.083 145.557 313.338 145.663C312.913 145.592 312.771 145.344 312.913 144.919V144.812ZM317.486 145.131C318.032 143.71 318.951 142.461 320.145 141.516C320.676 141.197 321.527 141.516 321.314 141.941C320.592 143.348 319.532 144.553 318.23 145.45C317.911 145.769 317.38 145.45 317.486 145.131ZM313.551 148.003C313.338 148.357 313.374 148.641 313.657 148.853C314.366 149.066 315.075 149.066 315.784 148.853C316.422 148.428 316.103 145.769 315.253 147.152C314.615 148.003 314.189 147.79 313.551 148.003ZM305.788 153.958C304.405 152.895 306.213 151.406 307.596 152.469C310.467 154.596 303.342 162.891 299.513 166.72C298.769 167.464 298.131 165.656 299.088 164.699C301.853 162.376 304.255 159.652 306.213 156.617C306.639 156.085 306.958 154.915 305.788 153.958ZM322.059 146.939C322.165 145.876 320.357 146.939 320.357 145.557C320.357 144.812 322.378 144.281 323.229 145.131C324.611 146.62 323.548 149.066 321.102 149.279C319.187 149.279 315.784 152.15 316.316 152.682C316.848 153.426 322.059 153.852 325.143 153.426C327.057 153.107 326.632 154.809 324.717 155.022C322.803 155.234 321.314 155.022 319.613 155.66C317.486 156.191 316.635 158.85 315.465 159.913C315.253 160.126 314.615 159.063 314.827 158.637C315.678 157.361 316.954 155.447 318.443 154.809C319.294 154.49 315.891 154.383 314.827 154.064C313.976 153.852 314.189 152.682 314.508 152.044C314.934 151.193 318.124 147.896 319.506 148.003C320.676 148.003 321.952 147.684 322.059 146.939ZM327.376 147.152C327.943 146.514 328.475 145.876 328.971 145.238C329.29 144.919 329.928 145.238 329.822 146.088C329.716 146.833 328.759 147.365 328.227 147.896C327.695 148.215 327.163 147.471 327.482 147.152H327.376ZM334.289 144.706C335.246 144.706 335.352 146.408 334.501 146.62C333.863 146.833 333.438 144.812 334.289 144.706ZM332.055 150.023C332.055 151.618 332.8 151.512 334.182 151.406C335.565 151.299 336.735 151.406 336.735 150.13C336.735 148.747 335.99 147.471 335.671 148.428C335.565 149.279 335.352 150.768 334.82 150.13C334.395 149.598 334.608 149.492 333.757 150.342C333.225 150.874 333.225 150.13 332.906 149.704C332.693 149.385 332.055 149.917 332.055 150.13V150.023ZM322.271 157.68C321.952 159.701 322.271 162.466 323.229 162.466C324.505 162.466 327.057 158.212 328.333 155.872C329.078 154.596 330.247 154.383 329.716 155.766C328.971 157.787 329.078 162.147 329.716 163.423C330.141 164.061 332.906 162.785 333.331 161.828C334.182 160.02 333.438 156.723 333.757 154.702C333.863 153.426 335.139 153.107 335.033 154.383L334.927 162.359C334.927 163.423 338.011 164.912 338.436 161.721C338.649 159.807 339.712 157.787 338.436 155.66C337.585 154.277 339.606 154.383 340.669 156.298C341.414 157.574 340.031 159.701 340.138 161.296C340.138 163.848 338.223 165.337 336.841 165.337C335.565 165.337 334.714 163.742 333.65 163.742C332.587 163.742 331.311 165.55 330.46 165.443C326.632 165.231 328.652 159.807 327.482 159.701C326.206 159.701 324.824 165.018 323.229 164.912C321.74 164.699 320.038 160.445 320.783 158.744C321.314 157.042 322.378 156.617 322.271 157.68ZM340.244 149.173C338.436 148.109 340.244 145.238 341.201 146.195C342.903 148.322 344.604 153.107 345.88 153.533C346.625 153.745 346.518 149.917 347.05 148.215C347.475 146.833 348.964 147.258 348.752 148.96C348.645 149.492 346.625 155.766 346.837 155.979C348.254 158.632 349.429 161.409 350.347 164.274C350.666 165.55 349.177 164.699 348.964 164.486C348.007 162.997 346.412 157.574 346.412 157.893L344.604 166.082C344.391 167.145 342.796 166.932 343.222 165.018C343.541 163.529 345.668 156.191 345.561 155.872C344.35 153.246 342.527 150.948 340.244 149.173Z" fill="white" style="fill:white;fill-opacity:1;"/>
<path id="Vector_106" fill-rule="evenodd" clip-rule="evenodd" d="M343.434 166.826C343.009 166.826 342.158 167.889 344.71 168.421C348.007 169.059 351.729 167.889 352.793 164.593C354.175 160.658 354.92 156.936 355.664 155.553C356.515 153.958 357.578 154.064 356.727 151.725C356.196 149.917 355.132 150.449 354.919 151.406C354.388 153.852 352.155 162.04 351.41 163.423C350.134 166.117 347.475 167.251 343.434 166.826Z" fill="white" style="fill:white;fill-opacity:1;"/>
<path id="Vector_107" fill-rule="evenodd" clip-rule="evenodd" d="M350.24 153.852C349.815 153.107 348.964 153.852 349.177 154.596C349.173 154.756 349.206 154.914 349.272 155.059C349.339 155.204 349.437 155.333 349.559 155.435C349.682 155.537 349.826 155.61 349.98 155.649C350.135 155.688 350.297 155.692 350.453 155.66C351.197 155.66 352.792 155.766 352.792 154.596C352.792 153.745 352.048 153.001 351.623 153.958C351.055 154.738 350.595 154.738 350.24 153.958V153.852ZM350.985 150.661C350.772 150.874 350.985 151.831 351.304 151.725C352.525 151.734 353.731 151.441 354.813 150.874C355.026 150.661 354.919 150.13 354.6 150.13C353.537 150.13 351.835 150.13 350.985 150.661ZM360.343 153.107C361.194 151.831 363.321 151.725 362.47 153.533L355.77 166.613C354.919 168.102 354.281 167.358 354.919 166.188C355.664 164.699 360.13 153.426 360.343 153.107Z" fill="white" style="fill:white;fill-opacity:1;"/>
<path id="Vector_108" fill-rule="evenodd" clip-rule="evenodd" d="M352.155 168.74C351.942 167.889 350.559 166.613 350.772 168.953C350.985 172.994 356.621 171.718 358.216 170.335C359.812 168.953 358.535 174.908 360.556 175.546C361.619 175.865 363.746 174.377 364.81 172.994C367.681 169.272 369.595 163.848 372.254 160.232C373.318 158.744 371.722 157.68 371.191 158.85C368.638 162.891 365.661 171.186 362.364 173.313C359.705 175.015 360.556 171.186 360.45 169.91C360.343 169.059 359.28 167.783 357.897 168.953C356.764 169.803 355.379 170.252 353.963 170.229C353.218 170.229 352.474 170.229 352.155 168.74Z" fill="white" style="fill:white;fill-opacity:1;"/>
<path id="Vector_109" fill-rule="evenodd" clip-rule="evenodd" d="M362.151 161.296C362.151 160.977 360.981 160.871 361.088 162.04C361.088 162.891 362.151 163.104 362.257 163.104C363.853 161.828 361.938 162.466 362.151 161.19V161.296ZM359.705 165.975C359.386 165.975 359.067 167.039 359.918 167.145L364.065 166.932C364.491 166.932 364.703 165.975 363.64 166.082C362.364 166.082 360.768 165.762 359.705 166.082V165.975ZM293.771 148.322C294.302 148.322 295.472 149.811 295.366 150.342C295.366 150.555 294.09 150.342 293.771 150.023C293.451 149.704 293.558 148.322 293.771 148.322ZM288.134 159.382C287.071 160.02 288.347 161.19 289.198 160.658C292.175 158.637 296.642 156.617 297.705 152.682C298.024 151.406 299.194 149.385 300.364 148.96C301.427 148.428 303.129 150.98 304.192 148.96C304.831 147.896 307.064 149.704 307.595 148.534C308.234 147.152 307.915 146.408 307.915 144.919C307.915 144.068 307.17 143.855 306.638 145.238C306.567 145.947 306.532 146.514 306.532 146.939C306.248 147.223 305.894 147.294 305.469 147.152C305.256 146.939 305.469 146.408 304.831 146.088C304.547 146.018 304.263 146.088 303.98 146.301C303.235 147.684 302.916 148.96 301.746 147.365C300.789 146.301 300.258 144.068 299.62 147.046C299.407 148.109 297.812 149.598 296.855 149.598C295.685 149.598 296.004 146.408 293.451 146.939C292.069 147.258 292.175 149.811 292.388 150.661C292.707 152.044 296.642 151.087 296.323 151.937C295.685 154.809 291.644 157.68 288.134 159.382ZM263.994 173.419C263.887 173.951 264.525 175.227 265.163 175.334C265.802 175.334 266.227 173.951 266.014 173.419C265.802 173.1 264.1 173.1 263.994 173.419ZM267.503 178.63C267.078 178.205 265.802 179.375 266.865 180.226C267.397 180.757 269.524 181.395 270.055 180.438C270.906 179.162 269.311 174.589 270.055 174.057C270.587 173.526 273.033 177.035 274.309 177.248C277.181 177.673 276.436 172.356 279.627 172.781C281.647 172.994 281.86 170.442 281.541 168.74C281.328 167.145 278.776 164.912 277.606 163.848C276.117 162.572 275.373 164.912 276.33 165.55C277.606 166.613 279.839 168.634 280.158 169.91C280.265 170.548 278.669 171.824 278.031 171.505C276.542 170.654 275.266 167.251 273.99 166.507C273.565 166.294 272.501 166.826 272.927 167.889C273.565 169.059 276.117 170.761 276.223 172.037C276.33 173.1 275.16 175.44 274.309 175.44C273.458 175.44 271.119 172.569 270.374 171.186C269.949 170.654 268.779 170.654 268.567 171.612C268.497 173.576 268.676 175.541 269.098 177.461C269.311 179.162 268.141 179.268 267.503 178.63ZM263.249 169.485C262.824 169.91 264.1 170.761 264.313 170.548C264.738 170.123 266.546 168.102 266.227 167.358C265.908 166.72 263.462 165.231 263.037 165.975C262.292 167.145 265.376 167.783 264.844 168.102L263.249 169.485ZM267.609 160.552C267.609 160.552 268.46 163.21 269.098 162.04C269.524 161.296 267.609 160.552 267.609 160.552ZM268.886 164.805C268.673 164.805 267.822 165.55 268.354 165.869C269.205 166.294 271.438 166.72 270.906 165.124C270.587 164.167 274.309 165.124 273.352 162.572C272.949 161.798 272.318 161.167 271.544 160.764C271.119 160.764 269.949 161.296 270.693 161.721C271.225 161.934 272.82 162.891 272.289 163.529C271.544 164.167 271.119 163.21 270.268 163.423C269.843 163.423 270.162 164.699 269.843 165.018C269.843 165.231 269.098 164.593 268.886 164.699V164.805ZM274.735 154.703C274.107 155.269 273.663 156.009 273.458 156.829C273.529 157.184 273.707 157.361 273.99 157.361C274.661 156.878 275.119 156.154 275.266 155.341C275.266 155.022 275.054 154.49 274.735 154.703ZM277.712 154.383C276.862 153.32 278.776 151.618 279.52 153.852C280.052 155.234 285.369 162.253 286.433 164.593C287.283 166.188 286.433 166.826 285.476 165.656C282.817 162.253 280.584 157.999 277.712 154.383ZM283.242 154.49C284.199 153.426 286.114 151.299 285.582 150.236C285.05 149.173 283.987 149.173 283.774 149.492C282.711 150.874 284.625 150.555 284.306 150.98C283.739 151.902 283.278 152.824 282.923 153.745C282.817 154.064 283.03 154.702 283.242 154.49ZM365.979 157.893C365.235 157.361 366.618 154.703 367.575 155.766C370.021 158.637 371.19 168.102 371.935 175.227C371.935 175.227 370.871 176.184 370.871 175.972C370.871 172.25 369.276 160.658 365.979 157.893ZM309.51 148.747C308.659 146.833 310.68 146.195 310.999 147.471C312.381 153.639 315.784 158.318 318.443 162.466C319.187 163.742 318.443 164.593 316.635 163.317C315.359 162.466 313.976 159.169 313.445 159.063C312.168 158.85 309.403 164.38 303.767 162.785C302.278 162.359 302.385 157.999 302.278 156.085C302.278 155.128 303.342 155.022 303.342 156.085C303.342 157.893 303.342 161.615 305.575 161.828C307.489 161.828 311.53 159.275 312.381 157.148C313.232 155.022 310.361 150.874 309.51 148.641V148.747Z" fill="white" style="fill:white;fill-opacity:1;"/>
<path id="Vector_110" fill-rule="evenodd" clip-rule="evenodd" d="M367.468 174.483C367.894 173.207 373.955 162.998 374.806 160.764C375.231 159.701 376.933 162.679 375.231 164.274C373.743 165.55 369.382 172.781 368.532 175.334C368.106 176.397 367.043 175.865 367.468 174.483Z" fill="white" style="fill:white;fill-opacity:1;"/>
<path id="Vector_111" fill-rule="evenodd" clip-rule="evenodd" d="M377.784 164.805C378.847 160.552 381.612 165.444 379.166 167.783C375.551 171.399 374.381 178.311 368.532 179.375C367.043 179.694 364.278 178.63 363.427 177.992C363.108 177.78 363.64 176.291 364.597 177.035C365.979 178.099 368.957 178.418 370.552 177.142C374.044 173.767 376.545 169.501 377.784 164.805ZM317.167 178.311C316.848 178.63 316.103 178.63 315.997 179.056C315.678 180.545 315.997 181.395 315.678 182.884C315.359 184.373 314.295 184.373 314.402 183.203C314.402 181.714 315.784 179.481 314.827 179.375C314.189 179.269 313.764 178.418 314.402 177.992C315.465 177.354 316.316 177.213 316.954 177.567C317.308 177.78 317.379 178.028 317.167 178.311Z" fill="white" style="fill:white;fill-opacity:1;"/>
<path id="Vector_112" fill-rule="evenodd" clip-rule="evenodd" d="M316.316 176.184C314.827 177.673 313.338 178.205 311.956 179.907C311.317 180.545 311.424 181.502 310.998 182.459C310.679 183.416 309.51 183.522 309.191 183.416C308.659 182.991 308.765 181.289 308.127 182.14C307.489 182.991 307.17 184.267 306.319 184.267C305.468 184.267 304.192 182.672 304.937 182.672C307.383 182.352 307.276 180.545 308.127 180.332C309.191 180.226 309.191 181.927 309.935 181.608C310.36 181.395 310.679 179.375 311.211 178.843C312.806 177.142 314.082 176.291 315.784 175.015C316.528 174.377 317.167 175.546 316.316 176.291V176.184ZM321.952 181.502C320.676 181.714 320.889 183.31 321.314 183.416C321.846 183.735 322.803 183.841 323.122 182.033C323.335 181.289 323.441 185.756 325.036 184.054C326.1 182.991 328.333 184.267 329.29 182.991C330.034 182.033 330.353 181.395 329.715 180.119C329.503 179.8 328.652 179.907 328.652 180.864C328.652 181.821 328.12 182.672 327.269 182.565C326.844 182.459 327.482 180.545 327.057 180.013C326.817 179.923 326.552 179.923 326.312 180.013C325.993 180.438 326.631 182.352 325.674 182.565C324.398 182.778 325.036 181.289 324.611 181.076C322.803 180.226 322.697 181.289 321.952 181.395V181.502ZM331.523 178.311C332.48 178.099 332.161 178.099 333.65 176.929C334.182 176.503 334.288 177.78 334.182 178.311C334.182 179.056 333.118 178.524 332.799 179.268C332.374 180.226 332.587 182.459 332.374 183.31C332.374 183.735 331.523 183.735 331.523 183.31C331.311 182.246 331.63 181.183 331.523 179.8C331.523 179.375 330.991 178.63 331.523 178.418V178.311ZM326.206 175.653C326.064 176.574 325.993 177.39 325.993 178.099C325.993 178.63 327.057 178.311 327.057 178.205C327.057 177.354 327.269 176.078 327.057 175.759C326.702 175.546 326.419 175.511 326.206 175.653Z" fill="white" style="fill:white;fill-opacity:1;"/>
<path id="Vector_113" fill-rule="evenodd" clip-rule="evenodd" d="M319.506 165.762L318.017 171.718L315.89 167.677V171.824L311.211 166.294L312.806 172.25L308.553 168.634L310.892 172.675L303.448 167.889L308.127 173.419L302.172 170.442L306.426 174.057L296.854 170.442L306.107 175.015C310.31 173.101 314.889 172.156 319.506 172.25C324.823 172.32 329.255 173.242 332.799 175.015L342.158 170.442L332.587 174.057L336.841 170.442L330.992 173.419L335.564 167.889L328.12 172.675L330.46 168.634L326.206 172.143L327.801 166.294L323.228 171.824V167.677L321.101 171.718L319.506 165.762Z" fill="white" style="fill:white;fill-opacity:1;"/>
</g>
</g>
<path id="Vector_114" d="M311.3 295L311 297.6H310.6L310.5 295.8L310 294.2L309.5 292.9L308.5 291.5L309.3 289.3C309.958 289.99 310.469 290.806 310.8 291.7C311.159 292.728 311.328 293.812 311.3 294.9M318.3 290.7C318.3 291.367 318.133 291.867 317.8 292.2C317.6 292.533 317.167 292.767 316.5 292.9L316.9 294.4V296.4L316.8 297.7H316.4L316.3 296.4L316.1 295.4L315.7 294.4L315 293L314 291.3L314.6 289.3L315.6 290.3C315.867 290.5 316.2 290.6 316.6 290.6C317.4 290.6 317.8 290.167 317.8 289.3H318.2V290.7M324.6 295.5L324.1 297.6C323.7 297.6 323.433 297.367 323.3 296.9L322.9 295.6L322.8 293.9L321.8 294.1C321.333 294.123 320.873 293.981 320.5 293.7C320.327 293.602 320.186 293.455 320.097 293.276C320.008 293.098 319.974 292.898 320 292.7C320 291.767 320.233 291 320.7 290.4C321.233 289.733 321.733 289.367 322.2 289.3C322.667 289.3 323 289.433 323.2 289.7L323.5 290.6V292.6C323.5 293.467 323.6 294.1 323.8 294.5C323.8 294.767 324.067 295.1 324.6 295.5ZM322.6 292C322.6 291.4 322.333 291.133 321.8 291.2L321.2 291.3C321.067 291.367 321 291.467 321 291.6C321 291.933 321.333 292.1 322 292.1L322.6 292ZM331.3 295L331 297.6C330.467 297.267 330 296.6 329.6 295.6L328.3 291.5L326.5 297L325.7 297.7V295.2C326.3 294.533 326.633 294.033 326.7 293.7L327.5 292L328 289.3H328.4L329.3 292C329.5 292.667 329.8 293.2 330.2 293.6L331.2 295" fill="white" style="fill:white;fill-opacity:1;"/>
<path id="Vector_115" d="M350.8 319.4C351.2 319.8 351.433 320.2 351.5 320.6L351.9 322.2L351.1 322.3L350.1 320.8L349 319.6L347.3 318.1L345.3 316.4C344.9 316.2 344.7 316.033 344.7 315.9L344.4 315.1L344.2 313.5L346.9 315.7L349.4 317.9L350.8 319.4ZM341.3 313.6L341.1 315.6H338L338.3 313.6H341.3ZM349.7 322.5L342.1 324.8L340.8 322.8L347.3 320.8L346.6 320L345.7 319.4C345.736 319.587 345.717 319.781 345.646 319.958C345.575 320.136 345.455 320.289 345.3 320.4L344.3 321C343.714 321.184 343.086 321.184 342.5 321C341.993 320.941 341.528 320.691 341.2 320.3C340.755 319.651 340.512 318.886 340.5 318.1C340.5 317.1 340.8 316.5 341.4 316.3C342.133 316.1 343.133 316.333 344.4 317C345.58 317.544 346.61 318.368 347.4 319.4L349.7 322.5ZM343.9 318.5L343.1 318.2H342.5L342 318.5V319.1L342.5 319.3H343.1L343.5 319L343.9 318.5ZM335.9 316.9L335.4 318.9L332.2 318.6L332.7 316.6L335.9 316.9ZM343.4 324.6L341.7 325H340L338.5 324.6C338.167 325.133 337.667 325.533 337 325.8L335.4 326.4L334.2 326.7L333.2 324.7L334.3 324.4L335.6 324L336.5 323.5L335.5 323H334.6L334.4 323.3H333.9C333.367 322.5 333.267 321.833 333.6 321.3C334.1 320.5 334.5 320.5 335.6 320.3C336.446 320.071 337.328 320.003 338.2 320.1C339 320.167 339.5 320.467 339.7 321C339.833 321.2 339.9 321.433 339.9 321.7L339.5 322.9H340.6L342.3 322.6L343.4 324.6ZM335.4 326.4L333.8 326.7C333.042 326.855 332.254 326.712 331.6 326.3C330.815 325.598 330.228 324.701 329.9 323.7L329.1 321.5C328.95 321.088 328.669 320.737 328.3 320.5L327.4 320L328 317.9C328.6 318.167 329.067 318.5 329.4 318.9L330.4 320.6L330.9 322.1L332 324.3C332.333 324.567 332.667 324.667 333 324.6L334.7 324.4L335.4 326.4ZM328.4 318.9L327.4 320.8L324.4 320.1L325.4 318.2L328.4 318.9ZM330.2 327.3L322.7 328L322.3 326L328.5 325.3L327.9 324.5L326.9 323.9L327.4 321.9C328.067 322.3 328.6 322.733 329 323.2C329.333 323.733 329.6 324.433 329.8 325.3L330.2 327.3ZM324.2 328.3L322 328.1L320.3 327.6L319 328H315.3L314.1 327.7C313.833 327.5 313.567 327.167 313.3 326.7C312.882 327.143 312.369 327.485 311.8 327.7L310.1 327.8H308.4L308.6 325.7H310.3C311.1 325.767 311.8 325.633 312.4 325.3C312.77 325.162 313.091 324.917 313.323 324.597C313.554 324.277 313.685 323.895 313.7 323.5L314.4 323.6L314.3 324.9C314.3 325.167 314.4 325.4 314.6 325.6C314.867 325.8 315.2 325.9 315.6 325.9H317.1C318.1 325.9 318.767 325.833 319.1 325.7C319.7 325.567 320.033 325.2 320.1 324.6L320.2 324.2C320.2 324.2 320.5 324.2 320.7 324L321.2 323.8V324.5L320.9 325.6L322.9 326.1C322.967 325.9 322.933 325.667 322.8 325.4L322.5 324.8L322.6 324.5L322.9 324.3L323.9 323.4L324.4 324.4V325.4L324.2 328.3ZM312.9 319.6L310.9 320.9L309.6 320L308.2 321L306.3 320L308.1 318.7L309.6 319.5L311.1 318.5L312.9 319.5M309.9 327.7L302.6 326.5L303.4 324.5L309.6 325.5C309.6 325.1 309.533 324.767 309.4 324.5L308.9 323.7L310.5 322C310.9 322.533 311.133 323.067 311.2 323.6C311.267 324.133 311.1 324.833 310.7 325.7L309.9 327.7ZM303.8 326.7L302.2 326.4C301.333 326.2 300.833 325.8 300.7 325.2C300.5 324.6 300.767 323.667 301.5 322.4L302.7 320.4C302.967 319.933 303.067 319.533 303 319.2L302.7 318.5L304.9 316.9C305.167 317.433 305.267 317.9 305.2 318.3C305.2 318.833 304.967 319.433 304.5 320.1L303.7 321.5C303.256 322.166 302.95 322.914 302.8 323.7C302.8 324.1 302.967 324.333 303.3 324.4L304.9 324.8L303.8 326.7ZM300 318.7L297.5 319.8L295.7 318.1L298.3 317.1L300 318.7ZM299 325.3L297.4 326.7L295.7 327.3L293.3 327.2L290.5 326.5C289.217 326.128 288.049 325.44 287.1 324.5C286.5 323.7 286.5 322.967 287.1 322.3C287.662 321.648 288.341 321.106 289.1 320.7C289.833 320.233 291.1 319.7 292.9 319.1L293.3 319.6L290.5 320.8C289.967 321.067 289.533 321.4 289.2 321.8C288.867 322.2 288.933 322.733 289.4 323.4C291.221 324.768 293.423 325.537 295.7 325.6C296.9 325.6 297.667 325.367 298 324.9C298.267 324.633 298.433 324.3 298.5 323.9L298.7 322.3L301.2 320.8L301.1 322.3C300.899 322.905 300.556 323.454 300.1 323.9L299 325.3Z" fill="#BF0000" style="fill:#BF0000;fill:color(display-p3 0.7490 0.0000 0.0000);fill-opacity:1;"/>
</g>
<defs>
<clipPath id="clip0_2194_149">
<rect width="640" height="480" fill="white" style="fill:white;fill-opacity:1;"/>
</clipPath>
</defs>
</svg>
