<svg width="640" height="480" viewBox="0 0 640 480" fill="none" xmlns="http://www.w3.org/2000/svg">
<g id="ag" clip-path="url(#clip0_2194_270)">
<g id="Clip path group">
<mask id="mask0_2194_270" style="mask-type:luminance" maskUnits="userSpaceOnUse" x="-1" y="0" width="642" height="480">
<g id="ag-a">
<path id="Vector" d="M-0.0187988 0H640.012V480H-0.0187988V0Z" fill="white" style="fill:white;fill-opacity:1;"/>
</g>
</mask>
<g mask="url(#mask0_2194_270)">
<g id="Group">
<path id="Vector_2" fill-rule="evenodd" clip-rule="evenodd" d="M-0.0187988 0H640.012V480H-0.0187988V0Z" fill="white" style="fill:white;fill-opacity:1;"/>
<path id="Vector_3" fill-rule="evenodd" clip-rule="evenodd" d="M0.0749497 0H640.012V192H-0.0187988L0.0749497 0Z" fill="#000001" style="fill:#000001;fill:color(display-p3 0.0000 0.0000 0.0039);fill-opacity:1;"/>
<path id="Vector_4" fill-rule="evenodd" clip-rule="evenodd" d="M94.6687 190.5H544.669V295.5H94.6687V190.5Z" fill="#0072C6" style="fill:#0072C6;fill:color(display-p3 0.0000 0.4471 0.7765);fill-opacity:1;"/>
<path id="Vector_5" fill-rule="evenodd" clip-rule="evenodd" d="M640.012 0.09375V480H319.95L640.012 0V0.09375ZM-0.0187988 0.09375V480H319.95L-0.0187988 0V0.09375Z" fill="#CE1126" style="fill:#CE1126;fill:color(display-p3 0.8078 0.0667 0.1490);fill-opacity:1;"/>
<path id="Vector_6" fill-rule="evenodd" clip-rule="evenodd" d="M487.575 190.594L415.95 172.5L476.794 126.562L402.075 137.25L440.512 72.0938L374.231 110.531L386.231 34.6875L341.325 94.5L323.231 25.125L302.887 96.6563L258.075 35.7187L270.919 113.719L204.544 73.125L242.981 138.281L170.419 126.562L230.231 171.375L155.325 190.594H487.575Z" fill="#FCD116" style="fill:#FCD116;fill:color(display-p3 0.9882 0.8196 0.0863);fill-opacity:1;"/>
</g>
</g>
</g>
</g>
<defs>
<clipPath id="clip0_2194_270">
<rect width="640" height="480" fill="white" style="fill:white;fill-opacity:1;"/>
</clipPath>
</defs>
</svg>
