<svg width="640" height="480" viewBox="0 0 640 480" fill="none" xmlns="http://www.w3.org/2000/svg">
<g id="al" clip-path="url(#clip0_2194_308)">
<path id="Vector" d="M0 0H640V480H0V0Z" fill="#FF0000" style="fill:#FF0000;fill:color(display-p3 1.0000 0.0000 0.0000);fill-opacity:1;"/>
<path id="al-a" d="M272 93.2998C267.4 93.2998 259.7 94.7998 259.8 98.2998C246.8 96.1998 245.5 101.5 246.3 106.3C247.633 104.366 248.933 103.333 250.2 103.2C251.867 103 253.667 103.466 255.6 104.6C257.389 105.729 259.005 107.109 260.4 108.7C255.8 109.8 252.2 109.1 248.6 108.5C246.569 108.055 244.637 107.242 242.9 106.1C241.4 105.1 240.9 104.1 238.6 101.8C235.9 98.9998 233 99.7998 233.9 104.1C236 108.1 239.5 109.9 243.9 110.7C246 111 249.2 111.7 252.8 111.7C256.4 111.7 260.4 111.2 262.6 111.7C261.3 112.5 259.8 114 256.8 114.5C253.8 115 249.3 112.7 246.5 112.1C246.8 114.4 249.8 116.6 255.6 117.8C265.2 119.8 273.1 121.4 278.4 124.3C282.596 126.63 286.298 129.755 289.3 133.5C294 139 294.3 143.3 294.5 144.3C295.5 153.1 292.4 158.1 286.6 159.7C283.8 160.4 278.6 159 276.8 156.8C274.8 154.6 273.1 150.8 273.6 144.8C274.1 142.6 276.7 136.5 274.5 135.3C264.073 129.571 253.283 124.527 242.2 120.2C239.7 119.2 237.7 122.6 236.9 124C229.512 122.984 222.444 120.329 216.215 116.228C209.986 112.127 204.753 106.685 200.9 100.3C196.7 92.6998 189.6 100.3 190.8 107.6C192.7 115.6 198.8 121.4 206.2 125.6C213.6 129.8 223.2 133.8 232.7 133.6C237.9 134.6 237.8 141.2 231.7 142.5C219.6 142.5 209.9 142.3 200.8 133.5C193.9 127.2 190.1 134.7 192 138.9C195.4 152 214.1 155.7 233 151.5C240.4 150.3 236 158.1 234 158.2C226 163.9 211.9 169.4 199.4 158.2C193.7 153.8 189.8 157.4 192 163.7C197.5 180.2 218.7 176.7 233.2 168.7C236.9 166.6 240.3 171.4 235.8 175.1C217.7 187.7 208.7 187.9 200.5 183.1C190.3 179 189.5 190.3 195.5 194.1C202.2 198.1 219.3 195.1 231.9 187.1C237.3 183.1 237.5 189.4 234.1 191.9C219.2 204.8 213.3 208.2 197.8 206.1C190.1 205.5 190.2 215 196.2 218.7C204.5 223.8 220.7 215.4 233.2 204.9C238.5 202.1 239.4 206.7 236.8 212.2C231.261 220.029 223.736 226.242 215 230.2C208 232.9 201.4 232.5 196.7 230.9C190.9 228.9 190.2 234.9 193.4 240.3C195.3 243.6 203.2 244.6 211.8 241.6C220.4 238.6 229.6 231.4 235.9 223.1C241.4 218.2 240.8 224.7 238.2 229.3C225.6 249.3 214 256.7 198.7 255.5C192 254.3 190.4 259.5 194.7 264.5C202.3 270.7 211.7 270.5 220.1 264.3C227.4 257.3 241.5 241.9 248.9 233.7C254.1 229.6 255.8 233.7 254.2 242.1C252.8 246.9 249.4 252.1 239.9 255.7C233.4 259.4 238.3 264.5 243.1 264.7C245.8 264.7 251.2 261.5 255.4 256.9C260.8 250.7 261.2 246.6 264.2 237C267 232.4 272.1 234.6 272.1 239.4C269.6 249 267.6 250.7 262.6 254.6C257.9 259.1 265.9 260.6 268.6 258.7C276.4 253.5 279.2 246.7 281.8 240.5C283.8 236.1 289.2 238.2 286.6 245.5C280.6 262.9 270.6 269.7 253.3 273.3C251.6 273.6 250.5 274.6 251.1 276.6L258.1 283.6C247.4 286.8 238.7 288.6 227.9 291.6L213.1 281.8C211.8 278.6 211.1 273.6 203.3 277.1C198.1 274.7 195.6 275.6 192.7 278.1C196.9 278.1 198.7 279.3 200.4 281.2C202.6 286.9 207.6 287.5 212.7 285.9C216 288.6 217.7 290.8 221.1 293.6L204.4 293.1C198.4 286.8 193.8 287.1 189.6 292.1C186.3 292.6 185 292.6 182.8 296.5C186.2 295.1 188.4 294.7 189.9 296.2C196.2 299.9 200.3 299.1 203.4 296.2L220.9 297.3C218.7 299.3 215.7 300.3 213.4 302.1C204.4 299.5 199.6 303.1 198 310.4C196.736 313.326 196.32 316.549 196.8 319.7C197.533 316.633 199.167 314.3 201.7 312.7C209.7 314.7 212.7 311.4 213.2 306.6C217.2 303.4 223 302.7 226.9 299.5C231.5 300.9 233.7 301.8 238.3 303.3C239.9 308.3 243.667 310.166 249.6 308.9C256.6 309.1 255.4 312.1 256 314.4C258 311.1 257.9 307.8 253.5 304.8C251.9 300.5 248.3 298.5 243.7 301C239.3 299.8 238.2 298 233.8 296.7C244.8 293.2 252.6 292.4 263.6 288.9L271.3 295.7C272.833 296.7 274.1 296.7 275.1 295.7C282 285.7 285.1 277 291.4 270.4C293.9 267.6 297 264 300.4 263.1C302.1 262.6 304.2 262.9 305.6 264.4C306.9 265.8 308 268.5 307.6 272.6C306.9 278.3 305.5 280.2 303.9 283.6C302.3 287 300.3 289.2 298.2 291.9C294.2 297.2 288.8 300.3 285.6 302.4C279.2 306.5 276.6 304.7 271.6 304.4C265.2 305.1 263.6 308.2 268.8 312.5C273.6 315.1 278 315.4 281.6 314.7C284.6 314.1 288.2 310.2 290.8 308.1C293.6 304.8 298.4 308.7 295.1 312.6C289.2 319.6 283.4 324.2 276.1 324.1C268.4 325.1 269.9 329.4 274.9 331.5C284.1 335.2 292.3 328.2 296.5 323.5C299.7 320 302 319.9 301.5 325.4C298.2 335.3 293.9 339.1 286.7 339.6C280.9 339 280.8 343.6 285.1 346.6C294.7 353.2 301.7 341.8 305 335C307.3 328.8 310.9 331.7 311.3 336.8C311.3 343.7 308.3 349.2 300 356.2C306.3 366.3 313.7 376.6 320 386.7L339.2 172.7L320 139C318 137.2 311.2 129.2 309.5 128C308.8 127.4 308.5 127 309.4 126.6C310.3 126.2 312.4 125.8 313.9 125.6C309.9 121.5 306.3 120.2 298.6 118C300.5 117.2 302.3 117.6 307.9 117.4C304.472 112.775 299.785 109.234 294.4 107.2C298.6 104.2 299.4 104 303.6 100.5C296.975 99.9907 290.431 98.7155 284.1 96.6998C280.321 94.8956 276.264 93.7459 272.1 93.2998H272ZM272.8 101.7C276.6 101.7 278.9 103 278.9 104.6C278.9 106.2 276.6 107.5 272.8 107.5C269 107.5 266.6 106 266.6 104.5C266.6 102.9 269 101.7 272.8 101.7Z" fill="#000001" style="fill:#000001;fill:color(display-p3 0.0000 0.0000 0.0039);fill-opacity:1;"/>
<path id="al-a_2" d="M368 93.2998C372.6 93.2998 380.3 94.7998 380.2 98.2998C393.2 96.1998 394.5 101.5 393.7 106.3C392.367 104.366 391.067 103.333 389.8 103.2C388.133 103 386.333 103.466 384.4 104.6C382.611 105.729 380.995 107.109 379.6 108.7C384.2 109.8 387.8 109.1 391.4 108.5C393.431 108.055 395.363 107.242 397.1 106.1C398.6 105.1 399.1 104.1 401.4 101.8C404.1 98.9998 407 99.7998 406.1 104.1C404 108.1 400.5 109.9 396.1 110.7C394 111 390.8 111.7 387.2 111.7C383.6 111.7 379.6 111.2 377.4 111.7C378.7 112.5 380.2 114 383.2 114.5C386.2 115 390.7 112.7 393.5 112.1C393.2 114.4 390.2 116.6 384.4 117.8C374.8 119.8 366.9 121.4 361.6 124.3C357.404 126.63 353.702 129.755 350.7 133.5C346 139 345.7 143.3 345.5 144.3C344.5 153.1 347.6 158.1 353.4 159.7C356.2 160.4 361.4 159 363.2 156.8C365.2 154.6 366.9 150.8 366.4 144.8C365.9 142.6 363.3 136.5 365.5 135.3C375.927 129.571 386.717 124.527 397.8 120.2C400.3 119.2 402.3 122.6 403.1 124C410.488 122.984 417.556 120.329 423.785 116.228C430.014 112.127 435.247 106.685 439.1 100.3C443.3 92.6998 450.4 100.3 449.2 107.6C447.3 115.6 441.2 121.4 433.8 125.6C426.4 129.8 416.8 133.8 407.3 133.6C402.1 134.6 402.2 141.2 408.3 142.5C420.4 142.5 430.1 142.3 439.2 133.5C446.1 127.2 449.9 134.7 448 138.9C444.6 152 425.9 155.7 407 151.5C399.6 150.3 404 158.1 406 158.2C414 163.9 428.1 169.4 440.6 158.2C446.3 153.8 450.2 157.4 448 163.7C442.5 180.2 421.3 176.7 406.8 168.7C403.1 166.6 399.7 171.4 404.2 175.1C422.3 187.7 431.3 187.9 439.5 183.1C449.7 179 450.5 190.3 444.5 194.1C437.8 198.1 420.7 195.1 408.1 187.1C402.7 183.1 402.5 189.4 405.9 191.9C420.8 204.8 426.7 208.2 442.2 206.1C449.9 205.5 449.8 215 443.8 218.7C435.5 223.8 419.3 215.4 406.8 204.9C401.5 202.1 400.6 206.7 403.2 212.2C408.739 220.029 416.264 226.242 425 230.2C432 232.9 438.6 232.5 443.3 230.9C449.1 228.9 449.8 234.9 446.6 240.3C444.7 243.6 436.8 244.6 428.2 241.6C419.6 238.6 410.4 231.4 404.1 223.1C398.6 218.2 399.2 224.7 401.8 229.3C414.4 249.3 426 256.7 441.3 255.5C448 254.3 449.6 259.5 445.3 264.5C437.7 270.7 428.3 270.5 419.9 264.3C412.6 257.3 398.5 241.9 391.1 233.7C385.9 229.6 384.2 233.7 385.8 242.1C387.2 246.9 390.6 252.1 400.1 255.7C406.6 259.4 401.7 264.5 396.9 264.7C394.2 264.7 388.8 261.5 384.6 256.9C379.2 250.7 378.8 246.6 375.8 237C373 232.4 367.9 234.6 367.9 239.4C370.4 249 372.4 250.7 377.4 254.6C382.1 259.1 374.1 260.6 371.4 258.7C363.6 253.5 360.8 246.7 358.2 240.5C356.2 236.1 350.8 238.2 353.4 245.5C359.4 262.9 369.4 269.7 386.7 273.3C388.4 273.6 389.5 274.6 388.9 276.6L381.9 283.6C392.6 286.8 401.3 288.6 412.1 291.6L426.9 281.8C428.2 278.6 428.9 273.6 436.7 277.1C441.9 274.7 444.4 275.6 447.3 278.1C443.1 278.1 441.3 279.3 439.6 281.2C437.4 286.9 432.4 287.5 427.3 285.9C424 288.6 422.3 290.8 418.9 293.6L435.6 293.1C441.6 286.8 446.2 287.1 450.4 292.1C453.7 292.6 455 292.6 457.2 296.5C453.8 295.1 451.6 294.7 450.1 296.2C443.8 299.9 439.7 299.1 436.6 296.2L419.1 297.3C421.3 299.3 424.3 300.3 426.6 302.1C435.6 299.5 440.4 303.1 442 310.4C443.264 313.326 443.68 316.549 443.2 319.7C442.467 316.633 440.833 314.3 438.3 312.7C430.3 314.7 427.3 311.4 426.8 306.6C422.8 303.4 417 302.7 413.1 299.5C408.5 300.9 406.3 301.8 401.7 303.3C400.1 308.3 396.333 310.166 390.4 308.9C383.4 309.1 384.6 312.1 384 314.4C382 311.1 382.1 307.8 386.5 304.8C388.1 300.5 391.7 298.5 396.3 301C400.7 299.8 401.8 298 406.2 296.7C395.2 293.2 387.4 292.4 376.4 288.9L368.7 295.7C367.167 296.7 365.9 296.7 364.9 295.7C358 285.7 354.9 277 348.6 270.4C346.1 267.6 343 264 339.6 263.1C337.9 262.6 335.8 262.9 334.4 264.4C333.1 265.8 332 268.5 332.4 272.6C333.1 278.3 334.5 280.2 336.1 283.6C337.7 287 339.7 289.2 341.8 291.9C345.8 297.2 351.2 300.3 354.4 302.4C360.8 306.5 363.4 304.7 368.4 304.4C374.8 305.1 376.4 308.2 371.2 312.5C366.4 315.1 362 315.4 358.4 314.7C355.4 314.1 351.8 310.2 349.2 308.1C346.4 304.8 341.6 308.7 344.9 312.6C350.8 319.6 356.6 324.2 363.9 324.1C371.6 325.1 370.1 329.4 365.1 331.5C355.9 335.2 347.7 328.2 343.5 323.5C340.3 320 338 319.9 338.5 325.4C341.8 335.3 346.1 339.1 353.3 339.6C359.1 339 359.2 343.6 354.9 346.6C345.3 353.2 338.3 341.8 335 335C332.7 328.8 329.1 331.7 328.7 336.8C328.7 343.7 331.7 349.2 340 356.2C333.7 366.3 326.3 376.6 320 386.7L300.8 172.7L320 139C322 137.2 328.8 129.2 330.5 128C331.2 127.4 331.5 127 330.6 126.6C329.7 126.2 327.6 125.8 326.1 125.6C330.1 121.5 333.7 120.2 341.4 118C339.5 117.2 337.7 117.6 332.1 117.4C335.528 112.775 340.215 109.234 345.6 107.2C341.4 104.2 340.6 104 336.4 100.5C343.025 99.9907 349.569 98.7155 355.9 96.6998C359.679 94.8956 363.736 93.7459 367.9 93.2998H368ZM367.2 101.7C363.4 101.7 361.1 103 361.1 104.6C361.1 106.2 363.4 107.5 367.2 107.5C371 107.5 373.4 106 373.4 104.5C373.4 102.9 371 101.7 367.2 101.7Z" fill="#000001" style="fill:#000001;fill:color(display-p3 0.0000 0.0000 0.0039);fill-opacity:1;"/>
</g>
<defs>
<clipPath id="clip0_2194_308">
<rect width="640" height="480" fill="white" style="fill:white;fill-opacity:1;"/>
</clipPath>
</defs>
</svg>
