<svg width="640" height="480" viewBox="0 0 640 480" fill="none" xmlns="http://www.w3.org/2000/svg">
<g id="ao" clip-path="url(#clip0_2194_316)">
<g id="Group">
<path id="Vector" fill-rule="evenodd" clip-rule="evenodd" d="M0 0H640V243.6H0V0Z" fill="#FF0000" style="fill:#FF0000;fill:color(display-p3 1.0000 0.0000 0.0000);fill-opacity:1;"/>
<path id="Vector_2" fill-rule="evenodd" clip-rule="evenodd" d="M0 236.4H640V480H0V236.4Z" fill="#000001" style="fill:#000001;fill:color(display-p3 0.0000 0.0000 0.0039);fill-opacity:1;"/>
</g>
<path id="Vector_3" fill-rule="evenodd" clip-rule="evenodd" d="M228.7 148.2C393.9 191.5 287.7 403.8 157.4 315.4L148.6 329C225.3 383.6 301.2 339.6 322.6 282.6C344.8 223.8 315 141.1 230 132.6L228.7 148.2Z" fill="#FFEC00" style="fill:#FFEC00;fill:color(display-p3 1.0000 0.9255 0.0000);fill-opacity:1;"/>
<path id="Vector_4" fill-rule="evenodd" clip-rule="evenodd" d="M170 330.8L191.7 340.9L181.5 362.7L159.8 352.5L170 330.8ZM319 231.3H343V255.3H319V231.3ZM307.3 192.4L329.6 183.8L338.3 206.1L316 214.8L307.3 192.4ZM281.3 163.3L298.4 146.4L315.3 163.4L298.3 180.3L281.3 163.3ZM255.1 123.5L277.5 131.9L269 154.3L246.6 145.9L255.1 123.5ZM316 270L338.3 278.9L329.3 301.1L307.1 292.2L316 270ZM246.1 340L268.1 330.7L277.6 352.7L255.6 362.1L246.1 340ZM206.6 342.8H230.6V366.8H206.6V342.8ZM247.9 226.8L227.6 211.8L207.3 226.4L215.3 203.4L195 188.4H219.5L228 165.8L235.8 188.5L260.5 188.2L240.9 203.5L247.9 226.8Z" fill="#FFEC00" style="fill:#FFEC00;fill:color(display-p3 1.0000 0.9255 0.0000);fill-opacity:1;"/>
<path id="Vector_5" fill-rule="evenodd" clip-rule="evenodd" d="M336 346.4C334.8 346.8 329.8 358.8 326.3 364.6L330 365.6C343.6 370.4 350.4 374.8 356.2 383.1C357.551 384.389 359.311 385.164 361.174 385.292C363.036 385.42 364.885 384.892 366.4 383.8C366.4 383.8 369.2 382.8 372.8 378.8C375.8 374.3 375 370.8 371.4 367.7C360.4 359.7 348.5 353.7 336 346.4Z" fill="#FFEE00" style="fill:#FFEE00;fill:color(display-p3 1.0000 0.9333 0.0000);fill-opacity:1;"/>
<path id="Vector_6" fill-rule="evenodd" clip-rule="evenodd" d="M365.3 372.8C365.3 373.954 364.842 375.06 364.026 375.876C363.21 376.692 362.104 377.15 360.95 377.15C359.796 377.15 358.69 376.692 357.874 375.876C357.058 375.06 356.6 373.954 356.6 372.8C356.6 371.66 357.053 370.566 357.859 369.76C358.666 368.953 359.76 368.5 360.9 368.5C362.04 368.5 363.134 368.953 363.941 369.76C364.747 370.566 365.2 371.66 365.2 372.8H365.3ZM343.9 359.2C343.9 360.354 343.442 361.46 342.626 362.276C341.81 363.092 340.704 363.55 339.55 363.55C338.396 363.55 337.29 363.092 336.474 362.276C335.658 361.46 335.2 360.354 335.2 359.2C335.2 358.046 335.658 356.94 336.474 356.124C337.29 355.308 338.396 354.85 339.55 354.85C340.704 354.85 341.81 355.308 342.626 356.124C343.442 356.94 343.9 358.046 343.9 359.2ZM354.8 366.2C354.8 367.354 354.342 368.46 353.526 369.276C352.71 370.092 351.604 370.55 350.45 370.55C349.296 370.55 348.19 370.092 347.374 369.276C346.558 368.46 346.1 367.354 346.1 366.2C346.1 365.046 346.558 363.94 347.374 363.124C348.19 362.308 349.296 361.85 350.45 361.85C351.604 361.85 352.71 362.308 353.526 363.124C354.342 363.94 354.8 365.046 354.8 366.2Z" fill="#000001" style="fill:#000001;fill:color(display-p3 0.0000 0.0000 0.0039);fill-opacity:1;"/>
<path id="Vector_7" fill-rule="evenodd" clip-rule="evenodd" d="M324.5 363.7C281.9 339.4 237.2 313.2 194.5 288.9C175.8 277.2 174.9 255.5 187.5 239C188.7 236.7 190.3 237.2 190.9 238.5C192.4 246.5 196.9 254.8 202.3 260C246.621 287.88 290.526 316.416 334 345.6C330.6 351.4 328 357.9 324.5 363.6V363.7Z" fill="#FFEE00" style="fill:#FFEE00;fill:color(display-p3 1.0000 0.9333 0.0000);fill-opacity:1;"/>
<path id="Vector_8" fill-rule="evenodd" clip-rule="evenodd" d="M297.2 305.5L315 321.5L299 339.3L281.2 323.3L297.2 305.5Z" fill="#FFEC00" style="fill:#FFEC00;fill:color(display-p3 1.0000 0.9255 0.0000);fill-opacity:1;"/>
<path id="Vector_9" d="M331.5 348.8L206.5 273.3M316.1 331.4L274 304.1M292.2 346.8L249.3 322" stroke="black" style="stroke:black;stroke-opacity:1;" stroke-width="3"/>
</g>
<defs>
<clipPath id="clip0_2194_316">
<rect width="640" height="480" fill="white" style="fill:white;fill-opacity:1;"/>
</clipPath>
</defs>
</svg>
