<svg width="640" height="480" viewBox="0 0 640 480" fill="none" xmlns="http://www.w3.org/2000/svg">
<g id="arab" clip-path="url(#clip0_2194_385)">
<path id="Vector" d="M0 0V480H640V0H0Z" fill="#006233" style="fill:#006233;fill:color(display-p3 0.0000 0.3843 0.2000);fill-opacity:1;"/>
<g id="Group">
<path id="Vector_2" fill-rule="evenodd" clip-rule="evenodd" d="M259.689 248.625C250.273 261.493 257.072 269.862 266.778 270.458C273.177 270.888 286.483 262.221 286.447 252.032L282.811 250.179C284.847 255.406 282.738 257.06 278.412 260.633C269.869 267.679 252.418 268.175 259.689 248.625Z" fill="white" stroke="white" style="fill:white;fill-opacity:1;stroke:white;stroke-opacity:1;" stroke-width="0.138715"/>
<path id="Vector_3" fill-rule="evenodd" clip-rule="evenodd" d="M334.326 282.366C387.332 283.723 404.2 237.047 371.481 197.086L368.245 201.486C370.354 220.11 373.408 238.469 373.699 257.556C367.3 264.404 357.993 261.857 356.139 254.248C356.248 243.927 352.54 235.194 347.85 226.858L345.233 231.258C348.286 238.105 351.595 245.813 352.285 254.248C337.162 270.755 320.438 274.096 326.655 252.396C314.694 271.417 332.799 284.814 353.303 255.539C357.702 275.519 374.716 263.114 375.734 258.813C377.588 245.714 376.643 224.609 372.899 207.936C387.659 231.192 388.168 247.963 380.315 259.177C371.59 271.649 352.613 277.471 334.326 282.366Z" fill="white" stroke="white" style="fill:white;fill-opacity:1;stroke:white;stroke-opacity:1;" stroke-width="0.346789"/>
<path id="Vector_4" fill-rule="evenodd" clip-rule="evenodd" d="M364.392 229.604C353.049 230.365 347.232 228.247 353.376 220.606C359.447 213.13 365.119 219.084 366.646 229.074C368.063 238.436 346.723 250.378 339.343 250.378C328.182 250.378 323.02 237.311 333.308 225.568C320.075 259.839 361.883 239.958 364.392 229.604ZM356.539 221.664C355.157 221.598 354.14 223.815 354.83 224.245C356.83 225.502 359.993 224.741 360.32 224.112C361.011 222.723 358.466 221.731 356.539 221.664Z" fill="white" stroke="white" style="fill:white;fill-opacity:1;stroke:white;stroke-opacity:1;" stroke-width="0.346789"/>
<path id="Vector_5" fill-rule="evenodd" clip-rule="evenodd" d="M302.806 245.78C291.9 265.297 302.77 273.369 316.767 271.119C324.91 269.763 335.235 264.503 341.197 257.325C341.306 241.513 341.052 225.833 339.525 210.517C344.978 204.595 339.052 204.628 336.98 198.277C336.035 201.982 333.744 205.985 335.962 208.863C337.562 224.3 338.362 239.98 338.362 255.902C327.382 263.941 319.13 266.918 313.24 266.852C301.061 266.753 298.444 257.424 302.806 245.78Z" fill="white" stroke="white" style="fill:white;fill-opacity:1;stroke:white;stroke-opacity:1;" stroke-width="0.346789"/>
<path id="Vector_6" fill-rule="evenodd" clip-rule="evenodd" d="M325.092 250.94C324.91 236.22 324.656 219.514 323.201 209.227C328.873 203.504 322.911 203.371 321.056 196.954C319.966 200.593 317.566 204.562 319.675 207.506C320.62 223.252 321.529 238.999 321.711 254.745C323.02 253.984 324.51 253.686 325.092 250.94Z" fill="white" stroke="white" style="fill:white;fill-opacity:1;stroke:white;stroke-opacity:1;" stroke-width="0.346789"/>
<g id="Vector_7">
<path fill-rule="evenodd" clip-rule="evenodd" d="M282.775 250.246C281.393 248.658 280.412 246.871 279.285 245.317C279.103 243.1 280.739 241.049 280.957 239.925C282.811 242.538 283.902 244.523 285.392 245.813M287.355 246.838C290.082 247.831 293.427 247.831 296.517 247.897C308.441 248.095 320.984 246.309 319.639 260.997C319.262 266.503 316.609 271.676 312.211 275.475C307.814 279.274 301.999 281.417 295.935 281.473C280.775 281.341 267.833 266.124 291.209 238.105C293.463 237.774 296.408 238.337 298.844 238.535C303.024 238.833 307.314 238.469 312.222 234.896C311.641 225.667 311.641 216.934 310.404 208.598C308.296 205.654 310.695 201.717 311.786 198.045C313.64 204.463 319.566 204.595 313.931 210.351C315.276 219.614 315.421 229.041 315.421 234.665C312.586 238.601 310.368 242.77 302.079 244.357C293.608 243.233 289.791 232.449 280.957 236.021C283.393 226.296 305.824 224.079 308.078 231.754C306.587 239.759 285.647 236.55 280.084 262.419C278.376 270.391 287.61 277.735 297.099 277.14C306.369 276.577 316.258 270.722 317.239 260.864C318.003 252.627 305.242 253.587 299.898 253.686C292.118 253.851 287.21 252.76 284.265 251.205M292.227 233.375C293.608 232.184 298.444 231.357 300.189 233.276C298.856 234.047 297.644 234.941 296.553 235.955C294.735 235.095 293.536 234.235 292.227 233.375Z" fill="white" style="fill:white;fill-opacity:1;"/>
<path d="M282.775 250.246C281.393 248.658 280.412 246.871 279.285 245.317C279.103 243.1 280.739 241.049 280.957 239.925C282.811 242.538 283.902 244.523 285.392 245.813M287.355 246.838C290.082 247.831 293.427 247.831 296.517 247.897C308.441 248.095 320.984 246.309 319.639 260.997C319.262 266.503 316.609 271.676 312.211 275.475C307.814 279.274 301.999 281.417 295.935 281.473C280.775 281.341 267.833 266.124 291.209 238.105C293.463 237.774 296.408 238.337 298.844 238.535C303.024 238.833 307.314 238.469 312.222 234.896C311.641 225.667 311.641 216.934 310.404 208.598C308.296 205.654 310.695 201.717 311.786 198.045C313.64 204.463 319.566 204.595 313.931 210.351C315.276 219.614 315.421 229.041 315.421 234.665C312.586 238.601 310.368 242.77 302.079 244.357C293.608 243.233 289.791 232.449 280.957 236.021C283.393 226.296 305.824 224.079 308.078 231.754C306.587 239.759 285.647 236.55 280.084 262.419C278.376 270.391 287.61 277.735 297.099 277.14C306.369 276.577 316.258 270.722 317.239 260.864C318.003 252.627 305.242 253.587 299.898 253.686C292.118 253.851 287.21 252.76 284.265 251.205M292.227 233.375C293.608 232.184 298.444 231.357 300.189 233.276C298.856 234.047 297.644 234.941 296.553 235.955C294.735 235.095 293.536 234.235 292.227 233.375Z" stroke="white" style="stroke:white;stroke-opacity:1;" stroke-width="0.138715"/>
</g>
<path id="Vector_8" fill-rule="evenodd" clip-rule="evenodd" d="M304.079 206.018C305.282 208.174 305.941 210.547 306.006 212.965C305.206 216.405 301.97 219.614 298.625 219.713C296.553 219.779 294.226 219.25 292.591 216.306C292.409 215.942 291.536 215.082 290.7 215.479C287.028 220.97 284.302 223.286 280.993 223.253C274.377 223.153 276.34 217.794 270.232 216.14C267.687 216.074 263.506 218.423 261.362 223.021C253.218 244.027 245.802 222.955 248.965 213.163C249.437 222.525 251.909 228.082 254.454 227.917C256.308 227.751 257.944 223.848 260.307 219.746C262.125 216.603 266.488 210.947 271.105 210.947C275.322 211.046 272.668 218.092 281.102 217.993C285.174 217.927 288.919 215.082 292.7 209.392C293.536 209.26 293.754 210.616 293.936 211.079C294.517 213.031 298.226 218.39 303.242 213.494C302.988 212.435 303.097 210.682 301.825 210.318L304.079 206.018Z" fill="white" stroke="white" style="fill:white;fill-opacity:1;stroke:white;stroke-opacity:1;" stroke-width="0.346789"/>
<g id="Vector_9">
<path fill-rule="evenodd" clip-rule="evenodd" d="M330.582 188.618C326.11 190.636 322.838 188.783 320.984 186.997C324.219 186.401 326.728 185.343 327.455 183.027C326.001 180.05 322.547 178.76 317.675 178.727C311.168 178.892 307.823 181.274 307.423 184.549C310.441 184.648 313.167 183.887 314.331 186.534C308.987 188.915 302.697 189.775 295.862 189.742C284.665 190.272 283.029 185.674 280.084 181.638C279.866 181.373 278.885 180.943 278.376 181.009C274.922 181.009 272.377 191.992 268.487 191.959C264.597 191.496 265.47 184.88 264.343 181.109C263.397 187.03 265.542 209.061 277.576 185.144C277.939 184.35 278.448 184.582 278.776 185.244C282.011 191.926 288.591 194.241 295.681 194.572C301.607 194.87 309.168 192.521 317.276 188.353C319.421 190.503 321.129 192.951 325.637 193.414C330.909 193.646 336.544 190.172 337.816 185.872C338.471 183.656 338.58 179.289 335.998 179.223C332.399 179.124 329.782 187.063 330.618 194.208C330.691 194.109 331.09 192.422 331.09 192.422M315.167 182.895C317.53 181.902 319.82 181.439 321.638 183.623C320.544 183.9 319.51 184.347 318.584 184.946C317.566 184.218 316.185 183.854 315.167 182.895ZM332.545 187.824C333.126 185.475 333.454 183.589 335.562 182.366C335.998 184.847 336.071 186.236 332.545 187.824ZM346.723 191.463C346.032 189.445 345.342 187.691 345.124 185.508C344.615 181.075 348.795 178.561 352.576 178.925C356.466 179.289 359.047 180.612 362.756 181.77C365.664 182.663 369.59 183.358 373.335 184.317C375.444 185.177 373.335 187.427 372.79 187.725C363.41 191.066 356.757 196.358 350.795 196.59C347.256 196.744 344.057 194.649 341.197 190.305C341.015 181.902 340.688 172.045 339.779 165.859C341.161 164.602 341.452 163.675 342.106 162.65C342.833 170.821 343.124 179.421 343.306 188.088C344.069 189.577 345.014 190.834 346.723 191.463ZM352.722 192.124C347.705 193.414 348.323 189.544 347.85 187.162C347.305 184.383 347.668 181.241 351.558 182.035C356.612 183.259 361.229 184.88 365.7 186.6L352.722 192.124Z" fill="white" style="fill:white;fill-opacity:1;"/>
<path d="M330.582 188.618C326.11 190.636 322.838 188.783 320.984 186.997C324.219 186.401 326.728 185.343 327.455 183.027C326.001 180.05 322.547 178.76 317.675 178.727C311.168 178.892 307.823 181.274 307.423 184.549C310.441 184.648 313.167 183.887 314.331 186.534C308.987 188.915 302.697 189.775 295.862 189.742C284.665 190.272 283.029 185.674 280.084 181.638C279.866 181.373 278.885 180.943 278.376 181.009C274.922 181.009 272.377 191.992 268.487 191.959C264.597 191.496 265.47 184.88 264.343 181.109C263.397 187.03 265.542 209.061 277.576 185.144C277.939 184.35 278.448 184.582 278.776 185.244C282.011 191.926 288.591 194.241 295.681 194.572C301.607 194.87 309.168 192.521 317.276 188.353C319.421 190.503 321.129 192.951 325.637 193.414C330.909 193.646 336.544 190.172 337.816 185.872C338.471 183.656 338.58 179.289 335.998 179.223C332.399 179.124 329.782 187.063 330.618 194.208C330.691 194.109 331.09 192.422 331.09 192.422M315.167 182.895C317.53 181.902 319.82 181.439 321.638 183.623C320.544 183.9 319.51 184.347 318.584 184.946C317.566 184.218 316.185 183.854 315.167 182.895ZM332.545 187.824C333.126 185.475 333.454 183.589 335.562 182.366C335.998 184.847 336.071 186.236 332.545 187.824ZM346.723 191.463C346.032 189.445 345.342 187.691 345.124 185.508C344.615 181.075 348.795 178.561 352.576 178.925C356.466 179.289 359.047 180.612 362.756 181.77C365.664 182.663 369.59 183.358 373.335 184.317C375.444 185.177 373.335 187.427 372.79 187.725C363.41 191.066 356.757 196.358 350.795 196.59C347.256 196.744 344.057 194.649 341.197 190.305C341.015 181.902 340.688 172.045 339.779 165.859C341.161 164.602 341.452 163.675 342.106 162.65C342.833 170.821 343.124 179.421 343.306 188.088C344.069 189.577 345.014 190.834 346.723 191.463ZM352.722 192.124C347.705 193.414 348.323 189.544 347.85 187.162C347.305 184.383 347.668 181.241 351.558 182.035C356.612 183.259 361.229 184.88 365.7 186.6L352.722 192.124Z" stroke="white" style="stroke:white;stroke-opacity:1;" stroke-width="0.138715"/>
</g>
<g id="Vector_10">
<path fill-rule="evenodd" clip-rule="evenodd" d="M347.814 196.226L348.504 199.303H349.05L348.832 196.425" fill="white" style="fill:white;fill-opacity:1;"/>
<path d="M347.814 196.226L348.504 199.303H349.05L348.832 196.425" stroke="white" style="stroke:white;stroke-opacity:1;" stroke-width="0.138715"/>
</g>
<path id="Vector_11" fill-rule="evenodd" clip-rule="evenodd" d="M267.796 228.38L270.341 225.998L273.286 228.281L270.559 230.497L267.796 228.38ZM274.268 227.586L276.849 225.204L279.794 227.487L277.067 229.703L274.268 227.586ZM256.272 202.908L258.853 200.526L261.798 202.809L259.071 205.025L256.272 202.908ZM257.435 209.921L260.016 207.539L262.925 209.822L260.198 212.038L257.435 209.921ZM304.151 221.665L306.514 219.911L308.696 222.061L306.224 223.649L304.151 221.665ZM272.959 176.775L274.631 175.22L276.558 176.709L274.777 178.164L272.959 176.775ZM277.212 176.279L278.885 174.691L280.811 176.213L279.03 177.635L277.212 176.279ZM366.5 194.043L364.901 195.267L363.374 193.844L365.046 192.72L366.5 194.043Z" fill="white" stroke="white" style="fill:white;fill-opacity:1;stroke:white;stroke-opacity:1;" stroke-width="1.38715" stroke-linecap="round" stroke-linejoin="round"/>
<path id="Vector_12" fill-rule="evenodd" clip-rule="evenodd" d="M291.245 237.94L291.064 240.553L295.644 240.95L299.316 238.436L291.245 237.94Z" fill="white" stroke="white" style="fill:white;fill-opacity:1;stroke:white;stroke-opacity:1;" stroke-width="0.138715"/>
<path id="Vector_13" fill-rule="evenodd" clip-rule="evenodd" d="M329.963 189.114L331.309 188.849L331.163 192.256L330.327 192.554L329.963 189.114Z" fill="white" stroke="white" style="fill:white;fill-opacity:1;stroke:white;stroke-opacity:1;" stroke-width="0.346789"/>
</g>
<path id="Vector_14" d="M320 326.3C371.6 326.3 413.6 288.1 413.6 241.1C413.439 228.59 410.418 216.283 404.767 205.12C399.117 193.958 390.987 184.236 381 176.7C393.29 189.664 400.159 206.836 400.2 224.7C400.2 265.5 364.3 298.6 320 298.6C275.7 298.6 239.8 265.5 239.8 224.6C239.8 206.3 247 189.5 259 176.6C248.987 184.157 240.841 193.91 235.189 205.11C229.537 216.309 226.531 228.656 226.4 241.2C226.4 288.1 268.4 326.3 320 326.3Z" fill="white" style="fill:white;fill-opacity:1;"/>
<g id="Group_2">
<path id="Vector_15" d="M307.333 373.729C286.69 383.121 260.886 380.56 239.07 367.753C238.132 367.326 237.662 367.966 238.601 370.314C240.947 376.504 242.823 381.414 235.786 390.592C232.736 394.647 236.255 395.288 241.416 394.861C267.689 392.513 293.492 387.177 305.925 382.694L307.333 373.729ZM306.864 384.829C298.653 387.817 284.578 391.446 268.862 394.007C262.528 394.861 262.763 398.49 274.022 399.77C285.517 400.838 300.295 393.367 309.209 386.75L306.864 384.829Z" fill="white" stroke="black" style="fill:white;fill-opacity:1;stroke:black;stroke-opacity:1;" stroke-width="1.79013"/>
<g id="Vector_16">
<path d="M320 364.338C322.815 364.338 327.976 363.27 333.136 362.63C342.754 361.136 335.717 374.583 320 374.583V379.066C335.951 379.066 352.607 363.27 349.088 356.227C344.162 345.981 330.556 354.732 320 354.732C309.444 354.732 295.838 345.981 290.912 356.227C287.393 363.27 304.049 379.066 320 379.066V374.583C304.283 374.583 297.246 361.136 306.864 362.63C312.024 363.27 317.185 364.338 320 364.338Z" fill="white" style="fill:white;fill-opacity:1;"/>
<path d="M320 374.583C335.717 374.583 342.754 361.136 333.136 362.63C327.976 363.27 322.815 364.338 320 364.338C317.185 364.338 312.024 363.27 306.864 362.63C297.246 361.136 304.283 374.583 320 374.583ZM320 374.583V379.066M320 379.066C335.951 379.066 352.607 363.27 349.088 356.227C344.162 345.981 330.556 354.732 320 354.732C309.444 354.732 295.838 345.981 290.912 356.227C287.393 363.27 304.049 379.066 320 379.066Z" stroke="black" style="stroke:black;stroke-opacity:1;" stroke-width="1.79013"/>
</g>
<path id="Vector_17" d="M332.667 373.729C353.31 383.121 379.114 380.56 400.93 367.753C401.869 367.326 402.338 367.966 401.399 370.314C399.054 376.504 397.177 381.414 404.214 390.592C407.264 394.647 403.745 395.288 398.584 394.861C372.311 392.513 346.508 387.177 334.075 382.694L332.667 373.729ZM333.137 384.829C341.347 387.817 355.187 391.446 371.139 394.007C377.472 394.861 377.238 398.49 365.978 399.77C354.483 400.838 339.705 393.367 330.791 386.75L333.137 384.829Z" fill="white" stroke="black" style="fill:white;fill-opacity:1;stroke:black;stroke-opacity:1;" stroke-width="1.79013"/>
<path id="Vector_18" d="M320.704 382.694C321.173 386.323 321.877 394.221 327.272 390.805C334.544 386.323 336.186 382.908 336.186 376.504C336.186 372.449 330.791 366.472 320 366.472C309.209 366.472 303.814 372.449 303.814 376.504C303.814 382.908 305.456 386.323 312.728 390.805C318.123 394.221 318.593 386.323 319.296 382.694C319.531 381.414 320.704 381.841 320.704 382.694Z" fill="white" stroke="black" style="fill:white;fill-opacity:1;stroke:black;stroke-opacity:1;" stroke-width="1.79013"/>
</g>
<g id="Group_3">
<path id="Vector_19" d="M313.197 109.265C310.148 93.4699 284.578 92.4026 280.59 89.8412C275.899 87.0664 276.603 89.8412 278.245 94.1102C282.936 105.21 298.888 109.692 306.16 110.973C312.024 111.827 313.901 112.253 313.197 109.265Z" fill="white" stroke="black" style="fill:white;fill-opacity:1;stroke:black;stroke-opacity:1;" stroke-width="1.79013"/>
<path id="Vector_20" d="M320.938 109.692C323.519 93.4697 298.184 85.7855 295.134 82.1569C291.616 78.3148 291.147 80.6627 292.789 85.1452C295.838 94.7504 306.863 106.063 313.432 109.052C318.827 111.613 320.469 112.68 320.938 109.692Z" fill="white" stroke="black" style="fill:white;fill-opacity:1;stroke:black;stroke-opacity:1;" stroke-width="1.79013"/>
<path id="Vector_21" d="M341.816 119.084C344.162 99.6598 323.519 96.6715 318.123 90.4814C314.605 86.6393 314.37 88.7738 315.543 93.2563C317.889 103.075 328.21 114.601 334.544 118.23C339.47 121.005 341.581 122.072 341.816 119.084Z" fill="white" stroke="black" style="fill:white;fill-opacity:1;stroke:black;stroke-opacity:1;" stroke-width="1.79013"/>
<path id="Vector_22" d="M335.482 114.815C314.135 102.221 299.122 109.265 293.023 108.625C287.159 107.984 285.282 111.399 295.369 116.522C307.802 122.712 325.161 121.859 331.963 119.511C339.001 116.949 336.89 115.668 335.482 114.815ZM367.62 123.353C361.051 102.435 345.804 105.85 341.347 103.288C336.89 100.727 336.42 101.367 337.359 106.063C339.235 114.388 354.952 123.566 362.693 126.341C365.508 127.195 369.027 128.475 367.62 123.353Z" fill="white" stroke="black" style="fill:white;fill-opacity:1;stroke:black;stroke-opacity:1;" stroke-width="1.79013"/>
<path id="Vector_23" d="M364.57 126.981C346.273 113.534 331.964 123.566 326.334 122.072C322.111 121.005 323.988 123.566 325.63 124.634C337.359 132.104 351.903 136.16 363.163 131.464C367.62 129.756 367.854 129.329 364.57 126.981ZM404.214 140.642C404.449 127.408 374.423 121.859 368.089 113.748C364.336 108.838 361.052 111.4 362.928 119.297C365.743 129.543 386.386 140.856 397.646 142.99C404.449 144.271 404.214 142.136 404.214 140.642Z" fill="white" stroke="black" style="fill:white;fill-opacity:1;stroke:black;stroke-opacity:1;" stroke-width="1.79013"/>
<path id="Vector_24" d="M403.276 142.99C384.275 127.408 368.323 132.531 362.459 131.037C356.594 129.756 354.249 132.958 363.397 139.361C374.657 147.046 392.016 148.54 399.288 147.046C406.56 145.551 404.683 144.057 403.276 142.99ZM437.29 165.829C431.895 143.203 414.77 138.508 410.548 134.239C406.56 129.97 402.338 131.25 405.856 141.496C410.079 153.663 423.919 164.335 431.191 166.896C438.228 169.671 437.759 167.537 437.29 165.829Z" fill="white" stroke="black" style="fill:white;fill-opacity:1;stroke:black;stroke-opacity:1;" stroke-width="1.79013"/>
<path id="Vector_25" d="M437.055 168.818C423.215 148.54 405.153 149.18 399.523 146.405C394.127 143.417 390.374 145.978 397.646 154.73C406.091 165.402 423.45 171.379 431.425 171.806C439.401 172.233 437.994 170.312 437.055 168.818Z" fill="white" stroke="black" style="fill:white;fill-opacity:1;stroke:black;stroke-opacity:1;" stroke-width="1.79013"/>
<path id="Vector_26" d="M454.883 192.938C462.859 169.885 444.562 161.347 442.685 157.505C440.574 153.663 438.463 153.663 437.29 157.718C432.129 174.154 448.784 190.163 451.365 193.364C453.945 196.353 454.414 194.859 454.883 192.938Z" fill="white" stroke="black" style="fill:white;fill-opacity:1;stroke:black;stroke-opacity:1;" stroke-width="1.79013"/>
<path id="Vector_27" d="M451.13 199.341C444.797 173.513 428.141 175.008 424.388 171.379C420.4 167.75 419.931 170.312 420.635 175.008C422.511 187.601 439.167 196.139 446.673 200.408C449.019 201.689 451.834 203.183 451.13 199.341ZM467.082 229.651C478.576 205.317 464.97 188.882 460.748 185.253C456.526 181.838 453.945 180.344 455.353 185.253C457.229 192.724 450.661 211.934 460.748 226.022C464.032 230.718 464.501 235.2 467.082 229.651Z" fill="white" stroke="black" style="fill:white;fill-opacity:1;stroke:black;stroke-opacity:1;" stroke-width="1.79013"/>
<path id="Vector_28" d="M460.982 234.56C463.563 219.619 454.18 205.958 444.093 200.622C438.228 197.42 437.994 198.274 437.994 202.756C438.463 216.63 452.772 228.157 456.995 234.56C460.982 240.537 460.748 236.054 460.982 234.56Z" fill="white" stroke="black" style="fill:white;fill-opacity:1;stroke:black;stroke-opacity:1;" stroke-width="1.79013"/>
<path id="Vector_29" d="M458.402 273.408C449.957 245.233 467.551 229.011 472.946 225.809C478.107 222.394 481.391 221.113 479.045 226.449C475.526 234.347 479.28 256.332 465.909 270.206C461.686 274.902 460.044 279.812 458.402 273.408Z" fill="white" stroke="black" style="fill:white;fill-opacity:1;stroke:black;stroke-opacity:1;" stroke-width="1.79013"/>
<path id="Vector_30" d="M460.279 267.218C467.316 242.671 452.069 228.797 447.377 226.022C442.92 223.247 440.105 222.18 442.216 226.662C445.031 233.493 441.982 252.703 453.711 264.657C457.464 268.712 458.871 272.768 460.279 267.218Z" fill="white" stroke="black" style="fill:white;fill-opacity:1;stroke:black;stroke-opacity:1;" stroke-width="1.79013"/>
<path id="Vector_31" d="M451.599 255.692C438.932 268.072 438.697 286.215 444.327 296.887C447.846 303.078 448.315 302.651 451.599 298.168C460.513 285.148 455.118 266.364 455.587 258.04C455.822 250.142 453.007 254.411 451.599 255.692Z" fill="white" stroke="black" style="fill:white;fill-opacity:1;stroke:black;stroke-opacity:1;" stroke-width="1.79013"/>
<path id="Vector_32" d="M472.477 275.329C472.477 292.405 460.983 306.279 448.784 310.548C441.747 312.896 441.747 312.256 442.685 307.133C445.969 287.923 462.155 280.879 468.02 274.689C473.65 268.712 472.477 273.622 472.477 275.329Z" fill="white" stroke="black" style="fill:white;fill-opacity:1;stroke:black;stroke-opacity:1;" stroke-width="1.79013"/>
<path id="Vector_33" d="M428.845 326.13C449.488 309.054 438.463 297.101 439.401 286.002C439.87 280.025 437.29 281.519 434.944 283.654C421.808 295.393 421.104 316.311 423.919 324.423C425.092 328.051 426.968 327.624 428.845 326.13Z" fill="white" stroke="black" style="fill:white;fill-opacity:1;stroke:black;stroke-opacity:1;" stroke-width="1.79013"/>
<path id="Vector_34" d="M456.526 315.031C449.723 333.815 431.66 345.341 416.412 345.981C407.498 346.408 407.733 345.768 410.782 340.218C422.277 320.154 442.685 317.806 451.834 312.683C460.279 307.987 457.229 313.11 456.526 315.031Z" fill="white" stroke="black" style="fill:white;fill-opacity:1;stroke:black;stroke-opacity:1;" stroke-width="1.79013"/>
<path id="Vector_35" d="M400.461 350.25C427.203 338.083 421.808 317.806 426.734 312.683C430.253 309.054 426.03 309.481 423.919 310.762C408.202 319.086 395.535 332.32 395.3 346.408C395.3 351.744 395.769 352.385 400.461 350.25Z" fill="white" stroke="black" style="fill:white;fill-opacity:1;stroke:black;stroke-opacity:1;" stroke-width="1.79013"/>
<path id="Vector_36" d="M363.866 372.876C397.646 377.785 413.363 354.519 423.215 352.385C428.376 351.317 424.623 349.396 422.042 349.183C399.523 346.835 370.904 356.44 362.224 367.113C358.706 371.382 358.706 372.236 363.866 372.876Z" fill="white" stroke="black" style="fill:white;fill-opacity:1;stroke:black;stroke-opacity:1;" stroke-width="1.79013"/>
<path id="Vector_37" d="M398.115 336.376C391.312 356.654 365.978 373.303 346.977 374.584C338.063 375.224 338.063 374.37 341.347 369.034C356.594 343.847 383.102 339.578 392.485 333.174C400.461 327.625 398.819 334.455 398.115 336.376ZM326.803 109.265C329.852 93.4699 355.422 92.4026 359.409 89.8412C364.101 87.0664 363.397 89.8412 361.755 94.1102C357.064 105.21 341.112 109.692 333.84 110.973C327.976 111.827 326.099 112.253 326.803 109.265Z" fill="white" stroke="black" style="fill:white;fill-opacity:1;stroke:black;stroke-opacity:1;" stroke-width="1.79013"/>
<path id="Vector_38" d="M319.062 109.692C316.481 93.4697 341.816 85.7855 344.865 82.1569C348.384 78.3148 348.853 80.6627 347.211 85.1452C344.162 94.7504 333.136 106.063 326.568 109.052C321.173 111.613 319.531 112.68 319.062 109.692Z" fill="white" stroke="black" style="fill:white;fill-opacity:1;stroke:black;stroke-opacity:1;" stroke-width="1.79013"/>
<path id="Vector_39" d="M298.184 119.084C295.838 99.6598 316.481 96.6715 321.877 90.4814C325.395 86.6393 325.63 88.7738 324.457 93.2563C322.111 103.075 311.79 114.601 305.456 118.23C300.53 121.005 298.419 122.072 298.184 119.084Z" fill="white" stroke="black" style="fill:white;fill-opacity:1;stroke:black;stroke-opacity:1;" stroke-width="1.79013"/>
<path id="Vector_40" d="M304.518 114.815C325.864 102.221 340.878 109.265 346.977 108.625C352.841 107.984 354.718 111.399 344.631 116.522C332.198 122.712 314.839 121.859 308.036 119.511C300.999 116.949 303.11 115.668 304.518 114.815ZM272.38 123.353C278.948 102.435 294.196 105.85 298.653 103.288C303.11 100.727 303.579 101.367 302.641 106.063C300.764 114.388 285.048 123.566 277.306 126.341C274.491 127.195 270.973 128.475 272.38 123.353Z" fill="white" stroke="black" style="fill:white;fill-opacity:1;stroke:black;stroke-opacity:1;" stroke-width="1.79013"/>
<path id="Vector_41" d="M275.43 126.981C293.727 113.534 308.036 123.566 313.666 122.072C317.889 121.005 316.012 123.566 314.37 124.634C302.641 132.104 288.097 136.16 276.837 131.464C272.38 129.756 272.146 129.329 275.43 126.981ZM235.786 140.642C235.551 127.408 265.577 121.859 271.911 113.748C275.664 108.838 278.949 111.4 277.072 119.297C274.257 129.543 253.614 140.856 242.354 142.99C235.551 144.271 235.786 142.136 235.786 140.642Z" fill="white" stroke="black" style="fill:white;fill-opacity:1;stroke:black;stroke-opacity:1;" stroke-width="1.79013"/>
<path id="Vector_42" d="M236.724 142.99C255.725 127.408 271.676 132.531 277.541 131.037C283.405 129.756 285.751 132.958 276.603 139.361C265.343 147.046 247.984 148.54 240.712 147.046C233.44 145.551 235.317 144.057 236.724 142.99ZM202.71 165.829C208.105 143.203 225.23 138.508 229.452 134.239C233.44 129.97 237.662 131.25 234.144 141.496C229.921 153.663 216.081 164.335 208.809 166.896C201.772 169.671 202.241 167.537 202.71 165.829Z" fill="white" stroke="black" style="fill:white;fill-opacity:1;stroke:black;stroke-opacity:1;" stroke-width="1.79013"/>
<path id="Vector_43" d="M202.944 168.818C216.785 148.54 234.847 149.18 240.477 146.405C245.873 143.417 249.626 145.978 242.354 154.73C233.909 165.402 216.55 171.379 208.574 171.806C200.599 172.233 202.006 170.312 202.944 168.818Z" fill="white" stroke="black" style="fill:white;fill-opacity:1;stroke:black;stroke-opacity:1;" stroke-width="1.79013"/>
<path id="Vector_44" d="M185.116 192.938C177.141 169.885 195.438 161.347 197.315 157.505C199.426 153.663 201.537 153.663 202.71 157.718C207.871 174.154 191.216 190.163 188.635 193.364C186.055 196.353 185.586 194.859 185.116 192.938Z" fill="white" stroke="black" style="fill:white;fill-opacity:1;stroke:black;stroke-opacity:1;" stroke-width="1.79013"/>
<path id="Vector_45" d="M188.87 199.341C195.203 173.513 211.859 175.008 215.612 171.379C219.6 167.75 220.069 170.312 219.365 175.008C217.489 187.601 200.833 196.139 193.327 200.408C190.981 201.689 188.166 203.183 188.87 199.341ZM172.918 229.651C161.424 205.317 175.03 188.882 179.252 185.253C183.474 181.838 186.055 180.344 184.647 185.253C182.771 192.724 189.339 211.934 179.252 226.022C175.968 230.718 175.499 235.2 172.918 229.651Z" fill="white" stroke="black" style="fill:white;fill-opacity:1;stroke:black;stroke-opacity:1;" stroke-width="1.79013"/>
<path id="Vector_46" d="M179.017 234.56C176.437 219.619 185.82 205.958 195.907 200.622C201.772 197.42 202.006 198.274 202.006 202.756C201.537 216.63 187.228 228.157 183.005 234.56C179.017 240.537 179.252 236.054 179.017 234.56Z" fill="white" stroke="black" style="fill:white;fill-opacity:1;stroke:black;stroke-opacity:1;" stroke-width="1.79013"/>
<path id="Vector_47" d="M181.598 273.408C190.043 245.233 172.449 229.011 167.054 225.809C161.893 222.394 158.609 221.113 160.955 226.449C164.473 234.347 160.72 256.332 174.091 270.206C178.314 274.902 179.721 279.812 181.598 273.408Z" fill="white" stroke="black" style="fill:white;fill-opacity:1;stroke:black;stroke-opacity:1;" stroke-width="1.79013"/>
<path id="Vector_48" d="M179.721 267.218C172.684 242.671 187.931 228.797 192.623 226.022C197.08 223.247 199.895 222.18 197.784 226.662C194.969 233.493 198.018 252.703 186.289 264.657C182.536 268.712 181.129 272.768 179.721 267.218Z" fill="white" stroke="black" style="fill:white;fill-opacity:1;stroke:black;stroke-opacity:1;" stroke-width="1.79013"/>
<path id="Vector_49" d="M188.401 255.692C201.068 268.072 201.302 286.215 195.673 296.887C192.154 303.078 191.685 302.651 188.401 298.168C179.487 285.148 184.882 266.364 184.413 258.04C184.178 250.142 186.993 254.411 188.401 255.692Z" fill="white" stroke="black" style="fill:white;fill-opacity:1;stroke:black;stroke-opacity:1;" stroke-width="1.79013"/>
<path id="Vector_50" d="M167.523 275.329C167.523 292.405 179.017 306.279 191.216 310.548C198.253 312.896 198.253 312.256 197.315 307.133C194.031 287.923 177.844 280.879 171.98 274.689C166.35 268.712 167.523 273.622 167.523 275.329Z" fill="white" stroke="black" style="fill:white;fill-opacity:1;stroke:black;stroke-opacity:1;" stroke-width="1.79013"/>
<path id="Vector_51" d="M211.155 326.13C190.512 309.054 201.537 297.101 200.599 286.002C200.13 280.025 202.71 281.519 205.056 283.654C218.192 295.393 218.896 316.311 216.081 324.423C214.908 328.051 213.031 327.624 211.155 326.13Z" fill="white" stroke="black" style="fill:white;fill-opacity:1;stroke:black;stroke-opacity:1;" stroke-width="1.79013"/>
<path id="Vector_52" d="M183.474 315.031C190.277 333.815 208.34 345.341 223.588 345.981C232.502 346.408 232.267 345.768 229.218 340.218C217.723 320.154 197.315 317.806 188.166 312.683C179.721 307.987 182.771 313.11 183.474 315.031Z" fill="white" stroke="black" style="fill:white;fill-opacity:1;stroke:black;stroke-opacity:1;" stroke-width="1.79013"/>
<path id="Vector_53" d="M239.539 350.25C212.797 338.083 218.192 317.806 213.266 312.683C209.747 309.054 213.97 309.481 216.081 310.762C231.798 319.086 244.465 332.32 244.7 346.408C244.7 351.744 244.231 352.385 239.539 350.25Z" fill="white" stroke="black" style="fill:white;fill-opacity:1;stroke:black;stroke-opacity:1;" stroke-width="1.79013"/>
<path id="Vector_54" d="M276.133 372.876C242.354 377.785 226.637 354.519 216.785 352.385C211.624 351.317 215.377 349.396 217.958 349.183C240.477 346.835 269.096 356.44 277.776 367.113C281.294 371.382 281.294 372.236 276.133 372.876Z" fill="white" stroke="black" style="fill:white;fill-opacity:1;stroke:black;stroke-opacity:1;" stroke-width="1.79013"/>
<path id="Vector_55" d="M241.885 336.376C248.688 356.653 274.022 373.303 293.023 374.583C301.937 375.224 301.937 374.37 298.653 369.034C283.405 343.846 256.898 339.577 247.515 333.174C239.539 327.624 241.181 334.455 241.885 336.376Z" fill="white" stroke="black" style="fill:white;fill-opacity:1;stroke:black;stroke-opacity:1;" stroke-width="1.79013"/>
</g>
<path id="Vector_56" d="M359.6 128.9C355.2 125.9 338.8 127.6 335.7 125.6C341.6 130.1 354.7 126.9 359.7 128.9H359.6ZM399.3 136.5C395.8 130.8 374.9 126.9 371.8 121.8C377.3 131.6 393.4 130.3 399.3 136.5ZM396.3 143.1C388.5 136.3 370.5 139.1 365 135.1C377.7 145.5 384.7 137.4 396.2 143.1H396.3ZM351 112.8C355.9 115.2 362 117.5 365 123.1C361.5 118.8 355.2 117.1 350 113.5C350.333 113.433 350.667 113.2 351 112.8ZM428 156.8C424.9 150.4 414 143.4 413.1 141C416.1 149.3 425.1 151.3 427.9 156.8H428ZM430.7 168.1C421.3 154.7 406.6 156.1 400.7 151.1C405.2 156 422.1 159.1 430.7 168.1ZM452.5 188.8C453.2 174.5 441.5 169.2 441.1 161.1C440.8 170.7 453.1 183.7 452.5 188.8ZM446.7 196.5C444.3 184.1 428.4 183.3 425.6 176C425.6 182.8 444.3 189.9 446.6 196.5H446.7ZM459.8 189.5C468.3 198.9 462.4 213.2 465.9 223.6C461.7 215.9 463.8 196.7 459.9 189.5H459.8ZM446 229.5C458.6 242 453.5 255.8 458.6 261.8C452.3 253.5 453.2 237.3 446 229.6V229.5ZM472.3 231.3C461.4 242.2 468 258.6 462.3 266.3C468.7 259.7 467.8 239.3 472.3 231.3ZM458.6 231.3C457.2 218.7 444.3 212.1 443.2 205.3C441.7 212.1 455.6 222.8 458.6 231.3ZM452.1 261.3C454.1 270.1 446.4 288.9 448.8 294.7C443.6 284.7 453.2 265.7 452.1 261.4V261.3ZM468.7 281.4C463.6 297 453.2 296 450 305.4C452.3 296.4 466 288.3 468.7 281.4ZM435.2 288.7C428.4 299.2 434 311.1 428.4 318.6C436.4 311.1 432.1 297.2 435.2 288.7ZM451.6 317.3C443.4 331.2 426.5 329.9 419.7 339.9C426.5 327.3 447.4 325.2 451.7 317.3H451.6ZM421.8 315.6C407.3 324.8 411.8 334.4 400.7 344.6C414.5 334.4 413.4 323.1 421.8 315.6ZM415 352.8C401 352.3 380.8 369 368.6 367.7C380.8 370.1 403.3 355.1 415 352.7V352.8ZM392.3 337.8C391.3 350.8 354.7 359.2 350.8 367.9C355.2 356.4 387.4 347.9 392.3 337.9V337.8ZM309.5 97.7999C304.8 94.0999 299.1 91.0999 297.5 87.4999C298.7 92.1999 303.3 95.4999 308 98.7999C308.5 98.5999 309 97.8999 309.5 97.6999V97.7999ZM301.5 101.5C294.2 98.2999 285.8 98.4999 282 94.0999C284.4 98.4999 292.3 100.2 299.1 102.6C299.9 102.133 300.7 101.8 301.5 101.6V101.5ZM280.4 128.8C284.8 125.8 301.2 127.6 304.3 125.6C298.4 130.1 285.3 126.9 280.3 128.8H280.4ZM240.7 136.5C244.2 130.8 265.1 126.9 268.2 121.8C262.8 131.6 246.6 130.3 240.7 136.5ZM243.7 143.1C251.5 136.3 269.6 139.1 275 135.1C262.3 145.5 255.3 137.4 243.8 143.1H243.7ZM275 123.1C279.4 114.5 292 113.5 295.4 108.3C290.4 116 279.7 117.3 275 123.1ZM311 115.6C324 110.1 336.7 114.8 342.8 112.2C335.3 115.8 317.4 114.1 311.1 115.6H311ZM212.1 156.8C215.1 150.4 225.9 143.3 226.9 141C223.9 149.3 214.9 151.3 212.1 156.8ZM209.3 168.1C218.7 154.7 233.4 156.1 239.3 151.1C234.9 156 218 159.1 209.3 168.1ZM187.5 188.8C186.8 174.5 198.5 169.2 199 161.1C199.2 170.7 187 183.7 187.5 188.8ZM193.3 196.5C195.7 184.1 211.6 183.3 214.4 176C214.4 182.8 195.7 189.9 193.4 196.5H193.3ZM180.2 189.5C171.8 198.9 177.6 213.1 174.2 223.6C178.3 215.9 176.2 196.7 180.2 189.5ZM194 229.5C181.4 242 186.5 255.8 181.4 261.8C187.7 253.5 186.8 237.3 194 229.6V229.5ZM167.8 231.3C178.6 242.2 172 258.6 177.6 266.3C171.3 259.7 172.2 239.3 167.8 231.3ZM181.4 231.3C182.8 218.7 195.7 212.1 196.8 205.3C198.3 212.1 184.4 222.8 181.4 231.3ZM187.9 261.3C185.9 270.1 193.6 288.9 191.2 294.7C196.4 284.7 186.8 265.7 187.9 261.4V261.3ZM171.3 281.4C176.5 297 186.8 296 190.1 305.4C187.7 296.4 174.1 288.3 171.3 281.4ZM204.8 288.7C211.6 299.2 206 311.1 211.6 318.6C203.6 311.1 207.9 297.2 204.8 288.7ZM188.4 317.3C196.6 331.2 213.5 329.9 220.4 339.9C213.5 327.3 192.6 325.2 188.4 317.3ZM218.2 315.6C232.7 324.8 228.3 334.4 239.3 344.6C225.5 334.4 226.7 323.1 218.2 315.6ZM225 352.7C239 352.3 259.3 369 271.4 367.7C259.3 370 236.7 355.1 225 352.7ZM247.8 337.7C248.7 350.8 285.3 359.1 289.3 367.9C284.8 356.4 252.7 347.9 247.7 337.8L247.8 337.7ZM301 116C303.8 104.5 318 102.4 319.8 95.4999C319.1 102.8 302.4 110.9 301 116ZM342.5 87.3999C340.5 96.1999 325.2 101.1 323.1 107.7C323.8 98.6999 339.5 93.6999 342.5 87.3999ZM330.5 108.2C337.8 97.4999 352.8 100.2 358 94.0999C354.2 101.3 335.7 101.5 330.5 108.1V108.2Z" fill="#006233" style="fill:#006233;fill:color(display-p3 0.0000 0.3843 0.2000);fill-opacity:1;"/>
<path id="Vector_57" d="M429.8 240C429.8 295.5 380.5 340.4 319.5 340.4C258.6 340.4 209.2 295.5 209.2 240.1C209.2 184.6 258.6 139.7 319.5 139.7C380.5 139.7 429.8 184.7 429.8 240.1V240Z" stroke="#F7C608" style="stroke:#F7C608;stroke:color(display-p3 0.9686 0.7765 0.0314);stroke-opacity:1;" stroke-width="1.8" stroke-linecap="round" stroke-linejoin="round"/>
<path id="Vector_58" d="M298 340.5L297.5 341.7C297.167 342.567 296.467 342.967 295.4 342.9L287.4 341L290 333.3L298 335C299 335.267 299.333 335.867 299 336.8L298.8 337.8M279.8 333L280.2 331.8C280.533 330.867 281.2 330.533 282.2 330.8L290 333.3L287.5 341C284.7 340.333 282.067 339.567 279.6 338.7C278.8 338.3 278.6 336.7 278.9 335.8" fill="#F7C608" style="fill:#F7C608;fill:color(display-p3 0.9686 0.7765 0.0314);fill-opacity:1;"/>
<path id="Vector_59" d="M296.4 339.8L296.1 340.7C295.767 341.367 295.2 341.633 294.4 341.5L287.8 339.9L289.6 334.3C292 335 294.5 335.5 296.2 335.8C297.067 336.067 297.4 336.533 297.2 337.2L297 337.9M281.2 333.9L281.5 332.9C281.767 332.367 282.3 332.167 283.1 332.3C284.967 332.967 287.133 333.633 289.6 334.3L287.8 339.9L281.3 338C280.6 337.6 280.3 336.5 280.6 335.9" fill="#006233" style="fill:#006233;fill:color(display-p3 0.0000 0.3843 0.2000);fill-opacity:1;"/>
<path id="Vector_60" d="M267.7 330.8L267 331.8C266.4 332.6 265.6 332.833 264.6 332.5C262.6 331.3 259.9 330 257.6 328.6L262.4 321.8L269.5 325.5C270.3 326.033 270.467 326.7 270 327.5L269.4 328.5M252.7 318.9L253.4 317.9C254.067 317.1 254.833 316.933 255.7 317.4C257.567 318.733 259.8 320.2 262.4 321.8L257.5 328.6L250.8 324.4C250.1 323.7 250.4 322.1 250.8 321.4" fill="#F7C608" style="fill:#F7C608;fill:color(display-p3 0.9686 0.7765 0.0314);fill-opacity:1;"/>
<path id="Vector_61" d="M266.5 329.7L265.9 330.5C265.5 331.033 264.867 331.133 264 330.8C262.4 329.8 260.2 328.8 258.2 327.6L261.7 322.7C263.7 324 266 325.1 267.6 325.8C268.267 326.2 268.433 326.733 268.1 327.4L267.6 328M253.8 320.1L254.3 319.3C254.767 318.767 255.367 318.7 256.1 319.1L261.7 322.7L258.2 327.6C256.133 326.467 254.267 325.3 252.6 324.1C252 323.6 252.1 322.4 252.5 321.9" fill="#006233" style="fill:#006233;fill:color(display-p3 0.0000 0.3843 0.2000);fill-opacity:1;"/>
<path id="Vector_62" d="M241.8 313.7L240.8 314.5C239.933 315.033 239.067 315.033 238.2 314.5C236.7 312.9 234.5 311 232.7 309L239.4 303.7C241.4 305.8 243.6 307.7 245.1 309.1C245.767 309.767 245.733 310.433 245 311.1L244.1 311.9M231.1 298.5L232.1 297.6C232.9 297.067 233.667 297.133 234.4 297.8C235.958 299.888 237.627 301.891 239.4 303.8L232.7 309C230.767 307 229.033 305.067 227.5 303.2C227 302.4 227.8 301 228.5 300.4" fill="#F7C608" style="fill:#F7C608;fill:color(display-p3 0.9686 0.7765 0.0314);fill-opacity:1;"/>
<path id="Vector_63" d="M240.9 312.4L240.1 313C239.567 313.4 238.933 313.333 238.2 312.8L233.6 308.2L238.5 304.4L243.2 308.9C243.667 309.567 243.667 310.133 243.2 310.6L242.5 311.1M231.7 299.9L232.4 299.3C233.067 298.9 233.667 298.967 234.2 299.5C235.4 301.033 236.833 302.7 238.5 304.5L233.6 308.2L229.3 303.4C228.9 302.8 229.4 301.7 229.9 301.3" fill="#006233" style="fill:#006233;fill:color(display-p3 0.0000 0.3843 0.2000);fill-opacity:1;"/>
<path id="Vector_64" d="M222.2 290.7L220.9 291.2C220.033 291.467 219.233 291.267 218.5 290.6L214.9 283.8L223 280.5C224.3 283 225.7 285.5 226.8 287.1C227.133 287.967 226.867 288.633 226 289.1L225 289.5M216.6 273.3L217.8 272.7C218.8 272.433 219.533 272.7 220 273.5C220.874 275.885 221.875 278.222 223 280.5L215 283.8C213.758 281.605 212.656 279.334 211.7 277C211.5 276 212.7 274.9 213.6 274.5" fill="#F7C608" style="fill:#F7C608;fill:color(display-p3 0.9686 0.7765 0.0314);fill-opacity:1;"/>
<path id="Vector_65" d="M221.7 289.2L220.8 289.5C220.133 289.767 219.533 289.567 219 288.9L216 283.3L221.8 280.9L225 286.4C225.267 287.2 225.1 287.733 224.5 288L223.7 288.3M216.7 274.8L217.7 274.5C218.367 274.233 218.9 274.433 219.3 275.1L221.8 280.9L216.1 283.3L213.4 277.6C213.2 276.9 214 276 214.6 275.7" fill="#006233" style="fill:#006233;fill:color(display-p3 0.0000 0.3843 0.2000);fill-opacity:1;"/>
<path id="Vector_66" d="M210.5 263.5L209.1 263.7C208.683 263.734 208.266 263.637 207.907 263.422C207.548 263.207 207.266 262.884 207.1 262.5L205.6 255.1L214.4 254C214.824 256.465 215.391 258.902 216.1 261.3C216.1 262.233 215.633 262.8 214.7 263L213.5 263.2M210.5 245.5L211.9 245.3C212.9 245.233 213.5 245.633 213.7 246.5C213.767 248.7 214 251.2 214.4 254L205.6 255.1L204.6 247.7C204.8 246.8 206.3 246 207.2 245.9" fill="#F7C608" style="fill:#F7C608;fill:color(display-p3 0.9686 0.7765 0.0314);fill-opacity:1;"/>
<path id="Vector_67" d="M210.5 262L209.5 262.1C208.833 262.167 208.333 261.833 208 261.1L206.9 254.9L213.2 254.1L214.5 260.2C214.567 260.933 214.233 261.4 213.5 261.6L212.7 261.7M210.2 247L211.2 246.8C212 246.8 212.433 247.167 212.5 247.9C212.633 249.767 212.867 251.833 213.2 254.1L206.9 254.9C206.5 252.833 206.233 250.8 206.1 248.8C206.1 248.1 207.2 247.4 207.9 247.3" fill="#006233" style="fill:#006233;fill:color(display-p3 0.0000 0.3843 0.2000);fill-opacity:1;"/>
<path id="Vector_68" d="M207.7 234.5L206.3 234.3C205.3 234.167 204.767 233.6 204.7 232.6C205 230.6 205.2 227.8 205.7 225.2L214.4 226.4C214.026 228.851 213.792 231.322 213.7 233.8C213.5 234.733 212.9 235.167 211.9 235.1L210.7 234.9M213.3 217.2L214.7 217.3C215.633 217.567 216.1 218.133 216.1 219C215.398 221.434 214.83 223.904 214.4 226.4L205.6 225.2C206 222.667 206.467 220.2 207 217.8C207.4 217 209.1 216.6 210 216.8" fill="#F7C608" style="fill:#F7C608;fill:color(display-p3 0.9686 0.7765 0.0314);fill-opacity:1;"/>
<path id="Vector_69" d="M208.2 233H207.2C206.533 232.733 206.167 232.233 206.1 231.5L206.9 225.4L213.2 226.2L212.6 232.4C212.467 233.133 212 233.467 211.2 233.4H210.4M212.5 218.5L213.5 218.7C214.233 218.833 214.567 219.3 214.5 220.1C214.033 221.833 213.6 223.833 213.2 226.1L206.9 225.4L208 219.2C208.3 218.5 209.5 218.2 210.2 218.2" fill="#006233" style="fill:#006233;fill:color(display-p3 0.0000 0.3843 0.2000);fill-opacity:1;"/>
<path id="Vector_70" d="M214 206L212.7 205.4C211.833 205.067 211.5 204.4 211.7 203.4C212.7 201.4 213.7 198.8 214.9 196.5L222.9 199.9C221.774 202.177 220.772 204.514 219.9 206.9C219.5 207.633 218.833 207.867 217.9 207.6L216.7 207.1M224.7 190.7L226 191.3C226.867 191.7 227.133 192.367 226.8 193.3C225.419 195.432 224.151 197.635 223 199.9L214.9 196.5C216.033 194.1 217.233 191.867 218.5 189.8C219.1 189.1 220.9 189.1 221.7 189.5" fill="#F7C608" style="fill:#F7C608;fill:color(display-p3 0.9686 0.7765 0.0314);fill-opacity:1;"/>
<path id="Vector_71" d="M215 204.7L214 204.3C213.4 204.1 213.2 203.3 213.4 202.7L216 197L221.8 199.4L219.3 205.2C218.9 205.867 218.367 206.067 217.7 205.8L216.9 205.5M223.6 191.9L224.5 192.3C225.167 192.567 225.333 193.1 225 193.9L221.8 199.4L216.1 197C217.033 194.933 218.033 193.067 219.1 191.4C219.5 190.8 220.8 190.7 221.4 191" fill="#006233" style="fill:#006233;fill:color(display-p3 0.0000 0.3843 0.2000);fill-opacity:1;"/>
<path id="Vector_72" d="M228.9 180.2L227.8 179.3C227.133 178.7 227 177.967 227.4 177.1C229 175.5 230.8 173.2 232.6 171.3L239.4 176.6C237.626 178.508 235.957 180.511 234.4 182.6C234.054 182.86 233.633 183 233.2 183C232.767 183 232.346 182.86 232 182.6L231.1 182M243.9 168.3L244.9 169.1C245.7 169.767 245.767 170.5 245.1 171.3L239.4 176.6L232.6 171.3C234.467 169.3 236.333 167.467 238.2 165.8C239 165.3 240.7 165.8 241.4 166.3" fill="#F7C608" style="fill:#F7C608;fill:color(display-p3 0.9686 0.7765 0.0314);fill-opacity:1;"/>
<path id="Vector_73" d="M230.2 179.2L229.4 178.6C228.933 178.133 228.9 177.567 229.3 176.9L233.6 172L238.4 175.8L234.2 180.8C233.667 181.333 233.067 181.4 232.4 181L231.8 180.5M242.4 169.1L243.2 169.7C243.667 170.167 243.667 170.7 243.2 171.3L238.4 175.9L233.6 172.1C235.133 170.367 236.667 168.833 238.2 167.5C238.9 167 240.2 167.3 240.6 167.7" fill="#006233" style="fill:#006233;fill:color(display-p3 0.0000 0.3843 0.2000);fill-opacity:1;"/>
<path id="Vector_74" d="M251 159.2L250.3 158.2C249.833 157.4 249.967 156.633 250.7 155.9C252.7 154.8 255.1 153.1 257.5 151.7L262.3 158.5C259.993 159.851 257.757 161.32 255.6 162.9C255.235 163.06 254.831 163.108 254.439 163.036C254.047 162.965 253.685 162.778 253.4 162.5L252.7 161.5M269.2 151.7L269.9 152.7C270.433 153.633 270.3 154.333 269.5 154.8C267.3 155.8 264.9 157.033 262.3 158.5L257.5 151.7C259.833 150.233 262.167 148.933 264.5 147.8C265.5 147.6 266.9 148.5 267.4 149.2" fill="#F7C608" style="fill:#F7C608;fill:color(display-p3 0.9686 0.7765 0.0314);fill-opacity:1;"/>
<path id="Vector_75" d="M252.7 158.6L252.1 157.9C251.833 157.233 251.967 156.667 252.5 156.2C254.233 155.067 256.133 153.9 258.2 152.7L261.6 157.5L256.1 161.2C255.367 161.6 254.767 161.5 254.3 160.9L253.8 160.3M267.5 152.1L268.1 152.9C268.367 153.5 268.2 154 267.6 154.4L261.6 157.5L258.2 152.7L264 149.4C264.8 149.2 265.9 149.8 266.3 150.3" fill="#006233" style="fill:#006233;fill:color(display-p3 0.0000 0.3843 0.2000);fill-opacity:1;"/>
<path id="Vector_76" d="M279 144.9L278.5 143.6C278.367 142.733 278.7 142.067 279.5 141.6L287.4 139.3L289.9 147C287.259 147.737 284.655 148.605 282.1 149.6C281.167 149.8 280.5 149.467 280.1 148.6L279.8 147.6M298.6 142.2L299 143.5C299.2 144.367 298.867 144.967 298 145.3L289.9 147L287.4 139.3C290.033 138.504 292.703 137.837 295.4 137.3C296.3 137.3 297.4 138.6 297.7 139.3" fill="#F7C608" style="fill:#F7C608;fill:color(display-p3 0.9686 0.7765 0.0314);fill-opacity:1;"/>
<path id="Vector_77" d="M280.6 144.7L280.3 143.7C280.233 143.167 280.567 142.7 281.3 142.3L287.8 140.3L289.6 145.9L283.1 147.9C282.3 148.167 281.767 147.967 281.5 147.3L281.2 146.6M296.9 142.2L297.2 143.1C297.4 143.767 297.067 144.233 296.2 144.5C294.2 144.833 292 145.3 289.6 145.9L287.8 140.4L294.4 138.8C295.2 138.7 296 139.6 296.2 140.2" fill="#006233" style="fill:#006233;fill:color(display-p3 0.0000 0.3843 0.2000);fill-opacity:1;"/>
<path id="Vector_78" d="M310 138.2V136.9C310.133 136.033 310.7 135.467 311.7 135.2L319.9 135V143.1C317.162 143.1 314.425 143.233 311.7 143.5C310.633 143.5 310.1 143 310.1 142V141M329.8 140.8V142C329.733 142.933 329.167 143.433 328.1 143.5L319.9 143.1V135C322.767 135 325.5 135.067 328.1 135.2C329.1 135.4 329.8 136.9 329.8 137.8" fill="#F7C608" style="fill:#F7C608;fill:color(display-p3 0.9686 0.7765 0.0314);fill-opacity:1;"/>
<path id="Vector_79" d="M311.8 138.5V137.5C311.8 136.9 312.233 136.5 313.1 136.3L320 136.2V142C317.333 142 315.033 142.1 313.1 142.3C312.3 142.233 311.867 141.9 311.8 141.3V140.4M328.1 140.3V141.2C328.1 141.867 327.667 142.2 326.8 142.2L320 142V136.2L326.8 136.3C327.6 136.5 328.1 137.5 328.1 138.2" fill="#006233" style="fill:#006233;fill:color(display-p3 0.0000 0.3843 0.2000);fill-opacity:1;"/>
<path id="Vector_80" d="M340 139.6L340.3 138.4C340.633 137.6 341.333 137.2 342.4 137.2L350.4 139L347.9 146.8L339.9 145.2C338.967 144.867 338.6 144.233 338.8 143.3L339.1 142.3M358.1 147L357.7 148.2C357.367 149.133 356.7 149.467 355.7 149.2L347.9 146.8L350.4 139C353.133 139.667 355.733 140.433 358.2 141.3C359 141.7 359.2 143.3 359 144.1" fill="#F7C608" style="fill:#F7C608;fill:color(display-p3 0.9686 0.7765 0.0314);fill-opacity:1;"/>
<path id="Vector_81" d="M341.5 140.3L341.7 139.4C342.033 138.733 342.6 138.467 343.4 138.6L350 140.1L348.3 145.7L341.6 144.3C340.867 144.033 340.533 143.567 340.6 142.9L340.9 142.2M356.7 146.2L356.4 147C356.133 147.667 355.6 147.9 354.8 147.7L348.3 145.7L350 140.1C352.333 140.7 354.533 141.333 356.6 142C357.3 142.3 357.6 143.5 357.3 144" fill="#006233" style="fill:#006233;fill:color(display-p3 0.0000 0.3843 0.2000);fill-opacity:1;"/>
<path id="Vector_82" d="M370.2 149.1L370.9 148.1C371.5 147.3 372.3 147.067 373.3 147.4C375.3 148.5 378 149.8 380.4 151.2L375.7 158.1C373.329 156.778 370.892 155.577 368.4 154.5C367.6 153.9 367.433 153.2 367.9 152.4L368.6 151.4M385.4 160.9L384.6 161.9C384.326 162.195 383.97 162.401 383.577 162.49C383.185 162.579 382.774 162.548 382.4 162.4L375.7 158.1L380.4 151.2C382.867 152.533 385.133 153.933 387.2 155.4C387.9 156 387.6 157.6 387.1 158.4" fill="#F7C608" style="fill:#F7C608;fill:color(display-p3 0.9686 0.7765 0.0314);fill-opacity:1;"/>
<path id="Vector_83" d="M371.5 150.2L372 149.4C372.4 148.933 373.033 148.8 373.9 149C375.633 149.933 377.567 151 379.7 152.2L376.3 157.2L370.3 154.1C369.633 153.7 369.5 153.167 369.9 152.5L370.3 151.8M384.3 159.7L383.7 160.5C383.3 161.033 382.7 161.1 381.9 160.7L376.3 157.1L379.7 152.2L385.4 155.6C386 156.2 385.9 157.3 385.5 157.9" fill="#006233" style="fill:#006233;fill:color(display-p3 0.0000 0.3843 0.2000);fill-opacity:1;"/>
<path id="Vector_84" d="M396.3 166L397.3 165.1C398.1 164.567 398.933 164.567 399.8 165.1L405.4 170.6L398.8 175.9C396.961 174.033 395.025 172.264 393 170.6C392.333 169.933 392.367 169.267 393.1 168.6L394 167.8M407.2 181.1L406.2 182C405.833 182.232 405.4 182.338 404.967 182.302C404.533 182.266 404.124 182.089 403.8 181.8C402.24 179.745 400.571 177.776 398.8 175.9L405.5 170.6C407.367 172.6 409.1 174.5 410.7 176.3C411.1 177.1 410.4 178.6 409.7 179.1" fill="#F7C608" style="fill:#F7C608;fill:color(display-p3 0.9686 0.7765 0.0314);fill-opacity:1;"/>
<path id="Vector_85" d="M397.2 167.3L397.9 166.7C398.433 166.367 399.1 166.4 399.9 166.8C401.233 168.2 402.767 169.733 404.5 171.4L399.7 175.2L394.9 170.7C394.367 170.1 394.367 169.567 394.9 169.1L395.6 168.6M406.6 179.6L405.8 180.3C405.2 180.7 404.6 180.633 404 180.1L399.7 175.2L404.5 171.4L408.9 176.1C409.3 176.8 408.8 177.9 408.3 178.3" fill="#006233" style="fill:#006233;fill:color(display-p3 0.0000 0.3843 0.2000);fill-opacity:1;"/>
<path id="Vector_86" d="M416.1 188.9L417.4 188.3C418.333 188.033 419.133 188.267 419.8 189L423.5 195.6L415.4 199.1C414.067 196.433 412.733 194.233 411.4 192.5C411.067 191.633 411.367 190.967 412.3 190.5L413.3 190M421.9 206.2L420.6 206.7C419.8 207.1 418.8 206.7 418.5 206C417.593 203.613 416.558 201.276 415.4 199L423.4 195.6L426.7 202.5C426.9 203.4 425.7 204.5 424.9 204.9" fill="#F7C608" style="fill:#F7C608;fill:color(display-p3 0.9686 0.7765 0.0314);fill-opacity:1;"/>
<path id="Vector_87" d="M416.6 190.4L417.5 190C418.167 189.733 418.767 189.933 419.3 190.6L422.3 196.1L416.5 198.6L413.3 193.1C413.033 192.433 413.2 191.9 413.8 191.5L414.6 191.2M421.6 204.7L420.8 205C420.133 205.267 419.567 205.067 419.1 204.4C418.433 202.667 417.567 200.733 416.5 198.6L422.3 196.1L425.1 201.8C425.2 202.6 424.4 203.5 423.8 203.8" fill="#006233" style="fill:#006233;fill:color(display-p3 0.0000 0.3843 0.2000);fill-opacity:1;"/>
<path id="Vector_88" d="M428 215.9L429.4 215.7C429.833 215.643 430.273 215.73 430.652 215.947C431.031 216.163 431.329 216.498 431.5 216.9L433 224.2L424.2 225.5C423.774 223.036 423.207 220.599 422.5 218.2C422.433 217.267 422.9 216.7 423.9 216.5L425 216.3M428.2 234L426.8 234.2C425.8 234.267 425.2 233.833 425 232.9L424.2 225.5L433 224.2C433.4 226.8 433.733 229.3 434 231.7C434 232.6 432.4 233.4 431.5 233.5" fill="#F7C608" style="fill:#F7C608;fill:color(display-p3 0.9686 0.7765 0.0314);fill-opacity:1;"/>
<path id="Vector_89" d="M428 217.4L429 217.3C429.733 217.3 430.233 217.633 430.5 218.3C430.9 220.167 431.3 222.2 431.7 224.4L425.4 225.4L424.1 219.2C423.967 218.4 424.3 217.967 425.1 217.9L425.9 217.7M428.5 232.4L427.5 232.6C426.767 232.6 426.3 232.267 426.1 231.6L425.4 225.3L431.7 224.4C432.167 226.6 432.467 228.667 432.6 230.6C432.6 231.3 431.5 232 430.8 232.1" fill="#006233" style="fill:#006233;fill:color(display-p3 0.0000 0.3843 0.2000);fill-opacity:1;"/>
<path id="Vector_90" d="M431.1 244.9L432.5 245C433.5 245.2 434.067 245.8 434.2 246.8L433.3 254.2L424.5 253.1C424.9 250.4 425.1 247.6 425.1 245.6C425.2 244.8 426.1 244.2 427 244.4L428.1 244.5M425.7 262.3L424.3 262.1C423.3 261.967 422.833 261.4 422.9 260.4C423.567 258.333 424.1 255.9 424.5 253.1L433.3 254.1C432.9 256.767 432.467 259.233 432 261.5C431.6 262.4 429.9 262.8 429 262.7" fill="#F7C608" style="fill:#F7C608;fill:color(display-p3 0.9686 0.7765 0.0314);fill-opacity:1;"/>
<path id="Vector_91" d="M430.6 246.4H431.6C432.267 246.667 432.667 247.167 432.8 247.9L432 254.1L425.7 253.3L426.3 247.1C426.367 246.367 426.8 246 427.6 246H428.5M426.5 260.9L425.5 260.8C424.767 260.667 424.433 260.2 424.5 259.4C424.967 257.6 425.367 255.567 425.7 253.3L432 254.1L431 260.1C430.7 260.9 429.4 261.3 428.8 261.1" fill="#006233" style="fill:#006233;fill:color(display-p3 0.0000 0.3843 0.2000);fill-opacity:1;"/>
<path id="Vector_92" d="M425.1 273.5L426.4 274C427.267 274.467 427.6 275.133 427.4 276L424.4 283L416.2 279.7C417.334 277.426 418.336 275.089 419.2 272.7C419.6 271.9 420.267 271.633 421.2 271.9L422.4 272.3M414.5 288.8L413.3 288.3C412.367 287.833 412.067 287.167 412.4 286.3C413.667 284.433 414.933 282.233 416.2 279.7L424.3 283L420.8 289.7C420.2 290.4 418.4 290.4 417.5 290" fill="#F7C608" style="fill:#F7C608;fill:color(display-p3 0.9686 0.7765 0.0314);fill-opacity:1;"/>
<path id="Vector_93" d="M424.2 274.8L425.2 275.1C425.667 275.433 425.867 276 425.8 276.8L423.2 282.5L417.3 280.2L419.8 274.4C420.2 273.733 420.733 273.467 421.4 273.6L422.2 274M415.7 287.6L414.7 287.3C414.033 286.9 413.9 286.367 414.3 285.7L417.3 280.2L423.2 282.5L420.2 288.1C419.7 288.7 418.4 288.8 417.8 288.5" fill="#006233" style="fill:#006233;fill:color(display-p3 0.0000 0.3843 0.2000);fill-opacity:1;"/>
<path id="Vector_94" d="M410.5 299.4L411.6 300.2C412.267 300.867 412.4 301.633 412 302.5C410.4 304.1 408.6 306.3 406.8 308.3L400 303C402 301 403.8 298.7 405 297C405.667 296.4 406.433 296.367 407.3 296.9L408.2 297.6M395.6 311.4L394.6 310.6C393.8 309.933 393.7 309.233 394.3 308.5C396.033 307.033 397.933 305.2 400 303L406.8 308.3L401.3 313.9C400.5 314.4 398.8 313.9 398.1 313.3" fill="#F7C608" style="fill:#F7C608;fill:color(display-p3 0.9686 0.7765 0.0314);fill-opacity:1;"/>
<path id="Vector_95" d="M409.2 300.4L410 301C410.467 301.4 410.5 301.967 410.1 302.7L405.8 307.5L400.9 303.8C402.633 301.933 404.033 300.267 405.1 298.8C405.7 298.267 406.3 298.2 406.9 298.6L407.5 299.1M397.1 310.6L396.3 310C395.767 309.533 395.767 308.967 396.3 308.3L400.9 303.8L405.9 307.5C404.3 309.233 402.733 310.8 401.2 312.2C400.6 312.6 399.4 312.3 398.8 311.9" fill="#006233" style="fill:#006233;fill:color(display-p3 0.0000 0.3843 0.2000);fill-opacity:1;"/>
<path id="Vector_96" d="M388.5 320.5L389.2 321.5C389.667 322.367 389.567 323.133 388.9 323.8L382.2 328.1L377.2 321.3C379.507 319.949 381.744 318.48 383.9 316.9C384.265 316.74 384.669 316.692 385.061 316.764C385.453 316.835 385.815 317.022 386.1 317.3L386.8 318.2M370.4 328.2L369.7 327.2C369.167 326.333 369.3 325.6 370.1 325L377.3 321.3L382.1 328.1L375.1 332.1C374.2 332.3 372.8 331.4 372.2 330.7" fill="#F7C608" style="fill:#F7C608;fill:color(display-p3 0.9686 0.7765 0.0314);fill-opacity:1;"/>
<path id="Vector_97" d="M386.9 321.1L387.4 321.9C387.733 322.433 387.6 323 387 323.6L381.4 327.1L377.9 322.3L383.5 318.6C384.167 318.2 384.733 318.267 385.2 318.8L385.7 319.5M372.1 327.8L371.5 327C371.233 326.4 371.4 325.867 372 325.4L378 322.3L381.4 327.1C379.4 328.367 377.467 329.467 375.6 330.4C374.9 330.7 373.7 330.1 373.4 329.6" fill="#006233" style="fill:#006233;fill:color(display-p3 0.0000 0.3843 0.2000);fill-opacity:1;"/>
<path id="Vector_98" d="M360.8 335.1L361.2 336.3C361.4 337.233 361.067 337.9 360.2 338.3L352.4 340.8L349.8 333C352.412 332.273 354.982 331.405 357.5 330.4C358.5 330.267 359.167 330.6 359.5 331.4L359.9 332.4M341.1 337.9L340.7 336.6C340.5 335.667 340.833 335.067 341.7 334.8C344.1 334.4 346.767 333.8 349.7 333L352.4 340.8C349.733 341.533 347.067 342.2 344.4 342.8C343.4 342.8 342.4 341.5 342.1 340.8" fill="#F7C608" style="fill:#F7C608;fill:color(display-p3 0.9686 0.7765 0.0314);fill-opacity:1;"/>
<path id="Vector_99" d="M359 335.3L359.4 336.2C359.533 336.867 359.2 337.367 358.4 337.7L352 339.7L350.1 334.1L356.5 332.1C357.367 331.833 357.933 332.033 358.2 332.7L358.4 333.4M342.8 337.9L342.5 337C342.367 336.333 342.7 335.867 343.5 335.6L350.1 334.1L352 339.7L345.4 341.3C344.6 341.3 343.7 340.5 343.4 339.9" fill="#006233" style="fill:#006233;fill:color(display-p3 0.0000 0.3843 0.2000);fill-opacity:1;"/>
<path id="Vector_100" d="M329.7 342V343.3C329.633 344.233 329.1 344.8 328.1 345C325.7 345 322.7 345.3 319.9 345.3L319.8 337.2C322.54 337.17 325.277 337.004 328 336.7C329.067 336.7 329.6 337.2 329.6 338.2V339.2M310 339.6V338.4C310 337.467 310.533 336.967 311.6 336.9C313.933 337.033 316.667 337.133 319.8 337.2V345.3L311.6 345.2C310.7 345 310 343.5 310 342.6" fill="#F7C608" style="fill:#F7C608;fill:color(display-p3 0.9686 0.7765 0.0314);fill-opacity:1;"/>
<path id="Vector_101" d="M328 341.8V342.7C327.933 343.3 327.467 343.7 326.6 343.9L319.8 344.1V338.4C322.467 338.333 324.733 338.2 326.6 338C327.4 338 327.867 338.333 328 339V339.8M311.6 340.1V339.1C311.6 338.5 312.033 338.167 312.9 338.1C314.9 338.3 317.2 338.367 319.8 338.3V344.1H313C312.2 343.9 311.6 342.8 311.6 342.2" fill="#006233" style="fill:#006233;fill:color(display-p3 0.0000 0.3843 0.2000);fill-opacity:1;"/>
</g>
<defs>
<clipPath id="clip0_2194_385">
<rect width="640" height="480" fill="white" style="fill:white;fill-opacity:1;"/>
</clipPath>
</defs>
</svg>
