<svg width="640" height="480" viewBox="0 0 640 480" fill="none" xmlns="http://www.w3.org/2000/svg">
<g id="asean" clip-path="url(#clip0_2194_564)">
<path id="Vector" d="M0 0H640V480H0V0Z" fill="#0039A6" style="fill:#0039A6;fill:color(display-p3 0.0000 0.2235 0.6510);fill-opacity:1;"/>
<path id="Vector_2" d="M320 384C399.529 384 464 319.529 464 240C464 160.471 399.529 96 320 96C240.471 96 176 160.471 176 240C176 319.529 240.471 384 320 384Z" fill="white" style="fill:white;fill-opacity:1;"/>
<path id="Vector_3" d="M320 377.3C395.829 377.3 457.3 315.829 457.3 240C457.3 164.171 395.829 102.7 320 102.7C244.171 102.7 182.7 164.171 182.7 240C182.7 315.829 244.171 377.3 320 377.3Z" fill="#ED2939" style="fill:#ED2939;fill:color(display-p3 0.9294 0.1608 0.2235);fill-opacity:1;"/>
<g id="asean-a">
<path id="Vector_4" d="M283.04 240C259.04 225.6 248 196.8 248 168H259.04V168.96C259.04 178.56 260.48 213.6 286.88 240C269.071 259.383 259.142 284.718 259.04 311.04V312H248C248 283.2 259.52 254.4 283.04 240Z" fill="#F9E300" style="fill:#F9E300;fill:color(display-p3 0.9765 0.8902 0.0000);fill-opacity:1;"/>
<path id="Vector_5" d="M262.4 168.96V168H273.92V169.44C273.92 179.04 275.84 212.64 294.56 240C275.36 267.36 273.92 300.96 273.92 310.56V312H262.4V311.04C262.4 301.44 264.8 266.4 290.24 240C272.431 220.617 262.502 195.282 262.4 168.96Z" fill="#F9E300" style="fill:#F9E300;fill:color(display-p3 0.9765 0.8902 0.0000);fill-opacity:1;"/>
<path id="Vector_6" d="M298.88 240L297.92 239.04C284.719 218.229 277.726 194.085 277.76 169.44V168H288.32V169.92C288.32 180 289.76 212.16 302.72 240C293.341 262.18 288.447 285.998 288.32 310.08V312H277.76V310.56C277.76 300.96 278.72 270.72 297.92 240.96" fill="#F9E300" style="fill:#F9E300;fill:color(display-p3 0.9765 0.8902 0.0000);fill-opacity:1;"/>
<path id="Vector_7" d="M306.56 240C296.797 217.265 291.892 192.741 292.16 168H303.2V171.36C303.2 183.36 304.16 212.64 310.4 240C305.65 262.572 303.238 285.574 303.2 308.64V312H292.64V310.08C292.64 300 293.6 266.88 306.08 240.48" fill="#F9E300" style="fill:#F9E300;fill:color(display-p3 0.9765 0.8902 0.0000);fill-opacity:1;"/>
<path id="Vector_8" d="M314.24 240C309.617 217.416 307.365 194.412 307.52 171.36V168H318.08V312H307.52V308.64C307.52 297.12 307.52 267.36 314.24 240.48" fill="#F9E300" style="fill:#F9E300;fill:color(display-p3 0.9765 0.8902 0.0000);fill-opacity:1;"/>
</g>
<g id="asean-a_2">
<path id="Vector_9" d="M356.96 240C380.96 225.6 392 196.8 392 168H380.96V168.96C380.96 178.56 379.52 213.6 353.12 240C370.929 259.383 380.858 284.718 380.96 311.04V312H392C392 283.2 380.48 254.4 356.96 240Z" fill="#F9E300" style="fill:#F9E300;fill:color(display-p3 0.9765 0.8902 0.0000);fill-opacity:1;"/>
<path id="Vector_10" d="M377.6 168.96V168H366.08V169.44C366.08 179.04 364.16 212.64 345.44 240C364.64 267.36 366.08 300.96 366.08 310.56V312H377.6V311.04C377.6 301.44 375.2 266.4 349.76 240C367.569 220.617 377.498 195.282 377.6 168.96Z" fill="#F9E300" style="fill:#F9E300;fill:color(display-p3 0.9765 0.8902 0.0000);fill-opacity:1;"/>
<path id="Vector_11" d="M341.12 240L342.08 239.04C355.281 218.229 362.274 194.085 362.24 169.44V168H351.68V169.92C351.68 180 350.24 212.16 337.28 240C346.659 262.18 351.553 285.998 351.68 310.08V312H362.24V310.56C362.24 300.96 361.28 270.72 342.08 240.96" fill="#F9E300" style="fill:#F9E300;fill:color(display-p3 0.9765 0.8902 0.0000);fill-opacity:1;"/>
<path id="Vector_12" d="M333.44 240C343.203 217.265 348.108 192.741 347.84 168H336.8V171.36C336.8 183.36 335.84 212.64 329.6 240C334.35 262.572 336.762 285.574 336.8 308.64V312H347.36V310.08C347.36 300 346.4 266.88 333.92 240.48" fill="#F9E300" style="fill:#F9E300;fill:color(display-p3 0.9765 0.8902 0.0000);fill-opacity:1;"/>
<path id="Vector_13" d="M325.76 240C330.383 217.416 332.635 194.412 332.48 171.36V168H321.92V312H332.48V308.64C332.48 297.12 332.48 267.36 325.76 240.48" fill="#F9E300" style="fill:#F9E300;fill:color(display-p3 0.9765 0.8902 0.0000);fill-opacity:1;"/>
</g>
</g>
<defs>
<clipPath id="clip0_2194_564">
<rect width="640" height="480" fill="white" style="fill:white;fill-opacity:1;"/>
</clipPath>
</defs>
</svg>
