<svg width="640" height="480" viewBox="0 0 640 480" fill="none" xmlns="http://www.w3.org/2000/svg">
<g id="az" clip-path="url(#clip0_2194_796)">
<path id="Vector" d="M0.100098 0H640.1V480H0.100098V0Z" fill="#3F9C35" style="fill:#3F9C35;fill:color(display-p3 0.2471 0.6118 0.2078);fill-opacity:1;"/>
<path id="Vector_2" d="M0.100098 0H640.1V320H0.100098V0Z" fill="#ED2939" style="fill:#ED2939;fill:color(display-p3 0.9294 0.1608 0.2235);fill-opacity:1;"/>
<path id="Vector_3" d="M0.100098 0H640.1V160H0.100098V0Z" fill="#00B9E4" style="fill:#00B9E4;fill:color(display-p3 0.0000 0.7255 0.8941);fill-opacity:1;"/>
<path id="Vector_4" d="M304 312C343.765 312 376 279.765 376 240C376 200.235 343.765 168 304 168C264.235 168 232 200.235 232 240C232 279.765 264.235 312 304 312Z" fill="white" style="fill:white;fill-opacity:1;"/>
<path id="Vector_5" d="M320 300C353.137 300 380 273.137 380 240C380 206.863 353.137 180 320 180C286.863 180 260 206.863 260 240C260 273.137 286.863 300 320 300Z" fill="#ED2939" style="fill:#ED2939;fill:color(display-p3 0.9294 0.1608 0.2235);fill-opacity:1;"/>
<path id="Vector_6" d="M384 200L391.7 221.5L412.3 211.7L402.5 232.4L424 240L402.5 247.7L412.3 268.3L391.7 258.5L384 280L376.3 258.5L355.7 268.3L365.5 247.7L344 240L365.5 232.3L355.7 211.7L376.3 221.5L384 200Z" fill="white" style="fill:white;fill-opacity:1;"/>
</g>
<defs>
<clipPath id="clip0_2194_796">
<rect width="640" height="480" fill="white" style="fill:white;fill-opacity:1;"/>
</clipPath>
</defs>
</svg>
