<svg width="640" height="480" viewBox="0 0 640 480" fill="none" xmlns="http://www.w3.org/2000/svg">
<g id="ba" clip-path="url(#clip0_2194_803)">
<g id="Clip path group">
<mask id="mask0_2194_803" style="mask-type:luminance" maskUnits="userSpaceOnUse" x="0" y="0" width="640" height="480">
<g id="ba-a">
<path id="Vector" d="M0.03125 0H639.969V480H0.03125V0Z" fill="white" style="fill:white;fill-opacity:1;"/>
</g>
</mask>
<g mask="url(#mask0_2194_803)">
<g id="Group">
<path id="Vector_2" fill-rule="evenodd" clip-rule="evenodd" d="M0.03125 0H639.969V480H0.03125V0Z" fill="#000099" style="fill:#000099;fill:color(display-p3 0.0000 0.0000 0.6000);fill-opacity:1;"/>
<path id="Vector_3" fill-rule="evenodd" clip-rule="evenodd" d="M132.969 0L612.031 480.281V0.28125L132.969 0Z" fill="#FFCC00" style="fill:#FFCC00;fill:color(display-p3 1.0000 0.8000 0.0000);fill-opacity:1;"/>
<path id="Vector_4" fill-rule="evenodd" clip-rule="evenodd" d="M492.406 451.406L466.25 432.375L439.437 451.313L449.563 420.188L423.125 400.969H455.938L466.062 369.844L476.094 401.063H508.906L482.656 420.469L492.406 451.406ZM568.625 461.156L535.813 461.062L525.781 429.844L515.656 460.969H482.844L509.281 480.188L499.156 511.313L525.969 492.375L552.219 511.406L542.375 480.469L568.625 461.156ZM422.75 360.656L449 341.25L416.188 341.156L406.156 310.031L396.031 341.156L363.219 341.063L389.656 360.281L379.531 391.5L406.344 372.469L432.594 391.594L422.75 360.656ZM362.469 300.188L388.719 280.875L355.906 280.781L345.875 249.563L335.656 280.688H302.937L329.375 299.906L319.25 331.031L346.062 312.094L372.219 331.125L362.469 300.188ZM302.75 240.563L329 221.156H296.188L286.25 189.844L276.125 220.969H243.313L269.75 240.094L259.625 271.313L286.438 252.281L312.688 271.406L302.844 240.469L302.75 240.563ZM242.375 180.281L268.625 160.969L235.812 160.875L225.781 129.656L215.563 160.781H182.844L209.375 180L199.25 211.125L226.063 192.188L252.219 211.219L242.469 180.281H242.375ZM182.75 120.375L208.906 100.969H176.094L166.156 69.6563L155.938 100.875H123.125L149.75 120L139.531 151.125L166.344 132.188L192.406 151.313L182.75 120.375ZM122.75 60.375L148.906 40.9688H116.094L106.156 9.65625L95.9375 40.875H63.125L89.75 60L79.4375 91.2188L106.344 72.1875L132.406 91.3125L122.75 60.375ZM62.75 0.375003L88.8125 -19.0312H56L45.9688 -50.25L35.9375 -19.125H3.125L29.6562 1.7643e-06L19.5312 31.125L46.3437 12.1875L72.4063 31.3125L62.75 0.375003Z" fill="white" style="fill:white;fill-opacity:1;"/>
</g>
</g>
</g>
</g>
<defs>
<clipPath id="clip0_2194_803">
<rect width="640" height="480" fill="white" style="fill:white;fill-opacity:1;"/>
</clipPath>
</defs>
</svg>
