<svg width="640" height="480" viewBox="0 0 640 480" fill="none" xmlns="http://www.w3.org/2000/svg">
<g id="bb" clip-path="url(#clip0_2194_769)">
<path id="Vector" d="M0 0H640V480H0V0Z" fill="#00267F" style="fill:#00267F;fill:color(display-p3 0.0000 0.1490 0.4980);fill-opacity:1;"/>
<path id="Vector_2" d="M213.3 0H426.7V480H213.3V0Z" fill="#FFC726" style="fill:#FFC726;fill:color(display-p3 1.0000 0.7804 0.1490);fill-opacity:1;"/>
<path id="bb-a" d="M319.8 135.5C312.8 154.5 305.8 174.1 290.6 189.2C295.3 187.6 303.6 186.2 308.8 186.4V265.9L286.4 269.2C285.6 269.2 285.4 267.9 285.4 266.2C283.2 241.5 277.4 220.7 270.6 199.2C270.1 196.3 261.6 185.2 268.2 187.2C269 187.2 277.7 190.8 276.4 189.1C263.836 176.428 247.602 168.031 230 165.1C228.5 164.8 227.6 165.6 229 167.3C251.4 201.9 270.3 242.8 270.1 291.3C278.9 291.3 300.1 286.1 308.8 286.1V342.2H320L322.5 185.5L319.8 135.5Z" fill="#000001" style="fill:#000001;fill:color(display-p3 0.0000 0.0000 0.0039);fill-opacity:1;"/>
<path id="bb-a_2" d="M319.7 135.5C326.7 154.5 333.7 174.1 348.9 189.2C344.2 187.6 335.9 186.2 330.7 186.4V265.9L353.1 269.2C353.9 269.2 354.1 267.9 354.1 266.2C356.3 241.5 362.1 220.7 368.9 199.2C369.4 196.3 377.9 185.2 371.3 187.2C370.5 187.2 361.8 190.8 363.1 189.1C375.664 176.428 391.898 168.031 409.5 165.1C411 164.8 411.9 165.6 410.5 167.3C388.1 201.9 369.2 242.8 369.4 291.3C360.6 291.3 339.4 286.1 330.7 286.1V342.2H319.5L317 185.5L319.7 135.5Z" fill="#000001" style="fill:#000001;fill:color(display-p3 0.0000 0.0000 0.0039);fill-opacity:1;"/>
</g>
<defs>
<clipPath id="clip0_2194_769">
<rect width="640" height="480" fill="white" style="fill:white;fill-opacity:1;"/>
</clipPath>
</defs>
</svg>
