<svg width="640" height="480" viewBox="0 0 640 480" fill="none" xmlns="http://www.w3.org/2000/svg">
<g id="bn" clip-path="url(#clip0_2194_941)">
<path id="Vector" d="M0 0H640V480H0V0Z" fill="#F7E017" style="fill:#F7E017;fill:color(display-p3 0.9686 0.8784 0.0902);fill-opacity:1;"/>
<path id="Vector_2" d="M0 33.3V246.7L640 346.7V233.3L0 33.3Z" fill="white" style="fill:white;fill-opacity:1;"/>
<path id="Vector_3" d="M0 146.7V246.7L640 446.7V346.7L0 146.7Z" fill="#000001" style="fill:#000001;fill:color(display-p3 0.0000 0.0000 0.0039);fill-opacity:1;"/>
<g id="Group">
<path id="Vector_4" d="M303.802 379.802C292.1 378.514 280.841 374.594 270.869 368.335C269.269 367.268 267.802 366.335 267.535 366.335C267.269 366.335 267.135 367.602 267.135 369.068C267.135 373.335 265.402 375.468 261.135 376.602C257.002 377.668 250.735 375.535 245.669 371.268C240.868 367.153 235.258 364.087 229.202 362.268C222.895 360.773 216.259 361.626 210.535 364.668C209.967 365.063 209.336 365.356 208.668 365.535C207.935 365.535 208.002 360.935 208.802 359.535C209.802 357.535 212.202 355.668 215.069 354.668C216.535 354.135 217.735 353.468 217.735 353.135C217.735 352.802 217.202 351.802 216.602 350.735C214.691 347.224 215.446 344.135 218.869 341.468C222.335 338.802 228.202 338.402 233.335 340.335L236.002 341.268C236.669 341.268 236.269 340.268 234.402 337.535C232.269 334.402 231.802 332.868 232.069 329.068C232.29 326.756 233.31 324.594 234.952 322.951C236.594 321.309 238.757 320.29 241.069 320.068C244.935 319.801 247.335 321.135 253.069 326.535C268.467 342.034 288.692 351.817 310.402 354.268C315.936 354.935 326.936 354.602 333.402 353.602C353.888 350.184 372.882 340.71 387.936 326.402C392.203 322.402 394.203 321.335 397.736 321.335C400.736 321.335 402.869 322.268 405.069 324.668C407.069 326.868 407.736 328.935 407.47 332.335C407.336 334.468 407.003 335.468 405.736 337.602C403.869 340.602 404.203 340.935 407.869 339.468C412.936 337.468 419.136 338.402 422.47 341.602C425.403 344.402 425.67 347.202 423.403 350.935C422.536 352.335 421.87 353.602 421.87 353.868C421.87 354.268 422.536 354.402 425.536 354.935C429.536 355.602 431.87 358.535 431.87 363.068C431.87 364.402 431.67 365.535 431.47 365.535C431.27 365.535 429.736 364.935 428.136 364.268C423.47 362.335 420.803 361.868 415.336 361.935C411.203 361.935 409.803 362.135 406.936 363.068C402.141 364.745 397.724 367.35 393.936 370.735C389.669 374.535 387.003 375.735 382.869 375.668C379.003 375.668 376.38 374.557 375.003 372.335C374.269 371.135 374.136 370.468 374.336 367.802C374.469 366.068 374.403 364.668 374.336 364.668C374.136 364.668 372.669 365.602 371.003 366.735C367.195 369.46 363.049 371.679 358.669 373.335C341.121 379.681 322.345 381.894 303.802 379.802Z" fill="#CF1126" style="fill:#CF1126;fill:color(display-p3 0.8118 0.0667 0.1490);fill-opacity:1;"/>
<path id="Vector_5" d="M310.869 350.135C297.969 348.967 285.469 345.048 274.21 338.642C262.952 332.237 253.197 323.494 245.602 313.001C229.335 290.868 224.268 261.601 229.202 234.868C231.868 222.668 237.202 210.468 246.202 201.801C238.802 217.204 236.761 234.638 240.402 251.334C246.402 284.535 274.402 312.601 307.936 317.468C321.269 321.268 334.936 317.201 347.602 313.135C375.603 303.268 396.936 276.735 399.469 247.068C401.669 231.068 399.269 214.334 392.003 199.734C396.136 201.934 401.336 210.534 404.403 216.268C415.069 236.934 415.536 261.668 409.269 283.735C400.736 311.801 379.269 336.401 350.936 345.335C338.008 349.369 324.45 350.996 310.936 350.135H310.869Z" fill="#CF1126" style="fill:#CF1126;fill:color(display-p3 0.8118 0.0667 0.1490);fill-opacity:1;"/>
<g id="bn-a">
<path id="Vector_6" d="M181.335 313.268C179.668 313.001 177.802 314.668 178.468 316.401C179.668 318.135 181.802 319.068 183.668 319.868C188.585 321.793 193.866 322.612 199.135 322.268C203 322.263 206.835 321.587 210.468 320.268C212.468 319.601 215.002 318.935 215.802 316.668C216.668 315.268 215.135 313.801 213.735 314.068C211.735 314.535 209.735 315.401 207.735 316.001C203.338 317.242 198.756 317.693 194.202 317.335C190.887 316.852 187.656 315.91 184.602 314.535C183.535 314.068 182.535 313.401 181.335 313.268Z" fill="#CF1126" style="fill:#CF1126;fill:color(display-p3 0.8118 0.0667 0.1490);fill-opacity:1;"/>
<path id="Vector_7" d="M183.202 306.335C181.535 306.068 180.068 308.068 180.735 309.668C182.068 311.535 184.268 312.535 186.335 313.401C189.938 314.823 193.797 315.481 197.668 315.335H198.668C201.959 315.342 205.22 314.708 208.268 313.468C210.068 312.735 212.335 312.001 213.135 310.001C213.735 308.868 213.268 307.268 211.802 307.135C210.602 307.135 209.468 307.935 208.268 308.268C203.928 310.069 199.218 310.801 194.535 310.401C191.602 310.068 188.868 309.001 186.202 307.735C185.202 307.268 184.335 306.535 183.202 306.401V306.335Z" fill="#CF1126" style="fill:#CF1126;fill:color(display-p3 0.8118 0.0667 0.1490);fill-opacity:1;"/>
<path id="Vector_8" d="M185.535 299.735C184.068 299.535 183.068 301.201 183.335 302.468C183.535 303.668 184.535 304.468 185.402 305.135C189.032 307.649 193.392 308.891 197.802 308.668H198.868C201.641 308.648 204.374 308.01 206.869 306.801C208.535 306.135 210.469 305.268 211.069 303.335C211.335 302.468 211.469 301.201 210.469 300.668C209.402 300.135 208.402 301.001 207.469 301.335C204.28 303.01 200.737 303.901 197.135 303.935C194.043 303.811 191.035 302.893 188.402 301.268C187.402 300.801 186.602 299.935 185.535 299.735Z" fill="#CF1126" style="fill:#CF1126;fill:color(display-p3 0.8118 0.0667 0.1490);fill-opacity:1;"/>
<path id="Vector_9" d="M161.002 201.801C158.868 204.001 160.535 208.001 160.335 210.801C161.535 219.601 162.935 228.468 166.202 236.801C170.202 244.801 178.735 249.134 183.868 256.268C185.735 259.668 185.068 263.801 185.468 267.601C185.691 277.823 185.691 288.046 185.468 298.268C190.135 300.668 195.135 302.935 200.468 302.068C203.602 301.335 209.468 300.868 210.135 297.735L209.468 244.734C207.668 239.334 202.135 236.534 198.068 233.068C194.67 229.711 191.507 226.125 188.602 222.334C186.868 219.334 180.002 218.334 182.468 223.401C183.935 227.868 187.602 231.134 188.535 235.801C188.735 238.401 191.868 243.134 189.202 244.601C187.543 241.716 185.058 239.395 182.068 237.934C179.135 235.734 174.268 234.801 173.202 230.934C172.237 225.436 169.689 220.338 165.868 216.268C166.868 211.334 165.868 205.134 161.602 201.934L161.002 201.801Z" fill="#CF1126" style="fill:#CF1126;fill:color(display-p3 0.8118 0.0667 0.1490);fill-opacity:1;"/>
<path id="Vector_10" d="M167.602 202.801C165.602 203.134 165.735 205.601 166.602 206.934C167.595 209.802 167.848 212.876 167.335 215.867C170.994 219.936 173.442 224.947 174.402 230.334C174.402 232.334 176.535 233.001 177.935 234.001C181.202 236.068 184.802 237.601 187.735 240.201C188.335 240.868 188.802 241.534 188.402 240.201C187.935 238.468 187.735 236.601 186.402 235.334C184.535 233.334 182.268 231.601 179.602 231.068C179.402 228.268 178.068 225.734 176.868 223.334C175.535 221.001 174.135 218.534 171.868 217.068C171.868 213.001 171.868 208.734 170.135 204.934C169.602 204.001 168.802 202.867 167.602 202.801Z" fill="#CF1126" style="fill:#CF1126;fill:color(display-p3 0.8118 0.0667 0.1490);fill-opacity:1;"/>
<path id="Vector_11" d="M173.135 204.401C171.802 204.801 172.068 206.534 172.468 207.534C173.05 210.429 173.274 213.385 173.135 216.334C175.735 218.334 177.268 221.268 178.735 224.068C179.713 225.934 180.402 227.912 180.802 230.001C182.868 230.668 184.668 232.001 186.268 233.334C185.602 231.468 184.268 230.001 183.268 228.201C182.268 226.401 181.268 224.468 180.802 222.401C178.802 220.334 177.735 217.334 178.135 214.401C178.268 211.268 177.268 208.001 175.135 205.601C174.602 205.068 173.935 204.468 173.135 204.401Z" fill="#CF1126" style="fill:#CF1126;fill:color(display-p3 0.8118 0.0667 0.1490);fill-opacity:1;"/>
<path id="Vector_12" d="M179.468 205.334C178.668 205.467 178.268 206.134 177.868 206.734C177.668 207.334 178.402 207.934 178.535 208.601C179.401 210.803 179.721 213.182 179.468 215.534C179.468 217.268 179.913 218.823 180.802 220.201C180.96 219.692 181.266 219.243 181.682 218.91C182.098 218.577 182.604 218.377 183.135 218.334C183.468 218.334 184.068 218.468 183.802 217.868C183.624 214.623 183.002 211.512 181.935 208.534C181.594 207.384 180.949 206.348 180.068 205.534C179.891 205.356 179.668 205.29 179.402 205.334H179.468Z" fill="#CF1126" style="fill:#CF1126;fill:color(display-p3 0.8118 0.0667 0.1490);fill-opacity:1;"/>
</g>
<g id="bn-a_2">
<path id="Vector_13" d="M458.67 313.268C460.336 313.001 462.203 314.668 461.536 316.401C460.336 318.135 458.203 319.068 456.336 319.868C451.419 321.793 446.139 322.612 440.87 322.268C437.005 322.263 433.17 321.587 429.536 320.268C427.536 319.601 425.003 318.935 424.203 316.668C423.336 315.268 424.87 313.801 426.27 314.068C428.27 314.535 430.27 315.401 432.27 316.001C436.667 317.242 441.249 317.693 445.803 317.335C449.118 316.852 452.349 315.91 455.403 314.535C456.47 314.068 457.47 313.401 458.67 313.268Z" fill="#CF1126" style="fill:#CF1126;fill:color(display-p3 0.8118 0.0667 0.1490);fill-opacity:1;"/>
<path id="Vector_14" d="M456.803 306.335C458.47 306.068 459.936 308.068 459.27 309.668C457.936 311.535 455.736 312.535 453.67 313.401C450.066 314.823 446.207 315.481 442.336 315.335H441.336C438.045 315.342 434.785 314.708 431.736 313.468C429.936 312.735 427.67 312.001 426.87 310.001C426.27 308.868 426.736 307.268 428.203 307.135C429.403 307.135 430.536 307.935 431.736 308.268C436.077 310.069 440.787 310.801 445.47 310.401C448.403 310.068 451.136 309.001 453.803 307.735C454.803 307.268 455.67 306.535 456.803 306.401V306.335Z" fill="#CF1126" style="fill:#CF1126;fill:color(display-p3 0.8118 0.0667 0.1490);fill-opacity:1;"/>
<path id="Vector_15" d="M454.47 299.735C455.936 299.535 456.936 301.201 456.67 302.468C456.47 303.668 455.47 304.468 454.603 305.135C450.973 307.649 446.613 308.891 442.203 308.668H441.136C438.364 308.648 435.631 308.01 433.136 306.801C431.47 306.135 429.536 305.268 428.936 303.335C428.67 302.468 428.536 301.201 429.536 300.668C430.603 300.135 431.603 301.001 432.536 301.335C435.725 303.01 439.268 303.901 442.87 303.935C445.962 303.811 448.97 302.893 451.603 301.268C452.603 300.801 453.403 299.935 454.47 299.735Z" fill="#CF1126" style="fill:#CF1126;fill:color(display-p3 0.8118 0.0667 0.1490);fill-opacity:1;"/>
<path id="Vector_16" d="M479.003 201.801C481.136 204.001 479.47 208.001 479.67 210.801C478.47 219.601 477.07 228.468 473.803 236.801C469.803 244.801 461.27 249.134 456.136 256.268C454.27 259.668 454.936 263.801 454.536 267.601C454.314 277.823 454.314 288.046 454.536 298.268C449.87 300.668 444.87 302.935 439.536 302.068C436.403 301.335 430.536 300.868 429.87 297.735L430.536 244.734C432.336 239.334 437.87 236.534 441.936 233.068C445.335 229.711 448.498 226.125 451.403 222.334C453.136 219.334 460.003 218.334 457.536 223.401C456.07 227.868 452.403 231.134 451.47 235.801C451.27 238.401 448.136 243.134 450.803 244.601C452.462 241.716 454.946 239.395 457.936 237.934C460.87 235.734 465.736 234.801 466.803 230.934C467.767 225.436 470.316 220.338 474.136 216.268C473.136 211.334 474.136 205.134 478.403 201.934L479.003 201.801Z" fill="#CF1126" style="fill:#CF1126;fill:color(display-p3 0.8118 0.0667 0.1490);fill-opacity:1;"/>
<path id="Vector_17" d="M472.403 202.801C474.403 203.134 474.27 205.601 473.403 206.934C472.409 209.802 472.157 212.876 472.67 215.867C469.011 219.936 466.563 224.947 465.603 230.334C465.603 232.334 463.47 233.001 462.07 234.001C458.803 236.068 455.203 237.601 452.27 240.201C451.67 240.868 451.203 241.534 451.603 240.201C452.07 238.468 452.27 236.601 453.603 235.334C455.47 233.334 457.736 231.601 460.403 231.068C460.603 228.268 461.936 225.734 463.136 223.334C464.47 221.001 465.87 218.534 468.137 217.068C468.137 213.001 468.137 208.734 469.87 204.934C470.403 204.001 471.203 202.867 472.403 202.801Z" fill="#CF1126" style="fill:#CF1126;fill:color(display-p3 0.8118 0.0667 0.1490);fill-opacity:1;"/>
<path id="Vector_18" d="M466.87 204.401C468.203 204.801 467.936 206.534 467.536 207.534C466.954 210.429 466.73 213.385 466.87 216.334C464.27 218.334 462.736 221.268 461.27 224.068C460.292 225.934 459.603 227.912 459.203 230.001C457.136 230.668 455.336 232.001 453.736 233.334C454.403 231.468 455.736 230.001 456.736 228.201C457.736 226.401 458.736 224.468 459.203 222.401C461.203 220.334 462.27 217.334 461.87 214.401C461.736 211.268 462.736 208.001 464.87 205.601C465.403 205.068 466.07 204.468 466.87 204.401Z" fill="#CF1126" style="fill:#CF1126;fill:color(display-p3 0.8118 0.0667 0.1490);fill-opacity:1;"/>
<path id="Vector_19" d="M460.536 205.334C461.336 205.467 461.736 206.134 462.136 206.734C462.336 207.334 461.603 207.934 461.47 208.601C460.604 210.803 460.284 213.182 460.536 215.534C460.536 217.268 460.092 218.823 459.203 220.201C459.045 219.692 458.738 219.243 458.322 218.91C457.906 218.577 457.4 218.377 456.87 218.334C456.536 218.334 455.936 218.468 456.203 217.868C456.381 214.623 457.003 211.512 458.07 208.534C458.411 207.384 459.056 206.348 459.936 205.534C460.114 205.356 460.336 205.29 460.603 205.334H460.536Z" fill="#CF1126" style="fill:#CF1126;fill:color(display-p3 0.8118 0.0667 0.1490);fill-opacity:1;"/>
</g>
<path id="Vector_20" d="M317.136 317.335C312.643 316.817 308.388 315.04 304.862 312.209C301.335 309.378 298.68 305.609 297.202 301.335C297.402 299.868 299.202 302.135 300.069 302.335C301.695 303.304 303.517 303.896 305.402 304.068C307.736 305.068 309.202 307.401 311.469 308.668C312.536 309.468 316.269 311.068 315.536 308.468C314.669 307.135 314.069 305.401 314.869 303.801C316.069 301.068 318.002 298.668 320.002 296.335C321.402 295.868 322.402 298.735 323.402 299.668C324.802 301.868 326.536 304.535 325.669 307.201C324.869 308.201 324.336 311.201 326.536 310.268C329.202 309.068 331.402 307.068 333.602 305.201C335.602 303.868 338.069 303.801 340.069 302.535C341.069 302.335 343.002 300.468 343.402 301.468C342.207 304.448 340.542 307.216 338.469 309.668C335.267 313.478 330.833 316.049 325.936 316.935C323.002 317.468 320.069 317.601 317.136 317.335Z" fill="#CF1126" style="fill:#CF1126;fill:color(display-p3 0.8118 0.0667 0.1490);fill-opacity:1;"/>
<path id="Vector_21" d="M327.669 306.801C327.847 305.024 327.469 303.246 326.536 301.468C325.069 298.712 323.291 296.068 321.202 293.535C319.336 292.468 318.336 296.001 317.136 297.001C315.202 299.868 312.802 302.801 312.669 306.335C311.602 308.001 309.602 305.001 308.736 304.001C306.959 301.718 306.018 298.894 306.069 296.001C305.912 291.307 306.729 286.631 308.469 282.268C309.802 278.535 311.869 274.935 311.669 270.935C311.802 267.801 311.202 264.468 308.736 262.401C306.336 260.534 310.269 260.134 311.469 261.068C313.602 261.268 314.736 264.734 316.669 263.868C317.402 262.068 317.602 259.868 319.202 258.468C320.736 256.334 322.336 259.334 322.869 260.801C324.002 262.001 322.869 265.134 324.602 265.201C326.736 263.668 328.269 261.201 331.002 260.601C332.136 259.934 334.002 260.601 332.536 261.801C330.536 263.734 328.802 266.068 328.402 268.935C327.802 272.468 328.669 276.068 330.202 279.201C333.202 285.468 335.536 292.535 334.002 299.535C333.336 302.601 331.202 305.268 328.669 307.068C328.336 307.268 327.802 307.268 327.669 306.801Z" fill="#CF1126" style="fill:#CF1126;fill:color(display-p3 0.8118 0.0667 0.1490);fill-opacity:1;"/>
<path id="Vector_22" d="M324.469 259.734C323.575 257.928 322.301 256.337 320.736 255.068C319.136 255.068 318.136 257.068 317.069 258.134C316.336 259.534 315.402 261.868 313.536 260.068C310.535 258.334 310.069 254.534 310.069 251.401C309.869 246.334 311.935 241.601 313.736 237.001C314.869 234.134 314.602 230.868 313.869 227.934C313.002 224.601 310.269 222.201 308.202 219.534C308.335 218.534 311.002 219.068 312.002 219.268C314.269 219.868 315.602 221.801 317.269 223.268C318.469 222.868 317.936 220.468 318.536 219.334C318.536 217.734 320.669 215.668 321.536 217.934C322.869 219.401 321.536 222.268 323.202 223.134C324.802 222.534 325.602 220.801 327.069 220.001C327.835 219.505 328.715 219.214 329.625 219.156C330.536 219.098 331.446 219.274 332.269 219.668C332.869 221.134 330.536 222.334 329.869 223.668C328.517 225.319 327.581 227.271 327.141 229.359C326.7 231.447 326.767 233.611 327.336 235.668C328.269 239.001 329.869 242.001 330.469 245.334C331.191 249.136 331.077 253.048 330.136 256.801C329.536 259.068 327.602 260.535 325.602 261.468C325.158 260.979 324.78 260.401 324.469 259.734Z" fill="#CF1126" style="fill:#CF1126;fill:color(display-p3 0.8118 0.0667 0.1490);fill-opacity:1;"/>
<path id="Vector_23" d="M314.402 217.934C312.136 216.268 311.402 214.734 311.402 211.601C311.402 210.068 311.736 209.201 312.736 207.734C314.336 205.645 314.047 204.912 311.869 205.534C308.402 206.556 306.624 205.601 306.536 202.668C306.536 201.201 306.802 200.601 308.736 198.201C310.336 196.379 310.958 195.312 310.602 195.001C310.336 194.69 308.336 196.423 304.602 200.201C302.219 202.713 299.681 205.074 297.002 207.268C290.469 211.668 284.202 212.334 281.335 208.934C279.869 207.201 279.935 206.268 281.602 205.201C282.665 204.485 283.648 203.659 284.535 202.734C287.803 199.751 291.405 197.156 295.269 195.001C297.713 193.712 298.18 193.045 296.669 193.001C294.669 193.001 288.335 197.134 283.469 201.534C282.069 202.868 280.002 204.334 278.935 204.868C275.972 205.964 272.758 206.195 269.669 205.534C268.202 205.068 265.469 202.534 265.469 201.601C265.469 201.401 266.135 200.868 266.802 200.401C267.889 199.787 268.915 199.073 269.869 198.268C273.735 194.934 281.069 191.401 286.869 190.134C288.735 189.801 288.002 188.801 285.935 188.934C279.816 190.103 274.086 192.784 269.269 196.734C263.735 201.334 255.402 200.868 252.735 195.868C252.269 195.001 251.935 194.201 252.069 194.068C256.79 192.874 261.355 191.129 265.669 188.867C269.387 186.685 273.479 185.216 277.735 184.534C279.602 184.201 279.735 183.267 277.935 183.067C275.535 182.801 271.935 184.001 265.602 187.067C257.402 191.134 255.069 191.868 250.802 191.601C246.802 191.334 244.602 190.334 241.469 187.334C239.335 185.334 236.402 180.334 236.935 179.734C240.397 180.458 243.935 180.75 247.469 180.601C253.002 180.601 254.535 180.467 257.469 179.601C263.2 177.788 268.603 175.064 273.469 171.534C280.345 165.754 289.019 162.548 298.002 162.467C306.269 162.467 311.469 164.334 316.136 169.067C317.736 170.667 319.069 171.667 319.269 171.467C319.469 171.267 319.669 168.467 319.736 165.267C319.736 165.267 322.202 165.001 322.736 165.734C322.736 170.867 322.736 171.334 323.536 171.334C324.069 171.29 324.513 170.845 324.869 170.001C325.536 168.334 328.202 166.001 331.002 164.534C337.002 161.534 347.469 161.401 355.869 164.334C359.887 165.854 363.643 167.991 367.003 170.667C371.906 174.119 377.299 176.815 383.003 178.667C387.536 180.001 395.669 180.334 399.736 179.334L403.336 178.667C404.869 178.667 402.269 183.734 399.203 186.734C393.603 192.201 386.336 192.134 376.136 186.667C369.736 183.201 362.136 181.334 362.136 183.201C362.136 183.645 362.469 183.867 363.136 183.867C365.358 183.867 369.514 185.312 375.603 188.201C379.374 190.371 383.507 191.839 387.803 192.534C389.358 192.534 389.403 193.579 387.936 195.668C386.38 197.89 383.78 199.001 380.136 199.001C376.603 199.001 374.603 198.268 371.469 195.668C366.136 191.268 353.069 186.334 353.536 189.001C353.625 189.445 354.336 189.779 355.669 190.001C361.3 191.224 366.571 193.734 371.069 197.334L375.003 200.201C375.736 200.601 375.736 200.734 375.136 201.868C374.203 203.734 371.669 205.134 369.003 205.401C365.625 205.845 362.402 204.734 359.336 202.068C352.669 196.534 346.469 192.534 344.469 192.534C342.825 192.579 343.491 193.401 346.469 195.001C350.263 197.012 353.799 199.475 357.002 202.334C358.336 203.601 359.869 204.801 360.336 205.068C361.602 205.734 361.536 206.668 360.202 208.401C358.869 210.134 356.602 210.934 353.736 210.601C348.002 210.001 343.469 207.268 336.402 199.934C334.721 198.058 332.893 196.319 330.936 194.734C330.047 194.823 330.536 195.934 332.402 198.068C334.669 200.534 335.069 201.934 334.202 204.068C333.469 205.801 332.202 206.268 329.669 205.534C327.002 204.868 326.558 205.556 328.336 207.601C330.869 210.868 330.536 214.734 327.336 217.468C326.674 218.105 325.907 218.624 325.069 219.001C324.713 218.957 324.202 218.423 323.536 217.401C321.625 214.334 319.691 214.334 317.736 217.401L316.402 219.401L314.402 217.934Z" fill="#CF1126" style="fill:#CF1126;fill:color(display-p3 0.8118 0.0667 0.1490);fill-opacity:1;"/>
<path id="Vector_24" d="M324.469 155.334L321.002 158.001L317.936 155.734V174.267H324.469V155.334Z" fill="#CF1126" style="fill:#CF1126;fill:color(display-p3 0.8118 0.0667 0.1490);fill-opacity:1;"/>
<path id="Vector_25" d="M303.269 136.201C302.667 143.697 300.63 151.007 297.269 157.734L304.669 150.867L309.802 157.001L315.402 150.734L321.069 156.067L326.536 150.534L332.202 157.201L337.136 151.734L345.536 157.734C342.469 151.067 338.402 145.334 338.869 135.867C330.802 141.867 311.536 142.934 303.269 136.134V136.201Z" fill="#CF1126" style="fill:#CF1126;fill:color(display-p3 0.8118 0.0667 0.1490);fill-opacity:1;"/>
<path id="Vector_26" d="M318.002 131.734C314.891 131.645 311.913 131.867 309.069 132.401C307.214 132.694 305.442 133.375 303.869 134.401C304.069 140.134 331.202 142.467 338.469 134.534C336.834 133.402 334.966 132.65 333.002 132.334C330.336 131.801 327.269 131.801 324.402 131.667V136.401H318.002V131.734Z" fill="#CF1126" style="fill:#CF1126;fill:color(display-p3 0.8118 0.0667 0.1490);fill-opacity:1;"/>
<path id="Vector_27" d="M323.269 102.667H319.069V135.6H323.336L323.269 102.667Z" fill="#CF1126" style="fill:#CF1126;fill:color(display-p3 0.8118 0.0667 0.1490);fill-opacity:1;"/>
<path id="Vector_28" d="M323.269 103.467L321.669 119.267L337.869 127.201L329.669 116.2L340.869 112.534L323.269 103.467ZM321.469 99.4004C319.002 99.4004 317.202 100.334 317.202 101.4C317.202 102.467 319.002 103.4 321.469 103.4C323.936 103.4 325.736 102.467 325.736 101.4C325.736 100.334 323.936 99.4004 321.469 99.4004Z" fill="#CF1126" style="fill:#CF1126;fill:color(display-p3 0.8118 0.0667 0.1490);fill-opacity:1;"/>
</g>
<g id="Group_2">
<path id="Vector_29" d="M314 375.9C316.533 375.167 318.3 373.3 319.3 370.3C319.8 368.7 320.2 367.1 320.1 366.7C319.9 365.7 318.7 365.7 317.5 366.8C316.6 367.5 316.5 367.9 316.7 369.4C317.4 373.1 316 374.1 309 374.8C308.3 374.8 306.2 374.8 304.5 374.5C301.1 374.1 299.967 374.433 301.1 375.5L303.2 376.4C305.1 376.9 312 376.6 314 375.9ZM328.7 375.3C329.1 374.9 330.4 374.3 331.7 373.8C333.3 373.4 334.4 372.667 335 371.6C337.1 368.6 336.7 365.9 333.7 362.3C332 360.3 331.3 360.4 330 362.6C328.8 364.4 328.9 364.6 330.5 365C331.433 365.267 332.133 365.8 332.6 366.6C334.4 369.8 333.933 371.467 331.2 371.6C328.8 371.6 328.2 372 327.5 373.6L326.9 375.5C326.9 376.1 327.9 376 328.7 375.3ZM323.9 371.8C324.3 370.5 324.5 368.3 324.4 363.8C324.508 361.662 324.407 359.519 324.1 357.4C323.7 357 321.8 358.2 321.5 359.1C321.4 359.838 321.579 360.586 322 361.2C322.6 362.4 322.7 363.6 322.5 368.2C322.167 374.133 322.633 375.333 323.9 371.8Z" fill="#F7E017" style="fill:#F7E017;fill:color(display-p3 0.9686 0.8784 0.0902);fill-opacity:1;"/>
<path id="Vector_30" d="M312.6 369L313.3 364C313.4 362.3 313.8 360.2 314 359.3C314.667 356.967 314.067 356.433 312.2 357.7L310.9 358.7L311.1 362C311.4 365 310.9 370.5 310.2 372.7C310 373.3 310.3 373.133 311.1 372.2C311.7 371.5 312.4 370 312.6 368.9V369ZM302.6 370.6C305 368.6 304.7 365 305.3 362.2C305.3 360.3 306.5 358.1 305.7 356.4C303.4 356.8 302 359 303.2 361.1C303.2 363.6 303.2 366.3 301.9 368.5C300.9 370 297.5 369.6 297.7 367.5C298.5 364.5 294.8 366 293.4 366.8C292.3 367.6 289.9 367.7 290.8 365.8C290.2 363.1 286.9 364.8 285.1 364.8C283.4 364.8 285 361.3 282.5 361.8C278 361.5 273 361.9 269 359.2C266.7 358.1 267 355.3 268.3 353.5C269.7 351.1 270.1 348 272.3 346.1C274.6 344 270.3 344.9 269.3 345.6C267.1 346.8 269.1 349.9 267.3 351.6C266.3 353.4 264.9 355.8 262.5 355.5C259 354.8 257 351.5 254.5 349.5C252.3 349 253.5 352.9 254.7 353.7C256.918 355.355 259.429 356.576 262.1 357.3C264.7 356.8 264.8 360.3 267.1 360.8C271.1 362.8 275.7 363.3 280.2 363.6C282 363.7 281 366.9 283.3 366.2C284.6 366.6 287.6 365.7 287.7 367.2C285.7 369.6 289.6 369.5 291 369.2C292.9 368.8 295.2 368.2 295.7 370.6C297.2 372.3 300 372 301.9 371.1L302.6 370.6Z" fill="#F7E017" style="fill:#F7E017;fill:color(display-p3 0.9686 0.8784 0.0902);fill-opacity:1;"/>
<path id="Vector_31" d="M262.8 350.4C263.739 349.084 264.544 347.677 265.2 346.2C265.709 344.919 266.381 343.709 267.2 342.6C268.267 341.267 267.8 340.733 265.8 341C264.867 341.133 264.367 341.633 264.3 342.5C263.852 344.953 263.007 347.318 261.8 349.5C260.1 352 260.1 352.1 260.8 352.1C261.2 351.967 261.867 351.4 262.8 350.4ZM237.8 334.7C235.9 334.7 235.8 335.9 237.6 336.5C238.533 336.767 239.3 337.533 239.9 338.8C241.6 342.3 242.7 343 247.4 343.4L250.4 343.6L250.6 345.5C250.667 346.633 250.833 347.233 251.1 347.3L253.7 346.3C255.9 345.1 258 342.5 258 340.8C258 339.8 256.2 338.6 254.6 338.6C253.9 338.6 252.6 339.2 251.5 340C248.1 342.4 244.5 342 242.5 338.8C240.967 336.133 239.4 334.8 237.8 334.8V334.7ZM254.1 341.2C254.967 341.2 255.167 341.867 254.7 343.2C254.639 343.377 254.524 343.529 254.372 343.638C254.219 343.746 254.037 343.804 253.85 343.804C253.663 343.804 253.481 343.746 253.329 343.638C253.176 343.529 253.061 343.377 253 343.2C252.6 342.2 253.1 341.2 254 341.2H254.1ZM380.6 337.2C379.3 337.2 379 337.4 378.2 338.6C376.9 340.5 376.8 344.6 378 346C378.7 346.9 378.8 346.9 380.3 346.2C382.5 345.3 382.9 345.4 382.8 346.5C382.8 349.5 378.6 355.2 374.2 358.2C373.3 358.737 372.49 359.412 371.8 360.2C371.5 361 373.1 360.9 375.1 359.8C378.412 357.901 381.143 355.135 383 351.8C384.1 349.5 384.3 348.8 384.5 344.8C384.5 341 384.5 339.8 383.9 338.6C383.1 337.2 382.9 337.1 381.1 337.1H380.6V337.2ZM380.7 339.7C381.7 339.7 381.7 339.9 381.9 341.3C381.967 342.233 381.733 343 381.2 343.6C380.4 344.3 380.2 344.3 379.6 343.2C378.6 341.6 379.2 339.7 380.7 339.7ZM360.5 368.2C364.4 366.2 366.7 364.1 368.1 361L369.4 357.9C369.4 357.3 367.5 356.4 366.4 356.4C365.3 356.4 365 355.6 365.4 353.4C365.9 351.3 365.4 348.6 364.4 348.6C363.933 348.667 363.5 349.033 363.1 349.7C362.5 350.7 362.4 351.1 362.9 352.4C363.567 354.4 363 356.033 361.2 357.3C360.333 357.967 359.9 358.633 359.9 359.3L360 360.3L362.1 359.3L364.1 358.1L365.2 359.1C365.933 359.633 366.333 360.2 366.4 360.8C366.4 363.2 359.6 367.2 355 367.6C352.5 367.8 352 367.6 351.2 366.8C350.533 366.133 350.3 365.467 350.5 364.8L351 362.2C351.333 360.2 350.667 360.4 349 362.8C347.8 364.8 347.4 366.9 348.1 368C348.7 369 352.5 369.8 355.3 369.6C356.967 369.6 358.7 369.133 360.5 368.2ZM386.5 353.7C388.9 351.2 390 348.2 390 343.7V340.2L392 339.2C394.7 338 397.2 335.5 397.2 334.1C397.2 332.7 396.6 332.767 395.4 334.3C394.5 335.4 393.4 336.1 389.4 338C388.4 338.4 388.3 338.7 388 343C387.8 348 387 349.8 384.3 353.2C382.6 355.2 382.5 355.6 383.7 355.6C384.2 355.6 385.5 354.7 386.5 353.6V353.7ZM359.8 350.9C360 350.2 358.6 349.7 358.1 350.3C357.767 350.567 357.7 350.867 357.9 351.2C358.3 351.8 359.5 351.6 359.8 350.9ZM396.6 341.4C396.9 340.6 395.5 340.1 394.9 340.7C394.633 341.033 394.6 341.367 394.8 341.7C395.2 342.3 396.4 342.1 396.6 341.4ZM352.3 315.5C351.367 316.167 350.667 316.933 350.2 317.8C349.7 318.1 350.1 318.4 350.3 318.8C352 320.5 352.7 323 353.5 325.3C354.3 328 355.3 330.9 354.5 333.7C354.2 334.7 353.3 335.8 352.1 335.5C350.1 335.4 348.1 334.8 346.1 334.8C344.2 334.9 342.8 336.6 341 336.4C339.8 336.4 339.8 334 338.8 334.7C338.2 336 338.5 337.4 338.4 338.7C338.733 338.9 339.1 338.967 339.5 338.9H343.2C343.4 340.1 343.4 341.6 344.2 342.6C345.533 342.867 346.867 342.7 348.2 342.1C349.4 341.5 349.6 340 350 338.8C350.4 337.5 352 337.8 353 337.3C354.177 336.884 355.195 336.111 355.912 335.09C356.629 334.068 357.009 332.848 357 331.6C356.8 327.7 355.4 324.2 354.2 320.6C353.733 318.933 353.233 317.3 352.7 315.7L352.3 315.5ZM346.3 337.3C347.6 337.3 348.2 338.9 347.9 340C347.4 341.5 345.5 340.6 345.2 339.5C344.5 338.5 344.9 337.2 346.2 337.3H346.3Z" fill="#F7E017" style="fill:#F7E017;fill:color(display-p3 0.9686 0.8784 0.0902);fill-opacity:1;"/>
<path id="Vector_32" d="M296 324.8C295.333 324.8 294.667 325.033 294 325.5C290.5 328 289.5 330.9 292 332.1C293.733 332.833 293.233 333.9 290.5 335.3C286.5 337.3 283 337 276.3 334.3C274.767 333.633 274.2 333.967 274.6 335.3C275 336.8 276.4 337.6 279.7 338.3C283.3 339.3 287.7 339 290.5 337.8C292.143 336.961 293.605 335.806 294.8 334.4L297 332.1L299.5 332.4C302.6 332.8 302.7 332.8 302.7 334.3C302.7 335.5 302.7 335.5 305.6 335.8L310.3 336C311.567 336 312.367 336.3 312.7 336.9C313.3 337.6 313.6 337.7 318.3 337.3C322.7 336.9 323.5 336.9 325.5 337.6C327.033 338 328.4 338.167 329.6 338.1C333 337.7 337.6 335 338.3 333C338.3 332.7 339.6 332.3 341 332C344.333 331.267 344.467 330.667 341.4 330.2C339.833 329.992 338.291 329.624 336.8 329.1C335.685 328.625 334.505 328.322 333.3 328.2C331.6 328.2 330 329.2 330 330.4C330 331.1 330.2 331.2 332.3 331C334.1 330.8 334.7 330.9 335.7 331.7C336.433 332.3 336.767 332.733 336.7 333C336.2 333.8 332.2 335.6 330.5 335.9C329.472 336.049 328.424 335.874 327.5 335.4C325.9 334.6 323.7 334.5 323.2 335.2C323 335.467 322.567 335.3 321.9 334.7L320.9 333.7L318.5 334.7C316.233 335.767 315.133 335.7 315.2 334.5C315.2 334 314.5 333.9 311 334.2C307.1 334.4 306.7 334.3 306 333.5C305.333 332.9 305.267 332.333 305.8 331.8C306.2 331 306.2 330.8 305.8 330.3C305.533 329.9 304.7 329.9 303.3 330.3C299.4 331.3 298.3 330.8 298.3 327.8C298.167 325.8 297.4 324.8 296 324.8ZM295 327.6C295.2 327.6 295.433 327.733 295.7 328C296.033 328.4 296.133 328.833 296 329.3C295.7 330.2 294 330.2 293.7 329.3C293.5 328.767 293.667 328.333 294.2 328L295 327.6Z" fill="#F7E017" style="fill:#F7E017;fill:color(display-p3 0.9686 0.8784 0.0902);fill-opacity:1;"/>
<path id="Vector_33" d="M288 330.4C290.4 328.9 290.4 329 290.7 324.9C290.9 321.9 290.9 321.7 290.1 321.7C288.9 321.7 288.3 322.933 288.3 325.4C288.3 327 288.1 327.7 287.3 328.4C285.3 330.4 280.5 329.5 279.8 327.1C279.6 326.433 279.967 325.433 280.9 324.1C283 321.1 282.6 320.3 279.9 322.6C278.2 324.2 277.9 324.2 278.2 322.9C278.467 321.567 277.867 321.1 276.4 321.5C275.667 321.633 275.233 322.167 275.1 323.1C274.9 323.9 274.467 324.4 273.8 324.6C272.6 324.9 270.6 323.8 270.6 322.8C270.6 322.1 273.6 318.4 277.5 314.4C278.9 312.9 280.1 311.4 280.1 311.3C279.967 311.033 279.4 310.9 278.4 310.9C277.067 310.9 276.467 311.167 276.6 311.7C276.6 312.1 274.7 314.7 272.3 317.4C267.3 323 266.9 324.1 269.3 325.6C270.299 326.216 271.457 326.525 272.63 326.49C273.803 326.454 274.94 326.075 275.9 325.4L277.5 324.3V326.3C277.5 328.8 278 329.8 280 330.8C281.251 331.442 282.649 331.744 284.054 331.673C285.458 331.603 286.819 331.164 288 330.4ZM392.4 295.8C390.6 296.9 392 299.2 392.4 300.8C391.6 302.8 388.9 303.4 386.9 303.8C384.1 304.3 382.1 306.6 381.1 309.1C380.5 310.7 379.1 313.1 377.6 310.7C376.3 309.4 373.9 308.3 372.4 309.9C371.2 311 370.9 312.6 370.4 314.1C369.7 313 369.4 311.3 368 310.9C365.6 311.2 366.5 314.2 367.6 315.4C368.6 316.9 369.6 318.7 368.6 320.4C367.6 322.4 364.6 323.8 362.9 322.1C361.3 321.2 362.4 318.1 360.7 317.9C359.9 318.5 359.9 321.8 358.6 320C357.6 318.5 358.2 316.4 357 315.1C355.7 315.3 354.6 317.6 355 318.8C356.8 321.2 357.6 324.2 358.3 327.1C358.7 328.3 358.2 330.6 359.3 331.1C360 329.2 359.3 327.1 359.9 325.2C361.7 325 363.6 325.8 365.4 325.4C368.1 325.1 370.1 322.8 371 320.5C371.2 318.7 371.167 316.9 370.9 315.1C372.9 315.5 375.1 315.5 377.1 316.1C378.1 317.6 376.8 319.8 376.5 321.4C375.5 324.8 372.8 327.2 370.3 329.4C369.2 330.1 369.1 331.8 370.6 330.9C374.02 329.276 376.699 326.418 378.1 322.9C379.2 320.3 378.3 317.4 379.1 314.8C380.1 312.8 382.6 313.2 384.5 313.2C386.4 313.2 388 310.9 387.4 309C386.8 306.8 389.1 305.8 390.6 305C392.7 304 394.3 301.9 394.1 299.5C394.1 298.2 394.1 295.9 392.4 295.8ZM385.1 308.3C387.3 308.9 384.7 313.1 383.5 310.4C383.1 309.4 384 308.3 385.1 308.3ZM374.8 311.3C377.7 311.2 376.6 315.3 374.2 313.5C372.9 312.8 373.3 311.3 374.8 311.3ZM270 327.6C270 327.2 269.8 326.967 269.4 326.9C268.7 326.9 268.2 327.6 268.5 328.2C268.9 328.9 269.8 328.5 270 327.6ZM304 324C304 323.333 303.733 323.067 303.2 323.2C302.1 323.4 301.9 324.9 303.1 324.9C303.7 324.9 304 324.567 304 323.9V324ZM262 303.6C260.7 303.3 259.8 304.5 259.3 305.6C258.367 307.467 257.033 308.9 255.3 309.9C253.967 310.167 252.667 309.9 251.4 309.1C250.1 308.4 250.4 306.8 249.8 305.7C248.8 304.9 247.1 306 247.2 307.2C247.1 308.8 248.5 309.7 249.8 310.3C250.8 311 252.4 311.3 252.8 312.6C252.8 313.7 253.2 315 254.5 314.6C256 314.6 256.5 316.4 255.8 317.5C255.109 318.712 254.861 320.126 255.1 321.5C255.8 322.2 256.5 320.5 257.1 320.1L258.1 318.7C260.767 318.967 263.433 319.1 266.1 319.1C268.1 319.1 269.6 317.9 270.8 316.5C272.6 314.7 274 312.6 275.9 311.1C277.3 310.7 276.6 308.1 275.1 308.9C273.8 309.4 273.4 310.9 272.5 311.8C271.042 313.722 269.363 315.467 267.5 317C266 317.6 264.4 317.3 262.9 317C262.3 316.5 264.1 316 264.4 315.4C265.333 314.667 266.1 313.767 266.7 312.7C266.2 311.7 264.8 311.7 263.8 311.7C261.4 311.9 259.5 314 257 314.2C255.1 314.2 256.1 312.2 257 311.5C258.667 309.5 260.367 307.6 262.1 305.8C262.6 305.2 264.4 304.6 263.3 303.8C262.9 303.667 262.467 303.6 262 303.6ZM263.2 313.6C264.5 314.3 262.4 315.4 261.6 315.3C260.5 315.6 260.4 314.5 261.4 314.3C262 313.9 262.6 313.667 263.2 313.6ZM259.4 316.2C260.1 316.2 261.6 316.9 260.2 317.3C259.2 318.1 258.2 316.5 259.4 316.2Z" fill="#F7E017" style="fill:#F7E017;fill:color(display-p3 0.9686 0.8784 0.0902);fill-opacity:1;"/>
<path id="Vector_34" d="M289.4 317.8C289.4 316.8 287.8 317 287.6 318C287.4 318.533 287.667 318.733 288.4 318.6C289.067 318.533 289.4 318.267 289.4 317.8ZM364.1 311.2C364.3 310.3 363.1 309.7 362.4 310.4C361.7 311.1 362.4 312.3 363.2 312.1C363.6 312.033 363.933 311.733 364.2 311.2H364.1ZM248 302.1C249.1 301.1 249.2 301 248.7 298.8C247.9 295.7 248 295.3 249.2 295C250.7 294.7 254.5 296.7 255.2 298.3C256 299.6 255.9 299.7 254.8 300.7C253.6 301.8 253.6 303.1 254.8 303.1C255.8 303.1 258.5 300.5 258.5 299.6C258.5 298.3 255.5 295.2 253.1 294.1C251.657 293.439 250.088 293.098 248.5 293.1C245.4 293.1 245 293.8 245.8 297.3C246.733 301.567 245.5 302.1 242.1 298.9C240.865 297.856 239.901 296.529 239.291 295.031C238.682 293.533 238.445 291.91 238.6 290.3C238.6 286.3 240.3 284.1 243.7 283.7C246.033 283.3 246.033 282.9 243.7 282.5C240.1 281.9 237.1 284.3 236 288.5C234.7 293.2 237.6 298.9 242.7 301.8C245.4 303.3 246.4 303.4 248 302.1ZM387.2 296.9C387.533 296.567 387.7 296.1 387.7 295.5C387.767 294.633 388.133 293.833 388.8 293.1C389.467 292.167 389.8 291.567 389.8 291.3C389.8 290.5 388.5 290.5 387.5 291.3C386.3 292.233 385.633 292.233 385.5 291.3L386.7 290.4C388.3 289.667 388.433 288.967 387.1 288.3C385.4 287.5 383.6 288.9 383.5 291.3C383.4 292.9 383.5 293.1 384.7 293.8C385.9 294.5 386 294.8 385.8 295.8C385.6 297.533 386.067 297.9 387.2 296.9ZM400.2 295.5C401.267 294.433 401.867 293.7 402 293.3C402.133 292.9 402.767 292.233 403.9 291.3C406.7 289.3 407.4 287.3 406.1 284C405.6 282.7 404.1 281 400.6 278C399.006 276.298 397.189 274.818 395.2 273.6C394.3 273.6 394.5 277 395.4 277.3C397.1 277.9 398.2 278.6 400.8 281C404 283.8 405.4 286.5 404.6 288C403.9 289.4 402.9 289 400.1 286C399.19 284.874 398.11 283.895 396.9 283.1C396.567 283.167 396.4 283.633 396.4 284.5C396.333 285.433 397 286.6 398.4 288C400.7 290.6 400.9 292.1 399.1 293.5L397.7 294.5C395.419 290.584 392.355 287.18 388.7 284.5C388.367 284.5 388.2 284.967 388.2 285.9C388.2 287.2 388.4 287.6 389.4 288.1C392.029 290.118 394.382 292.471 396.4 295.1L398.2 297.1L400.2 295.5ZM406.2 278.7C405.7 277.5 397.8 269.3 396.9 269.3C396.5 269.3 396.367 269.9 396.5 271.1C396.5 272.7 396.8 272.9 397.9 273.2C399.608 274.199 401.158 275.446 402.5 276.9C403.587 278.069 404.832 279.079 406.2 279.9V278.7ZM358.4 371.3C358.453 371.449 358.464 371.607 358.432 371.76C358.399 371.914 358.324 372.058 358.212 372.183C358.101 372.308 357.955 372.41 357.788 372.479C357.621 372.549 357.437 372.586 357.25 372.586C357.063 372.586 356.879 372.549 356.712 372.479C356.545 372.41 356.4 372.308 356.288 372.183C356.176 372.058 356.101 371.914 356.068 371.76C356.036 371.607 356.047 371.449 356.1 371.3C356.047 371.151 356.036 370.993 356.068 370.84C356.101 370.687 356.176 370.542 356.288 370.417C356.4 370.292 356.545 370.19 356.712 370.121C356.879 370.051 357.063 370.014 357.25 370.014C357.437 370.014 357.621 370.051 357.788 370.121C357.955 370.19 358.101 370.292 358.212 370.417C358.324 370.542 358.399 370.687 358.432 370.84C358.464 370.993 358.453 371.151 358.4 371.3ZM362.6 369.9C362.6 370.031 362.569 370.161 362.509 370.283C362.448 370.404 362.36 370.514 362.249 370.607C362.137 370.7 362.005 370.774 361.859 370.824C361.714 370.874 361.558 370.9 361.4 370.9C361.242 370.9 361.086 370.874 360.941 370.824C360.795 370.774 360.663 370.7 360.552 370.607C360.44 370.514 360.352 370.404 360.291 370.283C360.231 370.161 360.2 370.031 360.2 369.9C360.2 369.769 360.231 369.639 360.291 369.517C360.352 369.396 360.44 369.286 360.552 369.193C360.663 369.1 360.795 369.026 360.941 368.976C361.086 368.926 361.242 368.9 361.4 368.9C361.558 368.9 361.714 368.926 361.859 368.976C362.005 369.026 362.137 369.1 362.249 369.193C362.36 369.286 362.448 369.396 362.509 369.517C362.569 369.639 362.6 369.769 362.6 369.9Z" fill="#F7E017" style="fill:#F7E017;fill:color(display-p3 0.9686 0.8784 0.0902);fill-opacity:1;"/>
</g>
</g>
<defs>
<clipPath id="clip0_2194_941">
<rect width="640" height="480" fill="white" style="fill:white;fill-opacity:1;"/>
</clipPath>
</defs>
</svg>
