<svg width="640" height="480" viewBox="0 0 640 480" fill="none" xmlns="http://www.w3.org/2000/svg">
<g id="br" clip-path="url(#clip0_2194_1656)">
<g id="Group">
<path id="Vector" fill-rule="evenodd" clip-rule="evenodd" d="M0 0H640V480H0V0Z" fill="#229E45" style="fill:#229E45;fill:color(display-p3 0.1333 0.6196 0.2706);fill-opacity:1;"/>
<path id="Vector_2" fill-rule="evenodd" clip-rule="evenodd" d="M321.4 436L622.9 240.3L319.6 44L17.1001 240.7L321.4 436Z" fill="#F8E509" style="fill:#F8E509;fill:color(display-p3 0.9725 0.8980 0.0353);fill-opacity:1;"/>
<path id="Vector_3" fill-rule="evenodd" clip-rule="evenodd" d="M452.8 240C452.8 310.3 395.7 367.3 325.2 367.3C300.007 367.26 275.391 359.752 254.465 345.725C233.538 331.698 217.24 311.781 207.631 288.492C198.022 265.204 195.533 239.589 200.48 214.886C205.426 190.184 217.586 167.502 235.421 149.709C253.256 131.915 275.966 119.81 300.68 114.921C325.395 110.033 351.003 112.582 374.269 122.246C397.535 131.909 417.414 148.254 431.392 169.214C445.37 190.173 452.82 214.807 452.8 240Z" fill="#2B49A3" style="fill:#2B49A3;fill:color(display-p3 0.1686 0.2863 0.6392);fill-opacity:1;"/>
<path id="Vector_4" fill-rule="evenodd" clip-rule="evenodd" d="M283.3 316.3L279.3 314L275.3 316L276.2 311.5L273 308.1L277.5 307.6L279.7 303.6L281.6 307.8L286 308.6L282.7 311.6M368.7 337.9L364.8 335.6L360.8 337.6L361.6 333.1L358.5 329.8L363 329.3L365.1 325.2L367.1 329.4L371.5 330.2L368.1 333.3M331.9 303.3L328.5 301.3L325 303.1L325.8 299.2L323 296.3L327 295.9L328.8 292.3L330.4 296L334.3 296.7L331.3 299.4M418.3 290.9L414.9 288.9L411.4 290.7L412.2 286.8L409.5 284L413.4 283.6L415.2 280.1L416.8 283.7L420.6 284.4L417.7 287M330.4 265L326.4 262.8L322.4 264.8L323.2 260.2L320.1 256.9L324.6 256.4L326.7 252.3L328.7 256.5L333.1 257.3L329.7 260.5M225.1 225.5L221.1 223.3L217.1 225.3L218.1 220.7L214.8 217.4L219.4 216.9L221.4 212.8L223.4 217L227.8 217.8L224.5 220.9M237.8 278.1L233.8 275.8L229.8 277.8L230.7 273.3L227.5 270L232 269.4L234.1 265.4L236.1 269.6L240.5 270.4L237.2 273.5M369.2 206.2L365.6 204.2L362 206L362.8 202L360 199L364 198.5L365.9 194.9L367.6 198.7L371.6 199.4L368.6 202.1M361.9 240.4L359.2 238.8L356.3 240.2L356.9 237L354.7 234.7L357.9 234.3L359.4 231.5L360.7 234.5L363.7 235L361.5 237.2M219.3 287.6L216.6 286.1L213.9 287.4L214.5 284.4L212.4 282.2L215.4 281.8L216.8 279.1L218.1 281.9L221.1 282.5L218.8 284.5M419 299.8L416.8 298.7L414.6 299.7L415.1 297.4L413.4 295.8L415.8 295.5L417 293.5L418 295.5L420.5 296L418.6 297.5" fill="#FFFFEF" style="fill:#FFFFEF;fill:color(display-p3 1.0000 1.0000 0.9373);fill-opacity:1;"/>
<path id="Vector_5" fill-rule="evenodd" clip-rule="evenodd" d="M219.3 287.6L216.6 286.1L213.9 287.4L214.5 284.4L212.4 282.2L215.4 281.8L216.8 279.1L218.1 281.9L221.1 282.5L218.8 284.5" fill="#FFFFEF" style="fill:#FFFFEF;fill:color(display-p3 1.0000 1.0000 0.9373);fill-opacity:1;"/>
<path id="Vector_6" fill-rule="evenodd" clip-rule="evenodd" d="M219.3 287.6L216.6 286.1L213.9 287.4L214.5 284.4L212.4 282.2L215.4 281.8L216.8 279.1L218.1 281.9L221.1 282.5L218.8 284.5M261.1 287.5L258.5 286.1L255.8 287.4L256.4 284.4L254.3 282.2L257.3 281.8L258.7 279.1L260 281.9L263 282.4L260.7 284.5M255.9 301.5L253.3 300L250.6 301.4L251.2 298.4L249.1 296.1L252.1 295.7L253.5 293L254.8 295.8L257.8 296.4L255.5 298.4M342.9 276.2L340.3 274.6L337.5 276L338.1 273L336.1 270.7L339.1 270.4L340.5 267.7L341.7 270.5L344.7 271L342.5 273.1M317.4 276.1L314.7 274.6L312 276L312.6 273L310.6 270.7L313.6 270.4L315 267.6L316.2 270.5L319.2 271L317 273.1M248.2 267.3L246.5 266.3L244.8 267.1L245.2 265.2L243.9 263.8L245.8 263.6L246.6 261.9L247.4 263.7L249.3 264L247.9 265.3M415.7 310.7L413.1 309.2L410.4 310.6L411 307.6L408.9 305.3L411.9 304.9L413.3 302.2L414.6 305L417.6 305.6L415.3 307.6M394.5 313.6L392.3 312.2L390 313.4L390.5 310.8L388.8 309L391.3 308.7L392.5 306.4L393.5 308.8L396 309.2L394.1 311M404.5 313.3L402.5 312.1L400.4 313.1L400.8 310.8L399.2 309.1L401.5 308.8L402.6 306.8L403.6 308.8L405.9 309.3L404.2 310.9M433.3 288.1L431.3 287.1L429.3 288.1L429.8 285.8L428.2 284.1L430.5 283.8L431.5 281.8L432.5 283.9L434.6 284.3L433 285.9M394.2 327.7L391.7 326.3L389 327.5L389.6 324.7L387.6 322.7L390.6 322.4L391.9 319.9L393.1 322.5L396.1 323L393.8 324.9M394.4 339.1L392 337.7L389.6 339L390.2 336.2L388.3 334.2L391 333.8L392.2 331.3L393.3 333.9L396 334.4L394 336.4M375 313.3L373.1 312.1L371.1 313.1L371.5 310.9L370 309.2L372.2 309L373.2 307L374.2 309L376.4 309.4L374.8 311M357 313.3L355 312.1L353 313.1L353.5 310.9L351.9 309.2L354.2 309L355.2 307L356.2 309L358.3 309.4L356.7 311M326.3 286.4L324.3 285.3L322.3 286.3L322.8 284L321.2 282.4L323.4 282.1L324.4 280.1L325.4 282.1L327.6 282.6L326 284.1M329.7 341.1L328.1 340.2L326.3 341.1L326.7 339.1L325.4 337.7L327.3 337.5L328.2 335.8L329 337.6L330.9 337.9L329.5 339.2M283.3 252.6L279.3 250.3L275.3 252.3L276.2 247.8L273 244.5L277.5 243.9L279.7 239.9L281.6 244.1L286 244.9L282.7 248" fill="#FFFFEF" style="fill:#FFFFEF;fill:color(display-p3 1.0000 1.0000 0.9373);fill-opacity:1;"/>
<path id="Vector_7" fill-rule="evenodd" clip-rule="evenodd" d="M444.4 285.8C446.876 279.371 448.816 272.748 450.2 266C382.4 206.5 306.9 176 211.5 182.3C208.042 188.996 205.198 195.991 203 203.2C316 192.4 399 242.4 444.4 285.8Z" fill="white" style="fill:white;fill-opacity:1;"/>
<path id="Vector_8" d="M414 252.4L416.3 253.7C415.922 254.368 415.815 255.155 416 255.9C416.234 256.624 416.735 257.231 417.4 257.6C418.067 258.133 418.734 258.367 419.4 258.3C420 258.3 420.434 258.067 420.7 257.6L420.9 256.7L420.4 255.7C420.2 255.367 419.7 254.767 418.9 253.9C418.086 253.045 417.472 252.021 417.1 250.9C416.908 250.049 416.999 249.158 417.36 248.364C417.722 247.569 418.333 246.915 419.1 246.5C419.831 246.209 420.631 246.139 421.4 246.3C422.34 246.517 423.225 246.925 424 247.5C425.4 248.5 426.267 249.567 426.6 250.7C426.745 251.261 426.766 251.846 426.663 252.416C426.559 252.986 426.333 253.526 426 254L423.6 252.5C423.934 251.833 424 251.267 423.8 250.8C423.667 250.267 423.267 249.8 422.6 249.4C422.094 248.975 421.461 248.729 420.8 248.7C420.619 248.694 420.439 248.737 420.281 248.825C420.122 248.913 419.991 249.043 419.9 249.2C419.7 249.467 419.667 249.8 419.8 250.2C419.934 250.733 420.467 251.467 421.4 252.4C422.334 253.333 423 254.167 423.4 254.9C423.746 255.559 423.901 256.301 423.848 257.043C423.795 257.785 423.536 258.497 423.1 259.1C422.637 259.784 421.973 260.308 421.2 260.6C420.45 260.945 419.612 261.05 418.8 260.9C417.934 260.7 417 260.267 416 259.6C414.534 258.6 413.634 257.5 413.3 256.3C413.116 255.628 413.074 254.925 413.178 254.237C413.281 253.548 413.527 252.888 413.9 252.3L414 252.4ZM402.4 244.8L404.9 246.1C404.556 246.781 404.485 247.568 404.7 248.3C404.956 248.986 405.454 249.555 406.1 249.9C406.834 250.433 407.5 250.633 408.1 250.5C408.7 250.5 409.134 250.233 409.4 249.7L409.6 248.9C409.6 248.567 409.434 248.233 409.1 247.9L407.5 246.1C406.367 245.033 405.7 244.1 405.5 243.3C405.355 242.783 405.316 242.242 405.385 241.709C405.454 241.177 405.629 240.663 405.9 240.2C406.297 239.598 406.85 239.114 407.5 238.8C408.191 238.494 408.953 238.39 409.7 238.5C410.625 238.656 411.509 238.996 412.3 239.5C413.834 240.5 414.734 241.533 415 242.6C415.189 243.161 415.251 243.757 415.182 244.345C415.113 244.933 414.914 245.498 414.6 246L412.1 244.6C412.434 243.933 412.5 243.367 412.3 242.9C412.034 242.233 411.6 241.767 411 241.5C410.454 241.089 409.783 240.878 409.1 240.9C408.936 240.911 408.777 240.963 408.638 241.05C408.498 241.137 408.382 241.257 408.3 241.4C408.1 241.667 408.067 242 408.2 242.4C408.4 242.933 408.967 243.667 409.9 244.6C410.9 245.6 411.567 246.4 411.9 247C412.29 247.631 412.496 248.358 412.496 249.1C412.496 249.842 412.29 250.569 411.9 251.2C411.479 251.906 410.85 252.464 410.1 252.8C409.35 253.145 408.512 253.25 407.7 253.1C406.671 252.926 405.686 252.552 404.8 252C403.507 251.311 402.512 250.173 402 248.8C401.786 248.142 401.712 247.447 401.78 246.758C401.849 246.07 402.06 245.403 402.4 244.8ZM388.2 241L395.5 229L404.3 234.5L403.1 236.5L396.7 232.5L395.1 235.2L401.1 238.9L399.8 240.9L393.8 237.2L391.8 240.5L398.5 244.5L397.3 246.5L388.2 241ZM367.5 224L368.6 222L374 224.7L371.5 229.7C370.7 229.9 369.7 229.967 368.5 229.9C367.346 229.782 366.225 229.443 365.2 228.9C363.998 228.299 362.966 227.405 362.2 226.3C361.512 225.265 361.163 224.042 361.2 222.8C361.264 221.509 361.605 220.247 362.2 219.1C362.801 217.897 363.695 216.866 364.8 216.1C365.851 215.357 367.113 214.971 368.4 215C369.334 215 370.4 215.333 371.6 216C373.2 216.733 374.234 217.667 374.7 218.8C375.22 219.892 375.327 221.135 375 222.3L372.3 221.5C372.465 220.83 372.395 220.124 372.1 219.5C371.834 218.9 371.3 218.433 370.5 218.1C370.03 217.845 369.513 217.687 368.981 217.636C368.448 217.584 367.911 217.64 367.4 217.8C366.4 218.133 365.534 219 364.8 220.4C364.067 221.8 363.834 223.067 364.1 224.2C364.255 224.714 364.513 225.191 364.856 225.603C365.2 226.016 365.623 226.355 366.1 226.6C366.634 226.933 367.2 227.1 367.8 227.1H369.6L370.4 225.5L367.5 224ZM277.3 201.7L279.3 187.7L283.5 188.4L284.6 198.2L288.5 189.2L292.7 189.8L290.7 203.6L288 203.2L289.7 192.3L285.3 202.8L282.6 202.4L281.5 191.1L279.9 202.1L277.3 201.7ZM263.2 200L264.5 186L274.8 187L274.6 189.4L267.1 188.7L266.8 191.7L273.8 192.4L273.5 194.8L266.5 194.1L266.2 197.9L274 198.6L273.8 201L263.2 200Z" fill="#309E3A" style="fill:#309E3A;fill:color(display-p3 0.1882 0.6196 0.2275);fill-opacity:1;"/>
<g id="Group_2">
<path id="Vector_9" d="M216.5 191.3C216.5 189.833 216.734 188.633 217.2 187.7C217.556 186.992 218.029 186.35 218.6 185.8C219.105 185.274 219.72 184.864 220.4 184.6C221.4 184.267 222.4 184.1 223.4 184.1C225.467 184.167 227.134 184.833 228.4 186.1C229.04 186.852 229.513 187.731 229.789 188.679C230.064 189.627 230.136 190.622 230 191.6C230 193.8 229.334 195.567 228 196.9C226.619 198.098 224.825 198.708 223 198.6C221.203 198.574 219.484 197.858 218.2 196.6C217.569 195.88 217.093 195.038 216.801 194.126C216.508 193.215 216.406 192.253 216.5 191.3Z" fill="#309E3A" style="fill:#309E3A;fill:color(display-p3 0.1882 0.6196 0.2275);fill-opacity:1;"/>
<path id="Vector_10" d="M219.4 191.3C219.4 192.833 219.734 194.033 220.4 194.9C221.067 195.767 222 196.2 223.2 196.2C224.241 196.212 225.246 195.817 226 195.1C226.667 194.3 227.034 193.067 227.1 191.4C227.167 189.8 226.834 188.6 226.1 187.8C225.403 187.033 224.435 186.567 223.4 186.5C222.345 186.515 221.339 186.946 220.6 187.7C219.867 188.5 219.467 189.7 219.4 191.3Z" fill="#F7FFFF" style="fill:#F7FFFF;fill:color(display-p3 0.9686 1.0000 1.0000);fill-opacity:1;"/>
</g>
<g id="Group_3">
<path id="Vector_11" d="M233 198.5L233.2 184.5H239.2C240.667 184.5 241.733 184.667 242.4 185C243.067 185.2 243.6 185.633 244 186.3C244.6 187.3 244.6 187.7 244.6 188.6C244.589 189.558 244.234 190.481 243.6 191.2C242.841 191.863 241.9 192.281 240.9 192.4L242.4 193.6C242.8 194 243.3 194.767 243.9 195.9L245.6 198.7H242.2L240.2 195.5L238.8 193.5L237.9 192.9L236.5 192.7H235.9V198.5H233Z" fill="#309E3A" style="fill:#309E3A;fill:color(display-p3 0.1882 0.6196 0.2275);fill-opacity:1;"/>
<path id="Vector_12" d="M236 190.5H238C239.4 190.5 240.267 190.433 240.6 190.3C240.933 190.233 241.2 190.067 241.4 189.8C241.667 189.4 241.767 189.067 241.7 188.8C241.7 188.2 241.567 187.8 241.3 187.6C241.1 187.333 240.767 187.133 240.3 187H238.3L236 186.9V190.5Z" fill="white" style="fill:white;fill-opacity:1;"/>
</g>
<g id="Group_4">
<path id="Vector_13" d="M249 185.2L254.2 185.5C255.333 185.5 256.2 185.6 256.8 185.8C257.572 186.094 258.259 186.575 258.8 187.2C259.376 187.899 259.786 188.72 260 189.6C260.266 190.533 260.366 191.633 260.3 192.9C260.305 193.921 260.135 194.936 259.8 195.9C259.4 196.9 258.833 197.7 258.1 198.3C257.517 198.78 256.833 199.122 256.1 199.3C255.433 199.5 254.6 199.567 253.6 199.5L248.3 199.2L249 185.2Z" fill="#309E3A" style="fill:#309E3A;fill:color(display-p3 0.1882 0.6196 0.2275);fill-opacity:1;"/>
<path id="Vector_14" d="M251.7 187.7L251.2 197H255C255.533 197 255.933 196.833 256.2 196.5C256.533 196.233 256.8 195.8 257 195.2C257.2 194.6 257.333 193.733 257.4 192.6L257.3 190.1C257.166 189.569 256.889 189.085 256.5 188.7L255.3 188L253 187.7H251.7Z" fill="white" style="fill:white;fill-opacity:1;"/>
</g>
<g id="Group_5">
<path id="Vector_15" d="M317.6 210.2L320.9 196.6L325.3 197.6L328.5 198.6C329.233 199 329.767 199.633 330.1 200.5C330.433 201.367 330.5 202.3 330.3 203.3C330.1 204.1 329.767 204.767 329.3 205.3C328.929 205.734 328.469 206.084 327.952 206.325C327.434 206.567 326.871 206.694 326.3 206.7C325.633 206.7 324.633 206.533 323.3 206.2L321.6 205.7L320.4 210.9L317.6 210.2Z" fill="#309E3A" style="fill:#309E3A;fill:color(display-p3 0.1882 0.6196 0.2275);fill-opacity:1;"/>
<path id="Vector_16" d="M323 199.6L322.2 203.4L323.7 203.8C324.767 204.067 325.5 204.167 325.9 204.1C326.284 204.033 326.64 203.855 326.924 203.589C327.208 203.322 327.409 202.979 327.5 202.6C327.5 202.133 327.434 201.7 327.3 201.3C327.081 200.894 326.727 200.576 326.3 200.4L324.4 199.9L323.1 199.6H323Z" fill="white" style="fill:white;fill-opacity:1;"/>
</g>
<g id="Group_6">
<path id="Vector_17" d="M330.6 214.1L335.3 200.9L340.8 202.9C342.267 203.433 343.267 203.9 343.8 204.3C344.333 204.767 344.667 205.367 344.8 206.1C345 207.2 345 207.6 344.8 208.4C344.4 209.4 343.8 210.133 343 210.6C342.2 211 341.2 211.1 340 210.9C340.4 211.367 340.733 211.9 341 212.5L341.8 215.2L342.4 218.3L339.3 217.2L338.3 213.6L337.6 211.2L337 210.4C336.8 210.133 336.367 209.9 335.7 209.7L335.2 209.5L333.2 215.1L330.6 214.1Z" fill="#309E3A" style="fill:#309E3A;fill:color(display-p3 0.1882 0.6196 0.2275);fill-opacity:1;"/>
<path id="Vector_18" d="M336 207.4L337.9 208.1C339.233 208.567 340.067 208.8 340.4 208.8C340.733 208.8 341.033 208.7 341.3 208.5C341.633 208.3 341.833 208 341.9 207.6C342.1 207.2 342.1 206.8 341.9 206.4C341.732 206.025 341.453 205.711 341.1 205.5L339.1 204.8L337.1 204.1L335.9 207.4H336Z" fill="white" style="fill:white;fill-opacity:1;"/>
</g>
<g id="Group_7">
<path id="Vector_19" d="M347 213.6C347.344 212.429 347.922 211.34 348.7 210.4C349.211 209.802 349.82 209.295 350.5 208.9L352.5 208.2C353.5 208.133 354.533 208.267 355.6 208.6C357.381 209.102 358.891 210.288 359.8 211.9C360.6 213.5 360.667 215.4 360 217.6C359.776 218.545 359.359 219.433 358.773 220.208C358.188 220.982 357.448 221.627 356.6 222.1C355.067 222.967 353.333 223.1 351.4 222.5C349.619 221.998 348.109 220.812 347.2 219.2C346.783 218.331 346.55 217.385 346.515 216.421C346.481 215.457 346.646 214.497 347 213.6Z" fill="#309E3A" style="fill:#309E3A;fill:color(display-p3 0.1882 0.6196 0.2275);fill-opacity:1;"/>
<path id="Vector_20" d="M349.8 214.4C349.334 215.933 349.334 217.2 349.8 218.2C350.5 219.7 351 219.8 352.1 220.2C353.1 220.533 354.1 220.4 355.1 219.8C356.034 219.267 356.734 218.2 357.2 216.6C357.734 215.133 357.734 213.9 357.2 212.9C356.751 211.975 355.963 211.259 355 210.9C353.999 210.605 352.923 210.712 352 211.2C351 211.733 350.267 212.8 349.8 214.4Z" fill="white" style="fill:white;fill-opacity:1;"/>
</g>
<g id="Group_8">
<path id="Vector_21" d="M374.3 233.1L380.7 220.7L386 223.4C386.999 223.879 387.911 224.521 388.7 225.3C389.233 225.767 389.5 226.4 389.5 227.2C389.5 228.4 389.5 228.7 389.1 229.4C388.699 230.288 387.988 230.999 387.1 231.4C386.1 231.667 385.066 231.6 384 231.2C384.4 231.867 384.666 232.433 384.8 232.9C385 233.5 385.133 234.433 385.2 235.7L385.4 238.9L382.4 237.4L382 233.7L381.7 231.2L381.2 230.2L380 229.5L379.5 229.2L376.8 234.4L374.3 233.1Z" fill="#309E3A" style="fill:#309E3A;fill:color(display-p3 0.1882 0.6196 0.2275);fill-opacity:1;"/>
<path id="Vector_22" d="M380.5 227.2L382.4 228.2C383.6 228.867 384.367 229.2 384.7 229.2C385.033 229.2 385.367 229.133 385.7 229C385.967 228.867 386.2 228.6 386.4 228.2C386.6 227.8 386.667 227.4 386.6 227L385.9 226L384.1 225L382.1 224L380.5 227.2Z" fill="white" style="fill:white;fill-opacity:1;"/>
</g>
<g id="Group_9">
<path id="Vector_23" d="M426.1 258.7C426.75 257.674 427.6 256.789 428.6 256.1C429.277 255.677 430.021 255.372 430.8 255.2C431.527 255.064 432.273 255.064 433 255.2C434 255.4 434.933 255.8 435.8 256.4C437.341 257.414 438.419 258.995 438.8 260.8C439.067 262.533 438.6 264.367 437.4 266.3C436.916 267.129 436.267 267.85 435.493 268.418C434.719 268.986 433.836 269.388 432.9 269.6C431.09 269.931 429.221 269.536 427.7 268.5C426.16 267.486 425.081 265.905 424.7 264.1C424.434 262.3 424.9 260.5 426.1 258.7Z" fill="#309E3A" style="fill:#309E3A;fill:color(display-p3 0.1882 0.6196 0.2275);fill-opacity:1;"/>
<path id="Vector_24" d="M428.6 260.3C427.667 261.633 427.3 262.833 427.5 263.9C427.693 264.908 428.266 265.803 429.1 266.4C430.1 267.067 431.1 267.267 432.1 267C433.1 266.733 434.067 265.933 435 264.6C435.934 263.2 436.3 262 436.1 261C435.9 260 435.367 259.133 434.5 258.4C433.1 257.3 432.5 257.6 431.5 257.9C430.5 258.1 429.5 258.9 428.5 260.3H428.6Z" fill="white" style="fill:white;fill-opacity:1;"/>
</g>
<path id="Vector_25" d="M301.8 204.5L304.1 194.7L311.3 196.4L311 198L305.7 196.8L305.2 199L310.1 200.1L309.7 201.8L304.8 200.6L304.2 203.3L309.7 204.6L309.3 206.2L301.8 204.5Z" fill="#309E3A" style="fill:#309E3A;fill:color(display-p3 0.1882 0.6196 0.2275);fill-opacity:1;"/>
</g>
</g>
<defs>
<clipPath id="clip0_2194_1656">
<rect width="640" height="480" fill="white" style="fill:white;fill-opacity:1;"/>
</clipPath>
</defs>
</svg>
