<svg width="640" height="480" viewBox="0 0 640 480" fill="none" xmlns="http://www.w3.org/2000/svg">
<g id="bt" clip-path="url(#clip0_2194_1700)">
<path id="Vector" d="M0.100098 0H640.2V480H0.100098V0Z" fill="#FFD520" style="fill:#FFD520;fill:color(display-p3 1.0000 0.8353 0.1255);fill-opacity:1;"/>
<path id="Vector_2" d="M0.100098 480H640.2V0L0.100098 480Z" fill="#FF4E12" style="fill:#FF4E12;fill:color(display-p3 1.0000 0.3059 0.0706);fill-opacity:1;"/>
<g id="Group">
<g id="Group_2">
<path id="Vector_3" d="M345.4 150C341.4 148.7 338.8 150.7 339 155.9C339 161 341.8 163.9 345.8 162L345.4 150Z" fill="white" stroke="black" style="fill:white;fill-opacity:1;stroke:black;stroke-opacity:1;" stroke-width="0.4"/>
<path id="Vector_4" d="M348.9 140.4C345.6 137.8 342.5 138.9 340.9 143.8C339.3 148.7 341 152.4 345.4 151.8L348.9 140.4Z" fill="white" stroke="black" style="fill:white;fill-opacity:1;stroke:black;stroke-opacity:1;" stroke-width="0.4"/>
<path id="Vector_5" d="M354.4 131C351.6 128 348.4 128.6 346 133.2C343.7 137.8 344.7 141.7 349.2 141.9L354.4 131ZM350.8 176.5C345.9 178.3 345.4 185 348.5 189.1C351.5 193.2 357.2 194 360.3 189.1L350.8 176.5Z" fill="white" stroke="black" style="fill:white;fill-opacity:1;stroke:black;stroke-opacity:1;" stroke-width="0.4"/>
<path id="Vector_6" d="M345.1 162.3C340.5 160.8 336.3 167 335.6 172.6C334.7 179.6 324.6 182 330.2 192.7C331.4 185.9 335.9 182.1 339.5 181.9C343.1 181.7 348.5 180.9 350.8 176.5L345.1 162.3ZM359.8 189.9C354.4 191.2 353.6 198.4 357.5 203.5C360.8 207.9 371.2 206.9 370.9 202.5L359.8 189.9ZM375.1 233.3C375.4 228.6 367.9 226.8 364.3 227.7C360.7 228.6 353.8 227.6 352.3 223.7C350.9 226.8 352.8 230.2 358 231.9C362 233.1 361.9 235.9 360.7 237.3C363.7 237.8 372.4 237.8 375.1 233.3Z" fill="white" stroke="black" style="fill:white;fill-opacity:1;stroke:black;stroke-opacity:1;" stroke-width="0.4"/>
<path id="Vector_7" d="M370.9 203.7C365.6 201.3 362.5 204.9 360.5 208.3C357.5 213.3 348.4 206.9 345.3 213.6C349.5 211.8 353.7 215.6 355.7 216.9C361.4 220.6 372.3 219.5 373.9 210.7L370.9 203.7Z" fill="white" stroke="black" style="fill:white;fill-opacity:1;stroke:black;stroke-opacity:1;" stroke-width="0.4"/>
<path id="Vector_8" d="M374 209.8C368.7 213.8 366.6 218.6 366.8 221.8C366.9 225 371.4 232.1 376.3 232.5C379.1 226.7 380.6 214.5 374 209.8ZM352 234.7C352 232.7 354.8 232 356.8 232.7C358.7 233.3 361.7 235.2 360.6 237.3L352 234.7ZM323 224C322.5 221.7 326.2 217.7 331.2 219.9C336.2 222.1 336.9 226.3 334.8 228L323 224Z" fill="white" stroke="black" style="fill:white;fill-opacity:1;stroke:black;stroke-opacity:1;" stroke-width="0.4"/>
<g id="Vector_9">
<path d="M335.2 228.4C334.8 227.1 338.5 224.5 344.6 226C350.8 227.6 352.3 231.6 352.1 234.7L335.2 228.4ZM322.3 224.1C325.6 221.7 324.3 217.1 321.4 215.6C316.2 213 318.1 206.4 314.7 205.1C311.4 203.8 308.2 201.5 308 199.1C306.4 202.4 307.4 205.3 309.7 207.4C312 209.4 307.9 217.8 310.9 220L322.3 224.1ZM253.3 222.3C250.6 218.1 244.2 218.8 241.5 221.8C238.8 224.8 239.2 229.1 241.7 231.1L253.3 222.3ZM268.8 216C267.8 210.3 260.9 209.7 257.2 211.1C253.4 212.5 250.9 218.2 253.3 222.3L268.8 216Z" fill="white" style="fill:white;fill-opacity:1;"/>
<path d="M253.3 222.3C250.6 218.1 244.2 218.8 241.5 221.8C238.8 224.8 239.2 229.1 241.7 231.1L253.3 222.3ZM253.3 222.3C250.9 218.2 253.4 212.5 257.2 211.1C260.9 209.7 267.8 210.3 268.8 216L253.3 222.3ZM335.2 228.4C334.8 227.1 338.5 224.5 344.6 226C350.8 227.6 352.3 231.6 352.1 234.7L335.2 228.4ZM322.3 224.1C325.6 221.7 324.3 217.1 321.4 215.6C316.2 213 318.1 206.4 314.7 205.1C311.4 203.8 308.2 201.5 308 199.1C306.4 202.4 307.4 205.3 309.7 207.4C312 209.4 307.9 217.8 310.9 220L322.3 224.1Z" stroke="black" style="stroke:black;stroke-opacity:1;" stroke-width="0.4"/>
</g>
<path id="Vector_10" d="M279 215.2C281.5 210.5 276.7 203.4 271.3 202.4C266.8 201.4 261.5 201.5 259.7 197.1C258.7 200.9 261.5 203.4 264.9 205.6C268.2 207.8 264.3 213.4 269.7 216.6L279 215.2Z" fill="white" stroke="black" style="fill:white;fill-opacity:1;stroke:black;stroke-opacity:1;" stroke-width="0.4"/>
<path id="Vector_11" d="M278.6 215.4C277.4 212 279.7 207.4 284.3 207.8C289 208.1 291.6 211.4 289.6 215.7L278.6 215.4Z" fill="white" stroke="black" style="fill:white;fill-opacity:1;stroke:black;stroke-opacity:1;" stroke-width="0.4"/>
<path id="Vector_12" d="M288.9 215.7C288.2 212.1 291.1 207.9 295.7 208.9C300.3 209.9 302.3 213.6 299.7 217.4L288.9 215.6V215.7Z" fill="white" stroke="black" style="fill:white;fill-opacity:1;stroke:black;stroke-opacity:1;" stroke-width="0.4"/>
<path id="Vector_13" d="M299 217.3C298.6 213.7 301.7 209.7 306.2 210.9C310.7 212.1 312.6 215.9 309.8 219.6L299.1 217.3H299ZM221.4 276.3C212.7 276.3 210.6 278.3 209.4 287.3C207.8 298.3 222.9 299.6 221.4 276.3Z" fill="white" stroke="black" style="fill:white;fill-opacity:1;stroke:black;stroke-opacity:1;" stroke-width="0.4"/>
<path id="Vector_14" d="M225.2 264.7C212 259.7 204.8 280.7 191.6 276.9C196.3 284.4 207.7 276.9 212 277.7C219.2 279 234.8 276.3 225.2 264.7ZM216.6 293.4C210 290.4 203 300.4 204.2 304.9C205.9 310.4 220.9 305.9 216.6 293.4ZM186 336.7C189.6 337.7 194 339.7 193.2 346.7C192.4 353.7 179.2 367.8 167.4 368.7C155.6 369.4 151.4 383.7 141.1 379.7C150.7 377.9 150.7 367.1 158.1 363.7C152.7 361.7 149.9 374 142.9 374C135.9 374 132.6 385.1 124.1 384.3C115.6 383.5 114.8 397.8 97.6998 398C84.6998 398.1 68.6998 413.3 62.7998 406.7C75.4998 404.9 80.5998 397.9 88.0998 390.2C100.1 377.9 113.8 383.4 118.5 372.5C113.091 376.119 106.707 378.003 100.2 377.9C92.1998 377.7 83.5998 390.5 74.6998 384.9C79.7998 384.2 83.1998 382 88.5998 376.3C94.0998 370.5 102.3 374.3 108.7 368.3C118.7 359.1 127.4 366.8 137 355.3C134.3 353.9 128.5 354.8 123.1 357.7C117.7 360.5 110.8 355.7 104.6 359.1C105.3 351.5 119.8 355.8 128.8 350.6C139 344.6 147.4 346.4 155.4 347.1C144.2 347.1 139.9 336.4 124.4 339.5C117.7 340.9 112.3 330.2 105.6 335.6C105.8 331.6 112.8 328.4 120 332.3C127.2 336.2 130.1 328.9 144.5 338C150.5 341.7 160.6 335.6 167 339.6C166.2 337.2 162.5 335.6 158.2 336C160.9 330.4 178.4 331.1 186 336.7Z" fill="white" stroke="black" style="fill:white;fill-opacity:1;stroke:black;stroke-opacity:1;" stroke-width="0.4"/>
<path id="Vector_15" d="M197.4 328.3C191.8 323.9 183.9 329.2 178.4 327.1C178.4 330.7 180.3 336.1 186.2 338.2C188 336.9 196.2 329.8 197.4 328.3Z" fill="white" stroke="black" style="fill:white;fill-opacity:1;stroke:black;stroke-opacity:1;" stroke-width="0.4"/>
<path id="Vector_16" d="M206.3 315.8C197.4 311.3 195.9 322.5 188.9 320.2C189.2 323.4 191.8 327.4 197.4 328.3L206.3 315.8Z" fill="white" stroke="black" style="fill:white;fill-opacity:1;stroke:black;stroke-opacity:1;" stroke-width="0.4"/>
<path id="Vector_17" d="M211.6 305.6C198.5 300.5 196.8 313.1 189.1 310.6C190.9 315 201.9 317.4 207.6 315.8L211.6 305.6ZM229.6 250.4C226.1 245.4 218.8 249.4 217.6 255.3C216.5 261.1 219.3 269.2 224.2 267.3L229.6 250.4Z" fill="white" stroke="black" style="fill:white;fill-opacity:1;stroke:black;stroke-opacity:1;" stroke-width="0.4"/>
<path id="Vector_18" d="M238.5 235C232.5 233.5 225.5 234.2 226.3 240C223.9 241.1 223.3 248.7 229.6 250.4L238.5 235Z" fill="white" stroke="black" style="fill:white;fill-opacity:1;stroke:black;stroke-opacity:1;" stroke-width="0.4"/>
<path id="Vector_19" d="M242.5 231C236.5 224 230 224.1 226.3 227C219.4 232.5 212.8 229.4 212.6 234.8C216.7 231.6 220.4 235.4 223.6 234.3C227 233.1 229.5 239.6 238.8 236.9L242.5 231ZM228.2 334.9C229.1 336.6 234.6 337.3 237.3 334.5C240.9 330.7 237 320.3 231.3 319.5C225.6 318.8 225.1 331.3 228.2 334.9Z" fill="white" stroke="black" style="fill:white;fill-opacity:1;stroke:black;stroke-opacity:1;" stroke-width="0.4"/>
<path id="Vector_20" d="M221.8 335.1C229.8 338.1 233.3 331.4 229 327.1C226.782 329.925 224.377 332.598 221.8 335.1Z" fill="white" stroke="black" style="fill:white;fill-opacity:1;stroke:black;stroke-opacity:1;" stroke-width="0.4"/>
<g id="Vector_21">
<path d="M191.4 346.2C189.8 350.9 181.8 351.6 172.8 366C163.8 380.4 155.2 374.4 153 384.3C163.8 375.6 172.3 381.3 178.8 372.7C188.5 359.6 196.6 361.5 200.4 352.7C205.8 340 229.4 340.3 230.8 320.4C222.8 318.9 197.5 340.3 191.4 346.2ZM394.6 151.5C404.9 154.9 405.1 168.2 417 172.6C428.9 177 430 187.6 439.7 185C430.7 182.5 431.3 172.1 421.9 169.5C410.9 166.5 406.7 149.7 397.9 147.1M441.9 221.4C443.7 225.6 443.4 232.9 436.9 234.8C440.4 237 445.6 235 448.4 230.2C444.2 239.6 447 248.1 453.7 249.8C450.5 243.2 457.7 240.1 455.4 235.8C459.6 237.7 463.4 243.5 463.2 247.1C468.8 240.9 459.2 232.6 460.9 226.8L441.9 221.4ZM375 287.6C368.7 282.1 366 289.1 363 286.6C360 284.4 356.2 284.1 354.7 286.3C360.1 286.5 357.5 290.7 368 291.7C357.5 292.4 359.4 304.2 352.4 303.6C359.8 310.6 363.7 297.3 369.8 299.5C368 300 372.6 304.2 369.4 309.9C374.6 309.8 376.7 302.6 377.4 298.9L375 287.6ZM236 347.8C233.8 345.8 227 344.9 224.5 346.5C221.9 348 222.8 348.5 225.9 348.7C229 348.9 232.9 353.9 226.3 354.2C223.2 354.3 224.3 361.8 217.8 362.3C220.4 365.5 228 363.4 230.7 359.9C230.2 362.8 234 365.4 232.5 368.9C237.2 369.4 234.5 359.2 242 359.7C239 360.1 240.2 367.1 245.6 365.3C242.4 366.8 244.1 370.6 247.6 369.7C245.4 370.4 244.6 373.4 247.8 375.1C250.9 370.8 247.4 355.6 236.1 347.8H236ZM516.6 205.7C519.056 205.884 521.524 205.559 523.849 204.745C526.175 203.932 528.307 202.647 530.112 200.971C531.918 199.296 533.358 197.266 534.344 195.008C535.329 192.75 535.837 190.313 535.837 187.85C535.837 185.387 535.329 182.95 534.344 180.692C533.358 178.434 531.918 176.404 530.112 174.729C528.307 173.053 526.175 171.768 523.849 170.955C521.524 170.141 519.056 169.816 516.6 170C512.097 170.337 507.887 172.364 504.816 175.675C501.744 178.985 500.037 183.334 500.037 187.85C500.037 192.366 501.744 196.715 504.816 200.025C507.887 203.336 512.097 205.363 516.6 205.7Z" fill="white" style="fill:white;fill-opacity:1;"/>
<path d="M394.6 151.5C404.9 154.9 405.1 168.2 417 172.6C428.9 177 430 187.6 439.7 185C430.7 182.5 431.3 172.1 421.9 169.5C410.9 166.5 406.7 149.7 397.9 147.1M191.4 346.2C189.8 350.9 181.8 351.6 172.8 366C163.8 380.4 155.2 374.4 153 384.3C163.8 375.6 172.3 381.3 178.8 372.7C188.5 359.6 196.6 361.5 200.4 352.7C205.8 340 229.4 340.3 230.8 320.4C222.8 318.9 197.5 340.3 191.4 346.2ZM441.9 221.4C443.7 225.6 443.4 232.9 436.9 234.8C440.4 237 445.6 235 448.4 230.2C444.2 239.6 447 248.1 453.7 249.8C450.5 243.2 457.7 240.1 455.4 235.8C459.6 237.7 463.4 243.5 463.2 247.1C468.8 240.9 459.2 232.6 460.9 226.8L441.9 221.4ZM375 287.6C368.7 282.1 366 289.1 363 286.6C360 284.4 356.2 284.1 354.7 286.3C360.1 286.5 357.5 290.7 368 291.7C357.5 292.4 359.4 304.2 352.4 303.6C359.8 310.6 363.7 297.3 369.8 299.5C368 300 372.6 304.2 369.4 309.9C374.6 309.8 376.7 302.6 377.4 298.9L375 287.6ZM236 347.8C233.8 345.8 227 344.9 224.5 346.5C221.9 348 222.8 348.5 225.9 348.7C229 348.9 232.9 353.9 226.3 354.2C223.2 354.3 224.3 361.8 217.8 362.3C220.4 365.5 228 363.4 230.7 359.9C230.2 362.8 234 365.4 232.5 368.9C237.2 369.4 234.5 359.2 242 359.7C239 360.1 240.2 367.1 245.6 365.3C242.4 366.8 244.1 370.6 247.6 369.7C245.4 370.4 244.6 373.4 247.8 375.1C250.9 370.8 247.4 355.6 236.1 347.8H236ZM516.6 205.7C519.056 205.884 521.524 205.559 523.849 204.745C526.175 203.932 528.307 202.647 530.112 200.971C531.918 199.296 533.358 197.266 534.344 195.008C535.329 192.75 535.837 190.313 535.837 187.85C535.837 185.387 535.329 182.95 534.344 180.692C533.358 178.434 531.918 176.404 530.112 174.729C528.307 173.053 526.175 171.768 523.849 170.955C521.524 170.141 519.056 169.816 516.6 170C512.097 170.337 507.887 172.364 504.816 175.675C501.744 178.985 500.037 183.334 500.037 187.85C500.037 192.366 501.744 196.715 504.816 200.025C507.887 203.336 512.097 205.363 516.6 205.7Z" stroke="black" style="stroke:black;stroke-opacity:1;" stroke-width="0.4"/>
</g>
<path id="Vector_22" d="M423.4 227.2C428.9 222.1 437.1 219.5 442.8 223.4C448.4 227.2 467.2 231.8 476.5 225.4C485.8 219 490.2 215.6 494.3 216.4C497.3 220.934 501.1 223.334 505.7 223.6C507.1 225.2 512.2 226.4 515 226.1C519.1 227.1 524.1 225.8 528.1 221.4C534.3 222.4 540.1 217.7 542.3 210.7C548.9 210 549.3 202.7 545.1 197.7C541.3 197 544.2 183.9 530.2 186.5C536.2 190.1 531.6 197.3 536.5 200.7C533.2 200.7 528.8 202.1 527.8 207.1C529.1 203.7 527.6 201.3 526.8 200.6C526.8 197.6 520.3 190.3 514.1 193C518.5 194 516.1 201 519.3 203.8C518.084 203.842 516.893 204.162 515.818 204.733C514.744 205.305 513.814 206.115 513.1 207.1C511.4 204.1 505.5 201.1 501.9 200.8C501.9 199.8 501.7 197.8 501.2 196.7C499.6 193.6 498.2 189.9 498.9 185.2C495.975 188.643 493.552 192.48 491.7 196.6C486.8 193.2 474.7 198.1 469 199.4C463.3 200.7 444.3 197.6 440 193C433.884 188.101 426.683 184.741 419 183.2C408 180 408 168 395.9 159.7C395.6 174.7 418.3 222.1 423.4 227.2ZM297.2 341.1C301.788 341.1 306.188 339.278 309.433 336.033C312.677 332.789 314.5 328.388 314.5 323.8C314.5 319.212 312.677 314.812 309.433 311.567C306.188 308.323 301.788 306.5 297.2 306.5C292.612 306.5 288.211 308.323 284.967 311.567C281.723 314.812 279.9 319.212 279.9 323.8C279.9 328.388 281.723 332.789 284.967 336.033C288.211 339.278 292.612 341.1 297.2 341.1Z" fill="white" stroke="black" style="fill:white;fill-opacity:1;stroke:black;stroke-opacity:1;" stroke-width="0.4"/>
<g id="Vector_23">
<path d="M256 327.8C259.5 332.3 265.4 332 267.9 331.7C269.9 337.1 276.5 336.9 279.3 339.9C282.1 342.9 291.8 342.6 294.6 340.9C292.1 340.7 288.7 339.1 285.6 336.4C281.6 333.2 283.4 326.6 280.4 324.4C281.344 323.198 282.027 321.813 282.406 320.332C282.785 318.851 282.851 317.308 282.6 315.8C285 314.4 286.8 312.1 287 310.9C290.588 310.727 293.994 309.272 296.6 306.8C298.8 308.8 304.3 306.2 307.3 309.6C307.9 301.1 299.8 296.6 294.3 299.5C292.2 298.3 286.4 299.1 285.3 300.6C283.6 299.8 278.5 302.4 276.3 304.1C278.8 302.7 279.2 298.4 278.2 296.9C280.4 295.9 282.8 293 283.1 290.9C286.1 291.4 290.8 289.3 292.8 289.8C289.5 285.4 284 283.8 278.3 284.3C272.4 284.6 269.9 288.7 269.1 293.1C265.7 295.2 264.5 302.1 265.8 304.6C263.8 304.6 261.9 306.5 261.2 307.6C258.211 306.377 255.028 305.699 251.8 305.6M253.1 298.6C251.9 295.2 253.4 292.2 254.2 289.6C256.2 282.8 255 281 248.9 281.9C249.259 287.678 250.683 293.34 253.1 298.6Z" fill="white" style="fill:white;fill-opacity:1;"/>
<path d="M256 327.8C259.5 332.3 265.4 332 267.9 331.7C269.9 337.1 276.5 336.9 279.3 339.9C282.1 342.9 291.8 342.6 294.6 340.9C292.1 340.7 288.7 339.1 285.6 336.4C281.6 333.2 283.4 326.6 280.4 324.4C281.344 323.198 282.027 321.813 282.406 320.332C282.785 318.851 282.851 317.308 282.6 315.8C285 314.4 286.8 312.1 287 310.9C290.588 310.727 293.994 309.272 296.6 306.8C298.8 308.8 304.3 306.2 307.3 309.6C307.9 301.1 299.8 296.6 294.3 299.5C292.2 298.3 286.4 299.1 285.3 300.6C283.6 299.8 278.5 302.4 276.3 304.1C278.8 302.7 279.2 298.4 278.2 296.9C280.4 295.9 282.8 293 283.1 290.9C286.1 291.4 290.8 289.3 292.8 289.8C289.5 285.4 284 283.8 278.3 284.3C272.4 284.6 269.9 288.7 269.1 293.1C265.7 295.2 264.5 302.1 265.8 304.6C263.8 304.6 261.9 306.5 261.2 307.6C258.211 306.377 255.028 305.699 251.8 305.6M253.1 298.6C251.9 295.2 253.4 292.2 254.2 289.6C256.2 282.8 255 281 248.9 281.9C249.259 287.678 250.683 293.34 253.1 298.6Z" stroke="black" style="stroke:black;stroke-opacity:1;" stroke-width="0.4"/>
</g>
<path id="Vector_24" d="M248.6 282.3C250.2 283.9 255.6 284.6 256.2 279.7C256.9 274.1 254.6 271.9 249.7 274.1C249.3 275.4 248.9 280.6 248.7 282.3H248.6Z" fill="white" stroke="black" style="fill:white;fill-opacity:1;stroke:black;stroke-opacity:1;" stroke-width="0.4"/>
<path id="Vector_25" d="M249.8 273.9C251.8 274.7 256.3 276.4 258.8 271.6C260.8 267.6 258.1 264.6 253.8 264.8C252.8 266 250.8 270.1 249.8 273.9Z" fill="white" stroke="black" style="fill:white;fill-opacity:1;stroke:black;stroke-opacity:1;" stroke-width="0.4"/>
<path id="Vector_26" d="M253.6 264.4C254.1 266 259.4 271.1 263.2 267.4C267.1 263.7 267.1 258.1 261.3 256.1C259.8 256.3 255.1 261.7 253.6 264.4Z" fill="white" stroke="black" style="fill:white;fill-opacity:1;stroke:black;stroke-opacity:1;" stroke-width="0.4"/>
<path id="Vector_27" d="M261.3 256C262.4 259.3 266.1 264.8 272.8 262.3C279.5 259.8 276.6 251.3 273.5 249.6C269.02 250.881 264.862 253.096 261.3 256.1V256Z" fill="white" stroke="black" style="fill:white;fill-opacity:1;stroke:black;stroke-opacity:1;" stroke-width="0.4"/>
<path id="Vector_28" d="M273.5 249.6C273 252.5 273.5 260.2 282.7 260.1C291.8 259.9 289.3 249.2 286.9 247.7C283.2 247.7 276.9 247.8 273.5 249.7V249.6Z" fill="white" stroke="black" style="fill:white;fill-opacity:1;stroke:black;stroke-opacity:1;" stroke-width="0.4"/>
<path id="Vector_29" d="M287.3 248C286.3 250.3 284 264.7 301.9 260.7C304.2 260.2 310.2 246.9 287.3 248.1V248Z" fill="white" stroke="black" style="fill:white;fill-opacity:1;stroke:black;stroke-opacity:1;" stroke-width="0.4"/>
<path id="Vector_30" d="M297.1 249.4C295.3 251.2 299.9 265.7 312.1 263.3C324.1 260.8 314 247 297.1 249.3V249.4Z" fill="white" stroke="black" style="fill:white;fill-opacity:1;stroke:black;stroke-opacity:1;" stroke-width="0.4"/>
<path id="Vector_31" d="M307.4 251.6C305.4 255.6 308.4 267.4 323.3 267.4C336.8 267.4 322.6 251.8 307.4 251.6Z" fill="white" stroke="black" style="fill:white;fill-opacity:1;stroke:black;stroke-opacity:1;" stroke-width="0.4"/>
<path id="Vector_32" d="M319.1 255C318.1 257.3 317 269.8 334.6 270.9C347.3 271.7 344.2 253.6 319.1 255Z" fill="white" stroke="black" style="fill:white;fill-opacity:1;stroke:black;stroke-opacity:1;" stroke-width="0.4"/>
<path id="Vector_33" d="M338 260.3C335.9 264.2 333.6 273.8 352.9 274.6C365.2 275.1 357.6 260.6 338.1 260.3H338Z" fill="white" stroke="black" style="fill:white;fill-opacity:1;stroke:black;stroke-opacity:1;" stroke-width="0.4"/>
<path id="Vector_34" d="M354.1 263.3C351.3 267.1 353.4 274.7 360.6 276.1C369.6 277.9 370.9 269.4 364.7 265.3C358.5 261.3 354.1 263.3 354.1 263.3Z" fill="white" stroke="black" style="fill:white;fill-opacity:1;stroke:black;stroke-opacity:1;" stroke-width="0.4"/>
<path id="Vector_35" d="M363 265C360.9 268.7 362.1 277.4 375.8 277.4C378.6 277.4 389.4 266.4 362.9 265.1L363 265ZM257.1 433C262.404 433 267.491 430.893 271.242 427.142C274.992 423.391 277.1 418.304 277.1 413C277.1 407.696 274.992 402.609 271.242 398.858C267.491 395.107 262.404 393 257.1 393C251.795 393 246.708 395.107 242.957 398.858C239.207 402.609 237.1 407.696 237.1 413C237.1 418.304 239.207 423.391 242.957 427.142C246.708 430.893 251.795 433 257.1 433Z" fill="white" stroke="black" style="fill:white;fill-opacity:1;stroke:black;stroke-opacity:1;" stroke-width="0.4"/>
<path id="Vector_36" d="M404.1 141.7C401.939 144.105 400.122 146.797 398.7 149.7C392 169.7 409.9 184.7 420.3 206.4C424.578 216.165 426.309 226.856 425.33 237.473C424.35 248.089 420.693 258.283 414.7 267.1C410.3 272.9 411.6 274.6 405.9 280.5C403.7 282.8 401.3 285.7 402.1 293.9C405.7 292.6 410.8 295.9 411.8 298.9C414.4 297.5 418 298 419.3 299.6C423.7 297.6 427.3 298.6 431.2 302.6C434.5 302.2 438.2 302.6 441.5 306.3C443.3 302.7 446.9 301.3 449.5 302.2C449.2 297.5 453.8 294.2 457.9 296C457.579 294.68 457.618 293.298 458.013 291.998C458.408 290.698 459.144 289.528 460.144 288.609C461.145 287.69 462.374 287.056 463.702 286.773C465.031 286.49 466.411 286.568 467.7 287C472.4 283.4 481.7 283.1 486.3 288.5C478 286.2 478.3 295 471.3 294.2C473.1 299.3 468.5 302.3 463.9 304C466.9 302.6 470.1 300.9 471.1 302.7C473.7 300.4 478.8 301.3 480.1 302.4C483.5 301.4 486.8 302.2 488.3 306.3C493 309.1 496.1 316.3 492.7 321.7C491.7 316.1 487.8 316.3 486.3 314C482.7 315.3 479.1 315.3 478 313C476 315 469 316.9 466 313.8C464.8 318.4 460.8 322.3 456.1 322.3C457.4 325.9 453.8 332 451 335.1C455.4 337.4 454 342.6 453 345.7C459.8 346.7 454 352.7 465.7 356.5C460 358.3 448.9 356.5 447.4 349.5C441.7 349.3 437.9 343.6 438.1 337.7C433.7 333.6 433.1 327.7 439.1 323.5C434 325.1 431.1 316.8 423.7 320.2C420 321.9 410.2 319 410.3 315.6C408.8 318.1 399.3 317.1 398.1 312.7C395 314.4 387.8 311.6 387.9 307.3C383.9 309.1 378.5 305.9 378.8 301.8C375 301.3 374.6 297.9 374.8 295.1C371.5 293.5 372.4 290.3 373.8 286.5C371.4 283.9 372.4 280.3 374.2 276.9C371.7 274.3 372.2 271.3 372.9 267.6C360.6 266.6 345.1 263.6 309.6 252.7C256 236.2 241.6 274.9 253.4 299.1C267.1 327.1 251.9 333.1 256.5 353.9C261.5 354.9 264 359.1 263.7 363.5C266.7 363.6 268.7 366.3 267.7 371.5C269.058 371.277 270.449 371.368 271.767 371.767C273.085 372.165 274.293 372.861 275.3 373.8C277.1 370.4 283.1 369.6 286.1 373.5C292.8 373 296.2 378.5 295.9 385.1C297.514 388.126 298.231 391.55 297.965 394.969C297.699 398.388 296.462 401.66 294.4 404.4C294.8 401.7 294.4 397.9 294.3 395.5C294 391.3 288.1 390.4 288.7 386.9C285.7 387.2 282.7 385.5 281.7 383.2C280.797 383.954 279.72 384.468 278.566 384.695C277.413 384.922 276.22 384.855 275.1 384.5C278.5 386 281.3 392.2 280.2 396.3C282 399.4 281.6 405.1 279.5 407.5C278.5 412.5 274.5 414.3 269.5 412.1C272.4 410.3 273.4 407.1 273.3 404.4C271.612 402.713 270.584 400.479 270.4 398.1C265.4 398.9 258.4 394.6 257.2 392.9C254.565 392.9 251.956 393.421 249.523 394.432C247.09 395.443 244.881 396.926 243.022 398.793C241.164 400.661 239.692 402.878 238.693 405.316C237.694 407.754 237.186 410.365 237.2 413C236.6 408.9 231.4 404.8 232.1 401.3C229 391.8 233.4 382.9 246 381.1C244.4 377.5 249.8 373.8 247.8 369.7C243.784 362.396 238.843 355.641 233.1 349.6C237.5 342.1 236.1 332.1 233.6 325.9C229.9 317 226.4 319.2 213.3 333.6C191.9 357.1 163.3 350.6 138.1 366.1C131.4 370.1 124.7 371.7 131.9 364.5C139.1 357.3 158.1 350.1 170.5 343.9C193.7 332.3 213.3 313 221 275.4C239.1 187 306 216.2 348.2 232.6C387.9 248.1 380.7 213.1 360.6 191.9C336.4 166.6 341.3 146.6 352.6 130.6C372.9 127.8 412 134.9 404.1 141.7Z" fill="white" stroke="black" style="fill:white;fill-opacity:1;stroke:black;stroke-opacity:1;" stroke-width="0.4"/>
<path id="Vector_37" d="M475.9 358.8C478.796 358.8 481.663 358.23 484.338 357.122C487.013 356.014 489.444 354.389 491.492 352.342C493.539 350.294 495.163 347.864 496.271 345.188C497.38 342.513 497.95 339.646 497.95 336.75C497.95 333.855 497.38 330.987 496.271 328.312C495.163 325.637 493.539 323.206 491.492 321.158C489.444 319.111 487.013 317.487 484.338 316.379C481.663 315.271 478.796 314.7 475.9 314.7C470.065 314.7 464.469 317.018 460.344 321.144C456.218 325.27 453.9 330.865 453.9 336.7C453.9 342.535 456.218 348.131 460.344 352.257C464.469 356.382 470.065 358.7 475.9 358.7V358.8Z" fill="white" stroke="black" style="fill:white;fill-opacity:1;stroke:black;stroke-opacity:1;" stroke-width="0.4"/>
</g>
<g id="Group_3">
<path id="Vector_38" d="M391.8 142.7C386.8 164.4 391 174.2 398.2 183.7C413.1 203.4 425 248.3 408 277.7" stroke="black" style="stroke:black;stroke-opacity:1;" stroke-width="0.4"/>
<g id="Group_4">
<path id="Vector_39" d="M417.5 252.3C419.5 251.6 423.499 249.1 424.299 244.9M419.1 242.9C419.7 239.2 425.5 237.6 425.6 233.6M419.2 228.4C418.8 224.5 425 221 424.1 217.2M415.799 214.5C415.299 212.3 421 208.2 419.4 204.7M411.6 200.9C410.4 198.5 414.3 195.7 412.6 193.1M405.4 190.1C405 188.5 407.4 184.8 406.1 182.6M399.2 177.4C399.7 176.7 401.8 175.2 401 173.3M395 168C395.8 167.6 398.3 166.8 398 165" stroke="black" style="stroke:black;stroke-opacity:1;" stroke-width="0.4" stroke-linecap="round"/>
<path id="Vector_40" d="M266 410.9C261 409.1 254.5 411.6 253.2 416M257.1 420C257.7 415.6 264.4 413.7 266.4 415.7C262.2 413.4 260.1 421.7 263.9 421.9M298.5 318.1C295.5 319.7 294.5 325.3 298.5 329.6M303.1 319.4C301 321.2 301.1 326.6 304.3 327.9C301.6 325.9 304.3 322.6 306.3 322.5C308.2 322.4 309.5 324.7 307.1 327M484.1 332.2C476.9 330.2 471.1 338.6 477.7 346.1C477.5 338.9 482.7 334.1 489 335.4M486 340.4C485.284 340.4 484.597 340.685 484.091 341.191C483.584 341.697 483.3 342.384 483.3 343.1C483.3 344.5 484.5 345.9 486.5 345.9C487.8 345.9 488.9 344.4 488.9 343.2M511.5 182.2C512.7 186.6 518.7 188.5 523.5 187.4M523.5 184.6C519.8 184.7 516.7 181.2 516.9 178.3C516.9 180.5 521.9 181.5 523.5 180.1" stroke="black" style="stroke:black;stroke-opacity:1;" stroke-width="0.4" stroke-linecap="round" stroke-linejoin="round"/>
<path id="Vector_41" d="M267.9 331.7C266.9 329.1 270.9 326.5 271.1 324.1C271.2 321.6 275.7 319.7 280.4 324.3M278.2 296.9L275.7 298.1M287.1 310.9C286 310.9 283.7 310.9 282.5 310M282.5 315.8C281.7 316.3 279.7 317 278.5 317.3M238.4 393.6C238.2 395.9 240.6 399.3 241.8 400.3M248.4 388.1C247.691 389.218 247.211 390.465 246.988 391.77C246.765 393.074 246.803 394.41 247.1 395.7M267.6 395.7C265.3 394.2 266.8 390.3 266.6 387.7C266.3 385.1 269.3 381 275.1 384.5M246 381C248.3 380.6 250.7 380.7 252.3 381.4M275.3 373.7C274.482 374.883 273.998 376.265 273.9 377.7M286.2 373.4C284.4 373.4 282.8 374.7 282 376M261.2 307.5C263.2 308.2 268.6 311.5 268.8 314.9M283.1 290.7C276.8 290.6 274.3 284.2 279.1 284.2M294.4 299.4C292 300.4 293.1 304.6 296.6 306.7M279.3 339.8C278.1 338.2 279.7 333.8 283.7 335.1M288.7 386.8C289 382.8 293.9 380.6 295.9 385M270.4 398C270.1 393.7 272.4 392.3 274.2 392C276.2 391.8 278.9 393.4 280.2 396.2M232.1 401.2C232.3 398.6 234.5 395.9 236.8 396.3M467.8 286.9C466.1 288.1 465 293.6 471.3 294.1M458 296C458 296.6 458.8 297.5 459.3 298M488.3 306.3C486.7 305 482.3 310.3 486.3 314M447.3 349.6C446.4 345.9 449.8 344.9 453.1 345.7M439.1 323.5C441.1 322.3 443.1 320.8 445.5 320.2M438.1 337.7C438.1 334.7 439.7 332 441.1 331.3M449.5 302.2C449.349 305.439 450.186 308.647 451.9 311.4M480.1 302.4C478.1 302.867 476.7 303.833 475.9 305.3M478 313C479.066 312.133 479.866 311.367 480.4 310.7M526.7 200.5C526.7 204.1 522.2 206.1 519.2 203.8M536.5 200.7C538.5 202.2 545.4 200.7 543.8 196.7M528 221.4C526.129 220.852 524.438 219.816 523.1 218.4M542.2 210.7C539.9 211.2 538.3 210.7 537.2 210.2M505.6 223.6C507.851 223.503 510.06 222.959 512.1 222M502 200.8C500.333 200.6 499.033 200.867 498.1 201.6M527.9 207.1C527.401 209.078 526.362 210.878 524.9 212.3" stroke="black" style="stroke:black;stroke-opacity:1;" stroke-width="0.4" stroke-linecap="round"/>
<path id="Vector_42" d="M497.5 212.8C500.7 211.4 504.7 222.3 512.5 218.5M513.099 207.1C512.002 208.769 511.38 210.705 511.299 212.7" stroke="black" style="stroke:black;stroke-opacity:1;" stroke-width="0.4" stroke-linecap="round" stroke-linejoin="round"/>
</g>
<path id="Vector_43" d="M359 190.4C360 190.2 361.899 189.9 362.299 188.6M226.5 310.3C230.4 312.5 233.1 316.2 231.5 321.7M403.6 178.5C404.8 179.3 409.1 179.3 411.6 178.5M414.6 181.1C414.6 182.9 415.1 189.7 411.6 191.1M412.9 190.3C416.1 191.3 422.5 190.9 424.6 185M420.1 190C421.8 192.6 422.299 197.6 417.299 200.3M421.299 194.3C425.099 195.5 433.699 195.7 432.799 188.3M429.799 194.3C432.499 197.8 443.8 202.1 442 194.6M419.5 204.6C423.8 205.7 430 202.7 427.5 195M439.799 198.9C440.399 201.9 454.8 204.9 452.9 198.2M450.2 202.1C452.9 208.3 467.2 207.8 462.7 199.5M460.4 206C463.2 209.4 475.899 207.4 470.799 199M470.7 205.8C478.6 211.8 487.7 203.3 477.7 197.1M482.299 203.9C489.299 209.4 497.8 199.4 491.7 196.6M427.299 201.6C429.499 202.2 434.1 202 435.2 198M433.4 200.7C433.2 206.5 443 208.7 445.5 202M442.2 205.7C444 209.6 452.7 211.1 454.1 205.6M452.7 208.2C454.1 212 461.6 211.6 463.7 207.6M460.9 210.2C463.2 215.2 472.8 215.2 474.9 207.9M473.299 211.1C476.999 213.4 484.999 212.5 484.299 205.3M482.799 210.5C488.399 215 496.199 210.6 492.299 203M492 216.4C495 215.9 496.5 210 493.4 208.4M423.4 217.4C429.4 214.1 430.7 208.4 426.4 202.9M428.6 211.8C432.5 214.1 439.8 211.6 441.1 206M433.9 212.4C436.1 215.2 436.5 218.7 433.6 221.9M435.6 216C442.5 211.8 451 219.6 444.6 224.4M443.6 215.6C445.1 215.2 447.8 212.4 448 209.2M446.6 218.6C449.5 215.6 468.8 221.6 456.6 227.9M455.6 210.5C459.4 211.9 461.3 217.2 455.6 219M460.6 223.4C464.6 219.1 477.6 221.8 472.9 227.2M469.799 221.7C472.099 213.8 485.9 218.7 481.4 221.9M467 213.9C467.4 215.4 467.5 219.2 465 221.3M478.6 212.3C478.886 213.185 478.963 214.124 478.824 215.044C478.685 215.964 478.335 216.839 477.799 217.6M487.299 212.4C488.099 213.8 489.3 216.5 486.5 218.7M377.1 153.2C377.2 160.5 379.8 165.4 389.7 160.8M380.2 161.9C375.2 168.5 380.8 175.6 390.5 168.5M365 165C371.7 172.2 383.7 167 376 156M384 171.2C382.8 178.3 388.599 179.7 393.299 176.5M359.1 166.2C360.3 173.3 367.6 178.9 374.7 174.6M367.799 176C367.799 186.2 381.8 187.3 385.1 176.8M380.1 183.2C384.6 192.5 394.4 188.7 397.6 183.1M370.2 168.4C372 172.9 375.6 177.9 383.9 174.2M344.4 166.2C345.6 169.9 352.3 174.4 360 169.2M349.2 171C345 177 353.2 182.7 363.2 173.7M354.1 178.4C355.7 186.9 359.1 193.8 371.1 182.8M365.1 187.2C369.5 192.6 376.2 195.9 382.5 186.8" stroke="black" style="stroke:black;stroke-opacity:1;" stroke-width="0.4"/>
<path id="Vector_44" d="M387.3 188.8C386.9 195.3 388.1 198.5 393.2 198.2C397.2 198 400.9 194.9 403.1 191.5M392.3 198.2C392.1 205.6 397.9 211.4 408.8 203.9M396.8 206.9C394.8 212.4 400.9 221.4 413 216.8M371.1 192.2C370.4 199.2 376.9 204 387.5 194.9M376.3 200C376.7 205.8 383.3 212.8 392.9 202.7M380.9 207.4C380.2 217.3 389.3 220.1 397 212.5M367.2 200C369.2 200.2 370.9 198.4 371.9 197M371.5 207.2C373.3 207.6 376.5 206 377.5 203.9M376.1 218.9C378.1 221.2 385.1 219.6 386 216.6M383.8 218.8C387.6 227.8 397.9 227.5 402.2 217.3M400.2 220.9C402.2 226.2 407.1 229.5 415.1 227.7M404.1 226.3C399.6 233.6 405.5 242.3 415.6 233.8M406.6 237.3C406.1 241.9 410.3 247.2 416.1 247.8M387.5 223.8C386 234.2 393.5 239.2 402.8 233.6M376.6 228.8C379 230.7 383.4 230.9 387.6 229.4M392.6 235.4C390.2 244.2 399.2 250.5 406.9 240.7M380 230.2C380.2 234.7 384.5 239.6 392.1 238.2M413.4 247.2C408.2 250.6 407.2 256.8 414.4 260.8M400.8 245.4C401 250.6 403.5 253.6 409.3 254.1M393.2 242.7C385.4 249.7 393 258 402.2 251M398.6 253.2C396 261.3 405.6 266.2 410.8 258M382.6 236C379.8 244 383.4 249.2 390 248.7M372.4 234.4C372.8 239.2 376.9 240.9 381.6 239.8M375.4 239.4C371.9 246.1 377.2 249.7 384.2 247.2M405.2 262.2C404.2 266.4 404.8 269.4 411.1 270.9M405.7 268.2C398.1 271.6 397.4 279 403.3 283.7M399.5 260C398.59 260.796 397.884 261.796 397.438 262.92C396.993 264.043 396.822 265.256 396.939 266.458C397.057 267.661 397.459 268.818 398.113 269.834C398.767 270.85 399.654 271.695 400.7 272.3M365.7 236.5C361.4 240.8 365.5 252.7 375.2 246.2M390.9 251.5C384.9 256.5 387.6 265.3 397.4 262.9M381.1 247.9C378 256.6 380.9 259.7 387.9 259.8" stroke="black" style="stroke:black;stroke-opacity:1;" stroke-width="0.4"/>
<path id="Vector_45" d="M359.3 236.1C358.341 236.757 357.533 237.611 356.93 238.604C356.326 239.598 355.941 240.708 355.799 241.862C355.657 243.015 355.762 244.186 356.107 245.296C356.452 246.406 357.029 247.43 357.8 248.3C360.1 250.9 364.5 249.7 365.8 246.4M348.2 232.6C342.3 240.2 348.2 249.2 356.6 246.6M379.9 255.2C373.9 257.3 369.2 262.8 372.9 267.7C375.2 270.5 384.7 270.9 387.4 259.9M369 248.1C365.5 253.1 366.6 257.9 373 260.3M368.6 257.5C364.8 259.5 362.4 262 363.3 266.5M360.2 249.6C358.8 255.6 360.5 259.4 364.2 261.2M360.1 256.8C354.3 256.4 351.3 258.8 353.3 264.6M353.8 258.2C348.1 256.2 347.2 251.2 349.7 246.2M348.9 253.8C342.7 254 339.9 257.1 339.9 261.3" stroke="black" style="stroke:black;stroke-opacity:1;" stroke-width="0.4"/>
<path id="Vector_46" d="M340.499 229.7C335.999 231.6 334.499 237.7 336.199 241C337.899 244.3 343.199 244.6 346.399 242.4M327.999 224.9C323.899 229.5 328.599 238.6 335.999 236.4M317.399 221.3C313.599 226.7 317.799 235.7 327.699 233.1M328.199 258.2C327.199 251.8 333.899 247.6 342.199 255.9M338.199 242.9C337.015 243.954 336.098 245.274 335.524 246.752C334.951 248.23 334.736 249.823 334.899 251.4M306.899 218.2C302.599 225.4 307.799 232 316.899 229.4M330.699 236.1C324.699 242.1 326.699 248.2 331.199 251.7M326.799 243.2C317.699 243.3 317.199 253.9 324.599 257.2M319.899 232.6C316.099 235.2 314.899 242.3 321.399 245.1M319.599 248.5C315.699 246.7 311.099 248.9 311.499 253.4M313.799 248.6C310.299 240.4 300.199 241.8 301.099 250.3M316.599 238.4C314.499 238.8 310.099 240.1 308.399 243.4M308.999 229.1C308.195 229.93 307.609 230.946 307.293 232.058C306.977 233.17 306.941 234.342 307.188 235.471C307.436 236.6 307.959 237.65 308.712 238.528C309.464 239.405 310.422 240.083 311.499 240.5M296.699 216C295.899 221.6 298.099 224.3 305.099 223.8M299.099 223.1C296.499 229.8 300.099 232.8 307.099 232.4M300.699 231.4C296.599 236.3 299.399 241.5 303.399 243.7M298.799 237.6C291.399 236.6 290.299 245.2 292.799 249.1" stroke="black" style="stroke:black;stroke-opacity:1;" stroke-width="0.4"/>
<path id="Vector_47" d="M292.9 215.5C288.4 217.5 285.8 223.1 288.2 226.5C290.7 230 295.6 228.9 298.2 227.1M289.8 228.1C286 233.8 289.4 238.1 293.4 239.7" stroke="black" style="stroke:black;stroke-opacity:1;" stroke-width="0.4"/>
<path id="Vector_48" d="M275.3 214.8C272.3 217.9 274.2 224.2 281.3 224.4C287.2 224.4 290.1 219 288.3 215.1M280.3 224.4C278 229.5 279.5 235.1 288.3 234.2M291.9 242.2C286.6 239.8 279.3 242.2 282.4 248.7M281.7 233.1C279.5 236.2 280.2 240.6 282.7 243.3M281.3 241.3C277.7 242 274.2 243.9 276.3 249.6M275.8 245C271.2 243.6 265.3 247 268.8 251.7M268.1 247.2C264.1 246.5 259.4 250.8 263.2 255M261.7 251.5C258.1 252.5 253.8 256.5 257.6 259.8M279.9 231.3C274.7 233.6 274.2 239.4 276.6 243.7M274.4 220.7C266.7 223.7 266.8 233.9 275.4 237.1M271.7 234.8C267.1 237.5 266.2 242.7 269.3 246M263.6 216.8C260.6 217.8 260.8 227.3 269 227.1M255.1 220C248.9 224.1 256.4 234.5 266.4 227M260.9 229.7C260 233.9 261.2 238.5 268 239.1M261.3 235.3C256.4 237.1 255.5 247.2 264.3 248M245.7 226.2C239.4 232 250.9 237 255.1 228.6M237 235.8C233.9 239.6 244.7 249.4 249.5 233M250.6 232.7C250.866 236.7 253.3 238.867 257.9 239.2M257.9 242.9C250.2 244.1 247.8 253.6 256.3 255.7M243.8 241.7C243.5 245.2 247.3 248.2 251.5 247.6M255.4 255.4C248.4 257 247.5 266 253.7 265.4M250.5 273.8C244.7 272.1 244.5 265.2 249.7 262.6" stroke="black" style="stroke:black;stroke-opacity:1;" stroke-width="0.4"/>
<path id="Vector_49" d="M245.7 267.8C240.8 270.8 242.7 277.8 245.3 278.8C247.9 279.8 250 278.6 250.3 276.4M249.8 286.4C250.4 289.7 237.9 288.4 244.3 278M244.3 286.9C240.1 293.5 246.9 298.9 251.2 293.2M244.8 294.8C243.1 300.1 249.5 303.9 253.6 299.8M231 245.4C228.7 250.1 240.3 251.9 241 242.1M227.8 252.4C225.5 261.7 243 259.8 238.5 247.8M238.9 254C240.063 254.545 241.338 254.808 242.621 254.77C243.905 254.732 245.162 254.393 246.291 253.78C247.419 253.167 248.388 252.297 249.119 251.241C249.85 250.185 250.323 248.972 250.5 247.7M245.2 254.3C245.517 255.613 246.097 256.848 246.905 257.931C247.712 259.014 248.731 259.922 249.9 260.6M236.8 256.7C236 261.7 241.1 265.9 246.8 265.5M237.7 261.6C234.9 265.5 234 272.9 242.9 273.4M224 263C222.6 267 231 271.1 235.8 264.5M221.4 273.2C220.7 276.2 228.2 280.2 232.4 267.4M229.1 273.9C230.9 277.1 237 279.7 240.7 273.4M234.7 277.3C233.1 281.8 237.4 286 242.5 284.8M225 276.3C224 282.7 231.5 286.4 236 283.1M220.1 279.1C217.9 287.3 228.5 290.4 232.5 284.2M229.8 286.7C230.2 291.3 237.4 295.3 243 291.5M216.9 290.5C216.4 292.6 225 294.7 226.3 287.5M221.9 292.4C223.9 297.6 230.9 298.9 234.9 292.4M232.6 295C233.6 300 239.8 302.7 245.4 299.3M247.7 301.3C246.3 307.8 253.099 313.1 257.299 309.5M236.7 300.1C234.7 307.3 243.7 311.4 248.7 307.4M225.9 296.4C225.4 303.2 230.7 307.2 236.7 304.2M214.4 297.2C212.6 301.5 222.2 305.1 226.7 301.4M208.5 309.1C211 311.9 219.5 309.1 220.2 302.8M217.9 307.4C221 311 228.4 313 231.3 305.2M228.7 309.2C228.7 314.8 238.5 318.8 241.7 308.6M253.4 310.6C252.4 313.3 254.6 317.6 259.1 318.1M245.2 308.9C244.6 311.9 249.1 316.3 253.9 314.6M254.8 315.9C253.5 319.2 254.6 324 259.1 323.9M255.2 322.1C251.8 324.9 253.2 330 258.1 330.1M253.5 326.9C248.7 330.1 250.4 337.2 256.7 336.8M239 313C239 320 247.7 321 249.3 314.6M246 318.6C244.7 322.8 248 326.8 253.3 325.6M247 368.4C248.2 370.1 253 367.2 251.7 364.4C250.4 361.6 245.3 363.1 245.9 366.1M250.5 363.2C251.1 357.6 244.5 356.7 242.8 361.6M245.2 358.7C246.9 355.9 241.2 352 238.9 356.2M240.9 354.5C242.5 350.4 236.1 348.5 235.6 352.3M234.1 346.9C234.9 344.9 242.1 346.1 239.1 350.4M244.6 355.5C247.4 352.9 242.6 347.7 239.6 349.5M263.6 363.4C261.4 363.6 259.1 365.1 260.7 369.9C261.9 373.2 266.8 373.3 267.6 371.4" stroke="black" style="stroke:black;stroke-opacity:1;" stroke-width="0.4"/>
<path id="Vector_50" d="M260.5 365.9C258.3 364.4 253.5 366.9 255.7 371.5M255.7 371.5C257.3 375 261.5 373.5 262.1 371.7M255.7 371.5C254.7 373.5 249.3 374.5 248.1 372.5M251.9 366.1C253.1 365.3 255.2 366.3 255.6 367.3M251.6 334.3C247.8 336.8 250.1 344.3 255.9 342.3M250.3 340.4C247.3 342.7 250.1 350 255.6 347.2M251.3 347.2C249.2 349.3 251.2 355 256.5 353.9M250.5 350.1C249.3 349.6 246.3 349.9 245 351.9M247.1 323.9C244.3 326.7 245.7 332.2 250.9 332.7M246.1 329.7C242.1 331.7 242.1 339.7 250.1 340M245.8 338.7C243.5 340.5 244.6 347.5 250.4 346.6M247.6 346.3C246.8 347.2 246.6 349.3 247.4 350.2M245.1 343.7C243.1 343.7 240.3 345.2 239.6 347.4M235.9 339.9C236.6 337.9 243 337.9 243.5 344M244.1 336.8C243.2 337 241.5 337.8 241.1 339.6M241.3 317.9C238.6 320.5 237.3 328.4 245.6 329.9M235.7 334.3C235.7 332.2 241.5 330.3 243.5 333.5M232 322.8C232.8 324.4 236.8 326.6 239.2 324.8M211.2 310.2C211.161 311.125 211.326 312.048 211.684 312.902C212.043 313.756 212.585 314.521 213.272 315.142C213.96 315.762 214.776 316.224 215.662 316.493C216.548 316.763 217.483 316.833 218.4 316.7C222.7 316.2 223.6 312.5 222.3 310M219.1 316.9C216.2 320.3 219.7 325.2 222.9 323.8M222.3 314.4C224 313.8 229.5 313 231.2 315.6M204.4 315.4C203.1 317.4 211.1 319.3 213.8 315.6M211.1 317.5C210.8 320.1 212.1 324.5 218.7 322.6" stroke="black" style="stroke:black;stroke-opacity:1;" stroke-width="0.4"/>
<path id="Vector_51" d="M219.8 326.6C220.8 324.4 216 320.8 212.2 324.8C208.4 328.8 212.8 333.3 215.1 331.8M202.7 318C200.7 321.4 208.2 327.5 212.5 321.8" stroke="black" style="stroke:black;stroke-opacity:1;" stroke-width="0.4"/>
<path id="Vector_52" d="M197.7 323.8C195 326.6 198.4 331.7 202.4 330.1C206.5 328.6 206.1 324.3 205.1 323.2" stroke="black" style="stroke:black;stroke-opacity:1;" stroke-width="0.4"/>
<path id="Vector_53" d="M192.5 329C190.3 331 192.5 335.6 195.5 335.6C198.5 335.6 200.4 333.3 199.8 330.2M204.8 328.6C204.4 331.6 208.8 333.6 211.7 330.8M211.7 325.4C212.2 324.8 211.9 323.7 211.2 323.1M187.8 332.9C185.3 334.9 190.8 340.5 194.1 335.4M207.2 331.9C205.6 333.4 208.2 337.4 210.8 336.2M198.4 334.7C198.8 337.4 204.2 339.5 207.6 335.3M201.3 337.4C200.5 339.2 202.2 341.9 204.3 341.6M252.6 353.4C250.6 357.3 257 361.9 261.6 357.1M257.2 359.2C256.2 361.3 257.4 364.3 259.2 365.4M251.2 363.7C251.6 361.7 254.4 359.9 256.9 360.8M247.9 358.6C248.2 356.8 250.5 355.1 252.3 355.6M402.1 290.1C394.2 293 390.3 278.3 399.5 278.2C394 279.4 389.7 277.1 389.3 274.1M396.5 289.1C394.7 292 398.2 296.7 402.1 293.9M401.1 294.5C398.3 299 408 305.9 411.9 298.8M408.8 301.5C408.8 305.8 421.3 308.5 419.5 300M418.3 304.6C421.3 309.6 432.3 310.1 431.2 302.6M428.7 307.8C431 311.2 441.9 313.2 441.5 306.3M384.8 265.5C386.3 269.5 391.6 270.9 397.4 268.5M381.4 268.3C385.1 270.6 379.8 281.2 374.3 276.9M381.5 274.9C385.5 276.8 390.4 275.4 391.8 269.7M379.4 277.2C384.6 281.6 377.1 290.6 373.7 286.5M381.3 280.5C383.8 282.3 390.1 281.3 390.7 276.5M387.9 280.5C388.4 283.6 390.9 284.8 394.3 284.9M379.9 284.8C382.5 288.4 388.9 289.4 391.8 284.7M388.9 287.4C388.7 290.8 392.5 293.7 396.5 292.9M375 295C378.3 296.7 382 290.3 379.1 286M378.9 301.7C382.9 301.9 383.4 295.9 379.6 292.5M388 307.2C391.4 306.4 390.3 299.1 382.2 298.5M398.2 312.6C401.4 311.7 398.8 303.6 389.9 304.1M410.4 315.5C412.6 312.1 405.4 306.5 399.4 309.5M416.4 320.1C420.4 321.3 423.2 310.7 410.5 312.4M423.8 320.1C427.3 319.1 429.8 312.9 419.6 314.9M431.6 320.6C434.6 322.2 436 313.1 426.6 315.6M379.6 292.6C383.5 294.7 389.6 292.2 389 287.3M387.5 291.5C388.8 293.8 388.3 298.3 385.8 299.5M387.8 296.9C390.4 297.9 393.9 297 396 292.9M392.4 296.9C393.1 298.7 393.4 302.3 391.7 304.1M393 300C395.9 301.6 399.2 299.5 400.6 296.5M398.8 299.1C400.8 300.4 402.7 306.4 399.2 308.9M401.2 306.1C403.6 306.1 407.2 306.1 409.5 303.1M407.8 304.8C410 305.4 412.6 309 411.7 312.2M411.8 311.1C414.3 310.8 418.5 309.1 419.7 306.1M418.5 308.1C419.575 308.788 420.442 309.758 421.006 310.904C421.57 312.049 421.81 313.328 421.7 314.6M421.7 312.5C424.2 312.4 426.4 311.1 427 308.4M426.4 310.2C428.2 310.8 430.4 312.9 430.5 315.3M430.2 313.8C431.933 313.467 433.366 312.4 434.5 310.6M439.4 310.3C441.7 312.6 438.6 320.3 433.8 318.9M389.9 154.2C385.2 157.1 371.6 156.2 378.3 145M391.3 146.6C381.8 150.4 370.3 143.1 382.3 135.3M379.1 132.7C371.3 132.7 366 145.3 376.5 149.7M348.6 138C346.6 142 353.9 146.4 358.9 142.4C362.8 139.3 362.5 130.9 360.2 127.7M344.6 147.5C342 156 361 156.5 358 143M343.6 160.2C344.2 166.6 361.7 164.5 356.1 151.5M358.1 147.9C359.5 149.9 363.4 153.2 370 152.5M361 139C361.6 141.3 365.5 143 370.5 141.3M185.4 334.8C180.9 337.9 187.8 342.9 190.3 337.4M181.9 337.2C177.5 340.4 184.3 345.4 186.8 339.9M178.2 339.6C173.8 342.8 180.6 347.7 183.2 342.3M174.4 341.8C170.1 344.1 175.1 349.6 179.4 344.8M170.2 343.9C165.9 346.2 170.9 351.7 175.2 346.9M191.8 337.3C191.7 340.6 197.9 341.9 200.2 337M195.7 340.3C193.7 342.8 197.3 345.8 199.2 344.7M187.4 339.9C187.2 342.7 192.6 344.3 195.2 341.2M190.3 342.8C188.6 345 192 348.1 194.3 347.2M183.8 342.4C184 344.6 187.1 347.1 190.4 345.7M185.8 345.4C184.5 346.5 185.1 349.2 186.9 350.1M179.1 345.1C178.6 347.1 182 350.7 185.5 348.4M179.8 347.4C177.8 349.1 178 351.5 180.6 351.9M174.8 347.2C174.6 348.6 176.3 350.8 178.5 350.5M163.8 347.1C161.8 348.2 167 353.8 170.3 348.6M158.7 349.4C156.1 350.6 162.5 356.8 165.4 350.5M175.4 349.2C173.4 349.6 172.1 352.5 173.8 353.7M168.8 350.2C168.6 351.4 171.1 353.2 173.1 352.6M167.2 350.7C165.2 351.9 166.3 355.3 168.6 354.8M160.3 353C158.5 354.3 159.8 357 162.3 356.4M163.6 352.8C163.6 353.5 165.3 354.6 166.6 354.1M154.1 351.6C151.8 352.6 152 358.2 159.6 355.2M149 353.9C145.8 355.4 146.9 359.7 153.8 355.6M154.3 355.9C153.5 356.6 152.6 359.4 155.8 358.3M148.6 357.3C147.3 358.4 148.1 360.8 150.9 359.9M141.9 357.7C139.6 359 144.7 360.8 148.1 357.2M143.5 359.3C142.5 360.3 142.5 363.4 145.1 362.3M136.9 360.6C135.4 361.7 137.9 363.3 142.9 361.1M138.9 362.2C137 363.7 137.2 365.6 139.9 365M133.5 363C131.5 364.9 134.4 366.1 137.9 364.6M133.5 365.1C130.1 366.6 131.6 369.5 133.7 368.4M247.5 374.9C246.7 376.6 249.3 378 251.8 377.6C254.1 377.3 256.4 375.3 254.6 372.6M254.7 376C257.1 377.8 261.2 375.7 261.2 373" stroke="black" style="stroke:black;stroke-opacity:1;" stroke-width="0.4"/>
</g>
<g id="Group_5">
<path id="Vector_54" d="M396.8 103C386.5 98 365.1 88.4 359 96.1C364.6 93.8 380.8 96.2 394.2 108.6L396.8 103Z" fill="white" stroke="black" style="fill:white;fill-opacity:1;stroke:black;stroke-opacity:1;" stroke-width="0.4"/>
<path id="Vector_55" d="M403 102.5C391.1 88.5999 384 91.6999 375.5 86.9999C367.5 82.4999 354.7 81.5999 352.2 88.6999C363.9 82.9999 374.7 91.6999 381.4 92.8999C390.4 94.2999 395.6 101.4 398.3 104.6L403 102.6V102.5ZM447.9 100.7C441.7 86.5999 428.5 90.2999 422.7 84.2999C414.2 75.4999 392.7 67.2999 383.7 73.3999C403.3 72.3999 411.7 86.8999 422.1 91.9999C429.6 95.5999 437.6 103.3 447.9 100.7Z" fill="white" stroke="black" style="fill:white;fill-opacity:1;stroke:black;stroke-opacity:1;" stroke-width="0.4"/>
<path id="Vector_56" d="M424.7 99.1999C414.2 86.0999 397.9 74.4999 390.5 78.7999C400.3 79.3999 403.4 86.1999 410.3 90.5999C417.3 94.8999 414.2 101.3 424.7 99.1999ZM374.5 122.4C363.5 118.3 341.8 116.2 331.7 128.8C348.5 131.7 373.7 130.1 374.5 122.4Z" fill="white" stroke="black" style="fill:white;fill-opacity:1;stroke:black;stroke-opacity:1;" stroke-width="0.4"/>
<path id="Vector_57" d="M372.4 127.3C361.4 122.1 352.7 129.3 342.3 128.3C322.5 126.3 308.3 127.5 306.5 137.1C317.8 126.9 336.9 135.3 344.6 133.2C352.3 131.1 380.9 132.9 389.9 136.8C385.3 131.1 378.1 129.6 372.4 127.3ZM407.2 97.8001C404.6 89.3001 404.8 80.3001 417.5 80.9001C414.3 76.9001 402.5 74.9001 400.5 89.8001C386.5 79.5001 371.1 77.7001 368.3 86.6001C375.5 80.4001 386.7 84.9001 400.1 100.1C402.332 98.9679 404.728 98.1918 407.2 97.8001Z" fill="white" stroke="black" style="fill:white;fill-opacity:1;stroke:black;stroke-opacity:1;" stroke-width="0.4"/>
<path id="Vector_58" d="M387.9 109.5C379.9 104.3 369.1 95.9999 388 92.5999C380 88.2999 368 90.1999 369.3 105.1C347.7 96.3999 332.2 99.2999 328.9 108C325.3 117.5 338.7 122.8 341 116.7C338.6 117.7 330.2 114.9 334.6 109.5C339 104.1 361.4 108.2 382.7 119.3C388.7 122.3 409 121.9 387.9 109.5Z" fill="white" stroke="black" style="fill:white;fill-opacity:1;stroke:black;stroke-opacity:1;" stroke-width="0.4"/>
<path id="Vector_59" d="M382.2 123.7C376.1 111.1 356.1 122.5 352.1 110.3C346.5 128.2 380.5 118.3 382.2 123.7ZM509.3 137.3C513.5 139.4 517.1 136.1 510.7 133.6C514.9 135.6 518.6 132.5 512.2 129.9C516.4 131.9 520 128.8 513.6 126.2C511.9 127.9 509.5 134.2 509.3 137.3ZM511.5 113.1C520.8 103.3 510.8 100 522.1 89.9C531.4 81.7 523.9 76.2 532.6 69.9C535.5 67.8 541.6 63.7 542.2 59.5C545.9 68.8 530.6 70.1 531.6 85C532.3 94.5 525.8 93.7 523.4 109.8C522.9 113.1 520.5 120.6 511.5 113.1Z" fill="white" stroke="black" style="fill:white;fill-opacity:1;stroke:black;stroke-opacity:1;" stroke-width="0.4"/>
<path id="Vector_60" d="M515.6 117.5C520.8 106.5 526.7 106.6 529.6 102.3C535 94 546.4 103.7 556.1 96.3C554.4 106.8 541.4 103.1 535.7 109.8C530 116.5 525.4 119.5 515.7 117.5H515.6Z" fill="white" stroke="black" style="fill:white;fill-opacity:1;stroke:black;stroke-opacity:1;" stroke-width="0.4"/>
<path id="Vector_61" d="M517 121.1C526 113.9 532.6 118.7 538.8 114.9C554.5 105.4 560.8 116.9 574.8 112.3C571.2 121.3 550.4 113.6 541.4 120.3C532.4 127 500.7 133.5 516.9 121.1H517ZM490.7 172.5C490.5 168.4 486.7 163.1 481.3 162.5C475.9 161.8 473.5 156.1 469.4 155.9C465.3 155.6 462.6 147.4 456.9 147.5C451.3 147.6 448.9 155 462.2 161.7C475.5 168.4 490.2 176.1 490.7 172.5ZM473.9 176C468.3 176.2 467.5 184.5 462.1 184.7C469.5 188.7 475 182.9 478.8 177.7L474 176H473.9Z" fill="white" stroke="black" style="fill:white;fill-opacity:1;stroke:black;stroke-opacity:1;" stroke-width="0.4"/>
<path id="Vector_62" d="M478.6 177C473.6 181.1 472.2 189.7 479.3 192.2C475.1 186.3 486.8 183.7 483.2 178.2L478.6 177Z" fill="white" stroke="black" style="fill:white;fill-opacity:1;stroke:black;stroke-opacity:1;" stroke-width="0.4"/>
<path id="Vector_63" d="M483.4 177.3C479.6 184.7 489.5 185.6 486.9 191.3C492.6 190 493.5 179.3 488.3 176.5L483.4 177.2V177.3Z" fill="white" stroke="black" style="fill:white;fill-opacity:1;stroke:black;stroke-opacity:1;" stroke-width="0.4"/>
<path id="Vector_64" d="M445.6 161.3C454.9 160.8 463.3 165.8 469 173.9C472.6 179 484.7 181.1 488.9 176.9C492.9 172.9 490.7 164.1 480.4 166.9C477.8 162.6 470.4 164.1 466.7 160.5C463 156.9 449.2 146.6 445.6 161.3Z" fill="white" stroke="black" style="fill:white;fill-opacity:1;stroke:black;stroke-opacity:1;" stroke-width="0.4"/>
<g id="Vector_65">
<path d="M480.4 167C477.9 167.5 477.1 171.7 478.7 173.9ZM485.7 169.5C486.4 170.8 485.9 172.6 485.5 173.5ZM460.3 161.7C465 161.9 465.9 165.4 471.1 166.7Z" fill="white" style="fill:white;fill-opacity:1;"/>
<path d="M480.4 167C477.9 167.5 477.1 171.7 478.7 173.9M485.7 169.5C486.4 170.8 485.9 172.6 485.5 173.5M460.3 161.7C465 161.9 465.9 165.4 471.1 166.7" stroke="black" style="stroke:black;stroke-opacity:1;" stroke-width="0.4" stroke-linecap="round"/>
</g>
<path id="Vector_66" d="M457.1 150C470.091 152.539 482.72 156.67 494.7 162.3C502.8 166.9 515.4 168.3 526.3 165.1C537.3 162.1 558.5 159.2 557.4 172.9C563.2 166 555.9 158.7 541.2 157.4C541.5 150.7 534.3 144.7 529.2 148.7C533.9 148 538 156.9 528.6 160.5C529.022 158.95 528.991 157.312 528.511 155.779C528.03 154.246 527.12 152.884 525.889 151.852C524.658 150.821 523.156 150.164 521.563 149.96C519.97 149.756 518.352 150.012 516.9 150.7C521.3 152 525.9 159.5 515.9 162.3C509.6 164.1 500.5 161.8 493.7 157.7C486.9 153.6 448.7 138.7 457.1 149.9V150Z" fill="white" stroke="black" style="fill:white;fill-opacity:1;stroke:black;stroke-opacity:1;" stroke-width="0.4"/>
<path id="Vector_67" d="M498.6 143.3C493.5 145.6 496.8 151 488.9 154.1C480.9 157.1 475.3 164.2 477.1 170.3C482.5 158.4 492.1 159 495.4 154.3C498.7 149.6 503.7 142.9 498.6 143.3Z" fill="white" stroke="black" style="fill:white;fill-opacity:1;stroke:black;stroke-opacity:1;" stroke-width="0.4"/>
<path id="Vector_68" d="M500 144C499.8 153.4 492.4 150 495.3 163.2C496.2 167.3 497.9 174 495 180.7C503.3 174.7 498 162 501.7 157.2C503.5 154.8 505.9 151.2 506.7 148.2C504.8 153.5 505 163.6 510.2 166.2C506 156.2 521.7 147.9 510.9 136.2C509.3 139.2 504.4 144.2 500.1 144H500ZM473.8 134.6C475.1 136.6 476.4 141.4 475.2 144.2C477.8 142.6 481.5 138.6 482.7 135.9C488 136.7 490 143.2 485 146.1C488 146.1 493.4 146.1 496.3 142.6C492.7 138.6 481.5 132.4 473.8 134.6Z" fill="white" stroke="black" style="fill:white;fill-opacity:1;stroke:black;stroke-opacity:1;" stroke-width="0.4"/>
<path id="Vector_69" d="M393.7 116.1C392.304 115.022 390.648 114.332 388.9 114.1C381.1 112.5 385.2 105.5 391.8 105.6C406 90.1 413.9 102 431.2 97.2C437.2 95.4 441.4 95.9 444.6 97.4C452.4 92.2 461.4 93.6 468 99.7C468.317 99.1219 468.745 98.6123 469.26 98.2004C469.775 97.7885 470.366 97.4825 471 97.3C477.1 95.6 482 100.7 483.7 107.4C488.4 106.6 493.8 108.9 497.4 112.1C502.333 109.567 505.5 109.567 506.9 112.1C511.3 110.1 516.9 108.7 519.8 115.7C522.7 122.7 513.1 120.6 511.5 135.3C510.5 144.3 500.5 147.9 492.5 142.5C479.7 133.8 467.2 132.5 461 145.5C454.9 158.7 450 166.3 435 162C431.886 161.293 428.631 161.534 425.655 162.693C422.678 163.851 420.117 165.874 418.3 168.5C413.9 174.5 407.3 168.9 399.3 169.5C409.3 168 405.4 165.5 414.2 164.9C422.2 164.4 420.1 156.9 425.2 155.9C405.2 161 405.9 153.5 389.4 158.7C396.6 149.4 408 154.6 413.6 149.2C398.7 148.9 392 139.2 385.3 143.2C374.8 149.7 379.3 168 351.8 166.4C338.4 165.7 329.9 167.4 322 175.4C335.9 146.6 354.8 162.4 364 153.3C368.773 149.005 372.915 144.056 376.3 138.6C376.689 137.804 377.25 137.105 377.941 136.552C378.633 135.998 379.438 135.605 380.3 135.4C357.4 128.2 371.3 116.9 393.7 116.1Z" fill="white" stroke="black" style="fill:white;fill-opacity:1;stroke:black;stroke-opacity:1;" stroke-width="0.4"/>
<g id="Vector_70">
<path d="M506.9 112C507.233 112.8 507.4 113.8 507.4 115C507.4 120.6 498.9 120.8 498.4 129.2C498.1 133.6 497.6 136 494.7 135.5C491.8 135 489.1 130.4 491.9 125" fill="white" style="fill:white;fill-opacity:1;"/>
<path d="M506.9 112C507.233 112.8 507.4 113.8 507.4 115C507.4 120.6 498.9 120.8 498.4 129.2C498.1 133.6 497.6 136 494.7 135.5C491.8 135 489.1 130.4 491.9 125" stroke="black" style="stroke:black;stroke-opacity:1;" stroke-width="0.4" stroke-linecap="round"/>
</g>
<g id="Vector_71">
<path d="M398 107.7C396.194 106.387 394.032 105.655 391.8 105.6ZM444.6 97.3C451.4 100.3 454.7 107.3 464.6 107.7C474.2 108 480.1 121.9 496.1 112.8L497.3 112.2M468 99.7C466.648 102.206 466.156 105.087 466.6 107.9ZM436.8 128.9C424.8 128.9 421.6 135 421.6 140.9C421.6 146.8 427.3 154.6 437.3 154.6C447.3 154.6 452.8 148.4 452.8 141.7C452.8 135 446.6 128.8 436.8 128.8V128.9Z" fill="white" style="fill:white;fill-opacity:1;"/>
<path d="M398 107.7C396.194 106.387 394.032 105.655 391.8 105.6M444.6 97.3C451.4 100.3 454.7 107.3 464.6 107.7C474.2 108 480.1 121.9 496.1 112.8L497.3 112.2M468 99.7C466.648 102.206 466.156 105.087 466.6 107.9M436.8 128.9C424.8 128.9 421.6 135 421.6 140.9C421.6 146.8 427.3 154.6 437.3 154.6C447.3 154.6 452.8 148.4 452.8 141.7C452.8 135 446.6 128.8 436.8 128.8V128.9Z" stroke="black" style="stroke:black;stroke-opacity:1;" stroke-width="0.4"/>
</g>
<g id="Vector_72">
<path d="M439 154.3C438.8 151 432.7 151.5 433 148.9C433.3 146.3 436.3 145.3 436.3 141.7C436.3 138.1 441.7 137.8 443.5 140.7C445.3 143.5 450.7 149 451.9 146.2M443.5 140.7C441.867 142.47 440.928 144.769 440.855 147.175C440.781 149.582 441.578 151.934 443.1 153.8M447.4 145C446.4 147 446.2 150 447.3 151.8Z" fill="white" style="fill:white;fill-opacity:1;"/>
<path d="M439 154.3C438.8 151 432.7 151.5 433 148.9C433.3 146.3 436.3 145.3 436.3 141.7C436.3 138.1 441.7 137.8 443.5 140.7M443.5 140.7C445.3 143.5 450.7 149 451.9 146.2M443.5 140.7C441.867 142.47 440.928 144.769 440.855 147.175C440.781 149.582 441.578 151.934 443.1 153.8M447.4 145C446.4 147 446.2 150 447.3 151.8" stroke="black" style="stroke:black;stroke-opacity:1;" stroke-width="0.4"/>
</g>
<path id="Vector_73" d="M495.5 135.6C505 136.4 506.5 125.9 499.5 125.3M483.8 107.5C480.6 103.3 473 101.9 472.8 110.7" stroke="black" style="stroke:black;stroke-opacity:1;" stroke-width="0.4"/>
<g id="Vector_74">
<path d="M472 120.8C468.8 112.8 460.5 111.7 456.2 115.7C452.5 119 452.4 127.7 460.2 129.5C463 126.2 468.2 122 472 120.8ZM468.5 115.8C463.8 111.7 457 119.5 463.2 126.6ZM380.2 135.3C383.4 134.6 387.9 136.1 394.9 139.3C399.2 141.4 412.4 145.8 420.6 141.4C412.1 144.5 405.6 131.7 399.2 133.2C392.8 134.8 381 137.2 376.1 132.4C388.1 133.2 394.6 123.6 408.5 131.9C412.429 134.337 416.978 135.587 421.6 135.5C410.3 121.9 395.4 130.6 393.8 119.5C400.6 126.9 417.3 117.9 425.8 131.6M396.3 121.6C394.7 119.6 395.3 117.6 393.7 116.1Z" fill="white" style="fill:white;fill-opacity:1;"/>
<path d="M468.5 115.8C463.8 111.7 457 119.5 463.2 126.6M380.2 135.3C383.4 134.6 387.9 136.1 394.9 139.3C399.2 141.4 412.4 145.8 420.6 141.4C412.1 144.5 405.6 131.7 399.2 133.2C392.8 134.8 381 137.2 376.1 132.4C388.1 133.2 394.6 123.6 408.5 131.9C412.429 134.337 416.978 135.587 421.6 135.5C410.3 121.9 395.4 130.6 393.8 119.5C400.6 126.9 417.3 117.9 425.8 131.6M396.3 121.6C394.7 119.6 395.3 117.6 393.7 116.1M472 120.8C468.8 112.8 460.5 111.7 456.2 115.7C452.5 119 452.4 127.7 460.2 129.5C463 126.2 468.2 122 472 120.8Z" stroke="black" style="stroke:black;stroke-opacity:1;" stroke-width="0.4"/>
</g>
</g>
<path id="Vector_75" d="M483.8 107.5C481 104.5 474.8 106.8 476.6 112.9C477.282 111.481 478.29 110.244 479.541 109.288C480.792 108.332 482.251 107.685 483.8 107.4V107.5ZM466.3 124C468.021 122.642 469.944 121.563 472 120.8C471.23 118.753 469.916 116.955 468.2 115.6C466.7 114.6 462.5 120.3 466.3 123.9V124Z" fill="black" style="fill:black;fill-opacity:1;"/>
<path id="Vector_76" d="M458.7 113.5C454.1 110.4 449.8 110.7 448.4 113.2C445.1 113.2 442.3 115.6 442.2 120.4M449.3 122.5C443.8 118.7 436.2 120.1 436.7 128.6M433.3 133.5C436 131.3 439.9 129.7 442.9 133.5M474.7 125.1C473.7 126.5 472.9 128.7 474.6 132.1C472.6 129.3 467.4 129.3 461.8 136.5M486.9 124.7C480.2 125.5 480.4 129.9 485.8 131.7M439.3 108.3C433.6 107.2 429.5 110.5 437.3 113.3M450.1 104.5C442.1 102.5 438.9 104.6 442.5 106.5M427 136.5C426.8 139.4 428.3 143.1 433 138.9M428.6 145C428.667 145.867 428.433 146.667 427.9 147.4M410 107.4C405.1 105.9 404.2 101.4 410 101.8M408.4 117.8C403 115.9 403 110.7 407.4 111.2M418.4 115C412.1 113.5 411.9 109.1 416.6 109.8M419.2 101.6C415.8 101.4 410.7 105.1 419.3 107.3M428.6 109.1C420.7 108 420.9 111.1 425.5 113.2M434.5 101.6C428.5 100.5 426.4 104.1 430.5 105.6M415.5 123.9C414 122.7 412.8 116.9 419.8 118.6M430.1 122.1C425.4 120.8 420.9 125.5 425.2 128.1M436.4 116.6C431.4 115.6 427.2 117.1 429.9 118.9" stroke="black" style="stroke:black;stroke-opacity:1;" stroke-width="0.4" stroke-linecap="round"/>
<g id="Vector_77">
<path d="M483.6 107.5C482.097 107.803 480.684 108.448 479.47 109.384C478.257 110.321 477.274 111.524 476.6 112.9" fill="white" style="fill:white;fill-opacity:1;"/>
<path d="M483.6 107.5C482.097 107.803 480.684 108.448 479.47 109.384C478.257 110.321 477.274 111.524 476.6 112.9" stroke="black" style="stroke:black;stroke-opacity:1;" stroke-width="0.4"/>
</g>
</g>
</g>
<defs>
<clipPath id="clip0_2194_1700">
<rect width="640" height="480" fill="white" style="fill:white;fill-opacity:1;"/>
</clipPath>
</defs>
</svg>
