<svg width="640" height="480" viewBox="0 0 640 480" fill="none" xmlns="http://www.w3.org/2000/svg">
<g id="by" clip-path="url(#clip0_2194_1797)">
<path id="Vector" d="M0 0H640V480H0V0Z" fill="#CE1720" style="fill:#CE1720;fill:color(display-p3 0.8078 0.0902 0.1255);fill-opacity:1;"/>
<g id="Clip path group">
<mask id="mask0_2194_1797" style="mask-type:luminance" maskUnits="userSpaceOnUse" x="5" y="0" width="111" height="480">
<g id="by-a">
<path id="Vector_2" d="M5 0H110.77V324.265H115.001V475.73L110.77 479.997H5V0Z" fill="white" style="fill:white;fill-opacity:1;"/>
</g>
</mask>
<g mask="url(#mask0_2194_1797)">
<g id="Group">
<g id="by-c">
<path id="by-b" d="M24.0384 0V7.46662H19.2788V14.9332H13.4614V23.4665H9.23064V30.3998H0.769043V12.7999H9.23064V3.19998H0.769043V0H24.0384ZM37.7885 41.0664V49.0664H33.5577V55.4663H29.3269V49.0664H25.0961V41.0664H20.8653V30.3998H25.0961V22.3999H29.3269V15.9999H33.5577V22.3999H37.7885V30.3998H42.0193V41.0664H37.7885ZM28.7981 40.5331H34.0866V30.9331H28.7981V40.5331ZM15.048 97.5994H19.2788V87.9994H15.048V97.5994ZM43.6059 97.5994H47.8367V87.9994H43.6059V97.5994ZM0.769043 162.666H8.17294V169.599H11.346V178.132H16.1057V186.132H22.4519V178.132H27.2115V169.599H31.4423V162.666H25.0961V154.666H36.202V159.999H43.077V169.066H48.8944V179.199H44.6636V186.665H40.9616V193.599H37.7885V201.065H33.0289V207.465H29.3269V213.332H24.5673V220.799H17.6922V212.799H12.9326V205.332H9.23064V200.532H0.769043V188.265H9.23064V177.599H0.769043V162.666Z" fill="white" style="fill:white;fill-opacity:1;"/>
<path id="by-b_2" d="M91.7311 0V7.46662H96.4907V14.9332H102.308V23.4665H106.539V30.3998H115V12.7999H106.539V3.19998H115V0H91.7311ZM77.981 41.0664V49.0664H82.2118V55.4663H86.4426V49.0664H90.6734V41.0664H94.9042V30.3998H90.6734V22.3999H86.4426V15.9999H82.2118V22.3999H77.981V30.3998H73.7502V41.0664H77.981ZM86.9714 40.5331H81.6829V30.9331H86.9714V40.5331ZM100.722 97.5994H96.4907V87.9994H100.722V97.5994ZM72.1636 97.5994H67.9328V87.9994H72.1636V97.5994ZM115 162.666H107.597V169.599H104.423V178.132H99.6638V186.132H93.3176V178.132H88.558V169.599H84.3272V162.666H90.6734V154.666H79.5675V159.999H72.6925V169.066H66.8751V179.199H71.1059V186.665H74.8079V193.599H77.981V201.065H82.7406V207.465H86.4426V213.332H91.2022V220.799H98.0773V212.799H102.837V205.332H106.539V200.532H115V188.265H106.539V177.599H115V162.666Z" fill="white" style="fill:white;fill-opacity:1;"/>
<path id="Vector_3" d="M55.7694 0V17.0666H60.0002V0H76.9234V7.46662H72.6926V14.9332H66.3464V23.4665H62.1156V30.3998H53.654V23.4665H49.4232V14.9332H43.077V7.46662H38.8462V0H55.7694ZM54.7117 146.132V140.266H51.5386V133.332H47.8367V125.866H43.6059V118.399H39.3751V113.066H34.6154V105.599H28.2692V113.066H23.5096V118.399H19.8076V125.866H15.5768V133.332H12.4037V140.266H9.23064V149.332H0.769043V125.866H9.23064V115.199H0.769043V97.5994H9.23064V105.066H14.5191V112.533H19.8076V105.066H25.0961V97.5994H29.3269V87.9994H25.0961V80.5328H19.8076V73.0662H14.5191V80.5328H9.23064V87.9994H0.769043V66.1329H9.23064V55.9996H0.769043V41.0664H9.23064V47.9997H13.4614V56.533H19.2788V63.4663H24.0384V71.4662H27.7404V77.8662H35.1443V71.4662H38.8462V63.4663H43.6059V56.533H49.4232V47.9997H53.654V41.0664H62.1156V47.9997H66.3464V56.533H72.1638V63.4663H76.9234V71.4662H80.6254V77.8662H88.0293V71.4662H91.7312V63.4663H96.4909V56.533H102.308V47.9997H106.539V41.0664H115.001V55.9996H106.539V66.1329H115.001V87.9994H106.539V80.5328H101.251V73.0662H95.962V80.5328H90.6735V87.9994H86.4427V97.5994H90.6735V105.066H95.962V112.533H101.251V105.066H106.539V97.5994H115.001V115.199H106.539V125.866H115.001V149.332H106.539V140.266H103.366V133.332H100.193V125.866H95.962V118.399H92.2601V113.066H87.5004V105.599H81.1542V113.066H76.3946V118.399H72.1638V125.866H67.933V133.332H64.231V140.266H61.0579V146.132H54.7117ZM55.7694 57.0663V71.4662H60.0002V57.0663H55.7694ZM53.654 87.9994V80.5328H48.3655V73.0662H43.077V80.5328H37.7885V87.9994H33.5577V97.5994H37.7885V105.066H43.077V112.533H48.3655V105.066H53.654V97.5994H62.1156V105.066H67.4041V112.533H72.6926V105.066H77.9811V97.5994H82.2119V87.9994H77.9811V80.5328H72.6926V73.0662H67.4041V80.5328H62.1156V87.9994H53.654ZM55.7694 112.533V126.933H60.0002V112.533H55.7694Z" fill="white" style="fill:white;fill-opacity:1;"/>
</g>
<g id="by-c_2">
<path id="by-b_3" d="M24.0384 479.997V472.53H19.2788V465.064H13.4614V456.531H9.23064V449.597H0.769043V467.197H9.23064V476.797H0.769043V479.997H24.0384ZM37.7885 438.931V430.931H33.5577V424.531H29.3269V430.931H25.0961V438.931H20.8653V449.597H25.0961V457.597H29.3269V463.997H33.5577V457.597H37.7885V449.597H42.0193V438.931H37.7885ZM28.7981 439.464H34.0866V449.064H28.7981V439.464ZM15.048 382.398H19.2788V391.998H15.048V382.398ZM43.6059 382.398H47.8367V391.998H43.6059V382.398ZM0.769043 317.331H8.17294V310.398H11.346V301.865H16.1057V293.865H22.4519V301.865H27.2115V310.398H31.4423V317.331H25.0961V325.331H36.202V319.998H43.077V310.931H48.8944V300.798H44.6636V293.332H40.9616V286.398H37.7885V278.932H33.0289V272.532H29.3269V266.665H24.5673V259.198H17.6922V267.198H12.9326V274.665H9.23064V279.465H0.769043V291.732H9.23064V302.398H0.769043V317.331Z" fill="white" style="fill:white;fill-opacity:1;"/>
<path id="by-b_4" d="M91.7311 479.997V472.53H96.4907V465.064H102.308V456.531H106.539V449.597H115V467.197H106.539V476.797H115V479.997H91.7311ZM77.981 438.931V430.931H82.2118V424.531H86.4426V430.931H90.6734V438.931H94.9042V449.597H90.6734V457.597H86.4426V463.997H82.2118V457.597H77.981V449.597H73.7502V438.931H77.981ZM86.9714 439.464H81.6829V449.064H86.9714V439.464ZM100.722 382.398H96.4907V391.998H100.722V382.398ZM72.1636 382.398H67.9328V391.998H72.1636V382.398ZM115 317.331H107.597V310.398H104.423V301.865H99.6638V293.865H93.3176V301.865H88.558V310.398H84.3272V317.331H90.6734V325.331H79.5675V319.998H72.6925V310.931H66.8751V300.798H71.1059V293.332H74.8079V286.398H77.981V278.932H82.7406V272.532H86.4426V266.665H91.2022V259.198H98.0773V267.198H102.837V274.665H106.539V279.465H115V291.732H106.539V302.398H115V317.331Z" fill="white" style="fill:white;fill-opacity:1;"/>
<path id="Vector_4" d="M55.7694 479.997V462.931H60.0002V479.997H76.9234V472.53H72.6926V465.064H66.3464V456.531H62.1156V449.597H53.654V456.531H49.4232V465.064H43.077V472.53H38.8462V479.997H55.7694ZM54.7117 333.865V339.731H51.5386V346.665H47.8367V354.131H43.6059V361.598H39.3751V366.931H34.6154V374.398H28.2692V366.931H23.5096V361.598H19.8076V354.131H15.5768V346.665H12.4037V339.731H9.23064V330.665H0.769043V354.131H9.23064V364.798H0.769043V382.398H9.23064V374.931H14.5191V367.464H19.8076V374.931H25.0961V382.398H29.3269V391.998H25.0961V399.464H19.8076V406.931H14.5191V399.464H9.23064V391.998H0.769043V413.864H9.23064V423.997H0.769043V438.931H9.23064V431.997H13.4614V423.464H19.2788V416.531H24.0384V408.531H27.7404V402.131H35.1443V408.531H38.8462V416.531H43.6059V423.464H49.4232V431.997H53.654V438.931H62.1156V431.997H66.3464V423.464H72.1638V416.531H76.9234V408.531H80.6254V402.131H88.0293V408.531H91.7312V416.531H96.4909V423.464H102.308V431.997H106.539V438.931H115.001V423.997H106.539V413.864H115.001V391.998H106.539V399.464H101.251V406.931H95.962V399.464H90.6735V391.998H86.4427V382.398H90.6735V374.931H95.962V367.464H101.251V374.931H106.539V382.398H115.001V364.798H106.539V354.131H115.001V330.665H106.539V339.731H103.366V346.665H100.193V354.131H95.962V361.598H92.2601V366.931H87.5004V374.398H81.1542V366.931H76.3946V361.598H72.1638V354.131H67.933V346.665H64.231V339.731H61.0579V333.865H54.7117ZM55.7694 422.931V408.531H60.0002V422.931H55.7694ZM53.654 391.998V399.464H48.3655V406.931H43.077V399.464H37.7885V391.998H33.5577V382.398H37.7885V374.931H43.077V367.464H48.3655V374.931H53.654V382.398H62.1156V374.931H67.4041V367.464H72.6926V374.931H77.9811V382.398H82.2119V391.998H77.9811V399.464H72.6926V406.931H67.4041V399.464H62.1156V391.998H53.654ZM55.7694 367.464V353.065H60.0002V367.464H55.7694Z" fill="white" style="fill:white;fill-opacity:1;"/>
</g>
<path id="Vector_5" d="M0.769043 217.599H9.23064V225.065H12.9326V229.332H17.1634V236.798H20.8653V243.198H17.1634V250.665H12.9326V254.932H9.23064V262.398H0.769043V217.599ZM115.001 217.599V262.398H106.539V254.932H102.837V250.665H98.6063V243.198H94.9043V236.798H98.6063V229.332H102.837V225.065H106.539V217.599H115.001ZM37.7885 244.798H42.0193V235.198H37.7885V244.798ZM77.9811 244.798V235.198H73.7503V244.798H77.9811ZM55.7694 213.332H60.0002V203.732H55.7694V213.332ZM55.7694 266.665V276.265H60.0002V266.665H55.7694ZM29.3269 226.665H36.7308V220.799H42.0193V215.465H44.6636V210.132H47.8367V202.665H52.0675V195.199H54.1829V188.265H61.5868V195.199H63.7022V202.665H67.933V210.132H71.1061V215.465H73.7503V220.799H79.0388V226.665H86.4427V253.332H79.0388V259.198H73.7503V264.532H71.1061V269.865H67.933V277.331H63.7022V284.798H61.5868V291.731H54.1829V284.798H52.0675V277.331H47.8367V269.865H44.6636V264.532H42.0193V259.198H36.7308V253.332H29.3269V226.665ZM55.7694 231.465V223.465H51.5386V218.132H47.3078V231.465H51.5386V236.265H54.1829V243.732H51.5386V248.532H47.3078V261.865H51.5386V256.532H55.7694V248.532H60.0002V256.532H64.231V261.865H68.4618V248.532H64.231V243.732H61.5868V236.265H64.231V231.465H68.4618V218.132H64.231V223.465H60.0002V231.465H55.7694Z" fill="white" style="fill:white;fill-opacity:1;"/>
</g>
</g>
</g>
<path id="Vector_6" d="M110 320H640V480H110V320Z" fill="#007C30" style="fill:#007C30;fill:color(display-p3 0.0000 0.4863 0.1882);fill-opacity:1;"/>
</g>
<defs>
<clipPath id="clip0_2194_1797">
<rect width="640" height="480" fill="white" style="fill:white;fill-opacity:1;"/>
</clipPath>
</defs>
</svg>
