<svg width="640" height="480" viewBox="0 0 640 480" fill="none" xmlns="http://www.w3.org/2000/svg">
<g id="cc" clip-path="url(#clip0_2194_1939)">
<path id="Vector" d="M0 0H640V480H0V0Z" fill="#008000" style="fill:#008000;fill:color(display-p3 0.0000 0.5020 0.0000);fill-opacity:1;"/>
<path id="Vector_2" d="M320 306.7C356.837 306.7 386.7 276.837 386.7 240C386.7 203.163 356.837 173.3 320 173.3C283.163 173.3 253.3 203.163 253.3 240C253.3 276.837 283.163 306.7 320 306.7Z" fill="#FFE000" style="fill:#FFE000;fill:color(display-p3 1.0000 0.8784 0.0000);fill-opacity:1;"/>
<path id="Vector_3" d="M340.8 294.9C371.12 294.9 395.7 270.321 395.7 240C395.7 209.68 371.12 185.1 340.8 185.1C310.479 185.1 285.9 209.68 285.9 240C285.9 270.321 310.479 294.9 340.8 294.9Z" fill="#008000" style="fill:#008000;fill:color(display-p3 0.0000 0.5020 0.0000);fill-opacity:1;"/>
<path id="Vector_4" d="M109.8 243.1C148.349 243.1 179.6 211.849 179.6 173.3C179.6 134.751 148.349 103.5 109.8 103.5C71.2505 103.5 40 134.751 40 173.3C40 211.849 71.2505 243.1 109.8 243.1Z" fill="#FFE000" style="fill:#FFE000;fill:color(display-p3 1.0000 0.8784 0.0000);fill-opacity:1;"/>
<path id="Vector_5" d="M105 226H122.5C122.5 226 123.2 224.4 122.3 223.6C121.3 222.8 117.6 222.6 118.6 219.8C120.6 214 121 215.8 122.3 202C123.251 190.184 123.918 178.348 124.3 166.5H121.7C121.7 166.5 122.2 173.2 120.7 182C119.3 190.8 118.8 191.5 117.2 198.3C116.444 202.126 115.339 205.875 113.9 209.5C112.5 213.5 112.3 213.6 110.1 217.3C107.8 220.9 108.6 219.5 107.4 221.7C106.7 222.8 106 222.5 105.5 223.3C105 224.1 105 226 105 226Z" fill="#802000" stroke="#7B3100" style="fill:#802000;fill:color(display-p3 0.5020 0.1255 0.0000);fill-opacity:1;stroke:#7B3100;stroke:color(display-p3 0.4824 0.1922 0.0000);stroke-opacity:1;" stroke-width="1.5"/>
<path id="Vector_6" d="M118.3 122.5C118.529 125.616 118.121 128.747 117.1 131.7C115.726 134.794 114.946 138.118 114.8 141.5C113 142.1 111.1 137.6 109.3 140.3C110.6 144 113.7 146.9 115.7 150.2C116.1 151.2 119.1 153.9 117.3 154.5C113 153 111.9 147.5 109.3 144.2C107.778 141.354 105.557 138.942 102.845 137.193C100.133 135.443 97.0203 134.413 93.8001 134.2C91.3001 134.3 83.4001 133.7 85.4001 137.9C88.4001 139.9 92.2 141.3 95.2 143.6C97.5 143.8 101.5 147.6 101.3 149C97.3001 147.4 95.5001 145.5 91.3001 143.8C85.5001 141.6 77.6001 142.9 74.3001 148.6C73.8001 150.1 72.9001 154.4 74.8001 154.9C77.0001 151.5 80.1 147.6 84.7 148.7C88.3 149 80.7 155.4 83.6 154.1C84.6 153.7 86.6 152.3 88.2 152.1C89.7 152.1 90.5 153.1 91.6 153.3C93.9 153.6 94.6001 154.5 94.3001 155.1C94.0001 155.7 93.3 155.1 91 155.9C89.9 156.3 89.3 157.3 88 157.8C86.7 158.3 83.8001 158.3 82.8001 157.8C79.1001 156.3 73.1 156.5 72 161.1C72 163.1 70.2001 160.9 69.4001 161.8C68.7001 164 68.6001 166.2 65.4001 166C63.4001 168 61.4 170.2 58.8 171.7C60.3 175.1 66.1001 168.3 65.8001 171.2C63.3001 174.7 67.2001 175.4 68.8001 172.7C71.7001 169.7 75.3 166 79.5 169.1C81.5 171 82.7 168.1 84.2 168.1C85.2 170.6 86.3001 168.3 87.4001 167.6C89.1001 167.4 88.6 169.8 90.6 168.3C94.7 165.6 99.7 167.9 103.7 165.3C108 163.3 104.3 166.8 103.2 168.2C101.3 171.8 102.9 176.6 98.9001 178.8C97.2001 183.1 100.8 188.8 97.2 192C96.7 194 101.8 193.8 103.2 194.6C105.8 194.6 103.2 188.8 105.7 188C109.1 190 108.9 184.2 108.2 182.4C108.6 178.4 108.8 173.8 110.8 170.1C113 165.6 115 172 112.6 173.8C111.2 177.9 109.2 183.2 112.3 187.1C113.3 187.3 114 189.5 115.1 190.1C116.3 190.8 117.9 190 118.1 188C119.7 182 118.9 175.6 121.1 169.7C122.6 167.9 124.7 169.4 125.6 171.1C128.6 174.6 130.7 178.9 134.3 181.8C137.708 183.194 140.484 185.792 142.1 189.1C142.1 191.7 149.5 192.1 147.3 189.1C145.2 186.4 146.6 183.5 148.7 181.6C149.9 181.9 149.6 179.8 148.7 180.6C147.2 180.3 147.1 177.6 149.1 178.9C152.6 180 148.9 176.4 147.6 176.3C144.7 174.5 141.4 172.5 140 169.3C143.8 169.3 147.7 171.4 151.5 170.2C154.6 168.6 157.7 170.2 158.8 173C161.2 172.6 160.2 170.2 158.8 169.4C160.5 168.7 161.8 167.2 159.6 165.9C158.6 164.5 161.1 161.9 157.9 162.1C158 159.6 157.1 157.4 154.4 156.5C151.7 154.3 143.8 159.9 144.1 154.8C143.3 152 147.3 154.4 148.4 153C149.5 150 142.9 150.4 145.1 148C146.5 147.2 153.2 145.9 148 144.9C146.827 145.267 145.586 145.358 144.372 145.167C143.158 144.977 142.004 144.509 141 143.8C139.1 146.9 133.8 142 134.7 147.6C134 149.7 129.2 155.2 127.9 151C128.9 147.7 134.7 146.7 132.9 142.2C132.6 139.5 130.3 142.7 129.3 142.5C128.7 140.8 130.9 138.7 132.5 138.3C135.5 140.7 135.5 135.3 138.5 135.8C140.6 135.3 137.8 134.4 137.2 134C137.8 132.5 141.1 131.7 137.9 130.3C135 128.3 132.9 132.4 130.6 132.6C128.4 130.1 132.6 128.9 133.8 127.6C133.9 126.6 131.4 127.3 132.1 126.4C132.8 125.3 137.3 125.2 135.1 123.4C131.735 122.4 128.125 122.612 124.9 124C122.9 124.6 122.4 129 120.7 128.8C120 126.8 121 123 118.3 122.5ZM133.3 164.8C135.7 164.4 133.3 168.5 132.3 168.4C132.3 167 128.7 167.1 131 165.8C131.7 165.331 132.479 164.992 133.3 164.8Z" fill="#008000" style="fill:#008000;fill:color(display-p3 0.0000 0.5020 0.0000);fill-opacity:1;"/>
<g id="Group">
<path id="Vector_7" d="M480.06 323.84L484.467 337.543L497.929 332.444L489.966 344.439L502.348 351.786L487.997 353.037L489.972 367.299L480.06 356.86L470.141 367.293L472.116 353.037L457.771 351.78L470.154 344.433L462.185 332.438L475.647 337.537L480.06 323.84Z" fill="#FFE000" style="fill:#FFE000;fill:color(display-p3 1.0000 0.8784 0.0000);fill-opacity:1;"/>
<path id="Vector_8" d="M400.05 197.157L404.457 210.861L417.919 205.762L409.956 217.757L422.338 225.104L407.987 226.355L409.962 240.617L400.05 230.177L390.131 240.611L392.106 226.355L377.761 225.097L390.144 217.751L382.175 205.755L395.637 210.854L400.05 197.157Z" fill="#FFE000" style="fill:#FFE000;fill:color(display-p3 1.0000 0.8784 0.0000);fill-opacity:1;"/>
<path id="Vector_9" d="M480.06 110.48L484.467 124.183L497.929 119.084L489.966 131.079L502.348 138.426L487.997 139.677L489.972 153.939L480.06 143.5L470.141 153.933L472.116 139.677L457.771 138.42L470.154 131.073L462.185 119.078L475.647 124.177L480.06 110.48Z" fill="#FFE000" style="fill:#FFE000;fill:color(display-p3 1.0000 0.8784 0.0000);fill-opacity:1;"/>
<path id="Vector_10" d="M551.18 175.822L555.587 189.525L569.049 184.426L561.086 196.421L573.468 203.768L559.117 205.019L561.092 219.281L551.18 208.842L541.261 219.275L543.236 205.019L528.891 203.762L541.274 196.415L533.305 184.419L546.767 189.518L551.18 175.822Z" fill="#FFE000" style="fill:#FFE000;fill:color(display-p3 1.0000 0.8784 0.0000);fill-opacity:1;"/>
<path id="Vector_11" d="M512.064 240.02L515.55 248.561L524.745 249.234L517.696 255.19L519.9 264.144L512.064 259.28L504.228 264.15L506.425 255.197L499.377 249.24L508.584 248.567L512.064 240.02Z" fill="#FFE000" style="fill:#FFE000;fill:color(display-p3 1.0000 0.8784 0.0000);fill-opacity:1;"/>
</g>
</g>
<defs>
<clipPath id="clip0_2194_1939">
<rect width="640" height="480" fill="white" style="fill:white;fill-opacity:1;"/>
</clipPath>
</defs>
</svg>
