<svg width="640" height="480" viewBox="0 0 640 480" fill="none" xmlns="http://www.w3.org/2000/svg">
<g id="ck" clip-path="url(#clip0_2194_1998)">
<path id="Vector" d="M0 0H640V480H0V0Z" fill="#000066" style="fill:#000066;fill:color(display-p3 0.0000 0.0000 0.4000);fill-opacity:1;"/>
<path id="Vector_2" fill-rule="evenodd" clip-rule="evenodd" d="M471.6 213L476.8 196.3L462.8 185.7L480.4 185.5L486.4 169L492 185.5L509.7 186L495.6 196.5L500.6 213.2L486.1 203.2M513.2 216.2L523.6 202.3L513.9 187.5L530.6 193.3L541.6 179.8V197.4L558 203.8L541.2 208.8L540.4 226.3L530.2 211.9M431.8 226.9L431.1 209.4L414.3 204.2L431 198V180.6L441.9 194.1L458.7 188.5L448.9 203.2L459.2 217.2L442.2 212.7M402.6 253.6L395.2 237.8L377.8 239.6L390.6 227.3L384 211L399.2 219.2L412.5 207.4L409.1 224.8L424 233.7L406.7 236.2M389 291.8L375.7 280.7L360.7 289.9L367.1 273.2L354.2 261.6L371.5 262.3L378.5 245.9L382.8 263.1L400 264.6L385.4 274.4M388.6 334.8L372.1 330L362 344.5L361.3 326.6L344.9 321.1L361 314.9V296.9L371.7 311L388.1 305.4L378.5 320.4M408 371.2L391 373.6L387.5 391L379.7 375L362.6 376.6L374.8 364.3L367.7 347.9L383 356.4L395.8 344.6L393 362M438 400L422.9 408.2L425.5 425.8L412.8 413.4L397.2 421L404.5 405.1L392.2 392.2L409.5 394.8L417.5 379.3L420.9 396.7M474.7 405.7L466.4 421L478.1 434.2L460.7 430.9L451.8 445.9L449.4 428.6L432.2 424.6L448 417.2L446.3 399.7L458.5 412.5M515.9 399.4L515.4 416.8L531.7 423.2L514.7 428.2L513.5 445.7L503.5 431.4L486.5 435.8L497.3 421.9L487.9 407.2L504.5 412.9M559 209.8L571 222.4L586.9 215L578.6 230.8L590.1 243.9L573.1 241.1L564.1 256.6L562 239L545 235.5L560.7 227.5M594.9 248.5L600.4 265.1L617.9 265.4L603.7 276.1L608.4 292.9L594.3 282.9L579.7 293L585.1 276.2L571.3 265.6L588.9 265.2M608.4 298.4L606.4 315.8L622.1 323.5L604.8 327.1L602.1 344.4L593.4 329.3L576 332.2L588 319.2L579.9 303.7L595.9 310.9M598.9 350.7L591.1 366.3L603 379L585.6 376.3L577.2 391.6L574.2 374.3L556.8 371L572.4 363L570.1 345.6L582.7 357.9M572.9 397L558.2 406.2L562 423.5L548.5 412L533.5 420.6L539.8 404.3L526.7 392.2L544.1 393.7L551.1 377.7L555.5 394.9" fill="white" style="fill:white;fill-opacity:1;"/>
<path id="Vector_3" d="M0 0H320V240H0V0Z" fill="#000066" style="fill:#000066;fill:color(display-p3 0.0000 0.0000 0.4000);fill-opacity:1;"/>
<path id="Vector_4" d="M37.5 0L159.5 90.5L281 0H320V31L200 120.5L320 209.5V240H280L160 150.5L40.5 240H0V210L119.5 121L0 32V0H37.5Z" fill="white" style="fill:white;fill-opacity:1;"/>
<path id="Vector_5" d="M212 140.5L320 220V240L184.5 140.5H212ZM120 150.5L123 168L27 240H0L120 150.5ZM320 0V1.5L195.5 95.5L196.5 73.5L295 0H320ZM0 0L119.5 88H89.5L0 21V0Z" fill="#C8102E" style="fill:#C8102E;fill:color(display-p3 0.7843 0.0627 0.1804);fill-opacity:1;"/>
<path id="Vector_6" d="M120.5 0V240H200.5V0H120.5ZM0 80V160H320V80H0Z" fill="white" style="fill:white;fill-opacity:1;"/>
<path id="Vector_7" d="M0 96.5V144.5H320V96.5H0ZM136.5 0V240H184.5V0H136.5Z" fill="#C8102E" style="fill:#C8102E;fill:color(display-p3 0.7843 0.0627 0.1804);fill-opacity:1;"/>
</g>
<defs>
<clipPath id="clip0_2194_1998">
<rect width="640" height="480" fill="white" style="fill:white;fill-opacity:1;"/>
</clipPath>
</defs>
</svg>
