<svg width="640" height="480" viewBox="0 0 640 480" fill="none" xmlns="http://www.w3.org/2000/svg">
<g id="cu" clip-path="url(#clip0_2194_2058)">
<g id="Clip path group">
<mask id="mask0_2194_2058" style="mask-type:luminance" maskUnits="userSpaceOnUse" x="-1" y="0" width="643" height="482">
<g id="cu-a">
<path id="Vector" d="M-0.0800781 0H641.658V481.28H-0.0800781V0Z" fill="white" style="fill:white;fill-opacity:1;"/>
</g>
</mask>
<g mask="url(#mask0_2194_2058)">
<g id="Group">
<path id="Vector_2" fill-rule="evenodd" clip-rule="evenodd" d="M-0.0800781 0H721.84V481.28H-0.0800781V0Z" fill="#002A8F" style="fill:#002A8F;fill:color(display-p3 0.0000 0.1647 0.5608);fill-opacity:1;"/>
<path id="Vector_3" fill-rule="evenodd" clip-rule="evenodd" d="M-0.0800781 96.2561H721.84V192.512H-0.0800781V96.2561ZM-0.0800781 288.768H721.84V385.024H-0.0800781V288.768Z" fill="white" style="fill:white;fill-opacity:1;"/>
<path id="Vector_4" fill-rule="evenodd" clip-rule="evenodd" d="M-0.0800781 0L414.178 240.358L-0.0800781 480.34V0Z" fill="#CB1515" style="fill:#CB1515;fill:color(display-p3 0.7961 0.0824 0.0824);fill-opacity:1;"/>
<path id="Vector_5" fill-rule="evenodd" clip-rule="evenodd" d="M182.092 305.97L137.442 272.6L93.074 306.252L109.618 251.638L65.25 217.798L120.052 217.422L137.066 162.902L154.456 217.234L209.258 217.328L165.172 251.45L182.092 305.97Z" fill="white" style="fill:white;fill-opacity:1;"/>
</g>
</g>
</g>
</g>
<defs>
<clipPath id="clip0_2194_2058">
<rect width="640" height="480" fill="white" style="fill:white;fill-opacity:1;"/>
</clipPath>
</defs>
</svg>
