<svg width="640" height="480" viewBox="0 0 640 480" fill="none" xmlns="http://www.w3.org/2000/svg">
<g id="cv" clip-path="url(#clip0_2194_2067)">
<g id="Clip path group">
<mask id="mask0_2194_2067" style="mask-type:luminance" maskUnits="userSpaceOnUse" x="-1" y="0" width="643" height="482">
<g id="cv-a">
<path id="Vector" d="M-0.295898 0H641.348V481.28H-0.295898V0Z" fill="white" style="fill:white;fill-opacity:1;"/>
</g>
</mask>
<g mask="url(#mask0_2194_2067)">
<g id="Group">
<path id="Vector_2" fill-rule="evenodd" clip-rule="evenodd" d="M-0.296138 219.02H795.32V412.66H-0.390137L-0.296138 219.02Z" fill="white" style="fill:white;fill-opacity:1;"/>
<path id="Vector_3" fill-rule="evenodd" clip-rule="evenodd" d="M0.268066 0H795.508V241.204H0.268066V0ZM0.550069 362.746H801.524V481.28H0.550069V362.746Z" fill="#081873" style="fill:#081873;fill:color(display-p3 0.0314 0.0941 0.4510);fill-opacity:1;"/>
<path id="Vector_4" fill-rule="evenodd" clip-rule="evenodd" d="M0.549805 284.444H795.79V321.668H0.549805V284.444Z" fill="#DE3929" style="fill:#DE3929;fill:color(display-p3 0.8706 0.2235 0.1608);fill-opacity:1;"/>
<path id="Vector_5" fill-rule="evenodd" clip-rule="evenodd" d="M238.84 375.248L245.044 394.424H265.16L248.804 406.362L255.008 425.632L238.84 413.6L222.484 425.538L228.782 406.268L212.426 394.33H232.636M413.68 235.376L419.978 254.646H440L423.644 266.49L429.848 285.76L413.492 273.822L397.136 285.76L403.34 266.49L386.984 254.646H407.288M198.608 315.182L204.812 334.452H225.022L208.76 346.484L215.058 365.66L198.702 353.816L182.346 365.66L188.55 346.484L172.194 334.546H192.404M413.68 309.73L419.978 328.906H440L423.644 340.844L429.848 360.02L413.492 348.176L397.136 360.114L403.34 340.844L386.984 328.906H407.288M369.218 176.908L375.516 196.084H395.82L379.464 208.022L385.668 227.292L369.312 215.354L352.956 227.292L359.254 208.022L342.804 196.084H363.108M302.478 153.596L308.776 172.866H328.986L312.63 184.71L318.834 203.98L302.478 192.136L286.122 203.98L292.42 184.71L276.064 172.866H296.18M235.55 175.592L241.848 194.862H262.058L245.702 206.706L252 225.976L235.55 214.038L219.194 225.976L225.492 206.706L209.136 194.862H229.44M196.728 235.47L202.932 254.74H223.236L206.786 266.584L213.084 285.854L196.728 273.916L180.372 285.854L186.576 266.584L170.22 254.74H190.43M302.478 395.176L308.776 414.446H328.986L312.63 426.29L318.928 445.56L302.478 433.622L286.122 445.56L292.42 426.29L276.064 414.446H296.18M373.448 375.248L379.652 394.424H399.862L383.6 406.362L389.898 425.632L373.542 413.694L357.092 425.632L363.39 406.362L347.034 394.424H367.244" fill="#FFCE08" style="fill:#FFCE08;fill:color(display-p3 1.0000 0.8078 0.0314);fill-opacity:1;"/>
</g>
</g>
</g>
</g>
<defs>
<clipPath id="clip0_2194_2067">
<rect width="640" height="480" fill="white" style="fill:white;fill-opacity:1;"/>
</clipPath>
</defs>
</svg>
