<svg width="640" height="480" viewBox="0 0 640 480" fill="none" xmlns="http://www.w3.org/2000/svg">
<g id="cy" clip-path="url(#clip0_2194_2107)">
<path id="Vector" d="M0 0H640V480H0V0Z" fill="white" style="fill:white;fill-opacity:1;"/>
<path id="cy-a" d="M307.8 398.6L307.6 398.4H307.5L306.2 397L302.4 392.5L297.5 386.2L296.9 385.3L290.7 383.4L286.1 381.3L288.5 378.6L296.9 382.1L303.1 383.4L314.6 391.9L311.3 394.8L308 398.3L308.7 397.8L309.5 398.4L307.8 398.6ZM265.2 385.8C259.563 385.736 254.044 384.183 249.2 381.3C249.2 381.3 249.9 380 251.5 378.9C253.1 377.7 255.9 376.4 260.5 376.3C265.967 376.3 272.467 378.1 280 381.7C275.515 384.337 270.403 385.719 265.2 385.7V385.8ZM241.7 380.6C240.633 380.6 239.767 380.267 239.1 379.6C238.525 378.913 238.145 378.084 238 377.2C237.739 376.087 237.638 374.942 237.7 373.8L239 373.6C241 373.6 242.6 375.3 243.3 377C243.7 378 243.767 378.833 243.5 379.5C243.233 380.167 242.633 380.5 241.7 380.5V380.6ZM283 375.8C269.1 373.8 263.2 368.8 260.7 364.9C258.1 360.8 258.7 356.9 258.7 356.9C258.7 356.9 259.5 356.7 260.7 356.7C264.5 356.7 273.9 358.6 283 375.7V375.8ZM254.5 373C248.567 373 244.1 372 241.1 370C239.807 369.207 238.767 368.062 238.1 366.7L237.7 365.1C239.978 364.144 242.429 363.668 244.9 363.7C248.469 363.828 251.977 364.663 255.222 366.156C258.466 367.65 261.382 369.772 263.8 372.4C260.4 372.8 257.3 373 254.5 373ZM225.8 372C219.6 372 211 370 205.6 364.7C205.6 364.7 211.5 363.2 218 363H219.2C225.133 363 229.6 364.133 232.6 366.4C233.6 367.2 234.167 367.933 234.3 368.6C234.433 369.267 234.167 369.833 233.5 370.3C232.1 371.3 229.7 371.833 226.3 371.9H225.8V372ZM205.5 361.5C204.729 361.437 204.013 361.079 203.5 360.5C203.091 359.899 202.818 359.217 202.7 358.5C202.4 357.1 202.5 355.7 202.5 355.6L203.5 355.4C204.433 355.467 205.1 355.8 205.5 356.4C206.099 356.964 206.575 357.645 206.9 358.4C207.167 359.267 207.167 360 206.9 360.6C206.9 361 206.3 361.6 205.6 361.6L205.5 361.5ZM252.4 360.5C251.333 360.5 250.467 360.167 249.8 359.5C249.225 358.813 248.845 357.984 248.7 357.1C248.439 355.987 248.338 354.842 248.4 353.7L249.7 353.5C251.7 353.5 253.4 355.2 254 356.9C254.4 357.9 254.5 358.733 254.3 359.4C253.967 360.067 253.3 360.4 252.3 360.4L252.4 360.5ZM229.6 359.5C217 359.1 210.4 355.5 207.2 352.5C205.812 351.288 204.66 349.83 203.8 348.2C203.333 347.133 203.1 346.467 203.1 346.2C203.233 345.867 204.233 345.733 206.1 345.8H206.5C210.7 345.8 219.4 347.6 229.5 359.5H229.6ZM243.2 358.3C236.008 357.501 229.321 354.211 224.3 349C222.445 346.989 221.047 344.601 220.2 342C220.2 342 221.4 341.7 223.2 341.6H224.2C229.2 341.7 238.5 344 243.2 358.3ZM191.2 353.3C188.006 353.329 184.818 352.994 181.7 352.3C176.4 350.9 174.1 348.9 173.1 347.4C172.691 346.799 172.418 346.117 172.3 345.4V344.6C172.3 344.6 175.8 343.6 180.7 343.5C183.181 343.437 185.662 343.638 188.1 344.1C193.191 345.2 197.727 348.07 200.9 352.2C200.9 352.2 196.9 353.4 191.2 353.4V353.3ZM214.7 344.9C214.234 344.94 213.766 344.87 213.332 344.696C212.897 344.523 212.51 344.25 212.2 343.9C211.625 343.213 211.245 342.384 211.1 341.5C210.7 339.9 210.8 338.3 210.8 338.1L212 337.8H212.1C214.1 337.8 215.7 339.6 216.4 341.3C216.8 342.3 216.867 343.1 216.6 343.7C216.267 344.367 215.633 344.733 214.7 344.8V344.9ZM197.1 342.4C193.726 341.438 190.497 340.026 187.5 338.2C183.1 335.5 177.6 330.7 177 323.2L178 323.1H178.3C179.6 323.1 182.3 323.4 185.6 325.9C189.8 329.167 193.633 334.667 197.1 342.4ZM208.6 342C205.841 340.747 203.28 339.096 201 337.1C195.162 332.036 190.604 325.662 187.7 318.5C187.7 318.5 188.6 318 190 317.9H190.6C192.6 317.9 195.5 318.8 198.7 322.3C202.5 326.3 205.833 332.867 208.7 342H208.6ZM178.7 341.1C174.8 341.1 173.5 339.1 173.1 338.1C172.713 337.151 172.575 336.118 172.7 335.1L174.7 334.9C175.942 334.861 177.176 335.112 178.304 335.632C179.433 336.153 180.424 336.93 181.2 337.9C181.4 338.3 182 339.3 181.5 340.2C181.1 340.867 180.167 341.2 178.7 341.2V341.1ZM170.2 330.3C167.185 330.333 164.173 330.099 161.2 329.6C157.8 329 155.9 326.1 154.8 323.7C153.8 321.2 153.4 318.7 153.4 318.7C164 319 169.1 322.1 171.4 324.7C172.879 326.176 173.798 328.121 174 330.2C174 330.2 172.4 330.4 170.2 330.4V330.3ZM181.2 319.3L178.8 315.9C177.5 313.9 176.4 311.9 176.4 310.3C176.4 308.6 176 305.3 175.8 303.3L175.2 298.8C175.5 298.8 181.8 301.2 181.8 307.2C181.8 313.2 181.2 319.2 181.2 319.2V319.3ZM173 318.7H172.8C165.945 316.634 159.698 312.927 154.6 307.9C152.867 305.9 151.833 302.767 151.5 298.5C151.3 295.5 151.5 293 151.5 292.7L152.6 292.6C153.933 292.6 155.6 293.267 157.6 294.6C159.455 295.916 161.195 297.388 162.8 299C166 302.2 168.5 305.4 168.5 305.4C168.8 305.8 170.5 309.1 172 312.3C172.702 313.769 173.239 315.312 173.6 316.9C173.733 317.5 173.733 317.967 173.6 318.3L173.3 318.7H172.9H173Z" fill="#435125" style="fill:#435125;fill:color(display-p3 0.2627 0.3176 0.1451);fill-opacity:1;"/>
<path id="cy-a_2" d="M285.9 398.6L286.1 398.4H286.2L287.5 397L291.3 392.5L296.2 386.2L296.8 385.3L303 383.4L307.6 381.3L305.2 378.6L296.8 382.1L290.6 383.4L279.1 391.9L282.4 394.8L285.7 398.3L285 397.8L284.2 398.4L285.9 398.6ZM328.5 385.8C334.137 385.736 339.656 384.183 344.5 381.3C344.5 381.3 343.8 380 342.2 378.9C340.6 377.7 337.8 376.4 333.2 376.3C327.733 376.3 321.233 378.1 313.7 381.7C318.185 384.337 323.297 385.719 328.5 385.7V385.8ZM352 380.6C353.067 380.6 353.933 380.267 354.6 379.6C355.175 378.913 355.555 378.084 355.7 377.2C355.961 376.087 356.062 374.942 356 373.8L354.7 373.6C352.7 373.6 351.1 375.3 350.4 377C350 378 349.933 378.833 350.2 379.5C350.467 380.167 351.067 380.5 352 380.5V380.6ZM310.7 375.8C324.6 373.8 330.5 368.8 333 364.9C335.6 360.8 335 356.9 335 356.9C335 356.9 334.2 356.7 333 356.7C329.2 356.7 319.8 358.6 310.7 375.7V375.8ZM339.2 373C345.133 373 349.6 372 352.6 370C353.893 369.207 354.933 368.062 355.6 366.7L356 365.1C353.721 364.144 351.271 363.668 348.8 363.7C345.231 363.828 341.722 364.663 338.478 366.156C335.234 367.65 332.318 369.772 329.9 372.4C333.3 372.8 336.4 373 339.2 373ZM367.9 372C374.1 372 382.7 370 388.1 364.7C388.1 364.7 382.2 363.2 375.7 363H374.5C368.567 363 364.1 364.133 361.1 366.4C360.1 367.2 359.533 367.933 359.4 368.6C359.267 369.267 359.533 369.833 360.2 370.3C361.6 371.3 364 371.833 367.4 371.9H367.9V372ZM388.2 361.5C388.971 361.437 389.687 361.079 390.2 360.5C390.609 359.899 390.882 359.217 391 358.5C391.3 357.1 391.2 355.7 391.2 355.6L390.2 355.4C389.267 355.467 388.6 355.8 388.2 356.4C387.601 356.964 387.125 357.645 386.8 358.4C386.533 359.267 386.533 360 386.8 360.6C386.8 361 387.4 361.6 388.1 361.6L388.2 361.5ZM341.3 360.5C342.367 360.5 343.233 360.167 343.9 359.5C344.475 358.813 344.855 357.984 345 357.1C345.261 355.987 345.362 354.842 345.3 353.7L344 353.5C342 353.5 340.3 355.2 339.7 356.9C339.3 357.9 339.2 358.733 339.4 359.4C339.733 360.067 340.4 360.4 341.4 360.4L341.3 360.5ZM364.1 359.5C376.7 359.1 383.3 355.5 386.5 352.5C387.888 351.288 389.04 349.83 389.9 348.2C390.367 347.133 390.6 346.467 390.6 346.2C390.467 345.867 389.467 345.733 387.6 345.8H387.2C383 345.8 374.3 347.6 364.2 359.5H364.1ZM350.5 358.3C357.692 357.501 364.379 354.211 369.4 349C371.255 346.989 372.653 344.601 373.5 342C373.5 342 372.3 341.7 370.5 341.6H369.5C364.5 341.7 355.2 344 350.5 358.3ZM402.5 353.3C405.694 353.329 408.882 352.994 412 352.3C417.3 350.9 419.6 348.9 420.6 347.4C421.009 346.799 421.282 346.117 421.4 345.4V344.6C421.4 344.6 417.9 343.6 413 343.5C410.519 343.437 408.038 343.638 405.6 344.1C400.509 345.2 395.973 348.07 392.8 352.2C392.8 352.2 396.8 353.4 402.5 353.4V353.3ZM379 344.9C379.466 344.94 379.934 344.87 380.368 344.696C380.802 344.523 381.19 344.25 381.5 343.9C382.075 343.213 382.455 342.384 382.6 341.5C383 339.9 382.9 338.3 382.9 338.1L381.7 337.8H381.6C379.6 337.8 378 339.6 377.3 341.3C376.9 342.3 376.833 343.1 377.1 343.7C377.433 344.367 378.067 344.733 379 344.8V344.9ZM396.6 342.4C399.974 341.438 403.203 340.026 406.2 338.2C410.6 335.5 416.1 330.7 416.7 323.2L415.7 323.1H415.4C414.1 323.1 411.4 323.4 408.1 325.9C403.9 329.167 400.067 334.667 396.6 342.4ZM385.1 342C387.859 340.747 390.42 339.096 392.7 337.1C398.538 332.036 403.095 325.662 406 318.5C406 318.5 405.1 318 403.7 317.9H403.1C401.1 317.9 398.2 318.8 395 322.3C391.2 326.3 387.867 332.867 385 342H385.1ZM415 341.1C418.9 341.1 420.2 339.1 420.6 338.1C420.987 337.151 421.125 336.118 421 335.1L419 334.9C417.758 334.861 416.524 335.112 415.396 335.632C414.267 336.153 413.276 336.93 412.5 337.9C412.3 338.3 411.7 339.3 412.2 340.2C412.6 340.867 413.533 341.2 415 341.2V341.1ZM423.5 330.3C426.515 330.333 429.527 330.099 432.5 329.6C435.9 329 437.8 326.1 438.9 323.7C439.9 321.2 440.3 318.7 440.3 318.7C429.7 319 424.6 322.1 422.3 324.7C420.821 326.176 419.902 328.121 419.7 330.2C419.7 330.2 421.3 330.4 423.5 330.4V330.3ZM412.5 319.3L414.9 315.9C416.2 313.9 417.3 311.9 417.3 310.3C417.3 308.6 417.7 305.3 417.9 303.3L418.5 298.8C418.2 298.8 411.9 301.2 411.9 307.2C411.9 313.2 412.5 319.2 412.5 319.2V319.3ZM420.7 318.7H420.9C427.755 316.634 434.002 312.927 439.1 307.9C440.833 305.9 441.867 302.767 442.2 298.5C442.4 295.5 442.2 293 442.2 292.7L441.1 292.6C439.767 292.6 438.1 293.267 436.1 294.6C434.245 295.916 432.505 297.388 430.9 299C427.7 302.2 425.2 305.4 425.2 305.4C424.9 305.8 423.2 309.1 421.7 312.3C420.998 313.769 420.461 315.312 420.1 316.9C419.967 317.5 419.967 317.967 420.1 318.3L420.4 318.7H420.8H420.7Z" fill="#435125" style="fill:#435125;fill:color(display-p3 0.2627 0.3176 0.1451);fill-opacity:1;"/>
<path id="Vector_2" d="M519 76.3999L517.2 77.0999L516.4 77.3999L514.2 77.2999L512 78.2999L508.2 80.8999L508.1 80.9999L506.6 81.3999L505.3 80.7999L504.6 81.1999L504.3 82.6999L503.6 83.7999L502.7 84.3999L499.7 84.6999L497.2 86.0999L493.8 85.0999L492.3 85.7999L489 88.7999L487.3 89.4999H486.8L484.5 89.3999L483.6 89.6999L482.2 90.9999L479.6 91.1999L478.7 91.7999L477.4 94.3999L476 95.9999L475.2 96.0999L474.4 95.7999L473.7 95.8999L473.4 97.5999L472.8 98.2999L471 98.8999L469.6 100.1L468.3 100.7H466.3L464.6 101.7L461.5 101.9L460.2 103.1L459.9 103.4L459.3 103.7L458.3 104.3L458.1 104.5L456.9 104.3L455.5 104.8L454.9 104L453.9 104.5L452.7 104.6L451.1 103.9L449.8 103.3L448.9 103.5L448.6 105V105.2L447.6 106.4L445.9 107.5L445.7 107.8L443.7 110.4L439.9 114.4L436.7 116L433.4 117L431.1 118.9L425.1 121.9L415.4 126.7L413.4 127.3L410.6 127.7L405.6 129.6L401.2 130.9L400.9 131L400.1 131.3L393.8 133.2L390.9 132.8L389.2 133.5L384.7 133H381.6L379.6 133.4L375.9 135.2L369.6 138.2L367.6 140.2L364.4 141.8L360.6 143V141.4L359.3 141.8L358.3 142.1L355.3 142.5H353.6L352.5 142.2H352.3L346.1 144.3L339.1 145L335.6 146.1H333L331.4 146.6L328.2 147L327 146.7L326.8 146.6L317.4 147L313.1 146.5L311.1 147L307.6 145.8L302.6 145.2L301.4 144.9L298.8 144.1L297.6 144.8L296.6 144.9L294.6 144.1H293.8L292 144.7L291 144.5L290 143.7L287.9 143.4L286.5 142.3L279 143.3L277 142.7L270.1 140.7H269.1L267.7 141.7L265.7 142.5L263.8 142.9L261.4 143L258.6 142.3L255.8 140.9L254.7 140.6L252.3 140.9H251.6L247.2 138.6L241.6 135.1L237.8 133.2L236.3 133L236.1 133.7L236.8 135.9L237.1 138.2V140.2L237 141.5L237.3 142.6L238.7 144.2L239.3 145.7L239.7 149.9V154.2L239 161L238.8 162L238 165.6L237.3 168.9L234.4 177.6L233.7 178.6L231.7 179.9L227.4 182.9L224.2 184.7L223.2 185.1L220.6 185.3H219L217 184.2L215 183.7L212.4 181.8L209.6 181.2L206.4 179.4L205.6 178.4L203.9 178.2L201.5 177.5L200.6 177.2L200 177.1L197 177L194.1 175.7L192.6 175.3H190.6L188.5 176.3L187.4 176.7L186 176.2H185L184 177.9L183.8 178.2L183 178.6H181.3L180.5 178.9L179.4 179.4L178.4 179.8L177.9 180H177.6L177.1 180.2H176.5L175.3 179.6L174.7 179.3L173.7 179.1L173.2 179.4L173.1 181.3L172.6 182.4L171 183.8L169.4 185.2L168.4 186.8L165.4 193.5L163.5 196.2L163 196.9L161 199L159.3 200.3L155.4 203.3L151.7 204.8L148.5 205.4H146.9L143.9 205L141.3 204.2L138.3 202.4L135.2 199.8L130.5 195.3L129.9 194.9L129.7 194.8L128.3 193.8H127.2L126.8 194.6L126.5 195.6L126.3 196.5L125.8 201.5V201.8L126.1 203.9L129.7 208.9L130.7 211.5L130.9 211.8L131.6 213L132.2 214L133.5 217.6L132.6 219.6L133 221L132 221.8L131.8 223L134.9 227L135.6 228.7L134.9 231.1L133.6 232.5L133.3 232.8L133.5 233.8L134.9 235.2L137.4 237.4L138.7 240.6L139.7 241.6L140.9 241.3L141.5 241.8H142.5L143.5 242.8L144.1 243L145.1 243.5L145.9 244.5L146 247.7L147.5 251.5V254L148.5 255.5L148.7 256.7L148.2 260L149.4 261L150.6 260.8L151.4 260.9L152.7 262L154.3 264.4L155.9 264.2L156.9 264.6L161.6 268.9L162.6 269.5L163.5 269.9L164.5 270.9L165.9 269.9H166.1L167.7 269.7L168.4 270.2L169.8 271.1H171.5L175.5 272.3L177.1 272.7L180.5 274.8L182 275.7L182.8 276.4L184 277.4L186.2 278.4L188.2 278.8L189.2 279L190.1 279.3L194.3 281L196.6 281.5L198.6 282.3L200.2 282.8H201.4L203 281.5H204.5L205.8 281.7L207.1 281.5L209.1 280.3L209.4 279.7L210.8 279.1L215.6 278.5L217 278.9L220.6 277.4L223 278L225 277.3L229.7 278.3L230.9 279.2L232.3 280.7H234L233.3 281.8L235.3 284L237.2 286.7L237.3 287.1L238.6 291L239.6 292.4L240.3 294.3V295.5L239.3 296.4L239.1 296.8V297L239.3 297.5L239.7 297.3L240.4 296.9L241.4 296.7L243 296.9L244.1 297L245.8 296.2L247 295.6L248.8 296.4H250.8L251.7 296.7L254.1 297.8L255.3 297.9L255.7 297.6L256 297L255.9 296.2L254.9 295.1L252.9 292.7L252.1 291.5L251.5 289.8L251.3 287.6L251.1 286.1L251.4 284.1L251.9 283.4L252.3 281.8L252.4 281.4L253.6 279.9L256.6 277.9L259.8 275.1L262.3 273.4L264.9 272.3V272L265.3 272.1L271.9 269.8L274.9 269.3L294.9 270.7L295.6 270.5L296.3 268.6L296.6 268.3L296.9 268.1L299.1 267.1L300.1 266.9L302.9 267.6L304.1 267.9L306 266.9H307.3L310 265.4H311.7L312.4 265.2L315.7 262.8L318.8 261.9L319.6 261.5L319.9 261.3L323.2 259.6L325.2 258L327 257L329 256.6L334 256.2L335.1 254.5L337.3 254.2L338.6 252.7L340.1 252.1L341.2 250.5L342.2 249.2L343.4 248.5L347.5 248.2L352.3 248.8L353 248.4L354 244.5L355.2 243.8L358.2 239.3V237.7L358.3 236.3L358.8 234.3L358.5 230.9L358.9 227.3L360.8 222.8L362.5 221L365.2 219.1L366.6 218.5L368.6 218.2H368.8L369.3 218H378.5L380.8 217.9L386.5 218.9H386.9L388.8 219.6L391 221.3L393.4 223.6L393.8 224L395.3 224.7L395.8 224.9L397 224.7L398.8 223.7L400.2 222.7L402 221.7V221.5L403.1 220L403.5 219.3L407.1 217.9L411.3 217.7L411.8 217.4H412L413.1 216H414.1L416.7 217L418.4 216.6L419.8 217.1L420.9 217L422.9 216.7L425.2 218.3L426.5 218.5L431 221.1H431.4L431.6 221.2L432.1 221L432.9 220.8H433L433.1 220.9L433.7 221.6L434.4 221.7L435.2 220.7L434.9 220.1L434.8 219.9L433.1 219.6L431.7 217.1L433.1 215.6L430.9 213L430.5 212.5V212.4L429.7 211.2L425.9 205.4L420.9 201.4L419.2 200.1L418.6 199.6L415.9 196.9L414 194.4L413.8 193.9L413.4 193L412.3 190.6L410.3 189.1L408.7 187.3L405.3 182.7L404.8 182L404 181.5H402.3L402.2 181.3H402.1V181.2L402.9 180.4L403.9 180.2L404.2 179.3L402.5 174.4V174.2L402.4 172.7L403.7 165.6L403.9 164.7L406.3 160L407.7 158.8L409.3 155.7L410.7 153.7L412 152.4L412.2 152.3L414.5 150.9L416.5 150.6L418.4 150.3L421.7 151.3H424.7L425.4 151.2L426.8 151L429.1 150.3L430.2 149.6L430.8 148.8L432 144.8L432.4 143.5L433.1 142.1L437.4 137.2L440.6 134.2L447.8 129L451.3 126.9L453.1 125.8L469.2 118.6L473.4 114.4L475.6 112.2L479.4 109.6L483.9 107.7L487.9 104.7L488.7 103.6L489.7 100.1L490.7 99.8999L491.4 98.1999L491.7 97.6999L494.8 95.4999L495.2 95.2999L507.5 89.0999L509.3 89.3999L510.3 87.8999L513.8 87.2999H514.5L515.4 86.7999L516.1 85.4999V85.1999L516.2 81.7999L517 80.8999L517.4 78.6999L517.8 78.0999L518.2 77.5999L519.2 76.8999L519 76.3999Z" fill="#D47600" style="fill:#D47600;fill:color(display-p3 0.8314 0.4627 0.0000);fill-opacity:1;"/>
</g>
<defs>
<clipPath id="clip0_2194_2107">
<rect width="640" height="480" fill="white" style="fill:white;fill-opacity:1;"/>
</clipPath>
</defs>
</svg>
