<svg width="640" height="480" viewBox="0 0 640 480" fill="none" xmlns="http://www.w3.org/2000/svg">
<g id="dm" clip-path="url(#clip0_2194_2373)">
<g id="Clip path group">
<mask id="mask0_2194_2373" style="mask-type:luminance" maskUnits="userSpaceOnUse" x="-1" y="0" width="643" height="482">
<g id="dm-a">
<path id="Vector" d="M-0.199951 0H641.538V481.28H-0.199951V0Z" fill="white" style="fill:white;fill-opacity:1;"/>
</g>
</mask>
<g mask="url(#mask0_2194_2373)">
<g id="Group">
<path id="Vector_2" fill-rule="evenodd" clip-rule="evenodd" d="M-163.102 0H802.748V481.28H-163.102V0Z" fill="#108C00" style="fill:#108C00;fill:color(display-p3 0.0627 0.5490 0.0000);fill-opacity:1;"/>
<path id="Vector_3" fill-rule="evenodd" clip-rule="evenodd" d="M-164.7 167.508H805.944V214.602H-164.7V167.508Z" fill="#FFD600" style="fill:#FFD600;fill:color(display-p3 1.0000 0.8392 0.0000);fill-opacity:1;"/>
<path id="Vector_4" fill-rule="evenodd" clip-rule="evenodd" d="M249.84 0H295.43V481.28H249.934L249.84 0Z" fill="#FFD600" style="fill:#FFD600;fill:color(display-p3 1.0000 0.8392 0.0000);fill-opacity:1;"/>
<path id="Vector_5" fill-rule="evenodd" clip-rule="evenodd" d="M293.832 0H339.328V481.28H293.832V0Z" fill="#000001" style="fill:#000001;fill:color(display-p3 0.0000 0.0000 0.0039);fill-opacity:1;"/>
<path id="Vector_6" fill-rule="evenodd" clip-rule="evenodd" d="M-164.7 213.004H805.944V260.192H-164.7V213.004Z" fill="#000001" style="fill:#000001;fill:color(display-p3 0.0000 0.0000 0.0039);fill-opacity:1;"/>
<path id="Vector_7" fill-rule="evenodd" clip-rule="evenodd" d="M-164.7 260.192H805.944V307.286H-164.7V260.192Z" fill="white" style="fill:white;fill-opacity:1;"/>
<path id="Vector_8" fill-rule="evenodd" clip-rule="evenodd" d="M339.328 0H384.918V481.28H339.328V0Z" fill="white" style="fill:white;fill-opacity:1;"/>
<path id="Vector_9" d="M193.252 241.016C193.252 312.399 250.867 370.266 321.938 370.266C393.009 370.266 450.624 312.399 450.624 241.016C450.624 169.633 393.009 111.766 321.938 111.766C250.867 111.766 193.252 169.633 193.252 241.016Z" fill="#E72910" style="fill:#E72910;fill:color(display-p3 0.9059 0.1608 0.0627);fill-opacity:1;"/>
<g id="Group_2">
<path id="Vector_10" fill-rule="evenodd" clip-rule="evenodd" d="M315.17 128.78L320.434 113.74L325.228 128.498C325.228 128.498 341.302 128.968 341.302 128.686C341.302 128.404 328.612 138.368 328.612 138.368L334.346 154.912C334.158 154.442 320.434 144.666 320.434 144.666C320.434 144.666 306.522 154.442 306.804 154.442C307.086 154.442 312.068 138.462 312.068 138.462L299.566 128.968L315.17 128.686V128.78Z" fill="black" style="fill:black;fill-opacity:1;"/>
<path id="Vector_11" fill-rule="evenodd" clip-rule="evenodd" d="M315.922 129.438L320.34 116.56L324.476 129.344C324.476 129.344 338.482 129.72 338.482 129.532C338.482 129.344 327.484 137.992 327.484 137.992L332.372 152.28C332.184 151.81 320.34 143.444 320.34 143.444C320.34 143.444 308.308 151.904 308.496 151.904C308.684 151.904 313.196 137.992 313.196 137.992L302.292 129.72L315.828 129.532L315.922 129.438Z" fill="#FFE700" style="fill:#FFE700;fill:color(display-p3 1.0000 0.9059 0.0000);fill-opacity:1;"/>
<path id="Vector_12" fill-rule="evenodd" clip-rule="evenodd" d="M317.802 131.6L320.434 124.08L322.878 131.506C322.878 131.506 330.868 131.694 330.868 131.506C330.868 131.318 324.57 136.394 324.57 136.394L327.39 144.666C327.296 144.384 320.434 139.59 320.434 139.59L313.666 144.478C313.854 144.478 316.298 136.488 316.298 136.488L310.094 131.788L317.802 131.6Z" fill="#108C00" style="fill:#108C00;fill:color(display-p3 0.0627 0.5490 0.0000);fill-opacity:1;"/>
</g>
<g id="Group_3">
<path id="Vector_13" fill-rule="evenodd" clip-rule="evenodd" d="M415.186 199.092L420.45 184.052L425.15 198.81C425.15 198.81 441.318 199.374 441.318 199.092C441.318 198.81 428.628 208.774 428.628 208.774L434.268 225.318C434.08 224.848 420.45 215.072 420.45 215.072C420.45 215.072 406.538 224.848 406.82 224.848C407.102 224.848 412.084 208.868 412.084 208.868L399.582 199.28L415.186 198.998V199.092Z" fill="black" style="fill:black;fill-opacity:1;"/>
<path id="Vector_14" fill-rule="evenodd" clip-rule="evenodd" d="M415.844 199.844L420.45 186.778L424.586 199.656C424.586 199.656 438.498 200.032 438.498 199.844C438.498 199.656 427.5 208.304 427.5 208.304L432.482 222.498C432.294 222.122 420.45 213.662 420.45 213.662C420.45 213.662 408.418 222.122 408.606 222.122C408.794 222.122 413.212 208.21 413.212 208.21L402.402 200.032L415.844 199.844Z" fill="#FFE700" style="fill:#FFE700;fill:color(display-p3 1.0000 0.9059 0.0000);fill-opacity:1;"/>
<path id="Vector_15" fill-rule="evenodd" clip-rule="evenodd" d="M417.818 202.006L420.45 194.486L422.8 201.818L430.884 202.006L424.492 206.8C424.492 206.8 427.5 215.26 427.312 215.072C427.312 214.79 420.45 209.996 420.45 209.996L413.588 214.79L416.22 206.8L410.016 202.1L417.818 202.006Z" fill="#108C00" style="fill:#108C00;fill:color(display-p3 0.0627 0.5490 0.0000);fill-opacity:1;"/>
</g>
<g id="Group_4">
<path id="Vector_16" fill-rule="evenodd" clip-rule="evenodd" d="M386.046 310.764L391.31 295.724L396.01 310.576C396.01 310.576 412.178 311.046 412.178 310.858C412.178 310.67 399.488 320.54 399.488 320.54L405.128 336.99C404.94 336.52 391.31 326.838 391.31 326.838C391.31 326.838 377.398 336.52 377.586 336.52C377.774 336.52 382.944 320.54 382.944 320.54L370.442 311.14L386.046 310.764Z" fill="black" style="fill:black;fill-opacity:1;"/>
<path id="Vector_17" fill-rule="evenodd" clip-rule="evenodd" d="M386.704 311.516L391.31 298.544L395.446 311.328C395.446 311.328 409.358 311.798 409.358 311.516C409.358 311.234 398.36 319.976 398.36 319.976L403.342 334.264C403.154 333.794 391.31 325.428 391.31 325.428C391.31 325.428 379.278 333.888 379.466 333.888C379.654 333.888 384.072 319.976 384.072 319.976L373.262 311.798L386.704 311.516Z" fill="#FFE700" style="fill:#FFE700;fill:color(display-p3 1.0000 0.9059 0.0000);fill-opacity:1;"/>
<path id="Vector_18" fill-rule="evenodd" clip-rule="evenodd" d="M388.678 313.678L391.31 306.158L393.66 313.584C393.66 313.584 401.744 313.866 401.744 313.678C401.744 313.49 395.352 318.566 395.352 318.566L398.172 326.744C398.172 326.556 391.31 321.668 391.31 321.668L384.448 326.556L387.08 318.566L380.876 313.866L388.678 313.678Z" fill="#108C00" style="fill:#108C00;fill:color(display-p3 0.0627 0.5490 0.0000);fill-opacity:1;"/>
</g>
<g id="Group_5">
<path id="Vector_19" fill-rule="evenodd" clip-rule="evenodd" d="M246.268 310.764L251.532 295.724L256.232 310.576C256.232 310.576 272.306 311.046 272.306 310.858C272.306 310.67 259.616 320.54 259.616 320.54L265.444 336.99C265.162 336.52 251.532 326.838 251.532 326.838C251.532 326.838 237.62 336.52 237.808 336.52C237.996 336.52 243.166 320.54 243.166 320.54L230.664 311.14L246.268 310.764Z" fill="black" style="fill:black;fill-opacity:1;"/>
<path id="Vector_20" fill-rule="evenodd" clip-rule="evenodd" d="M247.02 311.516L251.532 298.544L255.668 311.328C255.668 311.328 269.58 311.798 269.58 311.516C269.58 311.234 258.582 319.976 258.582 319.976L263.564 334.264C263.376 333.794 251.532 325.428 251.532 325.428C251.532 325.428 239.5 333.888 239.688 333.888C239.876 333.888 244.294 319.976 244.294 319.976L233.484 311.798L247.02 311.516Z" fill="#FFE700" style="fill:#FFE700;fill:color(display-p3 1.0000 0.9059 0.0000);fill-opacity:1;"/>
<path id="Vector_21" fill-rule="evenodd" clip-rule="evenodd" d="M248.9 313.678L251.532 306.158L253.882 313.584C253.882 313.584 261.966 313.866 261.966 313.678C261.966 313.49 255.574 318.566 255.574 318.566L258.394 326.744C258.394 326.556 251.532 321.668 251.532 321.668L244.67 326.556L247.302 318.566L241.098 313.866L248.9 313.678Z" fill="#108C00" style="fill:#108C00;fill:color(display-p3 0.0627 0.5490 0.0000);fill-opacity:1;"/>
</g>
<g id="Group_6">
<path id="Vector_22" fill-rule="evenodd" clip-rule="evenodd" d="M220.7 196.178L225.964 181.138L230.758 195.99C230.758 195.99 246.832 196.46 246.832 196.178C246.832 195.896 234.142 205.954 234.142 205.954L239.876 222.404C239.594 221.934 225.964 212.252 225.964 212.252C225.964 212.252 212.052 221.84 212.334 221.84C212.616 221.84 217.598 205.86 217.598 205.86L205.096 196.46L220.7 196.178Z" fill="black" style="fill:black;fill-opacity:1;"/>
<path id="Vector_23" fill-rule="evenodd" clip-rule="evenodd" d="M221.452 196.93L225.964 183.958L230.194 196.742C230.194 196.742 244.012 197.212 244.012 196.93C244.012 196.648 233.014 205.39 233.014 205.39L237.996 219.678C237.808 219.208 225.964 210.842 225.964 210.842C225.964 210.842 213.932 219.302 214.214 219.302C214.496 219.302 218.726 205.39 218.726 205.39L207.916 197.212L221.452 196.93Z" fill="#FFE700" style="fill:#FFE700;fill:color(display-p3 1.0000 0.9059 0.0000);fill-opacity:1;"/>
<path id="Vector_24" fill-rule="evenodd" clip-rule="evenodd" d="M223.332 199.092L225.964 191.572L228.408 198.998L236.398 199.092L230.1 203.98L232.92 212.158C232.826 211.97 225.964 207.082 225.964 207.082L219.196 211.97C219.384 211.97 221.828 203.98 221.828 203.98L215.624 199.28L223.332 199.092Z" fill="#108C00" style="fill:#108C00;fill:color(display-p3 0.0627 0.5490 0.0000);fill-opacity:1;"/>
</g>
<g id="Group_7">
<path id="Vector_25" fill-rule="evenodd" clip-rule="evenodd" d="M384.824 163.654L379.56 178.694L374.86 163.936C374.86 163.936 358.692 163.466 358.692 163.654C358.692 163.842 371.382 153.972 371.382 153.972L365.742 137.522C365.93 137.992 379.56 147.674 379.56 147.674C379.56 147.674 393.472 137.992 393.19 137.992C392.908 137.992 387.926 153.972 387.926 153.972L400.428 163.372L384.824 163.654Z" fill="black" style="fill:black;fill-opacity:1;"/>
<path id="Vector_26" fill-rule="evenodd" clip-rule="evenodd" d="M384.166 162.902C384.166 163.184 379.466 175.968 379.466 175.968L375.424 163.184C375.424 163.184 361.512 162.714 361.512 162.902C361.512 163.09 372.51 154.536 372.51 154.536L367.528 140.248C367.716 140.718 379.56 149.084 379.56 149.084C379.56 149.084 391.592 140.624 391.404 140.624C391.216 140.624 386.798 154.536 386.798 154.536L397.608 162.714L384.166 162.902Z" fill="#FFE700" style="fill:#FFE700;fill:color(display-p3 1.0000 0.9059 0.0000);fill-opacity:1;"/>
<path id="Vector_27" fill-rule="evenodd" clip-rule="evenodd" d="M382.192 160.74L379.56 168.26L377.21 160.928C377.21 160.928 369.126 160.646 369.126 160.834C369.126 161.022 375.518 155.946 375.518 155.946L372.698 147.768C372.698 147.956 379.56 152.844 379.56 152.844L386.422 147.956C386.234 147.956 383.696 155.946 383.696 155.946L389.994 160.646L382.192 160.834V160.74Z" fill="#108C00" style="fill:#108C00;fill:color(display-p3 0.0627 0.5490 0.0000);fill-opacity:1;"/>
</g>
<g id="Group_8">
<path id="Vector_28" fill-rule="evenodd" clip-rule="evenodd" d="M424.962 272.882L419.698 287.922L414.998 273.07C414.998 273.07 398.83 272.6 398.83 272.882C398.83 273.164 411.52 263.2 411.52 263.2L405.88 246.656C406.068 247.126 419.698 256.808 419.698 256.808C419.698 256.808 433.61 247.126 433.328 247.126C433.046 247.126 428.064 263.106 428.064 263.106L440.66 272.6L424.962 272.882Z" fill="black" style="fill:black;fill-opacity:1;"/>
<path id="Vector_29" fill-rule="evenodd" clip-rule="evenodd" d="M424.304 272.13L419.698 285.102L415.562 272.318C415.562 272.318 401.65 271.942 401.65 272.13C401.65 272.318 412.648 263.67 412.648 263.67L407.666 249.382C407.854 249.852 419.698 258.218 419.698 258.218C419.698 258.218 431.73 249.758 431.542 249.758C431.354 249.758 426.936 263.67 426.936 263.67L437.746 271.942L424.304 272.13Z" fill="#FFE700" style="fill:#FFE700;fill:color(display-p3 1.0000 0.9059 0.0000);fill-opacity:1;"/>
<path id="Vector_30" fill-rule="evenodd" clip-rule="evenodd" d="M422.33 269.968L419.698 277.488L417.348 270.062C417.348 270.062 409.264 269.874 409.264 270.062C409.264 270.25 415.656 265.174 415.656 265.174L412.836 256.902C412.836 257.184 419.698 261.978 419.698 261.978L426.56 257.09C426.372 257.09 423.834 265.174 423.834 265.174L430.132 269.874L422.33 269.968Z" fill="#108C00" style="fill:#108C00;fill:color(display-p3 0.0627 0.5490 0.0000);fill-opacity:1;"/>
</g>
<g id="Group_9">
<path id="Vector_31" fill-rule="evenodd" clip-rule="evenodd" d="M325.416 352.782L320.152 367.822L315.452 352.97C315.452 352.97 299.284 352.5 299.284 352.688C299.284 352.876 311.974 343.006 311.974 343.006L306.334 326.556C306.522 327.026 320.152 336.708 320.152 336.708C320.152 336.708 334.064 327.026 333.782 327.026C333.5 327.026 328.518 343.006 328.518 343.006L341.02 352.5L325.416 352.782Z" fill="black" style="fill:black;fill-opacity:1;"/>
<path id="Vector_32" fill-rule="evenodd" clip-rule="evenodd" d="M324.758 351.936L320.152 365.096L316.016 352.218C316.016 352.218 302.104 351.748 302.104 352.03C302.104 352.312 313.102 343.57 313.102 343.57L308.12 329.282C308.308 329.752 320.152 338.118 320.152 338.118C320.152 338.118 332.184 329.658 331.996 329.658C331.808 329.658 327.39 343.57 327.39 343.57L338.2 351.748L324.758 352.03V351.936Z" fill="#FFE700" style="fill:#FFE700;fill:color(display-p3 1.0000 0.9059 0.0000);fill-opacity:1;"/>
<path id="Vector_33" fill-rule="evenodd" clip-rule="evenodd" d="M322.784 349.868L320.152 357.388L317.802 349.962C317.802 349.962 309.718 349.68 309.718 349.868C309.718 350.056 316.11 344.98 316.11 344.98L313.29 336.802C313.29 336.99 320.152 341.878 320.152 341.878L327.014 336.99L324.382 344.98L330.586 349.68L322.784 349.868Z" fill="#108C00" style="fill:#108C00;fill:color(display-p3 0.0627 0.5490 0.0000);fill-opacity:1;"/>
</g>
<g id="Group_10">
<path id="Vector_34" fill-rule="evenodd" clip-rule="evenodd" d="M231.98 272.882L226.622 287.922L221.922 273.07C221.922 273.07 205.754 272.6 205.754 272.882C205.754 273.164 218.444 263.2 218.444 263.2L212.804 246.656C212.992 247.126 226.622 256.808 226.622 256.808L240.44 247.22L235.082 263.2L247.584 272.694L231.98 272.976V272.882Z" fill="black" style="fill:black;fill-opacity:1;"/>
<path id="Vector_35" fill-rule="evenodd" clip-rule="evenodd" d="M231.228 272.13L226.622 285.102L222.486 272.318C222.486 272.318 208.574 271.942 208.574 272.13C208.574 272.318 219.572 263.67 219.572 263.67L214.59 249.382C214.778 249.852 226.622 258.218 226.622 258.218C226.622 258.218 238.654 249.758 238.466 249.758C238.278 249.758 233.86 263.67 233.86 263.67L244.67 271.942L231.228 272.13Z" fill="#FFE700" style="fill:#FFE700;fill:color(display-p3 1.0000 0.9059 0.0000);fill-opacity:1;"/>
<path id="Vector_36" fill-rule="evenodd" clip-rule="evenodd" d="M229.254 269.968L226.622 277.488L224.272 270.062C224.272 270.062 216.188 269.874 216.188 270.062C216.188 270.25 222.58 265.174 222.58 265.174L219.76 256.902C219.76 257.184 226.622 261.978 226.622 261.978L233.484 257.09L230.852 265.174L237.056 269.874L229.254 269.968Z" fill="#108C00" style="fill:#108C00;fill:color(display-p3 0.0627 0.5490 0.0000);fill-opacity:1;"/>
</g>
<g id="Group_11">
<path id="Vector_37" fill-rule="evenodd" clip-rule="evenodd" d="M266.478 165.252L261.214 180.292L256.326 165.534C256.326 165.534 240.346 165.064 240.346 165.252C240.346 165.44 253.036 155.57 253.036 155.57L247.302 139.12C247.49 139.59 261.12 149.272 261.12 149.272C261.12 149.272 275.032 139.59 274.844 139.59C274.656 139.59 269.58 155.57 269.58 155.57L281.988 164.97L266.478 165.252Z" fill="black" style="fill:black;fill-opacity:1;"/>
<path id="Vector_38" fill-rule="evenodd" clip-rule="evenodd" d="M265.726 164.5L261.12 177.66L256.984 164.782C256.984 164.782 243.072 164.312 243.072 164.594C243.072 164.876 254.07 156.134 254.07 156.134L249.088 141.846C249.276 142.316 261.12 150.682 261.12 150.682C261.12 150.682 273.152 142.222 272.964 142.222C272.776 142.222 268.452 156.134 268.452 156.134L279.168 164.312L265.726 164.594V164.5Z" fill="#FFE700" style="fill:#FFE700;fill:color(display-p3 1.0000 0.9059 0.0000);fill-opacity:1;"/>
<path id="Vector_39" fill-rule="evenodd" clip-rule="evenodd" d="M263.752 162.432L261.12 169.952L258.77 162.526C258.77 162.526 250.78 162.244 250.78 162.432C250.78 162.62 257.078 157.544 257.078 157.544L254.258 149.366C254.258 149.554 261.12 154.442 261.12 154.442L267.982 149.554L265.35 157.544L271.554 162.244L263.752 162.432Z" fill="#108C00" style="fill:#108C00;fill:color(display-p3 0.0627 0.5490 0.0000);fill-opacity:1;"/>
</g>
<g id="Group_12">
<g id="Group_13">
<path id="Vector_40" d="M329.687 301.829C333.412 301.364 336.432 286.033 336.432 267.588C336.432 249.142 333.412 234.566 329.687 235.032C325.962 235.498 322.943 250.828 322.943 269.274C322.943 287.719 325.962 302.295 329.687 301.829Z" fill="#009200" stroke="black" style="fill:#009200;fill:color(display-p3 0.0000 0.5725 0.0000);fill-opacity:1;stroke:black;stroke-opacity:1;" stroke-width="0.492657"/>
<path id="Vector_41" d="M338.309 301.332C342.3 300.834 345.535 285.476 345.535 267.03C345.535 248.585 342.3 234.036 338.309 234.535C334.318 235.034 331.083 250.391 331.083 268.837C331.083 287.283 334.318 301.831 338.309 301.332Z" fill="#009200" stroke="black" style="fill:#009200;fill:color(display-p3 0.0000 0.5725 0.0000);fill-opacity:1;stroke:black;stroke-opacity:1;" stroke-width="0.509949"/>
<path id="Vector_42" d="M334.89 306.104C338.082 305.705 340.671 288.933 340.671 268.643C340.671 248.353 338.082 232.228 334.89 232.627C331.697 233.026 329.109 249.798 329.109 270.088C329.109 290.379 331.697 306.504 334.89 306.104Z" fill="#009200" stroke="black" style="fill:#009200;fill:color(display-p3 0.0000 0.5725 0.0000);fill-opacity:1;stroke:black;stroke-opacity:1;" stroke-width="0.478374"/>
</g>
<g id="Group_14">
<path id="Vector_43" fill-rule="evenodd" clip-rule="evenodd" d="M295.201 276.443C301.066 276.15 298.525 273.217 301.457 271.555C304.39 269.991 308.594 270.968 309.865 272.923C311.136 274.879 310.158 276.834 311.82 276.834C313.482 276.834 357.767 274.39 359.331 275.954C360.895 277.518 361.286 280.842 359.625 282.113C358.06 283.482 302.044 285.046 300.089 283.677C298.133 282.308 295.201 276.834 295.201 276.443Z" fill="#A95600" stroke="black" style="fill:#A95600;fill:color(display-p3 0.6627 0.3373 0.0000);fill-opacity:1;stroke:black;stroke-opacity:1;" stroke-width="0.4888"/>
<path id="Vector_44" fill-rule="evenodd" clip-rule="evenodd" d="M325.839 288.027C325.839 291.938 332.525 290.745 332.701 294.01C332.599 297.471 321.454 294.353 321.176 288.027C321.454 281.693 332.174 278.447 332.423 282.064C332.599 285.056 325.824 284.117 325.824 288.027H325.839Z" fill="#FFFF00" stroke="black" style="fill:#FFFF00;fill:color(display-p3 1.0000 1.0000 0.0000);fill-opacity:1;stroke:black;stroke-opacity:1;" stroke-width="0.466951"/>
<path id="Vector_45" fill-rule="evenodd" clip-rule="evenodd" d="M329.749 288.125C329.749 292.036 336.436 290.843 336.612 294.108C336.509 297.569 325.365 294.45 325.086 288.125C325.365 281.79 336.084 278.545 336.333 282.162C336.509 285.153 329.734 284.215 329.734 288.125H329.749Z" fill="#FFFF00" stroke="black" style="fill:#FFFF00;fill:color(display-p3 1.0000 1.0000 0.0000);fill-opacity:1;stroke:black;stroke-opacity:1;" stroke-width="0.466951"/>
<path id="Vector_46" fill-rule="evenodd" clip-rule="evenodd" d="M333.953 287.93C333.953 291.84 340.639 290.647 340.815 293.912C340.713 297.373 329.568 294.255 329.29 287.93C329.568 281.595 340.288 278.349 340.537 281.966C340.713 284.958 333.938 284.019 333.938 287.93H333.953Z" fill="#FFFF00" stroke="black" style="fill:#FFFF00;fill:color(display-p3 1.0000 1.0000 0.0000);fill-opacity:1;stroke:black;stroke-opacity:1;" stroke-width="0.466951"/>
<path id="Vector_47" fill-rule="evenodd" clip-rule="evenodd" d="M337.863 287.93C337.863 291.84 344.55 290.647 344.726 293.912C344.623 297.373 333.479 294.255 333.2 287.93C333.479 281.595 344.198 278.349 344.447 281.966C344.623 284.958 337.848 284.019 337.848 287.93H337.863Z" fill="#FFFF00" stroke="black" style="fill:#FFFF00;fill:color(display-p3 1.0000 1.0000 0.0000);fill-opacity:1;stroke:black;stroke-opacity:1;" stroke-width="0.466951"/>
<path id="Vector_48" d="M356.686 299.82C358.765 299.858 360.479 298.177 360.516 296.066C360.553 293.955 358.897 292.213 356.819 292.175C354.74 292.138 353.025 293.818 352.989 295.929C352.952 298.04 354.607 299.782 356.686 299.82Z" fill="#A95600" stroke="black" style="fill:#A95600;fill:color(display-p3 0.6627 0.3373 0.0000);fill-opacity:1;stroke:black;stroke-opacity:1;" stroke-width="0.439881"/>
</g>
<g id="Group_15">
<path id="Vector_49" d="M333.278 296.483C335.178 296.29 336.376 292.776 335.955 288.633C335.535 284.491 333.654 281.289 331.754 281.482C329.855 281.675 328.656 285.189 329.077 289.332C329.498 293.474 331.379 296.676 333.278 296.483Z" fill="#009200" stroke="black" style="fill:#009200;fill:color(display-p3 0.0000 0.5725 0.0000);fill-opacity:1;stroke:black;stroke-opacity:1;" stroke-width="0.570034"/>
<path id="Vector_50" d="M327.529 295.986C329.428 295.794 330.627 292.279 330.206 288.136C329.785 283.994 327.904 280.792 326.005 280.985C324.105 281.178 322.907 284.693 323.328 288.835C323.748 292.978 325.629 296.179 327.529 295.986Z" fill="#009200" stroke="black" style="fill:#009200;fill:color(display-p3 0.0000 0.5725 0.0000);fill-opacity:1;stroke:black;stroke-opacity:1;" stroke-width="0.570034"/>
<path id="Vector_51" d="M323.441 288.639C325.341 288.446 326.539 284.931 326.118 280.789C325.698 276.646 323.817 273.445 321.917 273.637C320.018 273.83 318.82 277.345 319.24 281.487C319.661 285.63 321.542 288.832 323.441 288.639Z" fill="#009200" stroke="black" style="fill:#009200;fill:color(display-p3 0.0000 0.5725 0.0000);fill-opacity:1;stroke:black;stroke-opacity:1;" stroke-width="0.570034"/>
<path id="Vector_52" d="M327.657 287.3C329.445 287.118 330.521 283.298 330.061 278.767C329.601 274.236 327.778 270.71 325.991 270.892C324.203 271.074 323.127 274.894 323.587 279.425C324.047 283.955 325.87 287.481 327.657 287.3Z" fill="#009200" stroke="black" style="fill:#009200;fill:color(display-p3 0.0000 0.5725 0.0000);fill-opacity:1;stroke:black;stroke-opacity:1;" stroke-width="0.578356"/>
<path id="Vector_53" d="M335.715 288.268C337.503 288.086 338.6 284.476 338.166 280.204C337.732 275.932 335.931 272.616 334.144 272.797C332.356 272.979 331.259 276.589 331.692 280.861C332.126 285.133 333.927 288.449 335.715 288.268Z" fill="#009200" stroke="black" style="fill:#009200;fill:color(display-p3 0.0000 0.5725 0.0000);fill-opacity:1;stroke:black;stroke-opacity:1;" stroke-width="0.561588"/>
<path id="Vector_54" d="M331.314 285.57C333.102 285.389 334.199 281.778 333.765 277.506C333.331 273.234 331.53 269.919 329.743 270.1C327.955 270.282 326.858 273.892 327.291 278.164C327.725 282.436 329.526 285.752 331.314 285.57Z" fill="#009200" stroke="black" style="fill:#009200;fill:color(display-p3 0.0000 0.5725 0.0000);fill-opacity:1;stroke:black;stroke-opacity:1;" stroke-width="0.561588"/>
<path id="Vector_55" d="M325.812 281.707C327.599 281.526 328.697 277.915 328.263 273.643C327.829 269.371 326.028 266.056 324.24 266.237C322.453 266.419 321.355 270.029 321.789 274.301C322.223 278.573 324.024 281.889 325.812 281.707Z" fill="#009200" stroke="black" style="fill:#009200;fill:color(display-p3 0.0000 0.5725 0.0000);fill-opacity:1;stroke:black;stroke-opacity:1;" stroke-width="0.561588"/>
<path id="Vector_56" d="M320.672 279.478C322.46 279.296 323.557 275.686 323.123 271.414C322.689 267.142 320.888 263.826 319.101 264.008C317.313 264.189 316.216 267.8 316.65 272.072C317.084 276.344 318.885 279.66 320.672 279.478Z" fill="#009200" stroke="black" style="fill:#009200;fill:color(display-p3 0.0000 0.5725 0.0000);fill-opacity:1;stroke:black;stroke-opacity:1;" stroke-width="0.561588"/>
</g>
<path id="Vector_57" fill-rule="evenodd" clip-rule="evenodd" d="M315.926 199.994C315.926 199.994 304.488 209.77 306.052 236.068C307.812 262.463 331.958 274.683 331.958 274.683C331.958 274.683 338.02 267.156 337.042 245.844C335.087 214.756 323.551 201.168 323.551 201.168L315.926 199.897V199.994Z" fill="#804BFF" stroke="black" style="fill:#804BFF;fill:color(display-p3 0.5020 0.2941 1.0000);fill-opacity:1;stroke:black;stroke-opacity:1;" stroke-width="0.4888"/>
<g id="Group_16">
<path id="Vector_58" d="M339.829 297.552C341.732 297.702 343.54 294.458 343.867 290.307C344.193 286.156 342.915 282.67 341.012 282.52C339.109 282.37 337.301 285.614 336.974 289.765C336.648 293.916 337.926 297.402 339.829 297.552Z" fill="#009200" stroke="black" style="fill:#009200;fill:color(display-p3 0.0000 0.5725 0.0000);fill-opacity:1;stroke:black;stroke-opacity:1;" stroke-width="0.570034"/>
<path id="Vector_59" d="M334.261 296.035C336.164 296.185 337.972 292.942 338.298 288.791C338.625 284.64 337.347 281.153 335.444 281.003C333.54 280.854 331.733 284.097 331.406 288.248C331.079 292.399 332.357 295.886 334.261 296.035Z" fill="#009200" stroke="black" style="fill:#009200;fill:color(display-p3 0.0000 0.5725 0.0000);fill-opacity:1;stroke:black;stroke-opacity:1;" stroke-width="0.570034"/>
<path id="Vector_60" d="M331.553 288.075C333.456 288.225 335.264 284.982 335.591 280.831C335.917 276.68 334.639 273.193 332.736 273.043C330.833 272.894 329.025 276.137 328.698 280.288C328.372 284.439 329.65 287.926 331.553 288.075Z" fill="#009200" stroke="black" style="fill:#009200;fill:color(display-p3 0.0000 0.5725 0.0000);fill-opacity:1;stroke:black;stroke-opacity:1;" stroke-width="0.570034"/>
<path id="Vector_61" d="M335.941 287.512C337.732 287.653 339.474 284.086 339.831 279.546C340.188 275.006 339.026 271.211 337.235 271.07C335.443 270.929 333.701 274.496 333.344 279.036C332.987 283.576 334.149 287.371 335.941 287.512Z" fill="#009200" stroke="black" style="fill:#009200;fill:color(display-p3 0.0000 0.5725 0.0000);fill-opacity:1;stroke:black;stroke-opacity:1;" stroke-width="0.578356"/>
<path id="Vector_62" d="M343.695 289.905C345.486 290.046 347.212 286.69 347.549 282.409C347.885 278.128 346.706 274.544 344.915 274.403C343.124 274.262 341.399 277.618 341.062 281.899C340.725 286.179 341.904 289.764 343.695 289.905Z" fill="#009200" stroke="black" style="fill:#009200;fill:color(display-p3 0.0000 0.5725 0.0000);fill-opacity:1;stroke:black;stroke-opacity:1;" stroke-width="0.561588"/>
<path id="Vector_63" d="M339.847 286.464C341.639 286.605 343.364 283.249 343.701 278.968C344.038 274.688 342.859 271.103 341.067 270.962C339.276 270.821 337.551 274.177 337.214 278.458C336.877 282.739 338.056 286.323 339.847 286.464Z" fill="#009200" stroke="black" style="fill:#009200;fill:color(display-p3 0.0000 0.5725 0.0000);fill-opacity:1;stroke:black;stroke-opacity:1;" stroke-width="0.561588"/>
<path id="Vector_64" d="M335.125 281.679C336.916 281.82 338.641 278.464 338.978 274.184C339.315 269.903 338.136 266.319 336.345 266.178C334.553 266.037 332.828 269.393 332.491 273.673C332.154 277.954 333.333 281.538 335.125 281.679Z" fill="#009200" stroke="black" style="fill:#009200;fill:color(display-p3 0.0000 0.5725 0.0000);fill-opacity:1;stroke:black;stroke-opacity:1;" stroke-width="0.561588"/>
<path id="Vector_65" d="M330.467 278.567C332.258 278.708 333.983 275.352 334.32 271.071C334.657 266.791 333.478 263.206 331.687 263.065C329.895 262.924 328.17 266.28 327.833 270.561C327.496 274.842 328.675 278.426 330.467 278.567Z" fill="#009200" stroke="black" style="fill:#009200;fill:color(display-p3 0.0000 0.5725 0.0000);fill-opacity:1;stroke:black;stroke-opacity:1;" stroke-width="0.561588"/>
</g>
<path id="Vector_66" d="M349.614 275.686C354.65 273.797 353.835 260.022 347.794 244.918C341.752 229.814 332.772 219.101 327.735 220.989C322.699 222.878 323.514 236.653 329.556 251.757C335.597 266.861 344.578 277.575 349.614 275.686Z" fill="#C90000" stroke="black" style="fill:#C90000;fill:color(display-p3 0.7882 0.0000 0.0000);fill-opacity:1;stroke:black;stroke-opacity:1;" stroke-width="0.216574"/>
<g id="Group_17">
<path id="Vector_67" d="M333.048 225.596C335.38 225.637 337.3 223.976 337.337 221.887C337.373 219.798 335.512 218.071 333.18 218.031C330.848 217.99 328.928 219.651 328.892 221.74C328.855 223.829 330.716 225.556 333.048 225.596Z" fill="#009200" stroke="black" style="fill:#009200;fill:color(display-p3 0.0000 0.5725 0.0000);fill-opacity:1;stroke:black;stroke-opacity:1;" stroke-width="0.507976"/>
<path id="Vector_68" d="M334.408 220.242C336.448 220.278 338.132 218.613 338.169 216.524C338.205 214.435 336.581 212.712 334.54 212.677C332.499 212.641 330.816 214.306 330.779 216.395C330.743 218.484 332.367 220.207 334.408 220.242Z" fill="#009200" stroke="black" style="fill:#009200;fill:color(display-p3 0.0000 0.5725 0.0000);fill-opacity:1;stroke:black;stroke-opacity:1;" stroke-width="0.506846"/>
<path id="Vector_69" d="M329.325 220.154C331.366 220.189 333.049 218.525 333.086 216.435C333.122 214.346 331.498 212.624 329.457 212.588C327.417 212.553 325.733 214.217 325.696 216.306C325.66 218.396 327.284 220.118 329.325 220.154Z" fill="#009200" stroke="black" style="fill:#009200;fill:color(display-p3 0.0000 0.5725 0.0000);fill-opacity:1;stroke:black;stroke-opacity:1;" stroke-width="0.506846"/>
<path id="Vector_70" d="M331.292 211.788C333.449 211.826 335.224 210.332 335.257 208.452C335.29 206.572 333.568 205.017 331.411 204.979C329.253 204.942 327.478 206.435 327.445 208.316C327.412 210.196 329.135 211.751 331.292 211.788Z" fill="#009200" stroke="black" style="fill:#009200;fill:color(display-p3 0.0000 0.5725 0.0000);fill-opacity:1;stroke:black;stroke-opacity:1;" stroke-width="0.494383"/>
<path id="Vector_71" d="M330.88 207.381C333.037 207.419 334.812 205.925 334.845 204.045C334.878 202.164 333.156 200.61 330.999 200.572C328.841 200.534 327.066 202.028 327.033 203.908C327 205.789 328.723 207.343 330.88 207.381Z" fill="#009200" stroke="black" style="fill:#009200;fill:color(display-p3 0.0000 0.5725 0.0000);fill-opacity:1;stroke:black;stroke-opacity:1;" stroke-width="0.494383"/>
<path id="Vector_72" d="M324.486 217.331C326.526 217.367 328.21 215.702 328.246 213.613C328.283 211.524 326.658 209.802 324.618 209.766C322.577 209.73 320.893 211.395 320.857 213.484C320.82 215.573 322.445 217.296 324.486 217.331Z" fill="#009200" stroke="black" style="fill:#009200;fill:color(display-p3 0.0000 0.5725 0.0000);fill-opacity:1;stroke:black;stroke-opacity:1;" stroke-width="0.506846"/>
<path id="Vector_73" d="M325.511 214.612C327.551 214.647 329.235 212.983 329.272 210.893C329.308 208.804 327.683 207.082 325.643 207.046C323.602 207.011 321.919 208.675 321.882 210.764C321.846 212.854 323.47 214.576 325.511 214.612Z" fill="#009200" stroke="black" style="fill:#009200;fill:color(display-p3 0.0000 0.5725 0.0000);fill-opacity:1;stroke:black;stroke-opacity:1;" stroke-width="0.506846"/>
<path id="Vector_74" d="M321.345 212.681C323.677 212.722 325.597 211.061 325.634 208.972C325.67 206.883 323.809 205.156 321.477 205.116C319.145 205.075 317.225 206.736 317.188 208.825C317.152 210.914 319.013 212.64 321.345 212.681Z" fill="#009200" stroke="black" style="fill:#009200;fill:color(display-p3 0.0000 0.5725 0.0000);fill-opacity:1;stroke:black;stroke-opacity:1;" stroke-width="0.507976"/>
<path id="Vector_75" d="M328.041 201.954C330.198 201.992 331.974 200.498 332.007 198.618C332.039 196.737 330.317 195.183 328.16 195.145C326.003 195.107 324.228 196.601 324.195 198.481C324.162 200.362 325.884 201.916 328.041 201.954Z" fill="#009200" stroke="black" style="fill:#009200;fill:color(display-p3 0.0000 0.5725 0.0000);fill-opacity:1;stroke:black;stroke-opacity:1;" stroke-width="0.494383"/>
<path id="Vector_76" d="M321.889 209.269C323.929 209.304 325.613 207.64 325.649 205.55C325.686 203.461 324.061 201.739 322.021 201.703C319.98 201.668 318.296 203.332 318.26 205.421C318.223 207.511 319.848 209.233 321.889 209.269Z" fill="#009200" stroke="black" style="fill:#009200;fill:color(display-p3 0.0000 0.5725 0.0000);fill-opacity:1;stroke:black;stroke-opacity:1;" stroke-width="0.506846"/>
<path id="Vector_77" d="M313.906 212.845C315.947 212.88 317.631 211.216 317.667 209.127C317.704 207.037 316.079 205.315 314.039 205.279C311.998 205.244 310.314 206.908 310.278 208.998C310.241 211.087 311.866 212.809 313.906 212.845Z" fill="#009200" stroke="black" style="fill:#009200;fill:color(display-p3 0.0000 0.5725 0.0000);fill-opacity:1;stroke:black;stroke-opacity:1;" stroke-width="0.506846"/>
<path id="Vector_78" d="M315.189 212.183C317.23 212.218 318.913 210.554 318.95 208.464C318.986 206.375 317.362 204.653 315.321 204.617C313.281 204.582 311.597 206.246 311.56 208.335C311.524 210.425 313.148 212.147 315.189 212.183Z" fill="#009200" stroke="black" style="fill:#009200;fill:color(display-p3 0.0000 0.5725 0.0000);fill-opacity:1;stroke:black;stroke-opacity:1;" stroke-width="0.506846"/>
<path id="Vector_79" d="M316.806 209.18C318.847 209.216 320.53 207.551 320.567 205.462C320.603 203.373 318.979 201.65 316.938 201.615C314.897 201.579 313.214 203.244 313.177 205.333C313.141 207.422 314.765 209.144 316.806 209.18Z" fill="#009200" stroke="black" style="fill:#009200;fill:color(display-p3 0.0000 0.5725 0.0000);fill-opacity:1;stroke:black;stroke-opacity:1;" stroke-width="0.506846"/>
</g>
<g id="Group_18">
<path id="Vector_80" d="M352.411 289.303C358.83 287.12 358.203 269.692 351.01 250.377C343.816 231.062 332.781 217.174 326.362 219.357C319.943 221.541 320.57 238.969 327.763 258.284C334.957 277.599 345.992 291.487 352.411 289.303Z" fill="#009200" stroke="black" style="fill:#009200;fill:color(display-p3 0.0000 0.5725 0.0000);fill-opacity:1;stroke:black;stroke-opacity:1;" stroke-width="0.454583"/>
<path id="Vector_81" d="M352.03 267.682C353.216 267.111 352.902 263.371 351.327 259.328C349.752 255.285 347.514 252.469 346.328 253.04C345.141 253.61 345.456 257.35 347.031 261.393C348.606 265.437 350.844 268.252 352.03 267.682Z" fill="#009200" stroke="black" style="fill:#009200;fill:color(display-p3 0.0000 0.5725 0.0000);fill-opacity:1;stroke:black;stroke-opacity:1;" stroke-width="0.464401"/>
<path id="Vector_82" fill-rule="evenodd" clip-rule="evenodd" d="M347.651 259.934C357.297 273.246 355.842 281.513 354.643 288.494C351.692 280.321 350.151 275.189 340.505 261.877C330.86 248.565 336.005 239.544 336.786 234.72C338.188 238.95 338.005 246.622 347.651 259.934Z" fill="#009200" stroke="black" style="fill:#009200;fill:color(display-p3 0.0000 0.5725 0.0000);fill-opacity:1;stroke:black;stroke-opacity:1;" stroke-width="0.468796"/>
<path id="Vector_83" fill-rule="evenodd" clip-rule="evenodd" d="M348.337 270.492C357.983 283.805 356.528 292.071 355.33 299.052C352.378 290.879 350.837 285.747 341.192 272.435C331.546 259.123 336.691 250.102 337.472 245.278C338.875 249.508 338.692 257.18 348.337 270.492Z" fill="#009200" stroke="black" style="fill:#009200;fill:color(display-p3 0.0000 0.5725 0.0000);fill-opacity:1;stroke:black;stroke-opacity:1;" stroke-width="0.468796"/>
<path id="Vector_84" fill-rule="evenodd" clip-rule="evenodd" d="M349.098 278.963C359.048 292.05 357.776 300.351 356.733 307.362C353.597 299.258 351.94 294.161 341.99 281.075C332.04 267.988 336.987 258.844 337.661 254.001C339.159 258.199 339.147 265.877 349.098 278.963Z" fill="#009200" stroke="black" style="fill:#009200;fill:color(display-p3 0.0000 0.5725 0.0000);fill-opacity:1;stroke:black;stroke-opacity:1;" stroke-width="0.469107"/>
<path id="Vector_85" d="M346.662 261.59C348.988 261.016 348.624 254.693 345.849 247.468C343.073 240.242 338.937 234.851 336.61 235.425C334.284 236 334.648 242.323 337.423 249.548C340.199 256.773 344.335 262.165 346.662 261.59Z" fill="#009200" stroke="black" style="fill:#009200;fill:color(display-p3 0.0000 0.5725 0.0000);fill-opacity:1;stroke:black;stroke-opacity:1;" stroke-width="0.468672"/>
<path id="Vector_86" d="M342.494 265.477C344.601 265.147 344.573 260.057 342.432 254.11C340.291 248.162 336.847 243.608 334.74 243.939C332.634 244.269 332.661 249.358 334.803 255.306C336.944 261.254 340.387 265.807 342.494 265.477Z" fill="#009200" stroke="black" style="fill:#009200;fill:color(display-p3 0.0000 0.5725 0.0000);fill-opacity:1;stroke:black;stroke-opacity:1;" stroke-width="0.456626"/>
<path id="Vector_87" d="M335.706 269.921C337.813 269.634 337.914 264.544 335.931 258.552C333.949 252.56 330.633 247.936 328.527 248.223C326.42 248.51 326.319 253.6 328.302 259.592C330.284 265.584 333.599 270.208 335.706 269.921Z" fill="#009200" stroke="black" style="fill:#009200;fill:color(display-p3 0.0000 0.5725 0.0000);fill-opacity:1;stroke:black;stroke-opacity:1;" stroke-width="0.455591"/>
<path id="Vector_88" d="M340.021 248.828C341.702 248.54 341.553 244.736 339.689 240.33C337.826 235.925 334.953 232.586 333.272 232.873C331.592 233.16 331.741 236.965 333.604 241.371C335.468 245.776 338.341 249.115 340.021 248.828Z" fill="#009200" stroke="black" style="fill:#009200;fill:color(display-p3 0.0000 0.5725 0.0000);fill-opacity:1;stroke:black;stroke-opacity:1;" stroke-width="0.466125"/>
<path id="Vector_89" d="M336.656 253.171C338.375 252.984 338.483 249.154 336.897 244.617C335.311 240.079 332.632 236.551 330.913 236.738C329.194 236.925 329.086 240.755 330.672 245.293C332.258 249.831 334.937 253.358 336.656 253.171Z" fill="#009200" stroke="black" style="fill:#009200;fill:color(display-p3 0.0000 0.5725 0.0000);fill-opacity:1;stroke:black;stroke-opacity:1;" stroke-width="0.470612"/>
<g id="Vector_90">
<path fill-rule="evenodd" clip-rule="evenodd" d="M330.464 240.205C333.216 248.049 334.236 255.072 332.732 255.883C331.227 256.695 327.779 250.982 325.027 243.138" fill="#009200" style="fill:#009200;fill:color(display-p3 0.0000 0.5725 0.0000);fill-opacity:1;"/>
<path d="M330.464 240.205C333.216 248.049 334.236 255.072 332.732 255.883C331.227 256.695 327.779 250.982 325.027 243.138" stroke="black" style="stroke:black;stroke-opacity:1;" stroke-width="0.471217"/>
</g>
<path id="Vector_91" d="M336.375 244.06C338.094 243.873 338.202 240.043 336.616 235.506C335.03 230.968 332.35 227.44 330.631 227.627C328.912 227.814 328.804 231.644 330.39 236.182C331.976 240.719 334.656 244.247 336.375 244.06Z" fill="#009200" stroke="black" style="fill:#009200;fill:color(display-p3 0.0000 0.5725 0.0000);fill-opacity:1;stroke:black;stroke-opacity:1;" stroke-width="0.470612"/>
<path id="Vector_92" d="M331.406 247.39C333.125 247.246 333.297 243.415 331.79 238.833C330.284 234.251 327.668 230.653 325.949 230.797C324.23 230.941 324.058 234.772 325.565 239.353C327.072 243.935 329.687 247.533 331.406 247.39Z" fill="#009200" stroke="black" style="fill:#009200;fill:color(display-p3 0.0000 0.5725 0.0000);fill-opacity:1;stroke:black;stroke-opacity:1;" stroke-width="0.470845"/>
<g id="Vector_93">
<path fill-rule="evenodd" clip-rule="evenodd" d="M325.932 229.6C328.685 234.918 330.129 239.851 329.15 240.614C328.172 241.377 325.148 237.675 322.396 232.357" fill="#009200" style="fill:#009200;fill:color(display-p3 0.0000 0.5725 0.0000);fill-opacity:1;"/>
<path d="M325.932 229.6C328.685 234.918 330.129 239.851 329.15 240.614C328.172 241.377 325.148 237.675 322.396 232.357" stroke="black" style="stroke:black;stroke-opacity:1;" stroke-width="0.470538"/>
</g>
<g id="Vector_94">
<path fill-rule="evenodd" clip-rule="evenodd" d="M327.974 226.179C330.726 231.497 332.17 236.43 331.191 237.192C330.213 237.955 327.189 234.254 324.437 228.936" fill="#009200" style="fill:#009200;fill:color(display-p3 0.0000 0.5725 0.0000);fill-opacity:1;"/>
<path d="M327.974 226.179C330.726 231.497 332.17 236.43 331.191 237.192C330.213 237.955 327.189 234.254 324.437 228.936" stroke="black" style="stroke:black;stroke-opacity:1;" stroke-width="0.470538"/>
</g>
<g id="Vector_95">
<path fill-rule="evenodd" clip-rule="evenodd" d="M336.869 228.052C340.698 235.364 342.698 242.139 341.325 243.177C339.952 244.216 335.736 239.118 331.906 231.806" fill="#009200" style="fill:#009200;fill:color(display-p3 0.0000 0.5725 0.0000);fill-opacity:1;"/>
<path d="M336.869 228.052C340.698 235.364 342.698 242.139 341.325 243.177C339.952 244.216 335.736 239.118 331.906 231.806" stroke="black" style="stroke:black;stroke-opacity:1;" stroke-width="0.471231"/>
</g>
<g id="Vector_96">
<path fill-rule="evenodd" clip-rule="evenodd" d="M331.053 222.987C333.805 228.837 335.249 234.267 334.271 235.111C333.292 235.955 330.268 231.887 327.516 226.037" fill="#009200" style="fill:#009200;fill:color(display-p3 0.0000 0.5725 0.0000);fill-opacity:1;"/>
<path d="M331.053 222.987C333.805 228.837 335.249 234.267 334.271 235.111C333.292 235.955 330.268 231.887 327.516 226.037" stroke="black" style="stroke:black;stroke-opacity:1;" stroke-width="0.464545"/>
</g>
</g>
<g id="Group_19">
<path id="Vector_97" fill-rule="evenodd" clip-rule="evenodd" d="M335.095 202.622C333.171 204.601 335.157 208.042 336.972 209.225C339.005 210.881 350.517 221.742 358.291 211.806C351.909 211.978 339.725 198.213 335.095 202.622Z" fill="#804BFF" stroke="black" style="fill:#804BFF;fill:color(display-p3 0.5020 0.2941 1.0000);fill-opacity:1;stroke:black;stroke-opacity:1;" stroke-width="0.458535"/>
<path id="Vector_98" fill-rule="evenodd" clip-rule="evenodd" d="M333.726 196.854C331.802 198.833 333.788 202.274 335.603 203.457C337.636 205.113 349.148 215.974 356.922 206.038C350.541 206.21 338.356 192.445 333.726 196.854Z" fill="#804BFF" stroke="black" style="fill:#804BFF;fill:color(display-p3 0.5020 0.2941 1.0000);fill-opacity:1;stroke:black;stroke-opacity:1;" stroke-width="0.458535"/>
<path id="Vector_99" fill-rule="evenodd" clip-rule="evenodd" d="M331.966 191.38C330.042 193.358 332.029 196.8 333.843 197.982C335.877 199.638 347.389 210.5 355.163 200.563C348.781 200.735 336.596 186.971 331.966 191.38Z" fill="#804BFF" stroke="black" style="fill:#804BFF;fill:color(display-p3 0.5020 0.2941 1.0000);fill-opacity:1;stroke:black;stroke-opacity:1;" stroke-width="0.458535"/>
<path id="Vector_100" fill-rule="evenodd" clip-rule="evenodd" d="M328.154 185.123C326.23 187.102 328.216 190.543 330.031 191.726C332.064 193.382 343.576 204.243 351.35 194.307C344.968 194.479 332.784 180.714 328.154 185.123Z" fill="#804BFF" stroke="black" style="fill:#804BFF;fill:color(display-p3 0.5020 0.2941 1.0000);fill-opacity:1;stroke:black;stroke-opacity:1;" stroke-width="0.458535"/>
</g>
<g id="Group_20">
<path id="Vector_101" fill-rule="evenodd" clip-rule="evenodd" d="M310.685 182.356C314.392 179.46 321.339 178.603 326.833 181.491C331.417 183.805 339.163 193.17 344.874 195.389C343.383 195.734 341.822 195.806 340.281 195.604C338.74 195.401 337.251 194.926 335.899 194.208C330.959 197.976 329.19 198.52 324.063 199.267C316.976 200.298 311.011 198.365 308.864 194.516C306.63 190.887 307.401 185.063 310.685 182.356Z" fill="#804BFF" stroke="black" style="fill:#804BFF;fill:color(display-p3 0.5020 0.2941 1.0000);fill-opacity:1;stroke:black;stroke-opacity:1;" stroke-width="0.477069"/>
<path id="Vector_102" d="M321.52 188.679C323.437 188.712 325.005 187.886 325.023 186.834C325.042 185.781 323.503 184.9 321.587 184.867C319.67 184.834 318.102 185.66 318.084 186.712C318.065 187.765 319.604 188.646 321.52 188.679Z" fill="#FF0000" stroke="black" style="fill:#FF0000;fill:color(display-p3 1.0000 0.0000 0.0000);fill-opacity:1;stroke:black;stroke-opacity:1;" stroke-width="0.440598"/>
<path id="Vector_103" d="M313.075 197.142C315.609 196.179 317.196 194.208 316.62 192.738C316.045 191.268 313.525 190.857 310.992 191.82C308.459 192.782 306.871 194.753 307.447 196.223C308.022 197.693 310.542 198.104 313.075 197.142Z" fill="#FFFF00" stroke="black" style="fill:#FFFF00;fill:color(display-p3 1.0000 1.0000 0.0000);fill-opacity:1;stroke:black;stroke-opacity:1;" stroke-width="0.486362"/>
<path id="Vector_104" d="M316.031 193.961C316.657 193.972 317.174 193.473 317.185 192.847C317.195 192.221 316.697 191.704 316.07 191.693C315.444 191.682 314.928 192.181 314.917 192.807C314.906 193.433 315.405 193.95 316.031 193.961Z" fill="black" style="fill:black;fill-opacity:1;"/>
<path id="Vector_105" fill-rule="evenodd" clip-rule="evenodd" d="M317.581 189.181C317.986 190.596 316.867 192.532 314.274 193.238C311.636 194.224 309.711 196.428 308.709 200.024C304.236 191.874 306.663 188.388 310.942 187.524C314.617 186.462 316.864 186.58 317.581 189.181Z" fill="#FFFF00" stroke="black" style="fill:#FFFF00;fill:color(display-p3 1.0000 1.0000 0.0000);fill-opacity:1;stroke:black;stroke-opacity:1;" stroke-width="0.577099"/>
<path id="Vector_106" d="M306.596 197.883C307.103 197.892 307.522 197.488 307.53 196.98C307.539 196.473 307.135 196.054 306.628 196.046C306.12 196.037 305.702 196.441 305.693 196.948C305.684 197.456 306.088 197.874 306.596 197.883Z" fill="black" style="fill:black;fill-opacity:1;"/>
</g>
</g>
</g>
</g>
</g>
</g>
<defs>
<clipPath id="clip0_2194_2373">
<rect width="640" height="480" fill="white" style="fill:white;fill-opacity:1;"/>
</clipPath>
</defs>
</svg>
