<svg width="640" height="480" viewBox="0 0 640 480" fill="none" xmlns="http://www.w3.org/2000/svg">
<g id="eac" clip-path="url(#clip0_2194_2506)">
<path id="eac-a" d="M0 326.4H640V348H0V326.4Z" fill="white" style="fill:white;fill-opacity:1;"/>
<path id="eac-a_2" d="M0 132H640V153.6H0V132Z" fill="white" style="fill:white;fill-opacity:1;"/>
<path id="eac-b" d="M0 348H640V480H0V348Z" fill="#0087FF" style="fill:#0087FF;fill:color(display-p3 0.0000 0.5294 1.0000);fill-opacity:1;"/>
<path id="eac-b_2" d="M0 0H640V132H0V0Z" fill="#0087FF" style="fill:#0087FF;fill:color(display-p3 0.0000 0.5294 1.0000);fill-opacity:1;"/>
<path id="Vector" d="M0 290.4H640V326.4H0V290.4Z" fill="#FF0000" style="fill:#FF0000;fill:color(display-p3 1.0000 0.0000 0.0000);fill-opacity:1;"/>
<path id="Vector_2" d="M0 153.6H640V189.6H0V153.6Z" fill="#000001" style="fill:#000001;fill:color(display-p3 0.0000 0.0000 0.0039);fill-opacity:1;"/>
<path id="Vector_3" d="M0 206.4H640V273.6H0V206.4Z" fill="#FFFF00" style="fill:#FFFF00;fill:color(display-p3 1.0000 1.0000 0.0000);fill-opacity:1;"/>
<path id="eac-c" d="M0 273.6H640V290.4H0V273.6Z" fill="#008300" style="fill:#008300;fill:color(display-p3 0.0000 0.5137 0.0000);fill-opacity:1;"/>
<path id="eac-c_2" d="M0 189.6H640V206.4H0V189.6Z" fill="#008300" style="fill:#008300;fill:color(display-p3 0.0000 0.5137 0.0000);fill-opacity:1;"/>
<g id="Group">
<path id="Vector_4" d="M320.025 160.126C306.254 160.149 292.798 164.244 281.349 171.896C269.9 179.547 260.969 190.413 255.68 203.128C250.391 215.842 248.98 229.836 251.624 243.351C254.268 256.865 260.85 269.296 270.541 279.079L240.693 288.679L243.399 295.486L233.799 297.581L240.781 319.923H399.268L406.163 297.581L396.563 295.486L399.268 288.592L369.421 279.079C379.107 269.301 385.687 256.878 388.334 243.372C390.981 229.866 389.577 215.879 384.299 203.168C379.021 190.457 370.103 179.59 358.668 171.932C347.232 164.274 333.788 160.166 320.025 160.126Z" fill="white" stroke="black" style="fill:white;fill-opacity:1;stroke:black;stroke-opacity:1;" stroke-width="1.74546"/>
<path id="Vector_5" d="M242.264 297.93L248.374 317.653H391.676L397.698 297.93H242.264Z" fill="#008300" style="fill:#008300;fill:color(display-p3 0.0000 0.5137 0.0000);fill-opacity:1;"/>
<path id="Vector_6" d="M246.104 300.461L250.555 315.123H389.407L393.857 300.461H281.45H246.104Z" fill="white" style="fill:white;fill-opacity:1;"/>
<path id="Vector_7" d="M255.89 309.097C255.89 309.417 255.857 309.725 255.791 310.02C255.725 310.303 255.61 310.55 255.445 310.759C255.28 310.968 255.06 311.141 254.785 311.276C254.51 311.412 254.158 311.473 253.729 311.461C253.344 311.461 253.014 311.412 252.739 311.313C252.453 311.202 252.217 311.079 252.03 310.944L252.475 309.78C252.64 309.891 252.822 309.983 253.02 310.057C253.218 310.131 253.421 310.174 253.63 310.187C253.96 310.187 254.196 310.094 254.339 309.909C254.482 309.737 254.554 309.435 254.554 309.004V304.664H255.89V309.097ZM259.519 311.461C259.09 311.461 258.727 311.399 258.43 311.276C258.122 311.141 257.869 310.956 257.671 310.722C257.474 310.488 257.325 310.211 257.226 309.891C257.138 309.559 257.094 309.201 257.094 308.82V304.664H258.43V308.672C258.43 308.943 258.458 309.171 258.513 309.355C258.568 309.54 258.645 309.694 258.744 309.817C258.843 309.94 258.953 310.026 259.074 310.076C259.217 310.125 259.371 310.15 259.535 310.15C259.865 310.15 260.129 310.039 260.327 309.817C260.525 309.595 260.624 309.214 260.624 308.672V304.646H261.977V308.801C261.977 309.183 261.922 309.54 261.812 309.873C261.724 310.193 261.581 310.476 261.383 310.722C261.185 310.968 260.927 311.147 260.608 311.258C260.3 311.381 259.937 311.442 259.519 311.442V311.461ZM264.831 304.664C264.94 304.873 265.061 305.138 265.193 305.458L265.622 306.456L266.051 307.564L266.464 308.635L266.859 307.564L267.288 306.456L267.717 305.458C267.849 305.138 267.97 304.873 268.08 304.664H269.301L269.466 306.142L269.581 307.859C269.625 308.45 269.658 309.048 269.68 309.651L269.763 311.332H268.46L268.394 309.208L268.262 306.899L267.932 307.804L267.536 308.783C267.426 309.115 267.31 309.429 267.189 309.725L266.892 310.482H265.952L265.672 309.725L265.309 308.783L264.929 307.804L264.6 306.899C264.534 307.675 264.49 308.444 264.468 309.208L264.402 311.332H263.082L263.164 309.651L263.263 307.859L263.395 306.16L263.56 304.664H264.831ZM273.309 311.461C272.891 311.461 272.528 311.399 272.22 311.276C271.913 311.141 271.66 310.956 271.462 310.722C271.264 310.488 271.115 310.211 271.016 309.891C270.928 309.559 270.884 309.201 270.884 308.82V304.664H272.22V308.672C272.22 308.943 272.248 309.171 272.303 309.355C272.358 309.54 272.435 309.694 272.534 309.817C272.633 309.94 272.743 310.026 272.864 310.076C273.007 310.125 273.161 310.15 273.326 310.15C273.656 310.15 273.92 310.039 274.117 309.817C274.315 309.595 274.414 309.214 274.414 308.672V304.646H275.767V308.801C275.767 309.183 275.712 309.54 275.602 309.873C275.514 310.193 275.371 310.476 275.173 310.722C274.975 310.968 274.717 311.147 274.398 311.258C274.09 311.381 273.727 311.442 273.309 311.442V311.461ZM277.037 304.664H278.39V311.332H277.054L277.037 304.664ZM281.953 307.398L282.646 306.031C282.866 305.575 283.064 305.12 283.239 304.664H284.724C284.394 305.378 284.053 306.074 283.701 306.751C283.349 307.428 282.981 308.106 282.596 308.783V311.332H281.26V308.801C280.864 308.124 280.49 307.447 280.138 306.77C279.786 306.092 279.446 305.391 279.116 304.664H280.683C280.859 305.12 281.057 305.575 281.277 306.031L281.953 307.398ZM288.584 311.332L288.37 310.63L288.139 309.891H285.829L285.582 310.63L285.384 311.332H283.965L284.609 309.337L285.186 307.619L285.763 306.086C285.95 305.594 286.143 305.12 286.341 304.664H287.627C287.825 305.12 288.018 305.594 288.205 306.086L288.765 307.619L289.359 309.337L290.003 311.332H288.584ZM286.967 306.16C286.945 306.271 286.901 306.406 286.835 306.566L286.638 307.139L286.39 307.878L286.126 308.69H287.825L287.561 307.859L287.314 307.139L287.116 306.585L286.967 306.16ZM295.034 307.398L295.727 306.031C295.946 305.575 296.144 305.12 296.32 304.664H297.805C297.475 305.378 297.14 306.074 296.799 306.751C296.447 307.428 296.073 308.106 295.677 308.783V311.332H294.357V308.801L293.236 306.77C292.884 306.08 292.548 305.378 292.229 304.664H293.78L294.374 306.031L295.034 307.398ZM301.665 311.332L301.45 310.63L301.22 309.891H298.91L298.679 310.63L298.465 311.332H297.079L297.706 309.337L298.3 307.619L298.861 306.086C299.048 305.594 299.246 305.12 299.455 304.664H300.725C300.923 305.12 301.115 305.594 301.302 306.086L301.879 307.619L302.473 309.337L303.1 311.332H301.665ZM300.065 306.16L299.933 306.566L299.735 307.139L299.488 307.878L299.224 308.69H300.906L300.642 307.859L300.395 307.139L300.197 306.585L300.065 306.16ZM309.929 311.332L309.715 310.63L309.484 309.891H307.174L306.943 310.63L306.729 311.332H305.343L305.97 309.337C306.168 308.721 306.366 308.149 306.564 307.619L307.125 306.086C307.312 305.594 307.504 305.12 307.702 304.664H308.989C309.187 305.12 309.379 305.594 309.566 306.086L310.127 307.619L310.721 309.337L311.364 311.332H309.929ZM308.313 306.16L308.197 306.566L307.999 307.139L307.752 307.878L307.471 308.69H309.17L308.906 307.859L308.659 307.139L308.461 306.585L308.313 306.16ZM312.14 311.332V304.664H316.131V305.92H313.492V307.324H315.835V308.58H313.476V311.35L312.14 311.332ZM318.82 304.59C319.711 304.59 320.393 304.769 320.866 305.126C321.339 305.483 321.58 306.037 321.591 306.788C321.591 307.256 321.492 307.638 321.295 307.933C321.108 308.216 320.833 308.444 320.47 308.617L320.849 309.171L321.229 309.854L321.608 310.593L321.938 311.332H320.453L320.107 310.667L319.777 310.02L319.414 309.411L319.084 308.894H318.424V311.332H317.072V304.756C317.369 304.695 317.671 304.652 317.979 304.627L318.804 304.59H318.82ZM318.903 305.865H318.606L318.391 305.902V307.712H318.771C319.277 307.712 319.639 307.638 319.859 307.49C320.079 307.342 320.189 307.102 320.189 306.77C320.189 306.437 320.079 306.209 319.859 306.086C319.639 305.939 319.31 305.865 318.87 305.865H318.903ZM322.812 304.664H324.148V311.332H322.812V304.664ZM329.047 311.332C328.926 311.11 328.783 310.876 328.619 310.63L328.074 309.873C327.887 309.614 327.689 309.368 327.48 309.134C327.271 308.9 327.068 308.69 326.87 308.506V311.332H325.517V304.664H326.87V307.176C327.222 306.77 327.568 306.345 327.909 305.902L328.899 304.664H330.499C330.092 305.206 329.68 305.723 329.262 306.216C328.844 306.708 328.415 307.213 327.975 307.73C328.448 308.173 328.904 308.703 329.344 309.318C329.784 309.934 330.213 310.611 330.631 311.35L329.047 311.332ZM335.596 311.332L335.398 310.63L335.167 309.891H332.858L332.61 310.63L332.412 311.332H331.01L331.654 309.337L332.231 307.619L332.808 306.086C332.995 305.594 333.188 305.12 333.386 304.664H334.672C334.87 305.12 335.063 305.594 335.25 306.086L335.811 307.619L336.404 309.337L337.048 311.332H335.596ZM333.996 306.16L333.881 306.566L333.683 307.139L333.419 307.878L333.155 308.69H334.854L334.59 307.859L334.342 307.139L334.144 306.585L333.996 306.16ZM341.468 304.664C341.578 304.873 341.694 305.138 341.815 305.458L342.244 306.456L342.673 307.564L343.085 308.635L343.481 307.564L343.91 306.456L344.339 305.458C344.471 305.138 344.592 304.873 344.702 304.664H345.922L346.087 306.142L346.203 307.859C346.247 308.45 346.28 309.048 346.302 309.651L346.384 311.332H345.081L345.015 309.208L344.883 306.899L344.553 307.804L344.157 308.783C344.047 309.115 343.932 309.429 343.811 309.725L343.514 310.482H342.574L342.293 309.725L341.93 308.783L341.551 307.804L341.221 306.899C341.155 307.675 341.111 308.444 341.089 309.208L341.023 311.332H339.703L339.786 309.651L339.885 307.859L340.017 306.16L340.182 304.664H341.468ZM351.597 311.332L351.366 310.63L351.151 309.891H348.825L348.595 310.63L348.38 311.332H346.994L347.621 309.337L348.215 307.619L348.776 306.086C348.963 305.594 349.161 305.12 349.37 304.664H350.64C350.838 305.12 351.03 305.594 351.217 306.086C351.415 306.579 351.608 307.09 351.795 307.619L352.388 309.337L353.015 311.332H351.597ZM349.98 306.16L349.848 306.566L349.65 307.139L349.403 307.878L349.139 308.69H350.821L350.557 307.859L350.31 307.139L350.112 306.585L349.98 306.16ZM355.589 310.187C355.776 310.187 355.929 310.168 356.05 310.131C356.171 310.094 356.27 310.051 356.347 310.002C356.424 309.928 356.479 309.854 356.512 309.78C356.534 309.694 356.545 309.602 356.545 309.503C356.545 309.282 356.452 309.097 356.265 308.949C356.078 308.801 355.765 308.647 355.325 308.487L354.731 308.229C354.544 308.118 354.373 307.995 354.219 307.859C354.066 307.699 353.939 307.515 353.84 307.305C353.73 307.084 353.675 306.819 353.675 306.511C353.675 306.203 353.73 305.926 353.84 305.68C353.95 305.434 354.098 305.224 354.285 305.052C354.472 304.88 354.703 304.744 354.978 304.646C355.242 304.559 355.545 304.516 355.886 304.516C356.281 304.516 356.628 304.559 356.925 304.646C357.211 304.744 357.453 304.855 357.651 304.978L357.255 306.16C357.09 306.062 356.903 305.975 356.694 305.902C356.485 305.828 356.243 305.791 355.968 305.791C355.638 305.791 355.407 305.84 355.275 305.939C355.143 306.037 355.072 306.191 355.061 306.4C355.061 306.523 355.088 306.622 355.143 306.696C355.198 306.77 355.27 306.85 355.358 306.936L355.688 307.121L356.1 307.287C356.408 307.41 356.677 307.533 356.908 307.656C357.128 307.779 357.315 307.927 357.469 308.099C357.623 308.272 357.739 308.469 357.815 308.69C357.892 308.912 357.931 309.183 357.931 309.503C357.931 310.119 357.733 310.605 357.337 310.962C356.952 311.295 356.369 311.461 355.589 311.461C355.325 311.461 355.083 311.442 354.863 311.406C354.654 311.381 354.467 311.338 354.302 311.276L353.873 311.128L353.593 310.944L353.972 309.762C354.148 309.873 354.368 309.971 354.632 310.057C354.885 310.143 355.204 310.187 355.589 310.187ZM362.55 304.664H363.902V311.332H362.55V308.506H360.306V311.332H358.954V304.664H360.306V307.194H362.55V304.664ZM369.247 311.332L369.049 310.63L368.818 309.891H366.509L366.261 310.63L366.063 311.332H364.661C364.881 310.617 365.101 309.953 365.321 309.337C365.508 308.721 365.7 308.149 365.898 307.619L366.459 306.086C366.646 305.594 366.838 305.12 367.036 304.664H368.323C368.521 305.12 368.713 305.594 368.9 306.086L369.461 307.619L370.055 309.337L370.698 311.332H369.247ZM367.647 306.16L367.531 306.566L367.333 307.139L367.069 307.878L366.806 308.69H368.505L368.241 307.859L367.993 307.139L367.795 306.585L367.647 306.16ZM373.206 304.59C374.108 304.59 374.795 304.769 375.268 305.126C375.741 305.483 375.977 306.037 375.977 306.788C375.977 307.256 375.884 307.638 375.697 307.933C375.499 308.216 375.224 308.444 374.872 308.617L375.251 309.171L375.631 309.854L376.01 310.593L376.34 311.332H374.855L374.509 310.667L374.162 310.02L373.833 309.411L373.47 308.894H372.81V311.332H371.474V304.756C371.76 304.695 372.057 304.652 372.364 304.627L373.206 304.59ZM373.288 305.865H373.041L372.826 305.902V307.712H373.206C373.712 307.712 374.075 307.638 374.294 307.49C374.514 307.342 374.624 307.102 374.624 306.77C374.624 306.437 374.514 306.209 374.294 306.086C374.075 305.939 373.745 305.865 373.305 305.865H373.288ZM377.198 304.664H378.55V311.332H377.198V304.664ZM383.433 311.332C383.323 311.11 383.18 310.876 383.004 310.63C382.85 310.384 382.674 310.131 382.476 309.873C382.289 309.614 382.091 309.368 381.882 309.134C381.673 308.9 381.464 308.69 381.256 308.506V311.332H379.936V304.664H381.256V307.176C381.607 306.77 381.959 306.345 382.311 305.902L383.301 304.664H384.885C384.478 305.206 384.071 305.723 383.664 306.216C383.257 306.708 382.828 307.213 382.377 307.73C382.85 308.173 383.306 308.703 383.746 309.318C384.186 309.934 384.615 310.611 385.033 311.35L383.433 311.332ZM385.808 304.664H387.128V311.332H385.808V304.664Z" fill="black" style="fill:black;fill-opacity:1;"/>
<g id="eac-d">
<path id="Vector_8" fill-rule="evenodd" clip-rule="evenodd" d="M242.264 297.93L251.341 295.486L248.548 290.512L264.17 284.664V289.988H268.97V298.104H242.788L242.264 297.93Z" fill="#008300" style="fill:#008300;fill:color(display-p3 0.0000 0.5137 0.0000);fill-opacity:1;"/>
<path id="Vector_9" fill-rule="evenodd" clip-rule="evenodd" d="M266.701 298.104H247.675L266.701 292.955V298.104ZM262.512 290.075H254.046L262.774 286.759L262.512 290.075ZM251.428 291.472L253.348 294.962L266.003 291.472H251.428Z" fill="white" style="fill:white;fill-opacity:1;"/>
</g>
<g id="eac-d_2">
<path id="Vector_10" fill-rule="evenodd" clip-rule="evenodd" d="M397.698 297.93L388.621 295.486L391.414 290.512L375.792 284.664V289.988H370.992V298.104H397.174L397.698 297.93Z" fill="#008300" style="fill:#008300;fill:color(display-p3 0.0000 0.5137 0.0000);fill-opacity:1;"/>
<path id="Vector_11" fill-rule="evenodd" clip-rule="evenodd" d="M373.261 298.104H392.287L373.261 292.955V298.104ZM377.45 290.075H385.916L377.188 286.759L377.45 290.075ZM388.534 291.472L386.614 294.962L373.959 291.472H388.534Z" fill="white" style="fill:white;fill-opacity:1;"/>
</g>
<path id="Vector_12" d="M318.366 168.417C304.168 168.885 290.566 174.232 279.849 183.556C269.131 192.881 261.954 205.613 259.526 219.61C257.098 233.606 259.566 248.012 266.516 260.401C273.466 272.791 284.473 282.407 297.683 287.631V280.824C286.079 275.707 276.581 266.765 270.775 255.49C264.968 244.215 263.205 231.29 265.778 218.872C268.352 206.453 275.107 195.293 284.916 187.255C294.724 179.216 306.994 174.784 319.675 174.7H320.112C332.823 174.705 345.147 179.08 355.016 187.091C364.886 195.102 371.701 206.263 374.32 218.702C376.938 231.141 375.201 244.102 369.4 255.412C363.598 266.722 354.084 275.695 342.454 280.824V287.631C355.875 282.416 367.05 272.671 374.043 260.084C381.036 247.497 383.407 232.861 380.745 218.71C378.082 204.559 370.555 191.785 359.465 182.6C348.376 173.415 334.424 168.397 320.025 168.417H318.366Z" fill="#FFFF00" stroke="black" style="fill:#FFFF00;fill:color(display-p3 1.0000 1.0000 0.0000);fill-opacity:1;stroke:black;stroke-opacity:1;" stroke-width="1.04728"/>
<path id="Vector_13" fill-rule="evenodd" clip-rule="evenodd" d="M336.956 274.628L337.043 283.879C331.457 284.752 325.261 290.512 323.603 291.559C321.945 292.606 319.239 294.875 317.756 294.701C315.225 294.352 317.057 292.344 317.057 292.344C317.057 292.344 315.312 294.439 314.09 293.479C312.868 292.693 314.788 291.123 314.788 291.123C314.788 291.123 314.177 291.995 312.868 291.559C311.646 291.21 312.519 289.813 312.519 289.813C312.519 289.813 309.203 291.559 308.592 290.948C307.719 289.813 308.941 288.766 308.941 288.766L316.708 282.221C320.985 280.475 322.206 282.919 324.126 282.744C327.368 281.887 330.398 280.372 333.028 278.293C334.512 276.81 334.076 275.239 335.21 274.802C336.345 274.366 336.956 274.628 336.956 274.628Z" fill="white" stroke="black" style="fill:white;fill-opacity:1;stroke:black;stroke-opacity:1;" stroke-width="0.785457"/>
<path id="Vector_14" fill-rule="evenodd" clip-rule="evenodd" d="M302.919 275.326L302.832 283.879C308.068 284.577 313.915 290.162 315.486 291.21C316.97 292.17 319.588 293.828 320.985 293.653C323.254 293.392 322.73 292.519 322.73 292.519C322.73 292.519 323.777 293.043 325.174 292.519C326.57 291.995 325.872 291.035 325.872 291.035C325.872 291.035 327.966 291.646 328.839 290.512C329.712 289.552 327.966 288.504 327.966 288.504C327.966 288.504 328.839 287.893 327.443 288.679C326.046 289.464 323.254 286.235 320.461 286.061C317.581 286.061 317.319 288.853 315.574 287.544C313.741 286.148 316.97 283.879 318.105 283.53C322.555 282.046 326.745 283.879 321.334 281.784C318.541 280.737 316.359 282.744 314.526 282.657C312.606 282.57 307.894 280.039 306.672 278.642C305.275 277.246 305.625 275.85 304.577 275.413C303.53 275.181 302.948 275.152 302.832 275.326H302.919Z" fill="white" stroke="black" style="fill:white;fill-opacity:1;stroke:black;stroke-opacity:1;" stroke-width="0.698184"/>
<path id="Vector_15" d="M325.959 291.035L322.206 289.464M323.166 292.693L318.803 290.075" stroke="black" style="stroke:black;stroke-opacity:1;" stroke-width="0.698184"/>
<g id="eac-e">
<path id="Vector_16" fill-rule="evenodd" clip-rule="evenodd" d="M295.763 270.875C284.941 276.111 284.417 262.322 279.53 262.497C288.693 256.388 287.21 267.733 295.763 270.875ZM291.573 255.689C286.163 265.551 298.817 266.86 298.381 271.66C304.577 263.282 294.017 263.98 291.573 255.689Z" fill="#008300" stroke="black" style="fill:#008300;fill:color(display-p3 0.0000 0.5137 0.0000);fill-opacity:1;stroke:black;stroke-opacity:1;" stroke-width="0.349092"/>
<path id="Vector_17" fill-rule="evenodd" clip-rule="evenodd" d="M286.337 259.53C272.984 261.799 276.65 250.279 271.064 249.319C282.846 245.828 277.784 254.73 286.337 259.53Z" fill="#008300" stroke="black" style="fill:#008300;fill:color(display-p3 0.0000 0.5137 0.0000);fill-opacity:1;stroke:black;stroke-opacity:1;" stroke-width="0.349092"/>
<path id="Vector_18" fill-rule="evenodd" clip-rule="evenodd" d="M284.941 245.915C277.61 254.555 288.17 254.991 286.948 259.53C294.541 252.548 286.686 252.81 284.941 245.915ZM277.261 247.486C263.995 245.566 272.373 232.039 268.359 229.159C279.268 229.944 272.199 241.813 277.261 247.486Z" fill="#008300" stroke="black" style="fill:#008300;fill:color(display-p3 0.0000 0.5137 0.0000);fill-opacity:1;stroke:black;stroke-opacity:1;" stroke-width="0.349092"/>
<path id="Vector_19" fill-rule="evenodd" clip-rule="evenodd" d="M282.323 230.38C270.104 236.228 282.41 242.511 277.61 247.835C289.654 247.224 279.006 239.37 282.323 230.555V230.38ZM275.515 230.817C261.29 224.359 276.126 212.14 273.595 207.689C283.283 217.551 268.534 221.217 275.515 230.817Z" fill="#008300" stroke="black" style="fill:#008300;fill:color(display-p3 0.0000 0.5137 0.0000);fill-opacity:1;stroke:black;stroke-opacity:1;" stroke-width="0.349092"/>
<path id="Vector_20" fill-rule="evenodd" clip-rule="evenodd" d="M284.592 214.409C272.373 215.98 278.483 227.239 275.952 231.253C285.552 229.071 277.872 223.399 284.679 214.409H284.592ZM278.657 211.006C271.763 200.533 283.283 198.177 284.068 192.853C287.384 206.642 279.53 202.191 278.657 211.006Z" fill="#008300" stroke="black" style="fill:#008300;fill:color(display-p3 0.0000 0.5137 0.0000);fill-opacity:1;stroke:black;stroke-opacity:1;" stroke-width="0.349092"/>
<path id="Vector_21" fill-rule="evenodd" clip-rule="evenodd" d="M292.446 202.278C281.101 199.049 283.195 210.482 279.355 213.188C288.955 214.759 286.948 205.595 292.446 202.278ZM287.21 197.391C284.941 188.315 289.479 189.798 294.628 185.784C297.421 193.115 290.526 192.242 287.21 197.391ZM301.697 195.995C292.97 189.537 292.01 198.264 287.472 199.486C295.85 204.46 296.199 197.042 301.697 196.082V195.995ZM296.461 191.631C296.723 187.704 301.959 182.555 307.37 184.3C307.108 190.846 300.824 192.504 296.461 191.718V191.631Z" fill="#008300" stroke="black" style="fill:#008300;fill:color(display-p3 0.0000 0.5137 0.0000);fill-opacity:1;stroke:black;stroke-opacity:1;" stroke-width="0.349092"/>
</g>
<g id="eac-e_2">
<path id="Vector_22" fill-rule="evenodd" clip-rule="evenodd" d="M344.199 270.875C355.021 276.111 355.545 262.322 360.432 262.497C351.268 256.388 352.752 267.733 344.199 270.875ZM348.388 255.689C353.799 265.551 341.145 266.86 341.581 271.66C335.385 263.282 345.945 263.98 348.388 255.689Z" fill="#008300" stroke="black" style="fill:#008300;fill:color(display-p3 0.0000 0.5137 0.0000);fill-opacity:1;stroke:black;stroke-opacity:1;" stroke-width="0.349092"/>
<path id="Vector_23" fill-rule="evenodd" clip-rule="evenodd" d="M353.625 259.53C366.977 261.799 363.312 250.279 368.897 249.319C357.116 245.828 362.177 254.73 353.625 259.53Z" fill="#008300" stroke="black" style="fill:#008300;fill:color(display-p3 0.0000 0.5137 0.0000);fill-opacity:1;stroke:black;stroke-opacity:1;" stroke-width="0.349092"/>
<path id="Vector_24" fill-rule="evenodd" clip-rule="evenodd" d="M355.021 245.915C362.352 254.555 351.792 254.991 353.014 259.53C345.421 252.548 353.276 252.81 355.021 245.915ZM362.701 247.486C375.967 245.566 367.588 232.039 371.603 229.159C360.694 229.944 367.763 241.813 362.701 247.486Z" fill="#008300" stroke="black" style="fill:#008300;fill:color(display-p3 0.0000 0.5137 0.0000);fill-opacity:1;stroke:black;stroke-opacity:1;" stroke-width="0.349092"/>
<path id="Vector_25" fill-rule="evenodd" clip-rule="evenodd" d="M357.639 230.38C369.857 236.228 357.552 242.511 362.352 247.835C350.308 247.224 360.956 239.37 357.639 230.555V230.38ZM364.447 230.817C378.672 224.359 363.836 212.14 366.367 207.689C356.679 217.551 371.428 221.217 364.447 230.817Z" fill="#008300" stroke="black" style="fill:#008300;fill:color(display-p3 0.0000 0.5137 0.0000);fill-opacity:1;stroke:black;stroke-opacity:1;" stroke-width="0.349092"/>
<path id="Vector_26" fill-rule="evenodd" clip-rule="evenodd" d="M355.37 214.409C367.588 215.98 361.479 227.239 364.01 231.253C354.41 229.071 362.09 223.399 355.283 214.409H355.37ZM361.305 211.006C368.199 200.533 356.679 198.177 355.894 192.853C352.578 206.642 360.432 202.191 361.305 211.006Z" fill="#008300" stroke="black" style="fill:#008300;fill:color(display-p3 0.0000 0.5137 0.0000);fill-opacity:1;stroke:black;stroke-opacity:1;" stroke-width="0.349092"/>
<path id="Vector_27" fill-rule="evenodd" clip-rule="evenodd" d="M347.516 202.278C358.861 199.049 356.767 210.482 360.607 213.188C351.007 214.759 353.014 205.595 347.516 202.278ZM352.752 197.391C355.021 188.315 350.483 189.798 345.334 185.784C342.541 193.115 349.436 192.242 352.752 197.391ZM338.265 195.995C346.992 189.537 347.952 198.264 352.49 199.486C344.112 204.46 343.763 197.042 338.265 196.082V195.995ZM343.501 191.631C343.239 187.704 338.003 182.555 332.592 184.3C332.854 190.846 339.138 192.504 343.501 191.718V191.631Z" fill="#008300" stroke="black" style="fill:#008300;fill:color(display-p3 0.0000 0.5137 0.0000);fill-opacity:1;stroke:black;stroke-opacity:1;" stroke-width="0.349092"/>
</g>
<path id="Vector_28" d="M309.303 180.281L309.823 183.339L311.45 183.014C311.884 182.97 312.166 182.862 312.296 182.688C312.426 182.515 312.491 182.19 312.491 181.712H312.686L313.142 184.315H312.946L312.686 183.664L312.296 183.404H311.58L309.888 183.73L310.279 186.267L310.474 186.918L310.669 186.983H311.059L312.361 186.788L313.272 186.527L313.792 186.072C314.009 185.812 314.183 185.421 314.313 184.901H314.573L314.248 186.853L308.392 187.894L308.327 187.699H308.587L309.042 187.438C309.172 187.352 309.238 187.243 309.238 187.113V186.332L308.327 181.387C308.327 180.91 308.24 180.628 308.066 180.541C307.893 180.411 307.654 180.368 307.351 180.411H307.09V180.281L312.946 179.24L313.272 180.932H313.077L312.686 180.151L312.166 179.891H311.385L309.303 180.281ZM320.494 183.99H317.501L316.981 185.226L316.785 185.877C316.785 186.007 316.85 186.115 316.981 186.202C317.111 186.289 317.349 186.354 317.696 186.397V186.593H315.289V186.397C315.592 186.397 315.809 186.332 315.939 186.202L316.59 185.031L319.193 178.654H319.453L322.186 185.096C322.403 185.616 322.598 185.942 322.772 186.072C322.945 186.202 323.184 186.289 323.487 186.332V186.593H320.429V186.397C320.733 186.397 320.95 186.332 321.08 186.202C321.167 186.115 321.21 186.007 321.21 185.877C321.21 185.703 321.145 185.443 321.015 185.096L320.494 183.99ZM320.364 183.534L319.063 180.411L317.696 183.599L320.364 183.534ZM331.946 179.956L331.686 182.558H331.491C331.463 181.899 331.236 181.264 330.84 180.736C330.442 180.317 329.915 180.042 329.343 179.956C328.863 179.864 328.367 179.909 327.912 180.086C327.4 180.293 326.967 180.657 326.676 181.127C326.372 181.647 326.155 182.341 326.025 183.209C325.902 183.81 325.902 184.43 326.025 185.031C326.155 185.638 326.415 186.072 326.806 186.332C327.239 186.766 327.738 187.005 328.302 187.048C328.736 187.135 329.17 187.113 329.604 186.983C330.037 186.853 330.536 186.506 331.1 185.942L331.295 186.072C330.775 186.679 330.233 187.113 329.669 187.373C329.105 187.59 328.454 187.634 327.717 187.503C326.459 187.287 325.591 186.636 325.114 185.551C324.687 184.755 324.549 183.835 324.724 182.949C324.854 182.211 325.136 181.561 325.569 180.997C326.003 180.433 326.567 179.999 327.261 179.695C327.865 179.476 328.513 179.408 329.148 179.499C329.784 179.59 330.387 179.836 330.905 180.216L331.165 180.411L331.491 180.346L331.751 179.956H331.946Z" fill="black" style="fill:black;fill-opacity:1;"/>
<path id="Vector_29" d="M317.93 194.337C317.057 194.337 316.214 194.453 315.399 194.686C314.038 197.053 311.869 198.851 309.29 199.748L308.766 199.922C306.084 201.099 303.051 201.193 300.301 200.184C297.872 201.804 295.645 203.708 293.668 205.857C294.179 208.742 293.553 211.713 291.923 214.148C290.621 216.745 288.371 218.745 285.639 219.733C284.766 222.584 284.272 225.493 284.155 228.46C285.901 229.769 287.384 232.3 287.995 235.355L288.17 235.966C288.781 239.282 288.17 242.424 286.948 244.257C288.112 246.991 289.566 249.522 291.312 251.85C293.406 251.675 296.199 252.722 298.643 254.555L299.079 254.991C301.697 257.173 303.268 259.879 303.443 262.148C306.119 263.544 308.941 264.562 311.908 265.202C313.479 263.719 316.272 262.584 319.414 262.584H320.024C323.428 262.584 326.395 263.631 328.054 265.202C331.021 264.562 333.814 263.544 336.432 262.148C336.899 259.261 338.462 256.666 340.795 254.904C342.969 252.987 345.752 251.904 348.65 251.85C350.395 249.522 351.85 247.05 353.014 244.431C351.664 242.082 351.199 239.326 351.705 236.664V236.14C352.519 232.65 353.886 230.148 355.806 228.635C355.675 225.676 355.177 222.744 354.323 219.908C351.794 218.953 349.69 217.127 348.388 214.759L348.039 214.235C346.294 211.268 345.77 208.126 346.294 205.944C344.266 203.697 341.947 201.731 339.399 200.097C336.864 201.032 334.079 201.032 331.545 200.097L330.934 199.835C328.17 198.934 325.819 197.077 324.301 194.598C322.904 194.424 321.45 194.337 319.937 194.337H317.843H317.93Z" fill="#FF0000" style="fill:#FF0000;fill:color(display-p3 1.0000 0.0000 0.0000);fill-opacity:1;"/>
<path id="Vector_30" d="M350.657 230.031C350.657 238.167 347.425 245.97 341.672 251.723C335.92 257.476 328.117 260.708 319.981 260.708C311.845 260.708 304.042 257.476 298.289 251.723C292.536 245.97 289.304 238.167 289.304 230.031C289.304 221.896 292.536 214.093 298.289 208.34C304.042 202.587 311.845 199.355 319.981 199.355C328.117 199.355 335.92 202.587 341.672 208.34C347.425 214.093 350.657 221.896 350.657 230.031Z" fill="#FBF014" stroke="black" style="fill:#FBF014;fill:color(display-p3 0.9843 0.9412 0.0784);fill-opacity:1;stroke:black;stroke-opacity:1;" stroke-width="0.349092"/>
<path id="Vector_31" d="M348.039 230.031C348.039 237.484 345.079 244.632 339.808 249.902C334.538 255.173 327.39 258.133 319.937 258.133C312.484 258.133 305.336 255.173 300.066 249.902C294.796 244.632 291.835 237.484 291.835 230.031C291.835 222.578 294.796 215.43 300.066 210.16C305.336 204.89 312.484 201.929 319.937 201.929C327.39 201.929 334.538 204.89 339.808 210.16C345.079 215.43 348.039 222.578 348.039 230.031Z" fill="#FBF014" stroke="black" style="fill:#FBF014;fill:color(display-p3 0.9843 0.9412 0.0784);fill-opacity:1;stroke:black;stroke-opacity:1;" stroke-width="0.349092"/>
<g id="Group_2">
<path id="Vector_32" fill-rule="evenodd" clip-rule="evenodd" d="M311.646 216.242L320.897 217.9L319.675 227.151L311.821 232.562L307.457 227.762L307.719 220.169L311.646 216.242Z" fill="#0087FF" stroke="black" style="fill:#0087FF;fill:color(display-p3 0.0000 0.5294 1.0000);fill-opacity:1;stroke:black;stroke-opacity:1;" stroke-width="0.349092"/>
<path id="Vector_33" fill-rule="evenodd" clip-rule="evenodd" d="M309.028 223.05L305.363 223.224H305.014V223.399H304.926L304.839 223.66L304.49 223.835V224.01L304.228 224.184L303.879 224.359H303.792L303.705 224.01H303.181L302.919 224.097V223.66L302.832 223.573V222.7H303.006V221.915L303.094 221.74V221.566L303.355 221.304L303.617 221.217V220.955L303.705 220.693L303.792 220.606L303.705 220.431L303.443 220.606L303.181 220.431V219.908L303.443 219.733L303.53 219.82L303.705 219.122L303.966 218.86L303.792 218.424L303.966 218.162L303.879 217.813L304.665 217.551V217.29L304.752 216.94L305.101 216.853L305.363 216.679L305.537 217.115V217.377H305.712L305.886 217.028L306.061 216.94V216.679L306.585 216.068L306.759 215.893L307.108 215.719H307.457L307.719 215.37V215.02H307.894L308.068 214.846L307.981 214.584V213.973H307.806V213.799L307.632 214.06L307.457 213.973V213.711H306.934L306.759 213.362L306.585 213.45V213.711L306.41 213.624V213.275H306.061L306.148 212.926L306.497 212.315V211.966L306.148 211.617L306.41 210.919L306.759 210.57V210.133L306.497 210.22L306.846 209.784L307.457 209.522H307.806L308.33 209.871L308.505 209.784H308.766L309.203 209.435L309.639 209.784V210.046H309.988L310.075 210.22H310.337V209.959L310.948 209.697L311.821 209.61L312.606 209.173L313.043 209.522H314.003L315.486 208.213L320.025 209.26L319.763 217.115L315.05 219.733L314.788 219.559L314.701 219.646H314.614V219.21H314.352V219.733H314.003L313.654 219.559V219.384H314.003V219.297L313.741 219.21H313.479V219.035L313.741 218.86V218.773L313.479 218.948L313.305 218.86L313.13 218.948L313.305 219.21L313.043 219.384V219.559L312.694 219.471V219.646H312.868L312.345 219.995L312.17 219.82V219.733L311.908 219.908H311.559V219.82L311.908 219.733L311.821 219.646H311.559V219.384L311.472 219.646H311.297V220.082H310.948L310.861 219.908C310.861 219.908 310.599 219.908 310.686 220.082V220.344L310.425 220.17H310.25V220.431H310.075L309.726 220.257L309.901 220.519H309.552L309.377 220.606L309.552 220.78L309.639 220.955L309.814 221.13L309.726 221.217H309.639L309.377 221.479H309.203L309.115 221.74L308.941 221.828L309.028 222.002H309.115V222.177H309.028L308.679 222.526V222.613H308.941L309.028 223.05Z" fill="white" stroke="black" style="fill:white;fill-opacity:1;stroke:black;stroke-opacity:1;" stroke-width="0.349092"/>
<path id="Vector_34" fill-rule="evenodd" clip-rule="evenodd" d="M315.312 223.137L325.348 228.635L325.436 229.42L325.086 229.595L325.174 229.944L325.523 230.031L325.61 230.38L329.537 233.173L329.799 232.999L330.148 233.173L330.236 232.824L330.497 232.562L330.934 231.602L330.672 231.515L330.846 231.166H331.021L331.37 230.73V230.38L331.196 230.119L331.457 230.206L331.806 229.42L332.156 229.333L332.243 228.722L332.417 228.548C332.417 228.548 332.243 227.85 332.417 227.588C332.592 227.326 333.552 227.326 333.552 227.326L334.076 226.715V226.54L334.425 226.279L334.076 225.668L334.774 225.842L335.297 225.668H335.646L336.17 224.969V224.708L334.512 222.613V212.402L335.472 211.529L337.043 209.348L336.606 209.173L335.036 209.348L334.599 208.824H334.425L334.337 208.475L333.988 208.3L331.37 209.522L331.283 209.959L330.672 210.482V210.831H330.497L330.323 210.744L327.617 210.133L327.443 210.308H326.57L323.341 207.951H320.985L320.461 207.777V207.515H316.097L315.225 208.388L315.399 209.522H315.836L316.01 210.046H316.446L316.359 210.569H316.272V211.18L316.446 211.442L316.708 211.617V212.053L317.232 212.315L317.319 212.926L317.668 213.1V213.362L317.494 213.711L317.843 214.235L317.756 214.584L317.93 215.02V215.195L317.843 215.719L317.581 215.893L317.494 216.242H317.319V216.94H316.883L316.708 217.202L316.446 217.115V217.726L316.185 218.075H315.923V218.337L315.574 218.511L315.486 218.948V219.384L315.05 219.559V220.344L315.312 220.431H315.486L315.399 220.693L315.661 220.78L315.836 221.217L316.185 220.955V220.693H316.621L317.145 220.431L317.319 220.78L317.494 221.042H317.145L317.057 221.217H316.796L316.359 221.13V221.304L316.534 221.479L316.272 221.653L316.185 221.479L315.923 221.566H315.748L315.486 221.391V221.74H315.312L315.137 222.177L315.399 222.439L315.661 222.613L315.399 222.962L315.312 223.137ZM330.672 242.162L331.021 241.9V241.726H331.37L331.545 241.29V241.726L331.37 241.9V242.162H331.196V242.424L331.108 242.25L330.672 242.162ZM329.625 237.275V236.664L329.537 236.577L329.886 236.315V235.966L330.323 235.791V236.14H330.061V236.664L330.236 236.926V237.188L330.497 237.362L330.759 237.711V237.973L330.497 238.06L330.148 237.624L329.799 237.711L329.625 237.275ZM330.934 235.006V234.657L331.108 234.308L330.846 233.61H331.196L331.283 233.959H331.457V233.697C331.457 233.697 331.632 233.61 331.632 233.697L331.545 234.482L331.632 234.831L331.457 235.093L331.196 235.355L330.934 235.006Z" fill="white" stroke="black" style="fill:white;fill-opacity:1;stroke:black;stroke-opacity:1;" stroke-width="0.349092"/>
<path id="Vector_35" fill-rule="evenodd" clip-rule="evenodd" d="M332.941 249.144L331.806 250.017L330.236 250.715L329.799 250.977H329.014L328.403 251.151L328.054 251.326L327.617 251.762L326.919 251.326H326.046L325.785 251.588V252.024L325.174 252.286H324.912L324.65 252.46L323.777 252.373L323.428 252.024L322.992 252.111L322.294 252.635L321.945 252.548V252.373H321.683L321.508 252.548L321.072 252.46V252.111H320.81L320.461 251.588H320.025L319.937 251.85L319.588 252.111L319.239 252.024H317.93L317.581 251.413H317.232L316.883 250.54V250.104L317.057 249.93V249.406L316.708 249.144L316.795 248.271L316.708 248.097L316.621 247.748L316.01 247.137V246.875L315.312 246.351H315.05V246.875L314.701 246.788L314.526 246.526L313.654 246.7L313.305 246.264L312.868 246.351L312.519 246.09H312.083L311.734 245.74H310.948L310.774 245.217H310.25L310.075 245.129H309.465V244.868L308.766 244.78L308.417 244.519V244.082L307.894 243.82L307.457 243.908L307.283 243.384L306.846 243.035L306.759 242.511L306.148 241.639V241.289L305.799 240.94V240.242L305.537 239.893V239.544H305.712V239.282L305.275 238.933L305.101 238.584L304.403 238.06H303.879L303.268 237.362V237.013L303.53 236.664H303.879L303.966 236.402V236.14L303.355 235.268V234.831L303.617 234.657L303.53 234.133L303.006 233.609V233.086L303.094 232.649V232.475L303.617 232.3L303.879 232.126L304.141 231.864V231.602L304.665 231.428V231.166L305.101 230.642V230.38L305.363 229.944L305.974 229.682V229.508L306.41 229.246V228.373L306.235 228.286H305.974L305.712 228.199H305.275V227.937L305.537 227.588L305.363 227.413L305.625 226.889L306.497 226.802V226.191L306.585 225.929L306.235 225.493V224.62L306.061 224.359V224.097L305.625 223.835L305.275 223.224H305.799L306.061 222.962H309.115L309.203 223.224V223.573L309.028 224.009L308.941 224.271V224.446L308.854 224.795V225.144L308.679 225.319V225.58L308.505 225.755H308.766V226.191L308.592 226.54H309.29L309.028 227.064L308.941 227.413L309.028 227.937L309.377 227.588L309.639 227.849V227.413L309.726 227.064L310.075 227.239L310.163 227.064L309.988 226.715L310.337 226.366L310.686 226.802L310.948 226.889L311.123 227.326L311.385 226.802L311.472 227.151H311.821V227.5L312.083 227.849L311.734 228.024V228.46H311.995V228.024H312.345L312.17 227.588L312.083 227.239L312.432 226.715H312.781L312.955 227.151H313.566L314.09 226.628L314.788 226.366L314.614 225.929H314.439L314.177 226.191L313.392 226.104L313.13 225.929L312.955 226.104H312.694L311.995 225.842V225.58L311.821 225.493L312.17 225.319L312.345 225.58H312.519L312.781 225.493L313.13 225.755L313.654 225.668V225.406L313.305 225.319V225.057H313.915L314.003 224.882L314.439 224.708L314.177 224.359V224.184L315.05 224.359L314.614 224.009L314.701 223.66L315.225 224.009V223.835L314.875 223.573L315.399 223.049L325.523 228.548L325.61 229.333L325.261 229.595V229.944H325.697V230.293L329.625 232.911L329.886 233.348L329.625 233.609L329.45 233.959L329.363 234.569L329.188 234.919V235.442L328.839 235.791L328.577 236.402V236.839L328.839 237.188L328.665 237.711L329.101 238.06H329.363L330.148 238.933L330.497 239.282L330.672 239.719L330.497 240.155L330.236 240.242L329.974 241.115V241.639L330.323 241.988L330.236 242.337L330.061 242.86L329.886 243.384L330.061 243.908L330.236 244.344L330.41 244.519V244.868H330.236L330.497 245.304L330.846 245.479V246.177H330.759V246.351L331.108 246.613L331.283 247.486L331.108 247.748V247.922H331.632L331.806 248.359L332.156 248.271L332.766 248.533L333.028 248.97L332.941 249.144Z" fill="white" stroke="black" style="fill:white;fill-opacity:1;stroke:black;stroke-opacity:1;" stroke-width="0.349092"/>
</g>
<path id="Vector_36" fill-rule="evenodd" clip-rule="evenodd" d="M301.261 226.977C300.999 226.715 302.134 226.104 301.959 225.668C301.959 224.911 302.424 224.417 303.355 224.184L303.879 223.835C304.141 224.01 304.141 224.446 304.403 224.184C304.665 223.922 305.275 223.05 305.712 223.224C305.45 223.573 305.974 224.271 306.323 224.533L306.846 226.191C306.73 226.715 306.323 226.89 305.625 226.715C304.926 226.453 304.752 226.977 304.228 226.54C304.141 227.151 304.228 227.675 303.443 227.937C302.919 227.937 302.628 227.85 302.57 227.675C302.163 227.21 301.814 227.21 301.523 227.675C301.406 227.559 301.319 227.326 301.261 226.977Z" fill="white" stroke="black" style="fill:white;fill-opacity:1;stroke:black;stroke-opacity:1;" stroke-width="0.436365"/>
<g id="Vector_37">
<path fill-rule="evenodd" clip-rule="evenodd" d="M301.523 227.675C301.959 226.715 302.483 227.762 302.657 227.762C303.966 227.937 303.966 227.675 304.228 226.453C304.926 226.977 304.665 226.453 306.148 226.802C305.886 226.802 305.275 227.5 305.712 227.5C305.363 228.46 306.148 228.46 306.672 228.373C306.41 228.722 307.108 228.897 306.41 229.246C305.974 229.508 305.974 229.246 305.974 229.857L305.45 229.944C305.363 230.119 305.712 230.468 305.625 230.468C305.625 230.584 305.45 230.817 305.101 231.166C304.752 231.515 304.374 231.806 303.966 232.039L303.355 232.213L302.483 230.642C302.483 230.177 302.395 229.711 302.221 229.246V228.46C301.93 228.228 301.697 227.937 301.523 227.588" fill="white" style="fill:white;fill-opacity:1;"/>
<path d="M301.523 227.675C301.959 226.715 302.483 227.762 302.657 227.762C303.966 227.937 303.966 227.675 304.228 226.453C304.926 226.977 304.665 226.453 306.148 226.802C305.886 226.802 305.275 227.5 305.712 227.5C305.363 228.46 306.148 228.46 306.672 228.373C306.41 228.722 307.108 228.897 306.41 229.246C305.974 229.508 305.974 229.246 305.974 229.857L305.45 229.944C305.363 230.119 305.712 230.468 305.625 230.468C305.625 230.584 305.45 230.817 305.101 231.166C304.752 231.515 304.374 231.806 303.966 232.039L303.355 232.213L302.483 230.642C302.483 230.177 302.395 229.711 302.221 229.246V228.46C301.93 228.228 301.697 227.937 301.523 227.588" stroke="black" style="stroke:black;stroke-opacity:1;" stroke-width="0.436365"/>
</g>
</g>
</g>
<defs>
<clipPath id="clip0_2194_2506">
<rect width="640" height="480" fill="white" style="fill:white;fill-opacity:1;"/>
</clipPath>
</defs>
</svg>
