<svg width="640" height="480" viewBox="0 0 640 480" fill="none" xmlns="http://www.w3.org/2000/svg">
<g id="ec" clip-path="url(#clip0_2194_2557)">
<g id="Group">
<path id="Vector" fill-rule="evenodd" clip-rule="evenodd" d="M0 0H640V480H0V0Z" fill="#FFE800" style="fill:#FFE800;fill:color(display-p3 1.0000 0.9098 0.0000);fill-opacity:1;"/>
<path id="Vector_2" fill-rule="evenodd" clip-rule="evenodd" d="M0 240H640V480H0V240Z" fill="#00148E" style="fill:#00148E;fill:color(display-p3 0.0000 0.0784 0.5569);fill-opacity:1;"/>
<path id="Vector_3" fill-rule="evenodd" clip-rule="evenodd" d="M0 360H640V480H0V360Z" fill="#DA0010" style="fill:#DA0010;fill:color(display-p3 0.8549 0.0000 0.0627);fill-opacity:1;"/>
</g>
<g id="Group_2">
<path id="Vector_4" fill-rule="evenodd" clip-rule="evenodd" d="M269.6 290.8L197 367.3L195.8 365.7L268.2 289.2L269.4 290.8H269.6ZM320 303.3L225.2 403.3L223.6 401.7L318.3 301.7L320 303.3Z" fill="black" style="fill:black;fill-opacity:1;"/>
<path id="Vector_5" fill-rule="evenodd" clip-rule="evenodd" d="M225.492 402.132L216.632 410.992L206.533 418.613L214.154 408.514L223.014 399.654L225.492 402.132Z" fill="#808080" stroke="black" style="fill:#808080;fill:color(display-p3 0.5020 0.5020 0.5020);fill-opacity:1;stroke:black;stroke-opacity:1;" stroke-width="0.485119"/>
<path id="Vector_6" fill-rule="evenodd" clip-rule="evenodd" d="M201.092 363.032L192.232 371.892L182.133 379.513L189.754 369.414L198.614 360.554L201.092 363.032Z" fill="#808080" stroke="black" style="fill:#808080;fill:color(display-p3 0.5020 0.5020 0.5020);fill-opacity:1;stroke:black;stroke-opacity:1;" stroke-width="0.485119"/>
</g>
<path id="Vector_7" fill-rule="evenodd" clip-rule="evenodd" d="M207.94 114.792C207.94 114.792 199.975 330.216 231.835 330.216C263.695 330.216 279.67 307.56 279.67 307.56L279.31 189.16L207.94 114.792Z" fill="#FFDF00" stroke="black" style="fill:#FFDF00;fill:color(display-p3 1.0000 0.8745 0.0000);fill-opacity:1;stroke:black;stroke-opacity:1;" stroke-width="0.715542"/>
<path id="Vector_8" fill-rule="evenodd" clip-rule="evenodd" d="M227.425 134.888C227.425 146.216 223.87 307.56 239.8 307.56C255.73 307.56 279.67 296.232 279.67 296.232L279.31 189.16L227.425 134.888Z" fill="#0000C4" stroke="black" style="fill:#0000C4;fill:color(display-p3 0.0000 0.0000 0.7686);fill-opacity:1;stroke:black;stroke-opacity:1;" stroke-width="0.715542"/>
<path id="Vector_9" fill-rule="evenodd" clip-rule="evenodd" d="M237.775 145.768C237.775 157.096 239.8 284.904 255.775 284.904H279.67L279.31 189.16L237.775 145.768Z" fill="#E10000" stroke="black" style="fill:#E10000;fill:color(display-p3 0.8824 0.0000 0.0000);fill-opacity:1;stroke:black;stroke-opacity:1;" stroke-width="0.715542"/>
<path id="Vector_10" fill-rule="evenodd" clip-rule="evenodd" d="M206.2 116L278.6 192.5L279.9 190.9L207.5 114.4L206.2 116Z" fill="black" style="fill:black;fill-opacity:1;"/>
<path id="Vector_11" fill-rule="evenodd" clip-rule="evenodd" d="M184.296 158.936C184.296 158.936 163.764 367.628 225.36 367.628C276.69 367.628 276.69 334.706 286.956 334.706L276.69 257.826L184.296 158.936Z" fill="#FFDF00" stroke="black" style="fill:#FFDF00;fill:color(display-p3 1.0000 0.8745 0.0000);fill-opacity:1;stroke:black;stroke-opacity:1;" stroke-width="0.799555"/>
<g id="Group_3">
<path id="Vector_12" d="M235.18 193.632C235.62 193.599 251.2 159.883 290.14 138.542" stroke="black" style="stroke:black;stroke-opacity:1;" stroke-width="0.866152"/>
<path id="Vector_13" fill-rule="evenodd" clip-rule="evenodd" d="M228.806 161.85C234.236 164.384 237.672 167.3 240.8 170.7C234.586 169.398 231.38 168.872 225.95 166.338C220.52 163.804 216.372 159.928 213.076 156.792C217.118 158.022 223.346 159.302 228.806 161.85Z" fill="#005B00" stroke="black" style="fill:#005B00;fill:color(display-p3 0.0000 0.3569 0.0000);fill-opacity:1;stroke:black;stroke-opacity:1;" stroke-width="0.391759"/>
<path id="Vector_14" fill-rule="evenodd" clip-rule="evenodd" d="M242.426 182.499C242.826 183.179 242.482 184.137 241.636 184.607C240.79 185.077 239.776 184.896 239.366 184.199C238.956 183.502 239.32 182.578 240.166 182.108C241.012 181.638 242.026 181.819 242.426 182.499Z" fill="#FF0000" stroke="black" style="fill:#FF0000;fill:color(display-p3 1.0000 0.0000 0.0000);fill-opacity:1;stroke:black;stroke-opacity:1;" stroke-width="0.2687"/>
<path id="Vector_15" fill-rule="evenodd" clip-rule="evenodd" d="M259.491 140.269C257.138 146.242 254.542 150.178 251.55 153.85C252.895 147.205 253.466 143.794 255.819 137.821C258.172 131.848 261.606 127.054 264.382 123.238C263.184 127.606 261.857 134.263 259.491 140.269Z" fill="#005B00" stroke="black" style="fill:#005B00;fill:color(display-p3 0.0000 0.3569 0.0000);fill-opacity:1;stroke:black;stroke-opacity:1;" stroke-width="0.369335"/>
<path id="Vector_16" fill-rule="evenodd" clip-rule="evenodd" d="M251.547 139.959C251.004 145.932 249.814 150.558 248.25 155.25C247.841 149.445 247.536 146.544 248.079 140.571C248.622 134.598 250.288 128.784 251.648 124.128C251.667 128.151 252.093 133.953 251.547 139.959Z" fill="#005B00" stroke="black" style="fill:#005B00;fill:color(display-p3 0.0000 0.3569 0.0000);fill-opacity:1;stroke:black;stroke-opacity:1;" stroke-width="0.318892"/>
<path id="Vector_17" fill-rule="evenodd" clip-rule="evenodd" d="M256.735 146.79C253.658 150.41 251.07 151.98 248.35 153C251.091 147.98 252.434 145.31 255.511 141.69C258.588 138.07 261.886 136.37 264.534 135.05C262.564 138.105 259.829 143.15 256.735 146.79Z" fill="#005B00" stroke="black" style="fill:#005B00;fill:color(display-p3 0.0000 0.3569 0.0000);fill-opacity:1;stroke:black;stroke-opacity:1;" stroke-width="0.346373"/>
<path id="Vector_18" fill-rule="evenodd" clip-rule="evenodd" d="M230.52 151.848C234.14 156.192 235.94 160.376 237.3 165C232.56 161.776 230.06 160.272 226.44 155.928C222.82 151.584 220.78 146.144 219.18 141.76C222.12 144.276 226.88 147.48 230.52 151.848Z" fill="#005B00" stroke="black" style="fill:#005B00;fill:color(display-p3 0.0000 0.3569 0.0000);fill-opacity:1;stroke:black;stroke-opacity:1;" stroke-width="0.396345"/>
<path id="Vector_19" fill-rule="evenodd" clip-rule="evenodd" d="M223.233 185.332C227.758 188.952 230.146 192.684 232.05 196.9C226.293 194.512 223.27 193.44 218.745 189.82C214.22 186.2 211.466 181.304 209.298 177.352C212.904 179.326 218.683 181.692 223.233 185.332Z" fill="#005B00" stroke="black" style="fill:#005B00;fill:color(display-p3 0.0000 0.3569 0.0000);fill-opacity:1;stroke:black;stroke-opacity:1;" stroke-width="0.420812"/>
<path id="Vector_20" fill-rule="evenodd" clip-rule="evenodd" d="M244.424 183.344C240.804 189.136 236.888 193.028 232.4 196.7C234.564 190.348 235.5 187.096 239.12 181.304C242.74 175.512 247.908 170.752 252.084 166.96C250.202 171.158 248.064 177.52 244.424 183.344Z" fill="#005B00" stroke="black" style="fill:#005B00;fill:color(display-p3 0.0000 0.3569 0.0000);fill-opacity:1;stroke:black;stroke-opacity:1;" stroke-width="0.432296"/>
<path id="Vector_21" fill-rule="evenodd" clip-rule="evenodd" d="M248.206 183.114C242.414 187.096 237.372 189.168 232 190.8C236.952 185.698 239.354 183.016 245.146 179.034C250.938 175.052 257.398 172.672 262.59 170.8C258.967 173.988 254.03 179.11 248.206 183.114Z" fill="#005B00" stroke="black" style="fill:#005B00;fill:color(display-p3 0.0000 0.3569 0.0000);fill-opacity:1;stroke:black;stroke-opacity:1;" stroke-width="0.415441"/>
<path id="Vector_22" fill-rule="evenodd" clip-rule="evenodd" d="M287.254 141.492C284.72 144.388 282.448 146.104 280 147.6C282.086 144.144 283.088 142.348 285.622 139.452C288.156 136.556 291.08 134.516 293.432 132.9C291.88 135.114 289.802 138.58 287.254 141.492Z" fill="#005B00" stroke="black" style="fill:#005B00;fill:color(display-p3 0.0000 0.3569 0.0000);fill-opacity:1;stroke:black;stroke-opacity:1;" stroke-width="0.220006"/>
<path id="Vector_23" fill-rule="evenodd" clip-rule="evenodd" d="M281.764 132.949C280.316 136.026 278.768 138.338 277 140.65C277.888 137.573 278.276 136.026 279.724 132.949C281.172 129.872 283.212 126.982 284.86 124.67C284.098 126.778 283.22 129.855 281.764 132.949Z" fill="#005B00" stroke="black" style="fill:#005B00;fill:color(display-p3 0.0000 0.3569 0.0000);fill-opacity:1;stroke:black;stroke-opacity:1;" stroke-width="0.182761"/>
<path id="Vector_24" fill-rule="evenodd" clip-rule="evenodd" d="M290.242 138.472C287.708 139.92 285.804 140.364 283.9 140.5C286.434 138.268 287.708 137.064 290.242 135.616C292.776 134.168 295.156 133.76 297.06 133.456C295.324 134.77 292.79 137.016 290.242 138.472Z" fill="#005B00" stroke="black" style="fill:#005B00;fill:color(display-p3 0.0000 0.3569 0.0000);fill-opacity:1;stroke:black;stroke-opacity:1;" stroke-width="0.20033"/>
<path id="Vector_25" fill-rule="evenodd" clip-rule="evenodd" d="M255.273 154.695C250.748 157.41 247.026 158.99 243.15 160.35C247.283 157.075 249.32 155.37 253.845 152.655C258.37 149.94 263.096 148.07 266.888 146.59C263.949 148.68 259.823 151.965 255.273 154.695Z" fill="#005B00" stroke="black" style="fill:#005B00;fill:color(display-p3 0.0000 0.3569 0.0000);fill-opacity:1;stroke:black;stroke-opacity:1;" stroke-width="0.25153"/>
<path id="Vector_26" fill-rule="evenodd" clip-rule="evenodd" d="M268.481 158.748C262.508 162.368 257.422 164.076 252.05 165.3C257.295 160.448 259.856 157.88 265.829 154.26C271.802 150.64 278.296 148.736 283.512 147.248C279.719 150.234 274.487 155.108 268.481 158.748Z" fill="#005B00" stroke="black" style="fill:#005B00;fill:color(display-p3 0.0000 0.3569 0.0000);fill-opacity:1;stroke:black;stroke-opacity:1;" stroke-width="0.418688"/>
<path id="Vector_27" d="M227.888 217.336C228.273 217.116 224.633 185.356 248.93 152.32" stroke="black" style="stroke:black;stroke-opacity:1;" stroke-width="0.852572"/>
<path id="Vector_28" fill-rule="evenodd" clip-rule="evenodd" d="M265.126 150.399C265.526 151.079 265.182 152.037 264.336 152.507C263.49 152.977 262.476 152.796 262.066 152.099C261.656 151.402 262.02 150.478 262.866 150.008C263.712 149.538 264.726 149.719 265.126 150.399Z" fill="#FF0000" stroke="black" style="fill:#FF0000;fill:color(display-p3 1.0000 0.0000 0.0000);fill-opacity:1;stroke:black;stroke-opacity:1;" stroke-width="0.2687"/>
<path id="Vector_29" fill-rule="evenodd" clip-rule="evenodd" d="M275.926 144.099C276.326 144.779 275.982 145.737 275.136 146.207C274.29 146.677 273.276 146.496 272.866 145.799C272.456 145.102 272.82 144.178 273.666 143.708C274.512 143.238 275.526 143.419 275.926 144.099Z" fill="#FF0000" stroke="black" style="fill:#FF0000;fill:color(display-p3 1.0000 0.0000 0.0000);fill-opacity:1;stroke:black;stroke-opacity:1;" stroke-width="0.2687"/>
<path id="Vector_30" fill-rule="evenodd" clip-rule="evenodd" d="M245.789 165.271C246.069 165.791 245.547 166.613 244.607 167.083C243.667 167.553 242.676 167.504 242.389 166.971C242.102 166.438 242.638 165.642 243.578 165.172C244.518 164.702 245.509 164.751 245.789 165.271Z" fill="#FF0000" stroke="black" style="fill:#FF0000;fill:color(display-p3 1.0000 0.0000 0.0000);fill-opacity:1;stroke:black;stroke-opacity:1;" stroke-width="0.242268"/>
<path id="Vector_31" fill-rule="evenodd" clip-rule="evenodd" d="M248.989 163.871C249.269 164.391 248.747 165.213 247.807 165.683C246.867 166.153 245.876 166.104 245.589 165.571C245.302 165.038 245.838 164.242 246.778 163.772C247.718 163.302 248.709 163.351 248.989 163.871Z" fill="#FF0000" stroke="black" style="fill:#FF0000;fill:color(display-p3 1.0000 0.0000 0.0000);fill-opacity:1;stroke:black;stroke-opacity:1;" stroke-width="0.242268"/>
<path id="Vector_32" fill-rule="evenodd" clip-rule="evenodd" d="M247.089 166.871C247.369 167.391 246.847 168.213 245.907 168.683C244.967 169.153 243.976 169.104 243.689 168.571C243.402 168.038 243.938 167.242 244.878 166.772C245.818 166.302 246.809 166.351 247.089 166.871Z" fill="#FF0000" stroke="black" style="fill:#FF0000;fill:color(display-p3 1.0000 0.0000 0.0000);fill-opacity:1;stroke:black;stroke-opacity:1;" stroke-width="0.242268"/>
<path id="Vector_33" fill-rule="evenodd" clip-rule="evenodd" d="M252.7 167.3C253.033 168.233 252.7 169 251.7 169.6C250.2 170.5 249.7 169.8 249.3 168.9C248.9 168 249.3 167.1 250.3 166.6C251.3 166.1 252.3 166.4 252.6 167.3H252.7Z" fill="#FF0000" stroke="black" style="fill:#FF0000;fill:color(display-p3 1.0000 0.0000 0.0000);fill-opacity:1;stroke:black;stroke-opacity:1;" stroke-width="0.3"/>
<path id="Vector_34" fill-rule="evenodd" clip-rule="evenodd" d="M255 164.9C255.333 165.833 255 166.6 254 167.2C252.5 168.1 252 167.4 251.5 166.6C251 165.8 251.5 164.7 252.5 164.2C253.5 163.7 254.5 164.1 254.9 164.9H255Z" fill="#FF0000" stroke="black" style="fill:#FF0000;fill:color(display-p3 1.0000 0.0000 0.0000);fill-opacity:1;stroke:black;stroke-opacity:1;" stroke-width="0.3"/>
<path id="Vector_35" fill-rule="evenodd" clip-rule="evenodd" d="M255.5 166C255.9 166.8 255.5 167.9 254.5 168.3C253.5 168.7 252.5 168.5 252.1 167.7C251.7 166.9 252.1 165.9 253.1 165.4C254.1 164.9 255.1 165.2 255.5 166Z" fill="#FF0000" stroke="black" style="fill:#FF0000;fill:color(display-p3 1.0000 0.0000 0.0000);fill-opacity:1;stroke:black;stroke-opacity:1;" stroke-width="0.3"/>
</g>
<path id="Vector_36" fill-rule="evenodd" clip-rule="evenodd" d="M204.828 180.946C204.828 191.92 184.296 312.758 235.684 345.68C256.216 356.654 287.014 334.706 287.014 345.68L276.748 257.826L204.828 180.946Z" fill="#0000C4" stroke="black" style="fill:#0000C4;fill:color(display-p3 0.0000 0.0000 0.7686);fill-opacity:1;stroke:black;stroke-opacity:1;" stroke-width="0.799555"/>
<path id="Vector_37" fill-rule="evenodd" clip-rule="evenodd" d="M225.36 202.894C225.36 213.868 215.094 301.722 245.95 323.732C266.482 345.68 317.87 339.728 317.87 339.728L276.748 257.826L225.36 202.894Z" fill="#E10000" stroke="black" style="fill:#E10000;fill:color(display-p3 0.8824 0.0000 0.0000);fill-opacity:1;stroke:black;stroke-opacity:1;" stroke-width="0.799555"/>
<path id="Vector_38" fill-rule="evenodd" clip-rule="evenodd" d="M183.8 158L278.6 258L280.3 256.4L185.5 156.5L183.8 158Z" fill="black" style="fill:black;fill-opacity:1;"/>
<path id="Vector_39" fill-rule="evenodd" clip-rule="evenodd" d="M169.214 146.146L175.232 147.208L177.002 148.978C176.76 148.96 178.772 150.748 176.294 153.226C173.816 155.704 170.29 152.15 170.29 152.15C170.29 152.15 171.352 158.168 174.902 161.718C178.452 165.268 182.69 164.55 182.69 164.55C182.69 164.55 178.656 161.244 181.628 158.532C184.604 155.796 185.876 157.824 185.876 157.824L189.416 161.364L191.908 158.872L177.738 144.702L176.676 138.684L167.548 137.172L169.218 146.122L169.214 146.146Z" fill="#CECECC" stroke="black" style="fill:#CECECC;fill:color(display-p3 0.8078 0.8078 0.8000);fill-opacity:1;stroke:black;stroke-opacity:1;" stroke-width="0.223109"/>
<path id="Vector_40" fill-rule="evenodd" clip-rule="evenodd" d="M183.178 104.122L190.46 115.41L199.678 117.898L193.66 121.792L204.634 121.438L209.604 124.988L211.384 122.14L206.4 118.58L202.516 107.59L201.444 115.04L195.776 106.872L183.174 104.096L183.178 104.122Z" fill="#CECECC" stroke="black" style="fill:#CECECC;fill:color(display-p3 0.8078 0.8078 0.8000);fill-opacity:1;stroke:black;stroke-opacity:1;" stroke-width="0.240228"/>
<path id="Vector_41" fill-rule="evenodd" clip-rule="evenodd" d="M212.8 110.9C212.8 111.5 212 112.01 211.08 112.01C210.16 112.01 209.32 111.5 209.32 110.9C209.32 110.3 210.12 109.76 211.08 109.76C212.04 109.76 212.8 110.27 212.8 110.9ZM210.32 113.27C210.32 124.01 218.68 169.61 219.36 170.72C219.4 172.07 217.44 172.64 216.52 170.99C213.88 165.77 208.2 122.99 208 113C207.88 108.89 209.48 108.56 211.32 108.65C212.8 108.71 214.64 109.76 214.64 111.02C214.64 112.52 212.32 113.63 210.32 113.27Z" fill="#E10000" stroke="black" style="fill:#E10000;fill:color(display-p3 0.8824 0.0000 0.0000);fill-opacity:1;stroke:black;stroke-opacity:1;" stroke-width="0.46188"/>
<path id="Vector_42" fill-rule="evenodd" clip-rule="evenodd" d="M216 121.55C215.7 122.15 214.685 122.46 213.811 122.23C212.937 122 212.394 121.28 212.694 120.68C212.994 120.08 214.024 119.74 214.936 119.98C215.848 120.22 216.315 120.92 216 121.55ZM212.459 123.3C215.219 144.87 205.96 178.18 206.036 179.49C205.414 180.82 203.252 180.93 203.218 179.02C202.763 177.78 213.422 147.69 210.39 122.45C212.331 118.31 214.016 118.38 215.719 118.93C217.095 119.36 218.318 120.87 217.688 122.13C216.938 123.63 214.179 124.16 212.459 123.3Z" fill="#0000C4" stroke="black" style="fill:#0000C4;fill:color(display-p3 0.0000 0.0000 0.7686);fill-opacity:1;stroke:black;stroke-opacity:1;" stroke-width="0.484048"/>
<path id="Vector_43" fill-rule="evenodd" clip-rule="evenodd" d="M186.7 151.5C186.7 152.5 185.7 153.5 184.5 153.5C183.3 153.5 182.3 152.5 182.3 151.5C182.3 150.5 183.3 149.7 184.5 149.7C185.833 149.833 186.533 150.433 186.6 151.5H186.7ZM183.5 155.5C183.5 173.4 194 249.4 194.8 251.3C194.8 253.5 192.5 254.5 191.3 251.7C188 243 180.9 171.7 180.6 155.1C180.5 148.2 182.5 147.7 184.8 147.8C186.7 147.9 188.9 149.7 188.9 151.8C188.9 154.2 186 156.1 183.5 155.5Z" fill="#E10000" stroke="black" style="fill:#E10000;fill:color(display-p3 0.8824 0.0000 0.0000);fill-opacity:1;stroke:black;stroke-opacity:1;" stroke-width="0.7"/>
<path id="Vector_44" fill-rule="evenodd" clip-rule="evenodd" d="M192.1 160.735C191.7 161.695 190.4 162.211 189.296 161.866C188.192 161.521 187.524 160.39 187.924 159.43C188.324 158.47 189.644 157.906 190.796 158.266C191.948 158.626 192.52 159.727 192.1 160.735ZM187.544 163.597C190.384 197.794 177.58 250.918 177.636 252.997C176.804 255.124 174.052 255.349 174.068 252.316C173.528 250.357 188.012 202.315 184.94 162.295C187.536 155.674 189.676 155.746 191.824 156.58C193.56 157.231 195.068 159.601 194.228 161.617C193.228 164.017 189.704 164.923 187.544 163.597Z" fill="#0000C4" stroke="black" style="fill:#0000C4;fill:color(display-p3 0.0000 0.0000 0.7686);fill-opacity:1;stroke:black;stroke-opacity:1;" stroke-width="0.681832"/>
<g id="Group_4">
<path id="Vector_45" fill-rule="evenodd" clip-rule="evenodd" d="M370.4 290.8L442.9 367.3L444.2 365.7L371.7 289.2L370.4 290.8ZM320 303.3L414.8 403.3L416.4 401.7L321.7 301.7L320 303.3Z" fill="black" style="fill:black;fill-opacity:1;"/>
<path id="Vector_46" fill-rule="evenodd" clip-rule="evenodd" d="M414.508 402.132L423.368 410.992L433.467 418.613L425.846 408.514L416.986 399.654L414.508 402.132Z" fill="#808080" stroke="black" style="fill:#808080;fill:color(display-p3 0.5020 0.5020 0.5020);fill-opacity:1;stroke:black;stroke-opacity:1;" stroke-width="0.485119"/>
<path id="Vector_47" fill-rule="evenodd" clip-rule="evenodd" d="M438.908 363.032L447.768 371.892L457.867 379.513L450.246 369.414L441.386 360.554L438.908 363.032Z" fill="#808080" stroke="black" style="fill:#808080;fill:color(display-p3 0.5020 0.5020 0.5020);fill-opacity:1;stroke:black;stroke-opacity:1;" stroke-width="0.485119"/>
</g>
<g id="Group_5">
<path id="Vector_48" fill-rule="evenodd" clip-rule="evenodd" d="M432.06 114.792C432.06 114.792 440.025 330.216 408.165 330.216C376.305 330.216 360.33 307.56 360.33 307.56L360.69 189.16L432.06 114.792Z" fill="#FFDF00" stroke="black" style="fill:#FFDF00;fill:color(display-p3 1.0000 0.8745 0.0000);fill-opacity:1;stroke:black;stroke-opacity:1;" stroke-width="0.715542"/>
<path id="Vector_49" fill-rule="evenodd" clip-rule="evenodd" d="M412.575 134.888C412.575 146.216 416.13 307.56 400.2 307.56C384.27 307.56 360.33 296.232 360.33 296.232L360.69 189.16L412.575 134.888Z" fill="#0000C4" stroke="black" style="fill:#0000C4;fill:color(display-p3 0.0000 0.0000 0.7686);fill-opacity:1;stroke:black;stroke-opacity:1;" stroke-width="0.715542"/>
<path id="Vector_50" fill-rule="evenodd" clip-rule="evenodd" d="M402.225 145.768C402.225 157.096 400.2 284.904 384.225 284.904H360.33L360.69 189.16L402.225 145.768Z" fill="#E10000" stroke="black" style="fill:#E10000;fill:color(display-p3 0.8824 0.0000 0.0000);fill-opacity:1;stroke:black;stroke-opacity:1;" stroke-width="0.715542"/>
<path id="Vector_51" fill-rule="evenodd" clip-rule="evenodd" d="M433.8 116L361.4 192.5L360.1 190.9L432.5 114.4L433.8 116Z" fill="black" style="fill:black;fill-opacity:1;"/>
<g id="Group_6">
<path id="Vector_52" fill-rule="evenodd" clip-rule="evenodd" d="M376.652 175.076C376.652 175.076 396.948 201.116 406.74 221.241C416.524 241.408 427.948 272.138 427.948 272.138C427.948 272.138 421.42 241.884 409.1 217.629C392.956 187.116 376.644 176.812 376.652 175.076Z" fill="#005B00" stroke="black" style="fill:#005B00;fill:color(display-p3 0.0000 0.3569 0.0000);fill-opacity:1;stroke:black;stroke-opacity:1;" stroke-width="0.33387"/>
<path id="Vector_53" fill-rule="evenodd" clip-rule="evenodd" d="M375.95 154.39C375.95 154.39 398.599 186.595 408.937 210.48C419.262 234.41 430.758 270.28 430.758 270.28C430.758 270.28 425.178 235.77 412.088 206.895C394.836 170.46 375.805 156.305 375.95 154.39Z" fill="#005B00" stroke="black" style="fill:#005B00;fill:color(display-p3 0.0000 0.3569 0.0000);fill-opacity:1;stroke:black;stroke-opacity:1;" stroke-width="0.385781"/>
<path id="Vector_54" fill-rule="evenodd" clip-rule="evenodd" d="M395.496 122.548C395.496 122.548 411.52 170.238 416.403 199.728C421.26 229.244 424.226 269.864 424.226 269.864C424.226 269.864 427.312 235.772 420.767 199.582C411.712 153.248 394.832 124.026 395.496 122.548Z" fill="#005B00" stroke="black" style="fill:#005B00;fill:color(display-p3 0.0000 0.3569 0.0000);fill-opacity:1;stroke:black;stroke-opacity:1;" stroke-width="0.43819"/>
<path id="Vector_55" fill-rule="evenodd" clip-rule="evenodd" d="M381.11 120.366C381.11 120.366 403.299 162.719 411.942 191.5C420.562 220.322 428.668 261.904 428.668 261.904C428.668 261.904 427.498 224.13 416.333 189.095C401.356 144.588 380.625 122.277 381.11 120.366Z" fill="#005B00" stroke="black" style="fill:#005B00;fill:color(display-p3 0.0000 0.3569 0.0000);fill-opacity:1;stroke:black;stroke-opacity:1;" stroke-width="0.444029"/>
<path id="Vector_56" fill-rule="evenodd" clip-rule="evenodd" d="M407.756 133.844C407.756 133.844 418.798 179.444 421.572 206.649C424.324 233.872 425.112 270.602 425.112 270.602C425.112 270.602 428.948 240.876 425.098 207.381C419.624 164.364 407.162 135.028 407.756 133.844Z" fill="#005B00" stroke="black" style="fill:#005B00;fill:color(display-p3 0.0000 0.3569 0.0000);fill-opacity:1;stroke:black;stroke-opacity:1;" stroke-width="0.393774"/>
<path id="Vector_57" fill-rule="evenodd" clip-rule="evenodd" d="M378.576 135.1C378.576 135.1 400.042 171.38 408.729 196.74C417.396 222.14 425.93 259.26 425.93 259.26C425.93 259.26 423.856 224.86 412.691 194.06C397.78 155.02 378.182 136.9 378.576 135.1Z" fill="#005B00" stroke="black" style="fill:#005B00;fill:color(display-p3 0.0000 0.3569 0.0000);fill-opacity:1;stroke:black;stroke-opacity:1;" stroke-width="0.404988"/>
<path id="Vector_58" fill-rule="evenodd" clip-rule="evenodd" d="M374.55 160.366C374.55 160.366 397.199 189.127 407.537 211.154C417.862 233.226 429.358 266.74 429.358 266.74C429.358 266.74 423.778 233.906 410.688 207.341C393.436 173.9 374.405 162.237 374.55 160.366Z" fill="#005B00" stroke="black" style="fill:#005B00;fill:color(display-p3 0.0000 0.3569 0.0000);fill-opacity:1;stroke:black;stroke-opacity:1;" stroke-width="0.381518"/>
<path id="Vector_59" fill-rule="evenodd" clip-rule="evenodd" d="M377.49 147.154C377.49 147.154 398.325 180.989 407.395 205.464C416.45 229.982 426.09 266.352 426.09 266.352C426.09 266.352 422.23 231.886 410.68 202.241C395.38 164.764 377.255 149.023 377.49 147.154Z" fill="#005B00" stroke="black" style="fill:#005B00;fill:color(display-p3 0.0000 0.3569 0.0000);fill-opacity:1;stroke:black;stroke-opacity:1;" stroke-width="0.3807"/>
<path id="Vector_60" fill-rule="evenodd" clip-rule="evenodd" d="M400.054 123.27C400.054 123.27 413.449 169.961 416.769 198.478C420.062 227.018 420.922 266.032 420.922 266.032C420.922 266.032 425.706 233.682 421.086 198.647C414.504 153.744 399.323 124.635 400.054 123.27Z" fill="#005B00" stroke="black" style="fill:#005B00;fill:color(display-p3 0.0000 0.3569 0.0000);fill-opacity:1;stroke:black;stroke-opacity:1;" stroke-width="0.425947"/>
<path id="Vector_61" fill-rule="evenodd" clip-rule="evenodd" d="M381.668 111.63C381.668 111.63 401.228 155.613 408.308 184.984C415.364 214.394 421.364 256.476 421.364 256.476C421.364 256.476 421.892 218.746 412.652 182.941C400.148 137.392 381.116 113.495 381.668 111.63Z" fill="#005B00" stroke="black" style="fill:#005B00;fill:color(display-p3 0.0000 0.3569 0.0000);fill-opacity:1;stroke:black;stroke-opacity:1;" stroke-width="0.437909"/>
<path id="Vector_62" fill-rule="evenodd" clip-rule="evenodd" d="M412.814 137.184C412.814 137.184 421.227 180.97 422.438 206.907C423.626 232.86 422.308 267.734 422.308 267.734C422.308 267.734 427.842 239.728 425.917 207.773C422.916 166.708 412.153 138.278 412.814 137.184Z" fill="#005B00" stroke="black" style="fill:#005B00;fill:color(display-p3 0.0000 0.3569 0.0000);fill-opacity:1;stroke:black;stroke-opacity:1;" stroke-width="0.378625"/>
<path id="Vector_63" fill-rule="evenodd" clip-rule="evenodd" d="M379.168 129.764C379.168 129.764 398.728 167.674 405.808 193.624C412.864 219.612 418.864 257.232 418.864 257.232C418.864 257.232 419.392 222.876 410.152 191.306C397.648 151.224 378.616 131.518 379.168 129.764Z" fill="#005B00" stroke="black" style="fill:#005B00;fill:color(display-p3 0.0000 0.3569 0.0000);fill-opacity:1;stroke:black;stroke-opacity:1;" stroke-width="0.413834"/>
</g>
<path id="Vector_64" fill-rule="evenodd" clip-rule="evenodd" d="M455.704 158.936C455.704 158.936 476.236 367.628 414.64 367.628C363.31 367.628 363.31 334.706 353.044 334.706L363.31 257.826L455.704 158.936Z" fill="#FFDF00" stroke="black" style="fill:#FFDF00;fill:color(display-p3 1.0000 0.8745 0.0000);fill-opacity:1;stroke:black;stroke-opacity:1;" stroke-width="0.799555"/>
<path id="Vector_65" fill-rule="evenodd" clip-rule="evenodd" d="M435.172 180.946C435.172 191.92 455.704 312.758 404.316 345.68C383.784 356.654 352.986 334.706 352.986 345.68L363.252 257.826L435.172 180.946Z" fill="#0000C4" stroke="black" style="fill:#0000C4;fill:color(display-p3 0.0000 0.0000 0.7686);fill-opacity:1;stroke:black;stroke-opacity:1;" stroke-width="0.799555"/>
<path id="Vector_66" fill-rule="evenodd" clip-rule="evenodd" d="M414.64 202.894C414.64 213.868 424.906 301.722 394.05 323.732C373.518 345.68 322.13 339.728 322.13 339.728L363.252 257.826L414.64 202.894Z" fill="#E10000" stroke="black" style="fill:#E10000;fill:color(display-p3 0.8824 0.0000 0.0000);fill-opacity:1;stroke:black;stroke-opacity:1;" stroke-width="0.799555"/>
<path id="Vector_67" fill-rule="evenodd" clip-rule="evenodd" d="M456.2 158L361.4 258L359.7 256.4L454.5 156.5L456.2 158Z" fill="black" style="fill:black;fill-opacity:1;"/>
<path id="Vector_68" fill-rule="evenodd" clip-rule="evenodd" d="M470.786 146.146L464.768 147.208L462.998 148.978C463.24 148.96 461.228 150.748 463.706 153.226C466.184 155.704 469.71 152.15 469.71 152.15C469.71 152.15 468.648 158.168 465.098 161.718C461.548 165.268 457.31 164.55 457.31 164.55C457.31 164.55 461.344 161.244 458.372 158.532C455.396 155.796 454.124 157.824 454.124 157.824L450.584 161.364L448.092 158.872L462.262 144.702L463.324 138.684L472.452 137.172L470.782 146.122L470.786 146.146Z" fill="#CECECC" stroke="black" style="fill:#CECECC;fill:color(display-p3 0.8078 0.8078 0.8000);fill-opacity:1;stroke:black;stroke-opacity:1;" stroke-width="0.223109"/>
<path id="Vector_69" fill-rule="evenodd" clip-rule="evenodd" d="M456.822 104.122L449.54 115.41L440.322 117.898L446.34 121.792L435.366 121.438L430.396 124.988L428.616 122.14L433.6 118.58L437.484 107.59L438.556 115.04L444.224 106.872L456.826 104.096L456.822 104.122Z" fill="#CECECC" stroke="black" style="fill:#CECECC;fill:color(display-p3 0.8078 0.8078 0.8000);fill-opacity:1;stroke:black;stroke-opacity:1;" stroke-width="0.240228"/>
<path id="Vector_70" fill-rule="evenodd" clip-rule="evenodd" d="M427.3 110.9C427.3 111.5 428.1 112.01 429.02 112.01C429.94 112.01 430.78 111.5 430.78 110.9C430.78 110.3 429.98 109.76 429.02 109.76C428.06 109.76 427.3 110.27 427.3 110.9ZM429.78 113.27C429.78 124.01 421.42 169.61 420.74 170.72C420.7 172.07 422.66 172.64 423.58 170.99C426.22 165.77 431.9 122.99 432.1 113C432.22 108.89 430.62 108.56 428.78 108.65C427.3 108.71 425.46 109.76 425.46 111.02C425.46 112.52 427.78 113.63 429.78 113.27Z" fill="#E10000" stroke="black" style="fill:#E10000;fill:color(display-p3 0.8824 0.0000 0.0000);fill-opacity:1;stroke:black;stroke-opacity:1;" stroke-width="0.46188"/>
<path id="Vector_71" fill-rule="evenodd" clip-rule="evenodd" d="M424 121.55C424.3 122.15 425.315 122.46 426.189 122.23C427.063 122 427.606 121.28 427.306 120.68C427.006 120.08 425.976 119.74 425.064 119.98C424.152 120.22 423.685 120.92 424 121.55ZM427.541 123.3C424.781 144.87 434.04 178.18 433.964 179.49C434.586 180.82 436.748 180.93 436.782 179.02C437.237 177.78 426.578 147.69 429.61 122.45C427.669 118.31 425.984 118.38 424.281 118.93C422.905 119.36 421.682 120.87 422.312 122.13C423.062 123.63 425.821 124.16 427.541 123.3Z" fill="#0000C4" stroke="black" style="fill:#0000C4;fill:color(display-p3 0.0000 0.0000 0.7686);fill-opacity:1;stroke:black;stroke-opacity:1;" stroke-width="0.484048"/>
<path id="Vector_72" fill-rule="evenodd" clip-rule="evenodd" d="M453.4 151.5C453.4 152.5 454.4 153.5 455.5 153.5C456.6 153.5 457.7 152.5 457.7 151.5C457.7 150.5 456.7 149.7 455.5 149.7C454.166 149.833 453.466 150.433 453.4 151.5ZM456.4 155.5C454.005 187.576 450.269 219.537 445.2 251.3C445.2 253.5 447.5 254.5 448.7 251.7C452 243 459.1 171.7 459.4 155.1C459.5 148.2 457.5 147.7 455.2 147.8C453.3 147.9 451.1 149.7 451.1 151.8C451.1 154.2 454 156.1 456.5 155.5H456.4Z" fill="#E10000" stroke="black" style="fill:#E10000;fill:color(display-p3 0.8824 0.0000 0.0000);fill-opacity:1;stroke:black;stroke-opacity:1;" stroke-width="0.7"/>
<path id="Vector_73" fill-rule="evenodd" clip-rule="evenodd" d="M447.9 160.735C448.3 161.695 449.6 162.211 450.704 161.866C451.808 161.521 452.476 160.39 452.076 159.43C451.676 158.47 450.356 157.906 449.204 158.266C448.052 158.626 447.48 159.727 447.9 160.735ZM452.456 163.597C449.616 197.794 462.42 250.918 462.364 252.997C463.196 255.124 465.948 255.349 465.932 252.316C466.472 250.357 451.988 202.315 455.06 162.295C452.464 155.674 450.324 155.746 448.176 156.58C446.44 157.231 444.932 159.601 445.772 161.617C446.772 164.017 450.296 164.923 452.456 163.597Z" fill="#0000C4" stroke="black" style="fill:#0000C4;fill:color(display-p3 0.0000 0.0000 0.7686);fill-opacity:1;stroke:black;stroke-opacity:1;" stroke-width="0.681832"/>
</g>
<g id="Group_7">
<path id="Vector_74" fill-rule="evenodd" clip-rule="evenodd" d="M287.072 422.56C291.752 425.456 297.064 426.98 302.471 426.98C307.879 426.98 313.19 425.456 317.87 422.56V334.706H297.338C307.604 367.628 307.604 400.612 287.014 422.56H287.072Z" fill="#E10000" stroke="black" style="fill:#E10000;fill:color(display-p3 0.8824 0.0000 0.0000);fill-opacity:1;stroke:black;stroke-opacity:1;" stroke-width="0.799555"/>
<path id="Vector_75" fill-rule="evenodd" clip-rule="evenodd" d="M303.33 336.65C303.33 398.6 288.455 412.39 288.455 424.85C294.65 424.85 298.78 419.04 303.33 411.06C309.525 398.6 310.12 335.67 309.525 336.65H303.33Z" fill="#0000C4" stroke="black" style="fill:#0000C4;fill:color(display-p3 0.0000 0.0000 0.7686);fill-opacity:1;stroke:black;stroke-opacity:1;" stroke-width="0.659966"/>
<path id="Vector_76" fill-rule="evenodd" clip-rule="evenodd" d="M290.94 336.65C290.625 372.84 275.26 406.37 278.165 413.79C281.455 420.44 290.94 398.6 303.33 410.99C309.525 398.6 310.12 335.67 309.525 336.58L290.94 336.65Z" fill="#0000C4" stroke="black" style="fill:#0000C4;fill:color(display-p3 0.0000 0.0000 0.7686);fill-opacity:1;stroke:black;stroke-opacity:1;" stroke-width="0.659966"/>
<path id="Vector_77" fill-rule="evenodd" clip-rule="evenodd" d="M292.33 331.37C292.33 372.08 278.085 374.794 278.085 385.65C284.28 385.65 292.295 379.716 292.33 380.268C298.525 372.08 299.12 330.726 298.525 331.37H292.33Z" fill="#FFDF00" stroke="black" style="fill:#FFDF00;fill:color(display-p3 1.0000 0.8745 0.0000);fill-opacity:1;stroke:black;stroke-opacity:1;" stroke-width="0.534997"/>
<path id="Vector_78" fill-rule="evenodd" clip-rule="evenodd" d="M279.94 331.37C279.625 355.152 264.61 375.392 267.515 380.268C270.84 384.592 279.94 372.08 292.33 380.268C298.525 372.08 299.12 330.726 298.525 331.37H279.94Z" fill="#FFDF00" stroke="black" style="fill:#FFDF00;fill:color(display-p3 1.0000 0.8745 0.0000);fill-opacity:1;stroke:black;stroke-opacity:1;" stroke-width="0.534997"/>
<path id="Vector_79" fill-rule="evenodd" clip-rule="evenodd" d="M352.928 422.56C348.248 425.456 342.936 426.98 337.529 426.98C332.121 426.98 326.81 425.456 322.13 422.56V334.706H342.662C332.396 367.628 332.396 400.612 352.986 422.56H352.928Z" fill="#E10000" stroke="black" style="fill:#E10000;fill:color(display-p3 0.8824 0.0000 0.0000);fill-opacity:1;stroke:black;stroke-opacity:1;" stroke-width="0.799555"/>
<path id="Vector_80" fill-rule="evenodd" clip-rule="evenodd" d="M336.67 336.65C336.67 398.6 351.545 412.39 351.545 424.85C345.35 424.85 341.22 419.04 336.67 411.06C330.475 398.6 329.88 335.67 330.475 336.65H336.67Z" fill="#0000C4" stroke="black" style="fill:#0000C4;fill:color(display-p3 0.0000 0.0000 0.7686);fill-opacity:1;stroke:black;stroke-opacity:1;" stroke-width="0.659966"/>
<path id="Vector_81" fill-rule="evenodd" clip-rule="evenodd" d="M349.06 336.65C349.375 372.84 364.74 406.37 361.835 413.79C358.545 420.44 349.06 398.6 336.67 410.99C330.475 398.6 329.88 335.67 330.475 336.58L349.06 336.65Z" fill="#0000C4" stroke="black" style="fill:#0000C4;fill:color(display-p3 0.0000 0.0000 0.7686);fill-opacity:1;stroke:black;stroke-opacity:1;" stroke-width="0.659966"/>
<path id="Vector_82" fill-rule="evenodd" clip-rule="evenodd" d="M347.67 331.37C347.67 372.08 361.915 374.794 361.915 385.65C355.72 385.65 347.705 379.716 347.67 380.268C341.475 372.08 340.88 330.726 341.475 331.37H347.67Z" fill="#FFDF00" stroke="black" style="fill:#FFDF00;fill:color(display-p3 1.0000 0.8745 0.0000);fill-opacity:1;stroke:black;stroke-opacity:1;" stroke-width="0.534997"/>
<path id="Vector_83" fill-rule="evenodd" clip-rule="evenodd" d="M360.06 331.37C360.375 355.152 375.39 375.392 372.485 380.268C369.16 384.592 360.06 372.08 347.67 380.268C341.475 372.08 340.88 330.726 341.475 331.37H360.06Z" fill="#FFDF00" stroke="black" style="fill:#FFDF00;fill:color(display-p3 1.0000 0.8745 0.0000);fill-opacity:1;stroke:black;stroke-opacity:1;" stroke-width="0.534997"/>
</g>
<g id="Group_8">
<path id="Vector_84" fill-rule="evenodd" clip-rule="evenodd" d="M241.632 341.56L230.868 349.348L241.632 357.136L247.008 353.242L249.696 357.136L252.384 364.924L255.084 357.136L257.772 353.242H402V345.454H257.76L255.072 341.538C255.072 337.644 255.636 333.75 257.772 333.75H268.524C268.524 329.856 263.148 322.068 252.384 322.068C241.632 322.068 236.244 329.856 236.244 333.75H247.008C249.132 333.75 249.696 337.644 249.696 341.56L247.008 345.454L241.632 341.56Z" fill="#908F8A" stroke="black" style="fill:#908F8A;fill:color(display-p3 0.5647 0.5608 0.5412);fill-opacity:1;stroke:black;stroke-opacity:1;" stroke-width="0.731164"/>
<g id="Vector_85">
<path fill-rule="evenodd" clip-rule="evenodd" d="M273.204 360.439H367.48V365.218H273.232L273.204 360.439ZM273.204 355.633H367.48V360.439H273.232L273.204 355.633ZM273.204 350.854H367.48V355.66H273.232L273.204 350.854ZM273.204 346.075H367.48V350.854H273.232L273.204 346.075ZM273.204 341.296H367.48V346.075H273.232L273.204 341.296ZM273.204 336.49H367.48V341.296H273.232L273.204 336.49ZM273.204 331.738H367.48V336.49H273.232L273.204 331.738Z" fill="#B74D00" style="fill:#B74D00;fill:color(display-p3 0.7176 0.3020 0.0000);fill-opacity:1;"/>
<path d="M367.48 360.439H273.204L273.232 365.218H367.48V360.439ZM367.48 360.439V355.633H273.204L273.232 360.439H367.48ZM367.48 350.854H273.204L273.232 355.66H367.48V350.854ZM367.48 350.854V346.075M367.48 350.854H273.232L273.204 346.075H367.48M367.48 346.075V341.296M367.48 346.075H273.232L273.204 341.296H367.48M367.48 341.296V336.49M367.48 341.296H273.232L273.204 336.49H367.48M367.48 336.49V331.738H273.204L273.232 336.49H367.48Z" stroke="black" style="stroke:black;stroke-opacity:1;" stroke-width="0.494918"/>
</g>
<path id="Vector_86" fill-rule="evenodd" clip-rule="evenodd" d="M277.7 331.454L312.15 364.934H317.075L282.65 331.481H277.725L277.7 331.454Z" fill="#908F8A" stroke="black" style="fill:#908F8A;fill:color(display-p3 0.5647 0.5608 0.5412);fill-opacity:1;stroke:black;stroke-opacity:1;" stroke-width="0.857365"/>
<path id="Vector_87" fill-rule="evenodd" clip-rule="evenodd" d="M277.7 365.946L312.15 332.466H317.075L282.65 365.919H277.725L277.7 365.946Z" fill="#908F8A" stroke="black" style="fill:#908F8A;fill:color(display-p3 0.5647 0.5608 0.5412);fill-opacity:1;stroke:black;stroke-opacity:1;" stroke-width="0.857365"/>
<path id="Vector_88" fill-rule="evenodd" clip-rule="evenodd" d="M278.656 331.454V364.934H283.612V331.454H278.656Z" fill="#908F8A" stroke="black" style="fill:#908F8A;fill:color(display-p3 0.5647 0.5608 0.5412);fill-opacity:1;stroke:black;stroke-opacity:1;" stroke-width="0.852359"/>
<path id="Vector_89" fill-rule="evenodd" clip-rule="evenodd" d="M322 331.454L356.45 364.934H361.375L326.95 331.481H322.025L322 331.454Z" fill="#908F8A" stroke="black" style="fill:#908F8A;fill:color(display-p3 0.5647 0.5608 0.5412);fill-opacity:1;stroke:black;stroke-opacity:1;" stroke-width="0.857365"/>
<path id="Vector_90" fill-rule="evenodd" clip-rule="evenodd" d="M322 365.946L356.45 332.466H361.375L326.95 365.919H322.025L322 365.946Z" fill="#908F8A" stroke="black" style="fill:#908F8A;fill:color(display-p3 0.5647 0.5608 0.5412);fill-opacity:1;stroke:black;stroke-opacity:1;" stroke-width="0.857365"/>
<path id="Vector_91" fill-rule="evenodd" clip-rule="evenodd" d="M357.456 331.454V364.934H362.412V331.454H357.456Z" fill="#908F8A" stroke="black" style="fill:#908F8A;fill:color(display-p3 0.5647 0.5608 0.5412);fill-opacity:1;stroke:black;stroke-opacity:1;" stroke-width="0.852359"/>
<path id="Vector_92" fill-rule="evenodd" clip-rule="evenodd" d="M323.056 331.454V364.934H328.012V331.454H323.056Z" fill="#908F8A" stroke="black" style="fill:#908F8A;fill:color(display-p3 0.5647 0.5608 0.5412);fill-opacity:1;stroke:black;stroke-opacity:1;" stroke-width="0.852359"/>
<path id="Vector_93" fill-rule="evenodd" clip-rule="evenodd" d="M313.056 331.454V364.934H318.012V331.454H313.056Z" fill="#908F8A" stroke="black" style="fill:#908F8A;fill:color(display-p3 0.5647 0.5608 0.5412);fill-opacity:1;stroke:black;stroke-opacity:1;" stroke-width="0.852359"/>
</g>
<g id="Group_9">
<path id="Vector_94" fill-rule="evenodd" clip-rule="evenodd" d="M389.79 235.878C389.79 290.438 357.542 334.706 317.87 334.706C278.198 334.706 245.95 290.438 245.95 235.878C245.95 181.318 278.14 136.988 317.87 136.988C357.6 136.988 389.79 181.256 389.79 235.816V235.878ZM379.524 235.878C379.524 284.362 351.916 323.732 317.87 323.732C283.824 323.732 256.216 284.362 256.216 235.878C256.216 187.332 283.824 147.962 317.87 147.962C351.916 147.962 379.524 187.332 379.524 235.878Z" fill="#FFDF00" stroke="black" style="fill:#FFDF00;fill:color(display-p3 1.0000 0.8745 0.0000);fill-opacity:1;stroke:black;stroke-opacity:1;" stroke-width="0.799555"/>
<path id="Vector_95" fill-rule="evenodd" clip-rule="evenodd" d="M345.884 144.8C337.242 139.778 327.788 136.988 317.87 136.988C307.952 136.988 298.498 139.778 289.856 144.738L293.916 154.906C301.214 150.424 309.483 148.065 317.899 148.065C326.316 148.065 334.585 150.424 341.882 154.906L345.884 144.8Z" fill="#FFDF00" stroke="black" style="fill:#FFDF00;fill:color(display-p3 1.0000 0.8745 0.0000);fill-opacity:1;stroke:black;stroke-opacity:1;" stroke-width="0.799555"/>
<path id="Vector_96" fill-rule="evenodd" clip-rule="evenodd" d="M346.084 324.3C337.442 329.322 327.988 332.112 318.07 332.112C308.152 332.112 298.698 329.322 290.056 324.362L294.116 314.194C301.414 318.676 309.683 321.035 318.099 321.035C326.515 321.035 334.785 318.676 342.082 314.194L346.084 324.3Z" fill="#FFDF00" stroke="black" style="fill:#FFDF00;fill:color(display-p3 1.0000 0.8745 0.0000);fill-opacity:1;stroke:black;stroke-opacity:1;" stroke-width="0.799555"/>
</g>
<path id="Vector_97" fill-rule="evenodd" clip-rule="evenodd" d="M379.6 235.9C379.6 284.4 351.9 323.7 317.9 323.7C283.9 323.7 256.3 284.4 256.3 235.9C256.3 187.4 283.9 147.9 317.9 147.9C351.9 147.9 379.6 187.3 379.6 235.9Z" fill="#A7CFFF" style="fill:#A7CFFF;fill:color(display-p3 0.6549 0.8118 1.0000);fill-opacity:1;"/>
<path id="Vector_98" fill-rule="evenodd" clip-rule="evenodd" d="M379.524 235.878C380.162 252.37 376.856 260.43 372.622 277.604C371.52 279.464 366.242 273.574 363.11 270.66C359.978 267.746 358.586 273.264 354.642 268.8C350.756 264.212 348.262 270.04 345.362 266.196C342.462 262.352 315.608 261.856 315.608 261.484C318.276 260.12 331.964 261.608 329.76 254.602C327.266 247.286 311.78 254.354 309.692 245.054C308.242 235.754 278.604 235.382 276.458 233.15C277.328 236.622 299.542 238.11 299.02 247.1C298.498 250.82 277.154 251.874 275.066 254.974C273.326 258.88 291.886 253.92 292.524 258.694C292.524 260.678 289.798 258.694 280.17 261.794C275.298 263.344 289.102 268.18 283.882 270.846C278.662 273.512 267.468 274.69 267.932 275.806C269.672 281.386 293.858 287.958 291.48 288.888C282.896 292.98 278.372 295.646 274.254 298.002C262.192 279.883 255.871 258.113 256.216 235.878C274.602 228.81 270.716 227.322 304.704 227.322C338.692 227.322 349.944 228.748 379.524 235.878Z" fill="#AFFF7B" stroke="black" style="fill:#AFFF7B;fill:color(display-p3 0.6863 1.0000 0.4824);fill-opacity:1;stroke:black;stroke-opacity:1;" stroke-width="0.799555"/>
<path id="Vector_99" fill-rule="evenodd" clip-rule="evenodd" d="M379.524 235.878C374.884 235.878 370.012 237.986 365.024 237.986C360.036 237.986 354.874 235.816 349.654 235.816C344.434 235.816 338.46 238.668 333.124 238.668C327.73 238.668 323.032 235.878 317.638 235.878C312.244 235.878 306.85 237.986 301.514 237.986C296.178 237.986 290.9 235.816 285.738 235.816C280.576 235.816 275.472 237.986 270.542 237.986C265.612 237.986 260.798 235.816 256.216 235.816C256.293 223.664 257.917 212.277 261.088 201.654C276.748 202.894 267.468 191.92 276.748 191.92C279.457 191.763 282.166 192.224 284.696 193.271C287.226 194.319 289.518 195.929 291.422 197.996C292.814 197.996 299.774 190.928 307.604 191.92C315.434 192.912 312.534 208.846 322.916 209.652C328.136 213.868 331.21 216.534 338.402 218.27C348.668 219.262 378.074 216.72 378.248 218.146C379.095 224.013 379.522 229.941 379.524 235.878Z" fill="white" stroke="black" style="fill:white;fill-opacity:1;stroke:black;stroke-opacity:1;" stroke-width="0.799555"/>
<path id="Vector_100" fill-rule="evenodd" clip-rule="evenodd" d="M327.18 287.02C327.18 284.284 329.88 282.46 329.88 278.092C329.88 273.724 327.48 273.628 327.4 269.548C327.36 267.868 329.46 266.188 330.38 265.996C331.3 265.804 332.08 269.548 332.08 270.364C332.08 271.18 331.14 268.348 330.36 268.3C329.58 268.252 327.9 268.588 327.9 269.404C327.9 271.036 330.86 273.052 330.64 278.524C330.42 283.9 328.1 285.532 328.1 287.164C328.1 288.796 329.1 293.308 329.1 293.308C329.1 293.308 327.16 289.708 327.16 286.972L327.18 287.02Z" fill="black" stroke="black" style="fill:black;fill-opacity:1;stroke:black;stroke-opacity:1;" stroke-width="0.413118"/>
<path id="Vector_101" fill-rule="evenodd" clip-rule="evenodd" d="M335.82 286.62C335.82 283.884 333.12 282.06 333.12 277.692C333.12 273.324 335.52 273.228 335.6 269.148C335.8 267.228 333.24 265.98 332.32 265.836C331.4 265.692 330.32 269.676 330.32 270.444C330.32 271.212 331.4 267.948 332.18 267.9C332.96 267.852 335.1 268.188 335.1 269.004C335.1 270.636 332.14 272.652 332.36 278.124C332.58 283.5 334.9 285.132 334.9 286.764C334.9 288.396 333.9 292.908 333.9 292.908C333.9 292.908 335.84 289.308 335.84 286.572L335.82 286.62Z" fill="black" stroke="black" style="fill:black;fill-opacity:1;stroke:black;stroke-opacity:1;" stroke-width="0.413118"/>
<path id="Vector_102" fill-rule="evenodd" clip-rule="evenodd" d="M333 264.9C333 266.2 332.3 267.3 331.5 267.3C330.7 267.3 330.1 266.2 330.1 264.8C330.1 263.4 330.7 262.4 331.5 262.4C332.3 262.4 333 263.5 333 264.9ZM350 273.9H350.4V293.4H349.9L350 273.9ZM354.1 272.3H354.6V292H354.1V272.3Z" fill="black" style="fill:black;fill-opacity:1;"/>
<path id="Vector_103" fill-rule="evenodd" clip-rule="evenodd" d="M352.6 281.2V280.7L356.6 281.4V281.9L352.6 281.2Z" fill="black" style="fill:black;fill-opacity:1;"/>
<path id="Vector_104" fill-rule="evenodd" clip-rule="evenodd" d="M295.434 286.86C295.434 286.86 310.514 293.928 313.82 298.144C317.126 302.36 315.792 302.36 315.792 302.36L349.258 303.786C349.258 301.678 355.174 301.678 356.508 296.718C357.842 291.758 357.842 290.394 357.842 290.394L347.344 293.928L347.924 287.604H338.76L337.426 293.928L317.706 293.246L319.04 276.32L315.096 277.002L314.516 293.122C313.82 293.122 296.072 288.224 295.376 286.86H295.434Z" fill="#B74D00" stroke="black" style="fill:#B74D00;fill:color(display-p3 0.7176 0.3020 0.0000);fill-opacity:1;stroke:black;stroke-opacity:1;" stroke-width="0.799555"/>
<path id="Vector_105" fill-rule="evenodd" clip-rule="evenodd" d="M265.09 185.906C265.09 185.906 286.956 178.962 318.508 179.458C350.06 179.954 371.926 187.394 371.462 187.394C370.998 187.394 365.43 175.986 365.43 175.986C365.43 175.986 343.158 169.476 318.044 168.98C292.988 168.484 271.122 173.94 271.644 174.436L265.09 185.906Z" fill="#FEDE00" stroke="#FEDE00" style="fill:#FEDE00;fill:color(display-p3 0.9961 0.8706 0.0000);fill-opacity:1;stroke:#FEDE00;stroke:color(display-p3 0.9961 0.8706 0.0000);stroke-opacity:1;" stroke-width="0.799555"/>
<path id="Vector_106" fill-rule="evenodd" clip-rule="evenodd" d="M306 169.8L319.6 169.6L319.8 177.5L306.2 177.8L306 169.8ZM274.8 174.1L270 182L286.2 180L284.9 172.3L274.8 174.3V174.1ZM288.5 171.1L302.1 170L302.7 177.8L289.2 179L288.5 171.1ZM337.4 170.4L323.9 169.4L323.4 177.4L336.9 178.2L337.4 170.4ZM366.6 175.4L371.5 185L356.9 181.4L358.5 173.7L366.5 175.3L366.6 175.4ZM354.8 172.4L341.4 170.7L340.4 178.5L353.9 180.3L354.8 172.4Z" fill="#38A9F9" style="fill:#38A9F9;fill:color(display-p3 0.2196 0.6627 0.9765);fill-opacity:1;"/>
<path id="Vector_107" fill-rule="evenodd" clip-rule="evenodd" d="M318.508 190.37L317.058 182L312.65 189.13L314.274 180.76L307.72 185.534L312.128 178.528L304.356 180.264L311.026 175.552L303.196 174.002L311.026 172.39L304.356 167.678L312.128 169.414L307.662 162.408L314.274 167.182L312.65 158.812L317.058 165.942L318.508 157.572L320.016 165.942L324.366 158.812L322.8 167.182L329.354 162.408L324.888 169.414L332.718 167.678L326.048 172.39L333.878 174.002L326.048 175.552L332.718 180.264L324.888 178.528L329.354 185.534L322.8 180.76L324.424 189.13L320.016 182L318.508 190.37Z" fill="#FFDF00" stroke="black" style="fill:#FFDF00;fill:color(display-p3 1.0000 0.8745 0.0000);fill-opacity:1;stroke:black;stroke-opacity:1;" stroke-width="0.799555"/>
<path id="Vector_108" fill-rule="evenodd" clip-rule="evenodd" d="M330.09 168.75C330.09 173.4 326.328 177.15 321.654 177.15C316.98 177.15 313.218 173.4 313.218 168.75C313.218 164.1 316.98 160.3 321.654 160.3C326.328 160.3 330.09 164.1 330.09 168.8V168.75Z" fill="#FFDF00" stroke="black" style="fill:#FFDF00;fill:color(display-p3 1.0000 0.8745 0.0000);fill-opacity:1;stroke:black;stroke-opacity:1;" stroke-width="0.711805"/>
<path id="Vector_109" fill-rule="evenodd" clip-rule="evenodd" d="M320.7 170.6C320.7 171.1 319.4 171.6 317.9 171.6C316.4 171.6 315.1 171.1 315.1 170.6C315.1 170.1 316.3 169.6 317.9 169.6C319.5 169.6 320.7 170 320.7 170.6ZM326.7 170.6C326.567 171.2 325.9 171.533 324.7 171.6C322.9 171.7 322.5 171.1 322.5 170.6C322.5 170.1 323.5 169.6 324.6 169.6C325.7 169.6 326.7 170 326.7 170.6Z" fill="black" style="fill:black;fill-opacity:1;"/>
<path id="Vector_110" d="M320.407 174.048L320.991 174.384C319.587 173.526 320.227 173.844 322.431 176.016C323.69 175.284 323.929 174.618 324.711 173.712" stroke="black" style="stroke:black;stroke-opacity:1;" stroke-width="0.807546"/>
<path id="Vector_111" d="M314.824 178.466L315.288 178.962C314.186 177.722 314.708 178.342 317.144 179.954C319.464 180.264 321.842 179.21 323.234 177.474" stroke="black" style="stroke:black;stroke-opacity:1;" stroke-width="0.799555"/>
<path id="Vector_112" fill-rule="evenodd" clip-rule="evenodd" d="M281.4 194.8C281.4 194.8 282.4 202.8 276.3 212.8C270.2 222.8 271.2 219.2 271.2 219.2C271.2 219.2 274 224.7 273.5 224.7C273 224.7 268.8 219.7 268.8 219.7L263.8 225.2C263.8 225.2 268.4 216.7 267.9 216.7C267.4 216.7 266.5 213.7 266.5 213.7L270.2 212.2C270.2 212.2 275.8 201.8 275.8 202.3C275.8 202.8 259.1 213.7 259.1 213.7L281.4 194.8ZM285.1 197.8C284.6 197.8 287.4 205.8 289.8 209.8C292.1 213.8 292.1 218.7 292.1 218.7L300 222.7L289.8 207.3L296.3 209.7L285.1 197.8ZM285.1 218.7C285.1 218.7 290.7 224.7 291.1 226.7C291.5 228.7 291.6 233.1 291.6 233.1L289.3 228.1L286 232.6C286 232.6 288.4 225.6 287.9 225.1C287.4 224.6 284.2 227.6 284.2 227.6C284.2 227.6 285.6 223.6 285.6 223.2C285.6 222.8 285.6 220.2 285.1 218.7ZM257.2 232.6C259.1 231.1 262.8 230.1 262.8 230.1C262.8 230.1 260.5 234.1 260 234.1C259.5 234.1 258.2 234.1 257.2 232.6ZM321.3 210.8C321.3 210.8 333.4 218.2 333.4 218.7C333.4 219.2 325.5 215.2 325.5 215.2L321.3 210.8ZM299.5 195.3C300.5 195.8 317.2 209.7 316.7 209.7C316.2 209.7 309.3 205.7 309.3 206.3V209.7L305.5 201.8L304.6 204.8L299.5 195.3ZM303.7 217.7L308.3 227.1L313 226.1C313 226.1 304.2 217.7 303.7 217.7ZM318.1 211.7L318.6 220.7C318.6 220.7 321.3 223.2 321.3 222.7C321.3 222.2 318.6 212.2 318.1 211.7Z" fill="#B7E1FF" style="fill:#B7E1FF;fill:color(display-p3 0.7176 0.8824 1.0000);fill-opacity:1;"/>
<path id="Vector_113" fill-rule="evenodd" clip-rule="evenodd" d="M182.6 89.4999C182.6 89.4999 203.6 77.8999 227.5 69.2999C245.084 62.8402 263.228 58.0197 281.7 54.8999C288.7 54.8999 300.9 72.6999 302.9 72.6999C304.9 72.6999 313 67.6999 323.2 67.6999C333.4 67.6999 339.3 75.6999 341.4 75.6999H359.6C361.6 75.6999 353.5 55.8999 359.6 56.8999C362.6 57.3999 388.4 61.3999 412.4 69.0999C436.4 76.8999 470.4 90.6999 470.4 90.6999C470.4 90.6999 414.9 97.9999 400 95.8999C398 96.8999 400 108.9 397 103.6C392.4 102.6 375.3 99.8999 372.3 99.8999C369.3 99.8999 363.6 103.3 355.5 105.3C347.5 107.3 337.3 110.3 337.3 110.3L350.5 131L334.3 139C334.3 139 324.2 115.2 320.1 115.2C316 115.2 314.1 132 309 131C303.9 130 302 115.2 297.9 111.2C293.9 107.3 272.5 105.8 264.4 103.9C256.4 101.9 243.3 100.4 236.2 98.3999C229.1 96.3999 222 103.4 219 103.4C216 103.4 223 97.3999 220 96.3999C217 95.3999 215 99.3999 213 99.3999C211 99.3999 189.7 95.3999 187.7 94.3999C185.7 93.3999 192.7 89.4999 190.7 89.4999H182.6Z" fill="#984000" style="fill:#984000;fill:color(display-p3 0.5961 0.2510 0.0000);fill-opacity:1;"/>
<path id="Vector_114" fill-rule="evenodd" clip-rule="evenodd" d="M333.46 79.6001C333.46 85.1121 328.928 89.5841 323.362 89.5841C317.796 89.5841 313.286 85.1121 313.286 79.6001C313.286 74.0881 317.796 69.6421 323.362 69.6421C328.928 69.6421 333.46 74.1141 333.46 79.6001Z" fill="#808080" stroke="#772600" style="fill:#808080;fill:color(display-p3 0.5020 0.5020 0.5020);fill-opacity:1;stroke:#772600;stroke:color(display-p3 0.4667 0.1490 0.0000);stroke-opacity:1;" stroke-width="0.884911"/>
<path id="Vector_115" fill-rule="evenodd" clip-rule="evenodd" d="M282.269 81.5001C284.078 79.3881 286.319 76.1881 292.178 76.1881C293.528 75.6441 293.528 72.4441 296.66 72.4441C299.792 72.4441 298.901 75.6441 301.169 76.7321C303.41 77.7881 321.851 75.6441 321.851 75.6441C321.851 75.6441 323.633 77.2441 323.633 79.3881C323.633 81.5321 322.283 83.1001 321.851 83.1001C321.419 83.1001 303.41 81.5001 302.06 82.0441C300.71 82.5881 299.819 83.1001 296.66 83.1001C293.501 83.1001 292.61 79.3881 290.369 79.3881C288.128 79.3881 285.887 78.8441 282.269 81.5321V81.5001Z" fill="#984000" stroke="#772600" style="fill:#984000;fill:color(display-p3 0.5961 0.2510 0.0000);fill-opacity:1;stroke:#772600;stroke:color(display-p3 0.4667 0.1490 0.0000);stroke-opacity:1;" stroke-width="1.55788"/>
<path id="Vector_116" d="M337.133 80.3879H344.315C346.907 80.4199 347.798 81.3479 350.174 81.4439H356.465C358.76 81.3479 359.975 80.7079 362.297 80.3879C366.212 80.3239 364.889 79.9719 364.106 77.1879C363.404 75.1079 363.296 74.1159 362.297 72.9319C361.919 70.3719 361.055 69.4759 360.947 66.5319C360.542 64.2919 359.786 62.7879 360.515 60.1319C361.541 61.9559 361.946 62.6919 364.565 62.8199C367.265 62.8199 368.318 62.7239 369.965 63.8759C371.207 65.4439 372.881 64.9319 375.365 64.9319C377.417 65.3799 377.768 66.6279 379.388 67.5879C381.305 68.8679 382.547 69.1879 385.22 69.1879C387.38 69.6679 389.27 70.0199 390.62 70.7879C391.781 72.4199 393.59 72.8359 396.02 72.9319C397.37 72.9319 398.45 72.7719 399.611 72.3879C401.69 72.5159 403.796 72.3879 406.361 72.3879C408.035 74.6919 408.413 75.5559 411.302 75.5879C413.3 77.2519 414.974 77.5079 416.702 78.2439H423.452C425.882 78.4679 426.638 79.6519 428.852 80.3879C430.751 81.4053 432.698 82.2921 434.684 83.0439C436.616 83.4586 438.579 83.6409 440.543 83.5879C442.19 84.6119 444.215 84.6759 445.484 85.6999C447.347 86.1799 449.885 86.7559 451.316 87.2999C453.692 87.6839 454.61 88.5799 456.716 88.8999C458.525 89.5399 456.122 90.0519 454.907 90.4999C452.261 90.4039 452.072 89.2199 449.507 88.8999C448.157 87.9719 446.105 88.0999 444.107 87.2999H443.675C445.457 88.5799 447.185 89.3799 446.375 91.5879C444.08 91.5879 442.217 91.2359 440.084 91.0439C437.816 90.5319 436.79 89.9879 434.252 89.9879C436.79 89.2519 437.438 90.0519 439.193 91.0439C439.841 93.6039 438.437 92.6439 436.034 92.6439C433.982 91.7799 432.74 90.7239 430.202 90.4999H424.802C427.475 90.6279 428.042 91.8119 429.743 93.1879C429.878 94.0199 429.716 93.9559 428.393 94.2439C426.989 92.8039 425.18 92.3239 422.993 91.5879C420.86 91.4919 418.619 91.2679 416.702 90.4999C415.379 90.4039 415.595 88.5479 418.511 91.5879C420.266 92.8039 420.887 93.8279 420.752 94.7879C418.43 94.0839 417.296 92.9959 415.811 92.0999C413.792 91.2673 411.655 90.9087 409.52 91.0439C407.198 90.3079 409.763 89.8919 411.302 92.6439C414.65 95.4599 410.87 94.2439 409.52 93.6999C407.495 93.0279 405.389 92.0359 403.661 91.5879C402.311 91.1079 401.123 90.6599 399.611 90.4999C401.96 90.7559 402.743 91.7479 403.661 93.6999C406.037 95.6199 403.553 94.6919 401.42 94.2439C400.07 92.8359 398.315 92.0999 397.37 90.4999C395.129 89.1879 395.048 87.6199 396.479 91.0439C396.83 92.1319 396.749 94.4999 396.911 94.7879C395.264 92.6439 395.615 92.0999 393.779 92.0999C392.51 91.0759 390.674 90.2759 389.729 88.8999C388.001 88.7079 387.893 87.9719 386.138 87.2999C387.569 89.3159 389.486 91.2999 390.62 93.1879C392.672 94.5319 393.239 95.7479 394.67 96.8999C395.237 98.0839 396.83 99.0439 395.129 97.4439C393.185 95.2039 391.754 94.6599 388.838 93.1879C387.164 91.5879 386.57 90.9479 384.788 89.4439C382.358 88.5159 383.303 88.0039 384.788 91.0439C386.489 92.8999 387.785 94.9479 389.27 96.3879C390.435 98.0359 391.8 99.4702 393.32 100.644C393.725 101.348 394.94 101.476 393.32 101.7C391.97 100.228 389.972 99.2999 388.379 97.9559C386.138 97.2199 385.085 95.8439 383.438 94.2439C382.358 92.3559 380.63 90.9159 379.388 89.4439C376.796 88.2279 379.901 90.5959 380.738 92.0999C381.305 94.0519 382.034 95.6199 382.52 97.4439C383.276 99.2039 380.252 97.0279 379.388 96.3879C377.612 95.024 375.617 94.1089 373.529 93.6999C371.739 93.2754 369.938 92.9232 368.129 92.6439C366.104 92.0039 369.236 94.1799 370.397 96.3879C372.665 98.9159 368.156 96.8359 366.806 96.3879C364.577 95.9391 362.316 95.7568 360.056 95.8439C357.167 96.0359 359.246 96.4839 360.056 97.9559C360.947 98.7879 361.568 100.516 361.406 101.156C359.516 100.836 357.896 100.196 355.547 100.1C353.657 100.836 351.416 100.644 349.256 100.644C349.175 101.988 349.661 100.836 350.606 102.244C352.172 102.98 353.198 103.876 352.874 104.9H339.833C338.402 105.348 340.13 105.124 341.183 107.044C340.589 108.772 339.833 108.1 338.024 108.1C336.809 107.524 334.352 107.268 333.083 106.5C331.814 106.5 331.922 106.116 330.842 105.956C334.622 109.156 332.732 108.356 334.892 110.756C335.243 110.916 336.107 111.3 335.324 111.3M305.651 128.356C305.381 128.356 304.787 126.628 303.869 125.156C303.221 123.236 302.411 124.324 301.601 121.412C301.709 118.404 301.79 117.892 301.601 115.012C299.765 113.476 298.982 113.028 297.551 110.212C295.283 107.972 297.902 104.132 298.334 101.316C296.336 100.804 295.364 104.996 292.313 106.5C290.099 108.26 292.043 102.852 290.963 99.7159C290.234 95.2679 288.047 101.956 287.237 103.844C285.752 105.028 285.293 106.564 283.187 104.356C283.187 102.724 284.51 98.1159 283.943 97.2199C281.837 98.4679 279.083 102.18 276.896 102.756C274.682 102.212 277.355 98.0199 277.355 94.9159C276.545 94.5959 273.386 103.172 272.09 103.236C270.794 103.3 271.361 94.9159 270.74 95.1079C269.795 96.7079 267.878 100.036 266.555 101.188C263.99 100.772 266.933 95.5879 267.311 93.6679C267.743 91.3639 264.908 98.0839 263.396 98.4999C262.289 99.6519 260.102 100.42 259.346 100.644C260.21 98.6599 264.476 94.6599 264.206 93.5079C261.695 93.6039 257.888 97.5079 255.755 97.9879C254.351 97.9879 252.407 98.5319 252.164 98.4999C252.272 95.9399 257.402 93.8279 258.212 92.2599C255.701 92.7399 250.868 95.3639 249.464 97.4439C247.79 97.8599 245.684 98.4039 244.064 97.4439C244.307 95.0439 248.087 90.4039 248.924 88.8679C246.629 90.0519 245.495 90.9799 243.065 91.5239C242.606 92.0679 241.31 93.2199 241.715 92.0679C242.444 89.8279 243.524 88.8679 244.415 87.2679C242.39 87.7159 241.634 89.0919 239.474 90.4679C238.097 90.5319 234.155 95.2359 232.832 95.2999C230.593 97.3929 227.979 98.849 225.191 99.5559C223.139 100.004 222.14 100.516 221.141 101.7C222.167 99.5559 223.733 97.5399 225.191 96.3879C226.084 94.4488 227.515 92.9343 229.241 92.0999C229.754 91.3639 231.158 91.1719 229.673 91.0439C228.404 92.3879 226.244 93.9239 225.191 94.7879C223.814 95.8119 222.221 96.8359 221.573 96.3879C222.302 94.0839 223.598 93.5079 224.732 91.5879C227.108 89.7959 224.732 90.9479 222.923 91.5879C221.762 92.8039 219.683 93.7319 217.982 94.7879C216.092 95.3639 214.823 96.7079 212.582 97.4439C212.582 98.2119 213.23 96.0679 213.5 95.2999C215.336 92.9319 215.822 92.2599 217.982 91.5879C218.522 90.6599 219.17 91.0439 217.55 91.0439C216.308 92.3239 214.634 93.0279 213.041 94.2439C211.448 94.6599 209.369 94.7879 207.209 94.7879C204.401 95.1719 204.644 95.4279 207.209 93.6999C208.64 92.0999 209.828 92.5159 209.909 90.4999C208.208 91.9719 206.129 93.0599 204.05 94.2439C202.322 94.3079 201.863 94.7879 200 94.7879C200.891 93.6999 201.431 92.3239 202.7 91.5879C204.59 89.1239 201.512 91.1079 200.891 91.5879H194.141C192.953 93.3799 194.087 91.5879 195.059 90.4999C196.22 89.7959 197.435 88.8679 197.3 88.3879C195.95 89.7639 194.411 90.4039 193.25 91.5879C192.008 92.0359 190.55 92.2279 190.55 92.6439C191.549 90.9479 193.142 89.8919 194.168 88.3879C195.68 88.0039 196.976 87.4279 197.3 86.7879H191.009H195.491C197.786 86.7879 199.73 86.5319 201.809 86.2439C205.373 85.5399 201.485 85.1879 199.541 85.1879C199.19 84.3559 200.675 83.9079 202.241 83.5879C203.591 82.8199 205.292 82.1479 206.75 81.4439C208.037 80.9804 209.251 80.2667 210.341 79.3319C208.991 79.3959 208.991 79.7799 207.641 79.8439C209.666 79.6839 211.097 79.3319 213.5 79.3319C215.479 78.5587 217.425 77.6723 219.332 76.6759C220.142 75.5239 220.466 75.5879 218.441 75.5879C220.25 74.9159 222.815 74.5639 224.273 73.9879C226.134 73.5259 227.945 72.8174 229.673 71.8759C230.996 70.8199 231.752 69.5719 233.264 68.6759C235.019 70.0839 235.046 70.2759 238.205 70.2759C240.743 70.2439 242.309 69.5079 243.605 68.1319C245.549 67.4919 245.9 66.4039 248.114 66.0199C250.194 66.4073 252.299 66.5786 254.405 66.5319C256.565 65.8599 258.644 64.6119 260.237 63.3319C261.614 62.5319 263.261 61.3799 264.746 60.6759C266.366 61.6679 267.662 62.4679 269.687 62.8199C271.766 62.4359 272.873 61.2199 274.628 60.6759C275.71 59.3105 277.127 58.3816 278.678 58.0199C281.297 56.4839 281.108 58.4999 282.269 60.1319C283.619 61.7959 285.347 60.9959 287.21 61.7319C288.263 63.6519 289.019 64.9319 290.369 65.9879C291.422 67.5239 292.664 67.9079 294.878 68.1319C295.688 69.4119 295.04 70.3079 296.66 70.7879C297.308 71.6199 298.415 71.9399 299.36 72.3879" stroke="#772600" style="stroke:#772600;stroke:color(display-p3 0.4667 0.1490 0.0000);stroke-opacity:1;" stroke-width="1.02879"/>
<path id="Vector_117" d="M331.949 114.756V115.012C331.949 114.276 331.949 114.692 332.408 116.1C332.57 117.252 332.192 117.124 331.733 117.956C331.652 119.14 331.517 120.004 331.517 121.412C331.355 122.564 330.815 123.652 330.383 124.612C329.951 125.604 328.088 126.18 328.142 127.556C327.062 127.908 327.035 127.076 327.008 125.668C326.36 124.804 326.144 123.62 325.658 122.468C325.388 121.38 324.74 120.548 324.308 119.268C323.66 118.084 323.093 117.732 322.526 116.356C322.283 115.716 322.337 114.884 321.851 114.5C321.122 113.38 320.636 113.22 319.367 113.156C318.395 113.412 318.017 113.924 317.126 114.212C316.424 114.5 315.074 114.404 314.21 114.756C313.994 115.172 314.642 115.396 314.885 116.356C314.291 116.932 314.075 117.924 313.751 118.756C313.211 119.556 312.86 119.94 312.617 121.156C312.995 121.892 312.671 122.884 312.185 123.556C312.023 124.772 311.51 125.444 311.267 126.468C310.565 127.076 310.295 127.62 309.701 128.612C309.188 129.476 308.729 129.412 307.46 129.412C306.461 129.092 306.326 128.452 305.435 128.068C305.399 127.791 305.246 127.62 304.976 127.556" stroke="#782600" style="stroke:#782600;stroke:color(display-p3 0.4706 0.1490 0.0000);stroke-opacity:1;" stroke-width="0.91121"/>
<path id="Vector_118" fill-rule="evenodd" clip-rule="evenodd" d="M307.6 125.5C307.6 125.5 307.2 130.5 304 133.8C300.8 137.1 294.2 140.9 294.2 140.9C294.2 140.9 303.1 136.7 304 137.6C304.9 138.5 298.3 145.9 298.3 145.9C298.3 145.9 307 138.2 308.1 138.2C309.2 138.2 311.7 145.7 312.7 145.5C313.7 145.3 310.7 136 311.1 134.5C311.5 133.1 311.1 125.2 311.1 125.2L307.7 125.5H307.6ZM328.1 124.9C328.1 124.9 327.7 130.2 324.5 133.7C321.3 137.2 314.7 141.3 314.7 141.3C314.7 141.3 323.6 136.8 324.5 137.8C325.4 138.8 318.8 146.6 318.8 146.6C318.8 146.6 327.5 138.4 328.6 138.4C329.7 138.4 332.2 146.4 333.2 146.2C334.2 146 331.2 136 331.6 134.5C332 132.9 331.6 124.5 331.6 124.5L328.1 124.9ZM299.4 76.9C299.4 77.8 298.4 78.6 297.3 78.6C296.2 78.6 295.1 77.8 295.1 76.8C295.1 75.8 296.1 75 297.3 75C298.5 75 299.4 75.8 299.4 76.8V76.9Z" fill="#812E00" style="fill:#812E00;fill:color(display-p3 0.5059 0.1804 0.0000);fill-opacity:1;"/>
</g>
<defs>
<clipPath id="clip0_2194_2557">
<rect width="640" height="480" fill="white" style="fill:white;fill-opacity:1;"/>
</clipPath>
</defs>
</svg>
