<svg width="640" height="480" viewBox="0 0 640 480" fill="none" xmlns="http://www.w3.org/2000/svg">
<g id="eh" clip-path="url(#clip0_2194_2725)">
<g id="Clip path group">
<mask id="mask0_2194_2725" style="mask-type:luminance" maskUnits="userSpaceOnUse" x="-1" y="0" width="643" height="482">
<g id="eh-a">
<path id="Vector" d="M-0.37793 0H641.36V481.28H-0.37793V0Z" fill="white" style="fill:white;fill-opacity:1;"/>
</g>
</mask>
<g mask="url(#mask0_2194_2725)">
<g id="Group">
<path id="Vector_2" fill-rule="evenodd" clip-rule="evenodd" d="M-0.00195312 0H640.044V239.982H-0.00195312V0Z" fill="#000001" style="fill:#000001;fill:color(display-p3 0.0000 0.0000 0.0039);fill-opacity:1;"/>
<path id="Vector_3" fill-rule="evenodd" clip-rule="evenodd" d="M-0.00195312 239.982H640.044V479.964H-0.00195312V239.982Z" fill="#007A3D" style="fill:#007A3D;fill:color(display-p3 0.0000 0.4784 0.2392);fill-opacity:1;"/>
<path id="Vector_4" fill-rule="evenodd" clip-rule="evenodd" d="M-0.00195312 139.966H640.044V339.998H-0.00195312V139.966Z" fill="white" style="fill:white;fill-opacity:1;"/>
<path id="Vector_5" fill-rule="evenodd" clip-rule="evenodd" d="M-0.00195312 0L319.974 239.982L-0.00195312 479.964V0Z" fill="#C4111B" style="fill:#C4111B;fill:color(display-p3 0.7686 0.0667 0.1059);fill-opacity:1;"/>
<path id="Vector_6" d="M479.962 303.996C515.316 303.996 543.976 275.336 543.976 239.982C543.976 204.628 515.316 175.968 479.962 175.968C444.608 175.968 415.948 204.628 415.948 239.982C415.948 275.336 444.608 303.996 479.962 303.996Z" fill="#C4111B" style="fill:#C4111B;fill:color(display-p3 0.7686 0.0667 0.1059);fill-opacity:1;"/>
<path id="Vector_7" d="M504.026 303.996C539.38 303.996 568.04 275.336 568.04 239.982C568.04 204.628 539.38 175.968 504.026 175.968C468.672 175.968 440.012 204.628 440.012 239.982C440.012 275.336 468.672 303.996 504.026 303.996Z" fill="white" style="fill:white;fill-opacity:1;"/>
<path id="Vector_8" fill-rule="evenodd" clip-rule="evenodd" d="M462.76 278.71L490.114 259.252L517.186 278.992L507.034 247.032L534.294 227.386L500.736 227.198L490.396 195.238L479.868 227.104L446.31 226.916L473.288 246.844L462.854 278.804L462.76 278.71Z" fill="#C4111B" style="fill:#C4111B;fill:color(display-p3 0.7686 0.0667 0.1059);fill-opacity:1;"/>
</g>
</g>
</g>
</g>
<defs>
<clipPath id="clip0_2194_2725">
<rect width="640" height="480" fill="white" style="fill:white;fill-opacity:1;"/>
</clipPath>
</defs>
</svg>
