<svg width="640" height="480" viewBox="0 0 640 480" fill="none" xmlns="http://www.w3.org/2000/svg">
<g id="et" clip-path="url(#clip0_2194_3477)">
<g id="Clip path group">
<mask id="mask0_2194_3477" style="mask-type:luminance" maskUnits="userSpaceOnUse" x="-1" y="0" width="643" height="482">
<g id="et-a">
<path id="Vector" d="M-0.12207 0H641.616V481.28H-0.12207V0Z" fill="white" style="fill:white;fill-opacity:1;"/>
</g>
</mask>
<g mask="url(#mask0_2194_3477)">
<g id="Group">
<path id="Vector_2" fill-rule="evenodd" clip-rule="evenodd" d="M-166.22 3.29004H809.5V471.41H-166.22V3.29004Z" fill="#FFC621" style="fill:#FFC621;fill:color(display-p3 1.0000 0.7765 0.1294);fill-opacity:1;"/>
<path id="Vector_3" fill-rule="evenodd" clip-rule="evenodd" d="M-168.1 321.95H808.842V481.28H-168.1V321.95Z" fill="#EF2118" style="fill:#EF2118;fill:color(display-p3 0.9373 0.1294 0.0941);fill-opacity:1;"/>
<path id="Vector_4" fill-rule="evenodd" clip-rule="evenodd" d="M-166.22 0H809.5V169.2H-166.22V0Z" fill="#298C08" style="fill:#298C08;fill:color(display-p3 0.1608 0.5490 0.0314);fill-opacity:1;"/>
<path id="Vector_5" d="M304.408 350.111C360.392 350.111 405.775 304.727 405.775 248.743C405.775 192.759 360.392 147.375 304.408 147.375C248.424 147.375 203.04 192.759 203.04 248.743C203.04 304.727 248.424 350.111 304.408 350.111Z" fill="#006BC6" style="fill:#006BC6;fill:color(display-p3 0.0000 0.4196 0.7765);fill-opacity:1;"/>
<path id="Vector_6" fill-rule="evenodd" clip-rule="evenodd" d="M258.942 176.908L252.832 181.138L274.922 212.158L280.844 208.398L258.942 176.908ZM286.578 250.228L277.46 243.836L281.22 231.898L236.006 232.556L222.846 222.498L284.604 221.84L296.072 187.154L302.276 201.254L286.578 250.228ZM358.488 183.77L352.566 179.258L329.724 209.714L334.988 214.132L358.488 183.77ZM297.012 232.18L300.302 221.652H312.804L298.516 178.6L304.156 163.09L323.426 221.746L359.898 222.216L348.43 232.274L297.012 232.18ZM382.176 280.308L384.714 273.352L348.712 260.85L346.08 267.43L382.176 280.308ZM317.222 236.692L328.22 236.598L332.074 248.442L368.546 221.652L385.09 222.216L335.176 258.594L345.986 293.562L332.826 285.666L317.222 236.692ZM298.61 332.572L306.036 332.76L306.318 294.69L299.362 294.22L298.61 332.572ZM319.29 257.09L322.862 267.524L312.804 275.044L349.84 301.082L354.54 316.874L304.156 281.154L274.546 302.492L277.836 287.452L319.196 257.09H319.29ZM222.188 269.31L224.35 276.36L260.728 264.892L258.848 258.124L222.188 269.31ZM300.396 265.55L291.56 272.224L281.408 264.986L268.06 308.226L254.524 317.626L272.854 258.688L243.338 237.068L258.66 235.564L300.396 265.55Z" fill="#FFC621" style="fill:#FFC621;fill:color(display-p3 1.0000 0.7765 0.1294);fill-opacity:1;"/>
</g>
</g>
</g>
</g>
<defs>
<clipPath id="clip0_2194_3477">
<rect width="640" height="480" fill="white" style="fill:white;fill-opacity:1;"/>
</clipPath>
</defs>
</svg>
