<svg width="640" height="480" viewBox="0 0 640 480" fill="none" xmlns="http://www.w3.org/2000/svg">
<g id="fm" clip-path="url(#clip0_2194_3893)">
<g id="Clip path group">
<mask id="mask0_2194_3893" style="mask-type:luminance" maskUnits="userSpaceOnUse" x="-1" y="0" width="643" height="482">
<g id="fm-a">
<path id="Vector" d="M-0.121948 0H641.522V481.28H-0.121948V0Z" fill="white" style="fill:white;fill-opacity:1;"/>
</g>
</mask>
<g mask="url(#mask0_2194_3893)">
<g id="Group">
<path id="Vector_2" fill-rule="evenodd" clip-rule="evenodd" d="M-160.58 0H801.98V481.28H-160.58V0Z" fill="#6797D6" style="fill:#6797D6;fill:color(display-p3 0.4039 0.5922 0.8392);fill-opacity:1;"/>
<path id="Vector_3" fill-rule="evenodd" clip-rule="evenodd" d="M320.512 115.62L290.056 136.488L301.712 102.742L271.162 81.8741H308.856L320.512 48.1281L332.168 81.9681H369.768L339.312 102.742L350.968 136.488M320.512 366.6L290.056 345.732L301.712 379.572L271.162 400.346H308.856L320.512 434.092L332.168 400.252L369.768 400.346L339.312 379.478L350.968 345.732M173.872 258.876L150.842 287.64L152.158 251.92L116.908 240.922L153.004 229.924L154.226 194.204L175.188 223.156L211.284 212.064L188.16 240.922L209.216 269.78M466.964 258.782L490.088 287.64L488.772 251.92L524.022 240.922L487.926 229.924L486.704 194.204L465.742 223.156L429.646 212.064L452.77 240.922L431.714 269.78" fill="white" style="fill:white;fill-opacity:1;"/>
</g>
</g>
</g>
</g>
<defs>
<clipPath id="clip0_2194_3893">
<rect width="640" height="480" fill="white" style="fill:white;fill-opacity:1;"/>
</clipPath>
</defs>
</svg>
