<svg width="640" height="480" viewBox="0 0 640 480" fill="none" xmlns="http://www.w3.org/2000/svg">
<g id="gb-nir" clip-path="url(#clip0_2194_3921)">
<path id="Vector" d="M0 0H640V480H0V0Z" fill="white" style="fill:white;fill-opacity:1;"/>
<path id="gb-nir-a" d="M640 192H0V288H640V192Z" fill="#CC0000" style="fill:#CC0000;fill:color(display-p3 0.8000 0.0000 0.0000);fill-opacity:1;"/>
<path id="gb-nir-a_2" d="M368 480V0H272V480H368Z" fill="#CC0000" style="fill:#CC0000;fill:color(display-p3 0.8000 0.0000 0.0000);fill-opacity:1;"/>
<path id="Vector_2" fill-rule="evenodd" clip-rule="evenodd" d="M355.2 146.6C358.2 141.8 356.4 138.6 351.8 137.7C351.8 137.7 336.9 142.5 320.8 143C304.8 143.5 285.8 139 285.8 139C282.3 141.1 283.1 146.2 284.8 149.4C284.8 149.4 301.6 155 320.8 154.4C331.039 153.965 341.169 152.114 350.9 148.9C354.6 147.7 355.2 146.7 355.2 146.6Z" fill="#EBEAE3" stroke="black" style="fill:#EBEAE3;fill:color(display-p3 0.9216 0.9176 0.8902);fill-opacity:1;stroke:black;stroke-opacity:1;" stroke-width="0.5"/>
<path id="Vector_3" d="M320 357.6L289.1 293.4L218.2 298.8L258.2 240L218.2 181.2L289.2 186.6L320 122.5L350.9 186.5L421.8 181.2L381.8 240L421.8 298.8L350.8 293.4L320 357.6Z" fill="white" stroke="#161111" style="fill:white;fill-opacity:1;stroke:#161111;stroke:color(display-p3 0.0863 0.0667 0.0667);stroke-opacity:1;" stroke-width="1.6"/>
<path id="Vector_4" fill-rule="evenodd" clip-rule="evenodd" d="M319.5 122.2C358.3 128.6 356.9 130.4 356.9 130.4L367 100.2C367 100.2 368.1 94.2 365.3 90.6C362.5 87 354.8 89 354.8 89C354.8 89 353.8 84.1 350.3 83C346.9 81.8 334.3 87.5 330.3 88.8C326.3 90.1 324.3 91.3 318.8 91.2C313.3 91.2 303.4 86.2 301.5 85.2C299.8 84.3 297.1 83.4 294.6 83.5C292.2 83.5 289.6 84.2 288.3 85.9C287 87.6 287.1 89.8 287.1 89.8C287.1 89.8 285.1 88.5 281.9 88.5C278.7 88.5 276.9 88.9 275.4 90.6C273.9 92.3 272 97.1 272 97.1L275.6 105.3L275.8 116.6L283.3 128.6L319.5 122.2Z" fill="#B02320" stroke="black" style="fill:#B02320;fill:color(display-p3 0.6902 0.1373 0.1255);fill-opacity:1;stroke:black;stroke-opacity:1;" stroke-width="1.3"/>
<path id="Vector_5" fill-rule="evenodd" clip-rule="evenodd" d="M355.7 139.3C355.7 139.3 357.7 141.6 357.6 142.5C357.5 143.3 356.6 144 356.6 144C356.6 144 357.3 144.6 357.1 145.5C356.9 146.4 355.7 146.5 355.7 146.5C355.7 146.5 356 147.3 355.2 147.7C354.5 148.1 351.4 148.7 351.4 148.7C351.4 148.7 336.4 144.5 320.4 144.5C304.4 144.5 285.4 149.7 285.4 149.7C285.4 149.7 283.4 149 283.4 147.7C283.2 146.5 283.5 145.6 283.5 145.6C283.5 145.6 282.5 145.6 282.2 144.7C281.8 143.4 282.3 142.4 282.3 142.4C282.3 142.4 281.6 142.6 282.4 140.9C283 139.6 283.9 139.2 283.9 139.2C283.9 139.2 300.7 133.2 319.9 133.1C339.1 133 355.7 139.1 355.7 139.3Z" fill="#EBEAE3" stroke="black" style="fill:#EBEAE3;fill:color(display-p3 0.9216 0.9176 0.8902);fill-opacity:1;stroke:black;stroke-opacity:1;" stroke-width="0.5"/>
<path id="Vector_6" d="M276.2 101.5C276.2 101.5 275.6 99.3 277 97.4C277.517 96.6781 278.259 96.1487 279.11 95.8952C279.961 95.6417 280.872 95.6786 281.7 96C282.5 96.4 282.4 97.3 283.4 97.5C284.4 97.8 285.2 97 285.2 97" stroke="black" style="stroke:black;stroke-opacity:1;" stroke-width="1.1"/>
<path id="Vector_7" fill-rule="evenodd" clip-rule="evenodd" d="M369.8 106.6L364 118.6L361.7 119C361.7 119 360.3 118.2 356.3 118.5C353.5 118.7 352.6 119.5 352.6 119.5L357.8 107.5C357.8 107.5 358.2 110 358.8 111.5C359.6 113.5 362.5 115.2 362.5 115.2C362.5 115.2 362.9 112.9 362.1 110.2C361.338 107.704 360.402 105.265 359.3 102.9L369.8 106.6Z" fill="#FFCC00" fill-opacity="0.9" stroke="black" style="fill:#FFCC00;fill:color(display-p3 1.0000 0.8000 0.0000);fill-opacity:0.9;stroke:black;stroke-opacity:1;" stroke-width="1.2"/>
<path id="Vector_8" d="M316.5 69.2H323V96.9H316.5V69.2Z" fill="#121116" stroke="#121116" style="fill:#121116;fill:color(display-p3 0.0706 0.0667 0.0863);fill-opacity:1;stroke:#121116;stroke:color(display-p3 0.0706 0.0667 0.0863);stroke-opacity:1;" stroke-width="1.2" stroke-linejoin="round"/>
<path id="Vector_9" fill-rule="evenodd" clip-rule="evenodd" d="M276.6 120.2L280.7 129.2C280.7 129.2 298.6 122.2 319.6 122.4C351.1 122.6 360.1 128.9 360.1 128.9L364.7 117.8L361.2 119.8L357.6 122.1L353.6 123.6L348.6 123.3L344.2 120.1L342 115.4L338.3 118.8L331.7 120.2L325.3 118.6L319.7 111.5C319.7 111.5 315.5 119.4 310.1 119.9C302.4 120.5 298 116.2 298 116.2C298 116.2 295.1 122.6 290.4 123.7C282.9 125.6 276.7 120.2 276.6 120.2Z" fill="#F6CA1F" stroke="black" style="fill:#F6CA1F;fill:color(display-p3 0.9647 0.7922 0.1216);fill-opacity:1;stroke:black;stroke-opacity:1;"/>
<g id="Group">
<g id="Vector_10">
<path d="M348.4 65.7001C348.4 67.5001 347 69.1001 345.1 69.1001C344.654 69.1001 344.212 69.0121 343.799 68.8413C343.387 68.6704 343.012 68.42 342.696 68.1042C342.38 67.7885 342.13 67.4137 341.959 67.0012C341.788 66.5887 341.7 66.1466 341.7 65.7001C341.687 65.2452 341.765 64.7923 341.93 64.3682C342.095 63.9441 342.343 63.5574 342.66 63.231C342.977 62.9046 343.356 62.6452 343.776 62.4681C344.195 62.291 344.645 62.1999 345.1 62.2001C345.984 62.2261 346.824 62.5958 347.44 63.2306C348.056 63.8654 348.401 64.7154 348.4 65.6001" fill="#EEEEEE" style="fill:#EEEEEE;fill:color(display-p3 0.9333 0.9333 0.9333);fill-opacity:1;"/>
<path d="M348.4 65.7001C348.4 67.5001 347 69.1001 345.1 69.1001C344.654 69.1001 344.212 69.0121 343.799 68.8413C343.387 68.6704 343.012 68.42 342.696 68.1042C342.38 67.7885 342.13 67.4137 341.959 67.0012C341.788 66.5887 341.7 66.1466 341.7 65.7001C341.687 65.2452 341.765 64.7923 341.93 64.3682C342.095 63.9441 342.343 63.5574 342.66 63.231C342.977 62.9046 343.356 62.6452 343.776 62.4681C344.195 62.291 344.645 62.1999 345.1 62.2001C345.984 62.2261 346.824 62.5958 347.44 63.2306C348.056 63.8654 348.401 64.7154 348.4 65.6001" stroke="#1E1E1E" style="stroke:#1E1E1E;stroke:color(display-p3 0.1176 0.1176 0.1176);stroke-opacity:1;" stroke-width="1.2" stroke-linejoin="round"/>
</g>
<path id="Vector_11" fill-rule="evenodd" clip-rule="evenodd" d="M343.5 67.4001C343.5 67.4001 346.2 67.4001 346.5 66.3001C346.8 65.2001 346.3 63.7001 346.3 63.7001C346.3 63.7001 347.6 65.1001 347.3 66.2001C346.967 67.1334 346.4 67.7001 345.6 67.9001C344.895 67.9749 344.187 67.7978 343.6 67.4001H343.5Z" fill="#A3AFB8" style="fill:#A3AFB8;fill:color(display-p3 0.6392 0.6863 0.7216);fill-opacity:1;"/>
<g id="Vector_12">
<path d="M340.3 69.5001C340.3 71.3001 338.8 72.9001 336.9 72.9001C336.454 72.9001 336.011 72.8121 335.599 72.6412C335.186 72.4704 334.812 72.2199 334.496 71.9042C334.18 71.5885 333.93 71.2137 333.759 70.8012C333.588 70.3887 333.5 69.9465 333.5 69.5001C333.486 69.0367 333.567 68.5754 333.738 68.1445C333.909 67.7136 334.167 67.3222 334.494 66.9944C334.822 66.6666 335.214 66.4093 335.644 66.2383C336.075 66.0673 336.537 65.9862 337 66.0001C337.885 65.9997 338.735 66.3441 339.37 66.9603C340.004 67.5764 340.374 68.4158 340.4 69.3001" fill="#EEEEEE" style="fill:#EEEEEE;fill:color(display-p3 0.9333 0.9333 0.9333);fill-opacity:1;"/>
<path d="M340.3 69.5001C340.3 71.3001 338.8 72.9001 336.9 72.9001C336.454 72.9001 336.011 72.8121 335.599 72.6412C335.186 72.4704 334.812 72.2199 334.496 71.9042C334.18 71.5885 333.93 71.2137 333.759 70.8012C333.588 70.3887 333.5 69.9465 333.5 69.5001C333.486 69.0367 333.567 68.5754 333.738 68.1445C333.909 67.7136 334.167 67.3222 334.494 66.9944C334.822 66.6666 335.214 66.4093 335.644 66.2383C336.075 66.0673 336.537 65.9862 337 66.0001C337.885 65.9997 338.735 66.3441 339.37 66.9603C340.004 67.5764 340.374 68.4158 340.4 69.3001" stroke="#1E1E1E" style="stroke:#1E1E1E;stroke:color(display-p3 0.1176 0.1176 0.1176);stroke-opacity:1;" stroke-width="1.2" stroke-linejoin="round"/>
</g>
<path id="Vector_13" fill-rule="evenodd" clip-rule="evenodd" d="M335.3 71.2C335.3 71.2 338.1 71.2 338.3 70.1C338.5 69 338.1 67.5 338.1 67.5C338.1 67.5 339.4 69 339.1 70.1C338.767 71.0333 338.2 71.5667 337.4 71.7C336.695 71.7748 335.987 71.5977 335.4 71.2H335.3Z" fill="#A3AFB8" style="fill:#A3AFB8;fill:color(display-p3 0.6392 0.6863 0.7216);fill-opacity:1;"/>
<g id="Vector_14">
<path d="M358 63.4C358 65.3 356.4 66.8 354.6 66.8C353.698 66.8 352.834 66.4418 352.196 65.8042C351.558 65.1665 351.2 64.3017 351.2 63.4C351.2 62.5153 351.544 61.6653 352.16 61.0305C352.777 60.3957 353.616 60.026 354.5 60C355.402 60 356.267 60.3582 356.904 60.9958C357.542 61.6335 357.9 62.4983 357.9 63.4" fill="#EEEEEE" style="fill:#EEEEEE;fill:color(display-p3 0.9333 0.9333 0.9333);fill-opacity:1;"/>
<path d="M358 63.4C358 65.3 356.4 66.8 354.6 66.8C353.698 66.8 352.834 66.4418 352.196 65.8042C351.558 65.1665 351.2 64.3017 351.2 63.4C351.2 62.5153 351.544 61.6653 352.16 61.0305C352.777 60.3957 353.616 60.026 354.5 60C355.402 60 356.267 60.3582 356.904 60.9958C357.542 61.6335 357.9 62.4983 357.9 63.4" stroke="#1E1E1E" style="stroke:#1E1E1E;stroke:color(display-p3 0.1176 0.1176 0.1176);stroke-opacity:1;" stroke-width="1.2" stroke-linejoin="round"/>
</g>
<path id="Vector_15" fill-rule="evenodd" clip-rule="evenodd" d="M353 65.2C353 65.2 355.7 65.2 356 64C356.3 62.8 355.8 61.5 355.8 61.5C355.8 61.5 357.1 62.9 356.8 64C356.467 65 355.9 65.5333 355.1 65.6C354.407 65.7043 353.699 65.5628 353.1 65.2H353Z" fill="#A3AFB8" style="fill:#A3AFB8;fill:color(display-p3 0.6392 0.6863 0.7216);fill-opacity:1;"/>
<g id="Vector_16">
<path d="M368.6 65.6001C368.6 67.4001 367.1 69.0001 365.3 69.0001C364.399 69.0001 363.534 68.6419 362.896 68.0042C362.259 67.3666 361.9 66.5018 361.9 65.6001C361.9 64.6983 362.259 63.8335 362.896 63.1959C363.534 62.5583 364.399 62.2001 365.3 62.2001C366.168 62.2252 366.992 62.581 367.606 63.1945C368.219 63.808 368.575 64.6328 368.6 65.5001" fill="#EEEEEE" style="fill:#EEEEEE;fill:color(display-p3 0.9333 0.9333 0.9333);fill-opacity:1;"/>
<path d="M368.6 65.6001C368.6 67.4001 367.1 69.0001 365.3 69.0001C364.399 69.0001 363.534 68.6419 362.896 68.0042C362.259 67.3666 361.9 66.5018 361.9 65.6001C361.9 64.6983 362.259 63.8335 362.896 63.1959C363.534 62.5583 364.399 62.2001 365.3 62.2001C366.168 62.2252 366.992 62.581 367.606 63.1945C368.219 63.808 368.575 64.6328 368.6 65.5001" stroke="#1E1E1E" style="stroke:#1E1E1E;stroke:color(display-p3 0.1176 0.1176 0.1176);stroke-opacity:1;" stroke-width="1.2" stroke-linejoin="round"/>
</g>
<path id="Vector_17" fill-rule="evenodd" clip-rule="evenodd" d="M363.7 67.3001C363.7 67.3001 366.4 67.3001 366.7 66.2001C367 65.1001 366.5 63.6001 366.5 63.6001C366.5 63.6001 367.8 65.0001 367.5 66.2001C367.167 67.0668 366.6 67.6001 365.8 67.8001C365.062 67.8998 364.314 67.7216 363.7 67.3001Z" fill="#A3AFB8" style="fill:#A3AFB8;fill:color(display-p3 0.6392 0.6863 0.7216);fill-opacity:1;"/>
<g id="Vector_18">
<path d="M376.8 72.3C376.8 74.1 375.3 75.7 373.4 75.7C372.498 75.7 371.633 75.3418 370.996 74.7042C370.358 74.0666 370 73.2018 370 72.3C370 71.3983 370.358 70.5335 370.996 69.8959C371.633 69.2582 372.498 68.9 373.4 68.9C374.285 68.8996 375.135 69.2441 375.77 69.8602C376.404 70.4764 376.774 71.3157 376.8 72.2" fill="#EEEEEE" style="fill:#EEEEEE;fill:color(display-p3 0.9333 0.9333 0.9333);fill-opacity:1;"/>
<path d="M376.8 72.3C376.8 74.1 375.3 75.7 373.4 75.7C372.498 75.7 371.633 75.3418 370.996 74.7042C370.358 74.0666 370 73.2018 370 72.3C370 71.3983 370.358 70.5335 370.996 69.8959C371.633 69.2582 372.498 68.9 373.4 68.9C374.285 68.8996 375.135 69.2441 375.77 69.8602C376.404 70.4764 376.774 71.3157 376.8 72.2" stroke="#1E1E1E" style="stroke:#1E1E1E;stroke:color(display-p3 0.1176 0.1176 0.1176);stroke-opacity:1;" stroke-width="1.2" stroke-linejoin="round"/>
</g>
<path id="Vector_19" fill-rule="evenodd" clip-rule="evenodd" d="M371.9 74C371.9 74 374.6 74 374.9 72.9C375.2 71.8 374.7 70.3 374.7 70.3C374.7 70.3 376 71.8 375.6 72.9C375.334 73.8334 374.767 74.3667 373.9 74.5C373.234 74.5667 372.567 74.4 371.9 74Z" fill="#A3AFB8" style="fill:#A3AFB8;fill:color(display-p3 0.6392 0.6863 0.7216);fill-opacity:1;"/>
<path id="Vector_20" d="M380.3 83.3C380.3 85.2 378.8 86.7 376.9 86.7C376.016 86.674 375.176 86.3043 374.56 85.6695C373.944 85.0347 373.6 84.1847 373.6 83.3C373.6 82.4154 373.944 81.5654 374.56 80.9305C375.176 80.2957 376.016 79.926 376.9 79.9C377.802 79.9 378.667 80.2582 379.304 80.8959C379.942 81.5335 380.3 82.3983 380.3 83.3Z" fill="#EEEEEE" stroke="#1E1E1E" style="fill:#EEEEEE;fill:color(display-p3 0.9333 0.9333 0.9333);fill-opacity:1;stroke:#1E1E1E;stroke:color(display-p3 0.1176 0.1176 0.1176);stroke-opacity:1;" stroke-width="1.2" stroke-linejoin="round"/>
<path id="Vector_21" fill-rule="evenodd" clip-rule="evenodd" d="M375.4 85C375.4 85 378.1 85 378.4 83.9C378.7 82.8 378.2 81.3 378.2 81.3C378.2 81.3 379.5 82.8 379.1 83.9C378.834 84.8334 378.267 85.3667 377.4 85.5C376.696 85.5749 375.987 85.3977 375.4 85Z" fill="#A3AFB8" style="fill:#A3AFB8;fill:color(display-p3 0.6392 0.6863 0.7216);fill-opacity:1;"/>
<path id="Vector_22" d="M379 94.4C379 96.4 377.5 97.8 375.6 97.8C374.733 97.7748 373.908 97.4191 373.295 96.8056C372.681 96.1921 372.325 95.3673 372.3 94.5C372.287 94.0535 372.362 93.6087 372.52 93.191C372.679 92.7734 372.919 92.3912 373.225 92.0661C373.531 91.7411 373.899 91.4796 374.307 91.2967C374.714 91.1138 375.154 91.0129 375.6 91C376.502 91 377.367 91.3582 378.005 91.9958C378.642 92.6335 379 93.4983 379 94.4Z" fill="#EEEEEE" stroke="#1E1E1E" style="fill:#EEEEEE;fill:color(display-p3 0.9333 0.9333 0.9333);fill-opacity:1;stroke:#1E1E1E;stroke:color(display-p3 0.1176 0.1176 0.1176);stroke-opacity:1;" stroke-width="1.2" stroke-linejoin="round"/>
<path id="Vector_23" fill-rule="evenodd" clip-rule="evenodd" d="M374 96.2C374 96.2 376.8 96.2 377 95C377.3 94 376.9 92.5 376.9 92.5C376.9 92.5 378.2 93.9 377.8 95C377.4 96.1 377.1 96.4 376.1 96.6C375.407 96.7043 374.699 96.5628 374.1 96.2H374Z" fill="#A3AFB8" style="fill:#A3AFB8;fill:color(display-p3 0.6392 0.6863 0.7216);fill-opacity:1;"/>
<path id="Vector_24" d="M374 104.2C374 106.1 372.5 107.6 370.7 107.6C369.799 107.6 368.934 107.242 368.296 106.604C367.659 105.967 367.3 105.102 367.3 104.2C367.3 103.298 367.659 102.434 368.296 101.796C368.934 101.158 369.799 100.8 370.7 100.8C371.585 100.826 372.424 101.196 373.04 101.831C373.656 102.465 374.001 103.315 374 104.2Z" fill="#EEEEEE" stroke="#1E1E1E" style="fill:#EEEEEE;fill:color(display-p3 0.9333 0.9333 0.9333);fill-opacity:1;stroke:#1E1E1E;stroke:color(display-p3 0.1176 0.1176 0.1176);stroke-opacity:1;" stroke-width="1.2" stroke-linejoin="round"/>
<path id="Vector_25" fill-rule="evenodd" clip-rule="evenodd" d="M369.1 106C369.1 106 371.8 106 372.1 104.8C372.4 103.8 371.9 102.3 371.9 102.3C371.9 102.3 373.2 103.7 372.9 104.8C372.567 105.8 372 106.333 371.2 106.4C370.507 106.504 369.8 106.363 369.2 106H369.1Z" fill="#A3AFB8" style="fill:#A3AFB8;fill:color(display-p3 0.6392 0.6863 0.7216);fill-opacity:1;"/>
<path id="Vector_26" d="M332.3 72.4C332.3 74.3 330.8 75.8 329 75.8C328.098 75.8 327.234 75.4418 326.596 74.8042C325.958 74.1665 325.6 73.3017 325.6 72.4C325.6 71.5153 325.944 70.6653 326.56 70.0305C327.176 69.3957 328.016 69.026 328.9 69C329.802 69 330.667 69.3582 331.304 69.9958C331.942 70.6335 332.3 71.4983 332.3 72.4Z" fill="#EEEEEE" stroke="#1E1E1E" style="fill:#EEEEEE;fill:color(display-p3 0.9333 0.9333 0.9333);fill-opacity:1;stroke:#1E1E1E;stroke:color(display-p3 0.1176 0.1176 0.1176);stroke-opacity:1;" stroke-width="1.2" stroke-linejoin="round"/>
<path id="Vector_27" fill-rule="evenodd" clip-rule="evenodd" d="M327.4 74.2C327.4 74.2 330.1 74.2 330.4 73C330.7 71.8 330.2 70.5 330.2 70.5C330.2 70.5 331.5 71.9 331.2 73C330.867 74 330.3 74.5333 329.5 74.6C328.7 74.8 328 74.6667 327.4 74.2Z" fill="#A3AFB8" style="fill:#A3AFB8;fill:color(display-p3 0.6392 0.6863 0.7216);fill-opacity:1;"/>
<g id="Group_2">
<path id="Vector_28" d="M322.1 71.5001C322.077 72.2449 321.777 72.9544 321.26 73.4904C320.742 74.0265 320.044 74.3508 319.3 74.4001C318.556 74.3508 317.858 74.0265 317.34 73.4904C316.823 72.9544 316.523 72.2449 316.5 71.5001C316.547 70.7729 316.857 70.0877 317.372 69.5725C317.888 69.0572 318.573 68.7471 319.3 68.7001C320.027 68.7471 320.712 69.0572 321.228 69.5725C321.743 70.0877 322.053 70.7729 322.1 71.5001Z" fill="#EEEEEE" stroke="#1E1E1E" style="fill:#EEEEEE;fill:color(display-p3 0.9333 0.9333 0.9333);fill-opacity:1;stroke:#1E1E1E;stroke:color(display-p3 0.1176 0.1176 0.1176);stroke-opacity:1;" stroke-width="1.2" stroke-linejoin="round"/>
<path id="Vector_29" fill-rule="evenodd" clip-rule="evenodd" d="M318 73.0001C318 73.0001 320.3 73.0001 320.5 72.0001C320.7 71.0001 320.4 70.0001 320.4 70.0001C320.4 70.0001 321.4 71.1001 321.2 72.0001C320.867 72.8668 320.4 73.3335 319.8 73.4001C319.173 73.4591 318.543 73.3191 318 73.0001Z" fill="#A3AFB8" style="fill:#A3AFB8;fill:color(display-p3 0.6392 0.6863 0.7216);fill-opacity:1;"/>
</g>
<g id="Group_3">
<path id="Vector_30" d="M322.2 75.0001C322.202 75.7623 321.913 76.4965 321.393 77.0537C320.873 77.6109 320.161 77.9493 319.4 78.0001C318.64 77.9493 317.927 77.6109 317.407 77.0537C316.887 76.4965 316.598 75.7623 316.6 75.0001C316.647 74.2729 316.957 73.5877 317.473 73.0725C317.988 72.5572 318.673 72.2471 319.4 72.2001C320.127 72.2471 320.812 72.5572 321.328 73.0725C321.843 73.5877 322.153 74.2729 322.2 75.0001Z" fill="#EEEEEE" stroke="#1E1E1E" style="fill:#EEEEEE;fill:color(display-p3 0.9333 0.9333 0.9333);fill-opacity:1;stroke:#1E1E1E;stroke:color(display-p3 0.1176 0.1176 0.1176);stroke-opacity:1;" stroke-width="1.2" stroke-linejoin="round"/>
<path id="Vector_31" fill-rule="evenodd" clip-rule="evenodd" d="M318 76.5001C318 76.5001 320.3 76.5001 320.6 75.5001C320.8 74.7001 320.4 73.5001 320.4 73.5001C320.4 73.5001 321.4 74.7001 321.2 75.5001C321 76.3668 320.533 76.8335 319.8 76.9001C319.206 76.9383 318.614 76.7991 318.1 76.5001H318Z" fill="#A3AFB8" style="fill:#A3AFB8;fill:color(display-p3 0.6392 0.6863 0.7216);fill-opacity:1;"/>
</g>
<g id="Group_4">
<path id="Vector_32" d="M322.4 80.3C322.353 81.0272 322.043 81.7124 321.528 82.2276C321.013 82.7429 320.327 83.053 319.6 83.1C318.855 83.0768 318.146 82.7773 317.61 82.2597C317.074 81.7421 316.75 81.0435 316.7 80.3C316.725 79.5388 317.039 78.8156 317.577 78.2771C318.116 77.7386 318.839 77.425 319.6 77.4C320.344 77.4493 321.042 77.7736 321.56 78.3097C322.077 78.8457 322.377 79.5552 322.4 80.3Z" fill="#EEEEEE" stroke="#1E1E1E" style="fill:#EEEEEE;fill:color(display-p3 0.9333 0.9333 0.9333);fill-opacity:1;stroke:#1E1E1E;stroke:color(display-p3 0.1176 0.1176 0.1176);stroke-opacity:1;" stroke-width="1.2" stroke-linejoin="round"/>
<path id="Vector_33" fill-rule="evenodd" clip-rule="evenodd" d="M318.3 81.8001C318.3 81.8001 320.5 81.8001 320.8 80.8001C321.1 79.8001 320.6 78.7001 320.6 78.7001C320.6 78.7001 321.6 79.9001 321.4 80.7001C321.2 81.6334 320.734 82.1001 320 82.1001C319.416 82.1688 318.825 82.0645 318.3 81.8001Z" fill="#A3AFB8" style="fill:#A3AFB8;fill:color(display-p3 0.6392 0.6863 0.7216);fill-opacity:1;"/>
</g>
<g id="Group_5">
<g id="Vector_34">
<path d="M322.7 85.8001C322.714 86.2024 322.646 86.6033 322.501 86.9789C322.357 87.3545 322.138 87.6971 321.858 87.9864C321.578 88.2756 321.243 88.5056 320.872 88.6625C320.501 88.8195 320.103 88.9003 319.7 88.9001C319.298 88.9135 318.897 88.8458 318.522 88.7011C318.146 88.5563 317.803 88.3375 317.514 88.0576C317.225 87.7776 316.995 87.4424 316.838 87.0717C316.681 86.7011 316.6 86.3026 316.6 85.9001C316.573 85.4896 316.63 85.0779 316.769 84.6905C316.907 84.3031 317.124 83.9484 317.405 83.6483C317.687 83.3481 318.027 83.1091 318.404 82.946C318.782 82.7829 319.189 82.6992 319.6 82.7001C320.003 82.6999 320.401 82.7806 320.772 82.9376C321.143 83.0946 321.478 83.3246 321.758 83.6138C322.038 83.9031 322.257 84.2457 322.401 84.6213C322.546 84.9969 322.614 85.3978 322.6 85.8001" fill="#EEEEEE" style="fill:#EEEEEE;fill:color(display-p3 0.9333 0.9333 0.9333);fill-opacity:1;"/>
<path d="M322.7 85.8001C322.714 86.2024 322.646 86.6033 322.501 86.9789C322.357 87.3545 322.138 87.6971 321.858 87.9864C321.578 88.2756 321.243 88.5056 320.872 88.6625C320.501 88.8195 320.103 88.9003 319.7 88.9001C319.298 88.9135 318.897 88.8458 318.522 88.7011C318.146 88.5563 317.803 88.3375 317.514 88.0576C317.225 87.7776 316.995 87.4424 316.838 87.0717C316.681 86.7011 316.6 86.3026 316.6 85.9001C316.573 85.4896 316.63 85.0779 316.769 84.6905C316.907 84.3031 317.124 83.9484 317.405 83.6483C317.687 83.3481 318.027 83.1091 318.404 82.946C318.782 82.7829 319.189 82.6992 319.6 82.7001C320.003 82.6999 320.401 82.7806 320.772 82.9376C321.143 83.0946 321.478 83.3246 321.758 83.6138C322.038 83.9031 322.257 84.2457 322.401 84.6213C322.546 84.9969 322.614 85.3978 322.6 85.8001" stroke="#1E1E1E" style="stroke:#1E1E1E;stroke:color(display-p3 0.1176 0.1176 0.1176);stroke-opacity:1;" stroke-width="1.2" stroke-linejoin="round"/>
</g>
<path id="Vector_35" fill-rule="evenodd" clip-rule="evenodd" d="M318.2 87.4001C318.2 87.4001 320.7 87.4001 320.9 86.4001C321.1 85.4001 320.7 84.1001 320.7 84.1001C320.7 84.1001 321.9 85.4001 321.6 86.4001C321.2 87.4001 320.9 87.6001 320.1 87.8001C319.44 87.8811 318.772 87.7404 318.2 87.4001Z" fill="#A3AFB8" style="fill:#A3AFB8;fill:color(display-p3 0.6392 0.6863 0.7216);fill-opacity:1;"/>
</g>
<g id="Vector_36">
<path d="M323 93.3C323 95.1 321.5 96.7 319.6 96.7C318.716 96.674 317.877 96.3044 317.261 95.6695C316.644 95.0347 316.3 94.1847 316.3 93.3C316.287 92.8535 316.362 92.4087 316.52 91.9911C316.679 91.5735 316.919 91.1912 317.225 90.8662C317.531 90.5411 317.899 90.2797 318.307 90.0967C318.714 89.9138 319.154 89.813 319.6 89.8C320.502 89.8 321.367 90.1583 322.005 90.7959C322.642 91.4335 323 92.2983 323 93.2" fill="#EEEEEE" style="fill:#EEEEEE;fill:color(display-p3 0.9333 0.9333 0.9333);fill-opacity:1;"/>
<path d="M323 93.3C323 95.1 321.5 96.7 319.6 96.7C318.716 96.674 317.877 96.3044 317.261 95.6695C316.644 95.0347 316.3 94.1847 316.3 93.3C316.287 92.8535 316.362 92.4087 316.52 91.9911C316.679 91.5735 316.919 91.1912 317.225 90.8662C317.531 90.5411 317.899 90.2797 318.307 90.0967C318.714 89.9138 319.154 89.813 319.6 89.8C320.502 89.8 321.367 90.1583 322.005 90.7959C322.642 91.4335 323 92.2983 323 93.2" stroke="#1E1E1E" style="stroke:#1E1E1E;stroke:color(display-p3 0.1176 0.1176 0.1176);stroke-opacity:1;" stroke-width="1.2" stroke-linejoin="round"/>
</g>
<path id="Vector_37" fill-rule="evenodd" clip-rule="evenodd" d="M318 95C318 95 320.8 95 321 93.9C321.2 92.8 320.9 91.3 320.9 91.3C320.9 91.3 322.2 92.8 321.8 93.9C321.4 94.9 321.1 95.3 320.1 95.5C319.395 95.5749 318.687 95.3977 318.1 95H318Z" fill="#A3AFB8" style="fill:#A3AFB8;fill:color(display-p3 0.6392 0.6863 0.7216);fill-opacity:1;"/>
<g id="Group_6">
<path id="Vector_38" d="M322.7 108.5C322.7 110.3 321.3 111.7 319.5 111.7C319.072 111.73 318.643 111.667 318.241 111.517C317.84 111.366 317.475 111.132 317.172 110.828C316.868 110.525 316.634 110.16 316.483 109.759C316.333 109.357 316.271 108.928 316.3 108.5C316.3 106.8 317.7 105.3 319.5 105.3C319.928 105.27 320.357 105.333 320.759 105.483C321.161 105.634 321.525 105.868 321.829 106.172C322.132 106.475 322.367 106.84 322.517 107.241C322.667 107.643 322.73 108.072 322.7 108.5Z" fill="#EEEEEE" stroke="#1E1E1E" style="fill:#EEEEEE;fill:color(display-p3 0.9333 0.9333 0.9333);fill-opacity:1;stroke:#1E1E1E;stroke:color(display-p3 0.1176 0.1176 0.1176);stroke-opacity:1;" stroke-width="1.2" stroke-linejoin="round"/>
<path id="Vector_39" fill-rule="evenodd" clip-rule="evenodd" d="M318 110.2C318 110.2 320.6 110.2 320.8 109.1C321.1 108.1 320.7 106.7 320.7 106.7C320.7 106.7 321.9 108 321.5 109.1C321.233 109.967 320.733 110.467 320 110.6C319.333 110.667 318.667 110.533 318 110.2Z" fill="#A3AFB8" style="fill:#A3AFB8;fill:color(display-p3 0.6392 0.6863 0.7216);fill-opacity:1;"/>
</g>
<path id="Vector_40" d="M313.6 72.3C313.6 74.2 312 75.7 310.2 75.7C309.299 75.7 308.434 75.3418 307.796 74.7042C307.159 74.0666 306.8 73.2018 306.8 72.3C306.8 71.3983 307.159 70.5335 307.796 69.8959C308.434 69.2582 309.299 68.9 310.2 68.9C311.102 68.9 311.967 69.2582 312.604 69.8959C313.242 70.5335 313.6 71.3983 313.6 72.3Z" fill="#EEEEEE" stroke="#1E1E1E" style="fill:#EEEEEE;fill:color(display-p3 0.9333 0.9333 0.9333);fill-opacity:1;stroke:#1E1E1E;stroke:color(display-p3 0.1176 0.1176 0.1176);stroke-opacity:1;" stroke-width="1.2" stroke-linejoin="round"/>
<path id="Vector_41" fill-rule="evenodd" clip-rule="evenodd" d="M308.6 74C308.6 74 311.3 74 311.6 73C311.9 71.8 311.4 70.4 311.4 70.4C311.4 70.4 312.7 71.8 312.4 72.9C312.067 73.9 311.5 74.4334 310.7 74.5C310.007 74.6044 309.3 74.4628 308.7 74.1L308.6 74Z" fill="#A3AFB8" style="fill:#A3AFB8;fill:color(display-p3 0.6392 0.6863 0.7216);fill-opacity:1;"/>
<path id="Vector_42" d="M305.2 69.0001C305.2 70.9001 303.7 72.4001 301.8 72.4001C300.916 72.3741 300.076 72.0044 299.46 71.3696C298.844 70.7348 298.5 69.8848 298.5 69.0001C298.5 68.1154 298.844 67.2654 299.46 66.6306C300.076 65.9958 300.916 65.6261 301.8 65.6001C302.702 65.6001 303.567 65.9583 304.204 66.5959C304.842 67.2336 305.2 68.0984 305.2 69.0001Z" fill="#EEEEEE" stroke="#1E1E1E" style="fill:#EEEEEE;fill:color(display-p3 0.9333 0.9333 0.9333);fill-opacity:1;stroke:#1E1E1E;stroke:color(display-p3 0.1176 0.1176 0.1176);stroke-opacity:1;" stroke-width="1.2" stroke-linejoin="round"/>
<path id="Vector_43" fill-rule="evenodd" clip-rule="evenodd" d="M300.3 70.8001C300.3 70.8001 303 70.8001 303.3 69.6001C303.5 68.6001 303.1 67.1001 303.1 67.1001C303.1 67.1001 304.4 68.5001 304.1 69.6001C303.6 70.7001 303.3 71.0001 302.3 71.2001C301.634 71.4001 300.967 71.2668 300.3 70.8001Z" fill="#A3AFB8" style="fill:#A3AFB8;fill:color(display-p3 0.6392 0.6863 0.7216);fill-opacity:1;"/>
<g id="Vector_44">
<path d="M297.2 65.3001C297.2 67.1001 295.7 68.7 293.9 68.7C292.998 68.7 292.134 68.3418 291.496 67.7042C290.858 67.0666 290.5 66.2018 290.5 65.3001C290.487 64.8535 290.562 64.4087 290.72 63.9911C290.879 63.5735 291.118 63.1912 291.425 62.8662C291.731 62.5411 292.099 62.2797 292.506 62.0967C292.914 61.9138 293.353 61.813 293.8 61.8C294.702 61.8 295.567 62.1583 296.204 62.7959C296.842 63.4335 297.2 64.2983 297.2 65.2" fill="#EEEEEE" style="fill:#EEEEEE;fill:color(display-p3 0.9333 0.9333 0.9333);fill-opacity:1;"/>
<path d="M297.2 65.3001C297.2 67.1001 295.7 68.7 293.9 68.7C292.998 68.7 292.134 68.3418 291.496 67.7042C290.858 67.0666 290.5 66.2018 290.5 65.3001C290.487 64.8535 290.562 64.4087 290.72 63.9911C290.879 63.5735 291.118 63.1912 291.425 62.8662C291.731 62.5411 292.099 62.2797 292.506 62.0967C292.914 61.9138 293.353 61.813 293.8 61.8C294.702 61.8 295.567 62.1583 296.204 62.7959C296.842 63.4335 297.2 64.2983 297.2 65.2" stroke="#1E1E1E" style="stroke:#1E1E1E;stroke:color(display-p3 0.1176 0.1176 0.1176);stroke-opacity:1;" stroke-width="1.2" stroke-linejoin="round"/>
</g>
<path id="Vector_45" fill-rule="evenodd" clip-rule="evenodd" d="M292.3 67C292.3 67 295 67.0001 295.3 65.9001C295.6 64.8001 295.1 63.3 295.1 63.3C295.1 63.3 296.4 64.8001 296.1 65.9001C295.767 66.8334 295.2 67.3667 294.4 67.5C293.663 67.5997 292.914 67.4215 292.3 67Z" fill="#A3AFB8" style="fill:#A3AFB8;fill:color(display-p3 0.6392 0.6863 0.7216);fill-opacity:1;"/>
<g id="Vector_46">
<path d="M288 63.3C288 65.2 286.6 66.7 284.7 66.7C283.799 66.7 282.934 66.3418 282.296 65.7042C281.659 65.0666 281.3 64.2018 281.3 63.3C281.287 62.8452 281.365 62.3923 281.53 61.9682C281.695 61.5441 281.943 61.1574 282.26 60.831C282.577 60.5046 282.957 60.2452 283.376 60.0681C283.795 59.891 284.245 59.7999 284.7 59.8C285.602 59.8 286.467 60.1583 287.104 60.7959C287.742 61.4335 288.1 62.2983 288.1 63.2001" fill="#EEEEEE" style="fill:#EEEEEE;fill:color(display-p3 0.9333 0.9333 0.9333);fill-opacity:1;"/>
<path d="M288 63.3C288 65.2 286.6 66.7 284.7 66.7C283.799 66.7 282.934 66.3418 282.296 65.7042C281.659 65.0666 281.3 64.2018 281.3 63.3C281.287 62.8452 281.365 62.3923 281.53 61.9682C281.695 61.5441 281.943 61.1574 282.26 60.831C282.577 60.5046 282.957 60.2452 283.376 60.0681C283.795 59.891 284.245 59.7999 284.7 59.8C285.602 59.8 286.467 60.1583 287.104 60.7959C287.742 61.4335 288.1 62.2983 288.1 63.2001" stroke="#1E1E1E" style="stroke:#1E1E1E;stroke:color(display-p3 0.1176 0.1176 0.1176);stroke-opacity:1;" stroke-width="1.2" stroke-linejoin="round"/>
</g>
<path id="Vector_47" fill-rule="evenodd" clip-rule="evenodd" d="M283.1 65C283.1 65 285.8 65.0001 286.1 63.9001C286.4 62.8001 285.9 61.3 285.9 61.3C285.9 61.3 287.2 62.8001 286.9 63.9001C286.567 64.8334 286 65.3667 285.2 65.5C284.495 65.5749 283.787 65.3977 283.2 65H283.1Z" fill="#A3AFB8" style="fill:#A3AFB8;fill:color(display-p3 0.6392 0.6863 0.7216);fill-opacity:1;"/>
<path id="Vector_48" d="M277.2 65.8C277.2 67.8 275.7 69.2 273.9 69.3C272.998 69.3 272.133 68.9418 271.496 68.3042C270.858 67.6666 270.5 66.8018 270.5 65.9C270.487 65.4452 270.565 64.9923 270.73 64.5682C270.894 64.144 271.143 63.7573 271.46 63.431C271.777 63.1046 272.156 62.8451 272.575 62.6681C272.995 62.491 273.445 62.3998 273.9 62.4C274.784 62.426 275.624 62.7957 276.24 63.4305C276.856 64.0654 277.2 64.9154 277.2 65.8Z" fill="#EEEEEE" stroke="#1E1E1E" style="fill:#EEEEEE;fill:color(display-p3 0.9333 0.9333 0.9333);fill-opacity:1;stroke:#1E1E1E;stroke:color(display-p3 0.1176 0.1176 0.1176);stroke-opacity:1;" stroke-width="1.2" stroke-linejoin="round"/>
<path id="Vector_49" fill-rule="evenodd" clip-rule="evenodd" d="M272.3 67.6C272.3 67.6 275 67.6 275.3 66.5C275.6 65.4 275.1 63.9 275.1 63.9C275.1 63.9 276.4 65.3 276.1 66.4C275.767 67.3334 275.2 67.9 274.4 68.1C273.695 68.1748 272.987 67.9977 272.4 67.6H272.3Z" fill="#A3AFB8" style="fill:#A3AFB8;fill:color(display-p3 0.6392 0.6863 0.7216);fill-opacity:1;"/>
<path id="Vector_50" d="M269.6 73.5001C269.6 75.4001 268.1 76.9001 266.2 76.9001C265.316 76.8741 264.477 76.5044 263.861 75.8696C263.244 75.2348 262.9 74.3848 262.9 73.5001C262.9 72.6154 263.244 71.7654 263.861 71.1306C264.477 70.4958 265.316 70.1261 266.2 70.1001C267.102 70.1001 267.967 70.4583 268.605 71.0959C269.242 71.7336 269.6 72.5984 269.6 73.5001Z" fill="#EEEEEE" stroke="#1E1E1E" style="fill:#EEEEEE;fill:color(display-p3 0.9333 0.9333 0.9333);fill-opacity:1;stroke:#1E1E1E;stroke:color(display-p3 0.1176 0.1176 0.1176);stroke-opacity:1;" stroke-width="1.2" stroke-linejoin="round"/>
<path id="Vector_51" fill-rule="evenodd" clip-rule="evenodd" d="M264.7 75.2C264.7 75.2 267.4 75.2 267.7 74.1C268 73 267.5 71.5 267.5 71.5C267.5 71.5 268.8 73 268.4 74.1C268.134 75.0333 267.567 75.5667 266.7 75.7C265.995 75.7748 265.287 75.5977 264.7 75.2Z" fill="#A3AFB8" style="fill:#A3AFB8;fill:color(display-p3 0.6392 0.6863 0.7216);fill-opacity:1;"/>
<g id="Vector_52">
<path d="M266.4 84.2C266.4 86.1 264.9 87.6 263.1 87.6C262.198 87.6 261.334 87.2418 260.696 86.6042C260.058 85.9666 259.7 85.1018 259.7 84.2C259.7 83.3154 260.044 82.4654 260.66 81.8306C261.277 81.1957 262.116 80.8261 263 80.8C263.885 80.7997 264.735 81.1441 265.37 81.7603C266.004 82.3764 266.374 83.2158 266.4 84.1" fill="#EEEEEE" style="fill:#EEEEEE;fill:color(display-p3 0.9333 0.9333 0.9333);fill-opacity:1;"/>
<path d="M266.4 84.2C266.4 86.1 264.9 87.6 263.1 87.6C262.198 87.6 261.334 87.2418 260.696 86.6042C260.058 85.9666 259.7 85.1018 259.7 84.2C259.7 83.3154 260.044 82.4654 260.66 81.8306C261.277 81.1957 262.116 80.8261 263 80.8C263.885 80.7997 264.735 81.1441 265.37 81.7603C266.004 82.3764 266.374 83.2158 266.4 84.1" stroke="#1E1E1E" style="stroke:#1E1E1E;stroke:color(display-p3 0.1176 0.1176 0.1176);stroke-opacity:1;" stroke-width="1.2" stroke-linejoin="round"/>
</g>
<path id="Vector_53" fill-rule="evenodd" clip-rule="evenodd" d="M261.5 86.0001C261.5 86.0001 264.2 85.9001 264.5 84.8001C264.8 83.7001 264.3 82.2001 264.3 82.2001C264.3 82.2001 265.6 83.7001 265.3 84.8001C264.967 85.7334 264.4 86.2667 263.6 86.4001C262.862 86.4998 262.114 86.3215 261.5 85.9001V86.0001Z" fill="#A3AFB8" style="fill:#A3AFB8;fill:color(display-p3 0.6392 0.6863 0.7216);fill-opacity:1;"/>
<path id="Vector_54" d="M267.8 95.3C267.8 97.3 266.3 98.8 264.5 98.8C263.598 98.8 262.734 98.4418 262.096 97.8042C261.458 97.1666 261.1 96.3018 261.1 95.4C261.087 94.9535 261.162 94.5087 261.32 94.0911C261.479 93.6735 261.718 93.2912 262.025 92.9662C262.331 92.6411 262.699 92.3796 263.106 92.1967C263.514 92.0138 263.954 91.913 264.4 91.9C265.302 91.9 266.167 92.2582 266.804 92.8959C267.442 93.5335 267.8 94.3983 267.8 95.3Z" fill="#EEEEEE" stroke="#1E1E1E" style="fill:#EEEEEE;fill:color(display-p3 0.9333 0.9333 0.9333);fill-opacity:1;stroke:#1E1E1E;stroke:color(display-p3 0.1176 0.1176 0.1176);stroke-opacity:1;" stroke-width="1.2" stroke-linejoin="round"/>
<path id="Vector_55" fill-rule="evenodd" clip-rule="evenodd" d="M262.9 97.1C262.9 97.1 265.6 97.1 265.9 95.9C266.2 94.9 265.7 93.4 265.7 93.4C265.7 93.4 267 94.8 266.7 95.9C266.367 96.9 265.8 97.4667 265 97.6C264.296 97.6748 263.587 97.4977 263 97.1H262.9Z" fill="#A3AFB8" style="fill:#A3AFB8;fill:color(display-p3 0.6392 0.6863 0.7216);fill-opacity:1;"/>
<g id="Vector_56">
<path d="M273 105.5C273 107.3 271.5 108.9 269.6 108.9C268.716 108.874 267.877 108.504 267.261 107.869C266.644 107.235 266.3 106.385 266.3 105.5C266.287 105.053 266.362 104.609 266.52 104.191C266.679 103.773 266.919 103.391 267.225 103.066C267.531 102.741 267.899 102.48 268.307 102.297C268.714 102.114 269.154 102.013 269.6 102C270.047 102 270.489 102.088 270.901 102.259C271.314 102.43 271.689 102.68 272.005 102.996C272.32 103.312 272.571 103.686 272.742 104.099C272.912 104.511 273 104.954 273 105.4" fill="#EEEEEE" style="fill:#EEEEEE;fill:color(display-p3 0.9333 0.9333 0.9333);fill-opacity:1;"/>
<path d="M273 105.5C273 107.3 271.5 108.9 269.6 108.9C268.716 108.874 267.877 108.504 267.261 107.869C266.644 107.235 266.3 106.385 266.3 105.5C266.287 105.053 266.362 104.609 266.52 104.191C266.679 103.773 266.919 103.391 267.225 103.066C267.531 102.741 267.899 102.48 268.307 102.297C268.714 102.114 269.154 102.013 269.6 102C270.047 102 270.489 102.088 270.901 102.259C271.314 102.43 271.689 102.68 272.005 102.996C272.32 103.312 272.571 103.686 272.742 104.099C272.912 104.511 273 104.954 273 105.4" stroke="#1E1E1E" style="stroke:#1E1E1E;stroke:color(display-p3 0.1176 0.1176 0.1176);stroke-opacity:1;" stroke-width="1.2" stroke-linejoin="round"/>
</g>
<path id="Vector_57" fill-rule="evenodd" clip-rule="evenodd" d="M268 107.2C268 107.2 270.8 107.2 271 106.1C271.2 105 270.9 103.5 270.9 103.5C270.9 103.5 272.2 104.9 271.9 106C271.5 107 270.933 107.567 270.2 107.7C269.462 107.8 268.714 107.621 268.1 107.2H268Z" fill="#A3AFB8" style="fill:#A3AFB8;fill:color(display-p3 0.6392 0.6863 0.7216);fill-opacity:1;"/>
<g id="Group_7">
<path id="Vector_58" d="M278.853 118.181C279.084 119.04 279.093 119.923 278.879 120.637C278.665 121.351 278.244 121.839 277.709 121.997C277.164 122.143 276.549 121.938 275.999 121.427C275.45 120.916 275.01 120.141 274.777 119.273C274.547 118.413 274.538 117.531 274.752 116.817C274.966 116.103 275.386 115.614 275.922 115.456C276.467 115.31 277.082 115.515 277.631 116.026C278.181 116.537 278.621 117.312 278.853 118.181Z" fill="#EEEEEE" stroke="#1E1E1E" style="fill:#EEEEEE;fill:color(display-p3 0.9333 0.9333 0.9333);fill-opacity:1;stroke:#1E1E1E;stroke:color(display-p3 0.1176 0.1176 0.1176);stroke-opacity:1;" stroke-width="1.15653" stroke-linejoin="round"/>
<path id="Vector_59" fill-rule="evenodd" clip-rule="evenodd" d="M276.3 120.7C276.3 120.7 277.9 120.2 277.8 119.1C277.8 118 277.1 116.7 277.1 116.7C277.1 116.7 278.2 117.8 278.3 119C278.3 119.933 278.1 120.533 277.7 120.8C277.3 121 276.834 120.967 276.3 120.7Z" fill="#A3AFB8" style="fill:#A3AFB8;fill:color(display-p3 0.6392 0.6863 0.7216);fill-opacity:1;"/>
</g>
<g id="Group_8">
<path id="Vector_60" d="M365.825 118.833C365.612 119.697 365.194 120.474 364.662 120.996C364.13 121.518 363.526 121.743 362.98 121.622C362.433 121.487 361.993 121.011 361.759 120.298C361.524 119.585 361.513 118.694 361.729 117.821C361.942 116.957 362.36 116.18 362.892 115.658C363.424 115.136 364.028 114.911 364.574 115.032C365.121 115.167 365.56 115.643 365.795 116.356C366.03 117.069 366.041 117.96 365.825 118.833Z" fill="#EEEEEE" stroke="#1E1E1E" style="fill:#EEEEEE;fill:color(display-p3 0.9333 0.9333 0.9333);fill-opacity:1;stroke:#1E1E1E;stroke:color(display-p3 0.1176 0.1176 0.1176);stroke-opacity:1;" stroke-width="1.15654" stroke-linejoin="round"/>
<path id="Vector_61" fill-rule="evenodd" clip-rule="evenodd" d="M362.3 119.8C362.3 119.8 364 120.2 364.4 119.1C364.9 118.1 364.9 116.6 364.9 116.6C364.9 116.6 365.4 118.2 364.9 119.2C364.4 120.2 364.1 120.5 363.5 120.5C363.034 120.5 362.634 120.267 362.3 119.8Z" fill="#A3AFB8" style="fill:#A3AFB8;fill:color(display-p3 0.6392 0.6863 0.7216);fill-opacity:1;"/>
</g>
</g>
<path id="Vector_62" fill-rule="evenodd" clip-rule="evenodd" d="M316.7 53.7999L317 59.5C317 59.5 310.2 60.1 310 60.7C308.6 63.7 311.5 67.6999 311.5 67.6999C311.5 67.6999 313.8 65.9 319.5 65.9C325 65.9 327.8 67.3 327.8 67.3C327.8 67.3 329.2 64.9999 329.2 63.2999C329.2 61.5999 328.6 59.9 328.6 59.9L325 59.5H322.5L322.3 53.7L316.7 53.7999Z" fill="#B3A192" stroke="black" style="fill:#B3A192;fill:color(display-p3 0.7020 0.6314 0.5725);fill-opacity:1;stroke:black;stroke-opacity:1;" stroke-width="1.2"/>
<g id="Vector_63">
<path d="M326.4 62.5999C326.266 63.3333 325.866 63.7333 325.2 63.7999C324.4 63.7333 323.966 63.3666 323.9 62.7C324.033 61.9666 324.433 61.5666 325.1 61.5C325.833 61.5666 326.266 61.9333 326.4 62.5999ZM329.1 63.2999C329.1 63.9666 328.7 64.3666 327.9 64.5C326.7 64.7 326.6 63.8999 326.6 63.2999C326.666 62.5666 327.1 62.1666 327.9 62.0999C328.7 62.0333 329.1 62.4333 329.1 63.2999ZM323.6 62.5999C323.466 63.2666 323.066 63.6666 322.4 63.7999C321.666 63.6666 321.266 63.2666 321.2 62.5999C321.2 61.7333 321.566 61.3333 322.3 61.4C323.033 61.4666 323.466 61.8666 323.6 62.5999ZM318 62.5999C317.933 63.3999 317.5 63.8333 316.7 63.9C315.966 63.8333 315.566 63.4333 315.5 62.7C315.433 61.9666 315.833 61.5666 316.7 61.5C317.9 61.4 318 62 318 62.7M314.9 62.9C314.833 63.5666 314.4 63.9666 313.6 64.0999C312.866 64.0999 312.466 63.7 312.4 62.9C312.3 61.7 312.9 61.7 313.6 61.7C314.3 61.7 314.9 62.2 314.9 62.9ZM320.6 59.4C320.533 60.0666 320.2 60.4 319.6 60.4C319.453 60.43 319.301 60.4266 319.156 60.3899C319.01 60.3533 318.875 60.2845 318.759 60.1884C318.644 60.0924 318.552 59.9716 318.49 59.8352C318.428 59.6987 318.397 59.5499 318.4 59.4C318.466 58.7333 318.833 58.4 319.5 58.4C320.166 58.4 320.5 58.7333 320.5 59.4M320.5 54.7C320.5 55.3 320.166 55.6333 319.5 55.7C319.235 55.7 318.98 55.5946 318.793 55.4071C318.605 55.2195 318.5 54.9652 318.5 54.7C318.5 54.0333 318.833 53.7 319.5 53.7C320.5 53.7 320.5 54.1 320.5 54.7ZM320.5 57.2C320.5 57.8666 320.166 58.2 319.5 58.2C318.5 58.2 318.5 57.8 318.5 57.2C318.5 56.6 318.833 56.2666 319.5 56.2C320.5 56.1 320.5 56.6 320.5 57.2ZM311.7 63.7C311.7 64.4333 311.3 64.8333 310.5 64.9C309.833 64.9 309.433 64.5 309.3 63.7C309.3 63.0333 309.7 62.6666 310.5 62.5999C311.7 62.4999 311.7 63.1 311.7 63.7Z" fill="#F0DDCB" style="fill:#F0DDCB;fill:color(display-p3 0.9412 0.8667 0.7961);fill-opacity:1;"/>
<path d="M318 62.5999C317.933 63.3999 317.5 63.8333 316.7 63.9C315.966 63.8333 315.566 63.4333 315.5 62.7C315.433 61.9666 315.833 61.5666 316.7 61.5C317.9 61.4 318 62 318 62.7M320.6 59.4C320.533 60.0666 320.2 60.4 319.6 60.4C319.453 60.43 319.301 60.4266 319.156 60.3899C319.01 60.3533 318.875 60.2845 318.759 60.1884C318.644 60.0924 318.552 59.9716 318.49 59.8352C318.428 59.6987 318.397 59.5499 318.4 59.4C318.466 58.7333 318.833 58.4 319.5 58.4C320.166 58.4 320.5 58.7333 320.5 59.4M326.4 62.5999C326.266 63.3333 325.866 63.7333 325.2 63.7999C324.4 63.7333 323.966 63.3666 323.9 62.7C324.033 61.9666 324.433 61.5666 325.1 61.5C325.833 61.5666 326.266 61.9333 326.4 62.5999ZM329.1 63.2999C329.1 63.9666 328.7 64.3666 327.9 64.5C326.7 64.7 326.6 63.8999 326.6 63.2999C326.666 62.5666 327.1 62.1666 327.9 62.0999C328.7 62.0333 329.1 62.4333 329.1 63.2999ZM323.6 62.5999C323.466 63.2666 323.066 63.6666 322.4 63.7999C321.666 63.6666 321.266 63.2666 321.2 62.5999C321.2 61.7333 321.566 61.3333 322.3 61.4C323.033 61.4666 323.466 61.8666 323.6 62.5999ZM314.9 62.9C314.833 63.5666 314.4 63.9666 313.6 64.0999C312.866 64.0999 312.466 63.7 312.4 62.9C312.3 61.7 312.9 61.7 313.6 61.7C314.3 61.7 314.9 62.2 314.9 62.9ZM320.5 54.7C320.5 55.3 320.166 55.6333 319.5 55.7C319.235 55.7 318.98 55.5946 318.793 55.4071C318.605 55.2195 318.5 54.9652 318.5 54.7C318.5 54.0333 318.833 53.7 319.5 53.7C320.5 53.7 320.5 54.1 320.5 54.7ZM320.5 57.2C320.5 57.8666 320.166 58.2 319.5 58.2C318.5 58.2 318.5 57.8 318.5 57.2C318.5 56.6 318.833 56.2666 319.5 56.2C320.5 56.1 320.5 56.6 320.5 57.2ZM311.7 63.7C311.7 64.4333 311.3 64.8333 310.5 64.9C309.833 64.9 309.433 64.5 309.3 63.7C309.3 63.0333 309.7 62.6666 310.5 62.5999C311.7 62.4999 311.7 63.1 311.7 63.7Z" stroke="#121116" style="stroke:#121116;stroke:color(display-p3 0.0706 0.0667 0.0863);stroke-opacity:1;" stroke-width="0.6" stroke-linejoin="round"/>
</g>
<g id="Vector_64">
<path d="M320.9 62.4C320.834 63.1333 320.367 63.5333 319.5 63.6C319.172 63.6009 318.856 63.4778 318.615 63.2552C318.373 63.0327 318.225 62.7271 318.2 62.4C318.267 61.6 318.7 61.1666 319.5 61.1C320.3 61.1666 320.734 61.6 320.8 62.4" fill="#916C68" style="fill:#916C68;fill:color(display-p3 0.5686 0.4235 0.4078);fill-opacity:1;"/>
<path d="M320.9 62.4C320.834 63.1333 320.367 63.5333 319.5 63.6C319.172 63.6009 318.856 63.4778 318.615 63.2552C318.373 63.0327 318.225 62.7271 318.2 62.4C318.267 61.6 318.7 61.1666 319.5 61.1C320.3 61.1666 320.734 61.6 320.8 62.4" stroke="#4D3126" style="stroke:#4D3126;stroke:color(display-p3 0.3020 0.1922 0.1490);stroke-opacity:1;" stroke-width="0.6" stroke-linejoin="round"/>
</g>
<g id="Group_9">
<g id="Vector_65">
<path d="M322 45.5C322.001 46.1461 321.751 46.7673 321.304 47.2334C320.856 47.6994 320.246 47.9742 319.6 48C319.272 48 318.947 47.9354 318.643 47.8097C318.34 47.6841 318.065 47.4999 317.832 47.2678C317.6 47.0356 317.416 46.76 317.29 46.4567C317.165 46.1534 317.1 45.8283 317.1 45.5C317.087 45.1634 317.141 44.8275 317.261 44.5126C317.381 44.1976 317.563 43.9101 317.796 43.6673C318.03 43.4244 318.31 43.2313 318.62 43.0994C318.93 42.9676 319.263 42.8998 319.6 42.9C320.263 42.9 320.899 43.1634 321.368 43.6323C321.837 44.1011 322.1 44.737 322.1 45.4" fill="#EEEEEE" style="fill:#EEEEEE;fill:color(display-p3 0.9333 0.9333 0.9333);fill-opacity:1;"/>
<path d="M322 45.5C322.001 46.1461 321.751 46.7673 321.304 47.2334C320.856 47.6994 320.246 47.9742 319.6 48C319.272 48 318.947 47.9354 318.643 47.8097C318.34 47.6841 318.065 47.4999 317.832 47.2678C317.6 47.0356 317.416 46.76 317.29 46.4567C317.165 46.1534 317.1 45.8283 317.1 45.5C317.087 45.1634 317.141 44.8275 317.261 44.5126C317.381 44.1976 317.563 43.9101 317.796 43.6673C318.03 43.4244 318.31 43.2313 318.62 43.0994C318.93 42.9676 319.263 42.8998 319.6 42.9C320.263 42.9 320.899 43.1634 321.368 43.6323C321.837 44.1011 322.1 44.737 322.1 45.4" stroke="#1E1E1E" style="stroke:#1E1E1E;stroke:color(display-p3 0.1176 0.1176 0.1176);stroke-opacity:1;" stroke-width="1.2" stroke-linejoin="round"/>
</g>
<path id="Vector_66" fill-rule="evenodd" clip-rule="evenodd" d="M318.4 46.8C318.4 46.8 320.4 46.8 320.6 45.8C320.8 45.1 320.5 44 320.5 44C320.5 44 321.5 45 321.2 45.9C320.934 46.5667 320.534 46.9667 320 47.1C319.728 47.165 319.444 47.1718 319.168 47.1202C318.893 47.0685 318.631 46.9594 318.4 46.8Z" fill="#A3AFB8" style="fill:#A3AFB8;fill:color(display-p3 0.6392 0.6863 0.7216);fill-opacity:1;"/>
</g>
<path id="Vector_67" fill-rule="evenodd" clip-rule="evenodd" d="M280 130.1C280 130.1 282.2 132.2 282.8 134.1C283.4 136 284.3 140.9 284.3 140.9C284.3 140.9 307.5 134.4 318.9 134.9C330.3 135.4 356.6 141.2 356.6 141.2L357.6 135.5C358.1 132.5 360.3 129.2 360.3 129.2C360.3 129.2 335.2 121.4 319.3 122.2C310.093 122.279 300.929 123.454 292 125.7L280 130.1Z" fill="#FFCC00" stroke="black" style="fill:#FFCC00;fill:color(display-p3 1.0000 0.8000 0.0000);fill-opacity:1;stroke:black;stroke-opacity:1;" stroke-width="0.5"/>
<path id="Vector_68" fill-rule="evenodd" clip-rule="evenodd" d="M314.7 36H324.7C324.7 36 322.2 37.7 321.7 39.4C321.3 40.8 321.4 43.1 321.4 43.1C321.4 43.1 324.1 43.1 325.4 42.1L329.1 39.2V51.9C329.1 51.9 326.6 49.6 325.1 48.8C323.997 48.2123 322.82 47.7751 321.6 47.5C321.6 47.5 321.6 49.5 322.4 50.8C323.2 52.1 326.7 56.6 326.7 56.6L312.4 57.1C312.4 57.1 315.8 53.6 317.2 51C318.1 49.3 317.7 47.5 317.7 47.5C317.7 47.5 315.3 47.5 314.1 48.4C312.9 49.3 310.7 51.7 310.7 51.7V39.5C310.7 39.5 311.7 41.9 313.7 42.8C315.7 43.7 317.5 43.2 317.5 43.2C317.5 43.2 317.9 40.8 317.1 39.2C316.3 37.7 314.5 36 314.7 36.1V36Z" fill="#FFCC00" stroke="black" style="fill:#FFCC00;fill:color(display-p3 1.0000 0.8000 0.0000);fill-opacity:1;stroke:black;stroke-opacity:1;" stroke-width="1.2"/>
<path id="Vector_69" fill-rule="evenodd" clip-rule="evenodd" d="M313.9 76.5C313.9 76.5 306.8 76.4 300.7 72.8C294.6 69.2 288.4 65.4 279.4 67.5C277.6 68 270.8 71 267.8 80.7C266.232 87.0141 267.089 93.6865 270.2 99.4C271.833 102.035 273.708 104.512 275.8 106.8L279.5 104.3C279.5 104.3 270.2 96.3 271.3 86.1C272.3 75.8 277.5 73.4 277.5 73.4C277.5 73.4 283.9 68.4 292.4 73.1C300.285 77.3996 308.838 80.3407 317.7 81.8C318.3 81.7 313.7 76.4 313.9 76.5Z" fill="#FFCC00" stroke="#121116" style="fill:#FFCC00;fill:color(display-p3 1.0000 0.8000 0.0000);fill-opacity:1;stroke:#121116;stroke:color(display-p3 0.0706 0.0667 0.0863);stroke-opacity:1;" stroke-width="1.2"/>
<path id="Vector_70" fill-rule="evenodd" clip-rule="evenodd" d="M274.5 115L270.7 107.6L282.1 103.2C282.1 103.2 279.3 106.8 278.7 109.4C277.9 112.6 278.2 115.3 278.2 115.3C278.2 115.3 279.2 114.5 280.5 112.4C281.5 110.9 283.1 105.1 283.1 105.1L288.2 121.4C288.2 121.4 285.6 118.8 283.7 118.5C281.7 118.1 279.1 118.8 279.1 118.8L276.1 119.8L274.5 115Z" fill="#FFCC00" stroke="black" style="fill:#FFCC00;fill:color(display-p3 1.0000 0.8000 0.0000);fill-opacity:1;stroke:black;stroke-opacity:1;" stroke-width="1.2"/>
<path id="Vector_71" fill-rule="evenodd" clip-rule="evenodd" d="M326.7 76.3001C326.7 76.3001 333.8 76.3001 339.9 72.6001C346 69.0001 352.1 65.3001 361.2 67.4001C363 67.8001 369.8 70.8001 372.8 80.5001C374.337 86.8265 373.445 93.4996 370.3 99.2001L366.7 105.1L362.3 103.5C362.3 103.5 370.4 96.2001 369.3 85.9001C368.2 75.6001 363.1 73.2001 363.1 73.2001C363.1 73.2001 356.7 68.2001 348.2 73.0001C339.7 77.8001 331.4 79.8001 331.4 79.8001C331.4 79.8001 323.6 81.8001 322.9 81.6001C322.2 81.6001 326.9 76.2001 326.7 76.3001Z" fill="#FFCC00" stroke="#121116" style="fill:#FFCC00;fill:color(display-p3 1.0000 0.8000 0.0000);fill-opacity:1;stroke:#121116;stroke:color(display-p3 0.0706 0.0667 0.0863);stroke-opacity:1;" stroke-width="1.2"/>
<path id="Vector_72" d="M323 69.3H326V97H323V69.3ZM313 69.1H316.5V96.8H313V69.1Z" fill="#FFCC00" stroke="#121116" style="fill:#FFCC00;fill:color(display-p3 1.0000 0.8000 0.0000);fill-opacity:1;stroke:#121116;stroke:color(display-p3 0.0706 0.0667 0.0863);stroke-opacity:1;" stroke-width="1.2" stroke-linejoin="round"/>
<path id="Vector_73" d="M329.2 62.7001C329.2 67.7001 324.9 71.7 319.5 71.7C314.1 71.7 309.8 67.7001 309.8 62.7001C309.8 57.7001 314.1 53.8 319.4 53.8C324.8 53.8 329.2 57.8001 329.2 62.7001Z" fill="#FFCC00" stroke="#121116" style="fill:#FFCC00;fill:color(display-p3 1.0000 0.8000 0.0000);fill-opacity:1;stroke:#121116;stroke:color(display-p3 0.0706 0.0667 0.0863);stroke-opacity:1;" stroke-width="1.2" stroke-linejoin="round"/>
<path id="Vector_74" fill-rule="evenodd" clip-rule="evenodd" d="M310.9 96.8L327.6 96.6C327.6 96.6 325.6 97.8 323.9 100.8C322.3 103.8 322.5 105.6 322.5 105.6C322.5 105.6 325 105.6 326.8 104.3C328.19 103.199 329.463 101.96 330.6 100.6V115.9C330.6 115.9 329.3 113.9 327.3 112.9C325.3 111.6 322.5 111.6 322.5 111.6H316.8C316.8 111.6 314.2 111.8 313.1 112.6C311.779 113.561 310.541 114.631 309.4 115.8L309.1 101.2C309.1 101.2 309.9 103.8 312.6 104.8C315.3 105.8 316.8 105.8 316.8 105.8C316.8 105.8 316.8 102.4 315.4 100.8C314.025 99.3323 312.519 97.9934 310.9 96.8Z" fill="#FFCC00" stroke="black" style="fill:#FFCC00;fill:color(display-p3 1.0000 0.8000 0.0000);fill-opacity:1;stroke:black;stroke-opacity:1;"/>
<path id="Vector_75" fill-rule="evenodd" clip-rule="evenodd" d="M320.2 108.8C320.2 108.8 322.6 114.5 325.5 117C327.1 118.5 332.1 119.6 334.3 119C339.3 117.7 342.9 113.7 342.9 113.7C342.9 113.7 342.7 118.1 345.9 120.6C348.9 122.933 351.633 123.7 354.1 122.9C356.8 122.2 364.1 116.7 364.1 116.7L365.7 118C365.7 118 361.4 122.2 357 124.3C354.7 125.5 347.7 124.8 345.5 123C343.2 121.2 341.9 116.9 341.9 116.9C341.9 116.9 340.5 119.7 337.5 120.7C334.5 121.7 330.5 121.7 326.6 120.5C324.1 119.7 320.7 116.2 320.1 115C319.5 113.9 319.7 113.2 319.7 113.2C319.7 113.2 317.7 118.6 313.9 120.1C310.2 121.419 306.182 121.559 302.4 120.5C298.8 119.5 298.5 117.4 298.5 117.4C298.5 117.4 298.3 123.1 290.5 124.7C282.5 126.3 276.3 120.6 276.3 120.6L277.4 118.9C277.4 118.9 281.8 123.9 288.6 123.5C295.4 123.1 297.6 114.3 297.6 114.3C297.6 114.3 300.6 118.8 308.6 118.9C316.6 119 318.8 108.6 318.8 108.6L320.2 108.8Z" fill="#F6CA1F" stroke="black" style="fill:#F6CA1F;fill:color(display-p3 0.9647 0.7922 0.1216);fill-opacity:1;stroke:black;stroke-opacity:1;" stroke-width="0.9"/>
<g id="Group_10">
<path id="Vector_76" fill-rule="evenodd" clip-rule="evenodd" d="M300.6 112.1C300.6 112.1 300.6 109.4 301.3 108.5C302.1 107.4 303.3 107.3 303.9 107.5C304.5 107.7 305.3 108.3 305.2 110.3C305.1 112.3 304.5 113.1 305.2 113.9C305.7 114.6 305.8 115.1 306.9 114.9C307.967 114.833 308.4 114.333 308.2 113.4C307.9 112 307.7 113.4 307.5 112.6C307.3 111.8 308.5 108 308.3 105.7C308.1 103.5 307.3 101.7 305.5 101.2C303.967 100.667 302.467 100.9 301 101.9C299.6 102.9 297.7 106.4 297.7 106.4V113.9L300.7 113.7V112.1H300.6Z" fill="#FFCC00" stroke="black" style="fill:#FFCC00;fill:color(display-p3 1.0000 0.8000 0.0000);fill-opacity:1;stroke:black;stroke-opacity:1;" stroke-width="1.1"/>
<path id="Vector_77" fill-rule="evenodd" clip-rule="evenodd" d="M295 114.1C295 114.1 293.8 111.6 293 111.1C292.569 110.872 292.088 110.753 291.6 110.753C291.112 110.753 290.632 110.872 290.2 111.1C289.6 111.6 289.2 112.5 290.1 114.2C291 115.9 291.8 116.6 291.5 117.5C291.3 118.4 291.5 118.9 290.4 119.2C289.334 119.533 288.7 119.2 288.5 118.2C288.3 117.2 289.1 118.2 288.9 117.2C288.8 116.4 286.1 113.5 285.4 111.3C284.6 109.1 284.867 107.367 286.2 106.1C287.4 105.033 288.834 104.633 290.5 104.9C292.3 105.3 295.4 107.8 295.4 107.8L298.4 114.6L295.6 115.6L295 114.1Z" fill="#FFCC00" stroke="black" style="fill:#FFCC00;fill:color(display-p3 1.0000 0.8000 0.0000);fill-opacity:1;stroke:black;stroke-opacity:1;" stroke-width="1.1"/>
<path id="Vector_78" fill-rule="evenodd" clip-rule="evenodd" d="M294.4 92.1C294.4 92.1 291.4 97.1 292.1 100.9C292.8 104.7 296.7 112.9 296.7 112.9V113.9L298.9 113.7L298.4 112.6C298.4 112.6 299.4 102.8 298.8 99.7C297.679 96.9819 296.199 94.426 294.4 92.1ZM299.1 114.8C299.1 114.8 300.6 116.5 302.3 117.4C304.3 118.3 305.1 118.4 305.8 117.7C306.4 117.3 306.2 115.5 305.5 115C304.8 114.5 304.1 114.8 304 115.3C303.867 116.033 303.533 116.167 303 115.7C302 115.3 300 114 300 114L299.1 114.8ZM296.8 115.2C296.8 115.2 296.2 117.4 295 118.9C293.6 120.5 292.9 120.9 292 120.6C291.3 120.5 290.7 118.8 291.1 118C291.5 117.3 292.3 117.2 292.6 117.6C293 118.267 293.367 118.267 293.7 117.6L295.7 114.9L296.8 115.2Z" fill="#FFCC00" stroke="black" style="fill:#FFCC00;fill:color(display-p3 1.0000 0.8000 0.0000);fill-opacity:1;stroke:black;stroke-opacity:1;" stroke-width="1.1"/>
<path id="Vector_79" d="M302.4 113.4C302.6 114 300.6 114.9 298.1 115.3C295.6 115.7 293.5 115.6 293.3 114.9C293.3 114.3 295.2 113.4 297.7 112.9C300.2 112.4 302.3 112.7 302.4 113.4Z" fill="#FFCC00" stroke="black" style="fill:#FFCC00;fill:color(display-p3 1.0000 0.8000 0.0000);fill-opacity:1;stroke:black;stroke-opacity:1;" stroke-width="1.1" stroke-linejoin="round"/>
</g>
<g id="Group_11">
<path id="Vector_80" fill-rule="evenodd" clip-rule="evenodd" d="M345.6 113.2C345.6 113.2 346.6 110.7 347.6 110.1C348.7 109.3 349.8 109.6 350.3 110.1C350.9 110.4 351.3 111.3 350.6 113.1C349.8 114.8 349 115.5 349.2 116.4C349.5 117.4 349.4 117.8 350.5 118C351.633 118.333 352.233 118 352.3 117C352.4 116 351.8 117 351.9 116C351.9 115.2 354.5 112.1 355.1 110C355.766 107.667 355.433 105.9 354.1 104.7C352.766 103.633 351.266 103.333 349.6 103.8C347.9 104.3 344.9 106.9 344.9 106.9L342.3 113.9L345.2 114.8L345.6 113.2Z" fill="#FFCC00" stroke="black" style="fill:#FFCC00;fill:color(display-p3 1.0000 0.8000 0.0000);fill-opacity:1;stroke:black;stroke-opacity:1;" stroke-width="1.1"/>
<path id="Vector_81" fill-rule="evenodd" clip-rule="evenodd" d="M339.7 113.1C339.7 113.1 339.5 110.4 338.8 109.6C337.9 108.5 336.8 108.5 336.2 108.6C335.5 108.9 334.8 109.6 335 111.5C335.2 113.5 335.8 114.3 335.3 115.1C334.8 115.9 334.7 116.3 333.6 116.2C332.467 116.2 331.967 115.733 332.1 114.8C332.3 113.8 332.7 114.8 332.9 113.9C333 113.1 331.6 109.4 331.7 107.1C331.7 104.9 332.5 103.1 334.2 102.5C335.733 101.833 337.233 102 338.7 103C340.2 104 342.3 107.3 342.3 107.3L342.7 114.7H339.7V113.1Z" fill="#FFCC00" stroke="black" style="fill:#FFCC00;fill:color(display-p3 1.0000 0.8000 0.0000);fill-opacity:1;stroke:black;stroke-opacity:1;" stroke-width="1.1"/>
<path id="Vector_82" fill-rule="evenodd" clip-rule="evenodd" d="M346.8 92.3C346.8 92.3 342.3 95.9 341.6 99.7C340.9 103.5 341.7 112.5 341.7 112.5L341.4 113.5L343.4 114.1V112.9C343.4 112.9 347.8 104.1 348.3 100.9C348.195 97.9783 347.69 95.0847 346.8 92.3ZM343.3 115.2C343.3 115.2 344.1 117.3 345.4 118.7C346.9 120.3 347.6 120.6 348.5 120.3C349.2 120.1 349.6 118.3 349.2 117.7C348.8 117.1 348 117 347.7 117.4C347.3 118 346.933 118 346.6 117.4L344.4 114.8L343.3 115.2ZM341 114.7C341 114.7 339.7 116.6 338 117.5C336.1 118.6 335.3 118.7 334.5 118.1C333.9 117.8 334 116 334.6 115.4C335.4 115 335.933 115.067 336.2 115.6C336.4 116.267 336.733 116.4 337.2 116L340 114L341 114.7Z" fill="#FFCC00" stroke="black" style="fill:#FFCC00;fill:color(display-p3 1.0000 0.8000 0.0000);fill-opacity:1;stroke:black;stroke-opacity:1;" stroke-width="1.1"/>
<path id="Vector_83" d="M346.9 115C346.8 115.7 344.6 115.8 342.1 115.3C339.6 114.8 337.7 113.9 337.8 113.3C337.9 112.7 340.1 112.5 342.6 113C345.1 113.5 347 114.4 346.9 115Z" fill="#FFCC00" stroke="black" style="fill:#FFCC00;fill:color(display-p3 1.0000 0.8000 0.0000);fill-opacity:1;stroke:black;stroke-opacity:1;" stroke-width="1.1" stroke-linejoin="round"/>
</g>
<path id="Vector_84" fill-rule="evenodd" clip-rule="evenodd" d="M279 129.9C279 129.9 279.6 131.9 280.7 130.9C281.9 129.8 298 123.4 320.7 123.4C343.4 123.4 358.2 129.7 359.1 130.1C360 130.4 360.4 130.9 361.1 130.1C361.9 129.1 360.4 127.8 360.4 127.8C360.4 127.8 344.6 121.1 320 121.2C295.3 121.3 279.4 128.3 279.4 128.3C279.4 128.3 278.4 129.1 279.1 129.9H279Z" fill="#CCA715" stroke="black" style="fill:#CCA715;fill:color(display-p3 0.8000 0.6549 0.0824);fill-opacity:1;stroke:black;stroke-opacity:1;" stroke-width="0.5"/>
<path id="Vector_85" fill-rule="evenodd" clip-rule="evenodd" d="M307.9 139.3C307.9 139.3 308.6 137.3 309.9 136.9C310.9 136.6 312.4 137.6 312.4 137.6C312.4 137.6 310.5 137.4 309.9 137.8C309.4 138.1 309.2 139 309.2 139C309.2 139 309.6 138.2 311.1 138.3H312.7C312.7 138.3 310.2 138.6 309.7 139.3C309.2 140 312 140.3 312 140.3C312 140.3 307.5 140.3 307 140.1C306.5 139.9 306 138.9 305 139.1C304 139.5 303 140.4 303 140.4C303 140.4 304.1 138.4 304.8 138.4C305.5 138.4 306 138.4 306.6 138.7L307.9 139.3ZM291.1 142.9C291.1 142.9 291.4 140.9 292.6 140.2C293.6 139.7 295.3 140.4 295.3 140.4C295.3 140.4 293.3 140.6 292.8 141C292.3 141.4 292.4 142.4 292.4 142.4C292.4 142.4 292.7 141.6 294.1 141.4L295.7 141.1C295.7 141.1 293.3 141.8 292.9 142.6C292.4 143.4 295.4 143.2 295.4 143.2C295.4 143.2 291 144 290.4 143.9C289.7 143.7 289.2 142.9 288.3 143.4C287.4 143.9 286.5 144.9 286.5 144.9C286.5 144.9 287.3 142.8 288 142.6C288.7 142.4 289 142.4 289.8 142.6L291.1 142.9ZM322 138.6C322 138.6 322.8 136.6 324 136.3C325.2 136 326.7 137.1 326.7 137.1C326.7 137.1 324.7 136.8 324.1 137.1C323.6 137.4 323.4 138.3 323.4 138.3C323.4 138.3 323.8 137.6 325.3 137.8L326.9 137.9C326.9 137.9 324.4 137.9 323.8 138.7C323.2 139.3 326.1 139.8 326.1 139.8C326.1 139.8 321.6 139.6 321.1 139.3C320.6 139 320.1 138.1 319.1 138.3C318.1 138.5 317.1 139.3 317.1 139.3C317.1 139.3 318.3 137.5 319 137.5C319.7 137.5 320.1 137.5 320.8 137.9L322 138.6ZM336.1 140.2C336.1 140.2 337.1 138.3 338.5 138.2C339.5 138 340.9 139.2 340.9 139.2C340.9 139.2 339.1 138.8 338.4 139C337.7 139.2 337.5 140 337.5 140C337.5 140 338 139.4 339.5 139.7L341.1 140.1C341.1 140.1 338.6 139.9 337.9 140.5C337.2 141.1 340 141.9 340 141.9C340 141.9 335.6 141.1 335 140.8C334.6 140.4 334.3 139.4 333.3 139.5C332.3 139.6 331.1 140.3 331.1 140.3C331.1 140.3 332.6 138.7 333.3 138.8C333.967 138.8 334.533 138.967 335 139.3L336.1 140.2ZM350.1 142.7C350.1 142.7 351.1 141.3 352.2 141.2C353.1 141.2 354.1 142.3 354.1 142.3C354.1 142.3 352.6 141.8 352.1 141.9C351.6 142 351.3 142.7 351.3 142.7C351.3 142.7 351.8 142.2 352.9 142.6L354.2 143C354.2 143 352.2 142.6 351.6 143C351 143.4 353.2 144.4 353.2 144.4C353.2 144.4 349.7 143.4 349.2 143.1C348.9 142.8 348.8 142 348 142C347.1 142 346.1 142.5 346.1 142.5C346.1 142.5 347.4 141.2 348 141.4C348.467 141.4 348.9 141.567 349.3 141.9L350.1 142.7Z" fill="black" style="fill:black;fill-opacity:1;"/>
<path id="Vector_86" d="M305 129.7C305.4 131.4 303.4 133.2 300.6 133.7C297.8 134.2 295.3 133.4 295 131.7C294.7 130 296.6 128.3 299.4 127.7C302.2 127.1 304.7 128 305 129.7Z" fill="#0F6545" stroke="black" style="fill:#0F6545;fill:color(display-p3 0.0588 0.3961 0.2706);fill-opacity:1;stroke:black;stroke-opacity:1;" stroke-width="0.7" stroke-linejoin="round"/>
<path id="Vector_87" d="M298.8 129.4C298.8 129.867 298.467 130.2 297.8 130.4C297.133 130.467 296.7 130.3 296.5 129.9C296.5 129.433 296.833 129.1 297.5 128.9C298.167 128.9 298.6 129.067 298.8 129.4Z" fill="#CECFC1" style="fill:#CECFC1;fill:color(display-p3 0.8078 0.8118 0.7569);fill-opacity:1;"/>
<path id="Vector_88" d="M344.1 131.8C343.6 133.4 341.1 134 338.3 133.2C335.5 132.4 333.9 130.3 334.3 128.7C334.9 127.1 337.5 126.4 340.2 127.3C342.9 128.2 344.7 130.1 344.2 131.7L344.1 131.8Z" fill="#0F6545" stroke="black" style="fill:#0F6545;fill:color(display-p3 0.0588 0.3961 0.2706);fill-opacity:1;stroke:black;stroke-opacity:1;" stroke-width="0.7" stroke-linejoin="round"/>
<path id="Vector_89" d="M338.8 128.5C338.6 128.967 338.167 129.1 337.5 128.9C336.833 128.633 336.533 128.3 336.6 127.9C336.8 127.433 337.233 127.267 337.9 127.4C338.567 127.667 338.867 128 338.8 128.4V128.5Z" fill="#CECFC1" style="fill:#CECFC1;fill:color(display-p3 0.8078 0.8118 0.7569);fill-opacity:1;"/>
<path id="Vector_90" d="M314.6 126H324.7V131H314.6V126Z" fill="#1F2D86" stroke="black" style="fill:#1F2D86;fill:color(display-p3 0.1216 0.1765 0.5255);fill-opacity:1;stroke:black;stroke-opacity:1;" stroke-linejoin="round"/>
<path id="Vector_91" d="M318.9 127C318.9 127.333 318.567 127.5 317.9 127.5C316.9 127.5 316.9 127.3 316.9 127C316.967 126.733 317.3 126.6 317.9 126.6C318.7 126.6 319.033 126.733 318.9 127Z" fill="#707C8B" style="fill:#707C8B;fill:color(display-p3 0.4392 0.4863 0.5451);fill-opacity:1;"/>
<path id="Vector_92" fill-rule="evenodd" clip-rule="evenodd" d="M286 131L287.6 136L284.6 137.7C284.6 137.7 283.1 138.7 281.6 137.9C280.2 137.2 279.4 134.9 280.2 133.9C281.7 132.1 285.9 130.9 285.9 131H286Z" fill="#9F1209" stroke="black" style="fill:#9F1209;fill:color(display-p3 0.6235 0.0706 0.0353);fill-opacity:1;stroke:black;stroke-opacity:1;" stroke-width="0.5"/>
<path id="Vector_93" d="M283.4 134.6C283.333 135.467 282.833 135.967 281.9 136.1C280.5 136.3 280.5 135.4 280.5 134.6C280.567 133.667 281.033 133.167 281.9 133.1C283.2 133 283.4 133.7 283.4 134.6Z" fill="#8F322F" style="fill:#8F322F;fill:color(display-p3 0.5608 0.1961 0.1843);fill-opacity:1;"/>
<path id="Vector_94" d="M282 134L281.8 134.7H281.3L280.9 134.2L281.1 133.5L281.6 133.4C281.867 133.4 282 133.6 282 134Z" fill="#E2A494" style="fill:#E2A494;fill:color(display-p3 0.8863 0.6431 0.5804);fill-opacity:1;"/>
<path id="Vector_95" fill-rule="evenodd" clip-rule="evenodd" d="M353.9 131.7L352.2 136.1L356.2 138.1C356.2 138.1 357.9 138.9 359 138C360.1 137.1 360.2 135.2 359.4 134.3C358.6 133.4 353.8 131.7 353.9 131.7Z" fill="#9F1209" stroke="black" style="fill:#9F1209;fill:color(display-p3 0.6235 0.0706 0.0353);fill-opacity:1;stroke:black;stroke-opacity:1;" stroke-width="0.5"/>
<path id="Vector_96" d="M358.6 135.2C358.533 135.867 358.1 136.2 357.3 136.2C356.1 136.2 356.1 135.8 356.1 135.2C356.1 134.6 356.7 134.2 357.3 134.2C358.1 134.267 358.533 134.6 358.6 135.2Z" fill="#AA675D" style="fill:#AA675D;fill:color(display-p3 0.6667 0.4039 0.3647);fill-opacity:1;"/>
<path id="Vector_97" d="M357.4 135C357.4 135.333 357.3 135.567 357.1 135.7H356.5L356.2 135.1C356.2 134.767 356.3 134.567 356.5 134.5H357.1C357.3 134.5 357.4 134.7 357.4 135.1V135Z" fill="#E2A494" style="fill:#E2A494;fill:color(display-p3 0.8863 0.6431 0.5804);fill-opacity:1;"/>
<path id="Vector_98" d="M328.6 126.4C328.546 126.58 328.442 126.741 328.301 126.865C328.159 126.989 327.986 127.07 327.8 127.1C327.633 127.054 327.48 126.965 327.358 126.843C327.235 126.72 327.146 126.567 327.1 126.4C327.146 126.233 327.235 126.08 327.358 125.957C327.48 125.835 327.633 125.746 327.8 125.7C328.267 125.7 328.534 125.933 328.6 126.4ZM332.9 126.6C332.854 126.767 332.766 126.92 332.643 127.043C332.52 127.165 332.368 127.254 332.2 127.3C332.015 127.27 331.841 127.189 331.7 127.065C331.558 126.941 331.454 126.78 331.4 126.6C331.469 126.439 331.579 126.298 331.72 126.193C331.86 126.087 332.026 126.021 332.2 126C332.6 126 332.834 126.2 332.9 126.6ZM330.7 128.3C330.7 128.833 330.367 129.133 329.7 129.2C328.7 129.3 328.9 128.8 328.9 128.3C328.9 127.8 329.3 127.4 329.8 127.4C330.3 127.4 330.7 127.8 330.7 128.4V128.3ZM332.7 131.1C332.664 131.256 332.59 131.401 332.486 131.523C332.381 131.645 332.249 131.74 332.1 131.8C331.915 131.77 331.741 131.689 331.6 131.565C331.458 131.441 331.354 131.28 331.3 131.1C331.346 130.933 331.435 130.78 331.558 130.657C331.68 130.535 331.833 130.446 332 130.4C332.534 130.4 332.8 130.633 332.8 131.1H332.7ZM328.6 130.6C328.554 130.767 328.466 130.92 328.343 131.043C328.22 131.165 328.068 131.254 327.9 131.3C327.733 131.254 327.58 131.165 327.458 131.043C327.335 130.92 327.246 130.767 327.2 130.6C327.246 130.433 327.335 130.28 327.458 130.157C327.58 130.035 327.733 129.946 327.9 129.9C328.3 129.9 328.534 130.133 328.6 130.6ZM307.7 127.1C307.689 127.264 307.638 127.423 307.551 127.563C307.463 127.702 307.343 127.818 307.2 127.9C307.019 127.906 306.839 127.863 306.681 127.775C306.522 127.687 306.391 127.557 306.3 127.4C306.321 127.226 306.388 127.06 306.493 126.92C306.598 126.779 306.739 126.669 306.9 126.6C307.064 126.611 307.223 126.662 307.363 126.75C307.502 126.837 307.618 126.957 307.7 127.1ZM312 126.4C311.979 126.574 311.913 126.74 311.807 126.88C311.702 127.021 311.562 127.131 311.4 127.2C311.236 127.189 311.077 127.137 310.938 127.05C310.798 126.963 310.682 126.843 310.6 126.7C310.611 126.536 310.663 126.377 310.75 126.237C310.837 126.098 310.958 125.982 311.1 125.9C311.282 125.894 311.461 125.937 311.62 126.025C311.778 126.113 311.91 126.243 312 126.4ZM310.2 128.5C310.2 129.1 310 129.433 309.6 129.5C309.376 129.54 309.145 129.503 308.945 129.394C308.745 129.284 308.588 129.11 308.5 128.9C308.4 128.5 308.7 127.9 309.2 127.9C309.409 127.883 309.617 127.931 309.797 128.039C309.976 128.147 310.117 128.308 310.2 128.5ZM312.9 130.8C312.889 130.964 312.838 131.123 312.751 131.263C312.663 131.402 312.543 131.518 312.4 131.6C312.219 131.606 312.04 131.563 311.881 131.475C311.722 131.387 311.591 131.257 311.5 131.1C311.511 130.936 311.563 130.777 311.65 130.637C311.737 130.498 311.858 130.382 312 130.3C312.182 130.294 312.361 130.337 312.52 130.425C312.678 130.513 312.81 130.643 312.9 130.8ZM308.7 131.2C308.689 131.364 308.638 131.523 308.551 131.663C308.463 131.802 308.343 131.918 308.2 132C308.019 132.006 307.839 131.963 307.681 131.875C307.522 131.787 307.391 131.657 307.3 131.5C307.321 131.326 307.388 131.16 307.493 131.02C307.598 130.879 307.739 130.769 307.9 130.7C308.064 130.711 308.223 130.762 308.363 130.85C308.502 130.937 308.618 131.057 308.7 131.2ZM289.5 131C289.536 131.187 289.517 131.381 289.446 131.558C289.376 131.736 289.255 131.889 289.1 132C288.928 132.017 288.755 131.989 288.598 131.918C288.44 131.848 288.303 131.739 288.2 131.6C288.165 131.412 288.183 131.219 288.254 131.042C288.325 130.864 288.445 130.711 288.6 130.6C288.788 130.564 288.982 130.583 289.159 130.654C289.336 130.725 289.489 130.845 289.6 131H289.5ZM293.6 129.7C293.636 129.887 293.617 130.081 293.546 130.258C293.476 130.436 293.355 130.589 293.2 130.7C293.019 130.706 292.839 130.663 292.681 130.575C292.522 130.487 292.391 130.357 292.3 130.2C292.284 130.028 292.312 129.855 292.382 129.697C292.452 129.54 292.562 129.403 292.7 129.3C292.888 129.264 293.082 129.283 293.259 129.354C293.436 129.425 293.589 129.545 293.7 129.7H293.6ZM292.2 132.1C292.226 132.297 292.192 132.498 292.103 132.676C292.014 132.855 291.874 133.002 291.7 133.1C291.498 133.157 291.283 133.149 291.086 133.078C290.888 133.006 290.718 132.874 290.6 132.7C290.552 132.487 290.575 132.264 290.665 132.066C290.756 131.867 290.908 131.704 291.1 131.6C291.313 131.552 291.536 131.575 291.734 131.665C291.933 131.755 292.097 131.908 292.2 132.1ZM295.2 133.9C295.236 134.087 295.217 134.281 295.146 134.458C295.075 134.636 294.955 134.789 294.8 134.9C294.4 134.9 294.067 134.733 293.8 134.4C293.4 133.9 293.9 133.7 294.3 133.5C294.472 133.483 294.645 133.511 294.803 133.581C294.961 133.652 295.098 133.761 295.2 133.9ZM291.1 134.9C291.136 135.087 291.117 135.281 291.046 135.458C290.976 135.636 290.855 135.789 290.7 135.9C290.513 135.936 290.319 135.917 290.142 135.846C289.965 135.775 289.811 135.655 289.7 135.5C289.652 135.403 289.627 135.296 289.627 135.188C289.627 135.079 289.653 134.972 289.701 134.875C289.749 134.778 289.82 134.694 289.906 134.629C289.993 134.564 290.094 134.52 290.2 134.5C290.388 134.464 290.582 134.483 290.759 134.554C290.936 134.625 291.089 134.745 291.2 134.9H291.1ZM347.3 129.1C347.167 129.5 346.834 129.667 346.3 129.6C346.127 129.502 345.987 129.355 345.897 129.176C345.808 128.998 345.775 128.797 345.8 128.6C345.867 128.267 346.2 128.133 346.8 128.2C347.2 128.333 347.367 128.633 347.3 129.1ZM351.7 130.4C351.634 130.867 351.334 131.067 350.8 131C350.608 130.917 350.447 130.776 350.339 130.596C350.232 130.417 350.183 130.208 350.2 130C350.334 129.6 350.667 129.433 351.2 129.5C351.6 129.633 351.767 129.967 351.7 130.5V130.4ZM349 131.6C348.931 131.829 348.782 132.025 348.58 132.154C348.378 132.282 348.137 132.334 347.9 132.3C347.653 132.251 347.433 132.111 347.284 131.907C347.136 131.703 347.07 131.45 347.1 131.2C347.171 130.951 347.335 130.738 347.559 130.608C347.783 130.477 348.049 130.438 348.3 130.5C348.834 130.7 349.067 131.067 349 131.6ZM350.5 135.1C350.367 135.5 350.034 135.667 349.5 135.6C349.343 135.509 349.214 135.378 349.126 135.219C349.037 135.061 348.994 134.881 349 134.7C349.067 134.3 349.367 134.133 349.9 134.2C350.367 134.333 350.567 134.667 350.5 135.2V135.1ZM346.2 133.5C346.067 133.9 345.767 134.067 345.3 134C345.143 133.909 345.014 133.778 344.926 133.619C344.837 133.461 344.794 133.281 344.8 133.1C344.934 132.7 345.234 132.533 345.7 132.6C346.1 132.733 346.267 133.033 346.2 133.5Z" fill="#F5D8BC" style="fill:#F5D8BC;fill:color(display-p3 0.9608 0.8471 0.7373);fill-opacity:1;"/>
<path id="Vector_99" d="M356 89C356 89 354 90.9 351.5 90.9C349.825 90.9345 348.192 90.3668 346.9 89.3C346.1 88.8 347.1 87.3 347.1 87.3" stroke="black" style="stroke:black;stroke-opacity:1;" stroke-width="1.2"/>
<path id="Vector_100" d="M312.9 92.8C312.9 92.8 309.2 92.1 307.6 91.6C306 91.1 306.5 90.1 304.6 90.2C302.9 90.3 301.1 91.6 301.5 93.4C301.9 95.2 303.2 95.4 304.5 95.1C305.7 94.7 305.3 92.5 303.7 92.7C302 92.7 303.4 94.2 303.4 94.2" stroke="black" style="stroke:black;stroke-opacity:1;" stroke-width="1.1"/>
<path id="Vector_101" d="M287.3 90C287.3 90 288.3 91.5 291 91.2C293.7 91 294.7 89.6 294.8 88.9C295 88.3 294.8 87.1 294.3 86.6C293.8 86.1 292 85.9 292 85.9" stroke="black" style="stroke:black;stroke-opacity:1;"/>
<g id="Group_12">
<g id="Vector_102">
<path d="M339.2 270.4C341.7 267.9 345.7 265.2 347.9 259.4C349.9 253.8 350.9 243.7 352.9 238.6C355.4 229.8 360.4 221.2 354.4 221.8C348.7 222.4 346.9 227.8 344.8 231.8C343.8 233.3 341.5 236.5 341.1 238.3C341 235.3 339.4 226.4 339.1 217.5C338.8 209.1 339.1 200.5 338.8 197.2C338.6 192.9 338.6 188.9 337.6 185.8C337.1 184.3 335 182.8 333.8 182.9C331.6 182.9 330.2 184.9 329.8 186.8L329.6 189.6C329.4 192 329.6 195.1 329.4 197.9C329.3 200.9 329.6 204.1 329.4 206.9C329.2 212.3 328.8 217.4 328.6 218.4C328.6 216.4 327.6 206.7 327.3 197.5L327.1 187.5C327.1 184.9 327.1 182.1 326.9 180.1C326.5 176.767 325.167 175.1 322.9 175.1C321.1 175.1 318.7 176.4 317.9 180.1C317.633 182.233 317.533 184.7 317.6 187.5L317.8 195.5C317.6 206 317.4 217 317 220.3C317 219.3 315.9 213.8 315.6 206.4L315.2 196.8L314.9 187.2C314.9 185.6 314.2 181 311.2 181.2C309.5 181 307.8 182.2 307.2 186.5C306.8 189 306.8 193.1 306.7 196.4C306.6 202.4 306.3 207.8 306.7 213.3L306.8 221C306.8 221.4 305.9 218.1 305.5 213.6L304.7 205C304.7 202.7 304.6 199.3 304.4 196.5C304.2 194.4 304.3 192 301.9 192.2C299.5 192.3 298.1 193.2 297.6 197.2C297.2 199.9 297.2 205.7 297.1 207.7C297.3 213 295.9 225.4 295.3 228.9C295.1 231.4 294.1 234.6 293.7 238.1C293.015 244.978 293.352 251.92 294.7 258.7C296.7 265.7 301.7 268.9 301.5 273.7C301.3 278.5 301.5 287 301.5 290.7C301.5 294.5 304.8 294.7 311.5 293.3C322.7 290.9 328.8 295.7 337.9 292.1C336.8 281.7 339 275.4 338.9 271.6L339.2 270.4ZM332.7 245.7C335 239.3 337.9 236.8 340.7 235.5Z" fill="#CC0000" style="fill:#CC0000;fill:color(display-p3 0.8000 0.0000 0.0000);fill-opacity:1;"/>
<path d="M332.7 245.7C335 239.3 337.9 236.8 340.7 235.5M339.2 270.4C341.7 267.9 345.7 265.2 347.9 259.4C349.9 253.8 350.9 243.7 352.9 238.6C355.4 229.8 360.4 221.2 354.4 221.8C348.7 222.4 346.9 227.8 344.8 231.8C343.8 233.3 341.5 236.5 341.1 238.3C341 235.3 339.4 226.4 339.1 217.5C338.8 209.1 339.1 200.5 338.8 197.2C338.6 192.9 338.6 188.9 337.6 185.8C337.1 184.3 335 182.8 333.8 182.9C331.6 182.9 330.2 184.9 329.8 186.8L329.6 189.6C329.4 192 329.6 195.1 329.4 197.9C329.3 200.9 329.6 204.1 329.4 206.9C329.2 212.3 328.8 217.4 328.6 218.4C328.6 216.4 327.6 206.7 327.3 197.5L327.1 187.5C327.1 184.9 327.1 182.1 326.9 180.1C326.5 176.767 325.167 175.1 322.9 175.1C321.1 175.1 318.7 176.4 317.9 180.1C317.633 182.233 317.533 184.7 317.6 187.5L317.8 195.5C317.6 206 317.4 217 317 220.3C317 219.3 315.9 213.8 315.6 206.4L315.2 196.8L314.9 187.2C314.9 185.6 314.2 181 311.2 181.2C309.5 181 307.8 182.2 307.2 186.5C306.8 189 306.8 193.1 306.7 196.4C306.6 202.4 306.3 207.8 306.7 213.3L306.8 221C306.8 221.4 305.9 218.1 305.5 213.6L304.7 205C304.7 202.7 304.6 199.3 304.4 196.5C304.2 194.4 304.3 192 301.9 192.2C299.5 192.3 298.1 193.2 297.6 197.2C297.2 199.9 297.2 205.7 297.1 207.7C297.3 213 295.9 225.4 295.3 228.9C295.1 231.4 294.1 234.6 293.7 238.1C293.015 244.978 293.352 251.92 294.7 258.7C296.7 265.7 301.7 268.9 301.5 273.7C301.3 278.5 301.5 287 301.5 290.7C301.5 294.5 304.8 294.7 311.5 293.3C322.7 290.9 328.8 295.7 337.9 292.1C336.8 281.7 339 275.4 338.9 271.6L339.2 270.4Z" stroke="#161111" style="stroke:#161111;stroke:color(display-p3 0.0863 0.0667 0.0667);stroke-opacity:1;" stroke-width="1.6"/>
</g>
<path id="Vector_103" d="M307.4 239.2C310.867 237.867 314.4 236.667 318 235.6C322.3 234.4 326.5 232.6 331 232C333 231.4 335.134 231.067 337.4 231M301.3 273C301.7 272.7 302.3 273.2 302.7 273.3C303.367 273.567 304.034 273.667 304.7 273.6H308.7C310.367 273.667 311.8 273.333 313 272.6M323 273.2L324.6 274.1C325.4 274.4 326.4 274.5 331.9 274.1C335.4 274.3 338.4 271.3 339.3 270.5" stroke="#161111" style="stroke:#161111;stroke:color(display-p3 0.0863 0.0667 0.0667);stroke-opacity:1;" stroke-width="1.6"/>
</g>
</g>
<defs>
<clipPath id="clip0_2194_3921">
<rect width="640" height="480" fill="white" style="fill:white;fill-opacity:1;"/>
</clipPath>
</defs>
</svg>
