<svg width="640" height="480" viewBox="0 0 640 480" fill="none" xmlns="http://www.w3.org/2000/svg">
<g id="gb-wls" clip-path="url(#clip0_2194_4043)">
<path id="Vector" d="M0 240H640V480H0V240Z" fill="#00AB39" style="fill:#00AB39;fill:color(display-p3 0.0000 0.6706 0.2235);fill-opacity:1;"/>
<path id="Vector_2" d="M0 0H640V240H0V0Z" fill="white" style="fill:white;fill-opacity:1;"/>
<g id="Group">
<g id="Vector_3">
<path d="M418.9 70.8C379.291 92.1178 341.848 117.236 307.1 145.8C290.1 160.7 294.9 172.5 294.2 185.8C294.8 194.8 292.3 203.2 286.8 208.2L249 215.8L245.4 205.4C246.5 200 250.9 197.4 260.3 200.7C261 193.9 255.4 191.1 249 188.7C246.7 186.9 244 185.7 244.3 179.7C243.3 166.2 264.9 180.7 265.1 180.7C265.3 180.7 264.3 167 254.4 164.3C249 162.4 246.7 156.7 248.8 152.5C253.1 143.8 261.3 153.1 267.5 153.5C267.3 147.8 265.7 143.8 260.8 139.3C258.2 137.6 251.8 136.4 251.6 133.7C251.5 130.1 257.6 128.5 266.1 129.5C264.3 124.4 258.6 121.1 250.8 118.7L246.2 110.6C244 106.6 243 106.4 248.1 98.8C252.6 95.8 258.7 91.6 263.3 88.7L258.3 88.1C258.9 82.6 259 80.7 260.3 71.6C255.3 78.3 249.3 77.1 243.7 79.8C243.7 79.8 228.1 82.6 223 89.3L183.6 87.3C175.2 88.4 168.1 90.8 166.7 98.9C147.6 100.9 127.6 99.2 113 117.4C123 117 131.6 114.6 142.8 116C142.8 116 152.3 116.2 154.2 126.3C154.4 126.7 157.5 126.7 157.5 126.7L161.1 129.5L162.5 125.7L165.7 127.9L166.7 123.7L169.9 125.9L170.1 120.9L174.3 123.9V117.2C174.3 117.2 189.9 117.2 194.7 127.2C194.9 127.3 151 135.2 108.6 131.5L120.8 125.5C105.4 122.3 90.7998 119.5 77.1998 108.8C82.2998 128.2 108.9 150.9 114.4 150.8L109.2 141.4L155.2 143.4C156.9 148.5 156.2 154.2 160.2 158.7C160.2 158.7 157.7 167.1 163.4 170.5C163.6 170.9 170.1 153.5 170.1 153.5C170.1 153.5 172.1 158.2 174.1 161.3C177.1 146.3 193.5 143.8 193.5 143.8L196.9 151.8C191.8 152.6 185.4 163 188.9 168.8C185.4 168.8 179.3 178.9 181.2 184.4C178.3 187.3 171.2 191.1 172.9 203.2C167.3 204.4 163.9 214.7 165.7 225.7C156.9 233.8 159.1 248.7 166.9 254.8C163.7 257.8 161.7 259.9 161.7 263.5C158.6 262.4 155.7 263.3 154.4 265.3C150.6 261.4 145.2 258.1 141.4 261.7C140.4 257.1 134.4 252.1 127.9 252.7C128.23 249.81 127.499 246.899 125.844 244.508C124.188 242.117 121.721 240.408 118.9 239.7C118.9 239.7 117.4 217.1 110.6 209.7C109.9 205.7 111 202.9 116.6 199.5C122.3 196.5 123.5 194.2 123 185.6C125.3 179.9 127 174.1 120 170.2C120.2 177 118.2 180.2 115.4 183.2C112.1 182.8 111 186.6 108.8 188.2C105.7 184.1 115.3 177.6 108.2 168.3C107.8 167.9 103.2 156.3 91.8998 156.5C97.1998 159.6 99.4998 164.9 99.4998 170.4C95.3042 179.61 94.663 190.046 97.6998 199.7C92.9998 192.7 90.2998 179.3 86.3998 177C82.9998 176.3 81.3998 168.3 68.0998 170.6C73.7998 172.1 75.6998 176.5 77.0998 180.4C73.6998 182.2 75.3998 187 77.9998 190.3C77.4998 198 82.0998 202.5 88.9998 205.3L85.5998 237C82.8998 236.7 78.5998 247.4 76.9998 247.7C74.2998 249.4 69.5998 253.9 74.9998 255.2C73.3998 260.9 71.8998 264.4 63.2998 265.6C63.2998 265.6 72.2998 271 79.8998 261.8C87.8998 261.6 85.2998 252 89.1998 247.8C89.1998 247.5 91.4998 246.1 94.6998 237.6C96.0998 245.2 103.9 268.4 121.4 279.9C136.7 296.3 149.4 311.8 149.2 333.6C155.075 327.139 159.296 319.35 161.5 310.9C171.477 307.907 181.902 306.688 192.3 307.3C190.5 311.2 188.4 314.9 191 317.3C183.6 319.9 182 325.3 185 330.6C177.2 335.9 176.7 339.3 176.6 348.1C162.1 366.6 153.2 366 138.9 361.1C134.3 358.4 126.9 354.5 123.6 356.6C117.5 352.4 108.6 351.8 107.1 361.2C111.8 357.3 114.5 358.1 118.2 361.8C117.5 363.7 116.9 365.5 119.6 366.6L116 370.6C109.4 369.6 100.4 369.6 98.0998 379.3C101.5 376.4 109.1 375.8 115.1 378.5L118.6 379.7L119 384.3C119 384.3 110 382.9 107.6 397.6C116 388.6 122 390.9 122 390.9C125.3 395.7 137.3 395 146 387.1C158.1 380.3 161.7 390.1 169.5 383.7C176 378.9 183.7 382.1 189 387.7C195.1 390 201.5 391.9 206.5 387.7C206.5 387.7 212.7 383.8 218.8 390.1C218.8 383.1 213.8 379.2 207 379.1L205 377.1C198.5 375.7 191.3 376.3 185.6 373.1C187.81 363.005 192.678 353.683 199.7 346.1C209 336.1 215.9 331.5 227.7 316.2C227.2 324.9 233.8 334.5 237.3 343.2C237.3 343.2 244.3 332.1 245.3 322.9C245.6 322.9 254.2 318.5 257.8 314.6C265.6 319.5 278.2 310.8 286.4 303.6C291.4 305.6 295.3 305.4 301.1 303.6C296.4 313.2 303.8 322.1 315.6 325.8C316.6 334.2 325.2 336 338.1 336C338.7 341 346.4 341.7 346.4 341.7C341.4 343.9 339 346.2 339.1 351.3C334.1 351.3 330.4 352.6 329.1 358.3C322.2 358.5 315.2 359 309.3 362.3C303 361.4 295.3 358.8 290.4 353.7C287.9 351.6 287.2 348.5 282.8 347.3C280 344 276.6 344.7 275.5 347.9C272.6 345.6 261.7 344.6 259.8 354.9C265 351.2 269.5 349.8 272.8 354.4C271 357.5 277 359.4 282.2 360.6C285.9 360.8 292.4 364.2 294.4 369.8C291.595 370.612 288.647 370.8 285.762 370.351C282.877 369.902 280.125 368.826 277.7 367.2C275.901 365.7 273.669 364.813 271.331 364.669C268.993 364.525 266.669 365.132 264.7 366.4C260.3 363.6 250 368.9 249.6 377.3C253.9 373.3 257.9 371.3 261.9 373.9C259.9 374.3 260.6 374.5 260.9 375.7L270.9 381.5C265.9 382.8 261.3 384.8 263.5 394C263.5 394 267.5 386 276.5 389C276.7 388.7 277.8 391.8 280.4 389.7C284.3 385.3 293.2 383.3 301.1 382.5C307.4 381.8 313.7 379.9 319.1 383.5C324.1 381 329.5 379.3 335.1 383.3C341.7 385.3 346.5 393.1 354.8 389.6C359 386.6 364.1 386.6 369.3 392.4C369.3 385 363.8 382.5 356 380.9L350.6 377.7C345.6 376.9 340.6 377.8 335.5 375.4C347.463 372.548 358.733 367.326 368.644 360.044C378.555 352.761 386.904 343.565 393.2 333L405.7 337.4C408.7 337.6 408.9 338.6 415 340.4C415.2 331.5 411.3 322.3 395.2 321.4L374.2 313.4C369.6 308.6 367.6 298.5 373.3 292.6C378.9 287.6 379.9 288.2 383.6 282.1C388.1 281.7 392.3 286.3 396.4 286.3C398.4 292.2 409.8 297.3 417 295.6C421.5 299.6 430 301.8 439.5 298.6C442.192 301.151 445.606 302.808 449.275 303.345C452.944 303.882 456.69 303.273 460 301.6C462.2 303.8 466.8 305.6 472 304.4C472.5 304.4 474.8 310.2 480.5 312.3C478 314.7 479.5 325.3 482.2 329.2C480.266 333.157 479.943 337.71 481.3 341.9C475.5 345.6 474.3 348.4 476.9 354.7C469.3 367 460.2 368.4 451.6 364.7L442.3 358.7L432.5 349.1C430.8 347.5 427.3 347.1 426.6 350.5C426.6 350.5 414 347.7 412.9 358.4C418.2 353.3 425.6 357.8 425.6 358C425.6 358.2 423.8 359.4 425.2 361.4C425.5 361.1 434.5 364.7 442.4 368.1C446.7 369.8 447.7 370.3 449.6 371.3L442.4 368.1C438.929 366.504 435.207 365.523 431.4 365.2C427 364.8 422.2 364.2 420 367.6C415.2 369.6 407.6 371.3 408 380.3C411.2 374.9 415.7 375.2 421.4 375.7L421 376.9C427.2 379.7 426 376.1 431.8 375.6C437.008 375.521 442.188 376.368 447.1 378.1C442.6 379.4 436.4 378.8 433.5 382.1C432.9 383.1 431 382.7 431.9 385.3C431.9 385.3 422.9 385.1 420.6 397.3C429.6 391.6 436.5 391.8 436.6 391.8L439.5 392.4L450.5 385.1C450.8 385.1 461.1 380.5 465.8 385.7C470 387.7 474.4 387.9 478.8 385.3C487.2 381.6 495.1 381.3 502.8 386.5L509.9 390.7L512.9 388.7C512.9 388.7 520.9 386.5 526.7 393.6C524.3 381.3 515.5 380.9 515.5 380.9L513.5 379.1L501.1 374.2C499.2 369.7 494.7 366.2 499.2 360.8C503.9 337.7 509.4 320.4 500.4 297C508.8 300.6 515.1 311.8 525.6 307.9C525.6 298.5 491 280.6 464.6 266.3C508 264 560 232.1 540 191.5L549.4 162.1C553.9 171.1 562.9 177.9 571 180.8C564.3 168.1 560.5 129.2 564.3 102.4C546.61 123.637 527.535 143.68 507.2 162.4C517.2 164.8 526.1 163.1 535.8 161.9L527.6 178.9C501 163.2 469.8 174.9 469.6 195.7C470.5 219.9 500.4 223.4 517.7 214.9C514.3 237 463.5 228.9 463.5 228.9C445.5 222.7 428.4 223.7 409.5 223.9C413.4 211.8 435.2 201 451.9 205.8C428.6 179.6 455.2 147.1 487.3 137.2C452.3 125.6 482.4 98.9 508.6 79.8C508.6 79.8 433.3 111.5 426.4 111.4C405 109.8 410.8 84.4 419 70.8H418.9ZM182.5 101.2C184.366 101.2 186.2 101.4 188 101.8C191.4 102.7 195.5 103.1 195.5 104.2C193.9 106.8 190 109.9 186.2 109.8C182.4 109.7 180.2 107.3 179 101.6C179.533 101.333 180.7 101.2 182.5 101.2ZM499.5 190.6C504.5 190.6 510.4 192.6 516.1 198.8C513.4 206.8 489.3 210.8 487.7 199C487.2 195.4 492.3 190.7 499.5 190.6Z" fill="#D21034" style="fill:#D21034;fill:color(display-p3 0.8235 0.0627 0.2039);fill-opacity:1;"/>
<path d="M442.4 368.1C434.5 364.7 425.5 361.1 425.2 361.4C423.8 359.4 425.6 358.2 425.6 358C425.6 357.8 418.2 353.3 412.9 358.4C414 347.7 426.6 350.5 426.6 350.5C427.3 347.1 430.8 347.5 432.5 349.1L442.3 358.7L451.6 364.7C460.2 368.4 469.3 367 476.9 354.7C474.3 348.4 475.5 345.6 481.3 341.9C479.943 337.71 480.266 333.157 482.2 329.2C479.5 325.3 478 314.7 480.5 312.3C474.8 310.2 472.5 304.4 472 304.4C466.8 305.6 462.2 303.8 460 301.6C456.69 303.273 452.944 303.882 449.275 303.345C445.606 302.808 442.192 301.151 439.5 298.6C430 301.8 421.5 299.6 417 295.6C409.8 297.3 398.4 292.2 396.4 286.3C392.3 286.3 388.1 281.7 383.6 282.1C379.9 288.2 378.9 287.6 373.3 292.6C367.6 298.5 369.6 308.6 374.2 313.4L395.2 321.4C411.3 322.3 415.2 331.5 415 340.4C408.9 338.6 408.7 337.6 405.7 337.4L393.2 333C386.904 343.565 378.555 352.761 368.644 360.044C358.733 367.326 347.463 372.548 335.5 375.4C340.6 377.8 345.6 376.9 350.6 377.7L356 380.9C363.8 382.5 369.3 385 369.3 392.4C364.1 386.6 359 386.6 354.8 389.6C346.5 393.1 341.7 385.3 335.1 383.3C329.5 379.3 324.1 381 319.1 383.5C313.7 379.9 307.4 381.8 301.1 382.5C293.2 383.3 284.3 385.3 280.4 389.7C277.8 391.8 276.7 388.7 276.5 389C267.5 386 263.5 394 263.5 394C261.3 384.8 265.9 382.8 270.9 381.5L260.9 375.7C260.6 374.5 259.9 374.3 261.9 373.9C257.9 371.3 253.9 373.3 249.6 377.3C250 368.9 260.3 363.6 264.7 366.4C266.669 365.132 268.993 364.525 271.331 364.669C273.669 364.813 275.901 365.7 277.7 367.2C280.125 368.826 282.877 369.902 285.762 370.351C288.647 370.8 291.595 370.612 294.4 369.8C292.4 364.2 285.9 360.8 282.2 360.6C277 359.4 271 357.5 272.8 354.4C269.5 349.8 265 351.2 259.8 354.9C261.7 344.6 272.6 345.6 275.5 347.9C276.6 344.7 280 344 282.8 347.3C287.2 348.5 287.9 351.6 290.4 353.7C295.3 358.8 303 361.4 309.3 362.3C315.2 359 322.2 358.5 329.1 358.3C330.4 352.6 334.1 351.3 339.1 351.3C339 346.2 341.4 343.9 346.4 341.7C346.4 341.7 338.7 341 338.1 336C325.2 336 316.6 334.2 315.6 325.8C303.8 322.1 296.4 313.2 301.1 303.6C295.3 305.4 291.4 305.6 286.4 303.6C278.2 310.8 265.6 319.5 257.8 314.6C254.2 318.5 245.6 322.9 245.3 322.9C244.3 332.1 237.3 343.2 237.3 343.2C233.8 334.5 227.2 324.9 227.7 316.2C215.9 331.5 209 336.1 199.7 346.1C192.678 353.683 187.81 363.005 185.6 373.1C191.3 376.3 198.5 375.7 205 377.1L207 379.1C213.8 379.2 218.8 383.1 218.8 390.1C212.7 383.8 206.5 387.7 206.5 387.7C201.5 391.9 195.1 390 189 387.7C183.7 382.1 176 378.9 169.5 383.7C161.7 390.1 158.1 380.3 146 387.1C137.3 395 125.3 395.7 122 390.9C122 390.9 116 388.6 107.6 397.6C110 382.9 119 384.3 119 384.3L118.6 379.7L115.1 378.5C109.1 375.8 101.5 376.4 98.0998 379.3C100.4 369.6 109.4 369.6 116 370.6L119.6 366.6C116.9 365.5 117.5 363.7 118.2 361.8C114.5 358.1 111.8 357.3 107.1 361.2C108.6 351.8 117.5 352.4 123.6 356.6C126.9 354.5 134.3 358.4 138.9 361.1C153.2 366 162.1 366.6 176.6 348.1C176.7 339.3 177.2 335.9 185 330.6C182 325.3 183.6 319.9 191 317.3C188.4 314.9 190.5 311.2 192.3 307.3C181.902 306.688 171.477 307.907 161.5 310.9C159.296 319.35 155.075 327.139 149.2 333.6C149.4 311.8 136.7 296.3 121.4 279.9C103.9 268.4 96.0998 245.2 94.6998 237.6C91.4998 246.1 89.1998 247.5 89.1998 247.8C85.2998 252 87.8998 261.6 79.8998 261.8C72.2998 271 63.2998 265.6 63.2998 265.6C71.8998 264.4 73.3998 260.9 74.9998 255.2C69.5998 253.9 74.2998 249.4 76.9998 247.7C78.5998 247.4 82.8998 236.7 85.5998 237L88.9998 205.3C82.0998 202.5 77.4998 198 77.9998 190.3C75.3998 187 73.6998 182.2 77.0998 180.4C75.6998 176.5 73.7998 172.1 68.0998 170.6C81.3998 168.3 82.9998 176.3 86.3998 177C90.2998 179.3 92.9998 192.7 97.6998 199.7C94.663 190.046 95.3042 179.61 99.4998 170.4C99.4998 164.9 97.1998 159.6 91.8998 156.5C103.2 156.3 107.8 167.9 108.2 168.3C115.3 177.6 105.7 184.1 108.8 188.2C111 186.6 112.1 182.8 115.4 183.2C118.2 180.2 120.2 177 120 170.2C127 174.1 125.3 179.9 123 185.6C123.5 194.2 122.3 196.5 116.6 199.5C111 202.9 109.9 205.7 110.6 209.7C117.4 217.1 118.9 239.7 118.9 239.7C121.721 240.408 124.188 242.117 125.844 244.508C127.499 246.899 128.23 249.81 127.9 252.7C134.4 252.1 140.4 257.1 141.4 261.7C145.2 258.1 150.6 261.4 154.4 265.3C155.7 263.3 158.6 262.4 161.7 263.5C161.7 259.9 163.7 257.8 166.9 254.8C159.1 248.7 156.9 233.8 165.7 225.7C163.9 214.7 167.3 204.4 172.9 203.2C171.2 191.1 178.3 187.3 181.2 184.4C179.3 178.9 185.4 168.8 188.9 168.8C185.4 163 191.8 152.6 196.9 151.8L193.5 143.8C193.5 143.8 177.1 146.3 174.1 161.3C172.1 158.2 170.1 153.5 170.1 153.5C170.1 153.5 163.6 170.9 163.4 170.5C157.7 167.1 160.2 158.7 160.2 158.7C156.2 154.2 156.9 148.5 155.2 143.4L109.2 141.4L114.4 150.8C108.9 150.9 82.2998 128.2 77.1998 108.8C90.7998 119.5 105.4 122.3 120.8 125.5L108.6 131.5C151 135.2 194.9 127.3 194.7 127.2C189.9 117.2 174.3 117.2 174.3 117.2V123.9L170.1 120.9L169.9 125.9L166.7 123.7L165.7 127.9L162.5 125.7L161.1 129.5L157.5 126.7C157.5 126.7 154.4 126.7 154.2 126.3C152.3 116.2 142.8 116 142.8 116C131.6 114.6 123 117 113 117.4C127.6 99.2 147.6 100.9 166.7 98.9C168.1 90.8 175.2 88.4 183.6 87.3L223 89.3C228.1 82.6 243.7 79.8 243.7 79.8C249.3 77.1 255.3 78.3 260.3 71.6C259 80.7 258.9 82.6 258.3 88.1L263.3 88.7C258.7 91.6 252.6 95.8 248.1 98.8C243 106.4 244 106.6 246.2 110.6L250.8 118.7C258.6 121.1 264.3 124.4 266.1 129.5C257.6 128.5 251.5 130.1 251.6 133.7C251.8 136.4 258.2 137.6 260.8 139.3C265.7 143.8 267.3 147.8 267.5 153.5C261.3 153.1 253.1 143.8 248.8 152.5C246.7 156.7 249 162.4 254.4 164.3C264.3 167 265.3 180.7 265.1 180.7C264.9 180.7 243.3 166.2 244.3 179.7C244 185.7 246.7 186.9 249 188.7C255.4 191.1 261 193.9 260.3 200.7C250.9 197.4 246.5 200 245.4 205.4L249 215.8L286.8 208.2C292.3 203.2 294.8 194.8 294.2 185.8C294.9 172.5 290.1 160.7 307.1 145.8C341.848 117.236 379.291 92.1178 418.9 70.8H419C410.8 84.4 405 109.8 426.4 111.4C433.3 111.5 508.6 79.8 508.6 79.8C482.4 98.9 452.3 125.6 487.3 137.2C455.2 147.1 428.6 179.6 451.9 205.8C435.2 201 413.4 211.8 409.5 223.9C428.4 223.7 445.5 222.7 463.5 228.9C463.5 228.9 514.3 237 517.7 214.9C500.4 223.4 470.5 219.9 469.6 195.7C469.8 174.9 501 163.2 527.6 178.9L535.8 161.9C526.1 163.1 517.2 164.8 507.2 162.4C527.535 143.68 546.61 123.637 564.3 102.4C560.5 129.2 564.3 168.1 571 180.8C562.9 177.9 553.9 171.1 549.4 162.1L540 191.5C560 232.1 508 264 464.6 266.3C491 280.6 525.6 298.5 525.6 307.9C515.1 311.8 508.8 300.6 500.4 297C509.4 320.4 503.9 337.7 499.2 360.8C494.7 366.2 499.2 369.7 501.1 374.2L513.5 379.1L515.5 380.9C515.5 380.9 524.3 381.3 526.7 393.6C520.9 386.5 512.9 388.7 512.9 388.7L509.9 390.7L502.8 386.5C495.1 381.3 487.2 381.6 478.8 385.3C474.4 387.9 470 387.7 465.8 385.7C461.1 380.5 450.8 385.1 450.5 385.1L439.5 392.4L436.6 391.8C436.5 391.8 429.6 391.6 420.6 397.3C422.9 385.1 431.9 385.3 431.9 385.3C431 382.7 432.9 383.1 433.5 382.1C436.4 378.8 442.6 379.4 447.1 378.1C442.188 376.368 437.008 375.521 431.8 375.6C426 376.1 427.2 379.7 421 376.9L421.4 375.7C415.7 375.2 411.2 374.9 408 380.3C407.6 371.3 415.2 369.6 420 367.6C422.2 364.2 427 364.8 431.4 365.2C435.207 365.523 438.929 366.504 442.4 368.1ZM442.4 368.1C446.7 369.8 447.7 370.3 449.6 371.3L442.4 368.1ZM182.5 101.2C184.366 101.2 186.2 101.4 188 101.8C191.4 102.7 195.5 103.1 195.5 104.2C193.9 106.8 190 109.9 186.2 109.8C182.4 109.7 180.2 107.3 179 101.6C179.533 101.333 180.7 101.2 182.5 101.2ZM499.5 190.6C504.5 190.6 510.4 192.6 516.1 198.8C513.4 206.8 489.3 210.8 487.7 199C487.2 195.4 492.3 190.7 499.5 190.6Z" stroke="black" style="stroke:black;stroke-opacity:1;" stroke-width="1.4"/>
</g>
<path id="Vector_4" d="M207.4 171.2L211.1 176.5M210.9 176.6C210.9 176.6 210.9 183.8 212.4 183.9M209.1 187.8L212.9 194.1M202.4 195.7C202.6 195.7 207.1 200.9 207.1 200.9M211 196.9C211 197.1 215.2 205 215.5 205M205.5 202.4C205.5 202.4 206.9 212 208.2 211.7M199.2 220L203.4 226.5M207.1 213.2C207.1 213.2 209.4 222.3 211.2 221.5M213.1 207.7C213.2 207.9 217.4 213.8 218.5 213M217.5 215.3L221.5 223.3M210.9 221.5L214.2 230.9M203.2 226.3C203.2 226.3 206.2 236.4 208.9 234.8M202.1 239.8C202.1 239.8 202.3 245.1 204.9 245.4M206.7 237.1C206.7 237.3 209.4 240.9 209.4 240.9M214.4 230.8L216.5 234.3M221.4 224.3L224.7 228.4M206 176.7C206.1 181.2 213.2 175.1 216 171.3M203 192.3C203 192.3 210.7 186.8 216.7 178.5M200.4 205.4C205.9 203.9 216 191.7 218 185.2M199.3 217.5C200.8 218.2 219.6 204.5 220.1 194.6M198.8 228C198.8 227.9 216 223.6 223.1 204.7M198 242.3C198 242.3 225.5 225.8 227 213.7M412.4 270C412.4 270 410.6 284.2 396.4 286.4M416.9 295.4C417 295.2 430.5 280.4 427 275.9M448.1 281.1C448.1 281.1 447.9 291.4 439.5 298.5M464.9 284.1C464.9 284.1 465.2 296.5 459.9 301.5M480.3 291.5C480.3 291.5 474.3 303.2 472.2 304.4M480.1 312.2C480.1 312.2 487.9 314.2 490.4 309M482.1 329.1C482.1 329.1 489.3 330.4 492.7 323.5M481.3 342.2C481.3 342.2 487.2 347.2 491.2 340.6M397.2 246.2C397.2 246.2 396.5 271.5 432 276.6C471.7 287.6 490.5 281.8 492.8 326.3C491.3 343.3 489.2 362.3 476.8 355M359.4 269.5C359.4 269.5 365.1 279.6 371.9 278.9C380.9 276.3 384.2 281.8 384.2 281.8M335.2 279.6C335.2 279.6 350.2 286.9 362.9 275.1M336.9 269.1C338.2 286.6 316.8 296.6 308.3 294.9M337.9 335.9C338 335.9 349.5 329.1 347.2 324.3M315.1 325.8C315.4 325.4 334.4 323.6 337.9 316.8M306.3 297.8C306.3 297.8 333.2 298 335 302.9M342 281.9C342 281.9 315.8 326.8 364.2 326.8M314.2 281.3C314.2 281.3 308.6 298 300.6 303.7M286.4 275.5C286.4 275.5 296.1 294.3 286.4 303.6M261 280.8C261.1 281.1 264.1 307.5 257.5 315M248.3 281.6C248.3 281.6 249.3 298.4 244.3 304.4C239.3 310.4 245.5 322.8 245.5 322.8M185 330.8C185 330.8 188.6 337.1 193.5 334.9M191 317.1C191 317.1 199 320.6 201.7 319.3M199.7 288.9C199.7 288.9 187.9 292.2 192.4 306.2C199.2 311.7 205.8 310.8 205.8 310.8M176.4 348.2C176.3 348.2 177.8 359.2 185.4 350.9C190.7 339.7 207.4 308.3 211.3 297.5M219.1 292.4C219.1 292.4 211 286.1 211.3 294.9C211.1 300.4 213.8 301.7 213.8 301.7C214.1 305.7 217.6 311.3 220.4 306.2C221.6 301.2 219.6 299 219.6 299M224.3 290C217 289.6 213 305.7 227.1 295.6M231.9 284.6C231.9 284.6 230.1 287.1 227.2 284.4C225.7 281.8 220.4 296.4 229.7 296.9C231.4 292.6 236.5 291.4 236.5 291.4M240.9 277.6C240.9 277.6 236.7 279.6 235.2 279.3C230.2 280.4 231.2 292.1 237.5 291.4C239.7 288.9 242 285.4 242 285.4M201.7 262.4C201.5 262.4 185.2 288.1 210.8 294.9M408.8 223.9C408.8 223.9 398.8 232.3 408.1 245.9C377.1 245.4 360.6 259.7 359.3 269.3C319.9 266.5 327.1 278.1 314.3 281.9C297.2 267.6 272.1 275.6 273.7 289.9C262.3 273.8 244.7 281.6 242.5 285.6C240.3 289.6 241.2 265.8 241.2 265.8C241.2 265.8 229.7 271 221.8 280.4V260.5C212.2 262.5 202.9 262.5 193 262.3M167.1 255C167.1 255 181.4 263 199.1 252.2M166 226.3C166 226.3 177 236.3 198 233.1M173 203.4C173 203.4 175.4 211.5 199.3 212M181 184.6C181 184.6 190 195.6 202.2 193.9M188.7 168.9C188.7 168.9 192.2 174.9 205.5 175.9M196.5 151.4C196.5 151.4 203.5 159 211.5 157.7M238 89.3C238 89.3 241.1 86.3 246.3 87.8M235.8 105.6C235.8 105.6 226.2 105.3 226.8 101.6C227.6 97.2 237 94.1 237 94.1C237 94.1 249.5 86.1 251.4 83.3M194.8 127.3L207 150.6L212.8 141.8L215.8 147.8L220.8 139.1L229.4 144.6L226.2 133.9L233.4 133.4C233.4 133.4 231.4 128.3 225 127.2C226.7 125.9 232.7 121.9 232.7 121.9C232.7 121.9 229.3 117.9 223.9 117.8C225.7 115.9 228.1 111.3 227.9 111.3L222.6 110.1C222.6 110.1 234.8 114.1 244.2 108.5M221 89.7C221.1 89.8 220.3 94.5 217.7 97.2M174 102.5C174 102.5 181.5 100.5 187.1 101.6C192.7 102.7 200.2 104.8 200.2 104.8C200.2 104.8 209.2 103.6 212.1 101.5M155.3 107.5C155.3 107.5 154.3 111.1 153.9 113.5C153.9 115.2 148.4 117.5 148.4 117.5M158.7 100.1C158.7 100.1 163.5 106.1 163.7 109.6C163.8 113 160.1 115.6 160.1 115.6M109 141L104 133L108.5 131.4M199 252.4C195 247.2 202 168.2 216.7 147.6C211.6 184.8 228.7 222.8 233 222.6M154 125.6C154 125.6 160.8 128.1 174.7 117M193.6 143.8L203.6 143.9M503.9 81.9C503.9 81.9 337.2 159.7 334.8 163.9C362.9 155.3 482.3 135.4 485.2 137.1C478.2 138.8 333.3 172.1 326.5 180.1C362.7 178.9 438.4 191.7 450.3 204.1C424.5 198.3 347.6 187 324 192C341.2 196.1 407.2 238.8 407.2 245.6C397.2 236.1 317.9 203.4 314.8 206.6C333 217.5 358.7 258 358.7 267.9C353.4 259.5 307.5 210.2 304.8 213.4C309.7 220.1 319.3 278.3 314.4 281C314.4 274 296.6 223 295.1 221.6C291.5 222.6 268.8 283.6 273.3 289.4C270.3 269 273.8 226.4 279.3 228.1C269.3 229.6 237.6 271.5 241 278.1C242 267.6 243.4 260.7 261.4 226C241.4 227.2 200.2 253.1 193.2 262.4C198.8 245.9 233.7 218 249 216M321 155.3C338.6 145.5 393 125.6 429.4 110.9M286.8 207.9C286.8 207.9 298.8 207.7 310.8 175.1C322.6 130.5 416.5 80.8 418.4 71.5M128 252.8C128 252.8 125.2 258.8 121.8 260.4M141.5 261.8C141.5 261.8 137.8 269 136.9 272.4M154.4 265.4C154.4 265.4 157.4 275.2 154.9 279.8M118.5 239.7C109.1 245 123.9 278.7 168.6 281.9M161.4 263.7C161.4 263.7 160.2 269.7 168.6 281.7C166.2 295.1 178.8 305.6 183.8 307.3M157.8 143.1L159.2 139.5L160.7 143.5L163.2 143.4L164.8 139.4L166.2 143.4H168.6L170.1 139L172.4 143.2H174.4L175.9 138.2L178.9 141.8L180.1 141.4L181.1 136.2L184.2 139.8L185.2 139.3L186.6 134.3L189.1 138L190.4 137.6L191.6 133.3L194 137.3M155 143.5L173.8 143.2C179.8 143.2 189.6 134.9 200.5 137.5M115.6 183.5C115.6 183.5 118.7 190.3 123 186.5M108.4 188C108.4 188 102.4 204.2 109.6 208M99.7998 170.2C99.7998 170.2 99.7998 174 107.8 168.2M75.2998 254.9C75.2998 254.9 81.5998 256.9 80.5998 261.6M77.5998 180.8C77.5998 180.8 81.5998 182.7 85.3998 176.8M119.6 366.5C125.7 366.1 127.1 368.9 132.6 368.9C139.2 369.1 145.5 366.5 153.6 364.2M206.7 379.2C206.5 379.2 203.7 385 206.2 387.9M118.7 379.7C118.7 379.7 128.5 371.7 133.7 376.6C138.6 378.3 141.3 378 141.3 378M123.8 356.7C123.8 356.7 126.2 362.9 118.2 362M115.8 371C115.8 371 120.9 374.2 115.1 378.5M118.9 384.3C118.9 384.3 125.9 385.3 121.8 391M339.2 351.1C346.3 356.8 343.4 360.2 365.8 345.2M329 358.2C329 358.2 339.5 369.6 347.2 355.8M308.9 362.3L294.6 369.8M269 380.3C269 380.3 277.7 372.9 281.7 376.8C285.7 380.7 303 373.4 303 373.4M275.5 348C275.5 348 278.5 354 272.7 354.7M264.2 366.6C264.2 366.6 267.2 372.2 261.4 373.6M270.9 381.7C270.9 381.7 279.9 382.2 276.7 389M355.1 380.5C355.1 380.5 350.1 384.7 353.8 389.5M426.8 350.5C426.8 350.5 432.5 353.3 425.7 358M420 367.9C420 367.9 424.3 372.4 421.4 376.1M432 385.1C432 385.1 437.9 386.8 437.2 391.7M515 380.7C515 380.7 510 384.4 512.7 389.1M427 236.3C438.8 234.9 455.8 261.3 464.5 266.4M516.4 199C516.4 199 522.4 204.3 517.1 217M527.5 178.8C529.2 180.1 535.6 183.6 539.9 191.6M544 139.4L535.7 161.9M553.3 138.3C553.3 138.3 551.7 158.3 549.3 162.3M346 341.6C346 341.6 365 343.6 366 345C368.2 342.7 385.2 328.8 364.3 326.9C363.337 331.046 361.01 334.748 357.691 337.414C354.373 340.079 350.256 341.554 346 341.6ZM516 198.8C513.3 206.8 489.2 210.8 487.6 199C486.7 193 501.8 183.7 516 198.8Z" stroke="black" style="stroke:black;stroke-opacity:1;" stroke-width="1.4" stroke-linejoin="round"/>
<path id="Vector_5" d="M182.3 101.3L191.6 103C191.6 103 185.1 111.8 182.3 101.3Z" fill="black" stroke="black" style="fill:black;fill-opacity:1;stroke:black;stroke-opacity:1;" stroke-width="1.4" stroke-linejoin="round"/>
</g>
</g>
<defs>
<clipPath id="clip0_2194_4043">
<rect width="640" height="480" fill="white" style="fill:white;fill-opacity:1;"/>
</clipPath>
</defs>
</svg>
