<svg width="640" height="480" viewBox="0 0 640 480" fill="none" xmlns="http://www.w3.org/2000/svg">
<g id="ge" clip-path="url(#clip0_2194_4177)">
<path id="Vector" d="M0 0H640V480H0V0Z" fill="white" style="fill:white;fill-opacity:1;"/>
<path id="Vector_2" d="M272 0H368V480H272V0Z" fill="#FF0000" style="fill:#FF0000;fill:color(display-p3 1.0000 0.0000 0.0000);fill-opacity:1;"/>
<path id="Vector_3" d="M0 192H640V288H0V192Z" fill="#FF0000" style="fill:#FF0000;fill:color(display-p3 1.0000 0.0000 0.0000);fill-opacity:1;"/>
<path id="Vector_4" fill-rule="evenodd" clip-rule="evenodd" d="M146.8 373.1C147.8 356.3 150.8 342 150.8 342C150.8 342 141 343 136 343C131 343 121.2 342 121.2 342C121.2 342 124.2 356.3 125.2 373.2C108.3 372.2 94 369.2 94 369.2C94 369.2 95 376.6 95 384C95 391.4 94 398.8 94 398.8C94 398.8 108.3 395.8 125.2 394.8C124.2 411.7 121.2 426 121.2 426C121.2 426 128.6 425 136 425C143.4 425 150.8 426 150.8 426C150.8 426 147.8 411.7 146.8 394.8C163.7 395.8 178 398.8 178 398.8C178 398.8 177 389 177 384C177 379 178 369.2 178 369.2C178 369.2 163.7 372.2 146.9 373.2L146.8 373.1ZM514.8 85.1C515.8 68.3 518.8 54 518.8 54C518.8 54 509 55 504 55C499 55 489.2 54 489.2 54C489.2 54 492.2 68.3 493.2 85.1C476.3 84.1 462 81.2 462 81.2C462 81.2 463 88.6 463 96C463 103.4 462 110.8 462 110.8C462 110.8 476.3 107.8 493.2 106.8C492.2 123.7 489.2 138 489.2 138C489.2 138 496.6 137 504 137C511.4 137 518.8 138 518.8 138C518.8 138 515.8 123.7 514.8 106.9C531.7 107.9 546 110.9 546 110.9C546 110.9 545 100.9 545 96C545 91.1 546 81.2 546 81.2C546 81.2 531.7 84.2 514.8 85.2V85.1ZM146.8 85.1C147.8 68.3 150.8 54 150.8 54C150.8 54 141 55 136 55C131 55 121.2 54 121.2 54C121.2 54 124.2 68.3 125.2 85.2C108.3 84.2 94 81.2 94 81.2C94 81.2 95 88.6 95 96C95 103.4 94 110.8 94 110.8C94 110.8 108.3 107.8 125.2 106.8C124.2 123.7 121.2 138 121.2 138C121.2 138 128.6 137 136 137C143.4 137 150.8 138 150.8 138C150.8 138 147.8 123.7 146.8 106.8C163.7 107.8 178 110.8 178 110.8C178 110.8 177 101 177 96C177 91 178 81.2 178 81.2C178 81.2 163.7 84.2 146.9 85.2L146.8 85.1ZM514.8 373.1C515.8 356.3 518.8 342 518.8 342C518.8 342 509 343 504 343C499 343 489.2 342 489.2 342C489.2 342 492.2 356.3 493.2 373.2C476.3 372.2 462 369.2 462 369.2C462 369.2 463 376.6 463 384C463 391.4 462 398.8 462 398.8C462 398.8 476.3 395.8 493.2 394.8C492.2 411.7 489.2 426 489.2 426C489.2 426 496.6 425 504 425C511.4 425 518.8 426 518.8 426C518.8 426 515.8 411.7 514.8 394.8C531.7 395.8 546 398.8 546 398.8C546 398.8 545 389 545 384C545 379 546 369.2 546 369.2C546 369.2 531.7 372.2 514.8 373.2V373.1Z" fill="#FF0000" style="fill:#FF0000;fill:color(display-p3 1.0000 0.0000 0.0000);fill-opacity:1;"/>
</g>
<defs>
<clipPath id="clip0_2194_4177">
<rect width="640" height="480" fill="white" style="fill:white;fill-opacity:1;"/>
</clipPath>
</defs>
</svg>
