<svg width="640" height="480" viewBox="0 0 640 480" fill="none" xmlns="http://www.w3.org/2000/svg">
<g id="gq" clip-path="url(#clip0_2194_4252)">
<path id="Vector" d="M0 0H640V480H0V0Z" fill="#E32118" style="fill:#E32118;fill:color(display-p3 0.8902 0.1294 0.0941);fill-opacity:1;"/>
<path id="Vector_2" d="M0 0H640V320H0V0Z" fill="white" style="fill:white;fill-opacity:1;"/>
<path id="Vector_3" d="M0 0H640V160H0V0Z" fill="#3E9A00" style="fill:#3E9A00;fill:color(display-p3 0.2431 0.6039 0.0000);fill-opacity:1;"/>
<path id="Vector_4" d="M0 0V480L180 240L0 0Z" fill="#0073CE" style="fill:#0073CE;fill:color(display-p3 0.0000 0.4510 0.8078);fill-opacity:1;"/>
<g id="Group">
<path id="Vector_5" d="M281.6 191.8H358.2V272C358.2 299 323 278.2 320 292.6C314.8 277.8 281.8 299.2 281.8 270.4L281.6 191.8Z" fill="white" stroke="black" style="fill:white;fill-opacity:1;stroke:black;stroke-opacity:1;"/>
<path id="Vector_6" d="M325.4 279.8C325.4 279.8 324.4 280.8 322.6 280C320.8 279.2 320.6 228.6 320.6 228.6C324.6 224.2 327.8 222.8 327.8 222.8L330.2 224.8C321.2 229.4 322 236 322.8 247.4C323 251.6 323 257 324 262.2C325.4 268.8 328.2 274.4 328.4 278.6C328.6 281.2 325.4 279.8 325.4 279.8Z" fill="#73452B" stroke="black" style="fill:#73452B;fill:color(display-p3 0.4510 0.2706 0.1686);fill-opacity:1;stroke:black;stroke-opacity:1;" stroke-width="0.2"/>
<path id="Vector_7" d="M319.2 221.6H322.8C319.8 250.6 322.4 267.8 322.4 276.2C322.4 279 324 280 323.8 280C320.2 284 318.4 279.8 318.4 279.8L319.2 221.6Z" fill="#73452B" stroke="black" style="fill:#73452B;fill:color(display-p3 0.4510 0.2706 0.1686);fill-opacity:1;stroke:black;stroke-opacity:1;" stroke-width="0.2"/>
<g id="Vector_8">
<path d="M313.6 279.8C310.2 281.4 309.8 278.2 310 277.8C317.4 262.8 320.6 229.8 313.8 226.2L314.2 223C316.8 223.8 319.2 227.2 319.2 227.2C320.2 264.2 319.2 279.4 318.6 280C315 283.8 313.6 279.4 313.4 279" fill="#A36629" style="fill:#A36629;fill:color(display-p3 0.6392 0.4000 0.1608);fill-opacity:1;"/>
<path d="M313.6 279.8C310.2 281.4 309.8 278.2 310 277.8C317.4 262.8 320.6 229.8 313.8 226.2L314.2 223C316.8 223.8 319.2 227.2 319.2 227.2C320.2 264.2 319.2 279.4 318.6 280C315 283.8 313.6 279.4 313.4 279" stroke="black" style="stroke:black;stroke-opacity:1;" stroke-width="0.2"/>
</g>
<path id="Vector_9" d="M313.4 279.2C312.8 276 318.6 267.8 318.2 259.2M323.2 266.2C325.067 271.133 325.8 275.667 325.4 279.8" stroke="black" style="stroke:black;stroke-opacity:1;" stroke-width="0.2"/>
<path id="Vector_10" d="M331 208C332.2 206.6 332.2 206.6 334.4 206.6C334.8 203.6 339.8 203.6 340.2 207.4C344.2 206.6 345 209 343.4 211.4C347.2 210.4 350.6 211.4 349.6 215.8C356.4 217.6 353.8 222.4 350.8 223.4C350.4 226.4 347.6 227.4 343.8 226.2C339 229.6 336.2 228.4 334 225C328.6 225.8 328.2 224.6 325.8 221.6C321.6 223.4 320.8 223.4 317.2 221.2C317 224 316 223.2 314.2 223C314.467 226.733 313 228.067 309.8 227C312.2 232 306 234.2 303 230C300.2 230.2 300 229.4 298.6 228.4C297.4 232.4 293 231.8 292.2 229.6C286.6 228.8 287.2 225.8 291.8 225.6C292.2 222.4 295 223 296.8 223.4C297 221.4 298.2 221.8 299.2 222.2C298.534 220.867 299.067 220 300.8 219.6C298.2 216.2 299.8 215 302.4 213.8C301 210.6 303.4 210.8 305.2 210.6C305 207.2 306 206.6 309.6 206.2C309.2 205 309.8 204 311.8 204C310.6 200.6 312.2 199.8 315.8 200.4C316.4 195.4 327 197.8 326.2 204.6C329.2 205 330.2 205.6 331 208Z" fill="#009A3B" stroke="black" style="fill:#009A3B;fill:color(display-p3 0.0000 0.6039 0.2314);fill-opacity:1;stroke:black;stroke-opacity:1;" stroke-width="0.2"/>
<path id="Vector_11" d="M309.6 206.2C310.4 206.6 311.4 206.2 311.6 208.4C313.2 205.6 315.2 207.2 315.2 210.4M326.2 204.6C325.4 205.8 322.4 205.8 322.8 209C321.8 207.6 319.8 207.2 319 208.6M331 208C331 208.8 330.8 211.2 330 212.4M343.4 211.4C343.6 211.6 340.6 211.4 339.2 212.4M350.8 223.4C350 223 348.4 222 347.2 223.6C347.2 222.8 347.2 220.6 345 220.6M343.8 226.2C343.8 224.2 343.4 223.6 343 223M337.2 223.4C335.6 222.2 334 224 334 225M325.6 221.6C325.6 220.8 325 219.2 326.4 218.6M302.8 230C303.2 228 304.6 228 304.4 227M304.4 227C304.2 225.4 302.4 224 300.2 226.2M304.4 227C305.734 226.667 306.667 226.8 307.2 227.4M301 219.6C301.8 218.8 303.8 219 305 219.6M305 214.8C306 214.8 307.8 214.4 308.4 216.2C310.6 212.8 312.2 213.2 312.6 214M316.6 213.6C318.2 213 321 214.6 322.6 217.4C323.4 215.2 324.6 215.6 325.8 215.4M333.4 217.4C336 216.2 337.6 218.6 338.4 219.6C339.6 218 340.6 218 341.8 218M309.2 222.2C309.8 221.2 311.2 221 312.2 221.6C312 219.8 313.2 219 314 219.4" stroke="black" style="stroke:black;stroke-opacity:1;" stroke-width="0.2"/>
<path id="Vector_12" d="M317.4 180.5L313 180.7L310.8 184.7L308.4 180.9L304 181.1L306 177.1L303.6 173.4L308.2 173.2L310.2 169.2L312.6 173L317 172.8L315 176.8L317.4 180.5ZM298.6 182L294.2 183L293 187.3L289.8 184.1L285.6 185.1L286.8 180.9L283.8 177.7L288 176.6L289.2 172.3L292.4 175.5L296.8 174.5L295.4 178.8L298.6 182ZM280.4 185.7L276.4 187.7L276.2 192.1L272.4 189.7L268.4 191.7L268.8 187.2L265 184.8L269 182.8L269.4 178.3L273 180.8L277 178.8L276.8 183.2L280.4 185.7ZM323.2 180.5L327.6 180.7L329.6 184.7L332 180.9L336.4 181.1L334.4 177.1L336.8 173.4L332.4 173.2L330.2 169.2L327.8 173L323.4 172.8L325.4 176.8L323.2 180.5ZM342 182L346.2 183L347.4 187.3L350.6 184.1L354.8 185.1L353.6 180.9L356.8 177.7L352.4 176.6L351.2 172.3L348 175.5L343.8 174.5L345 178.8L342 182ZM360 185.7L364 187.7L364.2 192.1L368 189.7L372 191.7L371.8 187.2L375.4 184.8L371.4 182.8L371.2 178.3L367.4 180.8L363.4 178.8L363.8 183.2L360 185.7Z" fill="#FFD700" stroke="black" style="fill:#FFD700;fill:color(display-p3 1.0000 0.8431 0.0000);fill-opacity:1;stroke:black;stroke-opacity:1;" stroke-width="0.7"/>
<g id="Group_2">
<path id="Vector_13" d="M365.4 270.4L370.4 277.6L375 270.8L371.8 265L365.4 270.4ZM333.6 291.4L334 298.6C334 298.6 336 298.6 337.8 298C339.4 297.4 340.8 296.2 340.8 296.2L340.6 292.4L333.6 291.4ZM306.8 291.4L306.4 298.4C306.4 298.4 304.6 298.4 302.8 298C301.2 297.6 299.8 296.6 299.8 296.6L297.8 291.8L306.8 291.4ZM274.6 270.4L269.4 277.6L263.8 268.4L268 264L274.6 270.4Z" fill="white" stroke="black" style="fill:white;fill-opacity:1;stroke:black;stroke-opacity:1;" stroke-width="0.7"/>
<path id="Vector_14" d="M299.6 305.8C299.6 312.6 340.8 312.6 340.8 305.8V296.2C340.8 301.2 299.6 300.2 299.6 296.2V305.8Z" fill="white" stroke="black" style="fill:white;fill-opacity:1;stroke:black;stroke-opacity:1;" stroke-width="0.7"/>
<path id="Vector_15" d="M262.8 283.6C266.4 302 299.6 302.4 299.6 302.4V296.2C298.8 293.8 300.2 293 305.6 292.2C307.8 292 306.8 288.8 306.8 288.8C306.8 288.8 292.4 291.4 282.2 287.4C268.4 281.8 266.4 271 266.4 271C266.4 271 265.4 279.4 262.8 283.6ZM377.4 283.6C374 302 340.8 302.4 340.8 302.4V296.2C341.4 293.8 340 293 334.6 292.2C332.4 292 333.6 288.8 333.6 288.8C333.6 288.8 348 291.4 358.2 287.4C371.8 281.8 373.4 271 373.4 271C373.4 271 374.8 279.4 377.4 283.6Z" fill="white" stroke="black" style="fill:white;fill-opacity:1;stroke:black;stroke-opacity:1;" stroke-width="0.7"/>
<path id="Vector_16" d="M265.4 276.6C256.2 271.6 263.4 266.4 264.2 251.6C265.6 260.6 275.8 264.4 274.6 270.2C270.4 270.4 268.4 264 266.4 271L265.4 276.6ZM374.8 276.6C384 271.4 376.4 266.4 375.6 251.6C374.2 260.6 364.2 264.4 365.4 270.2C369.4 270.4 371.4 264 373.4 271L374.8 276.4V276.6Z" fill="white" stroke="black" style="fill:white;fill-opacity:1;stroke:black;stroke-opacity:1;" stroke-width="0.7"/>
</g>
<path id="Vector_17" d="M271 283.4L272 284.2L269.8 286.6C268.867 287.533 268.7 288.267 269.3 288.8C269.967 289.467 270.633 289.333 271.3 288.4L273.8 285.8L274.6 286.6L272.2 289.4C270.9 290.9 269.7 290.6 268.6 289.6C267.8 288.8 267.2 287.6 268.6 286.1L271 283.4ZM275 286.8L276 287.4L275.8 292.2L278 288.8L279 289.4L275.8 294.6L274.6 294L274.8 289.2L272.6 292.6L271.6 292L275 286.8ZM276.8 295.2L279.6 289.6L280.6 290.2L278 295.6L276.8 295.2ZM281.2 290.4L279 296.2L281.2 297C283.067 297.6 284.267 296.967 284.8 295.1C285.6 293.367 285.067 292.067 283.2 291.2L281.2 290.4ZM282 291.8C284 292.5 284.2 293.3 283.6 294.8C283 296.1 282.6 296.6 280.6 295.6L282 291.8ZM287.8 292.6L284.2 298L285.6 298.4L286.4 297L288.8 297.6L289 299L290.4 299.2L289 292.8L287.8 292.6ZM288.2 294L288.6 296.4L287 296.2L288.2 294ZM291.2 293.1L291 299.3H293.3C295.5 299.4 296.1 298.3 296.2 296.3C296.2 294.5 295.5 293.3 293.3 293.3L291.2 293.1ZM292.4 294.1C294.6 294.2 294.9 294.9 294.9 296.4C294.8 297.9 294.5 298.5 292.3 298.2V294.2L292.4 294.1ZM312.2 301.8V308.2H313.6V305.8C313.6 305.8 314.8 305.8 315.8 305.6C316.6 305.467 317.033 304.8 317.1 303.6C317.1 302.4 316.467 301.8 315.2 301.8H312.2ZM313.6 302.8H315C316.1 302.8 316 304.6 315 304.6H313.6V302.8ZM319.4 301.8L316.8 308.2H318.2L318.8 306.6H321.4L322 308.2H323.4L320.8 301.8H319.4ZM320 303.2L321 305.6H319.2L320 303.2ZM323.4 307L326.8 302.8H323.8V301.8H328.6V302.8L325 307H328.6V308.2H323.4V307ZM343.6 294.6L344.8 294.4L345.4 298C345.533 299.333 345.1 300.167 344.1 300.5C343.1 300.9 341.7 300.5 341.6 298.8L342.6 298.6C342.867 299.467 343.2 299.8 343.6 299.6C344.133 299.333 344.333 298.867 344.2 298.2L343.6 294.6ZM345.6 294.2L346.7 294L347.3 297C347.433 298.267 347.933 298.833 348.8 298.7C349.667 298.567 349.967 297.9 349.7 296.7L349 293.6L350.2 293.4L351 296.7C351.4 298.7 350.4 299.4 349 299.7C347.9 299.9 346.6 299.7 346.2 297.7L345.6 294.2ZM351.8 297L352.8 296.6C353.3 297.5 354 297.4 354.6 297.2C355.4 296.667 355.567 296.2 355.1 295.8C354.5 295.5 353.1 296 352.4 295.8C351.467 295.4 351.067 294.833 351.2 294.1C351.333 293.167 351.9 292.6 352.9 292.4C353.967 292 354.867 292.333 355.6 293.4L354.4 293.8C353.933 293.2 353.467 293.067 353 293.4C352.6 293.6 352 293.9 352.4 294.4C352.6 294.9 354.1 294.6 354.9 294.6C355.7 294.6 356.3 295.2 356.4 295.9C356.667 296.967 356.167 297.7 354.9 298.1C353.4 298.7 352 298.1 351.8 297ZM357.2 292L355.6 292.8L355.2 291.8L359.6 290L360 290.8L358.4 291.6L360.2 296L359.2 296.6L357.2 292ZM359.8 289.8L360.8 289.2L363.6 294.4L362.6 295L359.8 289.8ZM366.6 290.2L367.8 289.8C367.954 290.178 368.01 290.59 367.96 290.996C367.911 291.401 367.759 291.788 367.519 292.118C367.278 292.449 366.958 292.712 366.587 292.884C366.216 293.056 365.808 293.13 365.4 293.1C362.4 293.1 362 289.7 362.5 288.6C363.3 286.7 365.5 286.8 366.5 287.8L365.5 288.6C364.9 287.8 363.5 288.3 363.5 289C363.413 289.582 363.5 290.177 363.749 290.711C363.998 291.244 364.398 291.692 364.9 292C365.9 292.4 367.3 291.2 366.6 290.2ZM366 286L367 285.2L370.6 290L369.6 290.8L366 286ZM369.8 283L368.8 283.8L371 289.8L372 288.8L371.4 287.6L373.2 286L374.4 286.6L375.4 285.8L369.8 283ZM370.2 284.4L372.2 285.4L371 286.6L370.2 284.4Z" fill="black" style="fill:black;fill-opacity:1;"/>
</g>
</g>
<defs>
<clipPath id="clip0_2194_4252">
<rect width="640" height="480" fill="white" style="fill:white;fill-opacity:1;"/>
</clipPath>
</defs>
</svg>
