<svg width="640" height="480" viewBox="0 0 640 480" fill="none" xmlns="http://www.w3.org/2000/svg">
<g id="gr" clip-path="url(#clip0_2194_4272)">
<path id="Vector" fill-rule="evenodd" clip-rule="evenodd" d="M0 0H640V53.3H0V0Z" fill="#0D5EAF" style="fill:#0D5EAF;fill:color(display-p3 0.0510 0.3686 0.6863);fill-opacity:1;"/>
<path id="Vector_2" fill-rule="evenodd" clip-rule="evenodd" d="M0 53.3H640V106.7H0V53.3Z" fill="white" style="fill:white;fill-opacity:1;"/>
<path id="Vector_3" fill-rule="evenodd" clip-rule="evenodd" d="M0 106.7H640V160H0V106.7Z" fill="#0D5EAF" style="fill:#0D5EAF;fill:color(display-p3 0.0510 0.3686 0.6863);fill-opacity:1;"/>
<path id="Vector_4" fill-rule="evenodd" clip-rule="evenodd" d="M0 160H640V213.3H0V160Z" fill="white" style="fill:white;fill-opacity:1;"/>
<path id="Vector_5" d="M0 0H266.7V266.7H0V0Z" fill="#0D5EAF" style="fill:#0D5EAF;fill:color(display-p3 0.0510 0.3686 0.6863);fill-opacity:1;"/>
<path id="Vector_6" fill-rule="evenodd" clip-rule="evenodd" d="M0 213.3H640V266.7H0V213.3Z" fill="#0D5EAF" style="fill:#0D5EAF;fill:color(display-p3 0.0510 0.3686 0.6863);fill-opacity:1;"/>
<path id="Vector_7" fill-rule="evenodd" clip-rule="evenodd" d="M0 266.7H640V320H0V266.7Z" fill="white" style="fill:white;fill-opacity:1;"/>
<path id="Vector_8" fill-rule="evenodd" clip-rule="evenodd" d="M0 320H640V373.3H0V320Z" fill="#0D5EAF" style="fill:#0D5EAF;fill:color(display-p3 0.0510 0.3686 0.6863);fill-opacity:1;"/>
<path id="Vector_9" fill-rule="evenodd" clip-rule="evenodd" d="M0 373.3H640V426.7H0V373.3Z" fill="white" style="fill:white;fill-opacity:1;"/>
<g id="Group">
<path id="Vector_10" fill-rule="evenodd" clip-rule="evenodd" d="M106.7 0H160V266.7H106.7V0Z" fill="white" style="fill:white;fill-opacity:1;"/>
<path id="Vector_11" fill-rule="evenodd" clip-rule="evenodd" d="M0 106.7H266.7V160H0V106.7Z" fill="white" style="fill:white;fill-opacity:1;"/>
</g>
<path id="Vector_12" d="M0 426.7H640V480H0V426.7Z" fill="#0D5EAF" style="fill:#0D5EAF;fill:color(display-p3 0.0510 0.3686 0.6863);fill-opacity:1;"/>
</g>
<defs>
<clipPath id="clip0_2194_4272">
<rect width="640" height="480" fill="white" style="fill:white;fill-opacity:1;"/>
</clipPath>
</defs>
</svg>
