<svg width="640" height="480" viewBox="0 0 640 480" fill="none" xmlns="http://www.w3.org/2000/svg">
<g id="gs" clip-path="url(#clip0_2194_4286)">
<path id="Vector" d="M0 0H640V480H0V0Z" fill="#000066" style="fill:#000066;fill:color(display-p3 0.0000 0.0000 0.4000);fill-opacity:1;"/>
<path id="Vector_2" d="M471 345C471 345 468.4 351.8 467 351.8C465.4 351.8 460 348.8 460 348.8C460 348.8 456.1 355.2 454 355.5C452 355.9 446.6 354.6 446.6 354.6C446.6 354.6 441.4 354.6 441.2 353.9C441 353.1 441.4 351.6 441.4 351.6C441.4 351.6 433.9 357.6 432.3 357.2C430.6 356.9 425 349.8 425 349.8L424 353.5L413.4 353.1L404.1 347.1C404.1 347.1 398.9 355.7 398.7 355.5C398.5 355.3 389.6 357.6 389.6 357.6L389 355.9L383 352.4C383 352.4 387.7 345.9 387.7 345.7C387.7 345.5 385.5 344.7 385.5 344.7L382.1 347.5L375.2 352L368.3 348.8L371.3 343.2L371.7 339.2L377.1 330.9L443.3 266.6L475.9 326.8L471 345Z" fill="#6A4C2D" stroke="black" style="fill:#6A4C2D;fill:color(display-p3 0.4157 0.2980 0.1765);fill-opacity:1;stroke:black;stroke-opacity:1;"/>
<path id="Vector_3" d="M518 348.8L535.3 348.2L527.9 344.6L593.6 342.1L584.3 338.6L576.1 327.4L542.1 324.9C542.1 324.9 539.5 322.9 535.4 323.9C535.2 321.3 532 317.9 532 317.9L511 316.2L498 325.2L506.8 347.8L518 348.8Z" fill="white" stroke="black" style="fill:white;fill-opacity:1;stroke:black;stroke-opacity:1;"/>
<path id="Vector_4" d="M451 156L452.8 150C452.8 150 455.8 145 455.8 142.6C455.8 140.4 458.1 137.7 458.1 137.7C458.1 137.7 465 135.7 466.5 140C473.9 128.7 482.7 139.4 482.7 139.4L485.1 136.6L490.1 130.6C490.1 130.6 497.1 137.1 497.1 138.2C497.3 139.4 498.4 138.6 498.4 138.6L506 138C505.751 139.5 505.887 141.04 506.394 142.474C506.901 143.908 507.763 145.19 508.9 146.2C511.6 147.8 514 157.2 514 157.2L451 156Z" fill="url(#paint0_linear_2194_4286)" stroke="black" style="stroke:black;stroke-opacity:1;"/>
<path id="Vector_5" d="M518 226.1C519.4 225.3 523.5 224 523 217.9C522.5 211.8 517.3 211.1 514.3 211.3C511.3 211.5 508.8 214.1 508.8 214.1L499 207.9C499 207.9 503.9 177.2 509 175.3C514 171.8 514.8 170.3 514.8 169.5C514.8 168.6 513 166.6 513 166.6L481.3 162.9L451.3 166.4C451.3 166.4 449.1 170 449.3 171.4C449.7 172.8 449.8 174.3 455.1 178.4C461.1 183 465.1 209.2 465.1 209.2C465.1 209.2 456.8 213.4 456.2 212.8C455.7 212.3 453.2 211.8 451.9 212C450.6 212.2 446.2 214.5 446.2 220.2C446.2 226 450.6 229.3 450.6 229.3C450.6 229.3 479.2 226 483.5 233.9C487.6 224.4 514.8 227.7 518.1 226.1H518Z" fill="#656263" stroke="black" style="fill:#656263;fill:color(display-p3 0.3961 0.3843 0.3882);fill-opacity:1;stroke:black;stroke-opacity:1;"/>
<path id="Vector_6" d="M548.9 194.2C548.9 194.2 549.2 190.9 551.6 189.3C554 187.7 569.8 186.9 573.6 189.3C577.4 191.7 578.8 203.4 578.8 203.4C578.8 203.4 581.2 207.5 581.4 210.6C581.5 213.6 581.9 215.6 581.9 215.6C581.9 215.6 594.5 232.1 594.7 247C596.1 257.1 595.8 284.2 591.8 294.5C591.845 301.957 589.949 309.297 586.3 315.8C586.3 315.8 587.6 318 587.4 320.4C587.2 322.8 586 325 586 325L604.5 334.1L597.7 331.6L604.5 337.3L596.8 333.7L601.3 338.3C601.2 338.1 590.1 333.2 590.1 333.2L595.1 337.9L586.6 333.9C586.6 333.9 591.6 339.4 591.6 339.1L584.2 335.9L584.6 338.6C584.6 338.6 578.8 338.3 578.8 334C577.041 332.992 575.454 331.709 574.1 330.2L560.9 328L546 283.4L549.5 208.2L550.5 204.4L548.9 194.2Z" fill="black" stroke="black" style="fill:black;fill-opacity:1;stroke:black;stroke-opacity:1;" stroke-linejoin="round"/>
<path id="Vector_7" d="M539 434.8C539 434.8 531.3 418.8 527.5 418.5C524.1 411.9 539.5 358.5 569.2 355.4C585.5 356.7 570.5 374.2 559.8 368.8C561.451 372.944 563.709 376.82 566.5 380.3C566.5 380.3 545.2 389.5 538.9 434.8H539ZM436.7 437.1C436.7 437.1 443 418.8 446.8 418.6C450.7 418.4 436.7 357.7 406.2 357.3C389.8 358.6 404.9 376.2 415.7 370.8C414.018 374.95 411.726 378.826 408.9 382.3C408.9 382.3 430.4 391.5 436.7 437.1Z" fill="#FFBB00" stroke="black" style="fill:#FFBB00;fill:color(display-p3 1.0000 0.7333 0.0000);fill-opacity:1;stroke:black;stroke-opacity:1;"/>
<path id="Vector_8" d="M464.6 323C464.6 322.8 457 325.3 461.9 333.5C462.2 330.3 465.6 328.5 465.6 328.5C465.6 328.5 460.5 334.5 465.9 339.6C466.6 334.8 469.7 333.3 469.7 333.3C469.7 333.3 465.8 344.5 469.7 346.8C470.2 342.3 473 340.3 473 340.3C473 340.3 469.6 350.3 472.7 352.6C473 348.8 475.6 347.1 475.6 347.1C475.6 347.1 474.1 357.6 478.1 358.3C478.1 354.6 481.1 351 481.1 351C481.1 351 479.8 359.5 486.1 359.9C486.1 356.7 487.3 353 487.3 353C487.3 353 490.2 362 494.3 360.6V352.9C494.3 352.9 497 361.5 502 359.9C501.3 357.5 502.3 354.6 502.3 354.6C502.3 354.6 504.9 360 509.7 358.2C510.5 356.6 509.5 353.4 509.5 353.4C509.5 353.4 516.5 360.6 518.5 356.3C520.7 352 513 350.5 513 350.5H518.2C518.2 350.5 516.5 346.1 509.5 345.1C511.9 344.1 514.4 344.9 514.4 344.9C514.4 344.9 512.9 339.4 505.7 338.8C508.5 337.8 511.7 338.5 511.7 338.5C511.7 338.5 510.7 333.3 502.7 331.8C504 330.4 507.4 330.8 507.4 330.8C507.4 330.8 504.2 325.9 500.6 326.2C497 326.5 464.6 322.9 464.6 323Z" fill="#00713D" stroke="black" style="fill:#00713D;fill:color(display-p3 0.0000 0.4431 0.2392);fill-opacity:1;stroke:black;stroke-opacity:1;"/>
<path id="Vector_9" d="M496.6 349.5C496.6 349.5 499.6 350.9 499.4 352.1M498.3 347.2C498.3 347.2 502 349.8 501.9 351.7M501.6 345.9C501.6 345.9 504.5 347.7 504.6 350.6M506.5 347C506.5 347 507.9 350.2 507.5 350.8M509.4 348.7C509.6 351.2 509.2 351.5 509.2 351.5M473.2 333C473.2 333 476.7 335.2 476.4 338.3M473 335.6C473 335.6 474.6 337.2 474.3 338.2M477.3 333C477.3 333 479.6 336.2 478.8 338.4M481.2 335.1C481.2 335.1 482.2 337.1 481.2 338.1M483 336C483 336 484.2 338 483.1 338.7M481.6 342.6C481.6 342.6 484.8 343.3 485.3 345.7M483.5 340.4C483.5 340.4 486.9 340.6 487.3 344.2M488 339.1C488 339.1 490.3 343.1 489.9 344.3M492.3 339.5C492.3 339.5 493.2 343.2 492.5 344.5M495.1 341V345.3M490.9 335.1C490.9 335.1 492.9 335.9 492.9 338M492.8 333.2C492.8 333.2 495.5 334.7 495.3 337.7M496 332C496 332 498.3 334.7 497.5 337.8M500 332.6C500 332.6 499.2 336.1 499.6 337.5M502.6 335C502.6 335 501.1 336.1 501.9 337.6M489.2 348.4C489.2 348.4 489.7 351 489.2 351.4M485.9 346.8C485.9 346.8 487.5 349.8 486.9 351.2M482.3 346.7C482.3 346.7 484.2 348.9 484.1 350.7M479.3 347.1C479.3 347.1 481.1 348.8 480.9 349.8M477.8 349.7C477.8 349.7 479.5 351.5 479.4 351.8" stroke="#3EC26D" style="stroke:#3EC26D;stroke:color(display-p3 0.2431 0.7608 0.4275);stroke-opacity:1;" stroke-linecap="round"/>
<path id="Vector_10" d="M441.3 229.3L465.6 228.8C465.6 228.8 481.6 228.8 483.3 234C486.3 227.1 500.3 227.5 500.3 227.5L525.3 226.7L525.8 287.3C520.8 310.9 503.8 327.5 485.1 334.6C474.596 331.058 465.233 324.765 457.986 316.376C450.74 307.987 445.876 297.808 443.9 286.9L441.3 229.3Z" fill="white" stroke="black" style="fill:white;fill-opacity:1;stroke:black;stroke-opacity:1;"/>
<path id="Vector_11" d="M450 229L485.3 323.2L517.3 227C507.3 227.6 486.1 225.4 483.4 234.5C479.4 226.4 457 229.6 449.9 229H450Z" fill="#006B00" stroke="black" style="fill:#006B00;fill:color(display-p3 0.0000 0.4196 0.0000);fill-opacity:1;stroke:black;stroke-opacity:1;"/>
<path id="Vector_12" d="M474 280C475.4 280.7 475.3 254.5 477.1 253.7L478.5 248.2C477 245.5 470.1 245.6 467.5 248L469.2 252.8C472.7 258.4 472 280.6 474 280Z" fill="#FFC900" stroke="#006B00" style="fill:#FFC900;fill:color(display-p3 1.0000 0.7882 0.0000);fill-opacity:1;stroke:#006B00;stroke:color(display-p3 0.0000 0.4196 0.0000);stroke-opacity:1;" stroke-width="0.5" stroke-linecap="round"/>
<path id="Vector_13" d="M464.5 77C464.5 77 467 74.1 467.1 73.5C467.2 72.9 478.5 72.3 485.1 59.8C488.9 53.3 485.1 57.1 485.1 57.1L485 54C485 54 489.6 49.6 488 47.2C486.2 44.8 486.8 50.2 484 50.2C481.3 50.1 482.8 44.2 482.8 44.2C482.8 44.2 482.6 43.6 481.8 43.2C480.7 43.4 481 45.4 480 45.6C479 45.9 478 40.9 478 40.9C478 40.9 476.3 38.6 474.9 45.7C475.7 53.4 480.5 51.9 480.5 56.9C480.5 61.9 476.2 65.7 475 65.9C473.7 65.9 474.2 61.6 474.2 61.6C474.2 61.6 473.5 59.6 473.1 59.6C472.7 59.6 475.6 59.1 475.1 53.5C474.1 46.7 473.3 55.1 471.5 54.7C469.6 54.4 471 48.5 471.7 47.7C472.4 47.1 470.9 44.3 466.9 51.5C466.6 55.1 466.1 50.6 465.3 50.9C464 53.7 464.2 55.7 466.1 58.3C469 61 470.8 63.6 470.7 64.9C470.6 66.3 469.1 69.4 467 69.4C465 69.4 467.1 65.6 467 64.4C467 63.1 463.5 58.6 463.5 58.6C463.5 58.6 461.1 54.7 461.4 54.6C461.7 54.5 461.1 53.9 460 57.9C458.9 61.9 457.5 55.3 457.5 55.3C457.5 55.3 455.9 60.2 459.3 63.1C456.7 62.8 456.5 63.8 456.5 63.8C456.5 65.2 460 65.8 460.5 68.1C460.9 70.5 456.8 71.9 456.8 71.9C456.8 71.9 458.5 74.2 463.3 69.6C463.4 72.6 461.5 74.6 461.5 74.6C463.1 75.3 464.3 75.2 464.5 77.1V77Z" fill="#CDAD56" stroke="black" style="fill:#CDAD56;fill:color(display-p3 0.8039 0.6784 0.3373);fill-opacity:1;stroke:black;stroke-opacity:1;" stroke-linejoin="round"/>
<path id="Vector_14" d="M449 77C449 77 446.8 73.8 446.7 73.2C446.6 72.6 436.3 74 431.4 61.4C428.2 55.4 431.4 58.9 431.4 58.9L431.6 56C431.6 56 428.2 51.9 429.6 49.7C431.1 47.5 430.6 52.5 432.4 52.5C434.7 52.4 433.4 47.1 433.4 47.1C433.4 47.1 433.6 46.5 434.4 46.2C435.3 46.3 435.7 49.4 436.5 49.6C437.3 49.8 439.2 46 439.8 45.2C440.6 45.1 440.5 42 441.8 48.5C441.1 55.4 435.4 54 435.4 58.5C435.4 63 439 66.6 440.1 66.7C441.1 66.9 440.8 62.9 440.8 62.9C440.8 62.9 441.4 61.1 441.8 61.1C442.1 61.1 438.4 61.8 438.8 56.6C439.6 51.8 441.5 56.9 443.1 56.6C444.7 56.3 442.9 51.6 443.3 50.8C443.4 50 445.7 46.9 446.6 53.8C446.9 57.1 448.6 51.1 449.3 51.3C450.5 53.9 448.8 57.3 447.2 59.7C444.8 62.1 443.7 64.7 443.8 65.9C443.8 67.2 444.4 68.7 446.2 68.7C448 68.7 446.7 66.5 446.8 65.4C446.9 64.3 449.8 60.6 449.8 60.6C450.4 59.6 449.9 58 450.5 57.2C451.5 57.2 451.9 55.9 452.8 59.5C453.8 63.1 454.9 57.1 454.9 57.1C454.9 57.1 456.3 61.6 453.4 64.3C455.6 64 455.8 64.9 455.8 64.9C455.8 66.1 454.8 66.6 454.4 68.9C454.323 69.4973 454.382 70.1044 454.573 70.6758C454.763 71.2472 455.08 71.7682 455.5 72.2C455.5 72.2 454.1 74.4 450 70.2C449.989 71.8411 450.556 73.4339 451.6 74.7C450.2 75.4 449.2 75.3 449 77Z" fill="#CDAD56" stroke="black" style="fill:#CDAD56;fill:color(display-p3 0.8039 0.6784 0.3373);fill-opacity:1;stroke:black;stroke-opacity:1;" stroke-width="0.9" stroke-linejoin="round"/>
<path id="Vector_15" d="M511.3 243C509.3 241.2 509 242.8 507.9 242.4C507.433 242.133 507 241.767 506.6 241.3C506.2 240.9 505.733 240.633 505.2 240.5L504.6 242.2C504.4 242.8 505.2 243.7 505.2 244.6C505.133 245.933 504.367 246.833 502.9 247.3C503.4 246.4 503.6 246.4 503.5 245.3C503.5 244.8 501.9 243.8 502.1 243.3C502.3 242.4 502.8 241.5 502.5 240.6C501.8 241.1 501 240.8 500.3 241.1C499.8 241.4 499.7 242.4 499 242.8C498.3 243.2 496.5 243 495 242.2C495.9 241.5 496.6 242 497.5 241.2C497.9 241 497.9 239.5 498.4 239.2L500.3 238.2C500.033 237.6 499.767 237.067 499.5 236.6C499.1 236.1 497.4 236.2 497 235.8C496.2 234.8 496.3 233.7 495.6 232.8C497.6 233.5 497.3 234.5 497.8 234.4C498.867 233.933 499.7 233.833 500.3 234.1C501.2 234.5 501.7 235.6 502.3 235.8L502.9 233.9C503.1 233.3 502.1 232.4 502.2 231.8C502.6 230.7 503.6 229.7 504 228.5L504.4 231.6C504.5 232.2 505.6 232.5 505.6 233C505.7 233.6 505.1 234.8 505.1 235.4C505.767 235.4 506.433 235.333 507.1 235.2C507.8 235.1 508.1 233.7 508.7 233.6C509.9 233.4 510.7 233.5 512 233.6C511 234.5 510.4 234.4 509.9 235.2C509.4 235.5 510 236.6 508.8 237.4C508.3 237.7 507 237.4 506.6 237.7L507.8 239C508.2 239.5 509.9 239.7 510.3 240.2C511.167 241.133 511.5 242.1 511.3 243.1V243ZM457 244C459 242.1 459.3 243.8 460.4 243.3C460.867 243.1 461.3 242.767 461.7 242.3C462.1 241.833 462.567 241.533 463.1 241.4L463.7 243.2C463.9 243.7 463.1 244.7 463.1 245.5C463.3 246.8 463.8 247.8 465.4 248.3C464.9 247.3 464.7 247.3 464.8 246.3C464.8 245.7 466.4 244.7 466.2 244.2C466 243.4 465.5 242.4 465.8 241.6C466.5 242 467.3 241.8 468 242C468.5 242.3 468.6 243.3 469.3 243.7C470 244.1 471.8 243.9 473.3 243.1C472.4 242.4 471.7 242.9 470.8 242.2C470.4 241.9 470.4 240.4 469.9 240.2C469.5 239.8 468.4 239.4 468 239.1C468.267 238.5 468.533 237.967 468.8 237.5C469.2 237 470.9 237.1 471.3 236.7C472.1 235.7 472 234.6 472.7 233.7C470.7 234.4 471 235.4 470.5 235.3C469.433 234.9 468.6 234.8 468 235C467.1 235.3 466.6 236.5 466 236.7L465.4 234.8C465.2 234.3 466.3 233.3 466.1 232.8C465.7 231.6 464.7 230.6 464.3 229.4L463.9 232.6C463.8 233.1 462.7 233.4 462.7 233.9C462.6 234.5 463.2 235.8 463.2 236.3C462.533 236.3 461.867 236.233 461.2 236.1C460.5 236.1 460.2 234.7 459.6 234.5C458.4 234.3 457.6 234.4 456.3 234.6C457.3 235.4 457.9 235.4 458.5 236.1C458.9 236.5 458.3 237.6 459.5 238.3C460 238.6 461.3 238.3 461.7 238.6L460.5 240C460.1 240.4 458.4 240.6 458 241C457.2 242 456.867 243 457 244Z" fill="#FFC900" style="fill:#FFC900;fill:color(display-p3 1.0000 0.7882 0.0000);fill-opacity:1;"/>
<path id="Vector_16" d="M509.4 249.2C507.5 250.7 495.1 253.8 495 264.5C494.9 275.2 497.2 277.7 494.9 278C490.4 278 489.8 266 489.9 260.7C490 255.4 490.2 256.2 490.2 256.2C490.2 256.2 493.2 257 493 259.6C492.8 262.2 496 253.2 494.9 250.8C496.9 252.8 499.6 252 499.6 251.8C499.6 251.8 498.1 250.1 497.4 248.8C496.8 247.7 499.7 249.6 499.7 249.6C499.7 249.6 499.9 247.6 497.3 247.6C494 247.6 497.8 246.6 497.8 246.6C497.8 246.6 499.8 248.3 501 246.4C500.021 245.427 498.868 244.647 497.6 244.1C497.6 244.1 495.8 240.7 493.4 240.1C490.6 239.4 490.9 241.3 487.7 241C487.1 242.2 487.1 242.4 488.4 242.8C486.2 244.3 487.4 247.2 487.4 247.2C487.4 247.2 490.8 245.8 490.7 248.2C490.6 250.7 488.7 250.2 487.4 248.7C486.2 248.1 485.8 249.4 485.8 249.4L487.6 251.4C487.6 251.4 484.2 251.2 483.3 253.5C485.2 253.4 486.3 253.9 486.3 253.9C486.3 253.9 482.3 255.7 481.9 256.6C481.5 257.5 481.4 255.6 481.2 255.6L477.4 254.2L476.1 260.1C476.1 260.1 478.7 262.6 480.1 261.8C481.5 261 484.1 258.5 485.6 259.2C481.1 262.6 476.6 267.5 474.2 268.2C473.6 267.6 471.4 265.5 470.5 266.6C469.6 267.6 470.3 269 471.5 268.9C472.5 268.7 467.7 269.9 468.7 272C469.7 274 469.7 273.9 470.5 273.4C471.5 272.8 469.8 272.7 473.1 271.7C476.4 270.7 476.3 269.8 476.3 269.8C476.3 269.8 475.6 271.3 473.8 271.8C472.1 272.1 470.7 272.1 471 272.7C471.4 273.2 472.2 274.2 472 274.7C471.7 275.3 475.6 271.9 476.7 274.6C479.3 274.4 481.1 271.2 479.8 269.3C480 271.3 481.2 272 480.5 273C479.7 273.9 486.5 269.8 483.2 267.4C484 269.4 484.2 271 484.2 271C484.2 271 485.7 271 486.1 270.4C486.5 269.8 485.3 271.9 485.8 272.3C486.3 272.7 488.8 275 487.8 276.6C487.1 275.6 487 274.2 486.2 274.3C485.4 274.4 482.2 276.8 480.3 276.9C478.4 277 482.6 283.9 482.6 283.9C482.6 283.9 479.7 283.6 479.3 283.9C478.9 284.2 477 281.4 476.7 283C476 285 477.3 284.2 477.3 284.2C477.3 284.2 475.6 283.4 474.7 284.4C473.8 285.4 473 286.3 473.6 286.7C474.2 287.1 477 287.1 477.4 287C477.8 286.9 474.2 287.2 474 287.6C473.7 288 473.2 289.6 474 290.1C474.7 290.6 476.7 289.8 476.8 289.4C476.9 289 477 290.9 477 290.9C477 290.9 480.3 291.2 480.3 287.8C480.3 284.4 480.6 290.2 480.6 290.2C480.6 290.2 483.9 290.8 484 287.4C484.1 284 484.4 289.7 484.4 289.7C484.4 289.7 486.6 289 486.6 288.5C486.6 288 486.5 295.2 484.9 297.3C482.5 295.7 480.9 298.3 480.9 298.3C480.9 298.3 481.1 302.3 480.9 303.3C480.7 304.3 482.5 302.7 482.6 302.3C482.8 301.9 485.1 300.8 485.2 300.6L486 298.9C486 298.9 485.4 300.9 484.6 301.1C483.6 301.4 482.8 302.3 483.2 303.1C483.5 304 484.9 304.5 485.4 305.3C485.9 306.1 487.7 300.6 487.7 300.6L487.9 301.8C487.9 301.8 490.2 301.2 490.4 300.1C490.7 299.1 488 298.1 490.2 296.3C492.4 294.5 490.2 298 490.2 298C490.2 298 490.9 300.6 491.4 300.6C491.9 300.6 493.2 295.6 492 294.4C490.8 293.2 493.9 295.9 493.9 295.9C493.9 295.9 495.7 290.9 493.7 290.2L490.9 289.2C490.9 289.2 491.9 287.9 491.4 287.8C490.9 287.6 494.1 290.8 494.6 289.9C495.1 289 495.9 286.7 492.2 285.3C488.5 283.9 492.1 280.2 492.1 280.2C492.1 280.2 494.4 282.9 496.1 281.4C497.7 279.9 495.9 279.9 495.9 279.9C495.9 279.9 500.6 276.9 500.8 275.4C499.8 275.3 498.3 275.5 498.3 275.5C498.3 275.5 501 273.8 500.3 270.9C499.3 272.4 497.9 272.4 497.9 272.4C497.9 272.4 500.2 270.1 499.9 267.9C498.5 269 498.6 269.9 497.7 269.6C496.8 269.3 495.3 260.7 498.8 260.2C502.4 259.6 500.5 264.4 500.6 264.4C500.7 264.4 506 262.2 500.6 258.7C501.9 258.3 504.6 260.7 504.6 260.7C504.6 260.7 503.4 254.7 497.6 258.4C498.933 256.8 500.1 256.067 501.1 256.2C502.3 256.5 506.4 256.1 506.4 254.9C505.4 254.1 503.2 255.3 502 254.9C500.9 254.5 510.2 253.8 509.4 249.2Z" fill="#FFC900" stroke="#006B00" style="fill:#FFC900;fill:color(display-p3 1.0000 0.7882 0.0000);fill-opacity:1;stroke:#006B00;stroke:color(display-p3 0.0000 0.4196 0.0000);stroke-opacity:1;" stroke-width="0.5" stroke-linecap="round" stroke-linejoin="round"/>
<path id="Vector_17" d="M469 252.7C469 252.7 474.1 249.8 476.6 253.4M478.7 258.8C478.6 258.8 476.9 260.6 476.5 260.6M482.1 264.5C482.1 264.5 486.9 264.9 489.9 259.9" stroke="#006B00" style="stroke:#006B00;stroke:color(display-p3 0.0000 0.4196 0.0000);stroke-opacity:1;" stroke-width="0.5" stroke-linecap="round"/>
<path id="Vector_18" d="M487.2 263C487.2 263 487.6 265.7 488.4 265.7C489.2 265.7 487.1 266.4 486.4 265.9C487.2 267.1 487.7 269.3 486.4 270.1" stroke="#006B00" style="stroke:#006B00;stroke:color(display-p3 0.0000 0.4196 0.0000);stroke-opacity:1;" stroke-width="0.5" stroke-linecap="round"/>
<g id="Vector_19">
<path d="M484.8 297.3C484.8 297.3 483.2 299.2 481.1 299.3Z" fill="#E80000" style="fill:#E80000;fill:color(display-p3 0.9098 0.0000 0.0000);fill-opacity:1;"/>
<path d="M484.8 297.3C484.8 297.3 483.2 299.2 481.1 299.3" stroke="#006B00" style="stroke:#006B00;stroke:color(display-p3 0.0000 0.4196 0.0000);stroke-opacity:1;" stroke-width="0.5" stroke-linecap="round"/>
</g>
<path id="Vector_20" d="M486.7 288.6C486.7 288.6 485.7 283.1 486.3 281.8C486.7 280 488.3 279.3 489.7 277" stroke="#006B00" style="stroke:#006B00;stroke:color(display-p3 0.0000 0.4196 0.0000);stroke-opacity:1;" stroke-width="0.5" stroke-linecap="round"/>
<path id="Vector_21" d="M486.2 284.6C486.2 284.6 484.9 287.9 479.3 286.8M487.7 276.5C487.7 276.5 488.1 280.8 483 279.2M481.5 257C481.5 257 479.5 258.8 480.2 261.4" stroke="#006B00" style="stroke:#006B00;stroke:color(display-p3 0.0000 0.4196 0.0000);stroke-opacity:1;" stroke-width="0.5" stroke-linecap="round"/>
<path id="Vector_22" d="M489.1 252.1C489.1 252.1 491.8 251.1 492.3 250.5C493.01 249.812 493.587 248.998 494 248.1C494.2 247.3 492.2 246.1 493.2 244.3C493.867 243.367 494.867 243.367 496.2 244.3C497.8 245.3 494.9 241.3 493.4 241.1C491.8 241 490.8 242.2 490.4 241.9C490 241.7 490.5 243 489.9 243C489.3 243 491.2 244.1 491.1 244.8C491 245.5 493.1 247.8 493 248.3C492.9 248.8 489.8 252 489.1 252.1Z" fill="#006B00" style="fill:#006B00;fill:color(display-p3 0.0000 0.4196 0.0000);fill-opacity:1;"/>
<path id="Vector_23" d="M491 243.2C492.067 242.867 492.467 243.2 492.2 244.2L491 243.2Z" fill="#FFC900" stroke="#FFC900" style="fill:#FFC900;fill:color(display-p3 1.0000 0.7882 0.0000);fill-opacity:1;stroke:#FFC900;stroke:color(display-p3 1.0000 0.7882 0.0000);stroke-opacity:1;" stroke-width="0.5" stroke-linecap="round" stroke-linejoin="round"/>
<path id="Vector_24" d="M483 303.7C483 303.7 482.5 306.6 483.5 306.8C483.567 305.733 483.733 305.033 484 304.7L483 303.7ZM480.5 300.2C479.5 300.1 478 301 478.5 302C479.2 301.3 479.9 302 480.5 301.3V300.3V300.2ZM480.5 298.2C480.5 298.2 479 298 478.8 299.1C479.733 298.833 480.3 298.833 480.5 299.1V298.2Z" fill="#E80000" stroke="#006B00" style="fill:#E80000;fill:color(display-p3 0.9098 0.0000 0.0000);fill-opacity:1;stroke:#006B00;stroke:color(display-p3 0.0000 0.4196 0.0000);stroke-opacity:1;" stroke-width="0.5" stroke-linejoin="round"/>
<path id="Vector_25" d="M474.1 282.2C474.1 282.2 475.1 282.5 475.3 283.5C476 283.1 476.3 280.9 474.1 282.2ZM471.8 284.6C471.8 284.6 473.8 283.4 473.9 284.6C473.567 284.933 473.3 285.167 473.1 285.3C472.8 285.3 472.3 284.5 471.8 284.6ZM471.7 288.5C471.7 288.5 472.9 287.5 473.3 288.1C473.8 288.9 472.9 288.8 472.9 288.8L471.7 288.5ZM470 266.6C470 266.6 468.5 266 467.9 267.1C468.9 267.3 469.2 267.6 469.7 268C469.5 267.5 469.3 266.8 470 266.6ZM467.1 274.9C467.1 274.9 467.1 273 468.1 272.3C468.433 272.567 468.7 272.967 468.9 273.5C468.3 273.7 467.5 273.7 467.1 274.9ZM471 273.6C471 273.6 469.4 274.4 470 275.3C470.5 274.6 471.1 274.8 471.1 274.8V273.6H471Z" fill="#E80000" stroke="#006B00" style="fill:#E80000;fill:color(display-p3 0.9098 0.0000 0.0000);fill-opacity:1;stroke:#006B00;stroke:color(display-p3 0.0000 0.4196 0.0000);stroke-opacity:1;" stroke-width="0.6" stroke-linejoin="round"/>
<path id="Vector_26" d="M468.7 255.8C468.1 256.5 469.4 258 470.8 257.8C471.2 256.2 469.1 255.3 468.8 255.8H468.7Z" fill="#FFC900" stroke="#006B00" style="fill:#FFC900;fill:color(display-p3 1.0000 0.7882 0.0000);fill-opacity:1;stroke:#006B00;stroke:color(display-p3 0.0000 0.4196 0.0000);stroke-opacity:1;" stroke-width="0.6" stroke-linejoin="round"/>
<path id="Vector_27" d="M470.2 254.6C470.2 254.6 470.5 255.9 471.7 255.6C471.546 254.887 471.2 254.23 470.7 253.7C470.7 254 470.8 254.5 470.2 254.6ZM471 258.3C471 258.3 471.7 259.1 473 257.6C472.4 257.7 471.4 257.2 471.4 257.2C471.4 257.2 471.4 258.2 471 258.3Z" fill="#E80000" stroke="#006B00" style="fill:#E80000;fill:color(display-p3 0.9098 0.0000 0.0000);fill-opacity:1;stroke:#006B00;stroke:color(display-p3 0.0000 0.4196 0.0000);stroke-opacity:1;" stroke-width="0.6" stroke-linejoin="round"/>
<path id="Vector_28" d="M468.6 252.8C468.1 253.5 468.9 254.5 470.3 254.3C470.6 252.6 469 252.3 468.6 252.8Z" fill="#FFC900" stroke="#006B00" style="fill:#FFC900;fill:color(display-p3 1.0000 0.7882 0.0000);fill-opacity:1;stroke:#006B00;stroke:color(display-p3 0.0000 0.4196 0.0000);stroke-opacity:1;" stroke-width="0.6" stroke-linejoin="round"/>
<path id="Vector_29" d="M469.2 246.3C469.2 246.3 474.7 244.7 477.6 247.1C480.6 249.4 480.6 247.3 480.6 247.3C480.6 247.3 484.8 248.9 486 248.5C487.2 248.2 485.1 248.7 486.8 247.6C488.5 246.6 483.4 247.9 483 245.7C482.2 244.4 483 242.7 481.3 243.3C480.1 241.7 482.1 240.6 481.6 238.9C480.4 239.9 479.7 238.6 478.7 240.9C476.4 240.4 478.4 237.1 475.8 236.8C475.8 239.1 473.9 239.2 473.8 240.6C472.7 241.4 467.8 244.3 469.2 246.3Z" fill="url(#paint1_linear_2194_4286)" style=""/>
<path id="Vector_30" d="M406 425C409.6 424 428.9 429.2 436.3 437.2C434.7 422.9 430.8 412.1 430.8 412.1C430.8 412.1 419.3 408.8 417.8 410.4C413.32 414.762 409.361 419.627 406 424.9V425ZM400.1 359.3C398.767 359.367 397.433 360.5 396.1 362.7C394.5 366.5 393.4 376.2 391.1 378.5C388.9 380.7 386.8 380.9 386.8 383C386.8 385 387.1 389.7 393.1 391.5C399.2 391.8 408.9 381.8 408.9 381.8C408.9 381.8 413.9 376.4 415.9 370.6C404.2 374.6 395.9 363.8 400.1 359.3ZM569.7 422.7C558.544 423.426 547.904 427.661 539.3 434.8C540.9 420.7 544.8 409.8 544.8 409.8C546.1 409.5 556.1 406.6 557.6 408.2C559.9 410.6 567.3 417.9 569.7 422.7ZM575.2 357.4C576.5 357.6 577 359.4 578.2 361.6C579.7 365.5 581.2 371 583.5 373.2C585.8 375.5 587.8 378.8 587.8 380.8C587.8 382.8 587.3 385.6 581.3 387.4C575.3 387.6 566.5 379.8 566.5 379.8C566.5 379.8 561.5 374.5 559.5 368.6C571.2 372.6 578.7 362.3 575.2 357.4Z" fill="#C01500" stroke="black" style="fill:#C01500;fill:color(display-p3 0.7529 0.0824 0.0000);fill-opacity:1;stroke:black;stroke-opacity:1;"/>
<path id="Vector_31" d="M393.4 412.5C393.4 412.5 405.5 420.9 405.8 424.7C438.5 376.2 521.9 361.1 569.5 421.3C575.8 413 582.3 410.3 582.3 410.3C532.3 344.9 432.6 353 393.3 412.5H393.4Z" fill="#FFBB00" stroke="black" style="fill:#FFBB00;fill:color(display-p3 1.0000 0.7333 0.0000);fill-opacity:1;stroke:black;stroke-opacity:1;"/>
<path id="Vector_32" d="M517.4 227L522.2 226.9L513.7 237.7L523.9 249.6L503.8 274.9L522.8 297.7C520.86 302.705 518.235 307.417 515 311.7L504.1 299.7L524 275L507.8 256.6L517.4 227ZM449.3 229.2H444.3L453.8 239.6L443.7 252.2L464.7 275L447.3 298.3C449.3 303.3 452.3 309.1 455.6 313.3L465.9 300.2L444.7 276.6L460.2 256.9L449.3 229.2Z" fill="#1E5AA6" stroke="black" style="fill:#1E5AA6;fill:color(display-p3 0.1176 0.3529 0.6510);fill-opacity:1;stroke:black;stroke-opacity:1;"/>
<path id="Vector_33" d="M473 290.4L465.4 300.4L492.2 331.4C497 329 500.7 326.3 504.7 323L490.7 306.9L496.4 290.2L504.6 299.6L479.1 332.2C474.7 330.4 470.267 327.667 465.8 324L479.3 306.9L473 290.4ZM464.7 274.9L469.5 281L466.4 272.7L464.7 274.9ZM499.6 280.3L503.6 275.1L502.1 273.1L499.6 280.3Z" fill="#1E5AA6" stroke="black" style="fill:#1E5AA6;fill:color(display-p3 0.1176 0.3529 0.6510);fill-opacity:1;stroke:black;stroke-opacity:1;"/>
<path id="Vector_34" d="M556 195C556 195 560.8 191 564.1 191" stroke="#FFF700" style="stroke:#FFF700;stroke:color(display-p3 1.0000 0.9686 0.0000);stroke-opacity:1;" stroke-linecap="round"/>
<path id="Vector_35" d="M556.7 194.5C556.8 194.4 584.8 190.5 585.7 189.5M556.8 194.7L588.2 192M556.7 194.8C556.7 194.8 590 193.3 592 195" stroke="#FFF700" style="stroke:#FFF700;stroke:color(display-p3 1.0000 0.9686 0.0000);stroke-opacity:1;" stroke-linecap="round"/>
<path id="Vector_36" d="M556.6 194.7C556.6 194.7 589.2 195 589.8 195.7M556.7 194.7L588.1 197.3M556.4 195C556.4 195 588.4 197.8 591.4 201.8" stroke="#FFF700" style="stroke:#FFF700;stroke:color(display-p3 1.0000 0.9686 0.0000);stroke-opacity:1;" stroke-linecap="round"/>
<path id="Vector_37" d="M593.1 207.5C593.1 207.4 582.3 194.6 556.3 194.8" stroke="#FFF700" style="stroke:#FFF700;stroke:color(display-p3 1.0000 0.9686 0.0000);stroke-opacity:1;" stroke-linecap="round"/>
<path id="Vector_38" d="M556.4 195C556.4 195 574.4 196.3 580.1 202.6" stroke="#FFF700" style="stroke:#FFF700;stroke:color(display-p3 1.0000 0.9686 0.0000);stroke-opacity:1;" stroke-linecap="round"/>
<path id="Vector_39" d="M556.7 194.8C556.7 194.8 568.4 192.6 580.6 207.3" stroke="#FFF700" style="stroke:#FFF700;stroke:color(display-p3 1.0000 0.9686 0.0000);stroke-opacity:1;" stroke-linecap="round"/>
<path id="Vector_40" d="M549.4 208.2C549.4 208.2 565.5 208.8 565.5 210.4C565.5 212 553.5 215 553.3 221.6C553.2 228.3 562.5 228.8 563.2 237.2C563.8 245.6 555.9 246.8 554.2 249.1C552.7 250.1 548.9 262.1 549.4 269.1C549.9 276.1 551.9 299.6 555.6 304.4C558.4 306.6 562.6 313.7 567.3 311.4C571.9 309.3 568.7 301.2 568.3 299C567.8 296.8 570.1 293.1 570.1 289.8C570.1 286.4 568.4 283.8 568.6 283C568.8 282.2 581.4 286 580.6 298.5C579.8 311 574.7 307.2 574.7 307.2C574.7 307.2 576.3 322.6 572.4 324.6C565.2 328.4 560 323.8 560 323.8L560.7 327L555.2 324.2C555.2 324.2 548.2 314.2 546.7 309.7C544.653 300.341 543.68 290.779 543.8 281.2C544.5 276.9 544.9 251.9 544.6 250.6C544.3 249.4 543 228.5 543.8 225.3C544.6 222.1 549.5 208.2 549.4 208.2Z" fill="url(#paint2_linear_2194_4286)" stroke="black" style="stroke:black;stroke-opacity:1;"/>
<path id="Vector_41" d="M532 204C532 204 543.2 193.1 549.7 194.4C553 194.4 549.9 196.8 549.9 196.8C549.9 196.8 555.6 197.2 556.4 199.8C556.5 200.8 553.7 201.2 553.7 201.2C553.7 201.2 556 201.7 556.2 203.7C556.4 205.8 532.2 204.2 531.9 204.1L532 204Z" fill="#FF7000" stroke="black" style="fill:#FF7000;fill:color(display-p3 1.0000 0.4392 0.0000);fill-opacity:1;stroke:black;stroke-opacity:1;"/>
<path id="Vector_42" d="M532.6 203.6C532.6 203.6 544.6 202 549.7 196.9" stroke="black" style="stroke:black;stroke-opacity:1;"/>
<path id="Vector_43" d="M544.8 200.3C544.8 200.3 553.7 199.9 553.7 201.3" stroke="black" style="stroke:black;stroke-opacity:1;"/>
<path id="Vector_44" d="M576.3 329.9C576.3 329.9 583.9 328.1 586 325.4C587.2 324.4 593.9 335.4 576.3 329.9Z" fill="white" stroke="black" style="fill:white;fill-opacity:1;stroke:black;stroke-opacity:1;" stroke-linejoin="round"/>
<path id="Vector_45" d="M574.3 267C574.3 267 575.3 272.8 572.5 276.8C571.1 278.4 566.8 281.1 566.8 283C566.8 284.9 568.4 287.4 568.1 289.6C567.8 291.8 565.4 294.1 565.5 296C565.5 297.9 568.2 308 567.9 308.2M560.3 248C560.3 248 554.3 250 553 256" stroke="white" style="stroke:white;stroke-opacity:1;" stroke-linecap="round"/>
<path id="Vector_46" d="M557.8 200.3C557.8 200.3 559.8 206 566.5 200.6C562.2 194.7 557.8 200.4 557.8 200.3Z" fill="#C75B00" stroke="black" style="fill:#C75B00;fill:color(display-p3 0.7804 0.3569 0.0000);fill-opacity:1;stroke:black;stroke-opacity:1;"/>
<path id="Vector_47" d="M562.7 200C562.7 200.333 562.466 200.533 562 200.6C561.533 200.667 561.3 200.467 561.3 200C561.3 199.533 561.533 199.367 562 199.5C562.4 199.5 562.633 199.667 562.7 200Z" fill="black" style="fill:black;fill-opacity:1;"/>
<path id="Vector_48" d="M503.4 187C503.4 187 516 200.7 524.1 200.5C525.6 204.5 520.4 208.3 518.4 210C514.2 208.7 510.4 210.3 500.8 198.4C501.4 190.8 503.5 187.4 503.4 187ZM520.4 155.2C522.1 150.2 525.4 146.2 528.2 145.7C527.4 141.9 534.1 124.8 553.5 118.3C554.7 127 545.2 135.7 545.2 135.7C545.2 135.7 573.9 130.7 579.7 123.5C579.1 126.7 573.3 147.1 542.7 146.9C554.3 157.9 539 166.7 532.5 164C544.5 154.8 529 149.3 520.5 155.2H520.4Z" fill="white" stroke="black" style="fill:white;fill-opacity:1;stroke:black;stroke-opacity:1;"/>
<path id="Vector_49" d="M530.2 148.1C536 144.4 538.1 144.4 542.9 145.1L539.4 145.7C539.4 145.7 539.1 146.2 541.2 148.1C538.8 147.5 536.8 146.1 530.2 148.1Z" fill="#CCCCCD" stroke="#CCCCCC" style="fill:#CCCCCD;fill:color(display-p3 0.8000 0.8000 0.8039);fill-opacity:1;stroke:#CCCCCC;stroke:color(display-p3 0.8000 0.8000 0.8000);stroke-opacity:1;"/>
<path id="Vector_50" d="M528 145.7C528 145.7 539.4 139.7 545.8 135.5" stroke="black" style="stroke:black;stroke-opacity:1;"/>
<path id="Vector_51" d="M518.2 210C518.2 210 533.9 214.3 535.7 191.8C532.3 182 527.6 160.8 534.8 154.8C528.2 150.2 520.8 155 520.8 155C520.4 156 514.5 164.5 522.5 179.3C503.5 174.3 511.2 192.3 511.2 192.3C512 189.3 522.1 186.7 524.6 201.1C525.6 204.7 517.8 210.1 518.2 210.1V210Z" fill="#0000FF" stroke="black" style="fill:#0000FF;fill:color(display-p3 0.0000 0.0000 1.0000);fill-opacity:1;stroke:black;stroke-opacity:1;"/>
<path id="Vector_52" d="M535.9 192C535.9 192 552.5 183 552.1 162C537.9 162.4 532.9 180.6 532.9 180.6L535.9 192Z" fill="#0000FF" stroke="black" style="fill:#0000FF;fill:color(display-p3 0.0000 0.0000 1.0000);fill-opacity:1;stroke:black;stroke-opacity:1;"/>
<path id="Vector_53" d="M461.3 190.9C461.3 190.9 449 201.6 442 198.2C436.9 201.2 430.8 195.8 430.8 195.8C430.8 195.8 437.8 222.1 463.4 203.1C463.148 198.976 462.478 194.888 461.4 190.9H461.3Z" fill="white" stroke="black" style="fill:white;fill-opacity:1;stroke:black;stroke-opacity:1;"/>
<path id="Vector_54" d="M441.9 197.7C442.9 192.2 447.2 189.5 450.7 194.7C455.3 195.7 459.9 176.7 443.5 179.9C448.1 155.2 434.3 146 434.3 146C434.3 146 429.4 173.4 431.7 178.4C433.9 183.4 428.4 169.1 410.7 165C410.4 185.7 430.5 195.3 430.5 195.3C430.5 195.3 436.1 200.5 441.9 197.7Z" fill="#0000FF" stroke="black" style="fill:#0000FF;fill:color(display-p3 0.0000 0.0000 1.0000);fill-opacity:1;stroke:black;stroke-opacity:1;"/>
<path id="Vector_55" d="M443.5 179.7C443.5 179.7 435.8 186.3 437.5 195.2M431.8 178.9C431.8 178.9 430 185.2 433.8 194.3" stroke="black" style="stroke:black;stroke-opacity:1;"/>
<path id="Vector_56" d="M430.6 196.4C430.6 196.4 434.2 190.6 441.9 198" stroke="black" style="stroke:black;stroke-opacity:1;"/>
<path id="Vector_57" d="M432.1 156.3C432.1 156.1 420.4 156.3 427.3 168.2C422.2 169.8 410.6 162.2 418.6 152.2C392.3 151.5 381.6 138.9 381.6 127.3C389.3 135.3 407.8 132.1 414.3 137C406.3 129.6 407.9 119.3 407.9 119.3C407.9 119.3 430.3 126 434.3 145.9C433 149.8 432.4 156.6 432.1 156.3Z" fill="white" stroke="black" style="fill:white;fill-opacity:1;stroke:black;stroke-opacity:1;"/>
<path id="Vector_58" d="M414 136.5C418.4 140.9 429.5 142.2 435.1 147.1" stroke="black" style="stroke:black;stroke-opacity:1;"/>
<path id="Vector_59" d="M419.2 149.5C419.2 149.5 428.4 148.3 431.1 151.5C427.5 151.5 426.3 150.6 421.1 152.5C422.5 151.8 422.1 150.5 422.9 150.5C423.7 150.5 419.6 149.5 419.2 149.5Z" fill="#CCCCCD" stroke="#CCCCCC" style="fill:#CCCCCD;fill:color(display-p3 0.8000 0.8000 0.8039);fill-opacity:1;stroke:#CCCCCC;stroke:color(display-p3 0.8000 0.8000 0.8000);stroke-opacity:1;" stroke-width="0.7"/>
<path id="Vector_60" d="M465 77.5C465 77.5 470.1 73 475.6 77C473.1 84.4 464.2 81.6 464.2 81.6C464.2 81.6 464.5 85.3 463.6 87.1C465.4 88.5 466.8 92.9 466.8 92.9C466.8 92.9 476 90.7 478 94.7C481.5 94.2 484 94.7 484 94.7C484 94.7 491.2 92.9 493.7 92.9C496.2 92.9 504.2 94.9 505 96.5C505.7 97.9 508.4 107.9 510.2 107.7C512 107.6 505.9 110.1 504.2 107.6C502.6 105.1 503.1 110.9 503.1 110.9C503.1 110.9 508.1 116.2 508.7 117.4C509.3 118.6 505.6 128.2 508.4 134.9C505.9 135.1 505.7 137.7 505.7 137.7C505.6 140.7 501.9 141.4 501.9 141.4L500.9 137.4L498.5 138.9L499.5 135.8C499.5 135.8 502.9 127.5 503.2 124.8C503.5 122.1 500.1 117.4 497.4 117.4C494.7 117.4 492.8 125.9 492.8 125.9C492.8 125.9 491.5 132.2 491.9 132.9L490.1 130.8C490.1 130.8 489 134.6 488.1 135.8C487.1 137 485.2 137.4 485.2 137.4C485.2 137.4 483.9 133.6 484.4 132.1C484.9 130.6 491.6 124.8 491 120.7C490.4 116.6 491 117.5 490.9 117.4C490.7 117.2 487.3 114.3 487.2 112.6C487.1 110.9 482.7 114.7 477.1 113.6C475.4 116.6 475.1 124.1 475.1 124.1C475.1 124.1 474.6 133.1 475.7 134.1C476.9 135.2 472.7 137.4 472.7 137.4L469.8 141.4L468.8 139.1L466.7 140.6L467.9 137.6C467.8 135.3 470.8 129.2 470.8 124C470.8 118.8 471.1 113.2 471.1 113.2C471.1 113.2 465.7 112.9 465.8 118.6C465.9 124.2 464.5 124.6 464.8 126.1C465.1 127.8 466.5 132.4 466.1 133.7C465.7 135.1 463.9 135.5 463.9 135.5L463.4 136.2C463.4 136.2 457.9 138.8 458.1 139.8L457.9 136.8L457.6 132.5C457.6 132.5 460.9 130.5 460.9 125.3C460.9 120.1 460.2 119.3 460.3 118.1C460.4 116.9 461.2 112.6 461 112.1C460.9 111.7 458 113.4 457 113.4C456 113.4 458.7 110.3 459 108C459.3 105.8 456 110.1 453.3 107.6C454.6 104.9 456.4 104 456.7 102C457 99.9 454.7 103.7 452.6 102.2C452.8 100.2 454.8 98.5 454.8 98.5C454.8 98.5 453.1 98.3 452.4 98.5C451.1 98.1 453.9 96 454.1 93C454.3 90 452.4 88.9 452.4 88.7C452.4 88.6 449.4 86.1 449 85C448.6 84 448.6 82.8 448.6 82.8C448.6 82.8 443.6 86.4 437.9 78.8C443.2 74.3 448.9 77.6 448.9 77.6C448.9 77.6 450.4 73.4 457.2 73.7C464 74 465.4 77.9 465.1 77.5H465Z" fill="#923F00" stroke="black" style="fill:#923F00;fill:color(display-p3 0.5725 0.2471 0.0000);fill-opacity:1;stroke:black;stroke-opacity:1;"/>
<path id="Vector_61" d="M502.4 154.2C502.5 154.2 515 154.6 515.1 161.3C515.3 168 511.3 166.3 511.1 166.3L502.1 165.1L502.4 154.2Z" fill="#0000FF" stroke="black" style="fill:#0000FF;fill:color(display-p3 0.0000 0.0000 1.0000);fill-opacity:1;stroke:black;stroke-opacity:1;"/>
<path id="Vector_62" d="M490.3 152.4C490.3 152.4 505.9 152.3 505 159.1C504.1 165.9 500.2 164.5 500.2 164.5L492.6 163.9L490.3 152.4Z" fill="#FFFEFF" stroke="black" style="fill:#FFFEFF;fill:color(display-p3 1.0000 0.9961 1.0000);fill-opacity:1;stroke:black;stroke-opacity:1;"/>
<path id="Vector_63" d="M481.5 151.7L490.5 152.4C490.5 152.4 496 153.1 495.7 158.4C495.5 163.5 490.2 163.6 490.2 163.6L481.4 163.1L481.5 151.7Z" fill="#0000FF" stroke="black" style="fill:#0000FF;fill:color(display-p3 0.0000 0.0000 1.0000);fill-opacity:1;stroke:black;stroke-opacity:1;"/>
<path id="Vector_64" d="M460.4 154.2C460.2 154.2 447.8 154.6 447.6 161.3C447.6 168 451.5 166.3 451.6 166.3L460.7 165.1L460.4 154.2Z" fill="white" stroke="black" style="fill:white;fill-opacity:1;stroke:black;stroke-opacity:1;"/>
<path id="Vector_65" d="M472.5 152.4C472.5 152.4 456.9 152.3 457.8 159.1C458.6 165.9 462.6 164.5 462.6 164.5L470.1 163.9L472.5 152.4Z" fill="#0000FF" stroke="black" style="fill:#0000FF;fill:color(display-p3 0.0000 0.0000 1.0000);fill-opacity:1;stroke:black;stroke-opacity:1;"/>
<path id="Vector_66" d="M481.3 151.7L472.3 152.4C472.3 152.4 466.8 153.1 467 158.4C467.3 163.5 472.6 163.6 472.6 163.6L481.4 163.1L481.3 151.7Z" fill="white" stroke="black" style="fill:white;fill-opacity:1;stroke:black;stroke-opacity:1;"/>
<path id="Vector_67" d="M505.4 226.7C505.4 226.7 511.9 217.2 514.7 218.2C517.1 219 515.2 226.4 514.1 227.1L505.4 226.7ZM461 228.4C458.9 225.6 456 217.7 453.2 219.9C450.8 220.7 452.6 228.1 453.8 228.8L461 228.4Z" fill="#5E0043" stroke="black" style="fill:#5E0043;fill:color(display-p3 0.3686 0.0000 0.2627);fill-opacity:1;stroke:black;stroke-opacity:1;"/>
<path id="Vector_68" d="M465.2 209.5C465.2 209.5 477.9 217.3 482 217.5C486.1 217.7 499.3 207.4 499.3 207.4" stroke="black" style="stroke:black;stroke-opacity:1;"/>
<path id="Vector_69" d="M466.5 179L468.9 176L481 182L493.4 176.5L495.8 179.1L482 188.8L466.5 179Z" fill="#5E0043" stroke="black" style="fill:#5E0043;fill:color(display-p3 0.3686 0.0000 0.2627);fill-opacity:1;stroke:black;stroke-opacity:1;"/>
<path id="Vector_70" d="M456.8 178.8C461.514 184.237 465.024 190.61 467.1 197.5C468.5 205.4 466.3 186.6 466.3 186.6C466.3 186.6 476 191.4 476.3 194.4C476.6 197.4 480.9 194.2 481.1 193.7L453.1 175.5L456.8 178.8ZM504.8 178.3C504.8 178.3 494.6 191.7 495.8 206.3C493.7 199.3 495.4 187.8 495.4 187.8L493.2 189.2C493.2 189.2 490.8 199.1 487.9 200.6C487.5 199.467 487.367 198.933 487.5 199C487.7 199.1 484.4 203 483.8 203.4C483.2 203.8 484 217.1 484 217.1C484 217.1 485 226.7 486.2 226.6L483.2 228.3L481.9 202.7L484.8 199.8C484.8 199.8 488.6 195.1 488.9 190.6C487.3 192 485.4 192.4 485.4 192.4C485.4 192.4 484.9 198.9 483.4 199.8C481.8 200.8 481.8 202.4 481.8 202.4L481.4 193.9L504.8 178.3Z" fill="#474747" stroke="#474747" style="fill:#474747;fill:color(display-p3 0.2784 0.2784 0.2784);fill-opacity:1;stroke:#474747;stroke:color(display-p3 0.2784 0.2784 0.2784);stroke-opacity:1;" stroke-linejoin="round"/>
<path id="Vector_71" d="M481.4 193.8L483.4 234.3" stroke="black" style="stroke:black;stroke-opacity:1;" stroke-linecap="round"/>
<path id="Vector_72" d="M456.5 213.2C456.5 213.2 461.2 215.9 462.9 224.2C478.1 223.1 482.9 228.4 482.9 228.4C482.9 228.4 495.3 222.4 501.1 223.6C503.1 219.3 508.9 213.9 508.9 213.9" stroke="black" style="stroke:black;stroke-opacity:1;"/>
<path id="Vector_73" d="M450.2 173.5L481.4 193.9L509.6 175C509.6 175 515.4 171.8 514.9 169.5C514.4 167.1 512.4 168 511.4 168.5C510.4 168.8 481.9 189 481.9 189L451.7 169.8C451.7 169.8 449.5 169.1 449.1 170.6C448.7 172 449.9 172.8 450.2 173.5Z" fill="#B4B6B9" stroke="black" style="fill:#B4B6B9;fill:color(display-p3 0.7059 0.7137 0.7255);fill-opacity:1;stroke:black;stroke-opacity:1;"/>
<path id="Vector_74" d="M506 168.2C506 168.2 498 164.8 498 167.7C498 170.7 498.3 171 499.6 172.9C500.9 174.7 498.6 175.9 498.6 175.9L497.8 173.9C497.4 172.6 493.1 171.7 492.8 170.1C492.3 168.6 493.6 166.2 491.1 165.9C488.5 165.6 486 166.9 485.5 169.9C484.485 173.273 483.18 176.552 481.6 179.7L482.1 164.1C487.7 164.5 498.1 165.7 506.2 166.7C503.8 166.3 507.2 166.8 507 167.7C506.8 168.3 506 168.4 506 168.2ZM477.8 164.3C474.26 164.432 470.758 165.072 467.4 166.2C465.6 167.2 470.4 168.9 469.7 170.2C469.1 171.7 469 174.6 466.7 174C464.4 173.4 456.9 169.6 456.7 168.3C456.4 167.1 454.9 167 454.9 167C454.9 167 476.7 164 477.8 164.3Z" fill="#474747" stroke="#474747" style="fill:#474747;fill:color(display-p3 0.2784 0.2784 0.2784);fill-opacity:1;stroke:#474747;stroke:color(display-p3 0.2784 0.2784 0.2784);stroke-opacity:1;" stroke-linejoin="round"/>
<path id="Vector_75" d="M481.2 162.5V181.6M466.5 139.9L457.5 154.5" stroke="black" style="stroke:black;stroke-opacity:1;"/>
<g id="Vector_76">
<path d="M482.6 139.5C482.6 139.5 486.4 144.7 486 146.2C487.5 147.4 489.3 152.2 489.3 152.2" fill="url(#paint3_linear_2194_4286)" style=""/>
<path d="M482.6 139.5C482.6 139.5 486.4 144.7 486 146.2C487.5 147.4 489.3 152.2 489.3 152.2" stroke="black" style="stroke:black;stroke-opacity:1;"/>
</g>
<path id="Vector_77" d="M497.3 138.7C497.3 138.7 489.1 150.3 489.3 151.2" stroke="black" style="stroke:black;stroke-opacity:1;"/>
<path id="Vector_78" d="M455.1 83.4C454.767 84.0667 454 84.2667 452.8 84C451.6 83.5334 451.033 82.9334 451.1 82.2C451.3 81.5 452.4 81.2 453.5 81.6C454.5 81.9 455.3 82.7 455.1 83.4ZM458.5 83.2C458.833 83.8667 459.6 84.0334 460.8 83.7C462 83.3667 462.567 82.7667 462.5 81.9C462.3 81.3 461.2 81 460.1 81.4C459.1 81.7 458.3 82.5 458.5 83.2Z" fill="black" style="fill:black;fill-opacity:1;"/>
<path id="Vector_79" d="M555 324C555 324 551.8 324.5 552 324.8C552 325.1 543 325.4 542.9 325.1C542.7 324.8 541.5 326.6 541.5 326.6L543 325.7C543 325.7 545.2 328 545.8 327.8C546.5 327.7 545.5 328.8 545.8 328.9C545.9 329.1 546.6 328.5 546.6 328.5L561.4 328.3L555 324ZM560.4 328.5L548.4 328.9C548.4 328.9 545.3 331.7 545.1 332.3C544.9 332.9 547.1 333.2 547.1 333.2L547.7 335.5L549.3 334.9C549.3 334.9 559.6 336.4 569 334.3C573.8 332.7 574.7 330.7 571.3 329.4C568 328.2 560.5 328.6 560.4 328.5Z" fill="#FF7000" stroke="black" style="fill:#FF7000;fill:color(display-p3 1.0000 0.4392 0.0000);fill-opacity:1;stroke:black;stroke-opacity:1;" stroke-linejoin="round"/>
<path id="Vector_80" d="M519 353.4L540.7 352.4L536.7 349L595.7 346.6L593.7 341.9L527.6 344.6L535.6 348.3L517.6 348.8L518.2 350.7L513.5 350.5C513.5 350.5 518.8 352.5 518.9 353.5L519 353.4Z" fill="url(#paint4_linear_2194_4286)" stroke="black" style="stroke:black;stroke-opacity:1;"/>
<path id="Vector_81" d="M543.4 232.9C541.7 232 534 230.9 525.5 236.5L525.9 256.1C525.9 256.1 538.4 249.4 544.4 250.9C544.1 244.9 544.1 237.1 543.4 232.9Z" fill="url(#paint5_linear_2194_4286)" stroke="black" style="stroke:black;stroke-opacity:1;"/>
<path id="Vector_82" d="M422.7 292.4L371.3 343.4M445.7 292.7L403.9 347.7M443.8 278.4L388.1 345.9M386.4 345L391.8 338.6M454.4 312.3L432.8 342.1M431.9 346L432.4 357.4M464.3 322.7L441.3 351.5M460.2 349.2L469.5 333.9M463.8 331L452.6 343.6M460.4 319L452.8 328.3M450.5 305.4C450.5 305.4 427.2 339.5 427.6 342.4M448.1 301C447.5 301.3 428 327.2 428 327.2M426.9 335.4L423.3 339.7M418.8 346.2L413.4 353.3" stroke="black" style="stroke:black;stroke-opacity:1;"/>
<path id="Vector_83" d="M420.2 213.8C420.2 213.8 418.6 218.8 420.2 221.3C421.8 223.8 431.7 243.8 431.7 243.8C431.7 243.8 438.5 235.5 441 235.3C443.4 235 442.3 256.9 442.3 256.9C442.3 256.9 438.3 260.7 435.8 260.5C433.3 260.3 441.8 269.1 441.6 276.5C441.4 283.9 430.4 321 426.3 321.6C422.3 322.3 428.1 314.9 427.9 312.8C427.6 310.8 426.5 312.2 425.6 309.9C424.7 307.6 427 304.3 426.6 302C426.1 299.8 424 300.2 423.8 298.6C423.6 297 425.2 296.6 424.9 294.8C424.6 293 422.2 293.4 422.5 291.8C422.7 290.3 422.9 291 422.7 288C422.5 285.1 422 290 419.5 290.3C417 290.6 415 296.2 415 296.2C415 296.2 410 303.2 405.1 300C408.1 306.3 405.8 309 404.6 309.2C403.6 309.5 405.6 314.2 402.8 314.4C400 314.6 404.8 325 401.8 325.9C405.1 327.5 402.4 329.5 402.4 329.5C402.4 329.5 394.6 330.2 396.3 340.4C373.3 332.2 362 318.3 362.3 304C362.6 289.7 367 277 378 272.3C381.2 260.5 386.6 247.9 386.6 247.9C386.6 247.9 385.7 242.7 386.4 239.3C387.137 236.805 388.437 234.513 390.2 232.6C390.2 232.6 389.8 224.4 390 220.4C390.2 216.4 391.8 214.5 392 212.3C392.2 210 391.3 198.5 393.6 196.5C395.9 194.5 400.1 194.7 402.4 193.3C404.6 192 407.6 189.5 410.5 189.7C413.5 189.9 415.9 192 415.9 192C415.9 192 426.9 192 427.6 196.2C428.3 200.4 425.4 202.2 425.4 202.2C425.4 202.2 427 208.2 420.2 213.8Z" fill="#8A9396" stroke="#2B2B2B" style="fill:#8A9396;fill:color(display-p3 0.5412 0.5765 0.5882);fill-opacity:1;stroke:#2B2B2B;stroke:color(display-p3 0.1686 0.1686 0.1686);stroke-opacity:1;"/>
<path id="Vector_84" d="M410.4 198.2C410.7 198.9 409.9 200 408.6 200.7C407.3 201.4 405.9 201.5 405.6 200.9C405.333 200.1 405.9 199.267 407.3 198.4C408.7 197.6 410 197.6 410.3 198.2H410.4Z" fill="#CECFCF" stroke="#2B2B2B" style="fill:#CECFCF;fill:color(display-p3 0.8078 0.8118 0.8118);fill-opacity:1;stroke:#2B2B2B;stroke:color(display-p3 0.1686 0.1686 0.1686);stroke-opacity:1;"/>
<path id="Vector_85" d="M408.5 199.4C408.433 199.867 408.167 200.1 407.7 200.1C407.233 200.1 406.933 199.867 406.8 199.4C406.8 198.867 407.1 198.6 407.7 198.6C408.167 198.6 408.433 198.867 408.5 199.4Z" fill="black" style="fill:black;fill-opacity:1;"/>
<path id="Vector_86" d="M425 206.8C425 206.8 427.7 219 424.5 227.5M425.9 201.5C425.9 201.5 431.2 208.5 430.5 217.3M426.4 200C426.5 200 430.9 203.7 430.7 206.3M427.4 198.4C427.4 198.4 430.4 200.4 431 202.5" stroke="#2B2B2B" style="stroke:#2B2B2B;stroke:color(display-p3 0.1686 0.1686 0.1686);stroke-opacity:1;" stroke-width="0.5"/>
<path id="Vector_87" d="M426 197.2C426 197.2 415.5 214.2 416.9 224.9" stroke="black" style="stroke:black;stroke-opacity:1;"/>
<path id="Vector_88" d="M426.7 196.6C426.7 196.6 412.7 204.9 410.2 232" stroke="#2B2B2B" style="stroke:#2B2B2B;stroke:color(display-p3 0.1686 0.1686 0.1686);stroke-opacity:1;" stroke-width="0.5"/>
<path id="Vector_89" d="M425.2 201.6L419.6 205.8" stroke="black" style="stroke:black;stroke-opacity:1;"/>
<path id="Vector_90" d="M405 233.5C405 233.5 412.8 201.3 426.5 196.6" stroke="#2B2B2B" style="stroke:#2B2B2B;stroke:color(display-p3 0.1686 0.1686 0.1686);stroke-opacity:1;" stroke-width="0.5"/>
<path id="Vector_91" d="M431.9 244.4C431.9 244.4 439.3 235.1 441 235.4C442.7 235.7 442.2 257 442.2 257C442.2 257 436.7 261.1 435.5 261C434.3 260.8 441.7 271 441.5 274.7C441.4 278.5 441.2 278.5 441.2 278.5C441.2 278.5 441.2 276.3 439.5 272.7C437.7 269 438.8 264.9 427.5 255.7C424.8 250.1 433.1 259.2 434.8 257.8C436.5 256.4 431.8 244.6 431.8 244.4H431.9Z" fill="#2B2B2B" stroke="#2B2B2B" style="fill:#2B2B2B;fill:color(display-p3 0.1686 0.1686 0.1686);fill-opacity:1;stroke:#2B2B2B;stroke:color(display-p3 0.1686 0.1686 0.1686);stroke-opacity:1;"/>
<path id="Vector_92" d="M418.7 192C418.7 192 415.6 192.8 415.2 194C414.7 195.4 412.9 196.6 411.9 196.2C410.9 195.8 409.1 194.2 409.1 194.2" stroke="#2B2B2B" style="stroke:#2B2B2B;stroke:color(display-p3 0.1686 0.1686 0.1686);stroke-opacity:1;"/>
<path id="Vector_93" d="M401 202.9C401 202.9 396.3 207.5 398.6 208.1C400.9 208.7 403.3 204.4 403.3 204.4C403.3 204.4 403.3 211.7 405.3 210.5C407.3 209.4 413 205.3 413 205.3C413 205.3 415 205.1 415.5 205.3C415.9 205.4 420.8 209.7 424.1 208.1C422.2 212.9 420.1 213.5 420.1 213.5C420.1 213.5 416.7 217.9 412.3 216.9C407.9 215.9 406.8 214.1 406.8 214.1C406.8 214.1 403.1 214.3 402 212.6L400.4 210C400.4 210 398.4 212 397.7 211C397.2 210 397.7 204.3 401 202.9Z" fill="#2B2B2B" stroke="#2B2B2B" style="fill:#2B2B2B;fill:color(display-p3 0.1686 0.1686 0.1686);fill-opacity:1;stroke:#2B2B2B;stroke:color(display-p3 0.1686 0.1686 0.1686);stroke-opacity:1;" stroke-linejoin="round"/>
<path id="Vector_94" d="M427.5 196.4C427.5 196.4 418.9 193.8 415.9 198.1C412.9 202.4 413.6 204.7 415.2 205.1" stroke="#2B2B2B" style="stroke:#2B2B2B;stroke:color(display-p3 0.1686 0.1686 0.1686);stroke-opacity:1;"/>
<path id="Vector_95" d="M428.8 196.1C428.8 197.1 428.1 198 427.2 198C426.3 198 425.6 197.1 425.6 196.1C425.667 194.967 426.2 194.367 427.2 194.3C428.2 194.433 428.733 195.033 428.8 196.1Z" fill="black" style="fill:black;fill-opacity:1;"/>
<path id="Vector_96" d="M403.7 218.2C403.7 218.2 407.2 223.6 411.4 225.1C415.6 226.6 408.4 227.8 404.3 225.1C401.3 220.9 402.1 217.9 402.1 217.9C402.1 217.9 402.9 217.1 403.7 218.2ZM433.8 250.1C433.8 250.1 423.9 236.4 421.1 235.6C418.2 234.9 423.3 234.3 426.3 237.2C429.3 240.1 425.5 232.5 425.5 232.5L433.8 250.1Z" fill="#2B2B2B" stroke="#2B2B2B" style="fill:#2B2B2B;fill:color(display-p3 0.1686 0.1686 0.1686);fill-opacity:1;stroke:#2B2B2B;stroke:color(display-p3 0.1686 0.1686 0.1686);stroke-opacity:1;"/>
<path id="Vector_97" d="M402.7 329.6C406.5 328.6 423.1 339.1 426.7 341.7C430.5 344.4 438.3 342.7 438.3 342.7C438.3 342.7 434.7 344.9 432.5 345.4C430.2 345.9 439.1 345.9 439.1 345.9C439.1 345.9 418 351.8 396.5 340.5C394.5 331.7 401.1 329.7 402.7 329.6Z" fill="#2B2B2B" stroke="#2B2B2B" style="fill:#2B2B2B;fill:color(display-p3 0.1686 0.1686 0.1686);fill-opacity:1;stroke:#2B2B2B;stroke:color(display-p3 0.1686 0.1686 0.1686);stroke-opacity:1;" stroke-linejoin="round"/>
<path id="Vector_98" d="M427 253.5C427 253.5 424.1 253 422.7 251.4C421.3 249.8 419.3 245.7 417.2 244C415.1 242.4 404.6 236.6 400.8 237C397 237.4 395.8 236.6 395.3 236.1C394.8 235.6 393.3 236.3 393.6 238.3C393.9 240.3 390.6 244.6 391.8 246.6C393.985 250.395 396.566 253.948 399.5 257.2C400.5 257.5 399.9 262 399.9 262C399.9 262 404.7 266.9 405.9 267.1C407.1 267.4 408.4 268.3 408.2 269.5C408.1 270.6 402.9 276.9 402.9 276.9C402.9 276.9 397.4 279.9 397.3 281.4C397.3 283.1 398.7 286.4 403.1 287.5C408.695 288.397 414.415 288.125 419.9 286.7C420.5 285.7 421.5 279.7 421.1 279C420.7 278.4 417.8 276.6 416.3 276.8C414.8 277.1 413.4 278.3 413.6 278.6C413.8 278.9 411.5 280 411.5 278.9C411.5 277.8 415.9 272.9 416.3 273.4C416.7 273.9 422.9 274.4 424.1 277.5C425.2 280.6 425.2 282.9 428.5 282.5C431.7 282.2 436.3 279.2 436.7 273C436.854 270.924 436.508 268.841 435.69 266.927C434.872 265.013 433.607 263.323 432 262C431 261.3 427.6 259.3 427.3 258.3C427 257.3 426.3 254.3 426.9 253.5H427Z" fill="#2B2B2B" stroke="#2B2B2B" style="fill:#2B2B2B;fill:color(display-p3 0.1686 0.1686 0.1686);fill-opacity:1;stroke:#2B2B2B;stroke:color(display-p3 0.1686 0.1686 0.1686);stroke-opacity:1;"/>
<path id="Vector_99" d="M368.3 281C368.3 281 378.8 278.3 381.5 278.4C384.2 278.4 394.5 283.2 397.5 286.1C400.5 289 406.5 295.9 410.5 295.3C414.5 294.7 415.7 293.9 415.7 293.9L414.1 296.9C414.1 296.9 410.9 297.8 409.2 297.4C407.6 297 404.4 295.9 401.2 292.8C398.1 289.8 388.2 281.3 379.9 281.9C371.6 282.5 366.8 290.7 366.8 290.7C366.8 290.7 366.8 286.7 367.2 285.8C367.5 285 365.4 287.8 365.4 287.8L368.3 281Z" fill="#2B2B2B" stroke="#2B2B2B" style="fill:#2B2B2B;fill:color(display-p3 0.1686 0.1686 0.1686);fill-opacity:1;stroke:#2B2B2B;stroke:color(display-p3 0.1686 0.1686 0.1686);stroke-opacity:1;"/>
<path id="Vector_100" d="M407 289.2C407 289.2 409.6 289.9 414 289.9C418.3 289.9 420.6 288 420.6 288L420.3 286.3L421 284C421 284 424.3 287.3 424.3 288C424.3 288.7 422.9 289 422.9 289L422.4 287.3L421.3 288.8C421.3 288.8 415 293.8 411.5 293C408.1 292.3 404.9 290 405.8 289.5C406.7 289 407.1 289.2 407 289.2ZM391.7 298C391.7 298 387.9 298 386.2 298.8C384.5 299.6 383.9 300.6 382.7 300.5C381.6 300.3 380.7 298.9 381 298.3C381.5 297.3 383.8 296.1 388 296.4C392.2 296.7 391.7 298 391.7 298ZM405 308.3C405 308.1 404.7 302.8 402.6 300.6C401.892 299.793 400.98 299.192 399.96 298.857C398.939 298.523 397.848 298.469 396.8 298.7C395.6 299 401 301.4 401.6 302.9C402.1 304.5 403.9 308.9 403.4 309.9C402.9 310.9 402.1 306.9 398.7 305.7C395.4 304.5 390.8 305.2 391.7 306.7C392.7 308.1 396.4 306.7 398.3 310C399.531 312.098 400.633 314.268 401.6 316.5L402.3 314.2L403.9 313.8L404.2 309.4L405 308.3Z" fill="#2B2B2B" stroke="#2B2B2B" style="fill:#2B2B2B;fill:color(display-p3 0.1686 0.1686 0.1686);fill-opacity:1;stroke:#2B2B2B;stroke:color(display-p3 0.1686 0.1686 0.1686);stroke-opacity:1;"/>
<path id="Vector_101" d="M402.3 325.7L398.8 318.7C398.8 318.7 397.8 314.4 394.8 313.2C391.8 312 388 312.2 388 313.6C387.9 315.1 394.2 317 394.6 317.8C395 318.6 394.8 320 394.3 320.1C393.8 320.2 390.9 319.1 389.5 319.4C388.1 319.7 387.3 321.6 385.2 321C383.1 320.5 381.3 313.8 382.2 313C382.9 312.4 380.6 314.3 380.1 312.5C379.6 310.8 380.8 305.3 380 304.6C379.2 303.9 375.2 301.6 375.2 301.1C375.1 300.6 375.4 274.1 397.5 296.1C388 284.8 384.3 286.1 382.5 286C381.3 286 372.6 286.7 370.5 297.7C368.3 308.7 365.7 301.8 365.7 301.8C365.7 301.8 365.3 306.6 367.6 307.9C369.9 309.3 366.5 313.2 366.5 313.2C366.5 313.2 362.3 303.2 363 298.7C362.1 302.2 362.2 311 367.4 320.5C374.828 328.929 384.15 335.475 394.6 339.6C402.6 327.3 402.3 325.8 402.3 325.6V325.7Z" fill="#2B2B2B" stroke="#2B2B2B" style="fill:#2B2B2B;fill:color(display-p3 0.1686 0.1686 0.1686);fill-opacity:1;stroke:#2B2B2B;stroke:color(display-p3 0.1686 0.1686 0.1686);stroke-opacity:1;" stroke-linejoin="round"/>
<path id="Vector_102" d="M387.8 325.8C387.8 325.8 392.2 326.3 393.4 328.6C394.7 330.9 395.2 334.4 395.2 334.4C396 332.9 396.2 331.7 397.8 330.6C399.3 329.5 400.4 329.3 400.3 328.6C400.3 327.7 395.5 322.8 393.2 322.5C390.8 322.2 386.7 325.1 386.7 325.1C386.7 325.1 385.9 326.1 387.7 325.8H387.8Z" fill="#8A9396" stroke="#2B2B2B" style="fill:#8A9396;fill:color(display-p3 0.5412 0.5765 0.5882);fill-opacity:1;stroke:#2B2B2B;stroke:color(display-p3 0.1686 0.1686 0.1686);stroke-opacity:1;" stroke-linejoin="round"/>
<path id="Vector_103" d="M398 337.4C398 337.4 409.6 342.7 428.6 343" stroke="#8A9396" style="stroke:#8A9396;stroke:color(display-p3 0.5412 0.5765 0.5882);stroke-opacity:1;" stroke-linecap="round"/>
<path id="Vector_104" d="M436.7 283.6C436.7 283.6 435.7 293.3 428.2 312.6" stroke="#2B2B2B" style="stroke:#2B2B2B;stroke:color(display-p3 0.1686 0.1686 0.1686);stroke-opacity:1;" stroke-linecap="round"/>
<path id="Vector_105" d="M435.2 289.6C435.2 289.6 432.9 296.6 426.7 301.8" stroke="#2B2B2B" style="stroke:#2B2B2B;stroke:color(display-p3 0.1686 0.1686 0.1686);stroke-opacity:1;"/>
<path id="Vector_106" d="M401.3 410.3L403.3 408.1L403.9 408.6L403.8 408.8L403.6 409.1V409.3L403.8 409.5L406.4 411.8L406.6 412H406.8L406.9 411.8C407.167 411.533 407.333 411.267 407.4 411C407.533 410.733 407.567 410.467 407.5 410.2C407.5 409.867 407.367 409.533 407.1 409.2L407.9 408.8L409.1 410.8L405.9 414.4L405.3 413.9L405.5 413.6L405.6 413.4V413.2L405.4 413L402.8 410.7L402.5 410.5H402.4L402.1 410.7L401.9 410.9L401.3 410.3ZM405.7 405.4L409.4 401.8L411.2 402.7L410.9 403.4L409.9 403.2L409.3 403.4C409.1 403.467 408.9 403.633 408.7 403.9L408 404.5L409 405.6L409.3 405.4C409.5 405.267 409.6 405.133 409.6 405V404.8L409.4 404.5L409.2 404.3L409.8 403.7L411.6 405.6L411 406.1L410.8 406L410.5 405.7H410.3L409.9 406L409.7 406.2L410.7 407.2L410.9 407.4H411L411.2 407.2L411.6 406.9L412.2 406.1C412.333 405.833 412.367 405.5 412.3 405.1C412.3 404.833 412.2 404.533 412 404.2L412.8 403.8L413.8 406.1L410 409.8L409.4 409.2H409.6L409.8 408.8V408.6L409.6 408.3L407.2 405.9L406.9 405.7H406.7L406.5 405.8L406.3 406L405.7 405.4ZM413.4 398C414.2 397.333 415 397.033 415.8 397.1C416.667 397.167 417.4 397.567 418 398.3C418.4 398.767 418.667 399.267 418.8 399.8C418.933 400.333 418.9 400.867 418.7 401.4C418.5 401.933 418.133 402.433 417.6 402.9C416.933 403.5 416.2 403.8 415.4 403.8C414.467 403.8 413.667 403.4 413 402.6C412.333 401.933 412.067 401.167 412.2 400.3C412.333 399.433 412.733 398.667 413.4 398ZM414.1 398.7C413.767 399.033 413.6 399.433 413.6 399.9C413.6 400.433 413.833 400.967 414.3 401.5C414.767 402.033 415.267 402.367 415.8 402.5C416.2 402.5 416.567 402.367 416.9 402.1C417.233 401.833 417.433 401.5 417.5 401.1C417.5 400.5 417.233 399.933 416.7 399.4C416.433 399.067 416.1 398.8 415.7 398.6C415.433 398.467 415.133 398.4 414.8 398.4C414.467 398.4 414.233 398.5 414.1 398.7ZM420.2 392.5L420.7 392.2L420.8 392.3L423.7 390.3V390.1L424.1 389.8L426 391.1L425.5 391.8L424.8 391.5C424.533 391.367 424.267 391.333 424 391.4L423.6 391.5L423.5 391.6V391.8L425.6 394.8L425.8 395.1H426.1L426.6 394.8L427 395.5L424.6 397.3L424.1 396.6L424.2 396.5L424.5 396.2V396L424.4 395.7L422.3 392.7L422.1 392.5L422 392.6C421.867 392.667 421.767 392.8 421.7 393C421.567 393.2 421.5 393.433 421.5 393.7L421.6 394.5L420.8 394.7L420.2 392.5ZM425.8 389L430.2 386.2L431.9 387.5L431.3 388.2L430.5 387.8H429.8C429.6 387.8 429.367 387.9 429.1 388.1L428.3 388.6L429.1 389.9L429.3 389.7L429.7 389.5V389.2L429.6 388.8L429.5 388.6L430.2 388.2L431.5 390.5L430.8 390.9L430.7 390.6L430.4 390.3H430.2L429.8 390.5L429.5 390.6L430.3 391.9L430.4 392.1H430.5L430.8 392L431.2 391.7L432 391.1L432.3 390.2V389.2L433.1 389L433.6 391.4L429 394.2L428.6 393.5L428.7 393.4L429 393.1C429.067 393.1 429.067 393.033 429 392.9V392.6L427.2 389.7L426.9 389.4H426.8L426.5 389.5L426.3 389.6L425.8 389ZM432 385.2L435.5 383.4L436.2 383.1C436.467 382.967 436.767 382.933 437.1 383C437.367 383 437.6 383.067 437.8 383.2L438.3 383.8C438.567 384.267 438.6 384.7 438.4 385.1C438.267 385.5 438 385.833 437.6 386.1L439.4 386.9H439.5L439.8 387H440.1L440.3 386.9L440.6 386.8L440.9 387.5L439.2 388.5L436.2 387L435.7 387.2L436.3 388.3L436.5 388.7H437L437.2 388.5L437.6 389.3L434.9 390.7L434.5 389.9L434.8 389.8L435 389.6L435.1 389.4L435 389.1L433.4 386L433.2 385.8C433.2 385.733 433.133 385.733 433 385.8H432.7L432.5 385.9L432.1 385.2H432ZM434.6 385L435.3 386.4L436.1 386C436.433 385.867 436.667 385.7 436.8 385.5L437 385.1V384.6L436.6 384.3H436.2L435.5 384.5L434.6 385ZM439 381.6L442.6 380L443.3 379.8H444.2C444.467 379.8 444.7 379.867 444.9 380L445.4 380.7C445.6 381.1 445.6 381.5 445.4 381.9C445.2 382.3 444.9 382.633 444.5 382.9L446.3 383.8L446.7 383.9H447.2L447.4 383.7L447.8 384.5L446 385.3L443 383.7L442.6 383.9L443.1 385L443.3 385.4H443.7L444 385.3L444.3 386L441.6 387.3L441.2 386.5L441.5 386.4L441.7 386.2L441.8 386L441.7 385.7L440.3 382.5C440.3 382.367 440.233 382.267 440.1 382.2H439.6L439.4 382.4L439.1 381.6H439ZM441.6 381.6L442.2 383.1L443.1 382.7L443.8 382.3C443.933 382.167 444 382 444 381.8V381.4L443.7 381H443.2L442.5 381.2L441.5 381.6H441.6ZM448.4 377.7L449.7 377.2L453.1 381.1L453.5 381.4H454L454.2 382.2L451.5 383.2L451.2 382.4L451.4 382.3C451.533 382.3 451.633 382.233 451.7 382.1V381.9L451.5 381.7L451.1 381.2L449.4 381.8V382.8L449.7 382.9L450.1 382.8L450.4 383.6L448.1 384.4L447.8 383.6C447.933 383.6 448.033 383.533 448.1 383.4L448.2 383.3V382.9L448.4 377.7ZM449.4 380.9L450.5 380.5L449.4 379.1V380.9ZM453.2 376L455.9 375.2L458 378.5V374.5L460.8 373.8L461 374.6L460.7 374.7C460.567 374.7 460.467 374.767 460.4 374.9V375.3L461.4 378.7L461.5 378.9L461.7 379H462.3L462.5 379.7L459.6 380.6L459.4 379.7H459.6C459.8 379.7 459.9 379.633 459.9 379.5L460 379.4V379.1L459 375.4L458.9 380.8L458.1 381L455.3 376.6L456.3 380.3L456.4 380.4L456.6 380.5H456.9L457.2 380.4L457.4 381.2L455 381.9L454.7 381.1H455L455.3 380.9V380.4L454.3 377.1V376.8L454.1 376.7H453.5L453.2 376ZM465.6 372.7L468.8 372.1H469.8C470.133 372.1 470.4 372.167 470.6 372.3C470.8 372.433 471 372.6 471.2 372.8L471.5 373.5C471.567 374.033 471.433 374.5 471.1 374.9C470.767 375.367 470.267 375.667 469.6 375.8L468.6 376L468.8 377.1V377.4H469.6L469.7 378.2L466.7 378.8V378H466.8L467.2 377.8V377.3L466.6 374V373.6L466.4 373.5H465.8L465.6 372.7ZM468 373.3L468.4 375H468.9L469.6 374.7L469.9 374.3V373.8C469.9 373.533 469.767 373.333 469.5 373.2C469.3 373.133 469.033 373.133 468.7 373.2L468 373.3ZM472.2 371.5L476 371H476.8L477.6 371.2C477.867 371.333 478.067 371.5 478.2 371.7C478.4 371.9 478.5 372.133 478.5 372.4C478.567 372.867 478.467 373.267 478.2 373.6C477.933 373.933 477.567 374.2 477.1 374.4L478.5 375.7L478.8 375.9L479 376H479.6V376.8L477.7 377.1L475.4 374.7H474.9L475.1 375.9V376.3L475.3 376.5H475.9V377.3L472.9 377.7V376.8H473.1L473.4 376.7L473.6 376.5V376.2L473.1 372.7V372.4H472.3L472.2 371.5ZM474.6 372.2L474.8 373.8H475.8L476.5 373.5L476.9 373.2V372.7L476.8 372.3L476.4 372.1H475.6L474.6 372.2ZM483.4 370.3C484.333 370.233 485.133 370.467 485.8 371C486.467 371.6 486.8 372.367 486.8 373.3C486.8 373.967 486.7 374.533 486.5 375C486.233 375.467 485.9 375.867 485.5 376.2C484.967 376.467 484.367 376.633 483.7 376.7C482.767 376.7 482 376.5 481.4 376.1C480.667 375.5 480.267 374.7 480.2 373.7C480.2 372.767 480.467 371.967 481 371.3C481.533 370.633 482.333 370.3 483.4 370.3ZM483.4 371.3C482.933 371.3 482.6 371.5 482.4 371.9C482 372.3 481.833 372.867 481.9 373.6C481.9 374.267 482.1 374.8 482.5 375.2C482.767 375.533 483.133 375.7 483.6 375.7C484.067 375.7 484.433 375.5 484.7 375.1C485.033 374.7 485.167 374.133 485.1 373.4C485.1 372.933 485 372.533 484.8 372.2C484.6 371.867 484.4 371.633 484.2 371.5C483.933 371.3 483.667 371.233 483.4 371.3ZM488 370.2H491.4L492.4 370.3L493.1 370.7L493.5 371.3L493.7 372.1C493.7 372.633 493.5 373.067 493.1 373.4C492.7 373.733 492.133 373.9 491.4 373.9H490.4V375.4L490.8 375.5H491.1V376.4H488.1V375.5H488.6L488.7 375.4V375L488.8 371.6V371.2L488.7 371.1H488.1L488 370.2ZM490.3 371.2V373H490.9L491.6 372.9L491.9 372.6C492.033 372.467 492.1 372.3 492.1 372.1C492.1 371.767 492 371.533 491.8 371.4C491.6 371.267 491.333 371.2 491 371.2H490.3ZM494.8 370.2L498.6 370.5L499.4 370.6L500.2 371C500.4 371.133 500.567 371.333 500.7 371.6L500.8 372.4C500.8 372.867 500.6 373.2 500.2 373.4C499.867 373.733 499.467 373.933 499 374L500.2 375.5V375.6L500.4 375.9H500.6L500.9 376H501.2V376.9L499.2 376.8L497.3 374H496.8V375.6H497.4V376.6L494.4 376.3V375.5H495L495.2 375.3V375L495.4 371.5V371.2L495.1 371H494.7L494.8 370.2ZM497 371.4L496.9 373H497.8C498.133 373.067 498.4 373.067 498.6 373C498.8 373 498.933 372.933 499 372.8C499.067 372.667 499.133 372.5 499.2 372.3V371.9L498.8 371.6L498 371.5H497V371.4ZM502.4 370.8L505.4 371.2V372.1H505.1C504.9 372.033 504.767 372.033 504.7 372.1L504.5 372.5L504.1 375.9V376.3H504.2L504.5 376.5H504.8L504.7 377.4L501.7 377L501.8 376.1H502C502.2 376.167 502.333 376.167 502.4 376.1H502.5L502.6 375.8L503 372.3V371.8H502.6L502.3 371.7L502.4 370.8ZM508.9 371.7L510.3 372L511.3 377C511.3 377.267 511.367 377.433 511.5 377.5L511.9 377.7L511.7 378.5L508.8 378L509 377.2H509.5L509.6 377.1V376.1L507.6 375.8L507.3 376.4V376.6C507.233 376.667 507.233 376.733 507.3 376.8H507.4L507.8 377L507.7 377.8L505.3 377.4L505.4 376.6H505.8L506 376.5L506.2 376.2L508.9 371.7ZM508.1 375L509.4 375.2L509.1 373.4L508.1 375ZM514 372.6L516.7 373.3L516.9 377.3L518.9 373.9L521.6 374.6L521.4 375.4H521.1C520.967 375.267 520.867 375.267 520.8 375.4C520.667 375.4 520.6 375.5 520.6 375.7L519.7 379.1V379.5L520 379.6L520.3 379.7L520.1 380.6L517.2 379.8L517.4 379H517.7L518 379.1H518.2V378.7L519.2 375L516.5 379.7L515.7 379.4L515.4 374.3L514.5 377.9V378.1L514.6 378.3H514.9L515.2 378.4L515 379.3L512.5 378.7L512.7 377.8H513L513.3 377.9H513.4L513.6 377.5L514.4 374.1V373.7L514.1 373.6L513.8 373.5L514 372.6ZM526.5 376.1L529.5 377.2L530.5 377.7L531 378.3L531.2 379L531.1 379.8C530.9 380.267 530.567 380.6 530.1 380.8C529.567 381 528.967 381 528.3 380.8L527.3 380.4L526.9 381.4V381.9L527.2 382.1H527.5L527.2 383L524.3 382L524.6 381.1H524.8L525.2 381.3H525.3L525.5 380.9L526.7 377.7V377.2L526.4 377H526.2L526.5 376.1ZM528.2 377.8L527.6 379.5L528.1 379.7L528.8 379.8L529.3 379.7L529.6 379.2C529.667 378.933 529.633 378.7 529.5 378.5C529.367 378.3 529.167 378.167 528.9 378.1L528.2 377.8ZM532.8 378.4L536.3 380L537 380.4C537.267 380.533 537.467 380.733 537.6 381L537.9 381.7L537.7 382.5C537.5 382.967 537.2 383.267 536.8 383.4H535.5L536 385.3L536.2 385.6L536.3 385.8L536.6 386H536.8L536.5 386.9L534.7 386.1L533.9 382.8L533.4 382.6L532.9 383.7V384.3L533.1 384.4L533.4 384.6L533 385.3L530.3 384.1L530.6 383.3L530.9 383.4L531.2 383.5H531.4L531.5 383.2L532.9 380L533 379.7V379.5L532.8 379.4H532.6L532.4 379.3L532.8 378.4ZM534.5 380.3L533.8 381.8L534.7 382.1C534.967 382.3 535.2 382.4 535.4 382.4L535.9 382.3C536.033 382.233 536.133 382.1 536.2 381.9C536.267 381.767 536.267 381.633 536.2 381.5L536.1 381.1L535.4 380.7L534.4 380.3H534.5ZM543 383.2C543.867 383.667 544.433 384.3 544.7 385.1C544.967 385.9 544.867 386.733 544.4 387.6C544.133 388.133 543.767 388.533 543.3 388.8C542.833 389.133 542.3 389.3 541.7 389.3C541.167 389.3 540.6 389.133 540 388.8C539.2 388.4 538.633 387.833 538.3 387.1C537.967 386.233 538.067 385.367 538.6 384.5C539 383.633 539.633 383.067 540.5 382.8C541.367 382.533 542.2 382.667 543 383.2ZM542.6 384.1C542.2 383.833 541.767 383.8 541.3 384C540.833 384.2 540.433 384.633 540.1 385.3C539.767 385.9 539.633 386.467 539.7 387C539.767 387.4 540.033 387.733 540.5 388C540.9 388.2 541.3 388.2 541.7 388C542.1 387.8 542.5 387.4 542.9 386.8C543.167 386.333 543.3 385.933 543.3 385.6C543.3 385.267 543.233 384.933 543.1 384.6L542.6 384.1ZM547.6 385.6L548.1 385.9V386.1L551.1 388L551.2 387.9L551.7 388.2L551.2 390.4L550.4 390.2V389.4C550.4 389.133 550.333 388.9 550.2 388.7L549.9 388.3H549.7L549.6 388.5L547.7 391.5L547.5 391.9V392L547.6 392.1L548 392.4L547.6 393.1L545 391.5L545.5 390.8L545.6 390.9L546 391.1H546.1L546.4 390.7L548.4 387.7V387.4H548.3C548.167 387.267 547.967 387.2 547.7 387.2L547.1 387.3L546.4 387.7L545.8 387.1L547.6 385.6ZM553.2 389.4L557.4 392.4L556.8 394.4L556 394.2V393.2L555.8 392.6C555.667 392.4 555.467 392.233 555.2 392.1L554.5 391.5L553.5 392.8L553.8 393L554.2 393.2H554.5L554.7 392.8L554.9 392.6L555.5 393.1L554 395.2L553.4 394.8L553.5 394.6L553.7 394.2V394L553.3 393.6L553 393.5L552.2 394.6L552.1 394.9L552.3 395.2L552.7 395.5L553.7 395.9C553.967 395.967 554.233 395.967 554.5 395.9C554.767 395.833 555.1 395.667 555.5 395.4L555.9 396.1L553.9 397.5L549.6 394.5L550.1 393.7L550.2 393.8L550.6 394H550.8L551 393.7L553 390.9L553.2 390.6V390.5L552.9 390.2L552.7 390.1L553.2 389.4ZM560.1 398.2L562.4 400.2L561.9 400.8L561.7 400.7L561.5 400.5H561.3L561 400.8L559.8 402.3L559.1 401.7L559.2 401.2L558.2 401L557.5 400.5C557.033 400.1 556.7 399.667 556.5 399.2C556.367 398.667 556.367 398.133 556.5 397.6C556.5 397.067 556.7 396.533 557.1 396C557.5 395.533 557.967 395.2 558.5 395C559.033 394.8 559.567 394.767 560.1 394.9C560.633 395.033 561.133 395.233 561.6 395.5L562.1 396.1L562.5 396.8L562.8 396.7L563.3 397.1L562.4 399.1L561.6 398.7V397.6L561.5 396.9L561.1 396.4L560.3 396.1L559.4 396.3C559.133 396.433 558.833 396.7 558.5 397.1L557.9 398.1V399.2C557.967 399.467 558.133 399.7 558.4 399.9L558.9 400.2H559.4L559.8 400L559.9 399.8L560.1 399.5V399.4L559.8 399.1L559.6 398.9L560.1 398.2ZM566.8 400.2L567.8 401.2L565.9 406C565.767 406.2 565.733 406.367 565.8 406.5L566 406.8L565.4 407.5L563.4 405.5L563.9 404.8L564 405L564.3 405.1H564.5L564.7 404.8L564.9 404.3L563.5 403L562.9 403.3L562.7 403.4V403.7L563 404L562.4 404.6L560.7 403L561.3 402.4L561.5 402.6H561.7L562.1 402.5L566.8 400.2ZM564.4 402.5L565.3 403.4L566 401.7L564.4 402.5ZM570.9 403.9L571.3 404.3L571.2 404.5L573.6 407H573.8L574.2 407.3L573.2 409.3L572.4 409L572.6 408.2V407.5C572.6 407.3 572.533 407.133 572.4 407H572.2L572 407.1L569.5 409.6L569.2 409.9V410.1L569.5 410.5L568.9 411.1L566.9 408.9L567.5 408.3V408.5L567.9 408.7H568.1L568.4 408.5L571 406L571.1 405.8V405.7L570.6 405.4H569.9L569.1 405.6L568.8 404.8L570.8 403.8L570.9 403.9Z" fill="black" style="fill:black;fill-opacity:1;"/>
<path id="Vector_107" d="M0 0H320V240H0V0Z" fill="#012169" style="fill:#012169;fill:color(display-p3 0.0039 0.1294 0.4118);fill-opacity:1;"/>
<path id="Vector_108" d="M37.5 0L159.5 90.5L281 0H320V31L200 120.5L320 209.5V240H280L160 150.5L40.5 240H0V210L119.5 121L0 32V0H37.5Z" fill="white" style="fill:white;fill-opacity:1;"/>
<path id="Vector_109" d="M212 140.5L320 220V240L184.5 140.5H212ZM120 150.5L123 168L27 240H0L120 150.5ZM320 0V1.5L195.5 95.5L196.5 73.5L295 0H320ZM0 0L119.5 88H89.5L0 21V0Z" fill="#C8102E" style="fill:#C8102E;fill:color(display-p3 0.7843 0.0627 0.1804);fill-opacity:1;"/>
<path id="Vector_110" d="M120.5 0V240H200.5V0H120.5ZM0 80V160H320V80H0Z" fill="white" style="fill:white;fill-opacity:1;"/>
<path id="Vector_111" d="M0 96.5V144.5H320V96.5H0ZM136.5 0V240H184.5V0H136.5Z" fill="#C8102E" style="fill:#C8102E;fill:color(display-p3 0.7843 0.0627 0.1804);fill-opacity:1;"/>
</g>
<defs>
<linearGradient id="paint0_linear_2194_4286" x1="516.755" y1="149.405" x2="517.107" y2="126.449" gradientUnits="userSpaceOnUse">
<stop stop-color="#474747" style="stop-color:#474747;stop-color:color(display-p3 0.2784 0.2784 0.2784);stop-opacity:1;"/>
<stop offset="1" stop-color="#FF5500" style="stop-color:#FF5500;stop-color:color(display-p3 1.0000 0.3333 0.0000);stop-opacity:1;"/>
</linearGradient>
<linearGradient id="paint1_linear_2194_4286" x1="508.948" y1="235.575" x2="508.989" y2="248.544" gradientUnits="userSpaceOnUse">
<stop stop-color="#B50000" style="stop-color:#B50000;stop-color:color(display-p3 0.7098 0.0000 0.0000);stop-opacity:1;"/>
<stop offset="1" stop-color="#FFC500" style="stop-color:#FFC500;stop-color:color(display-p3 1.0000 0.7725 0.0000);stop-opacity:1;"/>
</linearGradient>
<linearGradient id="paint2_linear_2194_4286" x1="565.885" y1="243.499" x2="587.068" y2="243.222" gradientUnits="userSpaceOnUse">
<stop stop-color="#D5DFFF" style="stop-color:#D5DFFF;stop-color:color(display-p3 0.8353 0.8745 1.0000);stop-opacity:1;"/>
<stop offset="1" stop-color="white" style="stop-color:white;stop-opacity:1;"/>
</linearGradient>
<linearGradient id="paint3_linear_2194_4286" x1="512.719" y1="145.05" x2="520.348" y2="145.05" gradientUnits="userSpaceOnUse">
<stop stop-color="#474747" style="stop-color:#474747;stop-color:color(display-p3 0.2784 0.2784 0.2784);stop-opacity:1;"/>
<stop offset="1" stop-color="#FF5500" style="stop-color:#FF5500;stop-color:color(display-p3 1.0000 0.3333 0.0000);stop-opacity:1;"/>
</linearGradient>
<linearGradient id="paint4_linear_2194_4286" x1="623.094" y1="350.025" x2="619.382" y2="326.952" gradientUnits="userSpaceOnUse">
<stop stop-color="#D5DFFF" style="stop-color:#D5DFFF;stop-color:color(display-p3 0.8353 0.8745 1.0000);stop-opacity:1;"/>
<stop offset="1" stop-color="white" style="stop-color:white;stop-opacity:1;"/>
</linearGradient>
<linearGradient id="paint5_linear_2194_4286" x1="571.019" y1="251.405" x2="561.552" y2="236.137" gradientUnits="userSpaceOnUse">
<stop stop-color="#D5DFFF" style="stop-color:#D5DFFF;stop-color:color(display-p3 0.8353 0.8745 1.0000);stop-opacity:1;"/>
<stop offset="1" stop-color="white" style="stop-color:white;stop-opacity:1;"/>
</linearGradient>
<clipPath id="clip0_2194_4286">
<rect width="640" height="480" fill="white" style="fill:white;fill-opacity:1;"/>
</clipPath>
</defs>
</svg>
