<svg width="640" height="480" viewBox="0 0 640 480" fill="none" xmlns="http://www.w3.org/2000/svg">
<g id="gu" clip-path="url(#clip0_2194_4566)">
<path id="Vector" fill-rule="evenodd" clip-rule="evenodd" d="M0 0H640V480H0V0Z" fill="#BE0027" style="fill:#BE0027;fill:color(display-p3 0.7451 0.0000 0.1529);fill-opacity:1;"/>
<path id="Vector_2" fill-rule="evenodd" clip-rule="evenodd" d="M25.6001 27.3H615.1V455.7H25.6001V27.3Z" fill="#3B5AA3" style="fill:#3B5AA3;fill:color(display-p3 0.2314 0.3529 0.6392);fill-opacity:1;"/>
<path id="Vector_3" fill-rule="evenodd" clip-rule="evenodd" d="M314.4 413.2C315.709 413.825 317.138 414.158 318.589 414.175C320.039 414.192 321.476 413.894 322.8 413.3C460.6 340 460.6 139 322.9 66.7C321.528 66.0757 320.034 65.7694 318.527 65.804C317.021 65.8387 315.541 66.2133 314.2 66.9C179.9 140.3 179.5 339 314.3 413.2H314.4Z" fill="#CBE0E5" style="fill:#CBE0E5;fill:color(display-p3 0.7961 0.8784 0.8980);fill-opacity:1;"/>
<path id="Vector_4" fill-rule="evenodd" clip-rule="evenodd" d="M314.4 416.9C316.4 418.6 320.8 418.4 322.8 416.9C424.3 340.9 424.8 293.6 420.4 293.6H219.4C216.4 293.6 221.2 341.8 314.4 416.9Z" fill="#ADD2D9" style="fill:#ADD2D9;fill:color(display-p3 0.6784 0.8235 0.8510);fill-opacity:1;"/>
<path id="Vector_5" fill-rule="evenodd" clip-rule="evenodd" d="M235.3 331.2C244.491 328.3 254.43 328.906 263.2 332.9C270.8 336.9 275.2 336.9 283.4 336.9C292 337.1 298.7 343.4 308 343.7C325.1 344.1 332.3 352.6 319 352.7C312.8 352.7 299.3 348.4 292.8 349.3C279.2 350.7 270.6 353.7 257.8 368L272.6 378C285.4 372.9 287.5 367 294.6 366.8C302.6 366.5 305.3 361.6 314.6 361.6C325.703 362.519 336.881 361.435 347.6 358.4C362.4 355 355.4 344.6 346.4 340.9C339.1 337.8 325.6 340.8 317.2 337.7C310.8 335.2 316 331.2 319.5 330.4C322.9 329.7 326.6 330.9 330.9 331.6C338.6 332.2 348.3 331.5 355 330.4C369 328.3 368.4 324.2 375 324.1C380 323.8 383.7 322.4 387 320C391 317.3 395.1 312 399.9 312.2L412.6 312.7L394.6 353.1L343.9 404.8L317.6 414.8L259.8 377.1L230.7 332.4L235.3 331.2Z" fill="#FDF9A1" style="fill:#FDF9A1;fill:color(display-p3 0.9922 0.9765 0.6314);fill-opacity:1;"/>
<path id="Vector_6" fill-rule="evenodd" clip-rule="evenodd" d="M301.8 292L417.8 291.4L419.8 281.1C419.8 281.1 415.7 280.5 412.3 280.3C408.2 280 401 284.7 396.3 284.6C392.8 284.6 389 278.6 385.6 278.6C379.6 278.6 379.2 283.9 373.6 284.1C369.1 283.9 367.2 280.5 361.3 280.9C355.4 281.3 355.7 284.6 348 284.4C337.8 284.1 333.7 275.3 325.5 275.2C311.9 275 311.5 288.2 301.7 291.9L301.8 292Z" fill="#179A3B" style="fill:#179A3B;fill:color(display-p3 0.0902 0.6039 0.2314);fill-opacity:1;"/>
<path id="Vector_7" fill-rule="evenodd" clip-rule="evenodd" d="M301.8 294.4L421.2 293.8V290.6L299 291.2L301.8 294.4Z" fill="#FDF9A1" style="fill:#FDF9A1;fill:color(display-p3 0.9922 0.9765 0.6314);fill-opacity:1;"/>
<path id="Vector_8" fill-rule="evenodd" clip-rule="evenodd" d="M350.8 330.3C352.7 337.3 354.6 339.7 362 341.6C369.3 343.3 380.5 336.2 373.6 329.3C367 322.9 360 321.3 354.1 315.5C341.6 303.2 322.8 273 322.8 251.7C322.8 233.4 321 195.9 321 160.4C321 158.1 314 166.8 314 169.2C314.4 200.5 314.4 224.2 315.6 255.8C317.6 278.9 328.6 294.5 338.3 308.5C342.6 315.3 348.9 322.5 350.8 330.3Z" fill="#A79270" style="fill:#A79270;fill:color(display-p3 0.6549 0.5725 0.4392);fill-opacity:1;"/>
<path id="Vector_9" fill-rule="evenodd" clip-rule="evenodd" d="M259.6 160.9C258.1 163.9 263.2 160 264.4 159.6C271.1 157.2 273.7 148.8 285.2 153.9C294.2 157.8 306.3 155.5 300 159.5C292.2 164.2 276.5 169.4 276.2 192.7C277.5 194.9 277.6 194.6 278.7 192.1C281.1 186.7 292.4 172 298 173.2C300.3 173.8 306.9 166.5 307 168.6C307.7 174.4 298 186.2 298.2 201.9C298.2 205.6 302.7 206.8 304.8 204.2C307 201.9 308.2 199.6 312 196.6C318.6 191.2 316.8 168 317.6 169.1C322.3 175.1 323 192.4 330 199.4C335.9 205.3 340.6 202.4 339.3 194.4C336.8 178 329.1 182.7 325.4 165.8C324.6 162.5 324.4 159.6 328.8 160.9C334.1 162.5 337.3 164.9 341.2 170.9C345.2 176.7 352.6 182.2 356.9 185.5C364.4 191.3 367.1 186.3 363.5 178.9C358.9 170.519 351.45 164.062 342.5 160.7C336.3 158.5 334.1 158.3 328.7 157.3C327.2 157 325.7 153.9 328.3 152.2C334.094 148.049 340.829 145.403 347.9 144.5C354.6 144.3 359.9 149.7 364.6 151.1C374 153.5 374 147.6 369.8 143.1C366.4 139.4 359.2 133.1 352.5 134C339 135.7 339.9 135.3 331.5 140.8C328.5 142.6 325.1 144.6 326.4 142.4C329.4 136.9 326.6 137.9 331.3 132.3C334.9 128.3 337.6 125.3 341.3 124.3C344.7 123.4 349.3 119.8 350.6 117.9C354 113.3 351.1 110.6 345.9 112.2C341.3 113.4 338.9 116.4 335.9 117.2C328.5 119.6 322.6 136.2 321.7 138.6C320.6 141.4 319.3 140 319.5 137.6C320.5 125.9 321.5 106.1 317.5 98C311.1 86 311.7 91.6 309.3 97.3C305.7 106.3 307 114.8 309.3 123.6C310.3 128 313.9 133 314.6 136.5C315.1 139.2 313 135.7 311.8 134C307.9 128 305 124 298.6 120.7C292.212 118.053 285.183 117.357 278.4 118.7C276.6 119.3 280.4 121.9 281.9 123.1C286.2 126.5 294.3 127.6 299.9 131C304.5 133.9 308.1 135.7 309.7 139.7C310.3 142.7 311.3 147.1 309.3 147C304.2 146.7 296.3 142.2 279.9 144C271.5 145.2 264.3 152.3 259.6 160.9Z" fill="#239E46" style="fill:#239E46;fill:color(display-p3 0.1373 0.6196 0.2745);fill-opacity:1;"/>
<path id="Vector_10" fill-rule="evenodd" clip-rule="evenodd" d="M295.3 310.6H300V318.5H295.3V310.6Z" fill="black" style="fill:black;fill-opacity:1;"/>
<path id="Vector_11" fill-rule="evenodd" clip-rule="evenodd" d="M271.7 257.9C290.5 283.9 320.7 299.1 321.3 310.9H262.5C276 294.7 284.3 283.7 271.7 257.9Z" fill="#FDF9FF" style="fill:#FDF9FF;fill:color(display-p3 0.9922 0.9765 1.0000);fill-opacity:1;"/>
<path id="Vector_12" fill-rule="evenodd" clip-rule="evenodd" d="M254.6 311.5C280.2 317.2 310.7 320.4 330.2 310.7C330.4 316.4 323.9 324.7 318.5 324.7H269.5C275.2 323.8 278.5 322.1 287.7 321.7L261.7 321.9C258.7 322 253.7 314.3 254.6 311.5Z" fill="#A68861" style="fill:#A68861;fill:color(display-p3 0.6510 0.5333 0.3804);fill-opacity:1;"/>
<path id="Vector_13" fill-rule="evenodd" clip-rule="evenodd" d="M312.6 425C315.2 426.5 319.3 426.4 321.6 425.2C469.4 346.5 469.5 130.8 321.8 53.2C320.316 52.5366 318.703 52.2105 317.077 52.245C315.452 52.2796 313.855 52.6741 312.4 53.4C168.4 132.2 168 345.4 312.6 425.1V425ZM313.3 407.3C314.535 407.932 315.9 408.27 317.288 408.288C318.676 408.305 320.049 408.001 321.3 407.4C444.9 334.6 446.4 142.3 321.4 73.4C319 71.6 315.5 72.2 313.1 73.4C194.7 143.5 188.1 327.9 313.3 407.3Z" fill="#BE0027" style="fill:#BE0027;fill:color(display-p3 0.7451 0.0000 0.1529);fill-opacity:1;"/>
<path id="Vector_14" d="M268.8 225.4C271.066 225.4 273.066 225.867 274.8 226.8C277.133 228 278.566 230.2 279.1 233.4H276C275.6 231.667 274.733 230.333 273.4 229.4C272.2 228.6 270.633 228.2 268.7 228.2C266.5 228.2 264.6 229.1 263 230.9C261.466 232.567 260.7 235.1 260.7 238.5C260.7 241.3 261.333 243.633 262.6 245.5C263.933 247.3 266.033 248.2 268.9 248.2C271.1 248.2 272.9 247.567 274.3 246.3C275.833 245.033 276.6 242.967 276.6 240.1H269V237.4H279.6V250.4H277.5L276.7 247.2C275.633 248.467 274.633 249.367 273.7 249.9C272.233 250.7 270.4 251.1 268.2 251.1C265.333 251.1 262.833 250.167 260.7 248.3C258.433 245.9 257.3 242.667 257.3 238.6C257.3 234.533 258.4 231.3 260.6 228.9C262.733 226.567 265.466 225.4 268.8 225.4Z" fill="#BD0728" style="fill:#BD0728;fill:color(display-p3 0.7412 0.0275 0.1569);fill-opacity:1;"/>
<path id="Vector_15" d="M292.4 226.1V241.3C292.4 243.033 292.733 244.467 293.4 245.6C294.333 247.4 296 248.3 298.4 248.3C301.133 248.3 303.033 247.367 304.1 245.5C304.633 244.433 304.9 243.033 304.9 241.3V226H308.3V239.8C308.3 242.733 307.833 245.067 306.9 246.8C305.5 249.667 302.767 251.1 298.7 251.1C294.5 251.1 291.667 249.633 290.2 246.7C289.4 245.033 289 242.733 289 239.8V226L292.4 226.1Z" fill="#BD0728" style="fill:#BD0728;fill:color(display-p3 0.7412 0.0275 0.1569);fill-opacity:1;"/>
<path id="Vector_16" d="M338.4 240.5L334.7 229.8L330.7 240.5H338.4ZM333 226H336.7L345.7 250.5H341.9L339.5 243.2H329.8L327.1 250.5H323.8L333 226Z" fill="#BD0728" style="fill:#BD0728;fill:color(display-p3 0.7412 0.0275 0.1569);fill-opacity:1;"/>
<path id="Vector_17" d="M357 226H361.9L368.8 246.7L375.8 226H380.5V250.4H377.3V229.8L370.3 250.4H367.2L360.2 229.8V250.4H357V226Z" fill="#BD0728" style="fill:#BD0728;fill:color(display-p3 0.7412 0.0275 0.1569);fill-opacity:1;"/>
</g>
<defs>
<clipPath id="clip0_2194_4566">
<rect width="640" height="480" fill="white" style="fill:white;fill-opacity:1;"/>
</clipPath>
</defs>
</svg>
