<svg width="640" height="480" viewBox="0 0 640 480" fill="none" xmlns="http://www.w3.org/2000/svg">
<g id="gw" clip-path="url(#clip0_2194_4584)">
<path id="Vector" d="M0 0H220V480H0V0Z" fill="#CE1126" style="fill:#CE1126;fill:color(display-p3 0.8078 0.0667 0.1490);fill-opacity:1;"/>
<path id="Vector_2" d="M220 0H640V240H220V0Z" fill="#FCD116" style="fill:#FCD116;fill:color(display-p3 0.9882 0.8196 0.0863);fill-opacity:1;"/>
<path id="Vector_3" d="M220 240H640V480H220V240Z" fill="#009E49" style="fill:#009E49;fill:color(display-p3 0.0000 0.6196 0.2863);fill-opacity:1;"/>
<g id="gw-b">
<path id="gw-a" d="M110 160L85.2786 236.085L123.321 248.445" fill="#000001" style="fill:#000001;fill:color(display-p3 0.0000 0.0000 0.0039);fill-opacity:1;"/>
<path id="gw-a_2" d="M110 160L134.721 236.085L96.6791 248.445" fill="#000001" style="fill:#000001;fill:color(display-p3 0.0000 0.0000 0.0039);fill-opacity:1;"/>
</g>
<g id="gw-b_2">
<path id="gw-a_3" d="M186.084 215.279H106.084V255.279" fill="#000001" style="fill:#000001;fill:color(display-p3 0.0000 0.0000 0.0039);fill-opacity:1;"/>
<path id="gw-a_4" d="M186.084 215.279L121.363 262.301L97.8517 229.941" fill="#000001" style="fill:#000001;fill:color(display-p3 0.0000 0.0000 0.0039);fill-opacity:1;"/>
</g>
<g id="gw-b_3">
<path id="gw-a_5" d="M157.023 304.721L132.302 228.637L94.2593 240.998" fill="#000001" style="fill:#000001;fill:color(display-p3 0.0000 0.0000 0.0039);fill-opacity:1;"/>
<path id="gw-a_6" d="M157.023 304.721L92.3016 257.699L115.813 225.338" fill="#000001" style="fill:#000001;fill:color(display-p3 0.0000 0.0000 0.0039);fill-opacity:1;"/>
</g>
<g id="gw-b_4">
<path id="gw-a_7" d="M62.9771 304.721L127.698 257.699L104.187 225.338" fill="#000001" style="fill:#000001;fill:color(display-p3 0.0000 0.0000 0.0039);fill-opacity:1;"/>
<path id="gw-a_8" d="M62.9771 304.721L87.6984 228.637L125.741 240.998" fill="#000001" style="fill:#000001;fill:color(display-p3 0.0000 0.0000 0.0039);fill-opacity:1;"/>
</g>
<g id="gw-b_5">
<path id="gw-a_9" d="M33.9155 215.279L98.6369 262.302L122.148 229.941" fill="#000001" style="fill:#000001;fill:color(display-p3 0.0000 0.0000 0.0039);fill-opacity:1;"/>
<path id="gw-a_10" d="M33.9155 215.279H113.916V255.279" fill="#000001" style="fill:#000001;fill:color(display-p3 0.0000 0.0000 0.0039);fill-opacity:1;"/>
</g>
</g>
<defs>
<clipPath id="clip0_2194_4584">
<rect width="640" height="480" fill="white" style="fill:white;fill-opacity:1;"/>
</clipPath>
</defs>
</svg>
