<svg width="640" height="480" viewBox="0 0 640 480" fill="none" xmlns="http://www.w3.org/2000/svg">
<g id="hn" clip-path="url(#clip0_2194_4624)">
<path id="Vector" d="M0 0H640V480H0V0Z" fill="#18C3DF" style="fill:#18C3DF;fill:color(display-p3 0.0941 0.7647 0.8745);fill-opacity:1;"/>
<path id="Vector_2" d="M0 160H640V320H0V160Z" fill="white" style="fill:white;fill-opacity:1;"/>
<g id="hn-c">
<g id="hn-b">
<path id="hn-a" d="M312 240L325.333 242.667L320 213.333L312 240Z" fill="#18C3DF" style="fill:#18C3DF;fill:color(display-p3 0.0941 0.7647 0.8745);fill-opacity:1;"/>
<path id="hn-a_2" d="M328 240L314.667 242.667L320 213.333L328 240Z" fill="#18C3DF" style="fill:#18C3DF;fill:color(display-p3 0.0941 0.7647 0.8745);fill-opacity:1;"/>
</g>
<g id="hn-b_2">
<path id="hn-a_3" d="M317.528 232.392L319.112 245.896L345.362 231.76L317.528 232.392Z" fill="#18C3DF" style="fill:#18C3DF;fill:color(display-p3 0.0941 0.7647 0.8745);fill-opacity:1;"/>
<path id="hn-a_4" d="M322.472 247.608L315.816 235.752L345.362 231.76L322.472 247.608Z" fill="#18C3DF" style="fill:#18C3DF;fill:color(display-p3 0.0941 0.7647 0.8745);fill-opacity:1;"/>
</g>
<g id="hn-b_3">
<path id="hn-a_5" d="M317.528 247.608L324.184 235.752L294.639 231.76L317.528 247.608Z" fill="#18C3DF" style="fill:#18C3DF;fill:color(display-p3 0.0941 0.7647 0.8745);fill-opacity:1;"/>
<path id="hn-a_6" d="M322.472 232.392L320.888 245.896L294.639 231.76L322.472 232.392Z" fill="#18C3DF" style="fill:#18C3DF;fill:color(display-p3 0.0941 0.7647 0.8745);fill-opacity:1;"/>
</g>
<g id="hn-b_4">
<path id="hn-a_7" d="M326.472 235.298L314.118 240.977L335.674 261.574L326.472 235.298Z" fill="#18C3DF" style="fill:#18C3DF;fill:color(display-p3 0.0941 0.7647 0.8745);fill-opacity:1;"/>
<path id="hn-a_8" d="M313.528 244.702L322.747 234.708L335.674 261.574L313.528 244.702Z" fill="#18C3DF" style="fill:#18C3DF;fill:color(display-p3 0.0941 0.7647 0.8745);fill-opacity:1;"/>
</g>
<g id="hn-b_5">
<path id="hn-a_9" d="M326.472 244.702L317.253 234.708L304.326 261.574L326.472 244.702Z" fill="#18C3DF" style="fill:#18C3DF;fill:color(display-p3 0.0941 0.7647 0.8745);fill-opacity:1;"/>
<path id="hn-a_10" d="M313.528 235.298L325.882 240.977L304.326 261.574L313.528 235.298Z" fill="#18C3DF" style="fill:#18C3DF;fill:color(display-p3 0.0941 0.7647 0.8745);fill-opacity:1;"/>
</g>
</g>
<g id="hn-c_2">
<g id="hn-b_6">
<path id="hn-a_11" d="M445.3 197.3L458.633 199.967L453.3 170.633L445.3 197.3Z" fill="#18C3DF" style="fill:#18C3DF;fill:color(display-p3 0.0941 0.7647 0.8745);fill-opacity:1;"/>
<path id="hn-a_12" d="M461.3 197.3L447.966 199.967L453.3 170.633L461.3 197.3Z" fill="#18C3DF" style="fill:#18C3DF;fill:color(display-p3 0.0941 0.7647 0.8745);fill-opacity:1;"/>
</g>
<g id="hn-b_7">
<path id="hn-a_13" d="M450.828 189.692L452.412 203.196L478.662 189.06L450.828 189.692Z" fill="#18C3DF" style="fill:#18C3DF;fill:color(display-p3 0.0941 0.7647 0.8745);fill-opacity:1;"/>
<path id="hn-a_14" d="M455.772 204.908L449.116 193.052L478.662 189.06L455.772 204.908Z" fill="#18C3DF" style="fill:#18C3DF;fill:color(display-p3 0.0941 0.7647 0.8745);fill-opacity:1;"/>
</g>
<g id="hn-b_8">
<path id="hn-a_15" d="M450.828 204.908L457.484 193.052L427.938 189.06L450.828 204.908Z" fill="#18C3DF" style="fill:#18C3DF;fill:color(display-p3 0.0941 0.7647 0.8745);fill-opacity:1;"/>
<path id="hn-a_16" d="M455.772 189.692L454.188 203.196L427.939 189.06L455.772 189.692Z" fill="#18C3DF" style="fill:#18C3DF;fill:color(display-p3 0.0941 0.7647 0.8745);fill-opacity:1;"/>
</g>
<g id="hn-b_9">
<path id="hn-a_17" d="M459.772 192.598L447.418 198.277L468.974 218.874L459.772 192.598Z" fill="#18C3DF" style="fill:#18C3DF;fill:color(display-p3 0.0941 0.7647 0.8745);fill-opacity:1;"/>
<path id="hn-a_18" d="M446.828 202.002L456.047 192.008L468.974 218.874L446.828 202.002Z" fill="#18C3DF" style="fill:#18C3DF;fill:color(display-p3 0.0941 0.7647 0.8745);fill-opacity:1;"/>
</g>
<g id="hn-b_10">
<path id="hn-a_19" d="M459.772 202.002L450.552 192.008L437.626 218.874L459.772 202.002Z" fill="#18C3DF" style="fill:#18C3DF;fill:color(display-p3 0.0941 0.7647 0.8745);fill-opacity:1;"/>
<path id="hn-a_20" d="M446.828 192.598L459.182 198.277L437.625 218.874L446.828 192.598Z" fill="#18C3DF" style="fill:#18C3DF;fill:color(display-p3 0.0941 0.7647 0.8745);fill-opacity:1;"/>
</g>
</g>
<g id="hn-c_3">
<g id="hn-b_11">
<path id="hn-a_21" d="M445.3 277.3L458.633 279.967L453.3 250.633L445.3 277.3Z" fill="#18C3DF" style="fill:#18C3DF;fill:color(display-p3 0.0941 0.7647 0.8745);fill-opacity:1;"/>
<path id="hn-a_22" d="M461.3 277.3L447.966 279.967L453.3 250.633L461.3 277.3Z" fill="#18C3DF" style="fill:#18C3DF;fill:color(display-p3 0.0941 0.7647 0.8745);fill-opacity:1;"/>
</g>
<g id="hn-b_12">
<path id="hn-a_23" d="M450.828 269.692L452.412 283.196L478.662 269.06L450.828 269.692Z" fill="#18C3DF" style="fill:#18C3DF;fill:color(display-p3 0.0941 0.7647 0.8745);fill-opacity:1;"/>
<path id="hn-a_24" d="M455.772 284.908L449.116 273.052L478.662 269.06L455.772 284.908Z" fill="#18C3DF" style="fill:#18C3DF;fill:color(display-p3 0.0941 0.7647 0.8745);fill-opacity:1;"/>
</g>
<g id="hn-b_13">
<path id="hn-a_25" d="M450.828 284.908L457.484 273.052L427.938 269.06L450.828 284.908Z" fill="#18C3DF" style="fill:#18C3DF;fill:color(display-p3 0.0941 0.7647 0.8745);fill-opacity:1;"/>
<path id="hn-a_26" d="M455.772 269.692L454.188 283.196L427.939 269.06L455.772 269.692Z" fill="#18C3DF" style="fill:#18C3DF;fill:color(display-p3 0.0941 0.7647 0.8745);fill-opacity:1;"/>
</g>
<g id="hn-b_14">
<path id="hn-a_27" d="M459.772 272.598L447.418 278.277L468.974 298.874L459.772 272.598Z" fill="#18C3DF" style="fill:#18C3DF;fill:color(display-p3 0.0941 0.7647 0.8745);fill-opacity:1;"/>
<path id="hn-a_28" d="M446.828 282.002L456.047 272.008L468.974 298.874L446.828 282.002Z" fill="#18C3DF" style="fill:#18C3DF;fill:color(display-p3 0.0941 0.7647 0.8745);fill-opacity:1;"/>
</g>
<g id="hn-b_15">
<path id="hn-a_29" d="M459.772 282.002L450.552 272.008L437.626 298.874L459.772 282.002Z" fill="#18C3DF" style="fill:#18C3DF;fill:color(display-p3 0.0941 0.7647 0.8745);fill-opacity:1;"/>
<path id="hn-a_30" d="M446.828 272.598L459.182 278.277L437.625 298.874L446.828 272.598Z" fill="#18C3DF" style="fill:#18C3DF;fill:color(display-p3 0.0941 0.7647 0.8745);fill-opacity:1;"/>
</g>
</g>
<g id="hn-c_4">
<g id="hn-b_16">
<path id="hn-a_31" d="M178.7 197.3L192.033 199.967L186.7 170.633L178.7 197.3Z" fill="#18C3DF" style="fill:#18C3DF;fill:color(display-p3 0.0941 0.7647 0.8745);fill-opacity:1;"/>
<path id="hn-a_32" d="M194.7 197.3L181.366 199.967L186.7 170.633L194.7 197.3Z" fill="#18C3DF" style="fill:#18C3DF;fill:color(display-p3 0.0941 0.7647 0.8745);fill-opacity:1;"/>
</g>
<g id="hn-b_17">
<path id="hn-a_33" d="M184.228 189.692L185.812 203.196L212.061 189.06L184.228 189.692Z" fill="#18C3DF" style="fill:#18C3DF;fill:color(display-p3 0.0941 0.7647 0.8745);fill-opacity:1;"/>
<path id="hn-a_34" d="M189.172 204.908L182.516 193.052L212.062 189.06L189.172 204.908Z" fill="#18C3DF" style="fill:#18C3DF;fill:color(display-p3 0.0941 0.7647 0.8745);fill-opacity:1;"/>
</g>
<g id="hn-b_18">
<path id="hn-a_35" d="M184.228 204.908L190.884 193.052L161.338 189.06L184.228 204.908Z" fill="#18C3DF" style="fill:#18C3DF;fill:color(display-p3 0.0941 0.7647 0.8745);fill-opacity:1;"/>
<path id="hn-a_36" d="M189.172 189.692L187.588 203.196L161.338 189.06L189.172 189.692Z" fill="#18C3DF" style="fill:#18C3DF;fill:color(display-p3 0.0941 0.7647 0.8745);fill-opacity:1;"/>
</g>
<g id="hn-b_19">
<path id="hn-a_37" d="M193.172 192.598L180.818 198.277L202.374 218.874L193.172 192.598Z" fill="#18C3DF" style="fill:#18C3DF;fill:color(display-p3 0.0941 0.7647 0.8745);fill-opacity:1;"/>
<path id="hn-a_38" d="M180.228 202.002L189.447 192.008L202.374 218.874L180.228 202.002Z" fill="#18C3DF" style="fill:#18C3DF;fill:color(display-p3 0.0941 0.7647 0.8745);fill-opacity:1;"/>
</g>
<g id="hn-b_20">
<path id="hn-a_39" d="M193.172 202.002L183.952 192.008L171.025 218.874L193.172 202.002Z" fill="#18C3DF" style="fill:#18C3DF;fill:color(display-p3 0.0941 0.7647 0.8745);fill-opacity:1;"/>
<path id="hn-a_40" d="M180.227 192.598L192.582 198.277L171.025 218.874L180.227 192.598Z" fill="#18C3DF" style="fill:#18C3DF;fill:color(display-p3 0.0941 0.7647 0.8745);fill-opacity:1;"/>
</g>
</g>
<g id="hn-c_5">
<g id="hn-b_21">
<path id="hn-a_41" d="M178.7 277.3L192.033 279.967L186.7 250.633L178.7 277.3Z" fill="#18C3DF" style="fill:#18C3DF;fill:color(display-p3 0.0941 0.7647 0.8745);fill-opacity:1;"/>
<path id="hn-a_42" d="M194.7 277.3L181.366 279.967L186.7 250.633L194.7 277.3Z" fill="#18C3DF" style="fill:#18C3DF;fill:color(display-p3 0.0941 0.7647 0.8745);fill-opacity:1;"/>
</g>
<g id="hn-b_22">
<path id="hn-a_43" d="M184.228 269.692L185.812 283.196L212.061 269.06L184.228 269.692Z" fill="#18C3DF" style="fill:#18C3DF;fill:color(display-p3 0.0941 0.7647 0.8745);fill-opacity:1;"/>
<path id="hn-a_44" d="M189.172 284.908L182.516 273.052L212.062 269.06L189.172 284.908Z" fill="#18C3DF" style="fill:#18C3DF;fill:color(display-p3 0.0941 0.7647 0.8745);fill-opacity:1;"/>
</g>
<g id="hn-b_23">
<path id="hn-a_45" d="M184.228 284.908L190.884 273.052L161.338 269.06L184.228 284.908Z" fill="#18C3DF" style="fill:#18C3DF;fill:color(display-p3 0.0941 0.7647 0.8745);fill-opacity:1;"/>
<path id="hn-a_46" d="M189.172 269.692L187.588 283.196L161.338 269.06L189.172 269.692Z" fill="#18C3DF" style="fill:#18C3DF;fill:color(display-p3 0.0941 0.7647 0.8745);fill-opacity:1;"/>
</g>
<g id="hn-b_24">
<path id="hn-a_47" d="M193.172 272.598L180.818 278.277L202.374 298.874L193.172 272.598Z" fill="#18C3DF" style="fill:#18C3DF;fill:color(display-p3 0.0941 0.7647 0.8745);fill-opacity:1;"/>
<path id="hn-a_48" d="M180.228 282.002L189.447 272.008L202.374 298.874L180.228 282.002Z" fill="#18C3DF" style="fill:#18C3DF;fill:color(display-p3 0.0941 0.7647 0.8745);fill-opacity:1;"/>
</g>
<g id="hn-b_25">
<path id="hn-a_49" d="M193.172 282.002L183.952 272.008L171.025 298.874L193.172 282.002Z" fill="#18C3DF" style="fill:#18C3DF;fill:color(display-p3 0.0941 0.7647 0.8745);fill-opacity:1;"/>
<path id="hn-a_50" d="M180.227 272.598L192.582 278.277L171.025 298.874L180.227 272.598Z" fill="#18C3DF" style="fill:#18C3DF;fill:color(display-p3 0.0941 0.7647 0.8745);fill-opacity:1;"/>
</g>
</g>
</g>
<defs>
<clipPath id="clip0_2194_4624">
<rect width="640" height="480" fill="white" style="fill:white;fill-opacity:1;"/>
</clipPath>
</defs>
</svg>
