<svg width="640" height="480" viewBox="0 0 640 480" fill="none" xmlns="http://www.w3.org/2000/svg">
<g id="ht" clip-path="url(#clip0_2194_4774)">
<path id="Vector" d="M0 0H640V480H0V0Z" fill="#D21034" style="fill:#D21034;fill:color(display-p3 0.8235 0.0627 0.2039);fill-opacity:1;"/>
<path id="Vector_2" d="M0 0H640V240H0V0Z" fill="#00209F" style="fill:#00209F;fill:color(display-p3 0.0000 0.1255 0.6235);fill-opacity:1;"/>
<g id="Group">
<path id="Vector_3" d="M244.3 179.7H395.7V300.2H244.3V179.7Z" fill="white" style="fill:white;fill-opacity:1;"/>
<path id="Vector_4" d="M350.5 266.8L319.5 267.8L288.8 268.1C288.8 268.1 273 273.9 266.5 275.2C260 276.5 260.9 278.6 256 279.8C252 280.7 251.5 280.9 249.2 281.1C247.7 281.1 246 282.3 244.2 283.5V300.2H395.7V284.3C394.1 283.433 392.5 282.767 390.9 282.3C388.7 281.5 387.2 280.7 383.2 279.8C378.2 278.7 379 276.5 372.6 275.2C366.1 273.9 350.5 266.8 350.5 266.8Z" fill="#016A16" stroke="#016A16" style="fill:#016A16;fill:color(display-p3 0.0039 0.4157 0.0863);fill-opacity:1;stroke:#016A16;stroke:color(display-p3 0.0039 0.4157 0.0863);stroke-opacity:1;" stroke-width="0.3"/>
<g id="Group_2">
<g id="ht-a">
<path id="Vector_5" d="M311.2 229.6H313.44L317.6 246.72L316.64 252.16L311.2 229.6Z" fill="#F1B517" stroke="black" style="fill:#F1B517;fill:color(display-p3 0.9451 0.7098 0.0902);fill-opacity:1;stroke:black;stroke-opacity:1;" stroke-width="0.32"/>
<path id="Vector_6" d="M308.8 218.08L310.4 231.36H312L308.8 218.24V218.08Z" fill="white" stroke="black" style="fill:white;fill-opacity:1;stroke:black;stroke-opacity:1;" stroke-width="0.32"/>
<path id="Vector_7" d="M313.12 247.36L306.24 228.96L308.8 228.8L316.8 251.2L313.12 247.36Z" fill="#F1B517" stroke="black" style="fill:#F1B517;fill:color(display-p3 0.9451 0.7098 0.0902);fill-opacity:1;stroke:black;stroke-opacity:1;" stroke-width="0.32"/>
<path id="Vector_8" d="M303.04 218.4L305.92 231.2H308.16L303.04 218.4Z" fill="white" stroke="black" style="fill:white;fill-opacity:1;stroke:black;stroke-opacity:1;" stroke-width="0.32"/>
<path id="Vector_9" d="M307.04 240.96L303.04 232.16L304.64 231.84L312.16 246.24L307.04 240.96Z" fill="#F1B517" stroke="black" style="fill:#F1B517;fill:color(display-p3 0.9451 0.7098 0.0902);fill-opacity:1;stroke:black;stroke-opacity:1;" stroke-width="0.32"/>
<path id="Vector_10" d="M297.6 222.08L302.24 234.24H304.48L297.76 222.08H297.6Z" fill="white" stroke="black" style="fill:white;fill-opacity:1;stroke:black;stroke-opacity:1;" stroke-width="0.32"/>
<path id="Vector_11" d="M307.68 242.24L289.28 222.24C283.52 226.72 284.64 235.04 284.64 235.04L305.44 251.36L307.68 242.24Z" fill="#0A328C" stroke="black" style="fill:#0A328C;fill:color(display-p3 0.0392 0.1961 0.5490);fill-opacity:1;stroke:black;stroke-opacity:1;" stroke-width="0.32"/>
<path id="Vector_12" d="M318.24 253.12L304.64 239.36C298.88 239.68 303.36 248.16 303.68 249.28L318.08 261.6L318.24 253.12Z" fill="#D20014" stroke="black" style="fill:#D20014;fill:color(display-p3 0.8235 0.0000 0.0784);fill-opacity:1;stroke:black;stroke-opacity:1;" stroke-width="0.32"/>
<path id="Vector_13" d="M316.96 250.88L288.96 220.8L287.84 221.6L317.6 254.56L316.96 250.88ZM287.36 218.88L286.72 218.08V216.64L280.96 212.96L283.52 218.88L285.6 219.2L286.08 219.84L287.36 218.88Z" fill="#F1B517" stroke="black" style="fill:#F1B517;fill:color(display-p3 0.9451 0.7098 0.0902);fill-opacity:1;stroke:black;stroke-opacity:1;" stroke-width="0.32"/>
<path id="Vector_14" d="M284.32 220.96C285.484 219.484 286.959 218.282 288.64 217.44L290.24 219.84L286.72 222.72L284.32 221.12V220.96Z" fill="#F1B517" stroke="black" style="fill:#F1B517;fill:color(display-p3 0.9451 0.7098 0.0902);fill-opacity:1;stroke:black;stroke-opacity:1;" stroke-width="0.32"/>
<path id="Vector_15" d="M281.28 226.08L282.24 227.68C282.88 227.52 288.64 222.08 288.64 222.08H292.96L294.08 220.64C290.88 217.44 288.16 221.12 288.16 221.12L281.28 226.08Z" fill="#0A328C" stroke="#0A328C" style="fill:#0A328C;fill:color(display-p3 0.0392 0.1961 0.5490);fill-opacity:1;stroke:#0A328C;stroke:color(display-p3 0.0392 0.1961 0.5490);stroke-opacity:1;" stroke-width="0.32"/>
<path id="Vector_16" d="M284.8 228.8C284.8 227.2 287.68 223.68 288 223.52C290.08 224.16 292 225.44 294.24 220.64C292.32 222.88 288.64 220.64 288.64 220.64L287.04 221.92V222.56L282.24 227.04L284.8 228.8Z" fill="#D20014" stroke="#D20014" style="fill:#D20014;fill:color(display-p3 0.8235 0.0000 0.0784);fill-opacity:1;stroke:#D20014;stroke:color(display-p3 0.8235 0.0000 0.0784);stroke-opacity:1;" stroke-width="0.32"/>
<path id="Vector_17" d="M299.68 247.52L276.64 229.28C272.64 233.28 276 245.6 276 245.6L298.4 257.76L299.52 247.52H299.68Z" fill="#0A328C" stroke="black" style="fill:#0A328C;fill:color(display-p3 0.0392 0.1961 0.5490);fill-opacity:1;stroke:black;stroke-opacity:1;" stroke-width="0.32"/>
<path id="Vector_18" d="M318.72 262.4L299.68 247.04C293.28 248 298.4 257.44 298.72 258.56L318.72 269.44V262.4Z" fill="#D20014" stroke="black" style="fill:#D20014;fill:color(display-p3 0.8235 0.0000 0.0784);fill-opacity:1;stroke:black;stroke-opacity:1;" stroke-width="0.32"/>
<path id="Vector_19" d="M317.92 259.2L276.96 228.48L276.16 229.44L319.04 263.04L317.92 259.2ZM275.04 226.88L274.4 226.24L274.08 224.96L267.68 222.24L271.36 227.52H273.44L274.08 228.16L275.04 226.88Z" fill="#F1B517" stroke="black" style="fill:#F1B517;fill:color(display-p3 0.9451 0.7098 0.0902);fill-opacity:1;stroke:black;stroke-opacity:1;" stroke-width="0.32"/>
<path id="Vector_20" d="M272.48 229.44C273.387 227.801 274.644 226.381 276.16 225.28L278.08 227.36L275.2 230.72L272.48 229.44Z" fill="#F1B517" stroke="black" style="fill:#F1B517;fill:color(display-p3 0.9451 0.7098 0.0902);fill-opacity:1;stroke:black;stroke-opacity:1;" stroke-width="0.32"/>
<path id="Vector_21" d="M270.4 234.56V236.32C271.04 236 276.32 230.4 276.32 230.4L280.32 229.6L281.28 228.32C278.4 224.96 275.36 229.44 275.36 229.44L270.4 234.56Z" fill="#0A328C" stroke="#0A328C" style="fill:#0A328C;fill:color(display-p3 0.0392 0.1961 0.5490);fill-opacity:1;stroke:#0A328C;stroke:color(display-p3 0.0392 0.1961 0.5490);stroke-opacity:1;" stroke-width="0.32"/>
<path id="Vector_22" d="M273.6 237.6C273.28 236 275.52 231.52 275.84 231.2C278.4 232 280.64 233.12 281.44 228C279.84 230.56 275.84 228.64 275.84 228.64L274.56 230.24V231.04L270.56 236.32L273.6 237.6Z" fill="#D20014" stroke="#D20014" style="fill:#D20014;fill:color(display-p3 0.8235 0.0000 0.0784);fill-opacity:1;stroke:#D20014;stroke:color(display-p3 0.8235 0.0000 0.0784);stroke-opacity:1;" stroke-width="0.32"/>
<path id="Vector_23" d="M297.92 258.72L268.32 241.92C266.24 245.6 268.16 250.72 269.12 251.52C269.12 253.92 268.16 255.2 270.24 260.32C270.88 263.733 272.32 266.4 274.56 268.32C277.12 278.56 287.68 279.36 291.68 270.88L297.92 258.72Z" fill="#0A328C" stroke="black" style="fill:#0A328C;fill:color(display-p3 0.0392 0.1961 0.5490);fill-opacity:1;stroke:black;stroke-opacity:1;" stroke-width="0.32"/>
<path id="Vector_24" d="M317.28 269.6L297.28 257.92C290.88 258.72 297.28 270.72 297.76 271.84L317.28 278.72V269.6Z" fill="#D20014" stroke="black" style="fill:#D20014;fill:color(display-p3 0.8235 0.0000 0.0784);fill-opacity:1;stroke:black;stroke-opacity:1;" stroke-width="0.32"/>
<path id="Vector_25" d="M313.92 265.28L268.64 241.28L267.84 242.24L315.84 268.96L313.92 265.28ZM266.4 240L265.6 239.52L265.12 238.24L258.56 236.64L262.88 241.28L264.8 240.96L265.76 241.44L266.4 240Z" fill="#F1B517" stroke="black" style="fill:#F1B517;fill:color(display-p3 0.9451 0.7098 0.0902);fill-opacity:1;stroke:black;stroke-opacity:1;" stroke-width="0.32"/>
<path id="Vector_26" d="M264.32 242.88C264.747 241.387 265.707 239.787 267.2 238.08L269.44 239.84L267.2 243.68L264.32 242.88Z" fill="#F1B517" stroke="black" style="fill:#F1B517;fill:color(display-p3 0.9451 0.7098 0.0902);fill-opacity:1;stroke:black;stroke-opacity:1;" stroke-width="0.32"/>
<path id="Vector_27" d="M262.56 248.32L263.52 250.24L268.32 242.88L272.32 241.44L273.12 239.84C269.92 236.96 267.52 242.08 267.52 242.08L262.56 248.32Z" fill="#0A328C" stroke="#0A328C" style="fill:#0A328C;fill:color(display-p3 0.0392 0.1961 0.5490);fill-opacity:1;stroke:#0A328C;stroke:color(display-p3 0.0392 0.1961 0.5490);stroke-opacity:1;" stroke-width="0.32"/>
<path id="Vector_28" d="M266.88 250.88C266.56 249.28 267.68 244.16 268 244C270.4 244.8 272.48 244.96 273.12 239.84C271.52 242.24 267.84 241.44 267.84 241.44L266.72 243.04L266.88 243.68L263.68 250.08L266.88 250.88Z" fill="#D20014" stroke="#D20014" style="fill:#D20014;fill:color(display-p3 0.8235 0.0000 0.0784);fill-opacity:1;stroke:#D20014;stroke:color(display-p3 0.8235 0.0000 0.0784);stroke-opacity:1;" stroke-width="0.32"/>
</g>
<g id="ht-a_2">
<path id="Vector_29" d="M328.64 229.6H326.4L322.24 246.72L323.2 252.16L328.64 229.6Z" fill="#F1B517" stroke="black" style="fill:#F1B517;fill:color(display-p3 0.9451 0.7098 0.0902);fill-opacity:1;stroke:black;stroke-opacity:1;" stroke-width="0.32"/>
<path id="Vector_30" d="M331.04 218.08L329.44 231.36H327.84L331.04 218.24V218.08Z" fill="white" stroke="black" style="fill:white;fill-opacity:1;stroke:black;stroke-opacity:1;" stroke-width="0.32"/>
<path id="Vector_31" d="M326.72 247.36L333.6 228.96L331.04 228.8L323.04 251.2L326.72 247.36Z" fill="#F1B517" stroke="black" style="fill:#F1B517;fill:color(display-p3 0.9451 0.7098 0.0902);fill-opacity:1;stroke:black;stroke-opacity:1;" stroke-width="0.32"/>
<path id="Vector_32" d="M336.8 218.4L333.92 231.2H331.68L336.8 218.4Z" fill="white" stroke="black" style="fill:white;fill-opacity:1;stroke:black;stroke-opacity:1;" stroke-width="0.32"/>
<path id="Vector_33" d="M332.8 240.96L336.8 232.16L335.2 231.84L327.68 246.24L332.8 240.96Z" fill="#F1B517" stroke="black" style="fill:#F1B517;fill:color(display-p3 0.9451 0.7098 0.0902);fill-opacity:1;stroke:black;stroke-opacity:1;" stroke-width="0.32"/>
<path id="Vector_34" d="M342.24 222.08L337.6 234.24H335.36L342.08 222.08H342.24Z" fill="white" stroke="black" style="fill:white;fill-opacity:1;stroke:black;stroke-opacity:1;" stroke-width="0.32"/>
<path id="Vector_35" d="M332.16 242.24L350.56 222.24C356.32 226.72 355.2 235.04 355.2 235.04L334.4 251.36L332.16 242.24Z" fill="#0A328C" stroke="black" style="fill:#0A328C;fill:color(display-p3 0.0392 0.1961 0.5490);fill-opacity:1;stroke:black;stroke-opacity:1;" stroke-width="0.32"/>
<path id="Vector_36" d="M321.6 253.12L335.2 239.36C340.96 239.68 336.48 248.16 336.16 249.28L321.76 261.6L321.6 253.12Z" fill="#D20014" stroke="black" style="fill:#D20014;fill:color(display-p3 0.8235 0.0000 0.0784);fill-opacity:1;stroke:black;stroke-opacity:1;" stroke-width="0.32"/>
<path id="Vector_37" d="M322.88 250.88L350.88 220.8L352 221.6L322.24 254.56L322.88 250.88ZM352.48 218.88L353.12 218.08V216.64L358.88 212.96L356.32 218.88L354.24 219.2L353.76 219.84L352.48 218.88Z" fill="#F1B517" stroke="black" style="fill:#F1B517;fill:color(display-p3 0.9451 0.7098 0.0902);fill-opacity:1;stroke:black;stroke-opacity:1;" stroke-width="0.32"/>
<path id="Vector_38" d="M355.52 220.96C354.356 219.484 352.881 218.282 351.2 217.44L349.6 219.84L353.12 222.72L355.52 221.12V220.96Z" fill="#F1B517" stroke="black" style="fill:#F1B517;fill:color(display-p3 0.9451 0.7098 0.0902);fill-opacity:1;stroke:black;stroke-opacity:1;" stroke-width="0.32"/>
<path id="Vector_39" d="M358.56 226.08L357.6 227.68C356.96 227.52 351.2 222.08 351.2 222.08H346.88L345.76 220.64C348.96 217.44 351.68 221.12 351.68 221.12L358.56 226.08Z" fill="#0A328C" stroke="#0A328C" style="fill:#0A328C;fill:color(display-p3 0.0392 0.1961 0.5490);fill-opacity:1;stroke:#0A328C;stroke:color(display-p3 0.0392 0.1961 0.5490);stroke-opacity:1;" stroke-width="0.32"/>
<path id="Vector_40" d="M355.04 228.8C355.04 227.2 352.16 223.68 351.84 223.52C349.76 224.16 347.84 225.44 345.6 220.64C347.52 222.88 351.2 220.64 351.2 220.64L352.8 221.92V222.56L357.6 227.04L355.04 228.8Z" fill="#D20014" stroke="#D20014" style="fill:#D20014;fill:color(display-p3 0.8235 0.0000 0.0784);fill-opacity:1;stroke:#D20014;stroke:color(display-p3 0.8235 0.0000 0.0784);stroke-opacity:1;" stroke-width="0.32"/>
<path id="Vector_41" d="M340.16 247.52L363.2 229.28C367.2 233.28 363.84 245.6 363.84 245.6L341.44 257.76L340.32 247.52H340.16Z" fill="#0A328C" stroke="black" style="fill:#0A328C;fill:color(display-p3 0.0392 0.1961 0.5490);fill-opacity:1;stroke:black;stroke-opacity:1;" stroke-width="0.32"/>
<path id="Vector_42" d="M321.12 262.4L340.16 247.04C346.56 248 341.44 257.44 341.12 258.56L321.12 269.44V262.4Z" fill="#D20014" stroke="black" style="fill:#D20014;fill:color(display-p3 0.8235 0.0000 0.0784);fill-opacity:1;stroke:black;stroke-opacity:1;" stroke-width="0.32"/>
<path id="Vector_43" d="M321.92 259.2L362.88 228.48L363.68 229.44L320.8 263.04L321.92 259.2ZM364.8 226.88L365.44 226.24L365.76 224.96L372.16 222.24L368.48 227.52H366.4L365.76 228.16L364.8 226.88Z" fill="#F1B517" stroke="black" style="fill:#F1B517;fill:color(display-p3 0.9451 0.7098 0.0902);fill-opacity:1;stroke:black;stroke-opacity:1;" stroke-width="0.32"/>
<path id="Vector_44" d="M367.36 229.44C366.453 227.801 365.196 226.381 363.68 225.28L361.76 227.36L364.64 230.72L367.36 229.44Z" fill="#F1B517" stroke="black" style="fill:#F1B517;fill:color(display-p3 0.9451 0.7098 0.0902);fill-opacity:1;stroke:black;stroke-opacity:1;" stroke-width="0.32"/>
<path id="Vector_45" d="M369.44 234.56V236.32C368.8 236 363.52 230.4 363.52 230.4L359.52 229.6L358.56 228.32C361.44 224.96 364.48 229.44 364.48 229.44L369.44 234.56Z" fill="#0A328C" stroke="#0A328C" style="fill:#0A328C;fill:color(display-p3 0.0392 0.1961 0.5490);fill-opacity:1;stroke:#0A328C;stroke:color(display-p3 0.0392 0.1961 0.5490);stroke-opacity:1;" stroke-width="0.32"/>
<path id="Vector_46" d="M366.24 237.6C366.56 236 364.32 231.52 364 231.2C361.44 232 359.2 233.12 358.4 228C360 230.56 364 228.64 364 228.64L365.28 230.24V231.04L369.28 236.32L366.24 237.6Z" fill="#D20014" stroke="#D20014" style="fill:#D20014;fill:color(display-p3 0.8235 0.0000 0.0784);fill-opacity:1;stroke:#D20014;stroke:color(display-p3 0.8235 0.0000 0.0784);stroke-opacity:1;" stroke-width="0.32"/>
<path id="Vector_47" d="M341.92 258.72L371.52 241.92C373.6 245.6 371.68 250.72 370.72 251.52C370.72 253.92 371.68 255.2 369.6 260.32C368.96 263.733 367.52 266.4 365.28 268.32C362.72 278.56 352.16 279.36 348.16 270.88L341.92 258.72Z" fill="#0A328C" stroke="black" style="fill:#0A328C;fill:color(display-p3 0.0392 0.1961 0.5490);fill-opacity:1;stroke:black;stroke-opacity:1;" stroke-width="0.32"/>
<path id="Vector_48" d="M322.56 269.6L342.56 257.92C348.96 258.72 342.56 270.72 342.08 271.84L322.56 278.72V269.6Z" fill="#D20014" stroke="black" style="fill:#D20014;fill:color(display-p3 0.8235 0.0000 0.0784);fill-opacity:1;stroke:black;stroke-opacity:1;" stroke-width="0.32"/>
<path id="Vector_49" d="M325.92 265.28L371.2 241.28L372 242.24L324 268.96L325.92 265.28ZM373.44 240L374.24 239.52L374.72 238.24L381.28 236.64L376.96 241.28L375.04 240.96L374.08 241.44L373.44 240Z" fill="#F1B517" stroke="black" style="fill:#F1B517;fill:color(display-p3 0.9451 0.7098 0.0902);fill-opacity:1;stroke:black;stroke-opacity:1;" stroke-width="0.32"/>
<path id="Vector_50" d="M375.52 242.88C375.093 241.387 374.133 239.787 372.64 238.08L370.4 239.84L372.64 243.68L375.52 242.88Z" fill="#F1B517" stroke="black" style="fill:#F1B517;fill:color(display-p3 0.9451 0.7098 0.0902);fill-opacity:1;stroke:black;stroke-opacity:1;" stroke-width="0.32"/>
<path id="Vector_51" d="M377.28 248.32L376.32 250.24L371.52 242.88L367.52 241.44L366.72 239.84C369.92 236.96 372.32 242.08 372.32 242.08L377.28 248.32Z" fill="#0A328C" stroke="#0A328C" style="fill:#0A328C;fill:color(display-p3 0.0392 0.1961 0.5490);fill-opacity:1;stroke:#0A328C;stroke:color(display-p3 0.0392 0.1961 0.5490);stroke-opacity:1;" stroke-width="0.32"/>
<path id="Vector_52" d="M372.96 250.88C373.28 249.28 372.16 244.16 371.84 244C369.44 244.8 367.36 244.96 366.72 239.84C368.32 242.24 372 241.44 372 241.44L373.12 243.04L372.96 243.68L376.16 250.08L372.96 250.88Z" fill="#D20014" stroke="#D20014" style="fill:#D20014;fill:color(display-p3 0.8235 0.0000 0.0784);fill-opacity:1;stroke:#D20014;stroke:color(display-p3 0.8235 0.0000 0.0784);stroke-opacity:1;" stroke-width="0.32"/>
</g>
</g>
<g id="Group_3">
<path id="Vector_53" d="M318.08 200.96L317.28 215.36H321.92L321.28 200.96L326.08 200.48L325.6 194.72L313.6 195.2V200.32L318.08 200.96Z" fill="#016A16" stroke="#016A16" style="fill:#016A16;fill:color(display-p3 0.0039 0.4157 0.0863);fill-opacity:1;stroke:#016A16;stroke:color(display-p3 0.0039 0.4157 0.0863);stroke-opacity:1;" stroke-width="0.32"/>
<g id="ht-b">
<g id="Vector_54">
<path d="M319.68 195.04C307.2 182.56 297.44 188.64 295.2 190.4C296.8 190.72 298.08 189.76 298.88 189.6L297.28 191.52C297.28 191.52 301.28 189.92 301.76 189.92C301.12 190.4 300.48 191.52 300.48 191.52C300.8 191.52 303.04 189.76 303.36 189.76C302.72 190.4 302.56 192.16 302.56 192.16L304.48 191.36C304.96 191.68 304.32 192.32 304.64 192.32C307.84 192 312.16 195.04 312.64 196" fill="#016A16" style="fill:#016A16;fill:color(display-p3 0.0039 0.4157 0.0863);fill-opacity:1;"/>
<path d="M319.68 195.04C307.2 182.56 297.44 188.64 295.2 190.4C296.8 190.72 298.08 189.76 298.88 189.6L297.28 191.52C297.28 191.52 301.28 189.92 301.76 189.92C301.12 190.4 300.48 191.52 300.48 191.52C300.8 191.52 303.04 189.76 303.36 189.76C302.72 190.4 302.56 192.16 302.56 192.16L304.48 191.36C304.96 191.68 304.32 192.32 304.64 192.32C307.84 192 312.16 195.04 312.64 196" stroke="black" style="stroke:black;stroke-opacity:1;" stroke-width="0.32"/>
</g>
<g id="Vector_55">
<path d="M316.64 197.28C315.36 194.4 291.68 189.28 286.88 197.76C288.8 198.24 290.56 196.16 290.56 196.16V198.08L293.6 195.52L292.48 198.08L294.88 196V198.08L298.08 194.88L297.6 196.64L300.32 195.52L300 197.12" fill="#016A16" style="fill:#016A16;fill:color(display-p3 0.0039 0.4157 0.0863);fill-opacity:1;"/>
<path d="M316.64 197.28C315.36 194.4 291.68 189.28 286.88 197.76C288.8 198.24 290.56 196.16 290.56 196.16V198.08L293.6 195.52L292.48 198.08L294.88 196V198.08L298.08 194.88L297.6 196.64L300.32 195.52L300 197.12" stroke="black" style="stroke:black;stroke-opacity:1;" stroke-width="0.32"/>
</g>
<g id="Vector_56">
<path d="M315.52 197.76C309.44 193.76 300.16 196.48 300.16 196.48C294.08 199.68 290.88 199.2 290.24 205.44C290.72 205.28 292.32 203.2 292.32 203.2L293.6 205.6L293.92 202.24L294.88 204.96L296.48 200.48L296.8 203.52L299.04 200.48L300 201.44L300.96 199.04L301.92 200.64C301.92 200.64 303.52 199.68 304.32 200.16L305.92 198.24L306.4 199.68L308 198.08L308.48 199.2L309.92 197.92V198.88H314.72" fill="#016A16" style="fill:#016A16;fill:color(display-p3 0.0039 0.4157 0.0863);fill-opacity:1;"/>
<path d="M315.52 197.76C309.44 193.76 300.16 196.48 300.16 196.48C294.08 199.68 290.88 199.2 290.24 205.44C290.72 205.28 292.32 203.2 292.32 203.2L293.6 205.6L293.92 202.24L294.88 204.96L296.48 200.48L296.8 203.52L299.04 200.48L300 201.44L300.96 199.04L301.92 200.64C301.92 200.64 303.52 199.68 304.32 200.16L305.92 198.24L306.4 199.68L308 198.08L308.48 199.2L309.92 197.92V198.88H314.72" stroke="black" style="stroke:black;stroke-opacity:1;" stroke-width="0.32"/>
</g>
<g id="Vector_57">
<path d="M314.24 198.4C309.92 198.4 297.76 203.04 294.72 207.68L296.8 206.72L297.28 208.64L298.08 206.72L298.24 208.32C298.667 207.04 299.307 206.987 300.16 208.16L300.48 206.4L300.96 208L301.76 206.24C301.76 206.24 302.24 208.16 302.56 208.16C302.56 208.16 303.84 204.64 304.48 204.48L304.64 206.72L305.44 204.48L306.24 206.08V203.84L307.2 205.44C307.2 205.44 307.52 203.84 308.16 203.52L309.44 204.64L314.88 200.64" fill="#016A16" style="fill:#016A16;fill:color(display-p3 0.0039 0.4157 0.0863);fill-opacity:1;"/>
<path d="M314.24 198.4C309.92 198.4 297.76 203.04 294.72 207.68L296.8 206.72L297.28 208.64L298.08 206.72L298.24 208.32C298.667 207.04 299.307 206.987 300.16 208.16L300.48 206.4L300.96 208L301.76 206.24C301.76 206.24 302.24 208.16 302.56 208.16C302.56 208.16 303.84 204.64 304.48 204.48L304.64 206.72L305.44 204.48L306.24 206.08V203.84L307.2 205.44C307.2 205.44 307.52 203.84 308.16 203.52L309.44 204.64L314.88 200.64" stroke="black" style="stroke:black;stroke-opacity:1;" stroke-width="0.32"/>
</g>
<g id="Vector_58">
<path d="M315.04 199.52C309.44 201.6 304.32 209.44 304.8 212.64C307.2 209.44 306.72 209.92 307.84 213.6C307.84 213.6 308.16 210.4 308.64 210.08L309.44 212.32L309.6 209.28H310.4L310.24 207.52L311.36 208.32C311.04 207.2 310.88 206.88 312 205.92C312 205.92 310.4 206.08 311.68 203.52L312.8 204.48C312.8 204.48 312.48 203.36 312.8 202.88L316.96 201.6" fill="#016A16" style="fill:#016A16;fill:color(display-p3 0.0039 0.4157 0.0863);fill-opacity:1;"/>
<path d="M315.04 199.52C309.44 201.6 304.32 209.44 304.8 212.64C307.2 209.44 306.72 209.92 307.84 213.6C307.84 213.6 308.16 210.4 308.64 210.08L309.44 212.32L309.6 209.28H310.4L310.24 207.52L311.36 208.32C311.04 207.2 310.88 206.88 312 205.92C312 205.92 310.4 206.08 311.68 203.52L312.8 204.48C312.8 204.48 312.48 203.36 312.8 202.88L316.96 201.6" stroke="black" style="stroke:black;stroke-opacity:1;" stroke-width="0.32"/>
</g>
<g id="Vector_59">
<path d="M315.52 200L313.44 204.16L314.56 204.48L312 206.24L314.08 206.08C314.08 206.08 310.88 207.2 310.56 210.4L313.76 208.8C313.76 208.8 311.04 211.68 310.56 213.44L312.64 211.84C312.64 211.84 310.72 213.76 311.04 216.64L312.48 215.04C312.16 218.72 312.16 219.04 313.76 221.76C313.76 221.76 313.44 217.6 313.76 216.96L317.44 220.8L315.52 215.52C315.52 215.52 317.76 218.72 319.04 218.56L316.16 214.24L319.04 216.48L315.84 211.68L318.72 212.64C318.72 212.64 316.64 209.92 316.8 208.16L318.88 210.4C318.88 210.4 318.08 208 318.24 207.2L319.36 207.36L317.28 205.12L318.72 204.8L318.56 203.2L319.52 203.04V201.28M317.76 201.28C314.24 206.08 316 213.28 313.92 217.12Z" fill="#016A16" style="fill:#016A16;fill:color(display-p3 0.0039 0.4157 0.0863);fill-opacity:1;"/>
<path d="M315.52 200L313.44 204.16L314.56 204.48L312 206.24L314.08 206.08C314.08 206.08 310.88 207.2 310.56 210.4L313.76 208.8C313.76 208.8 311.04 211.68 310.56 213.44L312.64 211.84C312.64 211.84 310.72 213.76 311.04 216.64L312.48 215.04C312.16 218.72 312.16 219.04 313.76 221.76C313.76 221.76 313.44 217.6 313.76 216.96L317.44 220.8L315.52 215.52C315.52 215.52 317.76 218.72 319.04 218.56L316.16 214.24L319.04 216.48L315.84 211.68L318.72 212.64C318.72 212.64 316.64 209.92 316.8 208.16L318.88 210.4C318.88 210.4 318.08 208 318.24 207.2L319.36 207.36L317.28 205.12L318.72 204.8L318.56 203.2L319.52 203.04V201.28M317.76 201.28C314.24 206.08 316 213.28 313.92 217.12" stroke="black" style="stroke:black;stroke-opacity:1;" stroke-width="0.32"/>
</g>
</g>
<g id="ht-b_2">
<g id="Vector_60">
<path d="M320.16 195.04C332.64 182.56 342.4 188.64 344.64 190.4C343.04 190.72 341.76 189.76 340.96 189.6L342.56 191.52C342.56 191.52 338.56 189.92 338.08 189.92C338.72 190.4 339.36 191.52 339.36 191.52C339.04 191.52 336.8 189.76 336.48 189.76C337.12 190.4 337.28 192.16 337.28 192.16L335.36 191.36C334.88 191.68 335.52 192.32 335.2 192.32C332 192 327.68 195.04 327.2 196" fill="#016A16" style="fill:#016A16;fill:color(display-p3 0.0039 0.4157 0.0863);fill-opacity:1;"/>
<path d="M320.16 195.04C332.64 182.56 342.4 188.64 344.64 190.4C343.04 190.72 341.76 189.76 340.96 189.6L342.56 191.52C342.56 191.52 338.56 189.92 338.08 189.92C338.72 190.4 339.36 191.52 339.36 191.52C339.04 191.52 336.8 189.76 336.48 189.76C337.12 190.4 337.28 192.16 337.28 192.16L335.36 191.36C334.88 191.68 335.52 192.32 335.2 192.32C332 192 327.68 195.04 327.2 196" stroke="black" style="stroke:black;stroke-opacity:1;" stroke-width="0.32"/>
</g>
<g id="Vector_61">
<path d="M323.2 197.28C324.48 194.4 348.16 189.28 352.96 197.76C351.04 198.24 349.28 196.16 349.28 196.16V198.08L346.24 195.52L347.36 198.08L344.96 196V198.08L341.76 194.88L342.24 196.64L339.52 195.52L339.84 197.12" fill="#016A16" style="fill:#016A16;fill:color(display-p3 0.0039 0.4157 0.0863);fill-opacity:1;"/>
<path d="M323.2 197.28C324.48 194.4 348.16 189.28 352.96 197.76C351.04 198.24 349.28 196.16 349.28 196.16V198.08L346.24 195.52L347.36 198.08L344.96 196V198.08L341.76 194.88L342.24 196.64L339.52 195.52L339.84 197.12" stroke="black" style="stroke:black;stroke-opacity:1;" stroke-width="0.32"/>
</g>
<g id="Vector_62">
<path d="M324.32 197.76C330.4 193.76 339.68 196.48 339.68 196.48C345.76 199.68 348.96 199.2 349.6 205.44C349.12 205.28 347.52 203.2 347.52 203.2L346.24 205.6L345.92 202.24L344.96 204.96L343.36 200.48L343.04 203.52L340.8 200.48L339.84 201.44L338.88 199.04L337.92 200.64C337.92 200.64 336.32 199.68 335.52 200.16L333.92 198.24L333.44 199.68L331.84 198.08L331.36 199.2L329.92 197.92V198.88H325.12" fill="#016A16" style="fill:#016A16;fill:color(display-p3 0.0039 0.4157 0.0863);fill-opacity:1;"/>
<path d="M324.32 197.76C330.4 193.76 339.68 196.48 339.68 196.48C345.76 199.68 348.96 199.2 349.6 205.44C349.12 205.28 347.52 203.2 347.52 203.2L346.24 205.6L345.92 202.24L344.96 204.96L343.36 200.48L343.04 203.52L340.8 200.48L339.84 201.44L338.88 199.04L337.92 200.64C337.92 200.64 336.32 199.68 335.52 200.16L333.92 198.24L333.44 199.68L331.84 198.08L331.36 199.2L329.92 197.92V198.88H325.12" stroke="black" style="stroke:black;stroke-opacity:1;" stroke-width="0.32"/>
</g>
<g id="Vector_63">
<path d="M325.6 198.4C329.92 198.4 342.08 203.04 345.12 207.68L343.04 206.72L342.56 208.64L341.76 206.72L341.6 208.32C341.173 207.04 340.533 206.987 339.68 208.16L339.36 206.4L338.88 208L338.08 206.24C338.08 206.24 337.6 208.16 337.28 208.16C337.28 208.16 336 204.64 335.36 204.48L335.2 206.72L334.4 204.48L333.6 206.08V203.84L332.64 205.44C332.64 205.44 332.32 203.84 331.68 203.52L330.4 204.64L324.96 200.64" fill="#016A16" style="fill:#016A16;fill:color(display-p3 0.0039 0.4157 0.0863);fill-opacity:1;"/>
<path d="M325.6 198.4C329.92 198.4 342.08 203.04 345.12 207.68L343.04 206.72L342.56 208.64L341.76 206.72L341.6 208.32C341.173 207.04 340.533 206.987 339.68 208.16L339.36 206.4L338.88 208L338.08 206.24C338.08 206.24 337.6 208.16 337.28 208.16C337.28 208.16 336 204.64 335.36 204.48L335.2 206.72L334.4 204.48L333.6 206.08V203.84L332.64 205.44C332.64 205.44 332.32 203.84 331.68 203.52L330.4 204.64L324.96 200.64" stroke="black" style="stroke:black;stroke-opacity:1;" stroke-width="0.32"/>
</g>
<g id="Vector_64">
<path d="M324.8 199.52C330.4 201.6 335.52 209.44 335.04 212.64C332.64 209.44 333.12 209.92 332 213.6C332 213.6 331.68 210.4 331.2 210.08L330.4 212.32L330.24 209.28H329.44L329.6 207.52L328.48 208.32C328.8 207.2 328.96 206.88 327.84 205.92C327.84 205.92 329.44 206.08 328.16 203.52L327.04 204.48C327.04 204.48 327.36 203.36 327.04 202.88L322.88 201.6" fill="#016A16" style="fill:#016A16;fill:color(display-p3 0.0039 0.4157 0.0863);fill-opacity:1;"/>
<path d="M324.8 199.52C330.4 201.6 335.52 209.44 335.04 212.64C332.64 209.44 333.12 209.92 332 213.6C332 213.6 331.68 210.4 331.2 210.08L330.4 212.32L330.24 209.28H329.44L329.6 207.52L328.48 208.32C328.8 207.2 328.96 206.88 327.84 205.92C327.84 205.92 329.44 206.08 328.16 203.52L327.04 204.48C327.04 204.48 327.36 203.36 327.04 202.88L322.88 201.6" stroke="black" style="stroke:black;stroke-opacity:1;" stroke-width="0.32"/>
</g>
<g id="Vector_65">
<path d="M324.32 200L326.4 204.16L325.28 204.48L327.84 206.24L325.76 206.08C325.76 206.08 328.96 207.2 329.28 210.4L326.08 208.8C326.08 208.8 328.8 211.68 329.28 213.44L327.2 211.84C327.2 211.84 329.12 213.76 328.8 216.64L327.36 215.04C327.68 218.72 327.68 219.04 326.08 221.76C326.08 221.76 326.4 217.6 326.08 216.96L322.4 220.8L324.32 215.52C324.32 215.52 322.08 218.72 320.8 218.56L323.68 214.24L320.8 216.48L324 211.68L321.12 212.64C321.12 212.64 323.2 209.92 323.04 208.16L320.96 210.4C320.96 210.4 321.76 208 321.6 207.2L320.48 207.36L322.56 205.12L321.12 204.8L321.28 203.2L320.32 203.04V201.28M322.08 201.28C325.6 206.08 323.84 213.28 325.92 217.12Z" fill="#016A16" style="fill:#016A16;fill:color(display-p3 0.0039 0.4157 0.0863);fill-opacity:1;"/>
<path d="M324.32 200L326.4 204.16L325.28 204.48L327.84 206.24L325.76 206.08C325.76 206.08 328.96 207.2 329.28 210.4L326.08 208.8C326.08 208.8 328.8 211.68 329.28 213.44L327.2 211.84C327.2 211.84 329.12 213.76 328.8 216.64L327.36 215.04C327.68 218.72 327.68 219.04 326.08 221.76C326.08 221.76 326.4 217.6 326.08 216.96L322.4 220.8L324.32 215.52C324.32 215.52 322.08 218.72 320.8 218.56L323.68 214.24L320.8 216.48L324 211.68L321.12 212.64C321.12 212.64 323.2 209.92 323.04 208.16L320.96 210.4C320.96 210.4 321.76 208 321.6 207.2L320.48 207.36L322.56 205.12L321.12 204.8L321.28 203.2L320.32 203.04V201.28M322.08 201.28C325.6 206.08 323.84 213.28 325.92 217.12" stroke="black" style="stroke:black;stroke-opacity:1;" stroke-width="0.32"/>
</g>
</g>
<path id="Vector_66" d="M321.6 266.4C321.6 266.4 323.36 250.4 323.36 243.68C323.36 238.24 322.08 226.4 322.08 226.4H316.8C316.8 226.4 316 238.24 316.16 243.68C316.16 250.4 317.92 266.4 317.92 266.4H321.6Z" fill="#F1B517" stroke="black" style="fill:#F1B517;fill:color(display-p3 0.9451 0.7098 0.0902);fill-opacity:1;stroke:black;stroke-opacity:1;" stroke-width="0.32"/>
<path id="Vector_67" d="M316.32 227.2H322.72L321.92 222.88H317.28L316.32 227.2Z" fill="#F1B517" stroke="black" style="fill:#F1B517;fill:color(display-p3 0.9451 0.7098 0.0902);fill-opacity:1;stroke:black;stroke-opacity:1;" stroke-width="0.32"/>
<path id="Vector_68" d="M316.8 223.68H322.4L321.28 219.36H317.76L316.8 223.68Z" fill="#F1B517" stroke="black" style="fill:#F1B517;fill:color(display-p3 0.9451 0.7098 0.0902);fill-opacity:1;stroke:black;stroke-opacity:1;" stroke-width="0.32"/>
<path id="Vector_69" d="M317.12 220.32H321.92L320.96 216H317.92L317.12 220.32Z" fill="#F1B517" stroke="black" style="fill:#F1B517;fill:color(display-p3 0.9451 0.7098 0.0902);fill-opacity:1;stroke:black;stroke-opacity:1;" stroke-width="0.32"/>
<g id="Vector_70">
<path d="M321.12 215.52H317.92L317.44 217.12H321.44L321.12 215.52ZM321.76 263.04H317.6ZM322.08 259.84H317.28ZM322.72 256.64H316.64ZM323.04 253.28H316.64ZM323.04 249.76H316.48ZM323.2 246.56H316.16ZM323.2 243.84H315.84ZM323.2 240.32H315.84ZM323.04 236.96H315.84ZM322.72 233.44H316.16ZM322.4 230.24H316.48Z" fill="#F1B517" style="fill:#F1B517;fill:color(display-p3 0.9451 0.7098 0.0902);fill-opacity:1;"/>
<path d="M321.76 263.04H317.6M322.08 259.84H317.28M322.72 256.64H316.64M323.04 253.28H316.64M323.04 249.76H316.48M323.2 246.56H316.16M323.2 243.84H315.84M323.2 240.32H315.84M323.04 236.96H315.84M322.72 233.44H316.16M322.4 230.24H316.48M321.12 215.52H317.92L317.44 217.12H321.44L321.12 215.52Z" stroke="black" style="stroke:black;stroke-opacity:1;" stroke-width="0.32"/>
</g>
<path id="Vector_71" d="M320 190.4C318.72 189.92 316.32 188.32 316.96 187.36L318.08 185.44C319.68 181.92 318.08 183.2 318.08 182.24C317.76 180.96 324.16 181.92 324.16 184.32C324.16 185.12 323.68 184.64 323.84 188.48L322.56 190.88C321.641 190.971 320.713 190.862 319.84 190.56L320 190.4Z" fill="#0A328C" stroke="#0A328C" style="fill:#0A328C;fill:color(display-p3 0.0392 0.1961 0.5490);fill-opacity:1;stroke:#0A328C;stroke:color(display-p3 0.0392 0.1961 0.5490);stroke-opacity:1;" stroke-width="0.32"/>
<path id="Vector_72" d="M320.64 200L319.04 198.56L319.52 187.2L321.12 187.68L320.64 199.84V200Z" fill="#F1B517" stroke="black" style="fill:#F1B517;fill:color(display-p3 0.9451 0.7098 0.0902);fill-opacity:1;stroke:black;stroke-opacity:1;" stroke-width="0.32"/>
<path id="Vector_73" d="M322.72 190.88C323.68 190.24 324.32 188.48 323.68 187.52C322.08 185.44 320.96 186.24 318.24 185.28C317.76 185.92 316.64 186.88 316.8 187.84C320.48 189.44 319.04 188.16 320.32 188.32C320.96 188.32 321.28 189.12 322.72 190.72V190.88Z" fill="#D20014" stroke="#D20014" style="fill:#D20014;fill:color(display-p3 0.8235 0.0000 0.0784);fill-opacity:1;stroke:#D20014;stroke:color(display-p3 0.8235 0.0000 0.0784);stroke-opacity:1;" stroke-width="0.32"/>
</g>
<g id="Group_4">
<path id="ht-c" d="M301.6 256.48C301.173 255.627 300.107 255.147 298.4 255.04C295.84 254.88 295.68 255.68 295.2 256.48V255.84C295.413 254.667 296.48 254.027 298.4 253.92C300.533 253.92 301.653 254.56 301.76 255.84L301.6 256.48Z" fill="#016A16" stroke="white" style="fill:#016A16;fill:color(display-p3 0.0039 0.4157 0.0863);fill-opacity:1;stroke:white;stroke-opacity:1;" stroke-width="0.32" stroke-linecap="round"/>
<path id="Vector_74" d="M301.44 258.88C301.44 260.8 300 262.56 298.4 262.56C296.8 262.56 295.52 260.96 295.52 258.72V256.8H301.44V258.88Z" fill="#016A16" stroke="white" style="fill:#016A16;fill:color(display-p3 0.0039 0.4157 0.0863);fill-opacity:1;stroke:white;stroke-opacity:1;" stroke-width="0.32" stroke-linecap="round"/>
<path id="Vector_75" d="M298.4 257.6C299.99 257.6 301.28 256.955 301.28 256.16C301.28 255.365 299.99 254.72 298.4 254.72C296.809 254.72 295.52 255.365 295.52 256.16C295.52 256.955 296.809 257.6 298.4 257.6Z" fill="white" style="fill:white;fill-opacity:1;"/>
<path id="Vector_76" d="M297.76 257.6L297.28 252.48H299.52L299.2 257.76H297.76V257.6Z" fill="#016A16" stroke="#F1B517" style="fill:#016A16;fill:color(display-p3 0.0039 0.4157 0.0863);fill-opacity:1;stroke:#F1B517;stroke:color(display-p3 0.9451 0.7098 0.0902);stroke-opacity:1;" stroke-width="0.32"/>
<path id="ht-c_2" d="M301.6 256.16C301.173 257.013 300.107 257.493 298.4 257.6C295.84 257.76 295.68 256.96 295.2 256.16V256.8C295.413 257.973 296.48 258.613 298.4 258.72C300.533 258.72 301.653 258.08 301.76 256.8L301.6 256.16Z" fill="#016A16" stroke="white" style="fill:#016A16;fill:color(display-p3 0.0039 0.4157 0.0863);fill-opacity:1;stroke:white;stroke-opacity:1;" stroke-width="0.32" stroke-linecap="round"/>
<g id="ht-d">
<path id="Vector_77" d="M313.6 276.48L302.4 272.96L297.44 264.48L280 263.68L280.64 270.08L295.52 272.8L296.8 275.36L313.92 280.16L313.6 276.48Z" fill="#F1B517" stroke="black" style="fill:#F1B517;fill:color(display-p3 0.9451 0.7098 0.0902);fill-opacity:1;stroke:black;stroke-opacity:1;" stroke-width="0.32"/>
<path id="Vector_78" d="M301.92 278.88L284 252.48L283.2 253.28L300.8 279.52L301.92 278.88Z" fill="#503200" stroke="black" style="fill:#503200;fill:color(display-p3 0.3137 0.1961 0.0000);fill-opacity:1;stroke:black;stroke-opacity:1;" stroke-width="0.32"/>
<path id="Vector_79" d="M285.76 253.6L283.84 250.4C283.413 249.76 282.827 249.653 282.08 250.08C281.44 250.507 281.333 251.093 281.76 251.84L283.36 254.88L285.76 253.6Z" fill="white" stroke="black" style="fill:white;fill-opacity:1;stroke:black;stroke-opacity:1;" stroke-width="0.32"/>
<path id="Vector_80" d="M304 262.56L268 258.88L267.04 264.16L302.88 267.84L304 262.56Z" fill="#F1B517" stroke="black" style="fill:#F1B517;fill:color(display-p3 0.9451 0.7098 0.0902);fill-opacity:1;stroke:black;stroke-opacity:1;" stroke-width="0.32"/>
<path id="Vector_81" d="M267.2 257.6L266.4 264.8H268L268.96 258.24L267.2 257.6ZM273.28 258.72L272.96 265.28H273.92L274.72 259.68L273.28 258.72ZM297.76 261.6L296.8 267.68H298.56L299.36 261.6H297.76ZM303.04 261.76L301.92 268.8L303.84 269.12L304.48 265.44C304.587 266.293 305.12 266.72 306.08 266.72C307.147 266.613 307.68 266.08 307.68 265.12C307.68 264.16 307.147 263.627 306.08 263.52C305.746 263.493 305.412 263.57 305.125 263.743C304.838 263.915 304.613 264.173 304.48 264.48L304.96 261.92L303.04 261.76ZM290.24 262.88L285.12 268.48L285.76 269.12L292.16 264.8L290.24 262.88ZM278.4 276.8L283.36 271.2L282.88 270.56L276.48 274.88L278.4 276.8ZM291.36 275.36L285.44 270.72L284.8 271.2L289.6 277.28L291.36 275.36ZM276.48 264.64L282.72 269.12L283.36 268.64L278.56 262.56L276.48 264.64ZM283.2 260.96L283.84 268.32H284.64L286.56 261.12L283.2 260.96ZM285.12 278.56L284.64 271.36H283.68L282.56 278.72L285.12 278.56ZM293.28 268.96L285.6 269.6V270.4L293.28 271.36V268.96ZM275.04 271.36L282.56 270.24V269.6L274.88 268.8V271.36H275.04Z" fill="#F1B517" stroke="black" style="fill:#F1B517;fill:color(display-p3 0.9451 0.7098 0.0902);fill-opacity:1;stroke:black;stroke-opacity:1;" stroke-width="0.32"/>
<path id="Vector_82" d="M284.32 271.68C285.469 271.68 286.4 270.82 286.4 269.76C286.4 268.7 285.469 267.84 284.32 267.84C283.171 267.84 282.24 268.7 282.24 269.76C282.24 270.82 283.171 271.68 284.32 271.68Z" fill="#F1B517" stroke="black" style="fill:#F1B517;fill:color(display-p3 0.9451 0.7098 0.0902);fill-opacity:1;stroke:black;stroke-opacity:1;" stroke-width="0.32"/>
<path id="Vector_83" fill-rule="evenodd" clip-rule="evenodd" d="M295.04 269.76C295.04 275.36 290.24 280.16 284.32 280.16C282.933 280.181 281.556 279.929 280.266 279.418C278.977 278.907 277.801 278.146 276.806 277.181C275.81 276.215 275.015 275.062 274.465 273.789C273.915 272.516 273.621 271.147 273.6 269.76C273.6 264 278.4 259.36 284.32 259.36C285.707 259.339 287.084 259.591 288.373 260.102C289.663 260.614 290.839 261.374 291.834 262.339C292.83 263.305 293.625 264.458 294.175 265.731C294.725 267.004 295.019 268.373 295.04 269.76ZM292.96 269.76C292.939 270.874 292.699 271.972 292.254 272.993C291.808 274.014 291.166 274.937 290.363 275.71C289.561 276.483 288.614 277.09 287.577 277.496C286.54 277.903 285.434 278.101 284.32 278.08C283.193 278.101 282.073 277.898 281.026 277.481C279.978 277.064 279.024 276.443 278.22 275.654C277.415 274.864 276.776 273.922 276.34 272.883C275.904 271.843 275.68 270.727 275.68 269.6C275.763 267.379 276.715 265.279 278.331 263.753C279.947 262.227 282.098 261.397 284.32 261.44C285.434 261.419 286.54 261.617 287.577 262.024C288.614 262.431 289.561 263.038 290.363 263.81C291.166 264.583 291.808 265.506 292.254 266.527C292.699 267.548 292.939 268.646 292.96 269.76Z" fill="#F1B517" stroke="black" style="fill:#F1B517;fill:color(display-p3 0.9451 0.7098 0.0902);fill-opacity:1;stroke:black;stroke-opacity:1;" stroke-width="0.32" stroke-linecap="round"/>
<g id="Vector_84">
<path d="M277.6 264.48L276 263.2ZM289.6 263.2L291.2 261.6ZM292.8 276.32L291.04 274.88ZM277.6 277.92L279.2 276.32ZM313.92 259.36L315.68 268.96L314.24 269.6L312.64 259.52L313.92 259.36Z" fill="#F1B517" style="fill:#F1B517;fill:color(display-p3 0.9451 0.7098 0.0902);fill-opacity:1;"/>
<path d="M277.6 264.48L276 263.2M289.6 263.2L291.2 261.6M292.8 276.32L291.04 274.88M277.6 277.92L279.2 276.32M313.92 259.36L315.68 268.96L314.24 269.6L312.64 259.52L313.92 259.36Z" stroke="black" style="stroke:black;stroke-opacity:1;" stroke-width="0.32"/>
</g>
<path id="Vector_85" d="M312.96 258.24C312.16 257.76 311.04 258.4 309.12 256.16C306.08 258.88 309.12 259.36 309.44 262.08C310.24 262.4 310.88 259.84 313.12 259.68L316.8 259.36L316 258.24H312.96Z" fill="white" stroke="black" style="fill:white;fill-opacity:1;stroke:black;stroke-opacity:1;" stroke-width="0.32"/>
<path id="Vector_86" d="M314.24 260L313.92 257.28C313.44 256.16 312.32 257.12 312.32 257.6L312.64 260.32L314.24 260Z" fill="white" stroke="black" style="fill:white;fill-opacity:1;stroke:black;stroke-opacity:1;" stroke-width="0.32"/>
<path id="Vector_87" fill-rule="evenodd" clip-rule="evenodd" d="M305.28 267.84V270.4C304.32 270.72 304.48 271.36 304.48 272.32V279.84C304.16 280.373 303.627 280.693 302.88 280.8C302.24 281.44 302.773 281.973 304.48 282.4L306.08 282.56C308.427 281.92 308.96 281.387 307.68 280.96C306.933 280.64 306.4 280.32 306.08 280V278.08H307.68C308 278.08 308.8 277.12 308.8 276.32V272.32C308.8 270.08 307.2 269.76 306.56 269.92V267.84H305.28ZM307.84 272.16C307.84 271.52 306.88 270.88 306.56 270.88C306.027 271.093 305.653 271.573 305.44 272.32V273.92C305.44 274.56 305.92 276.48 306.88 276.64C307.307 276.533 307.627 276.107 307.84 275.36V272.16Z" fill="#F1B517" stroke="black" style="fill:#F1B517;fill:color(display-p3 0.9451 0.7098 0.0902);fill-opacity:1;stroke:black;stroke-opacity:1;" stroke-width="0.32"/>
<g id="Vector_88">
<path d="M294.88 275.68C293.76 275.36 293.76 277.6 293.76 277.6H295.36C296.213 278.027 296.533 278.667 296.32 279.52C295.84 279.84 292.8 278.72 292.64 279.52C293.12 282.56 297.28 283.68 298.72 282.4C300.16 281.12 300.48 277.6 295.84 276.48L294.88 275.68ZM295.84 276.64L295.36 277.6Z" fill="white" style="fill:white;fill-opacity:1;"/>
<path d="M295.36 277.6H293.76C293.76 277.6 293.76 275.36 294.88 275.68L295.84 276.48C300.48 277.6 300.16 281.12 298.72 282.4C297.28 283.68 293.12 282.56 292.64 279.52C292.8 278.72 295.84 279.84 296.32 279.52C296.533 278.667 296.213 278.027 295.36 277.6ZM295.36 277.6L295.84 276.64" stroke="black" style="stroke:black;stroke-opacity:1;" stroke-width="0.32"/>
</g>
<g id="Vector_89">
<path d="M264 276.8L262.4 270.4ZM265.76 276.48L263.36 271.52ZM269.76 275.2L264.48 272.32ZM272.16 274.56L262.24 270.24Z" fill="#F1B517" style="fill:#F1B517;fill:color(display-p3 0.9451 0.7098 0.0902);fill-opacity:1;"/>
<path d="M264 276.8L262.4 270.4M265.76 276.48L263.36 271.52M269.76 275.2L264.48 272.32M272.16 274.56L262.24 270.24" stroke="black" style="stroke:black;stroke-opacity:1;" stroke-width="0.32"/>
</g>
<path id="Vector_90" d="M256.32 265.6L252.16 265.76C251.84 265.92 252.96 267.2 252.8 267.52C251.84 269.28 245.76 269.12 245.28 268.8C244.48 268 250.88 267.52 251.04 267.2C251.04 266.56 250.08 265.28 250.24 264.48C250.24 263.36 252.96 262.88 252.96 262.88L256.32 265.6Z" fill="#D20014" stroke="#D20014" style="fill:#D20014;fill:color(display-p3 0.8235 0.0000 0.0784);fill-opacity:1;stroke:#D20014;stroke:color(display-p3 0.8235 0.0000 0.0784);stroke-opacity:1;" stroke-width="0.32"/>
<path id="Vector_91" d="M261.12 268.8L253.12 262.08C253.12 262.08 252.64 261.76 252.32 262.08C252 262.4 252.32 262.72 252.32 262.72L260.96 269.76L261.12 268.96V268.8Z" fill="#503200" stroke="black" style="fill:#503200;fill:color(display-p3 0.3137 0.1961 0.0000);fill-opacity:1;stroke:black;stroke-opacity:1;" stroke-width="0.32"/>
<path id="Vector_92" d="M269.12 275.52L262.4 269.76L261.92 268.16L260.64 269.12C260.16 269.44 259.68 270.4 259.68 270.4H261.44L267.2 275.84L268.96 275.52H269.12Z" fill="#F1B517" stroke="black" style="fill:#F1B517;fill:color(display-p3 0.9451 0.7098 0.0902);fill-opacity:1;stroke:black;stroke-opacity:1;" stroke-width="0.32"/>
<path id="Vector_93" d="M292 284.48C292.618 284.48 293.12 283.979 293.12 283.36C293.12 282.741 292.618 282.24 292 282.24C291.381 282.24 290.88 282.741 290.88 283.36C290.88 283.979 291.381 284.48 292 284.48Z" fill="#F1B517" stroke="black" style="fill:#F1B517;fill:color(display-p3 0.9451 0.7098 0.0902);fill-opacity:1;stroke:black;stroke-opacity:1;" stroke-width="0.32"/>
<path id="Vector_94" d="M288.96 282.24C289.578 282.24 290.08 281.739 290.08 281.12C290.08 280.501 289.578 280 288.96 280C288.341 280 287.84 280.501 287.84 281.12C287.84 281.739 288.341 282.24 288.96 282.24Z" fill="#F1B517" stroke="black" style="fill:#F1B517;fill:color(display-p3 0.9451 0.7098 0.0902);fill-opacity:1;stroke:black;stroke-opacity:1;" stroke-width="0.32"/>
<path id="Vector_95" d="M284.96 283.68C285.578 283.68 286.08 283.179 286.08 282.56C286.08 281.941 285.578 281.44 284.96 281.44C284.341 281.44 283.84 281.941 283.84 282.56C283.84 283.179 284.341 283.68 284.96 283.68Z" fill="#F1B517" stroke="black" style="fill:#F1B517;fill:color(display-p3 0.9451 0.7098 0.0902);fill-opacity:1;stroke:black;stroke-opacity:1;" stroke-width="0.32"/>
<path id="Vector_96" d="M278.72 284.96C279.338 284.96 279.84 284.459 279.84 283.84C279.84 283.221 279.338 282.72 278.72 282.72C278.101 282.72 277.6 283.221 277.6 283.84C277.6 284.459 278.101 284.96 278.72 284.96Z" fill="#F1B517" stroke="black" style="fill:#F1B517;fill:color(display-p3 0.9451 0.7098 0.0902);fill-opacity:1;stroke:black;stroke-opacity:1;" stroke-width="0.32"/>
<path id="Vector_97" d="M276 285.28C276.618 285.28 277.12 284.779 277.12 284.16C277.12 283.541 276.618 283.04 276 283.04C275.381 283.04 274.88 283.541 274.88 284.16C274.88 284.779 275.381 285.28 276 285.28Z" fill="#F1B517" stroke="black" style="fill:#F1B517;fill:color(display-p3 0.9451 0.7098 0.0902);fill-opacity:1;stroke:black;stroke-opacity:1;" stroke-width="0.32"/>
<path id="Vector_98" d="M273.28 285.28C273.898 285.28 274.4 284.779 274.4 284.16C274.4 283.541 273.898 283.04 273.28 283.04C272.661 283.04 272.16 283.541 272.16 284.16C272.16 284.779 272.661 285.28 273.28 285.28Z" fill="#F1B517" stroke="black" style="fill:#F1B517;fill:color(display-p3 0.9451 0.7098 0.0902);fill-opacity:1;stroke:black;stroke-opacity:1;" stroke-width="0.32"/>
<path id="Vector_99" d="M270.72 285.28C271.338 285.28 271.84 284.779 271.84 284.16C271.84 283.541 271.338 283.04 270.72 283.04C270.101 283.04 269.6 283.541 269.6 284.16C269.6 284.779 270.101 285.28 270.72 285.28Z" fill="#F1B517" stroke="black" style="fill:#F1B517;fill:color(display-p3 0.9451 0.7098 0.0902);fill-opacity:1;stroke:black;stroke-opacity:1;" stroke-width="0.32"/>
<path id="Vector_100" d="M272 283.2C272.618 283.2 273.12 282.699 273.12 282.08C273.12 281.461 272.618 280.96 272 280.96C271.381 280.96 270.88 281.461 270.88 282.08C270.88 282.699 271.381 283.2 272 283.2Z" fill="#F1B517" stroke="black" style="fill:#F1B517;fill:color(display-p3 0.9451 0.7098 0.0902);fill-opacity:1;stroke:black;stroke-opacity:1;" stroke-width="0.32"/>
<path id="Vector_101" d="M274.56 283.36C275.179 283.36 275.68 282.859 275.68 282.24C275.68 281.621 275.179 281.12 274.56 281.12C273.941 281.12 273.44 281.621 273.44 282.24C273.44 282.859 273.941 283.36 274.56 283.36Z" fill="#F1B517" stroke="black" style="fill:#F1B517;fill:color(display-p3 0.9451 0.7098 0.0902);fill-opacity:1;stroke:black;stroke-opacity:1;" stroke-width="0.32"/>
<path id="Vector_102" d="M276.96 283.04C277.578 283.04 278.08 282.539 278.08 281.92C278.08 281.301 277.578 280.8 276.96 280.8C276.341 280.8 275.84 281.301 275.84 281.92C275.84 282.539 276.341 283.04 276.96 283.04Z" fill="#F1B517" stroke="black" style="fill:#F1B517;fill:color(display-p3 0.9451 0.7098 0.0902);fill-opacity:1;stroke:black;stroke-opacity:1;" stroke-width="0.32"/>
<path id="Vector_103" d="M275.84 281.12C276.458 281.12 276.96 280.619 276.96 280C276.96 279.381 276.458 278.88 275.84 278.88C275.221 278.88 274.72 279.381 274.72 280C274.72 280.619 275.221 281.12 275.84 281.12Z" fill="#F1B517" stroke="black" style="fill:#F1B517;fill:color(display-p3 0.9451 0.7098 0.0902);fill-opacity:1;stroke:black;stroke-opacity:1;" stroke-width="0.32"/>
<path id="Vector_104" d="M273.28 280.96C273.898 280.96 274.4 280.459 274.4 279.84C274.4 279.221 273.898 278.72 273.28 278.72C272.661 278.72 272.16 279.221 272.16 279.84C272.16 280.459 272.661 280.96 273.28 280.96Z" fill="#F1B517" stroke="black" style="fill:#F1B517;fill:color(display-p3 0.9451 0.7098 0.0902);fill-opacity:1;stroke:black;stroke-opacity:1;" stroke-width="0.32"/>
<path id="Vector_105" fill-rule="evenodd" clip-rule="evenodd" d="M298.4 284.8C298.4 284.32 297.12 284.48 297.12 283.84C297.12 283.2 299.04 283.84 299.2 284.32C300.32 283.36 300.8 284 301.44 284.32C302.507 283.04 303.573 282.933 304.64 284C305.28 283.36 306.88 283.52 307.36 284.32C308.427 283.467 309.333 283.467 310.08 284.32C310.4 283.787 310.773 283.787 311.2 284.32C311.68 283.2 313.12 283.52 313.76 284.32C314.24 283.68 314.88 284.16 315.52 284.48C316.16 284.16 316.587 284.16 316.8 284.48C316.8 285.12 315.84 284.96 315.84 285.44C315.84 285.92 316.48 285.44 316.48 286.08C316.48 286.56 315.52 286.72 315.36 286.08C314.88 286.72 313.6 286.4 313.44 285.76C313.163 285.968 312.826 286.08 312.48 286.08C312.134 286.08 311.797 285.968 311.52 285.76C310.987 286.08 310.56 286.08 310.24 285.76C309.44 286.56 308 286.4 307.52 285.44H307.04C306.89 285.61 306.705 285.747 306.498 285.84C306.291 285.933 306.067 285.982 305.84 285.982C305.613 285.982 305.388 285.933 305.182 285.84C304.975 285.747 304.79 285.61 304.64 285.44C303.36 286.293 302.347 286.293 301.6 285.44C300.8 286.56 299.36 286.56 299.2 285.44C298.56 285.92 297.28 286.08 297.28 285.44C297.28 285.12 298.4 285.28 298.4 284.8ZM300.96 284.96C300.96 285.28 300.747 285.44 300.32 285.44C299.893 285.44 299.68 285.28 299.68 284.96C299.68 284.64 299.893 284.533 300.32 284.64L300.96 284.96ZM304 284.64C304 284.96 303.68 285.12 303.04 285.12C302.4 285.12 302.133 284.96 302.24 284.64C302.24 284.427 302.507 284.267 303.04 284.16C303.573 284.053 303.84 284.213 303.84 284.64H304ZM309.6 284.96C309.6 285.28 309.333 285.44 308.8 285.44C308.267 285.44 308.053 285.28 308.16 284.96C308.16 284.747 308.373 284.587 308.8 284.48C309.44 284.48 309.707 284.64 309.6 284.96ZM306.56 284.96C306.56 285.28 306.293 285.44 305.76 285.44C305.227 285.44 305.013 285.227 305.12 284.8C305.227 284.373 305.44 284.16 305.76 284.16C306.293 284.16 306.56 284.373 306.56 284.8V284.96ZM312.96 284.96C312.96 285.173 312.8 285.333 312.48 285.44C311.947 285.44 311.68 285.227 311.68 284.8C311.68 284.373 311.947 284.213 312.48 284.32C312.8 284.32 313.013 284.48 313.12 284.8L312.96 284.96ZM311.04 284.96C311.04 285.28 310.933 285.44 310.72 285.44C310.507 285.44 310.347 285.28 310.24 284.96C310.24 284.64 310.4 284.533 310.72 284.64L311.04 284.96ZM314.88 285.12C314.88 285.44 314.72 285.653 314.4 285.76C314.187 285.76 314.027 285.547 313.92 285.12C313.813 284.693 313.973 284.533 314.4 284.64C314.72 284.64 314.88 284.8 314.88 285.12Z" fill="#F1B517" stroke="black" style="fill:#F1B517;fill:color(display-p3 0.9451 0.7098 0.0902);fill-opacity:1;stroke:black;stroke-opacity:1;" stroke-width="0.32"/>
</g>
<g id="ht-d_2">
<path id="Vector_106" d="M326.24 276.48L337.44 272.96L342.4 264.48L359.84 263.68L359.2 270.08L344.32 272.8L343.04 275.36L325.92 280.16L326.24 276.48Z" fill="#F1B517" stroke="black" style="fill:#F1B517;fill:color(display-p3 0.9451 0.7098 0.0902);fill-opacity:1;stroke:black;stroke-opacity:1;" stroke-width="0.32"/>
<path id="Vector_107" d="M337.92 278.88L355.84 252.48L356.64 253.28L339.04 279.52L337.92 278.88Z" fill="#503200" stroke="black" style="fill:#503200;fill:color(display-p3 0.3137 0.1961 0.0000);fill-opacity:1;stroke:black;stroke-opacity:1;" stroke-width="0.32"/>
<path id="Vector_108" d="M354.08 253.6L356 250.4C356.426 249.76 357.013 249.653 357.76 250.08C358.4 250.507 358.506 251.093 358.08 251.84L356.48 254.88L354.08 253.6Z" fill="white" stroke="black" style="fill:white;fill-opacity:1;stroke:black;stroke-opacity:1;" stroke-width="0.32"/>
<path id="Vector_109" d="M335.84 262.56L371.84 258.88L372.8 264.16L336.96 267.84L335.84 262.56Z" fill="#F1B517" stroke="black" style="fill:#F1B517;fill:color(display-p3 0.9451 0.7098 0.0902);fill-opacity:1;stroke:black;stroke-opacity:1;" stroke-width="0.32"/>
<path id="Vector_110" d="M372.64 257.6L373.44 264.8H371.84L370.88 258.24L372.64 257.6ZM366.56 258.72L366.88 265.28H365.92L365.12 259.68L366.56 258.72ZM342.08 261.6L343.04 267.68H341.28L340.48 261.6H342.08ZM336.8 261.76L337.92 268.8L336 269.12L335.36 265.44C335.253 266.293 334.72 266.72 333.76 266.72C332.693 266.613 332.16 266.08 332.16 265.12C332.16 264.16 332.693 263.627 333.76 263.52C334.093 263.493 334.427 263.57 334.714 263.743C335.001 263.915 335.227 264.173 335.36 264.48L334.88 261.92L336.8 261.76ZM349.6 262.88L354.72 268.48L354.08 269.12L347.68 264.8L349.6 262.88ZM361.44 276.8L356.48 271.2L356.96 270.56L363.36 274.88L361.44 276.8ZM348.48 275.36L354.4 270.72L355.04 271.2L350.24 277.28L348.48 275.36ZM363.36 264.64L357.12 269.12L356.48 268.64L361.28 262.56L363.36 264.64ZM356.64 260.96L356 268.32H355.2L353.28 261.12L356.64 260.96ZM354.72 278.56L355.2 271.36H356.16L357.28 278.72L354.72 278.56ZM346.56 268.96L354.24 269.6V270.4L346.56 271.36V268.96ZM364.8 271.36L357.28 270.24V269.6L364.96 268.8V271.36H364.8Z" fill="#F1B517" stroke="black" style="fill:#F1B517;fill:color(display-p3 0.9451 0.7098 0.0902);fill-opacity:1;stroke:black;stroke-opacity:1;" stroke-width="0.32"/>
<path id="Vector_111" d="M355.52 271.68C354.371 271.68 353.44 270.82 353.44 269.76C353.44 268.7 354.371 267.84 355.52 267.84C356.669 267.84 357.6 268.7 357.6 269.76C357.6 270.82 356.669 271.68 355.52 271.68Z" fill="#F1B517" stroke="black" style="fill:#F1B517;fill:color(display-p3 0.9451 0.7098 0.0902);fill-opacity:1;stroke:black;stroke-opacity:1;" stroke-width="0.32"/>
<path id="Vector_112" fill-rule="evenodd" clip-rule="evenodd" d="M344.8 269.76C344.8 275.36 349.6 280.16 355.52 280.16C356.907 280.181 358.284 279.929 359.573 279.418C360.863 278.907 362.039 278.146 363.034 277.181C364.029 276.215 364.825 275.062 365.375 273.789C365.925 272.516 366.219 271.147 366.24 269.76C366.24 264 361.44 259.36 355.52 259.36C354.133 259.339 352.756 259.591 351.466 260.102C350.177 260.614 349.001 261.374 348.005 262.339C347.01 263.305 346.215 264.458 345.664 265.731C345.114 267.004 344.821 268.373 344.8 269.76ZM346.88 269.76C346.901 270.874 347.141 271.972 347.586 272.993C348.032 274.014 348.674 274.937 349.476 275.71C350.279 276.483 351.225 277.09 352.262 277.496C353.299 277.903 354.406 278.101 355.52 278.08C356.647 278.101 357.767 277.898 358.814 277.481C359.861 277.064 360.815 276.443 361.62 275.654C362.424 274.864 363.063 273.922 363.499 272.883C363.935 271.843 364.16 270.727 364.16 269.6C364.076 267.379 363.124 265.279 361.508 263.753C359.892 262.227 357.742 261.397 355.52 261.44C354.406 261.419 353.299 261.617 352.262 262.024C351.225 262.431 350.279 263.038 349.476 263.81C348.674 264.583 348.032 265.506 347.586 266.527C347.141 267.548 346.901 268.646 346.88 269.76Z" fill="#F1B517" stroke="black" style="fill:#F1B517;fill:color(display-p3 0.9451 0.7098 0.0902);fill-opacity:1;stroke:black;stroke-opacity:1;" stroke-width="0.32" stroke-linecap="round"/>
<g id="Vector_113">
<path d="M362.24 264.48L363.84 263.2ZM350.24 263.2L348.64 261.6ZM347.04 276.32L348.8 274.88ZM362.24 277.92L360.64 276.32ZM325.92 259.36L324.16 268.96L325.6 269.6L327.2 259.52L325.92 259.36Z" fill="#F1B517" style="fill:#F1B517;fill:color(display-p3 0.9451 0.7098 0.0902);fill-opacity:1;"/>
<path d="M362.24 264.48L363.84 263.2M350.24 263.2L348.64 261.6M347.04 276.32L348.8 274.88M362.24 277.92L360.64 276.32M325.92 259.36L324.16 268.96L325.6 269.6L327.2 259.52L325.92 259.36Z" stroke="black" style="stroke:black;stroke-opacity:1;" stroke-width="0.32"/>
</g>
<path id="Vector_114" d="M326.88 258.24C327.68 257.76 328.8 258.4 330.72 256.16C333.76 258.88 330.72 259.36 330.4 262.08C329.6 262.4 328.96 259.84 326.72 259.68L323.04 259.36L323.84 258.24H326.88Z" fill="white" stroke="black" style="fill:white;fill-opacity:1;stroke:black;stroke-opacity:1;" stroke-width="0.32"/>
<path id="Vector_115" d="M325.6 260L325.92 257.28C326.4 256.16 327.52 257.12 327.52 257.6L327.2 260.32L325.6 260Z" fill="white" stroke="black" style="fill:white;fill-opacity:1;stroke:black;stroke-opacity:1;" stroke-width="0.32"/>
<path id="Vector_116" fill-rule="evenodd" clip-rule="evenodd" d="M334.56 267.84V270.4C335.52 270.72 335.36 271.36 335.36 272.32V279.84C335.68 280.373 336.213 280.693 336.96 280.8C337.6 281.44 337.066 281.973 335.36 282.4L333.76 282.56C331.413 281.92 330.88 281.387 332.16 280.96C332.906 280.64 333.44 280.32 333.76 280V278.08H332.16C331.84 278.08 331.04 277.12 331.04 276.32V272.32C331.04 270.08 332.64 269.76 333.28 269.92V267.84H334.56ZM332 272.16C332 271.52 332.96 270.88 333.28 270.88C333.813 271.093 334.186 271.573 334.4 272.32V273.92C334.4 274.56 333.92 276.48 332.96 276.64C332.533 276.533 332.213 276.107 332 275.36V272.16Z" fill="#F1B517" stroke="black" style="fill:#F1B517;fill:color(display-p3 0.9451 0.7098 0.0902);fill-opacity:1;stroke:black;stroke-opacity:1;" stroke-width="0.32"/>
<g id="Vector_117">
<path d="M344.96 275.68C346.08 275.36 346.08 277.6 346.08 277.6H344.48C343.626 278.027 343.306 278.667 343.52 279.52C344 279.84 347.04 278.72 347.2 279.52C346.72 282.56 342.56 283.68 341.12 282.4C339.68 281.12 339.36 277.6 344 276.48L344.96 275.68ZM344 276.64L344.48 277.6Z" fill="white" style="fill:white;fill-opacity:1;"/>
<path d="M344.48 277.6H346.08C346.08 277.6 346.08 275.36 344.96 275.68L344 276.48C339.36 277.6 339.68 281.12 341.12 282.4C342.56 283.68 346.72 282.56 347.2 279.52C347.04 278.72 344 279.84 343.52 279.52C343.306 278.667 343.626 278.027 344.48 277.6ZM344.48 277.6L344 276.64" stroke="black" style="stroke:black;stroke-opacity:1;" stroke-width="0.32"/>
</g>
<g id="Vector_118">
<path d="M375.84 276.8L377.44 270.4ZM374.08 276.48L376.48 271.52ZM370.08 275.2L375.36 272.32ZM367.68 274.56L377.6 270.24Z" fill="#F1B517" style="fill:#F1B517;fill:color(display-p3 0.9451 0.7098 0.0902);fill-opacity:1;"/>
<path d="M375.84 276.8L377.44 270.4M374.08 276.48L376.48 271.52M370.08 275.2L375.36 272.32M367.68 274.56L377.6 270.24" stroke="black" style="stroke:black;stroke-opacity:1;" stroke-width="0.32"/>
</g>
<path id="Vector_119" d="M383.52 265.6L387.68 265.76C388 265.92 386.88 267.2 387.04 267.52C388 269.28 394.08 269.12 394.56 268.8C395.36 268 388.96 267.52 388.8 267.2C388.8 266.56 389.76 265.28 389.6 264.48C389.6 263.36 386.88 262.88 386.88 262.88L383.52 265.6Z" fill="#D20014" stroke="#D20014" style="fill:#D20014;fill:color(display-p3 0.8235 0.0000 0.0784);fill-opacity:1;stroke:#D20014;stroke:color(display-p3 0.8235 0.0000 0.0784);stroke-opacity:1;" stroke-width="0.32"/>
<path id="Vector_120" d="M378.72 268.8L386.72 262.08C386.72 262.08 387.2 261.76 387.52 262.08C387.84 262.4 387.52 262.72 387.52 262.72L378.88 269.76L378.72 268.96V268.8Z" fill="#503200" stroke="black" style="fill:#503200;fill:color(display-p3 0.3137 0.1961 0.0000);fill-opacity:1;stroke:black;stroke-opacity:1;" stroke-width="0.32"/>
<path id="Vector_121" d="M370.72 275.52L377.44 269.76L377.92 268.16L379.2 269.12C379.68 269.44 380.16 270.4 380.16 270.4H378.4L372.64 275.84L370.88 275.52H370.72Z" fill="#F1B517" stroke="black" style="fill:#F1B517;fill:color(display-p3 0.9451 0.7098 0.0902);fill-opacity:1;stroke:black;stroke-opacity:1;" stroke-width="0.32"/>
<path id="Vector_122" d="M347.84 284.48C347.221 284.48 346.72 283.979 346.72 283.36C346.72 282.741 347.221 282.24 347.84 282.24C348.458 282.24 348.96 282.741 348.96 283.36C348.96 283.979 348.458 284.48 347.84 284.48Z" fill="#F1B517" stroke="black" style="fill:#F1B517;fill:color(display-p3 0.9451 0.7098 0.0902);fill-opacity:1;stroke:black;stroke-opacity:1;" stroke-width="0.32"/>
<path id="Vector_123" d="M350.88 282.24C350.261 282.24 349.76 281.739 349.76 281.12C349.76 280.501 350.261 280 350.88 280C351.498 280 352 280.501 352 281.12C352 281.739 351.498 282.24 350.88 282.24Z" fill="#F1B517" stroke="black" style="fill:#F1B517;fill:color(display-p3 0.9451 0.7098 0.0902);fill-opacity:1;stroke:black;stroke-opacity:1;" stroke-width="0.32"/>
<path id="Vector_124" d="M354.88 283.68C354.261 283.68 353.76 283.179 353.76 282.56C353.76 281.941 354.261 281.44 354.88 281.44C355.498 281.44 356 281.941 356 282.56C356 283.179 355.498 283.68 354.88 283.68Z" fill="#F1B517" stroke="black" style="fill:#F1B517;fill:color(display-p3 0.9451 0.7098 0.0902);fill-opacity:1;stroke:black;stroke-opacity:1;" stroke-width="0.32"/>
<path id="Vector_125" d="M361.12 284.96C360.501 284.96 360 284.459 360 283.84C360 283.221 360.501 282.72 361.12 282.72C361.738 282.72 362.24 283.221 362.24 283.84C362.24 284.459 361.738 284.96 361.12 284.96Z" fill="#F1B517" stroke="black" style="fill:#F1B517;fill:color(display-p3 0.9451 0.7098 0.0902);fill-opacity:1;stroke:black;stroke-opacity:1;" stroke-width="0.32"/>
<path id="Vector_126" d="M363.84 285.28C363.221 285.28 362.72 284.779 362.72 284.16C362.72 283.541 363.221 283.04 363.84 283.04C364.458 283.04 364.96 283.541 364.96 284.16C364.96 284.779 364.458 285.28 363.84 285.28Z" fill="#F1B517" stroke="black" style="fill:#F1B517;fill:color(display-p3 0.9451 0.7098 0.0902);fill-opacity:1;stroke:black;stroke-opacity:1;" stroke-width="0.32"/>
<path id="Vector_127" d="M366.56 285.28C365.941 285.28 365.44 284.779 365.44 284.16C365.44 283.541 365.941 283.04 366.56 283.04C367.178 283.04 367.68 283.541 367.68 284.16C367.68 284.779 367.178 285.28 366.56 285.28Z" fill="#F1B517" stroke="black" style="fill:#F1B517;fill:color(display-p3 0.9451 0.7098 0.0902);fill-opacity:1;stroke:black;stroke-opacity:1;" stroke-width="0.32"/>
<path id="Vector_128" d="M369.12 285.28C368.501 285.28 368 284.779 368 284.16C368 283.541 368.501 283.04 369.12 283.04C369.738 283.04 370.24 283.541 370.24 284.16C370.24 284.779 369.738 285.28 369.12 285.28Z" fill="#F1B517" stroke="black" style="fill:#F1B517;fill:color(display-p3 0.9451 0.7098 0.0902);fill-opacity:1;stroke:black;stroke-opacity:1;" stroke-width="0.32"/>
<path id="Vector_129" d="M367.84 283.2C367.221 283.2 366.72 282.699 366.72 282.08C366.72 281.461 367.221 280.96 367.84 280.96C368.458 280.96 368.96 281.461 368.96 282.08C368.96 282.699 368.458 283.2 367.84 283.2Z" fill="#F1B517" stroke="black" style="fill:#F1B517;fill:color(display-p3 0.9451 0.7098 0.0902);fill-opacity:1;stroke:black;stroke-opacity:1;" stroke-width="0.32"/>
<path id="Vector_130" d="M365.28 283.36C364.661 283.36 364.16 282.859 364.16 282.24C364.16 281.621 364.661 281.12 365.28 281.12C365.898 281.12 366.4 281.621 366.4 282.24C366.4 282.859 365.898 283.36 365.28 283.36Z" fill="#F1B517" stroke="black" style="fill:#F1B517;fill:color(display-p3 0.9451 0.7098 0.0902);fill-opacity:1;stroke:black;stroke-opacity:1;" stroke-width="0.32"/>
<path id="Vector_131" d="M362.88 283.04C362.261 283.04 361.76 282.539 361.76 281.92C361.76 281.301 362.261 280.8 362.88 280.8C363.498 280.8 364 281.301 364 281.92C364 282.539 363.498 283.04 362.88 283.04Z" fill="#F1B517" stroke="black" style="fill:#F1B517;fill:color(display-p3 0.9451 0.7098 0.0902);fill-opacity:1;stroke:black;stroke-opacity:1;" stroke-width="0.32"/>
<path id="Vector_132" d="M364 281.12C363.381 281.12 362.88 280.619 362.88 280C362.88 279.381 363.381 278.88 364 278.88C364.618 278.88 365.12 279.381 365.12 280C365.12 280.619 364.618 281.12 364 281.12Z" fill="#F1B517" stroke="black" style="fill:#F1B517;fill:color(display-p3 0.9451 0.7098 0.0902);fill-opacity:1;stroke:black;stroke-opacity:1;" stroke-width="0.32"/>
<path id="Vector_133" d="M366.56 280.96C365.941 280.96 365.44 280.459 365.44 279.84C365.44 279.221 365.941 278.72 366.56 278.72C367.178 278.72 367.68 279.221 367.68 279.84C367.68 280.459 367.178 280.96 366.56 280.96Z" fill="#F1B517" stroke="black" style="fill:#F1B517;fill:color(display-p3 0.9451 0.7098 0.0902);fill-opacity:1;stroke:black;stroke-opacity:1;" stroke-width="0.32"/>
<path id="Vector_134" fill-rule="evenodd" clip-rule="evenodd" d="M341.44 284.8C341.44 284.32 342.72 284.48 342.72 283.84C342.72 283.2 340.8 283.84 340.64 284.32C339.52 283.36 339.04 284 338.4 284.32C337.333 283.04 336.266 282.933 335.2 284C334.56 283.36 332.96 283.52 332.48 284.32C331.413 283.467 330.506 283.467 329.76 284.32C329.44 283.787 329.066 283.787 328.64 284.32C328.16 283.2 326.72 283.52 326.08 284.32C325.6 283.68 324.96 284.16 324.32 284.48C323.68 284.16 323.253 284.16 323.04 284.48C323.04 285.12 324 284.96 324 285.44C324 285.92 323.36 285.44 323.36 286.08C323.36 286.56 324.32 286.72 324.48 286.08C324.96 286.72 326.24 286.4 326.4 285.76C326.677 285.968 327.014 286.08 327.36 286.08C327.706 286.08 328.043 285.968 328.32 285.76C328.853 286.08 329.28 286.08 329.6 285.76C330.4 286.56 331.84 286.4 332.32 285.44H332.8C332.95 285.61 333.135 285.747 333.341 285.84C333.548 285.933 333.773 285.982 334 285.982C334.227 285.982 334.451 285.933 334.658 285.84C334.865 285.747 335.05 285.61 335.2 285.44C336.48 286.293 337.493 286.293 338.24 285.44C339.04 286.56 340.48 286.56 340.64 285.44C341.28 285.92 342.56 286.08 342.56 285.44C342.56 285.12 341.44 285.28 341.44 284.8ZM338.88 284.96C338.88 285.28 339.093 285.44 339.52 285.44C339.946 285.44 340.16 285.28 340.16 284.96C340.16 284.64 339.946 284.533 339.52 284.64L338.88 284.96ZM335.84 284.64C335.84 284.96 336.16 285.12 336.8 285.12C337.44 285.12 337.706 284.96 337.6 284.64C337.6 284.427 337.333 284.267 336.8 284.16C336.266 284.053 336 284.213 336 284.64H335.84ZM330.24 284.96C330.24 285.28 330.506 285.44 331.04 285.44C331.573 285.44 331.786 285.28 331.68 284.96C331.68 284.747 331.466 284.587 331.04 284.48C330.4 284.48 330.133 284.64 330.24 284.96ZM333.28 284.96C333.28 285.28 333.546 285.44 334.08 285.44C334.613 285.44 334.826 285.227 334.72 284.8C334.613 284.373 334.4 284.16 334.08 284.16C333.546 284.16 333.28 284.373 333.28 284.8V284.96ZM326.88 284.96C326.88 285.173 327.04 285.333 327.36 285.44C327.893 285.44 328.16 285.227 328.16 284.8C328.16 284.373 327.893 284.213 327.36 284.32C327.04 284.32 326.826 284.48 326.72 284.8L326.88 284.96ZM328.8 284.96C328.8 285.28 328.906 285.44 329.12 285.44C329.333 285.44 329.493 285.28 329.6 284.96C329.6 284.64 329.44 284.533 329.12 284.64L328.8 284.96ZM324.96 285.12C324.96 285.44 325.12 285.653 325.44 285.76C325.653 285.76 325.813 285.547 325.92 285.12C326.026 284.693 325.866 284.533 325.44 284.64C325.12 284.64 324.96 284.8 324.96 285.12Z" fill="#F1B517" stroke="black" style="fill:#F1B517;fill:color(display-p3 0.9451 0.7098 0.0902);fill-opacity:1;stroke:black;stroke-opacity:1;" stroke-width="0.32"/>
</g>
<path id="Vector_135" d="M319.68 265.12C315.68 265.12 312.48 266.72 312.48 268.48C312.48 268.8 312.587 269.12 312.8 269.44C313.6 270.4 316.48 271.04 319.84 271.04C323.253 271.04 325.493 270.56 326.56 269.6C326.88 269.28 327.04 268.907 327.04 268.48C327.04 266.72 323.84 265.28 319.68 265.28V265.12Z" fill="#0A328C" stroke="#0A328C" style="fill:#0A328C;fill:color(display-p3 0.0392 0.1961 0.5490);fill-opacity:1;stroke:#0A328C;stroke:color(display-p3 0.0392 0.1961 0.5490);stroke-opacity:1;" stroke-width="0.32"/>
<path id="Vector_136" d="M327.04 268.8V280C327.04 281.44 323.84 282.4 319.84 282.4C315.84 282.4 312.48 281.44 312.48 280V268.8C312.48 270.08 315.68 271.2 319.68 271.2C323.84 271.2 327.04 270.08 327.04 268.8Z" fill="#F1B517" stroke="black" style="fill:#F1B517;fill:color(display-p3 0.9451 0.7098 0.0902);fill-opacity:1;stroke:black;stroke-opacity:1;" stroke-width="0.32"/>
<path id="Vector_137" d="M312.48 268.8V270.4L316 281.6L318.88 272.96L322.08 281.76L324.16 273.44L327.04 279.04V276L324.48 270.56L323.52 270.88L321.92 276.96L319.52 271.2H318.4L316 276.96L313.44 269.92C312.8 269.6 312.48 269.227 312.48 268.8Z" fill="#D20014" stroke="#D20014" style="fill:#D20014;fill:color(display-p3 0.8235 0.0000 0.0784);fill-opacity:1;stroke:#D20014;stroke:color(display-p3 0.8235 0.0000 0.0784);stroke-opacity:1;" stroke-width="0.32"/>
<path id="Vector_138" d="M327.04 277.92V280C327.04 281.44 323.84 282.4 319.84 282.4C315.84 282.4 312.48 281.44 312.48 280V277.92C312.48 279.36 315.68 280.32 319.68 280.32C323.84 280.32 327.04 279.36 327.04 277.92Z" fill="#0A328C" stroke="#0A328C" style="fill:#0A328C;fill:color(display-p3 0.0392 0.1961 0.5490);fill-opacity:1;stroke:#0A328C;stroke:color(display-p3 0.0392 0.1961 0.5490);stroke-opacity:1;" stroke-width="0.32"/>
<path id="Vector_139" d="M322.72 280L320.96 280.32V282.4L322.88 282.24L322.72 280ZM315.04 279.84V281.92L316.8 282.24V280.16L315.04 279.84ZM312.48 277.92V280C312.48 280.427 312.747 280.8 313.28 281.12V279.04C312.747 278.72 312.48 278.347 312.48 277.92ZM327.04 278.24C326.933 278.56 326.507 278.933 325.76 279.36V281.44C326.613 281.12 327.04 280.64 327.04 280V278.24Z" fill="#F1B517" stroke="black" style="fill:#F1B517;fill:color(display-p3 0.9451 0.7098 0.0902);fill-opacity:1;stroke:black;stroke-opacity:1;" stroke-width="0.32"/>
<path id="Vector_140" d="M327.04 268.8V280C327.04 281.44 323.84 282.4 319.84 282.4C315.84 282.4 312.48 281.44 312.48 280V268.8" stroke="black" style="stroke:black;stroke-opacity:1;" stroke-width="0.32"/>
<path id="Vector_141" d="M325.44 268C325.44 268.8 322.88 269.6 319.84 269.6C316.64 269.6 314.08 268.8 314.08 268C314.08 267.2 316.64 266.56 319.68 266.56C322.88 266.56 325.44 267.2 325.44 268.16V268Z" fill="white" stroke="white" style="fill:white;fill-opacity:1;stroke:white;stroke-opacity:1;" stroke-width="0.32"/>
<path id="Vector_142" d="M317.92 269.12L318.24 271.04H319.84L320 269.12H317.92ZM324.48 268.64L322.88 268.96L323.04 270.88L324.64 270.56L324.48 268.64ZM315.84 265.44L314.72 265.92L314.88 267.52L315.84 267.2V265.44ZM319.68 264.96H319.2L319.52 266.88H320.48L320.8 264.96H319.68ZM324 265.6L323.84 267.2L324.96 267.68V266.08L324 265.6ZM313.6 270.08L313.92 268L312.32 267.2V269.6L313.6 270.08ZM327.04 269.6V267.52L325.76 268L327.04 269.6ZM341.92 256C343.2 256 345.12 257.6 345.28 260C345.28 261.6 342.56 261.6 342.56 261.6C342.56 262.4 340.96 263.04 339.68 263.2C338.4 263.36 340 260.8 340 260.8C339.2 258.72 340.32 256.48 340.32 256.48L341.92 256Z" fill="#F1B517" stroke="black" style="fill:#F1B517;fill:color(display-p3 0.9451 0.7098 0.0902);fill-opacity:1;stroke:black;stroke-opacity:1;" stroke-width="0.32"/>
<g id="Vector_143">
<path d="M340 260.8H341.28C341.28 260.8 341.28 261.28 341.6 261.28C341.92 261.28 342.08 260.64 342.08 260.64H344" fill="#F1B517" style="fill:#F1B517;fill:color(display-p3 0.9451 0.7098 0.0902);fill-opacity:1;"/>
<path d="M340 260.8H341.28C341.28 260.8 341.28 261.28 341.6 261.28C341.92 261.28 342.08 260.64 342.08 260.64H344" stroke="black" style="stroke:black;stroke-opacity:1;" stroke-width="0.32"/>
</g>
<path id="Vector_144" d="M342.56 257.44C343.68 256.64 342.72 255.04 341.92 255.04H340.32C339.36 255.04 338.08 256 338.24 256.64C338.346 257.493 338.773 257.813 339.52 257.6C339.84 257.6 340.48 256.64 340.8 256.64C341.12 256.64 342.4 257.6 342.56 257.44Z" fill="#D20014" stroke="#F1B517" style="fill:#D20014;fill:color(display-p3 0.8235 0.0000 0.0784);fill-opacity:1;stroke:#F1B517;stroke:color(display-p3 0.9451 0.7098 0.0902);stroke-opacity:1;" stroke-width="0.32"/>
<path id="Vector_145" fill-rule="evenodd" clip-rule="evenodd" d="M262.72 279.68C261.867 280 261.6 280.8 261.92 282.08C257.76 283.36 253.813 284.64 250.08 285.92C249.92 285.12 252 283.04 252 283.04C252.48 283.2 252.96 284.48 252.96 284.48C252.96 281.92 255.52 280.32 255.52 280.32C253.92 280 249.6 281.92 249.12 282.56C249.12 282.56 250.72 282.24 251.04 282.56C251.04 282.56 247.52 286.24 247.36 287.36C248 288.48 253.76 289.44 253.76 289.44C253.76 289.76 252.16 291.04 252.16 291.04C254.56 291.36 258.08 289.76 259.04 288.8C259.04 288.8 256.32 288.48 254.24 286.72C254.24 286.72 254.56 287.84 254.24 288.32C254.24 288.32 251.04 287.36 250.56 286.72C250.56 286.72 258.56 284.8 262.4 283.52C262.56 284.32 263.36 285.6 264.32 285.28C264.747 284.96 264.747 284.213 264.32 283.04L265.28 283.36C266.027 283.36 266.4 282.987 266.4 282.24C266.4 281.493 266.027 281.12 265.28 281.12C265.045 281.162 264.823 281.255 264.629 281.393C264.436 281.532 264.275 281.712 264.16 281.92C264 281.12 263.52 279.68 262.88 279.84L262.72 279.68ZM265.92 282.24C265.92 282.56 265.707 282.72 265.28 282.72C265.205 282.747 265.125 282.754 265.047 282.742C264.969 282.73 264.894 282.699 264.831 282.652C264.768 282.604 264.717 282.542 264.684 282.47C264.65 282.398 264.635 282.319 264.64 282.24C264.64 281.92 264.853 281.707 265.28 281.6C265.707 281.6 265.867 281.813 265.76 282.24H265.92Z" fill="#F1B517" stroke="black" style="fill:#F1B517;fill:color(display-p3 0.9451 0.7098 0.0902);fill-opacity:1;stroke:black;stroke-opacity:1;" stroke-width="0.32"/>
<path id="Vector_146" d="M388.8 284.64C389.12 284 388.8 281.12 388.8 281.12C388 281.12 387.2 282.24 387.2 282.24C388 279.68 385.92 275.84 385.92 275.84C387.36 276 392.16 280.64 392.32 281.6C392.32 281.6 390.24 280.8 389.92 280.96C390.4 283.36 392 284.48 392.64 285.76C392.64 285.76 389.92 286.24 390.08 288.64H388.32C387.68 287.84 388.48 286.56 388.48 286.56L376.16 281.44C375.36 281.12 373.6 280.16 373.92 279.2C374.08 278.4 377.12 279.68 377.76 280L388.8 284.64Z" fill="#F1B517" stroke="black" style="fill:#F1B517;fill:color(display-p3 0.9451 0.7098 0.0902);fill-opacity:1;stroke:black;stroke-opacity:1;" stroke-width="0.32"/>
<path id="Vector_147" d="M376.96 282.4L378.56 279.84C379.04 279.04 377.92 278.24 377.12 279.2L375.52 281.6C374.88 283.04 376.32 283.36 377.12 282.4H376.96Z" fill="#F1B517" stroke="black" style="fill:#F1B517;fill:color(display-p3 0.9451 0.7098 0.0902);fill-opacity:1;stroke:black;stroke-opacity:1;" stroke-width="0.32"/>
</g>
<g id="Group_5">
<path id="Vector_148" d="M290.2 288.6L290.1 285.6L286.6 285.9L286.4 289L290.2 288.6Z" fill="white" stroke="black" style="fill:white;fill-opacity:1;stroke:black;stroke-opacity:1;" stroke-width="0.3"/>
<path id="Vector_149" d="M264.4 292.7L259.7 290C279.1 291.8 283.1 285 287.8 284.7C290.8 284.4 291.1 287.9 285.5 286.2L287 289.8C287 289.8 273.2 297.6 259.6 294.4L264.4 292.7ZM349.2 288.6L349.3 285.6L353.6 285.8L353.8 288.9L349.2 288.6Z" fill="white" stroke="black" style="fill:white;fill-opacity:1;stroke:black;stroke-opacity:1;" stroke-width="0.3"/>
<path id="Vector_150" d="M375.9 292L380.4 289.5C358 290.2 363.1 285.9 352 284.7C349 284.3 347 288.1 354.2 286.2L352.8 289.8H356.3C363.9 294.8 374.1 295.3 380.9 293.7L375.9 292Z" fill="white" stroke="black" style="fill:white;fill-opacity:1;stroke:black;stroke-opacity:1;" stroke-width="0.3"/>
<path id="Vector_151" d="M285.5 286.3V291.3C285.5 291.3 297.8 295.9 319.9 295.9C342.1 295.9 354.3 291.3 354.3 291.3V286.3C354.3 286.3 345 290.6 319.9 290.6C294.8 290.6 285.5 286.3 285.5 286.3Z" fill="white" stroke="black" style="fill:white;fill-opacity:1;stroke:black;stroke-opacity:1;" stroke-width="0.3"/>
</g>
<path id="Vector_152" d="M287.3 291.3L288.4 287.6L288.9 287.8L287.9 291L289.9 291.5L289.7 292L287.3 291.3ZM290.9 289.7V289L291.1 288.3L291.7 288.5L291.5 289.1L291.2 289.8L290.9 289.7ZM296.2 289.4L296.7 289.6L296.3 291.7L295.9 292.7L295.4 293.1H294.4L293.5 292.7L293.1 292.1L293.2 291.1L293.7 288.9L294.2 289L293.7 291.2V292L293.9 292.4L294.4 292.6H295.4L295.8 291.6L296.2 289.4ZM296.8 293.4L297.4 289.7H298L299.5 293.1L300 290.1H300.5L299.9 294L299.4 293.9L297.8 290.6L297.3 293.6L296.8 293.4ZM300.8 294.1L301.4 290.3H301.9L301.4 294.1H300.9H300.8ZM302.4 292.4C302.4 291.733 302.633 291.267 303.1 291C303.5 290.696 304 290.553 304.5 290.6C304.9 290.6 305.233 290.7 305.5 290.9L306 291.7C306.2 292.033 306.233 292.367 306.1 292.7L305.8 293.7L305 294.4L304 294.5L303 294.2L302.5 293.4L302.4 292.4ZM302.9 292.4C302.9 292.933 303 293.333 303.2 293.6C303.4 293.933 303.7 294.1 304.1 294.1C304.5 294.1 304.833 294 305.1 293.8C305.367 293.6 305.533 293.267 305.6 292.8V291.8L305.1 291.3L304.4 291C304.067 291 303.733 291.1 303.4 291.3C303.2 291.5 303.033 291.9 302.9 292.5V292.4ZM306.6 294.7L306.9 290.9H307.5L309.3 294.1L309.5 291.1H310L309.7 295H309.2L307.3 291.8L307.1 294.8L306.6 294.7ZM312.2 295.1L312.3 291.3L315 291.4V291.9L312.9 291.8L312.8 292.9L314.7 293V293.5L312.7 293.4V295.2L312.2 295.1ZM315.2 295.2L316.7 291.4H317.3L318.8 295.4H318.2L317.8 294.1H316.1L315.7 295.3L315.2 295.2ZM316.2 293.7H317.6L317.2 292.7L317 291.8L316.8 292.6L316.3 293.7H316.2ZM319.3 295.3V291.5H319.9V295.3H319.3ZM321.8 295.3V292H320.5V291.6H323.6V292H322.3V295.4L321.8 295.3ZM325.8 295.3L325.5 291.3H326.1L326.2 294.7H328.2V295.1L325.8 295.3ZM328.4 295.1L329.6 291.1H330.2L332.2 294.8H331.5L331 293.8H329.3L329 295.1H328.4ZM329.4 293.4H330.8L330.3 292.4L329.9 291.5L329.8 292.3L329.4 293.4ZM334.1 294.6L333.7 290.8L336.3 290.5L336.4 291L334.3 291.2V292.4L336.3 292.2V292.7L334.4 292.9L334.6 294.6H334.1ZM337.1 292.5C337.021 292.234 336.997 291.954 337.032 291.679C337.066 291.404 337.157 291.138 337.3 290.9C337.628 290.509 338.093 290.259 338.6 290.2L339.6 290.3C340 290.367 340.267 290.567 340.4 290.9L340.8 291.9L340.7 292.9L340.1 293.7L339.2 294.1L338.2 294L337.4 293.4L337.1 292.5ZM337.6 292.4C337.6 292.8 337.767 293.133 338.1 293.4C338.433 293.667 338.767 293.767 339.1 293.7C339.567 293.633 339.9 293.467 340.1 293.2C340.3 292.933 340.367 292.533 340.3 292L340 291.2L339.4 290.7H338.7C338.3 290.7 337.967 290.833 337.7 291.1C337.567 291.367 337.533 291.8 337.6 292.4ZM341.7 293.7L341.1 289.9L342.8 289.6H343.6C343.8 289.6 343.967 289.667 344.1 289.8L344.4 290.4C344.4 290.667 344.333 290.9 344.2 291.1C344.067 291.3 343.833 291.467 343.5 291.6L343.8 291.7L344.3 292.2L345.3 293.1H344.6L343.9 292.5L343.4 292L343.1 291.8H342.5L341.9 291.9L342.3 293.6L341.7 293.7ZM341.9 291.5L342.9 291.3L343.5 291.1C343.666 290.941 343.772 290.729 343.8 290.5L343.6 290.1H342.9L341.6 290.2L341.9 291.5ZM348.2 291.1H348.7C348.7 291.5 348.6 291.833 348.4 292.1L347.4 292.7H346.4L345.6 292.1L345.1 291.1V290.1C345.167 289.7 345.333 289.4 345.6 289.2L346.5 288.8H347.5C347.9 289 348.167 289.267 348.3 289.6L347.8 289.8L347.3 289.3H346.6L345.9 289.6L345.6 290.3V291L346 291.8C346.133 292.067 346.333 292.2 346.6 292.2H347.3L347.9 291.9C348.1 291.7 348.2 291.433 348.2 291.1ZM349.6 292.1L348.6 288.4L351.3 287.7L351.5 288.1L349.2 288.7L349.5 289.8L351.6 289.3L351.8 289.7L349.6 290.3L350 291.5L352.4 290.9V291.3L349.6 292.1Z" fill="#000001" style="fill:#000001;fill:color(display-p3 0.0000 0.0000 0.0039);fill-opacity:1;"/>
</g>
</g>
<defs>
<clipPath id="clip0_2194_4774">
<rect width="640" height="480" fill="white" style="fill:white;fill-opacity:1;"/>
</clipPath>
</defs>
</svg>
