<svg width="640" height="480" viewBox="0 0 640 480" fill="none" xmlns="http://www.w3.org/2000/svg">
<g id="im" clip-path="url(#clip0_2194_4968)">
<g id="Clip path group">
<mask id="mask0_2194_4968" style="mask-type:luminance" maskUnits="userSpaceOnUse" x="-1" y="0" width="643" height="482">
<g id="im-a">
<path id="Vector" d="M-0.144043 0H641.5V481.28H-0.144043V0Z" fill="white" style="fill:white;fill-opacity:1;"/>
</g>
</mask>
<g mask="url(#mask0_2194_4968)">
<g id="Group">
<path id="Vector_2" fill-rule="evenodd" clip-rule="evenodd" d="M664.436 481.28H-23.0801V0H664.436V481.28Z" fill="#BA0000" style="fill:#BA0000;fill:color(display-p3 0.7294 0.0000 0.0000);fill-opacity:1;"/>
<path id="Vector_3" fill-rule="evenodd" clip-rule="evenodd" d="M336.94 353.44C337.128 352.876 337.504 347.048 337.316 347.048C337.128 347.048 328.48 336.802 328.668 336.802C328.856 336.802 339.76 339.246 339.76 338.87C339.76 338.494 344.178 328.06 344.178 327.872L349.442 340.562L360.252 345.262L352.732 351.56L354.33 363.78C354.33 364.062 346.81 356.636 346.81 356.636L338.444 357.576C338.444 357.576 337.316 353.816 336.94 353.44Z" fill="#FFEF00" stroke="black" style="fill:#FFEF00;fill:color(display-p3 1.0000 0.9373 0.0000);fill-opacity:1;stroke:black;stroke-opacity:1;" stroke-width="2.068"/>
<path id="Vector_4" fill-rule="evenodd" clip-rule="evenodd" d="M278.378 194.486C271.14 198.246 243.598 229.736 239.838 234.624C236.005 242.884 230.647 250.347 224.046 256.62C217.184 261.79 213.424 268.84 214.364 275.42C214.364 283.88 218.97 289.52 222.636 295.254C224.955 298.011 227.712 299.578 230.908 299.954C237.394 300.706 237.958 302.774 241.248 303.902C253.844 321.198 272.832 333.982 286.368 344.04C292.6 346.988 298.313 350.924 303.288 355.696C307.236 363.404 306.484 370.736 305.92 374.496L295.862 412.66C294.076 423 303.194 420.744 303.664 418.676C307.706 413.318 313.816 417.078 322.464 386.434L334.496 370.36C334.496 370.36 339.102 368.48 339.102 368.01C346.152 359.55 340.794 354.85 336.752 353.252L328.104 350.056C328.104 350.056 317.952 339.904 317.482 339.904C312.688 325.898 289 296.1 283.548 291.964C279.788 287.922 277.908 286.324 274.336 284.068C268.79 281.436 267.004 280.496 263.62 279.18C260.8 278.052 262.774 274.95 264.56 273.54C283.36 263.294 298.118 252.014 316.072 240.546L318.892 238.666L312.406 201.818L282.514 191.29C281.01 192.355 279.631 193.421 278.378 194.486Z" fill="white" stroke="black" style="fill:white;fill-opacity:1;stroke:black;stroke-opacity:1;" stroke-width="2.444"/>
<path id="Vector_5" fill-rule="evenodd" clip-rule="evenodd" d="M303.382 388.314C303.382 387.938 322.182 384.554 322.182 384.554L319.832 391.51L301.314 397.15L303.382 388.314Z" fill="#FFEC00" style="fill:#FFEC00;fill:color(display-p3 1.0000 0.9255 0.0000);fill-opacity:1;"/>
<path id="Vector_6" d="M254.784 318.19C256.707 313.794 259.496 309.83 262.984 306.535C266.473 303.241 270.589 300.683 275.088 299.014" stroke="black" style="stroke:black;stroke-opacity:1;" stroke-width="2.068"/>
<path id="Vector_7" d="M302.724 388.502C303.946 388.22 309.304 386.622 310.808 386.34C312.5 386.027 314.129 385.588 315.696 385.024C317.576 384.648 318.704 384.272 320.584 383.99L325.284 382.674M299.34 400.064L301.69 398.184C302.724 397.808 306.39 396.304 307.8 396.022L312.218 394.706L316.542 393.578C317.92 393.014 319.299 392.575 320.678 392.262" stroke="black" style="stroke:black;stroke-opacity:1;" stroke-width="2.256"/>
<path id="Vector_8" d="M306.86 320.916H306.672C307.424 320.916 306.954 320.916 305.826 322.232C305.45 323.266 302.066 325.71 299.434 325.71L295.016 325.992L293.794 325.71M306.672 376H307.988C309.429 376.063 310.745 376.157 311.936 376.282C313.346 376.282 314.662 376.658 315.978 376.658C317.419 376.721 318.892 376.846 320.396 377.034C321.837 377.159 323.31 377.253 324.814 377.316M324.814 377.316C326.13 377.41 326.882 377.598 328.292 377.598L324.814 377.316ZM297.554 408.618L299.716 406.738C300.656 406.456 304.04 404.858 305.356 404.67L309.304 403.26L313.346 402.32C314.599 401.693 315.853 401.223 317.106 400.91M322.558 362.182C321.806 364.344 322.84 364.908 323.216 365.848C324.666 367.396 326.523 368.504 328.574 369.044C329.702 369.326 330.454 369.608 331.77 370.172C332.459 370.235 333.086 370.391 333.65 370.642M216.714 281.53H216.996C216.15 281.53 216.714 281.624 218.03 280.59C218.97 279.556 219.628 279.086 220.474 278.052M234.01 300.612C234.198 300.612 249.614 292.904 251.212 291.212L254.69 288.486C255.567 287.985 256.382 287.452 257.134 286.888C257.886 286.011 258.607 285.165 259.296 284.35C260.236 283.504 259.766 282.658 260.612 281.624L261.834 278.052M281.386 289.52C281.48 290.084 281.198 291.776 281.198 293.092C281.198 294.596 279.224 299.202 276.874 300.612" stroke="black" style="stroke:black;stroke-opacity:1;" stroke-width="2.068"/>
<path id="Vector_9" d="M253.844 289.332L260.142 291.306C264.842 292.998 274.618 299.202 275.652 300.048C276.592 300.8 278.472 301.552 279.036 302.398C280.101 303.338 281.01 304.341 281.762 305.406C282.765 306.534 283.548 307.599 284.112 308.602C289.247 315.728 293.478 323.464 296.708 331.632C297.366 332.29 297.648 333.23 298.306 334.264C298.87 335.58 299.528 336.144 300.186 337.178C301.126 337.836 302.254 339.058 303.382 339.622C304.604 340.656 305.732 341.032 306.672 341.784C307.894 342.348 321.994 351.184 322.652 351.654C323.968 352.688 327.822 356.73 325.096 359.738C323.968 360.678 322.84 362.088 321.9 362.558C320.772 363.561 319.55 364.25 318.234 364.626C311.936 366.506 308.646 365.848 307.424 365.848H306.108M222.636 257.842C224.516 258.594 223.764 258.03 225.362 258.782C226.49 259.252 227.242 259.252 228.182 259.722C229.404 260.004 232.6 260.662 234.104 262.166C235.232 263.106 235.984 264.046 237.3 264.704C238.647 265.624 240.099 266.381 241.624 266.96C243.191 267.649 244.757 268.057 246.324 268.182H253.656H249.896" stroke="black" style="stroke:black;stroke-opacity:1;" stroke-width="2.068"/>
<path id="Vector_10" fill-rule="evenodd" clip-rule="evenodd" d="M222.26 275.702C226.208 275.42 232.882 276.642 233.07 276.642L241.906 276.454C246.606 276.078 247.546 274.292 248.298 272.976C250.084 270.344 251.212 269.404 252.622 267.336C254.69 265.832 257.698 269.498 257.792 269.498C265.312 276.642 259.296 285.29 258.92 285.572C255.16 289.05 254.314 289.238 252.058 287.076C249.802 284.35 249.144 283.128 247.264 282.188C243.598 280.496 236.172 281.812 235.984 281.812L232.13 283.316C230.25 283.974 229.122 285.572 226.02 286.136C222.73 286.324 221.696 286.042 220.098 283.41C217.936 280.12 218.97 276.078 222.26 275.702Z" fill="#FFE606" stroke="black" style="fill:#FFE606;fill:color(display-p3 1.0000 0.9020 0.0235);fill-opacity:1;stroke:black;stroke-opacity:1;" stroke-width="2.068"/>
<path id="Vector_11" fill-rule="evenodd" clip-rule="evenodd" d="M431.692 113.458C431.128 113.458 425.77 116.09 425.864 116.278C425.958 116.372 421.352 128.968 421.258 128.874C421.164 128.686 417.968 117.876 417.592 118.064C417.216 118.252 406.03 119.568 405.936 119.662L414.396 108.852L413.174 97.102L422.386 100.674L432.256 93.154C432.444 93.06 429.718 103.306 429.718 103.306L434.606 110.074C434.606 110.074 431.786 112.894 431.692 113.458Z" fill="#FFEF00" stroke="black" style="fill:#FFEF00;fill:color(display-p3 1.0000 0.9373 0.0000);fill-opacity:1;stroke:black;stroke-opacity:1;" stroke-width="2.068"/>
<path id="Vector_12" fill-rule="evenodd" clip-rule="evenodd" d="M321.9 242.426C328.574 246.844 369.558 255.492 375.762 256.338C384.833 255.642 393.953 256.663 402.646 259.346C410.448 262.73 418.438 262.542 423.796 258.406C431.128 254.458 433.76 247.69 436.956 241.486C437.632 240.011 437.982 238.408 437.982 236.786C437.982 235.164 437.632 233.561 436.956 232.086C434.512 226.07 436.016 224.566 435.452 221.182C444.288 201.63 446.168 178.882 448.236 162.056C448.048 152.186 449.082 144.666 450.116 141.658C453.766 136.318 459.04 132.296 465.156 130.19L503.414 120.226C513.378 116.654 506.892 109.886 504.824 110.45C498.244 109.51 498.432 102.366 467.506 109.792L447.578 107.254C447.578 107.254 443.818 104.152 443.348 104.434C432.538 102.46 431.034 109.416 431.598 113.646L433.102 122.858C433.102 122.858 429.248 136.582 429.436 136.958C419.566 148.05 404.996 183.582 404.056 190.444C403.586 196.836 401.236 195.614 401.8 201.912C401.8 206.8 401.236 203.792 402.834 213.756C403.304 216.764 399.544 216.576 397.476 215.636C379.428 204.356 362.32 196.93 343.426 186.966L340.512 185.462L311.56 209.15L317.012 240.358C318.641 241.173 320.239 241.862 321.806 242.426H321.9Z" fill="white" stroke="black" style="fill:white;fill-opacity:1;stroke:black;stroke-opacity:1;" stroke-width="2.444"/>
<path id="Vector_13" fill-rule="evenodd" clip-rule="evenodd" d="M478.598 125.584C474.3 120.873 470.132 116.046 466.096 111.108L473.24 109.698L487.152 123.14L478.598 125.584Z" fill="#FFEC00" style="fill:#FFEC00;fill:color(display-p3 1.0000 0.9255 0.0000);fill-opacity:1;"/>
<path id="Vector_14" d="M441.28 202.288C436.503 202.774 431.676 202.293 427.089 200.871C422.502 199.45 418.249 197.118 414.584 194.016" stroke="black" style="stroke:black;stroke-opacity:1;" stroke-width="2.068"/>
<path id="Vector_15" d="M479.068 126.054C478.128 125.208 474.18 121.354 473.24 120.038L469.668 116.466C468.446 115.056 467.506 114.21 466.284 112.706L462.9 109.322M490.724 123.422C490.442 123.422 488.844 122.764 487.904 122.294C487.152 121.448 483.956 119.098 483.11 117.97L479.82 114.774C478.692 113.552 477.846 112.894 476.718 111.484L473.522 108.664" stroke="black" style="stroke:black;stroke-opacity:1;" stroke-width="2.256"/>
<path id="Vector_16" d="M418.062 155.57L418.156 155.852C417.78 155.1 417.968 155.57 419.754 155.852C420.882 155.664 424.642 157.45 425.864 159.706C426.616 160.74 427.744 162.338 428.308 163.466C428.433 163.905 428.559 164.312 428.684 164.688M466.284 128.78L466.096 128.592L465.532 127.652L463.84 123.986C463.339 122.733 462.806 121.511 462.242 120.32C461.615 119.004 460.989 117.688 460.362 116.372C459.61 114.962 459.234 113.74 458.482 112.236M458.482 112.236C457.824 111.108 457.73 110.356 456.978 109.134L458.482 112.236ZM499.09 120.696L496.458 119.756C495.706 119.098 492.698 116.936 491.758 115.996L488.656 113.176C487.716 111.954 486.87 111.296 485.836 110.074L482.828 107.536M446.262 121.636C448.612 121.26 448.612 120.132 449.176 119.286C449.646 118.346 450.022 115.996 449.364 113.082L448.8 109.792C448.487 109.04 448.33 108.413 448.33 107.912M427.932 253.424L427.838 253.236C428.214 253.988 428.026 253.518 426.334 252.766L423.044 251.826M436.11 228.984C436.016 228.796 421.728 219.208 419.472 218.644C418.156 217.986 416.934 217.704 415.43 216.952L412.798 215.636C411.576 215.448 410.542 214.978 409.508 214.978C408.38 214.602 407.722 215.354 406.5 215.166L402.74 215.824M403.21 193.17C403.586 192.794 405.278 192.23 406.406 191.572C407.722 190.914 412.704 190.35 415.054 191.666" stroke="black" style="stroke:black;stroke-opacity:1;" stroke-width="2.068"/>
<path id="Vector_17" d="M416.558 217.328L415.148 210.748C414.593 204.87 414.593 198.954 415.148 193.076C415.336 191.854 415.148 189.88 415.618 188.846C415.931 187.593 416.339 186.339 416.84 185.086C417.404 183.707 417.937 182.485 418.438 181.42C419.096 177.66 429.718 162.526 430.47 161.774L432.35 159.236C432.726 158.359 433.227 157.419 433.854 156.416C434.794 155.382 434.982 154.536 435.546 153.408C435.64 152.374 436.11 150.682 436.11 149.46C436.392 147.862 436.11 146.64 436.392 145.606C436.204 144.196 437.05 127.558 437.144 126.806C437.426 125.114 439.024 119.756 442.972 120.696C444.382 121.166 446.074 121.448 447.108 122.106C448.424 122.482 449.552 123.516 450.586 124.268C455.286 128.874 456.32 131.976 456.978 133.104L457.636 134.232M404.244 259.44L404.15 259.252C404.463 259.879 404.369 259.534 403.868 258.218C403.774 256.996 403.398 255.398 403.21 254.27C402.928 253.048 402.364 251.732 402.552 250.98C402.082 249.758 402.364 248.818 402.552 247.596C402.834 246.092 403.022 245.058 403.022 243.648C403.21 241.768 403.022 240.64 403.116 238.948C402.646 237.538 402.552 236.41 401.894 235L400.014 231.24L398.134 227.95L400.014 231.146" stroke="black" style="stroke:black;stroke-opacity:1;" stroke-width="2.068"/>
<path id="Vector_18" fill-rule="evenodd" clip-rule="evenodd" d="M420.13 251.544C417.968 248.16 415.712 241.768 415.618 241.674L411.2 233.966C408.568 230.206 406.5 230.206 404.996 230.206C401.8 229.924 400.39 229.266 398.04 229.172C395.596 228.044 397.382 223.626 397.288 223.532C399.826 213.568 410.448 214.508 410.824 214.696C415.618 216.294 416.182 216.952 415.43 219.96C414.208 223.25 413.55 224.472 413.55 226.54C413.832 230.488 418.72 236.41 418.72 236.504L421.916 239.136C423.42 240.452 425.394 240.64 427.368 243.178C429.154 245.904 429.436 246.938 427.932 249.57C426.052 253.142 422.104 254.176 420.13 251.544Z" fill="#FFE606" stroke="black" style="fill:#FFE606;fill:color(display-p3 1.0000 0.9020 0.0235);fill-opacity:1;stroke:black;stroke-opacity:1;" stroke-width="2.068"/>
<path id="Vector_19" fill-rule="evenodd" clip-rule="evenodd" d="M171.688 158.578C172.158 158.954 177.14 162.056 177.328 161.868C177.516 161.68 190.488 158.672 190.3 158.86C190.112 159.048 182.968 167.602 183.344 167.79C183.72 167.978 190.864 176.626 191.052 176.72L177.422 175.592L168.21 182.924L166.142 173.336L154.58 169.2C154.392 169.106 164.45 165.816 164.45 165.816L167.458 158.014C167.458 158.014 171.312 158.672 171.876 158.578H171.688Z" fill="#FFEF00" stroke="black" style="fill:#FFEF00;fill:color(display-p3 1.0000 0.9373 0.0000);fill-opacity:1;stroke:black;stroke-opacity:1;" stroke-width="2.068"/>
<path id="Vector_20" fill-rule="evenodd" clip-rule="evenodd" d="M339.76 179.822C339.76 171.644 324.532 132.634 321.9 127.088C316.343 119.876 312.198 111.68 309.68 102.93C308.27 94.47 303.758 87.89 297.46 85.634C290.034 81.78 282.89 83.284 276.028 83.942C272.644 84.6 269.73 86.48 268.132 89.112C264.372 94.47 262.398 94 259.766 96.35C238.616 99.64 218.594 110.544 203.366 117.97C197.874 122.122 191.748 125.36 185.224 127.558C178.759 127.463 172.496 125.288 167.364 121.354L138.13 94.752C129.67 88.454 127.602 97.572 129.2 98.982C132.02 104.998 125.91 108.664 149.128 130.566L157.87 148.614C157.87 148.614 157.4 153.502 157.87 153.69C162.006 163.842 168.774 161.304 171.97 158.484L178.832 152.186C178.832 152.186 192.462 147.862 192.65 147.486C207.314 149.648 245.102 142.504 251.306 139.496C256.946 136.394 257.228 139.026 262.116 135.078C266.158 132.352 263.996 134.514 271.516 127.652C273.772 125.772 275.558 128.874 276.028 131.13C276.404 152.468 279.6 170.798 281.574 192.042L281.95 195.332L317.67 206.612L340.794 184.992L339.854 179.728L339.76 179.822Z" fill="white" stroke="black" style="fill:white;fill-opacity:1;stroke:black;stroke-opacity:1;" stroke-width="2.444"/>
<path id="Vector_21" fill-rule="evenodd" clip-rule="evenodd" d="M156.178 112.612C156.46 112.894 150.914 131.036 150.914 131.036L145.838 125.866L149.41 106.784L156.178 112.612Z" fill="#FFEC00" style="fill:#FFEC00;fill:color(display-p3 1.0000 0.9255 0.0000);fill-opacity:1;"/>
<path id="Vector_22" d="M240.872 101.896C247.64 109.416 249.802 121.824 248.58 128.78" stroke="black" style="stroke:black;stroke-opacity:1;" stroke-width="2.068"/>
<path id="Vector_23" d="M156.46 111.954C156.178 113.176 155.05 118.722 154.58 120.132L153.452 125.114L152.136 130.002C151.948 131.569 151.635 133.135 151.196 134.702M147.718 103.682C147.812 103.964 148.188 105.562 148.282 106.596C148.094 107.724 147.812 111.672 147.342 113.082L146.496 117.594L145.556 121.918L144.804 126.242" stroke="black" style="stroke:black;stroke-opacity:1;" stroke-width="2.256"/>
<path id="Vector_24" d="M214.458 146.922L214.552 146.64C214.176 147.392 214.552 146.922 213.8 145.324C212.954 144.384 212.484 140.342 213.612 137.992L215.492 133.95C215.68 133.637 215.931 133.323 216.244 133.01M165.672 121.26L165.578 121.448L165.014 122.388C164.325 123.641 163.635 124.801 162.946 125.866C162.382 127.088 161.348 128.028 160.784 129.25L158.528 133.01C157.651 134.263 156.836 135.517 156.084 136.77L154.204 139.778M140.856 98.136C141.044 98.324 141.514 99.922 141.608 100.956C141.42 101.896 141.232 105.656 140.856 106.878L140.198 111.014C139.822 112.518 139.728 113.552 139.258 115.056L138.788 119.004M170.56 141.94C168.962 140.154 168.022 140.812 166.988 140.718C164.926 141.285 163.068 142.426 161.63 144.008C161.003 144.823 160.189 145.606 159.186 146.358C158.716 147.11 158.34 147.298 157.87 147.768M290.88 84.976L290.786 85.258C291.162 84.506 290.88 84.882 291.256 86.668C291.726 87.89 291.726 88.736 292.196 89.864M265.97 91.556C265.97 91.744 265.688 108.946 266.44 111.202C266.628 112.612 267.004 113.74 267.192 115.526C267.255 116.466 267.38 117.406 267.568 118.346C268.132 119.474 268.226 120.602 268.884 121.448C269.166 122.67 270.106 122.764 270.67 123.798C271.328 124.644 272.55 126.054 273.302 126.618M254.032 138.744C253.468 138.556 252.152 137.428 251.024 136.864C249.708 136.112 246.418 132.258 246.324 129.532" stroke="black" style="stroke:black;stroke-opacity:1;" stroke-width="2.068"/>
<path id="Vector_25" d="M266.91 114.304L262.21 119.004C257.596 122.721 252.621 125.965 247.358 128.686C246.23 129.25 244.82 130.566 243.598 130.66C242.345 131.161 241.091 131.506 239.838 131.694C230.942 133.31 221.876 133.784 212.86 133.104L209.664 132.916C208.787 133.041 207.753 133.104 206.562 133.104C205.058 133.01 204.306 133.292 203.084 133.386C202.144 133.95 200.546 134.42 199.418 135.172C198.102 135.799 196.974 136.425 196.034 137.052C195.094 137.898 180.618 146.264 179.866 146.64C178.362 147.298 173.004 148.99 171.594 145.136C171.093 143.507 170.748 142.097 170.56 140.906C170.09 139.59 170.372 138.086 170.372 136.77C171.688 130.284 173.756 127.746 174.32 126.618L174.978 125.49M308.74 101.52L308.646 101.802C309.022 101.175 308.771 101.426 307.894 102.554C306.891 103.369 305.92 104.309 304.98 105.374C304.04 106.126 303.288 107.254 302.536 107.63C301.784 108.445 300.844 109.071 299.716 109.51C298.465 109.977 297.268 110.576 296.144 111.296C294.546 112.048 293.606 112.894 292.196 113.74C291.256 114.868 290.316 115.62 289.564 116.936C288.812 118.064 288.091 119.286 287.402 120.602L285.71 123.892M296.708 192.606L296.99 192.136C296.551 193.076 296.583 192.794 297.084 191.29C297.084 189.598 297.554 187.436 297.554 185.838C297.867 184.146 298.055 182.423 298.118 180.668C298.118 178.788 297.993 176.908 297.742 175.028C297.617 173.336 297.523 171.581 297.46 169.764C297.46 168.135 297.272 166.568 296.896 165.064L296.52 160.552C296.52 159.424 296.363 158.359 296.05 157.356L294.922 152.562L293.982 148.708C293.794 147.204 293.042 145.324 292.666 144.102C292.186 143.085 291.839 142.011 291.632 140.906C291.005 139.841 290.598 138.713 290.41 137.522L288.906 134.044L287.59 130.66C287.089 129.407 286.619 128.153 286.18 126.9C285.804 126.399 285.553 125.96 285.428 125.584" stroke="black" style="stroke:black;stroke-opacity:1;" stroke-width="2.068"/>
<path id="Vector_26" fill-rule="evenodd" clip-rule="evenodd" d="M293.606 92.59C291.965 95.812 290.013 98.8659 287.778 101.708L283.83 109.604C282.138 113.928 283.172 115.714 283.924 116.936C285.522 119.756 285.804 121.26 286.932 123.328C287.402 125.96 282.702 126.9 282.702 126.994C272.926 130.378 267.944 120.978 267.944 120.508C266.628 115.62 266.816 114.868 269.824 113.834C273.208 112.988 274.524 112.894 276.216 111.766C279.506 109.322 281.762 102.084 281.856 101.99L282.232 97.854C282.514 95.974 281.668 94.094 282.608 91.086C283.924 88.078 284.676 87.326 287.684 87.044C291.632 86.762 294.734 89.488 293.606 92.59Z" fill="#FFE606" stroke="black" style="fill:#FFE606;fill:color(display-p3 1.0000 0.9020 0.0235);fill-opacity:1;stroke:black;stroke-opacity:1;" stroke-width="2.068"/>
<path id="Vector_27" fill-rule="evenodd" clip-rule="evenodd" d="M280.822 187.718C279.318 186.308 308.458 198.246 312.5 198.34C317.952 196.366 340.606 177.284 340.606 177.284C340.794 179.164 341.64 183.958 343.802 184.992C335.06 192.042 327.164 198.904 318.422 205.954C318.986 217.234 317.012 229.172 322.652 241.674C322.652 241.674 315.884 241.862 315.884 241.674C309.868 235.658 307.706 206.706 307.706 206.706L278.942 193.922C280.352 192.982 281.386 190.256 280.822 187.624V187.718Z" fill="#FFEF00" stroke="black" style="fill:#FFEF00;fill:color(display-p3 1.0000 0.9373 0.0000);fill-opacity:1;stroke:black;stroke-opacity:1;" stroke-width="2.068"/>
<path id="Vector_28" d="M308.552 217.422C309.022 217.046 303.288 220.054 301.784 220.806C275.37 234.906 261.74 255.586 260.894 256.338L258.826 259.534L256.664 262.354L253.28 266.772C253.092 267.336 253.656 266.49 253.468 266.96M326.694 200.596C328.654 202.171 330.694 203.646 332.804 205.014C357.432 222.122 381.966 224.848 383.094 225.224C384.097 225.287 385.35 225.443 386.854 225.694C388.045 225.819 389.235 225.976 390.426 226.164C391.742 226.352 394.562 226.916 395.878 227.292C396.442 227.104 395.408 227.01 395.878 226.916" stroke="black" style="stroke:black;stroke-opacity:1;" stroke-width="2.068"/>
</g>
</g>
</g>
</g>
<defs>
<clipPath id="clip0_2194_4968">
<rect width="640" height="480" fill="white" style="fill:white;fill-opacity:1;"/>
</clipPath>
</defs>
</svg>
