<svg width="640" height="480" viewBox="0 0 640 480" fill="none" xmlns="http://www.w3.org/2000/svg">
<g id="iq" clip-path="url(#clip0_2194_5228)">
<path id="Vector" d="M0 160H640V320H0V160Z" fill="white" style="fill:white;fill-opacity:1;"/>
<path id="Vector_2" d="M0 0H640V160H0V0Z" fill="#CE1126" style="fill:#CE1126;fill:color(display-p3 0.8078 0.0667 0.1490);fill-opacity:1;"/>
<path id="Vector_3" d="M0 320H640V480H0V320Z" fill="#000001" style="fill:#000001;fill:color(display-p3 0.0000 0.0000 0.0039);fill-opacity:1;"/>
<g id="Group">
<path id="Vector_4" d="M390.917 210.615L388.465 208.863C387.764 208.046 388.465 207.929 390.567 208.513C394.421 209.681 397.516 209.214 399.852 207.112L402.129 205.185L404.757 206.411C406.509 207.345 407.676 207.754 408.26 207.637C409.487 207.287 411.939 204.133 411.764 203.082C411.764 201.856 412.815 202.206 413.516 203.608C414.567 206.411 412.99 209.739 410.012 210.44C408.844 210.79 407.326 210.615 405.457 209.914C403.005 209.039 402.479 209.039 401.253 209.914C399.829 211.115 398.059 211.831 396.2 211.957C394.341 212.083 392.491 211.613 390.917 210.615ZM401.078 201.331C399.892 199.188 399.288 196.772 399.326 194.323C399.443 193.272 399.91 192.922 400.728 193.272C402.479 193.798 402.83 195.024 402.479 198.528C402.479 201.681 402.012 202.615 401.078 201.331ZM282.655 198.002C282.48 200.279 286.859 206.06 288.786 207.112C287.385 207.637 285.808 207.462 284.582 207.987C277.575 214.995 252.348 239.52 247.794 245.476C261.458 245.827 276.523 245.301 289.312 244.776C289.312 235.491 298.071 234.966 304.027 231.637C307.005 236.367 314.538 236.017 315.589 243.199V274.031H199.093C198.652 276.369 197.726 278.588 196.373 280.545C195.021 282.502 193.272 284.153 191.241 285.392C189.21 286.63 186.941 287.429 184.582 287.735C182.223 288.041 179.826 287.849 177.546 287.17C181.049 283.666 187.005 282.265 189.108 277.184C190.859 265.973 185.604 259.141 182.1 252.659C186.507 251.246 190.65 249.115 194.363 246.352C190.334 258.615 205.224 257.389 216.086 257.038C216.436 252.834 216.261 247.929 213.108 247.228C217.137 245.652 217.838 245.126 224.67 239.52V256.338L305.429 256.163C305.429 250.907 306.83 242.323 302.626 242.323C298.772 242.323 302.626 253.184 299.472 253.184H236.932V242.674C239.56 239.871 239.21 240.046 257.253 222.002C259.005 220.25 271.794 208.688 282.83 198.002H282.655ZM438.742 197.477C443.122 199.929 446.625 203.082 451.881 204.484C451.355 206.761 449.253 207.637 448.727 209.914V257.214C454.684 258.44 456.085 254.936 458.888 253.184C459.589 260.717 464.494 268.075 464.143 274.206H438.742V197.477ZM404.757 222.878C404.757 222.878 414.041 214.995 414.041 214.644V255.812H420.698L420.523 209.739C423.151 206.936 428.581 203.082 429.808 200.279V273.856H371.297C370.421 258.615 370.246 242.849 388.114 246.177V240.046C387.589 238.995 386.538 240.221 386.363 238.82C389.166 236.017 390.041 235.316 397.749 228.659L397.925 255.812H404.757V222.878ZM382.684 255.462C383.91 257.214 388.29 257.214 387.939 254.06C387.414 251.433 381.808 252.309 382.684 255.462Z" fill="#007A3D" style="fill:#007A3D;fill:color(display-p3 0.0000 0.4784 0.2392);fill-opacity:1;"/>
<path id="Vector_5" d="M213.108 286.294C215.043 286.294 216.611 284.725 216.611 282.79C216.611 280.855 215.043 279.287 213.108 279.287C211.173 279.287 209.604 280.855 209.604 282.79C209.604 284.725 211.173 286.294 213.108 286.294Z" fill="#007A3D" style="fill:#007A3D;fill:color(display-p3 0.0000 0.4784 0.2392);fill-opacity:1;"/>
<path id="Vector_6" d="M323.472 197.652C327.852 199.929 331.355 203.258 336.786 204.659C336.085 206.761 334.158 207.637 333.633 209.914V257.214C339.589 258.44 340.815 255.111 343.618 253.184C344.494 260.717 349.224 268.25 349.049 274.206H323.472V197.652Z" fill="#007A3D" style="fill:#007A3D;fill:color(display-p3 0.0000 0.4784 0.2392);fill-opacity:1;"/>
</g>
</g>
<defs>
<clipPath id="clip0_2194_5228">
<rect width="640" height="480" fill="white" style="fill:white;fill-opacity:1;"/>
</clipPath>
</defs>
</svg>
