<svg width="640" height="480" viewBox="0 0 640 480" fill="none" xmlns="http://www.w3.org/2000/svg">
<g id="ir" clip-path="url(#clip0_2194_5236)">
<g id="Clip path group">
<mask id="mask0_2194_5236" style="mask-type:luminance" maskUnits="userSpaceOnUse" x="0" y="0" width="641" height="480">
<g id="ir-a">
<path id="Vector" d="M0.03125 0H640.063V480H0.03125V0Z" fill="white" style="fill:white;fill-opacity:1;"/>
</g>
</mask>
<g mask="url(#mask0_2194_5236)">
<g id="Group">
<path id="Vector_2" fill-rule="evenodd" clip-rule="evenodd" d="M-100 0H740V480H-100V0Z" fill="white" style="fill:white;fill-opacity:1;"/>
<path id="Vector_3" fill-rule="evenodd" clip-rule="evenodd" d="M-100 322.312H740V480H-100V322.312Z" fill="#DA0000" style="fill:#DA0000;fill:color(display-p3 0.8549 0.0000 0.0000);fill-opacity:1;"/>
<g id="Group_2">
<path id="Vector_4" fill-rule="evenodd" clip-rule="evenodd" d="M59.75 329.062H105.688V332.156H59.75V329.062ZM66.5938 344.812H69.7813V347.906H66.5938V344.812ZM105.875 344.812V347.906H96.6875V344.719L105.875 344.812ZM110.75 329.062H113.938V347.812H110.75V329.062Z" fill="white" style="fill:white;fill-opacity:1;"/>
<path id="Vector_5" fill-rule="evenodd" clip-rule="evenodd" d="M129.125 344.719V347.906H111.687V344.719H129.125ZM96.6875 337.312H99.6875V347.906H96.5938L96.6875 337.312Z" fill="white" style="fill:white;fill-opacity:1;"/>
<path id="Vector_6" fill-rule="evenodd" clip-rule="evenodd" d="M126.5 329.062H129.687V347.812H126.5V329.062ZM118.625 329.062H121.719V347.812H118.625V329.062ZM76.625 336.562V339.75H59.75V336.562H76.625ZM113.469 336.562V339.75H96.5938V336.562H113.469Z" fill="white" style="fill:white;fill-opacity:1;"/>
<path id="Vector_7" fill-rule="evenodd" clip-rule="evenodd" d="M96.6875 337.406H99.6875V347.813H96.5938L96.6875 337.406Z" fill="white" style="fill:white;fill-opacity:1;"/>
<path id="Vector_8" fill-rule="evenodd" clip-rule="evenodd" d="M96.6875 337.406H99.6875V347.813H96.5938L96.6875 337.406Z" fill="white" style="fill:white;fill-opacity:1;"/>
<path id="Vector_9" fill-rule="evenodd" clip-rule="evenodd" d="M96.6875 337.406H99.6875V347.813H96.5938L96.6875 337.406ZM59.8438 337.406H62.9375V347.813H59.8438V337.406ZM86.8437 337.406H90.0313V347.813H86.8437V337.406ZM73.4375 337.406H76.625V347.813H73.4375V337.406Z" fill="white" style="fill:white;fill-opacity:1;"/>
<path id="Vector_10" fill-rule="evenodd" clip-rule="evenodd" d="M89 344.719V347.906H74.8438V344.719H89ZM89.9375 336.562V339.75H80.9375V336.562H89.9375Z" fill="white" style="fill:white;fill-opacity:1;"/>
</g>
<g id="Group_3">
<path id="Vector_11" fill-rule="evenodd" clip-rule="evenodd" d="M-15.8125 329.062H30.125V332.156H-15.8125V329.062ZM-8.96875 344.812H-5.78125V347.906H-9.0625L-8.96875 344.812ZM30.3125 344.812V347.906H21.125V344.719L30.3125 344.812ZM35.1875 329.062H38.375V347.812H35.1875V329.062Z" fill="white" style="fill:white;fill-opacity:1;"/>
<path id="Vector_12" fill-rule="evenodd" clip-rule="evenodd" d="M53.5625 344.719V347.906H36.125V344.719H53.5625ZM21.125 337.312H24.2187V347.906H21.125V337.312Z" fill="white" style="fill:white;fill-opacity:1;"/>
<path id="Vector_13" fill-rule="evenodd" clip-rule="evenodd" d="M50.9375 329.062H54.125V347.812H50.9375V329.062ZM43.0625 329.062H46.1562V347.812H43.0625V329.062ZM1.0625 336.562V339.75H-15.8125V336.562H1.0625ZM37.9062 336.562V339.75H21.0312V336.562H37.9062Z" fill="white" style="fill:white;fill-opacity:1;"/>
<path id="Vector_14" fill-rule="evenodd" clip-rule="evenodd" d="M21.125 337.406H24.2187V347.813H21.125V337.406Z" fill="white" style="fill:white;fill-opacity:1;"/>
<path id="Vector_15" fill-rule="evenodd" clip-rule="evenodd" d="M21.125 337.406H24.2187V347.813H21.125V337.406Z" fill="white" style="fill:white;fill-opacity:1;"/>
<path id="Vector_16" fill-rule="evenodd" clip-rule="evenodd" d="M21.125 337.406H24.2188V347.813H21.125V337.406ZM-15.7188 337.406H-12.625V347.813H-15.7188V337.406ZM11.2812 337.406H14.375V347.813H11.2812V337.406ZM-2.125 337.406H1.0625V347.813H-2.125V337.406Z" fill="white" style="fill:white;fill-opacity:1;"/>
<path id="Vector_17" fill-rule="evenodd" clip-rule="evenodd" d="M13.4375 344.719V347.906H-0.625V344.719H13.4375ZM14.375 336.562V339.75H5.375V336.562H14.375Z" fill="white" style="fill:white;fill-opacity:1;"/>
</g>
<g id="Group_4">
<path id="Vector_18" fill-rule="evenodd" clip-rule="evenodd" d="M134.656 329.062H180.594V332.156H134.656V329.062ZM141.5 344.812H144.688V347.906H141.5V344.812ZM180.781 344.812V347.906H171.594V344.719L180.781 344.812ZM185.75 329.062H188.937V347.812H185.75V329.062Z" fill="white" style="fill:white;fill-opacity:1;"/>
<path id="Vector_19" fill-rule="evenodd" clip-rule="evenodd" d="M204.031 344.719V347.906H186.594V344.719H204.031ZM171.594 337.312H174.781V347.906H171.594V337.312Z" fill="white" style="fill:white;fill-opacity:1;"/>
<path id="Vector_20" fill-rule="evenodd" clip-rule="evenodd" d="M201.406 329.062H204.594V347.812H201.406V329.062ZM193.531 329.062H196.719V347.812H193.438L193.531 329.062ZM151.531 336.562V339.75H134.656V336.562H151.531ZM188.375 336.562V339.75H171.5V336.562H188.375Z" fill="white" style="fill:white;fill-opacity:1;"/>
<path id="Vector_21" fill-rule="evenodd" clip-rule="evenodd" d="M171.594 337.406H174.781V347.813H171.594V337.406Z" fill="white" style="fill:white;fill-opacity:1;"/>
<path id="Vector_22" fill-rule="evenodd" clip-rule="evenodd" d="M171.594 337.406H174.781V347.813H171.594V337.406Z" fill="white" style="fill:white;fill-opacity:1;"/>
<path id="Vector_23" fill-rule="evenodd" clip-rule="evenodd" d="M171.594 337.406H174.781V347.813H171.594V337.406ZM134.75 337.406H137.937V347.813H134.75V337.406ZM161.75 337.406H164.937V347.813H161.75V337.406ZM148.344 337.406H151.531V347.813H148.344V337.406Z" fill="white" style="fill:white;fill-opacity:1;"/>
<path id="Vector_24" fill-rule="evenodd" clip-rule="evenodd" d="M164 344.719V347.906H149.75V344.719H164ZM164.937 336.562V339.75H155.937V336.562H164.937Z" fill="white" style="fill:white;fill-opacity:1;"/>
</g>
<g id="Group_5">
<path id="Vector_25" fill-rule="evenodd" clip-rule="evenodd" d="M210.031 329.062H256.063V332.156H210.125L210.031 329.062ZM216.969 344.812H220.062V347.906H216.969V344.812ZM256.156 344.812V347.906H246.969V344.719L256.156 344.812ZM261.125 329.062H264.313V347.812H261.125V329.062Z" fill="white" style="fill:white;fill-opacity:1;"/>
<path id="Vector_26" fill-rule="evenodd" clip-rule="evenodd" d="M279.5 344.719V347.906H262.062V344.719H279.5ZM246.969 337.312H250.156V347.906H246.969V337.312Z" fill="white" style="fill:white;fill-opacity:1;"/>
<path id="Vector_27" fill-rule="evenodd" clip-rule="evenodd" d="M276.875 329.062H280.062V347.812H276.875V329.062ZM268.906 329.062H272.094V347.812H268.906V329.062ZM226.906 336.562V339.75H210.125V336.562H226.906ZM263.75 336.562V339.75H246.969V336.562H263.75Z" fill="white" style="fill:white;fill-opacity:1;"/>
<path id="Vector_28" fill-rule="evenodd" clip-rule="evenodd" d="M246.969 337.406H250.156V347.813H246.969V337.406Z" fill="white" style="fill:white;fill-opacity:1;"/>
<path id="Vector_29" fill-rule="evenodd" clip-rule="evenodd" d="M246.969 337.406H250.156V347.813H246.969V337.406Z" fill="white" style="fill:white;fill-opacity:1;"/>
<path id="Vector_30" fill-rule="evenodd" clip-rule="evenodd" d="M246.969 337.406H250.156V347.813H246.969V337.406ZM210.125 337.406H213.312V347.813H210.125V337.406ZM237.125 337.406H240.312V347.813H237.125V337.406ZM223.812 337.406H226.906V347.813H223.812V337.406Z" fill="white" style="fill:white;fill-opacity:1;"/>
<path id="Vector_31" fill-rule="evenodd" clip-rule="evenodd" d="M239.375 344.719V347.906H225.219V344.719H239.375ZM240.313 336.562V339.75H231.312V336.562H240.313Z" fill="white" style="fill:white;fill-opacity:1;"/>
</g>
<g id="Group_6">
<path id="Vector_32" fill-rule="evenodd" clip-rule="evenodd" d="M285.781 329.062H331.719V332.156H285.781V329.062ZM292.625 344.812H295.812V347.906H292.625V344.812ZM331.906 344.812V347.906H322.719V344.719L331.906 344.812ZM336.875 329.062H339.969V347.812H336.875V329.062Z" fill="white" style="fill:white;fill-opacity:1;"/>
<path id="Vector_33" fill-rule="evenodd" clip-rule="evenodd" d="M355.156 344.719V347.906H337.719V344.719H355.156ZM322.719 337.312H325.906V347.906H322.719V337.312Z" fill="white" style="fill:white;fill-opacity:1;"/>
<path id="Vector_34" fill-rule="evenodd" clip-rule="evenodd" d="M352.531 329.062H355.719V347.812H352.531V329.062ZM344.656 329.062H347.844V347.812H344.656V329.062ZM302.656 336.562V339.75H285.781V336.562H302.656ZM339.5 336.562V339.75H322.625V336.562H339.5Z" fill="white" style="fill:white;fill-opacity:1;"/>
<path id="Vector_35" fill-rule="evenodd" clip-rule="evenodd" d="M322.719 337.406H325.906V347.813H322.719V337.406Z" fill="white" style="fill:white;fill-opacity:1;"/>
<path id="Vector_36" fill-rule="evenodd" clip-rule="evenodd" d="M322.719 337.406H325.906V347.813H322.719V337.406Z" fill="white" style="fill:white;fill-opacity:1;"/>
<path id="Vector_37" fill-rule="evenodd" clip-rule="evenodd" d="M322.719 337.406H325.906V347.813H322.719V337.406ZM285.875 337.406H288.969V347.813H285.875V337.406ZM312.875 337.406H316.062V347.813H312.875V337.406ZM299.469 337.406H302.656V347.813H299.375L299.469 337.406Z" fill="white" style="fill:white;fill-opacity:1;"/>
<path id="Vector_38" fill-rule="evenodd" clip-rule="evenodd" d="M315.125 344.719V347.906H300.875V344.719H315.125ZM316.062 336.562V339.75H306.875V336.562H316.062Z" fill="white" style="fill:white;fill-opacity:1;"/>
</g>
<path id="Vector_39" fill-rule="evenodd" clip-rule="evenodd" d="M-100 0H740V157.687H-100V0Z" fill="#239F40" style="fill:#239F40;fill:color(display-p3 0.1373 0.6235 0.2510);fill-opacity:1;"/>
<g id="Group_7">
<path id="Vector_40" fill-rule="evenodd" clip-rule="evenodd" d="M361.906 329.062H407.844V332.156H361.906V329.062ZM368.75 344.812H371.937V347.906H368.75V344.812ZM408.031 344.812V347.906H398.75V344.719L408.031 344.812ZM413 329.062H416.094V347.812H413V329.062Z" fill="white" style="fill:white;fill-opacity:1;"/>
<path id="Vector_41" fill-rule="evenodd" clip-rule="evenodd" d="M431.281 344.719V347.906H413.844V344.719H431.281ZM398.844 337.312H402.031V347.906H398.75L398.844 337.312Z" fill="white" style="fill:white;fill-opacity:1;"/>
<path id="Vector_42" fill-rule="evenodd" clip-rule="evenodd" d="M428.75 329.062H431.844V347.812H428.75V329.062ZM420.781 329.062H423.969V347.812H420.781V329.062ZM378.781 336.562V339.75H361.906V336.562H378.781ZM415.625 336.562V339.75H398.75V336.562H415.625Z" fill="white" style="fill:white;fill-opacity:1;"/>
<path id="Vector_43" fill-rule="evenodd" clip-rule="evenodd" d="M398.75 337.406H402.031V347.813H398.75V337.406Z" fill="white" style="fill:white;fill-opacity:1;"/>
<path id="Vector_44" fill-rule="evenodd" clip-rule="evenodd" d="M398.75 337.406H402.031V347.813H398.75V337.406Z" fill="white" style="fill:white;fill-opacity:1;"/>
<path id="Vector_45" fill-rule="evenodd" clip-rule="evenodd" d="M398.75 337.406H402.031V347.813H398.75V337.406ZM362 337.406H365.188V347.813H362V337.406ZM389 337.406H392.188V347.813H389V337.406ZM375.594 337.406H378.781V347.813H375.594V337.406Z" fill="white" style="fill:white;fill-opacity:1;"/>
<path id="Vector_46" fill-rule="evenodd" clip-rule="evenodd" d="M391.25 344.719V347.906H377V344.719H391.25ZM392.188 336.562V339.75H383.188V336.562H392.188Z" fill="white" style="fill:white;fill-opacity:1;"/>
</g>
<g id="Group_8">
<path id="Vector_47" fill-rule="evenodd" clip-rule="evenodd" d="M437.562 329.062H483.5V332.156H437.562V329.062ZM444.406 344.812H447.594V347.906H444.406V344.812ZM483.781 344.812V347.906H474.5V344.719L483.781 344.812ZM488.656 329.062H491.844V347.812H488.656V329.062Z" fill="white" style="fill:white;fill-opacity:1;"/>
<path id="Vector_48" fill-rule="evenodd" clip-rule="evenodd" d="M506.938 344.719V347.906H489.5V344.719H506.938ZM474.5 337.312H477.688V347.906H474.5V337.312Z" fill="white" style="fill:white;fill-opacity:1;"/>
<path id="Vector_49" fill-rule="evenodd" clip-rule="evenodd" d="M504.406 329.062H507.5V347.812H504.406V329.062ZM496.438 329.062H499.625V347.812H496.438V329.062ZM454.437 336.562V339.75H437.656V336.562H454.437ZM491.281 336.562V339.75H474.5V336.562H491.281Z" fill="white" style="fill:white;fill-opacity:1;"/>
<path id="Vector_50" fill-rule="evenodd" clip-rule="evenodd" d="M474.5 337.406H477.688V347.813H474.5V337.406Z" fill="white" style="fill:white;fill-opacity:1;"/>
<path id="Vector_51" fill-rule="evenodd" clip-rule="evenodd" d="M474.5 337.406H477.688V347.813H474.5V337.406Z" fill="white" style="fill:white;fill-opacity:1;"/>
<path id="Vector_52" fill-rule="evenodd" clip-rule="evenodd" d="M474.5 337.406H477.688V347.813H474.5V337.406ZM437.656 337.406H440.844V347.813H437.656V337.406ZM464.656 337.406H467.844V347.813H464.656V337.406ZM451.25 337.406H454.437V347.813H451.344L451.25 337.406Z" fill="white" style="fill:white;fill-opacity:1;"/>
<path id="Vector_53" fill-rule="evenodd" clip-rule="evenodd" d="M466.906 344.719V347.906H452.75V344.719H466.906ZM467.844 336.562V339.75H458.75V336.562H467.844Z" fill="white" style="fill:white;fill-opacity:1;"/>
</g>
<g id="Group_9">
<path id="Vector_54" fill-rule="evenodd" clip-rule="evenodd" d="M513.312 329.062H559.25V332.156H513.312V329.062ZM520.156 344.812H523.344V347.906H520.156V344.812ZM559.437 344.812V347.906H550.25V344.719L559.437 344.812ZM564.312 329.062H567.5V347.812H564.312V329.062Z" fill="white" style="fill:white;fill-opacity:1;"/>
<path id="Vector_55" fill-rule="evenodd" clip-rule="evenodd" d="M582.688 344.719V347.906H565.25V344.719H582.688ZM550.156 337.312H553.344V347.906H550.156V337.312Z" fill="white" style="fill:white;fill-opacity:1;"/>
<path id="Vector_56" fill-rule="evenodd" clip-rule="evenodd" d="M580.063 329.062H583.25V347.812H580.063V329.062ZM572.187 329.062H575.281V347.812H572.187V329.062ZM530.188 336.562V339.75H513.312V336.562H530.188ZM567.031 336.562V339.75H550.156V336.562H567.031Z" fill="white" style="fill:white;fill-opacity:1;"/>
<path id="Vector_57" fill-rule="evenodd" clip-rule="evenodd" d="M550.25 337.406H553.344V347.813H550.25V337.406Z" fill="white" style="fill:white;fill-opacity:1;"/>
<path id="Vector_58" fill-rule="evenodd" clip-rule="evenodd" d="M550.25 337.406H553.344V347.813H550.25V337.406Z" fill="white" style="fill:white;fill-opacity:1;"/>
<path id="Vector_59" fill-rule="evenodd" clip-rule="evenodd" d="M550.25 337.406H553.344V347.813H550.25V337.406ZM513.312 337.406H516.5V347.813H513.312V337.406ZM540.406 337.406H543.5V347.813H540.406V337.406ZM527 337.406H530.188V347.813H527V337.406Z" fill="white" style="fill:white;fill-opacity:1;"/>
<path id="Vector_60" fill-rule="evenodd" clip-rule="evenodd" d="M542.563 344.719V347.906H528.406V344.719H542.563ZM543.5 336.562V339.75H534.5V336.562H543.5Z" fill="white" style="fill:white;fill-opacity:1;"/>
</g>
<g id="Group_10">
<path id="Vector_61" fill-rule="evenodd" clip-rule="evenodd" d="M589.438 329.062H635.375V332.156H589.438V329.062ZM596.281 344.812H599.469V347.906H596.281V344.812ZM635.562 344.812V347.906H626.375V344.719L635.562 344.812ZM640.437 329.062H643.625V347.812H640.437V329.062Z" fill="white" style="fill:white;fill-opacity:1;"/>
<path id="Vector_62" fill-rule="evenodd" clip-rule="evenodd" d="M658.813 344.719V347.906H641.375V344.719H658.813ZM626.375 337.312H629.469V347.906H626.375V337.312Z" fill="white" style="fill:white;fill-opacity:1;"/>
<path id="Vector_63" fill-rule="evenodd" clip-rule="evenodd" d="M656.187 329.062H659.375V347.812H656.187V329.062ZM648.312 329.062H651.406V347.812H648.312V329.062ZM606.312 336.562V339.75H589.438V336.562H606.312ZM643.156 336.562V339.75H626.281V336.562H643.156Z" fill="white" style="fill:white;fill-opacity:1;"/>
<path id="Vector_64" fill-rule="evenodd" clip-rule="evenodd" d="M626.375 337.406H629.469V347.813H626.375V337.406Z" fill="white" style="fill:white;fill-opacity:1;"/>
<path id="Vector_65" fill-rule="evenodd" clip-rule="evenodd" d="M626.375 337.406H629.469V347.813H626.375V337.406Z" fill="white" style="fill:white;fill-opacity:1;"/>
<path id="Vector_66" fill-rule="evenodd" clip-rule="evenodd" d="M626.375 337.406H629.469V347.813H626.375V337.406ZM589.531 337.406H592.625V347.813H589.531V337.406ZM616.531 337.406H619.719V347.813H616.531V337.406ZM603.125 337.406H606.313V347.813H603.125V337.406Z" fill="white" style="fill:white;fill-opacity:1;"/>
<path id="Vector_67" fill-rule="evenodd" clip-rule="evenodd" d="M618.687 344.719V347.906H604.531V344.719H618.687ZM619.625 336.562V339.75H610.625V336.562H619.625Z" fill="white" style="fill:white;fill-opacity:1;"/>
</g>
<g id="Group_11">
<path id="Vector_68" fill-rule="evenodd" clip-rule="evenodd" d="M59.75 134.438H105.688V137.625H59.75V134.438ZM66.5938 150.375H69.7813V153.375H66.5938V150.375ZM105.875 150.188V153.375H96.6875V150.188H105.875ZM110.75 134.438H113.938V153.375H110.75V134.438Z" fill="white" style="fill:white;fill-opacity:1;"/>
<path id="Vector_69" fill-rule="evenodd" clip-rule="evenodd" d="M129.125 150.187V153.375H111.687V150.187H129.125ZM96.6875 142.781H99.6875V153.375H96.5938L96.6875 142.781Z" fill="white" style="fill:white;fill-opacity:1;"/>
<path id="Vector_70" fill-rule="evenodd" clip-rule="evenodd" d="M126.5 134.438H129.687V153.375H126.5V134.438ZM118.625 134.438H121.719V153.375H118.625V134.438ZM76.625 141.938V145.125H59.75V142.031L76.625 141.938ZM113.469 141.938V145.125H96.5938V142.031L113.469 141.938Z" fill="white" style="fill:white;fill-opacity:1;"/>
<path id="Vector_71" fill-rule="evenodd" clip-rule="evenodd" d="M96.6875 142.781H99.6875V153.375H96.5938L96.6875 142.781Z" fill="white" style="fill:white;fill-opacity:1;"/>
<path id="Vector_72" fill-rule="evenodd" clip-rule="evenodd" d="M96.6875 142.781H99.6875V153.375H96.5938L96.6875 142.781Z" fill="white" style="fill:white;fill-opacity:1;"/>
<path id="Vector_73" fill-rule="evenodd" clip-rule="evenodd" d="M96.6875 142.781H99.6875V153.375H96.5938L96.6875 142.781ZM59.8438 142.781H62.9375V153.375H59.8438V142.781ZM86.8437 142.781H90.0313V153.375H86.8437V142.781ZM73.4375 142.781H76.625V153.375H73.4375V142.781Z" fill="white" style="fill:white;fill-opacity:1;"/>
<path id="Vector_74" fill-rule="evenodd" clip-rule="evenodd" d="M89 150.187V153.375H74.8438V150.187H89ZM89.9375 142.031V145.125H80.9375V142.031H89.9375Z" fill="white" style="fill:white;fill-opacity:1;"/>
</g>
<g id="Group_12">
<path id="Vector_75" fill-rule="evenodd" clip-rule="evenodd" d="M-15.8125 134.438H30.125V137.625H-15.8125V134.438ZM-8.96875 150.375H-5.78125V153.375H-9.0625L-8.96875 150.375ZM30.3125 150.188V153.375H21.125V150.188H30.3125ZM35.1875 134.438H38.375V153.375H35.1875V134.438Z" fill="white" style="fill:white;fill-opacity:1;"/>
<path id="Vector_76" fill-rule="evenodd" clip-rule="evenodd" d="M53.5625 150.187V153.375H36.125V150.187H53.5625ZM21.125 142.781H24.2187V153.375H21.125V142.781Z" fill="white" style="fill:white;fill-opacity:1;"/>
<path id="Vector_77" fill-rule="evenodd" clip-rule="evenodd" d="M50.9375 134.438H54.125V153.375H50.9375V134.438ZM43.0625 134.438H46.1562V153.375H43.0625V134.438ZM1.0625 141.938V145.125H-15.8125V142.031L1.0625 141.938ZM37.9062 141.938V145.125H21.0312V142.031L37.9062 141.938Z" fill="white" style="fill:white;fill-opacity:1;"/>
<path id="Vector_78" fill-rule="evenodd" clip-rule="evenodd" d="M21.125 142.781H24.2187V153.375H21.125V142.781Z" fill="white" style="fill:white;fill-opacity:1;"/>
<path id="Vector_79" fill-rule="evenodd" clip-rule="evenodd" d="M21.125 142.781H24.2187V153.375H21.125V142.781Z" fill="white" style="fill:white;fill-opacity:1;"/>
<path id="Vector_80" fill-rule="evenodd" clip-rule="evenodd" d="M21.125 142.781H24.2188V153.375H21.125V142.781ZM-15.7188 142.781H-12.625V153.375H-15.7188V142.781ZM11.2812 142.781H14.375V153.375H11.2812V142.781ZM-2.125 142.781H1.0625V153.375H-2.125V142.781Z" fill="white" style="fill:white;fill-opacity:1;"/>
<path id="Vector_81" fill-rule="evenodd" clip-rule="evenodd" d="M13.4375 150.187V153.375H-0.625V150.187H13.4375ZM14.375 142.031V145.125H5.375V142.031H14.375Z" fill="white" style="fill:white;fill-opacity:1;"/>
</g>
<g id="Group_13">
<path id="Vector_82" fill-rule="evenodd" clip-rule="evenodd" d="M134.656 134.438H180.594V137.625H134.656V134.438ZM141.5 150.375H144.688V153.375H141.5V150.375ZM180.781 150.188V153.375H171.594V150.188H180.781ZM185.75 134.438H188.937V153.375H185.75V134.438Z" fill="white" style="fill:white;fill-opacity:1;"/>
<path id="Vector_83" fill-rule="evenodd" clip-rule="evenodd" d="M204.031 150.187V153.375H186.594V150.187H204.031ZM171.594 142.781H174.781V153.375H171.594V142.781Z" fill="white" style="fill:white;fill-opacity:1;"/>
<path id="Vector_84" fill-rule="evenodd" clip-rule="evenodd" d="M201.406 134.438H204.594V153.375H201.406V134.438ZM193.531 134.438H196.719V153.375H193.438L193.531 134.438ZM151.531 141.938V145.125H134.656V142.031L151.531 141.938ZM188.375 141.938V145.125H171.5V142.031L188.375 141.938Z" fill="white" style="fill:white;fill-opacity:1;"/>
<path id="Vector_85" fill-rule="evenodd" clip-rule="evenodd" d="M171.594 142.781H174.781V153.375H171.594V142.781Z" fill="white" style="fill:white;fill-opacity:1;"/>
<path id="Vector_86" fill-rule="evenodd" clip-rule="evenodd" d="M171.594 142.781H174.781V153.375H171.594V142.781Z" fill="white" style="fill:white;fill-opacity:1;"/>
<path id="Vector_87" fill-rule="evenodd" clip-rule="evenodd" d="M171.594 142.781H174.781V153.375H171.594V142.781ZM134.75 142.781H137.937V153.375H134.75V142.781ZM161.75 142.781H164.937V153.375H161.75V142.781ZM148.344 142.781H151.531V153.375H148.344V142.781Z" fill="white" style="fill:white;fill-opacity:1;"/>
<path id="Vector_88" fill-rule="evenodd" clip-rule="evenodd" d="M164 150.187V153.375H149.75V150.187H164ZM164.937 142.031V145.125H155.937V142.031H164.937Z" fill="white" style="fill:white;fill-opacity:1;"/>
</g>
<g id="Group_14">
<path id="Vector_89" fill-rule="evenodd" clip-rule="evenodd" d="M210.031 134.438H256.063V137.625H210.125L210.031 134.438ZM216.969 150.375H220.062V153.375H216.969V150.375ZM256.156 150.188V153.375H246.969V150.188H256.156ZM261.125 134.438H264.313V153.375H261.125V134.438Z" fill="white" style="fill:white;fill-opacity:1;"/>
<path id="Vector_90" fill-rule="evenodd" clip-rule="evenodd" d="M279.5 150.187V153.375H262.062V150.187H279.5ZM246.969 142.781H250.156V153.375H246.969V142.781Z" fill="white" style="fill:white;fill-opacity:1;"/>
<path id="Vector_91" fill-rule="evenodd" clip-rule="evenodd" d="M276.875 134.438H280.062V153.375H276.875V134.438ZM268.906 134.438H272.094V153.375H268.906V134.438ZM226.906 141.938V145.125H210.125V142.031L226.906 141.938ZM263.75 141.938V145.125H246.969V142.031L263.75 141.938Z" fill="white" style="fill:white;fill-opacity:1;"/>
<path id="Vector_92" fill-rule="evenodd" clip-rule="evenodd" d="M246.969 142.781H250.156V153.375H246.969V142.781Z" fill="white" style="fill:white;fill-opacity:1;"/>
<path id="Vector_93" fill-rule="evenodd" clip-rule="evenodd" d="M246.969 142.781H250.156V153.375H246.969V142.781Z" fill="white" style="fill:white;fill-opacity:1;"/>
<path id="Vector_94" fill-rule="evenodd" clip-rule="evenodd" d="M246.969 142.781H250.156V153.375H246.969V142.781ZM210.125 142.781H213.312V153.375H210.125V142.781ZM237.125 142.781H240.312V153.375H237.125V142.781ZM223.812 142.781H226.906V153.375H223.812V142.781Z" fill="white" style="fill:white;fill-opacity:1;"/>
<path id="Vector_95" fill-rule="evenodd" clip-rule="evenodd" d="M239.375 150.187V153.375H225.219V150.187H239.375ZM240.313 142.031V145.125H231.312V142.031H240.313Z" fill="white" style="fill:white;fill-opacity:1;"/>
</g>
<g id="Group_15">
<path id="Vector_96" fill-rule="evenodd" clip-rule="evenodd" d="M285.781 134.438H331.719V137.625H285.781V134.438ZM292.625 150.375H295.812V153.375H292.625V150.375ZM331.906 150.188V153.375H322.719V150.188H331.906ZM336.875 134.438H339.969V153.375H336.875V134.438Z" fill="white" style="fill:white;fill-opacity:1;"/>
<path id="Vector_97" fill-rule="evenodd" clip-rule="evenodd" d="M355.156 150.187V153.375H337.719V150.187H355.156ZM322.719 142.781H325.906V153.375H322.719V142.781Z" fill="white" style="fill:white;fill-opacity:1;"/>
<path id="Vector_98" fill-rule="evenodd" clip-rule="evenodd" d="M352.531 134.438H355.719V153.375H352.531V134.438ZM344.656 134.438H347.844V153.375H344.656V134.438ZM302.656 141.938V145.125H285.781V142.031L302.656 141.938ZM339.5 141.938V145.125H322.625V142.031L339.5 141.938Z" fill="white" style="fill:white;fill-opacity:1;"/>
<path id="Vector_99" fill-rule="evenodd" clip-rule="evenodd" d="M322.719 142.781H325.906V153.375H322.719V142.781Z" fill="white" style="fill:white;fill-opacity:1;"/>
<path id="Vector_100" fill-rule="evenodd" clip-rule="evenodd" d="M322.719 142.781H325.906V153.375H322.719V142.781Z" fill="white" style="fill:white;fill-opacity:1;"/>
<path id="Vector_101" fill-rule="evenodd" clip-rule="evenodd" d="M322.719 142.781H325.906V153.375H322.719V142.781ZM285.875 142.781H288.969V153.375H285.875V142.781ZM312.875 142.781H316.062V153.375H312.875V142.781ZM299.469 142.781H302.656V153.375H299.375L299.469 142.781Z" fill="white" style="fill:white;fill-opacity:1;"/>
<path id="Vector_102" fill-rule="evenodd" clip-rule="evenodd" d="M315.125 150.187V153.375H300.875V150.187H315.125ZM316.062 142.031V145.125H306.875V142.031H316.062Z" fill="white" style="fill:white;fill-opacity:1;"/>
</g>
<g id="Group_16">
<path id="Vector_103" fill-rule="evenodd" clip-rule="evenodd" d="M361.906 134.438H407.844V137.625H361.906V134.438ZM368.75 150.375H371.937V153.375H368.75V150.375ZM408.031 150.188V153.375H398.75V150.188H408.031ZM413 134.438H416.094V153.375H413V134.438Z" fill="white" style="fill:white;fill-opacity:1;"/>
<path id="Vector_104" fill-rule="evenodd" clip-rule="evenodd" d="M431.281 150.187V153.375H413.844V150.187H431.281ZM398.844 142.781H402.031V153.375H398.75L398.844 142.781Z" fill="white" style="fill:white;fill-opacity:1;"/>
<path id="Vector_105" fill-rule="evenodd" clip-rule="evenodd" d="M428.75 134.438H431.844V153.375H428.75V134.438ZM420.781 134.438H423.969V153.375H420.781V134.438ZM378.781 141.938V145.125H361.906V142.031L378.781 141.938ZM415.625 141.938V145.125H398.75V142.031L415.625 141.938Z" fill="white" style="fill:white;fill-opacity:1;"/>
<path id="Vector_106" fill-rule="evenodd" clip-rule="evenodd" d="M398.75 142.781H402.031V153.375H398.75V142.781Z" fill="white" style="fill:white;fill-opacity:1;"/>
<path id="Vector_107" fill-rule="evenodd" clip-rule="evenodd" d="M398.75 142.781H402.031V153.375H398.75V142.781Z" fill="white" style="fill:white;fill-opacity:1;"/>
<path id="Vector_108" fill-rule="evenodd" clip-rule="evenodd" d="M398.75 142.781H402.031V153.375H398.75V142.781ZM362 142.781H365.188V153.375H362V142.781ZM389 142.781H392.188V153.375H389V142.781ZM375.594 142.781H378.781V153.375H375.594V142.781Z" fill="white" style="fill:white;fill-opacity:1;"/>
<path id="Vector_109" fill-rule="evenodd" clip-rule="evenodd" d="M391.25 150.187V153.375H377V150.187H391.25ZM392.188 142.031V145.125H383.188V142.031H392.188Z" fill="white" style="fill:white;fill-opacity:1;"/>
</g>
<g id="Group_17">
<path id="Vector_110" fill-rule="evenodd" clip-rule="evenodd" d="M437.562 134.438H483.5V137.625H437.562V134.438ZM444.406 150.375H447.594V153.375H444.406V150.375ZM483.781 150.188V153.375H474.5V150.188H483.781ZM488.656 134.438H491.844V153.375H488.656V134.438Z" fill="white" style="fill:white;fill-opacity:1;"/>
<path id="Vector_111" fill-rule="evenodd" clip-rule="evenodd" d="M506.938 150.187V153.375H489.5V150.187H506.938ZM474.5 142.781H477.688V153.375H474.5V142.781Z" fill="white" style="fill:white;fill-opacity:1;"/>
<path id="Vector_112" fill-rule="evenodd" clip-rule="evenodd" d="M504.406 134.438H507.5V153.375H504.406V134.438ZM496.438 134.438H499.625V153.375H496.438V134.438ZM454.437 141.938V145.125H437.656V142.031L454.437 141.938ZM491.281 141.938V145.125H474.5V142.031L491.281 141.938Z" fill="white" style="fill:white;fill-opacity:1;"/>
<path id="Vector_113" fill-rule="evenodd" clip-rule="evenodd" d="M474.5 142.781H477.688V153.375H474.5V142.781Z" fill="white" style="fill:white;fill-opacity:1;"/>
<path id="Vector_114" fill-rule="evenodd" clip-rule="evenodd" d="M474.5 142.781H477.688V153.375H474.5V142.781Z" fill="white" style="fill:white;fill-opacity:1;"/>
<path id="Vector_115" fill-rule="evenodd" clip-rule="evenodd" d="M474.5 142.781H477.688V153.375H474.5V142.781ZM437.656 142.781H440.844V153.375H437.656V142.781ZM464.656 142.781H467.844V153.375H464.656V142.781ZM451.25 142.781H454.437V153.375H451.344L451.25 142.781Z" fill="white" style="fill:white;fill-opacity:1;"/>
<path id="Vector_116" fill-rule="evenodd" clip-rule="evenodd" d="M466.906 150.187V153.375H452.75V150.187H466.906ZM467.844 142.031V145.125H458.75V142.031H467.844Z" fill="white" style="fill:white;fill-opacity:1;"/>
</g>
<g id="Group_18">
<path id="Vector_117" fill-rule="evenodd" clip-rule="evenodd" d="M513.312 134.438H559.25V137.625H513.312V134.438ZM520.156 150.375H523.344V153.375H520.156V150.375ZM559.437 150.188V153.375H550.25V150.188H559.437ZM564.312 134.438H567.5V153.375H564.312V134.438Z" fill="white" style="fill:white;fill-opacity:1;"/>
<path id="Vector_118" fill-rule="evenodd" clip-rule="evenodd" d="M582.688 150.187V153.375H565.25V150.187H582.688ZM550.156 142.781H553.344V153.375H550.156V142.781Z" fill="white" style="fill:white;fill-opacity:1;"/>
<path id="Vector_119" fill-rule="evenodd" clip-rule="evenodd" d="M580.063 134.438H583.25V153.375H580.063V134.438ZM572.187 134.438H575.281V153.375H572.187V134.438ZM530.188 141.938V145.125H513.312V142.031L530.188 141.938ZM567.031 141.938V145.125H550.156V142.031L567.031 141.938Z" fill="white" style="fill:white;fill-opacity:1;"/>
<path id="Vector_120" fill-rule="evenodd" clip-rule="evenodd" d="M550.25 142.781H553.344V153.375H550.25V142.781Z" fill="white" style="fill:white;fill-opacity:1;"/>
<path id="Vector_121" fill-rule="evenodd" clip-rule="evenodd" d="M550.25 142.781H553.344V153.375H550.25V142.781Z" fill="white" style="fill:white;fill-opacity:1;"/>
<path id="Vector_122" fill-rule="evenodd" clip-rule="evenodd" d="M550.25 142.781H553.344V153.375H550.25V142.781ZM513.312 142.781H516.5V153.375H513.312V142.781ZM540.406 142.781H543.5V153.375H540.406V142.781ZM527 142.781H530.188V153.375H527V142.781Z" fill="white" style="fill:white;fill-opacity:1;"/>
<path id="Vector_123" fill-rule="evenodd" clip-rule="evenodd" d="M542.563 150.187V153.375H528.406V150.187H542.563ZM543.5 142.031V145.125H534.5V142.031H543.5Z" fill="white" style="fill:white;fill-opacity:1;"/>
</g>
<g id="Group_19">
<path id="Vector_124" fill-rule="evenodd" clip-rule="evenodd" d="M589.438 134.438H635.375V137.625H589.438V134.438ZM596.281 150.375H599.469V153.375H596.281V150.375ZM635.562 150.188V153.375H626.375V150.188H635.562ZM640.437 134.438H643.625V153.375H640.437V134.438Z" fill="white" style="fill:white;fill-opacity:1;"/>
<path id="Vector_125" fill-rule="evenodd" clip-rule="evenodd" d="M658.813 150.187V153.375H641.375V150.187H658.813ZM626.375 142.781H629.469V153.375H626.375V142.781Z" fill="white" style="fill:white;fill-opacity:1;"/>
<path id="Vector_126" fill-rule="evenodd" clip-rule="evenodd" d="M656.187 134.438H659.375V153.375H656.187V134.438ZM648.312 134.438H651.406V153.375H648.312V134.438ZM606.312 141.938V145.125H589.438V142.031L606.312 141.938ZM643.156 141.938V145.125H626.281V142.031L643.156 141.938Z" fill="white" style="fill:white;fill-opacity:1;"/>
<path id="Vector_127" fill-rule="evenodd" clip-rule="evenodd" d="M626.375 142.781H629.469V153.375H626.375V142.781Z" fill="white" style="fill:white;fill-opacity:1;"/>
<path id="Vector_128" fill-rule="evenodd" clip-rule="evenodd" d="M626.375 142.781H629.469V153.375H626.375V142.781Z" fill="white" style="fill:white;fill-opacity:1;"/>
<path id="Vector_129" fill-rule="evenodd" clip-rule="evenodd" d="M626.375 142.781H629.469V153.375H626.375V142.781ZM589.531 142.781H592.625V153.375H589.531V142.781ZM616.531 142.781H619.719V153.375H616.531V142.781ZM603.125 142.781H606.313V153.375H603.125V142.781Z" fill="white" style="fill:white;fill-opacity:1;"/>
<path id="Vector_130" fill-rule="evenodd" clip-rule="evenodd" d="M618.687 150.187V153.375H604.531V150.187H618.687ZM619.625 142.031V145.125H610.625V142.031H619.625Z" fill="white" style="fill:white;fill-opacity:1;"/>
</g>
<path id="Vector_131" fill-rule="evenodd" clip-rule="evenodd" d="M15.5 318.281H21.125V328.125H15.5V318.281ZM165.969 318.281H171.594V328.125H165.969V318.281ZM-100 318.281H-94.375V328.125H-100V318.281ZM-23.5938 318.281H-17.9688V328.125H-23.5938V318.281ZM52.25 318.281H57.875V328.125H52.25V318.281ZM89.75 318.281H95.375V328.125H89.75V318.281ZM128.094 318.281H133.719V328.125H128.094V318.281ZM203.469 318.281H209.094V328.125H203.469V318.281ZM393.781 318.281H399.5V328.125H393.875L393.781 318.281ZM241.813 318.281H247.438V328.125H241.813V318.281ZM279.313 318.281H284.938V328.125H279.313V318.281ZM317.281 318.281H322.906V328.125H317.281V318.281ZM355.156 318.281H360.781V328.125H355.156V318.281ZM658.156 318.281H663.781V328.125H658.156V318.281ZM430.625 318.281H436.25V328.125H430.625V318.281ZM468.875 318.281H474.5V328.125H468.875V318.281ZM507.594 318.281H513.219V328.125H507.594V318.281ZM543.969 318.281H549.594V328.125H543.969V318.281ZM582.688 318.281H588.313V328.125H582.688V318.281ZM620.562 318.281H626.187V328.125H620.562V318.281ZM732.781 318.281H738.406V328.125H732.781V318.281ZM696.406 318.281H702.031V328.125H696.406V318.281ZM-61.9375 318.281H-56.3125V328.125H-61.9375V318.281Z" fill="#D90000" style="fill:#D90000;fill:color(display-p3 0.8510 0.0000 0.0000);fill-opacity:1;"/>
<path id="Vector_132" fill-rule="evenodd" clip-rule="evenodd" d="M15.5 152.438H21.125V162.281H15.5V152.438ZM165.969 152.438H171.594V162.281H165.969V152.438ZM-100 152.438H-94.375V162.281H-100V152.438ZM-23.5938 152.438H-17.9688V162.281H-23.5938V152.438ZM52.25 152.438H57.875V162.281H52.25V152.438ZM89.75 152.438H95.375V162.281H89.75V152.438ZM128.094 152.438H133.719V162.281H128.094V152.438ZM203.469 152.438H209.094V162.281H203.469V152.438ZM393.781 152.438H399.5V162.281H393.875L393.781 152.438ZM241.813 152.438H247.438V162.281H241.813V152.438ZM279.313 152.438H284.938V162.281H279.313V152.438ZM317.281 152.438H322.906V162.281H317.281V152.438ZM355.156 152.438H360.781V162.281H355.156V152.438ZM658.156 152.438H663.781V162.281H658.156V152.438ZM430.625 152.438H436.25V162.281H430.625V152.438ZM468.875 152.438H474.5V162.281H468.875V152.438ZM507.594 152.438H513.219V162.281H507.594V152.438ZM543.969 152.438H549.594V162.281H543.969V152.438ZM582.688 152.438H588.313V162.281H582.688V152.438ZM620.562 152.438H626.187V162.281H620.562V152.438ZM732.781 152.438H738.406V162.281H732.781V152.438ZM696.406 152.438H702.031V162.281H696.406V152.438ZM-61.9375 152.438H-56.3125V162.281H-61.9375V152.438Z" fill="#239E3F" style="fill:#239E3F;fill:color(display-p3 0.1373 0.6196 0.2471);fill-opacity:1;"/>
<g id="Group_20">
<path id="Vector_133" fill-rule="evenodd" clip-rule="evenodd" d="M342.312 185.156C350.187 194.906 374.656 248.531 327.594 283.781C305.375 300.469 319.156 301.219 319.812 304.031C355.437 285.187 366.968 259.5 366.687 236.531C366.5 213.656 354.312 193.406 342.312 185.156Z" fill="#DA0000" style="fill:#DA0000;fill:color(display-p3 0.8549 0.0000 0.0000);fill-opacity:1;"/>
<path id="Vector_134" fill-rule="evenodd" clip-rule="evenodd" d="M347 182.625C355.698 187.918 363.112 195.077 368.704 203.586C374.297 212.095 377.928 221.74 379.337 231.824C380.745 241.908 379.895 252.179 376.849 261.894C373.802 271.61 368.634 280.526 361.719 288C387.219 282.375 419.844 207 347 182.625ZM293 182.625C284.309 187.926 276.903 195.091 271.32 203.604C265.737 212.116 262.114 221.763 260.715 231.847C259.315 241.93 260.173 252.199 263.228 261.91C266.282 271.621 271.456 280.533 278.375 288C252.781 282.375 220.25 207 293 182.625Z" fill="#DA0000" style="fill:#DA0000;fill:color(display-p3 0.8549 0.0000 0.0000);fill-opacity:1;"/>
<path id="Vector_135" fill-rule="evenodd" clip-rule="evenodd" d="M297.688 185.156C289.813 194.906 265.344 248.531 312.406 283.781C334.531 300.469 320.844 301.219 320.188 304.031C284.563 285.187 273.031 259.5 273.313 236.531C273.5 213.656 285.688 193.406 297.688 185.156Z" fill="#DA0000" style="fill:#DA0000;fill:color(display-p3 0.8549 0.0000 0.0000);fill-opacity:1;"/>
<path id="Vector_136" fill-rule="evenodd" clip-rule="evenodd" d="M365.188 299.156C351.219 299.344 333.688 297.281 320.656 290.437C322.813 294.656 324.594 297.281 326.75 301.406C339.125 302.625 356.281 304.031 365.188 299.156ZM276.125 299.156C290.094 299.344 307.625 297.281 320.656 290.437C318.5 294.656 316.719 297.281 314.562 301.406C302.188 302.625 285.031 304.031 276.125 299.156ZM301.719 169.125C304.531 176.625 311.938 177.75 319.813 173.344C325.625 176.719 334.531 177 337.625 169.5C339.969 188.063 320.469 183.563 319.813 180C312.5 187.031 299 183 301.719 169.125Z" fill="#DA0000" style="fill:#DA0000;fill:color(display-p3 0.8549 0.0000 0.0000);fill-opacity:1;"/>
<path id="Vector_137" fill-rule="evenodd" clip-rule="evenodd" d="M320.375 310.875L327.688 302.438L328.719 189.844L320 182.156L311.281 189.469L313.063 302.906L320.375 310.875Z" fill="#DA0000" style="fill:#DA0000;fill:color(display-p3 0.8549 0.0000 0.0000);fill-opacity:1;"/>
</g>
</g>
</g>
</g>
</g>
<defs>
<clipPath id="clip0_2194_5236">
<rect width="640" height="480" fill="white" style="fill:white;fill-opacity:1;"/>
</clipPath>
</defs>
</svg>
