<svg width="640" height="480" viewBox="0 0 640 480" fill="none" xmlns="http://www.w3.org/2000/svg">
<g id="je" clip-path="url(#clip0_2194_5441)">
<path id="Vector" d="M0 0H640V480H0V0Z" fill="white" style="fill:white;fill-opacity:1;"/>
<path id="Vector_2" d="M1.2998 -0.0766602L638.687 480.011ZM1.2998 480.011L638.687 -0.0766602Z" fill="black" style="fill:black;fill-opacity:1;"/>
<path id="Vector_3" d="M0 -0.0766602V28.8395L280.494 239.967L0 451.194V479.912H43.9991L319.994 269.676L595.788 480.011H639.987V450.897L359.493 239.967L639.987 28.7405V0.022368H595.988L319.994 210.061L43.9991 -0.0766602H0Z" fill="#CF142B" style="fill:#CF142B;fill:color(display-p3 0.8118 0.0784 0.1686);fill-opacity:1;"/>
<path id="Vector_4" d="M364.2 65C375 109 369 163.2 320 193.4C271 163.2 265 109 275.8 65C287.4 54.5 340 48 364.2 65Z" fill="#CF142B" stroke="#800000" style="fill:#CF142B;fill:color(display-p3 0.8118 0.0784 0.1686);fill-opacity:1;stroke:#800000;stroke:color(display-p3 0.5020 0.0000 0.0000);stroke-opacity:1;" stroke-width="0.5" stroke-miterlimit="140.8"/>
<path id="Vector_5" d="M295.1 91C294.283 91.0078 293.471 90.8724 292.7 90.6C292.101 90.0363 291.625 89.3556 291.3 88.6L288.6 88.8C287.836 88.5249 287.125 88.1188 286.5 87.6C287.308 87.5299 288.075 87.216 288.7 86.7L286.2 86.2C285.4 85.8 284.7 85.3667 284.1 84.9C284.967 84.8334 285.667 84.5667 286.2 84.1L283.8 83.8L282.1 82.5C282.967 82.5 283.7 82.1667 284.3 81.5L282 81.4L279.6 79.8C280.524 79.7788 281.424 79.5019 282.2 79L281.6 78C281 76.8 279.8 77.3 278.9 76.9C278.511 76.7784 278.169 76.5408 277.918 76.2191C277.668 75.8974 277.522 75.507 277.5 75.1C277.5 74.2 277.9 72.8 279.9 73.1C278.9 71.5 280 70.4 281.1 69.9C282.2 69.4 283.1 69.7 283.8 71.4L285.2 70.6C285.526 70.5432 285.862 70.5683 286.176 70.673C286.49 70.7777 286.773 70.9588 287 71.2V72.4C286.7 73 286 73.4 286 74.2C285.7 75 286.5 76.6 286.5 76.6C286.5 76.6 290.5 79.8 292.2 81.4L295 84.4H299.1L299.4 91H295H295.1Z" fill="#FFD700" stroke="#806600" style="fill:#FFD700;fill:color(display-p3 1.0000 0.8431 0.0000);fill-opacity:1;stroke:#806600;stroke:color(display-p3 0.5020 0.4000 0.0000);stroke-opacity:1;" stroke-width="0.2" stroke-miterlimit="135.2"/>
<path id="Vector_6" d="M284.2 69.2C284.572 69.461 284.844 69.8409 284.971 70.2771C285.099 70.7134 285.074 71.1799 284.9 71.6C285.1 71.9333 285.434 72.0666 285.9 72C286.035 71.9661 286.161 71.9045 286.271 71.8192C286.38 71.7338 286.471 71.6266 286.537 71.5043C286.603 71.382 286.642 71.2473 286.653 71.1088C286.664 70.9703 286.646 70.8311 286.6 70.7C286.2 70.4 286.1 69.6 284.2 69.1V69.2ZM279.7 69.7L278.6 69.8C279.059 69.8935 279.47 70.1448 279.762 70.5103C280.055 70.8757 280.21 71.3321 280.2 71.8C280.6 71.9333 280.934 71.9 281.2 71.7C281.32 71.6213 281.422 71.5176 281.498 71.3961C281.575 71.2746 281.624 71.138 281.643 70.9957C281.662 70.8534 281.65 70.7087 281.608 70.5714C281.566 70.4341 281.495 70.3074 281.4 70.2C281 70.2 280.6 69.7 279.8 69.7H279.7ZM278.4 73.9C277.9 74 277.2 73.5 275.7 74.7C276.14 74.5794 276.608 74.6128 277.026 74.7947C277.445 74.9766 277.788 75.296 278 75.7C278.334 75.7 278.634 75.5666 278.9 75.3C278.967 75.1766 279.007 75.0406 279.017 74.9009C279.028 74.7611 279.009 74.6206 278.962 74.4886C278.915 74.3566 278.84 74.236 278.744 74.1346C278.647 74.0332 278.53 73.9532 278.4 73.9Z" fill="#377BC8" stroke="#2C5AA0" style="fill:#377BC8;fill:color(display-p3 0.2157 0.4824 0.7843);fill-opacity:1;stroke:#2C5AA0;stroke:color(display-p3 0.1725 0.3529 0.6275);stroke-opacity:1;" stroke-width="0.2" stroke-miterlimit="135.2"/>
<path id="Vector_7" d="M317.6 94C317 93.8 316.1 93 315.4 93C315.055 93.0056 314.716 93.1006 314.418 93.2759C314.12 93.4511 313.873 93.7006 313.7 94C313.663 94.2641 313.68 94.5328 313.749 94.7904C313.817 95.048 313.937 95.2892 314.1 95.5L315.4 96.3C314.944 96.7459 314.601 97.2945 314.4 97.9C314.477 98.3215 314.687 98.7071 315 99C315.267 99.5333 315.667 99.8 316.2 99.8L317.7 99.7L317.8 100.8C317.987 101.183 318.292 101.497 318.67 101.695C319.047 101.893 319.479 101.964 319.9 101.9C320.139 101.967 320.394 101.942 320.616 101.831C320.837 101.72 321.01 101.531 321.1 101.3C321.4 100.9 321.4 99.9 321.8 99.4L323.7 97.8C324.367 98.2667 324.567 98.9333 324.3 99.8L325.9 98.4L326.4 96.6C326.71 96.8223 326.951 97.1287 327.092 97.4831C327.234 97.8375 327.272 98.225 327.2 98.6L328.8 97.4L329.6 95.4C330.267 96.1333 330.433 96.9 330.1 97.7C330.766 97.2831 331.344 96.7395 331.8 96.1L332.2 94.5C333.933 94.5 334.867 94.0333 335 93.1C335 92.6 334.4 91.8 333.1 91.5L332.5 90.3V89.2C332.823 88.4171 333.339 87.7289 334 87.2L336.8 85.7L336.2 82.8L329.7 81.8L322.3 83.6C323.7 84.2 326.6 86.3 326.4 87.1C326.4 87.4 325.7 87.7 325.4 88.1C325.267 88.4333 325.333 88.7666 325.6 89.1C325.8 89.5 326.6 89.6 326.9 90C327.1 90.4 327.1 90.7333 326.9 91C326.4 91.7 324.7 92 323.9 92.3L319.9 94.4C319.148 94.4057 318.402 94.27 317.7 94H317.6Z" fill="#FFD700" stroke="#806600" style="fill:#FFD700;fill:color(display-p3 1.0000 0.8431 0.0000);fill-opacity:1;stroke:#806600;stroke:color(display-p3 0.5020 0.4000 0.0000);stroke-opacity:1;" stroke-width="0.2" stroke-miterlimit="135.2"/>
<path id="Vector_8" d="M333.1 85.1C333.1 85.1 333 87.5 332 88.1C331.561 88.3014 331.063 88.3369 330.6 88.2C330.156 87.9996 329.8 87.644 329.6 87.2L329.3 86.1L327 85.4C325.8 85.4 324.6 85.6 323.4 86C324 84.7126 324.932 83.6081 326.1 82.8L330 82.5L333.1 85.1Z" fill="#FFD700" stroke="#806600" style="fill:#FFD700;fill:color(display-p3 1.0000 0.8431 0.0000);fill-opacity:1;stroke:#806600;stroke:color(display-p3 0.5020 0.4000 0.0000);stroke-opacity:1;" stroke-width="0.2" stroke-miterlimit="135.2"/>
<path id="Vector_9" d="M343.6 69.4C344.7 69.3 347 68.8 347.8 68.1L349.2 66.7C349.067 68.9 347.8 70.4667 345.4 71.4C343.42 72.1306 341.301 72.404 339.2 72.2L335.4 71.4C336.8 72.8 336.1 73.8 334.4 74.4C334.4 74.4 334.6 73.1 334.2 72.9C333.067 72.6333 331.9 72.9 330.7 73.7C329.757 74.1188 328.732 74.3237 327.7 74.3C326.478 74.4117 325.246 74.2407 324.1 73.8C323.3 73.6 321.8 72.5 321.3 72.6C319.9 72.8 318.3 73 317.6 74C317.4 74.3333 317.4 74.7333 317.6 75.2C318.239 76.0185 319.172 76.5565 320.2 76.7C323 77.3 325.8 77.4 328.6 77L338.2 75.1C341.2 74.6 345 73.7 347.2 73.2C350.11 72.4757 353.102 72.1394 356.1 72.2C361.4 72.3 363.1 75 363 77.8C362.8 80.6 359.7 81.9 357 82.8C352.2 84.2 345.6 83.4 341.4 83.2L343.4 84.8C344.2 85.4 344.6 86.6 345.4 86.8C346.7 87.2 348.6 86.4 349.9 86.4C351.8 86.2 354.9 86.4 354.9 86.4L356.2 85.6H357.4C358.067 85.8 358.334 86.4667 358.2 87.6C358.4 87.8667 358.734 88.0667 359.2 88.2H360.9L362.5 89L361 89.5L360.3 90.2C360.967 90.2 361.634 90.3 362.3 90.5L363.5 91.5L362.2 91.7L361.4 92.3C361.4 92.3 363 92.2 363.6 92.6L364.7 93.8H363.4L362.6 94.2L364.2 95.4C364.534 95.8667 364.734 96.4 364.8 97L363.7 96.4H362.9L363.1 98.6C363.1 99.2 364.1 99.8 364.1 100.2C364.216 100.384 364.269 100.6 364.251 100.817C364.233 101.033 364.145 101.238 364 101.4C363.751 101.73 363.405 101.974 363.011 102.099C362.617 102.225 362.194 102.225 361.8 102.1L360.8 101.5L359.9 102.5C359.4 102.9 359.3 102.9 358.6 102.9C358.121 102.894 357.66 102.717 357.3 102.4L356.6 100.8L355 101.1C354.715 101.097 354.433 101.033 354.174 100.912C353.916 100.792 353.686 100.617 353.5 100.4C353.404 100.098 353.381 99.7768 353.433 99.4638C353.485 99.1508 353.611 98.8547 353.8 98.6C354.2 98.2 355.4 98.1 356 97.8C356.618 97.4825 357.163 97.0398 357.6 96.5L353.8 93.5L352.2 91.4C352.2 91.4 348.8 92.4 347.5 92.4C345.375 92.6636 343.225 92.6636 341.1 92.4C336.3 92.4 333.1 85.8 328.8 84.2C327.732 83.8265 326.568 83.8265 325.5 84.2C320.5 85.2 315.1 91 310.2 92.2C308.067 92.6 305.934 92.8333 303.8 92.9C303.472 93.54 303.032 94.1158 302.5 94.6C301.673 94.9305 300.791 95.1002 299.9 95.1L298.9 97.4C298.313 97.9446 297.636 98.3843 296.9 98.7C297.051 98.3355 297.129 97.9447 297.129 97.55C297.129 97.1553 297.051 96.7645 296.9 96.4L295.4 98.4L293.2 99.5C293.4 98.9 293.7 98.2 293.2 97.4L292 99.2C291.334 99.6667 290.667 100 290 100.2C290.237 99.8632 290.364 99.4616 290.364 99.05C290.364 98.6384 290.237 98.2368 290 97.9L288.8 99.8L286.2 101.1C286.58 100.361 286.719 99.5221 286.6 98.7H285.4C283.9 98.7 283.8 100 283.1 100.6C282.75 100.831 282.356 100.985 281.943 101.054C281.529 101.123 281.106 101.105 280.7 101C279.9 100.6 279 99.6 280.2 98C278.2 98.2 277.2 97 277.2 95.8C277.2 94.8 277.5 93.9 279.6 94L279.4 92.6C279.45 92.2464 279.633 91.9252 279.912 91.7022C280.191 91.4791 280.544 91.371 280.9 91.4C281.3 91.4 281.7 91.6 282.1 92C282.5 92.4 282.6 93.1 283.3 93.6C284.1 94.2 286 94.1 286 94.1C288.001 93.027 290.072 92.0915 292.2 91.3C293.5 90.9 297.2 90.3 297.2 90.3V81C301.555 81.0408 305.901 81.4085 310.2 82.1L315.4 81.8C315.4 81.8 323.8 80.5 327.8 80.1C329.8 79.9 331.834 79.8333 333.9 79.9C336.9 80.1 339.5 80.8 342.5 80.9C344.634 81.2333 346.767 81.3333 348.9 81.2C352.4 81 358.6 81.2 360.6 78.2C360.838 77.7688 360.908 77.265 360.797 76.7853C360.686 76.3056 360.403 75.8835 360 75.6C359.621 75.2057 359.141 74.9227 358.612 74.7817C358.083 74.6407 357.526 74.647 357 74.8C356.067 74.9333 355.5 75.3333 355.3 76C355.232 76.1921 355.224 76.4004 355.278 76.5969C355.332 76.7935 355.444 76.969 355.6 77.1C355.8 77.5 356.167 77.8 356.7 78C355.953 78.1096 355.191 78.0056 354.5 77.7C353.878 77.0782 353.4 76.3271 353.1 75.5C352.919 75.7029 352.782 75.9406 352.696 76.1985C352.61 76.4564 352.577 76.7291 352.6 77C352.6 77.6667 352.834 78.2 353.3 78.6C352.435 78.6 351.593 78.3193 350.9 77.8C350.477 77.1233 350.173 76.3793 350 75.6C349.752 75.7863 349.55 76.0279 349.411 76.3056C349.272 76.5833 349.2 76.8895 349.2 77.2C349.267 77.7333 349.434 78.3 349.7 78.9C348.877 78.6932 348.12 78.2803 347.5 77.7C347.127 77.0189 346.889 76.2717 346.8 75.5L337.8 77.3L328.3 78.9C324.524 79.5388 320.649 79.2645 317 78.1C315.4 77.3 314.6 76.8 314.2 75.4C314.127 74.9022 314.18 74.394 314.355 73.9222C314.53 73.4504 314.82 73.0301 315.2 72.7C316.583 71.3719 318.319 70.4694 320.2 70.1C323.1 69.3944 326.038 68.8601 329 68.5C332.17 68.1877 335.368 68.3223 338.5 68.9C339.9 69.1 341.5 68.8 341.8 68.3C342.2 67.9 342.8 67.5 342 66.5C342.8 66.5 343.4 66.9 343.8 67.7C344.1 68.1 343.8 69.3 343.8 69.3L343.6 69.4Z" fill="#FFD700" style="fill:#FFD700;fill:color(display-p3 1.0000 0.8431 0.0000);fill-opacity:1;"/>
<path id="Vector_10" d="M343.6 69.4C344.7 69.3 347 68.8 347.8 68.1L349.2 66.7C349.067 68.9 347.8 70.4667 345.4 71.4C343.42 72.1306 341.301 72.404 339.2 72.2L335.4 71.4C336.8 72.8 336.1 73.8 334.4 74.4C334.4 74.4 334.6 73.1 334.2 72.9C333.067 72.6333 331.9 72.9 330.7 73.7C329.757 74.1188 328.732 74.3237 327.7 74.3C326.478 74.4117 325.246 74.2407 324.1 73.8C323.3 73.6 321.8 72.5 321.3 72.6C319.9 72.8 318.3 73 317.6 74C317.4 74.3333 317.4 74.7333 317.6 75.2C318.239 76.0185 319.172 76.5565 320.2 76.7C323 77.3 325.8 77.4 328.6 77L338.2 75.1C341.2 74.6 345 73.7 347.2 73.2C350.11 72.4757 353.102 72.1394 356.1 72.2C361.4 72.3 363.1 75 363 77.8C362.8 80.6 359.7 81.9 357 82.8C352.2 84.2 345.6 83.4 341.4 83.2L343.4 84.8C344.2 85.4 344.6 86.6 345.4 86.8C346.7 87.2 348.6 86.4 349.9 86.4C351.8 86.2 354.9 86.4 354.9 86.4L356.2 85.6H357.4C358.067 85.8 358.334 86.4667 358.2 87.6C358.4 87.8667 358.734 88.0667 359.2 88.2H360.9L362.5 89L361 89.5L360.3 90.2C360.967 90.2 361.634 90.3 362.3 90.5L363.5 91.5L362.2 91.7L361.4 92.3C361.4 92.3 363 92.2 363.6 92.6L364.7 93.8H363.4L362.6 94.2L364.2 95.4C364.534 95.8667 364.734 96.4 364.8 97L363.7 96.4H362.9L363.1 98.6C363.1 99.2 364.1 99.8 364.1 100.2C364.216 100.384 364.269 100.6 364.251 100.817C364.233 101.033 364.145 101.238 364 101.4C363.751 101.73 363.405 101.974 363.011 102.099C362.617 102.225 362.194 102.225 361.8 102.1L360.8 101.5C360.6 101.9 360.3 102.233 359.9 102.5C359.541 102.817 359.079 102.994 358.6 103C358.108 102.967 357.645 102.754 357.3 102.4L356.6 100.8L355 101.1C354.715 101.097 354.433 101.033 354.174 100.912C353.916 100.792 353.686 100.617 353.5 100.4C353.404 100.098 353.381 99.7768 353.433 99.4638C353.485 99.1508 353.611 98.8547 353.8 98.6C354.2 98.2 355.4 98.1 356 97.8C356.618 97.4825 357.163 97.0398 357.6 96.5L353.8 93.5L352.2 91.4C352.2 91.4 348.8 92.4 347.5 92.4C345.375 92.6636 343.225 92.6636 341.1 92.4C336.3 92.4 333.1 85.8 328.8 84.2C327.732 83.8265 326.568 83.8265 325.5 84.2C320.5 85.2 315.1 91 310.2 92.2C308.067 92.6 305.934 92.8333 303.8 92.9C303.472 93.54 303.032 94.1158 302.5 94.6C301.673 94.9305 300.791 95.1002 299.9 95.1L298.9 97.4C298.313 97.9446 297.636 98.3843 296.9 98.7C297.065 98.3215 297.151 97.913 297.151 97.5C297.151 97.087 297.065 96.6785 296.9 96.3L295.4 98.3L293.2 99.5C293.4 98.9 293.7 98.2 293.2 97.4L292 99.2C291.334 99.6667 290.667 100 290 100.2C290.237 99.8632 290.364 99.4616 290.364 99.05C290.364 98.6384 290.237 98.2368 290 97.9L288.8 99.8L286.2 101.1C286.58 100.361 286.719 99.5221 286.6 98.7H285.4C283.9 98.7 283.8 100 283.1 100.6C282.75 100.831 282.356 100.985 281.943 101.054C281.529 101.123 281.106 101.105 280.7 101C279.9 100.6 279 99.6 280.2 98C278.2 98.2 277.2 97 277.2 95.8C277.2 94.8 277.5 93.9 279.6 94L279.4 92.6C279.45 92.2464 279.633 91.9252 279.912 91.7022C280.191 91.4791 280.544 91.371 280.9 91.4C281.3 91.4 281.7 91.6 282.1 92C282.5 92.4 282.6 93.1 283.3 93.6C284.1 94.2 286 94.1 286 94.1C288.001 93.027 290.072 92.0915 292.2 91.3C293.5 90.9 297.2 90.3 297.2 90.3V81C301.555 81.0408 305.901 81.4085 310.2 82.1L315.4 81.8C315.4 81.8 323.8 80.5 327.8 80.1C329.8 79.9 331.834 79.8333 333.9 79.9C336.9 80.1 339.5 80.8 342.5 80.9C344.634 81.2333 346.767 81.3333 348.9 81.2C352.4 81 358.6 81.2 360.6 78.2C360.838 77.7688 360.908 77.265 360.797 76.7853C360.686 76.3056 360.403 75.8835 360 75.6C359.621 75.2057 359.141 74.9227 358.612 74.7817C358.083 74.6407 357.526 74.647 357 74.8C356.067 74.9333 355.5 75.3333 355.3 76C355.3 76.4667 355.4 76.8 355.6 77C355.867 77.4 356.234 77.7333 356.7 78C356.7 78 355 78 354.3 77.6C353.734 77.0088 353.322 76.2877 353.1 75.5C352.919 75.7029 352.782 75.9406 352.696 76.1985C352.61 76.4564 352.577 76.7291 352.6 77C352.6 77.6667 352.834 78.2 353.3 78.6C352.435 78.6 351.593 78.3193 350.9 77.8C350.477 77.1233 350.173 76.3793 350 75.6C349.752 75.7863 349.55 76.0279 349.411 76.3056C349.272 76.5833 349.2 76.8895 349.2 77.2C349.267 77.7333 349.434 78.3 349.7 78.9C348.877 78.6932 348.12 78.2803 347.5 77.7C347.127 77.0189 346.889 76.2717 346.8 75.5L337.8 77.3L328.3 78.9C324.511 79.5602 320.615 79.2154 317 77.9C315.4 77.3 314.6 76.8 314.2 75.4C314.109 74.8866 314.154 74.3584 314.329 73.8674C314.504 73.3764 314.805 72.9396 315.2 72.6C316.595 71.3083 318.33 70.4411 320.2 70.1C323.1 69.3944 326.038 68.8601 329 68.5C332.137 68.1971 335.301 68.3317 338.4 68.9C339.8 69.1 341.4 68.8 341.8 68.3C342.2 67.8 342.8 67.5 341.9 66.5C342.284 66.5064 342.657 66.6229 342.976 66.8356C343.296 67.0484 343.547 67.3484 343.7 67.7C344 68.1 343.7 69.3 343.7 69.3L343.6 69.4Z" stroke="#806600" style="stroke:#806600;stroke:color(display-p3 0.5020 0.4000 0.0000);stroke-opacity:1;" stroke-width="0.2" stroke-miterlimit="135.2"/>
<path id="Vector_11" d="M307.6 82.3C308.6 83 309.6 82.2 309.8 82.1L309 81L308.8 79C308.8 77.4 309.4 77.1 309.4 77.2L311 76.5C311.217 76.3144 311.392 76.0845 311.512 75.8258C311.633 75.5671 311.697 75.2855 311.7 75L311.5 73.1C309.9 73.1 309.5 73.2 309.1 73.7L308.9 72.1L308.3 70.9L307.8 70.3C307.733 70.7667 307.533 71.1333 307.2 71.4L306.6 69.3L305.4 68.3L303.9 68.5L302.3 70.1L302.4 68.8C302.2 68.8 301.933 68.8667 301.6 69L300.5 69.7L299.5 70.9C299.5 70.2 299.1 69.9 297.8 69L296.6 70.6C296.457 70.8382 296.366 71.1035 296.332 71.3789C296.297 71.6544 296.32 71.934 296.4 72.2C296.667 72.7333 297 73.2333 297.4 73.7C297.4 73.6 297.8 74.2 296.9 75.5L295.6 77L294.3 77.5C294.6 78.4 294.7 78.8 296.1 79C293.1 81.2 292.7 84.7 295.1 87.7L296 86.2C296.011 87.1585 296.366 88.0811 297 88.8C297.2 89.1 297.4 90.8 297.8 91.2L298.8 92.2C298.8 92.2 299.1 90.9 299.7 90.7L301.7 90.1C302.6 89.8 303.8 88.2 303.8 88.2L303.6 90.2C307.6 88.8 308.6 86 307.6 82.3Z" fill="#FFD700" style="fill:#FFD700;fill:color(display-p3 1.0000 0.8431 0.0000);fill-opacity:1;"/>
<path id="Vector_12" d="M299.8 77.4C299.883 78.7801 299.608 80.1582 299 81.4L301.5 82.4L304.2 82.8C303.9 81.7 305 79.6 305.5 79H303.6L302.8 78.2L301.2 78.5L299.8 77.4Z" fill="#504416" style="fill:#504416;fill:color(display-p3 0.3137 0.2667 0.0863);fill-opacity:1;"/>
<path id="Vector_13" d="M300.2 78C299.971 78.647 299.971 79.3529 300.2 80L301 78.4L300.2 78ZM304 79.2L303.8 81C304.316 80.5622 304.668 79.9632 304.8 79.3L304 79.2ZM300.2 80.5C299.685 80.9378 299.332 81.5368 299.2 82.2H300.1L300.2 80.5ZM303.5 81.4L302.8 83L303.4 83.4C303.662 82.7644 303.697 82.0584 303.5 81.4ZM300.5 72.8C300.034 72.8 299.7 73 299.5 73.4C299.5 73.9333 299.834 74.3333 300.5 74.6C300.82 74.7081 301.169 74.6968 301.481 74.5681C301.794 74.4395 302.049 74.2022 302.2 73.9C302.267 73.4333 301.867 73.1 301 72.9L300.5 72.8ZM305.9 74.4C305.5 74.3333 305.234 74.4667 305.1 74.8C305.093 75.1247 305.198 75.442 305.399 75.6974C305.6 75.9528 305.883 76.1305 306.2 76.2C307.067 76.4 307.6 76.2333 307.8 75.7C307.8 75.1 307.467 74.7 306.8 74.5L305.9 74.4Z" fill="white" style="fill:white;fill-opacity:1;"/>
<path id="Vector_14" d="M300.5 72.6L300 72.7C299.862 72.7499 299.737 72.8295 299.633 72.9332C299.529 73.0369 299.45 73.1621 299.4 73.3C299.4 73.5666 299.467 73.8666 299.6 74.2C299.867 74.4666 300.167 74.6666 300.5 74.8C301.433 75 302.033 74.7333 302.3 74C302.325 73.8601 302.321 73.7164 302.286 73.5784C302.252 73.4404 302.188 73.3114 302.1 73.2L301.1 72.8L300.5 72.6ZM300.5 73H301L301.8 73.4C302.067 73.5333 302.167 73.7 302.1 73.9C301.988 74.1869 301.769 74.4197 301.49 74.55C301.211 74.6803 300.892 74.6982 300.6 74.6L299.8 74V73.4L300.1 73H300.5ZM305.9 74.2H305.7C305.553 74.226 305.414 74.2844 305.293 74.3709C305.172 74.4574 305.072 74.5698 305 74.7C304.972 74.8841 304.98 75.072 305.026 75.2526C305.071 75.4333 305.152 75.6031 305.264 75.7521C305.375 75.9011 305.516 76.0263 305.677 76.1204C305.837 76.2145 306.015 76.2755 306.2 76.3C306.6 76.5 306.933 76.5 307.2 76.3C307.533 76.3 307.733 76.1 307.8 75.7C307.84 75.567 307.851 75.4272 307.834 75.2895C307.817 75.1517 307.771 75.0191 307.7 74.9L306.7 74.4L305.9 74.2ZM305.9 74.5L306.7 74.6C307.033 74.6666 307.3 74.8 307.5 75C307.633 75.2 307.667 75.4333 307.6 75.7L307.1 76.2H306.2C306.041 76.1758 305.889 76.1201 305.753 76.0361C305.616 75.9522 305.497 75.8417 305.404 75.7112C305.311 75.5807 305.245 75.4328 305.21 75.2763C305.175 75.1198 305.171 74.9578 305.2 74.8C305.2 74.6666 305.367 74.5666 305.7 74.5H305.9Z" fill="#D1B948" style="fill:#D1B948;fill:color(display-p3 0.8196 0.7255 0.2824);fill-opacity:1;"/>
<path id="Vector_15" d="M300.6 71.7C300.431 71.6405 300.249 71.6277 300.073 71.6629C299.897 71.6981 299.734 71.78 299.6 71.9C299.467 72.2333 299.4 72.4666 299.4 72.6H299.8L300.5 72.7L301.8 73.3H303.3L302.1 72.6C301.6 72.4 301.1 71.8 300.5 71.6L300.6 71.7ZM307.6 73.7C307 73.6333 306.467 73.6333 306 73.7L304.6 73.6L305.8 74.4L307.3 74.6L307.9 74.8L308.3 75.1L308.6 74.5C308.553 74.2707 308.428 74.0651 308.245 73.9189C308.062 73.7727 307.834 73.6953 307.6 73.7ZM299 81.4C297.7 84.9 303 86.6 303.8 82.8C302.114 82.708 300.471 82.2289 299 81.4Z" fill="#FFD700" style="fill:#FFD700;fill:color(display-p3 1.0000 0.8431 0.0000);fill-opacity:1;"/>
<path id="Vector_16" d="M299 81.1L298.8 81.4C298.635 81.7785 298.55 82.187 298.55 82.6C298.55 83.013 298.635 83.4215 298.8 83.8C299.031 84.3907 299.455 84.8857 300.003 85.2039C300.552 85.5222 301.192 85.6449 301.819 85.552C302.446 85.4591 303.023 85.156 303.456 84.6924C303.889 84.2288 304.151 83.6321 304.2 83V82.6H303.9C302.222 82.5387 300.58 82.094 299.1 81.3L299 81.1ZM299.1 81.5C300.627 82.2972 302.289 82.8057 304 83C303.842 83.677 303.453 84.2779 302.9 84.7C302.2 84.9718 301.438 85.0411 300.7 84.9C300.05 84.5862 299.498 84.1024 299.1 83.5C298.894 82.8834 298.894 82.2166 299.1 81.6V81.5Z" fill="#806600" style="fill:#806600;fill:color(display-p3 0.5020 0.4000 0.0000);fill-opacity:1;"/>
<path id="Vector_17" d="M301.3 78.4C300.449 80.6986 300.175 83.1707 300.5 85.6C302.1 83.8 302.9 81.4 303.5 79.2C303.367 79 303.2 78.8667 303 78.8L302.6 78.2L301.9 78.6L301.3 78.5V78.4Z" fill="#377BC8" stroke="#2C5AA0" style="fill:#377BC8;fill:color(display-p3 0.2157 0.4824 0.7843);fill-opacity:1;stroke:#2C5AA0;stroke:color(display-p3 0.1725 0.3529 0.6275);stroke-opacity:1;" stroke-width="0.2" stroke-miterlimit="135.2"/>
<path id="Vector_18" d="M305.4 68.2L303.9 68.5L302.3 70.1V68.8C302.1 68.8 301.867 68.8667 301.6 69L300.4 69.7L299.4 70.8C299.8 70.8 301 69.8 301.4 69.9C301.8 70 301.6 70.9 301.9 71C302.4 71 302.9 70.2 303.5 69.8C303.94 69.3768 304.498 69.0978 305.1 69C305.385 69.1638 305.626 69.3956 305.801 69.6747C305.975 69.9538 306.078 70.2716 306.1 70.6C306.367 71.4667 306.667 72.1 307 72.5C307.3 72.6 307.6 71.7 308 71.7C308.5 71.9 308.7 73.4 309.1 73.7L308.9 72.1L308.2 70.9L307.7 70.3C307.633 70.7 307.433 71.0667 307.1 71.4L306.6 69.3L305.4 68.2ZM298.9 73.9C298.3 74.9 298.9 75.9 300.1 76L299.7 77.1L300.3 78.4L301.5 78.8L302.5 78.4L303.4 79.4L304.4 79.6L305.7 78.8L306.2 77.9H307L307.8 77.5L308 76.6C307.688 76.9698 307.253 77.2141 306.775 77.2876C306.297 77.3612 305.808 77.259 305.4 77C305.419 77.5136 305.24 78.0149 304.9 78.4C304.767 78.52 304.603 78.6019 304.427 78.6371C304.251 78.6723 304.069 78.6595 303.9 78.6C303.643 78.5224 303.404 78.3938 303.198 78.222C302.992 78.0502 302.823 77.8387 302.7 77.6C302.233 77.9333 301.833 78.1 301.5 78.1C301.26 78.0371 301.04 77.9113 300.864 77.7356C300.689 77.5598 300.563 77.3405 300.5 77.1C300.481 76.5864 300.66 76.0851 301 75.7C298.6 75 299.4 74.3 298.8 73.9H298.9ZM297.6 74.2L295.6 77L294.3 77.5C294.6 78.4 294.7 78.8 296.1 79C293.1 81.2 292.7 84.7 295.1 87.7L296 86.2C296.011 87.1585 296.366 88.0812 297 88.8C297.2 89.1 297.4 90.8 297.8 91.2L298.8 92.2C298.8 92.2 299.1 90.9 299.7 90.7L301.7 90.1C302.6 89.8 303.8 88.2 303.8 88.2L303.7 90.2C307.7 88.8 308.7 86 307.6 82.3C308.6 83 309.6 82.2 309.8 82.1C309.44 81.771 309.165 81.3591 309 80.9L308.8 78.9L308.6 77.8L308.1 79.5V81.3C307.402 81.1082 306.753 80.767 306.2 80.3L307 84.3C307 85.1667 306.867 86.0667 306.6 87C306.136 87.6605 305.56 88.2356 304.9 88.7L305.2 86.3C305.2 85.5 304.8 83.3 304.8 83.3L304 86.3L302.7 88.3C303 86.2 302.9 86.1 302.6 85.3C302.6 85.3 302.1 87.9 301.1 89L299.5 89.8L298.7 90.4L298.1 88.6L296.9 86.2C296.6 85 298.2 82.6 298.2 82.6C297.6 82.7333 296.967 83.2 296.3 84L295 85.8L294.5 83.4C294.559 82.6221 294.798 81.8687 295.2 81.2C296.211 79.9808 297.351 78.8744 298.6 77.9C297.624 78.2071 296.576 78.2071 295.6 77.9C295.6 77.9 296.9 76.6 297 76.3C297.374 75.6982 297.581 75.008 297.6 74.3V74.2ZM302.8 75.4H301.5V76L302.1 76.2L302.9 77.2L304.6 76.7L304.9 76.3L303.3 75.4H302.8Z" fill="#FFD700" style="fill:#FFD700;fill:color(display-p3 1.0000 0.8431 0.0000);fill-opacity:1;"/>
<path id="Vector_19" d="M307.6 82.3C308.6 83 309.6 82.2 309.8 82.1L309 81L308.8 79C308.8 77.4 309.4 77.1 309.4 77.2L311 76.5C311.217 76.3144 311.392 76.0846 311.512 75.8258C311.633 75.5671 311.697 75.2855 311.7 75L311.5 73.1C309.9 73.1 309.5 73.2 309.1 73.7L308.9 72.1L308.3 70.9L307.8 70.3C307.733 70.7667 307.533 71.1334 307.2 71.4C307.177 70.7617 307.002 70.138 306.689 69.5813C306.376 69.0246 305.934 68.5509 305.4 68.2C304.133 68.2667 303.067 68.8667 302.2 70L302.4 68.8L301.6 69L300.5 69.7L299.5 70.9C299.5 70.2 299.1 69.9 297.8 69L296.6 70.6C296.457 70.8382 296.366 71.1035 296.332 71.379C296.297 71.6544 296.32 71.934 296.4 72.2C296.667 72.7333 297 73.2333 297.4 73.7C297.4 73.6 297.8 74.2 296.9 75.5L295.6 77L294.3 77.5C294.6 78.4 294.7 78.8 296.1 79C293.1 81.2 292.7 84.7 295.1 87.7L296 86.2C296.011 87.1585 296.366 88.0812 297 88.8C297.2 89.1 297.4 90.8 297.8 91.2L298.8 92.2C298.8 92.2 299.1 90.9 299.7 90.7L301.7 90.1C302.6 89.8 303.8 88.2 303.8 88.2L303.6 90.2C307.6 88.8 308.6 86 307.6 82.3Z" stroke="#806600" style="stroke:#806600;stroke:color(display-p3 0.5020 0.4000 0.0000);stroke-opacity:1;" stroke-width="0.2" stroke-miterlimit="135.2"/>
<path id="Vector_20" d="M297.8 70.2C297.449 70.6639 297.241 71.2198 297.2 71.8L298.2 73.5L298.6 71.1C298.6 70.7 297.8 70.1 297.8 70.1V70.2ZM299.9 72.3L299.6 72.4C299.4 72.5333 299.2 72.7333 299 73L299.8 72.6H300.1C300.5 72.9333 300.9 73.1666 301.3 73.3H303.2L303 74.1C303 74.1 302.3 74.3 302 74.6L301.7 75L301.4 75.3V76.1H301.6C302.067 76.2333 302.334 76.5666 302.4 77.1L302.6 77.3H303.3C303.634 76.9666 304.067 76.8666 304.6 77H304.7L304.8 76.9C305 76.7666 305.067 76.5666 305 76.3V76L304.9 75.4L304.5 74.4L304.6 73.5C305.047 74.0037 305.591 74.4118 306.2 74.7L307.6 74.8L307.9 75L308.4 75.6C308.4 75.2666 308.334 75 308.2 74.8C308.067 74.6666 307.9 74.6 307.7 74.6C307.234 74.5333 306.8 74.4666 306.4 74.4C305.831 74.1851 305.318 73.8431 304.9 73.4L304.6 73.2L304.5 73.4L304.2 74.6L304.6 75.8L304.7 76.5V76.6C304.397 76.5471 304.087 76.5647 303.792 76.6514C303.497 76.7381 303.226 76.8916 303 77.1H302.9C302.64 76.5559 302.222 76.1028 301.7 75.8V75.5L301.8 75.3L302.2 75C302.534 74.7333 302.867 74.4666 303.2 74.2C303.4 73.8666 303.5 73.5333 303.5 73.2V72.8H303.2C302.623 73.0034 302.008 73.0718 301.4 73L300.2 72.4H299.9V72.3ZM298.9 73.7C298.726 73.9429 298.609 74.2218 298.557 74.5159C298.505 74.8101 298.52 75.1122 298.6 75.4C298.934 75.8 299.334 76.0666 299.8 76.2L299.7 76.4L299.5 77.2C299.634 77.7333 299.9 78.2 300.3 78.6C300.673 78.8811 301.133 79.0226 301.6 79L302.4 78.6L303 79.4C303.386 79.6458 303.845 79.7517 304.3 79.7C304.72 79.671 305.12 79.5105 305.443 79.2412C305.766 78.9719 305.996 78.6075 306.1 78.2V78.1C306.576 78.206 307.073 78.1349 307.5 77.9C307.9 77.4333 308.134 76.9 308.2 76.3C307.8 76.6 308.2 77.1 307.2 77.7C307.037 77.8075 306.846 77.8648 306.65 77.8648C306.455 77.8648 306.263 77.8075 306.1 77.7L305.7 77.4V78.4L305.4 78.9C305.067 79.2333 304.667 79.4 304.2 79.4L303.4 79.2L302.8 78.4V77.9L302.5 78.2L302 78.5L301.5 78.6L300.6 78.3C300.194 78.0134 299.908 77.5855 299.8 77.1L300 76.6L300.2 76.2L300.4 75.8H300C299.792 75.8171 299.583 75.7685 299.404 75.6608C299.224 75.5532 299.083 75.392 299 75.2C298.4 74.6 299 74.2 298.9 73.7ZM310.9 73.9C310.9 73.9 309.9 73.9 309.6 74.3L308.8 76.6L310.4 75.6C310.734 75.0966 310.908 74.5041 310.9 73.9Z" fill="#806600" style="fill:#806600;fill:color(display-p3 0.5020 0.4000 0.0000);fill-opacity:1;"/>
<path id="Vector_21" d="M301 73.1C300.882 73.123 300.773 73.1813 300.688 73.2673C300.603 73.3532 300.546 73.4628 300.524 73.5816C300.503 73.7005 300.517 73.8231 300.567 73.9334C300.616 74.0438 300.697 74.1367 300.8 74.2C300.878 74.2731 300.974 74.324 301.079 74.3474C301.183 74.3708 301.292 74.366 301.394 74.3333C301.495 74.3006 301.587 74.2414 301.658 74.1616C301.729 74.0819 301.778 73.9845 301.799 73.8797C301.82 73.7748 301.812 73.6663 301.777 73.5653C301.742 73.4642 301.681 73.3744 301.599 73.3051C301.518 73.2358 301.419 73.1895 301.314 73.171C301.209 73.1525 301.1 73.1625 301 73.2V73.1ZM306.4 74.7C306.305 74.7357 306.22 74.7953 306.153 74.8731C306.087 74.9508 306.042 75.0442 306.022 75.1443C306.002 75.2445 306.008 75.348 306.039 75.4453C306.07 75.5425 306.126 75.6302 306.2 75.7C306.278 75.7731 306.374 75.824 306.479 75.8474C306.583 75.8708 306.692 75.866 306.794 75.8333C306.895 75.8006 306.987 75.7414 307.058 75.6616C307.129 75.5819 307.178 75.4845 307.199 75.3797C307.22 75.2748 307.212 75.1663 307.177 75.0653C307.142 74.9642 307.081 74.8744 306.999 74.8051C306.918 74.7358 306.819 74.6895 306.714 74.671C306.609 74.6525 306.5 74.6625 306.4 74.7Z" fill="#2B2200" style="fill:#2B2200;fill:color(display-p3 0.1686 0.1333 0.0000);fill-opacity:1;"/>
<path id="Vector_22" d="M280.2 91.5C279.7 91.8 279 91.3 277.5 92.5C277.954 92.3533 278.445 92.3735 278.885 92.5568C279.325 92.7401 279.685 93.0746 279.9 93.5C280.233 93.5 280.5 93.3 280.7 92.9C280.767 92.7766 280.807 92.6407 280.817 92.5009C280.828 92.3611 280.809 92.2207 280.762 92.0887C280.715 91.9566 280.64 91.836 280.544 91.7346C280.447 91.6332 280.33 91.5533 280.2 91.5ZM314.1 93.1C313.6 93.4 312.9 92.9 311.4 94.1C311.854 93.9533 312.345 93.9735 312.785 94.1568C313.225 94.3401 313.585 94.6746 313.8 95.1C313.964 95.0889 314.123 95.0375 314.263 94.9503C314.402 94.863 314.518 94.7427 314.6 94.6C314.685 94.4732 314.74 94.3286 314.76 94.1774C314.781 94.0261 314.766 93.8722 314.718 93.7274C314.67 93.5826 314.589 93.4508 314.482 93.3421C314.375 93.2333 314.244 93.1505 314.1 93.1ZM277.7 95.1C277.3 95.4 276.5 95.3 275.6 97C275.962 96.6901 276.423 96.5199 276.9 96.5199C277.377 96.5199 277.838 96.6901 278.2 97C278.533 96.8 278.7 96.4667 278.7 96C278.7 95.7348 278.595 95.4804 278.407 95.2929C278.22 95.1054 277.965 95 277.7 95V95.1ZM314.7 97.7C314.3 98.1 313.5 98 312.8 99.7C313.132 99.3866 313.56 99.1958 314.015 99.1595C314.47 99.1231 314.923 99.2432 315.3 99.5C315.7 99.3667 315.867 99.1 315.8 98.7C315.803 98.55 315.772 98.4013 315.71 98.2648C315.648 98.1283 315.556 98.0076 315.44 97.9115C315.325 97.8155 315.19 97.7466 315.044 97.71C314.899 97.6734 314.747 97.67 314.6 97.7H314.7ZM280.1 99L279.5 99.2C279.3 99.7 278.6 100 278.7 101.9C278.858 101.461 279.164 101.09 279.565 100.853C279.967 100.615 280.439 100.526 280.9 100.6C281.167 100.267 281.167 99.9333 280.9 99.6C280.831 99.4386 280.721 99.2981 280.58 99.1928C280.44 99.0875 280.274 99.021 280.1 99ZM353.9 99.3H353.4C353.3 99.8 352.4 100.1 352.3 102C352.515 101.575 352.875 101.24 353.315 101.057C353.755 100.873 354.247 100.853 354.7 101C354.833 100.6 354.9 100.233 354.9 99.9C354.817 99.708 354.676 99.5468 354.497 99.4391C354.317 99.3315 354.109 99.2828 353.9 99.3ZM318.7 100.5L318.1 100.8C318.1 101.3 317.3 101.6 317.6 103.5C317.732 103.079 318 102.713 318.362 102.459C318.723 102.206 319.159 102.08 319.6 102.1C319.8 101.633 319.8 101.3 319.6 101.1C319.531 100.939 319.421 100.798 319.28 100.693C319.14 100.587 318.974 100.521 318.8 100.5H318.7ZM362.5 100.7C362.292 100.683 362.083 100.732 361.904 100.839C361.724 100.947 361.583 101.108 361.5 101.3C361.7 101.8 361.2 102.5 362.3 104C362.187 103.549 362.235 103.072 362.436 102.652C362.637 102.232 362.978 101.896 363.4 101.7C363.426 101.502 363.392 101.302 363.303 101.124C363.214 100.945 363.074 100.798 362.9 100.7H362.5ZM357.7 101.3C357.5 101.3 357.267 101.433 357 101.7C357 102.1 356.4 102.7 357.1 104.5C357.159 104.038 357.351 103.602 357.652 103.247C357.954 102.892 358.353 102.632 358.8 102.5C358.847 102.322 358.844 102.134 358.791 101.958C358.738 101.781 358.637 101.623 358.5 101.5L357.7 101.3Z" fill="#377BC8" stroke="#2C5AA0" style="fill:#377BC8;fill:color(display-p3 0.2157 0.4824 0.7843);fill-opacity:1;stroke:#2C5AA0;stroke:color(display-p3 0.1725 0.3529 0.6275);stroke-opacity:1;" stroke-width="0.2" stroke-miterlimit="135.2"/>
<path id="Vector_23" d="M295.2 127C294.454 127.038 293.708 126.936 293 126.7C292.386 126.204 291.877 125.593 291.5 124.9H289L287 123.9C287.783 123.782 288.514 123.434 289.1 122.9L286.7 122.6L284.7 121.3C285.4 121.1 286.2 121.1 286.7 120.5L284.6 120.2L282.8 119C283.216 118.995 283.626 118.903 284.005 118.731C284.384 118.559 284.723 118.31 285 118L282.7 117.8L280.5 116.3C281.343 116.359 282.183 116.149 282.9 115.7L282.4 114.7C281.8 113.5 280.6 113.9 279.8 113.6C279.458 113.476 279.157 113.262 278.928 112.98C278.699 112.699 278.551 112.36 278.5 112C278.4 111.1 278.8 109.8 280.8 110C279.8 108.6 280.8 107.5 281.8 107C282.867 106.467 283.733 106.933 284.4 108.4L285.8 107.6C286.095 107.509 286.413 107.519 286.702 107.628C286.991 107.736 287.237 107.937 287.4 108.2C287.6 108.6 287.6 109 287.4 109.4C287.067 109.8 286.733 110.333 286.4 111C286.2 111.8 287 113.4 287 113.4C287 113.4 290.8 116.4 292.5 118L295.1 120.7H298.9L299.2 127H295.2Z" fill="#FFD700" stroke="#806600" style="fill:#FFD700;fill:color(display-p3 1.0000 0.8431 0.0000);fill-opacity:1;stroke:#806600;stroke:color(display-p3 0.5020 0.4000 0.0000);stroke-opacity:1;" stroke-width="0.2" stroke-miterlimit="128.6"/>
<path id="Vector_24" d="M284.8 106.3C285.133 106.569 285.371 106.937 285.479 107.351C285.587 107.765 285.559 108.203 285.4 108.6C285.667 108.933 286 109.067 286.4 109C286.631 108.91 286.82 108.737 286.931 108.516C287.042 108.294 287.067 108.039 287 107.8C286.6 107.4 286.6 106.8 284.8 106.3ZM280.6 106.8H279.4C279.859 106.893 280.27 107.145 280.562 107.51C280.855 107.876 281.01 108.332 281 108.8C281.152 108.888 281.325 108.934 281.5 108.934C281.676 108.934 281.848 108.888 282 108.8C282.107 108.706 282.192 108.591 282.25 108.461C282.309 108.332 282.339 108.192 282.339 108.05C282.339 107.908 282.309 107.768 282.25 107.639C282.192 107.509 282.107 107.394 282 107.3C281.8 107.3 281.4 106.8 280.6 106.8ZM279.3 110.8C278.8 110.8 278.2 110.5 276.7 111.6C277.126 111.504 277.571 111.55 277.968 111.73C278.365 111.911 278.693 112.216 278.9 112.6C279.367 112.6 279.667 112.433 279.8 112.1C279.902 111.861 279.907 111.591 279.814 111.349C279.72 111.106 279.536 110.909 279.3 110.8Z" fill="#377BC8" stroke="#2C5AA0" style="fill:#377BC8;fill:color(display-p3 0.2157 0.4824 0.7843);fill-opacity:1;stroke:#2C5AA0;stroke:color(display-p3 0.1725 0.3529 0.6275);stroke-opacity:1;" stroke-width="0.2" stroke-miterlimit="128.6"/>
<path id="Vector_25" d="M316.6 130C316 129.8 315.2 128.9 314.5 128.9C314.172 128.922 313.854 129.025 313.575 129.199C313.296 129.374 313.064 129.615 312.9 129.9C312.853 130.4 312.995 130.9 313.3 131.3L314.5 132.2L313.7 133.6C313.652 133.813 313.675 134.035 313.765 134.234C313.855 134.433 314.008 134.596 314.2 134.7C314.6 135.2 314.6 135.4 315.4 135.5L316.6 135.4C316.6 135.8 316.7 136.133 316.9 136.4C317.089 136.73 317.368 136.999 317.704 137.177C318.041 137.354 318.421 137.431 318.8 137.4C319.333 137.4 319.733 137.233 320 136.9C320.2 136.5 320.2 135.5 320.6 135.1L322.4 133.5C323.2 134 323.1 134.6 323 135.4L324.5 134.2L325 132.3C325.31 132.522 325.551 132.829 325.692 133.183C325.834 133.537 325.871 133.925 325.8 134.3L327.4 133.1L328.1 131.4C328.34 131.667 328.504 131.993 328.574 132.345C328.644 132.697 328.619 133.061 328.5 133.4C329.13 132.973 329.673 132.43 330.1 131.8L330.6 130.4C332.2 130.333 333.067 129.9 333.2 129.1C333.2 128.6 332.6 127.8 331.4 127.6L330.7 126.4V125.3C331.05 124.59 331.565 123.973 332.2 123.5L334.9 121.9L334.3 119.3L328.1 118.3L321.1 120C322.4 120.6 325.2 122.6 325.1 123.4C324.9 123.6 324.2 123.9 324 124.2C323.867 124.667 323.933 125 324.2 125.2C324.5 125.7 325.2 125.8 325.4 126.1C325.488 126.252 325.534 126.424 325.534 126.6C325.534 126.776 325.488 126.948 325.4 127.1C325 127.8 323.4 128 322.6 128.3L318.8 130.3C318.046 130.334 317.294 130.198 316.6 129.9V130Z" fill="#FFD700" stroke="#806600" style="fill:#FFD700;fill:color(display-p3 1.0000 0.8431 0.0000);fill-opacity:1;stroke:#806600;stroke:color(display-p3 0.5020 0.4000 0.0000);stroke-opacity:1;" stroke-width="0.2" stroke-miterlimit="128.6"/>
<path id="Vector_26" d="M331.4 121.4C331.4 121.4 331.3 123.7 330.4 124.2C329.96 124.495 329.42 124.603 328.9 124.5C328.513 124.238 328.23 123.849 328.1 123.4L327.8 122.4L325.5 121.7C324.379 121.757 323.27 121.958 322.2 122.3C322.745 121.12 323.568 120.09 324.6 119.3L328.4 119L331.4 121.4Z" fill="#FFD700" stroke="#806600" style="fill:#FFD700;fill:color(display-p3 1.0000 0.8431 0.0000);fill-opacity:1;stroke:#806600;stroke:color(display-p3 0.5020 0.4000 0.0000);stroke-opacity:1;" stroke-width="0.2" stroke-miterlimit="128.6"/>
<path id="Vector_27" d="M341.4 106.5C342.4 106.4 344.6 105.9 345.4 105.3L346.6 104C346.6 106 345.4 107.467 343 108.4C341.114 109.086 339.094 109.325 337.1 109.1L333.6 108.3C334.9 109.8 334.2 110.7 332.6 111.3C332.6 111.3 332.9 110 332.4 109.8C331.4 109.4 330.2 110 329 110.6C328.118 110.991 327.165 111.195 326.2 111.2C325.045 111.253 323.891 111.083 322.8 110.7C322 110.5 320.6 109.4 320.1 109.5C318.8 109.8 317.3 109.9 316.6 110.9C316.47 111.073 316.4 111.284 316.4 111.5C316.4 111.716 316.47 111.927 316.6 112.1C317.248 112.822 318.136 113.284 319.1 113.4C321.766 114 324.433 114.1 327.1 113.7C329.9 113.3 333.3 112.5 336.1 112L344.9 110C347.658 109.409 350.481 109.173 353.3 109.3C358.3 109.3 359.9 111.8 359.8 114.4C359.6 117.2 356.6 118.4 354 119.2C349.4 120.6 343.2 119.8 339.3 119.7L341.2 121.1C341.9 121.7 342.2 122.8 343.2 123.1C344.3 123.4 346.2 122.7 347.4 122.6L352.2 122.7C352.466 122.367 352.866 122.1 353.4 121.9H354.4C355.066 122.1 355.333 122.733 355.2 123.8L356.1 124.3C356.7 124.5 357.4 124.3 357.8 124.5L359.3 125.1L357.8 125.7L357.2 126.3L359.2 126.6C359.533 126.8 359.866 127.133 360.2 127.6H359L358.2 128.3C358.2 128.3 359.8 128.2 360.4 128.6L361.4 129.6L360.2 129.8L359.4 130.1L361 131.2L361.5 132.8L360.5 132.2H359.7L359.9 134.3C359.9 134.8 360.7 135.4 360.9 135.8C361.1 136.333 361.033 136.733 360.7 137C360.454 137.275 360.137 137.476 359.784 137.582C359.431 137.688 359.056 137.694 358.7 137.6L357.7 137L356.9 138C356.566 138.333 356.133 138.433 355.6 138.3C355.133 138.323 354.673 138.181 354.3 137.9L353.7 136.4L352.2 136.7C351.931 136.683 351.669 136.613 351.428 136.493C351.188 136.372 350.974 136.205 350.8 136C350.705 135.719 350.674 135.421 350.709 135.128C350.743 134.834 350.843 134.551 351 134.3C351.4 133.8 352.6 133.8 353.2 133.5L354.6 132.3L351.1 129.4L349.5 127.4L345 128.4C343.007 128.641 340.993 128.641 339 128.4C334.4 128.4 331.4 122.1 327.3 120.6C326.262 120.249 325.138 120.249 324.1 120.6C319.3 121.6 314.2 127 309.5 128.2C307.518 128.57 305.513 128.804 303.5 128.9C303.182 129.518 302.74 130.063 302.2 130.5C301.4 130.833 300.6 131 299.8 131L298.8 133.1C298.212 133.645 297.536 134.084 296.8 134.4C297.133 133.6 297.133 132.867 296.8 132.2L295.5 134.1L293.5 135.2C293.5 134.6 293.8 133.9 293.5 133.2L292.2 134.9C291.666 135.367 291.033 135.7 290.3 135.9C290.515 135.573 290.629 135.191 290.629 134.8C290.629 134.409 290.515 134.027 290.3 133.7L289.2 135.4L286.8 136.7C287.133 135.9 287.233 135.167 287.1 134.5H286C284.7 134.5 284.6 135.6 283.9 136.2C283.245 136.612 282.457 136.755 281.7 136.6C280.8 136.2 280 135.2 281.1 133.6C279.2 133.9 278.3 132.7 278.3 131.6C278.3 130.7 278.6 129.8 280.5 129.9L280.3 128.6C280.392 128.283 280.593 128.009 280.867 127.826C281.142 127.643 281.472 127.563 281.8 127.6C282.2 127.533 282.566 127.667 282.9 128C283.3 128.4 283.4 129 284.1 129.6C284.926 129.924 285.814 130.061 286.7 130C288.574 129.006 290.511 128.138 292.5 127.4C293.8 127 297.3 126.4 297.3 126.4V117.7H300.4C303 117.7 309.7 118.7 309.7 118.7L314.5 118.4C314.5 118.4 322.5 117.2 326.5 116.8C328.392 116.594 330.297 116.527 332.2 116.6C335.2 116.7 337.6 117.4 340.3 117.6C342.433 117.8 344.5 117.867 346.5 117.8C349.8 117.7 355.7 117.8 357.5 114.8C357.682 114.423 357.742 113.998 357.67 113.586C357.598 113.173 357.399 112.793 357.1 112.5C356.72 112.106 356.24 111.823 355.711 111.682C355.183 111.541 354.625 111.547 354.1 111.7C353.5 111.8 352.6 112.3 352.6 112.9C352.533 113.3 352.6 113.667 352.8 114L353.8 114.8C353.118 114.873 352.43 114.77 351.8 114.5C351.226 113.898 350.783 113.183 350.5 112.4C350.159 112.785 349.98 113.286 350 113.8C349.988 114.102 350.045 114.403 350.166 114.68C350.287 114.958 350.47 115.204 350.7 115.4C349.869 115.379 349.065 115.099 348.4 114.6C347.987 113.954 347.683 113.245 347.5 112.5C347.264 112.676 347.071 112.901 346.933 113.161C346.794 113.42 346.715 113.707 346.7 114C346.766 114.533 346.966 115.067 347.3 115.6C346.557 115.392 345.873 115.016 345.3 114.5C344.868 113.864 344.563 113.151 344.4 112.4L335.9 114C332.925 114.669 329.922 115.203 326.9 115.6C322.433 116.2 318.833 115.933 316.1 114.8C314.7 114.333 313.833 113.533 313.5 112.4C313.402 111.919 313.424 111.421 313.563 110.95C313.703 110.48 313.956 110.05 314.3 109.7C315.619 108.43 317.293 107.593 319.1 107.3C321.866 106.603 324.671 106.069 327.5 105.7C330.508 105.441 333.538 105.61 336.5 106.2C337.9 106.3 339.3 106 339.7 105.6C340.1 105.2 340.7 104.8 339.9 103.8C340.633 103.8 341.166 104.2 341.5 105C341.8 105.4 341.5 106.6 341.5 106.6L341.4 106.5Z" fill="#FFD700" style="fill:#FFD700;fill:color(display-p3 1.0000 0.8431 0.0000);fill-opacity:1;"/>
<path id="Vector_28" d="M341.4 106.5C342.4 106.4 344.6 105.9 345.4 105.3L346.6 104C346.6 106 345.4 107.467 343 108.4C341.114 109.086 339.094 109.325 337.1 109.1L333.6 108.3C334.9 109.8 334.2 110.7 332.6 111.3C332.6 111.3 332.9 110 332.4 109.8C331.4 109.4 330.2 110 329 110.6C328.118 110.991 327.165 111.195 326.2 111.2C325.045 111.253 323.891 111.083 322.8 110.7C322 110.5 320.6 109.4 320.1 109.5C318.8 109.8 317.3 109.9 316.6 110.9C316.47 111.073 316.4 111.284 316.4 111.5C316.4 111.716 316.47 111.927 316.6 112.1C317.248 112.822 318.136 113.284 319.1 113.4C321.766 114 324.433 114.1 327.1 113.7C329.9 113.3 333.3 112.5 336.1 112L344.9 110C347.658 109.409 350.481 109.173 353.3 109.3C358.3 109.3 359.9 111.8 359.8 114.4C359.6 117.2 356.6 118.4 354 119.2C349.4 120.6 343.2 119.8 339.3 119.7L341.2 121.1C341.9 121.7 342.2 122.8 343.2 123.1C344.3 123.4 346.2 122.7 347.4 122.6L352.2 122.7C352.466 122.367 352.866 122.1 353.4 121.9H354.4C355.066 122.1 355.333 122.733 355.2 123.8L356.1 124.3C356.7 124.5 357.4 124.3 357.8 124.5L359.3 125.1L357.8 125.7L357.2 126.3L359.2 126.6C359.533 126.8 359.866 127.133 360.2 127.6H359L358.2 128.3C358.2 128.3 359.8 128.2 360.4 128.6L361.4 129.6L360.2 129.8L359.4 130.1L361 131.2L361.5 132.8L360.5 132.2H359.7L359.9 134.3C359.9 134.8 360.7 135.4 360.9 135.8C361.1 136.333 361.033 136.733 360.7 137C360.454 137.275 360.137 137.476 359.784 137.582C359.431 137.688 359.056 137.694 358.7 137.6L357.7 137L356.9 138C356.54 138.317 356.079 138.494 355.6 138.5C355.107 138.467 354.644 138.254 354.3 137.9L353.7 136.4L352.2 136.7C351.931 136.683 351.669 136.613 351.428 136.493C351.188 136.372 350.974 136.205 350.8 136C350.705 135.719 350.674 135.421 350.709 135.128C350.743 134.834 350.843 134.551 351 134.3C351.4 133.8 352.6 133.8 353.2 133.5L354.6 132.3L351.1 129.4L349.5 127.4L345 128.4C343.007 128.641 340.993 128.641 339 128.4C334.4 128.4 331.4 122.1 327.3 120.6C326.262 120.249 325.138 120.249 324.1 120.6C319.3 121.6 314.2 127 309.5 128.2C307.518 128.57 305.513 128.804 303.5 128.9C303.182 129.518 302.74 130.063 302.2 130.5C301.435 130.807 300.623 130.976 299.8 131L298.8 133.1C298.212 133.645 297.536 134.084 296.8 134.4C297.133 133.6 297.133 132.867 296.8 132.2L295.5 134.1L293.5 135.2C293.5 134.6 293.8 133.9 293.5 133.2L292.2 134.9C291.666 135.367 291.033 135.7 290.3 135.9C290.515 135.573 290.629 135.191 290.629 134.8C290.629 134.409 290.515 134.027 290.3 133.7L289.2 135.4L286.8 136.7C287.133 135.9 287.233 135.167 287.1 134.5H286C284.7 134.5 284.6 135.6 283.9 136.2C283.245 136.612 282.457 136.755 281.7 136.6C280.7 136.2 280 135.2 281.1 133.6C279.2 133.9 278.3 132.7 278.3 131.6C278.3 130.7 278.6 129.8 280.5 129.9L280.3 128.6C280.392 128.283 280.593 128.009 280.867 127.826C281.142 127.643 281.472 127.563 281.8 127.6C282.2 127.533 282.566 127.667 282.9 128C283.3 128.4 283.4 129 284.1 129.6C284.926 129.924 285.814 130.061 286.7 130C288.574 129.006 290.511 128.138 292.5 127.4C293.8 127 297.3 126.4 297.3 126.4V117.7H300.4C303 117.7 309.7 118.7 309.7 118.7L314.5 118.4C314.5 118.4 322.5 117.2 326.5 116.8C328.392 116.594 330.297 116.527 332.2 116.6C335.2 116.7 337.6 117.4 340.3 117.6C342.433 117.8 344.5 117.867 346.5 117.8C349.8 117.7 355.7 117.8 357.5 114.8C357.682 114.423 357.742 113.998 357.67 113.586C357.598 113.173 357.399 112.793 357.1 112.5C356.72 112.106 356.24 111.823 355.711 111.682C355.183 111.541 354.625 111.547 354.1 111.7C353.5 111.8 352.6 112.3 352.6 112.9C352.54 113.069 352.528 113.251 352.563 113.427C352.598 113.603 352.68 113.767 352.8 113.9L353.8 114.8C353.046 114.834 352.294 114.698 351.6 114.4C351.047 113.854 350.664 113.159 350.5 112.4C350.159 112.785 349.98 113.286 350 113.8C349.988 114.102 350.045 114.403 350.166 114.68C350.287 114.958 350.47 115.204 350.7 115.4C349.869 115.379 349.065 115.099 348.4 114.6C347.987 113.954 347.683 113.245 347.5 112.5C347.264 112.676 347.071 112.901 346.933 113.161C346.794 113.42 346.715 113.707 346.7 114C346.766 114.533 346.966 115.067 347.3 115.6C346.557 115.392 345.873 115.016 345.3 114.5C344.868 113.864 344.563 113.151 344.4 112.4L335.9 114C332.925 114.669 329.922 115.203 326.9 115.6C322.433 116.2 318.833 115.933 316.1 114.8C314.7 114.333 313.833 113.533 313.5 112.4C313.402 111.919 313.424 111.421 313.563 110.95C313.703 110.48 313.956 110.05 314.3 109.7C315.619 108.43 317.293 107.593 319.1 107.3C321.866 106.603 324.671 106.069 327.5 105.7C330.508 105.441 333.538 105.61 336.5 106.2C337.9 106.3 339.3 106.1 339.7 105.6C340.1 105.1 340.7 104.8 339.9 103.8C340.633 103.8 341.166 104.2 341.5 105C341.8 105.4 341.5 106.6 341.5 106.6L341.4 106.5Z" fill="#FFD700" stroke="#806600" style="fill:#FFD700;fill:color(display-p3 1.0000 0.8431 0.0000);fill-opacity:1;stroke:#806600;stroke:color(display-p3 0.5020 0.4000 0.0000);stroke-opacity:1;" stroke-width="0.2" stroke-miterlimit="128.6"/>
<path id="Vector_29" d="M307 118.8C308 119.4 309 118.6 309.3 118.6C308.94 118.271 308.665 117.859 308.5 117.4L308.2 115.6C308.2 114 308.7 113.8 308.8 114L310.2 113.2C310.6 112.867 310.867 112.433 311 111.9L310.8 110C309.3 110 309 110.2 308.6 110.6L308.3 109.1L307.8 107.9L307.2 107.4C307.2 107.867 307 108.2 306.6 108.4L306.2 106.4C306.131 106.136 305.996 105.895 305.807 105.698C305.619 105.501 305.383 105.356 305.123 105.276C304.862 105.196 304.586 105.184 304.319 105.24C304.053 105.297 303.805 105.421 303.6 105.6L302 107.1L302.2 105.9L301.4 106.1L300.4 106.8L299.3 107.9C299.433 107.367 298.9 106.8 297.7 106.2L296.6 107.8C296.399 108.239 296.363 108.737 296.5 109.2L297.3 110.6C297.4 110.6 297.8 111 296.9 112.3L295.7 113.7C295.3 114.033 294.867 114.2 294.4 114.2C294.8 115 294.9 115.4 296.2 115.6C293.2 117.6 293 121 295.2 123.9C295.4 123.367 295.7 122.9 296.1 122.5C296.078 123.4 296.36 124.28 296.9 125C297.2 125.3 297.4 126.8 297.7 127.3L298.7 128.3C298.7 128.3 299 127 299.6 126.8L301.6 126.2C302.368 125.764 303.047 125.188 303.6 124.5L303.3 126.3C306.967 124.9 308.2 122.4 307 118.8Z" fill="#FFD700" style="fill:#FFD700;fill:color(display-p3 1.0000 0.8431 0.0000);fill-opacity:1;"/>
<path id="Vector_30" d="M299.6 114C299.683 115.38 299.408 116.758 298.8 118L301.4 119L303.8 119.2C303.6 118.2 304.6 116.2 305 115.6H303.3L302.5 114.8L301 115.1L299.6 114.1V114Z" fill="#504416" style="fill:#504416;fill:color(display-p3 0.3137 0.2667 0.0863);fill-opacity:1;"/>
<path id="Vector_31" d="M300 114.7C299.794 115.317 299.794 115.983 300 116.6L300.7 115L300 114.7ZM303.6 115.8L303.4 117.5C303.897 117.088 304.248 116.527 304.4 115.9H303.6V115.8ZM300 117C299.54 117.426 299.226 117.986 299.1 118.6L299.8 118.7L300 117ZM303.2 118L302.4 119.5L303.1 119.8C303.306 119.183 303.306 118.517 303.1 117.9L303.2 118ZM300.3 109.8C299.833 109.8 299.533 109.933 299.4 110.2C299.333 110.733 299.667 111.167 300.4 111.5C300.694 111.61 301.018 111.61 301.313 111.5C301.607 111.39 301.851 111.176 302 110.9C302 110.367 301.633 110.033 300.9 109.9L300.3 109.8ZM305.5 111.2C305.167 111.2 304.9 111.333 304.7 111.6C304.668 111.915 304.751 112.231 304.935 112.489C305.12 112.747 305.391 112.929 305.7 113C306.567 113.267 307.067 113.1 307.2 112.5C307.4 111.967 307.067 111.6 306.2 111.4L305.4 111.2H305.5Z" fill="white" style="fill:white;fill-opacity:1;"/>
<path id="Vector_32" d="M300.3 109.6H299.9C299.781 109.661 299.675 109.746 299.589 109.849C299.503 109.952 299.439 110.072 299.4 110.2C299.333 110.533 299.367 110.8 299.5 111C299.7 111.333 299.967 111.533 300.3 111.6C300.645 111.731 301.027 111.72 301.365 111.57C301.702 111.42 301.966 111.144 302.1 110.8C302.072 110.571 301.966 110.359 301.8 110.2L300.8 109.7L300.3 109.6ZM300.3 109.8L300.8 109.9L301.6 110.3C301.69 110.343 301.76 110.419 301.797 110.511C301.834 110.604 301.835 110.707 301.8 110.8C301.757 110.938 301.685 111.066 301.588 111.173C301.491 111.281 301.372 111.366 301.239 111.423C301.106 111.481 300.962 111.508 300.817 111.504C300.672 111.5 300.53 111.464 300.4 111.4L299.7 111C299.548 110.8 299.476 110.55 299.5 110.3L299.9 109.9L300.3 109.8ZM305.5 111.1H305.3C305.153 111.126 305.015 111.184 304.894 111.271C304.772 111.357 304.672 111.47 304.6 111.6C304.572 111.784 304.581 111.972 304.626 112.153C304.671 112.333 304.752 112.503 304.864 112.652C304.976 112.801 305.116 112.926 305.277 113.02C305.437 113.114 305.615 113.176 305.8 113.2H306.8C307.067 113 307.267 112.767 307.4 112.5C307.412 112.353 307.392 112.205 307.34 112.066C307.288 111.928 307.206 111.803 307.1 111.7L306.3 111.3L305.5 111.1ZM305.5 111.4L306.2 111.5C306.467 111.5 306.733 111.633 307 111.9L307.1 112.5L306.6 112.9H305.8C305.65 112.903 305.501 112.872 305.365 112.81C305.228 112.748 305.108 112.656 305.012 112.54C304.916 112.425 304.847 112.29 304.81 112.144C304.773 111.999 304.77 111.847 304.8 111.7C304.8 111.433 304.967 111.333 305.3 111.4H305.5Z" fill="#D1B948" style="fill:#D1B948;fill:color(display-p3 0.8196 0.7255 0.2824);fill-opacity:1;"/>
<path id="Vector_33" d="M300.4 108.6C300.222 108.553 300.034 108.556 299.858 108.609C299.681 108.662 299.523 108.763 299.4 108.9C299.2 109 299.2 109.5 299.2 109.5H299.8L300.3 109.7L301.6 110.2H303L301.8 109.6C301.4 109.4 301 108.7 300.4 108.6ZM307 110.6C306.6 110.4 306 110.7 305.5 110.6L304.2 110.5L305.4 111.3L306.8 111.5L307.4 111.7L307.8 111.9L308 111.4C307.953 111.171 307.828 110.965 307.645 110.819C307.462 110.673 307.234 110.595 307 110.6ZM299 118C297.6 121.2 302.8 122.8 303.6 119.3C301.99 119.209 300.42 118.765 299 118Z" fill="#FFD700" style="fill:#FFD700;fill:color(display-p3 1.0000 0.8431 0.0000);fill-opacity:1;"/>
<path id="Vector_34" d="M298.8 117.6V117.9C298.649 118.265 298.571 118.655 298.571 119.05C298.571 119.445 298.649 119.835 298.8 120.2C299.022 120.743 299.421 121.195 299.933 121.482C300.444 121.77 301.038 121.876 301.617 121.783C302.197 121.69 302.728 121.405 303.124 120.972C303.52 120.539 303.758 119.985 303.8 119.4V119.1H303.6C301.984 119.045 300.406 118.599 299 117.8L298.8 117.7V117.6ZM299 118.1C300.416 118.768 301.94 119.174 303.5 119.3C303.368 119.963 303.015 120.562 302.5 121C301.876 121.295 301.17 121.365 300.5 121.2C299.814 120.944 299.245 120.446 298.9 119.8C298.736 119.245 298.736 118.655 298.9 118.1H299Z" fill="#806600" style="fill:#806600;fill:color(display-p3 0.5020 0.4000 0.0000);fill-opacity:1;"/>
<path id="Vector_35" d="M301.1 115.2C300.291 117.335 300.016 119.635 300.3 121.9C301.9 120.3 302.7 117.9 303.2 115.8L302.7 115.4L302.4 114.9L301.7 115.2H301.1Z" fill="#377BC8" stroke="#2C5AA0" style="fill:#377BC8;fill:color(display-p3 0.2157 0.4824 0.7843);fill-opacity:1;stroke:#2C5AA0;stroke:color(display-p3 0.1725 0.3529 0.6275);stroke-opacity:1;" stroke-width="0.2" stroke-miterlimit="128.6"/>
<path id="Vector_36" d="M305 105.4L303.6 105.6L302 107.1V105.9C301.8 105.9 301.6 105.967 301.4 106.1L300.2 106.8L299.2 107.8C299.8 107.8 300.9 106.8 301.2 107C301.6 107 301.2 108 301.7 108C302.2 108 302.6 107.4 303.2 106.9C303.8 106.367 304.333 106.133 304.8 106.2C305.042 106.355 305.247 106.56 305.403 106.802C305.558 107.044 305.659 107.316 305.7 107.6C305.9 108.467 306.167 109.067 306.5 109.4C306.8 109.6 307.1 108.6 307.5 108.7C307.9 108.8 308.1 110.3 308.5 110.6L308.3 109.1L307.7 107.9L307.2 107.4C307.133 107.8 306.933 108.133 306.6 108.4L306.1 106.4L305 105.4ZM298.7 110.9C298.2 111.7 298.9 112.6 300 112.8L299.5 113.8L300.2 115L301.2 115.4L302.3 115L303 116L304 116.2L305.3 115.4L305.8 114.6H306.6L307.2 114.2L307.4 113.4C306.733 114.067 305.933 114.2 305 113.8C305.023 114.267 304.881 114.727 304.6 115.1C304.467 115.22 304.304 115.302 304.128 115.337C303.952 115.372 303.769 115.359 303.6 115.3C303.136 115.145 302.744 114.825 302.5 114.4C302.033 114.667 301.667 114.8 301.4 114.8C301.16 114.737 300.94 114.611 300.765 114.436C300.589 114.26 300.463 114.04 300.4 113.8C300.378 113.333 300.519 112.873 300.8 112.5C298.4 111.8 299.2 111.2 298.8 110.9H298.7ZM297.5 111.1L295.7 113.7C295.3 114.033 294.867 114.2 294.4 114.2C294.8 115 294.9 115.4 296.2 115.6C293.2 117.6 293 121 295.2 123.9C295.4 123.367 295.7 122.9 296.1 122.5C296.078 123.4 296.36 124.28 296.9 125C297.2 125.3 297.4 126.8 297.7 127.3L298.7 128.3C298.7 128.3 299 127 299.6 126.8L301.6 126.2C302.368 125.765 303.047 125.188 303.6 124.5L303.3 126.3C307.2 125 308.1 122.3 307 118.8C308 119.4 309 118.6 309.3 118.6C308.94 118.271 308.665 117.859 308.5 117.4L308.2 115.6V114.5L307.6 116.1V117.8L305.8 117C306.133 118.2 306.4 119.433 306.6 120.7C306.6 121.567 306.433 122.4 306.1 123.2C305.666 123.852 305.125 124.427 304.5 124.9L304.8 122.6L304.5 119.8L303.7 122.5L302.5 124.5C302.6 122.5 302.5 122.3 302.3 121.6C302.3 121.6 301.8 124.1 301 125.2L299.4 125.9L298.7 126.5L298.1 124.8L296.9 122.6C296.6 121.4 298.1 119 298.1 119C297.5 119.133 296.933 119.6 296.4 120.4L295.1 122L294.6 119.8C294.6 119 294.833 118.3 295.3 117.7C295.9 116.7 298.6 114.7 298.6 114.7C297.697 115.037 296.703 115.037 295.8 114.7L297 113C297.322 112.418 297.494 111.765 297.5 111.1ZM302.5 112.2H301.3V112.7L301.8 113L302.6 114L304.2 113.5L304.5 113.1L303 112.3L302.5 112.2Z" fill="#FFD700" style="fill:#FFD700;fill:color(display-p3 1.0000 0.8431 0.0000);fill-opacity:1;"/>
<path id="Vector_37" d="M307 118.8C308 119.4 309 118.6 309.3 118.6C308.94 118.271 308.665 117.859 308.5 117.4L308.2 115.6C308.2 114 308.7 113.8 308.8 114L310.2 113.2C310.6 112.867 310.867 112.433 311 111.9L310.8 110C309.3 110 309 110.2 308.6 110.6L308.3 109.1L307.8 107.9L307.2 107.4C307.2 107.867 307 108.2 306.6 108.4C306.57 107.813 306.411 107.24 306.135 106.722C305.858 106.203 305.471 105.752 305 105.4C303.8 105.467 302.8 106.033 302 107.1V105.9L301.4 106.1L300.4 106.8L299.3 107.9C299.433 107.367 298.9 106.8 297.7 106.2L296.6 107.8C296.399 108.239 296.363 108.737 296.5 109.2L297.3 110.6C297.4 110.6 297.8 111 296.9 112.3L295.7 113.7C295.3 114.033 294.867 114.2 294.4 114.2C294.8 115 294.9 115.4 296.2 115.6C293.2 117.6 293 121 295.2 123.9C295.4 123.367 295.7 122.9 296.1 122.5C296.078 123.4 296.36 124.28 296.9 125C297.2 125.3 297.4 126.8 297.7 127.3L298.7 128.3C298.7 128.3 299 127 299.6 126.8L301.6 126.2C302.368 125.765 303.047 125.188 303.6 124.5L303.3 126.3C306.967 124.9 308.2 122.4 307 118.8Z" stroke="#806600" style="stroke:#806600;stroke:color(display-p3 0.5020 0.4000 0.0000);stroke-opacity:1;" stroke-width="0.2" stroke-miterlimit="128.6"/>
<path id="Vector_38" d="M297.7 107.2C297.385 107.675 297.211 108.23 297.2 108.8L298.1 110.4L298.6 108.2C298.5 107.8 297.8 107.2 297.8 107.2H297.7ZM299.7 109.2L299.4 109.4C299.134 109.4 299 109.533 299 109.8L299.7 109.6H299.9L301.1 110.2H303L302.7 111L301.8 111.4L301.4 111.8L301.2 112.2V112.8H301.4C301.613 112.843 301.806 112.954 301.951 113.116C302.095 113.278 302.183 113.483 302.2 113.7L302.4 113.9L302.6 114H303C303.138 113.823 303.331 113.697 303.548 113.642C303.766 113.588 303.996 113.608 304.2 113.7H304.3L304.4 113.6L304.7 113V112.6L304.5 112.2C304.5 111.8 304.2 111.2 304.2 111.2L304.3 110.4L305.8 111.5L307.1 111.6C307.3 111.6 307.4 111.667 307.4 111.8L307.8 112.3C307.84 112.167 307.852 112.027 307.834 111.889C307.817 111.752 307.771 111.619 307.7 111.5L307.2 111.3L305.9 111.2L304.5 110.2L304.3 110L304.2 110.2C303.941 110.546 303.8 110.967 303.8 111.4L304.2 112.4L304.4 113.1L304.2 113.4C303.936 113.363 303.667 113.38 303.41 113.449C303.152 113.517 302.911 113.637 302.7 113.8H302.6C302.34 113.256 301.922 112.803 301.4 112.5V112.2L301.6 112.1C301.6 111.9 301.7 111.8 301.9 111.8C302.3 111.533 302.6 111.267 302.8 111C303 110.733 303.134 110.4 303.2 110V109.7H302.9L301.3 109.8C300.9 109.667 300.5 109.5 300.1 109.3H299.8L299.7 109.2ZM298.8 110.6C298.658 110.838 298.566 111.104 298.532 111.379C298.497 111.654 298.521 111.934 298.6 112.2C298.867 112.6 299.2 112.867 299.6 113V113.1C299.467 113.433 299.4 113.7 299.4 113.9C299.467 114.5 299.734 114.933 300.2 115.2C300.534 115.533 300.934 115.667 301.4 115.6L302.2 115.4L302.7 116C303.1 116.267 303.534 116.367 304 116.3C304.372 116.241 304.719 116.078 305.002 115.83C305.285 115.583 305.492 115.26 305.6 114.9V114.7C306.064 114.837 306.561 114.801 307 114.6C307.199 114.405 307.355 114.172 307.458 113.913C307.562 113.655 307.61 113.378 307.6 113.1C307.3 113.4 307.6 113.9 306.8 114.4C306.4 114.6 306.034 114.6 305.7 114.4L305.3 114.1V115L305 115.5C304.734 115.795 304.386 116.004 304 116.1C303.822 116.147 303.634 116.144 303.458 116.091C303.281 116.038 303.123 115.937 303 115.8L302.6 115.1L302.4 114.6L302.2 114.9L301.8 115.1L301.3 115.3C300.9 115.3 300.634 115.2 300.5 115C300.131 114.697 299.883 114.271 299.8 113.8V113.3C299.8 113.1 299.9 112.967 300.1 112.9L300.2 112.6H299.8C299.603 112.626 299.402 112.592 299.224 112.503C299.046 112.414 298.898 112.273 298.8 112.1C298.3 111.4 298.8 111.1 298.8 110.6ZM310.2 110.8C310.2 110.8 309.2 110.8 309 111.2L308.2 113.2L309.8 112.5C310.067 111.9 310.2 111.367 310.2 110.9V110.8Z" fill="#806600" style="fill:#806600;fill:color(display-p3 0.5020 0.4000 0.0000);fill-opacity:1;"/>
<path id="Vector_39" d="M300.8 110C300.654 109.973 300.504 110.006 300.382 110.09C300.26 110.175 300.177 110.304 300.15 110.45C300.124 110.596 300.156 110.746 300.241 110.868C300.325 110.99 300.454 111.073 300.6 111.1C300.666 111.107 300.732 111.1 300.795 111.081C300.858 111.062 300.917 111.031 300.968 110.989C301.019 110.947 301.062 110.896 301.093 110.838C301.124 110.779 301.144 110.716 301.15 110.65C301.157 110.584 301.15 110.518 301.131 110.455C301.112 110.392 301.081 110.333 301.039 110.282C300.997 110.231 300.946 110.188 300.888 110.157C300.83 110.126 300.766 110.107 300.7 110.1L300.8 110ZM305.9 111.6C305.768 111.587 305.635 111.627 305.532 111.711C305.429 111.795 305.363 111.917 305.35 112.05C305.337 112.183 305.377 112.315 305.461 112.418C305.546 112.521 305.668 112.587 305.8 112.6C305.866 112.607 305.932 112.6 305.995 112.581C306.058 112.562 306.117 112.531 306.168 112.489C306.219 112.447 306.262 112.396 306.293 112.338C306.324 112.279 306.344 112.216 306.35 112.15C306.357 112.084 306.35 112.018 306.331 111.955C306.312 111.892 306.281 111.833 306.239 111.782C306.197 111.731 306.146 111.688 306.088 111.657C306.03 111.626 305.966 111.607 305.9 111.6Z" fill="#2B2200" style="fill:#2B2200;fill:color(display-p3 0.1686 0.1333 0.0000);fill-opacity:1;"/>
<path id="Vector_40" d="M281 127.6C280.5 127.8 279.8 127.4 278.5 128.6C278.904 128.485 279.334 128.501 279.729 128.644C280.124 128.788 280.464 129.052 280.7 129.4C280.864 129.389 281.023 129.337 281.163 129.25C281.302 129.163 281.418 129.043 281.5 128.9C281.602 128.661 281.607 128.391 281.514 128.149C281.42 127.906 281.236 127.709 281 127.6ZM313.3 129.1C312.8 129.3 312.2 128.9 310.8 130.1C311.215 129.995 311.652 130.026 312.048 130.188C312.444 130.35 312.778 130.634 313 131C313.467 131 313.733 130.8 313.8 130.4C313.902 130.161 313.907 129.891 313.814 129.649C313.72 129.406 313.536 129.209 313.3 129.1ZM278.6 130.9C278.2 131.2 277.4 131.1 276.6 132.7C276.946 132.44 277.367 132.3 277.8 132.3C278.233 132.3 278.654 132.44 279 132.7C279.4 132.567 279.6 132.3 279.6 131.9C279.6 131.635 279.495 131.38 279.307 131.193C279.12 131.005 278.865 130.9 278.6 130.9ZM313.8 133.4C313.5 133.8 312.8 133.8 312 135.4C312.324 135.11 312.734 134.934 313.167 134.898C313.6 134.862 314.033 134.968 314.4 135.2C314.562 135.131 314.702 135.021 314.807 134.88C314.913 134.74 314.979 134.574 315 134.4C315.003 134.25 314.972 134.101 314.91 133.965C314.848 133.828 314.756 133.708 314.64 133.612C314.525 133.515 314.39 133.447 314.244 133.41C314.099 133.373 313.947 133.37 313.8 133.4ZM281 134.8L280.5 135C280.3 135.4 279.6 135.8 279.7 137.5C279.866 137.116 280.148 136.794 280.507 136.578C280.866 136.363 281.283 136.266 281.7 136.3C281.804 136.157 281.867 135.989 281.885 135.813C281.902 135.638 281.873 135.461 281.8 135.3C281.718 135.157 281.602 135.037 281.463 134.95C281.323 134.862 281.164 134.811 281 134.8ZM351.2 135H350.8C350.6 135.6 349.8 135.8 349.8 137.6C350.002 137.235 350.313 136.943 350.69 136.763C351.066 136.584 351.489 136.527 351.9 136.6C352.167 136.267 352.267 135.933 352.2 135.6C352.117 135.408 351.976 135.247 351.797 135.139C351.617 135.031 351.409 134.983 351.2 135ZM317.8 136.2L317.2 136.5C317.2 137 316.4 137.3 316.7 139.1C316.832 138.679 317.1 138.313 317.462 138.059C317.823 137.806 318.259 137.68 318.7 137.7C318.788 137.548 318.834 137.376 318.834 137.2C318.834 137.024 318.788 136.852 318.7 136.7C318.61 136.543 318.478 136.413 318.319 136.325C318.161 136.237 317.981 136.194 317.8 136.2ZM359.4 136.4C359.192 136.383 358.983 136.431 358.804 136.539C358.624 136.647 358.483 136.808 358.4 137C358.6 137.4 358.2 138 359.3 139.5C359.227 139.089 359.284 138.666 359.463 138.29C359.643 137.913 359.935 137.602 360.3 137.4C360.326 137.202 360.292 137.002 360.203 136.824C360.114 136.645 359.974 136.498 359.8 136.4H359.4ZM355 136.9L354.2 137.3C354.2 137.8 353.6 138.3 354.3 139.9C354.355 139.485 354.539 139.097 354.826 138.792C355.113 138.487 355.489 138.28 355.9 138.2C355.967 137.733 355.9 137.4 355.7 137.2L355 136.9Z" fill="#377BC8" stroke="#2C5AA0" style="fill:#377BC8;fill:color(display-p3 0.2157 0.4824 0.7843);fill-opacity:1;stroke:#2C5AA0;stroke:color(display-p3 0.1725 0.3529 0.6275);stroke-opacity:1;" stroke-width="0.2" stroke-miterlimit="128.6"/>
<path id="Vector_41" d="M303.1 158.7L301.4 158.4L300.2 157H298.2L296.6 156.2C297.202 156.102 297.761 155.823 298.2 155.4L296.3 155.1L294.7 154.1C295.3 153.9 295.9 154 296.3 153.4L294.6 153.2L293.1 152.2C293.435 152.245 293.776 152.204 294.09 152.082C294.405 151.959 294.684 151.759 294.9 151.5L293.1 151.4L291.4 150.2C292.031 150.178 292.648 150.006 293.2 149.7L292.8 148.9C292.4 147.9 291.4 148.2 290.8 148C290.521 147.867 290.277 147.672 290.086 147.429C289.895 147.186 289.763 146.902 289.7 146.6C289.7 145.9 290 144.9 291.5 145C290.7 144 291.5 143 292.4 142.6C293.2 142.4 293.9 142.5 294.4 143.8L295.6 143.1C295.73 143.036 295.872 143 296.017 142.996C296.162 142.992 296.306 143.019 296.439 143.077C296.572 143.134 296.691 143.219 296.788 143.327C296.885 143.434 296.957 143.562 297 143.7V144.6C296.6 144.933 296.334 145.367 296.2 145.9C296.175 146.557 296.313 147.209 296.6 147.8C296.6 147.8 299.6 150.2 301 151.5C301.8 152.2 303 153.7 303 153.7H306L306.3 158.7H303.1Z" fill="#FFD700" stroke="#806600" style="fill:#FFD700;fill:color(display-p3 1.0000 0.8431 0.0000);fill-opacity:1;stroke:#806600;stroke:color(display-p3 0.5020 0.4000 0.0000);stroke-opacity:1;" stroke-width="0.2" stroke-miterlimit="103.2"/>
<path id="Vector_42" d="M294.8 142C295.333 142.667 295.5 143.333 295.3 144C295.411 144.088 295.54 144.152 295.678 144.186C295.816 144.221 295.96 144.225 296.1 144.2C296.273 144.102 296.414 143.955 296.503 143.776C296.592 143.598 296.626 143.398 296.6 143.2C296.2 143 296.2 142.4 294.8 142.1V142ZM291.4 142.5H290.6C290.923 142.638 291.204 142.858 291.414 143.139C291.625 143.42 291.758 143.751 291.8 144.1C291.933 144.14 292.073 144.151 292.21 144.134C292.348 144.117 292.481 144.071 292.6 144C292.707 143.837 292.765 143.646 292.765 143.45C292.765 143.254 292.707 143.063 292.6 142.9C292.3 142.9 292.1 142.5 291.4 142.5ZM290.4 145.7C289.683 145.654 288.973 145.867 288.4 146.3C288.727 146.284 289.053 146.348 289.35 146.488C289.646 146.627 289.904 146.838 290.1 147.1C290.367 147.167 290.567 147.033 290.7 146.7C290.747 146.522 290.744 146.334 290.691 146.158C290.638 145.981 290.537 145.823 290.4 145.7Z" fill="#377BC8" stroke="#2C5AA0" style="fill:#377BC8;fill:color(display-p3 0.2157 0.4824 0.7843);fill-opacity:1;stroke:#2C5AA0;stroke:color(display-p3 0.1725 0.3529 0.6275);stroke-opacity:1;" stroke-width="0.2" stroke-miterlimit="103.2"/>
<path id="Vector_43" d="M318 161C317.4 160.9 316.7 160.2 316.2 160.2C315.678 160.284 315.211 160.572 314.9 161C314.808 161.205 314.788 161.434 314.842 161.652C314.897 161.87 315.023 162.063 315.2 162.2L316.2 162.8L315.5 164C315.5 164.333 315.633 164.633 315.9 164.9C316.1 165.233 316.4 165.433 316.8 165.5L317.9 165.4C317.9 165.733 317.967 166 318.1 166.2C318.286 166.448 318.528 166.65 318.806 166.789C319.083 166.928 319.39 167 319.7 167C320.034 167.133 320.334 167 320.6 166.6C320.667 166.2 320.834 165.733 321.1 165.2L322.5 163.9C323.033 164.3 323.2 164.8 323 165.4L324.2 164.4C324.467 164 324.6 163.533 324.6 163C325.134 163.467 325.334 164 325.2 164.6L326.4 163.6L327 162.2C327.467 162.667 327.6 163.2 327.4 163.8L328.7 162.6L329 161.4C330.333 161.4 331.034 161.067 331.1 160.4C331.167 159.867 330.7 159.467 329.7 159.2L329.2 158.2V157.4C329.472 156.81 329.884 156.295 330.4 155.9L332.6 154.6L332.1 152.5L327.1 151.7L321.4 153.1C322.4 153.5 324.8 155.1 324.6 155.8C324.467 156 324.2 156.267 323.8 156.6C323.667 156.733 323.7 157 323.9 157.4C324.3 157.533 324.633 157.733 324.9 158C324.955 158.126 324.984 158.262 324.984 158.4C324.984 158.538 324.955 158.674 324.9 158.8C324.6 159.3 323.3 159.5 322.6 159.8C321.6 160.2 319.6 161.4 319.6 161.4L317.9 161H318Z" fill="#FFD700" stroke="#806600" style="fill:#FFD700;fill:color(display-p3 1.0000 0.8431 0.0000);fill-opacity:1;stroke:#806600;stroke:color(display-p3 0.5020 0.4000 0.0000);stroke-opacity:1;" stroke-width="0.2" stroke-miterlimit="103.2"/>
<path id="Vector_44" d="M328 154.2C328 154.2 328 156.1 327.3 156.5C326.9 156.767 326.5 156.8 326.1 156.6C325.92 156.546 325.759 156.442 325.635 156.301C325.511 156.159 325.43 155.986 325.4 155.8L325.2 155L323.4 154.5C322.467 154.5 321.567 154.667 320.7 155C321.128 154.001 321.819 153.137 322.7 152.5L325.7 152.2L328.1 154.2H328Z" fill="#FFD700" stroke="#806600" style="fill:#FFD700;fill:color(display-p3 1.0000 0.8431 0.0000);fill-opacity:1;stroke:#806600;stroke:color(display-p3 0.5020 0.4000 0.0000);stroke-opacity:1;" stroke-width="0.2" stroke-miterlimit="103.2"/>
<path id="Vector_45" d="M333.8 142.2C334.6 142.2 336 141.8 336.5 141.2L337.3 140.2C337.296 140.956 337.078 141.696 336.671 142.333C336.264 142.97 335.684 143.479 335 143.8C333.744 144.355 332.353 144.529 331 144.3L328.6 143.8C329.6 144.8 329.1 145.6 328 146.2C328 146.2 328.2 145.2 327.8 145C327.133 144.733 326.433 144.9 325.7 145.5C325.1 145.833 324.433 146.033 323.7 146.1C322.946 146.134 322.194 145.998 321.5 145.7C321 145.4 320.1 144.7 319.8 144.7C319 144.9 317.8 145 317.4 145.7V146.7C317.797 147.234 318.359 147.621 319 147.8C320.8 148.267 322.567 148.333 324.3 148C326.367 147.6 328.4 147.133 330.4 146.6C332.4 146.2 334.7 145.6 336.2 145.1C338.024 144.607 339.913 144.405 341.8 144.5C345 144.5 346.2 146.5 346.1 148.6C345.9 150.8 343.9 151.8 342.2 152.4C339.2 153.5 335 152.9 332.5 152.8L333.8 154C334.2 154.4 334.4 155.4 335 155.6C335.8 155.8 337 155.3 337.8 155.2H341L341.8 154.6H342.6C342.933 154.733 343.067 155.233 343 156.1L343.6 156.6H344.7L345.7 157.2L344.8 157.6L344.3 158.2L345.6 158.3L346.4 159.1L345.6 159.2L345 159.8C345 159.8 346 159.7 346.5 160L347.1 160.8H346.3L345.8 161.2L346.8 162.1C347 162.5 347.1 162.933 347.1 163.4L346.5 162.9L345.9 162.8L346.1 164.6C346.1 165 346.7 165.4 346.8 165.8C346.933 166.133 346.867 166.467 346.6 166.8C346.333 167.267 345.9 167.4 345.3 167.2L344.6 166.8L344.2 167.6C343.933 167.8 343.6 167.867 343.2 167.8L342.5 167.4L342 166.2L341 166.5C340.6 166.5 340.267 166.3 340 165.9C339.87 165.696 339.819 165.451 339.856 165.212C339.893 164.973 340.015 164.756 340.2 164.6C340.6 164.267 341.1 164.067 341.7 164L342.7 163L340.2 160.6L339.2 159C339.2 159 337.2 159.8 336.3 159.8C334.973 159.991 333.626 159.991 332.3 159.8C329.2 159.8 327.2 154.8 324.5 153.6C323.823 153.347 323.077 153.347 322.4 153.6C319.2 154.3 315.8 158.7 312.8 159.6L308.8 160.2L307.9 161.5L306.3 161.8L305.7 163.6L304.4 164.6C304.564 164.045 304.564 163.455 304.4 162.9L303.4 164.3L302.1 165.3C302.21 165.048 302.267 164.775 302.267 164.5C302.267 164.225 302.21 163.952 302.1 163.7L301.3 165L300 165.8C300.125 165.534 300.19 165.244 300.19 164.95C300.19 164.656 300.125 164.366 300 164.1L299.3 165.4L297.7 166.4C297.95 165.835 298.02 165.206 297.9 164.6H297.1C296.1 164.6 296.1 165.6 295.7 166.1C295.259 166.395 294.72 166.503 294.2 166.4C293.467 166.133 293.333 165.367 293.8 164.1C293.566 164.145 293.325 164.137 293.095 164.076C292.865 164.016 292.651 163.906 292.469 163.752C292.287 163.599 292.142 163.407 292.043 163.19C291.945 162.974 291.896 162.738 291.9 162.5C291.833 161.567 292.333 161.067 293.4 161V160C293.467 159.333 293.733 159.033 294.2 159.1C294.533 159.1 294.8 159.233 295 159.5C295.2 159.767 295.467 160.167 295.8 160.7C296.314 160.999 296.906 161.138 297.5 161.1L301.5 159L304.6 158.2V151.2C305.267 151.267 305.933 151.267 306.6 151.2C308.733 151.4 310.8 151.7 312.8 152.1L316 151.8C316 151.8 321.4 150.8 323.8 150.6C325.133 150.333 326.433 150.233 327.7 150.3C329.6 150.5 331.3 151.1 333.1 151.1C334.433 151.367 335.767 151.467 337.1 151.4C339.4 151.2 343.3 151.4 344.5 149C344.613 148.666 344.636 148.309 344.566 147.963C344.497 147.618 344.337 147.297 344.104 147.033C343.87 146.769 343.571 146.572 343.237 146.461C342.903 146.349 342.545 146.328 342.2 146.4C341.667 146.6 341.333 146.933 341.2 147.4C341.2 147.733 341.267 148 341.4 148.2C341.533 148.4 341.767 148.667 342.1 149C341.6 149.047 341.1 148.904 340.7 148.6L339.8 147C339.576 147.358 339.471 147.778 339.5 148.2C339.5 148.6 339.633 149 339.9 149.4C339.614 149.397 339.333 149.333 339.074 149.212C338.815 149.092 338.585 148.917 338.4 148.7L337.8 147.1C337.533 147.433 337.4 147.8 337.4 148.2C337.4 148.733 337.5 149.2 337.7 149.6C337.146 149.41 336.659 149.063 336.3 148.6L335.8 147L330.2 148.3L324.2 149.6C321.267 150 318.867 149.767 317 148.9C316.602 148.705 316.252 148.425 315.976 148.079C315.699 147.734 315.502 147.331 315.4 146.9C315.3 146.162 315.478 145.414 315.9 144.8C316.724 143.806 317.846 143.105 319.1 142.8L324.6 141.6C326.603 141.363 328.631 141.465 330.6 141.9C331.4 142.1 332.067 141.967 332.6 141.5C332.812 141.341 332.952 141.104 332.99 140.841C333.027 140.579 332.959 140.312 332.8 140.1C333.333 140.167 333.667 140.5 333.8 141.1V142.2Z" fill="#FFD700" style="fill:#FFD700;fill:color(display-p3 1.0000 0.8431 0.0000);fill-opacity:1;"/>
<path id="Vector_46" d="M337.4 140.2L335.8 142.3C334.898 142.893 333.871 143.27 332.8 143.4C331.796 143.471 330.786 143.404 329.8 143.2L327 142.3L327.8 144.1L326.2 144L324.6 144.8C323.667 144.933 322.867 144.867 322.2 144.6C321.4 144.5 321.2 144.2 320.5 144.3L319.8 144.6L321.9 145.8L323.9 146.1L325.2 145.8L326.6 145L327.8 144.9L328.1 145.4V146.2L328.9 145.4L329 144.9L328.8 143.9L330.4 144.2L332.2 144.4L334.2 144L336 143.2L336.9 142.1L337.4 140.2ZM342.6 145.6L341.3 146.1C341.074 146.317 340.902 146.583 340.798 146.879C340.693 147.174 340.66 147.489 340.7 147.8L339.9 145.7C339.1 146.5 339.1 147.5 338.9 148.4L338.1 145.9C337.432 146.524 336.948 147.32 336.7 148.2C336.396 147.575 336.226 146.894 336.2 146.2H336C333.4 146.6 327.8 148.5 323.4 148.9C321 149.1 318.2 148.9 316.7 147.9C316.358 147.673 316.066 147.379 315.843 147.035C315.619 146.691 315.468 146.305 315.4 145.9L315.2 146.9L316 148.2L317.6 149.2L320.6 149.9L324 149.5L326 149.4L336 147V148.3L336.8 149.1L337.6 149.6L337.4 148.5V147.7L337.8 147.2L338.3 148.6L339 149.2L340 149.4L339.5 148.7V147.8L339.8 147L340.3 148.3L340.8 148.8H342.1L341.3 148.1L341.1 147.3L341.7 146.6L342.8 146.3L343.8 146.7L344.4 147.4L344.6 148.4L344.5 149.2C346.2 147.6 344.5 145.6 342.5 145.6H342.6ZM346 147.2C345.929 148.224 345.545 149.202 344.9 150C341.9 153.3 335.1 152.2 331.9 151.1L330.5 150.9L329.7 150.6L327.7 150.3L323.8 150.6C321.4 150.8 316 151.8 316 151.8L312.8 152.1C310.754 151.693 308.682 151.426 306.6 151.3H304.6V152.4L307.4 153H307L305.1 156.6L304.7 155L304.6 157.5L304.2 158.2L301.8 158.8L299.4 159.8L297.6 161.2L295.8 160.7L295 159.4C295.133 160.067 295.367 160.733 295.7 161.4C296.2 161.9 297.7 162 297.7 162L301 160L302.6 159.4C303.023 159.929 303.574 160.342 304.2 160.6C304.2 159 305.2 159 306.6 158.2V159.2C306.6 159.2 309.3 158.2 310 157.4C310.503 156.856 310.879 156.207 311.1 155.5C311.282 154.815 311.316 154.099 311.2 153.4H313C315.7 153.3 318.6 152.1 321.2 151.8C323.2 151.4 325.7 151 327.6 151.4C329.2 151.7 329.8 152.4 331.2 153.4C332.4 154.2 333.6 156.6 335.2 156.6C335.2 156.6 336.1 156.6 336.6 156.4C337.267 156.267 337.933 156.1 338.6 155.9L341 156.1C341.7 155.1 342 155.1 342.2 155.3C342.6 155.567 342.633 156 342.3 156.6C342.514 156.893 342.804 157.123 343.139 157.264C343.474 157.405 343.84 157.452 344.2 157.4C343.733 157.8 343.4 158.233 343.2 158.7C343.784 158.631 344.375 158.736 344.9 159L344.1 160.2L345.7 160.5C345.233 160.7 344.967 160.967 344.9 161.3L346.2 162.3C345.667 162.3 345.333 162.4 345.2 162.6L346.1 164.3L345.9 162.7L346.5 162.9C346.767 162.9 346.967 163.067 347.1 163.4L346.9 162.1L345.9 161.2L346.3 160.9H347.1L346.5 160C346.1 159.7 345 159.8 345 159.8L345.6 159.2H346.4L345.6 158.3L344.3 158.2L344.8 157.6L345.7 157.2L344.7 156.6H343.6L343 156.1C343.067 155.3 342.933 154.8 342.6 154.6H341.8C341.4 154.733 341.133 154.967 341 155.3H337.8C337 155.3 335.8 155.8 335 155.6C334.4 155.4 334.2 154.4 333.8 154L332.5 152.8H335.4L338.4 153H340.2C342.4 152.4 344.9 151.8 345.9 149.2V147.2H346ZM323.6 152.3C322.774 152.3 321.957 152.47 321.2 152.8C319.384 153.788 317.675 154.961 316.1 156.3L312.9 158.3C311.399 158.698 309.853 158.899 308.3 158.9C308.3 158.9 307.9 160.5 307.3 160.8C306.9 161.1 305.8 160.5 305.8 160.5L305.7 161.8L305.2 163.2L304.9 162.2L304.1 161.2L303.7 162.6L302.8 164L302.6 163.2L301.8 162L301.4 163.4L300.9 164.4L300.7 163.9L299.9 162.7L299.2 164.2L298.6 165L298.4 163.8C298.277 163.663 298.119 163.562 297.942 163.509C297.766 163.456 297.578 163.453 297.4 163.5C296.4 163.7 295.9 164.7 295.3 165.6C295.033 165.867 294.9 165.867 294.9 165.6V164.9C294.715 164.712 294.464 164.604 294.2 164.6C293.8 164.9 295 163.4 295 163.4L293.4 163.3C293 163.2 293.5 163.3 293.5 162.5C293.5 161.7 292.7 161.7 293 161.7L294.3 161.8C294.3 161.8 293.9 161.4 294.1 161C294.1 160.9 294.6 160.6 294.7 160.2C294.726 160.002 294.692 159.802 294.603 159.624C294.514 159.445 294.373 159.298 294.2 159.2C294.1 159.6 293.4 159.4 293.4 159.9V161C292.267 161.067 291.767 161.567 291.9 162.5C291.892 162.748 291.942 162.995 292.046 163.221C292.15 163.447 292.306 163.645 292.5 163.8C292.694 163.956 292.921 164.064 293.164 164.116C293.407 164.168 293.659 164.162 293.9 164.1C293 165.3 293.6 166.1 294.2 166.4C294.72 166.503 295.259 166.395 295.7 166.1C296.2 165.6 296.2 164.6 297.1 164.6H297.9C297.988 165.24 297.919 165.892 297.7 166.5L299.3 165.5L300.1 164.1C300.225 164.366 300.29 164.656 300.29 164.95C300.29 165.244 300.225 165.534 300.1 165.8L301.3 165L302.1 163.6C302.225 163.866 302.29 164.156 302.29 164.45C302.29 164.744 302.225 165.034 302.1 165.3L303.4 164.3L304.4 162.9C304.564 163.455 304.564 164.045 304.4 164.6L305.7 163.6L306.3 161.9C306.833 161.9 307.367 161.767 307.9 161.5L308.7 160.2L312.7 159.7C315.9 158.7 319.2 154.3 322.4 153.5C323.047 153.271 323.753 153.271 324.4 153.5C327.2 154.8 329.3 159.9 332.2 159.9C333.6 159.9 334.3 160.2 336.2 159.9L339.2 159L340.2 160.6L342.6 163L341.6 164C341.3 164.2 340.5 164.2 340.2 164.6C340.031 164.769 339.927 164.993 339.909 165.231C339.891 165.47 339.958 165.707 340.1 165.9C340.3 166.167 340.633 166.367 341.1 166.5L342 166.2L342.4 167.4C342.667 167.667 342.933 167.833 343.2 167.9C343.667 167.967 344 167.833 344.2 167.5L344.6 166.7C344.8 166.967 345.033 167.133 345.3 167.2C345.539 167.302 345.809 167.307 346.051 167.214C346.294 167.12 346.491 166.936 346.6 166.7C346.9 166.4 346.6 165.4 346.5 165V166.2C346.443 166.047 346.341 165.915 346.207 165.822C346.073 165.728 345.913 165.678 345.75 165.678C345.587 165.678 345.427 165.728 345.293 165.822C345.159 165.915 345.057 166.047 345 166.2C344.82 166.146 344.659 166.042 344.535 165.901C344.411 165.759 344.33 165.586 344.3 165.4L344.1 166.4C344.1 166.667 344 166.867 343.8 167C343.8 166 343.1 166 342.6 166.2V165.2L341.6 165.7C341.3 165.7 341.6 165.5 341.4 165.2C341.4 164.9 340.8 165 341 164.9L342.5 164.1L343.5 162.7L341 160.3L339.5 157.9C337.935 158.384 336.328 158.719 334.7 158.9C333.551 159.05 332.383 158.913 331.3 158.5C329.5 157.6 328.5 155.4 327 154.2C326.067 153.267 325.067 152.633 324 152.3H323.6Z" fill="#FFD700" style="fill:#FFD700;fill:color(display-p3 1.0000 0.8431 0.0000);fill-opacity:1;"/>
<path id="Vector_47" d="M333.8 142.2C334.6 142.2 336 141.8 336.5 141.2L337.3 140.2C337.296 140.956 337.078 141.696 336.671 142.333C336.264 142.97 335.684 143.479 335 143.8C333.744 144.355 332.353 144.529 331 144.3L328.6 143.8C329.6 144.8 329.1 145.6 328 146.2C328 146.2 328.2 145.2 327.8 145C327.133 144.733 326.433 144.9 325.7 145.5C325.1 145.833 324.433 146.033 323.7 146.1C322.946 146.134 322.194 145.998 321.5 145.7C321 145.4 320.1 144.7 319.8 144.7C319 144.9 317.8 145 317.4 145.7V146.7C317.797 147.234 318.359 147.621 319 147.8C320.8 148.267 322.567 148.333 324.3 148C326.367 147.6 328.4 147.133 330.4 146.6C332.4 146.2 334.7 145.6 336.2 145.1C338.024 144.607 339.913 144.405 341.8 144.5C345 144.5 346.2 146.5 346.1 148.6C345.9 150.8 343.9 151.8 342.2 152.4C339.2 153.5 335 152.9 332.5 152.8L333.8 154C334.2 154.4 334.4 155.4 335 155.6C335.8 155.8 337 155.3 337.8 155.2H341L341.8 154.6H342.6C342.933 154.733 343.067 155.233 343 156.1L343.6 156.6H344.7L345.7 157.2L344.8 157.6L344.3 158.2L345.6 158.3L346.4 159.1L345.6 159.2L345 159.8C345 159.8 346 159.7 346.5 160L347.1 160.8H346.3L345.8 161.2L346.8 162.1C347 162.5 347.1 162.933 347.1 163.4L346.5 162.9L345.9 162.8L346.1 164.6C346.1 165 346.7 165.4 346.8 165.8C346.933 166.133 346.867 166.467 346.6 166.8C346.333 167.267 345.9 167.4 345.3 167.2L344.6 166.8L344.2 167.6C344.077 167.737 343.919 167.838 343.742 167.891C343.566 167.944 343.378 167.947 343.2 167.9L342.5 167.4L342 166.2L341 166.5C340.6 166.5 340.267 166.3 340 165.9C339.87 165.696 339.819 165.451 339.856 165.212C339.893 164.973 340.015 164.756 340.2 164.6C340.6 164.267 341.1 164.067 341.7 164L342.7 163L340.2 160.6L339.2 159C339.2 159 337.2 159.8 336.3 159.8C334.973 159.991 333.626 159.991 332.3 159.8C329.2 159.8 327.2 154.8 324.5 153.6C323.823 153.347 323.077 153.347 322.4 153.6C319.2 154.3 315.8 158.7 312.8 159.6L308.8 160.2L307.9 161.5L306.3 161.8L305.7 163.6L304.4 164.6C304.564 164.045 304.564 163.455 304.4 162.9L303.4 164.3L302.1 165.3C302.21 165.048 302.267 164.775 302.267 164.5C302.267 164.225 302.21 163.952 302.1 163.7L301.3 165L300 165.8C300.125 165.534 300.19 165.244 300.19 164.95C300.19 164.656 300.125 164.366 300 164.1L299.3 165.4L297.7 166.4C297.95 165.835 298.02 165.206 297.9 164.6H297.1C296.1 164.6 296.1 165.6 295.7 166.1C295.259 166.395 294.72 166.503 294.2 166.4C293.467 166.133 293.333 165.367 293.8 164.1C293.566 164.145 293.325 164.137 293.095 164.076C292.865 164.016 292.651 163.906 292.469 163.752C292.287 163.599 292.142 163.407 292.043 163.19C291.945 162.974 291.896 162.738 291.9 162.5C291.833 161.633 292.333 161.133 293.4 161V160C293.467 159.333 293.733 159.033 294.2 159.1C294.533 159.1 294.8 159.233 295 159.5C295.2 159.767 295.467 160.167 295.8 160.7C296.314 160.999 296.906 161.138 297.5 161.1L301.5 159L304.6 158.2V151.2C305.267 151.267 305.933 151.267 306.6 151.2C308.733 151.4 310.8 151.7 312.8 152.1L316 151.8C316 151.8 321.4 150.8 323.8 150.6C325.133 150.333 326.433 150.233 327.7 150.3C329.6 150.5 331.3 151.1 333.1 151.1C334.433 151.367 335.767 151.467 337.1 151.4C339.4 151.2 343.3 151.4 344.5 149C344.613 148.666 344.636 148.309 344.566 147.963C344.497 147.618 344.337 147.297 344.104 147.033C343.87 146.769 343.571 146.572 343.237 146.461C342.903 146.349 342.545 146.328 342.2 146.4C341.667 146.6 341.333 146.933 341.2 147.4C341.2 147.667 341.267 147.933 341.4 148.2L342.1 149C341.54 149.019 340.985 148.88 340.5 148.6C340.152 148.125 339.913 147.578 339.8 147C339.576 147.358 339.471 147.778 339.5 148.2C339.5 148.6 339.633 149 339.9 149.4C339.614 149.397 339.333 149.333 339.074 149.212C338.815 149.092 338.585 148.917 338.4 148.7L337.8 147.1C337.533 147.433 337.4 147.8 337.4 148.2C337.4 148.733 337.5 149.2 337.7 149.6C337.146 149.41 336.659 149.063 336.3 148.6L335.8 147L330.2 148.3L324.2 149.6C321.267 150 318.867 149.767 317 148.9C316.602 148.705 316.252 148.425 315.976 148.079C315.699 147.734 315.502 147.331 315.4 146.9C315.3 146.162 315.478 145.414 315.9 144.8C316.724 143.806 317.846 143.105 319.1 142.8L324.6 141.6C326.603 141.363 328.631 141.465 330.6 141.9C331.4 142.1 332.067 141.967 332.6 141.5C332.705 141.421 332.793 141.322 332.86 141.209C332.927 141.096 332.971 140.971 332.99 140.841C333.008 140.711 333.001 140.579 332.969 140.452C332.936 140.325 332.879 140.205 332.8 140.1C333.333 140.167 333.667 140.5 333.8 141.1C333.933 141.433 333.933 141.8 333.8 142.2Z" stroke="#806600" style="stroke:#806600;stroke:color(display-p3 0.5020 0.4000 0.0000);stroke-opacity:1;" stroke-width="0.2" stroke-miterlimit="103.2"/>
<path id="Vector_48" d="M310.2 152.2C311 152.6 311.8 152 312 151.9L311.4 151.1L311.1 149.5C311.1 148.3 311.6 148.2 311.6 148.2L312.7 147.7C313.033 147.367 313.267 147 313.4 146.6L313.2 145.1C312 145.1 311.7 145.1 311.4 145.5L311.2 144.3L310.7 143.3L310.3 143C310.3 143.333 310.167 143.6 309.9 143.8L309.4 142.2C309.326 142.013 309.213 141.844 309.068 141.705C308.923 141.565 308.75 141.459 308.56 141.392C308.37 141.326 308.169 141.301 307.968 141.32C307.768 141.338 307.574 141.4 307.4 141.5L306.2 142.7V141.7L305.7 141.9L304.8 142.5L304 143.4C304.133 143 303.7 142.533 302.7 142L301.8 143.2C301.644 143.58 301.609 143.999 301.7 144.4L302.4 145.5C302.4 145.5 302.8 145.9 302.1 147L301.1 148L300.1 148.4C300.3 149.2 300.4 149.4 301.4 149.6C299 151.2 298.9 153.9 300.6 156.2L301.4 155C301.4 155.8 301.633 156.467 302.1 157C302.3 157.3 302.4 158.6 302.7 159L303.4 159.7C303.4 159.7 303.8 158.7 304.2 158.6L305.8 158.1C306.421 157.703 306.963 157.194 307.4 156.6L307.2 158.2C310.3 157 311 155 310.2 152.2Z" fill="#FFD700" style="fill:#FFD700;fill:color(display-p3 1.0000 0.8431 0.0000);fill-opacity:1;"/>
<path id="Vector_49" d="M304.2 148.3C304.28 149.368 304.073 150.439 303.6 151.4L305.6 152.2L307.6 152.5C307.4 151.7 308.2 150.1 308.6 149.5H307.1L306.5 148.9L305.4 149.2L304.2 148.4V148.3Z" fill="#504416" style="fill:#504416;fill:color(display-p3 0.3137 0.2667 0.0863);fill-opacity:1;"/>
<path id="Vector_50" d="M304.6 148.8C304.405 149.281 304.405 149.819 304.6 150.3L305.1 149.1L304.6 148.8ZM307.4 149.8L307.3 151.1C307.633 150.7 307.866 150.267 308 149.8H307.4ZM304.6 150.8C304.193 151.087 303.908 151.514 303.8 152H304.4L304.6 150.7V150.8ZM307.1 151.4L306.5 152.6L307 152.9C307.194 152.419 307.194 151.881 307 151.4H307.1ZM304.8 144.8C304.4 144.733 304.166 144.867 304.1 145.2C303.966 145.667 304.233 146 304.9 146.2C305.127 146.273 305.372 146.263 305.592 146.172C305.812 146.08 305.992 145.913 306.1 145.7C306.1 145.3 305.833 145.033 305.3 144.9L304.8 144.8ZM309 146C308.6 146 308.366 146.1 308.3 146.3C308.27 146.55 308.336 146.803 308.484 147.007C308.632 147.211 308.852 147.351 309.1 147.4C309.766 147.6 310.166 147.467 310.3 147C310.5 146.533 310.233 146.2 309.5 146H309Z" fill="white" style="fill:white;fill-opacity:1;"/>
<path id="Vector_51" d="M304.8 144.8H304.5C304.278 144.9 304.1 145.078 304 145.3L304.2 145.9C304.333 146.167 304.533 146.333 304.8 146.4C304.93 146.464 305.072 146.5 305.217 146.504C305.362 146.508 305.505 146.481 305.639 146.423C305.772 146.366 305.891 146.281 305.988 146.173C306.085 146.066 306.157 145.938 306.2 145.8L306 145.2L305.2 144.8H304.8ZM304.8 145H305.2L305.8 145.4C306 145.4 306.067 145.5 306 145.7C305.733 146.167 305.367 146.333 304.9 146.2L304.3 145.8L304.2 145.3L304.5 145H304.8ZM309 146H308.8C308.571 146.028 308.36 146.134 308.2 146.3C308.152 146.454 308.141 146.617 308.169 146.775C308.197 146.934 308.263 147.083 308.361 147.211C308.459 147.338 308.587 147.44 308.733 147.508C308.879 147.576 309.039 147.607 309.2 147.6H309.9C310.019 147.539 310.125 147.454 310.211 147.351C310.297 147.248 310.361 147.128 310.4 147L310.2 146.5L309.6 146.1L309 146ZM309 146.2H309.5C309.767 146.2 310 146.333 310.2 146.6V147L309.8 147.4H309.2C308.971 147.353 308.765 147.228 308.619 147.045C308.473 146.862 308.395 146.634 308.4 146.4C308.4 146.267 308.533 146.2 308.8 146.2H309Z" fill="#D1B948" style="fill:#D1B948;fill:color(display-p3 0.8196 0.7255 0.2824);fill-opacity:1;"/>
<path id="Vector_52" d="M304.8 144L304 144.2V144.6H304.3L304.8 144.8L305.8 145.3L307 145.2L306 144.7C305.6 144.6 305.3 144 304.8 143.9V144ZM310.2 145.5H308L309 146.1L310 146.2L310.6 146.4L310.9 146.6L311 146.2C310.946 146.02 310.842 145.859 310.701 145.735C310.559 145.611 310.386 145.53 310.2 145.5ZM303.7 151.5C302.7 154.1 306.8 155.5 307.4 152.5C306.104 152.471 304.834 152.128 303.7 151.5Z" fill="#FFD700" style="fill:#FFD700;fill:color(display-p3 1.0000 0.8431 0.0000);fill-opacity:1;"/>
<path id="Vector_53" d="M303.6 151.2V151.4C303.46 151.679 303.386 151.987 303.386 152.3C303.386 152.613 303.46 152.921 303.6 153.2C303.827 153.566 304.156 153.858 304.546 154.039C304.937 154.221 305.372 154.283 305.798 154.219C306.224 154.155 306.622 153.968 306.942 153.68C307.262 153.392 307.491 153.017 307.6 152.6V152.3H307.4C306.138 152.256 304.904 151.913 303.8 151.3L303.6 151.2ZM303.8 151.5C304.934 152.036 306.152 152.374 307.4 152.5C307.266 153.031 306.99 153.515 306.6 153.9C306.086 154.078 305.533 154.112 305 154C304.482 153.794 304.032 153.448 303.7 153C303.506 152.519 303.506 151.981 303.7 151.5H303.8Z" fill="#806600" style="fill:#806600;fill:color(display-p3 0.5020 0.4000 0.0000);fill-opacity:1;"/>
<path id="Vector_54" d="M305.4 149.2C304.79 150.93 304.584 152.778 304.8 154.6C305.979 153.144 306.801 151.431 307.2 149.6L306.7 149.4L306.5 149L305.9 149.2H305.4Z" fill="#377BC8" stroke="#2C5AA0" style="fill:#377BC8;fill:color(display-p3 0.2157 0.4824 0.7843);fill-opacity:1;stroke:#2C5AA0;stroke:color(display-p3 0.1725 0.3529 0.6275);stroke-opacity:1;" stroke-width="0.2" stroke-miterlimit="103.2"/>
<path id="Vector_55" d="M308.6 141.4L307.4 141.5L306.2 142.7V141.7L305.7 141.9L304.7 142.5L303.9 143.3C304.3 143.3 305.2 142.5 305.5 142.6C305.8 142.6 305.6 143.4 305.9 143.4C306.167 143.4 306.567 143.133 307.1 142.6C307.633 142.133 308.033 141.933 308.3 142C308.7 142.2 308.967 142.567 309.1 143.1C309.233 143.9 309.433 144.4 309.7 144.6C310 144.7 310.2 143.9 310.5 144.1C310.9 144.1 311 145.4 311.4 145.5L311.2 144.3L310.7 143.3L310.3 143C310.233 143.333 310.067 143.6 309.8 143.8L309.4 142.2L308.6 141.4ZM303.6 145.8C303.2 146.533 303.5 147.067 304.5 147.4L304.2 148.2L304.6 149.2L305.6 149.4L306.4 149.1L307 149.9L307.8 150.1L308.8 149.4L309.2 148.7H309.8L310.3 148.5L310.6 147.8C310.313 148.042 309.964 148.198 309.593 148.251C309.222 148.304 308.843 148.252 308.5 148.1L308.2 149.1C308.089 149.188 307.959 149.252 307.822 149.286C307.684 149.321 307.54 149.325 307.4 149.3L306.6 148.6C306.2 148.867 305.867 148.967 305.6 148.9C305.401 148.863 305.219 148.767 305.076 148.624C304.933 148.481 304.837 148.299 304.8 148.1C304.753 147.922 304.756 147.734 304.809 147.558C304.862 147.381 304.963 147.223 305.1 147.1C303.3 146.6 303.9 146 303.5 145.8H303.6ZM302.6 146L301 148L300 148.4C300.3 149.2 300.4 149.4 301.4 149.6C299 151.2 298.9 153.9 300.6 156.2L301.4 155C301.4 155.8 301.633 156.467 302.1 157C302.3 157.3 302.4 158.6 302.7 159L303.4 159.7C303.4 159.7 303.8 158.7 304.2 158.6L305.8 158.1C306.421 157.703 306.963 157.194 307.4 156.6L307.2 158.2C310.3 157 311 155 310.2 152.2C311 152.6 311.8 152 312 151.9L311.4 151.1L311.1 149.5V148.7L310.6 150V151.3L309.2 150.6L309.8 153.6C309.8 154.267 309.667 154.933 309.4 155.6L308.2 157L308.4 155.2L308.1 152.9L307.4 155.1L306.4 156.7C306.6 155.1 306.6 155 306.4 154.3C306.204 155.323 305.832 156.304 305.3 157.2L304.1 157.8L303.5 158.3L303 156.9L302 155.1C301.8 154.2 303 152.3 303 152.3C302.6 152.367 302.167 152.733 301.7 153.4L300.6 154.7L300.2 152.9C300.211 152.33 300.385 151.775 300.7 151.3C301.501 150.336 302.407 149.465 303.4 148.7C303.042 148.867 302.655 148.962 302.26 148.979C301.865 148.997 301.471 148.936 301.1 148.8L302.1 147.5C302.433 147.033 302.6 146.5 302.6 145.9V146ZM306.6 146.8H305.6V147.3L306 147.4L306.6 148.2L308 147.8L308.2 147.5L307 146.9L306.6 146.8Z" fill="#FFD700" style="fill:#FFD700;fill:color(display-p3 1.0000 0.8431 0.0000);fill-opacity:1;"/>
<path id="Vector_56" d="M310.2 152.2C311 152.6 311.8 152 312 151.9L311.4 151.1L311.1 149.5C311.1 148.3 311.6 148.2 311.6 148.2L312.7 147.7C313.033 147.367 313.267 147 313.4 146.6L313.2 145.1C312 145.1 311.7 145.1 311.4 145.5L311.2 144.3L310.7 143.3L310.3 143C310.3 143.333 310.167 143.6 309.9 143.8C310.064 143.535 310.164 143.235 310.191 142.925C310.219 142.615 310.174 142.302 310.059 142.013C309.945 141.723 309.764 141.464 309.532 141.256C309.299 141.049 309.022 140.898 308.721 140.817C308.42 140.736 308.105 140.726 307.799 140.788C307.494 140.85 307.208 140.983 306.963 141.176C306.718 141.368 306.521 141.615 306.389 141.897C306.256 142.179 306.192 142.489 306.2 142.8V141.8L305.7 141.9L304.8 142.5L304 143.4C304.133 143 303.7 142.533 302.7 142L301.8 143.2C301.644 143.58 301.609 143.999 301.7 144.4L302.4 145.5C302.4 145.5 302.8 145.9 302.1 147L301.1 148L300.1 148.4C300.3 149.2 300.4 149.4 301.4 149.6C299 151.2 298.9 153.9 300.6 156.2L301.4 155C301.4 155.8 301.633 156.467 302.1 157C302.3 157.3 302.4 158.6 302.7 158.9L303.4 159.7C303.4 159.7 303.8 158.7 304.2 158.6L305.8 158L307.4 156.6L307.2 158.2C310.3 157 311 155 310.2 152.2Z" stroke="#806600" style="stroke:#806600;stroke:color(display-p3 0.5020 0.4000 0.0000);stroke-opacity:1;" stroke-width="0.2" stroke-miterlimit="103.2"/>
<path id="Vector_57" d="M302.7 142.9L302.2 144.1L303 145.4C303.2 144.8 303.334 144.2 303.4 143.6C303.4 143.3 302.7 142.8 302.7 142.8V142.9ZM304.3 144.5H304.1C303.9 144.5 303.767 144.667 303.7 145C303.9 145 304.067 144.9 304.2 144.7H304.5L305.5 145.2H306.9L306.7 145.8L306 146.2L305.8 146.5L305.5 146.8V147.4H305.6C306 147.533 306.2 147.8 306.2 148.2H306.3L306.5 148.3H307C307.134 148.18 307.297 148.098 307.473 148.063C307.649 148.028 307.831 148.041 308 148.1V148L308.3 147.6V147.3L308.2 146.9C308.2 146.6 307.8 146.1 307.8 146.1C307.8 145.833 307.867 145.6 308 145.4C308.334 145.8 308.734 146.067 309.2 146.2C309.534 146.4 309.867 146.467 310.2 146.4H310.4L310.8 147V146.3L310.3 146.2L309.3 146.1L308.2 145.3L308 145.1L307.8 145.3L307.7 146.3L307.9 147L308 147.6V147.8C307.533 147.777 307.073 147.919 306.7 148.2C306.5 147.756 306.144 147.4 305.7 147.2V146.9L305.8 146.8L306.1 146.5L306.8 146L307.1 145.1V144.9H305.5C305.3 144.767 305 144.667 304.6 144.6H304.4L304.3 144.5ZM303.5 145.5C303.331 145.669 303.228 145.893 303.209 146.131C303.191 146.37 303.259 146.607 303.4 146.8C303.6 147.133 303.867 147.333 304.2 147.4V147.6L304.1 148.2C304.1 148.667 304.267 149 304.6 149.2C304.934 149.4 305.267 149.533 305.6 149.6L306.3 149.4L306.7 149.8C307.034 150.067 307.367 150.2 307.7 150.2C308.022 150.18 308.327 150.05 308.564 149.831C308.801 149.613 308.955 149.319 309 149V148.9C309.4 148.9 309.8 148.833 310.2 148.7C310.467 148.433 310.6 148.067 310.6 147.6C310.3 147.8 310.6 148.2 310 148.6H309.1L308.8 148.3V149L308.6 149.4C308.502 149.573 308.355 149.714 308.177 149.803C307.998 149.892 307.798 149.926 307.6 149.9L307 149.8L306.6 149.2V148.8L306.3 149L306 149.2H305.6L304.9 149L304.3 148.2L304.4 147.7L304.6 147.4L304.7 147.2H304.4C304.236 147.189 304.077 147.137 303.938 147.05C303.798 146.963 303.682 146.843 303.6 146.7C303.2 146.2 303.6 145.9 303.6 145.5H303.5ZM312.7 145.7C312.7 145.7 311.9 145.7 311.7 146L311.1 147.7L312.4 147L312.7 145.7Z" fill="#806600" style="fill:#806600;fill:color(display-p3 0.5020 0.4000 0.0000);fill-opacity:1;"/>
<path id="Vector_58" d="M305.1 145.1C304.994 145.1 304.892 145.142 304.817 145.217C304.742 145.292 304.7 145.394 304.7 145.5C304.7 145.606 304.742 145.708 304.817 145.783C304.892 145.858 304.994 145.9 305.1 145.9C305.206 145.9 305.308 145.858 305.383 145.783C305.458 145.708 305.5 145.606 305.5 145.5C305.5 145.394 305.458 145.292 305.383 145.217C305.308 145.142 305.206 145.1 305.1 145.1ZM309.3 146.3C309.194 146.287 309.087 146.316 309.003 146.382C308.918 146.447 308.863 146.544 308.85 146.65C308.837 146.756 308.866 146.863 308.932 146.947C308.998 147.032 309.094 147.087 309.2 147.1C309.306 147.1 309.408 147.058 309.483 146.983C309.558 146.908 309.6 146.806 309.6 146.7C309.6 146.594 309.558 146.492 309.483 146.417C309.408 146.342 309.306 146.3 309.2 146.3H309.3Z" fill="#2B2200" style="fill:#2B2200;fill:color(display-p3 0.1686 0.1333 0.0000);fill-opacity:1;"/>
<path id="Vector_59" d="M293.8 159.2C293.5 159.2 293 159 292.2 160C292.466 159.954 292.74 159.986 292.989 160.093C293.237 160.199 293.449 160.376 293.6 160.6C293.843 160.546 294.057 160.403 294.2 160.2C294.236 160.013 294.217 159.819 294.146 159.642C294.075 159.464 293.955 159.311 293.8 159.2ZM315.2 160.4C314.457 160.41 313.745 160.695 313.2 161.2C313.526 161.143 313.862 161.168 314.176 161.273C314.49 161.378 314.773 161.559 315 161.8C315.138 161.786 315.272 161.743 315.392 161.674C315.513 161.605 315.617 161.512 315.7 161.4C315.726 161.202 315.692 161.002 315.603 160.824C315.514 160.645 315.373 160.498 315.2 160.4ZM292.2 161.8C292 162.1 291.4 162 291 163.3C291.235 163.137 291.514 163.049 291.8 163.049C292.086 163.049 292.365 163.137 292.6 163.3C292.712 163.217 292.805 163.113 292.874 162.992C292.943 162.872 292.986 162.738 293 162.6C293.017 162.491 293.008 162.38 292.974 162.275C292.94 162.17 292.881 162.075 292.803 161.997C292.725 161.919 292.63 161.86 292.525 161.826C292.42 161.792 292.309 161.783 292.2 161.8ZM315.6 163.8C315.4 164.2 314.8 164.1 314.2 165.4C314.483 165.227 314.806 165.127 315.137 165.11C315.469 165.092 315.8 165.158 316.1 165.3C316.212 165.217 316.305 165.113 316.374 164.992C316.443 164.872 316.486 164.738 316.5 164.6C316.463 164.401 316.367 164.219 316.224 164.076C316.081 163.933 315.899 163.837 315.7 163.8H315.6ZM293.9 165L293.5 165.1C293.102 165.687 292.925 166.395 293 167.1C293.333 166.5 293.767 166.167 294.3 166.1L294.4 165.4L293.9 165ZM340.3 165.1L340.1 165.2C339.631 165.759 339.382 166.47 339.4 167.2C339.522 166.939 339.723 166.721 339.973 166.578C340.224 166.435 340.513 166.373 340.8 166.4C340.933 166.133 341 165.867 341 165.6C340.928 165.47 340.828 165.357 340.707 165.271C340.585 165.184 340.447 165.126 340.3 165.1ZM318.8 166.1L318.3 166.2C317.888 166.854 317.745 167.642 317.9 168.4C318.051 168.096 318.278 167.835 318.558 167.643C318.837 167.45 319.162 167.332 319.5 167.3C319.555 167.174 319.583 167.038 319.583 166.9C319.583 166.762 319.555 166.626 319.5 166.5C319.417 166.388 319.313 166.295 319.192 166.226C319.072 166.157 318.938 166.114 318.8 166.1ZM345.8 166.2C345.533 166.2 345.333 166.333 345.2 166.6C345.133 167.467 345.3 168.167 345.7 168.7C345.633 168.033 345.867 167.467 346.4 167L346.1 166.2H345.8ZM342.8 166.6L342.3 167C342.103 167.658 342.139 168.364 342.4 169C342.452 168.707 342.569 168.429 342.742 168.187C342.915 167.945 343.14 167.744 343.4 167.6C343.44 167.467 343.451 167.327 343.434 167.189C343.417 167.052 343.371 166.919 343.3 166.8L342.8 166.6Z" fill="#377BC8" stroke="#2C5AA0" style="fill:#377BC8;fill:color(display-p3 0.2157 0.4824 0.7843);fill-opacity:1;stroke:#2C5AA0;stroke:color(display-p3 0.1725 0.3529 0.6275);stroke-opacity:1;" stroke-width="0.2" stroke-miterlimit="103.2"/>
<path id="Vector_60" d="M378.7 21.3V21L379.5 19.4C378.274 19.2417 377.029 19.3376 375.842 19.6817C374.655 20.0258 373.551 20.6107 372.6 21.4C371.511 22.5073 370.57 23.751 369.8 25.1C369.387 26.1247 369.118 27.2016 369 28.3L367.1 26.7L365.8 26.3C364.586 26.3938 363.449 26.9271 362.6 27.8C361.825 28.637 361.305 29.6777 361.1 30.8C360.7 32.4 361.1 34 360.1 35.4L358.5 37.2C359.358 37.5552 360.272 37.7583 361.2 37.8C361.745 37.7544 362.274 37.5978 362.755 37.3398C363.237 37.0818 363.661 36.728 364 36.3C364.6 35.5 364.9 34.4 365.8 33.8C365.95 33.6393 366.149 33.5327 366.366 33.4965C366.583 33.4604 366.806 33.4967 367 33.6C367.5 33.8 367.6 34.8 367.4 35.2L366.4 38.6L364.6 38.2L363.2 39L362.6 39.3L363.8 41.1L364.3 41.3L363.9 41.5L360.6 43.1L360.2 43.3L357.8 43.4L356.2 43.2L353.8 42.4L353.1 42L351.8 40.6C350.818 39.3222 350.104 37.8598 349.7 36.3C351.062 36.0706 352.304 35.3783 353.215 34.3399C354.125 33.3014 354.65 31.9804 354.7 30.6V29.8L354.6 29.4L354.3 28.4L354 27.8L353.4 26.8L353 26.4C352.56 25.8971 352.023 25.4875 351.422 25.1955C350.821 24.9036 350.167 24.735 349.5 24.7H348.2C346.996 24.8955 345.879 25.4536 345 26.3C344.378 26.9218 343.9 27.6729 343.6 28.5L343.4 29.3L343.3 30.6C343.319 31.6738 343.626 32.7228 344.189 33.6375C344.752 34.5521 345.55 35.299 346.5 35.8L343.8 38.4C341.415 40.648 338.359 42.0529 335.1 42.4C333.222 42.6428 331.315 42.5021 329.493 41.9864C327.671 41.4708 325.972 40.5909 324.5 39.4C323.596 38.5884 322.821 37.6443 322.2 36.6H323.5L325.1 35H325.2L324.7 34.6L323.5 33.6H323L323.4 29.8C323.4 29.2 323.8 28.2 324.4 28.2C324.676 28.2289 324.943 28.3149 325.184 28.4526C325.425 28.5904 325.635 28.7768 325.8 29C326.6 30 326.2 31.1 326.6 32.2C327.056 33.3302 327.91 34.2548 329 34.8C330.133 35.1333 331.233 35.2666 332.3 35.2L331.4 32.8C330.8 31 331.9 29.6 332.2 27.8C332.504 26.6078 332.434 25.3511 332 24.2C331.36 22.9431 330.298 21.9517 329 21.4H327.4L324.6 22.2C324.6 22.2 325.4 19.8 325.1 18.6C324.842 16.9209 324.301 15.2978 323.5 13.8C322.474 12.4409 321.3 11.1999 320 10.1C318.7 11.1999 317.526 12.4409 316.5 13.8C315.699 15.2978 315.158 16.9209 314.9 18.6C314.7 19.8 315.4 22.2 315.4 22.2L312.6 21.4H311C309.702 21.9517 308.64 22.9431 308 24.2C307.566 25.3511 307.496 26.6078 307.8 27.8C308.1 29.6 309.2 31 308.6 32.8L307.6 35.2C308.733 35.2666 309.833 35.1333 310.9 34.8C311.99 34.2548 312.844 33.3302 313.3 32.2C313.8 31.2 313.5 29.9 314.3 29C314.567 28.4666 314.967 28.2 315.5 28.2C316.2 28.2 316.6 29.2 316.6 29.8L317 33.5H316.5L314.9 35.1L316.5 36.6H317.8C317.149 37.6514 316.34 38.5959 315.4 39.4C313.928 40.5909 312.23 41.4708 310.408 41.9864C308.586 42.5021 306.678 42.6428 304.8 42.4C301.576 42.0319 298.559 40.6284 296.2 38.4L293.6 35.8C294.587 35.3261 295.426 34.591 296.026 33.6743C296.625 32.7577 296.962 31.6945 297 30.6C296.978 29.0174 296.331 27.5078 295.2 26.4C294.294 25.5353 293.14 24.9758 291.9 24.8L291.6 24.6H290.6C289.943 24.6606 289.304 24.8509 288.72 25.1599C288.136 25.4688 287.62 25.8903 287.2 26.4C286.656 26.9874 286.216 27.6638 285.9 28.4L285.6 29.4V30.6C285.635 31.9382 286.117 33.2263 286.969 34.2591C287.82 35.292 288.993 36.0104 290.3 36.3C289.896 37.8598 289.182 39.3222 288.2 40.6L286.8 42L286 42.4L283.7 43.2L282.1 43.4L279.8 43.3L279.4 43.2L276 41.5L275.7 41.3L276.2 41.1L277.4 39.3L276.8 39L275.4 38.2L273.7 38.6L272.6 35.3C272.4 34.8 272.5 33.8 273 33.6C273.194 33.4967 273.417 33.4604 273.634 33.4965C273.851 33.5327 274.05 33.6393 274.2 33.8C275 34.4 275.4 35.6 276 36.3C276.34 36.728 276.763 37.0818 277.245 37.3398C277.726 37.5978 278.256 37.7544 278.8 37.8C279.728 37.7583 280.642 37.5552 281.5 37.2L279.9 35.4C278.8 34 279.3 32.4 278.9 30.7C278.695 29.5777 278.175 28.537 277.4 27.7C276.536 26.8638 275.4 26.3668 274.2 26.3L272.9 26.7L270.9 28.3C270.814 27.2063 270.579 26.1296 270.2 25.1C269.43 23.751 268.489 22.5073 267.4 21.4C266.461 20.6237 265.374 20.0462 264.205 19.7024C263.036 19.3586 261.81 19.2557 260.6 19.4L261.3 21V21.3H261.4L269.6 39.7L268.5 39.9L267.3 41.9L269.2 42.9L271.6 42.3C272.333 44.3 273 46.2333 273.6 48.1L271.6 48.3C271.2 48.8 271 48.8 271 49.3C271 49.7 271.133 50.0333 271.4 50.3L271.7 50.5L272.2 50.8H273.2L273.4 52.1L273.3 52V54L272.1 56.6L274 59L274.8 61.1L275.4 60.7L275.5 61.4H275.2L275.7 62.4L275 62.6C274.667 62.8666 274.5 63.2 274.5 63.6C274.5 63.8666 274.6 64.2 274.8 64.6L275.6 65.1C279.467 64.5666 283.533 64.1333 287.8 63.8L291.8 63.5C298.867 63.1 305.967 62.9 313.1 62.9H326.7C331 62.9 340 62.9 348.1 63.5L350.3 63.7L352.6 63.8L357.9 64.3L364.3 65.1L364.6 64.9L365.3 64.2V63.6C365.3 63.2 365.133 62.8666 364.8 62.6L364.1 62.5L364.3 61.6L364.5 60.7L365 61.1L365.8 59.1L367.8 56.7L366.6 53.9V52H366.4L366.7 50.7L367.6 50.8C367.8 50.8 367.933 50.7333 368 50.6C368.533 50.2 368.8 49.7666 368.8 49.3C368.8 48.9666 368.6 48.6333 368.2 48.3L365.9 48.1L368.1 42.2L370.6 42.9L372.6 41.9L371.4 39.9L370.2 39.7L378.5 21.4H378.6L378.7 21.3Z" fill="#FFD700" stroke="#806600" style="fill:#FFD700;fill:color(display-p3 1.0000 0.8431 0.0000);fill-opacity:1;stroke:#806600;stroke:color(display-p3 0.5020 0.4000 0.0000);stroke-opacity:1;" stroke-width="0.5" stroke-linecap="round" stroke-linejoin="round"/>
</g>
<defs>
<clipPath id="clip0_2194_5441">
<rect width="640" height="480" fill="white" style="fill:white;fill-opacity:1;"/>
</clipPath>
</defs>
</svg>
