<svg width="640" height="480" viewBox="0 0 640 480" fill="none" xmlns="http://www.w3.org/2000/svg">
<g id="kh" clip-path="url(#clip0_2194_5549)">
<path id="Vector" d="M0 0H640V480H0V0Z" fill="#032EA1" style="fill:#032EA1;fill:color(display-p3 0.0118 0.1804 0.6314);fill-opacity:1;"/>
<path id="Vector_2" d="M0 120H640V360H0V120Z" fill="#E00025" style="fill:#E00025;fill:color(display-p3 0.8784 0.0000 0.1451);fill-opacity:1;"/>
<g id="Group">
<g id="Group_2">
<path id="Vector_3" d="M252.4 226.2H388.96V278.76H252.4V226.2Z" fill="white" stroke="black" style="fill:white;fill-opacity:1;stroke:black;stroke-opacity:1;" stroke-width="1.2" stroke-linejoin="bevel"/>
<path id="Vector_4" d="M382 255.12H386.2V274.92H382V255.12ZM252.4 245.4H388.96V251.4H252.4V245.4ZM252.4 237H388.96V242.52H252.4V237Z" fill="white" stroke="black" style="fill:white;fill-opacity:1;stroke:black;stroke-opacity:1;" stroke-width="1.2" stroke-linejoin="bevel"/>
<path id="Vector_5" d="M252.4 228.84H388.96V234H252.4V228.84Z" fill="white" stroke="black" style="fill:white;fill-opacity:1;stroke:black;stroke-opacity:1;" stroke-width="1.08" stroke-linejoin="bevel"/>
<path id="Vector_6" d="M288.4 255.12H292.72V274.92H288.4V255.12ZM347.2 255.12H351.52V274.92H347.2V255.12ZM253.6 255.12H257.8V274.92H253.6V255.12ZM262 255.12H266.2V274.92H262V255.12ZM271 255.12H275.2V274.92H271V255.12ZM280 255.12H284.2V274.92H280V255.12ZM355.36 255.12H359.68V274.92H355.36V255.12ZM364.36 255.12H368.68V274.92H364.36V255.12ZM373.36 255.12H377.68V274.92H373.36V255.12Z" fill="white" stroke="black" style="fill:white;fill-opacity:1;stroke:black;stroke-opacity:1;" stroke-width="1.2" stroke-linejoin="bevel"/>
<path id="Vector_7" d="M199 281.4C200.255 280.739 201.367 279.836 202.273 278.745C203.178 277.654 203.861 276.395 204.28 275.04H436C436.419 276.395 437.102 277.654 438.007 278.745C438.913 279.836 440.025 280.739 441.28 281.4H199Z" fill="white" stroke="black" style="fill:white;fill-opacity:1;stroke:black;stroke-opacity:1;" stroke-width="1.2"/>
</g>
<path id="Vector_8" d="M317.2 146.16C317.2 146.16 317.08 141.24 319.96 141.12C322.72 141.12 322.6 146.16 322.6 146.16H317.2ZM302.2 211.56V204.96C302.2 201.6 298.84 201.36 298.84 198.96C298.84 198.96 298.36 195.36 299.32 193.68C300.64 198.48 302.92 197.64 302.92 195.6C302.92 193.92 301.72 192.24 298.96 188.04C298 186.72 298.6 182.52 299.8 180.96C300.12 184.56 301 186.36 302.44 186.36C303.48 186.44 304.04 185.64 304.12 183.96C304.12 181.56 302.56 180.36 301.72 178.2C301.306 177.125 301.211 175.954 301.445 174.826C301.679 173.698 302.233 172.662 303.04 171.84C303.64 175.44 303.52 176.88 305.08 176.88C308.32 175.8 305.08 171.12 304.36 169.92C303.64 168.6 305.56 165.84 305.56 165.84C306.52 169.08 306.76 169.32 307.96 168.96C309.4 168.6 309.16 166.56 307.48 164.88C306.44 163.6 306.52 162.28 307.72 160.92C308.92 163.2 310.36 163.08 310.48 161.64L309.52 156.36H330.4L329.32 161.52C329.08 162.96 331 163.32 332.2 160.92C333.4 162.12 333.52 163.8 332.44 164.88C330.76 166.56 330.52 168.6 331.96 168.96C333.16 169.32 333.4 168.96 334.36 165.84C334.36 165.84 336.16 167.64 335.56 169.92C334.84 171.12 331.6 175.92 334.84 176.88C336.4 176.88 336.28 175.44 336.88 171.84C337.667 172.675 338.199 173.717 338.411 174.844C338.624 175.972 338.509 177.136 338.08 178.2C337.36 180.36 335.68 181.56 335.68 183.96C335.84 185.64 336.44 186.44 337.48 186.36C338.92 186.36 339.8 184.56 340.12 180.96C341.32 182.52 341.92 186.72 340.96 188.16C338.2 192.24 336.88 193.92 336.88 195.6C336.88 197.64 339.28 198.48 340.48 193.68C341.56 195.36 341.08 198.96 341.08 198.96C341.08 201.36 337.84 201.6 337.72 204.96V211.56H302.2ZM310.84 156.36L310.36 152.64H329.44L328.96 156.36H310.84ZM312.04 152.52L311.8 149.52H328L327.64 152.52H312.04ZM314.8 149.4L314.44 146.28H325.24L325.12 149.4H314.8ZM354.4 281.4C352 280.56 348.4 277.92 348.4 275.4V246.24L351.52 242.16H288.4L291.4 246.24V275.4C291.4 277.92 289 280.56 286.6 281.4H354.4Z" fill="white" stroke="black" style="fill:white;fill-opacity:1;stroke:black;stroke-opacity:1;" stroke-width="1.2"/>
<path id="Vector_9" d="M299.44 255.12H303.76V274.92H299.44V255.12ZM335.92 255.12H340.24V274.92H335.92V255.12Z" fill="white" stroke="black" style="fill:white;fill-opacity:1;stroke:black;stroke-opacity:1;" stroke-width="1.2" stroke-linejoin="bevel"/>
<path id="Vector_10" d="M287.2 209.04V242.16H352V209.04C351.241 209.295 350.558 209.737 350.013 210.323C349.468 210.91 349.079 211.624 348.88 212.4V226.56H290.44V212.4C290.44 212.4 289.72 210 287.08 209.04H287.2Z" fill="white" stroke="black" style="fill:white;fill-opacity:1;stroke:black;stroke-opacity:1;" stroke-width="1.2"/>
<path id="Vector_11" d="M343.12 281.4C340.96 280.56 336.4 277.92 336.4 275.4V242.76C336.88 240.96 339.28 239.88 340.84 238.68H298C300.04 239.88 302.32 240.72 303.16 242.76V275.4C303.16 277.92 299.56 280.56 297.4 281.4H343.12Z" fill="white" stroke="black" style="fill:white;fill-opacity:1;stroke:black;stroke-opacity:1;" stroke-width="1.2"/>
<path id="Vector_12" d="M348.88 239.04V215.52H343V213.24H296.44V215.64H290.44V239.04H348.88ZM334 281.4C331.84 280.56 328.84 277.92 328.84 275.4V247.56L330.52 245.04H309.28L311.08 247.44V275.4C311.08 277.92 307.96 280.56 305.92 281.4H334Z" fill="white" stroke="black" style="fill:white;fill-opacity:1;stroke:black;stroke-opacity:1;" stroke-width="1.2"/>
<path id="Vector_13" d="M314.44 245.04H325.24V281.4H314.44V245.04Z" fill="white" stroke="black" style="fill:white;fill-opacity:1;stroke:black;stroke-opacity:1;" stroke-width="1.2"/>
<path id="Vector_14" d="M330.88 237C330.88 234.6 337.84 234.48 341.44 232.44H298.24C301.84 234.48 308.68 234.6 308.68 237L310.12 241.68L328.12 242.4L330.88 237Z" fill="white" stroke="black" style="fill:white;fill-opacity:1;stroke:black;stroke-opacity:1;" stroke-width="1.2" stroke-linejoin="bevel"/>
<path id="Vector_15" d="M339.28 211.56C339.28 205.68 339.52 203.52 341.32 203.52V222C336.88 223.68 333.76 229.2 333.76 229.2H305.92C305.92 229.2 302.8 223.68 298.36 222V203.4C300.52 203.4 300.52 205.8 300.52 211.44L339.28 211.56ZM341.32 209.16C341.32 202.44 347.2 201.72 347.2 201.72V207.72C344.92 207.6 343.84 209.64 343.84 212.52C343.84 215.52 345.64 215.52 345.64 215.52V232.56H341.32V209.16Z" fill="white" stroke="black" style="fill:white;fill-opacity:1;stroke:black;stroke-opacity:1;" stroke-width="1.2"/>
<path id="Vector_16" d="M298.36 209.16C298.36 202.44 292.48 201.72 292.48 201.72V207.72C294.76 207.6 295.84 209.64 295.84 212.52C295.84 215.52 294.04 215.52 294.04 215.52V232.56H298.36V209.16Z" fill="white" stroke="black" style="fill:white;fill-opacity:1;stroke:black;stroke-opacity:1;" stroke-width="1.2"/>
<g id="Group_3">
<path id="Vector_17" d="M309.76 162.72H330.4M307.36 169.2H332.56M304.96 177H334.84M302.44 186.48H337.84M301.6 197.28H338.08" stroke="black" style="stroke:black;stroke-opacity:1;" stroke-width="0.96"/>
<path id="Vector_18" d="M290.56 232.8H348.88M309.04 232.8H330.64V240.72H309.04V232.8Z" stroke="black" style="stroke:black;stroke-opacity:1;" stroke-width="1.2"/>
</g>
<path id="Vector_19" d="M306.4 215.04C310 219.36 309.52 226.68 309.52 231H330.4C330.4 226.68 329.92 219.36 333.52 215.04H306.4ZM318.04 165.84L315.16 164.28V160.08C316.36 160.44 317.56 160.56 317.8 162.48C318.16 159.72 319 159.96 320.08 158.88C321.28 159.96 321.88 159.72 322.36 162.48C322.36 160.56 323.8 160.44 324.88 160.08V164.28L322.12 165.72L318.04 165.84Z" fill="white" stroke="black" style="fill:white;fill-opacity:1;stroke:black;stroke-opacity:1;" stroke-width="1.2"/>
<path id="Vector_20" d="M317.8 172.68L313 169.32V165.6C314.8 165.96 316.6 166.2 316.84 168.24C317.32 165.24 318.4 163.8 320.08 162.6C321.64 163.8 322.72 165.24 323.32 168.24C323.44 166.2 325.36 165.96 326.92 165.6V169.44L322.24 172.68H317.8Z" fill="white" stroke="black" style="fill:white;fill-opacity:1;stroke:black;stroke-opacity:1;" stroke-width="1.2"/>
<path id="Vector_21" d="M317.44 183.36L312.04 178.56V172.92C313.96 173.4 316.12 173.64 316.36 176.64C316.96 172.44 318.16 170.16 319.96 168.48C321.88 170.16 323.08 172.44 323.8 176.64C324.04 173.64 326.2 173.4 328.12 172.92V178.56L322.6 183.36H317.44ZM327.52 189.72L322.72 196.56H317.08L312.16 189.72H327.52ZM309.28 201.12C311.6 202.32 312.8 205.36 312.88 210.24H326.8C326.88 205.36 328.08 202.32 330.4 201.12H309.28Z" fill="white" stroke="black" style="fill:white;fill-opacity:1;stroke:black;stroke-opacity:1;" stroke-width="1.2"/>
<path id="Vector_22" d="M330.64 189.6V182.88C329.598 183.078 328.627 183.549 327.825 184.244C327.024 184.94 326.422 185.836 326.08 186.84C326.08 184.44 323.08 179.28 319.84 176.64C316.6 179.52 313.48 184.32 313.6 186.72C312.96 184.8 311.44 183.52 309.04 182.88V189.72L330.64 189.6Z" fill="white" stroke="black" style="fill:white;fill-opacity:1;stroke:black;stroke-opacity:1;" stroke-width="1.2" stroke-linejoin="bevel"/>
<path id="Vector_23" d="M331.6 201.12V194.4C329.04 195.12 327.4 196.44 326.68 198.36C326.68 195.96 323.44 190.8 319.84 188.16C316.24 191.16 312.88 195.84 313 198.36C312.36 196.52 310.72 195.2 308.08 194.4V201.24L331.6 201.12Z" fill="white" stroke="black" style="fill:white;fill-opacity:1;stroke:black;stroke-opacity:1;" stroke-width="1.2" stroke-linejoin="bevel"/>
<path id="Vector_24" d="M334.48 215.16V207.24C331.998 208.053 329.849 209.654 328.36 211.8C328.36 207.6 323.56 201 319.84 198.96C316 201.12 311.32 207.84 311.32 211.8C309.8 209.633 307.606 208.03 305.08 207.24V215.16H334.48Z" fill="white" stroke="black" style="fill:white;fill-opacity:1;stroke:black;stroke-opacity:1;" stroke-width="1.2" stroke-linejoin="bevel"/>
<path id="Vector_25" d="M332.8 232.8V224.64C329.92 225.72 329.2 228.36 328.24 230.28C328.6 222 323.68 213.24 319.84 210.96C316 213.24 310.96 222.24 311.44 230.16C310.48 228.48 309.64 225.72 306.88 224.64V232.68L332.8 232.8Z" fill="white" stroke="black" style="fill:white;fill-opacity:1;stroke:black;stroke-opacity:1;" stroke-width="1.2" stroke-linejoin="bevel"/>
<path id="Vector_26" d="M330.88 245.04V236.88C327.88 237.6 327.76 238.68 326.8 240.48C327.16 235.56 323.68 229.92 319.84 227.76C316 229.92 312.64 235.56 312.88 240.48C311.92 238.68 311.8 237.6 308.8 236.88V245.04H330.88Z" fill="white" stroke="black" style="fill:white;fill-opacity:1;stroke:black;stroke-opacity:1;" stroke-width="1.2"/>
<g id="kh-a">
<path id="Vector_27" d="M204.4 275.04V250.56C203.56 247.44 200.8 244.56 198.88 244.08V222.48L203.32 224.88L208.48 247.56V275.16L204.4 275.04Z" fill="white" stroke="black" style="fill:white;fill-opacity:1;stroke:black;stroke-opacity:1;" stroke-width="1.2"/>
<path id="Vector_28" d="M204.4 275.16V250.56C203.56 247.44 200.8 244.56 198.88 244.08V221.04C201.88 221.04 203.32 224.88 203.32 224.88L208.48 247.56V275.04L204.4 275.16Z" fill="white" stroke="black" style="fill:white;fill-opacity:1;stroke:black;stroke-opacity:1;" stroke-width="1.2"/>
<path id="Vector_29" d="M201.16 281.4C203.2 280.56 206.2 277.92 206.2 275.4V244.68L204.76 242.28H257.2L255.16 244.68V275.4C255.248 276.672 255.672 277.897 256.389 278.952C257.106 280.006 258.09 280.851 259.24 281.4H201.16Z" fill="white" stroke="black" style="fill:white;fill-opacity:1;stroke:black;stroke-opacity:1;" stroke-width="1.2"/>
<path id="Vector_30" d="M248.56 281.4C246.52 280.56 243.52 277.92 243.52 275.4V246.24L247.84 242.16H212.32L216.64 246.24V275.4C216.64 277.92 213.64 280.56 211.6 281.4H248.56Z" fill="white" stroke="black" style="fill:white;fill-opacity:1;stroke:black;stroke-opacity:1;" stroke-width="1.2"/>
<path id="Vector_31" d="M243.64 281.4C241.6 280.56 238.48 277.92 238.48 275.4V249L241.36 245.04H218.8L221.68 249V275.4C221.68 277.92 218.68 280.56 216.52 281.4H243.64Z" fill="white" stroke="black" style="fill:white;fill-opacity:1;stroke:black;stroke-opacity:1;" stroke-width="1.2"/>
<path id="Vector_32" d="M224.8 245.04H235.48V281.52H224.68L224.8 245.04Z" fill="white" stroke="black" style="fill:white;fill-opacity:1;stroke:black;stroke-opacity:1;" stroke-width="1.2"/>
<g id="Vector_33">
<path d="M210.04 255.12H214.36V274.92H210.04V255.12ZM247 255.12H251.2V274.92H246.88L247 255.12ZM206.32 221.76H211.6V242.16H206.32V221.76ZM206.32 217.92H211.48V221.76H206.32V217.92ZM249.04 226.2H256.36V241.8H249.04V226.2Z" fill="white" style="fill:white;fill-opacity:1;"/>
<path d="M206.32 221.76H211.6V242.16H206.32V221.76ZM206.32 221.76H211.48V217.92H206.32V221.76ZM210.04 255.12H214.36V274.92H210.04V255.12ZM247 255.12H251.2V274.92H246.88L247 255.12ZM249.04 226.2H256.36V241.8H249.04V226.2Z" stroke="black" style="stroke:black;stroke-opacity:1;" stroke-width="1.2" stroke-linejoin="bevel"/>
</g>
<path id="Vector_34" d="M211.48 241.92V207.12C212.92 207.12 213.16 212.28 216.52 212.28C218.32 212.28 218.2 210.12 217.12 208.44C216.28 206.88 215.2 204.84 216.64 200.88C217.72 203.88 220.36 204.84 219.88 203.04C219.04 199.8 216.52 199.2 218.44 194.28C219.04 198.36 221.68 198.24 221.08 195.84C220.36 193.08 218.8 191.88 220.72 188.04C221.8 192.48 223.12 192.24 223.12 189.48C223.12 185.4 223.12 181.08 228.16 179.52C228.16 179.52 228.52 175.92 230.44 175.92C232.36 175.92 232.6 179.52 232.6 179.52C237.76 181.08 237.64 185.52 237.64 189.48C237.64 192.24 238.96 192.48 240.04 188.04C241.96 191.88 240.4 193.08 239.68 195.84C239.08 198.24 241.72 198.36 242.32 194.28C244.24 199.2 241.72 199.8 240.88 203.04C240.4 204.84 243.04 203.88 244.12 200.88C245.56 204.84 244.48 206.88 243.64 208.44C242.68 210.12 242.44 212.28 244.24 212.28C247.6 212.28 247.84 207.24 249.28 207.24V241.92H211.48ZM203.2 215.64V242.16H206.2V215.64C205.16 215.08 204.16 215.08 203.2 215.64Z" fill="white" stroke="black" style="fill:white;fill-opacity:1;stroke:black;stroke-opacity:1;" stroke-width="1.2"/>
<path id="Vector_35" d="M203.44 232.8C207.16 234.72 210.88 237 211.84 242.16H203.44V232.8ZM255.28 224.88V242.16H257.68V224.88C256.88 224.48 256.08 224.48 255.28 224.88Z" fill="white" stroke="black" style="fill:white;fill-opacity:1;stroke:black;stroke-opacity:1;" stroke-width="1.2"/>
<path id="Vector_36" d="M257.68 232.8C253.96 234.6 250.24 236.76 249.28 242.04H257.68V232.8ZM232.96 192.36L235.12 190.56V188.16C234.48 188.16 233.88 188.56 233.32 189.36C233.087 188.589 232.702 187.874 232.186 187.255C231.671 186.637 231.036 186.128 230.32 185.76C229.594 186.102 228.943 186.586 228.407 187.184C227.871 187.782 227.461 188.481 227.2 189.24C226.72 188.52 226.12 188.12 225.4 188.04V190.44L227.56 192.36H232.96Z" fill="white" stroke="black" style="fill:white;fill-opacity:1;stroke:black;stroke-opacity:1;" stroke-width="1.2"/>
<path id="Vector_37" d="M234.16 198.24L235.12 195.96V192.96C234.48 192.96 233.88 193.36 233.32 194.16C233.087 193.389 232.702 192.673 232.186 192.055C231.671 191.437 231.036 190.928 230.32 190.56C229.594 190.902 228.943 191.386 228.407 191.984C227.871 192.582 227.461 193.281 227.2 194.04C226.72 193.32 226.12 192.96 225.4 192.96V195.96L226.36 198.24H234.16Z" fill="white" stroke="black" style="fill:white;fill-opacity:1;stroke:black;stroke-opacity:1;" stroke-width="1.2"/>
<path id="Vector_38" d="M234.4 206.16L237.52 202.2V198.36C236.48 198.36 235.6 199 234.88 200.28C234.04 197.52 232.48 197.04 230.32 195.72C228.04 196.92 226.48 197.52 225.76 200.16C224.8 198.84 224.2 198.48 223 198.36V202.2L226.24 206.16H234.4Z" fill="white" stroke="black" style="fill:white;fill-opacity:1;stroke:black;stroke-opacity:1;" stroke-width="1.2"/>
<path id="Vector_39" d="M235.24 213.96C235.24 213.96 239.08 210.72 239.2 208.92V204.72C237.76 204.84 236.44 205.2 235.36 207C234.4 203.52 232.96 202.56 230.32 201C227.56 202.56 226.12 203.52 225.28 207C224.08 205.2 222.88 204.84 221.32 204.6V208.92C222.328 210.823 223.669 212.53 225.28 213.96H235.24Z" fill="white" stroke="black" style="fill:white;fill-opacity:1;stroke:black;stroke-opacity:1;" stroke-width="1.2"/>
<path id="Vector_40" d="M236.8 228.36C236.8 228.36 242.08 222.72 242.2 220.44V213.96C240.2 214.12 238.44 215.56 236.92 218.28C235.88 213 233.68 209.08 230.32 206.52C226.72 209.16 224.8 212.88 223.6 218.28C222.08 215.56 220.36 214.12 218.44 213.96V220.44C218.8 222.72 223.72 228.36 223.72 228.36H236.8Z" fill="white" stroke="black" style="fill:white;fill-opacity:1;stroke:black;stroke-opacity:1;" stroke-width="1.2"/>
<path id="Vector_41" d="M236.8 236.88C236.8 236.88 241.24 232.44 242.2 230.52V224.04C240.2 224.28 238.44 225.68 236.92 228.24C236.599 226.057 235.851 223.958 234.719 222.063C233.586 220.169 232.092 218.516 230.32 217.2C226.72 219.84 224.8 222.84 223.6 228.24C222.08 225.68 220.36 224.28 218.44 224.04V230.52C219.64 232.44 223.72 236.88 223.72 236.88H236.8Z" fill="white" stroke="black" style="fill:white;fill-opacity:1;stroke:black;stroke-opacity:1;" stroke-width="1.2"/>
<path id="Vector_42" d="M238.6 241.92C237.4 236.28 236.2 232.08 230.08 227.88C223.84 232.08 222.76 236.28 221.44 241.92H238.6Z" fill="white" stroke="black" style="fill:white;fill-opacity:1;stroke:black;stroke-opacity:1;" stroke-width="1.2"/>
<path id="Vector_43" d="M241.84 245.04V236.88C238.96 238.08 236.44 239.64 235.48 241.44C234.52 236.88 232.48 234.96 229.96 232.2C227.44 234.96 225.76 237 224.68 241.44C223.72 239.64 221.2 237.96 218.44 236.88V245.04H241.84Z" fill="white" stroke="black" style="fill:white;fill-opacity:1;stroke:black;stroke-opacity:1;" stroke-width="1.2"/>
</g>
<g id="kh-a_2">
<path id="Vector_44" d="M435.64 275.04V250.56C436.48 247.44 439.24 244.56 441.16 244.08V222.48L436.72 224.88L431.56 247.56V275.16L435.64 275.04Z" fill="white" stroke="black" style="fill:white;fill-opacity:1;stroke:black;stroke-opacity:1;" stroke-width="1.2"/>
<path id="Vector_45" d="M435.64 275.16V250.56C436.48 247.44 439.24 244.56 441.16 244.08V221.04C438.16 221.04 436.72 224.88 436.72 224.88L431.56 247.56V275.04L435.64 275.16Z" fill="white" stroke="black" style="fill:white;fill-opacity:1;stroke:black;stroke-opacity:1;" stroke-width="1.2"/>
<path id="Vector_46" d="M438.88 281.4C436.84 280.56 433.84 277.92 433.84 275.4V244.68L435.28 242.28H382.84L384.88 244.68V275.4C384.792 276.672 384.368 277.897 383.651 278.952C382.934 280.006 381.95 280.851 380.8 281.4H438.88Z" fill="white" stroke="black" style="fill:white;fill-opacity:1;stroke:black;stroke-opacity:1;" stroke-width="1.2"/>
<path id="Vector_47" d="M391.48 281.4C393.52 280.56 396.52 277.92 396.52 275.4V246.24L392.2 242.16H427.72L423.4 246.24V275.4C423.4 277.92 426.4 280.56 428.44 281.4H391.48Z" fill="white" stroke="black" style="fill:white;fill-opacity:1;stroke:black;stroke-opacity:1;" stroke-width="1.2"/>
<path id="Vector_48" d="M396.4 281.4C398.44 280.56 401.56 277.92 401.56 275.4V249L398.68 245.04H421.24L418.36 249V275.4C418.36 277.92 421.36 280.56 423.52 281.4H396.4Z" fill="white" stroke="black" style="fill:white;fill-opacity:1;stroke:black;stroke-opacity:1;" stroke-width="1.2"/>
<path id="Vector_49" d="M415.24 245.04H404.56V281.52H415.36L415.24 245.04Z" fill="white" stroke="black" style="fill:white;fill-opacity:1;stroke:black;stroke-opacity:1;" stroke-width="1.2"/>
<g id="Vector_50">
<path d="M430 255.12H425.68V274.92H430V255.12ZM393.04 255.12H388.84V274.92H393.16L393.04 255.12ZM433.72 221.76H428.44V242.16H433.72V221.76ZM433.72 217.92H428.56V221.76H433.72V217.92ZM391 226.2H383.68V241.8H391V226.2Z" fill="white" style="fill:white;fill-opacity:1;"/>
<path d="M433.72 221.76H428.44V242.16H433.72V221.76ZM433.72 221.76H428.56V217.92H433.72V221.76ZM430 255.12H425.68V274.92H430V255.12ZM393.04 255.12H388.84V274.92H393.16L393.04 255.12ZM391 226.2H383.68V241.8H391V226.2Z" stroke="black" style="stroke:black;stroke-opacity:1;" stroke-width="1.2" stroke-linejoin="bevel"/>
</g>
<path id="Vector_51" d="M428.56 241.92V207.12C427.12 207.12 426.88 212.28 423.52 212.28C421.72 212.28 421.84 210.12 422.92 208.44C423.76 206.88 424.84 204.84 423.4 200.88C422.32 203.88 419.68 204.84 420.16 203.04C421 199.8 423.52 199.2 421.6 194.28C421 198.36 418.36 198.24 418.96 195.84C419.68 193.08 421.24 191.88 419.32 188.04C418.24 192.48 416.92 192.24 416.92 189.48C416.92 185.4 416.92 181.08 411.88 179.52C411.88 179.52 411.52 175.92 409.6 175.92C407.68 175.92 407.44 179.52 407.44 179.52C402.28 181.08 402.4 185.52 402.4 189.48C402.4 192.24 401.08 192.48 400 188.04C398.08 191.88 399.64 193.08 400.36 195.84C400.96 198.24 398.32 198.36 397.72 194.28C395.8 199.2 398.32 199.8 399.16 203.04C399.64 204.84 397 203.88 395.92 200.88C394.48 204.84 395.56 206.88 396.4 208.44C397.36 210.12 397.6 212.28 395.8 212.28C392.44 212.28 392.2 207.24 390.76 207.24V241.92H428.56ZM436.84 215.64V242.16H433.84V215.64C434.88 215.08 435.88 215.08 436.84 215.64Z" fill="white" stroke="black" style="fill:white;fill-opacity:1;stroke:black;stroke-opacity:1;" stroke-width="1.2"/>
<path id="Vector_52" d="M436.6 232.8C432.88 234.72 429.16 237 428.2 242.16H436.6V232.8ZM384.76 224.88V242.16H382.36V224.88C383.16 224.48 383.96 224.48 384.76 224.88Z" fill="white" stroke="black" style="fill:white;fill-opacity:1;stroke:black;stroke-opacity:1;" stroke-width="1.2"/>
<path id="Vector_53" d="M382.36 232.8C386.08 234.6 389.8 236.76 390.76 242.04H382.36V232.8ZM407.08 192.36L404.92 190.56V188.16C405.56 188.16 406.16 188.56 406.72 189.36C406.953 188.589 407.339 187.874 407.854 187.255C408.37 186.637 409.004 186.128 409.72 185.76C410.447 186.102 411.097 186.586 411.633 187.184C412.169 187.782 412.579 188.481 412.84 189.24C413.32 188.52 413.92 188.12 414.64 188.04V190.44L412.48 192.36H407.08Z" fill="white" stroke="black" style="fill:white;fill-opacity:1;stroke:black;stroke-opacity:1;" stroke-width="1.2"/>
<path id="Vector_54" d="M405.88 198.24L404.92 195.96V192.96C405.56 192.96 406.16 193.36 406.72 194.16C406.953 193.389 407.339 192.673 407.854 192.055C408.37 191.437 409.004 190.928 409.72 190.56C410.447 190.902 411.097 191.386 411.633 191.984C412.169 192.582 412.579 193.281 412.84 194.04C413.32 193.32 413.92 192.96 414.64 192.96V195.96L413.68 198.24H405.88Z" fill="white" stroke="black" style="fill:white;fill-opacity:1;stroke:black;stroke-opacity:1;" stroke-width="1.2"/>
<path id="Vector_55" d="M405.64 206.16L402.52 202.2V198.36C403.56 198.36 404.44 199 405.16 200.28C406 197.52 407.56 197.04 409.72 195.72C412 196.92 413.56 197.52 414.28 200.16C415.24 198.84 415.84 198.48 417.04 198.36V202.2L413.8 206.16H405.64Z" fill="white" stroke="black" style="fill:white;fill-opacity:1;stroke:black;stroke-opacity:1;" stroke-width="1.2"/>
<path id="Vector_56" d="M404.8 213.96C404.8 213.96 400.96 210.72 400.84 208.92V204.72C402.28 204.84 403.6 205.2 404.68 207C405.64 203.52 407.08 202.56 409.72 201C412.48 202.56 413.92 203.52 414.76 207C415.96 205.2 417.16 204.84 418.72 204.6V208.92C417.712 210.823 416.371 212.53 414.76 213.96H404.8Z" fill="white" stroke="black" style="fill:white;fill-opacity:1;stroke:black;stroke-opacity:1;" stroke-width="1.2"/>
<path id="Vector_57" d="M403.24 228.36C403.24 228.36 397.96 222.72 397.84 220.44V213.96C399.84 214.12 401.6 215.56 403.12 218.28C404.16 213 406.36 209.08 409.72 206.52C413.32 209.16 415.24 212.88 416.44 218.28C417.96 215.56 419.68 214.12 421.6 213.96V220.44C421.24 222.72 416.32 228.36 416.32 228.36H403.24Z" fill="white" stroke="black" style="fill:white;fill-opacity:1;stroke:black;stroke-opacity:1;" stroke-width="1.2"/>
<path id="Vector_58" d="M403.24 236.88C403.24 236.88 398.8 232.44 397.84 230.52V224.04C399.84 224.28 401.6 225.68 403.12 228.24C403.441 226.057 404.189 223.958 405.322 222.063C406.454 220.169 407.949 218.516 409.72 217.2C413.32 219.84 415.24 222.84 416.44 228.24C417.96 225.68 419.68 224.28 421.6 224.04V230.52C420.4 232.44 416.32 236.88 416.32 236.88H403.24Z" fill="white" stroke="black" style="fill:white;fill-opacity:1;stroke:black;stroke-opacity:1;" stroke-width="1.2"/>
<path id="Vector_59" d="M401.44 241.92C402.64 236.28 403.84 232.08 409.96 227.88C416.2 232.08 417.28 236.28 418.6 241.92H401.44Z" fill="white" stroke="black" style="fill:white;fill-opacity:1;stroke:black;stroke-opacity:1;" stroke-width="1.2"/>
<path id="Vector_60" d="M398.2 245.04V236.88C401.08 238.08 403.6 239.64 404.56 241.44C405.52 236.88 407.56 234.96 410.08 232.2C412.6 234.96 414.28 237 415.36 241.44C416.32 239.64 418.84 237.96 421.6 236.88V245.04H398.2Z" fill="white" stroke="black" style="fill:white;fill-opacity:1;stroke:black;stroke-opacity:1;" stroke-width="1.2"/>
</g>
<path id="Vector_61" d="M172.84 311.16H467.2V326.16H172.84V311.16ZM165.04 326.16H475V341.16H165.04V326.16ZM188.32 288.6H451.6V298.32H188.32V288.6Z" fill="white" stroke="black" style="fill:white;fill-opacity:1;stroke:black;stroke-opacity:1;" stroke-width="1.2"/>
<path id="Vector_62" d="M180.64 298.32H459.52V311.04H180.64V298.32ZM192.88 281.16H447.28V288.6H192.88V281.16Z" fill="white" stroke="black" style="fill:white;fill-opacity:1;stroke:black;stroke-opacity:1;" stroke-width="1.2"/>
<path id="Vector_63" d="M220.48 281.16H239.68V341.16H220.48V281.16Z" fill="white" stroke="black" style="fill:white;fill-opacity:1;stroke:black;stroke-opacity:1;" stroke-width="1.2"/>
<path id="Vector_64" d="M224.8 281.16H235.48V341.16H224.68L224.8 281.16ZM310 281.16H329.2V341.16H310V281.16Z" fill="white" stroke="black" style="fill:white;fill-opacity:1;stroke:black;stroke-opacity:1;" stroke-width="1.2"/>
<path id="Vector_65" d="M314.44 281.16H325.24V341.16H314.44V281.16ZM400.24 281.16H419.44V341.16H400.24V281.16Z" fill="white" stroke="black" style="fill:white;fill-opacity:1;stroke:black;stroke-opacity:1;" stroke-width="1.2"/>
<path id="Vector_66" d="M404.44 281.16H415.24V341.16H404.44V281.16Z" fill="white" stroke="black" style="fill:white;fill-opacity:1;stroke:black;stroke-opacity:1;" stroke-width="1.2"/>
<path id="Vector_67" d="M204.4 275.04H436M224.56 333.6H235.6M224.56 326.04H235.6M224.56 318.6H235.6M224.56 311.04H235.6M224.56 303.6H235.6M224.56 296.04H235.6M224.56 288.6H235.6M314.56 333.6H324.88M314.56 326.04H324.88M314.56 318.6H324.88M314.56 311.04H324.88M314.56 303.6H324.88M314.56 296.04H324.88M314.56 288.6H324.88M404.32 333.6H415.36M404.32 326.04H415.36M404.32 318.6H415.36M404.32 311.04H415.36M404.32 303.6H415.36M404.32 296.04H415.36M404.32 288.6H415.36" stroke="black" style="stroke:black;stroke-opacity:1;" stroke-width="1.2"/>
</g>
</g>
<defs>
<clipPath id="clip0_2194_5549">
<rect width="640" height="480" fill="white" style="fill:white;fill-opacity:1;"/>
</clipPath>
</defs>
</svg>
