<svg width="640" height="480" viewBox="0 0 640 480" fill="none" xmlns="http://www.w3.org/2000/svg">
<g id="ki" clip-path="url(#clip0_2194_5622)">
<g id="Clip path group">
<mask id="mask0_2194_5622" style="mask-type:luminance" maskUnits="userSpaceOnUse" x="0" y="0" width="641" height="480">
<g id="ki-a">
<path id="Vector" d="M0.09375 0H640.031V480H0.09375V0Z" fill="white" style="fill:white;fill-opacity:1;"/>
</g>
</mask>
<g mask="url(#mask0_2194_5622)">
<g id="Group">
<path id="Vector_2" fill-rule="evenodd" clip-rule="evenodd" d="M-73.0312 0H710.531V287.344H-73.0312V0Z" fill="#E73E2D" style="fill:#E73E2D;fill:color(display-p3 0.9059 0.2431 0.1765);fill-opacity:1;"/>
<path id="Vector_3" fill-rule="evenodd" clip-rule="evenodd" d="M272.531 264.469C254.344 250.219 220.406 255.094 214.781 216.375C240.75 236.531 236.063 215.25 274.781 234.469L272.531 264.469Z" fill="#FEC74A" stroke="#D8AA3F" style="fill:#FEC74A;fill:color(display-p3 0.9961 0.7804 0.2902);fill-opacity:1;stroke:#D8AA3F;stroke:color(display-p3 0.8471 0.6667 0.2471);stroke-opacity:1;" stroke-width="1.59375"/>
<path id="Vector_4" fill-rule="evenodd" clip-rule="evenodd" d="M277.406 246.937C264.375 227.812 230.531 222 237.094 183.469C255.75 210.562 257.719 188.813 288.844 219L277.406 246.937Z" fill="#FEC74A" stroke="#D8AA3F" style="fill:#FEC74A;fill:color(display-p3 0.9961 0.7804 0.2902);fill-opacity:1;stroke:#D8AA3F;stroke:color(display-p3 0.8471 0.6667 0.2471);stroke-opacity:1;" stroke-width="1.59375"/>
<path id="Vector_5" fill-rule="evenodd" clip-rule="evenodd" d="M283.313 234.375C278.625 211.781 249.563 193.5 270.375 160.312C277.125 192.563 287.25 173.25 304.5 213L283.313 234.375Z" fill="#FEC74A" stroke="#D8AA3F" style="fill:#FEC74A;fill:color(display-p3 0.9961 0.7804 0.2902);fill-opacity:1;stroke:#D8AA3F;stroke:color(display-p3 0.8471 0.6667 0.2471);stroke-opacity:1;" stroke-width="1.59375"/>
<path id="Vector_6" fill-rule="evenodd" clip-rule="evenodd" d="M296.906 222.75C299.438 199.781 277.406 173.437 307.312 148.312C303.937 181.031 319.5 165.844 323.719 208.875L296.906 222.75Z" fill="#FEC74A" stroke="#D8AA3F" style="fill:#FEC74A;fill:color(display-p3 0.9961 0.7804 0.2902);fill-opacity:1;stroke:#D8AA3F;stroke:color(display-p3 0.8471 0.6667 0.2471);stroke-opacity:1;" stroke-width="1.59375"/>
<path id="Vector_7" fill-rule="evenodd" clip-rule="evenodd" d="M309.094 213.469C320.719 193.5 311.437 160.5 349.031 149.812C332.531 178.219 352.969 170.719 339.187 211.688L309.094 213.469Z" fill="#FEC74A" stroke="#D8AA3F" style="fill:#FEC74A;fill:color(display-p3 0.9961 0.7804 0.2902);fill-opacity:1;stroke:#D8AA3F;stroke:color(display-p3 0.8471 0.6667 0.2471);stroke-opacity:1;" stroke-width="1.59375"/>
<path id="Vector_8" fill-rule="evenodd" clip-rule="evenodd" d="M326.625 215.906C344.063 200.719 345.75 166.406 384.75 168.187C360.094 189.937 381.938 189.281 355.688 223.875L326.625 215.906Z" fill="#FEC74A" stroke="#D8AA3F" style="fill:#FEC74A;fill:color(display-p3 0.9961 0.7804 0.2902);fill-opacity:1;stroke:#D8AA3F;stroke:color(display-p3 0.8471 0.6667 0.2471);stroke-opacity:1;" stroke-width="1.59375"/>
<path id="Vector_9" fill-rule="evenodd" clip-rule="evenodd" d="M342.188 224.906C363.281 215.437 374.906 183.187 411.656 196.312C381.656 209.906 402.75 215.719 367.594 241.031L342.188 224.906Z" fill="#FEC74A" stroke="#D8AA3F" style="fill:#FEC74A;fill:color(display-p3 0.9961 0.7804 0.2902);fill-opacity:1;stroke:#D8AA3F;stroke:color(display-p3 0.8471 0.6667 0.2471);stroke-opacity:1;" stroke-width="1.59375"/>
<path id="Vector_10" fill-rule="evenodd" clip-rule="evenodd" d="M355.219 239.062C378.094 235.875 398.344 208.125 429.938 231.188C397.406 235.781 415.875 247.219 375.094 261.656L355.219 239.062Z" fill="#FEC74A" stroke="#D8AA3F" style="fill:#FEC74A;fill:color(display-p3 0.9961 0.7804 0.2902);fill-opacity:1;stroke:#D8AA3F;stroke:color(display-p3 0.8471 0.6667 0.2471);stroke-opacity:1;" stroke-width="1.59375"/>
<path id="Vector_11" fill-rule="evenodd" clip-rule="evenodd" d="M436.781 243.375L331.688 245.719L336.094 274.031L436.781 243.375Z" fill="#FEC74A" stroke="#D8AA3F" style="fill:#FEC74A;fill:color(display-p3 0.9961 0.7804 0.2902);fill-opacity:1;stroke:#D8AA3F;stroke:color(display-p3 0.8471 0.6667 0.2471);stroke-opacity:1;" stroke-width="1.59375"/>
<path id="Vector_12" fill-rule="evenodd" clip-rule="evenodd" d="M421.312 204.75L324 242.156L340.219 273.375L421.312 204.75Z" fill="#FEC74A" stroke="#D8AA3F" style="fill:#FEC74A;fill:color(display-p3 0.9961 0.7804 0.2902);fill-opacity:1;stroke:#D8AA3F;stroke:color(display-p3 0.8471 0.6667 0.2471);stroke-opacity:1;" stroke-width="1.59375"/>
<path id="Vector_13" fill-rule="evenodd" clip-rule="evenodd" d="M344.063 263.156L394.406 171.656L317.156 243.562L344.063 263.156Z" fill="#FEC74A" stroke="#D8AA3F" style="fill:#FEC74A;fill:color(display-p3 0.9961 0.7804 0.2902);fill-opacity:1;stroke:#D8AA3F;stroke:color(display-p3 0.8471 0.6667 0.2471);stroke-opacity:1;" stroke-width="1.59375"/>
<path id="Vector_14" fill-rule="evenodd" clip-rule="evenodd" d="M343.031 255.563L359.156 153L308.719 244.125L343.031 255.563Z" fill="#FEC74A" stroke="#D8AA3F" style="fill:#FEC74A;fill:color(display-p3 0.9961 0.7804 0.2902);fill-opacity:1;stroke:#D8AA3F;stroke:color(display-p3 0.8471 0.6667 0.2471);stroke-opacity:1;" stroke-width="1.59375"/>
<path id="Vector_15" fill-rule="evenodd" clip-rule="evenodd" d="M336.938 247.219L320.062 143.906L301.312 247.688L336.938 247.219Z" fill="#FEC74A" stroke="#D8AA3F" style="fill:#FEC74A;fill:color(display-p3 0.9961 0.7804 0.2902);fill-opacity:1;stroke:#D8AA3F;stroke:color(display-p3 0.8471 0.6667 0.2471);stroke-opacity:1;" stroke-width="1.59375"/>
<path id="Vector_16" fill-rule="evenodd" clip-rule="evenodd" d="M328.219 238.406L279.188 152.156L297.937 256.969L328.219 238.406Z" fill="#FEC74A" stroke="#D8AA3F" style="fill:#FEC74A;fill:color(display-p3 0.9961 0.7804 0.2902);fill-opacity:1;stroke:#D8AA3F;stroke:color(display-p3 0.8471 0.6667 0.2471);stroke-opacity:1;" stroke-width="1.59375"/>
<path id="Vector_17" fill-rule="evenodd" clip-rule="evenodd" d="M320.625 237.75L244.594 173.531L298.594 265.406L320.625 237.75Z" fill="#FEC74A" stroke="#D8AA3F" style="fill:#FEC74A;fill:color(display-p3 0.9961 0.7804 0.2902);fill-opacity:1;stroke:#D8AA3F;stroke:color(display-p3 0.8471 0.6667 0.2471);stroke-opacity:1;" stroke-width="1.59375"/>
<path id="Vector_18" fill-rule="evenodd" clip-rule="evenodd" d="M217.875 205.219L299.438 272.625L312 237.375L217.875 205.219Z" fill="#FEC74A" stroke="#D8AA3F" style="fill:#FEC74A;fill:color(display-p3 0.9961 0.7804 0.2902);fill-opacity:1;stroke:#D8AA3F;stroke:color(display-p3 0.8471 0.6667 0.2471);stroke-opacity:1;" stroke-width="1.59375"/>
<path id="Vector_19" fill-rule="evenodd" clip-rule="evenodd" d="M298.594 244.594L202.688 243.188L298.219 275.062L298.594 244.594Z" fill="#FEC74A" stroke="#D8AA3F" style="fill:#FEC74A;fill:color(display-p3 0.9961 0.7804 0.2902);fill-opacity:1;stroke:#D8AA3F;stroke:color(display-p3 0.8471 0.6667 0.2471);stroke-opacity:1;" stroke-width="1.59375"/>
<path id="Vector_20" fill-rule="evenodd" clip-rule="evenodd" d="M376.406 261.75C376.719 269.498 375.463 277.23 372.714 284.481C369.964 291.732 365.778 298.353 360.407 303.946C355.035 309.539 348.588 313.989 341.454 317.028C334.32 320.068 326.645 321.635 318.891 321.635C311.136 321.635 303.461 320.068 296.327 317.028C289.193 313.989 282.746 309.539 277.375 303.946C272.003 298.353 267.817 291.732 265.067 284.481C262.318 277.23 261.062 269.498 261.375 261.75C261.975 246.898 268.297 232.853 279.017 222.557C289.738 212.26 304.026 206.51 318.891 206.51C333.755 206.51 348.043 212.26 358.764 222.557C369.485 232.853 375.807 246.898 376.406 261.75Z" fill="#FEC74A" stroke="#D8AA3F" style="fill:#FEC74A;fill:color(display-p3 0.9961 0.7804 0.2902);fill-opacity:1;stroke:#D8AA3F;stroke:color(display-p3 0.8471 0.6667 0.2471);stroke-opacity:1;" stroke-width="1.59375"/>
<path id="Vector_21" fill-rule="evenodd" clip-rule="evenodd" d="M-73.7813 284.438H713.625V480H-73.875L-73.7813 284.438Z" fill="#005989" style="fill:#005989;fill:color(display-p3 0.0000 0.3490 0.5373);fill-opacity:1;"/>
<path id="Vector_22" fill-rule="evenodd" clip-rule="evenodd" d="M-74.25 425.625C-59.625 432.375 -38.625 449.344 -16.125 449.344C21.375 449.062 22.3125 423.656 60.375 424.875C98.5313 425.813 91.5937 452.625 143.062 452.531C185.625 452.344 199.312 420 236.062 423.844C263.25 422.438 274.313 454.5 316.031 454.969C359.344 455.906 375.188 420 402.281 423C431.344 423 440.719 451.875 481.312 452.063C533.063 452.344 542.156 422.063 574.406 423.938C597.469 423.469 615.656 446.156 649.406 446.719C676.219 447.188 698.812 426.844 714.094 419.531L714.75 385.031C698.812 390.938 675 410.438 651.281 410.625C616.969 411.938 595.875 388.125 572.062 388.406C543.562 388.688 532.219 417.75 483.937 417.75C439.687 417.75 429.562 388.406 401.062 388.406C373.219 388.594 364.688 420.281 316.406 419.719C277.031 419.25 261.75 389.438 233.906 389.719C204.375 389.719 173.906 418.688 141.094 417.281C96.0938 415.406 86.25 389.719 56.7188 389.719C34.6875 389.719 10.7813 413.719 -15.75 414.094C-42.1875 414.563 -71.9062 390.188 -74.625 389.719L-74.25 425.625ZM-74.25 357.188C-59.625 364.031 -38.625 381 -16.125 381C21.375 380.719 22.3125 355.313 60.375 356.438C98.5313 357.375 91.5937 384.281 143.062 384.094C185.625 384.094 199.312 351.656 236.062 355.5C263.25 354.094 274.313 386.156 316.031 386.531C359.344 387.469 375.188 351.656 402.281 354.656C431.344 354.656 440.719 383.531 481.312 383.719C533.063 384 542.156 353.719 574.406 355.594C597.469 355.125 615.656 377.813 649.406 378.375C676.219 378.844 698.812 358.5 714.094 351.188L714.75 316.688C698.812 322.594 675 342 651.281 342.281C616.969 343.5 595.875 319.781 572.062 320.063C543.562 320.344 532.219 349.406 483.937 349.406C439.687 349.406 429.562 320.063 401.062 320.063C373.219 320.25 364.688 351.938 316.406 351.375C277.031 350.906 261.75 321.094 233.906 321.375C204.375 321.375 173.906 350.25 141.094 348.844C96.0938 346.969 86.25 321.281 56.7188 321.281C34.6875 321.281 10.7813 345.375 -15.75 345.75C-42.2812 346.125 -71.9062 321.844 -74.625 321.375L-74.25 357.281V357.188Z" fill="white" style="fill:white;fill-opacity:1;"/>
<path id="Vector_23" fill-rule="evenodd" clip-rule="evenodd" d="M-74.25 289.687C-59.625 296.437 -38.625 313.313 -16.2187 313.313C21.2813 313.125 22.2187 287.625 60.2812 288.844C98.3437 289.781 91.4062 316.594 142.875 316.5C185.344 316.406 199.125 283.969 235.688 287.906C262.875 286.5 273.937 318.563 315.656 318.938C358.875 319.875 374.719 283.969 401.906 286.969C430.781 286.969 440.344 315.844 480.844 316.031C532.406 316.313 541.5 286.031 573.844 287.906C596.813 287.438 615 310.125 648.656 310.687C675.563 311.156 698.063 290.812 713.344 283.5L714 249C698.063 255 674.344 274.406 650.531 274.594C616.406 275.906 595.219 252.188 571.406 252.375C543 252.656 531.656 281.719 483.281 281.719C439.219 281.719 429.094 252.375 400.594 252.375C372.75 252.656 364.219 284.25 316.125 283.688C276.75 283.219 261.469 253.5 233.625 253.688C204.094 253.688 173.625 282.656 141 281.25C95.9063 279.375 86.1562 253.688 56.625 253.688C34.5938 253.688 10.7813 277.687 -15.75 278.062C-42.1875 278.531 -71.8125 254.25 -74.625 253.688L-74.25 289.594V289.687Z" fill="white" style="fill:white;fill-opacity:1;"/>
<path id="Vector_24" fill-rule="evenodd" clip-rule="evenodd" d="M209.25 71.25C266.438 67.3125 256.125 62.4375 279.094 58.6875C308.156 62.7188 311.438 80.25 327.656 91.0312C327.656 91.0312 321.562 111.656 301.687 108.75C298.969 100.5 311.25 97.875 275.906 76.3125C255.281 75.0938 218.437 79.9688 209.344 71.25H209.25ZM386.719 103.031L345.469 104.719V114.938C373.313 115.875 378.281 112.125 386.719 103.031Z" fill="#FFC84B" stroke="#D8AA3F" style="fill:#FFC84B;fill:color(display-p3 1.0000 0.7843 0.2941);fill-opacity:1;stroke:#D8AA3F;stroke:color(display-p3 0.8471 0.6667 0.2471);stroke-opacity:1;" stroke-width="1.6875"/>
<path id="Vector_25" fill-rule="evenodd" clip-rule="evenodd" d="M244.875 101.25C252.094 97.5938 255.656 99.0938 261.937 98.9063C266.156 106.688 270.187 107.344 279.562 108.281C283.739 114.402 289.306 119.445 295.808 122.998C302.31 126.55 309.562 128.511 316.969 128.719C345 127.969 353.906 108.375 372.75 106.219H392.625C389.344 100.594 386.719 97.3125 379.5 96.9375C364.687 96.1875 345.562 96.5625 328.875 100.313L305.344 106.219C298.406 102.844 281.625 85.2188 270.844 85.5938C264.562 87.2813 264.562 89.4375 261.469 91.875C255.375 94.5 249.281 93.1875 244.875 101.25Z" fill="#FFC84B" stroke="#D8AA3F" style="fill:#FFC84B;fill:color(display-p3 1.0000 0.7843 0.2941);fill-opacity:1;stroke:#D8AA3F;stroke:color(display-p3 0.8471 0.6667 0.2471);stroke-opacity:1;" stroke-width="1.59375" stroke-linejoin="round"/>
<path id="Vector_26" fill-rule="evenodd" clip-rule="evenodd" d="M273.281 92.8125C273.359 93.2443 273.34 93.6879 273.227 94.1118C273.115 94.5358 272.91 94.9299 272.629 95.2663C272.347 95.6027 271.995 95.8732 271.598 96.0589C271.2 96.2445 270.767 96.3408 270.328 96.3408C269.889 96.3408 269.456 96.2445 269.059 96.0589C268.661 95.8732 268.309 95.6027 268.028 95.2663C267.746 94.9299 267.542 94.5358 267.429 94.1118C267.316 93.6879 267.298 93.2443 267.375 92.8125C267.499 92.1195 267.863 91.4921 268.403 91.0402C268.942 90.5884 269.624 90.3408 270.328 90.3408C271.032 90.3408 271.714 90.5884 272.254 91.0402C272.794 91.4921 273.157 92.1195 273.281 92.8125Z" fill="#FFC84B" stroke="#D8AA3F" style="fill:#FFC84B;fill:color(display-p3 1.0000 0.7843 0.2941);fill-opacity:1;stroke:#D8AA3F;stroke:color(display-p3 0.8471 0.6667 0.2471);stroke-opacity:1;" stroke-width="1.59375"/>
<path id="Vector_27" fill-rule="evenodd" clip-rule="evenodd" d="M292.5 101.063C334.594 50.3438 371.344 56.5313 419.344 53.0625C420.938 58.9688 420.281 67.7812 397.5 75.5625C366.188 80.25 310.219 113.25 309.938 113.25C299.531 112.688 292.219 101.813 292.5 101.063Z" fill="#FFC84B" stroke="#D8AA3F" style="fill:#FFC84B;fill:color(display-p3 1.0000 0.7843 0.2941);fill-opacity:1;stroke:#D8AA3F;stroke:color(display-p3 0.8471 0.6667 0.2471);stroke-opacity:1;" stroke-width="1.6875"/>
<path id="Vector_28" d="M379.031 67.9688L410.063 69.375M375.656 73.125L398.25 75" stroke="#D9A43E" style="stroke:#D9A43E;stroke:color(display-p3 0.8510 0.6431 0.2431);stroke-opacity:1;" stroke-width="1.6875" stroke-linecap="round"/>
</g>
</g>
</g>
</g>
<defs>
<clipPath id="clip0_2194_5622">
<rect width="640" height="480" fill="white" style="fill:white;fill-opacity:1;"/>
</clipPath>
</defs>
</svg>
