<svg width="640" height="480" viewBox="0 0 640 480" fill="none" xmlns="http://www.w3.org/2000/svg">
<g id="kn" clip-path="url(#clip0_2194_5666)">
<g id="Clip path group">
<mask id="mask0_2194_5666" style="mask-type:luminance" maskUnits="userSpaceOnUse" x="0" y="0" width="641" height="480">
<g id="kn-a">
<path id="Vector" d="M0.0062561 0H640.037V480H0.0062561V0Z" fill="white" style="fill:white;fill-opacity:1;"/>
</g>
</mask>
<g mask="url(#mask0_2194_5666)">
<g id="Group">
<path id="Vector_2" fill-rule="evenodd" clip-rule="evenodd" d="M-25.9625 0.1875H665.538V479.531H-25.9625V0.1875Z" fill="#FFE900" style="fill:#FFE900;fill:color(display-p3 1.0000 0.9137 0.0000);fill-opacity:1;"/>
<path id="Vector_3" fill-rule="evenodd" clip-rule="evenodd" d="M-26.3375 0.1875L-25.5875 345.75L512.537 0L-26.3375 0.1875Z" fill="#35A100" style="fill:#35A100;fill:color(display-p3 0.2078 0.6314 0.0000);fill-opacity:1;"/>
<path id="Vector_4" fill-rule="evenodd" clip-rule="evenodd" d="M666.381 479.531L665.069 120.281L122.256 479.812L666.381 479.531Z" fill="#C70000" style="fill:#C70000;fill:color(display-p3 0.7804 0.0000 0.0000);fill-opacity:1;"/>
<path id="Vector_5" fill-rule="evenodd" clip-rule="evenodd" d="M-26.0562 371.812L-25.5875 480L91.8813 479.812L665.35 95.3438L664.788 1.3125L548.725 0.1875L-26.0562 371.812Z" fill="#000001" style="fill:#000001;fill:color(display-p3 0.0000 0.0000 0.0039);fill-opacity:1;"/>
<path id="Vector_6" fill-rule="evenodd" clip-rule="evenodd" d="M431.725 146.813L422.538 107.25L453.756 132.562L489.381 109.5L473.069 148.219L504.381 173.531L462.944 172.125L446.725 210.844L437.444 171.281L396.1 169.875L431.725 146.813ZM173.725 314.625L164.444 274.969L195.663 300.281L231.288 277.219L214.975 315.938L246.288 341.25L204.944 339.844L188.631 378.562L179.444 339L138.1 337.594L173.725 314.625Z" fill="white" style="fill:white;fill-opacity:1;"/>
</g>
</g>
</g>
</g>
<defs>
<clipPath id="clip0_2194_5666">
<rect width="640" height="480" fill="white" style="fill:white;fill-opacity:1;"/>
</clipPath>
</defs>
</svg>
