<svg width="640" height="480" viewBox="0 0 640 480" fill="none" xmlns="http://www.w3.org/2000/svg">
<g id="ky" clip-path="url(#clip0_2194_5715)">
<path id="Vector" d="M0 0H640V480H0V0Z" fill="#000066" style="fill:#000066;fill:color(display-p3 0.0000 0.0000 0.4000);fill-opacity:1;"/>
<path id="Vector_2" d="M0 0H320V240H0V0Z" fill="#012169" style="fill:#012169;fill:color(display-p3 0.0039 0.1294 0.4118);fill-opacity:1;"/>
<path id="Vector_3" d="M37.5 0L159.5 90.5L281 0H320V31L200 120.5L320 209.5V240H280L160 150.5L40.5 240H0V210L119.5 121L0 32V0H37.5Z" fill="white" style="fill:white;fill-opacity:1;"/>
<path id="Vector_4" d="M212 140.5L320 220V240L184.5 140.5H212ZM120 150.5L123 168L27 240H0L120 150.5ZM320 0V1.5L195.5 95.5L196.5 73.5L295 0H320ZM0 0L119.5 88H89.5L0 21V0Z" fill="#C8102E" style="fill:#C8102E;fill:color(display-p3 0.7843 0.0627 0.1804);fill-opacity:1;"/>
<path id="Vector_5" d="M120.5 0V240H200.5V0H120.5ZM0 80V160H320V80H0Z" fill="white" style="fill:white;fill-opacity:1;"/>
<path id="Vector_6" d="M0 96.5V144.5H320V96.5H0ZM136.5 0V240H184.5V0H136.5Z" fill="#C8102E" style="fill:#C8102E;fill:color(display-p3 0.7843 0.0627 0.1804);fill-opacity:1;"/>
<g id="Group">
<path id="ky-a" d="M555.585 181.827V263.212C555.585 333.792 522.212 358.016 477.511 377.186C432.811 358.016 399.089 333.792 399.089 263.212V181.74H555.585V181.827Z" fill="white" stroke="white" style="fill:white;fill-opacity:1;stroke:white;stroke-opacity:1;" stroke-width="8.36506" stroke-linejoin="round"/>
<g id="ky-b">
<path id="Vector_7" d="M350.554 370.563C353.081 377.186 371.031 385.987 391.944 374.746C406.147 366.729 415.296 355.576 424.097 335.535C426.537 330.481 427.844 324.207 422.006 320.46C417.387 317.062 409.806 313.315 406.495 310.004C404.753 308.377 403.242 306.983 401.964 305.821C402.836 306.577 403.649 307.535 404.404 308.697C412.769 318.718 404.056 333.356 394.819 342.157C388.11 348.431 376.085 363.854 358.483 349.215C354.737 345.904 345.936 359.671 350.641 370.563H350.554ZM604.468 370.563C601.506 377.186 583.556 385.987 563.079 374.746C548.963 366.729 539.726 355.576 530.577 335.535C528.486 330.481 527.179 324.207 533.017 320.46C537.635 317.062 545.216 313.315 548.527 310.004C550.183 308.261 551.402 307.041 553.058 305.821C552.187 306.577 551.373 307.535 550.618 308.697C542.253 318.718 550.967 333.356 559.768 342.157C566.477 348.431 578.937 363.854 596.539 349.215C600.286 345.904 608.651 359.671 604.381 370.563H604.468Z" fill="#FCEA83" stroke="white" style="fill:#FCEA83;fill:color(display-p3 0.9882 0.9176 0.5137);fill-opacity:1;stroke:white;stroke-opacity:1;" stroke-width="8.36506" stroke-linejoin="round"/>
<path id="Vector_8" d="M477.511 406.463C510.884 406.463 562.295 391.389 589.917 338.759C594.448 330.045 589.917 325.427 584.427 322.552C578.222 319.426 572.57 315.305 567.697 310.352C574.406 317.062 573.099 321.68 568.568 329.174C547.22 364.725 518.029 382.675 477.511 382.675C436.993 382.675 407.802 364.725 386.454 329.174C381.923 321.68 380.616 317.062 386.89 310.44C382.09 315.453 376.422 319.557 370.16 322.552C364.757 325.427 360.139 330.045 364.757 338.759C392.292 391.389 444.051 406.463 477.511 406.463Z" fill="#FCEA83" stroke="white" style="fill:#FCEA83;fill:color(display-p3 0.9882 0.9176 0.5137);fill-opacity:1;stroke:white;stroke-opacity:1;" stroke-width="8.36506" stroke-linejoin="round"/>
</g>
<path id="ky-c" d="M400.222 335.883C399.35 331.701 394.035 333.356 392.379 338.41C390.123 335.521 388.139 332.429 386.454 329.174C381.487 321.68 380.616 316.626 387.761 309.568C391.072 306.257 397.782 302.423 402.313 306.606C411.898 314.535 406.931 327.518 400.222 335.883ZM554.365 335.883C555.237 331.701 561.075 333.356 562.73 338.41C564.88 335.506 566.826 332.427 568.568 329.174C573.535 321.68 574.406 316.626 566.826 309.568C563.95 306.257 557.241 302.423 552.274 306.606C543.038 314.535 547.656 327.518 554.365 335.883ZM350.554 370.563C346.372 364.29 343.06 347.908 342.189 343.813C340.969 340.066 340.533 336.668 345.152 335.099C349.77 333.356 353.865 339.194 355.956 344.248C358.048 349.302 361.446 356.709 365.193 365.945C355.957 360.543 348.463 364.203 350.554 370.563ZM604.468 370.563C608.215 364.29 611.526 347.908 612.833 343.813C613.705 340.066 614.489 336.668 609.871 335.099C605.253 333.356 601.157 339.194 599.066 344.248C596.975 349.302 593.576 356.709 589.83 365.945C599.066 360.543 606.124 364.203 604.468 370.563Z" fill="#C8102E" stroke="white" style="fill:#C8102E;fill:color(display-p3 0.7843 0.0627 0.1804);fill-opacity:1;stroke:white;stroke-opacity:1;" stroke-width="8.36506" stroke-linejoin="round"/>
<g id="ky-d">
<path id="Vector_9" d="M445.358 181.391C439.956 182.611 436.209 183.047 431.155 178.429C427.844 175.117 428.628 169.279 432.026 167.101C435.773 164.661 439.084 163.006 443.703 164.225C448.321 165.445 460.433 176.773 457.47 177.209C454.507 177.209 449.976 180.084 445.358 181.391ZM458.254 161.35C459.997 160.043 462.088 159.259 467.491 158.736C472.545 158.387 476.204 158.387 477.511 162.221C479.254 166.752 480.474 172.155 483.785 174.682C481.694 175.902 471.237 177.209 467.491 175.117C462.524 172.59 461.217 162.918 458.341 161.35H458.254ZM494.241 161.786C495.897 160.479 497.988 160.479 503.391 160.914C508.793 161.35 510.884 161.786 512.104 165.532C513.411 169.715 512.104 175.117 514.718 178.864C512.104 179.736 503.826 179.736 500.864 176.773C496.333 173.462 496.681 163.79 494.241 161.698V161.786Z" fill="white" stroke="white" style="fill:white;fill-opacity:1;stroke:white;stroke-opacity:1;" stroke-width="8.36506" stroke-linejoin="round"/>
<path id="Vector_10" d="M519.249 164.225C515.503 163.354 512.976 163.006 511.407 164.225C513.411 166.752 511.756 176.773 515.938 180.084C518.814 182.175 526.395 182.698 528.05 177.993C530.141 173.81 530.141 167.537 519.337 164.225H519.249ZM476.291 160.043C477.511 158.823 480.038 158.387 485.005 158.387C490.495 158.387 493.719 159.259 495.461 162.57C497.204 166.752 496.681 172.155 499.644 175.553C498.424 177.209 487.096 177.209 483.785 174.682C479.167 171.719 478.731 162.134 476.291 160.043ZM440.827 163.79C440.827 161.698 443.703 161.35 451.283 160.914C458.69 160.043 459.126 160.479 461.653 165.881C462.873 168.844 464.528 173.81 467.926 175.466C458.69 177.644 455.727 178.864 450.761 175.902C447.128 173.639 444.13 170.491 442.047 166.752C441.611 165.532 441.611 164.225 440.74 163.79H440.827Z" fill="#073163" stroke="white" style="fill:#073163;fill:color(display-p3 0.0275 0.1922 0.3882);fill-opacity:1;stroke:white;stroke-opacity:1;" stroke-width="8.36506" stroke-linejoin="round"/>
</g>
<g id="ky-e">
<path id="Vector_11" d="M441.611 126.67C438.649 126.612 436.267 125.508 434.466 123.359C431.591 119.525 423.661 117.869 420.263 121.267C419.043 122.139 417.387 122.139 416.168 122.487C414.076 122.487 411.549 124.579 412.334 128.761C414.076 127.454 414.425 128.761 415.732 128.761C416.603 128.325 416.168 129.197 416.168 129.981C416.168 132.072 420.699 136.255 424.881 135.819C429.499 135.819 431.591 137.562 432.375 138.433C433.682 139.566 432.81 139.217 433.682 141.309C434.902 142.529 435.337 142.964 433.246 144.62C432.295 145.413 431.529 146.406 431.004 147.527C430.479 148.649 430.207 149.873 430.207 151.111C430.207 152.35 430.479 153.574 431.004 154.695C431.529 155.817 432.295 156.81 433.246 157.603C438.649 161.698 452.416 168.059 467.926 155.86C482.914 144.184 506.266 150.894 508.009 154.989C510.1 159.259 510.884 161.698 511.32 163.79C511.756 165.532 513.847 167.188 516.81 166.752C519.685 166.752 522.996 167.972 524.652 169.279C526.83 170.499 529.706 170.151 528.921 166.317C527.179 154.64 520.121 152.985 519.337 147.582C523.432 147.931 526.307 147.931 528.05 146.275C529.27 144.62 530.926 141.657 532.668 140.873C533.888 140.002 533.888 139.13 532.233 139.566C530.141 140.002 528.922 140.873 525.088 140.437C505.918 138.346 452.068 123.707 441.611 126.67Z" fill="#059334" stroke="white" style="fill:#059334;fill:color(display-p3 0.0196 0.5765 0.2039);fill-opacity:1;stroke:white;stroke-opacity:1;" stroke-width="8.36506" stroke-linejoin="round"/>
<path id="Vector_12" d="M526.83 140.873C523.648 143.123 520.927 145.963 518.814 149.238C514.718 154.64 502.171 160.043 486.661 160.043C471.673 160.043 462.524 157.603 455.814 152.201C452.948 149.912 449.853 147.927 446.578 146.275C442.047 144.184 441.176 139.566 442.396 135.819C441.176 137.91 440.391 140.002 437.864 139.566C436.122 139.566 432.811 139.566 433.682 141.309C433.246 140.437 433.246 139.217 432.811 138.695L431.939 137.91C433.246 138.782 436.209 136.255 438.3 136.255C439.956 136.69 442.047 134.599 441.611 132.072L440.391 126.67C443.703 124.927 487.532 132.944 496.333 133.728C505.046 134.163 530.142 137.91 526.83 140.873Z" fill="#000001" stroke="white" style="fill:#000001;fill:color(display-p3 0.0000 0.0000 0.0039);fill-opacity:1;stroke:white;stroke-opacity:1;" stroke-width="8.36506" stroke-linejoin="round"/>
<path id="Vector_13" d="M447.449 125.014C451.632 120.832 456.599 118.74 461.653 119.96H462.872C465.487 117.869 471.237 117.433 474.636 119.089H476.291C481.258 117.433 490.843 119.089 494.241 122.487L495.461 123.359C506.789 122.487 513.411 127.454 521.341 135.471C522.212 136.342 523.432 137.91 525.523 138.346C528.05 138.782 528.486 140.089 526.395 141.309C523.047 143.384 520.096 146.039 517.681 149.151C513.847 154.205 501.735 159.259 486.661 159.259C472.109 159.259 463.308 156.645 456.599 151.678C452.852 148.802 449.976 147.147 447.885 145.84C445.358 144.968 442.047 141.657 443.267 138.346C444.138 135.035 442.047 130.852 440.391 126.67C441.611 125.798 444.922 124.579 446.578 125.45L447.449 125.014Z" fill="#059334" stroke="white" style="fill:#059334;fill:color(display-p3 0.0196 0.5765 0.2039);fill-opacity:1;stroke:white;stroke-opacity:1;" stroke-width="8.36506" stroke-linejoin="round"/>
<g id="Group_2">
<path id="Vector_14" d="M521.341 135.471C513.498 127.454 506.789 122.487 495.461 123.271C495.461 123.707 495.461 125.014 495.026 125.886C502.925 129.42 509.924 134.692 515.502 141.309C517.245 139.566 520.121 137.562 521.341 135.471ZM494.241 122.487C490.843 119.176 481.258 117.433 476.291 119.176C476.291 120.832 476.291 123.359 475.42 125.014C478.383 126.234 480.822 129.197 483.349 132.072C485.092 131.637 489.187 130.417 491.279 129.981C492.527 127.594 493.52 125.082 494.241 122.487ZM474.636 119.089C471.237 117.433 465.399 117.869 462.872 119.96C462.001 121.703 461.652 125.014 461.652 126.67C463.395 126.67 465.835 127.89 466.619 128.761C469.233 127.89 472.544 126.234 473.764 125.014C474.2 123.271 474.984 120.832 474.636 119.176V119.089ZM447.449 125.014C451.632 120.832 456.599 118.74 461.652 119.96C460.781 121.267 460.433 123.707 460.433 126.234C455.814 125.798 449.976 127.105 447.449 128.761V125.014Z" fill="#00493D" stroke="white" style="fill:#00493D;fill:color(display-p3 0.0000 0.2863 0.2392);fill-opacity:1;stroke:white;stroke-opacity:1;" stroke-width="8.36506" stroke-linejoin="round"/>
<path id="Vector_15" d="M513.847 142.093C508.601 135.873 502.058 130.877 494.677 127.454C494.677 127.89 493.806 129.545 493.37 130.852C495.897 134.599 500.864 142.964 502.955 147.582C505.046 146.711 510.884 144.184 513.847 142.093ZM482.129 151.329C482.852 145.634 483.259 139.904 483.349 134.163C485.441 133.728 489.623 132.508 491.279 132.072C493.37 135.471 498.424 144.271 500.515 148.367C495.461 149.587 487.096 151.678 482.129 151.329ZM467.491 131.288C469.582 130.417 472.544 128.674 474.549 127.105C476.291 128.325 479.602 131.288 480.822 132.944C480.822 136.69 479.602 147.582 479.167 151.242C475.856 151.242 470.453 150.458 467.491 148.802C467.926 142.529 468.362 135.471 467.491 131.288ZM446.578 136.255C447.014 135.383 447.449 132.508 447.449 131.288C450.76 129.197 459.125 127.105 465.399 130.417C465.835 134.599 465.399 145.055 464.964 147.582C459.377 143.034 453.227 139.227 446.665 136.255H446.578Z" fill="#00493D" stroke="white" style="fill:#00493D;fill:color(display-p3 0.0000 0.2863 0.2392);fill-opacity:1;stroke:white;stroke-opacity:1;" stroke-width="8.36506" stroke-linejoin="round"/>
</g>
<g id="Group_3">
<path id="Vector_16" d="M425.752 128.674C424.881 128.674 424.445 126.234 422.79 126.234C422.354 126.234 421.134 126.67 420.698 126.234C420.757 127.164 421.047 127.861 421.57 128.325C422.006 129.545 424.097 128.761 425.752 128.761V128.674Z" fill="#000001" style="fill:#000001;fill:color(display-p3 0.0000 0.0000 0.0039);fill-opacity:1;"/>
<path id="Vector_17" d="M425.752 135.819C430.719 135.819 431.591 129.545 434.117 129.197M428.628 136.255C432.375 137.997 435.337 129.197 438.213 129.545M421.134 125.45C422.354 125.45 423.225 123.707 425.317 125.798C426.304 126.67 427.292 127.105 428.279 127.105M427.408 131.637C425.665 134.251 422.79 135.819 421.134 135.035M420.263 121.267C419.043 122.139 418.259 123.707 417.387 125.014M416.167 127.454V129.545" stroke="white" style="stroke:white;stroke-opacity:1;" stroke-width="8.36506" stroke-linejoin="round"/>
</g>
</g>
<g id="ky-f">
<g id="Vector_18">
<path d="M460.868 121.267C452.068 114.558 441.611 108.284 432.026 107.064C442.027 113.732 451.522 121.13 460.433 129.197" fill="black" style="fill:black;fill-opacity:1;"/>
<path d="M460.868 121.267C452.068 114.558 441.611 108.284 432.026 107.064C442.027 113.732 451.522 121.13 460.433 129.197" stroke="white" style="stroke:white;stroke-opacity:1;" stroke-width="8.36506" stroke-linejoin="round"/>
</g>
<g id="Vector_19">
<path d="M465.835 114.994C455.379 107.848 443.267 99.919 431.591 99.1348C442.518 105.467 452.25 113.666 460.345 123.359M479.167 103.317C483.884 92.5946 490.87 83.0221 499.644 75.2596C495.461 84.0603 490.93 102.01 488.752 109.155" fill="black" style="fill:black;fill-opacity:1;"/>
<path d="M465.835 114.994C455.379 107.848 443.267 99.919 431.591 99.1348C442.518 105.467 452.25 113.666 460.345 123.359M479.167 103.317C483.884 92.5946 490.87 83.0221 499.644 75.2596C495.461 84.0603 490.93 102.01 488.752 109.155" stroke="white" style="stroke:white;stroke-opacity:1;" stroke-width="8.36506" stroke-linejoin="round"/>
</g>
<g id="Vector_20">
<path d="M488.403 101.226C492.411 91.3883 500.013 83.4442 509.665 79.0064C502.425 88.031 497.036 98.3946 493.806 109.504" fill="black" style="fill:black;fill-opacity:1;"/>
<path d="M488.403 101.226C492.411 91.3883 500.013 83.4442 509.665 79.0064C502.425 88.031 497.036 98.3946 493.806 109.504" stroke="white" style="stroke:white;stroke-opacity:1;" stroke-width="8.36506" stroke-linejoin="round"/>
</g>
<g id="Vector_21">
<path d="M492.15 109.504C500.17 97.2753 511.631 87.6944 525.088 81.969C514.631 92.4254 499.208 111.595 495.461 119.176M497.988 118.74C505.482 114.558 520.556 107.848 531.361 110.027C524.739 112.467 504.698 121.616 495.897 130.068" fill="black" style="fill:black;fill-opacity:1;"/>
<path d="M492.15 109.504C500.17 97.2753 511.631 87.6944 525.088 81.969C514.631 92.4254 499.208 111.595 495.461 119.176M497.988 118.74C505.482 114.558 520.556 107.848 531.361 110.027C524.739 112.467 504.698 121.616 495.897 130.068" stroke="white" style="stroke:white;stroke-opacity:1;" stroke-width="8.36506" stroke-linejoin="round"/>
</g>
<g id="Vector_22">
<path d="M496.333 115.778C503.391 108.284 516.374 97.0435 530.141 92.4253C520.121 102.01 498.772 123.794 495.897 127.105M476.291 111.247C471.237 95.7365 463.744 81.1848 452.503 76.5666C461.454 89.3681 467.682 103.871 470.802 119.176M466.619 110.811C458.341 100.79 447.014 90.7698 434.117 88.6785C446.758 96.9441 456.743 108.684 462.872 122.487" fill="black" style="fill:black;fill-opacity:1;"/>
<path d="M496.333 115.778C503.391 108.284 516.374 97.0435 530.141 92.4253C520.121 102.01 498.772 123.794 495.897 127.105M476.291 111.247C471.237 95.7365 463.744 81.1848 452.503 76.5666C461.454 89.3681 467.682 103.871 470.802 119.176M466.619 110.811C458.341 100.79 447.014 90.7698 434.117 88.6785C446.758 96.9441 456.743 108.684 462.872 122.487" stroke="white" style="stroke:white;stroke-opacity:1;" stroke-width="8.36506" stroke-linejoin="round"/>
</g>
<g id="Vector_23">
<path d="M471.324 110.375C460.868 91.554 452.852 88.2428 448.321 84.496C452.067 91.554 461.217 110.375 466.619 118.305" fill="black" style="fill:black;fill-opacity:1;"/>
<path d="M471.324 110.375C460.868 91.554 452.852 88.2428 448.321 84.496C452.067 91.554 461.217 110.375 466.619 118.305" stroke="white" style="stroke:white;stroke-opacity:1;" stroke-width="8.36506" stroke-linejoin="round"/>
</g>
<path id="Vector_24" d="M450.412 109.155C456.367 112.909 461.471 117.866 465.399 123.707" stroke="white" style="stroke:white;stroke-opacity:1;" stroke-width="8.36506" stroke-linejoin="round"/>
<g id="Vector_25">
<path d="M450.412 117.869C452.852 119.96 457.47 122.487 461.652 126.234ZM500.079 124.143C504.262 120.832 513.411 115.429 518.029 113.687ZM497.117 121.267C501.299 115.778 509.664 108.284 512.627 105.757ZM508.793 95.3008C503.178 101.593 497.885 108.166 492.934 114.994ZM497.988 91.554C494.033 97.4035 490.538 103.55 487.532 109.94ZM464.964 92.4253C467.491 99.1348 472.109 110.375 473.677 114.994ZM461.217 99.4834C462.959 102.097 466.271 107.848 467.491 112.031Z" fill="black" style="fill:black;fill-opacity:1;"/>
<path d="M450.412 117.869C452.852 119.96 457.47 122.487 461.652 126.234M500.079 124.143C504.262 120.832 513.411 115.429 518.029 113.687M497.117 121.267C501.299 115.778 509.664 108.284 512.627 105.757M508.793 95.3008C503.178 101.593 497.885 108.166 492.934 114.994M497.988 91.554C494.033 97.4035 490.538 103.55 487.532 109.94M464.964 92.4253C467.491 99.1348 472.109 110.375 473.677 114.994M461.217 99.4834C462.959 102.097 466.271 107.848 467.491 112.031" stroke="white" style="stroke:white;stroke-opacity:1;" stroke-width="8.36506" stroke-linejoin="round"/>
</g>
</g>
<g id="ky-g">
<path id="Vector_26" d="M475.42 97.3921C475.42 93.6453 477.947 89.5499 480.474 89.5499C483.349 89.5499 485.441 94.5166 485.441 97.3921C485.441 100.79 482.914 103.666 480.474 103.666C477.86 103.666 475.42 101.226 475.42 97.3921Z" fill="black" stroke="white" style="fill:black;fill-opacity:1;stroke:white;stroke-opacity:1;" stroke-width="8.36506" stroke-linejoin="round"/>
<path id="Vector_27" d="M470.018 100.79C470.453 96.6079 473.329 93.2967 475.856 93.6453C478.383 93.9938 479.603 99.1348 479.167 102.01C478.731 105.321 475.856 107.848 473.764 107.413C471.673 107.413 469.582 104.537 470.018 100.79ZM481.258 102.01C480.387 98.2635 482.129 94.1681 484.656 93.6453C487.096 93.2967 489.623 97.3921 490.059 100.79C490.93 104.102 488.752 107.413 486.66 107.413C484.656 107.848 481.694 105.757 481.258 102.01Z" fill="black" stroke="white" style="fill:black;fill-opacity:1;stroke:white;stroke-opacity:1;" stroke-width="8.36506" stroke-linejoin="round"/>
<path id="Vector_28" d="M474.984 105.321C474.984 101.226 477.511 97.4792 480.038 97.4792C482.913 97.4792 485.005 102.01 485.005 105.321C485.005 108.72 482.565 111.595 480.038 111.595C477.511 111.595 474.984 109.155 474.984 105.321Z" fill="black" stroke="white" style="fill:black;fill-opacity:1;stroke:white;stroke-opacity:1;" stroke-width="8.36506" stroke-linejoin="round"/>
<path id="Vector_29" d="M467.49 107.413C467.49 103.666 470.453 99.5705 472.893 99.5705C475.507 99.5705 477.947 104.537 477.947 107.413C477.947 110.811 474.984 113.687 472.893 113.687C470.453 113.687 467.49 111.247 467.49 107.413ZM482.914 105.757C482.914 102.01 485.528 97.9149 487.967 97.9149C490.843 97.9149 492.934 102.882 492.934 105.757C492.934 109.155 490.494 112.031 487.967 112.031C485.44 112.031 482.914 109.504 482.914 105.757Z" fill="black" stroke="white" style="fill:black;fill-opacity:1;stroke:white;stroke-opacity:1;" stroke-width="8.36506" stroke-linejoin="round"/>
<path id="Vector_30" d="M481.258 109.155C481.258 104.973 484.221 101.226 486.66 101.226C489.275 101.226 491.714 105.757 491.714 109.068C491.714 112.467 489.187 115.429 486.66 115.429C484.221 115.429 481.258 112.815 481.258 109.155Z" fill="black" stroke="white" style="fill:black;fill-opacity:1;stroke:white;stroke-opacity:1;" stroke-width="8.36506" stroke-linejoin="round"/>
<path id="Vector_31" d="M474.636 112.902C474.636 108.72 477.075 104.973 479.602 104.973C482.565 104.973 484.656 109.94 484.656 112.815C484.656 116.301 482.042 119.176 479.602 119.176C477.075 119.176 474.548 116.562 474.548 112.902H474.636ZM464.179 112.902C464.179 108.72 466.27 104.973 468.362 104.973C470.453 104.973 472.109 109.94 472.109 112.815C472.109 116.301 470.017 119.176 468.362 119.176C466.27 119.176 464.179 116.562 464.179 112.902ZM487.532 112.118C487.532 108.284 489.623 104.537 491.714 104.537C493.805 104.537 495.897 109.155 495.897 112.031C495.897 115.778 493.37 118.305 491.714 118.305C489.623 118.305 487.532 115.778 487.532 112.031V112.118Z" fill="black" stroke="white" style="fill:black;fill-opacity:1;stroke:white;stroke-opacity:1;" stroke-width="8.36506" stroke-linejoin="round"/>
<path id="Vector_32" d="M490.059 119.089C490.93 114.994 493.37 111.595 495.025 112.118C496.768 112.467 497.117 117.433 496.333 120.396C495.897 124.143 493.37 126.234 491.714 125.798C489.972 125.45 489.187 122.487 489.972 119.176L490.059 119.089Z" fill="black" stroke="white" style="fill:black;fill-opacity:1;stroke:white;stroke-opacity:1;" stroke-width="8.36506" stroke-linejoin="round"/>
<path id="Vector_33" d="M482.129 117.869C482.565 114.122 485.005 110.375 487.096 110.811C489.623 110.811 490.843 115.778 490.494 118.653C490.059 122.487 487.88 125.014 485.876 124.579C483.785 124.579 481.694 121.616 482.129 117.869ZM470.453 119.089C469.146 114.994 466.619 112.118 464.964 112.467C463.308 112.815 462.872 117.869 463.744 120.832C464.615 124.143 467.055 126.234 468.71 125.798C470.017 125.45 471.324 122.487 470.453 119.176V119.089Z" fill="black" stroke="white" style="fill:black;fill-opacity:1;stroke:white;stroke-opacity:1;" stroke-width="8.36506" stroke-linejoin="round"/>
<path id="Vector_34" d="M467.49 118.305C467.49 114.558 469.582 110.811 471.673 110.811C474.2 110.811 475.856 115.429 475.856 118.305C475.856 122.052 473.764 124.579 471.673 124.579C469.93 124.579 467.49 122.052 467.49 118.305Z" fill="black" stroke="white" style="fill:black;fill-opacity:1;stroke:white;stroke-opacity:1;" stroke-width="8.36506" stroke-linejoin="round"/>
<path id="Vector_35" d="M473.764 119.96C473.764 115.778 476.291 112.118 478.731 112.118C481.694 112.118 483.785 116.649 483.785 119.96C483.785 123.359 481.258 126.234 478.731 126.234C476.291 126.234 473.764 123.707 473.764 119.96ZM475.855 74.0397C474.984 77.3508 472.109 80.3134 474.113 84.9317C470.453 83.6246 467.142 83.1889 464.179 86.5872C467.926 86.1516 471.237 87.4586 472.893 89.8984C469.582 89.4627 467.926 91.2054 467.055 93.2967C470.017 92.4253 472.893 91.554 474.2 91.9897C472.893 93.2967 470.802 95.3008 470.453 97.0436C472.893 94.9523 475.855 95.3008 477.511 94.0809C476.291 97.0436 478.731 99.919 480.822 102.795C480.474 98.6991 482.913 95.8237 481.694 93.6453C485.44 94.5166 485.876 97.8278 491.279 97.8278C489.187 96.6079 487.967 92.4253 485.44 92.4253C486.66 91.9897 491.714 91.554 492.586 92.4253C491.714 90.6826 488.752 89.1142 487.096 89.1142C488.839 87.3715 491.714 84.0603 493.805 83.1889C490.843 83.6246 486.312 84.0603 484.656 86.5872C488.752 83.1889 487.967 77.0023 492.498 76.1309C490.059 75.6952 486.312 77.3508 483.349 80.3134C484.656 77.7865 484.656 74.4753 486.312 73.604C482.913 74.4753 479.167 78.6579 477.947 80.7491C477.766 78.3832 477.051 76.0892 475.855 74.0397Z" fill="black" stroke="white" style="fill:black;fill-opacity:1;stroke:white;stroke-opacity:1;" stroke-width="8.36506" stroke-linejoin="round"/>
<g id="Vector_36">
<path d="M477.947 80.7491C477.947 81.969 477.947 84.496 477.511 85.2802ZM483.349 80.3134C482.478 81.1848 480.822 84.0603 480.822 86.5872Z" fill="black" style="fill:black;fill-opacity:1;"/>
<path d="M477.947 80.7491C477.947 81.969 477.947 84.496 477.511 85.2802M483.349 80.3134C482.478 81.1848 480.822 84.0603 480.822 86.5872" stroke="white" style="stroke:white;stroke-opacity:1;" stroke-width="8.36506" stroke-linejoin="round"/>
</g>
<path id="Vector_37" d="M485.876 85.2802C484.462 86.1628 483.411 87.523 482.914 89.1142" stroke="white" style="stroke:white;stroke-opacity:1;" stroke-width="8.36506" stroke-linejoin="round"/>
</g>
</g>
<g id="Group_4">
<g id="ky-b_2">
<path id="Vector_38" d="M350.554 370.563C353.081 377.186 371.031 385.987 391.944 374.746C406.147 366.729 415.296 355.576 424.097 335.535C426.537 330.481 427.844 324.207 422.006 320.46C417.387 317.062 409.806 313.315 406.495 310.004C404.753 308.377 403.242 306.983 401.964 305.821C402.836 306.577 403.649 307.535 404.404 308.697C412.769 318.718 404.056 333.356 394.819 342.157C388.11 348.431 376.085 363.854 358.483 349.215C354.737 345.904 345.936 359.671 350.641 370.563H350.554ZM604.468 370.563C601.506 377.186 583.556 385.987 563.079 374.746C548.963 366.729 539.726 355.576 530.577 335.535C528.486 330.481 527.179 324.207 533.017 320.46C537.635 317.062 545.216 313.315 548.527 310.004C550.183 308.261 551.402 307.041 553.058 305.821C552.187 306.577 551.373 307.535 550.618 308.697C542.253 318.718 550.967 333.356 559.768 342.157C566.477 348.431 578.937 363.854 596.539 349.215C600.286 345.904 608.651 359.671 604.381 370.563H604.468Z" fill="#FCEA83" stroke="black" style="fill:#FCEA83;fill:color(display-p3 0.9882 0.9176 0.5137);fill-opacity:1;stroke:black;stroke-opacity:1;" stroke-width="1.2199"/>
<path id="Vector_39" d="M477.511 406.463C510.884 406.463 562.295 391.389 589.917 338.759C594.448 330.045 589.917 325.427 584.427 322.552C578.222 319.426 572.57 315.305 567.697 310.352C574.406 317.062 573.099 321.68 568.568 329.174C547.22 364.725 518.029 382.675 477.511 382.675C436.993 382.675 407.802 364.725 386.454 329.174C381.923 321.68 380.616 317.062 386.89 310.44C382.09 315.453 376.422 319.557 370.16 322.552C364.757 325.427 360.139 330.045 364.757 338.759C392.292 391.389 444.051 406.463 477.511 406.463Z" fill="#FCEA83" stroke="black" style="fill:#FCEA83;fill:color(display-p3 0.9882 0.9176 0.5137);fill-opacity:1;stroke:black;stroke-opacity:1;" stroke-width="1.2199"/>
</g>
<path id="ky-c_2" d="M400.222 335.883C399.35 331.701 394.035 333.356 392.379 338.41C390.123 335.521 388.139 332.429 386.454 329.174C381.487 321.68 380.616 316.626 387.761 309.568C391.072 306.257 397.782 302.423 402.313 306.606C411.898 314.535 406.931 327.518 400.222 335.883ZM554.365 335.883C555.237 331.701 561.075 333.356 562.73 338.41C564.88 335.506 566.826 332.427 568.568 329.174C573.535 321.68 574.406 316.626 566.826 309.568C563.95 306.257 557.241 302.423 552.274 306.606C543.038 314.535 547.656 327.518 554.365 335.883ZM350.554 370.563C346.372 364.29 343.06 347.908 342.189 343.813C340.969 340.066 340.533 336.668 345.152 335.099C349.77 333.356 353.865 339.194 355.956 344.248C358.048 349.302 361.446 356.709 365.193 365.945C355.957 360.543 348.463 364.203 350.554 370.563ZM604.468 370.563C608.215 364.29 611.526 347.908 612.833 343.813C613.705 340.066 614.489 336.668 609.871 335.099C605.253 333.356 601.157 339.194 599.066 344.248C596.975 349.302 593.576 356.709 589.83 365.945C599.066 360.543 606.124 364.203 604.468 370.563Z" fill="#C8102E" stroke="black" style="fill:#C8102E;fill:color(display-p3 0.7843 0.0627 0.1804);fill-opacity:1;stroke:black;stroke-opacity:1;" stroke-width="1.2199"/>
<g id="Group_5">
<path id="Vector_40" d="M374.778 332.921L371.467 334.663C370.595 335.012 370.595 335.883 370.595 336.319H370.16L368.504 332.572H368.94C368.94 332.921 369.376 333.444 370.16 332.921L377.305 329.174C378.118 328.709 378.263 328.303 377.741 327.954L378.089 327.518L380.18 331.701H379.832C379.396 331.265 378.96 330.829 378.089 331.265L375.214 333.008L376.434 335.448L379.832 334.228C380.703 333.792 380.18 332.921 380.18 332.485H380.616L382.359 336.319C381.923 335.883 381.487 335.448 380.616 335.883L373.558 339.63C372.745 340.095 372.6 340.502 373.122 340.85L372.687 341.286L370.595 337.539L371.031 337.103C371.467 337.539 371.902 337.975 372.774 337.539L376.085 335.796L374.778 332.921ZM381.923 338.41C382.736 338.062 382.853 337.481 382.272 336.668H382.707L386.89 342.941L384.014 345.033V344.684C385.67 343.377 385.67 341.721 385.234 341.286C384.799 340.85 384.363 340.414 384.363 340.066C384.014 340.066 384.014 339.63 383.143 340.502L380.18 342.593C380.616 342.941 381.052 344.248 383.143 342.941H383.579L378.96 346.34V345.904C381.052 344.161 380.18 342.941 379.832 342.593L376.869 344.684C375.998 345.033 375.998 345.555 375.998 345.904C376.434 345.904 376.434 346.34 376.869 346.775C377.305 347.647 378.612 348.431 380.616 347.647L381.052 347.995L377.741 349.215L373.558 342.593H373.994C374.342 342.941 374.865 343.464 375.649 342.941L381.923 338.41ZM388.545 354.269L385.67 356.709C385.234 357.145 385.234 358.016 385.67 358.452H385.234L382.272 355.489L382.707 355.053C383.143 355.489 383.579 355.925 384.45 355.053L389.852 349.651C390.666 349.302 390.782 348.721 390.201 347.908L393.164 351.394C392.583 350.871 392.002 350.871 391.421 351.394L388.981 353.833L391.072 355.925L393.599 353.833C394.471 352.962 394.035 352.613 393.599 352.091L394.035 351.742L396.91 355.053H396.475C396.126 355.053 395.603 354.705 394.819 355.489L389.417 360.543C388.604 361.298 388.458 361.85 388.981 362.198V362.634L386.106 359.236C386.454 359.236 387.326 359.671 387.761 359.236L390.637 356.36L388.545 354.269ZM394.819 363.07L396.126 364.29L397.782 360.543C397.782 360.543 396.475 360.891 394.384 362.198L394.819 363.07ZM394.819 363.07L394.384 363.418L393.512 362.547C393.164 362.983 392.728 362.983 392.292 363.418C391.072 364.29 391.421 364.725 391.944 365.161V365.51L389.852 363.418H390.201L391.944 362.983L400.222 358.452L400.657 358.8C400.657 358.8 400.222 359.236 396.475 367.601C396.475 368.472 396.126 368.821 396.475 369.692L393.164 366.817L393.599 366.381C394.18 367.252 394.732 367.252 395.255 366.381C395.255 365.945 395.691 365.074 395.691 364.638L394.384 363.418L394.819 362.983V363.07ZM398.13 371.348L398.566 370.912C398.915 371.377 399.496 371.377 400.309 370.912L405.711 363.854L405.276 363.418C404.404 362.983 403.184 362.983 401.964 364.29V363.854L403.62 361.763L409.894 366.381L407.802 368.821H407.367C408.587 367.601 408.238 365.945 407.367 365.51V365.074L401.964 372.219C401.093 372.655 401.529 373.439 401.964 373.875H401.529L398.13 371.348Z" fill="#00493D" style="fill:#00493D;fill:color(display-p3 0.0000 0.2863 0.2392);fill-opacity:1;"/>
<path id="Vector_41" d="M409.022 373.003L406.931 375.966C406.495 376.837 406.931 377.186 407.367 377.709L406.931 378.057L403.62 375.53V375.095C404.375 375.617 404.927 375.501 405.275 374.746L409.894 368.472C410.126 367.659 409.981 367.078 409.458 366.729L409.894 366.381L413.205 368.821V369.256C412.333 368.821 411.985 368.821 411.462 369.692L409.458 372.655L411.985 374.31L414.076 371.348C414.309 370.593 414.163 370.041 413.641 369.692L414.076 369.256L417.387 371.783V372.219C416.806 371.696 416.226 371.841 415.645 372.655L411.549 379.277C410.678 379.713 411.114 380.148 411.549 380.584V380.933L407.802 378.493H408.238C408.645 378.551 409.051 378.406 409.458 378.057L411.549 374.746L409.022 373.003ZM417.387 384.767L417.823 384.331C418.404 384.854 418.956 384.709 419.479 383.895L422.79 376.837C423.225 375.966 422.79 375.53 422.354 375.095L429.499 378.493L427.757 381.804L427.408 381.368C428.628 379.713 427.408 378.057 426.972 377.621C426.537 377.621 426.101 377.186 425.752 377.186C425.317 377.186 425.317 377.186 424.881 378.057C424.445 378.493 423.225 380.933 423.225 380.933C423.661 381.368 424.445 382.24 426.188 380.061H426.537L424.097 385.115L423.661 384.767C424.881 382.153 423.225 381.804 422.79 381.804L421.134 385.115C420.699 385.987 421.134 386.422 421.57 386.422V386.858L417.387 384.767ZM429.499 390.605C428.279 389.733 428.279 387.206 429.499 384.767C430.371 382.153 432.026 380.148 433.682 380.933C434.902 381.368 434.553 383.895 433.682 386.422C432.375 389.298 430.719 390.953 429.499 390.605H429.064C432.026 391.825 434.117 390.169 435.337 387.206C436.557 384.767 436.209 381.804 433.595 380.584C431.155 379.277 428.628 380.933 427.408 383.895C426.188 386.858 426.537 389.733 429.151 390.605H429.499ZM442.395 391.389L444.138 386.422C444.37 385.609 444.225 385.028 443.702 384.679L445.794 385.115V385.551C445.358 385.551 444.922 385.551 444.487 386.422L442.831 391.389C441.96 393.48 440.74 395.136 438.3 394.352C436.557 393.916 435.337 391.825 436.209 389.733L438.3 384.331C438.532 383.518 438.387 382.937 437.864 382.588V382.24L441.611 383.895V384.331C441.176 383.895 440.391 383.895 440.391 384.767L438.213 390.082C437.777 391.738 437.777 393.393 439.084 393.829C440.362 394.235 441.437 393.393 442.308 391.302L442.395 391.389ZM446.229 385.987C446.287 385.638 446.142 385.493 445.794 385.551L448.669 385.987L451.283 393.916L452.503 388.862C452.736 388.107 452.59 387.555 452.068 387.206L454.507 387.642L454.159 388.078C453.723 388.078 453.287 388.078 452.852 388.949L450.76 398.098H450.412L447.014 388.078L444.922 394.787C444.922 396.007 445.358 396.007 445.794 396.443V396.879L443.267 396.007V395.571C443.702 396.007 444.487 395.571 444.487 394.7L446.578 387.206L446.229 385.987ZM460.433 394.352C459.561 398.098 457.818 398.97 457.034 398.97H456.163C456.163 398.97 455.814 398.534 456.163 398.098L457.47 389.733C457.906 389.298 457.906 388.862 458.341 389.298H459.213C459.997 389.298 460.781 391.04 460.433 394.352L461.652 394.787C462.524 390.605 460.781 388.862 458.69 388.513C457.034 388.078 454.507 387.642 454.507 387.642V388.078C454.943 388.513 455.814 388.513 455.379 389.821L454.159 397.227C453.694 398.098 453.258 398.534 452.852 398.534H452.503L456.599 399.405C458.69 399.754 460.781 399.405 461.652 394.787L460.433 394.352ZM464.179 390.953C464.179 390.082 463.308 389.733 462.872 389.733V389.298L470.453 390.169L470.018 393.48C470.018 391.389 468.71 390.605 467.926 390.605C467.52 390.256 467.084 390.111 466.619 390.169C466.271 390.169 466.271 390.169 466.271 391.389L465.835 394.787C466.271 394.787 467.491 395.136 468.362 392.696L467.926 398.098H467.491C467.491 395.572 466.271 395.571 465.748 395.571L465.399 399.318C465.399 400.19 465.399 400.19 465.835 400.19L466.706 400.625C467.926 400.625 469.146 400.19 470.018 397.663H470.453L469.582 400.974L461.652 400.103C462.524 400.103 462.872 399.754 463.395 398.97L464.179 390.953ZM477.947 396.007C477.947 399.754 476.64 400.974 475.42 400.974C474.984 400.625 474.984 400.625 474.549 400.625L474.2 400.19L474.636 391.476C474.578 391.069 474.694 390.895 474.984 390.953H475.856C476.727 390.953 477.947 392.26 477.947 396.007H479.602C479.602 391.825 477.511 390.605 475.42 390.605C473.677 390.169 471.237 390.169 471.237 390.169V390.605C471.673 390.605 472.544 390.953 472.544 391.825L472.109 399.754C472.051 400.625 471.76 401.032 471.237 400.974V401.41H474.984C477.076 401.41 479.167 400.538 479.602 396.007H477.86H477.947ZM490.059 399.318C490.059 400.19 490.494 400.19 491.279 400.19V400.625L486.66 400.974C487.096 400.625 487.968 400.103 487.968 399.318L487.096 391.476C486.66 390.605 486.225 390.605 485.441 390.605V390.169L490.059 389.733C489.623 390.169 488.752 390.605 489.187 391.476L490.059 399.318ZM494.241 400.19V399.754C494.764 399.754 495.055 399.347 495.113 398.534L493.37 389.821H492.934C492.063 390.169 491.279 390.953 491.714 392.696H491.279L490.843 389.733L498.424 388.513L498.772 391.389H498.424C498.424 389.733 497.117 389.298 495.81 389.298H495.461L497.204 398.011C497.204 398.883 497.611 399.318 498.424 399.318V399.754L494.241 400.19ZM512.191 391.825L510.449 386.858C510.449 385.987 509.664 385.987 509.229 385.987V385.551L511.32 384.679V385.115C510.884 385.551 510.884 385.551 510.884 386.422L512.627 391.825C512.976 393.567 512.976 396.007 510.536 396.879C508.793 397.227 506.789 396.443 506.353 393.916L504.611 388.513C504.262 387.642 503.826 387.642 503.391 387.642L502.955 387.206L507.137 385.987V386.422C506.789 386.858 506.266 387.294 506.789 388.078L508.009 393.48C508.444 395.223 509.752 396.007 510.884 396.007C512.191 395.571 512.627 393.916 512.191 391.825ZM516.81 388.862C518.814 387.991 518.465 386.858 518.029 385.551C517.594 384.331 516.81 383.46 515.938 383.895C515.503 383.895 515.067 384.331 515.503 384.767L516.81 388.862ZM517.158 389.298L518.029 392.696C518.61 393.509 519.191 393.625 519.772 393.045V393.48L515.938 395.223L515.503 394.787C516.374 394.352 516.374 393.916 516.374 393.045L513.411 385.987C512.976 384.767 512.54 385.115 511.756 385.115V384.767L515.938 383.024C517.681 382.675 519.249 383.024 520.121 384.767C520.469 386.742 519.772 388.136 518.029 388.949C517.594 388.949 517.158 389.298 517.158 389.298Z" fill="#00493D" style="fill:#00493D;fill:color(display-p3 0.0000 0.2863 0.2392);fill-opacity:1;"/>
<path id="Vector_42" d="M527.179 390.082C525.959 390.605 524.303 388.862 522.996 385.987C521.776 383.46 521.776 380.933 522.996 380.584C524.303 380.148 525.959 381.804 527.179 384.331C528.486 386.858 528.486 389.298 527.179 390.169C529.793 389.298 530.577 386.422 529.27 383.46C528.05 380.933 525.523 379.277 522.996 380.148C522.41 380.442 521.888 380.852 521.464 381.352C521.039 381.852 520.719 382.432 520.524 383.059C520.329 383.685 520.262 384.344 520.328 384.997C520.393 385.65 520.589 386.283 520.905 386.858C522.212 389.733 524.739 391.389 527.179 390.169V390.082ZM527.614 378.493H526.83L529.27 376.75L536.851 380.933L534.237 376.402C533.888 375.53 533.017 375.53 532.668 375.53V375.095L534.759 374.223C534.324 374.746 533.888 375.095 534.759 375.966L538.942 384.331L538.506 384.767L529.27 379.713L532.668 385.987C533.017 386.858 533.888 386.858 534.324 386.422V386.858L532.233 388.078V387.642C532.639 387.235 532.639 386.684 532.233 385.987L528.921 379.277L527.614 378.493ZM546.436 379.713V379.277C546.436 378.841 546.871 378.406 546.436 377.621L541.382 370.563H540.946C540.075 370.912 539.726 372.655 540.946 373.875L540.598 374.31L538.855 371.348L545.129 367.165L546.871 369.779C545.564 368.472 544.257 368.472 543.473 368.908L543.037 369.256L548.091 376.402C548.672 377.215 549.253 377.36 549.834 376.837V377.186L546.436 379.713Z" fill="#00493D" style="fill:#00493D;fill:color(display-p3 0.0000 0.2863 0.2392);fill-opacity:1;"/>
<path id="Vector_43" d="M551.054 369.692L553.494 372.655C553.93 373.003 554.801 373.003 555.237 372.655V373.003L551.838 375.966V375.53C552.245 375.182 552.245 374.63 551.838 373.875L546.872 367.601C546.436 366.729 546 367.165 545.129 367.165L548.527 364.29V364.725C548.527 365.074 548.091 365.597 548.527 366.381L550.618 368.821L553.058 367.165L551.054 364.29C550.618 363.418 549.747 363.854 549.311 363.854L552.71 360.891V361.327C552.303 361.676 552.303 362.256 552.71 363.07L557.676 369.256C558.141 369.721 558.577 369.721 558.983 369.256L559.332 369.692L556.021 372.655L555.585 372.219C556.021 371.783 556.457 371.348 556.021 370.476L553.494 367.601L551.054 369.692ZM554.801 360.891C554.365 360.543 553.494 360.543 553.058 360.891V360.543L558.548 355.489L561.075 358.016H560.639C559.332 356.273 557.676 357.145 556.892 357.58C556.892 358.016 556.457 358.016 556.021 358.452C555.963 358.452 556.108 358.858 556.457 359.671L558.983 362.198C559.332 361.763 560.639 360.891 558.983 358.8H559.332L562.73 362.634V362.983C560.639 360.891 559.768 362.111 559.332 362.634L561.946 365.074C562.295 365.945 562.73 365.945 562.73 365.945L563.95 364.725C564.386 364.29 564.822 362.983 563.95 360.543H564.386L566.042 363.418L560.639 368.821L560.203 368.472C560.639 368.037 561.075 367.601 560.203 366.729L554.801 360.891ZM564.822 349.215C564.386 349.651 564.386 350.522 565.17 350.958C566.042 351.742 566.913 351.742 568.568 350.958C569.44 350.522 571.008 350.086 572.315 351.306C574.407 353.398 573.535 355.053 573.187 355.925C572.751 356.36 571.88 356.796 571.444 357.145C571.095 357.086 570.95 357.232 571.008 357.58V358.016L568.133 355.489H568.568C570.224 356.36 571.88 356.709 572.751 355.489C573.622 354.618 572.751 353.746 572.315 353.398C571.444 352.526 570.573 352.526 569.353 353.398C568.133 353.833 566.477 353.833 565.17 352.962C563.515 351.306 563.515 350.086 564.299 348.779L566.042 347.56C566.477 347.56 566.477 347.56 566.042 346.688L569.004 348.779H568.568C566.477 347.908 565.17 348.431 564.822 349.215ZM568.568 345.904C567.697 345.468 567.261 345.904 566.826 346.34H566.477L571.095 339.63L573.971 341.721L573.535 342.157C573.014 341.709 572.349 341.463 571.662 341.463C570.974 341.463 570.31 341.709 569.788 342.157C569.788 342.593 569.353 343.028 569.353 343.377C568.946 343.435 569.091 343.726 569.788 344.248C570.224 344.684 572.751 346.34 572.751 346.34C573.187 345.904 573.971 345.033 572.315 343.377V342.941L576.498 346.34C573.971 345.033 573.535 346.34 573.187 346.688L576.062 348.779C576.875 349.128 577.282 349.273 577.282 349.215C577.34 348.75 577.631 348.344 578.153 347.995C578.589 347.124 579.025 345.904 577.282 344.248L577.718 343.813L579.809 346.34L575.627 352.613H575.191C575.627 351.742 575.626 351.306 574.842 350.522L568.568 345.904ZM579.809 338.41L578.589 340.502C576.846 338.759 576.062 337.539 576.062 337.539L579.809 338.41ZM580.68 338.41C581.116 338.41 581.9 338.759 582.336 338.759C583.556 339.194 583.207 339.63 582.772 340.502H583.207L585.299 336.668C584.427 337.539 583.992 337.103 583.207 337.103C574.407 335.448 573.622 335.012 573.622 335.012V335.448L580.245 342.941C580.68 343.377 580.68 344.248 580.68 344.684H581.116L582.336 342.593L581.9 342.157C581.465 343.028 581.029 343.377 580.245 342.157L579.373 341.286L580.68 338.41ZM577.282 329.174C576.934 329.61 576.934 330.481 578.153 330.917C579.373 331.352 579.896 330.917 581.116 330.045C582.336 329.174 583.556 328.302 585.211 329.174C587.826 330.481 587.303 332.572 586.954 333.356L585.647 335.099V335.883L582.336 334.141C584.427 334.576 586.083 334.141 586.518 332.921C586.954 332.049 586.083 331.265 585.647 330.829C584.892 330.539 583.933 330.829 582.772 331.701C581.465 332.921 580.158 333.444 578.589 332.572C576.73 331.643 576.149 330.51 576.846 329.174C576.846 328.302 577.718 327.954 578.153 327.518C578.153 327.083 578.153 327.083 577.718 326.647V326.298L581.116 327.954H580.68C578.589 327.518 577.282 328.39 577.282 329.174Z" fill="#00493D" style="fill:#00493D;fill:color(display-p3 0.0000 0.2863 0.2392);fill-opacity:1;"/>
</g>
</g>
<g id="Group_6">
<g id="ky-d_2">
<path id="Vector_44" d="M445.358 181.391C439.955 182.611 436.209 183.047 431.155 178.429C427.844 175.117 428.628 169.279 432.026 167.101C435.773 164.661 439.084 163.006 443.702 164.225C448.32 165.445 460.432 176.773 457.47 177.209C454.507 177.209 449.976 180.084 445.358 181.391ZM458.254 161.35C459.997 160.043 462.088 159.259 467.49 158.736C472.544 158.387 476.204 158.387 477.511 162.221C479.254 166.752 480.474 172.155 483.785 174.682C481.694 175.902 471.237 177.209 467.49 175.117C462.524 172.59 461.217 162.918 458.341 161.35H458.254ZM494.241 161.786C495.897 160.479 497.988 160.479 503.39 160.914C508.793 161.35 510.884 161.786 512.104 165.532C513.411 169.715 512.104 175.117 514.718 178.864C512.104 179.736 503.826 179.736 500.864 176.773C496.332 173.462 496.681 163.79 494.241 161.698V161.786Z" fill="white" stroke="black" style="fill:white;fill-opacity:1;stroke:black;stroke-opacity:1;" stroke-width="1.2199"/>
<path id="Vector_45" d="M519.249 164.225C515.502 163.354 512.975 163.006 511.407 164.225C513.411 166.752 511.756 176.773 515.938 180.084C518.814 182.175 526.394 182.698 528.05 177.993C530.141 173.81 530.141 167.537 519.336 164.225H519.249ZM476.291 160.043C477.511 158.823 480.038 158.387 485.005 158.387C490.494 158.387 493.718 159.259 495.461 162.57C497.204 166.752 496.681 172.155 499.644 175.553C498.424 177.209 487.096 177.209 483.785 174.682C479.167 171.719 478.731 162.134 476.291 160.043ZM440.827 163.79C440.827 161.698 443.702 161.35 451.283 160.914C458.69 160.043 459.125 160.479 461.652 165.881C462.872 168.844 464.528 173.81 467.926 175.466C458.69 177.644 455.727 178.864 450.76 175.902C447.128 173.639 444.13 170.491 442.047 166.752C441.611 165.532 441.611 164.225 440.74 163.79H440.827Z" fill="#073163" stroke="black" style="fill:#073163;fill:color(display-p3 0.0275 0.1922 0.3882);fill-opacity:1;stroke:black;stroke-opacity:1;" stroke-width="1.2199"/>
</g>
<g id="Group_7">
<g id="ky-f_2">
<g id="Vector_46">
<path d="M460.868 121.267C452.067 114.558 441.611 108.284 432.026 107.064C442.027 113.732 451.522 121.13 460.432 129.197" fill="#F9D050" style="fill:#F9D050;fill:color(display-p3 0.9765 0.8157 0.3137);fill-opacity:1;"/>
<path d="M460.868 121.267C452.067 114.558 441.611 108.284 432.026 107.064C442.027 113.732 451.522 121.13 460.432 129.197" stroke="black" style="stroke:black;stroke-opacity:1;" stroke-width="0.522816"/>
</g>
<g id="Vector_47">
<path d="M465.835 114.994C455.378 107.848 443.267 99.919 431.59 99.1348C442.517 105.467 452.25 113.666 460.345 123.359M479.167 103.317C483.884 92.5946 490.87 83.0221 499.644 75.2596C495.461 84.0603 490.93 102.01 488.752 109.155" fill="#F9D050" style="fill:#F9D050;fill:color(display-p3 0.9765 0.8157 0.3137);fill-opacity:1;"/>
<path d="M465.835 114.994C455.378 107.848 443.267 99.919 431.59 99.1348C442.517 105.467 452.25 113.666 460.345 123.359M479.167 103.317C483.884 92.5946 490.87 83.0221 499.644 75.2596C495.461 84.0603 490.93 102.01 488.752 109.155" stroke="black" style="stroke:black;stroke-opacity:1;" stroke-width="0.522816"/>
</g>
<g id="Vector_48">
<path d="M488.403 101.226C492.411 91.3883 500.012 83.4442 509.664 79.0064C502.425 88.031 497.036 98.3946 493.805 109.504" fill="#F9D050" style="fill:#F9D050;fill:color(display-p3 0.9765 0.8157 0.3137);fill-opacity:1;"/>
<path d="M488.403 101.226C492.411 91.3883 500.012 83.4442 509.664 79.0064C502.425 88.031 497.036 98.3946 493.805 109.504" stroke="black" style="stroke:black;stroke-opacity:1;" stroke-width="0.522816"/>
</g>
<g id="Vector_49">
<path d="M492.15 109.504C500.17 97.2753 511.631 87.6944 525.087 81.969C514.631 92.4254 499.208 111.595 495.461 119.176M497.988 118.74C505.482 114.558 520.556 107.848 531.361 110.027C524.739 112.467 504.697 121.616 495.897 130.068" fill="#F9D050" style="fill:#F9D050;fill:color(display-p3 0.9765 0.8157 0.3137);fill-opacity:1;"/>
<path d="M492.15 109.504C500.17 97.2753 511.631 87.6944 525.087 81.969C514.631 92.4254 499.208 111.595 495.461 119.176M497.988 118.74C505.482 114.558 520.556 107.848 531.361 110.027C524.739 112.467 504.697 121.616 495.897 130.068" stroke="black" style="stroke:black;stroke-opacity:1;" stroke-width="0.522816"/>
</g>
<g id="Vector_50">
<path d="M496.332 115.778C503.39 108.284 516.374 97.0435 530.141 92.4253C520.12 102.01 498.772 123.794 495.897 127.105M476.291 111.247C471.237 95.7365 463.743 81.1848 452.503 76.5666C461.454 89.3681 467.682 103.871 470.801 119.176M466.619 110.811C458.341 100.79 447.013 90.7698 434.117 88.6785C446.758 96.9441 456.743 108.684 462.872 122.487" fill="#F9D050" style="fill:#F9D050;fill:color(display-p3 0.9765 0.8157 0.3137);fill-opacity:1;"/>
<path d="M496.332 115.778C503.39 108.284 516.374 97.0435 530.141 92.4253C520.12 102.01 498.772 123.794 495.897 127.105M476.291 111.247C471.237 95.7365 463.743 81.1848 452.503 76.5666C461.454 89.3681 467.682 103.871 470.801 119.176M466.619 110.811C458.341 100.79 447.013 90.7698 434.117 88.6785C446.758 96.9441 456.743 108.684 462.872 122.487" stroke="black" style="stroke:black;stroke-opacity:1;" stroke-width="0.522816"/>
</g>
<g id="Vector_51">
<path d="M471.324 110.375C460.868 91.554 452.851 88.2428 448.32 84.496C452.067 91.554 461.216 110.375 466.619 118.305" fill="#F9D050" style="fill:#F9D050;fill:color(display-p3 0.9765 0.8157 0.3137);fill-opacity:1;"/>
<path d="M471.324 110.375C460.868 91.554 452.851 88.2428 448.32 84.496C452.067 91.554 461.216 110.375 466.619 118.305" stroke="black" style="stroke:black;stroke-opacity:1;" stroke-width="0.522816"/>
</g>
<path id="Vector_52" d="M450.412 109.155C456.366 112.909 461.471 117.866 465.399 123.707" stroke="black" style="stroke:black;stroke-opacity:1;" stroke-width="0.522816"/>
<g id="Vector_53">
<path d="M450.412 117.869C452.851 119.96 457.47 122.487 461.652 126.234ZM500.079 124.143C504.262 120.832 513.411 115.429 518.029 113.687ZM497.116 121.267C501.299 115.778 509.664 108.284 512.627 105.757ZM508.793 95.3008C503.178 101.593 497.885 108.166 492.934 114.994ZM497.988 91.554C494.033 97.4035 490.537 103.55 487.532 109.94ZM464.963 92.4253C467.49 99.1348 472.108 110.375 473.677 114.994ZM461.217 99.4834C462.959 102.097 466.27 107.848 467.49 112.031Z" fill="#F9D050" style="fill:#F9D050;fill:color(display-p3 0.9765 0.8157 0.3137);fill-opacity:1;"/>
<path d="M450.412 117.869C452.851 119.96 457.47 122.487 461.652 126.234M500.079 124.143C504.262 120.832 513.411 115.429 518.029 113.687M497.116 121.267C501.299 115.778 509.664 108.284 512.627 105.757M508.793 95.3008C503.178 101.593 497.885 108.166 492.934 114.994M497.988 91.554C494.033 97.4035 490.537 103.55 487.532 109.94M464.963 92.4253C467.49 99.1348 472.108 110.375 473.677 114.994M461.217 99.4834C462.959 102.097 466.27 107.848 467.49 112.031" stroke="black" style="stroke:black;stroke-opacity:1;" stroke-width="0.522816"/>
</g>
</g>
<g id="ky-g_2">
<path id="Vector_54" d="M475.42 97.3921C475.42 93.6453 477.947 89.5499 480.474 89.5499C483.349 89.5499 485.44 94.5166 485.44 97.3921C485.44 100.79 482.913 103.666 480.474 103.666C477.859 103.666 475.42 101.226 475.42 97.3921Z" fill="#F9D050" stroke="black" style="fill:#F9D050;fill:color(display-p3 0.9765 0.8157 0.3137);fill-opacity:1;stroke:black;stroke-opacity:1;" stroke-width="0.522816"/>
<path id="Vector_55" d="M470.017 100.79C470.453 96.6079 473.328 93.2967 475.855 93.6453C478.382 93.9938 479.602 99.1348 479.166 102.01C478.731 105.321 475.855 107.848 473.764 107.413C471.673 107.413 469.581 104.537 470.017 100.79ZM481.258 102.01C480.386 98.2635 482.129 94.1681 484.656 93.6453C487.096 93.2967 489.623 97.3921 490.058 100.79C490.93 104.102 488.751 107.413 486.66 107.413C484.656 107.848 481.693 105.757 481.258 102.01Z" fill="#F9D050" stroke="black" style="fill:#F9D050;fill:color(display-p3 0.9765 0.8157 0.3137);fill-opacity:1;stroke:black;stroke-opacity:1;" stroke-width="0.522816"/>
<path id="Vector_56" d="M474.984 105.321C474.984 101.226 477.511 97.4792 480.038 97.4792C482.913 97.4792 485.005 102.01 485.005 105.321C485.005 108.72 482.565 111.595 480.038 111.595C477.511 111.595 474.984 109.155 474.984 105.321Z" fill="#F9D050" stroke="black" style="fill:#F9D050;fill:color(display-p3 0.9765 0.8157 0.3137);fill-opacity:1;stroke:black;stroke-opacity:1;" stroke-width="0.522816"/>
<path id="Vector_57" d="M467.49 107.413C467.49 103.666 470.453 99.5705 472.893 99.5705C475.507 99.5705 477.947 104.537 477.947 107.413C477.947 110.811 474.984 113.687 472.893 113.687C470.453 113.687 467.49 111.247 467.49 107.413ZM482.913 105.757C482.913 102.01 485.527 97.9149 487.967 97.9149C490.843 97.9149 492.934 102.882 492.934 105.757C492.934 109.155 490.494 112.031 487.967 112.031C485.44 112.031 482.913 109.504 482.913 105.757Z" fill="#F9D050" stroke="black" style="fill:#F9D050;fill:color(display-p3 0.9765 0.8157 0.3137);fill-opacity:1;stroke:black;stroke-opacity:1;" stroke-width="0.522816"/>
<path id="Vector_58" d="M481.258 109.155C481.258 104.973 484.22 101.226 486.66 101.226C489.274 101.226 491.714 105.757 491.714 109.068C491.714 112.467 489.187 115.429 486.66 115.429C484.22 115.429 481.258 112.815 481.258 109.155Z" fill="#F9D050" stroke="black" style="fill:#F9D050;fill:color(display-p3 0.9765 0.8157 0.3137);fill-opacity:1;stroke:black;stroke-opacity:1;" stroke-width="0.522816"/>
<path id="Vector_59" d="M474.636 112.902C474.636 108.72 477.075 104.973 479.602 104.973C482.565 104.973 484.656 109.94 484.656 112.815C484.656 116.301 482.042 119.176 479.602 119.176C477.075 119.176 474.548 116.562 474.548 112.902H474.636ZM464.179 112.902C464.179 108.72 466.27 104.973 468.362 104.973C470.453 104.973 472.109 109.94 472.109 112.815C472.109 116.301 470.017 119.176 468.362 119.176C466.27 119.176 464.179 116.562 464.179 112.902ZM487.532 112.118C487.532 108.284 489.623 104.537 491.714 104.537C493.805 104.537 495.897 109.155 495.897 112.031C495.897 115.778 493.37 118.305 491.714 118.305C489.623 118.305 487.532 115.778 487.532 112.031V112.118Z" fill="#F9D050" stroke="black" style="fill:#F9D050;fill:color(display-p3 0.9765 0.8157 0.3137);fill-opacity:1;stroke:black;stroke-opacity:1;" stroke-width="0.522816"/>
<path id="Vector_60" d="M490.058 119.089C490.93 114.994 493.37 111.595 495.025 112.118C496.768 112.467 497.117 117.433 496.332 120.396C495.897 124.143 493.37 126.234 491.714 125.798C489.971 125.45 489.187 122.487 489.971 119.176L490.058 119.089Z" fill="#F9D050" stroke="black" style="fill:#F9D050;fill:color(display-p3 0.9765 0.8157 0.3137);fill-opacity:1;stroke:black;stroke-opacity:1;" stroke-width="0.522816"/>
<path id="Vector_61" d="M482.129 117.869C482.565 114.122 485.005 110.375 487.096 110.811C489.623 110.811 490.843 115.778 490.494 118.653C490.058 122.487 487.88 125.014 485.876 124.579C483.785 124.579 481.693 121.616 482.129 117.869ZM470.453 119.089C469.146 114.994 466.619 112.118 464.963 112.467C463.308 112.815 462.872 117.869 463.743 120.832C464.615 124.143 467.055 126.234 468.71 125.798C470.017 125.45 471.324 122.487 470.453 119.176V119.089Z" fill="#F9D050" stroke="black" style="fill:#F9D050;fill:color(display-p3 0.9765 0.8157 0.3137);fill-opacity:1;stroke:black;stroke-opacity:1;" stroke-width="0.522816"/>
<path id="Vector_62" d="M467.49 118.305C467.49 114.558 469.582 110.811 471.673 110.811C474.2 110.811 475.855 115.429 475.855 118.305C475.855 122.052 473.764 124.579 471.673 124.579C469.93 124.579 467.49 122.052 467.49 118.305Z" fill="#F9D050" stroke="black" style="fill:#F9D050;fill:color(display-p3 0.9765 0.8157 0.3137);fill-opacity:1;stroke:black;stroke-opacity:1;" stroke-width="0.522816"/>
<path id="Vector_63" d="M473.764 119.96C473.764 115.778 476.291 112.118 478.731 112.118C481.694 112.118 483.785 116.649 483.785 119.96C483.785 123.359 481.258 126.234 478.731 126.234C476.291 126.234 473.764 123.707 473.764 119.96ZM475.855 74.0397C474.984 77.3508 472.109 80.3134 474.113 84.9317C470.453 83.6246 467.142 83.1889 464.179 86.5872C467.926 86.1516 471.237 87.4586 472.893 89.8984C469.582 89.4627 467.926 91.2054 467.055 93.2967C470.017 92.4253 472.893 91.554 474.2 91.9897C472.893 93.2967 470.802 95.3008 470.453 97.0436C472.893 94.9523 475.855 95.3008 477.511 94.0809C476.291 97.0436 478.731 99.919 480.822 102.795C480.474 98.6991 482.913 95.8237 481.694 93.6453C485.44 94.5166 485.876 97.8278 491.279 97.8278C489.187 96.6079 487.967 92.4253 485.44 92.4253C486.66 91.9897 491.714 91.554 492.586 92.4253C491.714 90.6826 488.752 89.1142 487.096 89.1142C488.839 87.3715 491.714 84.0603 493.805 83.1889C490.843 83.6246 486.312 84.0603 484.656 86.5872C488.752 83.1889 487.967 77.0023 492.498 76.1309C490.059 75.6952 486.312 77.3508 483.349 80.3134C484.656 77.7865 484.656 74.4753 486.312 73.604C482.913 74.4753 479.167 78.6579 477.947 80.7491C477.766 78.3832 477.051 76.0892 475.855 74.0397Z" fill="#F9D050" stroke="black" style="fill:#F9D050;fill:color(display-p3 0.9765 0.8157 0.3137);fill-opacity:1;stroke:black;stroke-opacity:1;" stroke-width="0.522816"/>
<g id="Vector_64">
<path d="M477.946 80.7491C477.946 81.969 477.946 84.496 477.511 85.2802ZM483.349 80.3134C482.478 81.1848 480.822 84.0603 480.822 86.5872Z" fill="#F9D050" style="fill:#F9D050;fill:color(display-p3 0.9765 0.8157 0.3137);fill-opacity:1;"/>
<path d="M477.946 80.7491C477.946 81.969 477.946 84.496 477.511 85.2802M483.349 80.3134C482.478 81.1848 480.822 84.0603 480.822 86.5872" stroke="black" style="stroke:black;stroke-opacity:1;" stroke-width="0.522816"/>
</g>
<path id="Vector_65" d="M485.876 85.2802C484.462 86.1628 483.411 87.523 482.913 89.1142" stroke="black" style="stroke:black;stroke-opacity:1;" stroke-width="0.522816"/>
</g>
</g>
<g id="ky-e_2">
<path id="Vector_66" d="M441.611 126.67C438.648 126.612 436.267 125.508 434.466 123.359C431.59 119.525 423.661 117.869 420.263 121.267C419.043 122.139 417.387 122.139 416.167 122.487C414.076 122.487 411.549 124.579 412.333 128.761C414.076 127.454 414.425 128.761 415.732 128.761C416.603 128.325 416.167 129.197 416.167 129.981C416.167 132.072 420.698 136.255 424.881 135.819C429.499 135.819 431.59 137.562 432.375 138.433C433.682 139.566 432.81 139.217 433.682 141.309C434.901 142.529 435.337 142.964 433.246 144.62C432.295 145.413 431.529 146.406 431.004 147.527C430.479 148.649 430.207 149.873 430.207 151.111C430.207 152.35 430.479 153.574 431.004 154.695C431.529 155.817 432.295 156.81 433.246 157.603C438.648 161.698 452.416 168.059 467.926 155.86C482.913 144.184 506.266 150.894 508.009 154.989C510.1 159.259 510.884 161.698 511.32 163.79C511.755 165.532 513.847 167.188 516.809 166.752C519.685 166.752 522.996 167.972 524.652 169.279C526.83 170.499 529.705 170.151 528.921 166.317C527.179 154.64 520.12 152.985 519.336 147.582C523.432 147.931 526.307 147.931 528.05 146.275C529.27 144.62 530.925 141.657 532.668 140.873C533.888 140.002 533.888 139.13 532.232 139.566C530.141 140.002 528.921 140.873 525.087 140.437C505.917 138.346 452.067 123.707 441.611 126.67Z" fill="#059334" stroke="black" style="fill:#059334;fill:color(display-p3 0.0196 0.5765 0.2039);fill-opacity:1;stroke:black;stroke-opacity:1;" stroke-width="1.2199"/>
<path id="Vector_67" d="M526.83 140.873C523.648 143.123 520.927 145.963 518.814 149.238C514.718 154.64 502.171 160.043 486.66 160.043C471.673 160.043 462.524 157.603 455.814 152.201C452.948 149.912 449.853 147.927 446.578 146.275C442.047 144.184 441.175 139.566 442.395 135.819C441.175 137.91 440.391 140.002 437.864 139.566C436.121 139.566 432.81 139.566 433.682 141.309C433.246 140.437 433.246 139.217 432.81 138.695L431.939 137.91C433.246 138.782 436.209 136.255 438.3 136.255C439.955 136.69 442.047 134.599 441.611 132.072L440.391 126.67C443.702 124.927 487.532 132.944 496.332 133.728C505.046 134.163 530.141 137.91 526.83 140.873Z" fill="#000001" stroke="black" style="fill:#000001;fill:color(display-p3 0.0000 0.0000 0.0039);fill-opacity:1;stroke:black;stroke-opacity:1;" stroke-width="1.2199"/>
<path id="Vector_68" d="M447.449 125.014C451.632 120.832 456.598 118.74 461.652 119.96H462.872C465.486 117.869 471.237 117.433 474.636 119.089H476.291C481.258 117.433 490.843 119.089 494.241 122.487L495.461 123.359C506.789 122.487 513.411 127.454 521.34 135.471C522.212 136.342 523.432 137.91 525.523 138.346C528.05 138.782 528.486 140.089 526.394 141.309C523.047 143.384 520.096 146.039 517.681 149.151C513.847 154.205 501.735 159.259 486.66 159.259C472.109 159.259 463.308 156.645 456.598 151.678C452.852 148.802 449.976 147.147 447.885 145.84C445.358 144.968 442.047 141.657 443.267 138.346C444.138 135.035 442.047 130.852 440.391 126.67C441.611 125.798 444.922 124.579 446.578 125.45L447.449 125.014Z" fill="#059334" stroke="black" style="fill:#059334;fill:color(display-p3 0.0196 0.5765 0.2039);fill-opacity:1;stroke:black;stroke-opacity:1;" stroke-width="1.2199"/>
<g id="Group_8">
<path id="Vector_69" d="M521.34 135.471C513.498 127.454 506.789 122.487 495.461 123.271C495.461 123.707 495.461 125.014 495.025 125.886C502.924 129.42 509.924 134.692 515.502 141.309C517.245 139.566 520.12 137.562 521.34 135.471ZM494.241 122.487C490.843 119.176 481.258 117.433 476.291 119.176C476.291 120.832 476.291 123.359 475.42 125.014C478.382 126.234 480.822 129.197 483.349 132.072C485.092 131.637 489.187 130.417 491.278 129.981C492.526 127.594 493.519 125.082 494.241 122.487ZM474.635 119.089C471.237 117.433 465.399 117.869 462.872 119.96C462.001 121.703 461.652 125.014 461.652 126.67C463.395 126.67 465.835 127.89 466.619 128.761C469.233 127.89 472.544 126.234 473.764 125.014C474.2 123.271 474.984 120.832 474.635 119.176V119.089ZM447.449 125.014C451.632 120.832 456.598 118.74 461.652 119.96C460.781 121.267 460.432 123.707 460.432 126.234C455.814 125.798 449.976 127.105 447.449 128.761V125.014Z" fill="#00493D" stroke="black" style="fill:#00493D;fill:color(display-p3 0.0000 0.2863 0.2392);fill-opacity:1;stroke:black;stroke-opacity:1;" stroke-width="1.2199"/>
<path id="Vector_70" d="M513.847 142.093C508.601 135.873 502.058 130.877 494.677 127.454C494.677 127.89 493.805 129.545 493.37 130.852C495.897 134.599 500.863 142.964 502.955 147.582C505.046 146.711 510.884 144.184 513.847 142.093ZM482.129 151.329C482.851 145.634 483.259 139.904 483.349 134.163C485.44 133.728 489.623 132.508 491.278 132.072C493.37 135.471 498.424 144.271 500.515 148.367C495.461 149.587 487.096 151.678 482.129 151.329ZM467.49 131.288C469.582 130.417 472.544 128.674 474.548 127.105C476.291 128.325 479.602 131.288 480.822 132.944C480.822 136.69 479.602 147.582 479.167 151.242C475.855 151.242 470.453 150.458 467.49 148.802C467.926 142.529 468.362 135.471 467.49 131.288ZM446.578 136.255C447.013 135.383 447.449 132.508 447.449 131.288C450.76 129.197 459.125 127.105 465.399 130.417C465.835 134.599 465.399 145.055 464.963 147.582C459.377 143.034 453.227 139.227 446.665 136.255H446.578Z" fill="#00493D" stroke="black" style="fill:#00493D;fill:color(display-p3 0.0000 0.2863 0.2392);fill-opacity:1;stroke:black;stroke-opacity:1;" stroke-width="1.2199"/>
</g>
<g id="Group_9">
<path id="Vector_71" d="M425.752 128.674C424.881 128.674 424.445 126.234 422.789 126.234C422.354 126.234 421.134 126.67 420.698 126.234C420.756 127.164 421.047 127.861 421.57 128.325C422.005 129.545 424.097 128.761 425.752 128.761V128.674Z" fill="#000001" style="fill:#000001;fill:color(display-p3 0.0000 0.0000 0.0039);fill-opacity:1;"/>
<path id="Vector_72" d="M425.752 135.819C430.719 135.819 431.59 129.545 434.117 129.197M428.628 136.255C432.375 137.997 435.337 129.197 438.213 129.545M421.134 125.45C422.354 125.45 423.225 123.707 425.317 125.798C426.304 126.67 427.292 127.105 428.279 127.105M427.408 131.637C425.665 134.251 422.79 135.819 421.134 135.035M420.263 121.267C419.043 122.139 418.258 123.707 417.387 125.014M416.167 127.454V129.545" stroke="black" style="stroke:black;stroke-opacity:1;" stroke-width="1.2199"/>
</g>
</g>
</g>
<g id="Group_10">
<path id="ky-a_2" d="M555.585 181.827V263.212C555.585 333.792 522.212 358.016 477.511 377.186C432.81 358.016 399.089 333.792 399.089 263.212V181.74H555.585V181.827Z" fill="white" style="fill:white;fill-opacity:1;"/>
<path id="Vector_73" d="M477.511 250.664C481.258 250.664 487.096 247.353 492.15 242.299C497.552 236.461 506.789 234.457 516.374 242.299C525.959 250.142 531.797 246.917 536.851 242.299C541.817 237.768 546 236.025 555.585 236.025V181.827H399.001V236.113C408.586 236.113 412.769 237.855 417.823 242.386C422.79 247.005 428.628 250.316 438.3 242.386C448.32 234.544 457.034 236.548 462.872 242.386C467.49 247.44 473.328 250.751 477.511 250.751V250.664Z" fill="#C8102E" style="fill:#C8102E;fill:color(display-p3 0.7843 0.0627 0.1804);fill-opacity:1;"/>
<path id="Vector_74" d="M477.511 292.49C482.565 292.49 492.586 287 495.025 285.78C504.262 280.291 510.884 285.344 516.374 287.871C522.212 290.311 533.017 293.274 539.726 287.871C546.436 282.469 550.182 282.817 554.801 282.817C555.672 276.544 555.672 270.27 555.672 263.212V258.158C549.747 256.938 546.871 258.594 540.597 264.083C534.324 269.573 527.179 268.266 517.942 264.955C509.229 261.121 500.515 254.498 491.714 264.955C488.075 269.049 482.976 271.552 477.511 271.925C471.237 271.925 465.835 267.83 463.308 264.955C454.159 254.498 445.793 261.121 436.993 264.955C427.843 268.266 420.263 269.486 414.076 264.083C408.238 258.594 405.275 256.938 399.001 258.158V263.212C399.001 270.27 399.437 276.544 400.221 282.817C404.84 282.817 408.238 282.382 414.86 287.871C421.483 293.361 432.81 290.311 438.3 287.871C444.138 285.344 450.76 280.291 459.997 285.78C462.524 287 472.109 292.402 477.511 292.402V292.49ZM477.511 310.44C484.746 310.049 491.776 307.895 497.988 304.166C506.353 299.548 512.191 301.552 520.556 305.821C529.27 310.004 536.415 308.697 541.469 305.821C543.909 304.079 546 300.768 551.402 302.075C548.963 312.531 545.129 321.68 540.597 329.174C533.401 331.509 525.574 330.914 518.813 327.518C510.1 323.336 499.208 320.809 493.37 324.556C488.635 327.638 483.156 329.384 477.511 329.61C472.893 329.61 467.055 327.867 461.652 324.556C455.814 320.809 444.922 323.336 436.209 327.518C429.46 330.943 421.632 331.57 414.425 329.261C409.777 321.593 406.176 312.531 403.62 302.075C409.022 300.768 411.113 304.166 413.64 305.821C416.767 307.577 420.293 308.499 423.879 308.499C427.465 308.499 430.99 307.577 434.117 305.821C442.831 301.639 448.669 299.548 457.034 304.079C463.238 307.839 470.268 310.022 477.511 310.44ZM477.511 377.186C493.661 370.925 508.741 362.195 522.212 351.306C518.813 350.086 516.809 350.871 513.847 348.779C510.884 346.688 502.17 345.904 494.677 350.086C489.48 353.118 483.571 354.715 477.555 354.715C471.538 354.715 465.629 353.118 460.432 350.086C452.852 345.904 444.138 346.688 441.262 348.779C438.387 350.871 436.209 350.086 432.81 351.394C446.229 362.336 461.322 371.045 477.511 377.186Z" fill="#0B50A0" style="fill:#0B50A0;fill:color(display-p3 0.0431 0.3137 0.6275);fill-opacity:1;"/>
<g id="Group_11">
<path id="Vector_75" d="M466.619 202.217C467.055 203.088 466.27 205.179 466.619 205.964C467.49 207.706 467.49 208.578 468.71 209.362H471.673C480.822 209.362 491.714 205.615 500.863 205.615C509.664 205.615 515.067 208.491 520.033 208.491C522.996 208.491 525.523 206.399 525.523 204.308C525.523 202.217 522.212 200.997 515.067 200.997C505.046 200.997 499.643 203.524 491.278 203.524C478.731 203.524 476.64 198.906 476.64 196.814C476.64 194.723 478.731 191.848 485.44 191.848C487.59 191.848 489.129 191.412 490.059 190.54C490.494 189.669 491.714 188.014 494.241 186.794C497.117 185.051 502.955 186.794 505.917 184.702C505.917 186.445 503.39 188.885 501.299 189.756C505.482 188.449 510.013 188.449 510.884 191.848C508.793 190.54 505.482 191.412 504.262 191.848C502.519 192.196 501.735 192.719 500.079 193.067C501.735 192.632 502.606 195.943 505.046 195.943C502.606 198.034 498.424 198.034 494.241 196.379C492.934 195.943 489.623 194.723 487.532 194.723C483.349 194.723 480.822 195.594 480.822 197.25C480.822 199.341 483.436 200.561 490.843 200.561C498.424 200.561 502.606 198.47 513.847 198.47C512.975 197.25 514.282 195.943 512.627 194.723C516.809 194.723 521.34 195.943 523.083 198.906C522.647 195.943 525.087 193.503 524.303 190.976C526.83 191.412 528.921 193.852 529.27 195.943C529.27 194.723 531.012 194.723 531.012 193.503C532.214 194.091 533.189 195.058 533.788 196.254C534.386 197.451 534.574 198.811 534.324 200.125C535.543 198.034 536.851 198.906 537.635 196.379C538.506 198.121 538.07 203.088 535.108 204.744C537.722 203.001 541.382 203.001 543.909 205.964C541.382 205.615 540.162 206.835 538.942 207.271C532.867 210.394 526.069 211.838 519.249 211.453C512.627 211.017 511.755 209.71 507.573 209.71C510.1 210.146 515.067 215.2 519.772 215.2C522.676 215.258 524.739 215.113 525.959 214.764C527.178 214.329 529.27 214.764 530.925 215.636C532.232 216.856 534.759 218.075 536.415 217.727C535.95 219.295 535.108 220.254 533.888 220.602C535.979 221.909 534.759 222.694 536.851 224.349C535.979 224.349 535.108 225.221 533.888 224.785C535.108 226.005 535.108 227.748 536.415 228.532C535.979 228.532 534.672 228.967 533.888 228.532C535.108 230.275 533.888 232.279 535.108 233.15C536.415 234.893 533.888 236.897 531.797 235.241C532.232 236.461 530.925 237.768 529.705 237.333C528.485 236.897 527.614 235.59 527.963 235.241C527.963 234.806 527.963 234.806 528.485 234.37C527.614 235.677 525.959 235.677 525.087 235.241C524.739 234.806 524.216 234.37 524.216 234.021C521.34 234.893 520.12 232.279 520.556 231.059C520.992 229.839 523.432 229.316 524.303 229.839C525.174 230.187 525.959 230.71 526.83 229.839C527.701 229.316 528.108 228.619 528.05 227.748C528.05 226.441 526.83 222.694 521.34 223.129C515.067 223.565 505.046 221.909 500.079 220.167C499.643 219.818 499.208 219.818 498.772 219.295C498.772 221.038 497.116 221.909 497.116 223.565C497.116 225.656 497.988 227.312 500.515 228.096C499.208 230.187 497.117 229.839 496.332 228.532C496.332 229.839 494.59 230.623 494.59 232.279C494.241 231.407 493.718 231.059 493.37 230.187C492.15 233.15 488.751 234.806 487.096 234.021C485.005 235.677 482.565 235.241 481.693 233.586C480.474 234.457 478.731 234.457 477.947 233.586C477.947 234.806 477.075 234.457 476.64 236.113C476.64 236.984 474.984 237.333 474.2 236.984C473.328 236.461 472.893 234.806 473.764 234.021C472.428 234.893 471.324 234.893 470.453 234.021C470.453 233.15 470.453 231.93 471.324 231.407H472.109C471.237 231.059 470.017 231.407 469.146 231.059C468.275 230.187 468.275 229.316 468.71 228.532C469.146 228.096 470.453 227.312 471.324 228.096L471.673 228.532C471.731 227.544 472.021 226.992 472.544 226.876C473.416 226.441 474.548 226.441 475.855 227.748C476.727 228.967 477.511 228.967 480.038 228.619C482.129 228.619 485.44 226.441 487.88 224.349C480.909 223.129 485.005 218.511 487.096 216.856C485.44 216.42 482.913 216.42 481.258 217.291C472.544 221.909 463.308 227.312 457.47 225.656C457.551 226.53 457.85 227.369 458.341 228.096C457.034 228.096 454.507 228.096 453.723 226.876C453.287 227.748 452.503 229.839 453.287 231.494C452.416 230.623 449.976 229.752 448.669 229.403C449.54 230.275 448.669 231.93 449.105 233.15C447.885 231.93 445.793 231.059 444.922 231.93C444.051 232.801 442.395 233.15 441.175 232.801C440.342 233.929 439.188 234.78 437.864 235.241C437.864 234.37 437.864 233.15 437.428 232.714C436.993 234.021 435.686 235.677 434.117 236.461C434.117 235.59 434.117 234.37 433.682 233.586C433.682 235.241 430.37 236.113 429.935 237.333C430.283 235.996 430.428 234.893 430.37 234.021C429.921 234.773 429.314 235.419 428.592 235.915C427.871 236.411 427.051 236.746 426.188 236.897C426.536 236.025 427.059 235.154 426.536 234.37C426.188 236.113 423.661 236.984 421.57 236.461C421.57 237.333 419.827 238.552 417.823 237.333C416.516 236.897 415.731 235.59 416.516 234.806C414.86 234.806 413.205 233.15 414.076 231.93C414.192 231.523 414.308 231.088 414.424 230.623C413.205 229.752 412.769 228.096 414.076 226.876C414.424 226.441 415.731 226.441 416.516 226.441C416.516 223.129 419.478 223.129 420.698 225.569C421.57 226.876 424.097 228.967 426.188 228.532C427.059 228.532 427.408 228.096 428.279 228.096C432.027 226.857 435.556 225.034 438.735 222.694C439.026 221.532 439.142 220.573 439.084 219.818C437.428 220.69 435.773 221.474 434.901 222.694V221.474C433.682 221.474 431.59 221.038 430.719 221.038C431.155 220.602 431.59 218.511 432.462 218.075C430.37 218.511 428.279 218.075 426.536 217.727C427.408 216.856 427.408 215.636 427.843 214.329C426.972 214.764 424.881 213.98 423.225 214.329C423.661 213.109 424.097 211.453 425.316 211.017C423.574 211.366 421.628 211.076 419.478 210.146C421.221 210.146 422.005 208.055 423.225 208.055C419.914 208.055 419.043 206.399 417.387 205.615C418.607 205.964 419.478 204.744 420.698 204.744C419.478 204.308 417.387 202.217 418.258 200.997C417.91 201.578 417.329 202.159 416.516 202.74C415.644 203.088 414.076 202.74 412.769 201.432C411.898 199.69 412.333 197.686 414.076 197.25C413.694 197.225 413.326 197.092 413.017 196.865C412.709 196.638 412.472 196.327 412.334 195.969C412.196 195.612 412.164 195.222 412.241 194.847C412.318 194.472 412.502 194.126 412.769 193.852C413.205 192.98 414.86 191.848 415.732 192.98L416.951 194.723C416.516 193.852 416.516 192.196 416.516 190.976C416.951 189.756 417.823 189.756 419.13 189.233C420.263 189.233 421.134 190.54 421.134 191.848C421.134 193.067 421.57 193.852 422.005 195.594L422.354 193.852C422.354 192.196 424.445 192.632 425.752 192.98C426.972 193.503 427.408 195.943 425.752 197.25C424.881 198.121 425.316 199.341 426.188 200.125C429.063 204.744 434.03 208.491 438.3 208.926C438.358 207.183 439.055 205.644 440.391 204.308C440.391 203.437 440.74 202.217 441.262 201.432C441.611 198.906 442.831 197.686 444.486 198.47C444.138 198.034 443.615 197.599 443.615 197.25C442.395 195.943 441.175 193.852 442.047 192.196C442.918 190.54 445.358 190.976 446.229 191.848C445.793 189.233 448.669 187.229 448.669 185.922C449.105 187.229 449.976 188.885 449.54 190.105C449.976 188.449 452.851 186.358 454.943 185.574C454.071 186.794 456.685 188.885 456.25 190.105C457.121 188.014 460.432 186.794 462.872 186.794C462.001 187.665 462.001 189.321 462.001 190.105C463.308 190.105 465.486 189.756 466.27 188.449C466.27 190.192 465.399 191.848 464.528 192.632C464.963 192.196 466.619 192.196 467.926 192.196C466.619 193.503 467.055 194.81 465.835 195.594C467.49 194.723 469.582 194.723 470.017 196.466C470.889 197.686 469.582 199.777 468.71 200.997C467.839 201.432 467.055 202.217 466.619 202.217Z" fill="#F9D050" stroke="black" style="fill:#F9D050;fill:color(display-p3 0.9765 0.8157 0.3137);fill-opacity:1;stroke:black;stroke-opacity:1;" stroke-width="1.2199"/>
<g id="Group_12">
<path id="Vector_76" d="M440.827 207.271C437.864 208.491 436.993 211.453 436.557 213.109" stroke="black" style="stroke:black;stroke-opacity:1;" stroke-width="1.2199"/>
<path id="Vector_77" d="M440.391 210.146C436.209 212.76 434.466 214.764 435.337 219.383M442.395 222.781C445.009 221.909 446.578 221.038 448.669 217.291" stroke="black" style="stroke:black;stroke-opacity:1;" stroke-width="1.2199"/>
<path id="Vector_78" d="M447.449 218.947C446.578 220.69 447.449 223.565 446.229 224.785C447.341 224.215 448.3 223.388 449.028 222.373C449.755 221.357 450.23 220.183 450.412 218.947" stroke="black" style="stroke:black;stroke-opacity:1;" stroke-width="1.2199"/>
<path id="Vector_79" d="M448.32 223.565C449.976 222.694 452.503 220.167 453.723 217.291C453.287 218.511 453.723 220.602 452.851 221.909C454.943 219.818 455.814 218.511 456.25 216.42L456.598 218.163C457.47 217.291 458.341 216.42 458.341 214.764M458.254 215.984V218.075C459.997 216.856 460.432 215.2 460.432 213.109" stroke="black" style="stroke:black;stroke-opacity:1;" stroke-width="1.2199"/>
<path id="Vector_80" d="M459.997 215.636C462.524 213.893 462.872 211.453 462.872 207.706M462.872 211.889C464.615 210.582 464.963 209.798 464.963 205.964M459.561 194.723C458.69 194.723 457.818 195.159 457.818 196.466C457.818 197.25 456.598 198.47 456.598 199.777C456.25 201.403 455.437 201.955 454.159 201.432C452.851 200.561 452.851 200.561 452.851 199.341C452.851 197.599 454.943 197.25 454.943 195.594C455.378 194.723 455.814 193.503 456.25 193.503C454.159 194.723 451.196 193.852 450.76 191.412" stroke="black" style="stroke:black;stroke-opacity:1;" stroke-width="1.2199"/>
<path id="Vector_81" d="M463.308 195.943C462.436 196.379 461.565 195.072 460.432 195.594C459.997 195.594 458.69 195.943 458.341 195.594" stroke="black" style="stroke:black;stroke-opacity:1;" stroke-width="1.2199"/>
<path id="Vector_82" d="M457.47 198.034C457.905 198.47 459.997 199.341 462.088 198.47C460.345 198.906 459.125 196.814 460.781 195.594M453.723 193.852C451.98 193.852 450.76 195.159 451.196 196.466C451.632 197.686 453.287 197.686 454.507 196.814M450.76 214.764C451.283 214.183 451.573 213.602 451.632 213.022C452.561 213.022 453.258 212.76 453.723 212.237C455.378 212.237 456.598 211.017 457.034 209.798C457.905 209.798 458.341 207.706 458.777 206.835C459.125 207.271 459.997 206.835 460.432 205.092C461.304 205.615 462.524 205.092 462.872 203.872M445.793 200.997C445.793 201.432 444.922 202.217 444.051 202.74C444.486 203.524 444.051 205.615 443.266 205.964C443.702 206.835 443.266 208.055 442.831 208.926C442.831 209.362 443.266 210.669 443.266 211.017M447.449 192.632C446.578 194.723 447.013 197.25 448.669 197.686" stroke="black" style="stroke:black;stroke-opacity:1;" stroke-width="1.2199"/>
<path id="Vector_83" d="M448.32 199.254C447.885 201.432 447.885 204.308 447.449 205.615C447.013 206.486 446.229 209.362 449.54 210.146C453.287 211.017 455.378 210.582 457.47 204.308M463.743 220.602C463.743 221.038 463.308 221.909 462.524 221.909M466.619 219.818C466.619 220.69 465.748 221.909 465.399 222.258M469.582 218.947C469.582 219.818 469.582 221.038 468.71 221.474M444.138 193.067C444.486 193.067 445.009 193.939 445.358 194.723C444.138 193.852 442.831 195.943 443.615 197.25M442.831 200.125L441.175 201.432M441.611 203.872C441.175 203.872 440.74 204.308 440.391 204.308M421.57 196.379C421.57 195.943 421.57 195.943 422.005 195.507M417.823 195.159C417.387 195.159 417.387 195.159 416.951 194.723M418.171 200.997H419.043M416.516 198.47C415.854 197.813 414.999 197.385 414.076 197.25M439.52 213.98C436.557 216.42 435.337 218.511 434.901 221.474M442.395 215.984C441.655 217.536 440.512 218.86 439.084 219.818M426.188 228.532C424.793 228.981 423.314 229.105 421.864 228.894C420.413 228.682 419.031 228.141 417.823 227.312C417.387 226.876 416.951 226.876 416.516 226.441M438.648 222.781C438.3 224.349 437.777 226.441 436.993 226.876C440.391 225.133 443.266 222.694 443.702 218.947M414.424 230.623C415.732 230.187 417.039 231.059 417.823 230.187M487.096 216.856C487.967 217.291 489.187 217.727 489.623 218.075C490.059 217.204 491.714 215.984 492.934 215.636M457.47 225.656C457.034 223.914 457.905 221.909 460.432 221.038M441.175 232.714C441.611 231.843 441.611 230.623 442.047 229.839M422.79 234.021C422.354 234.893 421.57 235.677 421.57 236.461M416.516 234.806C416.516 234.806 416.516 234.37 416.951 234.37C417.823 234.021 419.043 233.15 419.478 232.279M473.328 228.967C472.457 229.403 472.109 228.967 471.673 228.532M472.893 231.059C472.893 231.059 472.544 231.494 472.021 231.494M474.984 233.15C474.519 233.673 474.113 233.963 473.764 234.021M487.096 234.021C487.909 233.673 488.49 232.685 488.839 231.059M481.693 233.586C482.913 233.15 483.785 232.279 485.005 231.059M493.37 230.187C493.312 229.316 493.457 228.503 493.805 227.748M524.303 234.021C523.432 233.15 523.432 231.93 524.739 231.059C525.61 230.623 525.959 230.187 526.83 229.839" stroke="black" style="stroke:black;stroke-opacity:1;" stroke-width="1.2199"/>
<path id="Vector_84" d="M498.772 219.295C492.15 216.42 492.585 212.673 487.096 213.109M528.485 232.366C528.921 232.714 528.485 234.021 528.485 234.37M532.232 232.366C531.797 233.586 531.797 234.021 531.797 235.241M500.079 193.067H496.594M464.963 207.271C464.963 208.142 466.27 209.798 469.582 209.798C469.146 209.798 468.71 209.362 468.71 209.362M466.619 202.217C466.27 202.652 465.748 202.217 465.748 202.217C464.963 201.345 466.27 199.777 467.49 198.906C466.328 199.254 465.341 199.399 464.528 199.341C463.656 201.868 461.216 203.088 459.561 201.432C459.125 203.088 457.034 205.179 455.378 204.744C453.752 203.814 453.171 202.71 453.636 201.432C451.632 203.872 449.105 202.304 448.32 201.432C447.885 200.561 448.32 198.47 449.192 195.943" stroke="black" style="stroke:black;stroke-opacity:1;" stroke-width="1.2199"/>
</g>
<path id="Vector_85" d="M493.37 218.075C492.15 218.947 490.843 218.075 489.623 219.383C488.752 220.254 490.059 220.602 490.843 220.602C490.494 221.909 490.494 222.345 492.586 222.345C491.714 223.565 494.241 224.001 493.805 225.656C494.298 225.093 494.636 224.412 494.789 223.679C494.942 222.947 494.903 222.187 494.677 221.474C494.241 220.167 492.063 219.383 493.37 218.075Z" fill="black" style="fill:black;fill-opacity:1;"/>
<path id="Vector_86" d="M455.378 204.744C453.752 203.814 453.171 202.71 453.636 201.432C453.229 202.246 452.561 202.652 451.632 202.652C449.889 206.399 447.885 209.798 445.358 209.798C442.395 210.146 442.831 213.109 444.922 213.109C449.54 213.98 451.632 212.237 455.378 204.744ZM414.076 194.723C415.296 193.503 414.425 192.196 413.64 191.848C412.333 191.412 409.893 191.848 408.586 193.852C409.893 193.503 411.201 193.503 411.549 194.287C411.985 195.159 412.769 196.03 414.076 194.723ZM416.167 187.229C419.043 187.229 419.914 187.665 420.263 188.885C420.698 189.756 419.914 190.976 419.043 190.976C417.823 190.976 416.516 190.105 416.951 189.756C417.387 188.885 417.387 187.665 416.08 187.142L416.167 187.229ZM424.445 193.852C426.536 194.287 427.408 192.98 426.188 191.412C425.723 190.018 424.445 189.437 422.354 189.669C424.445 190.976 422.354 193.067 424.445 193.852ZM409.022 200.997C409.397 201.738 410.025 202.321 410.792 202.641C411.558 202.96 412.414 202.995 413.205 202.74C414.425 202.217 414.947 200.997 414.425 200.125C413.553 198.906 412.333 198.47 411.985 200.125C411.113 201.868 409.893 201.432 409.022 200.997ZM415.296 226.441C414.425 224.785 411.985 224.785 409.893 226.441C410.765 226.005 412.333 226.441 412.769 227.312C413.205 228.183 414.076 228.183 414.512 228.183C414.86 227.748 415.732 227.312 415.296 226.441ZM418.607 224.001C418.607 221.909 415.732 221.387 414.076 222.258C414.947 222.258 416.167 223.129 416.167 224.001C416.516 224.872 417.387 225.221 417.823 225.221C418.694 224.756 418.985 224.349 418.694 224.001H418.607ZM414.425 231.494C411.985 231.059 410.678 234.021 410.678 236.025C411.113 234.806 412.42 234.021 413.64 234.37C414.802 234.37 415.354 233.963 415.296 233.15C415.732 232.279 415.296 231.93 414.425 231.407V231.494ZM414.86 238.552C415.732 238.988 416.603 238.117 416.951 236.897C416.951 236.025 418.694 236.025 419.043 236.461C419.914 236.897 419.914 238.552 418.607 239.424C417.736 239.859 415.732 240.295 414.86 238.552ZM472.893 226.005C472.021 225.656 470.017 224.785 468.362 226.005C469.582 225.656 470.453 226.441 470.802 227.312C470.802 228.183 472.109 228.532 472.544 227.748C472.893 227.312 473.416 226.441 472.893 226.005ZM469.146 228.967C467.49 228.096 465.399 230.187 464.963 231.93C465.815 231.235 466.839 230.784 467.926 230.623C468.914 230.972 469.465 230.681 469.582 229.752C470.104 229.345 469.959 229.084 469.146 228.967ZM471.324 232.366C470.017 232.366 468.362 234.021 468.362 235.677C468.768 234.747 469.465 234.457 470.453 234.806C471.324 234.806 472.544 234.37 472.544 233.586C472.544 232.714 472.109 232.279 471.237 232.279L471.324 232.366ZM474.984 235.677C474.113 235.241 472.893 235.677 472.893 236.897C472.893 238.117 472.893 239.424 472.544 239.859C473.416 239.046 474.229 238.465 474.984 238.117C475.42 237.768 475.855 236.461 474.984 235.677ZM522.212 231.93C521.34 231.059 520.121 231.494 519.685 232.279C519.249 233.063 518.813 235.241 519.685 236.897C519.685 236.025 520.556 234.806 521.428 234.806C522.647 234.37 522.996 232.714 522.212 231.93ZM524.739 233.586C522.996 234.457 522.996 237.333 524.303 238.988C524.303 238.117 524.739 236.897 525.523 236.461C526.83 236.461 527.266 234.806 526.83 234.021C525.959 233.15 525.087 233.586 524.739 233.586ZM529.705 235.241C528.834 234.806 527.963 235.677 527.963 236.461C527.614 237.768 528.486 239.424 529.705 240.208C529.764 239.279 530.054 238.581 530.577 238.117C531.797 237.245 531.448 235.677 529.705 235.241ZM533.452 234.806C532.581 234.806 531.797 236.025 532.581 237.333C532.929 238.204 533.917 238.494 535.544 238.204C535.108 238.204 534.324 236.897 534.672 236.461C535.079 235.474 534.672 234.922 533.452 234.806Z" fill="#073163" style="fill:#073163;fill:color(display-p3 0.0275 0.1922 0.3882);fill-opacity:1;"/>
</g>
<g id="ky-h">
<path id="Vector_87" d="M417.387 312.879L438.3 248.573L459.212 312.879L404.404 273.233H472.196L417.387 312.879Z" fill="#F9D050" style="fill:#F9D050;fill:color(display-p3 0.9765 0.8157 0.3137);fill-opacity:1;"/>
<path id="Vector_88" d="M421.569 307.041L464.963 275.324H411.549L454.507 307.041L438.3 256.154L421.569 307.041Z" fill="#024919" style="fill:#024919;fill:color(display-p3 0.0078 0.2863 0.0980);fill-opacity:1;"/>
</g>
<g id="ky-h_2">
<path id="Vector_89" d="M495.897 312.879L516.809 248.573L537.722 312.879L482.914 273.233H550.705L495.897 312.879Z" fill="#F9D050" style="fill:#F9D050;fill:color(display-p3 0.9765 0.8157 0.3137);fill-opacity:1;"/>
<path id="Vector_90" d="M500.079 307.041L543.473 275.324H490.059L533.017 307.041L516.809 256.154L500.079 307.041Z" fill="#024919" style="fill:#024919;fill:color(display-p3 0.0078 0.2863 0.0980);fill-opacity:1;"/>
</g>
<g id="ky-h_3">
<path id="Vector_91" d="M456.598 358.364L477.511 294.058L498.424 358.364L443.615 318.718H511.407L456.598 358.364Z" fill="#F9D050" style="fill:#F9D050;fill:color(display-p3 0.9765 0.8157 0.3137);fill-opacity:1;"/>
<path id="Vector_92" d="M460.781 352.526L504.175 320.809H450.76L493.718 352.526L477.511 301.639L460.781 352.526Z" fill="#024919" style="fill:#024919;fill:color(display-p3 0.0078 0.2863 0.0980);fill-opacity:1;"/>
</g>
<path id="Vector_93" d="M555.585 181.827V263.212C555.585 333.792 522.212 358.016 477.511 377.186C432.81 358.016 399.089 333.792 399.089 263.212V181.74H555.585V181.827Z" stroke="black" style="stroke:black;stroke-opacity:1;" stroke-width="1.2199"/>
</g>
</g>
<defs>
<clipPath id="clip0_2194_5715">
<rect width="640" height="480" fill="white" style="fill:white;fill-opacity:1;"/>
</clipPath>
</defs>
</svg>
