<svg width="640" height="480" viewBox="0 0 640 480" fill="none" xmlns="http://www.w3.org/2000/svg">
<g id="lb" clip-path="url(#clip0_2194_5916)">
<g id="Clip path group">
<mask id="mask0_2194_5916" style="mask-type:luminance" maskUnits="userSpaceOnUse" x="0" y="0" width="640" height="480">
<g id="lb-a">
<path id="Vector" d="M0.03125 0H639.969V480H0.03125V0Z" fill="white" style="fill:white;fill-opacity:1;"/>
</g>
</mask>
<g mask="url(#mask0_2194_5916)">
<g id="Group">
<g id="Group_2">
<path id="Vector_2" fill-rule="evenodd" clip-rule="evenodd" d="M-40 360H680V480H-40V360ZM-40 0H680V120H-40V0Z" fill="#EE161F" style="fill:#EE161F;fill:color(display-p3 0.9333 0.0863 0.1216);fill-opacity:1;"/>
<path id="Vector_3" fill-rule="evenodd" clip-rule="evenodd" d="M-40 120H680V360H-40V120Z" fill="white" style="fill:white;fill-opacity:1;"/>
</g>
<path id="Vector_4" d="M316.344 121.875C309.031 136.406 304.156 136.406 291.969 146.25C287.094 151.031 279.781 153.469 289.531 158.437C279.687 163.219 274.812 165.656 269.937 175.406L272.375 177.844C272.375 177.844 281.75 173.344 282.125 175.406C283.812 177.375 269.937 184.781 268.156 186L257.844 192.562C245.562 202.219 238.156 199.781 230.937 214.406L255.312 211.969C260.187 229.031 243.125 231.469 230.937 238.781L211.344 250.969C216.312 268.031 230.937 258.281 243.125 253.406L245.562 255.844V260.719L221.187 272.906C221.187 272.906 192.312 289.406 191.844 289.969C191.656 290.906 191.844 294.844 191.844 294.844C201.594 297.281 216.219 299.719 226.062 294.844C238.25 289.969 240.687 285.094 255.312 285.094C241.225 296.059 224.326 302.819 206.562 304.594V314.344C221.187 314.344 230.937 314.344 243.125 311.906L274.812 302.156C282.125 302.156 289.531 309.469 287 316.781C279.781 343.594 250.437 338.719 240.687 360.656L279.687 345.937C289.437 341.062 299.187 336.281 311.375 338.719C326 343.594 326 353.344 345.5 358.219L340.625 346.031C345.5 348.469 350.375 348.469 355.344 350.906C367.531 355.781 369.969 360.656 384.594 358.219C372.406 343.594 369.969 346.031 360.219 336.281C350.469 321.656 345.5 299.719 360.219 297.281L377.281 302.156C394.344 304.594 394.344 299.719 418.719 309.469C433.437 314.344 438.312 321.656 455.281 316.781C448.062 299.719 421.25 287.531 404.094 282.656C423.687 270.469 418.719 287.531 445.625 280.219V275.344C426.219 260.625 418.812 248.437 392 248.437L433.531 243.562V238.688C433.531 238.688 392.562 228 391.625 227.531C391.906 226.312 392.937 224.437 395.656 223.312C403.437 228.375 426.875 227.812 428.281 227.719C427.531 221.719 416.375 216.75 406.719 211.875C406.719 211.875 364.812 186.094 364.625 183.844C365.469 177.281 381.781 184.875 399.312 189.938C394.437 180.188 384.687 175.312 374.937 172.875L389.562 170.438C379.812 148.5 355.437 150.938 340.812 141.188C330.969 133.875 330.969 129 316.344 121.781V121.875Z" fill="#00A850" style="fill:#00A850;fill:color(display-p3 0.0000 0.6588 0.3137);fill-opacity:1;"/>
<path id="Vector_5" fill-rule="evenodd" clip-rule="evenodd" d="M290 284.063C291.781 278.344 294.125 273.188 283.25 268.219C272.375 263.25 288.687 288 290 284.156V284.063ZM302.844 272.531C300.687 272.813 299.469 280.781 303.875 283.031C308.75 283.781 304.812 272.625 302.844 272.531ZM315.5 271.594C313.25 272.344 313.156 283.594 321.125 281.531C329.188 279.562 321.125 270.75 315.5 271.687V271.594ZM330.312 242.813C332 240 330.219 228.75 323.375 233.438C316.531 238.125 328.062 243.563 330.312 242.813ZM315.312 233.438C317.469 232.594 317.656 225.656 311.562 227.531C305.656 229.313 313.719 234.844 315.312 233.438ZM301.813 236.156C301.813 236.156 297.594 230.344 294.313 231.563C290.281 235.5 302.094 236.25 301.813 236.156ZM255.312 254.719C257.094 254.906 270.312 252.563 274.906 247.406C279.5 242.25 251.375 249.562 251.375 249.656C251.375 249.75 254 254.25 255.312 254.719ZM387.594 221.906C388.25 220.688 380.563 215.25 375.969 217.406C374.75 221.438 387.594 222.75 387.594 221.906ZM361.531 208.781C363.031 206.719 358.25 198.188 348.688 202.969C339.125 207.656 358.719 212.156 361.531 208.875V208.781ZM331.438 203.813C331.438 203.813 333.781 196.125 339.5 197.625C346.062 202.594 331.719 204.094 331.438 203.813ZM325.813 198C324.875 195.844 318.969 197.063 312.125 201.656C305.188 206.063 327.875 202.969 325.813 197.906V198ZM343.344 177.281C343.344 177.281 349.437 174.469 351.312 177.281C353.844 181.313 343.25 177.281 343.344 177.281ZM338.187 174.563C336.969 172.125 330.219 171.844 330.406 175.5C329.281 178.313 339.219 177.75 338.187 174.563ZM322.063 174.563C321.406 173.156 311.75 174.562 308.937 180.375C313.625 182.625 324.219 178.219 322.063 174.563ZM301.437 180.469C301.437 180.469 288.875 188.25 288.031 193.875C288.406 198.75 303.781 185.063 303.781 185.063C303.781 185.063 305.094 179.625 301.531 180.469H301.437ZM287.469 173.438C287.844 171.844 293.75 168.188 294.219 168.469C294.687 170.063 289.437 174.375 287.469 173.438ZM291.5 203.063C291.781 200.719 276.5 200.906 282.219 207.938C287.094 213.844 292.531 204.094 291.5 203.063ZM277.438 213.094C276.688 211.594 275.562 207.469 273.5 207.094C271.719 207.094 262.531 208.969 261.781 210.469C261.406 211.688 265.625 219.281 267.031 219.469C268.719 220.125 277.25 213.844 277.531 213.094H277.438ZM360.312 264.844C360.781 263.156 376.531 257.813 381.875 262.969C388.25 271.688 359.937 267.656 360.312 264.844ZM403.437 275.063C406.906 269.25 392.844 262.313 386.937 268.969C389 276.938 400.625 279.844 403.437 275.063Z" fill="white" stroke="white" style="fill:white;fill-opacity:1;stroke:white;stroke-opacity:1;" stroke-width="3" stroke-linecap="round" stroke-linejoin="round"/>
</g>
</g>
</g>
</g>
<defs>
<clipPath id="clip0_2194_5916">
<rect width="640" height="480" fill="white" style="fill:white;fill-opacity:1;"/>
</clipPath>
</defs>
</svg>
