<svg width="640" height="480" viewBox="0 0 640 480" fill="none" xmlns="http://www.w3.org/2000/svg">
<g id="li" clip-path="url(#clip0_2194_5932)">
<path id="Vector" d="M0 0H640V240H0V0Z" fill="#002B7F" style="fill:#002B7F;fill:color(display-p3 0.0000 0.1686 0.4980);fill-opacity:1;"/>
<path id="Vector_2" d="M0 240H640V480H0V240Z" fill="#CE1126" style="fill:#CE1126;fill:color(display-p3 0.8078 0.0667 0.1490);fill-opacity:1;"/>
<g id="Group">
<g id="li-a">
<path id="Vector_3" d="M173.12 97.84L171.6 147.84H120.88C114.64 135.68 109.52 125.44 109.52 111.44C109.52 99.76 118.72 90.48 131.92 90.48C145.92 90.48 161.36 95.2 173.12 97.84Z" fill="#FFD83D" style="fill:#FFD83D;fill:color(display-p3 1.0000 0.8471 0.2392);fill-opacity:1;"/>
<g id="Group_2">
<g id="Vector_4">
<path d="M115.6 100.16V128.96ZM119.6 97.2V135.6ZM123.76 95.2V140.96ZM127.76 94.24V130.16ZM131.84 94.08V130.32ZM135.92 92.72V130.32ZM140 92.72V130.32ZM144.08 93.12V130.72ZM148.16 93.52V131.04ZM152.24 95.84V133.44ZM156.24 96.24V138.56ZM160.4 96.24V133.84ZM164.4 96.24V133.84Z" fill="#FFD83D" style="fill:#FFD83D;fill:color(display-p3 1.0000 0.8471 0.2392);fill-opacity:1;"/>
<path d="M115.6 100.16V128.96M119.6 97.2V135.6M123.76 95.2V140.96M127.76 94.24V130.16M131.84 94.08V130.32M135.92 92.72V130.32M140 92.72V130.32M144.08 93.12V130.72M148.16 93.52V131.04M152.24 95.84V133.44M156.24 96.24V138.56M160.4 96.24V133.84M164.4 96.24V133.84" stroke="black" style="stroke:black;stroke-opacity:1;" stroke-width="1.2" stroke-linecap="round" stroke-linejoin="round"/>
</g>
<path id="Vector_5" d="M141.12 94.4C149.76 95.76 168.64 104.64 166.48 116.56C163.44 133.52 153.52 126.72 140.4 124.32L130.48 127.6C126.88 131.2 121.68 134.56 118.16 130.16H112.24V153.2H177.36V97.6L141.12 94.4Z" fill="#000001" stroke="black" style="fill:#000001;fill:color(display-p3 0.0000 0.0000 0.0039);fill-opacity:1;stroke:black;stroke-opacity:1;" stroke-width="1.2" stroke-linecap="round" stroke-linejoin="round"/>
</g>
<path id="Vector_6" d="M170.24 94.32C172.405 94.32 174.16 92.565 174.16 90.4C174.16 88.235 172.405 86.48 170.24 86.48C168.075 86.48 166.32 88.235 166.32 90.4C166.32 92.565 168.075 94.32 170.24 94.32Z" fill="#FFD83D" stroke="black" style="fill:#FFD83D;fill:color(display-p3 1.0000 0.8471 0.2392);fill-opacity:1;stroke:black;stroke-opacity:1;" stroke-width="1.6" stroke-linecap="round" stroke-linejoin="round"/>
<path id="Vector_7" d="M161.36 92.16C163.525 92.16 165.28 90.405 165.28 88.24C165.28 86.075 163.525 84.32 161.36 84.32C159.195 84.32 157.44 86.075 157.44 88.24C157.44 90.405 159.195 92.16 161.36 92.16Z" fill="#FFD83D" stroke="black" style="fill:#FFD83D;fill:color(display-p3 1.0000 0.8471 0.2392);fill-opacity:1;stroke:black;stroke-opacity:1;" stroke-width="1.6" stroke-linecap="round" stroke-linejoin="round"/>
<path id="Vector_8" d="M152.32 89.92C154.485 89.92 156.24 88.165 156.24 86C156.24 83.835 154.485 82.08 152.32 82.08C150.155 82.08 148.4 83.835 148.4 86C148.4 88.165 150.155 89.92 152.32 89.92Z" fill="#FFD83D" stroke="black" style="fill:#FFD83D;fill:color(display-p3 1.0000 0.8471 0.2392);fill-opacity:1;stroke:black;stroke-opacity:1;" stroke-width="1.6" stroke-linecap="round" stroke-linejoin="round"/>
<path id="Vector_9" d="M143.28 88.4C145.445 88.4 147.2 86.645 147.2 84.48C147.2 82.315 145.445 80.56 143.28 80.56C141.115 80.56 139.36 82.315 139.36 84.48C139.36 86.645 141.115 88.4 143.28 88.4Z" fill="#FFD83D" stroke="black" style="fill:#FFD83D;fill:color(display-p3 1.0000 0.8471 0.2392);fill-opacity:1;stroke:black;stroke-opacity:1;" stroke-width="1.6" stroke-linecap="round" stroke-linejoin="round"/>
<path id="Vector_10" d="M134.24 87.52C136.405 87.52 138.16 85.765 138.16 83.6C138.16 81.435 136.405 79.68 134.24 79.68C132.075 79.68 130.32 81.435 130.32 83.6C130.32 85.765 132.075 87.52 134.24 87.52Z" fill="#FFD83D" stroke="black" style="fill:#FFD83D;fill:color(display-p3 1.0000 0.8471 0.2392);fill-opacity:1;stroke:black;stroke-opacity:1;" stroke-width="1.6" stroke-linecap="round" stroke-linejoin="round"/>
<path id="Vector_11" d="M125.44 88C127.605 88 129.36 86.245 129.36 84.08C129.36 81.915 127.605 80.16 125.44 80.16C123.275 80.16 121.52 81.915 121.52 84.08C121.52 86.245 123.275 88 125.44 88Z" fill="#FFD83D" stroke="black" style="fill:#FFD83D;fill:color(display-p3 1.0000 0.8471 0.2392);fill-opacity:1;stroke:black;stroke-opacity:1;" stroke-width="1.6" stroke-linecap="round" stroke-linejoin="round"/>
<path id="Vector_12" d="M116.96 90.88C119.125 90.88 120.88 89.125 120.88 86.96C120.88 84.795 119.125 83.04 116.96 83.04C114.795 83.04 113.04 84.795 113.04 86.96C113.04 89.125 114.795 90.88 116.96 90.88Z" fill="#FFD83D" stroke="black" style="fill:#FFD83D;fill:color(display-p3 1.0000 0.8471 0.2392);fill-opacity:1;stroke:black;stroke-opacity:1;" stroke-width="1.6" stroke-linecap="round" stroke-linejoin="round"/>
<path id="Vector_13" d="M109.84 96.16C112.005 96.16 113.76 94.405 113.76 92.24C113.76 90.075 112.005 88.32 109.84 88.32C107.675 88.32 105.92 90.075 105.92 92.24C105.92 94.405 107.675 96.16 109.84 96.16Z" fill="#FFD83D" stroke="black" style="fill:#FFD83D;fill:color(display-p3 1.0000 0.8471 0.2392);fill-opacity:1;stroke:black;stroke-opacity:1;" stroke-width="1.6" stroke-linecap="round" stroke-linejoin="round"/>
<path id="Vector_14" d="M104.8 103.44C106.965 103.44 108.72 101.685 108.72 99.52C108.72 97.355 106.965 95.6 104.8 95.6C102.635 95.6 100.88 97.355 100.88 99.52C100.88 101.685 102.635 103.44 104.8 103.44Z" fill="#FFD83D" stroke="black" style="fill:#FFD83D;fill:color(display-p3 1.0000 0.8471 0.2392);fill-opacity:1;stroke:black;stroke-opacity:1;" stroke-width="1.6" stroke-linecap="round" stroke-linejoin="round"/>
<path id="Vector_15" d="M102.32 112.08C104.485 112.08 106.24 110.325 106.24 108.16C106.24 105.995 104.485 104.24 102.32 104.24C100.155 104.24 98.3999 105.995 98.3999 108.16C98.3999 110.325 100.155 112.08 102.32 112.08Z" fill="#FFD83D" stroke="black" style="fill:#FFD83D;fill:color(display-p3 1.0000 0.8471 0.2392);fill-opacity:1;stroke:black;stroke-opacity:1;" stroke-width="1.6" stroke-linecap="round" stroke-linejoin="round"/>
<path id="Vector_16" d="M102.4 120.96C104.565 120.96 106.32 119.205 106.32 117.04C106.32 114.875 104.565 113.12 102.4 113.12C100.235 113.12 98.48 114.875 98.48 117.04C98.48 119.205 100.235 120.96 102.4 120.96Z" fill="#FFD83D" stroke="black" style="fill:#FFD83D;fill:color(display-p3 1.0000 0.8471 0.2392);fill-opacity:1;stroke:black;stroke-opacity:1;" stroke-width="1.6" stroke-linecap="round" stroke-linejoin="round"/>
<path id="Vector_17" d="M104.16 129.68C106.325 129.68 108.08 127.925 108.08 125.76C108.08 123.595 106.325 121.84 104.16 121.84C101.995 121.84 100.24 123.595 100.24 125.76C100.24 127.925 101.995 129.68 104.16 129.68Z" fill="#FFD83D" stroke="black" style="fill:#FFD83D;fill:color(display-p3 1.0000 0.8471 0.2392);fill-opacity:1;stroke:black;stroke-opacity:1;" stroke-width="1.6" stroke-linecap="round" stroke-linejoin="round"/>
<path id="Vector_18" d="M172 95.6L171.6 100.8C161.76 99.2 147.84 93.76 134.8 93.76C122.8 93.76 113.52 98.56 113.52 110.72C113.52 122.64 118.56 133.52 125.28 144.56L118.32 147.76C112.08 135.76 106.88 125.36 106.88 111.44C106.88 99.76 116.08 88.24 131.92 88.24C145.92 88.24 160.24 93.04 172 95.6Z" fill="#FFD83D" stroke="black" style="fill:#FFD83D;fill:color(display-p3 1.0000 0.8471 0.2392);fill-opacity:1;stroke:black;stroke-opacity:1;" stroke-width="1.6" stroke-linecap="round" stroke-linejoin="round"/>
</g>
<g id="li-a_2">
<path id="Vector_19" d="M182.08 97.84L183.6 147.84H234.32C240.56 135.68 245.68 125.44 245.68 111.44C245.68 99.76 236.48 90.48 223.28 90.48C209.28 90.48 193.84 95.2 182.08 97.84Z" fill="#FFD83D" style="fill:#FFD83D;fill:color(display-p3 1.0000 0.8471 0.2392);fill-opacity:1;"/>
<g id="Group_3">
<g id="Vector_20">
<path d="M239.6 100.16V128.96ZM235.6 97.2V135.6ZM231.44 95.2V140.96ZM227.44 94.24V130.16ZM223.36 94.08V130.32ZM219.28 92.72V130.32ZM215.2 92.72V130.32ZM211.12 93.12V130.72ZM207.04 93.52V131.04ZM202.96 95.84V133.44ZM198.96 96.24V138.56ZM194.8 96.24V133.84ZM190.8 96.24V133.84Z" fill="#FFD83D" style="fill:#FFD83D;fill:color(display-p3 1.0000 0.8471 0.2392);fill-opacity:1;"/>
<path d="M239.6 100.16V128.96M235.6 97.2V135.6M231.44 95.2V140.96M227.44 94.24V130.16M223.36 94.08V130.32M219.28 92.72V130.32M215.2 92.72V130.32M211.12 93.12V130.72M207.04 93.52V131.04M202.96 95.84V133.44M198.96 96.24V138.56M194.8 96.24V133.84M190.8 96.24V133.84" stroke="black" style="stroke:black;stroke-opacity:1;" stroke-width="1.2" stroke-linecap="round" stroke-linejoin="round"/>
</g>
<path id="Vector_21" d="M214.08 94.4C205.44 95.76 186.56 104.64 188.72 116.56C191.76 133.52 201.68 126.72 214.8 124.32L224.72 127.6C228.32 131.2 233.52 134.56 237.04 130.16H242.96V153.2H177.84V97.6L214.08 94.4Z" fill="#000001" stroke="black" style="fill:#000001;fill:color(display-p3 0.0000 0.0000 0.0039);fill-opacity:1;stroke:black;stroke-opacity:1;" stroke-width="1.2" stroke-linecap="round" stroke-linejoin="round"/>
</g>
<path id="Vector_22" d="M184.96 94.32C182.795 94.32 181.04 92.565 181.04 90.4C181.04 88.235 182.795 86.48 184.96 86.48C187.125 86.48 188.88 88.235 188.88 90.4C188.88 92.565 187.125 94.32 184.96 94.32Z" fill="#FFD83D" stroke="black" style="fill:#FFD83D;fill:color(display-p3 1.0000 0.8471 0.2392);fill-opacity:1;stroke:black;stroke-opacity:1;" stroke-width="1.6" stroke-linecap="round" stroke-linejoin="round"/>
<path id="Vector_23" d="M193.84 92.16C191.675 92.16 189.92 90.405 189.92 88.24C189.92 86.075 191.675 84.32 193.84 84.32C196.005 84.32 197.76 86.075 197.76 88.24C197.76 90.405 196.005 92.16 193.84 92.16Z" fill="#FFD83D" stroke="black" style="fill:#FFD83D;fill:color(display-p3 1.0000 0.8471 0.2392);fill-opacity:1;stroke:black;stroke-opacity:1;" stroke-width="1.6" stroke-linecap="round" stroke-linejoin="round"/>
<path id="Vector_24" d="M202.88 89.92C200.715 89.92 198.96 88.165 198.96 86C198.96 83.835 200.715 82.08 202.88 82.08C205.045 82.08 206.8 83.835 206.8 86C206.8 88.165 205.045 89.92 202.88 89.92Z" fill="#FFD83D" stroke="black" style="fill:#FFD83D;fill:color(display-p3 1.0000 0.8471 0.2392);fill-opacity:1;stroke:black;stroke-opacity:1;" stroke-width="1.6" stroke-linecap="round" stroke-linejoin="round"/>
<path id="Vector_25" d="M211.92 88.4C209.755 88.4 208 86.645 208 84.48C208 82.315 209.755 80.56 211.92 80.56C214.085 80.56 215.84 82.315 215.84 84.48C215.84 86.645 214.085 88.4 211.92 88.4Z" fill="#FFD83D" stroke="black" style="fill:#FFD83D;fill:color(display-p3 1.0000 0.8471 0.2392);fill-opacity:1;stroke:black;stroke-opacity:1;" stroke-width="1.6" stroke-linecap="round" stroke-linejoin="round"/>
<path id="Vector_26" d="M220.96 87.52C218.795 87.52 217.04 85.765 217.04 83.6C217.04 81.435 218.795 79.68 220.96 79.68C223.125 79.68 224.88 81.435 224.88 83.6C224.88 85.765 223.125 87.52 220.96 87.52Z" fill="#FFD83D" stroke="black" style="fill:#FFD83D;fill:color(display-p3 1.0000 0.8471 0.2392);fill-opacity:1;stroke:black;stroke-opacity:1;" stroke-width="1.6" stroke-linecap="round" stroke-linejoin="round"/>
<path id="Vector_27" d="M229.76 88C227.595 88 225.84 86.245 225.84 84.08C225.84 81.915 227.595 80.16 229.76 80.16C231.925 80.16 233.68 81.915 233.68 84.08C233.68 86.245 231.925 88 229.76 88Z" fill="#FFD83D" stroke="black" style="fill:#FFD83D;fill:color(display-p3 1.0000 0.8471 0.2392);fill-opacity:1;stroke:black;stroke-opacity:1;" stroke-width="1.6" stroke-linecap="round" stroke-linejoin="round"/>
<path id="Vector_28" d="M238.24 90.88C236.075 90.88 234.32 89.125 234.32 86.96C234.32 84.795 236.075 83.04 238.24 83.04C240.405 83.04 242.16 84.795 242.16 86.96C242.16 89.125 240.405 90.88 238.24 90.88Z" fill="#FFD83D" stroke="black" style="fill:#FFD83D;fill:color(display-p3 1.0000 0.8471 0.2392);fill-opacity:1;stroke:black;stroke-opacity:1;" stroke-width="1.6" stroke-linecap="round" stroke-linejoin="round"/>
<path id="Vector_29" d="M245.36 96.16C243.195 96.16 241.44 94.405 241.44 92.24C241.44 90.075 243.195 88.32 245.36 88.32C247.525 88.32 249.28 90.075 249.28 92.24C249.28 94.405 247.525 96.16 245.36 96.16Z" fill="#FFD83D" stroke="black" style="fill:#FFD83D;fill:color(display-p3 1.0000 0.8471 0.2392);fill-opacity:1;stroke:black;stroke-opacity:1;" stroke-width="1.6" stroke-linecap="round" stroke-linejoin="round"/>
<path id="Vector_30" d="M250.4 103.44C248.235 103.44 246.48 101.685 246.48 99.52C246.48 97.355 248.235 95.6 250.4 95.6C252.565 95.6 254.32 97.355 254.32 99.52C254.32 101.685 252.565 103.44 250.4 103.44Z" fill="#FFD83D" stroke="black" style="fill:#FFD83D;fill:color(display-p3 1.0000 0.8471 0.2392);fill-opacity:1;stroke:black;stroke-opacity:1;" stroke-width="1.6" stroke-linecap="round" stroke-linejoin="round"/>
<path id="Vector_31" d="M252.88 112.08C250.715 112.08 248.96 110.325 248.96 108.16C248.96 105.995 250.715 104.24 252.88 104.24C255.045 104.24 256.8 105.995 256.8 108.16C256.8 110.325 255.045 112.08 252.88 112.08Z" fill="#FFD83D" stroke="black" style="fill:#FFD83D;fill:color(display-p3 1.0000 0.8471 0.2392);fill-opacity:1;stroke:black;stroke-opacity:1;" stroke-width="1.6" stroke-linecap="round" stroke-linejoin="round"/>
<path id="Vector_32" d="M252.8 120.96C250.635 120.96 248.88 119.205 248.88 117.04C248.88 114.875 250.635 113.12 252.8 113.12C254.965 113.12 256.72 114.875 256.72 117.04C256.72 119.205 254.965 120.96 252.8 120.96Z" fill="#FFD83D" stroke="black" style="fill:#FFD83D;fill:color(display-p3 1.0000 0.8471 0.2392);fill-opacity:1;stroke:black;stroke-opacity:1;" stroke-width="1.6" stroke-linecap="round" stroke-linejoin="round"/>
<path id="Vector_33" d="M251.04 129.68C248.875 129.68 247.12 127.925 247.12 125.76C247.12 123.595 248.875 121.84 251.04 121.84C253.205 121.84 254.96 123.595 254.96 125.76C254.96 127.925 253.205 129.68 251.04 129.68Z" fill="#FFD83D" stroke="black" style="fill:#FFD83D;fill:color(display-p3 1.0000 0.8471 0.2392);fill-opacity:1;stroke:black;stroke-opacity:1;" stroke-width="1.6" stroke-linecap="round" stroke-linejoin="round"/>
<path id="Vector_34" d="M183.2 95.6L183.6 100.8C193.44 99.2 207.36 93.76 220.4 93.76C232.4 93.76 241.68 98.56 241.68 110.72C241.68 122.64 236.64 133.52 229.92 144.56L236.88 147.76C243.12 135.76 248.32 125.36 248.32 111.44C248.32 99.76 239.12 88.24 223.28 88.24C209.28 88.24 194.96 93.04 183.2 95.6Z" fill="#FFD83D" stroke="black" style="fill:#FFD83D;fill:color(display-p3 1.0000 0.8471 0.2392);fill-opacity:1;stroke:black;stroke-opacity:1;" stroke-width="1.6" stroke-linecap="round" stroke-linejoin="round"/>
</g>
<path id="Vector_35" d="M177.6 42.48L173.44 50.24L177.6 57.92L181.68 50.24L177.6 42.4V42.48ZM177.6 62L173.44 69.68L177.6 77.44L181.6 69.6L177.6 62ZM162.88 60L169.36 64.08L175.84 60L169.44 55.84L162.88 60ZM179.28 60L185.76 64.08L192.32 60L185.76 55.84L179.28 60Z" fill="#FFD83D" stroke="black" style="fill:#FFD83D;fill:color(display-p3 1.0000 0.8471 0.2392);fill-opacity:1;stroke:black;stroke-opacity:1;" stroke-width="1.6" stroke-linecap="round" stroke-linejoin="round"/>
<path id="Vector_36" d="M177.6 63.2C179.323 63.2 180.72 61.8031 180.72 60.08C180.72 58.3569 179.323 56.96 177.6 56.96C175.877 56.96 174.48 58.3569 174.48 60.08C174.48 61.8031 175.877 63.2 177.6 63.2Z" fill="#FFD83D" stroke="black" style="fill:#FFD83D;fill:color(display-p3 1.0000 0.8471 0.2392);fill-opacity:1;stroke:black;stroke-opacity:1;" stroke-width="1.6" stroke-linecap="round" stroke-linejoin="round"/>
<path id="Vector_37" d="M177.6 88.4C182.239 88.4 186 84.6392 186 80C186 75.3608 182.239 71.6 177.6 71.6C172.961 71.6 169.2 75.3608 169.2 80C169.2 84.6392 172.961 88.4 177.6 88.4Z" fill="#FFD83D" stroke="black" style="fill:#FFD83D;fill:color(display-p3 1.0000 0.8471 0.2392);fill-opacity:1;stroke:black;stroke-opacity:1;" stroke-width="1.6" stroke-linecap="round" stroke-linejoin="round"/>
<path id="Vector_38" d="M175.44 71.92V77.2C173.456 77.2965 171.479 77.5102 169.52 77.84M185.68 77.84C183.695 77.5051 181.691 77.2914 179.68 77.2V71.92M169.44 82.08C172.135 81.6117 174.865 81.3709 177.6 81.36C180.373 81.36 183.04 81.6 185.6 82.08" stroke="black" style="stroke:black;stroke-opacity:1;" stroke-width="1.2" stroke-linecap="round" stroke-linejoin="round"/>
<path id="Vector_39" d="M169.44 94.16C168.64 107.76 167.04 121.76 161.68 131.84L170.32 128.32C173.36 116.88 174 102.08 174.88 95.04L169.44 94.16ZM185.76 94.16L180.24 95.04C181.2 102.08 181.84 116.88 184.8 128.32L193.44 131.84C188.16 121.76 186.56 107.84 185.76 94.16Z" fill="#FFD83D" stroke="black" style="fill:#FFD83D;fill:color(display-p3 1.0000 0.8471 0.2392);fill-opacity:1;stroke:black;stroke-opacity:1;" stroke-width="1.6" stroke-linecap="round" stroke-linejoin="round"/>
<path id="Vector_40" d="M177.6 123.76C167.2 123.76 159.6 128.56 159.2 141.04C156.64 136.56 146 122.64 136 124.48C130.08 125.6 124.8 133.84 125.76 143.2C120.8 129.12 106.48 126.8 95.9199 135.2C105.28 142.8 109.44 165.44 117.28 175.2H237.84C245.68 165.44 249.84 142.8 259.2 135.2C248.72 126.8 234.32 129.12 229.44 143.2C230.24 133.84 225.04 125.6 219.04 124.48C209.12 122.64 198.48 136.56 195.92 141.04C195.52 128.64 187.92 123.76 177.52 123.76H177.6Z" fill="#FFD83D" stroke="black" style="fill:#FFD83D;fill:color(display-p3 1.0000 0.8471 0.2392);fill-opacity:1;stroke:black;stroke-opacity:1;" stroke-width="1.6" stroke-linecap="round" stroke-linejoin="round"/>
<g id="Group_4">
<path id="Vector_41" d="M237.68 175.2C237.68 179.68 210.8 184.56 177.6 184.56C144.4 184.56 117.44 179.76 117.44 175.2C117.44 170.8 144.4 168.4 177.6 168.4C210.72 168.4 237.68 170.8 237.68 175.2Z" fill="#000001" stroke="black" style="fill:#000001;fill:color(display-p3 0.0000 0.0000 0.0039);fill-opacity:1;stroke:black;stroke-opacity:1;" stroke-width="1.2" stroke-linecap="round" stroke-linejoin="round"/>
<path id="Vector_42" d="M177.6 94.32C179.146 94.32 180.4 93.0664 180.4 91.52C180.4 89.9736 179.146 88.72 177.6 88.72C176.053 88.72 174.8 89.9736 174.8 91.52C174.8 93.0664 176.053 94.32 177.6 94.32Z" fill="#FFD83D" stroke="black" style="fill:#FFD83D;fill:color(display-p3 1.0000 0.8471 0.2392);fill-opacity:1;stroke:black;stroke-opacity:1;" stroke-width="1.2" stroke-linecap="round" stroke-linejoin="round"/>
<path id="Vector_43" d="M177.6 100.56C179.234 100.56 180.56 99.2348 180.56 97.6C180.56 95.9652 179.234 94.64 177.6 94.64C175.965 94.64 174.64 95.9652 174.64 97.6C174.64 99.2348 175.965 100.56 177.6 100.56Z" fill="#FFD83D" stroke="black" style="fill:#FFD83D;fill:color(display-p3 1.0000 0.8471 0.2392);fill-opacity:1;stroke:black;stroke-opacity:1;" stroke-width="1.2" stroke-linecap="round" stroke-linejoin="round"/>
<path id="Vector_44" d="M177.6 107.44C179.411 107.44 180.88 105.971 180.88 104.16C180.88 102.349 179.411 100.88 177.6 100.88C175.788 100.88 174.32 102.349 174.32 104.16C174.32 105.971 175.788 107.44 177.6 107.44Z" fill="#FFD83D" stroke="black" style="fill:#FFD83D;fill:color(display-p3 1.0000 0.8471 0.2392);fill-opacity:1;stroke:black;stroke-opacity:1;" stroke-width="1.2" stroke-linecap="round" stroke-linejoin="round"/>
<path id="Vector_45" d="M177.6 115.2C179.676 115.2 181.36 113.517 181.36 111.44C181.36 109.363 179.676 107.68 177.6 107.68C175.523 107.68 173.84 109.363 173.84 111.44C173.84 113.517 175.523 115.2 177.6 115.2Z" fill="#FFD83D" stroke="black" style="fill:#FFD83D;fill:color(display-p3 1.0000 0.8471 0.2392);fill-opacity:1;stroke:black;stroke-opacity:1;" stroke-width="1.2" stroke-linecap="round" stroke-linejoin="round"/>
<path id="Vector_46" d="M177.6 123.6C179.853 123.6 181.68 121.773 181.68 119.52C181.68 117.267 179.853 115.44 177.6 115.44C175.346 115.44 173.52 117.267 173.52 119.52C173.52 121.773 175.346 123.6 177.6 123.6Z" fill="#FFD83D" stroke="black" style="fill:#FFD83D;fill:color(display-p3 1.0000 0.8471 0.2392);fill-opacity:1;stroke:black;stroke-opacity:1;" stroke-width="1.2" stroke-linecap="round" stroke-linejoin="round"/>
<path id="Vector_47" d="M176 127.36C175.466 127.36 175.2 127.733 175.2 128.48L175.68 131.92C175.84 133.12 176.48 132.72 176.72 131.92C176.88 130.96 176.8 130.32 176.88 128.64C176.773 127.787 176.453 127.36 175.92 127.36H176ZM179.2 127.36C178.666 127.36 178.373 127.787 178.32 128.64C178.32 130.32 178.32 130.96 178.48 131.84C178.64 132.72 179.28 133.12 179.52 131.84L179.92 128.48C180.08 127.68 179.6 127.36 179.2 127.36ZM173.04 127.84C172.828 127.84 172.624 127.924 172.474 128.074C172.324 128.224 172.24 128.428 172.24 128.64C172.293 129.44 172.4 130.453 172.56 131.68C172.72 132.88 173.6 132.48 173.68 131.68C173.786 130.987 173.786 129.947 173.68 128.56C173.68 128.08 173.52 127.813 173.2 127.76H173.04V127.84ZM181.92 127.84C181.653 127.84 181.466 128.107 181.36 128.64L181.52 131.68C181.52 132.48 182.48 132.88 182.56 131.68C182.56 130.48 182.88 129.52 182.88 128.72C182.826 128.187 182.56 127.893 182.08 127.84H181.92ZM169.6 129.2C169.066 129.36 168.853 129.707 168.96 130.24C169.226 131.307 169.386 132.373 169.44 133.44C169.44 134.32 170.16 134 170.24 133.44L170.32 130.24C170.266 129.44 170 129.093 169.52 129.2H169.6ZM185.28 129.2C185.013 129.253 184.853 129.6 184.8 130.24L184.96 133.44C184.96 134 185.76 134.32 185.76 133.44C185.76 132.373 185.893 131.307 186.16 130.24C186.213 129.707 186.026 129.36 185.6 129.2H185.36H185.28ZM138.08 129.36C137.546 129.413 137.386 129.813 137.6 130.56C138.08 131.68 138.64 132.32 139.12 133.44C139.6 134.56 140.24 133.84 140 133.12L138.88 130.16C138.613 129.627 138.346 129.36 138.08 129.36ZM217.12 129.36C216.8 129.36 216.533 129.627 216.32 130.16C215.6 131.68 215.36 132.4 215.12 133.12C214.96 133.92 215.6 134.48 216.08 133.44L217.52 130.56C217.733 129.813 217.6 129.413 217.12 129.36ZM141.28 129.36C140.853 129.52 140.72 129.867 140.88 130.4C141.413 131.36 141.893 132.373 142.32 133.44C142.64 134.32 143.44 134.08 143.12 133.28L142.32 130.32C141.946 129.573 141.6 129.253 141.28 129.36ZM213.68 129.36C213.36 129.413 213.093 129.733 212.88 130.32C212.32 131.92 212.24 132.4 212 133.28C211.68 134.08 212.48 134.32 212.8 133.44L214.24 130.4C214.4 129.867 214.293 129.52 213.92 129.36H213.68ZM145.28 130.16C144.746 130.32 144.586 130.827 144.8 131.68C145.173 132.587 145.6 133.573 146.08 134.64C146.56 135.76 147.28 135.52 147.12 134.8C146.96 134.107 146.64 132.907 146.16 131.2C145.893 130.4 145.6 130.053 145.28 130.16ZM209.92 130.16C209.546 130.107 209.226 130.453 208.96 131.2C208.426 132.907 208.133 134.107 208.08 134.8C207.84 135.6 208.64 135.76 209.04 134.64C209.573 133.573 210 132.587 210.32 131.68C210.533 130.827 210.4 130.32 209.92 130.16ZM135.36 130.72C134.88 130.72 134.56 131.52 134.8 132.08C135.2 132.88 135.52 133.2 135.92 134.16C136.4 135.12 136.88 134.4 136.72 133.76C136.453 133.12 136.24 132.373 136.08 131.52C135.92 130.933 135.653 130.667 135.28 130.72H135.36ZM219.84 130.72C219.52 130.667 219.253 130.933 219.04 131.52L218.48 133.76C218.32 134.4 218.8 135.12 219.28 134.16C219.76 133.2 219.92 132.96 220.4 132.08C220.64 131.52 220.24 130.8 219.84 130.72ZM166.24 132.96C165.68 132.96 165.2 133.6 165.44 134.16C165.706 135.013 166 136 166.32 137.12C166.64 138.16 167.36 137.68 167.28 136.96L166.88 133.76C166.72 133.227 166.48 132.96 166.16 132.96H166.24ZM188.96 132.96C188.64 132.96 188.426 133.227 188.32 133.76L187.84 136.96C187.84 137.68 188.56 138.16 188.8 137.12L189.76 134.16C189.92 133.6 189.44 132.96 188.96 132.96ZM177.6 133.92C176.96 133.92 176.88 134.72 176.88 135.28C176.844 137.104 176.289 138.88 175.28 140.4C174.48 141.36 173.44 141.12 172.48 140.56L169.84 138.8C168.72 138 167.92 138.48 169.2 140.32C172.88 145.6 176.88 150.08 176.88 158.72C176.88 159.68 177.12 160.133 177.6 160.08C178.32 160 178.24 159.76 178.24 158.64C178.24 150.08 182.24 145.6 185.92 140.24C187.2 138.48 186.4 138 185.36 138.8L182.72 140.56C181.68 141.12 180.64 141.36 179.92 140.4C178.911 138.88 178.356 137.104 178.32 135.28C178.24 134.72 178.16 133.92 177.52 133.92H177.6ZM149.36 132.64H149.2C148.986 132.693 148.906 132.96 148.96 133.44L149.84 136.56C150.08 137.36 150.96 137.12 150.8 136.16L150.32 133.68C150.106 133.04 149.786 132.693 149.36 132.64ZM205.84 132.64C205.413 132.64 205.093 132.987 204.88 133.68C204.56 134.8 204.56 135.12 204.4 136.08C204.16 137.12 205.12 137.28 205.28 136.56L206.24 133.36C206.24 132.933 206.133 132.693 205.92 132.64H205.84ZM132.56 132.96C131.973 133.067 131.866 133.547 132.24 134.4C132.72 135.36 133.6 136.48 134 137.2C134.4 137.92 135.12 137.36 134.64 136.56C134.16 135.76 134 134.72 133.36 133.52C133.307 133.351 133.2 133.205 133.055 133.104C132.91 133.002 132.736 132.952 132.56 132.96ZM222.56 132.96C222.293 132.96 222.026 133.147 221.76 133.52C221.28 134.693 220.88 135.707 220.56 136.56C220.08 137.36 220.72 137.84 221.12 137.2C221.52 136.56 222.4 135.36 222.88 134.4C223.36 133.6 223.04 132.96 222.56 132.96ZM107.2 135.6C106.72 135.6 106.56 136.56 107.04 137.2L109.12 139.36C109.76 140 109.92 139.2 109.6 138.56L108.16 136.4C107.786 135.867 107.466 135.6 107.2 135.6ZM247.92 135.6C247.653 135.6 247.36 135.867 247.04 136.4L245.52 138.56C245.2 139.2 245.36 140 246.08 139.36L248.16 137.2C248.64 136.56 248.48 135.6 247.92 135.6ZM111.28 136.4C110.746 136.4 110.613 136.747 110.88 137.44L112.4 140.48C112.8 141.28 114 141.52 113.52 140.32L112.48 137.28C112.16 136.747 111.76 136.48 111.28 136.48V136.4ZM243.92 136.4C243.386 136.4 242.96 136.693 242.64 137.28L241.68 140.32C241.2 141.52 242.4 141.28 242.8 140.48C243.28 139.573 243.76 138.56 244.24 137.44C244.56 136.747 244.453 136.4 243.92 136.4ZM103.44 136.72C102.8 136.72 102.8 137.28 103.36 137.68C104.106 138.213 104.906 138.827 105.76 139.52C106.8 140.32 107.12 139.52 106.56 138.88C106 138.24 105.6 137.6 104.24 136.88C103.92 136.773 103.653 136.72 103.44 136.72ZM251.68 136.72C251.466 136.72 251.2 136.773 250.88 136.88C249.6 137.6 249.04 138.24 248.48 138.88C248 139.6 248.4 140.32 249.36 139.52C250.213 138.827 251.013 138.213 251.76 137.68C252.4 137.28 252.32 136.72 251.76 136.72H251.68ZM164 137.28C163.573 137.28 163.386 137.6 163.44 138.24L164.24 141.12C164.4 142 165.44 142 165.28 141.12C165.173 140.32 164.986 139.28 164.72 138C164.613 137.52 164.4 137.253 164.08 137.2H164V137.28ZM191.04 137.28C190.773 137.28 190.56 137.547 190.4 138.08C190.133 139.307 189.946 140.347 189.84 141.2C189.68 142 190.72 142 190.88 141.12L191.68 138.24C191.786 137.653 191.626 137.333 191.2 137.28H191.04ZM139.84 135.68C139.52 135.733 139.466 136.187 139.68 137.04C140.528 139.346 140.962 141.783 140.96 144.24C140.693 145.093 140.186 145.36 139.44 145.04L137.2 143.68C136.56 143.28 135.84 143.76 136.8 144.56C141.6 148.56 145.04 153.12 146.4 158.64C146.56 159.76 147.28 159.92 147.12 158.64C146 151.68 145.76 145.92 147.44 142.4C148.08 141.04 147.44 139.76 146.48 141.92C145.76 143.36 144.72 143.92 143.84 142.72C142.589 140.767 141.518 138.706 140.64 136.56C140.48 136.027 140.266 135.733 140 135.68H139.92H139.84ZM215.12 135.68C214.853 135.68 214.64 135.947 214.48 136.48C213.92 138.08 212.16 141.44 211.28 142.72C210.4 144 209.36 143.36 208.72 141.92C207.68 139.76 207.12 141.04 207.68 142.4C209.36 145.92 209.12 151.68 208.08 158.64C207.84 159.92 208.56 159.76 208.88 158.64C210.336 153.011 213.665 148.045 218.32 144.56C219.28 143.76 218.56 143.28 217.92 143.76L215.68 144.96C214.88 145.387 214.373 145.12 214.16 144.16C214 143.2 214.32 141.04 215.52 136.96C215.626 136.267 215.546 135.84 215.28 135.68H215.12ZM115.52 137.6C115.12 137.6 114.72 137.92 114.96 138.56C115.28 139.68 115.92 140.8 116.16 141.44C116.4 142.08 117.12 141.84 116.96 140.88L116.56 138.4C116.453 137.867 116.106 137.6 115.52 137.6ZM239.6 137.6C239.066 137.6 238.72 137.867 238.56 138.4L238.24 140.88C238.08 141.84 238.8 142.16 239.04 141.44C239.2 140.8 239.84 139.68 240.16 138.56C240.32 137.92 240.133 137.6 239.6 137.6ZM130.56 136.24C130.08 136.16 130 137.44 130.4 138L132.64 140.48C133.28 141.28 133.68 140.56 133.28 139.92L131.2 136.88C130.933 136.453 130.72 136.24 130.56 136.24ZM224.56 136.24C224.4 136.24 224.186 136.453 223.92 136.88L221.84 139.92C221.44 140.56 221.84 141.28 222.56 140.48L224.72 138C225.12 137.44 225.12 136.16 224.56 136.24ZM118.96 139.44C118.586 139.387 118.453 139.653 118.56 140.24C118.72 141.093 118.933 141.92 119.2 142.72C119.44 143.52 120 143.44 120 142.64L119.76 140.08C119.74 139.882 119.647 139.698 119.499 139.565C119.351 139.432 119.159 139.359 118.96 139.36V139.44ZM236.16 139.44C235.973 139.436 235.79 139.498 235.644 139.615C235.498 139.732 235.397 139.897 235.36 140.08L235.12 142.64C235.12 143.44 235.76 143.6 235.92 142.72L236.64 140.32C236.693 139.627 236.533 139.307 236.16 139.36V139.44ZM129.44 140.56C128.96 140.56 128.56 141.12 129.12 141.84C130 143.04 131.04 143.84 131.44 144.24C131.84 144.64 132.64 144.56 132.08 143.68L130.24 140.88C130.08 140.56 129.813 140.453 129.44 140.56ZM225.44 140.56C225.226 140.56 225.066 140.667 224.96 140.88L223.04 143.68C222.48 144.56 223.36 144.72 223.76 144.32C224.16 143.92 225.12 143.04 226.08 141.84C226.64 141.04 226.16 140.56 225.68 140.56H225.44ZM112.88 143.84C112.506 143.84 112.506 144.187 112.88 144.88C114.115 146.379 115.015 148.124 115.52 150C115.6 151.12 115.12 151.12 114.64 151.12C113.12 151.12 112.4 150 111.12 149.68C109.76 149.44 109.52 150.08 110.48 150.8C115.07 153.694 119.062 157.441 122.24 161.84C123.04 163.36 124.08 163.84 123.52 162.48C121.977 159.356 121.313 155.872 121.6 152.4C122 150.16 122.56 148.72 122.48 147.44C122.48 146.24 121.68 146.32 121.44 147.44L120.64 149.68C120.32 150.08 119.2 150.32 118.24 148.96C116.879 147.29 115.381 145.738 113.76 144.32C113.493 144.053 113.226 143.893 112.96 143.84H112.88ZM242.24 143.84C241.973 143.84 241.68 144 241.36 144.32C239.767 145.742 238.295 147.294 236.96 148.96C235.92 150.32 234.8 150.08 234.56 149.76L233.76 147.44C233.44 146.32 232.72 146.24 232.64 147.44C232.64 148.72 233.12 150.16 233.52 152.4C233.92 154.64 233.52 158.16 231.68 162.48C231.04 163.84 232.16 163.28 232.96 161.84C236.114 157.449 240.078 153.702 244.64 150.8C245.6 150.08 245.44 149.44 244.08 149.68C242.72 149.92 242 151.12 240.56 151.12C240.08 151.12 239.52 151.12 239.6 150C239.68 148.88 241.04 146.48 242.24 144.88C242.666 144.133 242.666 143.787 242.24 143.84Z" fill="#000001" style="fill:#000001;fill:color(display-p3 0.0000 0.0000 0.0039);fill-opacity:1;"/>
<g id="Vector_48">
<path d="M120.08 170.16L121.68 175.04ZM123.28 169.2L124.72 174.16ZM126.8 168.56L127.76 173.68ZM130 168L131.04 173.04ZM134.08 167.6L134.88 172.72ZM138.48 167.6L139.36 172.64ZM142.8 166.16L143.44 171.28ZM146.8 166.4L147.44 171.52ZM150.72 165.92L151.36 171.04ZM154.56 165.44L154.96 170.64ZM158.8 165.44L159.12 170.64ZM162.64 165.2L162.88 170.4ZM166.8 164.96L167.04 170.08ZM171.6 164.8L171.84 170ZM235.04 170.16L233.44 175.04ZM231.84 169.2L230.48 174.16ZM228.4 168.56L227.44 173.68ZM225.2 168L224.16 173.04ZM220.96 167.6L220.16 172.72ZM216.64 167.6L215.76 172.72ZM212.4 166.16L211.76 171.28ZM208.32 166.4L207.68 171.52ZM204.48 165.92L203.76 171.04ZM200.56 165.44L200.16 170.64ZM196.32 165.44L196 170.64ZM192.56 165.2L192.32 170.4ZM188.32 164.96L188.16 170.08ZM183.52 164.8L183.36 170ZM177.6 164.4V170.16Z" fill="#FFD83D" style="fill:#FFD83D;fill:color(display-p3 1.0000 0.8471 0.2392);fill-opacity:1;"/>
<path d="M120.08 170.16L121.68 175.04M123.28 169.2L124.72 174.16M126.8 168.56L127.76 173.68M130 168L131.04 173.04M134.08 167.6L134.88 172.72M138.48 167.6L139.36 172.64M142.8 166.16L143.44 171.28M146.8 166.4L147.44 171.52M150.72 165.92L151.36 171.04M154.56 165.44L154.96 170.64M158.8 165.44L159.12 170.64M162.64 165.2L162.88 170.4M166.8 164.96L167.04 170.08M171.6 164.8L171.84 170M235.04 170.16L233.44 175.04M231.84 169.2L230.48 174.16M228.4 168.56L227.44 173.68M225.2 168L224.16 173.04M220.96 167.6L220.16 172.72M216.64 167.6L215.76 172.72M212.4 166.16L211.76 171.28M208.32 166.4L207.68 171.52M204.48 165.92L203.76 171.04M200.56 165.44L200.16 170.64M196.32 165.44L196 170.64M192.56 165.2L192.32 170.4M188.32 164.96L188.16 170.08M183.52 164.8L183.36 170M177.6 164.4V170.16" stroke="black" style="stroke:black;stroke-opacity:1;" stroke-width="1.2" stroke-linecap="round" stroke-linejoin="round"/>
</g>
</g>
</g>
</g>
<defs>
<clipPath id="clip0_2194_5932">
<rect width="640" height="480" fill="white" style="fill:white;fill-opacity:1;"/>
</clipPath>
</defs>
</svg>
