<svg width="640" height="480" viewBox="0 0 640 480" fill="none" xmlns="http://www.w3.org/2000/svg">
<g id="lr" clip-path="url(#clip0_2194_6013)">
<g id="Clip path group">
<mask id="mask0_2194_6013" style="mask-type:luminance" maskUnits="userSpaceOnUse" x="0" y="0" width="641" height="480">
<g id="lr-a">
<path id="Vector" d="M0 0H640.031V480H0V0Z" fill="white" style="fill:white;fill-opacity:1;"/>
</g>
</mask>
<g mask="url(#mask0_2194_6013)">
<g id="Group">
<path id="Vector_2" fill-rule="evenodd" clip-rule="evenodd" d="M0 0H719.906V480H0V0Z" fill="white" style="fill:white;fill-opacity:1;"/>
<path id="Vector_3" fill-rule="evenodd" clip-rule="evenodd" d="M0 0H218.156V218.25H0V0Z" fill="#000066" style="fill:#000066;fill:color(display-p3 0.0000 0.0000 0.4000);fill-opacity:1;"/>
<path id="Vector_4" fill-rule="evenodd" clip-rule="evenodd" d="M0 435.844H719.906V480H0V435.844Z" fill="#CC0000" style="fill:#CC0000;fill:color(display-p3 0.8000 0.0000 0.0000);fill-opacity:1;"/>
<path id="Vector_5" fill-rule="evenodd" clip-rule="evenodd" d="M0 436.312H719.906V480H0V436.312ZM0 349.219H719.906V392.531H0V349.219ZM0 261.844H718.125V305.625H0V261.844ZM218.156 0H719.812V43.5938H218.156V0ZM218.156 174.375H719.812V218.25H218.156V174.375ZM218.156 87.4688H719.812V131.063H218.156V87.4688Z" fill="#CC0000" style="fill:#CC0000;fill:color(display-p3 0.8000 0.0000 0.0000);fill-opacity:1;"/>
<path id="Vector_6" fill-rule="evenodd" clip-rule="evenodd" d="M155.906 166.406L108.375 137.344L61.125 166.687L78.6563 118.969L31.5 89.5312L89.9063 89.1562L108 41.625L126.563 89.0625H184.969L138 118.781L155.906 166.406Z" fill="white" style="fill:white;fill-opacity:1;"/>
</g>
</g>
</g>
</g>
<defs>
<clipPath id="clip0_2194_6013">
<rect width="640" height="480" fill="white" style="fill:white;fill-opacity:1;"/>
</clipPath>
</defs>
</svg>
