<svg width="640" height="480" viewBox="0 0 640 480" fill="none" xmlns="http://www.w3.org/2000/svg">
<g id="mk" clip-path="url(#clip0_2194_6250)">
<path id="Vector" d="M0 0H640V480H0V0Z" fill="#D20000" style="fill:#D20000;fill:color(display-p3 0.8235 0.0000 0.0000);fill-opacity:1;"/>
<path id="Vector_2" d="M0 0H96L320 231.4L544 0H640L0 480H96L320 248.6L544 480H640L0 0ZM640 192V288L0 192V288L640 192ZM280 0L320 205.7L360 0H280ZM280 480L320 274.3L360 480H280Z" fill="#FFE600" style="fill:#FFE600;fill:color(display-p3 1.0000 0.9020 0.0000);fill-opacity:1;"/>
<path id="Vector_3" d="M320 317.1C362.581 317.1 397.1 282.581 397.1 240C397.1 197.419 362.581 162.9 320 162.9C277.419 162.9 242.9 197.419 242.9 240C242.9 282.581 277.419 317.1 320 317.1Z" fill="#FFE600" stroke="#D20000" style="fill:#FFE600;fill:color(display-p3 1.0000 0.9020 0.0000);fill-opacity:1;stroke:#D20000;stroke:color(display-p3 0.8235 0.0000 0.0000);stroke-opacity:1;" stroke-width="17.1"/>
</g>
<defs>
<clipPath id="clip0_2194_6250">
<rect width="640" height="480" fill="white" style="fill:white;fill-opacity:1;"/>
</clipPath>
</defs>
</svg>
