<svg width="640" height="480" viewBox="0 0 640 480" fill="none" xmlns="http://www.w3.org/2000/svg">
<g id="mm" clip-path="url(#clip0_2194_6259)">
<path id="Vector" d="M0 0H640V480H0V0Z" fill="#FECB00" style="fill:#FECB00;fill:color(display-p3 0.9961 0.7961 0.0000);fill-opacity:1;"/>
<path id="Vector_2" d="M0 160H640V480H0V160Z" fill="#34B233" style="fill:#34B233;fill:color(display-p3 0.2039 0.6980 0.2000);fill-opacity:1;"/>
<path id="Vector_3" d="M0 320H640V480H0V320Z" fill="#EA2839" style="fill:#EA2839;fill:color(display-p3 0.9176 0.1569 0.2235);fill-opacity:1;"/>
<g id="Group">
<path id="mm-a" d="M320 80.02L373.064 256.9H266.936L320 80.02Z" fill="white" style="fill:white;fill-opacity:1;"/>
<path id="mm-a_2" d="M216.033 399.999L277.07 225.71L362.93 288.09L216.033 399.999Z" fill="white" style="fill:white;fill-opacity:1;"/>
<path id="mm-a_3" d="M151.777 202.241L336.398 206.433L303.602 307.367L151.777 202.241Z" fill="white" style="fill:white;fill-opacity:1;"/>
<path id="mm-a_4" d="M488.223 202.241L336.398 307.367L303.602 206.433L488.223 202.241Z" fill="white" style="fill:white;fill-opacity:1;"/>
<path id="mm-a_5" d="M423.967 399.999L277.07 288.09L362.93 225.71L423.967 399.999Z" fill="white" style="fill:white;fill-opacity:1;"/>
</g>
</g>
<defs>
<clipPath id="clip0_2194_6259">
<rect width="640" height="480" fill="white" style="fill:white;fill-opacity:1;"/>
</clipPath>
</defs>
</svg>
