<svg width="640" height="480" viewBox="0 0 640 480" fill="none" xmlns="http://www.w3.org/2000/svg">
<g id="mn" clip-path="url(#clip0_2194_6269)">
<path id="Vector" d="M0 0H640V480H0V0Z" fill="#DA2032" style="fill:#DA2032;fill:color(display-p3 0.8549 0.1255 0.1961);fill-opacity:1;"/>
<path id="Vector_2" d="M213.3 0H426.7V480H213.3V0Z" fill="#0066B3" style="fill:#0066B3;fill:color(display-p3 0.0000 0.4000 0.7020);fill-opacity:1;"/>
<path id="Vector_3" d="M106.7 221.8C128.792 221.8 146.7 203.891 146.7 181.8C146.7 159.709 128.792 141.8 106.7 141.8C84.6088 141.8 66.7002 159.709 66.7002 181.8C66.7002 203.891 84.6088 221.8 106.7 221.8Z" fill="#FFD900" style="fill:#FFD900;fill:color(display-p3 1.0000 0.8510 0.0000);fill-opacity:1;"/>
<path id="Vector_4" d="M106.7 207.2C130.78 207.2 150.3 187.68 150.3 163.6C150.3 139.52 130.78 120 106.7 120C82.6205 120 63.1001 139.52 63.1001 163.6C63.1001 187.68 82.6205 207.2 106.7 207.2Z" fill="#DA2032" style="fill:#DA2032;fill:color(display-p3 0.8549 0.1255 0.1961);fill-opacity:1;"/>
<path id="Vector_5" d="M106.7 200C122.772 200 135.8 186.971 135.8 170.9C135.8 154.828 122.772 141.8 106.7 141.8C90.6286 141.8 77.6001 154.828 77.6001 170.9C77.6001 186.971 90.6286 200 106.7 200Z" fill="#FFD900" style="fill:#FFD900;fill:color(display-p3 1.0000 0.8510 0.0000);fill-opacity:1;"/>
<path id="Vector_6" d="M109.7 76.4C108.244 77.0731 106.993 78.1233 106.079 79.442C105.165 80.7607 104.62 82.2998 104.5 83.9C104.3 86.4 105.4 89.2 105.5 91.6C105.5 95.8 101.2 97.2 101.2 103.1C101.2 105.1 103.1 107.4 103.1 112.7C102.7 115.5 101.1 116.2 99.4002 116.4C98.9189 116.4 98.4425 116.304 97.999 116.117C97.5556 115.93 97.1542 115.655 96.8186 115.311C96.483 114.966 96.2199 114.557 96.045 114.108C95.8701 113.66 95.7868 113.181 95.8002 112.7C95.8346 111.776 96.188 110.893 96.8002 110.2L97.2002 109.9C98.0002 109 99.2002 108.7 99.2002 106.5C99.2002 105.4 98.4002 104.3 97.7002 102.3C97.0002 100.3 97.5002 97.1 99.1002 95.2C96.5002 96.2 95.0002 98.6 94.1002 100.8C93.3002 103.5 94.1002 105 92.9002 107.3C92.2002 108.7 91.4002 109.3 90.6002 110.5C89.6002 111.9 88.6002 114.9 88.6002 116.4C88.9405 120.981 91.0004 125.264 94.3667 128.389C97.733 131.515 102.157 133.252 106.75 133.252C111.344 133.252 115.767 131.515 119.134 128.389C122.5 125.264 124.56 120.981 124.9 116.4C124.9 114.9 123.8 111.9 122.9 110.5C122 109.3 121.2 108.7 120.5 107.3C119.3 105 120.1 103.5 119.2 100.8C118.4 98.6 116.9 96.2 114.3 95.2C115.9 97.2 116.3 100.4 115.7 102.3C115 104.3 114.3 105.3 114.3 106.5C114.3 108.7 115.4 109 116.3 109.9L116.6 110.2C117.212 110.893 117.566 111.776 117.6 112.7C117.614 113.181 117.53 113.66 117.355 114.108C117.18 114.557 116.917 114.966 116.582 115.311C116.246 115.655 115.845 115.93 115.401 116.117C114.958 116.304 114.481 116.4 114 116.4C112 116.1 110.5 115.2 110.3 112.7C110.3 105.7 113.3 105.3 113.3 100.1C113.3 92.7 106.7 89.2 106.7 83.8C106.7 82 107.1 78.8 109.7 76.4ZM26.7002 229H63.0002V403.5H26.7002V229ZM150.3 229H186.7V403.5H150.3V229ZM70.3002 229H143L106.7 250.8L70.3002 229ZM70.3002 258H143V272.6H70.3002V258ZM70.3002 359.9H143V374.5H70.3002V359.9ZM70.3002 381.7H143L106.7 403.5L70.3002 381.7Z" fill="#FFD900" style="fill:#FFD900;fill:color(display-p3 1.0000 0.8510 0.0000);fill-opacity:1;"/>
<path id="Vector_7" d="M106.7 352.8C126.803 352.8 143.1 336.503 143.1 316.4C143.1 296.297 126.803 280 106.7 280C86.5966 280 70.2998 296.297 70.2998 316.4C70.2998 336.503 86.5966 352.8 106.7 352.8Z" fill="#FFD900" style="fill:#FFD900;fill:color(display-p3 1.0000 0.8510 0.0000);fill-opacity:1;"/>
<g id="Group">
<path id="Vector_8" d="M106.654 304.335C110.671 304.335 113.927 301.079 113.927 297.063C113.927 293.046 110.671 289.79 106.654 289.79C102.637 289.79 99.3813 293.046 99.3813 297.063C99.3813 301.079 102.637 304.335 106.654 304.335Z" fill="#DA2032" style="fill:#DA2032;fill:color(display-p3 0.8549 0.1255 0.1961);fill-opacity:1;"/>
<path id="Vector_9" d="M106.654 342.881C110.671 342.881 113.927 339.625 113.927 335.608C113.927 331.591 110.671 328.335 106.654 328.335C102.637 328.335 99.3813 331.591 99.3813 335.608C99.3813 339.625 102.637 342.881 106.654 342.881Z" fill="#DA2032" style="fill:#DA2032;fill:color(display-p3 0.8549 0.1255 0.1961);fill-opacity:1;"/>
<path id="Vector_10" d="M106.654 275.608C112.344 275.608 117.801 277.869 121.825 281.892C125.848 285.916 128.109 291.373 128.109 297.063C128.109 302.753 125.848 308.21 121.825 312.233C117.801 316.257 112.344 318.517 106.654 318.517C102.121 318.517 97.7743 320.318 94.5691 323.523C91.364 326.728 89.5633 331.075 89.5633 335.608C89.5633 340.141 91.364 344.488 94.5691 347.693C97.7743 350.898 102.121 352.699 106.654 352.699V357.062C100.964 357.062 95.5071 354.802 91.4836 350.779C87.4601 346.755 85.1997 341.298 85.1997 335.608C85.1997 329.918 87.4601 324.461 91.4836 320.437C95.5071 316.414 100.964 314.153 106.654 314.153C111.187 314.153 115.534 312.353 118.739 309.148C121.944 305.943 123.745 301.595 123.745 297.063C123.745 292.53 121.944 288.183 118.739 284.978C115.534 281.772 111.187 279.972 106.654 279.972V275.608Z" fill="#DA2032" style="fill:#DA2032;fill:color(display-p3 0.8549 0.1255 0.1961);fill-opacity:1;"/>
</g>
</g>
<defs>
<clipPath id="clip0_2194_6269">
<rect width="640" height="480" fill="white" style="fill:white;fill-opacity:1;"/>
</clipPath>
</defs>
</svg>
