<svg width="640" height="480" viewBox="0 0 640 480" fill="none" xmlns="http://www.w3.org/2000/svg">
<g id="mp" clip-path="url(#clip0_2194_6290)">
<g id="Clip path group">
<mask id="mask0_2194_6290" style="mask-type:luminance" maskUnits="userSpaceOnUse" x="0" y="0" width="640" height="480">
<g id="mp-a">
<path id="Vector" d="M0 0H640V480H0V0Z" fill="white" style="fill:white;fill-opacity:1;"/>
</g>
</mask>
<g mask="url(#mask0_2194_6290)">
<g id="Group">
<path id="Vector_2" fill-rule="evenodd" clip-rule="evenodd" d="M-160 0H800V480H-160V0Z" fill="#0071BC" style="fill:#0071BC;fill:color(display-p3 0.0000 0.4431 0.7373);fill-opacity:1;"/>
<path id="Vector_3" fill-rule="evenodd" clip-rule="evenodd" d="M370 365.7C370 365.7 385.2 349.6 399.8 352.7C404.2 335.7 420.8 334.3 420.8 334.3C420.8 334.3 419.1 315.6 440.3 311.5C440.9 298.8 453.8 288.2 453.8 288.2C453.8 288.2 451.2 268.5 464.6 263.9C456.4 248.3 467.4 236.9 467.3 236.6C467.1 236.3 453.3 211.8 465.7 204.8C452.7 193.8 456.9 181.4 456.9 181.4C456.9 181.4 442.7 177.7 447.8 160.7C436.1 158.7 433.8 139.8 433.8 139.8C433.8 139.8 415.8 143.5 413.6 127.8C401.6 129.7 400.4 118 400.2 118C400.1 118 376.7 124.3 372 106.6C362.9 111.3 359 102.9 359 102.9C359 102.9 346 109.4 338.2 96.9C322.7 106.6 314 96.5 314 96.5C314 96.5 293.7 109.9 287 99.5C275 111.7 264.2 106.5 264.2 106.5C264.2 106.5 255.2 122.5 240.5 118.5C237.2 133.4 220.3 133.7 220.3 133.7C220.3 133.7 222.1 146.8 201.9 150.4C199.3 165.9 188.7 168.4 188.7 168.4C188.7 168.4 189.7 183.6 180.2 188.4C183.6 196.9 174.8 207.3 174.8 207.3C174.8 207.3 184.2 219 171.4 232.2C183.7 235.4 174.8 256.6 174.8 256.6C174.8 256.6 191.8 264.2 181.1 278.3C193.3 282.3 189.5 291.9 189.6 297.6C197.4 301.1 204.2 299.4 200.9 315C224.7 317.7 213.5 330.8 213.5 330.8C213.5 330.8 224.5 331.3 220.2 340.1C240.5 339.6 243.5 355.3 243.5 355.3C243.5 355.3 262.3 350.3 264.8 357.6C267.3 364.9 256.6 414.3 256.6 414.3C256.6 414.3 240.6 414.3 228.8 401.5C201 400.8 207.2 382.5 206.8 382.5C206.3 382.5 197.5 385.9 193 370.6C174.4 374.4 175 358.8 174.8 358.6C174.6 358.4 166.5 354.8 169.5 347.1C150.4 348.8 151.8 330.1 151.8 330.1C147.6 328.4 146.1 324.5 146.7 320.6C144.2 319.7 127.2 319.4 136 297C119.8 287.2 129.9 276 129.9 276C129.9 276 107.5 264.4 124.8 251C111.8 232 125.8 222.5 125.8 222.5C125.8 222.5 107.9 204.4 126.1 191.5C123.1 164 139.5 157.4 139.5 157.4C139.5 157.4 130.9 135 154.3 125.6C155.8 102.9 172.2 102.3 172.2 102.3C172.2 102.3 172.6 84.3 198.4 86.1C203.4 70 220.9 73.2 220.9 73.2C220.9 73.2 226.3 53.7 250.2 63.1C262.3 39.4 280.4 51.5 280.4 51.5C280.4 51.5 291.8 44.1 297.4 46.5C304.7 34 320.2 45.9 330.1 48.4C333.8 46.9 346.7 37.2 356.6 49.4C369.8 40.9 381.1 56.4 381.1 56.4C381.1 56.4 399.2 47.2 407.7 68.2C446.2 64.7 440.7 89.9 440.7 89.9C440.7 89.9 470.9 83 464.3 113.2C491.9 115.1 489.1 133.2 489.1 133.2C489.1 133.2 506.5 146.4 498.9 158.2C514.4 159 508.7 173.9 508.7 173.9C508.7 173.9 520.6 178.5 510.7 196.9C533.4 215 515.1 233.1 515 232.9C514.8 232.8 527.1 247.5 516 264.5C519.4 291.5 505.8 298.3 505.8 298.3C505.8 298.3 509.3 315.8 494.1 320.7C493.8 341.2 474.4 343.7 474.4 343.7C474.4 343.7 479.6 352.7 460.4 362C459.6 375.7 439.6 376.8 439.6 376.8C439.6 376.8 437.7 402 412.2 395.2C406.1 415.4 376.2 409.4 375.6 409.2C375.1 408.9 369.9 365.8 369.9 365.7H370Z" fill="white" stroke="black" style="fill:white;fill-opacity:1;stroke:black;stroke-opacity:1;" stroke-width="1.9"/>
<path id="Vector_4" fill-rule="evenodd" clip-rule="evenodd" d="M185 124C185 124 191.4 129.6 190.2 138C189 146.4 184.2 157.9 185.2 166.5C185.8 170 185.5 176.2 185.5 176.2C185.5 176.2 179.8 168 179.7 159.2C179.6 150.4 185.9 142.1 185.9 135.6C185.9 129.1 184.8 123.9 184.9 124.1L185 124ZM181.8 126.6C181.8 126.6 173.4 134.6 172.3 142.3C171.5 146.3 171.3 165 171.1 173.3C170.9 175.8 169.9 185.8 169.7 189.5C169.4 193.1 175.8 183.3 176.2 175.2C176 166.9 176 149.4 176.8 146.7C177.6 143.3 177.4 139.6 178.6 136.2L181.8 126.6Z" fill="#217900" stroke="black" style="fill:#217900;fill:color(display-p3 0.1294 0.4745 0.0000);fill-opacity:1;stroke:black;stroke-opacity:1;" stroke-width="1.9" stroke-linejoin="round"/>
<g id="Group_2">
<path id="Vector_5" fill-rule="evenodd" clip-rule="evenodd" d="M366 100.5C366 100.5 376.8 95.5001 380 86.1001C383.2 76.7001 370.5 76.7001 368.9 79.7001C367.2 82.7001 370.3 90.0001 369.5 92.0001C368.7 94.0001 364.3 98.6001 366 100.4V100.5Z" fill="#FFD200" stroke="#EF8A10" style="fill:#FFD200;fill:color(display-p3 1.0000 0.8235 0.0000);fill-opacity:1;stroke:#EF8A10;stroke:color(display-p3 0.9373 0.5412 0.0627);stroke-opacity:1;" stroke-width="1.9"/>
<path id="Vector_6" fill-rule="evenodd" clip-rule="evenodd" d="M269.8 103.9C269.8 103.9 276.8 94.2 275 84.5C273.1 74.9 262.2 80.9 262.2 84.3C262.2 87.7 268.4 92.6 268.7 94.7C269 96.8 267.4 103.1 269.7 103.8L269.8 103.9ZM250.7 109.6C250.7 109.6 257.7 99.9 255.9 90.3C254.1 80.7 243.1 86.6 243.1 90C243.1 93.4 249.4 98.4 249.7 100.5C250 102.6 248.4 108.8 250.7 109.6ZM229.6 116.1C229.6 116.1 236.6 106.5 234.8 96.8C232.9 87.1 222 93.1 222 96.5C222 99.9 228.2 104.9 228.5 107C228.8 109.1 227.2 115.3 229.5 116.1H229.6ZM214.6 131C214.6 131 221.7 121.3 219.9 111.7C218.1 102.1 207.1 108 207.1 111.4C207.1 114.8 213.4 119.8 213.6 121.9C213.8 124 212.3 130.2 214.6 131ZM199 145.4C199 145.4 206 135.7 204.2 126C202.4 116.3 191.4 122.4 191.4 125.8C191.4 129.2 197.7 134.1 198 136.2C198.3 138.3 196.7 144.6 199 145.4Z" fill="#FFD200" stroke="#EF8A10" style="fill:#FFD200;fill:color(display-p3 1.0000 0.8235 0.0000);fill-opacity:1;stroke:#EF8A10;stroke:color(display-p3 0.9373 0.5412 0.0627);stroke-opacity:1;" stroke-width="2.5"/>
<path id="Vector_7" fill-rule="evenodd" clip-rule="evenodd" d="M235 61.7C235 61.7 225.6 69.1 224.8 78.9C224 88.7 236.1 85.9 237 82.6C238 79.3 233.3 72.9 233.6 70.8C233.9 68.8 237.1 63.1 235 61.8V61.7ZM266.3 52.1C266.3 52.1 257 59.5 256.1 69.3C255.2 79.1 267.4 76.3 268.4 73C269.4 69.7 264.6 63.2 264.9 61.1C265.2 59 268.4 53.4 266.3 52.1ZM149.6 136.6C149.6 136.6 151.6 148.4 159.8 153.9C168 159.4 171.3 147.3 168.9 144.9C166.5 142.5 158.6 143.5 156.9 142.3C155.2 141.1 151.9 135.5 149.6 136.6ZM134 176.6C134 176.6 134 188.6 141.3 195.3C148.6 202 153.7 190.6 151.7 187.9C149.7 185.2 141.7 184.9 140.3 183.4C138.8 181.8 136.3 175.9 134 176.7V176.6ZM170 221.4C170 221.4 165.8 210.2 156.7 206.4C147.6 202.8 146.7 215.2 149.5 217.1C152.4 218.9 159.9 216.4 161.8 217.3C163.7 218.2 168.1 222.9 170.1 221.3L170 221.4ZM162.6 202C162.6 202 169.8 192.5 168.2 182.9C166.6 173.3 155.5 178.9 155.4 182.3C155.4 185.7 161.4 190.8 161.7 192.9C162 195 160.2 201.2 162.6 202.1V202ZM388.2 110.1C388.2 110.1 399 105.1 402.2 95.8C405.4 86.5 392.7 86.4 391.1 89.3C389.4 92.3 392.5 99.7 391.7 101.6C390.9 103.5 386.5 108.3 388.2 110.1ZM421 126.5C421 126.5 427.4 116.4 424.9 106.9C422.4 97.4 411.9 104.1 412.1 107.5C412.3 110.8 418.9 115.4 419.3 117.5C419.7 119.6 418.6 125.9 421 126.5ZM510.6 219.5C510.6 219.5 506.3 208.4 497.2 204.6C488.1 200.9 487.2 213.4 490 215.2C492.9 217.1 500.5 214.5 502.3 215.4C504.3 216.4 508.6 221.1 510.6 219.5ZM466.8 226.5C466.8 226.5 467 214.5 474.3 207.9C481.6 201.3 486.7 212.8 484.7 215.5C482.6 218.2 474.7 218.3 473.1 219.8C471.7 221.3 469.1 227.2 466.8 226.4V226.5ZM459.8 99.7C459.8 99.7 448.5 95.4 439.8 99.7C430.8 104.1 439.6 113.1 442.8 112.2C446 111.3 449.2 103.9 451.2 103.1C453.2 102.3 459.6 102.1 459.7 99.7H459.8ZM434 78.3C434 78.3 422.9 74 414 78.3C405.2 82.7 413.9 91.7 417.2 90.8C420.4 89.8 423.6 82.5 425.5 81.7C427.4 80.9 433.9 80.7 434 78.3ZM396 57.9C396 57.9 386.5 65.2 385.6 74.9C384.6 84.7 396.8 82 397.8 78.8C398.8 75.5 394.1 69 394.4 66.9C394.7 64.8 398 59.3 396 57.9ZM371.2 51.9C371.2 51.9 366.8 63 371.1 71.9C375.4 80.8 384.4 72.1 383.5 68.9C382.6 65.7 375.3 62.4 374.5 60.5C373.7 58.6 373.6 52 371.2 51.9ZM300.7 94.9C300.7 94.9 308.4 85.7 307.3 75.9C306.2 66.2 294.8 71.4 294.6 74.8C294.3 78.2 300.2 83.6 300.3 85.7C300.4 87.8 298.4 93.9 300.7 94.8V94.9Z" fill="#FFD200" stroke="#EF8A10" style="fill:#FFD200;fill:color(display-p3 1.0000 0.8235 0.0000);fill-opacity:1;stroke:#EF8A10;stroke:color(display-p3 0.9373 0.5412 0.0627);stroke-opacity:1;" stroke-width="1.9"/>
</g>
<path id="Vector_8" fill-rule="evenodd" clip-rule="evenodd" d="M342.8 114.4C342.8 114.4 361.3 115.6 362.2 126.2C363.1 136.8 357.8 143.3 357.8 143.3C357.8 143.3 360.1 166.3 342 173C322.6 175.3 292.1 173.5 292.1 173.5C292.1 173.5 283.1 175.7 279.5 157.2C277.416 146.754 275.88 136.206 274.9 125.6C274.9 125.6 276.7 115.2 289.8 114.6C302.8 113.9 342.6 114.6 342.8 114.4Z" fill="#8C8A8C" stroke="black" style="fill:#8C8A8C;fill:color(display-p3 0.5490 0.5412 0.5490);fill-opacity:1;stroke:black;stroke-opacity:1;" stroke-width="1.9"/>
<path id="Vector_9" d="M357.7 143.2C357.7 143.2 347.7 155.6 348.7 160.7" stroke="black" style="stroke:black;stroke-opacity:1;" stroke-width="1.9" stroke-linecap="round"/>
<path id="Vector_10" fill-rule="evenodd" clip-rule="evenodd" d="M344.3 172.3C346.8 174.4 349.1 176.7 349.6 184.3L350.6 199.7L363.6 316.3L375 400.6L375.8 413.6C375.8 413.6 373.1 423.3 365.4 424.1C359.9 435.7 329.7 439.1 326.7 439C324 438.8 314.4 434.8 308.6 435.3C302.8 435.8 292.6 439.7 288.1 439.1C283.6 438.5 273.3 434.9 271.5 427.5C258.8 423.5 256.8 413.8 256.8 413.8L270.5 316.3L283.8 192.9C283.8 192.9 285.4 176.5 292 174C298.9 173.4 334.4 174.7 344.3 172.3Z" fill="#8C8A8C" stroke="black" style="fill:#8C8A8C;fill:color(display-p3 0.5490 0.5412 0.5490);fill-opacity:1;stroke:black;stroke-opacity:1;" stroke-width="1.9"/>
<path id="Vector_11" d="M274.4 341.1L271.7 427.4M358.2 352.5L365.8 423.7" stroke="black" style="stroke:black;stroke-opacity:1;" stroke-width="1.9"/>
<path id="Vector_12" d="M136.6 296.3L136.3 297.3M495 293.2L495.3 294.2" stroke="black" style="stroke:black;stroke-opacity:1;"/>
<path id="Vector_13" d="M127 179.8C127 179.8 132.6 187.7 133.7 192.2C134.7 196.7 136.6 205.6 139 209.2C141.5 212.9 155.6 233.1 156.4 241.5C156.5 247.1 150.5 256.5 141.7 256.7C136.1 256.5 121.9 252.9 121.3 240.7C120.7 228.4 125.6 228.2 126.3 220.7C126.8 213.3 127 180 127 179.8Z" stroke="#6B18B5" style="stroke:#6B18B5;stroke:color(display-p3 0.4196 0.0941 0.7098);stroke-opacity:1;" stroke-width="1.9" stroke-linejoin="round"/>
<path id="Vector_14" d="M224.5 72.8001C224.5 72.8001 218.5 73.2 214.1 75.7C210.6 77.8 204.6 81 200.5 86.7C189.9 94.9 174 98.7 169 105.7C166 110.3 166.2 121.4 173.7 126.2C178.5 128.9 192.7 133.2 199.5 123.1C206.3 113 202.2 110.1 205.5 103.5C210.207 92.3453 216.616 81.9887 224.5 72.8001ZM367 58C367 58 362.6 54 357.7 52.5C353.7 51.5 347.1 51.9001 340.2 51.2001C326.9 49.4001 313.2 39.8 304.9 41C299.5 42 291.6 50 293.4 58.6C294.7 64 300.7 74.8 312.8 72.7C324.9 70.6 324.8 67.9 331.8 65.7C349.2 56 366.8 58 367 58ZM508.4 195.4C509.4 193.1 507.5 188.8 506.2 183.9C505 179.9 503.1 173.9 498.5 168.4C493.1 156.2 494 139.4 488.5 133C484.8 129 473.9 126.4 467.5 132.6C463.6 136.6 456.1 149.2 464.3 158.3C472.5 167.4 476.1 164 481.7 168.8C495.2 177.8 501.7 193.8 508.4 195.4ZM503.5 302C505.4 299.5 508.7 294.6 508.3 290.5C508 287.3 509.8 277.5 510 273.2C511.2 259.9 519.5 249 517.2 237.5C515.9 232.1 508 224.5 499.4 226.7C494.2 228.3 482.4 234.7 485.1 246.7C487.8 258.7 491.7 258.4 494.2 265.4C501.5 279.9 496.9 297.1 503.5 302Z" stroke="#6B18B5" style="stroke:#6B18B5;stroke:color(display-p3 0.4196 0.0941 0.7098);stroke-opacity:1;" stroke-linejoin="round"/>
<path id="Vector_15" d="M405.5 386.8C405.5 386.8 403.2 391.2 412.3 395M423.6 376.6C423.6 376.6 433.6 374.1 440.4 376.6M453.6 351.2C453.6 351.4 452.2 355.7 460.2 362M459.4 340C459.4 340 465.3 344.3 475.2 344M399.8 352.6C399.8 352.6 400.1 364.1 394.2 369.4M419.6 334.9C419.6 334.9 429.3 337.3 437.3 333.3M481.9 318C481.9 318 484 321 494.8 320.5M439.9 311.2C440.2 311.4 452.6 315.4 460.4 311.8M464.6 264C464.6 264 465.1 263.3 468.9 276.7M474.1 226.3C474.1 226.3 473.6 233.4 467.9 236.5M510.8 197.1C510.8 197.1 502.4 203.9 504 206.6M469.3 192.2C469.3 192.2 473.6 199.5 466.5 204.5M448.2 161C448.2 161 455.7 160.7 459 167.1M434.2 139.8H439.9M463.9 113.8C463.9 113.9 465.4 115.3 462.5 118.3M410.5 114.5C410.5 114.5 414.5 120.7 413.8 128.4M433.6 93.3C435.4 93.1 441.3 90.5 441.3 90.5M407.9 68.5C407.8 68.5 405.7 76.2 409.5 79M398.4 104C398.4 112.4 405 110.3 400.4 118.3M382.2 97C378.36 99.6935 374.867 102.851 371.8 106.4M355.4 92.7C355.4 92.7 359.8 97 358.7 102.9M342.7 89.2C342.7 89.2 340.5 95.8 337.6 97.5M319.6 87.5C319.5 87.8 316 95.3 313.6 96.6M288 87.6C288.2 87.6 291.5 94.6 287.2 99.6M280.7 51.6C280.9 51.8 281.4 57 278.1 61.6M249.4 63.5C249.4 63.6 250.8 69.4 241.6 71.3M231.7 116.5C231.9 116.8 240.6 118.2 240.6 118.2M210 136.6C210.2 136.4 220.6 133.3 220.6 133.3M193.2 149.6C193.5 149.6 200.5 150.9 202.2 150M188.2 156C188.2 156 190.5 157.3 188.6 169M154.4 125.5L158.6 131.7M140.1 157.7C140.1 157.5 144.3 163.9 149.9 165.1M172.9 190.3C175.618 189.859 178.294 189.19 180.9 188.3M170 213.8C170.2 213.8 169.9 209.5 175.2 206.5M163 224.7C163 224.9 168 231.1 171.5 232M160 236.7C160.6 236.5 166 231.8 172.2 232.2M158.3 252.8C158.3 252.8 158.5 258.2 174.5 256.8M159.9 271.8C159.9 271.6 164.6 261 174.1 257M172.7 285.4C172.7 285.4 174.1 280.8 182.1 277.7M181.6 303.2C181.6 303.2 187.3 298.5 189.4 297.9M188.7 317.2C188.7 317.2 192.2 320.8 200.9 314.5M146.9 320.1C147.9 319.9 160.6 317 164.9 323.6M151.9 330.6C151.9 330.6 165.3 328.8 167 330.2M199.7 333.3C199.7 333.3 197.9 337 214.4 330.9M220.2 339.9C217.2 344.9 220.9 348.9 217 351.2M170 346.9C170.5 346.5 176 344.6 175.2 336.6M175 358.9C175.7 358.7 184.9 354.7 186.8 356.8M193.1 370.5C193.1 370.5 194.3 362.3 196.9 361.5M206.9 382.8C206.9 382.8 214.6 382.7 217.9 380.2M221.7 355.2C221.9 355.4 228.8 359 243.7 355.4M227.3 388.4C227.3 388.4 229.3 399 229.3 401.4" stroke="black" style="stroke:black;stroke-opacity:1;" stroke-width="1.9"/>
<g id="Group_3">
<path id="Vector_16" fill-rule="evenodd" clip-rule="evenodd" d="M493.997 225.441C493.583 222.125 491.881 218.971 489.743 217.555C487.163 216.082 484.91 216.363 482.986 218.399C480.1 221.454 480.229 223.795 480.644 227.11C481.207 230.743 482.632 233.427 484.918 235.161C487.606 236.621 489.858 236.34 491.675 234.317C494.401 231.283 494.593 228.902 494.018 225.606L493.997 225.441Z" fill="#DE2010" stroke="black" style="fill:#DE2010;fill:color(display-p3 0.8706 0.1255 0.0627);fill-opacity:1;stroke:black;stroke-opacity:1;" stroke-width="2.46864"/>
<path id="Vector_17" fill-rule="evenodd" clip-rule="evenodd" d="M492.597 207.741C492.182 204.425 490.481 201.271 488.343 199.855C485.762 198.382 483.51 198.663 481.586 200.699C478.7 203.754 478.829 206.095 479.243 209.41C479.806 213.043 481.231 215.727 483.518 217.462C486.206 218.921 488.458 218.64 490.275 216.617C493 213.583 493.193 211.202 492.617 207.906L492.597 207.741Z" fill="#DE2010" stroke="black" style="fill:#DE2010;fill:color(display-p3 0.8706 0.1255 0.0627);fill-opacity:1;stroke:black;stroke-opacity:1;" stroke-width="2.46864"/>
<path id="Vector_18" fill-rule="evenodd" clip-rule="evenodd" d="M488.876 188.779C488.172 185.513 486.2 182.521 483.946 181.298C481.246 180.057 479.027 180.535 477.289 182.733C474.682 186.029 475.017 188.349 475.721 191.615C476.601 195.185 478.256 197.733 480.686 199.26C483.492 200.478 485.711 200 487.343 197.825C489.791 194.563 489.774 192.174 488.911 188.943L488.876 188.779Z" fill="#DE2010" stroke="black" style="fill:#DE2010;fill:color(display-p3 0.8706 0.1255 0.0627);fill-opacity:1;stroke:black;stroke-opacity:1;" stroke-width="2.46865"/>
<path id="Vector_19" fill-rule="evenodd" clip-rule="evenodd" d="M482.46 169.244C480.946 166.266 478.277 163.875 475.785 163.267C472.858 162.755 470.834 163.784 469.714 166.352C468.034 170.203 468.949 172.362 470.462 175.34C472.223 178.568 474.473 180.61 477.212 181.467C480.236 181.929 482.26 180.901 483.283 178.382C484.819 174.604 484.193 172.299 482.535 169.393L482.46 169.244Z" fill="#DE2010" stroke="black" style="fill:#DE2010;fill:color(display-p3 0.8706 0.1255 0.0627);fill-opacity:1;stroke:black;stroke-opacity:1;" stroke-width="2.46865"/>
<path id="Vector_20" fill-rule="evenodd" clip-rule="evenodd" d="M475.46 153.344C473.946 150.366 471.277 147.975 468.785 147.367C465.858 146.855 463.834 147.884 462.714 150.452C461.034 154.303 461.949 156.462 463.462 159.44C465.223 162.668 467.473 164.71 470.212 165.567C473.236 166.029 475.26 165.001 476.283 162.482C477.819 158.704 477.193 156.398 475.535 153.493L475.46 153.344Z" fill="#DE2010" stroke="black" style="fill:#DE2010;fill:color(display-p3 0.8706 0.1255 0.0627);fill-opacity:1;stroke:black;stroke-opacity:1;" stroke-width="2.46865"/>
<path id="Vector_21" fill-rule="evenodd" clip-rule="evenodd" d="M465.555 137.5C463.794 134.66 460.932 132.504 458.398 132.109C455.438 131.847 453.509 133.043 452.61 135.697C451.262 139.677 452.356 141.75 454.116 144.59C456.144 147.657 458.559 149.501 461.361 150.123C464.413 150.327 466.342 149.132 467.149 146.535C468.359 142.64 467.541 140.396 465.643 137.642L465.555 137.5Z" fill="#DE2010" stroke="black" style="fill:#DE2010;fill:color(display-p3 0.8706 0.1255 0.0627);fill-opacity:1;stroke:black;stroke-opacity:1;" stroke-width="2.46865"/>
<path id="Vector_22" fill-rule="evenodd" clip-rule="evenodd" d="M454.475 122.097C452.448 119.441 449.39 117.571 446.83 117.423C443.859 117.449 442.054 118.826 441.416 121.554C440.459 125.646 441.749 127.603 443.775 130.259C446.091 133.116 448.672 134.718 451.521 135.066C454.579 134.975 456.383 133.598 456.935 130.935C457.763 126.942 456.731 124.787 454.576 122.23L454.475 122.097Z" fill="#DE2010" stroke="black" style="fill:#DE2010;fill:color(display-p3 0.8706 0.1255 0.0627);fill-opacity:1;stroke:black;stroke-opacity:1;" stroke-width="2.46865"/>
<path id="Vector_23" fill-rule="evenodd" clip-rule="evenodd" d="M441.253 107.865C438.863 105.531 435.567 104.124 433.012 104.349C430.076 104.805 428.49 106.429 428.254 109.221C427.9 113.408 429.46 115.158 431.85 117.493C434.555 119.983 437.342 121.194 440.211 121.126C443.223 120.592 444.809 118.968 444.969 116.254C445.21 112.182 443.876 110.2 441.373 107.982L441.253 107.865Z" fill="#DE2010" stroke="black" style="fill:#DE2010;fill:color(display-p3 0.8706 0.1255 0.0627);fill-opacity:1;stroke:black;stroke-opacity:1;" stroke-width="2.46866"/>
<path id="Vector_24" fill-rule="evenodd" clip-rule="evenodd" d="M426.467 94.782C423.872 92.6774 420.46 91.5801 417.937 92.0388C415.055 92.7631 413.625 94.5261 413.647 97.3275C413.68 101.53 415.394 103.129 417.989 105.234C420.912 107.465 423.798 108.414 426.649 108.082C429.599 107.274 431.029 105.511 430.938 102.793C430.803 98.7171 429.293 96.866 426.596 94.8873L426.467 94.782Z" fill="#DE2010" stroke="black" style="fill:#DE2010;fill:color(display-p3 0.8706 0.1255 0.0627);fill-opacity:1;stroke:black;stroke-opacity:1;" stroke-width="2.46865"/>
<path id="Vector_25" fill-rule="evenodd" clip-rule="evenodd" d="M410.749 84.3055C407.841 82.6608 404.295 82.1451 401.883 83.0163C399.161 84.2091 398.044 86.1849 398.53 88.9439C399.261 93.0823 401.216 94.3747 404.125 96.0194C407.377 97.7345 410.381 98.1917 413.137 97.3908C415.912 96.104 417.029 94.1282 416.489 91.4633C415.679 87.466 413.883 85.8913 410.895 84.3877L410.749 84.3055Z" fill="#DE2010" stroke="black" style="fill:#DE2010;fill:color(display-p3 0.8706 0.1255 0.0627);fill-opacity:1;stroke:black;stroke-opacity:1;" stroke-width="2.46865"/>
<path id="Vector_26" fill-rule="evenodd" clip-rule="evenodd" d="M393.166 75.0037C390.121 73.6305 386.542 73.4398 384.219 74.5269C381.617 75.9624 380.684 78.0318 381.42 80.7349C382.524 84.7897 384.589 85.8988 387.635 87.272C391.03 88.6839 394.063 88.8658 396.735 87.8174C399.381 86.2834 400.314 84.214 399.534 81.6094C398.363 77.7024 396.431 76.2978 393.319 75.0724L393.166 75.0037Z" fill="#DE2010" stroke="black" style="fill:#DE2010;fill:color(display-p3 0.8706 0.1255 0.0627);fill-opacity:1;stroke:black;stroke-opacity:1;" stroke-width="2.46865"/>
<path id="Vector_27" fill-rule="evenodd" clip-rule="evenodd" d="M375.917 68.0443C372.786 66.8783 369.203 66.928 366.958 68.1684C364.458 69.7751 363.666 71.9023 364.582 74.55C365.955 78.5217 368.09 79.4898 371.221 80.6557C374.703 81.8369 377.741 81.815 380.337 80.5899C382.874 78.8819 383.666 76.7547 382.713 74.2082C381.283 70.3885 379.261 69.1165 376.074 68.1026L375.917 68.0443Z" fill="#DE2010" stroke="black" style="fill:#DE2010;fill:color(display-p3 0.8706 0.1255 0.0627);fill-opacity:1;stroke:black;stroke-opacity:1;" stroke-width="2.46865"/>
<path id="Vector_28" fill-rule="evenodd" clip-rule="evenodd" d="M358.387 62.6028C355.176 61.6792 351.607 62.0022 349.463 63.4103C347.094 65.2031 346.466 67.3846 347.581 69.9547C349.253 73.81 351.456 74.6123 354.667 75.5359C358.229 76.4479 361.257 76.1941 363.751 74.7745C366.151 72.8779 366.778 70.6964 365.633 68.2301C363.916 64.5307 361.803 63.4167 358.548 62.649L358.387 62.6028Z" fill="#DE2010" stroke="black" style="fill:#DE2010;fill:color(display-p3 0.8706 0.1255 0.0627);fill-opacity:1;stroke:black;stroke-opacity:1;" stroke-width="2.46865"/>
<path id="Vector_29" fill-rule="evenodd" clip-rule="evenodd" d="M339.159 59.2831C335.844 58.8651 332.367 59.7339 330.466 61.4553C328.4 63.5916 328.116 65.8437 329.614 68.2116C331.86 71.7633 334.16 72.2168 337.475 72.6349C341.134 72.9875 344.087 72.2704 346.333 70.4836C348.412 68.24 348.696 65.9879 347.185 63.7273C344.919 60.3365 342.659 59.5612 339.324 59.304L339.159 59.2831Z" fill="#DE2010" stroke="black" style="fill:#DE2010;fill:color(display-p3 0.8706 0.1255 0.0627);fill-opacity:1;stroke:black;stroke-opacity:1;" stroke-width="2.46864"/>
<path id="Vector_30" fill-rule="evenodd" clip-rule="evenodd" d="M320.078 58.2219C316.74 58.0878 313.349 59.2498 311.602 61.1269C309.726 63.4315 309.635 65.6996 311.329 67.9312C313.869 71.2786 316.2 71.5345 319.538 71.6686C323.215 71.708 326.096 70.7419 328.181 68.7703C330.061 66.3576 330.152 64.0895 328.454 61.9659C325.907 58.7805 323.59 58.2006 320.245 58.2286L320.078 58.2219Z" fill="#DE2010" stroke="black" style="fill:#DE2010;fill:color(display-p3 0.8706 0.1255 0.0627);fill-opacity:1;stroke:black;stroke-opacity:1;" stroke-width="2.46866"/>
<path id="Vector_31" fill-rule="evenodd" clip-rule="evenodd" d="M302.578 58.8219C299.24 58.6878 295.849 59.8498 294.102 61.7269C292.226 64.0315 292.135 66.2996 293.829 68.5312C296.369 71.8786 298.7 72.1345 302.038 72.2685C305.715 72.308 308.596 71.3419 310.681 69.3702C312.561 66.9576 312.652 64.6895 310.954 62.5659C308.407 59.3805 306.09 58.8006 302.745 58.8286L302.578 58.8219Z" fill="#DE2010" stroke="black" style="fill:#DE2010;fill:color(display-p3 0.8706 0.1255 0.0627);fill-opacity:1;stroke:black;stroke-opacity:1;" stroke-width="2.46866"/>
<path id="Vector_32" fill-rule="evenodd" clip-rule="evenodd" d="M282.178 61.2374C278.921 61.9819 275.953 63.9909 274.758 66.2599C273.551 68.9752 274.057 71.188 276.276 72.8984C279.604 75.464 281.92 75.1009 285.177 74.3564C288.736 73.432 291.264 71.7455 292.76 69.2967C293.943 66.476 293.437 64.2632 291.243 62.6582C287.95 60.2506 285.562 60.2976 282.341 61.2002L282.178 61.2374Z" fill="#DE2010" stroke="black" style="fill:#DE2010;fill:color(display-p3 0.8706 0.1255 0.0627);fill-opacity:1;stroke:black;stroke-opacity:1;" stroke-width="2.46865"/>
<path id="Vector_33" fill-rule="evenodd" clip-rule="evenodd" d="M263.603 65.8943C260.419 66.9049 257.627 69.1519 256.623 71.5117C255.644 74.3173 256.33 76.4809 258.683 78.0025C262.211 80.2848 264.49 79.7319 267.674 78.7213C271.144 77.5066 273.524 75.6173 274.814 73.0534C275.76 70.1447 275.074 67.9812 272.754 66.5626C269.274 64.4348 266.898 64.6786 263.763 65.8438L263.603 65.8943Z" fill="#DE2010" stroke="black" style="fill:#DE2010;fill:color(display-p3 0.8706 0.1255 0.0627);fill-opacity:1;stroke:black;stroke-opacity:1;" stroke-width="2.46865"/>
<path id="Vector_34" fill-rule="evenodd" clip-rule="evenodd" d="M246.651 73.2129C243.61 74.5957 241.105 77.1593 240.389 79.6218C239.752 82.5241 240.691 84.5905 243.208 85.821C246.983 87.6668 249.179 86.8465 252.221 85.4638C255.521 83.8443 257.659 81.685 258.634 78.9857C259.227 75.985 258.288 73.9186 255.816 72.7865C252.108 71.0883 249.778 71.6134 246.803 73.1438L246.651 73.2129Z" fill="#DE2010" stroke="black" style="fill:#DE2010;fill:color(display-p3 0.8706 0.1255 0.0627);fill-opacity:1;stroke:black;stroke-opacity:1;" stroke-width="2.46864"/>
<path id="Vector_35" fill-rule="evenodd" clip-rule="evenodd" d="M229.728 81.8565C226.816 83.4936 224.539 86.2615 224.036 88.7761C223.648 91.7222 224.76 93.7009 227.373 94.7123C231.292 96.2293 233.41 95.2246 236.322 93.5874C239.473 91.6923 241.419 89.3585 242.16 86.5859C242.495 83.5456 241.383 81.5669 238.823 80.6498C234.984 79.2741 232.707 79.9961 229.874 81.7746L229.728 81.8565Z" fill="#DE2010" stroke="black" style="fill:#DE2010;fill:color(display-p3 0.8706 0.1255 0.0627);fill-opacity:1;stroke:black;stroke-opacity:1;" stroke-width="2.46863"/>
<path id="Vector_36" fill-rule="evenodd" clip-rule="evenodd" d="M213.655 92.7492C210.938 94.6931 208.976 97.692 208.749 100.246C208.683 103.217 210.004 105.063 212.711 105.785C216.772 106.867 218.768 105.638 221.486 103.694C224.412 101.468 226.092 98.9364 226.528 96.0997C226.53 93.041 225.21 91.1949 222.566 90.5613C218.599 89.611 216.414 90.5761 213.791 92.652L213.655 92.7492Z" fill="#DE2010" stroke="black" style="fill:#DE2010;fill:color(display-p3 0.8706 0.1255 0.0627);fill-opacity:1;stroke:black;stroke-opacity:1;" stroke-width="2.46864"/>
<path id="Vector_37" fill-rule="evenodd" clip-rule="evenodd" d="M198.899 103.972C196.356 106.139 194.655 109.293 194.645 111.858C194.831 114.823 196.303 116.551 199.062 117.041C203.199 117.775 205.085 116.382 207.628 114.215C210.355 111.749 211.815 109.085 212.009 106.221C211.753 103.173 210.281 101.446 207.593 101.038C203.56 100.427 201.464 101.574 199.027 103.864L198.899 103.972Z" fill="#DE2010" stroke="black" style="fill:#DE2010;fill:color(display-p3 0.8706 0.1255 0.0627);fill-opacity:1;stroke:black;stroke-opacity:1;" stroke-width="2.46863"/>
<path id="Vector_38" fill-rule="evenodd" clip-rule="evenodd" d="M185.797 117.645C183.415 119.988 181.944 123.257 182.119 125.815C182.517 128.76 184.109 130.378 186.896 130.668C191.075 131.104 192.856 129.579 195.237 127.236C197.78 124.581 199.046 121.818 199.034 118.948C198.56 115.927 196.968 114.309 194.257 114.095C190.191 113.775 188.183 115.068 185.916 117.528L185.797 117.645Z" fill="#DE2010" stroke="black" style="fill:#DE2010;fill:color(display-p3 0.8706 0.1255 0.0627);fill-opacity:1;stroke:black;stroke-opacity:1;" stroke-width="2.46864"/>
<path id="Vector_39" fill-rule="evenodd" clip-rule="evenodd" d="M174.539 132.88C172.363 135.415 171.17 138.794 171.558 141.329C172.201 144.23 173.923 145.709 176.724 145.766C180.926 145.85 182.573 144.182 184.749 141.647C187.061 138.788 188.091 135.929 187.839 133.071C187.114 130.099 185.392 128.62 182.673 128.634C178.594 128.655 176.702 130.113 174.648 132.753L174.539 132.88Z" fill="#DE2010" stroke="black" style="fill:#DE2010;fill:color(display-p3 0.8706 0.1255 0.0627);fill-opacity:1;stroke:black;stroke-opacity:1;" stroke-width="2.46865"/>
<path id="Vector_40" fill-rule="evenodd" clip-rule="evenodd" d="M164.226 148.37C162.333 151.123 161.507 154.61 162.163 157.09C163.112 159.905 164.982 161.192 167.773 160.95C171.96 160.586 173.419 158.751 175.313 155.999C177.307 152.91 178.026 149.958 177.471 147.142C176.433 144.265 174.563 142.978 171.861 143.282C167.808 143.738 166.081 145.388 164.321 148.233L164.226 148.37Z" fill="#DE2010" stroke="black" style="fill:#DE2010;fill:color(display-p3 0.8706 0.1255 0.0627);fill-opacity:1;stroke:black;stroke-opacity:1;" stroke-width="2.46864"/>
<path id="Vector_41" fill-rule="evenodd" clip-rule="evenodd" d="M155.691 165.943C154.298 168.98 154.084 172.558 155.156 174.887C156.574 177.498 158.638 178.445 161.346 177.726C165.407 176.649 166.53 174.591 167.923 171.554C169.357 168.168 169.558 165.136 168.527 162.458C167.01 159.802 164.947 158.856 162.337 159.619C158.423 160.764 157.006 162.687 155.76 165.792L155.691 165.943Z" fill="#DE2010" stroke="black" style="fill:#DE2010;fill:color(display-p3 0.8706 0.1255 0.0627);fill-opacity:1;stroke:black;stroke-opacity:1;" stroke-width="2.46864"/>
<path id="Vector_42" fill-rule="evenodd" clip-rule="evenodd" d="M148.916 184.425C147.804 187.576 147.915 191.158 149.194 193.381C150.844 195.852 152.984 196.608 155.616 195.647C159.563 194.206 160.494 192.054 161.606 188.904C162.727 185.402 162.653 182.364 161.384 179.79C159.632 177.283 157.492 176.527 154.962 177.524C151.167 179.019 149.93 181.063 148.972 184.267L148.916 184.425Z" fill="#DE2010" stroke="black" style="fill:#DE2010;fill:color(display-p3 0.8706 0.1255 0.0627);fill-opacity:1;stroke:black;stroke-opacity:1;" stroke-width="2.46864"/>
<path id="Vector_43" fill-rule="evenodd" clip-rule="evenodd" d="M143.016 219.373C142.708 222.04 143.691 224.803 145.474 226.28C147.677 227.879 149.937 228.047 152.255 226.785C155.73 224.891 156.108 223.036 156.416 220.369C156.648 217.428 155.834 215.081 153.974 213.329C151.663 211.722 149.403 211.554 147.194 212.825C143.879 214.73 143.179 216.561 143.032 219.24L143.016 219.373Z" fill="#DE2010" stroke="black" style="fill:#DE2010;fill:color(display-p3 0.8706 0.1255 0.0627);fill-opacity:1;stroke:black;stroke-opacity:1;" stroke-width="2.21123"/>
<path id="Vector_44" fill-rule="evenodd" clip-rule="evenodd" d="M144.564 203.092C143.821 206.349 144.343 209.895 145.869 211.956C147.792 214.222 150.005 214.726 152.509 213.469C156.264 211.584 156.942 209.34 157.684 206.083C158.396 202.475 157.973 199.466 156.416 197.055C154.388 194.765 152.175 194.261 149.777 195.542C146.179 197.463 145.185 199.635 144.601 202.929L144.564 203.092Z" fill="#DE2010" stroke="black" style="fill:#DE2010;fill:color(display-p3 0.8706 0.1255 0.0627);fill-opacity:1;stroke:black;stroke-opacity:1;" stroke-width="2.46863"/>
</g>
<path id="Vector_45" fill-rule="evenodd" clip-rule="evenodd" d="M480 194.7C482.067 192.367 484.3 191.667 486.7 192.6C485.7 186.5 483.9 184.4 481.5 185.2C479.2 185.9 478.1 189 480 194.7ZM483.3 212.9C485.6 210.8 487.6 210.3 490.1 211.3C489.7 205.3 487.9 203 485.5 203.6C483.1 204.1 481.9 207.2 483.3 212.9ZM475.5 177.9C476.9 175.233 478.9 174 481.5 174.2C479 168.6 476.7 167.1 474.5 168.4C472.5 169.7 472.3 173 475.5 178V177.9ZM467.4 161.3C468.8 158.567 470.8 157.333 473.4 157.6C470.9 151.9 468.5 150.4 466.4 151.7C464.3 153 464.2 156.3 467.4 161.3ZM447.9 130.8C448.833 127.867 450.567 126.333 453.1 126.2C449.8 121 447.2 119.9 445.4 121.5C443.6 123.1 443.9 126.5 447.9 130.8ZM435 117.5C436 114.5 437.4 113.1 440 112.7C436.6 107.7 434 106.7 432.2 108.3C430.4 110 430.8 113.3 435 117.5ZM408.3 95C408.3 91.8 409.3 90 411.6 88.8C406.8 85.1 403.9 85 402.8 87.1C401.7 89.2 403 92.2 408.3 95ZM422.3 105.5C422.633 102.5 424.067 100.667 426.6 100C422.4 95.5 419.7 94.8 418.2 96.7C416.7 98.6 417.5 101.8 422.2 105.5H422.3ZM392.3 86.2C392 83.1 392.8 81.2 395 79.7C389.8 76.5 387 76.7 386 78.9C385 81.1 386.8 84 392.4 86.2H392.3ZM376.2 79C375.4 76 375.9 74 377.9 72.2C372.3 69.8 369.5 70.3 368.9 72.7C368.3 75.1 370.4 77.6 376.2 79ZM358.7 73.6C357.6 70.6 357.9 68.6 359.8 66.6C354 64.7 351.3 65.5 350.8 67.9C350.5 70.3 352.8 72.7 358.7 73.6ZM341.4 70.2C340.2 67.4667 340.433 65.1334 342.1 63.2C336.1 61.7 333.5 62.7 333.3 65.2C333 67.6 335.5 69.8 341.4 70.2ZM323.2 68.8C321.6 66.2 321.6 63.8667 323.2 61.8C317.1 60.9 314.5 62.2 314.6 64.6C314.6 67.1 317.3 69 323.2 68.8ZM287.5 71.5C285.367 69.3667 284.767 67.1 285.7 64.7C279.7 65.3 277.5 67.1 278.1 69.5C278.7 71.9 281.8 73.1 287.5 71.5ZM305.1 69.2C303.233 66.8 302.933 64.4667 304.2 62.2C298.1 62 295.7 63.5 296 66C296.3 68.4 299.2 70 305 69.2H305.1ZM270.2 75.2C267.8 73.4 266.9 71.2667 267.5 68.8C261.5 70.3 259.7 72.4 260.6 74.6C261.6 76.9 264.8 77.6 270.2 75.2ZM237.2 90.4C234.467 89.0667 233.167 87.1334 233.3 84.6C227.7 87.2 226.3 89.6 227.7 91.6C229 93.6 232.3 93.8 237.2 90.4ZM253.2 82.3C250.533 80.7 249.467 78.6334 250 76.1C244.1 77.9 242.4 80.1 243.5 82.3C244.6 84.5 247.9 85.1 253.1 82.3H253.2ZM207.6 111.1C204.667 110.433 203 108.767 202.6 106.1C197.6 109.9 196.8 112.5 198.5 114.2C200.2 115.9 203.5 115.4 207.5 111.1H207.6ZM221.7 99.5C218.767 98.5667 217.233 96.8334 217.1 94.3C211.9 97.5 210.8 100.1 212.4 102C214 103.8 217.4 103.5 221.7 99.5ZM195 123.5C192.067 123.033 190.267 121.533 189.6 119C185 123.1 184.4 125.9 186.3 127.4C188.2 129 191.3 128.1 195 123.4V123.5ZM183.7 138C180.567 137.867 178.633 136.6 177.9 134.2C173.7 138.7 173.3 141.4 175.3 142.8C177.3 144.2 180.4 143 183.7 138ZM174.3 153C171.1 153.2 169.3 152.3 167.9 150C164.5 155.1 164.5 158 166.7 159C168.9 160 171.8 158.4 174.3 153ZM166 169C163.133 169.667 160.9 168.933 159.3 166.8C156.6 172.3 157 175.1 159.3 175.8C161.6 176.6 164.3 174.6 166 168.9V169ZM159.4 185.3C156.4 186.4 154.4 186.1 152.4 184.3C150.6 190.1 151.4 192.8 153.9 193.2C156.3 193.5 158.6 191.2 159.4 185.2V185.3ZM154.9 203.5C152.233 204.833 149.9 204.667 147.9 203C146.5 209 147.5 211.5 149.9 211.7C152.4 212 154.6 209.5 154.9 203.5ZM153.1 218.7C150.633 220.1 148.3 220.267 146.1 219.2C145.4 224.1 146.7 226 149.1 225.8C151.5 225.6 153.4 223.4 153.1 218.7ZM460.1 146.5C461.1 143.567 462.867 142.033 465.4 141.9C462.2 136.7 459.7 135.6 457.8 137.1C455.9 138.7 456.2 142.1 460.1 146.5ZM485.3 231.5C487.5 229.3 489.767 228.767 492.1 229.9C491.7 223.8 489.9 221.6 487.5 222.1C485.1 222.6 483.9 225.7 485.3 231.5Z" fill="#FFE300" style="fill:#FFE300;fill:color(display-p3 1.0000 0.8902 0.0000);fill-opacity:1;"/>
<path id="Vector_46" fill-rule="evenodd" clip-rule="evenodd" d="M461.3 132C461.3 132 454.3 138.9 455.6 147.2C456.9 155.5 462.1 165.8 461.1 174.5C460.1 183.2 458.6 188.8 458.6 188.8C458.6 188.8 466.6 179.7 466.6 170.8C466.8 162.1 461.2 150.5 461.2 144.1C461.2 137.7 461.5 131.9 461.3 132.1V132ZM474 160C474 160 468.7 164 469.2 173C469.7 182 479.2 198.8 479.2 198.8C479.2 198.8 486 212.8 485.7 216.5C485.4 220.2 487 213 486.3 205C485.6 197 475.3 179.2 475.3 179.2C475.3 179.2 473.1 175.6 473.3 169.5C473.5 163.4 474.1 160.1 474.1 160H474Z" fill="#217900" stroke="black" style="fill:#217900;fill:color(display-p3 0.1294 0.4745 0.0000);fill-opacity:1;stroke:black;stroke-opacity:1;" stroke-width="1.9" stroke-linejoin="round"/>
<path id="Vector_47" fill-rule="evenodd" clip-rule="evenodd" d="M313 47.4C313 45.6 310.8 44 308.2 44C305.6 44 303.5 45.6 303.5 47.4C303.5 49.2 305.5 50.8 308.2 50.8C310.9 50.8 312.9 49.3 312.9 47.4H313ZM315 55.4C315 53.6 312.8 52.1 310 52.1C307.4 52.1 305.2 53.5 305.2 55.3C305.2 57.1 307.4 58.6 310.1 58.6C312.8 58.6 314.9 57.1 314.9 55.3L315 55.4ZM321 46C321 46 315.4 50.1 317.7 51.8C320 53.5 326.3 48.2 326.3 48.2L321 46ZM484.3 141.4C484.3 140.133 483.833 139.167 482.9 138.5C482.444 138.237 481.926 138.098 481.4 138.098C480.873 138.098 480.356 138.237 479.9 138.5C478.966 139.167 478.5 140.133 478.5 141.4C478.5 143.3 479 143.7 479.9 144.3C480.356 144.563 480.873 144.702 481.4 144.702C481.926 144.702 482.444 144.563 482.9 144.3C483.833 143.633 484.3 142.667 484.3 141.4ZM482.2 133.4C482.2 131.4 480.8 129.9 479.2 129.9C477.6 129.9 476.1 131.5 476.1 133.5C476.1 135.5 477.5 137 479.1 137C480.7 137 482.2 135.4 482.2 133.5V133.4ZM483.7 149.6C483.566 148.467 483.166 147.867 482.5 147.8C481.5 147.7 481.3 148.6 481.3 149.6C481.3 150.6 481.8 151.5 482.5 151.5C483.2 151.5 483.7 150.6 483.7 149.6ZM488.6 135.2C488.466 133.867 488.066 133.167 487.4 133.1C486.666 133.233 486.266 133.9 486.2 135.1C486.1 136.9 486.7 137.3 487.4 137.3C488.1 137.3 488.6 136.3 488.6 135.2ZM475.2 136.6C475.066 135.533 474.666 134.967 474 134.9C473 134.8 472.8 135.7 472.8 136.6C472.8 137.5 473.3 138.4 474 138.4C474.7 138.4 475.2 137.6 475.2 136.6ZM477.3 148C477.3 146.5 476.2 145.3 474.8 145.3C473.4 145.3 472.3 146.5 472.3 148C472.3 149.5 473.3 150.8 474.8 150.8C476.3 150.8 477.3 149.6 477.3 148ZM470.7 143C470.7 141.7 469.7 140.6 468.6 140.6C467.5 140.6 466.4 141.6 466.4 143C466.4 144.4 467.4 145.4 468.6 145.4C469.8 145.333 470.466 144.533 470.6 143H470.7ZM469.7 136.2C469.694 135.854 469.599 135.516 469.424 135.218C469.249 134.92 468.999 134.673 468.7 134.5C468.408 134.342 468.081 134.26 467.75 134.26C467.418 134.26 467.092 134.342 466.8 134.5C466.519 134.685 466.289 134.938 466.132 135.235C465.975 135.532 465.895 135.864 465.9 136.2C465.888 136.563 465.974 136.922 466.15 137.239C466.326 137.556 466.586 137.819 466.9 138C467.179 138.141 467.487 138.214 467.8 138.214C468.112 138.214 468.421 138.141 468.7 138C469.366 137.6 469.7 137 469.7 136.2ZM499.8 170.6C497.1 167 492.7 165.5 490 167.2C487.4 168.9 487.4 173.2 490.2 176.9C492.9 180.5 497.2 182 499.9 180.3C502.6 178.5 502.6 174.3 499.9 170.6H499.8ZM507.6 237.3C508.1 232.8 506 228.9 502.8 228.5C499.6 228.2 496.6 231.5 496 235.9C495.4 240.3 497.7 244.2 500.9 244.6C504.1 245 507.1 241.6 507.6 237.3ZM509.2 276.1C510.2 271.7 508.3 267.6 505.2 266.9C502 266.3 498.7 269.3 497.8 273.7C496.9 278 498.8 282.1 501.8 282.7C505 283.4 508.3 280.4 509.2 276V276.1ZM516.7 239.7C516.7 238 515.5 236.6 514.1 236.6C512.7 236.6 511.4 238 511.4 239.7C511.4 241.4 512.6 242.9 514.1 242.9C515.6 242.9 516.7 241.5 516.7 239.7ZM510.2 247L504.8 253.2C504.8 253.2 499.7 253.3 500 255C500.3 256.7 507 261.6 507 263.6C506.9 265.6 511.4 263.1 511.4 263.1L515.1 252C515.1 252 514.9 244.3 512.9 244.4C510.9 244.5 510.4 246.9 510.2 247ZM152.8 244.6C152.875 244.223 152.865 243.834 152.772 243.461C152.678 243.088 152.504 242.74 152.26 242.443C152.016 242.146 151.709 241.907 151.361 241.742C151.014 241.578 150.634 241.493 150.25 241.493C149.865 241.493 149.486 241.578 149.138 241.742C148.791 241.907 148.484 242.146 148.24 242.443C147.996 242.74 147.821 243.088 147.728 243.461C147.634 243.834 147.625 244.223 147.7 244.6C147.817 245.19 148.135 245.721 148.6 246.102C149.065 246.484 149.648 246.693 150.25 246.693C150.851 246.693 151.434 246.484 151.899 246.102C152.364 245.721 152.682 245.19 152.8 244.6ZM155.3 236.6C155.3 235.2 154.1 234 152.7 234C151.3 234 150.1 235.2 150.1 236.7C150.1 238.2 151.3 239.4 152.7 239.4C153.375 239.312 154.001 238.997 154.473 238.506C154.946 238.015 155.237 237.378 155.3 236.7V236.6ZM134 199.2C133 197 131 195.8 129.5 196.5C128 197.2 127.5 199.5 128.5 201.7C129.5 203.9 131.5 205.1 133 204.4C134.6 203.7 135 201.4 134 199.2ZM140.5 222.6C139.1 219.8 136.4 218.2 134.3 219.1C132.2 220 131.6 223 132.9 225.8C134.2 228.6 136.9 230.2 139.1 229.3C141.3 228.4 141.8 225.4 140.5 222.6ZM147.3 239.8C147.8 236.3 146.3 233 144.1 232.6C141.9 232.2 139.7 234.6 139.2 238.1C138.7 241.6 140.2 244.8 142.5 245.3C144.8 245.8 146.9 243.3 147.3 239.8ZM136.3 242.3C137.7 239 137.2 235.5 135.2 234.5C133.2 233.5 130.4 235.2 129 238.5C127.6 241.8 128.1 245.2 130.2 246.3C132.3 247.4 134.9 245.6 136.3 242.3Z" fill="#6B18B5" style="fill:#6B18B5;fill:color(display-p3 0.4196 0.0941 0.7098);fill-opacity:1;"/>
<path id="Vector_48" fill-rule="evenodd" clip-rule="evenodd" d="M131.3 234.8C131.3 233.1 130 231.8 128.4 231.8C126.8 231.8 125.5 233.2 125.5 234.8C125.5 236.4 126.8 237.8 128.5 237.8C130.2 237.8 131.3 236.5 131.3 234.8ZM129 227.3C129 225.8 127.8 224.6 126.4 224.6C126.045 224.613 125.696 224.696 125.374 224.843C125.051 224.991 124.761 225.201 124.519 225.461C124.278 225.721 124.09 226.026 123.967 226.359C123.843 226.692 123.786 227.045 123.8 227.4C123.8 228.8 125 230.1 126.4 230.1C127.8 230.1 129 228.8 129 227.3ZM131.4 213C131.4 210.4 130.3 208.4 128.9 208.4C127.5 208.4 126.4 210.4 126.4 213C126.4 215.6 127.5 217.6 128.9 217.6C130.3 217.6 131.4 215.6 131.4 213ZM139.2 211.9C139.5 209.4 138.7 207.2 137.2 206.9C135.9 206.8 134.5 208.7 134.2 211.2C133.8 213.7 134.7 215.9 136.1 216.1C137.5 216.3 138.8 214.4 139.1 211.9H139.2ZM194.2 101.9C195.3 98.3 194.2 94.7 191.9 93.9C189.6 93 186.9 95.2 185.9 98.8C184.9 102.4 185.9 106 188.2 106.8C190.5 107.7 193.2 105.5 194.2 101.9ZM183.8 117.8C186.8 115.1 188.2 111.5 186.8 109.7C185.3 107.8 181.6 108.5 178.5 111.1C175.4 113.7 174.2 117.3 175.6 119.1C177.1 121 180.8 120.4 183.8 117.8ZM177.8 109C180.8 106.7 182 103.6 180.6 102C179.2 100.4 175.6 101 172.6 103.2C169.5 105.5 168.2 108.6 169.6 110.2C171 111.8 174.6 111.2 177.7 109H177.8ZM201.3 93.5C203.3 91.9 204.2 89.7 203.3 88.6C202.3 87.6 199.8 87.9 197.7 89.5C195.6 91.1 194.8 93.2 195.8 94.3C196.8 95.4 199.2 95 201.3 93.5Z" fill="#6B18B5" style="fill:#6B18B5;fill:color(display-p3 0.4196 0.0941 0.7098);fill-opacity:1;"/>
<path id="Vector_49" fill-rule="evenodd" clip-rule="evenodd" d="M189 108.5C190.4 106.3 190.5 104 189.2 103.3C187.9 102.6 185.7 103.7 184.3 105.9C182.9 108.1 182.8 110.4 184.1 111.1C185.4 111.8 187.6 110.6 189 108.5ZM206.7 99.2C208.9 97.3 209.7 94.9 208.7 93.7C207.5 92.5 204.7 93.1 202.5 94.9C200.3 96.7 199.5 99.2 200.6 100.4C201.7 101.6 204.5 101 206.7 99.2ZM174.7 120.8C176.7 120.8 178.3 119.7 178.1 118.5C178.1 117.4 176.2 116.5 174.1 116.6C172.1 116.7 170.5 117.8 170.7 118.9C170.8 120.1 172.7 120.9 174.7 120.9V120.8ZM213.4 87.7C214.8 85.5 214.9 83.2 213.6 82.5C212.4 81.8 210.2 82.9 208.8 85.1C207.4 87.3 207.3 89.6 208.6 90.3C209.9 91 212 89.9 213.4 87.7Z" fill="#6B18B5" style="fill:#6B18B5;fill:color(display-p3 0.4196 0.0941 0.7098);fill-opacity:1;"/>
<path id="Vector_50" fill-rule="evenodd" clip-rule="evenodd" d="M446.8 153.4C446.8 153.4 453.2 143.3 450.8 133.7C448.4 124.1 437.8 131 438 134.4C438.2 137.7 444.8 142.3 445.2 144.4C445.6 146.5 444.4 152.7 446.8 153.4Z" fill="#FFD200" stroke="#EF8A10" style="fill:#FFD200;fill:color(display-p3 1.0000 0.8235 0.0000);fill-opacity:1;stroke:#EF8A10;stroke:color(display-p3 0.9373 0.5412 0.0627);stroke-opacity:1;"/>
<path id="Vector_51" fill-rule="evenodd" clip-rule="evenodd" d="M324.9 69.3C324.9 69.3 347.9 70.2 348 85.1C348 87.4 348 90.1 347.2 96.8C351.8 94.3 354.8 87.5 354.2 83.1C354.3 68 333.7 57.6 324.9 69.3Z" fill="#217900" stroke="black" style="fill:#217900;fill:color(display-p3 0.1294 0.4745 0.0000);fill-opacity:1;stroke:black;stroke-opacity:1;" stroke-width="2.3" stroke-linejoin="round"/>
<path id="Vector_52" fill-rule="evenodd" clip-rule="evenodd" d="M310.3 68.6C310.3 68.6 328.8 64.8 329 79.6C329.1 94.6 323 96.9 323 96.9C323 96.9 337.3 93.9 337.4 78.8C337.5 63.7 319.1 56.9 310.3 68.6Z" fill="#217900" stroke="black" style="fill:#217900;fill:color(display-p3 0.1294 0.4745 0.0000);fill-opacity:1;stroke:black;stroke-opacity:1;" stroke-width="2.3" stroke-linejoin="round"/>
<path id="Vector_53" fill-rule="evenodd" clip-rule="evenodd" d="M373.3 390C373.3 390 460.1 365.4 486.3 259C471 368.1 376 403 376 403L373.2 390H373.3Z" fill="#F7DF73" stroke="black" style="fill:#F7DF73;fill:color(display-p3 0.9686 0.8745 0.4510);fill-opacity:1;stroke:black;stroke-opacity:1;" stroke-width="2.5" stroke-linejoin="round"/>
<path id="Vector_54" fill-rule="evenodd" clip-rule="evenodd" d="M382.2 396.6C384.9 396.6 391.5 389.2 395.3 388.4C399.1 387.6 399.5 383.7 395.2 383.6C390.8 383.4 387 388.6 387 388.6C387 388.6 383.2 391.8 379.2 392.2C375.2 392.6 377.8 397.6 382.2 396.6Z" fill="#8C1800" style="fill:#8C1800;fill:color(display-p3 0.5490 0.0941 0.0000);fill-opacity:1;"/>
<path id="Vector_55" fill-rule="evenodd" clip-rule="evenodd" d="M432.2 359.3C432.2 359.3 423.2 364.5 424.4 365.8C425.6 367.1 433.7 360.8 433.9 360.8C434 360.6 437.3 356.6 432.2 359.3Z" fill="#8C1800" stroke="#8C1800" style="fill:#8C1800;fill:color(display-p3 0.5490 0.0941 0.0000);fill-opacity:1;stroke:#8C1800;stroke:color(display-p3 0.5490 0.0941 0.0000);stroke-opacity:1;" stroke-width="2.5"/>
<path id="Vector_56" fill-rule="evenodd" clip-rule="evenodd" d="M400.7 383C400.7 383 398 382 404.9 379.4C411.9 376.7 411.4 373.6 413.7 372.3C415.9 371 420.7 367.6 421.7 369.6C422.7 371.6 416.7 375.6 415.2 376C413.8 376.4 406.9 382.8 404.9 383.3C402.9 383.833 401.5 383.733 400.7 383Z" fill="#8C1800" style="fill:#8C1800;fill:color(display-p3 0.5490 0.0941 0.0000);fill-opacity:1;"/>
<path id="Vector_57" d="M445.6 346C439.6 352.7 439.6 352.5 439.6 352.5" stroke="#8C1800" style="stroke:#8C1800;stroke:color(display-p3 0.5490 0.0941 0.0000);stroke-opacity:1;" stroke-width="3" stroke-linecap="round"/>
<path id="Vector_58" d="M454.5 335.2L448.8 342.1" stroke="#8C1800" style="stroke:#8C1800;stroke:color(display-p3 0.5490 0.0941 0.0000);stroke-opacity:1;" stroke-width="2.8" stroke-linecap="round"/>
<path id="Vector_59" d="M463.4 321L457 331.2" stroke="#8C1800" style="stroke:#8C1800;stroke:color(display-p3 0.5490 0.0941 0.0000);stroke-opacity:1;" stroke-width="2.5" stroke-linecap="round"/>
<path id="Vector_60" d="M470.9 306.6L465.6 317.1M474.2 299.1L472.6 302.7" stroke="#8C1800" style="stroke:#8C1800;stroke:color(display-p3 0.5490 0.0941 0.0000);stroke-opacity:1;" stroke-width="2.3" stroke-linecap="round"/>
<path id="Vector_61" d="M478 289L476.6 293.4" stroke="#8C1800" style="stroke:#8C1800;stroke:color(display-p3 0.5490 0.0941 0.0000);stroke-opacity:1;" stroke-width="1.4" stroke-linecap="round"/>
<path id="Vector_62" fill-rule="evenodd" clip-rule="evenodd" d="M259.458 387.734C259.458 387.734 173.384 362.735 147.562 254.235C162.625 365.626 256.81 400.829 256.81 400.829L259.458 387.734Z" fill="#F7DF73" stroke="black" style="fill:#F7DF73;fill:color(display-p3 0.9686 0.8745 0.4510);fill-opacity:1;stroke:black;stroke-opacity:1;" stroke-width="2.5167" stroke-linejoin="round"/>
<path id="Vector_63" fill-rule="evenodd" clip-rule="evenodd" d="M250.7 394.4C248 394.4 241.5 386.9 237.7 386.1C233.9 385.3 233.5 381.3 237.8 381.1C242.2 381.1 245.9 386.2 245.9 386.2C245.9 386.2 249.7 389.5 253.6 390C257.5 390.5 255 395.4 250.7 394.4Z" fill="#8C1800" style="fill:#8C1800;fill:color(display-p3 0.5490 0.0941 0.0000);fill-opacity:1;"/>
<path id="Vector_64" fill-rule="evenodd" clip-rule="evenodd" d="M201.193 356.442C201.193 356.442 210.131 361.884 208.807 363.245C207.648 364.435 199.703 358.143 199.538 357.973C199.372 357.803 196.227 353.721 201.193 356.442Z" fill="#8C1800" stroke="#8C1800" style="fill:#8C1800;fill:color(display-p3 0.5490 0.0941 0.0000);fill-opacity:1;stroke:#8C1800;stroke:color(display-p3 0.5490 0.0941 0.0000);stroke-opacity:1;" stroke-width="2.5167"/>
<path id="Vector_65" fill-rule="evenodd" clip-rule="evenodd" d="M232.4 380.6C232.4 380.6 235 379.6 228.2 376.9C221.4 374.2 221.7 370.9 219.5 369.7C217.3 368.5 212.5 365 211.5 367C210.5 369 216.5 373 218 373.4C219.4 373.9 226.2 380.4 228.2 380.9C230.2 381.433 231.6 381.333 232.4 380.6Z" fill="#8C1800" style="fill:#8C1800;fill:color(display-p3 0.5490 0.0941 0.0000);fill-opacity:1;"/>
<path id="Vector_66" d="M187.951 343.008L193.744 349.64" stroke="#8C1800" style="stroke:#8C1800;stroke:color(display-p3 0.5490 0.0941 0.0000);stroke-opacity:1;" stroke-width="3.02003" stroke-linecap="round"/>
<path id="Vector_67" d="M179.012 331.954L184.64 338.926" stroke="#8C1800" style="stroke:#8C1800;stroke:color(display-p3 0.5490 0.0941 0.0000);stroke-opacity:1;" stroke-width="2.85225" stroke-linecap="round"/>
<path id="Vector_68" d="M170.239 317.498L176.529 327.872" stroke="#8C1800" style="stroke:#8C1800;stroke:color(display-p3 0.5490 0.0941 0.0000);stroke-opacity:1;" stroke-width="2.5167" stroke-linecap="round"/>
<path id="Vector_69" d="M162.79 302.873L168.087 313.587M159.479 295.05L161.135 298.792" stroke="#8C1800" style="stroke:#8C1800;stroke:color(display-p3 0.5490 0.0941 0.0000);stroke-opacity:1;" stroke-width="2.34892" stroke-linecap="round"/>
<path id="Vector_70" d="M155.672 284.846L157.162 289.438" stroke="#8C1800" style="stroke:#8C1800;stroke:color(display-p3 0.5490 0.0941 0.0000);stroke-opacity:1;" stroke-width="1.34224" stroke-linecap="round"/>
<path id="Vector_71" fill-rule="evenodd" clip-rule="evenodd" d="M490.4 239.3C490.9 246 497.4 252.3 494.8 264C491.6 277.3 480 308.7 482 314.2C478.6 309.5 479.2 305.2 479 298.6C478.6 292.1 488.4 267.7 489.3 259.5C489.3 252.1 490 242 490.4 239.3Z" fill="#217900" stroke="black" style="fill:#217900;fill:color(display-p3 0.1294 0.4745 0.0000);fill-opacity:1;stroke:black;stroke-opacity:1;" stroke-width="2.3" stroke-linejoin="round"/>
<path id="Vector_72" fill-rule="evenodd" clip-rule="evenodd" d="M490.4 239.4C490.4 239.4 501.1 252.9 500.5 263.6C499.9 274.3 494 286.8 496 292.3C492.859 288.247 491.232 283.225 491.4 278.1C491.1 271.6 496.7 264.3 495.5 257.2C494.4 250.2 490.3 239.4 490.5 239.4H490.4ZM141.1 242.4C140.7 249.1 135.7 255.1 138.3 266.7C141.5 280 153.3 296.7 151.3 315.9C154.8 311.2 155.8 305.9 156.1 299.4C156.4 292.9 143.1 270.9 142.3 262.6C142.3 255.2 141.5 245.1 141.1 242.4Z" fill="#217900" stroke="black" style="fill:#217900;fill:color(display-p3 0.1294 0.4745 0.0000);fill-opacity:1;stroke:black;stroke-opacity:1;" stroke-width="2.3" stroke-linejoin="round"/>
<path id="Vector_73" fill-rule="evenodd" clip-rule="evenodd" d="M141.1 242.6C141.1 242.6 130.7 255.6 131.3 266.3C131.4 273.4 144.5 303.1 142.5 308.7C146 304 146.9 304.6 146.8 297.5C143 279.2 136.1 267.6 137.3 260.5C138.5 253.4 141.3 242.5 141.1 242.5V242.6Z" fill="#217900" stroke="black" style="fill:#217900;fill:color(display-p3 0.1294 0.4745 0.0000);fill-opacity:1;stroke:black;stroke-opacity:1;" stroke-width="2.3" stroke-linejoin="round"/>
<path id="Vector_74" d="M318.516 123L344.15 202.476H428.041L360.462 251.653L386.212 331.129L318.633 282.069L251.053 331.129L276.687 251.653L208.991 202.476H292.65L318.516 123Z" fill="white" stroke="black" style="fill:white;fill-opacity:1;stroke:black;stroke-opacity:1;" stroke-width="1.98092" stroke-linecap="square" stroke-linejoin="round"/>
</g>
</g>
</g>
</g>
<defs>
<clipPath id="clip0_2194_6290">
<rect width="640" height="480" fill="white" style="fill:white;fill-opacity:1;"/>
</clipPath>
</defs>
</svg>
