<svg width="640" height="480" viewBox="0 0 640 480" fill="none" xmlns="http://www.w3.org/2000/svg">
<g id="mr" clip-path="url(#clip0_2194_6374)">
<path id="Vector" d="M0 0H640V480H0V0Z" fill="#CD2A3E" style="fill:#CD2A3E;fill:color(display-p3 0.8039 0.1647 0.2431);fill-opacity:1;"/>
<path id="Vector_2" d="M0 72H640V408H0V72Z" fill="#006233" style="fill:#006233;fill:color(display-p3 0.0000 0.3843 0.2000);fill-opacity:1;"/>
<path id="Vector_3" d="M470 154.6C470 194.382 454.197 232.536 426.066 260.666C397.936 288.796 359.783 304.6 320 304.6C280.218 304.6 242.065 288.796 213.934 260.666C185.804 232.536 170 194.382 170 154.6C166.668 167.4 164.987 180.573 165 193.8C165 234.909 181.33 274.333 210.399 303.402C239.467 332.47 278.892 348.8 320 348.8C361.109 348.8 400.533 332.47 429.602 303.402C458.67 274.333 475 234.909 475 193.8C475.024 180.573 473.343 167.398 470 154.6Z" fill="#FFC400" style="fill:#FFC400;fill:color(display-p3 1.0000 0.7686 0.0000);fill-opacity:1;"/>
<path id="Vector_4" d="M320 93.8L306.5 135.3H263L298.3 160.9L284.8 202.3L320.1 176.7L355.4 202.3L341.9 160.9L377.2 135.3H333.6L320 93.8Z" fill="#FFC400" style="fill:#FFC400;fill:color(display-p3 1.0000 0.7686 0.0000);fill-opacity:1;"/>
</g>
<defs>
<clipPath id="clip0_2194_6374">
<rect width="640" height="480" fill="white" style="fill:white;fill-opacity:1;"/>
</clipPath>
</defs>
</svg>
