<svg width="640" height="480" viewBox="0 0 640 480" fill="none" xmlns="http://www.w3.org/2000/svg">
<g id="ms" clip-path="url(#clip0_2194_6379)">
<path id="Vector" d="M0 0H640V480H0V0Z" fill="#012169" style="fill:#012169;fill:color(display-p3 0.0039 0.1294 0.4118);fill-opacity:1;"/>
<path id="Vector_2" d="M384.9 111H590.4L590.1 257.3C591.8 316 555.2 352.5 487.8 369C439.9 357 384.8 332.5 384.6 259L384.9 111Z" fill="white" style="fill:white;fill-opacity:1;"/>
<path id="Vector_3" d="M389.4 115.4H585.8L585.6 255.6C587.2 311.9 552.2 346.8 487.8 362.6C442 351.2 389.3 327.6 389.2 257.2L389.4 115.4Z" fill="#00A2BD" stroke="black" style="fill:#00A2BD;fill:color(display-p3 0.0000 0.6353 0.7412);fill-opacity:1;stroke:black;stroke-opacity:1;" stroke-width="1.8"/>
<path id="Vector_4" d="M584.3 272.2C577.1 325.9 535.7 349.4 487.8 361.9C445.3 350.5 399.6 332.3 390.8 272.4L584.3 272.2Z" fill="#A53D08" style="fill:#A53D08;fill:color(display-p3 0.6471 0.2392 0.0314);fill-opacity:1;"/>
<path id="Vector_5" d="M480 141.5L479.7 123.9L493.7 124L493.8 141.5H532L532.1 155.2L493.8 155.4L493.5 316.8L479.9 316.9L479.7 155.2L441.7 155.4V141.4L480 141.5Z" fill="black" style="fill:black;fill-opacity:1;"/>
<path id="Vector_6" fill-rule="evenodd" clip-rule="evenodd" d="M449 278.8L484 315.1C496.1 301.8 487.7 252.1 471.8 243C469.9 248.9 466.7 256 463.2 258.2C455.7 263.4 437.1 269.4 443.3 273.2C444.7 271.3 448.4 269.5 450.2 273.8C452.2 280.7 442.4 281.1 442.4 281.1C442.4 281.1 436.2 280.3 435.1 274.1C434.1 267.7 444.4 261.9 445.3 261.5C446.1 261.2 459.6 257.5 461.9 245.6C464.8 233.8 467.7 235.6 468.2 235.4C485.9 237.1 497.4 268.7 498.1 290.9C498.8 313.1 489.1 327.9 487.3 328.9C485.6 329.8 445.3 281 445.3 281L449 278.8Z" fill="#FF9A08" stroke="black" style="fill:#FF9A08;fill:color(display-p3 1.0000 0.6039 0.0314);fill-opacity:1;stroke:black;stroke-opacity:1;" stroke-width="0.8"/>
<g id="Vector_7">
<path d="M474.6 245L474.8 310.5ZM470.6 246.3L470.9 305.7ZM466.4 254.9L466.6 302.1ZM462.9 258.2L463.1 297.3ZM459.2 260V293ZM455.2 262.6V288.7ZM451.7 264.7V284.7Z" fill="#FF9A08" style="fill:#FF9A08;fill:color(display-p3 1.0000 0.6039 0.0314);fill-opacity:1;"/>
<path d="M474.6 245L474.8 310.5M470.6 246.3L470.9 305.7M466.4 254.9L466.6 302.1M462.9 258.2L463.1 297.3M459.2 260V293M455.2 262.6V288.7M451.7 264.7V284.7" stroke="black" style="stroke:black;stroke-opacity:1;" stroke-width="0.8"/>
</g>
<g id="Group">
<path id="Vector_8" d="M448.5 283L484.5 324.2" stroke="#FFDF00" style="stroke:#FFDF00;stroke:color(display-p3 1.0000 0.8745 0.0000);stroke-opacity:1;" stroke-width="0.8" stroke-linecap="round"/>
<path id="Vector_9" d="M486.3 257C486.3 257 502.7 292.7 487.5 322M444.3 275.4C444.3 275.4 445.5 272.3 447 273.6M441.5 266.3C441.5 266.3 434.9 272 438.5 275.8" stroke="#FFDF00" style="stroke:#FFDF00;stroke:color(display-p3 1.0000 0.8745 0.0000);stroke-opacity:1;" stroke-width="1.4" stroke-linecap="round"/>
</g>
<path id="Vector_10" d="M494 175.4C496.3 173.4 497.6 172.1 499.1 172.4C500.6 172.7 502.6 172.4 504.1 172C508.036 171.086 512.112 170.95 516.1 171.6C517.1 171.8 518.6 172.3 520.7 174.1C522.8 175.9 525.9 179.1 524.9 187.7C523.9 196.3 524.2 200 523.7 204.9C522.9 213.4 521 220.4 517.7 219.9C522.2 227.9 522.7 234.9 525.7 240.4C528.7 245.9 530.5 257.2 529.4 269.4C528.2 281.7 525 309.1 534.7 327.6C533.1 328.7 529.2 327.6 525.7 323.9C522.2 320.2 520.7 320.3 517.9 322.5C509.1 329.2 500.9 337.3 488.8 329.2C486 327.4 485.2 325.2 487.2 319.5C492.2 305.5 494.7 286.1 493.9 277.1L494 175.4Z" fill="#008021" stroke="black" style="fill:#008021;fill:color(display-p3 0.0000 0.5020 0.1294);fill-opacity:1;stroke:black;stroke-opacity:1;" stroke-width="0.3"/>
<path id="Vector_11" d="M502.3 166.8C503.062 169.009 503.027 171.415 502.2 173.6C501.593 174.935 501.321 176.398 501.408 177.862C501.495 179.326 501.939 180.747 502.7 182C505.4 178 509.3 178.8 511.7 176.6C513.9 174.3 514.4 172.1 516.1 171.6C514.4 170.1 511.8 168.4 512.3 164.1C512.9 159.7 519 156.1 513.5 149.5C512.678 148.443 511.604 147.61 510.376 147.076C509.148 146.543 507.806 146.325 506.473 146.445C505.139 146.564 503.857 147.016 502.744 147.76C501.63 148.503 500.721 149.514 500.1 150.7C499.8 151.5 500.3 153.1 499.4 154.1C498.828 154.889 498.116 155.567 497.3 156.1C496.633 156.5 496.567 157.033 497.1 157.7C497.3 157.967 497.633 158.1 498.1 158.1L497.3 159.6C497.033 159.867 497.1 160.2 497.5 160.6C497 161.9 497.9 162.1 497.3 163.1C496.7 164.1 496.1 165.1 497.9 166.1C498.5 166.4 500.9 166.9 502.3 166.8ZM479.8 189.8C476.6 190.6 471.4 189.2 467.5 189.6C465.7 189.8 464.3 188.9 464.5 187.2C464.7 185.5 465.1 182.8 464.7 180.4C464.753 175.232 466.057 170.154 468.5 165.6C470.477 162.003 471.766 158.069 472.3 154C472.3 152.1 472.5 150.1 474.1 149C475.3 148.3 475.5 147.6 475.9 147C476.9 145.5 477.9 145.2 477.9 146C478.033 146.467 477.867 147 477.4 147.6C478.4 146.8 480.2 145.8 480.6 145.6C481 145.2 483 143.8 483.1 145.2C483.967 144.8 484.5 144.8 484.7 145.2C484.833 145.6 484.733 145.933 484.4 146.2C485 146.2 485.6 147.1 484.4 148C485.1 147.8 485.7 148.8 484.6 149.7C483.6 150.7 482.2 151.3 481.9 152.1C481.6 152.9 478.7 155 477.6 155.4C476.5 155.9 476.4 156.5 476.4 158.1C476.4 175.9 474.4 174.4 474.4 178.8C474.4 179.8 474.1 180.9 475.2 180.6C476.677 180.061 478.229 179.757 479.8 179.7V189.7V189.8ZM480.5 228C485.7 225.4 491.7 224.4 494.8 223.6C498.393 222.453 501.874 220.98 505.2 219.2C507.7 217.9 509.7 216.2 511.1 215.7C512.715 215.134 514.067 213.995 514.9 212.5C518.853 205.864 521.215 198.402 521.8 190.7C521.8 186.7 520.8 182.1 516.8 185.3C512.735 188.831 509.696 193.39 508 198.5C506.4 204.9 505 206.4 504.7 207.6C504.3 208.9 503.1 208.9 501.5 209.2C496.452 210.003 491.736 212.222 487.9 215.6C483.362 218.958 478.62 222.031 473.7 224.8C470 226.9 469.3 227.1 468.5 228.8C467.7 230.467 466.967 231.667 466.3 232.4C465.5 233.2 465.233 234.067 465.5 235C465.6 235.8 465.3 239.2 465.2 240.4C465.1 241.6 465.5 241.8 465.9 241.9C466.3 241.9 466.9 241.7 467.2 240.3C467 241.7 468.9 241.3 469 240.2C469 241.7 471 240.8 471 239.4C471 240.4 472.7 239.7 472.7 239.4C473.033 238.067 473.433 236.933 473.9 236C474.5 234.6 475.2 232.8 476.6 232C478.1 230.8 477.4 229.6 480.5 228ZM517.9 322.5C518.2 323.8 518.9 325.2 519.1 326.1C519.3 327 518.9 327.2 518.7 327.7C517.359 330.488 516.416 333.45 515.9 336.5C515.9 337.7 514.9 338.9 514.6 339.7C514.067 340.5 514.333 341.267 515.4 342C515.8 342.3 517.4 341.8 517.5 341C518.3 341.6 519 341.433 519.6 340.5C520.267 340.967 520.933 340.733 521.6 339.8C522.1 340.1 522.9 339.5 523.2 339C524 339.4 524.8 339 524.8 337.4C524.867 336.933 525.033 336.5 525.3 336.1C525.5 335.633 525.6 335.067 525.6 334.4C525.6 333.7 525.9 332.4 526.5 331.6C527.1 330.6 528 329.1 527.6 327.6C527.2 326.2 526.6 326.3 526.1 324.4C524.8 323 523.1 321.2 521.3 321C519.5 321 518.5 322.1 517.9 322.5ZM485 332.4C486.7 334 490.3 334 492.8 331.4C491.9 331 489.8 330 489 329.4C487.892 330.67 486.529 331.692 485 332.4Z" fill="#FFE1CF" stroke="black" style="fill:#FFE1CF;fill:color(display-p3 1.0000 0.8824 0.8118);fill-opacity:1;stroke:black;stroke-opacity:1;" stroke-width="0.3"/>
<path id="Vector_12" d="M501.4 149C502 145 504.9 145 506.7 145.5C507.5 145.6 509.3 145.8 511.1 145.3C514.5 144.4 517.1 145.6 516.7 148.9C517.7 149.6 518.7 151.2 518.4 152.6C518.2 153.933 518.667 154.633 519.8 154.7C521.1 154.9 523.8 156.5 522 158.7C523.7 159.7 525 162.4 524.1 164.1C523.2 165.8 520.5 166.2 519.3 164.6C518 165.2 516 165.3 514.7 164C513.8 165 511.7 164.9 511.2 164C510.8 163.067 510.167 162.5 509.3 162.3C508.4 162 508.3 159.5 509.7 159.2C509.633 158.333 509.733 157.667 510 157.2C510.267 156.733 510 156.133 509.2 155.4C508.4 154.7 507.7 152.4 508.5 151C507.1 151.5 504.1 150.1 503.5 149.2C502.7 148.267 502 148.2 501.4 149Z" fill="#870F00" stroke="black" style="fill:#870F00;fill:color(display-p3 0.5294 0.0588 0.0000);fill-opacity:1;stroke:black;stroke-opacity:1;" stroke-width="0.3"/>
<g id="Group_2">
<path id="Vector_13" d="M502.3 166.8C504.5 166.5 505.3 165.2 506.9 165.2M497.5 160.5L498 160.8C498.467 161.067 498.933 161.2 499.4 161.2M498.1 158.1L499.1 158.7M503.3 149C502 147.7 505.5 145.2 509.3 148.8C510.1 149.6 511.8 149.6 512.3 149.4M508.5 151C510.3 150.6 512.8 150.6 513.6 152.6C514.4 154.6 515.9 153.2 517.1 155.6C518.3 157.9 520.1 160.4 522.1 158.6M514.7 164C514.415 163.524 514.232 162.993 514.163 162.442C514.094 161.891 514.141 161.332 514.3 160.8C513.6 160 513.9 158.3 514.3 157.5M509.7 159.2C509.7 159.9 510.7 161.2 512.1 161.4M519.3 164.6C518.633 163.667 518.467 162.6 518.8 161.4" stroke="black" style="stroke:black;stroke-opacity:1;" stroke-width="0.3"/>
<path id="Vector_14" d="M510.9 153C510.9 154.1 511.5 155.5 512.5 156C512.8 156.6 513.9 158.2 516.3 158M516.7 149C515.231 147.683 513.435 146.785 511.5 146.4M502.7 182C500.7 184.7 499.5 188.4 500.3 193.6C501.3 198.8 502.7 206.4 499 209.8M517.6 219.9C515 219.2 511.2 219.2 509.1 220.8C507.1 222.3 503.5 222.4 501.2 221.2" stroke="black" style="stroke:black;stroke-opacity:1;" stroke-width="0.3"/>
<path id="Vector_15" d="M512 219.6C509.7 220 508.7 221.7 508.7 226C508.7 230.2 507.7 236.4 508.5 242.6M507.9 221.5C506.3 221.9 504.7 221.9 505.1 226M500 226C500.1 223.6 501 221.2 502.6 221.7M516.7 226.6C516.7 221 515.5 219.5 513.9 219.6C516.1 219.6 517.6 219.9 518.6 228.8C519.2 235.6 520.6 237.8 522.3 243.2C526.4 256.8 524.3 277.7 526.4 285.2M513.5 228.2C519.26 244.154 519.118 261.642 513.1 277.5C517.9 290.9 522.7 300.6 523.6 306.1M499.7 258.1C500.5 255.2 497.5 254.9 500.1 244.8C501.167 240.533 501.367 237.733 500.7 236.4" stroke="black" style="stroke:black;stroke-opacity:1;" stroke-width="0.3"/>
<path id="Vector_16" d="M500.7 242.4C499.7 246.8 504 255.2 501.9 261.4M496.4 262.5C496.4 266.5 497.3 271.5 497.1 275.5C496.9 279.4 498.5 281.2 500.3 284.9C507.1 298.3 511.5 307.8 511 320.4C510.8 322.8 511.6 327.6 509.2 329M496.6 332.4C497.3 332.4 498 332 498.9 330C501.068 322.538 501.881 314.748 501.3 307M502.7 316.6C503.1 319.2 503.1 324.6 501.4 329" stroke="black" style="stroke:black;stroke-opacity:1;" stroke-width="0.3"/>
<path id="Vector_17" d="M507.1 308.7C508.1 314.3 508.1 319.4 507.2 323M504.8 323C505 325.2 506 331 504.3 331.5M513.5 296.2C517.8 302.9 521.1 319.4 524.7 322.8M517.1 320.2C517.1 318.4 517 315.8 515.9 314.6M471 239.4C471.1 238.2 470.9 237 472.3 235M469 240.2C469.2 235.8 469.1 235.4 470.4 234.2M467.2 240.3C467.2 237.1 466.9 236 468.2 234M483.1 145.2L478.6 148.6M484.4 146.2C483.933 146.333 482.267 147.533 479.4 149.8M484.5 148C483.5 148.4 481.9 150 480.3 151.2M477.4 147.7L475.8 149.3M517.5 341C517.3 340.8 517.3 339.7 517.8 338.6M519.7 340.5C519.3 340.2 519.7 338.8 519.9 337.9M521.6 339.8C521.133 339.533 521.133 338.867 521.6 337.8M523.1 339C522.833 339 522.867 338.4 523.2 337.2" stroke="black" style="stroke:black;stroke-opacity:1;" stroke-width="0.3"/>
</g>
<path id="Vector_18" d="M500.5 152.7C501.3 153.7 502.2 153.7 502.3 154.3C502.5 155.1 502.6 155.1 502.7 155.3C502.8 155.5 502.3 155.5 502.1 155.3H500.7C500.3 155.3 499.9 154.8 500.1 154.8C500.367 154.733 500.433 154.6 500.3 154.4C500.3 154.067 500.433 153.833 500.7 153.7L500.6 153.4C500.4 153.1 500.3 152.4 500.5 152.6V152.7ZM501 151.6C502.275 151.756 503.467 152.316 504.4 153.2C505.1 154 504.5 153.8 504.2 153.8C503.9 153.8 503.2 153.6 502.8 153.2C502.266 152.661 501.616 152.251 500.9 152C500.6 152 500.3 151.6 500.9 151.6H501Z" fill="black" style="fill:black;fill-opacity:1;"/>
<path id="Vector_19" d="M0 0H320V240H0V0Z" fill="#012169" style="fill:#012169;fill:color(display-p3 0.0039 0.1294 0.4118);fill-opacity:1;"/>
<path id="Vector_20" d="M37.5 0L159.5 90.5L281 0H320V31L200 120.5L320 209.5V240H280L160 150.5L40.5 240H0V210L119.5 121L0 32V0H37.5Z" fill="white" style="fill:white;fill-opacity:1;"/>
<path id="Vector_21" d="M212 140.5L320 220V240L184.5 140.5H212ZM120 150.5L123 168L27 240H0L120 150.5ZM320 0V1.5L195.5 95.5L196.5 73.5L295 0H320ZM0 0L119.5 88H89.5L0 21V0Z" fill="#C8102E" style="fill:#C8102E;fill:color(display-p3 0.7843 0.0627 0.1804);fill-opacity:1;"/>
<path id="Vector_22" d="M120.5 0V240H200.5V0H120.5ZM0 80V160H320V80H0Z" fill="white" style="fill:white;fill-opacity:1;"/>
<path id="Vector_23" d="M0 96.5V144.5H320V96.5H0ZM136.5 0V240H184.5V0H136.5Z" fill="#C8102E" style="fill:#C8102E;fill:color(display-p3 0.7843 0.0627 0.1804);fill-opacity:1;"/>
</g>
<defs>
<clipPath id="clip0_2194_6379">
<rect width="640" height="480" fill="white" style="fill:white;fill-opacity:1;"/>
</clipPath>
</defs>
</svg>
