<svg width="640" height="480" viewBox="0 0 640 480" fill="none" xmlns="http://www.w3.org/2000/svg">
<g id="mt" clip-path="url(#clip0_2194_6405)">
<path id="Vector" d="M0 0H640V480H0V0Z" fill="white" style="fill:white;fill-opacity:1;"/>
<path id="Vector_2" d="M320 0H640V480H320V0Z" fill="#CF142B" style="fill:#CF142B;fill:color(display-p3 0.8118 0.0784 0.1686);fill-opacity:1;"/>
<g id="Group">
<path id="Vector_3" d="M131.694 55.2303H191.906V112.425C194.191 112.263 196.55 112.639 198.799 113.523C201.048 114.407 203.128 115.777 204.875 117.524C206.623 119.272 207.993 121.352 208.877 123.601C209.761 125.85 210.137 128.209 209.975 130.494H267.17V190.706H209.975C210.137 192.991 209.761 195.349 208.877 197.599C207.993 199.848 206.623 201.928 204.875 203.675C203.128 205.423 201.048 206.793 198.799 207.677C196.55 208.561 194.191 208.937 191.906 208.775V265.97H131.694V208.775C129.409 208.937 127.051 208.561 124.801 207.677C122.552 206.793 120.472 205.423 118.725 203.675C116.977 201.928 115.607 199.848 114.723 197.599C113.839 195.349 113.463 192.991 113.625 190.706H56.4304V130.494H113.625C113.463 128.209 113.839 125.85 114.723 123.601C115.607 121.352 116.977 119.272 118.725 117.524C120.472 115.777 122.552 114.407 124.801 113.523C127.051 112.639 129.409 112.263 131.694 112.425V55.2303Z" stroke="#CF142B" style="stroke:#CF142B;stroke:color(display-p3 0.8118 0.0784 0.1686);stroke-opacity:1;" stroke-width="7.5264"/>
<path id="Vector_4" d="M191.553 112.454C193.886 112.231 196.309 112.574 198.624 113.455C200.94 114.337 203.082 115.731 204.875 117.524C206.669 119.318 208.063 121.46 208.944 123.775C209.826 126.091 210.169 128.514 209.945 130.847V190.353C210.169 192.686 209.826 195.109 208.944 197.424C208.063 199.74 206.669 201.882 204.875 203.675C203.082 205.469 200.94 206.863 198.624 207.744C196.309 208.625 193.886 208.968 191.553 208.745H132.047C129.714 208.968 127.291 208.625 124.975 207.744C122.66 206.863 120.518 205.469 118.725 203.675C116.931 201.882 115.537 199.74 114.656 197.424C113.774 195.109 113.431 192.686 113.655 190.353V130.847C113.431 128.514 113.774 126.091 114.656 123.775C115.537 121.46 116.931 119.318 118.725 117.524C120.518 115.731 122.66 114.337 124.975 113.455C127.291 112.574 129.714 112.231 132.047 112.454H191.553Z" fill="white" style="fill:white;fill-opacity:1;"/>
<path id="Vector_5" d="M132.047 55.5831H191.553V265.617H132.047V55.5831ZM56.7832 130.847H266.817V190.353H56.7832V130.847Z" fill="white" stroke="black" style="fill:white;fill-opacity:1;stroke:black;stroke-opacity:1;" stroke-width="0.7056"/>
<path id="Vector_6" d="M135.458 58.9935H188.142V262.206H135.458V58.9935ZM60.1936 134.258H263.406V186.942H60.1936V134.258Z" fill="white" stroke="black" style="fill:white;fill-opacity:1;stroke:black;stroke-opacity:1;" stroke-width="1.4112"/>
<path id="Vector_7" d="M161.8 207.64C187.779 207.64 208.84 186.579 208.84 160.6C208.84 134.62 187.779 113.56 161.8 113.56C135.821 113.56 114.76 134.62 114.76 160.6C114.76 186.579 135.821 207.64 161.8 207.64Z" fill="white" stroke="black" style="fill:white;fill-opacity:1;stroke:black;stroke-opacity:1;" stroke-width="1.4112"/>
<path id="Vector_8" d="M161.8 195.409C181.025 195.409 196.61 179.825 196.61 160.6C196.61 141.375 181.025 125.79 161.8 125.79C142.575 125.79 126.99 141.375 126.99 160.6C126.99 179.825 142.575 195.409 161.8 195.409Z" fill="white" stroke="black" style="fill:white;fill-opacity:1;stroke:black;stroke-opacity:1;" stroke-width="1.4112"/>
<g id="mt-a">
<path id="Vector_9" d="M207.135 122.894C205.503 124.144 202.401 127.334 200.52 129.671L198.77 128.583C201.167 126.511 204.489 123.438 206.326 121.248L207.135 122.894ZM205.65 120.175C202.695 121.042 197.051 122.703 194.64 124.232L194.111 123.468C195.125 122.012 196.271 116.03 196.227 114.324L198.065 114.736C197.462 116.206 196.874 119.352 196.712 121.395C198.609 121.057 203.107 119.587 204.386 118.661L205.65 120.175Z" fill="white" stroke="black" style="fill:white;fill-opacity:1;stroke:black;stroke-opacity:1;" stroke-width="0.7056" stroke-linejoin="round"/>
<path id="Vector_10" d="M209.44 126.909H207.108C207.317 125.678 206.982 124.136 206.159 122.533C205.336 120.93 204.072 119.36 202.573 118.077C201.073 116.795 199.426 115.874 197.898 115.466C196.369 115.057 195.05 115.184 194.152 115.826C193.255 116.467 192.833 117.587 192.954 119.002C193.075 120.417 193.732 122.045 194.82 123.623C195.907 125.2 197.36 126.635 198.944 127.694C200.528 128.752 202.15 129.374 203.547 129.457L205.195 127.491L207.225 129.521L204.953 131.791C202.835 131.476 200.751 130.715 198.841 129.56C196.931 128.404 195.241 126.881 193.883 125.093C192.526 123.306 191.533 121.295 190.973 119.196C190.412 117.098 190.297 114.961 190.634 112.931C192.637 112.598 194.744 112.706 196.815 113.247C198.887 113.788 200.876 114.751 202.652 116.071C204.429 117.392 205.952 119.04 207.122 120.908C208.292 122.776 209.082 124.821 209.44 126.909Z" fill="white" stroke="black" style="fill:white;fill-opacity:1;stroke:black;stroke-opacity:1;" stroke-width="0.7056" stroke-linejoin="round"/>
</g>
<g id="mt-a_2">
<path id="Vector_11" d="M199.505 205.935C198.256 204.303 195.066 201.201 192.729 199.32L193.816 197.57C195.889 199.967 198.961 203.289 201.152 205.126L199.505 205.935ZM202.225 204.45C201.358 201.495 199.696 195.851 198.168 193.44L198.932 192.911C200.387 193.925 206.37 195.071 208.075 195.027L207.664 196.865C206.194 196.262 203.048 195.674 201.005 195.512C201.343 197.409 202.813 201.907 203.739 203.186L202.225 204.45Z" fill="white" stroke="black" style="fill:white;fill-opacity:1;stroke:black;stroke-opacity:1;" stroke-width="0.7056" stroke-linejoin="round"/>
<path id="Vector_12" d="M195.491 208.24V205.908C196.722 206.117 198.264 205.782 199.867 204.959C201.47 204.136 203.04 202.872 204.322 201.373C205.605 199.873 206.525 198.226 206.934 196.697C207.343 195.169 207.216 193.849 206.574 192.952C205.933 192.055 204.813 191.632 203.398 191.754C201.983 191.875 200.355 192.532 198.777 193.619C197.2 194.707 195.765 196.16 194.706 197.744C193.648 199.328 193.026 200.95 192.943 202.346L194.909 203.994L192.879 206.024L190.609 203.753C190.924 201.635 191.685 199.551 192.84 197.641C193.996 195.731 195.519 194.041 197.307 192.683C199.094 191.326 201.105 190.333 203.204 189.773C205.302 189.212 207.438 189.097 209.469 189.434C209.802 191.437 209.694 193.544 209.153 195.615C208.611 197.686 207.649 199.676 206.329 201.452C205.008 203.229 203.36 204.752 201.492 205.922C199.624 207.092 197.579 207.882 195.491 208.24Z" fill="white" stroke="black" style="fill:white;fill-opacity:1;stroke:black;stroke-opacity:1;" stroke-width="0.7056" stroke-linejoin="round"/>
</g>
<g id="mt-a_3">
<path id="Vector_13" d="M116.465 198.306C118.097 197.056 121.198 193.866 123.08 191.529L124.829 192.617C122.433 194.689 119.111 197.762 117.274 199.952L116.465 198.306ZM117.95 201.025C120.904 200.158 126.549 198.497 128.96 196.968L129.489 197.732C128.475 199.188 127.328 205.17 127.372 206.876L125.535 206.464C126.138 204.994 126.726 201.848 126.887 199.805C124.991 200.143 120.493 201.613 119.214 202.539L117.95 201.025Z" fill="white" stroke="black" style="fill:white;fill-opacity:1;stroke:black;stroke-opacity:1;" stroke-width="0.7056" stroke-linejoin="round"/>
<path id="Vector_14" d="M114.16 194.291H116.492C116.283 195.522 116.618 197.064 117.441 198.667C118.264 200.27 119.528 201.84 121.027 203.123C122.527 204.405 124.174 205.326 125.703 205.734C127.231 206.143 128.551 206.016 129.448 205.374C130.345 204.733 130.768 203.613 130.646 202.198C130.525 200.783 129.868 199.155 128.781 197.577C127.693 196 126.24 194.565 124.656 193.506C123.072 192.448 121.45 191.826 120.053 191.743L118.406 193.709L116.376 191.679L118.647 189.409C120.765 189.724 122.849 190.485 124.759 191.64C126.669 192.796 128.359 194.319 129.717 196.107C131.074 197.894 132.067 199.905 132.627 202.004C133.188 204.102 133.303 206.238 132.966 208.269C130.963 208.602 128.856 208.494 126.785 207.953C124.714 207.412 122.724 206.449 120.948 205.129C119.171 203.808 117.648 202.16 116.478 200.292C115.308 198.424 114.518 196.379 114.16 194.291Z" fill="white" stroke="black" style="fill:white;fill-opacity:1;stroke:black;stroke-opacity:1;" stroke-width="0.7056" stroke-linejoin="round"/>
</g>
<g id="mt-a_4">
<path id="Vector_15" d="M124.095 115.265C125.344 116.897 128.534 119.999 130.871 121.88L129.783 123.629C127.711 121.233 124.638 117.911 122.448 116.074L124.095 115.265ZM121.375 116.75C122.242 119.705 123.903 125.349 125.432 127.76L124.668 128.289C123.213 127.275 117.23 126.128 115.524 126.173L115.936 124.335C117.406 124.938 120.552 125.526 122.595 125.687C122.257 123.791 120.787 119.293 119.861 118.014L121.375 116.75Z" fill="white" stroke="black" style="fill:white;fill-opacity:1;stroke:black;stroke-opacity:1;" stroke-width="0.7056" stroke-linejoin="round"/>
<path id="Vector_16" d="M128.109 112.96V115.292C126.878 115.083 125.336 115.418 123.733 116.241C122.13 117.064 120.56 118.328 119.277 119.827C117.995 121.327 117.074 122.974 116.666 124.502C116.257 126.031 116.384 127.351 117.026 128.248C117.667 129.145 118.786 129.567 120.202 129.446C121.617 129.325 123.245 128.668 124.823 127.58C126.4 126.493 127.835 125.04 128.894 123.456C129.952 121.872 130.574 120.25 130.657 118.853L128.691 117.206L130.721 115.175L132.991 117.447C132.676 119.565 131.915 121.649 130.76 123.559C129.604 125.469 128.081 127.159 126.293 128.517C124.505 129.874 122.494 130.867 120.396 131.427C118.298 131.988 116.161 132.103 114.131 131.766C113.798 129.763 113.906 127.656 114.447 125.585C114.988 123.513 115.951 121.524 117.271 119.748C118.592 117.971 120.24 116.448 122.108 115.278C123.976 114.108 126.021 113.318 128.109 112.96Z" fill="white" stroke="black" style="fill:white;fill-opacity:1;stroke:black;stroke-opacity:1;" stroke-width="0.7056" stroke-linejoin="round"/>
</g>
</g>
<g id="Group_2">
<path id="Vector_17" d="M124.447 186.913C123.389 185.061 121.992 182.694 121.228 182.077C121.698 181.753 122.33 181.283 122.654 181.195C122.639 182.371 124.418 184.811 124.418 184.811L127.034 183.091C126.299 181.959 125.653 181.092 125.123 180.754C125.77 180.283 126.461 179.886 126.652 179.842C126.667 180.416 127.005 181.371 128.005 182.547C128.005 182.547 130.445 181.253 131.239 180.254L132.268 181.93C131.121 182.15 125.976 185.355 124.447 186.913ZM120.816 164.613C118.067 165.113 116.671 167.45 117.141 170.081C117.612 172.742 119.993 174.565 122.61 174.124C125.226 173.668 126.711 171.257 126.211 168.464C125.711 165.671 123.565 164.113 120.816 164.613ZM121.213 166.201C123.418 165.804 125.27 166.877 125.579 168.582C125.888 170.287 124.521 171.978 122.301 172.375C120.081 172.772 118.317 171.36 118.067 169.934C117.803 168.479 118.994 166.598 121.213 166.201ZM126.593 150.031C125.682 151.471 123.668 152.794 121.889 154.014C121.64 152.75 120.699 151.942 119.611 151.868C118.45 151.809 117.259 152.735 117.053 153.353C116.759 154.205 116.392 157.866 116.392 157.866C118.685 157.689 123.698 158.086 125.417 158.718L125.623 156.778C124.491 157.072 121.934 156.543 121.934 156.543L121.992 155.69L124.638 153.603C124.976 153.338 126.961 151.486 127.02 150.163C127.034 149.751 126.682 149.854 126.593 150.031ZM121.287 156.513C120.243 156.543 118.067 156.425 117.465 156.161C117.7 154.058 118.347 153.309 119.464 153.412C120.493 153.515 121.581 154.103 121.287 156.513ZM131.312 130.465C129.313 130.627 126.814 132.508 126.873 134.125C126.887 134.978 127.181 136.154 128.313 137.006C129.431 137.859 130.592 138.109 131.518 137.933C132.415 137.771 133.899 136.521 133.885 135.83C133.885 135.154 132.297 133.273 131.297 133.273L132.959 131.494C133.385 132.523 135.09 134.022 135.722 134.213C135.002 135.933 134.105 137.727 132.224 138.594C130.342 139.476 128.387 139.432 126.608 137.756C124.932 136.169 125.579 133.111 126.638 131.92C127.799 130.612 129.96 130.053 130.004 129.039L131.312 130.465ZM140.691 120.572L141.044 127.246C141.044 127.246 141.176 129.612 140.632 131.082L142.705 129.627C141.896 128.98 142.058 126.996 142.058 126.996L145.409 125.202C145.409 125.202 146.997 126.217 146.835 127.451L149.687 126.29C148.026 125.658 145.968 124.203 145.968 124.203L140.691 120.572ZM141.764 122.645L144.821 124.673L141.837 126.275L141.764 122.645ZM156.728 115.677C156.346 117.308 156.758 120.528 157.361 123.203C159.433 123.012 161.021 122.806 161.726 121.924L161.918 124.129C159.874 124.129 157.625 124.364 155.567 124.688C155.597 121.674 155.288 117.72 154.435 116.015L156.728 115.677ZM172.296 116.662C171.34 118.043 170.546 121.189 170.135 123.894C172.134 124.482 173.692 124.864 174.677 124.291L174.045 126.422C172.149 125.687 169.958 125.07 167.93 124.614C169.047 121.836 170.208 118.029 170.047 116.147L172.296 116.662ZM188.039 123.791L182.218 127.099C182.218 127.099 180.16 128.289 178.602 128.466L180.822 129.642C181.042 128.642 182.894 127.892 182.894 127.892L186.011 130.083C186.011 130.083 185.805 131.979 184.629 132.376L186.937 134.405C186.775 132.641 187.143 130.127 187.143 130.127L188.039 123.791ZM186.658 125.673L186.202 129.333L183.424 127.378L186.658 125.673ZM191.126 139.373L190.215 137.653C191.714 137.536 196.227 134.89 198.3 133.537L198.623 134.125L196.683 142.989C198.418 142.298 201.167 140.858 201.916 140.064L202.945 142.019C201.02 141.74 197.447 143.504 194.743 145.15L194.478 144.68L196.139 136.051C196.139 136.051 191.656 138.08 191.126 139.373ZM204.797 152.192C204.621 150.883 204.592 149.987 203.96 149.693L203.886 149.149L205.488 148.884C206.15 150.604 206.9 155.396 206.797 156.631L205.15 156.896L205.077 156.44C205.621 155.822 205.077 153.559 205.077 153.559C202.637 153.809 198.388 154.499 197.786 155.337L197.403 153.074C198.271 153.368 202.548 152.912 204.797 152.192ZM196.904 171.654C197.815 170.214 199.858 168.905 201.637 167.7C201.887 168.964 202.813 169.787 203.915 169.846C205.077 169.92 206.267 169.023 206.473 168.391C206.782 167.538 207.164 163.893 207.164 163.893C204.871 164.04 199.873 163.613 198.153 162.967L197.933 164.907C199.064 164.628 201.622 165.157 201.622 165.157L201.563 166.01L198.903 168.082C198.55 168.347 196.551 170.184 196.477 171.507C196.463 171.919 196.815 171.801 196.904 171.654ZM202.269 165.201C203.313 165.186 205.488 165.319 206.091 165.583C205.841 167.685 205.18 168.435 204.062 168.317C203.033 168.2 201.96 167.612 202.269 165.201ZM193.949 177.49L192.582 179.842C193.64 179.681 195.11 180.518 196.301 181.298C196.698 182.356 198.256 185.061 198.138 187.707L199.902 184.679C199.123 184.326 198.212 183.944 197.624 181.106C199.946 180.239 201.681 179.96 202.416 180.371L203.974 177.725C202.166 178.813 197.918 179.93 197.212 179.695C196.477 179.269 194.39 178.622 193.949 177.49Z" fill="black" style="fill:black;fill-opacity:1;"/>
<path id="Vector_18" d="M183.483 197.144C184.497 197.144 185.32 196.321 185.32 195.307C185.32 194.292 184.497 193.469 183.483 193.469C182.468 193.469 181.645 194.292 181.645 195.307C181.645 196.321 182.468 197.144 183.483 197.144Z" fill="black" style="fill:black;fill-opacity:1;"/>
<path id="Vector_19" d="M140.117 197.144C141.132 197.144 141.955 196.321 141.955 195.307C141.955 194.292 141.132 193.469 140.117 193.469C139.102 193.469 138.28 194.292 138.28 195.307C138.28 196.321 139.102 197.144 140.117 197.144Z" fill="black" style="fill:black;fill-opacity:1;"/>
</g>
<g id="Group_3">
<path id="Vector_20" d="M164.667 205.44C164.475 205.572 163.961 205.307 163.843 204.896C163.843 205.028 163.814 205.44 163.564 205.675C162.961 206.248 162.315 205.969 161.8 205.969C161.286 205.969 160.639 206.248 160.036 205.675C159.786 205.44 159.757 205.028 159.757 204.896C159.639 205.307 159.125 205.572 158.934 205.44C158.757 205.307 158.845 204.734 159.198 204.499C159.081 204.528 158.669 204.631 158.375 204.469C157.64 204.072 157.713 203.367 157.552 202.882C157.39 202.397 156.92 201.867 157.287 201.118C157.434 200.809 157.816 200.647 157.934 200.603C157.508 200.618 157.111 200.206 157.17 200.001C157.243 199.78 157.816 199.692 158.154 199.956C158.066 199.854 157.86 199.501 157.919 199.163C158.066 198.339 158.757 198.192 159.169 197.884C159.595 197.575 159.948 196.972 160.771 197.09C161.109 197.134 161.374 197.443 161.462 197.546C161.315 197.149 161.58 196.634 161.8 196.634C162.021 196.634 162.285 197.149 162.138 197.546C162.226 197.443 162.491 197.134 162.829 197.09C163.652 196.972 164.005 197.575 164.431 197.884C164.843 198.192 165.534 198.339 165.681 199.163C165.74 199.501 165.534 199.854 165.446 199.956C165.784 199.692 166.357 199.78 166.431 200.001C166.489 200.206 166.092 200.618 165.666 200.603C165.784 200.647 166.166 200.809 166.313 201.118C166.68 201.867 166.21 202.397 166.048 202.882C165.887 203.367 165.96 204.072 165.225 204.469C164.931 204.631 164.52 204.528 164.402 204.499C164.755 204.734 164.843 205.307 164.667 205.44ZM160.433 203.382C160.668 203.558 160.036 204.087 160.286 204.749C160.565 205.528 161.344 205.293 161.8 205.293C162.256 205.293 163.035 205.528 163.314 204.749C163.564 204.087 162.932 203.558 163.167 203.382C163.402 203.205 163.726 203.97 164.417 203.955C165.255 203.911 165.269 203.117 165.402 202.676C165.549 202.235 166.019 201.573 165.357 201.059C164.814 200.618 164.093 201.059 164.005 200.78C163.917 200.5 164.74 200.442 164.946 199.765C165.166 198.957 164.402 198.707 164.034 198.428C163.652 198.163 163.167 197.516 162.476 197.972C161.903 198.369 162.094 199.177 161.8 199.177C161.506 199.177 161.697 198.369 161.124 197.972C160.433 197.516 159.948 198.163 159.566 198.428C159.198 198.707 158.434 198.957 158.654 199.765C158.86 200.442 159.683 200.5 159.595 200.78C159.507 201.059 158.787 200.618 158.243 201.059C157.581 201.573 158.052 202.235 158.199 202.676C158.331 203.117 158.346 203.911 159.183 203.955C159.874 203.97 160.198 203.205 160.433 203.382Z" fill="black" style="fill:black;fill-opacity:1;"/>
<path id="Vector_21" d="M161.8 204.425C161.668 204.425 161.506 204.117 161.594 203.867C161.55 203.94 161.389 204.117 161.183 204.146C160.683 204.22 160.477 203.852 160.227 203.676C159.977 203.485 159.566 203.396 159.478 202.911C159.433 202.705 159.566 202.485 159.61 202.426C159.404 202.588 159.066 202.529 159.022 202.397C158.978 202.279 159.228 202.029 159.478 202.029C159.404 202.015 159.184 201.912 159.095 201.735C158.875 201.28 159.154 200.971 159.257 200.677C159.345 200.383 159.301 199.957 159.742 199.721C159.919 199.618 160.168 199.677 160.242 199.707C160.021 199.56 159.977 199.222 160.08 199.133C160.198 199.06 160.507 199.222 160.58 199.457C160.58 199.383 160.595 199.133 160.742 199.001C161.109 198.648 161.491 198.825 161.8 198.825C162.109 198.825 162.491 198.648 162.859 199.001C163.006 199.133 163.02 199.383 163.02 199.457C163.094 199.222 163.402 199.06 163.52 199.133C163.623 199.222 163.579 199.56 163.358 199.707C163.432 199.677 163.682 199.618 163.858 199.721C164.299 199.957 164.255 200.383 164.343 200.677C164.446 200.971 164.725 201.28 164.505 201.735C164.417 201.912 164.196 202.015 164.123 202.029C164.373 202.029 164.623 202.279 164.578 202.397C164.534 202.529 164.196 202.588 163.99 202.426C164.035 202.485 164.167 202.705 164.123 202.911C164.035 203.396 163.623 203.485 163.373 203.676C163.123 203.852 162.917 204.22 162.418 204.146C162.212 204.117 162.05 203.94 162.006 203.867C162.094 204.117 161.932 204.425 161.8 204.425ZM161.8 202.75C161.962 202.75 161.859 203.191 162.168 203.396C162.535 203.646 162.8 203.308 163.006 203.161C163.211 203.014 163.623 202.867 163.491 202.441C163.388 202.073 162.947 202.044 162.991 201.882C163.035 201.735 163.417 201.97 163.726 201.735C164.079 201.456 163.829 201.103 163.755 200.868C163.667 200.633 163.667 200.192 163.211 200.177C162.829 200.162 162.667 200.574 162.535 200.486C162.403 200.398 162.756 200.104 162.623 199.751C162.462 199.324 162.05 199.457 161.8 199.457C161.55 199.457 161.139 199.324 160.977 199.751C160.845 200.104 161.197 200.398 161.065 200.486C160.933 200.574 160.771 200.162 160.389 200.177C159.933 200.192 159.933 200.633 159.845 200.868C159.772 201.103 159.522 201.456 159.874 201.735C160.183 201.97 160.565 201.735 160.609 201.882C160.654 202.044 160.213 202.073 160.11 202.441C159.977 202.867 160.389 203.014 160.595 203.161C160.801 203.308 161.065 203.646 161.433 203.396C161.741 203.191 161.638 202.75 161.8 202.75Z" fill="black" style="fill:black;fill-opacity:1;"/>
<path id="Vector_22" d="M161.8 202.206C162.19 202.206 162.506 201.89 162.506 201.5C162.506 201.11 162.19 200.794 161.8 200.794C161.41 200.794 161.094 201.11 161.094 201.5C161.094 201.89 161.41 202.206 161.8 202.206Z" fill="black" style="fill:black;fill-opacity:1;"/>
</g>
<g id="Group_4">
<path id="Vector_23" d="M137.9 185.8C153.893 185.147 169.907 185.147 185.9 185.8" stroke="black" style="stroke:black;stroke-opacity:1;" stroke-width="0.7" stroke-linecap="round" stroke-linejoin="round"/>
<path id="Vector_24" d="M160 143.3L161.3 144.8M163.3 164C163.233 165.333 163.3 166.4 163.5 167.2M160.3 164.2C160.7 164.7 161.3 166.5 161.3 167.2" stroke="black" style="stroke:black;stroke-opacity:1;" stroke-width="0.4" stroke-linecap="round" stroke-linejoin="round"/>
<path id="Vector_25" d="M170.2 185.6C169.6 185.8 168.6 186.4 168.6 186.9C168.6 187.4 169.8 187.5 170.2 187.6C169.5 187.8 167.5 188.2 166.6 187.8C166 188.1 161.4 187.1 160.4 187.1C159.8 187.1 159 186.5 159.1 185.4C159.1 185.2 159.3 184.6 159.8 184.4C159.5 183.8 160.9 182.9 162.3 182C160.3 182.3 157.6 181.5 156.9 180.7C155.3 180.1 154.6 180.7 153.9 182.1C153.9 184.5 152.6 185.7 150.9 185.5C149.9 185.3 149.6 185.8 149.3 186L152.6 187C154.8 189 153.6 190.6 153.1 191C152.6 191.4 151.4 191.1 150.7 191.1C149.9 191.1 149.9 191.4 149.7 191.5C149.033 191.833 148.6 191.9 148.4 191.7C148.4 191.4 148.7 190 149.6 189.8C150.1 189.8 151.1 189.5 151.1 189C151.1 188.5 149.3 188.6 147.9 188.1C146.8 187.7 146.4 187.1 146.8 185.2C147.1 183.2 149.5 182.9 150.7 182.9C150.5 182.1 150.7 180.6 151.7 179.6C153.3 178.1 155.7 178.6 157.8 178.8C159 178.1 161.2 177.1 163.4 177C165.4 177 174 174.7 177.9 175.2C176.9 173.9 177.2 170.8 178.8 169.9C180.8 168.7 183 171.9 183.6 171.3C184.2 170.7 182.9 169.9 181.4 168.3C181 167.7 181.1 167.7 181.1 167.5C181.1 166.967 181.2 166.567 181.4 166.3C181.6 166.2 182.8 166.6 183.1 167.1C183.567 167.767 184 167.933 184.4 167.6C184.9 167.2 184.2 167.4 183.9 166.6C183.8 166.1 183.4 165.7 183.5 165.3C184.151 164.617 184.933 164.073 185.8 163.7C186.133 164.167 186.433 164.6 186.7 165C187.4 166.1 188.1 165.8 188.6 166.6C188.6 167 188.767 167.567 189.1 168.3C189.942 169.778 191.146 171.017 192.6 171.9C192.933 172.1 193.133 172.333 193.2 172.6C193.2 173.067 193.067 173.4 192.8 173.6C192.6 173.8 191.8 173.8 191.2 173.5C190.267 172.967 189.567 172.733 189.1 172.8C187.7 173 186.8 175.2 184.8 175.2C183 175 181.8 172.3 180.7 173.1C179.6 173.9 183.2 176.1 182.7 177.1C183.1 177.3 183.6 178.1 183.4 178.8C184.199 178.639 184.958 178.316 185.628 177.852C186.299 177.387 186.868 176.791 187.3 176.1C188.3 174.767 189.033 174.033 189.5 173.9C190.1 173.6 190.8 173.9 190.8 174.4L191.7 174.7C192.1 175.033 192.167 175.367 191.9 175.7L191.3 175.3C190.967 175.3 190.567 175.5 190.1 175.9C189.767 176.433 189.367 177 188.9 177.6L186.9 179.8C187.1 180.333 187.167 180.833 187.1 181.3C187.3 181.3 187.533 181.367 187.8 181.5C187.933 181.567 187.933 181.8 187.8 182.2C187.8 182.7 185.8 184.9 185.4 184.8C184.6 184.8 184 183.8 184.1 183.5C183.2 183.9 182.8 182.9 182.8 182.5C182.169 183.136 181.423 183.645 180.6 184C180.2 184.2 179.933 184.067 179.8 183.6C179.7 184 178.5 184.4 178.2 184.5C176.7 184.8 175.1 185.5 173.6 185.5L169.8 185.4L170.2 185.6Z" fill="white" stroke="black" style="fill:white;fill-opacity:1;stroke:black;stroke-opacity:1;" stroke-width="0.5" stroke-linecap="round" stroke-linejoin="round"/>
<path id="Vector_26" d="M175.5 171.4C175.5 172 174.6 173.4 175.9 174.6C176.7 175.2 178 175.7 178.4 176.6C178.8 177.3 178.3 177.9 178.1 177.9C177.3 177.7 176.2 179.1 175.8 180.1C175.4 178.7 174.5 179.1 173.3 179.3C173.5 177.767 172.633 176.9 170.7 176.7C171 176.4 170.5 176 170.1 175.6C169.7 175.2 168.3 175.5 168.1 175.2C168.1 174.9 168.8 174.2 168.4 173.7C168 173 166.4 173.4 165.8 173.2C166 172.533 165.933 171.867 165.6 171.2C165.1 170.2 163.4 170.7 162.5 170.5C163.233 169.967 163.433 169.267 163.1 168.4C162.7 167.4 160.7 168.5 160.7 167.4C160.8 166.9 163.1 166.6 164 166.5C164.9 166.4 167.7 167.2 170.5 167.8C171.1 168.4 175.5 169.7 175.5 171.4Z" fill="white" stroke="black" style="fill:white;fill-opacity:1;stroke:black;stroke-opacity:1;" stroke-width="0.3" stroke-linecap="round" stroke-linejoin="round"/>
<path id="Vector_27" d="M182.8 182.6C184.278 181.841 185.655 180.9 186.9 179.8M161.3 178.8C162.5 178.8 165.2 179.2 166 180.2C166.7 181.2 167.2 182.9 161.9 184.2C163.5 184.2 165.9 183.9 166.7 184.1C167.5 183.9 169.2 183.4 169.9 183.6C169.6 183.7 168.7 184 168.7 184.6C168.7 184.933 169.067 185.2 169.8 185.4M174.9 181.8C176.8 182.2 179.5 181.6 179.9 183.6" stroke="black" style="stroke:black;stroke-opacity:1;" stroke-width="0.5" stroke-linecap="round" stroke-linejoin="round"/>
<path id="Vector_28" d="M181.2 166.8C181.7 167.4 183.2 168.3 183.9 168.8C184.9 169.6 185.3 168.7 184.6 167.4" stroke="black" style="stroke:black;stroke-opacity:1;" stroke-width="0.4" stroke-linecap="round" stroke-linejoin="round"/>
<path id="Vector_29" d="M168.1 175.2C170.104 174.759 172.148 174.524 174.2 174.5M165.8 173.2C168.8 172.4 172 172.7 174 172.7M173.5 179.1L176.1 176.6M170.7 176.6C171.7 176.3 173.3 175.6 174.7 175.4M170.5 167.8C172.1 166.3 173.9 166.5 175.7 165.6C176.7 165 177.7 163.6 178.7 162.5C179.1 162.033 179.767 161.8 180.7 161.8C182.167 162 182.133 162.233 180.6 162.5C179.4 162.7 179.3 163.2 178.9 164.1C178.5 164.9 178.9 165.8 179.1 166.4L178.3 168.6C178.3 168.867 178.467 169.233 178.8 169.7M162.5 170.5C166.5 169.6 172.5 171.2 173.6 171.2" stroke="black" style="stroke:black;stroke-opacity:1;" stroke-width="0.3" stroke-linecap="round" stroke-linejoin="round"/>
<path id="Vector_30" d="M187.7 177C189 176.3 189 175 190.7 174.4M184.1 183.5C185.8 182.7 186.1 182 187.1 181.3M188.3 170.6C187.5 170.8 187.3 170.1 186.6 170C185.7 169.8 185.2 170.4 185.2 170.9C185.2 171.4 185.7 171.9 186.2 171.9C186.7 171.9 187.2 171.6 188.3 171.7M184.5 164.5C185.167 164.633 185.733 164.567 186.2 164.3M188 167.6C187.733 167.6 187.467 167.5 187.2 167.3C186.933 166.9 186.9 166.633 187.1 166.5C187.167 166.3 187.4 166.367 187.8 166.7C188.4 167.2 188.1 167.4 188 167.6Z" stroke="black" style="stroke:black;stroke-opacity:1;" stroke-width="0.2" stroke-linecap="round" stroke-linejoin="round"/>
<g id="Vector_31">
<path d="M162.7 150.7C162.658 150.681 162.616 150.641 162.579 150.586C162.541 150.53 162.51 150.462 162.489 150.388C162.468 150.314 162.458 150.238 162.46 150.169C162.462 150.101 162.476 150.042 162.5 150C162.459 149.983 162.417 149.945 162.379 149.89C162.342 149.836 162.311 149.768 162.29 149.694C162.269 149.62 162.259 149.544 162.26 149.474C162.262 149.404 162.276 149.343 162.3 149.3C162.259 149.285 162.217 149.248 162.18 149.195C162.143 149.142 162.112 149.074 162.09 149C162.069 148.926 162.059 148.849 162.061 148.778C162.062 148.707 162.076 148.645 162.1 148.6C162.062 148.567 162.028 148.516 161.999 148.454C161.971 148.392 161.951 148.322 161.941 148.249C161.93 148.177 161.931 148.106 161.941 148.045C161.951 147.983 161.972 147.933 162 147.9C161.959 147.892 161.917 147.862 161.88 147.812C161.842 147.762 161.811 147.696 161.789 147.621C161.768 147.546 161.758 147.466 161.76 147.391C161.761 147.316 161.776 147.25 161.8 147.2C161.763 147.171 161.73 147.125 161.702 147.066C161.675 147.007 161.655 146.938 161.645 146.866C161.634 146.794 161.634 146.722 161.644 146.657C161.654 146.593 161.673 146.538 161.7 146.5C161.674 146.503 161.647 146.497 161.62 146.48C161.593 146.463 161.567 146.436 161.544 146.401C161.497 146.331 161.463 146.232 161.45 146.126C161.437 146.02 161.445 145.916 161.473 145.836C161.502 145.756 161.547 145.707 161.6 145.7C161.564 145.677 161.53 145.635 161.503 145.579C161.475 145.523 161.456 145.455 161.445 145.383C161.435 145.311 161.435 145.237 161.444 145.169C161.454 145.102 161.473 145.043 161.5 145C161.463 144.981 161.429 144.942 161.402 144.888C161.374 144.834 161.354 144.767 161.343 144.695C161.333 144.622 161.333 144.547 161.343 144.477C161.353 144.407 161.373 144.346 161.4 144.3C161.347 144.297 161.296 144.252 161.259 144.175C161.221 144.098 161.2 143.996 161.2 143.89C161.2 143.783 161.221 143.683 161.259 143.61C161.296 143.537 161.347 143.497 161.4 143.5C161.361 143.492 161.325 143.461 161.296 143.411C161.266 143.362 161.245 143.296 161.234 143.222C161.224 143.147 161.224 143.068 161.236 142.993C161.248 142.918 161.27 142.851 161.3 142.8C161.273 142.806 161.247 142.801 161.222 142.786C161.198 142.771 161.175 142.746 161.157 142.712C161.119 142.645 161.097 142.548 161.097 142.442C161.097 142.336 161.119 142.23 161.157 142.147C161.195 142.064 161.246 142.011 161.3 142C161.245 142.017 161.193 141.99 161.154 141.927C161.115 141.864 161.094 141.768 161.094 141.662C161.094 141.556 161.115 141.448 161.154 141.361C161.193 141.275 161.245 141.217 161.3 141.2C161.273 141.163 161.253 141.11 161.243 141.047C161.233 140.983 161.234 140.912 161.244 140.84C161.254 140.768 161.274 140.698 161.302 140.638C161.329 140.578 161.363 140.531 161.4 140.5C161.348 140.481 161.309 140.421 161.291 140.332C161.273 140.244 161.278 140.135 161.305 140.029C161.331 139.922 161.377 139.828 161.433 139.767C161.488 139.705 161.548 139.681 161.6 139.7C161.568 139.675 161.545 139.632 161.532 139.574C161.52 139.516 161.519 139.446 161.529 139.373C161.54 139.3 161.561 139.226 161.592 139.16C161.622 139.094 161.659 139.038 161.7 139C161.642 139 161.598 138.958 161.576 138.883C161.554 138.808 161.556 138.707 161.583 138.601C161.609 138.495 161.657 138.393 161.717 138.318C161.777 138.242 161.842 138.2 161.9 138.2C161.873 138.16 161.861 138.099 161.865 138.026C161.87 137.953 161.89 137.872 161.923 137.794C161.956 137.716 162.001 137.646 162.051 137.593C162.101 137.54 162.153 137.508 162.2 137.5C162.168 137.469 162.152 137.415 162.153 137.346C162.154 137.277 162.173 137.198 162.207 137.119C162.241 137.041 162.287 136.967 162.34 136.91C162.393 136.852 162.449 136.814 162.5 136.8C162.458 136.781 162.433 136.735 162.429 136.67C162.424 136.605 162.441 136.525 162.476 136.443C162.511 136.361 162.563 136.282 162.622 136.22C162.681 136.158 162.744 136.115 162.8 136.1C162.755 136.066 162.737 135.996 162.752 135.906C162.767 135.816 162.812 135.713 162.879 135.62C162.945 135.527 163.026 135.452 163.106 135.411C163.185 135.369 163.255 135.366 163.3 135.4C163.245 135.377 163.219 135.318 163.227 135.236C163.235 135.154 163.276 135.056 163.343 134.963C163.409 134.871 163.495 134.791 163.58 134.741C163.666 134.692 163.745 134.677 163.8 134.7C163.765 134.668 163.754 134.613 163.77 134.544C163.787 134.475 163.829 134.397 163.889 134.325C163.95 134.253 164.024 134.19 164.1 134.149C164.175 134.108 164.246 134.09 164.3 134.1C164.233 134.078 164.201 134.02 164.21 133.938C164.219 133.857 164.269 133.759 164.349 133.666C164.428 133.573 164.531 133.493 164.635 133.443C164.738 133.393 164.833 133.378 164.9 133.4" fill="white" style="fill:white;fill-opacity:1;"/>
<path d="M162.7 150.7C162.658 150.681 162.616 150.641 162.579 150.586C162.541 150.53 162.51 150.462 162.489 150.388C162.468 150.314 162.458 150.238 162.46 150.169C162.462 150.101 162.476 150.042 162.5 150C162.459 149.983 162.417 149.945 162.379 149.89C162.342 149.836 162.311 149.768 162.29 149.694C162.269 149.62 162.259 149.544 162.26 149.474C162.262 149.404 162.276 149.343 162.3 149.3C162.259 149.285 162.217 149.248 162.18 149.195C162.143 149.142 162.112 149.074 162.09 149C162.069 148.926 162.059 148.849 162.061 148.778C162.062 148.707 162.076 148.645 162.1 148.6C162.062 148.567 162.028 148.516 161.999 148.454C161.971 148.392 161.951 148.322 161.941 148.249C161.93 148.177 161.931 148.106 161.941 148.045C161.951 147.983 161.972 147.933 162 147.9C161.959 147.892 161.917 147.862 161.88 147.812C161.842 147.762 161.811 147.696 161.789 147.621C161.768 147.546 161.758 147.466 161.76 147.391C161.761 147.316 161.776 147.25 161.8 147.2C161.763 147.171 161.73 147.125 161.702 147.066C161.675 147.007 161.655 146.938 161.645 146.866C161.634 146.794 161.634 146.722 161.644 146.657C161.654 146.593 161.673 146.538 161.7 146.5C161.674 146.503 161.647 146.497 161.62 146.48C161.593 146.463 161.567 146.436 161.544 146.401C161.497 146.331 161.463 146.232 161.45 146.126C161.437 146.02 161.445 145.916 161.473 145.836C161.502 145.756 161.547 145.707 161.6 145.7C161.564 145.677 161.53 145.635 161.503 145.579C161.475 145.523 161.456 145.455 161.445 145.383C161.435 145.311 161.435 145.237 161.444 145.169C161.454 145.102 161.473 145.043 161.5 145C161.463 144.981 161.429 144.942 161.402 144.888C161.374 144.834 161.354 144.767 161.343 144.695C161.333 144.622 161.333 144.547 161.343 144.477C161.353 144.407 161.373 144.346 161.4 144.3C161.347 144.297 161.296 144.252 161.259 144.175C161.221 144.098 161.2 143.996 161.2 143.89C161.2 143.783 161.221 143.683 161.259 143.61C161.296 143.537 161.347 143.497 161.4 143.5C161.361 143.492 161.325 143.461 161.296 143.411C161.266 143.362 161.245 143.296 161.234 143.222C161.224 143.147 161.224 143.068 161.236 142.993C161.248 142.918 161.27 142.851 161.3 142.8C161.273 142.806 161.247 142.801 161.222 142.786C161.198 142.771 161.175 142.746 161.157 142.712C161.119 142.645 161.097 142.548 161.097 142.442C161.097 142.336 161.119 142.23 161.157 142.147C161.195 142.064 161.246 142.011 161.3 142C161.245 142.017 161.193 141.99 161.154 141.927C161.115 141.864 161.094 141.768 161.094 141.662C161.094 141.556 161.115 141.448 161.154 141.361C161.193 141.275 161.245 141.217 161.3 141.2C161.273 141.163 161.253 141.11 161.243 141.047C161.233 140.983 161.234 140.912 161.244 140.84C161.254 140.768 161.274 140.698 161.302 140.638C161.329 140.578 161.363 140.531 161.4 140.5C161.348 140.481 161.309 140.421 161.291 140.332C161.273 140.244 161.278 140.135 161.305 140.029C161.331 139.922 161.377 139.828 161.433 139.767C161.488 139.705 161.548 139.681 161.6 139.7C161.568 139.675 161.545 139.632 161.532 139.574C161.52 139.516 161.519 139.446 161.529 139.373C161.54 139.3 161.561 139.226 161.592 139.16C161.622 139.094 161.659 139.038 161.7 139C161.642 139 161.598 138.958 161.576 138.883C161.554 138.808 161.556 138.707 161.583 138.601C161.609 138.495 161.657 138.393 161.717 138.318C161.777 138.242 161.842 138.2 161.9 138.2C161.873 138.16 161.861 138.099 161.865 138.026C161.87 137.953 161.89 137.872 161.923 137.794C161.956 137.716 162.001 137.646 162.051 137.593C162.101 137.54 162.153 137.508 162.2 137.5C162.168 137.469 162.152 137.415 162.153 137.346C162.154 137.277 162.173 137.198 162.207 137.119C162.241 137.041 162.287 136.967 162.34 136.91C162.393 136.852 162.449 136.814 162.5 136.8C162.458 136.781 162.433 136.735 162.429 136.67C162.424 136.605 162.441 136.525 162.476 136.443C162.511 136.361 162.563 136.282 162.622 136.22C162.681 136.158 162.744 136.115 162.8 136.1C162.755 136.066 162.737 135.996 162.752 135.906C162.767 135.816 162.812 135.713 162.879 135.62C162.945 135.527 163.026 135.452 163.106 135.411C163.185 135.369 163.255 135.366 163.3 135.4C163.245 135.377 163.219 135.318 163.227 135.236C163.235 135.154 163.276 135.056 163.343 134.963C163.409 134.871 163.495 134.791 163.58 134.741C163.666 134.692 163.745 134.677 163.8 134.7C163.765 134.668 163.754 134.613 163.77 134.544C163.787 134.475 163.829 134.397 163.889 134.325C163.95 134.253 164.024 134.19 164.1 134.149C164.175 134.108 164.246 134.09 164.3 134.1C164.233 134.078 164.201 134.02 164.21 133.938C164.219 133.857 164.269 133.759 164.349 133.666C164.428 133.573 164.531 133.493 164.635 133.443C164.738 133.393 164.833 133.378 164.9 133.4" stroke="black" style="stroke:black;stroke-opacity:1;" stroke-width="0.1" stroke-linecap="round" stroke-linejoin="round"/>
</g>
<path id="Vector_32" d="M163.6 150.4L162.7 150.7M163.4 149.7L162.5 150M163.3 149L162.3 149.3M163.2 148.3L162.2 148.6M163.1 147.7L162 147.9M163 146.9L161.8 147.2M162.8 146.2L161.7 146.5M162.8 145.5L161.6 145.7M162.8 144.9H161.4M162.8 144.2H161.4M162.8 143.5H161.3M162.8 142.8H161.3M162.9 142.1L161.3 142M163 141.4L161.4 141.2M163.1 140.8L161.4 140.5M163.3 140.1L161.6 139.7M163.5 139.5L161.7 139M163.7 138.8L161.9 138.2M163.9 138.2L162.2 137.5M164.2 137.7L162.5 136.7M164.6 137.1L162.8 136.1M165 136.6L163.3 135.4M165.4 136.1L163.8 134.7M165.9 135.7L164.3 134.1M166.4 135.1L164.9 133.4" stroke="black" style="stroke:black;stroke-opacity:1;" stroke-width="0.1" stroke-linecap="round" stroke-linejoin="round"/>
<g id="Vector_33">
<path d="M173 140.7L170.5 141C170.3 141.5 170.3 142.9 170.3 143.4C172.6 145.7 174.9 148.6 175.1 151.3C175.842 151.898 176.397 152.696 176.7 153.6C178.4 152.7 180.1 151.3 181.5 150.9C182.5 150.7 184.1 150.6 185 151.1L190.6 154.5C191.8 155.3 192.667 156.167 193.2 157.1C193.7 157.9 193.8 159.4 193.6 159.8L190.2 158.8C190.067 158.267 190.167 157.7 190.5 157.1C190.7 156.5 190.7 156.5 190.2 156.1C189.8 155.9 189.467 155.9 189.2 156.1C188.733 156.1 188.333 155.9 188 155.5C186.593 154.59 185.082 153.851 183.5 153.3C182.833 153.167 182.1 153.367 181.3 153.9C180.9 154.5 179.7 156.3 178.8 157.2C178.6 157.4 178.567 157.667 178.7 158L182.3 158.1C183.7 158.3 185.3 159.7 186.1 160.6C189.6 163.8 190.9 165.6 192 166.6C192.6 167.067 192.933 167.667 193 168.4H189.6C189.6 167.2 189.467 166.267 189.2 165.6C188.8 165.1 188.1 165.3 187.8 165.3C187.467 165.233 187.133 164.9 186.8 164.3C186.3 163.3 184.5 162 183.7 161.5C182.9 161 182.6 161.2 181.7 161.1C181.033 160.9 180.2 160.9 179.2 161.1C178.3 161.4 175.8 162.2 173.5 162.5C172.7 162.9 170.2 163.3 167.5 163.9C165.5 164.3 161 165.1 160.1 165.1C159.8 167.2 157.5 170.3 156.9 170.6C156.233 171.6 156.167 172.267 156.7 172.6C157.2 173.1 160.6 173.1 161.4 173.1L164.3 173.2C164.8 173.3 165.6 174 166.5 174.5C167.1 174.8 167.2 175.2 167.6 175.8C167.933 176.2 168.2 176.6 168.4 177H164.4C164.333 175.933 164 175.367 163.4 175.3C162.8 175.7 162.1 176.2 161.3 175.9C158.2 175.7 156.2 175.9 153.3 175.6C152.4 175.6 151.7 174.4 152 173.3C152.267 172.367 152.267 171.5 152 170.7C151.7 171 150.5 172.1 149.9 172.9C148.9 174 149.5 175.2 149.9 175.9C150.4 176.4 153.8 179.6 154.2 180.5C154.5 181.1 155.9 182.1 157.2 183.2C157.667 184.067 158.267 184.767 159 185.3H154L154.2 184C154.2 183.7 153.9 183.1 153.2 183.2C152.5 183.3 152 182.5 151.8 181.9C151.6 181.3 149.3 178.3 148.6 177.7L145.6 174.8C145.2 174.7 145.1 174 145.6 173.5C146.473 172.353 147.149 171.069 147.6 169.7C147.9 168.8 147.6 168.7 147.4 168.5C145.211 166.888 143.374 164.846 142 162.5C140.666 162.792 139.276 162.688 138 162.2C136.867 161.533 135.9 161.667 135.1 162.6C134.7 163.3 134.7 164.4 135.4 164.9C136.4 165.767 137.5 166.9 138.7 168.3C139.7 169.6 138.8 170.6 137.4 171.8C137.6 172.3 137.4 172.2 137.6 173.1C138.1 173.8 138.1 175.5 137.5 175.8C136.833 176.133 136.167 176.667 135.5 177.4C134.7 178.3 134.5 177.4 134.7 176C134.9 175.1 134.2 174.4 133.6 173.7C133 173 133.3 171.1 133.6 170.5C134.1 169.9 134.4 168.8 133.6 167.9C132.7 167.1 131.1 165.3 131.3 162.9C131.336 162.3 131.515 161.717 131.82 161.199C132.126 160.681 132.549 160.244 133.057 159.921C133.565 159.599 134.141 159.402 134.74 159.346C135.338 159.29 135.942 159.377 136.5 159.6C139.5 160.9 141.2 160.6 142.1 160.4C142.9 158.933 144.167 157.667 145.9 156.6C147.6 155.6 150.9 154.3 154.2 153.8L162.3 150.8C163.4 150.6 163.3 149.6 163.3 149C162.3 143.5 162.5 137.7 167 134.8C167.5 134.3 167.3 133.1 168 132.2L169.3 134.4C171.3 135.1 174.7 136.3 176.1 137C176.767 137.2 177.333 137.367 177.8 137.5C178.267 137.633 178.6 137.967 178.8 138.5C179 139.167 178.867 139.667 178.4 140C178.1 140.1 176.5 139.6 176.1 140C176.1 140.333 176.567 140.667 177.5 141C177.8 141.2 177.2 142 176.8 142C176.467 142 176.167 141.9 175.9 141.7C174.9 141.5 173.9 141.167 172.9 140.7" fill="white" style="fill:white;fill-opacity:1;"/>
<path d="M173 140.7L170.5 141C170.3 141.5 170.3 142.9 170.3 143.4C172.6 145.7 174.9 148.6 175.1 151.3C175.842 151.898 176.397 152.696 176.7 153.6C178.4 152.7 180.1 151.3 181.5 150.9C182.5 150.7 184.1 150.6 185 151.1L190.6 154.5C191.8 155.3 192.667 156.167 193.2 157.1C193.7 157.9 193.8 159.4 193.6 159.8L190.2 158.8C190.067 158.267 190.167 157.7 190.5 157.1C190.7 156.5 190.7 156.5 190.2 156.1C189.8 155.9 189.467 155.9 189.2 156.1C188.733 156.1 188.333 155.9 188 155.5C186.593 154.59 185.082 153.851 183.5 153.3C182.833 153.167 182.1 153.367 181.3 153.9C180.9 154.5 179.7 156.3 178.8 157.2C178.6 157.4 178.567 157.667 178.7 158L182.3 158.1C183.7 158.3 185.3 159.7 186.1 160.6C189.6 163.8 190.9 165.6 192 166.6C192.6 167.067 192.933 167.667 193 168.4H189.6C189.6 167.2 189.467 166.267 189.2 165.6C188.8 165.1 188.1 165.3 187.8 165.3C187.467 165.233 187.133 164.9 186.8 164.3C186.3 163.3 184.5 162 183.7 161.5C182.9 161 182.6 161.2 181.7 161.1C181.033 160.9 180.2 160.9 179.2 161.1C178.3 161.4 175.8 162.2 173.5 162.5C172.7 162.9 170.2 163.3 167.5 163.9C165.5 164.3 161 165.1 160.1 165.1C159.8 167.2 157.5 170.3 156.9 170.6C156.233 171.6 156.167 172.267 156.7 172.6C157.2 173.1 160.6 173.1 161.4 173.1L164.3 173.2C164.8 173.3 165.6 174 166.5 174.5C167.1 174.8 167.2 175.2 167.6 175.8C167.933 176.2 168.2 176.6 168.4 177H164.4C164.333 175.933 164 175.367 163.4 175.3C162.8 175.7 162.1 176.2 161.3 175.9C158.2 175.7 156.2 175.9 153.3 175.6C152.4 175.6 151.7 174.4 152 173.3C152.267 172.367 152.267 171.5 152 170.7C151.7 171 150.5 172.1 149.9 172.9C148.9 174 149.5 175.2 149.9 175.9C150.4 176.4 153.8 179.6 154.2 180.5C154.5 181.1 155.9 182.1 157.2 183.2C157.667 184.067 158.267 184.767 159 185.3H154L154.2 184C154.2 183.7 153.9 183.1 153.2 183.2C152.5 183.3 152 182.5 151.8 181.9C151.6 181.3 149.3 178.3 148.6 177.7L145.6 174.8C145.2 174.7 145.1 174 145.6 173.5C146.473 172.353 147.149 171.069 147.6 169.7C147.9 168.8 147.6 168.7 147.4 168.5C145.211 166.888 143.374 164.846 142 162.5C140.666 162.792 139.276 162.688 138 162.2C136.867 161.533 135.9 161.667 135.1 162.6C134.7 163.3 134.7 164.4 135.4 164.9C136.4 165.767 137.5 166.9 138.7 168.3C139.7 169.6 138.8 170.6 137.4 171.8C137.6 172.3 137.4 172.2 137.6 173.1C138.1 173.8 138.1 175.5 137.5 175.8C136.833 176.133 136.167 176.667 135.5 177.4C134.7 178.3 134.5 177.4 134.7 176C134.9 175.1 134.2 174.4 133.6 173.7C133 173 133.3 171.1 133.6 170.5C134.1 169.9 134.4 168.8 133.6 167.9C132.7 167.1 131.1 165.3 131.3 162.9C131.336 162.3 131.515 161.717 131.82 161.199C132.126 160.681 132.549 160.244 133.057 159.921C133.565 159.599 134.141 159.402 134.74 159.346C135.338 159.29 135.942 159.377 136.5 159.6C139.5 160.9 141.2 160.6 142.1 160.4C142.9 158.933 144.167 157.667 145.9 156.6C147.6 155.6 150.9 154.3 154.2 153.8L162.3 150.8C163.4 150.6 163.3 149.6 163.3 149C162.3 143.5 162.5 137.7 167 134.8C167.5 134.3 167.3 133.1 168 132.2L169.3 134.4C171.3 135.1 174.7 136.3 176.1 137C176.767 137.2 177.333 137.367 177.8 137.5C178.267 137.633 178.6 137.967 178.8 138.5C179 139.167 178.867 139.667 178.4 140C178.1 140.1 176.5 139.6 176.1 140C176.1 140.333 176.567 140.667 177.5 141C177.8 141.2 177.2 142 176.8 142C176.467 142 176.167 141.9 175.9 141.7C174.9 141.5 173.9 141.167 172.9 140.7" stroke="black" style="stroke:black;stroke-opacity:1;" stroke-width="0.5" stroke-linecap="round" stroke-linejoin="round"/>
</g>
<path id="Vector_34" d="M167.3 137.1C167.3 140.5 168.4 142.2 170.3 143.4M176.7 153.6C176.969 154.92 176.969 156.28 176.7 157.6M152 170.6C154.5 169.5 156.8 166.6 156.7 164.8C156.7 163.8 155.8 162.3 153.6 162.2M156.6 164.8C157.4 165.1 158.9 164.9 160.1 165.1M172.7 156.8C174.7 156.9 177.3 158.1 178.7 158M171.7 160.8C173.5 161.2 173.5 162 177 161.8M171 149.6C172.9 149.6 174 150.6 175 151.3" stroke="black" style="stroke:black;stroke-opacity:1;" stroke-width="0.5" stroke-linecap="round" stroke-linejoin="round"/>
<path id="Vector_35" d="M156.3 166.4C157.7 166.533 158.7 166.067 159.3 165M167.3 137.1C167.3 139.9 168.3 140.6 170.5 141" stroke="black" style="stroke:black;stroke-opacity:1;" stroke-width="0.3" stroke-linecap="round" stroke-linejoin="round"/>
<path id="Vector_36" d="M178 137.6C177.9 138.3 177.8 138.9 179 138.8M172.9 135.7C172 137.9 176.5 138.2 176.6 139.7M151.6 154.4C153.8 155.4 153.6 159.7 153.6 162.2" stroke="black" style="stroke:black;stroke-opacity:1;" stroke-width="0.2" stroke-linecap="round" stroke-linejoin="round"/>
<g id="Vector_37">
<path d="M175.6 139.7C174.9 141.1 173.3 143.2 171.8 144.3C169.467 146.033 166.767 147.267 163.7 148C163.233 148.2 162.7 148.233 162.1 148.1C161.433 148.1 160.867 147.633 160.4 146.7C160.2 146.3 160.3 144.1 161.1 143.8C161.864 143.504 162.681 143.368 163.5 143.4C164.1 143.4 164.433 143.667 164.5 144.2C164.433 144.733 164.1 144.967 163.5 144.9C162.9 144.7 162 144.3 161.5 144.7C161.1 144.9 160.8 145.9 161.1 146.4C161.433 147.067 161.8 147.4 162.2 147.4L163.5 147.3C166.433 146.5 169.033 145.3 171.3 143.7C172.8 142.7 174.3 140.3 174.9 139.3L175.6 139.7ZM163.6 144C162.7 143.8 161.2 144 161.1 144.4C161.767 144.067 162.6 144.067 163.6 144.4C163.933 144.333 163.933 144.2 163.6 144ZM169.6 136.5L169.9 135.8C170 135.7 169.7 134.1 171.3 134.9C173 135.9 171.7 136.6 171.6 136.7L171.2 137.4" fill="white" style="fill:white;fill-opacity:1;"/>
<path d="M169.6 136.5L169.9 135.8C170 135.7 169.7 134.1 171.3 134.9C173 135.9 171.7 136.6 171.6 136.7L171.2 137.4M175.6 139.7C174.9 141.1 173.3 143.2 171.8 144.3C169.467 146.033 166.767 147.267 163.7 148C163.233 148.2 162.7 148.233 162.1 148.1C161.433 148.1 160.867 147.633 160.4 146.7C160.2 146.3 160.3 144.1 161.1 143.8C161.864 143.504 162.681 143.368 163.5 143.4C164.1 143.4 164.433 143.667 164.5 144.2C164.433 144.733 164.1 144.967 163.5 144.9C162.9 144.7 162 144.3 161.5 144.7C161.1 144.9 160.8 145.9 161.1 146.4C161.433 147.067 161.8 147.4 162.2 147.4L163.5 147.3C166.433 146.5 169.033 145.3 171.3 143.7C172.8 142.7 174.3 140.3 174.9 139.3L175.6 139.7ZM163.6 144C162.7 143.8 161.2 144 161.1 144.4C161.767 144.067 162.6 144.067 163.6 144.4C163.933 144.333 163.933 144.2 163.6 144Z" stroke="black" style="stroke:black;stroke-opacity:1;" stroke-width="0.2" stroke-linecap="round" stroke-linejoin="round"/>
</g>
<path id="Vector_38" d="M166.7 135L176.2 140" stroke="black" style="stroke:black;stroke-opacity:1;" stroke-width="0.4" stroke-linecap="round" stroke-linejoin="round"/>
<g id="Group_5">
<path id="Vector_39" d="M154.7 135.4C152.555 135.479 150.407 135.311 148.3 134.9C147.5 134.8 145.2 138.1 144 138.3C142.8 138.6 141.6 135.9 139.9 136.5C139 137.2 139.9 140.5 139.4 140.8C138.9 141.3 137.4 139.2 136.4 139.8C135.4 140.6 137.2 144.9 136.7 145.4C136.2 145.9 134.1 143.5 133.4 144C132.7 144.5 134.1 151.2 133.4 151.5C132.8 151.9 129.7 149.7 129.4 150.6C128.9 151.6 133.7 153.7 135 153.8L136.3 153.3C136.7 153.5 140.5 153.8 140.9 153.8L143 151.6C146.3 147.3 150 143.3 154.7 143.6V135.4Z" fill="white" stroke="black" style="fill:white;fill-opacity:1;stroke:black;stroke-opacity:1;" stroke-width="0.3" stroke-linecap="round" stroke-linejoin="round"/>
<path id="Vector_40" d="M140.2 136.5L146.5 136.2M136.4 139.8L139.4 138.8M133.4 143.8L136.3 142.6M129.3 150.6L133.3 147M136.3 153.2C138 150.2 141.3 147 144.2 145.3M133.5 151.5C135.9 148.6 142.6 143.9 144.8 143.5M139.4 140.8C142.2 139.6 146.2 139.4 149.4 139.1M143.9 138.3C144.3 138.3 149.1 137.7 151.2 137.8M136.7 145.5C140.3 143.3 144.133 141.533 148.2 140.2" stroke="black" style="stroke:black;stroke-opacity:1;" stroke-width="0.3" stroke-linecap="round" stroke-linejoin="round"/>
</g>
<path id="Vector_41" d="M168.2 191.2C168.5 191.3 168.8 192 168.8 192C168.8 192 168.2 192.3 168 192.2L138.5 183.4C137.7 183.2 138 181.8 138.9 182.1L168.2 191.2ZM140.2 150.2C139.933 149.467 139.533 149.033 139 148.9C138.8 148.9 138.1 149.6 138.2 149.8C138.2 150.2 139.1 150.8 139.4 150.8L140.2 150.2ZM142.9 151.2L140.4 153.7C140.1 154 140.7 154.5 141 154.2L143.5 151.8C143.8 151.5 143.2 150.9 142.9 151.2ZM141.7 153.6L149.4 161.5L150.9 161.7L150.7 160.1L142.7 152.5L141.7 153.6Z" fill="white" stroke="black" style="fill:white;fill-opacity:1;stroke:black;stroke-opacity:1;" stroke-width="0.4" stroke-linecap="round" stroke-linejoin="round"/>
<path id="Vector_42" d="M149.8 160.6L142.2 153" stroke="black" style="stroke:black;stroke-opacity:1;" stroke-width="0.1" stroke-linecap="round" stroke-linejoin="round"/>
<path id="Vector_43" d="M160 138.6C160 138.133 160.167 137.8 160.5 137.6C161 137.3 160.8 137.5 161.1 137.6L161.9 138.1C162.1 138.233 162.233 138.233 162.3 138.1C162.3 137.833 162.4 137.567 162.6 137.3L162.8 137.1C163 137.1 163.067 137 163 136.8C162.933 136.6 163.033 136.467 163.3 136.4C163.5 136.4 163.9 136.7 163.9 136.4L164.2 134.8C164.8 134.9 164.6 134.2 164.8 134.2C165.4 134.4 165.7 133.4 165.3 133C165.367 132.267 165.933 131.933 167 132C166.9 131.5 166.1 131.3 165.6 130.6C165.1 129.9 163.6 129 161.8 129C160 129 158.7 130.6 158 131.3C157.3 132 156 132.3 155.7 132.3C155.367 132.1 155.033 131.967 154.7 131.9H153C152.4 131.9 152.2 132.3 151.5 132.2C151.1 132.2 149.5 132.2 149 132.4C148.5 132.6 149 133.6 149.5 133.7C149.7 133.7 151 133.7 151.5 134C152 134.3 153.5 134.4 154.1 134.1C155.4 133.7 156.2 134.5 157.6 134.9L158.1 135C158.167 135.8 158.033 136.167 157.7 136.1H156.5L155.2 135.5C154.6 135.5 154.2 135.567 154 135.7C152.3 136.4 146.3 141.1 145.7 142.2C145 143.4 144 144.1 143.1 145.9C142.6 146.9 141.6 148.1 141 149.7C140 150.2 138.9 151.1 138.7 151.4C138.7 151.667 138.833 151.867 139.1 152C139.1 152.2 139.3 152.367 139.7 152.5C139.633 152.767 139.767 152.9 140.1 152.9C140.1 153.233 140.267 153.467 140.6 153.6L143 151.1C143.133 149.967 143.467 149.033 144 148.3C145.251 146.751 146.387 145.114 147.4 143.4C147.7 143 150.6 141.9 151.4 141.2C151.146 142.723 151.146 144.277 151.4 145.8C151.9 147.8 152.5 149.1 152.9 150.8C153.3 152.5 152.9 153.5 152.9 154.3C152.9 154.767 153.233 155.1 153.9 155.3C154.4 155.7 156.8 155.3 157.5 155.6C158.967 155.933 160 156.133 160.6 156.2C161.801 155.965 163.046 156.178 164.1 156.8C164.7 157.3 165.8 159.8 166.2 160.8C166.6 161.8 168.8 162.9 169.2 163.5C169.7 164 170.1 165.5 170 166.2C169.867 166.867 170.1 167.133 170.7 167C171.2 167 173.2 167.3 173.5 167.5C173.9 167.7 174.7 168.4 175 168.4C175.3 168.4 176.7 168.6 177.4 168.5C178.1 168.4 178 167.4 177.7 167.3L175.7 166.9C174.659 166.403 173.738 165.686 173 164.8C172.467 164 172.033 163.167 171.7 162.3L168.6 157.8L167 154C166.7 153.3 166.2 153.3 165.7 153.1C163.9 152.6 163.2 152.4 161.3 152.1C160 151.8 159.7 151.7 159.5 150.7C159.5 149.9 158.9 148.5 159.2 147.5L159.6 145.7C159.6 145.2 160 144.4 160 144L160.2 141L160 138.6ZM161.4 146.8C161.2 146.8 160.4 147 159.9 146.8C159.8 146.8 159.9 146.4 159.9 146.4C159.9 146.4 159.7 146.1 159.9 146C159.833 145.867 159.833 145.733 159.9 145.6C159.7 145.4 159.7 145.233 159.9 145.1L161.3 145C161.567 145.6 161.6 146.2 161.4 146.8Z" fill="white" stroke="black" style="fill:white;fill-opacity:1;stroke:black;stroke-opacity:1;" stroke-width="0.5" stroke-linecap="round" stroke-linejoin="round"/>
<path id="Vector_44" d="M158.1 135.1C158.5 135.4 158.5 135.1 159.2 134.9C159.9 134.7 160.5 135.3 160.2 135.9C159.933 136.567 160.133 136.967 160.8 137.1C161.8 137.3 161.8 136.4 162 136.1C162.2 135.9 162.433 135.667 162.7 135.4C162.9 134.6 163.7 134.8 164.2 134.9M165.2 133C164.9 133.2 164 132.5 163.8 131.9C163.6 131.033 163 130.567 162 130.5C160.5 130.4 159 131.1 158.7 132.2L158.4 133.9C158 133.9 157.767 133.967 157.7 134.1L157.6 134.9M151.3 141.2L153.3 140.2" stroke="black" style="stroke:black;stroke-opacity:1;" stroke-width="0.5" stroke-linecap="round" stroke-linejoin="round"/>
<path id="Vector_45" d="M153.4 140.3C153.9 141.6 154.4 142.9 155.1 143.3M156.2 143.8C157 144.2 157.833 144.267 158.7 144M153.6 153.5C155.7 153.5 156.6 154.5 158.3 155.1C160.1 155.6 162.5 155.3 164.8 156.4M152.9 146.7C153.567 147.1 154.233 147.3 154.9 147.3M155.8 147.3C157 147.567 157.767 148.033 158.1 148.7M155.3 149.8C156.3 150.8 158.3 151.6 159.5 151.6" stroke="black" style="stroke:black;stroke-opacity:1;" stroke-width="0.3" stroke-linecap="round" stroke-linejoin="round"/>
<path id="Vector_46" d="M157 136C157.9 139.2 158 140.4 160.2 141M156.1 135.9C157.1 139 158.1 140.7 160.2 140.9C157.6 140.8 156.2 138.6 155.2 135.5M171.7 162.3L169.3 163.6M167.1 161.8L170.3 160.2M166.6 161.2L169.9 159.6M171.8 165.7C171.4 165.433 171.067 165 170.8 164.4L170.1 162.8L169.6 163.1C169.2 163.1 169.133 162.967 169.4 162.7L169.8 162.5L169.2 161.3C169 161.3 169.067 161.2 169.4 161C169.733 160.8 169.867 160.8 169.8 161L170.4 162.2L170.8 162C171.1 161.8 171.3 162.3 171 162.4L170.5 162.6L171.3 164.2C171.7 164.9 171.8 165.1 171.8 165.7Z" stroke="black" style="stroke:black;stroke-opacity:1;" stroke-width="0.2" stroke-linecap="round" stroke-linejoin="round"/>
<path id="Vector_47" d="M140.1 153L141.2 152M139.7 152.5L140.7 151.5M139.1 152L140.2 151M160 146.4H161M159.9 145.6H160.9M159.9 146H160.9M162.2 136.8L162.8 137.1" stroke="black" style="stroke:black;stroke-opacity:1;" stroke-width="0.1" stroke-linecap="round" stroke-linejoin="round"/>
</g>
</g>
<defs>
<clipPath id="clip0_2194_6405">
<rect width="640" height="480" fill="white" style="fill:white;fill-opacity:1;"/>
</clipPath>
</defs>
</svg>
