<svg width="640" height="480" viewBox="0 0 640 480" fill="none" xmlns="http://www.w3.org/2000/svg">
<g id="mv" clip-path="url(#clip0_2194_6468)">
<path id="Vector" d="M0 0H640V480H0V0Z" fill="#D21034" style="fill:#D21034;fill:color(display-p3 0.8235 0.0627 0.2039);fill-opacity:1;"/>
<path id="Vector_2" d="M120 120H520V360H120V120Z" fill="#007E3A" style="fill:#007E3A;fill:color(display-p3 0.0000 0.4941 0.2275);fill-opacity:1;"/>
<path id="Vector_3" d="M350 320C394.183 320 430 284.183 430 240C430 195.817 394.183 160 350 160C305.817 160 270 195.817 270 240C270 284.183 305.817 320 350 320Z" fill="white" style="fill:white;fill-opacity:1;"/>
<path id="Vector_4" d="M380 320C424.183 320 460 284.183 460 240C460 195.817 424.183 160 380 160C335.817 160 300 195.817 300 240C300 284.183 335.817 320 380 320Z" fill="#007E3A" style="fill:#007E3A;fill:color(display-p3 0.0000 0.4941 0.2275);fill-opacity:1;"/>
</g>
<defs>
<clipPath id="clip0_2194_6468">
<rect width="640" height="480" fill="white" style="fill:white;fill-opacity:1;"/>
</clipPath>
</defs>
</svg>
