<svg width="640" height="480" viewBox="0 0 640 480" fill="none" xmlns="http://www.w3.org/2000/svg">
<g id="mw" clip-path="url(#clip0_2194_6473)">
<g id="Group">
<path id="Vector" fill-rule="evenodd" clip-rule="evenodd" d="M0 0H640V480H0V0Z" fill="#F41408" style="fill:#F41408;fill:color(display-p3 0.9569 0.0784 0.0314);fill-opacity:1;"/>
<path id="Vector_2" fill-rule="evenodd" clip-rule="evenodd" d="M0 320H640V480H0V320Z" fill="#21873B" style="fill:#21873B;fill:color(display-p3 0.1294 0.5294 0.2314);fill-opacity:1;"/>
<path id="Vector_3" fill-rule="evenodd" clip-rule="evenodd" d="M0 0H640V160H0V0Z" fill="#000001" style="fill:#000001;fill:color(display-p3 0.0000 0.0000 0.0039);fill-opacity:1;"/>
<path id="Vector_4" fill-rule="evenodd" clip-rule="evenodd" d="M220.5 141C242.8 91.8 305 68.2 359.3 88.5C372.055 92.7988 383.787 99.679 393.766 108.711C403.745 117.744 411.756 128.735 417.3 141H220.5ZM194.5 147.4C176.853 146.2 159.331 143.592 142.1 139.6C138 138.3 137.8 136 138.3 134.3C138.8 132.6 141.4 130.7 144.5 131.3C150.1 132.7 173.3 138.3 194.5 147.4ZM319.1 61.5C314.9 40.5 313.9 17.5 314.3 13.5C314.7 9.6 317 9 319 9C321 9 323.7 10.8 323.7 13.7C323.7 19 323.6 40.7 319.1 61.7V61.5ZM330.7 62C329.042 45.9808 328.941 29.8386 330.4 13.8C331.2 9.9 333.6 9.4 335.5 9.6C337.5 9.7 340 11.7 339.7 14.6C339.2 19.9 337.1 41.5 330.7 62ZM341.1 63.3C340.9 42 344.1 19 345.2 15.3C346.3 11.4 348.8 11.1 350.7 11.4C352.7 11.7 355 13.9 354.5 16.7C353.5 22 349.3 43.3 341.1 63.3ZM352.1 65.5C353.9 44.3 359.4 21.7 360.9 18C362.4 14.3 364.9 14.2 366.7 14.6C368.7 15.1 370.7 17.4 370 20.2C368.4 25.3 362.3 46.2 352.2 65.5H352.1ZM363 68.7C366.9 47.7 374.5 25.6 376.3 22C378.2 18.5 380.6 18.5 382.5 19.1C384.3 19.7 386.2 22.3 385.2 24.9C379.177 40.158 371.745 54.8214 363 68.7ZM373.1 72.5C378.9 51.8 388.6 30.5 390.8 27C393 23.6 395.4 23.9 397.2 24.7C399 25.4 400.6 28.1 399.3 30.7C396.8 35.5 386.8 55.1 373.1 72.5ZM383.1 77.2C389.048 61.9126 396.414 47.2152 405.1 33.3C407.5 30.1 410 30.6 411.7 31.5C412.203 31.7981 412.642 32.1935 412.991 32.6631C413.339 33.1327 413.591 33.6672 413.73 34.2351C413.87 34.8031 413.895 35.3932 413.804 35.971C413.713 36.5487 413.508 37.1025 413.2 37.6C410.2 42.2 398.3 61 383.1 77.2ZM392.5 82.7C402.2 63.3 415.8 43.7 418.6 40.7C421.4 37.7 423.8 38.4 425.4 39.4C425.877 39.7379 426.282 40.1675 426.591 40.6638C426.901 41.16 427.108 41.7129 427.201 42.2902C427.294 42.8674 427.271 43.4574 427.134 44.0257C426.996 44.594 426.747 45.1292 426.4 45.6C422.9 50 409.2 67.7 392.4 82.6L392.5 82.7ZM401.3 88.9C412.9 70.3 428.3 51.9 431.4 49.2C434.4 46.4 436.8 47.2 438.3 48.4C438.737 48.7806 439.093 49.2458 439.346 49.7676C439.599 50.2893 439.744 50.8568 439.772 51.436C439.8 52.0152 439.711 52.5941 439.509 53.1378C439.308 53.6815 438.999 54.1789 438.6 54.6C434.8 58.7 419.5 75.3 401.3 88.9ZM409.6 95.8C419.745 82.4254 431.056 69.9767 443.4 58.6C446.7 56.1 448.9 57.1 450.3 58.3C450.715 58.7227 451.037 59.2265 451.248 59.7798C451.459 60.3331 451.553 60.924 451.525 61.5155C451.497 62.1069 451.347 62.6862 451.085 63.217C450.822 63.7477 450.453 64.2186 450 64.6C445.9 68.4 429 83.7 409.6 95.8ZM417.2 103.3C428.532 90.7596 440.983 79.2787 454.4 69C458 66.7 460.1 67.9 461.4 69.3C462.6 70.6 462.9 73.7 460.4 75.5C446.805 85.9612 432.354 95.2606 417.2 103.3ZM423.7 111.1C436.203 99.4606 449.686 88.9215 464 79.6C467.7 77.6 469.7 79 470.8 80.5C472 81.9 471.9 85 469.4 86.6C464.6 89.6 445.1 102.2 423.7 111.1ZM429.6 119.4C443.123 108.849 457.507 99.449 472.6 91.3C476.6 89.6 478.5 91.1 479.5 92.6C480.5 94.2 480.1 97.2 477.5 98.6C462.093 106.828 446.039 113.784 429.5 119.4H429.6ZM435 129C449.565 119.613 464.884 111.452 480.8 104.6C484.9 103.2 486.6 104.9 487.4 106.5C488.3 108.1 487.7 111.1 484.8 112.3C479.5 114.5 457.8 123.7 435 129ZM439.2 138.2C454.606 129.968 470.659 123.012 487.2 117.4C491.4 116.4 492.9 118.2 493.6 119.9C494.2 121.5 493.3 124.5 490.4 125.4C484.9 127.3 462.4 134.7 439.2 138.2ZM442.6 148C458.716 141.031 475.371 135.379 492.4 131.1C496.6 130.5 498 132.3 498.5 134.1C499 135.8 497.8 138.6 494.8 139.4C489.1 140.7 466 146.4 442.6 148ZM307.8 62C303.054 46.5477 299.806 30.6745 298.1 14.6C298.1 10.7 300.4 9.8 302.3 9.6C304.3 9.5 307.3 11.1 307.5 13.9C308 19.2 310.1 40.8 307.9 62H307.8ZM296.8 63.3C290.545 48.3318 285.756 32.7924 282.5 16.9C282.1 12.9 284.3 11.9 286.2 11.6C288.1 11.3 291.2 12.6 291.8 15.4C294.928 31.1801 296.602 47.214 296.8 63.3ZM285.8 65.5C278.12 51.0607 271.826 35.9264 267 20.3C266.2 16.4 268.3 15.2 270.2 14.7C272.1 14.2 275.2 15.3 276.1 18.1C277.6 23.2 283.8 44.1 285.7 65.4L285.8 65.5ZM275.3 68.5C266.365 54.74 258.732 40.177 252.5 25C251.4 21.2 253.3 19.8 255.1 19.2C256.9 18.6 260.2 19.4 261.3 22C263.3 27 271.5 47.4 275.3 68.4V68.5ZM265.2 72C254.948 59.0228 245.91 45.131 238.2 30.5C236.8 26.8 238.6 25.2 240.4 24.5C242.2 23.8 245.4 24.3 246.8 26.9C249.3 31.7 259.3 51.4 265.2 72ZM254.9 77C243.402 64.8977 233.027 51.7773 223.9 37.8C222.2 34.3 223.8 32.6 225.5 31.7C227.2 30.8 230.5 31.1 232.1 33.6C235.1 38.2 247.1 56.9 254.9 77ZM245.5 82.4C232.939 71.2089 221.394 58.9276 211 45.7C208.9 42.3 210.3 40.5 212 39.4C213.5 38.4 217 38.4 218.7 40.8C222.1 45.1 235.8 62.8 245.5 82.3V82.4ZM236.8 88.4C223.205 78.2236 210.524 66.8806 198.9 54.5C196.5 51.3 197.8 49.5 199.3 48.3C200.357 47.645 201.605 47.3675 202.84 47.5128C204.075 47.6581 205.224 48.2176 206.1 49.1C209.9 53.1 225.3 69.8 236.8 88.4ZM228.3 95.4C213.78 86.3582 200.063 76.0872 187.3 64.7C184.5 61.7 185.6 59.7 187 58.4C188.011 57.6543 189.248 57.2773 190.503 57.3319C191.758 57.3865 192.957 57.8693 193.9 58.7C198.1 62.4 214.9 77.7 228.3 95.3V95.4ZM220.9 102.4C205.591 94.5087 190.972 85.343 177.2 75C174.2 72.2 175.1 70.2 176.4 68.8C177.6 67.4 180.9 66.7 183.3 68.5C196.795 78.7219 209.376 90.0981 220.9 102.5V102.4ZM213.9 110.6C197.867 103.961 182.414 96.0003 167.7 86.8C164.4 84.3 165.1 82.1 166.2 80.7C167.3 79.2 170.5 78.2 173.1 79.8C177.9 82.9 197.4 95.3 213.9 110.6ZM207.6 119.4C185.4 112.4 162.7 101.8 159.2 99.5C155.6 97.3 156.2 95.1 157.1 93.5C158 91.9 161.1 90.7 163.9 92.1C168.9 94.8 189.7 105.6 207.6 119.4ZM202.3 128.4C179.5 123.1 156 114.4 152.2 112.4C148.5 110.4 148.7 108.2 149.6 106.6C150.5 105 153.3 103.5 156.2 104.6C161.5 106.9 183.2 116 202.3 128.4ZM198.1 137.4C180.667 134.718 163.479 130.638 146.7 125.2C142.7 123.6 142.9 121.3 143.5 119.7C144.2 118 147 116.3 149.9 117.2C155.5 119.1 177.9 126.5 198.1 137.4Z" fill="#F31509" style="fill:#F31509;fill:color(display-p3 0.9529 0.0824 0.0353);fill-opacity:1;"/>
<path id="Vector_5" fill-rule="evenodd" clip-rule="evenodd" d="M194.5 147.4C176.853 146.2 159.331 143.592 142.1 139.6C138 138.3 137.8 136 138.3 134.3C138.8 132.6 141.4 130.7 144.5 131.3C150.1 132.7 173.3 138.3 194.5 147.4Z" fill="#F31509" style="fill:#F31509;fill:color(display-p3 0.9529 0.0824 0.0353);fill-opacity:1;"/>
<path id="Vector_6" fill-rule="evenodd" clip-rule="evenodd" d="M129.4 141.5H510.6V154.1H129.4V141.5Z" fill="black" style="fill:black;fill-opacity:1;"/>
</g>
</g>
<defs>
<clipPath id="clip0_2194_6473">
<rect width="640" height="480" fill="white" style="fill:white;fill-opacity:1;"/>
</clipPath>
</defs>
</svg>
