<svg width="640" height="480" viewBox="0 0 640 480" fill="none" xmlns="http://www.w3.org/2000/svg">
<g id="na" clip-path="url(#clip0_2194_6892)">
<g id="Clip path group">
<mask id="mask0_2194_6892" style="mask-type:luminance" maskUnits="userSpaceOnUse" x="0" y="0" width="640" height="480">
<g id="na-a">
<path id="Vector" d="M0 0H640V480H0V0Z" fill="white" style="fill:white;fill-opacity:1;"/>
</g>
</mask>
<g mask="url(#mask0_2194_6892)">
<g id="Group">
<path id="Vector_2" fill-rule="evenodd" clip-rule="evenodd" d="M0 0H640V480H0V0Z" fill="white" style="fill:white;fill-opacity:1;"/>
<path id="Vector_3" fill-rule="evenodd" clip-rule="evenodd" d="M-26.3999 0.2L-25.5999 345.8L512.5 0L-26.3999 0.2Z" fill="#3662A2" style="fill:#3662A2;fill:color(display-p3 0.2118 0.3843 0.6353);fill-opacity:1;"/>
<path id="Vector_4" fill-rule="evenodd" clip-rule="evenodd" d="M666.4 479.6L665 120.3L122.3 479.8L666.3 479.6H666.4Z" fill="#38A100" style="fill:#38A100;fill:color(display-p3 0.2196 0.6314 0.0000);fill-opacity:1;"/>
<path id="Vector_5" fill-rule="evenodd" clip-rule="evenodd" d="M-26 371.8L-25.6 480L91.9 479.9L665.4 95.4L664.7 1.30005L548.7 0.300049L-26 371.7V371.8Z" fill="#C70000" style="fill:#C70000;fill:color(display-p3 0.7804 0.0000 0.0000);fill-opacity:1;"/>
<path id="Vector_6" fill-rule="evenodd" clip-rule="evenodd" d="M219.6 172L197.8 158.8L185.2 180.9L173 158.7L151 171.6L151.6 146.2L126.2 146.4L139.4 124.6L117.3 112.1L139.5 99.8L126.7 77.8L152.1 78.4L152 52.9L173.7 66.1L186.3 44L198.5 66.2L220.5 53.3L219.9 78.7L245.3 78.5L232.1 100.3L254.2 112.8L232 125.1L244.8 147.1L219.4 146.5L219.6 172Z" fill="#FFE700" style="fill:#FFE700;fill:color(display-p3 1.0000 0.9059 0.0000);fill-opacity:1;"/>
<path id="Vector_7" fill-rule="evenodd" clip-rule="evenodd" d="M232.4 112.4C232.4 138 211.5 158.7 185.8 158.7C160.1 158.7 139.2 138 139.2 112.4C139.2 86.8 160 66.2 185.8 66.2C211.6 66.2 232.4 86.9 232.4 112.4Z" fill="#3662A2" style="fill:#3662A2;fill:color(display-p3 0.2118 0.3843 0.6353);fill-opacity:1;"/>
<path id="Vector_8" fill-rule="evenodd" clip-rule="evenodd" d="M222.3 112.4C222.3 122.08 218.455 131.364 211.609 138.209C204.764 145.054 195.48 148.9 185.8 148.9C176.12 148.9 166.836 145.054 159.991 138.209C153.146 131.364 149.3 122.08 149.3 112.4C149.3 102.72 153.146 93.4357 159.991 86.5906C166.836 79.7455 176.12 75.9 185.8 75.9C195.48 75.9 204.764 79.7455 211.609 86.5906C218.455 93.4357 222.3 102.72 222.3 112.4Z" fill="#FFE700" style="fill:#FFE700;fill:color(display-p3 1.0000 0.9059 0.0000);fill-opacity:1;"/>
</g>
</g>
</g>
</g>
<defs>
<clipPath id="clip0_2194_6892">
<rect width="640" height="480" fill="white" style="fill:white;fill-opacity:1;"/>
</clipPath>
</defs>
</svg>
