<svg width="640" height="480" viewBox="0 0 640 480" fill="none" xmlns="http://www.w3.org/2000/svg">
<g id="nc" clip-path="url(#clip0_2194_6904)">
<path id="Vector" d="M0 0H640V480H0V0Z" fill="#009543" style="fill:#009543;fill:color(display-p3 0.0000 0.5843 0.2627);fill-opacity:1;"/>
<path id="Vector_2" d="M0 0H640V320H0V0Z" fill="#ED4135" style="fill:#ED4135;fill:color(display-p3 0.9294 0.2549 0.2078);fill-opacity:1;"/>
<path id="Vector_3" d="M0 0H640V160H0V0Z" fill="#0035AD" style="fill:#0035AD;fill:color(display-p3 0.0000 0.2078 0.6784);fill-opacity:1;"/>
<path id="Vector_4" d="M240 397.3C326.874 397.3 397.3 326.874 397.3 240C397.3 153.126 326.874 82.7 240 82.7C153.126 82.7 82.7 153.126 82.7 240C82.7 326.874 153.126 397.3 240 397.3Z" fill="#FAE600" stroke="black" style="fill:#FAE600;fill:color(display-p3 0.9804 0.9020 0.0000);fill-opacity:1;stroke:black;stroke-opacity:1;" stroke-width="5.3"/>
<g id="Vector_5">
<path d="M213.3 263.5H266.6ZM213.3 224H266.6ZM240 83.2V352Z" fill="black" style="fill:black;fill-opacity:1;"/>
<path d="M213.3 263.5H266.6M213.3 224H266.6M240 83.2V352" stroke="black" style="stroke:black;stroke-opacity:1;" stroke-width="6.4"/>
</g>
<path id="Vector_6" d="M176.6 384.4C240.8 410.7 301 386.1 301 386.1C301 386.1 278.3 361.5 266.7 351.9C255.3 342.5 221.9 342.9 210.5 351.9C198.686 362.184 187.373 373.03 176.6 384.4Z" fill="#000001" style="fill:#000001;fill:color(display-p3 0.0000 0.0000 0.0039);fill-opacity:1;"/>
<path id="Vector_7" d="M240 338.1C249.72 338.1 257.6 326.639 257.6 312.5C257.6 298.362 249.72 286.9 240 286.9C230.28 286.9 222.4 298.362 222.4 312.5C222.4 326.639 230.28 338.1 240 338.1Z" fill="#000001" style="fill:#000001;fill:color(display-p3 0.0000 0.0000 0.0039);fill-opacity:1;"/>
<path id="Vector_8" d="M240 257.2C251.764 257.2 261.3 251.156 261.3 243.7C261.3 236.244 251.764 230.2 240 230.2C228.236 230.2 218.7 236.244 218.7 243.7C218.7 251.156 228.236 257.2 240 257.2Z" fill="#000001" style="fill:#000001;fill:color(display-p3 0.0000 0.0000 0.0039);fill-opacity:1;"/>
<path id="Vector_9" d="M240 202.6C251.764 202.6 261.3 193.064 261.3 181.3C261.3 169.536 251.764 160 240 160C228.236 160 218.7 169.536 218.7 181.3C218.7 193.064 228.236 202.6 240 202.6Z" fill="#000001" style="fill:#000001;fill:color(display-p3 0.0000 0.0000 0.0039);fill-opacity:1;"/>
<path id="Vector_10" d="M265.6 101.9C265.6 101.9 267.4 104.9 263.6 111.9C245 145.4 226.3 146.1 222.8 149C218.8 152.2 217.2 152 217.2 152C217.5 149.1 217.7 137.4 217.9 136.3C220.8 120.6 244.4 120.8 262.9 104.8C265.8 102.3 265.6 101.8 265.6 101.8V101.9ZM203.2 173.9C203.2 173.9 207.5 185.9 208 197.9C209 217.1 227.4 217.6 240 217.6V206.9C230.5 206.9 222.3 205.5 215.5 191.5C211.921 185.286 207.805 179.397 203.2 173.9ZM202.7 328.5C202.7 328.5 209.4 320.2 217.3 300.8C221.3 290.7 231.1 284.8 240 284.8V269.8C219.7 269.8 210 277.3 209 288.4C207.727 301.884 205.623 315.276 202.7 328.5Z" fill="#000001" style="fill:#000001;fill:color(display-p3 0.0000 0.0000 0.0039);fill-opacity:1;"/>
<path id="Vector_11" d="M276.8 173.9C276.8 173.9 272.5 185.9 272 197.9C271 217.1 252.6 217.6 240 217.6V207C249.5 207 257.7 205.6 264.5 191.5C268.1 185.3 272.2 179.433 276.8 173.9ZM277.3 328.6C277.3 328.6 270.6 320.2 262.7 300.8C258.7 290.7 248.9 284.8 240 284.8V270C260.3 270 270 277.5 271 288.6C272.277 302.05 274.381 315.409 277.3 328.6Z" fill="black" style="fill:black;fill-opacity:1;"/>
</g>
<defs>
<clipPath id="clip0_2194_6904">
<rect width="640" height="480" fill="white" style="fill:white;fill-opacity:1;"/>
</clipPath>
</defs>
</svg>
