<svg width="640" height="480" viewBox="0 0 640 480" fill="none" xmlns="http://www.w3.org/2000/svg">
<g id="nf" clip-path="url(#clip0_2194_6921)">
<g id="Group">
<path id="Vector" fill-rule="evenodd" clip-rule="evenodd" d="M194.8 0H445.2V480H194.8V0Z" fill="white" style="fill:white;fill-opacity:1;"/>
<path id="Vector_2" fill-rule="evenodd" clip-rule="evenodd" d="M0 0H194.8V480H0V0ZM445.2 0H640V480H445.2V0Z" fill="#198200" style="fill:#198200;fill:color(display-p3 0.0980 0.5098 0.0000);fill-opacity:1;"/>
<path id="Vector_3" fill-rule="evenodd" clip-rule="evenodd" d="M313.5 351.3V403.9L334.8 404.1C334.8 404.1 328 358.3 331.7 352.1C335.4 346.1 338.9 346.9 338.9 346.9C338.9 346.9 352.8 351.1 354.3 350.4C355.8 349.8 354.1 345.2 361.5 345.8C363.9 344.9 362.6 340.8 364.8 340.6C367 340.4 409.3 352.4 418.5 341C416.1 334.6 407.8 340.5 405.6 340.8C403.6 340.8 395.3 336.8 390.5 340.8C386.1 337.5 366.1 335.3 366.1 335.3C363.5 332.7 413.7 336.6 416.6 334.6C422.5 328.7 405.6 329.4 403 331.3C400.867 330.034 398.454 329.316 395.975 329.211C393.497 329.107 391.032 329.618 388.8 330.7C387.1 326.6 370.8 328.3 361.8 327.2C358.8 325.5 359.3 324.5 361.3 323.4C380.3 324.2 399.1 326.7 418.1 325.9C423.2 319.2 411.6 316.6 404.5 322.4C400.3 315.4 391.8 322.1 386.1 321.4C380.4 320.7 383.1 313.8 390.3 314.9C397.5 316 410.4 314.5 412.8 311.2C415.2 307.9 411.4 304.5 399.5 307.7C395.5 303.7 386.5 307.7 382.4 309C376.8 305.9 363.9 308.5 359.6 309.6C355.3 307 382.1 302.6 382.1 302.6C392.5 302.4 398.4 300.6 401.6 299.8C417.3 291.4 401.4 290.5 393.2 296.6C388.1 292.6 383.2 296.9 378.6 298.4C374.289 299.864 369.75 300.541 365.2 300.4C365.2 299.8 377.8 292.1 377.8 292.1C377.8 292.1 393.1 291 396.2 290.6C399.2 290.1 415 282.1 393.5 287.5C386.1 288.1 381.7 287.7 378.8 287.9C362.3 286.2 380.4 284.6 380.4 284.6C380.4 284.6 403.8 282.5 404.1 281.3C404.5 272.3 385 276.5 384.8 276.5C384.8 270 366.6 276.7 366.6 276.5C363.1 274.5 368.6 272.4 368.6 272.4C373.4 271.2 380.6 270.8 382.5 269.3C382.5 269.3 396.1 269.2 397.7 265.6C394.4 256.3 368.9 267.2 365.5 268.8C360.9 268.8 368.5 261.4 368.8 261.2C369 260.9 389.8 260.1 399.7 246.7C400.4 238.6 388.1 251.3 388.1 251.3C387.1 240.7 374.7 252 367.5 252.8C360.2 253.8 360 249.5 365 248.8C370 248.2 375.8 248.7 378.6 241C381.5 233.3 390 241.4 391.6 238.6C393.1 235.7 388.5 233.3 388.5 233.3C388.5 233.3 394.9 226.7 384.5 227C374.3 227.2 360.9 225.6 360.9 225.6C360.9 225.6 371.6 221.5 381.7 221.6C391.7 221.9 386.3 214.5 376.7 214.5C367.1 214.5 362 211.2 362 211.2L378.4 205L377.4 200.4C377.4 200.4 387 192.7 373.4 194.5L358.2 196.5L330.8 200.6C330.6 200.6 323.4 198.4 330.4 196.6C337.4 194.8 362.2 189.9 365.9 191.2C369.6 192.5 365.5 182 352.3 180.7C339.1 179.4 331 184 331 184C331 184 322.5 180.9 330.4 178.3C338.3 175.6 350.8 179.2 350.8 179.2C350.8 179.2 364.8 175 353.2 173.2C341.6 171.4 337.9 174.8 332.6 175C330.5 172.3 350.8 171.7 352.1 169.5C349.9 165.5 337.3 169.5 329.9 169.5C326.9 168.2 326.6 166 330.2 164.7C337.7 164.4 344.8 164.8 352.3 164.5C352.1 160.5 352.3 155.8 352.1 151.7C342.5 150 331.3 153 326 152.7C327.4 148.4 348 147.2 350.3 146C355.1 140 330.2 146 329.9 146C325.6 145.4 325.9 142.6 328.6 141C335 140.3 349.2 142 348.2 137.6C347.4 133.6 338.2 135.7 334.6 136.6C330.8 137.5 325.3 136.8 325.3 136.8C323 133.6 346.8 134.9 346.6 132.4C346.3 129.6 331.5 131.6 326.4 131.8C322.5 129.1 345.4 127.3 345.7 127C346.6 119.7 330.4 127 327.3 127C324.2 127 325.8 122.4 325.8 122.4C325.8 122.4 332.1 119.5 331.9 119.1C330.258 118.216 328.511 117.544 326.7 117.1C326.2 117.1 326.7 112.1 326.7 112.1C326.7 112.1 331.9 108.1 331.5 107C331.1 105.9 325.3 107.9 325.3 107.9V103.5C325.3 103.5 329.5 103.1 329.9 101.1C330.4 99.1 324.9 98.9 324.9 98.9L322.7 75.9L320.7 97.4L313.5 98.4C313.5 98.4 318.5 101.3 319.5 104.2C320.3 107 313.3 106.2 313.3 106.2C313.3 106.2 319 111 319.4 112.7C319.9 114.5 311.5 114.9 311.5 114.9C311.5 114.9 318.5 119.9 319 122.8C319.4 125.6 319 127.2 319 127.2C319 127.2 307.4 117.1 300 119.9C296 121.9 308.8 122.9 317.2 130.2C317.2 131.9 296.7 125.2 296 129.4C296.4 130.5 317.9 133.6 319.4 136.4C311.6 136.7 295.4 134.7 296 137.3C294.3 140.3 311.2 138.6 318.3 141C320.4 143.4 320.2 145.4 316.6 145.6C309.7 142.3 294.5 139.9 294.4 144.1C294.5 145.1 310.2 144.5 315.9 148.2C308.3 150 282.5 144.7 282.4 147.2C283.1 148.5 287.2 153.7 294.2 153.5C301.2 153.3 317.5 156.3 318.6 158.5C319.7 160.7 297.5 153.9 289.2 157.9C280.8 161.9 313.1 159.4 318.3 164.2C323.6 169.1 307.8 163.8 307.8 163.8C307.8 163.8 285.8 160.8 282.6 162.3C279.3 163.8 275.6 167.3 275.6 167.3C275.6 167.3 277.8 171.7 280 170.8C282.2 169.9 279.3 173.5 279.3 173.5C279.3 173.5 310 180.9 316.8 187.5C323.6 194.1 277.8 177.2 277.8 177.2C277.8 177.2 259.3 184 278.8 184.4C276.6 187.7 280 189.7 280 189.7C280 189.7 312.4 196.5 315.7 201.7C319 206.9 293.6 196.7 287.8 193.8C282.1 191 265.9 195.6 266.1 196.7C266.4 197.7 274.1 199.3 274.2 201.3C274.5 203.3 264.8 203.9 264.8 205.7C264.8 207.4 305.8 216 316.8 225.2C327.8 234.4 284.6 214.2 284.6 214.2C284.6 214.2 287 217.5 284.6 218.4C282.1 219.3 273.6 206.1 259.6 214.2C257 217.6 271.8 220.2 275.6 220.6C274.3 223.9 273.2 225 278.4 228.3C283.6 231.6 268.1 223.5 268.1 223.9L269.2 229.6C264.4 225.6 258.5 224.5 253 228.5C253 228.5 252.8 232.5 258.5 234.9C255.4 241.2 262 239.2 272.5 245.2C256.9 241.1 255.6 248.7 266.8 250.4C278 252.1 308.7 253.3 315.9 262.7C323.1 272.1 305.6 259.1 303.6 258.7C303.2 259 302.8 263.6 302.8 263.6C298.1 260.9 293.8 258.4 288.2 257.3C287.7 258.2 287.9 259.4 287.4 260.3C282.4 256.6 277.9 254.1 270.5 253.7L269.6 257.2C269.6 257.2 263.5 249.5 251.4 257.2C244.7 262.1 276.9 259 282.1 264.7C287.4 270.4 283.2 271.3 283.2 271.3L270.1 266.4C270.1 266.4 254.5 263.6 250.1 267.1C245.7 270.6 314.1 279.1 316.1 288.6C317.5 293.6 300.1 283.2 285 278.7L283.2 283.7C283.2 283.7 277.2 277.7 270.5 276.7C270.3 276.7 271.8 282.7 271.8 282.7C271.8 282.7 255 274.7 246.4 278.9C237.8 283.1 276.2 285.3 279.7 289.2C283.2 293.1 268.1 286.6 266.7 289.2C265.5 291.9 246.8 284.4 247.1 287.9C247.4 291.4 249.7 293.4 249.7 293.4C249.7 293.4 288.5 297.1 289.8 301.7C291.1 306.3 268.3 299.1 268.3 299.1C268.3 299.1 266.1 302.4 267.9 303.9C269.6 305.5 254.7 295.2 256.1 301.9C251.2 300 238.7 294.1 240.5 298.7C242.3 303.3 275.8 309.9 275.8 309.9C275.8 309.9 261.1 310.9 261.8 314.7C242.8 303.2 243.3 310.5 243.8 310.7C244.3 310.9 219.4 304.6 238.1 314.7C256.8 324.8 248.1 323 248.4 323.2C248.6 323.4 250.4 328.2 249.9 328.2C249.4 328.2 237.2 321.7 233 321.2C228.8 320.7 209.1 326.7 230.2 336C251.3 345.3 264.2 333.8 275.8 335C287.4 336.4 292.8 338.4 291.8 342C290.7 345.8 279.9 329.9 268.6 343.7C255.6 341.1 246.9 339.7 253.6 349.1C232.6 341.2 219.6 351.5 246.2 355.7C272.2 356.5 288.2 349.3 288.2 349.3C288.2 349.3 292.7 357.4 299 351.7C305.3 346 305.6 353.9 305.8 353.9L312 351.3H313.5Z" fill="#198200" stroke="black" style="fill:#198200;fill:color(display-p3 0.0980 0.5098 0.0000);fill-opacity:1;stroke:black;stroke-opacity:1;" stroke-width="0.7" stroke-linecap="round" stroke-linejoin="round"/>
<path id="Vector_4" fill-rule="evenodd" clip-rule="evenodd" d="M316 320.2V316.5C316 316.5 307.8 315 303.7 315.8C301.4 314.5 299.1 312.7 296.2 314.2C295.7 315.4 301.5 318.5 303.4 318.5C307.518 319.729 311.804 320.302 316.1 320.2H316ZM316 326.2C316 326.2 307.7 323.1 304.4 326.6C304.9 330.3 314.1 332.1 316.1 331.1C318 330.1 316.1 326.3 316 326.1V326.2ZM330 327.6V330.2C330 330.2 339.8 332.1 341.6 330C343.4 327.9 333.6 326.5 329.9 327.6H330ZM329.5 317.4L329.8 320.3C329.8 320.3 338.4 322.2 341.7 317.5C345 312.8 334.2 317.5 329.5 317.4ZM329.9 307.4V309.4C329.9 309.4 336.4 310.4 337.9 307.6C339.3 304.8 330.1 307.6 329.9 307.4ZM316.5 301.4C315.5 300.1 312 296.6 302.7 295.6C296.2 295.6 314.4 305.1 316.5 301.5V301.4ZM329.7 291.7L329.5 294.4C329.5 294.4 351.5 287.8 356.6 288.3C361.2 287 362.2 283.8 362 283.8C358 280.9 339.1 286.1 329.7 291.7ZM330.2 283.9L329.9 286.5C329.9 286.5 345.4 283.5 349.6 280.5C353.8 277.5 330.4 284 330.2 283.9ZM329.6 276.3V278.9C329.6 278.9 339.9 278.5 342.1 276.5C343.4 274.4 332.9 276.2 329.6 276.3ZM351.2 298C351.2 298 356.6 298.8 357.6 297.2C357.4 294.4 351.2 298.2 351.2 298ZM330 266.6L330.1 272.3C330.1 272.3 355 264.4 356.6 263C358.1 261.5 361.6 257 330 266.6ZM329.3 258.7V262.9C329.3 262.9 339.3 262.1 343.9 258.4C348.5 254.7 329.3 258.8 329.3 258.7ZM317.3 249.4L317.9 253.1L285 242.5C285.1 242.5 283.4 237.1 317.3 249.4ZM317.8 236.1C317.8 236.5 317.8 239.7 317.6 239.6C317.6 239.6 294.8 230.1 293.9 230.9C290.9 223.9 317.9 236.3 317.9 236.1H317.8ZM328.9 242.1L329.3 245.2C329.3 245.2 343.3 242.3 344.1 240.9C344.9 239.5 328.9 242.1 328.9 242V242.1ZM329.2 249.5C329.4 250.2 329.6 252.8 329.6 252.8C329.6 252.8 335.2 252.3 336.1 251C336.9 249.7 329.2 249.5 329.2 249.5ZM328.4 232.5V235.5C328.4 235.5 343.8 232.5 345.4 231.1C347.1 229.6 328.1 232.5 328.4 232.5ZM328.4 224C328.4 224.2 327.9 227.1 328.3 227.1C328.7 227.1 346.9 224.1 349.8 221.4C352.6 218.9 328.8 224.3 328.5 224H328.4ZM328.2 209.1V212.4C328.2 212.4 340 209.9 342.2 207.4C344.4 204.9 328.2 209.4 328.2 209.1ZM326.2 187.5L326.4 192.3C326.4 192.3 342.4 190.1 344.6 187.5C346.9 184.8 326.1 187.5 326.2 187.5ZM318.8 151V154C318.8 154 311.3 153.7 313.1 152.4C314.9 151.1 318.8 151.3 318.8 151ZM325.8 155L326 159.2C326 159.2 335.7 158.2 336.4 156.7C337.1 155.2 326 155.1 325.8 155.1V155ZM325.2 161C325.2 161 325.4 163.6 325.6 163.6C325.8 163.6 329.5 163.3 330.3 162.3C331.1 161.3 325.6 161.3 325.3 161H325.2ZM317 172.8C317 173.1 317.3 176.8 317 176.6C316.7 176.4 295.8 170.5 293.8 170.6C291.9 170.6 291.4 165.7 317 172.8ZM318.7 179.7C318.7 180.4 319.2 184.3 318.4 184.1C317.7 183.9 304.1 179.6 305.5 178.3C306.9 177 318.7 180 318.7 179.7ZM317.5 208.7L317.6 212.2C317.6 212.2 293.9 205 293.1 203.8C292.3 202.6 290 197 317.5 208.7ZM318.5 217.2V220.5L286.3 209.2C286.3 209.2 283.7 200.8 318.4 217.2H318.5Z" fill="white" stroke="black" style="fill:white;fill-opacity:1;stroke:black;stroke-opacity:1;" stroke-width="0.8" stroke-linecap="round" stroke-linejoin="round"/>
<path id="Vector_5" fill-rule="evenodd" clip-rule="evenodd" d="M280.3 328.7L280.1 332.2C280.1 332.2 273.9 330.4 271.9 326.9C275.5 325.9 280.4 328.8 280.3 328.7Z" fill="white" stroke="black" style="fill:white;fill-opacity:1;stroke:black;stroke-opacity:1;" stroke-width="0.8" stroke-linejoin="round"/>
</g>
</g>
<defs>
<clipPath id="clip0_2194_6921">
<rect width="640" height="480" fill="white" style="fill:white;fill-opacity:1;"/>
</clipPath>
</defs>
</svg>
