<svg width="640" height="480" viewBox="0 0 640 480" fill="none" xmlns="http://www.w3.org/2000/svg">
<g id="np">
<g id="Clip path group">
<mask id="mask0_2194_7177" style="mask-type:luminance" maskUnits="userSpaceOnUse" x="0" y="0" width="480" height="480">
<g id="np-a">
<path id="Vector" d="M0 0H480V480H0V0Z" fill="white" style="fill:white;fill-opacity:1;"/>
</g>
</mask>
<g mask="url(#mask0_2194_7177)">
<g id="Group">
<g id="Group_2">
<path id="Vector_2" fill-rule="evenodd" clip-rule="evenodd" d="M6.09375 473.906H361.219L128.812 238.219L370.031 238.5L6.1875 6.09375V473.906H6.09375Z" fill="#CE0000" stroke="#000063" style="fill:#CE0000;fill:color(display-p3 0.8078 0.0000 0.0000);fill-opacity:1;stroke:#000063;stroke:color(display-p3 0.0000 0.0000 0.3882);stroke-opacity:1;" stroke-width="12.9375"/>
<path id="Vector_3" fill-rule="evenodd" clip-rule="evenodd" d="M169.406 348.562L144.094 357L163.969 375.563L137.25 373.875L148.219 398.438L124.313 386.906L124.781 413.719L107.156 394.125L97.125 419.062L88.5 394.406L69.4687 413.719L71.1563 387.75L45.9375 398.438L57.75 375L30.2812 375.563L50.4375 358.406L24.8438 348.562L50.1562 340.125L30.1875 321.562L56.8125 323.25L45.9375 298.688L69.9375 310.219L69.4687 283.406L87.0938 303L97.125 278.063L105.656 302.719L124.781 283.406L123 309.375L148.312 298.688L136.406 322.125L163.969 321.562L143.812 338.719L169.406 348.562ZM139.031 175.406L128.438 183.281L133.688 187.594C146.002 178.982 155.909 167.364 162.469 153.844C164.156 173.813 145.875 218.531 98.0625 219C89.3235 219.111 80.649 217.491 72.5395 214.232C64.43 210.974 57.0462 206.141 50.8143 200.014C44.5823 193.887 39.6255 186.586 36.2301 178.532C32.8346 170.479 31.0677 161.833 31.0312 153.094C40.4062 170.156 46.2187 178.406 61.0312 187.313L65.4375 183.187L55.5 174.844L68.3438 171.469L61.4062 159.844L74.9063 160.781L73.2187 147.281L85.0312 154.219L88.7812 141.562L97.2187 151.688L105.187 142.031L109.5 155.156L120.563 147.469L119.156 160.875L132.469 159.281L126.188 171.656L139.031 175.406Z" fill="white" style="fill:white;fill-opacity:1;"/>
</g>
</g>
</g>
</g>
</g>
</svg>
