<svg width="640" height="480" viewBox="0 0 640 480" fill="none" xmlns="http://www.w3.org/2000/svg">
<g id="nr" clip-path="url(#clip0_2194_7185)">
<g id="Clip path group">
<mask id="mask0_2194_7185" style="mask-type:luminance" maskUnits="userSpaceOnUse" x="0" y="0" width="641" height="480">
<g id="nr-a">
<path id="Vector" d="M0.0187988 0H640.05V480H0.0187988V0Z" fill="white" style="fill:white;fill-opacity:1;"/>
</g>
</mask>
<g mask="url(#mask0_2194_7185)">
<g id="Group">
<path id="Vector_2" fill-rule="evenodd" clip-rule="evenodd" d="M-79.95 0H880.05V480H-79.95V0Z" fill="#002170" style="fill:#002170;fill:color(display-p3 0.0000 0.1294 0.4392);fill-opacity:1;"/>
<path id="Vector_3" fill-rule="evenodd" clip-rule="evenodd" d="M-79.95 219.469H880.05V260.625H-79.95V219.469Z" fill="#FFB20D" style="fill:#FFB20D;fill:color(display-p3 1.0000 0.6980 0.0510);fill-opacity:1;"/>
<path id="Vector_4" fill-rule="evenodd" clip-rule="evenodd" d="M202.988 410.625L172.05 379.687L162.206 422.25L150.956 380.062L121.05 411.937L132.394 369.75L90.675 382.406L121.613 351.469L79.05 341.531L121.238 330.281L89.3625 300.469L131.55 311.719L118.8 270L149.738 300.937L159.675 258.375L170.925 300.562L200.738 268.688L189.488 310.875L231.206 298.219L200.269 329.156L242.831 339L200.644 350.25L232.519 380.25L190.331 368.812L202.988 410.625Z" fill="white" style="fill:white;fill-opacity:1;"/>
</g>
</g>
</g>
</g>
<defs>
<clipPath id="clip0_2194_7185">
<rect width="640" height="480" fill="white" style="fill:white;fill-opacity:1;"/>
</clipPath>
</defs>
</svg>
