<svg width="640" height="480" viewBox="0 0 640 480" fill="none" xmlns="http://www.w3.org/2000/svg">
<g id="pc" clip-path="url(#clip0_2194_7457)">
<path id="Vector" d="M0 0H640V480H0V0Z" fill="#003DA5" style="fill:#003DA5;fill:color(display-p3 0.0000 0.2392 0.6471);fill-opacity:1;"/>
<path id="pc-a" d="M150.547 266.043L158.228 262.326L156.987 253.846L162.963 259.957L170.617 256.143L166.711 263.681L172.591 269.819L164.204 268.437L160.299 275.975L158.961 267.522L150.547 266.043Z" fill="white" style="fill:white;fill-opacity:1;"/>
<path id="pc-a_2" d="M472.9 262.8L464.5 264.3L463.4 272.8L459.3 265.3L450.9 266.9L456.7 260.7L452.7 253.2L460.4 256.8L466.2 250.6L465.2 259.1L472.9 262.8Z" fill="white" style="fill:white;fill-opacity:1;"/>
<path id="pc-a_3" d="M473.982 233.609L465.986 236.587L466.423 245.147L461.049 238.501L453.07 241.577L457.668 234.44L452.391 227.776L460.611 229.941L465.209 222.804L465.745 231.346L473.982 233.609Z" fill="white" style="fill:white;fill-opacity:1;"/>
<path id="pc-a_4" d="M460.571 176.991L454.133 182.591L457.554 190.45L450.185 186.12L443.799 191.807L445.592 183.508L438.308 179.127L446.764 178.261L448.556 169.963L452.063 177.77L460.571 176.991Z" fill="white" style="fill:white;fill-opacity:1;"/>
<path id="pc-a_5" d="M469.828 204.696L462.493 209.055L464.454 217.399L457.977 211.821L450.677 216.274L453.925 208.43L447.542 202.817L456.016 203.477L459.264 195.633L461.318 203.941L469.828 204.696Z" fill="white" style="fill:white;fill-opacity:1;"/>
<path id="pc-a_6" d="M428.096 128.711L424.04 136.218L430.008 142.371L421.586 140.911L417.609 148.48L416.367 140.082L408.008 138.543L415.618 134.758L414.377 126.36L420.407 132.434L428.096 128.711Z" fill="white" style="fill:white;fill-opacity:1;"/>
<path id="pc-a_7" d="M380.71 94.9442L379.556 103.399L387.306 107.058L378.909 108.654L377.85 117.139L373.733 109.715L365.366 111.216L371.159 104.995L367.041 97.5701L374.823 101.134L380.71 94.9442Z" fill="white" style="fill:white;fill-opacity:1;"/>
<path id="pc-a_8" d="M405.925 109.692L403.277 117.804L410.248 122.79L401.701 122.859L399.142 131.018L396.418 122.977L387.919 122.958L394.73 117.873L392.007 109.832L399.025 114.73L405.925 109.692Z" fill="white" style="fill:white;fill-opacity:1;"/>
<path id="pc-a_9" d="M446.509 151.387L441.176 158.049L445.948 165.169L437.923 162.226L432.656 168.963L432.936 160.478L424.987 157.47L433.151 155.106L433.432 146.621L438.278 153.675L446.509 151.387Z" fill="white" style="fill:white;fill-opacity:1;"/>
<path id="pc-a_10" d="M324.474 80.0088L326.368 88.3288L334.911 89.0272L327.612 93.4759L329.606 101.791L323.14 96.2897L315.836 100.639L319.07 92.7776L312.603 87.276L321.141 87.8745L324.474 80.0088Z" fill="white" style="fill:white;fill-opacity:1;"/>
<path id="pc-a_11" d="M266.579 85.8145L271.279 92.9361L279.521 90.5843L274.254 97.3165L279.047 104.399L271.058 101.524L265.752 108.164L266.013 99.6683L258.024 96.7937L266.226 94.35L266.579 85.8145Z" fill="white" style="fill:white;fill-opacity:1;"/>
<path id="pc-a_12" d="M295.265 80.3027L298.616 88.15L307.146 87.3097L300.76 92.9918L304.209 100.817L296.863 96.5599L290.455 102.145L292.231 93.8321L284.885 89.5754L293.392 88.6377L295.265 80.3027Z" fill="white" style="fill:white;fill-opacity:1;"/>
<path id="pc-a_13" d="M214.428 111.619L221.334 116.632L228.221 111.53L225.66 119.685L232.637 124.628L224.148 124.748L221.518 132.831L218.773 124.786L210.283 124.906L217.101 119.733L214.428 111.619Z" fill="white" style="fill:white;fill-opacity:1;"/>
<path id="pc-a_14" d="M174.691 154.122L182.919 156.385L187.571 149.186L188.043 157.721L196.313 159.893L188.409 162.992L188.791 171.483L183.391 164.919L175.486 168.018L180.048 160.777L174.691 154.122Z" fill="white" style="fill:white;fill-opacity:1;"/>
<path id="pc-a_15" d="M192.644 131.08L200.335 134.777L206.199 128.526L205.137 137.008L212.886 140.624L204.555 142.259L203.412 150.682L199.273 143.258L190.942 144.894L196.725 138.585L192.644 131.08Z" fill="white" style="fill:white;fill-opacity:1;"/>
<path id="pc-a_16" d="M239.341 96.3666L245.239 102.533L252.927 98.7455L248.949 106.311L254.93 112.422L246.557 111.022L242.523 118.504L241.261 110.098L232.887 108.699L240.52 104.828L239.341 96.3666Z" fill="white" style="fill:white;fill-opacity:1;"/>
<path id="pc-a_17" d="M353.265 84.9423L353.641 93.4669L361.921 95.6814L353.945 98.7535L354.42 107.291L349.041 100.722L341.078 103.695L345.665 96.5389L340.286 89.9699L348.579 92.0853L353.265 84.9423Z" fill="white" style="fill:white;fill-opacity:1;"/>
<path id="pc-a_18" d="M152.449 207.889L160.947 207.112L162.769 198.737L166.213 206.56L174.719 205.683L168.411 211.365L171.756 219.179L164.391 214.935L158.083 220.617L159.805 212.233L152.449 207.889Z" fill="white" style="fill:white;fill-opacity:1;"/>
<path id="pc-a_19" d="M148.878 236.88L157.099 234.597L157.394 226.031L162.182 233.112L170.394 230.728L165.203 237.447L169.891 244.537L161.887 241.677L156.696 248.396L156.892 239.839L148.878 236.88Z" fill="white" style="fill:white;fill-opacity:1;"/>
<path id="pc-a_20" d="M169.228 321.149L175.109 314.967L170.964 307.465L178.708 311.083L184.531 304.82L183.527 313.251L191.191 316.927L182.854 318.584L181.85 327.015L177.624 319.572L169.228 321.149Z" fill="white" style="fill:white;fill-opacity:1;"/>
<path id="pc-a_21" d="M206.102 366.158L209.433 358.302L202.913 352.739L211.435 353.4L214.682 345.489L216.708 353.734L225.175 354.479L217.955 358.963L219.981 367.208L213.407 361.728L206.102 366.158Z" fill="white" style="fill:white;fill-opacity:1;"/>
<path id="pc-a_22" d="M185.637 345.315L190.318 338.181L184.898 331.542L193.165 333.716L197.774 326.513L198.293 334.987L206.491 337.234L198.585 340.355L199.104 348.829L193.616 342.263L185.637 345.315Z" fill="white" style="fill:white;fill-opacity:1;"/>
<path id="pc-a_23" d="M157.404 294.438L164.297 289.407L161.559 281.285L168.532 286.229L175.38 281.109L172.885 289.224L179.768 294.211L171.269 294.351L168.774 302.466L165.947 294.388L157.404 294.438Z" fill="white" style="fill:white;fill-opacity:1;"/>
<path id="pc-a_24" d="M161.147 180.003L169.647 180.758L172.937 172.844L174.927 181.157L183.453 181.815L176.23 186.277L178.124 194.564L171.637 189.071L164.414 193.533L167.608 185.593L161.147 180.003Z" fill="white" style="fill:white;fill-opacity:1;"/>
<path id="pc-a_25" d="M229.965 383.006L231.837 374.681L224.427 370.373L232.93 369.5L234.71 361.136L238.178 368.886L246.642 368.104L240.34 373.808L243.808 381.557L236.359 377.341L229.965 383.006Z" fill="white" style="fill:white;fill-opacity:1;"/>
<path id="pc-a_26" d="M256.455 395.315L256.809 386.79L248.748 383.876L256.958 381.497L257.214 372.95L262.011 379.954L270.199 377.672L265.018 384.41L269.816 391.415L261.734 388.599L256.455 395.315Z" fill="white" style="fill:white;fill-opacity:1;"/>
<path id="Vector_2" d="M444.9 313C430.554 339.997 408.352 362.004 381.229 376.11C354.106 390.216 323.34 395.757 293 392" stroke="#00AEC7" style="stroke:#00AEC7;stroke:color(display-p3 0.0000 0.6824 0.7804);stroke-opacity:1;" stroke-width="13.7"/>
<path id="Vector_3" d="M474.3 288.5C474.3 288.5 449 277.2 398 277C347 276.8 292.8 290.9 262.9 290.5C232.9 290.2 224.1 290.2 206.2 286.8C206.2 286.8 233.2 295.8 262 298.4C290.7 301.1 357.2 288 390.4 285.9C424.4 283.8 450.8 283.8 474.2 288.5" fill="white" style="fill:white;fill-opacity:1;"/>
<path id="Vector_4" d="M275 303.2C275 303.2 294.2 304.2 331 300.2C368 296.2 394 290.8 423.1 290C452.2 289.2 484.3 294.4 491.1 296.1C491.1 296.1 442.6 294.8 422.3 297.7C402 300.6 349.3 307.2 321.6 307.9C293.9 308.6 284.3 304.7 275 303.2ZM194.5 275.4C194.5 275.4 245.5 289 291.7 280.1C344 269.9 374.7 270.1 398.1 270.1C421.5 269.9 446 275.8 446 275.8C446 275.8 350 175.6 249.5 122.5C249.5 122.5 242 207 194.5 275.4Z" fill="#00AEC7" style="fill:#00AEC7;fill:color(display-p3 0.0000 0.6824 0.7804);fill-opacity:1;"/>
<path id="Vector_5" d="M274.2 197.5C274.2 197.5 272.8 192.2 265.9 193C265.9 193 270.3 191 272.3 192C274.3 193.1 274.7 193.4 274.3 197.5M257.5 188.1C257.5 188.1 259 187.6 259.7 187.8C259.7 187.8 260.7 191.1 262.9 192.3C262.9 192.3 259.1 192 257.5 188.1ZM279.7 193.1C277.55 190.411 274.421 188.685 271 188.3C269.2 188.3 265 191.8 265 191.8C264 189.8 264.5 188.4 264.5 188.4C266.5 188.6 268.2 189.4 268.2 189.4C267.4 186.8 266.2 185.6 266.2 185.6C270.2 184.6 275 188.1 275 188.1C272.372 184.473 268.419 182.029 264 181.3C262.8 181.2 261.3 182.9 261.3 182.9C253.5 182.9 251.4 187.2 251.4 187.2C254.7 192.3 261.4 193.5 261.4 193.5C249.6 192.2 249.9 201.5 249.9 201.5L260.8 195.8C256.6 219.9 239.8 230.8 238.4 232.1C237 233.5 237.9 235.1 239.9 235.3C241 235.3 242.4 236.3 246.1 231.9C255.063 222.058 260.787 209.701 262.5 196.5L262.7 196.7C263.9 199.6 263.1 202.1 263.3 204C263.5 205.9 267.7 210 267.7 210C267.7 210 270 205.5 269.7 202.9C269.2 200.2 264.2 195.3 264.2 195.3C272 193.8 272.4 206.9 272.4 206.9C275.4 203.4 274.8 199.6 274.8 199.6C274.8 199.6 281.1 195 279.7 193.2" fill="white" style="fill:white;fill-opacity:1;"/>
</g>
<defs>
<clipPath id="clip0_2194_7457">
<rect width="640" height="480" fill="white" style="fill:white;fill-opacity:1;"/>
</clipPath>
</defs>
</svg>
