<svg width="640" height="480" viewBox="0 0 640 480" fill="none" xmlns="http://www.w3.org/2000/svg">
<g id="pf" clip-path="url(#clip0_2194_7492)">
<g id="Clip path group">
<mask id="mask0_2194_7492" style="mask-type:luminance" maskUnits="userSpaceOnUse" x="0" y="0" width="640" height="480">
<g id="pf-a">
<path id="Vector" d="M0 0H640V480H0V0Z" fill="white" style="fill:white;fill-opacity:1;"/>
</g>
</mask>
<g mask="url(#mask0_2194_7492)">
<g id="Group">
<path id="Vector_2" d="M0 0H640V480H0V0Z" fill="white" style="fill:white;fill-opacity:1;"/>
<path id="Vector_3" d="M80 0H560V480H80V0Z" fill="white" style="fill:white;fill-opacity:1;"/>
<path id="Vector_4" fill-rule="evenodd" clip-rule="evenodd" d="M277.3 340.8C277.3 340.8 288.1 332 298.7 332C309.3 332 312.1 339.3 319.5 339.9C326.8 340.5 332.9 332.6 342 332.3C351.1 332 362.5 338.7 362.5 338.7L322.7 350.7L277.3 340.7V340.8ZM254.4 327.8L389.8 328.5C389.8 328.5 378.1 315.8 364.3 315.5C350.5 315.3 354.3 321.5 343.8 322.3C333.2 323.2 330.6 315.9 320.9 316.1C311.2 316.3 305.7 322.3 298.4 322.6C291.1 322.9 281.7 315.3 276.1 315.6C270.5 315.9 250.6 324.3 250.6 324.3L254.4 327.9V327.8ZM237.1 311.8L404.1 312.3C406.8 308.5 395.9 299.4 386 298.6C377.8 298.9 372 307.1 365.2 307.4C358.4 307.7 350.8 298.9 343.2 299.2C335.6 299.5 327.7 307.4 320.1 307.4C312.5 307.4 306.9 298.9 297.2 298.9C287.5 298.9 283.2 308.2 275.8 307.7C268.4 307.2 262 298.3 255 298.3C248 298.3 236.3 308.8 234 308.3C231.6 307.6 236.9 312.6 237.1 311.7V311.8Z" fill="#083D9C" stroke="#083D9C" style="fill:#083D9C;fill:color(display-p3 0.0314 0.2392 0.6118);fill-opacity:1;stroke:#083D9C;stroke:color(display-p3 0.0314 0.2392 0.6118);stroke-opacity:1;" stroke-width="2.66667"/>
<path id="Vector_5" fill-rule="evenodd" clip-rule="evenodd" d="M301.3 218.9L339.7 229.1V174.3C322.1 175.3 307.5 140.9 338.5 138.6C308 134.2 304.5 142.1 301 150.6L301.3 218.9Z" fill="#FF0000" stroke="black" style="fill:#FF0000;fill:color(display-p3 1.0000 0.0000 0.0000);fill-opacity:1;stroke:black;stroke-opacity:1;" stroke-width="2.5" stroke-linejoin="round"/>
<g id="Vector_6">
<path fill-rule="evenodd" clip-rule="evenodd" d="M277 258.7L363.7 259Z" fill="#083D9C" style="fill:#083D9C;fill:color(display-p3 0.0314 0.2392 0.6118);fill-opacity:1;"/>
<path d="M277 258.7L363.7 259" stroke="#083D9C" style="stroke:#083D9C;stroke:color(display-p3 0.0314 0.2392 0.6118);stroke-opacity:1;" stroke-width="5" stroke-linecap="round"/>
</g>
<path id="Vector_7" d="M281.1 238L291.4 251.7M281.1 251.7L292.2 238.2M287 237L286.7 245.5M297.5 237.9L307.8 251.7M297.5 251.7L308.6 238.2M303.4 237L303.1 245.5M314.2 237.9L324.5 251.7M314.2 251.7L325.3 238.2M320.1 237L319.8 245.5M331.5 237.9L341.7 251.7M331.5 251.7L342.6 238.2M337.3 237L337.1 245.5M348.1 237.9L358.4 251.7M348.2 251.7L359.3 238.2M354 237L353.7 245.5" stroke="black" style="stroke:black;stroke-opacity:1;" stroke-width="4" stroke-linecap="round"/>
<path id="Vector_8" fill-rule="evenodd" clip-rule="evenodd" d="M218.7 259.6L255.6 259.9V236.8L213.4 234.7L218.7 259.6ZM216.9 227.6L256.2 231.5L255.9 215.1L217.5 199.8L216.9 227.7V227.6ZM224.9 194.9L255 209.5L259.3 205C259.3 205 256.5 203.1 256.7 201.3C256.7 199.6 259.5 199.3 259.5 197.3C259.5 195.6 256.5 195.3 256.4 193.6C256.2 191.6 258.8 189.6 258.8 189.6L231.6 165.9L224.8 194.9H224.9ZM422.9 259.9H383.9L383.6 237.3L426.4 234.1L422.9 259.9ZM384.2 232L430.5 226.4L420.5 199.7L383.9 215.3L384.2 232ZM417.9 192.4L384.5 210C384 208 383.6 206.2 381.3 204.7C381.3 204.7 383.3 203.5 383.3 201.5C383.3 199.5 380.7 199.1 380.7 198C380.7 196.9 383.1 195.8 383.3 193.1C383 191.3 380.7 188.7 381.1 188.2L407.1 168.4L417.9 192.4ZM345.5 231.5L362.2 230.8L362.5 224.1L345.5 231.5ZM294.5 231L277 230.5V223.5L294.6 231H294.5ZM294.5 229L277 220V208.2C277 208.2 275 208.5 275.2 206.2C275.3 201.3 288.1 215.1 294.6 219.6L294.5 229ZM345.5 227.9V220.2C345.5 220.2 361.3 206 364.6 203.3C364.6 206.3 362.8 208.5 362.8 208.5V219.7L345.5 227.9ZM243 163.8L260.8 183.5C261.2 181.7 265.3 181.4 269.4 181.7C273.5 182 276.7 181.4 276.7 184.3C276.7 187.2 274.7 186.8 274.7 188.9C274.7 191 277.7 190.8 277.7 193.4C277.7 196 275.5 195.5 275.5 197.5C275.5 199.2 277.9 199.3 277.9 199.3L294.5 215.4V198.2L260.3 144.5L243 163.8ZM270.4 143.4L293.7 190.9C293.7 190.9 293.9 147.1 297.8 144.8L291.3 132.8L270.4 143.4ZM371.4 145.3L345.4 191.5V172C345.4 172 347.6 168.8 344.2 169C340.8 169.2 336.7 168.8 336.7 168.8L347.1 132.2L371.4 145.3ZM398 165C397.7 165.5 380.5 183 380.5 183C379.7 181 374.5 182 369.5 182C364.5 182 363.9 183.6 364.2 184.9C364.7 188.2 366.4 185.7 366.4 188.9C366.4 192 364 190.9 363.7 193.1C364 195.8 367.5 195.1 365.4 197.1L345.5 216.3V198.1L382.6 140.5L398 165Z" fill="#EF7D08" style="fill:#EF7D08;fill:color(display-p3 0.9373 0.4902 0.0314);fill-opacity:1;"/>
<path id="Vector_9" fill-rule="evenodd" clip-rule="evenodd" d="M309.8 268.4C301.5 282.2 279.2 278.1 273.9 268.4C272.4 268 273.3 208.9 273.3 208.9C273.3 208.9 270.8 207.8 270.7 205.9C270.6 204 274.1 203.9 274.1 201.6C274.1 199.3 270.5 200.2 270.4 197.8C270.4 195.6 274.3 195.8 274.1 193.8C273.9 191.4 269.8 191.8 269.6 189.6C269.6 187.9 272.6 186.4 273.4 185.6H270.6L264.2 185.7C259.6 185.7 264.2 186.7 264.2 189.3C264.2 191 261.9 192.2 261.7 193.6C261.6 195.2 264.9 196.2 265 198.1C265 199.7 261.7 199.8 261.8 201.4C262 203.9 264.8 204.5 264.7 206.1C264.7 207.6 261.1 208.2 261 209.4C261.2 211.8 261.6 270.2 261.6 270.2C267.3 300 300.4 307.5 309.8 268.4ZM331.7 268.4C340 282.2 362.3 278.1 367.5 268.4C369.1 268 368.2 208.9 368.2 208.9C368.2 208.9 370.7 207.8 370.8 205.9C370.9 204 367.6 203.9 367.6 201.6C367.6 199.3 371 200.2 371 197.8C371 195.6 367.5 195.8 367.7 193.6C367.9 191.4 370.7 191.6 370.8 189.4C370.9 187.5 369.1 186.4 368.2 185.6H370.9L377.3 185.7C381.8 185.7 377.3 186.7 377.3 189.3C377.3 191 379.6 192.2 379.8 193.6C379.8 195.2 376.6 196.2 376.5 198.1C376.5 199.7 379.8 199.8 379.7 201.4C379.5 203.9 376.7 204.5 376.7 206.1C376.8 207.6 380.4 208.2 380.4 209.4L379.9 270.2C374.2 300 341 307.5 331.7 268.4Z" fill="#FF0000" stroke="black" style="fill:#FF0000;fill:color(display-p3 1.0000 0.0000 0.0000);fill-opacity:1;stroke:black;stroke-opacity:1;" stroke-width="2.5" stroke-linejoin="round"/>
<path id="Vector_10" fill-rule="evenodd" clip-rule="evenodd" d="M301.7 295.6H339C339.3 295.3 330.6 282.6 320.4 283.6C308.9 283.9 301.1 295.6 301.7 295.6ZM420.6 294.6H369.6C369.6 294.6 376.2 290.8 378 287.2C381.3 289 380.4 290.8 387 291.1C393.6 291.4 399.9 283.6 406.2 283.9C412.5 284.2 420.6 294.9 420.6 294.7V294.6ZM219.6 294.6H270.6C270.6 294.6 264 290.8 262.2 287.2C258.9 289 259.8 290.8 253.2 291.1C246.6 291.4 240.2 283.6 234 283.9C227.7 284.2 219.6 294.9 219.6 294.7V294.6ZM223.4 278.6L259.7 278.9C259.7 278.9 257.4 273.9 257.1 267.8C247.7 264.6 240.1 274.8 233.3 275.1C226.6 275.4 219.6 267.8 219.6 267.8L223.4 278.6ZM417.4 278.6L381 278.9C381 278.9 383.3 273.9 383.6 267.8C393 264.6 400.6 274.8 407.4 275.1C414.1 275.4 421.1 267.8 421.1 267.8L417.4 278.6ZM311 279L329.4 278.5C329.4 278.5 329.7 272.9 320.1 272.9C310.5 272.9 311.3 279.3 311 279ZM299.8 271.1C303.312 269.564 306.202 266.885 308 263.5L295.4 263.8C295.4 263.8 289.6 267.3 286.7 271.1H299.8ZM340.6 271.1C337.088 269.564 334.198 266.885 332.4 263.5L345 263.8C345 263.8 350.8 267.3 353.7 271.1H340.6Z" fill="#083D9C" stroke="#083D9C" style="fill:#083D9C;fill:color(display-p3 0.0314 0.2392 0.6118);fill-opacity:1;stroke:#083D9C;stroke:color(display-p3 0.0314 0.2392 0.6118);stroke-opacity:1;" stroke-width="2.66667"/>
<path id="Vector_11" fill-rule="evenodd" clip-rule="evenodd" d="M-40 360H680V480H-40V360ZM-40 0H680V120H-40V0Z" fill="#DE2010" style="fill:#DE2010;fill:color(display-p3 0.8706 0.1255 0.0627);fill-opacity:1;"/>
</g>
</g>
</g>
</g>
<defs>
<clipPath id="clip0_2194_7492">
<rect width="640" height="480" fill="white" style="fill:white;fill-opacity:1;"/>
</clipPath>
</defs>
</svg>
