<svg width="640" height="480" viewBox="0 0 640 480" fill="none" xmlns="http://www.w3.org/2000/svg">
<g id="pg" clip-path="url(#clip0_2194_7507)">
<g id="Group">
<path id="Vector" fill-rule="evenodd" clip-rule="evenodd" d="M1.6001 0L1.1001 480H641.1L1.6001 0Z" fill="#000001" style="fill:#000001;fill:color(display-p3 0.0000 0.0000 0.0039);fill-opacity:1;"/>
<path id="Vector_2" fill-rule="evenodd" clip-rule="evenodd" d="M640.6 480L641.1 0H1.1001L640.6 480Z" fill="#FF0000" style="fill:#FF0000;fill:color(display-p3 1.0000 0.0000 0.0000);fill-opacity:1;"/>
</g>
<path id="Vector_3" d="M396.24 119.445L387.805 119.002C385.141 112.809 377.815 110.597 373.153 113.251L347.403 112.809L363.164 119.666C367.382 130.504 380.701 132.716 380.701 132.716C379.369 152.181 360.944 130.283 345.405 141.343C334.305 147.979 334.305 155.721 328.312 168.55C326.314 172.089 318.544 181.379 318.544 181.379L331.642 180.273L327.424 185.803L342.963 183.591L339.633 186.688C341.853 187.13 357.392 182.927 357.392 182.927L356.282 188.015L374.041 181.6C374.041 181.6 377.593 184.476 380.701 185.803L382.921 176.955L391.801 179.167L394.02 170.319C407.34 188.015 411.78 205.71 436.198 210.134L433.978 201.287L453.291 210.134L455.289 206.374C465.945 213.895 474.602 213.673 480.596 214.558L476.156 203.498L480.596 205.71L473.936 188.015L480.596 190.227L471.717 176.955L475.046 174.743L473.936 168.107C487.256 172.531 505.015 179.167 507.235 194.651C509.455 218.982 482.816 225.618 465.057 223.406C478.376 234.466 502.795 230.042 513.894 218.982C518.334 214.558 520.554 207.922 522.774 201.287C524.994 207.922 529.434 216.77 529.434 225.618C527.214 245.525 500.575 252.161 482.816 254.373C502.795 265.433 538.313 252.161 540.533 223.406C540.533 199.075 524.994 188.015 518.334 176.955L516.114 165.011L522.774 168.107C522.774 168.107 518.778 160.808 518.334 159.26C518.334 159.26 511.453 140.458 509.011 136.255L513.894 137.14L495.691 114.357L500.797 113.915C500.797 113.915 479.708 97.3254 473.936 95.1134L480.596 92.9015C467.277 86.2657 451.738 90.6895 438.418 99.5373L440.638 92.9015L436.642 93.3439V85.6021L440.638 79.6298L433.978 77.4179L438.418 66.3582L431.759 68.5701L433.978 57.5104C433.978 57.5104 429.095 59.7224 425.987 59.5012L429.539 51.9806C427.319 48.6627 429.539 42.0269 429.539 42.0269C413.999 44.2388 411.78 46.4507 402.9 59.7224C389.581 84.0537 394.02 95.1134 396.24 119.445Z" fill="#FFCC00" stroke="#FFCC00" style="fill:#FFCC00;fill:color(display-p3 1.0000 0.8000 0.0000);fill-opacity:1;stroke:#FFCC00;stroke:color(display-p3 1.0000 0.8000 0.0000);stroke-opacity:1;" stroke-width="2.4375"/>
<path id="Vector_4" fill-rule="evenodd" clip-rule="evenodd" d="M480.152 155.721C481.262 157.711 493.916 163.684 503.239 168.992C500.797 158.817 482.372 156.605 480.152 155.721Z" fill="#FF0000" stroke="#FF0000" style="fill:#FF0000;fill:color(display-p3 1.0000 0.0000 0.0000);fill-opacity:1;stroke:#FF0000;stroke:color(display-p3 1.0000 0.0000 0.0000);stroke-opacity:1;" stroke-width="3.10228"/>
<path id="Vector_5" fill-rule="evenodd" clip-rule="evenodd" d="M175 399L160.8 390L141.8 399.1L146.1 382.9L131.6 367.8L148.3 366.8L158.3 348.4L164.4 363.9L185.1 367.7L172.1 378.3L175 399ZM211.2 320L204.6 317L198.3 320.6L199.3 313.4L193.9 308.5L201 307.2L204 300.6L207.5 307L214.7 307.8L209.7 313L211.2 320ZM243.2 274.8L228.7 267.8L214.8 275.6L217.1 259.9L205.3 249.1L221 246.3L227.6 231.9L235.2 245.9L251 247.7L240 259.2L243.2 274.8ZM177.4 211.8L160.4 203.3L143.9 212.4L146.7 193.8L132.9 180.8L151.6 177.8L159.6 160.8L168.3 177.5L187.1 179.8L173.8 193.2L177.4 211.8ZM116.6 277.2L99.6 267.2L82.6 277.5L86.9 258.2L71.8 245.2L91.5 243.4L99.2 225.1L107.1 243.3L126.9 244.9L112 257.9L116.6 277.2Z" fill="white" style="fill:white;fill-opacity:1;"/>
</g>
<defs>
<clipPath id="clip0_2194_7507">
<rect width="640" height="480" fill="white" style="fill:white;fill-opacity:1;"/>
</clipPath>
</defs>
</svg>
