<svg width="640" height="480" viewBox="0 0 640 480" fill="none" xmlns="http://www.w3.org/2000/svg">
<g id="pk" clip-path="url(#clip0_2194_7519)">
<g id="Clip path group">
<mask id="mask0_2194_7519" style="mask-type:luminance" maskUnits="userSpaceOnUse" x="-1" y="0" width="641" height="480">
<g id="pk-a">
<path id="Vector" d="M-0.03125 0H639.906V480H-0.03125V0Z" fill="white" style="fill:white;fill-opacity:1;"/>
</g>
</mask>
<g mask="url(#mask0_2194_7519)">
<g id="Group">
<path id="Vector_2" fill-rule="evenodd" clip-rule="evenodd" d="M-40.0625 0H679.938V480H-40.0625V0Z" fill="#0C590B" style="fill:#0C590B;fill:color(display-p3 0.0471 0.3490 0.0431);fill-opacity:1;"/>
<path id="Vector_3" fill-rule="evenodd" clip-rule="evenodd" d="M-40.0625 0H140.406V480H-40.0625V0Z" fill="white" style="fill:white;fill-opacity:1;"/>
<g id="Group_2">
<path id="Vector_4" fill-rule="evenodd" clip-rule="evenodd" d="M427.469 211.312L398.219 205.125L382.844 230.719L379.656 201.094L350.594 194.344L377.781 182.156L375.25 152.438L395.312 174.562L422.781 162.937L407.875 188.812L427.562 211.312H427.469Z" fill="white" style="fill:white;fill-opacity:1;"/>
<path id="Vector_5" fill-rule="evenodd" clip-rule="evenodd" d="M438.438 286.875C432.218 300.506 423.36 312.77 412.375 322.959C401.39 333.148 388.495 341.059 374.435 346.237C360.375 351.415 345.429 353.756 330.459 353.125C315.49 352.494 300.793 348.904 287.219 342.562C273.569 336.256 261.297 327.321 251.105 316.267C240.912 305.214 232.999 292.259 227.818 278.144C222.637 264.029 220.29 249.031 220.911 234.009C221.532 218.986 225.109 204.233 231.438 190.594C237.792 176.445 247.026 163.776 258.552 153.397C270.077 143.017 283.64 135.155 298.375 130.312C294.515 133.527 290.822 136.937 287.313 140.531C269.022 160.788 259.312 187.355 260.231 214.632C261.15 241.909 272.625 267.763 292.237 286.743C311.849 305.723 338.065 316.345 365.357 316.37C392.65 316.394 418.885 305.819 438.531 286.875H438.438Z" fill="white" style="fill:white;fill-opacity:1;"/>
</g>
</g>
</g>
</g>
</g>
<defs>
<clipPath id="clip0_2194_7519">
<rect width="640" height="480" fill="white" style="fill:white;fill-opacity:1;"/>
</clipPath>
</defs>
</svg>
