<svg width="640" height="480" viewBox="0 0 640 480" fill="none" xmlns="http://www.w3.org/2000/svg">
<g id="pr" clip-path="url(#clip0_2194_7589)">
<g id="Clip path group">
<mask id="mask0_2194_7589" style="mask-type:luminance" maskUnits="userSpaceOnUse" x="0" y="0" width="641" height="480">
<g id="pr-a">
<path id="Vector" d="M0.03125 0H640.063V480H0.03125V0Z" fill="white" style="fill:white;fill-opacity:1;"/>
</g>
</mask>
<g mask="url(#mask0_2194_7589)">
<g id="Group">
<path id="Vector_2" fill-rule="evenodd" clip-rule="evenodd" d="M0.03125 0H720.031V480H0.03125V0Z" fill="#ED0000" style="fill:#ED0000;fill:color(display-p3 0.9294 0.0000 0.0000);fill-opacity:1;"/>
<path id="Vector_3" fill-rule="evenodd" clip-rule="evenodd" d="M0.03125 96H720.031V192H0.03125V96ZM0.03125 288H720.031V384H0.03125V288Z" fill="white" style="fill:white;fill-opacity:1;"/>
<path id="Vector_4" fill-rule="evenodd" clip-rule="evenodd" d="M0.03125 0L413.187 239.719L0.03125 479.062V0Z" fill="#0050F0" style="fill:#0050F0;fill:color(display-p3 0.0000 0.3137 0.9412);fill-opacity:1;"/>
<path id="Vector_5" fill-rule="evenodd" clip-rule="evenodd" d="M181.625 305.156L137.188 271.875L92.9375 305.437L109.438 250.969L65.1875 217.219L119.844 216.844L136.812 162.469L154.156 216.656L208.812 216.75L164.844 250.781L181.625 305.156Z" fill="white" style="fill:white;fill-opacity:1;"/>
</g>
</g>
</g>
</g>
<defs>
<clipPath id="clip0_2194_7589">
<rect width="640" height="480" fill="white" style="fill:white;fill-opacity:1;"/>
</clipPath>
</defs>
</svg>
