<svg width="640" height="480" viewBox="0 0 640 480" fill="none" xmlns="http://www.w3.org/2000/svg">
<g id="pt" clip-path="url(#clip0_2194_7608)">
<path id="Vector" d="M256 0H640V480H256V0Z" fill="#FF0000" style="fill:#FF0000;fill:color(display-p3 1.0000 0.0000 0.0000);fill-opacity:1;"/>
<path id="Vector_2" d="M0 0H256V480H0V0Z" fill="#006600" style="fill:#006600;fill:color(display-p3 0.0000 0.4000 0.0000);fill-opacity:1;"/>
<g id="Group">
<path id="Vector_3" fill-rule="evenodd" clip-rule="evenodd" d="M339.5 306.2C307.2 305.2 159.5 213 158.5 198.2L166.6 184.7C181.3 206 332.3 295.7 347.2 292.5L339.5 306.2Z" fill="#FFFF00" stroke="black" style="fill:#FFFF00;fill:color(display-p3 1.0000 1.0000 0.0000);fill-opacity:1;stroke:black;stroke-opacity:1;" stroke-width="0.6" stroke-linecap="round" stroke-linejoin="round"/>
<path id="Vector_4" fill-rule="evenodd" clip-rule="evenodd" d="M164.9 182.8C162 190.6 203.5 216.2 253.3 246.6C303.1 277 346.2 295.6 349.3 293L350.8 290.2C350.2 291.267 348.767 291.467 346.5 290.8C333 286.9 297.9 270.8 254.4 244.4C210.8 218 173 193.7 167.1 183.4C166.627 182.439 166.42 181.368 166.5 180.3H166.3L165.1 182.5L164.9 182.8ZM340.2 306.6C339.733 307.467 338.567 307.733 336.7 307.4C324.7 306.1 288.1 288.3 244.8 262.4C194.4 232.2 152.8 204.8 157.4 197.6L158.6 195.4L158.8 195.5C154.8 207.7 240.9 256.9 246 260.1C295.8 290.9 337.8 309 341.5 304.3L340.2 306.6Z" fill="#FFFF00" stroke="black" style="fill:#FFFF00;fill:color(display-p3 1.0000 1.0000 0.0000);fill-opacity:1;stroke:black;stroke-opacity:1;" stroke-width="0.6" stroke-linecap="round" stroke-linejoin="round"/>
<path id="Vector_5" fill-rule="evenodd" clip-rule="evenodd" d="M256.2 207.2C288.4 206.9 328.2 202.8 351.2 193.6L346.2 185.6C332.7 193.1 292.7 198.1 255.9 198.8C212.5 198.4 181.8 194.3 166.4 184L161.8 192.6C190 204.6 219 207.1 256.2 207.2Z" fill="#FFFF00" stroke="black" style="fill:#FFFF00;fill:color(display-p3 1.0000 1.0000 0.0000);fill-opacity:1;stroke:black;stroke-opacity:1;" stroke-width="0.6" stroke-linecap="round" stroke-linejoin="round"/>
<g id="Vector_6">
<path fill-rule="evenodd" clip-rule="evenodd" d="M352.5 193.8C351.7 195.1 336.7 200.2 314.7 204C295.307 206.94 275.715 208.377 256.1 208.3C237.307 208.371 218.531 207.168 199.9 204.7C176.8 201.1 164.9 196.1 160.4 194.3L161.5 192.1C174.2 197.1 186.2 200.1 200.2 202.3C218.695 204.796 237.338 206.032 256 206C275.513 206.02 295.001 204.582 314.3 201.7C336.8 198 349.1 193.3 350.9 191.2L352.5 193.8ZM348.1 185.7C345.7 187.7 333.5 192 312.1 195.4C293.621 198.074 274.972 199.411 256.3 199.4C234.3 199.4 216.2 197.8 202.5 195.8C180.7 193 169.1 187.8 164.9 186.4L166.2 184.2C169.5 185.9 180.6 190.4 202.7 193.5C220.466 195.88 238.376 197.016 256.3 196.9C274.839 196.906 293.354 195.569 311.7 192.9C333.2 189.9 344.8 184.5 346.6 183.1L348.1 185.7ZM150.3 246C170.1 256.7 214.2 262 255.9 262.4C293.9 262.5 343.3 256.6 361.8 246.8L361.3 236.1C355.5 245.1 302.5 253.8 255.5 253.5C208.5 253.2 164.8 245.9 150.2 236.5V246" fill="#FFFF00" style="fill:#FFFF00;fill:color(display-p3 1.0000 1.0000 0.0000);fill-opacity:1;"/>
<path d="M150.3 246C170.1 256.7 214.2 262 255.9 262.4C293.9 262.5 343.3 256.6 361.8 246.8L361.3 236.1C355.5 245.1 302.5 253.8 255.5 253.5C208.5 253.2 164.8 245.9 150.2 236.5V246M352.5 193.8C351.7 195.1 336.7 200.2 314.7 204C295.307 206.94 275.715 208.377 256.1 208.3C237.307 208.371 218.531 207.168 199.9 204.7C176.8 201.1 164.9 196.1 160.4 194.3L161.5 192.1C174.2 197.1 186.2 200.1 200.2 202.3C218.695 204.796 237.338 206.032 256 206C275.513 206.02 295.001 204.582 314.3 201.7C336.8 198 349.1 193.3 350.9 191.2L352.5 193.8ZM348.1 185.7C345.7 187.7 333.5 192 312.1 195.4C293.621 198.074 274.972 199.411 256.3 199.4C234.3 199.4 216.2 197.8 202.5 195.8C180.7 193 169.1 187.8 164.9 186.4L166.2 184.2C169.5 185.9 180.6 190.4 202.7 193.5C220.466 195.88 238.376 197.016 256.3 196.9C274.839 196.906 293.354 195.569 311.7 192.9C333.2 189.9 344.8 184.5 346.6 183.1L348.1 185.7Z" stroke="black" style="stroke:black;stroke-opacity:1;" stroke-width="0.6" stroke-linecap="round" stroke-linejoin="round"/>
</g>
<g id="Vector_7">
<path fill-rule="evenodd" clip-rule="evenodd" d="M362.8 244.5V247C360 250.4 342.6 255.4 320.8 259C299.142 262.113 277.28 263.584 255.4 263.4C234.653 263.577 213.924 262.139 193.4 259.1C178.086 257.33 163.121 253.286 149 247.1V244.2C158.7 250.6 184.9 255.4 193.7 256.8C209.5 259.2 229.8 261 255.4 261C282.3 261 303.8 259.1 320.4 256.6C336.1 254.3 358.4 248.4 362.8 244.5ZM362.8 235.5V238C360 241.3 342.6 246.3 320.8 249.9C299.145 253.047 277.282 254.551 255.4 254.4C234.655 254.522 213.93 253.085 193.4 250.1C178.086 248.33 163.121 244.286 149 238.1V235.1C158.7 241.6 185 246.3 193.7 247.7C214.128 250.692 234.754 252.13 255.4 252C282.3 252 303.9 250 320.4 247.5C336.1 245.3 358.4 239.4 362.8 235.5ZM255.8 304.3C210.2 304.1 171.1 291.9 162.8 289.9L168.8 299.3C196.85 309.23 226.448 314.073 256.2 313.6C290.9 312.6 321.2 309.9 342.5 299.5L348.7 289.7C334.2 296.6 284.7 304.3 255.7 304.3" fill="#FFFF00" style="fill:#FFFF00;fill:color(display-p3 1.0000 1.0000 0.0000);fill-opacity:1;"/>
<path d="M255.8 304.3C210.2 304.1 171.1 291.9 162.8 289.9L168.8 299.3C196.85 309.23 226.448 314.073 256.2 313.6C290.9 312.6 321.2 309.9 342.5 299.5L348.7 289.7C334.2 296.6 284.7 304.3 255.7 304.3M362.8 244.5V247C360 250.4 342.6 255.4 320.8 259C299.142 262.113 277.28 263.584 255.4 263.4C234.653 263.577 213.924 262.139 193.4 259.1C178.086 257.33 163.121 253.286 149 247.1V244.2C158.7 250.6 184.9 255.4 193.7 256.8C209.5 259.2 229.8 261 255.4 261C282.3 261 303.8 259.1 320.4 256.6C336.1 254.3 358.4 248.4 362.8 244.5ZM362.8 235.5V238C360 241.3 342.6 246.3 320.8 249.9C299.145 253.047 277.282 254.551 255.4 254.4C234.655 254.522 213.93 253.085 193.4 250.1C178.086 248.33 163.121 244.286 149 238.1V235.1C158.7 241.6 185 246.3 193.7 247.7C214.128 250.692 234.754 252.13 255.4 252C282.3 252 303.9 250 320.4 247.5C336.1 245.3 358.4 239.4 362.8 235.5Z" stroke="black" style="stroke:black;stroke-opacity:1;" stroke-width="0.6" stroke-linecap="round" stroke-linejoin="round"/>
</g>
<path id="Vector_8" fill-rule="evenodd" clip-rule="evenodd" d="M344.9 297.3L342.1 301.3C332.1 304.9 316.1 308.7 309.5 309.7C291.789 312.997 273.815 314.671 255.8 314.7C215.4 314.1 182.3 306.2 166.8 299.4L165.5 297.3L165.7 296.9L167.8 297.8C196.262 307.21 226.023 312.103 256 312.3C274.8 312.3 293.5 310.2 308.6 307.5C331.8 302.8 341.2 299.3 344.1 297.7L344.8 297.3H344.9ZM350.2 288.5L348.2 292C342.8 294 328.2 298.2 306.9 301.2C292.9 303.1 284.2 305 256.3 305.5C224.406 305.185 192.707 300.474 162.1 291.5L161 289C192.098 297.595 224.143 302.298 256.4 303C281.9 302.5 292.8 300.6 306.7 298.7C331.5 294.9 344 290.7 347.7 289.6V289.4L350.3 288.4L350.2 288.5Z" fill="#FFFF00" stroke="black" style="fill:#FFFF00;fill:color(display-p3 1.0000 1.0000 0.0000);fill-opacity:1;stroke:black;stroke-opacity:1;" stroke-width="0.6" stroke-linecap="round" stroke-linejoin="round"/>
<path id="Vector_9" fill-rule="evenodd" clip-rule="evenodd" d="M350.8 237.6C350.9 267.6 335.5 294.6 323.2 306.4C305.051 324.144 280.779 334.239 255.4 334.6C225.1 335.1 196.6 315.4 188.9 306.7C171.674 288.433 161.87 264.404 161.4 239.3C163.2 206.5 176.1 183.7 194.7 168C212.785 153.156 235.503 145.123 258.9 145.3C272.564 145.95 285.94 149.454 298.168 155.585C310.396 161.716 321.205 170.339 329.9 180.9C342.4 196.1 347.9 212.6 350.8 237.6ZM255.6 135C283.575 134.999 310.416 146.057 330.272 165.763C350.128 185.469 361.389 212.226 361.6 240.2C361.6 254.081 358.866 267.826 353.554 280.65C348.242 293.474 340.456 305.126 330.641 314.941C320.826 324.756 309.174 332.542 296.35 337.854C283.525 343.166 269.781 345.9 255.9 345.9C242.019 345.9 228.274 343.166 215.45 337.854C202.626 332.542 190.974 324.756 181.159 314.941C171.344 305.126 163.558 293.474 158.246 280.65C152.934 267.826 150.2 254.081 150.2 240.2C150.1 182.2 197.5 135 255.6 135Z" fill="#FFFF00" stroke="black" style="fill:#FFFF00;fill:color(display-p3 1.0000 1.0000 0.0000);fill-opacity:1;stroke:black;stroke-opacity:1;" stroke-width="0.6" stroke-linecap="round" stroke-linejoin="round"/>
<path id="Vector_10" fill-rule="evenodd" clip-rule="evenodd" d="M255.9 134.5C314.1 134.5 361.5 181.9 361.5 240.1C361.5 298.3 314.1 345.7 256 345.7C197.9 345.7 150.4 298.3 150.4 240.1C150.4 181.9 197.8 134.5 256 134.5H255.9ZM152.6 240C152.6 296.8 199.3 343.3 255.9 343.3C312.5 343.3 359.2 296.8 359.2 240C359.2 183.2 312.5 136.7 255.9 136.7C199.3 136.7 152.6 183.2 152.6 240Z" fill="#FFFF00" stroke="black" style="fill:#FFFF00;fill:color(display-p3 1.0000 1.0000 0.0000);fill-opacity:1;stroke:black;stroke-opacity:1;" stroke-width="0.6" stroke-linecap="round" stroke-linejoin="round"/>
<path id="Vector_11" fill-rule="evenodd" clip-rule="evenodd" d="M256 143.3C281.622 143.379 306.172 153.593 324.29 171.71C342.407 189.828 352.621 214.378 352.7 240C352.647 265.639 342.445 290.215 324.325 308.354C306.204 326.494 281.639 336.721 256 336.8C203 336.8 159.3 293.2 159.3 240C159.379 214.378 169.592 189.828 187.71 171.71C205.828 153.593 230.378 143.379 256 143.3ZM161.6 240C161.6 292 204.2 334.4 256 334.4C307.8 334.4 350.4 291.9 350.4 240C350.4 188.1 307.8 145.6 256 145.6C231.012 145.757 207.092 155.754 189.423 173.423C171.753 191.092 161.757 215.012 161.6 240Z" fill="#FFFF00" stroke="black" style="fill:#FFFF00;fill:color(display-p3 1.0000 1.0000 0.0000);fill-opacity:1;stroke:black;stroke-opacity:1;" stroke-width="0.6" stroke-linecap="round" stroke-linejoin="round"/>
<path id="Vector_12" fill-rule="evenodd" clip-rule="evenodd" d="M260.3 134H251.2V346.3H260.2L260.3 134Z" fill="#FFFF00" stroke="black" style="fill:#FFFF00;fill:color(display-p3 1.0000 1.0000 0.0000);fill-opacity:1;stroke:black;stroke-opacity:1;" stroke-width="0.6" stroke-linecap="round" stroke-linejoin="round"/>
<path id="Vector_13" fill-rule="evenodd" clip-rule="evenodd" d="M259.3 132.8H261.6V347.5H259.4V132.8H259.3ZM250.3 132.8H252.7V347.5H250.4L250.3 132.8Z" fill="#FFFF00" stroke="black" style="fill:#FFFF00;fill:color(display-p3 1.0000 1.0000 0.0000);fill-opacity:1;stroke:black;stroke-opacity:1;" stroke-width="0.6" stroke-linecap="round" stroke-linejoin="round"/>
<path id="Vector_14" fill-rule="evenodd" clip-rule="evenodd" d="M361.6 244.2V236.4L355.2 230.4L318.9 220.8L266.7 215.5L203.7 218.7L158.9 229.3L149.9 236V243.9L172.8 233.6L227.2 225.1H279.5L317.9 229.3L344.5 235.7L361.6 244.2Z" fill="#FFFF00" stroke="black" style="fill:#FFFF00;fill:color(display-p3 1.0000 1.0000 0.0000);fill-opacity:1;stroke:black;stroke-opacity:1;" stroke-width="0.6" stroke-linecap="round" stroke-linejoin="round"/>
<path id="Vector_15" fill-rule="evenodd" clip-rule="evenodd" d="M256 223.8C280.9 223.8 305 226.1 324.3 229.8C344.1 233.8 358 238.8 362.8 244.3V247.1C357 240.1 338.3 235.1 323.8 232.1C304.8 228.5 280.8 226.1 255.9 226.1C229.8 226.1 205.4 228.7 186.6 232.3C171.6 235.3 151.5 241.3 149 247.1V244.2C150.3 240.2 165.3 234.2 186.3 229.9C205.2 226.2 229.6 223.8 255.9 223.8H256ZM256 214.7C278.9 214.654 301.758 216.662 324.3 220.7C344.1 224.7 358 229.7 362.8 235.3V238C357 231.1 338.3 226 323.8 223.1C304.8 219.4 280.8 217.1 255.9 217.1C232.691 217.027 209.526 219.102 186.7 223.3C172.2 226 151.3 232.2 149 238V235.2C150.4 231.2 165.6 224.9 186.3 220.9C205.3 217.2 229.6 214.7 256 214.7ZM255.4 168.5C294.7 168.3 329 174 344.7 182L350.4 192C336.8 184.6 299.8 177 255.5 178C219.4 178.3 180.8 182 161.5 192.4L168.3 181C184.2 172.7 221.6 168.5 255.4 168.5Z" fill="#FFFF00" stroke="black" style="fill:#FFFF00;fill:color(display-p3 1.0000 1.0000 0.0000);fill-opacity:1;stroke:black;stroke-opacity:1;" stroke-width="0.6" stroke-linecap="round" stroke-linejoin="round"/>
<g id="Vector_16">
<path fill-rule="evenodd" clip-rule="evenodd" d="M256 176.7C276.519 176.354 297.03 177.793 317.3 181C333.3 184 348.6 188.4 350.8 190.8L352.5 193.8C347.2 190.4 333.9 186.5 316.9 183.3C299.9 180.1 278.2 179 255.9 179.1C230.6 179 210.9 180.3 194.1 183.3C182.519 184.925 171.275 188.403 160.8 193.6L162.5 190.5C168.5 187.5 177.8 183.8 193.6 180.9C211.1 177.7 231 176.8 256 176.7ZM256 167.7C277.4 167.5 298.6 168.7 315.1 171.7C325.79 173.287 336.135 176.668 345.7 181.7L348.2 185.7C344 181 328.2 176.5 314.1 174.1C297.7 171.2 277.4 170.1 256 169.9C236.079 169.722 216.178 171.194 196.5 174.3C186.209 175.729 176.215 178.801 166.9 183.4L169.1 180.1C174.9 177.1 184.3 174.3 196.1 172C215.907 168.853 235.945 167.382 256 167.6V167.7ZM308.4 284C291.067 280.997 273.487 279.657 255.9 280C190.4 280.8 169.3 293.5 166.7 297.3L161.7 289.3C178.5 277.3 214.1 270.5 256.3 271.1C278.233 271.433 297.1 273.1 312.9 276.1L308.4 284.1" fill="#FFFF00" style="fill:#FFFF00;fill:color(display-p3 1.0000 1.0000 0.0000);fill-opacity:1;"/>
<path d="M308.4 284C291.067 280.997 273.487 279.657 255.9 280C190.4 280.8 169.3 293.5 166.7 297.3L161.7 289.3C178.5 277.3 214.1 270.5 256.3 271.1C278.233 271.433 297.1 273.1 312.9 276.1L308.4 284.1M256 176.7C276.519 176.354 297.03 177.793 317.3 181C333.3 184 348.6 188.4 350.8 190.8L352.5 193.8C347.2 190.4 333.9 186.5 316.9 183.3C299.9 180.1 278.2 179 255.9 179.1C230.6 179 210.9 180.3 194.1 183.3C182.519 184.925 171.275 188.403 160.8 193.6L162.5 190.5C168.5 187.5 177.8 183.8 193.6 180.9C211.1 177.7 231 176.8 256 176.7ZM256 167.7C277.4 167.5 298.6 168.7 315.1 171.7C325.79 173.287 336.135 176.668 345.7 181.7L348.2 185.7C344 181 328.2 176.5 314.1 174.1C297.7 171.2 277.4 170.1 256 169.9C236.079 169.722 216.178 171.194 196.5 174.3C186.209 175.729 176.215 178.801 166.9 183.4L169.1 180.1C174.9 177.1 184.3 174.3 196.1 172C215.907 168.853 235.945 167.382 256 167.6V167.7Z" stroke="black" style="stroke:black;stroke-opacity:1;" stroke-width="0.6" stroke-linecap="round" stroke-linejoin="round"/>
</g>
<path id="Vector_17" fill-rule="evenodd" clip-rule="evenodd" d="M255.6 278.9C273.8 279.2 291.6 279.9 308.9 283.1L307.7 285.3C291.7 282.3 274.5 281.3 255.7 281.3C231.4 281.1 207 283.4 185.7 289.5C179 291.4 167.9 295.7 166.7 299.3L165.5 297.3C165.9 295.1 172.5 290.7 185.1 287.3C209.5 280.3 232.3 279 255.6 278.9ZM256.4 269.7C275.61 269.68 294.784 271.354 313.7 274.7L312.4 277C293.929 273.612 275.179 271.971 256.4 272.1C232.2 272.1 206.5 273.9 183.1 280.7C175.6 282.9 162.5 287.7 162.1 291.4L160.9 289.2C161.1 285.8 172.4 281.3 182.6 278.4C206.1 271.5 231.9 269.8 256.4 269.7Z" fill="#FFFF00" stroke="black" style="fill:#FFFF00;fill:color(display-p3 1.0000 1.0000 0.0000);fill-opacity:1;stroke:black;stroke-opacity:1;" stroke-width="0.6" stroke-linecap="round" stroke-linejoin="round"/>
<path id="Vector_18" fill-rule="evenodd" clip-rule="evenodd" d="M349.4 290.5L341.6 302.8L318.9 282.7L260.3 243.2L194.1 206.9L159.8 195.2L167.1 181.6L169.6 180.3L190.9 185.6L261.3 221.9L301.9 247.5L336 272L349.9 288L349.4 290.5Z" fill="#FFFF00" stroke="black" style="fill:#FFFF00;fill:color(display-p3 1.0000 1.0000 0.0000);fill-opacity:1;stroke:black;stroke-opacity:1;" stroke-width="0.6" stroke-linecap="round" stroke-linejoin="round"/>
<path id="Vector_19" fill-rule="evenodd" clip-rule="evenodd" d="M158.6 195.5C164.6 191.5 208.8 211.1 255.2 239.1C301.3 267.1 345.5 298.7 341.5 304.6L340.2 306.7L339.6 307.2C339.7 307.1 340.4 306.2 339.6 304.1C337.6 297.6 306.2 272.6 254.3 241.2C203.6 211.1 161.4 192.9 157.3 198.1L158.6 195.5ZM351 290.4C354.8 282.8 313.8 251.9 262.9 221.8C210.9 192.3 173.3 174.9 166.4 180.1L165 183C164.933 183 165.066 182.833 165.4 182.5C166.6 181.5 168.7 181.5 169.6 181.5C181.4 181.7 215.1 197.2 262.4 224.3C283.2 236.3 350 279.3 349.7 291.3C349.7 292.3 349.8 292.5 349.4 293.1L351.1 290.5L351 290.4Z" fill="#FFFF00" stroke="black" style="fill:#FFFF00;fill:color(display-p3 1.0000 1.0000 0.0000);fill-opacity:1;stroke:black;stroke-opacity:1;" stroke-width="0.6" stroke-linecap="round" stroke-linejoin="round"/>
</g>
<g id="Group_2">
<path id="Vector_20" d="M192.641 251.767C192.674 260.045 194.34 268.234 197.543 275.867C200.746 283.5 205.424 290.425 211.307 296.247C217.133 302.163 224.072 306.868 231.725 310.09C239.377 313.312 247.591 314.988 255.894 315.021C264.218 315.044 272.464 313.415 280.154 310.229C287.844 307.043 294.825 302.363 300.694 296.461C306.571 290.617 311.236 283.67 314.422 276.019C317.607 268.367 319.249 260.162 319.254 251.874V167.394L192.641 167.18V251.767Z" fill="white" stroke="black" style="fill:white;fill-opacity:1;stroke:black;stroke-opacity:1;" stroke-width="0.746669"/>
<path id="Vector_21" d="M195.201 251.874C195.2 259.82 196.784 267.687 199.861 275.013C202.938 282.34 207.446 288.979 213.121 294.541C224.477 305.957 239.898 312.402 256.001 312.461C272.073 312.458 287.49 306.092 298.881 294.754C304.537 289.183 309.025 282.54 312.083 275.214C315.142 267.888 316.709 260.026 316.694 252.087V169.954H195.201V251.874ZM292.268 194.594V246.754L292.161 252.194C292.209 256.961 291.289 261.688 289.455 266.089C287.622 270.489 284.913 274.472 281.494 277.794C274.711 284.601 265.504 288.437 255.894 288.461C245.868 288.461 237.014 284.194 230.401 277.581C223.594 270.798 219.758 261.59 219.734 251.981V194.381L292.268 194.594Z" fill="#FF0000" stroke="black" style="fill:#FF0000;fill:color(display-p3 1.0000 0.0000 0.0000);fill-opacity:1;stroke:black;stroke-opacity:1;" stroke-width="0.533335"/>
<g id="pt-e">
<g id="pt-d">
<path id="Vector_22" d="M202.881 191.394C202.988 185.527 207.148 184.14 207.148 184.14C207.254 184.14 211.734 185.634 211.734 191.5L202.881 191.394Z" fill="#FFFF00" style="fill:#FFFF00;fill:color(display-p3 1.0000 1.0000 0.0000);fill-opacity:1;"/>
<path id="Vector_23" d="M199.254 184.247L198.507 190.967H202.987C202.987 185.42 207.254 184.567 207.254 184.567C207.361 184.567 211.521 185.74 211.627 190.967H216.107L215.254 184.14L199.254 184.247ZM198.187 191.074H216.321C216.676 191.074 216.89 191.323 216.961 191.82C216.961 192.389 216.747 192.674 216.321 192.674H198.187C197.832 192.674 197.618 192.389 197.547 191.82C197.547 191.323 197.796 191.074 198.294 191.074H198.187Z" fill="#FFFF00" stroke="black" style="fill:#FFFF00;fill:color(display-p3 1.0000 1.0000 0.0000);fill-opacity:1;stroke:black;stroke-opacity:1;" stroke-width="0.533335"/>
<g id="Vector_24">
<path d="M204.801 190.967C204.801 187.447 207.254 186.487 207.254 186.487C207.254 186.487 209.707 187.554 209.707 190.967H204.801ZM198.614 181.367H216.001C216.356 181.438 216.57 181.723 216.641 182.22C216.641 182.576 216.428 182.789 216.001 182.86H198.614C198.259 182.86 198.045 182.612 197.974 182.114C197.974 181.758 198.187 181.545 198.614 181.474V181.367ZM199.041 182.967H215.468C215.823 182.967 216.036 183.216 216.108 183.714C216.179 184.212 215.965 184.46 215.468 184.46H198.934C198.507 184.46 198.294 184.212 198.294 183.714C198.294 183.216 198.507 182.967 198.934 182.967H199.041ZM204.374 171.66H205.654V172.514H206.614V171.66H208.001V172.62H208.961V171.554H210.241V173.687C210.241 174.114 210.063 174.327 209.707 174.327H205.014C204.659 174.327 204.445 174.149 204.374 173.794V171.66ZM209.281 174.54L209.601 181.367H205.014L205.334 174.434H209.281" fill="#FFFF00" style="fill:#FFFF00;fill:color(display-p3 1.0000 1.0000 0.0000);fill-opacity:1;"/>
<path d="M209.281 174.54L209.601 181.367H205.014L205.334 174.434H209.281M204.801 190.967C204.801 187.447 207.254 186.487 207.254 186.487C207.254 186.487 209.707 187.554 209.707 190.967H204.801ZM198.614 181.367H216.001C216.356 181.438 216.57 181.723 216.641 182.22C216.641 182.576 216.428 182.789 216.001 182.86H198.614C198.259 182.86 198.045 182.612 197.974 182.114C197.974 181.758 198.187 181.545 198.614 181.474V181.367ZM199.041 182.967H215.468C215.823 182.967 216.036 183.216 216.108 183.714C216.179 184.212 215.965 184.46 215.468 184.46H198.934C198.507 184.46 198.294 184.212 198.294 183.714C198.294 183.216 198.507 182.967 198.934 182.967H199.041ZM204.374 171.66H205.654V172.514H206.614V171.66H208.001V172.62H208.961V171.554H210.241V173.687C210.241 174.114 210.063 174.327 209.707 174.327H205.014C204.659 174.327 204.445 174.149 204.374 173.794V171.66Z" stroke="black" style="stroke:black;stroke-opacity:1;" stroke-width="0.533335"/>
</g>
<path id="pt-a" d="M203.734 177.74V181.367H199.467V177.74H203.734Z" fill="#FFFF00" stroke="black" style="fill:#FFFF00;fill:color(display-p3 1.0000 1.0000 0.0000);fill-opacity:1;stroke:black;stroke-opacity:1;" stroke-width="0.533335"/>
<path id="pt-a_2" d="M215.041 177.74V181.367H210.774V177.74H215.041Z" fill="#FFFF00" stroke="black" style="fill:#FFFF00;fill:color(display-p3 1.0000 1.0000 0.0000);fill-opacity:1;stroke:black;stroke-opacity:1;" stroke-width="0.533335"/>
<path id="pt-b" d="M198.721 174.967H200.001V176.034H200.961V174.967H202.241V176.034H203.201V174.967H204.481V177.1C204.481 177.527 204.303 177.74 203.947 177.74H199.361C199.214 177.687 199.08 177.602 198.969 177.492C198.859 177.381 198.774 177.247 198.721 177.1V174.967Z" fill="#FFFF00" stroke="black" style="fill:#FFFF00;fill:color(display-p3 1.0000 1.0000 0.0000);fill-opacity:1;stroke:black;stroke-opacity:1;" stroke-width="0.533335"/>
<path id="pt-b_2" d="M210.027 174.967H211.307V176.034H212.267V174.967H213.547V176.034H214.507V174.967H215.787V177.1C215.787 177.527 215.61 177.74 215.254 177.74H210.667C210.52 177.687 210.387 177.602 210.276 177.492C210.165 177.381 210.081 177.247 210.027 177.1V174.967Z" fill="#FFFF00" stroke="black" style="fill:#FFFF00;fill:color(display-p3 1.0000 1.0000 0.0000);fill-opacity:1;stroke:black;stroke-opacity:1;" stroke-width="0.533335"/>
<path id="Vector_25" d="M206.827 176.674C206.827 176.034 207.787 176.034 207.787 176.674V178.381H206.827V176.674Z" fill="#000001" style="fill:#000001;fill:color(display-p3 0.0000 0.0000 0.0039);fill-opacity:1;"/>
<path id="pt-c" d="M201.174 179.021C201.174 178.381 202.027 178.381 202.027 179.021V180.301H201.174V179.021Z" fill="#000001" style="fill:#000001;fill:color(display-p3 0.0000 0.0000 0.0039);fill-opacity:1;"/>
<path id="pt-c_2" d="M212.481 179.021C212.481 178.381 213.334 178.381 213.334 179.021V180.301H212.481V179.021Z" fill="#000001" style="fill:#000001;fill:color(display-p3 0.0000 0.0000 0.0039);fill-opacity:1;"/>
</g>
<g id="pt-d_2">
<path id="Vector_26" d="M202.881 240.78C202.988 234.914 207.148 233.527 207.148 233.527C207.254 233.527 211.734 235.02 211.734 240.887L202.881 240.78Z" fill="#FFFF00" style="fill:#FFFF00;fill:color(display-p3 1.0000 1.0000 0.0000);fill-opacity:1;"/>
<path id="Vector_27" d="M199.254 233.634L198.507 240.354H202.987C202.987 234.807 207.254 233.954 207.254 233.954C207.361 233.954 211.521 235.127 211.627 240.354H216.107L215.254 233.527L199.254 233.634ZM198.187 240.46H216.321C216.676 240.46 216.89 240.709 216.961 241.207C216.961 241.776 216.747 242.06 216.321 242.06H198.187C197.832 242.06 197.618 241.776 197.547 241.207C197.547 240.709 197.796 240.46 198.294 240.46H198.187Z" fill="#FFFF00" stroke="black" style="fill:#FFFF00;fill:color(display-p3 1.0000 1.0000 0.0000);fill-opacity:1;stroke:black;stroke-opacity:1;" stroke-width="0.533335"/>
<g id="Vector_28">
<path d="M204.801 240.354C204.801 236.834 207.254 235.874 207.254 235.874C207.254 235.874 209.707 236.94 209.707 240.354H204.801ZM198.614 230.754H216.001C216.356 230.825 216.57 231.109 216.641 231.607C216.641 231.963 216.428 232.176 216.001 232.247H198.614C198.259 232.247 198.045 231.998 197.974 231.5C197.974 231.145 198.187 230.932 198.614 230.86V230.754ZM199.041 232.354H215.468C215.823 232.354 216.036 232.603 216.108 233.1C216.179 233.598 215.965 233.847 215.468 233.847H198.934C198.507 233.847 198.294 233.598 198.294 233.1C198.294 232.603 198.507 232.354 198.934 232.354H199.041ZM204.374 221.047H205.654V221.9H206.614V221.047H208.001V222.007H208.961V220.94H210.241V223.074C210.241 223.5 210.063 223.714 209.707 223.714H205.014C204.659 223.714 204.445 223.536 204.374 223.18V221.047ZM209.281 223.927L209.601 230.754H205.014L205.334 223.82H209.281" fill="#FFFF00" style="fill:#FFFF00;fill:color(display-p3 1.0000 1.0000 0.0000);fill-opacity:1;"/>
<path d="M209.281 223.927L209.601 230.754H205.014L205.334 223.82H209.281M204.801 240.354C204.801 236.834 207.254 235.874 207.254 235.874C207.254 235.874 209.707 236.94 209.707 240.354H204.801ZM198.614 230.754H216.001C216.356 230.825 216.57 231.109 216.641 231.607C216.641 231.963 216.428 232.176 216.001 232.247H198.614C198.259 232.247 198.045 231.998 197.974 231.5C197.974 231.145 198.187 230.932 198.614 230.86V230.754ZM199.041 232.354H215.468C215.823 232.354 216.036 232.603 216.108 233.1C216.179 233.598 215.965 233.847 215.468 233.847H198.934C198.507 233.847 198.294 233.598 198.294 233.1C198.294 232.603 198.507 232.354 198.934 232.354H199.041ZM204.374 221.047H205.654V221.9H206.614V221.047H208.001V222.007H208.961V220.94H210.241V223.074C210.241 223.5 210.063 223.714 209.707 223.714H205.014C204.659 223.714 204.445 223.536 204.374 223.18V221.047Z" stroke="black" style="stroke:black;stroke-opacity:1;" stroke-width="0.533335"/>
</g>
<path id="pt-a_3" d="M203.734 227.127V230.754H199.467V227.127H203.734Z" fill="#FFFF00" stroke="black" style="fill:#FFFF00;fill:color(display-p3 1.0000 1.0000 0.0000);fill-opacity:1;stroke:black;stroke-opacity:1;" stroke-width="0.533335"/>
<path id="pt-a_4" d="M215.041 227.127V230.754H210.774V227.127H215.041Z" fill="#FFFF00" stroke="black" style="fill:#FFFF00;fill:color(display-p3 1.0000 1.0000 0.0000);fill-opacity:1;stroke:black;stroke-opacity:1;" stroke-width="0.533335"/>
<path id="pt-b_3" d="M198.721 224.354H200.001V225.42H200.961V224.354H202.241V225.42H203.201V224.354H204.481V226.487C204.481 226.914 204.303 227.127 203.947 227.127H199.361C199.214 227.074 199.08 226.989 198.969 226.878C198.859 226.768 198.774 226.634 198.721 226.487V224.354Z" fill="#FFFF00" stroke="black" style="fill:#FFFF00;fill:color(display-p3 1.0000 1.0000 0.0000);fill-opacity:1;stroke:black;stroke-opacity:1;" stroke-width="0.533335"/>
<path id="pt-b_4" d="M210.027 224.354H211.307V225.42H212.267V224.354H213.547V225.42H214.507V224.354H215.787V226.487C215.787 226.914 215.61 227.127 215.254 227.127H210.667C210.52 227.074 210.387 226.989 210.276 226.878C210.165 226.768 210.081 226.634 210.027 226.487V224.354Z" fill="#FFFF00" stroke="black" style="fill:#FFFF00;fill:color(display-p3 1.0000 1.0000 0.0000);fill-opacity:1;stroke:black;stroke-opacity:1;" stroke-width="0.533335"/>
<path id="Vector_29" d="M206.827 226.061C206.827 225.421 207.787 225.421 207.787 226.061V227.767H206.827V226.061Z" fill="#000001" style="fill:#000001;fill:color(display-p3 0.0000 0.0000 0.0039);fill-opacity:1;"/>
<path id="pt-c_3" d="M201.174 228.407C201.174 227.767 202.027 227.767 202.027 228.407V229.687H201.174V228.407Z" fill="#000001" style="fill:#000001;fill:color(display-p3 0.0000 0.0000 0.0039);fill-opacity:1;"/>
<path id="pt-c_4" d="M212.481 228.407C212.481 227.767 213.334 227.767 213.334 228.407V229.687H212.481V228.407Z" fill="#000001" style="fill:#000001;fill:color(display-p3 0.0000 0.0000 0.0039);fill-opacity:1;"/>
</g>
<g id="pt-d_3">
<path id="Vector_30" d="M222.131 292.253C218.043 288.043 219.991 284.114 219.991 284.114C220.066 284.038 224.282 281.912 228.445 286.046L222.131 292.253Z" fill="#FFFF00" style="fill:#FFFF00;fill:color(display-p3 1.0000 1.0000 0.0000);fill-opacity:1;"/>
<path id="Vector_31" d="M214.504 289.79L218.747 295.055L221.903 291.876C217.968 287.968 220.368 284.339 220.368 284.339C220.444 284.263 224.208 282.138 227.991 285.746L231.148 282.567L225.703 278.362L214.504 289.79ZM218.597 295.357L231.374 282.49C231.625 282.238 231.952 282.262 232.355 282.562C232.759 282.963 232.81 283.315 232.509 283.618L219.732 296.485C219.482 296.737 219.129 296.688 218.676 296.338C218.322 295.987 218.321 295.635 218.672 295.282L218.597 295.357Z" fill="#FFFF00" stroke="black" style="fill:#FFFF00;fill:color(display-p3 1.0000 1.0000 0.0000);fill-opacity:1;stroke:black;stroke-opacity:1;" stroke-width="0.533335"/>
<g id="Vector_32">
<path d="M223.181 290.589C220.683 288.109 221.731 285.692 221.731 285.692C221.731 285.692 224.217 284.703 226.639 287.108L223.181 290.589ZM212.01 288.215L224.261 275.878C224.562 275.676 224.914 275.725 225.318 276.025C225.57 276.275 225.571 276.577 225.321 276.93L213.07 289.267C212.819 289.519 212.492 289.495 212.089 289.195C211.836 288.945 211.835 288.643 212.086 288.29L212.01 288.215ZM213.446 289.04L225.021 277.384C225.271 277.131 225.598 277.155 226.002 277.456C226.405 277.756 226.431 278.083 226.08 278.436L214.43 290.167C214.13 290.47 213.803 290.446 213.45 290.095C213.096 289.745 213.07 289.418 213.371 289.115L213.446 289.04ZM209.181 277.288L210.083 276.38L210.688 276.981L211.365 276.3L210.759 275.699L211.737 274.715L212.418 275.391L213.094 274.71L212.337 273.958L213.239 273.05L214.753 274.553C215.056 274.854 215.082 275.13 214.831 275.383L211.524 278.713C211.274 278.965 210.997 278.991 210.695 278.791L209.181 277.288ZM214.682 275.836L219.752 280.419L216.52 283.674L211.825 278.561L214.606 275.761" fill="#FFFF00" style="fill:#FFFF00;fill:color(display-p3 1.0000 1.0000 0.0000);fill-opacity:1;"/>
<path d="M214.682 275.836L219.752 280.419L216.52 283.674L211.825 278.561L214.606 275.761M223.181 290.589C220.683 288.109 221.731 285.692 221.731 285.692C221.731 285.692 224.217 284.703 226.639 287.108L223.181 290.589ZM212.01 288.215L224.261 275.878C224.562 275.676 224.914 275.725 225.318 276.025C225.57 276.275 225.571 276.577 225.321 276.93L213.07 289.267C212.819 289.519 212.492 289.495 212.089 289.195C211.836 288.945 211.835 288.643 212.086 288.29L212.01 288.215ZM213.446 289.04L225.021 277.384C225.271 277.131 225.598 277.155 226.002 277.456C226.405 277.756 226.431 278.083 226.08 278.436L214.43 290.167C214.13 290.47 213.803 290.446 213.45 290.095C213.096 289.745 213.07 289.418 213.371 289.115L213.446 289.04ZM209.181 277.288L210.083 276.38L210.688 276.981L211.365 276.3L210.759 275.699L211.737 274.715L212.418 275.391L213.094 274.71L212.337 273.958L213.239 273.05L214.753 274.553C215.056 274.854 215.082 275.13 214.831 275.383L211.524 278.713C211.274 278.965 210.997 278.991 210.695 278.791L209.181 277.288Z" stroke="black" style="stroke:black;stroke-opacity:1;" stroke-width="0.533335"/>
</g>
<path id="pt-a_5" d="M213.044 282.026L215.617 284.582L212.611 287.609L210.038 285.054L213.044 282.026Z" fill="#FFFF00" stroke="black" style="fill:#FFFF00;fill:color(display-p3 1.0000 1.0000 0.0000);fill-opacity:1;stroke:black;stroke-opacity:1;" stroke-width="0.533335"/>
<path id="pt-a_6" d="M221.011 274.003L223.585 276.559L220.578 279.586L218.005 277.031L221.011 274.003Z" fill="#FFFF00" stroke="black" style="fill:#FFFF00;fill:color(display-p3 1.0000 1.0000 0.0000);fill-opacity:1;stroke:black;stroke-opacity:1;" stroke-width="0.533335"/>
<path id="pt-b_5" d="M207.544 283.629L208.446 282.721L209.203 283.473L209.879 282.792L209.122 282.04L210.024 281.132L210.781 281.883L211.458 281.202L210.701 280.451L211.603 279.542L213.116 281.045C213.419 281.346 213.445 281.623 213.195 281.875L209.963 285.129C209.821 285.196 209.667 285.231 209.511 285.232C209.354 285.232 209.2 285.198 209.058 285.133L207.544 283.629Z" fill="#FFFF00" stroke="black" style="fill:#FFFF00;fill:color(display-p3 1.0000 1.0000 0.0000);fill-opacity:1;stroke:black;stroke-opacity:1;" stroke-width="0.533335"/>
<path id="pt-b_6" d="M215.511 275.607L216.413 274.698L217.17 275.45L217.846 274.769L217.089 274.017L217.991 273.109L218.748 273.861L219.424 273.179L218.668 272.428L219.569 271.52L221.083 273.023C221.386 273.323 221.412 273.6 221.162 273.852L217.93 277.107C217.788 277.174 217.634 277.209 217.477 277.209C217.321 277.21 217.166 277.176 217.024 277.11L215.511 275.607Z" fill="#FFFF00" stroke="black" style="fill:#FFFF00;fill:color(display-p3 1.0000 1.0000 0.0000);fill-opacity:1;stroke:black;stroke-opacity:1;" stroke-width="0.533335"/>
<path id="Vector_33" d="M214.467 279.08C214.013 278.629 214.689 277.948 215.144 278.398L216.355 279.601L215.678 280.282L214.467 279.08Z" fill="#000001" style="fill:#000001;fill:color(display-p3 0.0000 0.0000 0.0039);fill-opacity:1;"/>
<path id="pt-c_5" d="M212.149 284.745C211.695 284.294 212.296 283.688 212.75 284.139L213.658 285.041L213.057 285.647L212.149 284.745Z" fill="#000001" style="fill:#000001;fill:color(display-p3 0.0000 0.0000 0.0039);fill-opacity:1;"/>
<path id="pt-c_6" d="M220.115 276.722C219.661 276.271 220.263 275.665 220.717 276.116L221.625 277.018L221.024 277.624L220.115 276.722Z" fill="#000001" style="fill:#000001;fill:color(display-p3 0.0000 0.0000 0.0039);fill-opacity:1;"/>
</g>
</g>
<g id="pt-d_4">
<path id="Vector_34" d="M251.627 191.394C251.734 185.527 255.894 184.14 255.894 184.14C256.001 184.14 260.481 185.634 260.481 191.5L251.627 191.394Z" fill="#FFFF00" style="fill:#FFFF00;fill:color(display-p3 1.0000 1.0000 0.0000);fill-opacity:1;"/>
<path id="Vector_35" d="M248.001 184.247L247.254 190.967H251.734C251.734 185.42 256.001 184.567 256.001 184.567C256.107 184.567 260.267 185.74 260.374 190.967H264.854L264.001 184.14L248.001 184.247ZM246.934 191.074H265.067C265.423 191.074 265.636 191.323 265.707 191.82C265.707 192.389 265.494 192.674 265.067 192.674H246.934C246.578 192.674 246.365 192.389 246.294 191.82C246.294 191.323 246.543 191.074 247.041 191.074H246.934Z" fill="#FFFF00" stroke="black" style="fill:#FFFF00;fill:color(display-p3 1.0000 1.0000 0.0000);fill-opacity:1;stroke:black;stroke-opacity:1;" stroke-width="0.533335"/>
<g id="Vector_36">
<path d="M253.547 190.967C253.547 187.447 256.001 186.487 256.001 186.487C256.001 186.487 258.454 187.554 258.454 190.967H253.547ZM247.361 181.367H264.747C265.103 181.438 265.316 181.723 265.387 182.22C265.387 182.576 265.174 182.789 264.747 182.86H247.361C247.005 182.86 246.792 182.612 246.721 182.114C246.721 181.758 246.934 181.545 247.361 181.474V181.367ZM247.787 182.967H264.214C264.57 182.967 264.783 183.216 264.854 183.714C264.925 184.212 264.712 184.46 264.214 184.46H247.681C247.254 184.46 247.041 184.212 247.041 183.714C247.041 183.216 247.254 182.967 247.681 182.967H247.787ZM253.121 171.66H254.401V172.514H255.361V171.66H256.747V172.62H257.707V171.554H258.987V173.687C258.987 174.114 258.81 174.327 258.454 174.327H253.761C253.405 174.327 253.192 174.149 253.121 173.794V171.66ZM258.027 174.54L258.347 181.367H253.761L254.081 174.434H258.027" fill="#FFFF00" style="fill:#FFFF00;fill:color(display-p3 1.0000 1.0000 0.0000);fill-opacity:1;"/>
<path d="M258.027 174.54L258.347 181.367H253.761L254.081 174.434H258.027M253.547 190.967C253.547 187.447 256.001 186.487 256.001 186.487C256.001 186.487 258.454 187.554 258.454 190.967H253.547ZM247.361 181.367H264.747C265.103 181.438 265.316 181.723 265.387 182.22C265.387 182.576 265.174 182.789 264.747 182.86H247.361C247.005 182.86 246.792 182.612 246.721 182.114C246.721 181.758 246.934 181.545 247.361 181.474V181.367ZM247.787 182.967H264.214C264.57 182.967 264.783 183.216 264.854 183.714C264.925 184.212 264.712 184.46 264.214 184.46H247.681C247.254 184.46 247.041 184.212 247.041 183.714C247.041 183.216 247.254 182.967 247.681 182.967H247.787ZM253.121 171.66H254.401V172.514H255.361V171.66H256.747V172.62H257.707V171.554H258.987V173.687C258.987 174.114 258.81 174.327 258.454 174.327H253.761C253.405 174.327 253.192 174.149 253.121 173.794V171.66Z" stroke="black" style="stroke:black;stroke-opacity:1;" stroke-width="0.533335"/>
</g>
<path id="pt-a_7" d="M252.481 177.74V181.367H248.214V177.74H252.481Z" fill="#FFFF00" stroke="black" style="fill:#FFFF00;fill:color(display-p3 1.0000 1.0000 0.0000);fill-opacity:1;stroke:black;stroke-opacity:1;" stroke-width="0.533335"/>
<path id="pt-a_8" d="M263.787 177.74V181.367H259.521V177.74H263.787Z" fill="#FFFF00" stroke="black" style="fill:#FFFF00;fill:color(display-p3 1.0000 1.0000 0.0000);fill-opacity:1;stroke:black;stroke-opacity:1;" stroke-width="0.533335"/>
<path id="pt-b_7" d="M247.467 174.967H248.747V176.034H249.707V174.967H250.987V176.034H251.947V174.967H253.227V177.1C253.227 177.527 253.05 177.74 252.694 177.74H248.107C247.96 177.687 247.827 177.602 247.716 177.492C247.605 177.381 247.521 177.247 247.467 177.1V174.967Z" fill="#FFFF00" stroke="black" style="fill:#FFFF00;fill:color(display-p3 1.0000 1.0000 0.0000);fill-opacity:1;stroke:black;stroke-opacity:1;" stroke-width="0.533335"/>
<path id="pt-b_8" d="M258.774 174.967H260.054V176.034H261.014V174.967H262.294V176.034H263.254V174.967H264.534V177.1C264.534 177.527 264.356 177.74 264.001 177.74H259.414C259.267 177.687 259.133 177.602 259.023 177.492C258.912 177.381 258.827 177.247 258.774 177.1V174.967Z" fill="#FFFF00" stroke="black" style="fill:#FFFF00;fill:color(display-p3 1.0000 1.0000 0.0000);fill-opacity:1;stroke:black;stroke-opacity:1;" stroke-width="0.533335"/>
<path id="Vector_37" d="M255.574 176.674C255.574 176.034 256.534 176.034 256.534 176.674V178.381H255.574V176.674Z" fill="#000001" style="fill:#000001;fill:color(display-p3 0.0000 0.0000 0.0039);fill-opacity:1;"/>
<path id="pt-c_7" d="M249.92 179.021C249.92 178.381 250.774 178.381 250.774 179.021V180.301H249.92V179.021Z" fill="#000001" style="fill:#000001;fill:color(display-p3 0.0000 0.0000 0.0039);fill-opacity:1;"/>
<path id="pt-c_8" d="M261.228 179.021C261.228 178.381 262.081 178.381 262.081 179.021V180.301H261.228V179.021Z" fill="#000001" style="fill:#000001;fill:color(display-p3 0.0000 0.0000 0.0039);fill-opacity:1;"/>
</g>
<g id="pt-e_2">
<g id="pt-d_5">
<path id="Vector_38" d="M308.908 191.394C308.801 185.527 304.641 184.14 304.641 184.14C304.534 184.14 300.054 185.634 300.054 191.5L308.908 191.394Z" fill="#FFFF00" style="fill:#FFFF00;fill:color(display-p3 1.0000 1.0000 0.0000);fill-opacity:1;"/>
<path id="Vector_39" d="M312.535 184.247L313.281 190.967H308.801C308.801 185.42 304.535 184.567 304.535 184.567C304.428 184.567 300.268 185.74 300.161 190.967H295.681L296.534 184.14L312.535 184.247ZM313.601 191.074H295.468C295.112 191.074 294.899 191.323 294.828 191.82C294.828 192.389 295.041 192.674 295.468 192.674H313.601C313.957 192.674 314.17 192.389 314.241 191.82C314.241 191.323 313.992 191.074 313.495 191.074H313.601Z" fill="#FFFF00" stroke="black" style="fill:#FFFF00;fill:color(display-p3 1.0000 1.0000 0.0000);fill-opacity:1;stroke:black;stroke-opacity:1;" stroke-width="0.533335"/>
<g id="Vector_40">
<path d="M306.988 190.967C306.988 187.447 304.534 186.487 304.534 186.487C304.534 186.487 302.081 187.554 302.081 190.967H306.988ZM313.174 181.367H295.788C295.432 181.438 295.219 181.723 295.148 182.22C295.148 182.576 295.361 182.789 295.788 182.86H313.174C313.53 182.86 313.743 182.612 313.814 182.114C313.814 181.758 313.601 181.545 313.174 181.474V181.367ZM312.748 182.967H296.321C295.966 182.967 295.752 183.216 295.681 183.714C295.61 184.212 295.823 184.46 296.321 184.46H312.854C313.281 184.46 313.494 184.212 313.494 183.714C313.494 183.216 313.281 182.967 312.854 182.967H312.748ZM307.414 171.66H306.134V172.514H305.174V171.66H303.788V172.62H302.828V171.554H301.548V173.687C301.548 174.114 301.726 174.327 302.081 174.327H306.774C307.13 174.327 307.343 174.149 307.414 173.794V171.66ZM302.508 174.54L302.188 181.367H306.774L306.454 174.434H302.508" fill="#FFFF00" style="fill:#FFFF00;fill:color(display-p3 1.0000 1.0000 0.0000);fill-opacity:1;"/>
<path d="M302.508 174.54L302.188 181.367H306.774L306.454 174.434H302.508M306.988 190.967C306.988 187.447 304.534 186.487 304.534 186.487C304.534 186.487 302.081 187.554 302.081 190.967H306.988ZM313.174 181.367H295.788C295.432 181.438 295.219 181.723 295.148 182.22C295.148 182.576 295.361 182.789 295.788 182.86H313.174C313.53 182.86 313.743 182.612 313.814 182.114C313.814 181.758 313.601 181.545 313.174 181.474V181.367ZM312.748 182.967H296.321C295.966 182.967 295.752 183.216 295.681 183.714C295.61 184.212 295.823 184.46 296.321 184.46H312.854C313.281 184.46 313.494 184.212 313.494 183.714C313.494 183.216 313.281 182.967 312.854 182.967H312.748ZM307.414 171.66H306.134V172.514H305.174V171.66H303.788V172.62H302.828V171.554H301.548V173.687C301.548 174.114 301.726 174.327 302.081 174.327H306.774C307.13 174.327 307.343 174.149 307.414 173.794V171.66Z" stroke="black" style="stroke:black;stroke-opacity:1;" stroke-width="0.533335"/>
</g>
<path id="pt-a_9" d="M308.055 177.74V181.367H312.321V177.74H308.055Z" fill="#FFFF00" stroke="black" style="fill:#FFFF00;fill:color(display-p3 1.0000 1.0000 0.0000);fill-opacity:1;stroke:black;stroke-opacity:1;" stroke-width="0.533335"/>
<path id="pt-a_10" d="M296.748 177.74V181.367H301.015V177.74H296.748Z" fill="#FFFF00" stroke="black" style="fill:#FFFF00;fill:color(display-p3 1.0000 1.0000 0.0000);fill-opacity:1;stroke:black;stroke-opacity:1;" stroke-width="0.533335"/>
<path id="pt-b_9" d="M313.068 174.967H311.788V176.034H310.828V174.967H309.548V176.034H308.588V174.967H307.308V177.1C307.308 177.527 307.486 177.74 307.841 177.74H312.428C312.575 177.687 312.709 177.602 312.819 177.492C312.93 177.381 313.015 177.247 313.068 177.1V174.967Z" fill="#FFFF00" stroke="black" style="fill:#FFFF00;fill:color(display-p3 1.0000 1.0000 0.0000);fill-opacity:1;stroke:black;stroke-opacity:1;" stroke-width="0.533335"/>
<path id="pt-b_10" d="M301.761 174.967H300.481V176.034H299.521V174.967H298.241V176.034H297.281V174.967H296.001V177.1C296.001 177.527 296.179 177.74 296.535 177.74H301.121C301.268 177.687 301.402 177.602 301.512 177.492C301.623 177.381 301.708 177.247 301.761 177.1V174.967Z" fill="#FFFF00" stroke="black" style="fill:#FFFF00;fill:color(display-p3 1.0000 1.0000 0.0000);fill-opacity:1;stroke:black;stroke-opacity:1;" stroke-width="0.533335"/>
<path id="Vector_41" d="M304.961 176.674C304.961 176.034 304.001 176.034 304.001 176.674V178.381H304.961V176.674Z" fill="#000001" style="fill:#000001;fill:color(display-p3 0.0000 0.0000 0.0039);fill-opacity:1;"/>
<path id="pt-c_9" d="M310.615 179.021C310.615 178.381 309.761 178.381 309.761 179.021V180.301H310.615V179.021Z" fill="#000001" style="fill:#000001;fill:color(display-p3 0.0000 0.0000 0.0039);fill-opacity:1;"/>
<path id="pt-c_10" d="M299.308 179.021C299.308 178.381 298.454 178.381 298.454 179.021V180.301H299.308V179.021Z" fill="#000001" style="fill:#000001;fill:color(display-p3 0.0000 0.0000 0.0039);fill-opacity:1;"/>
</g>
<g id="pt-d_6">
<path id="Vector_42" d="M308.908 240.78C308.801 234.914 304.641 233.527 304.641 233.527C304.534 233.527 300.054 235.02 300.054 240.887L308.908 240.78Z" fill="#FFFF00" style="fill:#FFFF00;fill:color(display-p3 1.0000 1.0000 0.0000);fill-opacity:1;"/>
<path id="Vector_43" d="M312.535 233.634L313.281 240.354H308.801C308.801 234.807 304.535 233.954 304.535 233.954C304.428 233.954 300.268 235.127 300.161 240.354H295.681L296.534 233.527L312.535 233.634ZM313.601 240.46H295.468C295.112 240.46 294.899 240.709 294.828 241.207C294.828 241.776 295.041 242.06 295.468 242.06H313.601C313.957 242.06 314.17 241.776 314.241 241.207C314.241 240.709 313.992 240.46 313.495 240.46H313.601Z" fill="#FFFF00" stroke="black" style="fill:#FFFF00;fill:color(display-p3 1.0000 1.0000 0.0000);fill-opacity:1;stroke:black;stroke-opacity:1;" stroke-width="0.533335"/>
<g id="Vector_44">
<path d="M306.988 240.354C306.988 236.834 304.534 235.874 304.534 235.874C304.534 235.874 302.081 236.94 302.081 240.354H306.988ZM313.174 230.754H295.788C295.432 230.825 295.219 231.109 295.148 231.607C295.148 231.963 295.361 232.176 295.788 232.247H313.174C313.53 232.247 313.743 231.998 313.814 231.5C313.814 231.145 313.601 230.932 313.174 230.86V230.754ZM312.748 232.354H296.321C295.966 232.354 295.752 232.603 295.681 233.1C295.61 233.598 295.823 233.847 296.321 233.847H312.854C313.281 233.847 313.494 233.598 313.494 233.1C313.494 232.603 313.281 232.354 312.854 232.354H312.748ZM307.414 221.047H306.134V221.9H305.174V221.047H303.788V222.007H302.828V220.94H301.548V223.074C301.548 223.5 301.726 223.714 302.081 223.714H306.774C307.13 223.714 307.343 223.536 307.414 223.18V221.047ZM302.508 223.927L302.188 230.754H306.774L306.454 223.82H302.508" fill="#FFFF00" style="fill:#FFFF00;fill:color(display-p3 1.0000 1.0000 0.0000);fill-opacity:1;"/>
<path d="M302.508 223.927L302.188 230.754H306.774L306.454 223.82H302.508M306.988 240.354C306.988 236.834 304.534 235.874 304.534 235.874C304.534 235.874 302.081 236.94 302.081 240.354H306.988ZM313.174 230.754H295.788C295.432 230.825 295.219 231.109 295.148 231.607C295.148 231.963 295.361 232.176 295.788 232.247H313.174C313.53 232.247 313.743 231.998 313.814 231.5C313.814 231.145 313.601 230.932 313.174 230.86V230.754ZM312.748 232.354H296.321C295.966 232.354 295.752 232.603 295.681 233.1C295.61 233.598 295.823 233.847 296.321 233.847H312.854C313.281 233.847 313.494 233.598 313.494 233.1C313.494 232.603 313.281 232.354 312.854 232.354H312.748ZM307.414 221.047H306.134V221.9H305.174V221.047H303.788V222.007H302.828V220.94H301.548V223.074C301.548 223.5 301.726 223.714 302.081 223.714H306.774C307.13 223.714 307.343 223.536 307.414 223.18V221.047Z" stroke="black" style="stroke:black;stroke-opacity:1;" stroke-width="0.533335"/>
</g>
<path id="pt-a_11" d="M308.055 227.127V230.754H312.321V227.127H308.055Z" fill="#FFFF00" stroke="black" style="fill:#FFFF00;fill:color(display-p3 1.0000 1.0000 0.0000);fill-opacity:1;stroke:black;stroke-opacity:1;" stroke-width="0.533335"/>
<path id="pt-a_12" d="M296.748 227.127V230.754H301.015V227.127H296.748Z" fill="#FFFF00" stroke="black" style="fill:#FFFF00;fill:color(display-p3 1.0000 1.0000 0.0000);fill-opacity:1;stroke:black;stroke-opacity:1;" stroke-width="0.533335"/>
<path id="pt-b_11" d="M313.068 224.354H311.788V225.42H310.828V224.354H309.548V225.42H308.588V224.354H307.308V226.487C307.308 226.914 307.486 227.127 307.841 227.127H312.428C312.575 227.074 312.709 226.989 312.819 226.878C312.93 226.768 313.015 226.634 313.068 226.487V224.354Z" fill="#FFFF00" stroke="black" style="fill:#FFFF00;fill:color(display-p3 1.0000 1.0000 0.0000);fill-opacity:1;stroke:black;stroke-opacity:1;" stroke-width="0.533335"/>
<path id="pt-b_12" d="M301.761 224.354H300.481V225.42H299.521V224.354H298.241V225.42H297.281V224.354H296.001V226.487C296.001 226.914 296.179 227.127 296.535 227.127H301.121C301.268 227.074 301.402 226.989 301.512 226.878C301.623 226.768 301.708 226.634 301.761 226.487V224.354Z" fill="#FFFF00" stroke="black" style="fill:#FFFF00;fill:color(display-p3 1.0000 1.0000 0.0000);fill-opacity:1;stroke:black;stroke-opacity:1;" stroke-width="0.533335"/>
<path id="Vector_45" d="M304.961 226.061C304.961 225.421 304.001 225.421 304.001 226.061V227.767H304.961V226.061Z" fill="#000001" style="fill:#000001;fill:color(display-p3 0.0000 0.0000 0.0039);fill-opacity:1;"/>
<path id="pt-c_11" d="M310.615 228.407C310.615 227.767 309.761 227.767 309.761 228.407V229.687H310.615V228.407Z" fill="#000001" style="fill:#000001;fill:color(display-p3 0.0000 0.0000 0.0039);fill-opacity:1;"/>
<path id="pt-c_12" d="M299.308 228.407C299.308 227.767 298.454 227.767 298.454 228.407V229.687H299.308V228.407Z" fill="#000001" style="fill:#000001;fill:color(display-p3 0.0000 0.0000 0.0039);fill-opacity:1;"/>
</g>
<g id="pt-d_7">
<path id="Vector_46" d="M289.657 292.253C293.745 288.043 291.798 284.114 291.798 284.114C291.723 284.038 287.506 281.912 283.343 286.046L289.657 292.253Z" fill="#FFFF00" style="fill:#FFFF00;fill:color(display-p3 1.0000 1.0000 0.0000);fill-opacity:1;"/>
<path id="Vector_47" d="M297.284 289.79L293.042 295.055L289.885 291.876C293.821 287.968 291.42 284.339 291.42 284.339C291.345 284.263 287.581 282.138 283.797 285.746L280.64 282.567L286.086 278.362L297.284 289.79ZM293.192 295.357L280.414 282.49C280.164 282.238 279.837 282.262 279.434 282.562C279.03 282.963 278.978 283.315 279.279 283.618L292.057 296.485C292.307 296.737 292.659 296.688 293.113 296.338C293.466 295.987 293.467 295.635 293.117 295.282L293.192 295.357Z" fill="#FFFF00" stroke="black" style="fill:#FFFF00;fill:color(display-p3 1.0000 1.0000 0.0000);fill-opacity:1;stroke:black;stroke-opacity:1;" stroke-width="0.533335"/>
<g id="Vector_48">
<path d="M288.607 290.589C291.105 288.109 290.058 285.692 290.058 285.692C290.058 285.692 287.572 284.703 285.15 287.108L288.607 290.589ZM299.779 288.215L287.527 275.878C287.226 275.676 286.874 275.725 286.471 276.025C286.219 276.275 286.218 276.577 286.468 276.93L298.719 289.267C298.97 289.519 299.296 289.495 299.7 289.195C299.952 288.945 299.953 288.643 299.703 288.29L299.779 288.215ZM298.343 289.04L286.768 277.384C286.517 277.131 286.19 277.155 285.787 277.456C285.384 277.756 285.357 278.083 285.708 278.436L297.358 290.167C297.659 290.47 297.986 290.446 298.339 290.095C298.692 289.745 298.718 289.418 298.418 289.115L298.343 289.04ZM302.608 277.288L301.706 276.38L301.1 276.981L300.424 276.3L301.029 275.699L300.052 274.715L299.371 275.391L298.694 274.71L299.451 273.958L298.549 273.05L297.036 274.553C296.733 274.854 296.707 275.13 296.957 275.383L300.264 278.713C300.515 278.965 300.791 278.991 301.094 278.791L302.608 277.288ZM297.107 275.836L292.037 280.419L295.269 283.674L299.963 278.561L297.182 275.761" fill="#FFFF00" style="fill:#FFFF00;fill:color(display-p3 1.0000 1.0000 0.0000);fill-opacity:1;"/>
<path d="M297.107 275.836L292.037 280.419L295.269 283.674L299.963 278.561L297.182 275.761M288.607 290.589C291.105 288.109 290.058 285.692 290.058 285.692C290.058 285.692 287.572 284.703 285.15 287.108L288.607 290.589ZM299.779 288.215L287.527 275.878C287.226 275.676 286.874 275.725 286.471 276.025C286.219 276.275 286.218 276.577 286.468 276.93L298.719 289.267C298.97 289.519 299.296 289.495 299.7 289.195C299.952 288.945 299.953 288.643 299.703 288.29L299.779 288.215ZM298.343 289.04L286.768 277.384C286.517 277.131 286.19 277.155 285.787 277.456C285.384 277.756 285.357 278.083 285.708 278.436L297.358 290.167C297.659 290.47 297.986 290.446 298.339 290.095C298.692 289.745 298.718 289.418 298.418 289.115L298.343 289.04ZM302.608 277.288L301.706 276.38L301.1 276.981L300.424 276.3L301.029 275.699L300.052 274.715L299.371 275.391L298.694 274.71L299.451 273.958L298.549 273.05L297.036 274.553C296.733 274.854 296.707 275.13 296.957 275.383L300.264 278.713C300.515 278.965 300.791 278.991 301.094 278.791L302.608 277.288Z" stroke="black" style="stroke:black;stroke-opacity:1;" stroke-width="0.533335"/>
</g>
<path id="pt-a_13" d="M298.745 282.026L296.171 284.582L299.178 287.609L301.751 285.054L298.745 282.026Z" fill="#FFFF00" stroke="black" style="fill:#FFFF00;fill:color(display-p3 1.0000 1.0000 0.0000);fill-opacity:1;stroke:black;stroke-opacity:1;" stroke-width="0.533335"/>
<path id="pt-a_14" d="M290.777 274.003L288.204 276.559L291.21 279.586L293.784 277.031L290.777 274.003Z" fill="#FFFF00" stroke="black" style="fill:#FFFF00;fill:color(display-p3 1.0000 1.0000 0.0000);fill-opacity:1;stroke:black;stroke-opacity:1;" stroke-width="0.533335"/>
<path id="pt-b_13" d="M304.245 283.629L303.343 282.721L302.586 283.473L301.909 282.792L302.666 282.04L301.764 281.132L301.007 281.883L300.331 281.202L301.088 280.451L300.186 279.542L298.672 281.045C298.369 281.346 298.343 281.623 298.594 281.875L301.826 285.129C301.967 285.196 302.122 285.231 302.278 285.232C302.434 285.232 302.589 285.198 302.731 285.133L304.245 283.629Z" fill="#FFFF00" stroke="black" style="fill:#FFFF00;fill:color(display-p3 1.0000 1.0000 0.0000);fill-opacity:1;stroke:black;stroke-opacity:1;" stroke-width="0.533335"/>
<path id="pt-b_14" d="M296.278 275.606L295.376 274.698L294.619 275.45L293.943 274.769L294.699 274.017L293.798 273.109L293.041 273.86L292.364 273.179L293.121 272.428L292.219 271.519L290.705 273.023C290.403 273.323 290.377 273.6 290.627 273.852L293.859 277.107C294 277.173 294.155 277.208 294.311 277.209C294.468 277.209 294.622 277.176 294.764 277.11L296.278 275.606Z" fill="#FFFF00" stroke="black" style="fill:#FFFF00;fill:color(display-p3 1.0000 1.0000 0.0000);fill-opacity:1;stroke:black;stroke-opacity:1;" stroke-width="0.533335"/>
<path id="Vector_49" d="M297.322 279.08C297.776 278.629 297.099 277.948 296.645 278.398L295.434 279.601L296.111 280.282L297.322 279.08Z" fill="#000001" style="fill:#000001;fill:color(display-p3 0.0000 0.0000 0.0039);fill-opacity:1;"/>
<path id="pt-c_13" d="M299.64 284.745C300.094 284.294 299.493 283.688 299.039 284.139L298.13 285.041L298.732 285.647L299.64 284.745Z" fill="#000001" style="fill:#000001;fill:color(display-p3 0.0000 0.0000 0.0039);fill-opacity:1;"/>
<path id="pt-c_14" d="M291.673 276.722C292.127 276.271 291.526 275.665 291.072 276.116L290.164 277.018L290.765 277.624L291.673 276.722Z" fill="#000001" style="fill:#000001;fill:color(display-p3 0.0000 0.0000 0.0039);fill-opacity:1;"/>
</g>
</g>
<g id="pt-f">
<path id="Vector_50" d="M248.107 242.594C248.054 244.851 248.898 247.038 250.454 248.674C251.158 249.481 252.027 250.127 253.002 250.569C253.978 251.011 255.037 251.238 256.107 251.234C258.383 251.092 260.267 250.238 261.761 248.674C263.317 247.038 264.16 244.851 264.107 242.594V231.074H248.107V242.594Z" fill="#003399" style="fill:#003399;fill:color(display-p3 0.0000 0.2000 0.6000);fill-opacity:1;"/>
<path id="Vector_51" d="M251.841 237.047C252.724 237.047 253.441 236.331 253.441 235.447C253.441 234.564 252.724 233.847 251.841 233.847C250.957 233.847 250.241 234.564 250.241 235.447C250.241 236.331 250.957 237.047 251.841 237.047Z" fill="white" style="fill:white;fill-opacity:1;"/>
<path id="Vector_52" d="M260.694 237.047C261.578 237.047 262.294 236.331 262.294 235.447C262.294 234.564 261.578 233.847 260.694 233.847C259.811 233.847 259.094 234.564 259.094 235.447C259.094 236.331 259.811 237.047 260.694 237.047Z" fill="white" style="fill:white;fill-opacity:1;"/>
<path id="Vector_53" d="M256.214 241.314C257.097 241.314 257.814 240.598 257.814 239.714C257.814 238.83 257.097 238.114 256.214 238.114C255.33 238.114 254.614 238.83 254.614 239.714C254.614 240.598 255.33 241.314 256.214 241.314Z" fill="white" style="fill:white;fill-opacity:1;"/>
<path id="Vector_54" d="M251.841 245.794C252.724 245.794 253.441 245.078 253.441 244.194C253.441 243.31 252.724 242.594 251.841 242.594C250.957 242.594 250.241 243.31 250.241 244.194C250.241 245.078 250.957 245.794 251.841 245.794Z" fill="white" style="fill:white;fill-opacity:1;"/>
<path id="Vector_55" d="M260.694 245.794C261.578 245.794 262.294 245.078 262.294 244.194C262.294 243.31 261.578 242.594 260.694 242.594C259.811 242.594 259.094 243.31 259.094 244.194C259.094 245.078 259.811 245.794 260.694 245.794Z" fill="white" style="fill:white;fill-opacity:1;"/>
</g>
<g id="pt-f_2">
<path id="Vector_56" d="M248.107 214.861C248.054 217.118 248.898 219.304 250.454 220.941C251.158 221.748 252.027 222.394 253.002 222.836C253.978 223.278 255.037 223.504 256.107 223.501C258.383 223.358 260.267 222.505 261.761 220.941C263.317 219.304 264.16 217.118 264.107 214.861V203.341H248.107V214.861Z" fill="#003399" style="fill:#003399;fill:color(display-p3 0.0000 0.2000 0.6000);fill-opacity:1;"/>
<path id="Vector_57" d="M251.841 209.314C252.724 209.314 253.441 208.598 253.441 207.714C253.441 206.83 252.724 206.114 251.841 206.114C250.957 206.114 250.241 206.83 250.241 207.714C250.241 208.598 250.957 209.314 251.841 209.314Z" fill="white" style="fill:white;fill-opacity:1;"/>
<path id="Vector_58" d="M260.694 209.314C261.578 209.314 262.294 208.598 262.294 207.714C262.294 206.83 261.578 206.114 260.694 206.114C259.811 206.114 259.094 206.83 259.094 207.714C259.094 208.598 259.811 209.314 260.694 209.314Z" fill="white" style="fill:white;fill-opacity:1;"/>
<path id="Vector_59" d="M256.214 213.581C257.097 213.581 257.814 212.864 257.814 211.981C257.814 211.097 257.097 210.381 256.214 210.381C255.33 210.381 254.614 211.097 254.614 211.981C254.614 212.864 255.33 213.581 256.214 213.581Z" fill="white" style="fill:white;fill-opacity:1;"/>
<path id="Vector_60" d="M251.841 218.061C252.724 218.061 253.441 217.344 253.441 216.461C253.441 215.577 252.724 214.861 251.841 214.861C250.957 214.861 250.241 215.577 250.241 216.461C250.241 217.344 250.957 218.061 251.841 218.061Z" fill="white" style="fill:white;fill-opacity:1;"/>
<path id="Vector_61" d="M260.694 218.061C261.578 218.061 262.294 217.344 262.294 216.461C262.294 215.577 261.578 214.861 260.694 214.861C259.811 214.861 259.094 215.577 259.094 216.461C259.094 217.344 259.811 218.061 260.694 218.061Z" fill="white" style="fill:white;fill-opacity:1;"/>
</g>
<g id="pt-f_3">
<path id="Vector_62" d="M225.921 242.594C225.868 244.851 226.712 247.038 228.267 248.674C228.971 249.481 229.84 250.127 230.816 250.569C231.791 251.011 232.85 251.238 233.921 251.234C236.196 251.092 238.081 250.238 239.574 248.674C241.13 247.038 241.974 244.851 241.921 242.594V231.074H225.921V242.594Z" fill="#003399" style="fill:#003399;fill:color(display-p3 0.0000 0.2000 0.6000);fill-opacity:1;"/>
<path id="Vector_63" d="M229.654 237.047C230.538 237.047 231.254 236.331 231.254 235.447C231.254 234.564 230.538 233.847 229.654 233.847C228.771 233.847 228.054 234.564 228.054 235.447C228.054 236.331 228.771 237.047 229.654 237.047Z" fill="white" style="fill:white;fill-opacity:1;"/>
<path id="Vector_64" d="M238.508 237.047C239.391 237.047 240.108 236.331 240.108 235.447C240.108 234.564 239.391 233.847 238.508 233.847C237.624 233.847 236.908 234.564 236.908 235.447C236.908 236.331 237.624 237.047 238.508 237.047Z" fill="white" style="fill:white;fill-opacity:1;"/>
<path id="Vector_65" d="M234.027 241.314C234.911 241.314 235.627 240.598 235.627 239.714C235.627 238.83 234.911 238.114 234.027 238.114C233.144 238.114 232.427 238.83 232.427 239.714C232.427 240.598 233.144 241.314 234.027 241.314Z" fill="white" style="fill:white;fill-opacity:1;"/>
<path id="Vector_66" d="M229.654 245.794C230.538 245.794 231.254 245.078 231.254 244.194C231.254 243.31 230.538 242.594 229.654 242.594C228.771 242.594 228.054 243.31 228.054 244.194C228.054 245.078 228.771 245.794 229.654 245.794Z" fill="white" style="fill:white;fill-opacity:1;"/>
<path id="Vector_67" d="M238.508 245.794C239.391 245.794 240.108 245.078 240.108 244.194C240.108 243.31 239.391 242.594 238.508 242.594C237.624 242.594 236.908 243.31 236.908 244.194C236.908 245.078 237.624 245.794 238.508 245.794Z" fill="white" style="fill:white;fill-opacity:1;"/>
</g>
<g id="pt-f_4">
<path id="Vector_68" d="M270.294 242.594C270.241 244.851 271.085 247.038 272.641 248.674C273.345 249.481 274.214 250.127 275.189 250.569C276.165 251.011 277.224 251.238 278.294 251.234C280.57 251.092 282.454 250.238 283.948 248.674C285.504 247.038 286.347 244.851 286.294 242.594V231.074H270.294V242.594Z" fill="#003399" style="fill:#003399;fill:color(display-p3 0.0000 0.2000 0.6000);fill-opacity:1;"/>
<path id="Vector_69" d="M274.028 237.047C274.911 237.047 275.628 236.331 275.628 235.447C275.628 234.564 274.911 233.847 274.028 233.847C273.144 233.847 272.428 234.564 272.428 235.447C272.428 236.331 273.144 237.047 274.028 237.047Z" fill="white" style="fill:white;fill-opacity:1;"/>
<path id="Vector_70" d="M282.881 237.047C283.765 237.047 284.481 236.331 284.481 235.447C284.481 234.564 283.765 233.847 282.881 233.847C281.998 233.847 281.281 234.564 281.281 235.447C281.281 236.331 281.998 237.047 282.881 237.047Z" fill="white" style="fill:white;fill-opacity:1;"/>
<path id="Vector_71" d="M278.401 241.314C279.284 241.314 280.001 240.598 280.001 239.714C280.001 238.83 279.284 238.114 278.401 238.114C277.517 238.114 276.801 238.83 276.801 239.714C276.801 240.598 277.517 241.314 278.401 241.314Z" fill="white" style="fill:white;fill-opacity:1;"/>
<path id="Vector_72" d="M274.028 245.794C274.911 245.794 275.628 245.078 275.628 244.194C275.628 243.31 274.911 242.594 274.028 242.594C273.144 242.594 272.428 243.31 272.428 244.194C272.428 245.078 273.144 245.794 274.028 245.794Z" fill="white" style="fill:white;fill-opacity:1;"/>
<path id="Vector_73" d="M282.881 245.794C283.765 245.794 284.481 245.078 284.481 244.194C284.481 243.31 283.765 242.594 282.881 242.594C281.998 242.594 281.281 243.31 281.281 244.194C281.281 245.078 281.998 245.794 282.881 245.794Z" fill="white" style="fill:white;fill-opacity:1;"/>
</g>
<g id="pt-f_5">
<path id="Vector_74" d="M248.107 270.114C248.054 272.371 248.898 274.558 250.454 276.194C251.158 277.001 252.027 277.648 253.002 278.089C253.978 278.531 255.037 278.758 256.107 278.754C258.383 278.612 260.267 277.758 261.761 276.194C263.317 274.558 264.16 272.371 264.107 270.114V258.594H248.107V270.114Z" fill="#003399" style="fill:#003399;fill:color(display-p3 0.0000 0.2000 0.6000);fill-opacity:1;"/>
<path id="Vector_75" d="M251.841 264.567C252.724 264.567 253.441 263.851 253.441 262.967C253.441 262.084 252.724 261.367 251.841 261.367C250.957 261.367 250.241 262.084 250.241 262.967C250.241 263.851 250.957 264.567 251.841 264.567Z" fill="white" style="fill:white;fill-opacity:1;"/>
<path id="Vector_76" d="M260.694 264.567C261.578 264.567 262.294 263.851 262.294 262.967C262.294 262.084 261.578 261.367 260.694 261.367C259.811 261.367 259.094 262.084 259.094 262.967C259.094 263.851 259.811 264.567 260.694 264.567Z" fill="white" style="fill:white;fill-opacity:1;"/>
<path id="Vector_77" d="M256.214 268.834C257.097 268.834 257.814 268.118 257.814 267.234C257.814 266.35 257.097 265.634 256.214 265.634C255.33 265.634 254.614 266.35 254.614 267.234C254.614 268.118 255.33 268.834 256.214 268.834Z" fill="white" style="fill:white;fill-opacity:1;"/>
<path id="Vector_78" d="M251.841 273.314C252.724 273.314 253.441 272.598 253.441 271.714C253.441 270.83 252.724 270.114 251.841 270.114C250.957 270.114 250.241 270.83 250.241 271.714C250.241 272.598 250.957 273.314 251.841 273.314Z" fill="white" style="fill:white;fill-opacity:1;"/>
<path id="Vector_79" d="M260.694 273.314C261.578 273.314 262.294 272.598 262.294 271.714C262.294 270.83 261.578 270.114 260.694 270.114C259.811 270.114 259.094 270.83 259.094 271.714C259.094 272.598 259.811 273.314 260.694 273.314Z" fill="white" style="fill:white;fill-opacity:1;"/>
</g>
</g>
</g>
<defs>
<clipPath id="clip0_2194_7608">
<rect width="640" height="480" fill="white" style="fill:white;fill-opacity:1;"/>
</clipPath>
</defs>
</svg>
