<svg width="640" height="480" viewBox="0 0 640 480" fill="none" xmlns="http://www.w3.org/2000/svg">
<g id="py" clip-path="url(#clip0_2194_7753)">
<path id="Vector" d="M0 319.7H640V480H0V319.7Z" fill="#0038A8" style="fill:#0038A8;fill:color(display-p3 0.0000 0.2196 0.6588);fill-opacity:1;"/>
<path id="Vector_2" d="M0 160H640V320H0V160Z" fill="white" style="fill:white;fill-opacity:1;"/>
<path id="Vector_3" d="M0 0H640V160H0V0Z" fill="#D52B1E" style="fill:#D52B1E;fill:color(display-p3 0.8353 0.1686 0.1176);fill-opacity:1;"/>
<g id="Group">
<path id="Vector_4" d="M319.965 301.383C353.865 301.383 381.347 273.901 381.347 240.001C381.347 206.1 353.865 178.619 319.965 178.619C286.065 178.619 258.583 206.1 258.583 240.001C258.583 273.901 286.065 301.383 319.965 301.383Z" stroke="black" style="stroke:black;stroke-opacity:1;" stroke-width="1.60001"/>
<path id="Vector_5" d="M319.965 290.474C347.84 290.474 370.438 267.876 370.438 240.001C370.438 212.125 347.84 189.528 319.965 189.528C292.09 189.528 269.492 212.125 269.492 240.001C269.492 267.876 292.09 290.474 319.965 290.474Z" stroke="black" style="stroke:black;stroke-opacity:1;" stroke-width="0.727275"/>
<path id="Vector_6" d="M319.965 278.692C341.333 278.692 358.656 261.369 358.656 240.001C358.656 218.632 341.333 201.31 319.965 201.31C298.597 201.31 281.274 218.632 281.274 240.001C281.274 261.369 298.597 278.692 319.965 278.692Z" stroke="black" style="stroke:black;stroke-opacity:1;" stroke-width="0.58182"/>
</g>
<path id="Vector_7" d="M287.3 263.7L280.2 267.9L278 264.2L277.3 262.6C277.187 262.168 277.222 261.71 277.4 261.3C277.6 260.9 277.933 260.567 278.4 260.3C278.733 260.1 279.1 260 279.5 260L280.6 260.2L281.4 260.8V259.5L281.7 259L283.2 256.7L284.6 259.2L283.2 261.6L282.9 262.4L283 263L283.1 263.2L286.1 261.5L287.3 263.7ZM281.8 264L281.2 263L280.8 262.5L280.3 262.3L279.8 262.4L279.4 263C279.4 263.2 279.533 263.5 279.8 263.9L280.3 264.9L281.8 264ZM275.1 258.5L272.9 252L274.6 251.4L275.9 255.5L277.2 255.1L275.9 251.3L277.5 250.8L278.8 254.5L280.3 254L278.9 249.8L280.7 249.3L282.9 255.9L275.1 258.5ZM272.2 248.8L271.8 244.6C271.667 243.667 271.8 242.967 272.2 242.5C272.6 241.9 273.2 241.567 274 241.5C274.8 241.433 275.467 241.633 276 242.1C276.467 242.567 276.8 243.3 277 244.3L277.1 245.7L280.1 245.3L280.5 247.9L272.2 248.8ZM275.5 245.8L275.4 245.2C275.4 244.733 275.267 244.4 275 244.2L274.3 244L273.7 244.4C273.567 244.533 273.5 244.867 273.5 245.4L273.6 246.1L275.5 245.8ZM272 233.3L272.3 230.7L277.1 231.3L278.5 231.7C278.9 231.9 279.233 232.167 279.5 232.5C279.767 232.833 279.967 233.167 280.1 233.5C280.3 234.1 280.333 234.733 280.2 235.4L280 236.7C279.867 237.167 279.7 237.533 279.5 237.8C279.088 238.448 278.444 238.913 277.7 239.1H276.3L271.4 238.6L271.7 236.1L276.7 236.6C277.1 236.6 277.433 236.533 277.7 236.4C277.967 236.267 278.167 235.933 278.3 235.4C278.347 235.222 278.344 235.034 278.291 234.858C278.238 234.681 278.137 234.523 278 234.4C277.733 234.067 277.4 233.867 277 233.8L272 233.3ZM273 227.3L274.7 222.7C274.9 221.9 275.267 221.4 275.8 221.2C276.038 221.057 276.303 220.966 276.579 220.932C276.854 220.897 277.134 220.92 277.4 221C277.867 221.2 278.2 221.5 278.4 221.9C278.6 222.167 278.7 222.5 278.7 222.9C279.033 222.433 279.4 222.1 279.8 221.9C280.251 221.731 280.748 221.731 281.2 221.9C281.607 222.004 281.972 222.234 282.241 222.557C282.51 222.881 282.671 223.28 282.7 223.7V224.7L282.4 225.7L280.9 229.9L273 227.3ZM277 225.9L277.4 224.8C277.4 224.4 277.4 224.133 277.4 224C277.4 223.867 277.267 223.7 277 223.5H276.4C276.2 223.7 276.033 223.967 275.9 224.3L275.5 225.3L277 225.9ZM280 226.9L280.5 225.7C280.633 225.3 280.633 224.967 280.5 224.7L280.1 224.3H279.4L278.9 225.2L278.5 226.4L280 226.9ZM277 217.3L278.3 215.1L283.7 218.3L285.7 214.9L287.5 215.9L284.1 221.5L277 217.3ZM282 209.7L283.6 207.7L290 213L288.4 215L282 209.7ZM293.1 205.4L295.3 204.4C295.567 205.067 295.733 205.633 295.8 206.1L295.5 207.6C295.201 208.173 294.793 208.682 294.3 209.1C293.754 209.653 293.059 210.035 292.3 210.2C291.644 210.369 290.956 210.369 290.3 210.2C289.506 209.849 288.816 209.298 288.3 208.6C287.3 207.6 286.867 206.567 287 205.5C287.044 204.93 287.21 204.377 287.486 203.877C287.762 203.376 288.142 202.941 288.6 202.6C289.24 202.029 290.046 201.678 290.9 201.6C291.567 201.467 292.333 201.633 293.2 202.1L291.8 204L291.2 203.7H290.5L289.9 204.1C289.523 204.469 289.307 204.972 289.3 205.5C289.367 205.9 289.633 206.367 290.1 206.9C290.7 207.567 291.233 207.967 291.7 208.1C292.1 208.167 292.5 208.033 292.9 207.7C293.3 207.367 293.5 207.033 293.5 206.7C293.5 206.233 293.367 205.8 293.1 205.4ZM301.9 202.2L299.4 203.6L299.7 205L297.4 206.2L296.2 197.5L298.7 196.2L305.3 202L302.9 203.3L301.9 202.2ZM300.6 200.9L298.4 198.7L299 201.7L300.6 200.9ZM308.4 192.4L312.2 191.8H314C314.533 191.867 314.967 192.1 315.3 192.5C315.8 193.1 316 193.2 316.2 193.7C316.467 194.167 316.6 194.667 316.6 195.2C316.8 196.133 316.833 196.8 316.7 197.2L316.1 198.6L315.1 199.5L313.6 200L309.9 200.6L308.4 192.4ZM311.3 193.8L312.1 198.3L312.7 198.2C313.233 198.133 313.567 198 313.7 197.8C313.967 197.667 314.133 197.433 314.2 197.1V195.7C314 194.833 313.733 194.267 313.4 194C313.133 193.667 312.633 193.567 311.9 193.7L311.3 193.8ZM319.1 191L325.9 191.3V193.1L321.6 192.9L321.5 194.2L325.5 194.4L325.4 196.1L321.4 195.9V197.5L325.8 197.7L325.7 199.6L318.7 199.3L319.1 191ZM329.1 191.8L331.5 192.4L330 198.4L334 199.4L333.4 201.4L327.1 199.8L329.1 191.8ZM342.3 196.2L346 198.4C346.8 198.867 347.267 199.4 347.4 200C347.533 200.6 347.433 201.267 347.1 202C346.712 202.628 346.107 203.09 345.4 203.3C344.733 203.433 343.967 203.233 343.1 202.7L341.9 202L340.3 204.6L338.1 203.3L342.3 196.2ZM342.7 200.6L343.3 200.9L344.3 201.2L344.9 200.8V200.1C344.9 199.833 344.7 199.567 344.3 199.3L343.7 199L342.7 200.6ZM349.9 210.2L347.8 208.2L346.6 208.9L344.6 207.2L352.6 203.2L354.6 205.2L351.2 213.3L349.2 211.5L349.9 210.2ZM350.7 208.5L352.1 205.7L349.4 207.3L350.7 208.5ZM351.7 214L358.6 209.3L360.9 212.8L361.9 214.5L361.8 215.7C361.62 216.182 361.262 216.575 360.8 216.8C360.467 217.067 360.133 217.2 359.8 217.2L358.6 217C358.4 216.933 358.133 216.767 357.8 216.5L358 217.2L357.8 217.8L357.6 218.4L356.3 220.7L354.7 218.4L356 215.8L356.3 215.1L356.1 214.4L356 214.2L353.2 216.2L351.7 214ZM357.2 213.4L357.9 214.3L358.3 214.7C358.5 214.9 358.667 214.967 358.8 214.9L359.3 214.8L359.6 214.2C359.6 214 359.5 213.7 359.3 213.3L358.6 212.4L357.2 213.4ZM359.8 225.8L358.8 223L357.3 223.2L356.3 220.7L365.2 220.6L366.2 223.2L359.7 229.2L358.7 226.6L359.8 225.8ZM361.3 224.6L363.7 222.6L360.6 222.9L361.3 224.6ZM363.4 233.6L365.1 233.4L365.7 237.3L362.2 237.8L360.9 236L360.3 234C360.121 233.172 360.155 232.311 360.4 231.5C360.686 230.862 361.134 230.311 361.7 229.9C362.35 229.428 363.105 229.119 363.9 229C364.704 228.87 365.528 228.939 366.3 229.2C366.986 229.498 367.575 229.983 368 230.6C368.333 231.2 368.6 231.933 368.8 232.8V234.8L368.2 236.1C367.933 236.433 367.533 236.733 367 237L366.2 234.6C366.467 234.533 366.7 234.333 366.9 234C367.1 233.667 367.1 233.333 366.9 233C366.817 232.529 366.569 232.104 366.2 231.8C365.867 231.467 365.2 231.4 364.2 231.6C363.574 231.65 362.979 231.895 362.5 232.3C362.1 232.767 361.967 233.267 362.1 233.8C362.1 234.133 362.2 234.4 362.4 234.6L362.9 235.4H363.7L363.4 233.6ZM368.8 245.6L368.6 248.2L363.6 247.8L362.3 247.4L361.3 246.6L360.7 245.5L360.5 243.7L360.7 242.4L361.2 241.2L362 240.4L363 240L364.4 239.8L369.4 240.3L369.1 242.8L364.1 242.4C363.567 242.4 363.2 242.5 363 242.7C362.826 242.798 362.686 242.945 362.597 243.124C362.508 243.302 362.474 243.502 362.5 243.7C362.5 244.167 362.6 244.5 362.8 244.7C363 245.033 363.333 245.2 363.8 245.2L368.8 245.6ZM359.7 254.4L360.6 251.6L359.4 250.8L360.2 248.3L367.2 253.9L366.2 256.5L357.4 256.9L358.3 254.4H359.7ZM361.6 254.4L364.6 254.5L362.1 252.7L361.6 254.4ZM364.6 261.2L363.1 263.6H359.8L361.3 266.5L359.9 268.9L357.4 263.7L354.4 261.9L355.8 259.7L358.8 261.5L364.6 261.2Z" fill="black" style="fill:black;fill-opacity:1;"/>
<g id="Group_2">
<path id="Vector_8" d="M328.1 211.3C328.1 211.3 351.5 221.4 347.4 242.2C343.3 263 330.4 262.8 325.2 265.2C320.2 267.4 316.6 270.7 314.6 270.2C312.6 269.7 309.9 268.2 309.9 268.2C309.9 268.2 309.7 271.7 313.8 272.2C317.9 272.9 323.3 266.9 325.8 266.2C328.4 265.6 344.3 263.8 348.2 242.7C352.7 220.1 328.2 212 328.2 211.3H328.1Z" fill="#009B3A" stroke="black" style="fill:#009B3A;fill:color(display-p3 0.0000 0.6078 0.2275);fill-opacity:1;stroke:black;stroke-opacity:1;" stroke-width="0.1"/>
<path id="Vector_9" d="M339.9 215.8C339.967 216.338 339.975 216.793 339.921 217.112C339.867 217.431 339.755 217.601 339.597 217.601C339.439 217.601 339.243 217.431 339.031 217.112C338.818 216.793 338.6 216.338 338.4 215.8C338.225 215.328 338.07 214.808 337.951 214.289C337.831 213.771 337.751 213.269 337.717 212.831C337.683 212.393 337.696 212.032 337.756 211.783C337.815 211.533 337.919 211.402 338.058 211.402C338.196 211.402 338.365 211.533 338.549 211.783C338.733 212.032 338.925 212.393 339.108 212.831C339.292 213.269 339.461 213.771 339.599 214.289C339.737 214.808 339.841 215.328 339.9 215.8Z" fill="#009B3A" stroke="black" style="fill:#009B3A;fill:color(display-p3 0.0000 0.6078 0.2275);fill-opacity:1;stroke:black;stroke-opacity:1;" stroke-width="0.1"/>
<path id="Vector_10" d="M339.1 216C339.303 216.409 339.486 216.821 339.638 217.211C339.791 217.602 339.909 217.964 339.988 218.276C340.066 218.589 340.103 218.846 340.096 219.033C340.088 219.22 340.037 219.333 339.945 219.366C339.854 219.398 339.723 219.35 339.56 219.224C339.397 219.098 339.206 218.896 338.998 218.63C338.789 218.364 338.567 218.039 338.345 217.673C338.122 217.308 337.903 216.909 337.7 216.5C337.29 215.674 336.971 214.855 336.812 214.224C336.654 213.593 336.669 213.201 336.855 213.135C337.041 213.068 337.381 213.333 337.802 213.87C338.224 214.408 338.69 215.174 339.1 216ZM336.8 217.5C337.524 217.735 338.184 218.026 338.653 218.316C339.122 218.607 339.368 218.877 339.343 219.075C339.318 219.273 339.025 219.385 338.519 219.39C338.013 219.394 337.33 219.291 336.6 219.1C335.876 218.865 335.216 218.575 334.747 218.284C334.278 217.994 334.032 217.723 334.057 217.525C334.082 217.327 334.375 217.215 334.881 217.211C335.388 217.206 336.071 217.309 336.8 217.5Z" fill="#009B3A" stroke="black" style="fill:#009B3A;fill:color(display-p3 0.0000 0.6078 0.2275);fill-opacity:1;stroke:black;stroke-opacity:1;" stroke-width="0.1"/>
<path id="Vector_11" d="M337.1 216.7C337.862 217.212 338.555 217.773 339.028 218.257C339.502 218.741 339.715 219.11 339.622 219.282C339.529 219.455 339.138 219.417 338.533 219.176C337.929 218.936 337.162 218.512 336.4 218C336.023 217.746 335.658 217.478 335.327 217.211C334.997 216.944 334.706 216.683 334.471 216.443C333.998 215.959 333.785 215.59 333.878 215.417C333.971 215.245 334.362 215.283 334.966 215.524C335.571 215.764 336.338 216.187 337.1 216.7Z" fill="#009B3A" stroke="black" style="fill:#009B3A;fill:color(display-p3 0.0000 0.6078 0.2275);fill-opacity:1;stroke:black;stroke-opacity:1;" stroke-width="0.1"/>
<path id="Vector_12" d="M338.1 216.3C338.712 216.937 339.247 217.601 339.586 218.146C339.926 218.69 340.042 219.071 339.909 219.203C339.777 219.336 339.406 219.21 338.879 218.853C338.352 218.496 337.712 217.937 337.1 217.3C336.488 216.663 335.953 215.999 335.614 215.454C335.275 214.91 335.158 214.529 335.291 214.397C335.424 214.264 335.794 214.39 336.321 214.747C336.848 215.104 337.488 215.663 338.1 216.3Z" fill="#009B3A" stroke="black" style="fill:#009B3A;fill:color(display-p3 0.0000 0.6078 0.2275);fill-opacity:1;stroke:black;stroke-opacity:1;" stroke-width="0.1"/>
<path id="Vector_13" d="M339.7 219.2L338.7 219.8C338.4 219.8 338.1 219.5 337.5 219.8C336.9 220.1 336.5 220.7 336.4 221C336.333 221.4 336.633 221.433 337.3 221.1C337.967 220.767 338.367 220.4 338.5 220L339.8 219.3L340.6 218C340.9 217.6 341.8 217 342.2 216.2C342.467 215.533 342.4 215.233 342 215.3C341.478 215.603 341.06 216.056 340.8 216.6C340.6 217 340.8 217.6 340.5 218L339.7 219.2ZM347 221.6C347.023 222.991 346.93 224.298 346.74 225.235C346.55 226.172 346.28 226.66 345.988 226.594C345.696 226.528 345.407 225.912 345.184 224.881C344.962 223.851 344.823 222.491 344.8 221.1C344.777 219.709 344.87 218.402 345.06 217.465C345.25 216.529 345.52 216.04 345.812 216.106C346.104 216.172 346.393 216.788 346.616 217.819C346.838 218.849 346.977 220.209 347 221.6Z" fill="#009B3A" stroke="black" style="fill:#009B3A;fill:color(display-p3 0.0000 0.6078 0.2275);fill-opacity:1;stroke:black;stroke-opacity:1;" stroke-width="0.1"/>
<path id="Vector_14" d="M345.8 221.5C346.102 222.907 346.275 224.261 346.282 225.265C346.289 226.269 346.129 226.84 345.837 226.853C345.545 226.867 345.146 226.321 344.726 225.335C344.307 224.35 343.902 223.007 343.6 221.6C343.46 220.942 343.349 220.29 343.272 219.681C343.196 219.073 343.156 218.52 343.155 218.055C343.153 217.589 343.19 217.22 343.264 216.968C343.338 216.716 343.447 216.586 343.585 216.586C343.723 216.586 343.887 216.716 344.068 216.968C344.249 217.22 344.443 217.589 344.64 218.055C344.836 218.52 345.031 219.073 345.213 219.681C345.395 220.29 345.56 220.942 345.7 221.6L345.8 221.5Z" fill="#009B3A" stroke="black" style="fill:#009B3A;fill:color(display-p3 0.0000 0.6078 0.2275);fill-opacity:1;stroke:black;stroke-opacity:1;" stroke-width="0.1"/>
<path id="Vector_15" d="M342 222.7C342.513 223.046 343.011 223.417 343.467 223.792C343.923 224.167 344.327 224.538 344.657 224.885C344.987 225.232 345.236 225.547 345.39 225.813C345.543 226.079 345.599 226.29 345.553 226.434C345.507 226.579 345.36 226.654 345.122 226.655C344.883 226.656 344.557 226.583 344.162 226.441C343.767 226.298 343.311 226.089 342.82 225.824C342.329 225.56 341.813 225.246 341.3 224.9C340.788 224.554 340.289 224.183 339.833 223.808C339.377 223.433 338.973 223.062 338.643 222.715C338.313 222.368 338.064 222.053 337.911 221.787C337.757 221.521 337.702 221.31 337.748 221.166C337.794 221.021 337.94 220.946 338.179 220.945C338.417 220.944 338.743 221.017 339.138 221.159C339.533 221.302 339.989 221.511 340.48 221.776C340.971 222.04 341.488 222.354 342 222.7Z" fill="#009B3A" stroke="black" style="fill:#009B3A;fill:color(display-p3 0.0000 0.6078 0.2275);fill-opacity:1;stroke:black;stroke-opacity:1;" stroke-width="0.1"/>
<path id="Vector_16" d="M342.8 221.6C343.684 222.672 344.457 223.785 344.951 224.693C345.445 225.601 345.618 226.231 345.432 226.443C345.246 226.655 344.717 226.433 343.961 225.824C343.205 225.216 342.284 224.272 341.4 223.2C340.544 222.159 339.797 221.081 339.324 220.204C338.85 219.328 338.688 218.723 338.874 218.524C339.059 218.325 339.577 218.548 340.314 219.144C341.05 219.739 341.944 220.659 342.8 221.7V221.6Z" fill="#009B3A" stroke="black" style="fill:#009B3A;fill:color(display-p3 0.0000 0.6078 0.2275);fill-opacity:1;stroke:black;stroke-opacity:1;" stroke-width="0.1"/>
<path id="Vector_17" d="M344.3 221.5C344.959 222.727 345.496 223.956 345.793 224.917C346.09 225.878 346.122 226.493 345.884 226.626C345.645 226.758 345.154 226.398 344.52 225.624C343.885 224.851 343.159 223.727 342.5 222.5C342.174 221.893 341.874 221.278 341.618 220.692C341.362 220.105 341.154 219.559 341.007 219.083C340.71 218.121 340.678 217.507 340.916 217.374C341.155 217.242 341.646 217.602 342.28 218.376C342.915 219.149 343.641 220.273 344.3 221.5Z" fill="#009B3A" stroke="black" style="fill:#009B3A;fill:color(display-p3 0.0000 0.6078 0.2275);fill-opacity:1;stroke:black;stroke-opacity:1;" stroke-width="0.1"/>
<path id="Vector_18" d="M345.6 226.4L343.8 226.8C343.5 226.8 343.2 226.1 342.3 226.3C341.367 226.567 340.7 226.967 340.3 227.5C340.033 228.033 340.433 228.233 341.5 228.1C342.7 227.9 343.1 227.1 343.7 227.1C344.367 226.9 345.033 226.767 345.7 226.7C345.9 226.3 346.7 225.5 347.2 225.1C347.7 224.7 349.2 224.1 349.9 223.3C350.6 222.5 350.6 221.7 349.9 221.8C349.138 222.066 348.452 222.512 347.9 223.1C347.4 223.7 347.5 224.6 347 225.1L345.6 226.4ZM350.7 231.3C350.476 232.636 350.157 233.865 349.811 234.716C349.465 235.567 349.122 235.971 348.857 235.838C348.592 235.706 348.426 235.048 348.397 234.009C348.367 232.97 348.476 231.636 348.7 230.3C348.811 229.638 348.946 228.996 349.099 228.41C349.251 227.824 349.418 227.305 349.589 226.884C349.76 226.462 349.933 226.146 350.096 225.954C350.26 225.761 350.412 225.696 350.543 225.762C350.675 225.827 350.783 226.023 350.862 226.337C350.941 226.65 350.989 227.077 351.003 227.591C351.018 228.105 350.999 228.697 350.947 229.334C350.894 229.97 350.811 230.638 350.7 231.3Z" fill="#009B3A" stroke="black" style="fill:#009B3A;fill:color(display-p3 0.0000 0.6078 0.2275);fill-opacity:1;stroke:black;stroke-opacity:1;" stroke-width="0.1"/>
<path id="Vector_19" d="M349.6 231C349.633 231.697 349.637 232.397 349.612 233.054C349.586 233.712 349.532 234.312 349.452 234.816C349.372 235.321 349.268 235.718 349.147 235.982C349.027 236.247 348.892 236.372 348.751 236.351C348.611 236.33 348.467 236.163 348.331 235.86C348.195 235.557 348.068 235.125 347.96 234.593C347.851 234.06 347.763 233.438 347.701 232.768C347.639 232.097 347.605 231.393 347.6 230.7C347.567 230.003 347.563 229.303 347.588 228.645C347.614 227.988 347.668 227.388 347.748 226.883C347.828 226.379 347.932 225.982 348.052 225.717C348.173 225.453 348.308 225.327 348.449 225.348C348.589 225.37 348.732 225.537 348.869 225.84C349.005 226.143 349.131 226.575 349.24 227.107C349.348 227.64 349.437 228.261 349.499 228.932C349.561 229.602 349.595 230.307 349.6 231Z" fill="#009B3A" stroke="black" style="fill:#009B3A;fill:color(display-p3 0.0000 0.6078 0.2275);fill-opacity:1;stroke:black;stroke-opacity:1;" stroke-width="0.1"/>
<path id="Vector_20" d="M345.7 231.4C346.216 231.848 346.739 232.358 347.229 232.891C347.719 233.423 348.163 233.963 348.524 234.468C348.885 234.974 349.155 235.43 349.312 235.802C349.469 236.174 349.509 236.452 349.428 236.612C349.348 236.773 349.149 236.813 348.848 236.729C348.547 236.645 348.152 236.439 347.694 236.128C347.236 235.817 346.727 235.408 346.207 234.935C345.688 234.462 345.172 233.936 344.7 233.4C344.184 232.952 343.661 232.442 343.171 231.91C342.681 231.377 342.238 230.837 341.876 230.332C341.515 229.827 341.245 229.37 341.088 228.998C340.931 228.626 340.891 228.349 340.972 228.188C341.052 228.027 341.251 227.987 341.552 228.071C341.853 228.155 342.248 228.361 342.706 228.672C343.164 228.984 343.673 229.392 344.193 229.865C344.712 230.339 345.228 230.864 345.7 231.4Z" fill="#009B3A" stroke="black" style="fill:#009B3A;fill:color(display-p3 0.0000 0.6078 0.2275);fill-opacity:1;stroke:black;stroke-opacity:1;" stroke-width="0.1"/>
<path id="Vector_21" d="M346.7 230.5C347.032 231.109 347.338 231.729 347.602 232.324C347.866 232.92 348.082 233.479 348.237 233.97C348.393 234.461 348.485 234.874 348.509 235.186C348.533 235.498 348.488 235.703 348.376 235.788C348.264 235.874 348.088 235.838 347.858 235.684C347.628 235.53 347.349 235.26 347.035 234.889C346.722 234.519 346.381 234.056 346.031 233.525C345.682 232.995 345.332 232.409 345 231.8C344.668 231.191 344.362 230.571 344.098 229.975C343.834 229.38 343.619 228.821 343.463 228.33C343.307 227.839 343.215 227.425 343.191 227.113C343.167 226.801 343.213 226.597 343.324 226.512C343.436 226.426 343.612 226.462 343.842 226.616C344.072 226.77 344.352 227.04 344.665 227.411C344.979 227.781 345.32 228.244 345.669 228.774C346.018 229.304 346.368 229.891 346.7 230.5Z" fill="#009B3A" stroke="black" style="fill:#009B3A;fill:color(display-p3 0.0000 0.6078 0.2275);fill-opacity:1;stroke:black;stroke-opacity:1;" stroke-width="0.1"/>
<path id="Vector_22" d="M348.1 230.7C348.305 231.346 348.483 231.994 348.625 232.608C348.766 233.222 348.868 233.79 348.925 234.279C348.982 234.768 348.992 235.168 348.955 235.458C348.918 235.747 348.835 235.92 348.71 235.966C348.585 236.012 348.421 235.93 348.228 235.726C348.034 235.521 347.814 235.198 347.581 234.774C347.348 234.35 347.106 233.834 346.869 233.255C346.632 232.676 346.405 232.046 346.2 231.4C345.986 230.724 345.8 230.045 345.652 229.403C345.505 228.761 345.399 228.167 345.34 227.657C345.222 226.626 345.305 225.994 345.57 225.901C345.835 225.808 346.261 226.262 346.754 227.162C347.248 228.062 347.768 229.335 348.2 230.7H348.1Z" fill="#009B3A" stroke="black" style="fill:#009B3A;fill:color(display-p3 0.0000 0.6078 0.2275);fill-opacity:1;stroke:black;stroke-opacity:1;" stroke-width="0.1"/>
<g id="Vector_23">
<path d="M348.5 235.8H346.8C346.5 235.8 346.3 235 345.4 235C344.623 234.985 343.87 235.271 343.3 235.8C342.9 236.267 343.233 236.533 344.3 236.6C345.9 236.7 346 236.1 346.6 236H348.6L350.4 234.8C351 234.4 352.5 234.2 353.4 233.5C354.1 232.9 354.3 232.1 353.7 232.1C352.87 232.203 352.079 232.512 351.4 233C350.9 233.4 350.8 234.3 350.2 234.7C349.8 234.9 348.6 235.8 348.5 235.7M351 242.1C350.295 243.221 349.546 244.206 348.916 244.839C348.286 245.472 347.829 245.701 347.643 245.475C347.457 245.25 347.559 244.588 347.926 243.637C348.293 242.685 348.895 241.521 349.6 240.4C350.305 239.28 351.055 238.294 351.684 237.661C352.314 237.029 352.772 236.8 352.957 237.025C353.143 237.25 353.041 237.912 352.674 238.864C352.307 239.815 351.705 240.98 351 242.1Z" fill="#009B3A" style="fill:#009B3A;fill:color(display-p3 0.0000 0.6078 0.2275);fill-opacity:1;"/>
<path d="M348.5 235.8H346.8C346.5 235.8 346.3 235 345.4 235C344.623 234.985 343.87 235.271 343.3 235.8C342.9 236.267 343.233 236.533 344.3 236.6C345.9 236.7 346 236.1 346.6 236H348.6L350.4 234.8C351 234.4 352.5 234.2 353.4 233.5C354.1 232.9 354.3 232.1 353.7 232.1C352.87 232.203 352.079 232.512 351.4 233C350.9 233.4 350.8 234.3 350.2 234.7C349.8 234.9 348.6 235.8 348.5 235.7M351 242.1C350.295 243.221 349.546 244.206 348.916 244.839C348.286 245.472 347.829 245.701 347.643 245.475C347.457 245.25 347.559 244.588 347.926 243.637C348.293 242.685 348.895 241.521 349.6 240.4C350.305 239.28 351.055 238.294 351.684 237.661C352.314 237.029 352.772 236.8 352.957 237.025C353.143 237.25 353.041 237.912 352.674 238.864C352.307 239.815 351.705 240.98 351 242.1Z" stroke="black" style="stroke:black;stroke-opacity:1;" stroke-width="0.1"/>
</g>
<path id="Vector_24" d="M350.1 241.3C349.607 242.582 349.039 243.754 348.522 244.558C348.004 245.361 347.579 245.731 347.34 245.585C347.102 245.439 347.069 244.79 347.249 243.78C347.429 242.77 347.807 241.482 348.3 240.2C348.793 238.918 349.361 237.746 349.879 236.943C350.396 236.139 350.821 235.77 351.06 235.915C351.298 236.061 351.331 236.711 351.151 237.72C350.971 238.73 350.593 240.018 350.1 241.3ZM346.4 240.1C346.901 241.411 347.286 242.748 347.471 243.815C347.656 244.883 347.626 245.595 347.387 245.793C347.149 245.992 346.721 245.662 346.198 244.876C345.675 244.089 345.101 242.911 344.6 241.6C344.1 240.289 343.714 238.953 343.529 237.885C343.344 236.817 343.374 236.106 343.613 235.907C343.851 235.708 344.279 236.038 344.802 236.824C345.325 237.611 345.9 238.789 346.4 240.1Z" fill="#009B3A" stroke="black" style="fill:#009B3A;fill:color(display-p3 0.0000 0.6078 0.2275);fill-opacity:1;stroke:black;stroke-opacity:1;" stroke-width="0.1"/>
<path id="Vector_25" d="M347.6 239.7C347.726 241.071 347.742 242.412 347.643 243.428C347.545 244.444 347.341 245.052 347.075 245.119C346.81 245.185 346.506 244.704 346.229 243.781C345.952 242.859 345.726 241.571 345.6 240.2C345.538 239.521 345.502 238.843 345.494 238.203C345.487 237.563 345.508 236.975 345.557 236.472C345.606 235.969 345.681 235.561 345.778 235.271C345.876 234.98 345.994 234.814 346.125 234.781C346.256 234.749 346.398 234.85 346.544 235.079C346.689 235.309 346.834 235.662 346.971 236.118C347.108 236.575 347.234 237.127 347.342 237.741C347.45 238.356 347.538 239.021 347.6 239.7Z" fill="#009B3A" stroke="black" style="fill:#009B3A;fill:color(display-p3 0.0000 0.6078 0.2275);fill-opacity:1;stroke:black;stroke-opacity:1;" stroke-width="0.1"/>
<path id="Vector_26" d="M349 240.4C348.87 241.773 348.64 243.085 348.361 244.047C348.082 245.008 347.776 245.541 347.51 245.528C347.245 245.515 347.043 244.956 346.947 243.976C346.851 242.996 346.87 241.673 347 240.3C347.064 239.62 347.154 238.948 347.264 238.322C347.373 237.697 347.501 237.129 347.639 236.653C347.778 236.177 347.924 235.801 348.07 235.547C348.216 235.293 348.359 235.166 348.49 235.172C348.755 235.185 348.958 235.744 349.054 236.724C349.149 237.704 349.13 239.027 349 240.4Z" fill="#009B3A" stroke="black" style="fill:#009B3A;fill:color(display-p3 0.0000 0.6078 0.2275);fill-opacity:1;stroke:black;stroke-opacity:1;" stroke-width="0.1"/>
<g id="Vector_27">
<path d="M347.3 245.3C347.3 245.3 345.9 244.8 345.7 244.6C345.5 244.4 345.6 243.8 344.7 243.3C343.993 243.021 343.207 243.021 342.5 243.3C341.967 243.433 342.167 243.767 343.1 244.3C344.1 244.9 344.9 244.5 345.4 244.7L347.2 245.6C347.7 245.4 348.8 245.3 349.4 245.2C350 245.1 351.5 245.6 352.6 245.2C353.5 244.9 353.9 244.2 353.3 244C352.544 243.821 351.756 243.821 351 244C350.3 244.1 349.9 245 349.2 245C348.7 245 347.3 245.4 347.2 245.3M348.2 253C347.608 253.565 346.973 254.109 346.342 254.591C345.711 255.074 345.1 255.483 344.556 255.788C344.012 256.092 343.547 256.285 343.198 256.351C342.849 256.418 342.623 256.356 342.538 256.17C342.453 255.985 342.511 255.681 342.707 255.281C342.904 254.88 343.233 254.394 343.672 253.859C344.11 253.324 344.646 252.752 345.24 252.188C345.834 251.624 346.469 251.081 347.1 250.6C347.701 250.003 348.362 249.418 349.028 248.892C349.694 248.367 350.346 247.916 350.93 247.577C351.515 247.238 352.016 247.021 352.391 246.943C352.766 246.865 353.005 246.928 353.088 247.128C353.172 247.329 353.097 247.659 352.87 248.094C352.644 248.528 352.271 249.053 351.784 249.626C351.297 250.2 350.71 250.804 350.069 251.391C349.429 251.977 348.754 252.529 348.1 253" fill="#009B3A" style="fill:#009B3A;fill:color(display-p3 0.0000 0.6078 0.2275);fill-opacity:1;"/>
<path d="M347.3 245.3C347.3 245.3 345.9 244.8 345.7 244.6C345.5 244.4 345.6 243.8 344.7 243.3C343.993 243.021 343.207 243.021 342.5 243.3C341.967 243.433 342.167 243.767 343.1 244.3C344.1 244.9 344.9 244.5 345.4 244.7L347.2 245.6C347.7 245.4 348.8 245.3 349.4 245.2C350 245.1 351.5 245.6 352.6 245.2C353.5 244.9 353.9 244.2 353.3 244C352.544 243.821 351.756 243.821 351 244C350.3 244.1 349.9 245 349.2 245C348.7 245 347.3 245.4 347.2 245.3M348.2 253C347.608 253.565 346.973 254.109 346.342 254.591C345.711 255.074 345.1 255.483 344.556 255.788C344.012 256.092 343.547 256.285 343.198 256.351C342.849 256.418 342.623 256.356 342.538 256.17C342.453 255.985 342.511 255.681 342.707 255.281C342.904 254.88 343.233 254.394 343.672 253.859C344.11 253.324 344.646 252.752 345.24 252.188C345.834 251.624 346.469 251.081 347.1 250.6C347.701 250.003 348.362 249.418 349.028 248.892C349.694 248.367 350.346 247.916 350.93 247.577C351.515 247.238 352.016 247.021 352.391 246.943C352.766 246.865 353.005 246.928 353.088 247.128C353.172 247.329 353.097 247.659 352.87 248.094C352.644 248.528 352.271 249.053 351.784 249.626C351.297 250.2 350.71 250.804 350.069 251.391C349.429 251.977 348.754 252.529 348.1 253" stroke="black" style="stroke:black;stroke-opacity:1;" stroke-width="0.1"/>
</g>
<path id="Vector_28" d="M347.3 251.9C346.346 253.113 345.352 254.171 344.537 254.841C343.722 255.511 343.152 255.739 342.953 255.474C342.754 255.208 342.942 254.472 343.476 253.427C344.01 252.382 344.846 251.113 345.8 249.9C346.272 249.299 346.76 248.731 347.234 248.226C347.708 247.721 348.16 247.291 348.563 246.959C348.967 246.627 349.315 246.401 349.586 246.292C349.858 246.183 350.049 246.195 350.147 246.327C350.246 246.458 350.25 246.706 350.16 247.057C350.071 247.409 349.888 247.856 349.624 248.373C349.36 248.891 349.018 249.469 348.62 250.074C348.221 250.679 347.772 251.299 347.3 251.9Z" fill="#009B3A" stroke="black" style="fill:#009B3A;fill:color(display-p3 0.0000 0.6078 0.2275);fill-opacity:1;stroke:black;stroke-opacity:1;" stroke-width="0.1"/>
<path id="Vector_29" d="M343.7 249.2C343.83 249.995 343.919 250.864 343.958 251.733C343.997 252.603 343.986 253.449 343.925 254.202C343.865 254.954 343.757 255.592 343.61 256.062C343.463 256.532 343.282 256.821 343.081 256.904C342.88 256.988 342.666 256.864 342.455 256.543C342.244 256.222 342.044 255.713 341.87 255.058C341.696 254.403 341.553 253.621 341.454 252.776C341.355 251.932 341.302 251.049 341.3 250.2C341.17 249.405 341.082 248.537 341.042 247.667C341.003 246.797 341.014 245.951 341.075 245.198C341.135 244.446 341.244 243.808 341.39 243.338C341.537 242.868 341.718 242.58 341.919 242.496C342.12 242.412 342.335 242.536 342.545 242.857C342.756 243.178 342.956 243.687 343.13 244.342C343.304 244.997 343.447 245.779 343.546 246.624C343.645 247.469 343.698 248.352 343.7 249.2Z" fill="#009B3A" stroke="black" style="fill:#009B3A;fill:color(display-p3 0.0000 0.6078 0.2275);fill-opacity:1;stroke:black;stroke-opacity:1;" stroke-width="0.1"/>
<g id="Vector_30">
<path d="M345.1 249.2C344.788 250.376 344.428 251.397 344.074 252.114C343.72 252.831 343.39 253.205 343.132 253.183C342.875 253.161 342.704 252.742 342.644 251.989C342.584 251.237 342.639 250.189 342.8 249C342.911 248.127 343.078 247.199 343.287 246.293C343.495 245.386 343.74 244.527 344 243.786C344.261 243.045 344.529 242.444 344.784 242.032C345.038 241.621 345.271 241.41 345.464 241.419C345.657 241.427 345.803 241.654 345.891 242.08C345.98 242.507 346.007 243.121 345.972 243.871C345.936 244.622 345.838 245.488 345.687 246.397C345.535 247.306 345.334 248.233 345.1 249.1" fill="#009B3A" style="fill:#009B3A;fill:color(display-p3 0.0000 0.6078 0.2275);fill-opacity:1;"/>
<path d="M345.1 249.2C344.788 250.376 344.428 251.397 344.074 252.114C343.72 252.831 343.39 253.205 343.132 253.183C342.875 253.161 342.704 252.742 342.644 251.989C342.584 251.237 342.639 250.189 342.8 249C342.911 248.127 343.078 247.199 343.287 246.293C343.495 245.386 343.74 244.527 344 243.786C344.261 243.045 344.529 242.444 344.784 242.032C345.038 241.621 345.271 241.41 345.464 241.419C345.657 241.427 345.803 241.654 345.891 242.08C345.98 242.507 346.007 243.121 345.972 243.871C345.936 244.622 345.838 245.488 345.687 246.397C345.535 247.306 345.334 248.233 345.1 249.1" stroke="black" style="stroke:black;stroke-opacity:1;" stroke-width="0.1"/>
</g>
<path id="Vector_31" d="M346.3 250.4C346.023 251.266 345.678 252.18 345.294 253.063C344.911 253.947 344.5 254.774 344.098 255.473C343.695 256.173 343.313 256.724 342.983 257.08C342.654 257.436 342.387 257.586 342.205 257.517C342.024 257.448 341.934 257.162 341.942 256.684C341.951 256.205 342.057 255.549 342.253 254.771C342.449 253.992 342.729 253.116 343.068 252.215C343.407 251.314 343.795 250.417 344.2 249.6C344.477 248.734 344.822 247.821 345.206 246.937C345.589 246.054 346 245.227 346.403 244.527C346.805 243.827 347.187 243.276 347.517 242.92C347.847 242.564 348.113 242.414 348.295 242.483C348.476 242.552 348.566 242.838 348.558 243.317C348.55 243.795 348.443 244.451 348.247 245.23C348.051 246.008 347.771 246.885 347.432 247.785C347.093 248.686 346.705 249.583 346.3 250.4Z" fill="#009B3A" stroke="black" style="fill:#009B3A;fill:color(display-p3 0.0000 0.6078 0.2275);fill-opacity:1;stroke:black;stroke-opacity:1;" stroke-width="0.1"/>
<g id="Vector_32">
<path d="M343 255.3L341.4 253.9C341.2 253.6 341.5 252.9 340.7 252.1C339.9 251.3 338.9 251.1 338.3 251.1C337.634 251.233 337.734 251.767 338.6 252.7C339.6 253.7 340.6 253.5 341 253.9C341.667 254.367 342.234 254.9 342.7 255.5L345.3 255.9C346 255.9 347.5 257 348.8 257C349.8 257 350.6 256.5 350 256C349.246 255.427 348.344 255.08 347.4 255C346.6 255 345.9 255.8 345.2 255.6L342.9 255.3M340.6 262.6C339.029 262.857 337.538 262.951 336.455 262.861C335.372 262.771 334.786 262.505 334.826 262.12C334.866 261.736 335.528 261.265 336.667 260.811C337.806 260.357 339.329 259.957 340.9 259.7C341.678 259.573 342.445 259.484 343.156 259.439C343.867 259.394 344.509 259.394 345.045 259.439C345.581 259.483 346.001 259.572 346.281 259.699C346.56 259.826 346.694 259.99 346.674 260.18C346.655 260.37 346.482 260.584 346.166 260.809C345.85 261.033 345.397 261.265 344.833 261.489C344.269 261.714 343.605 261.928 342.879 262.118C342.152 262.309 341.378 262.473 340.6 262.6Z" fill="#009B3A" style="fill:#009B3A;fill:color(display-p3 0.0000 0.6078 0.2275);fill-opacity:1;"/>
<path d="M343 255.3L341.4 253.9C341.2 253.6 341.5 252.9 340.7 252.1C339.9 251.3 338.9 251.1 338.3 251.1C337.634 251.233 337.734 251.767 338.6 252.7C339.6 253.7 340.6 253.5 341 253.9C341.667 254.367 342.234 254.9 342.7 255.5L345.3 255.9C346 255.9 347.5 257 348.8 257C349.8 257 350.6 256.5 350 256C349.246 255.427 348.344 255.08 347.4 255C346.6 255 345.9 255.8 345.2 255.6L342.9 255.3M340.6 262.6C339.029 262.857 337.538 262.951 336.455 262.861C335.372 262.771 334.786 262.505 334.826 262.12C334.866 261.736 335.528 261.265 336.667 260.811C337.806 260.357 339.329 259.957 340.9 259.7C341.678 259.573 342.445 259.484 343.156 259.439C343.867 259.394 344.509 259.394 345.045 259.439C345.581 259.483 346.001 259.572 346.281 259.699C346.56 259.826 346.694 259.99 346.674 260.18C346.655 260.37 346.482 260.584 346.166 260.809C345.85 261.033 345.397 261.265 344.833 261.489C344.269 261.714 343.605 261.928 342.879 262.118C342.152 262.309 341.378 262.473 340.6 262.6Z" stroke="black" style="stroke:black;stroke-opacity:1;" stroke-width="0.1"/>
</g>
<g id="Vector_33">
<path d="M340.5 261C338.915 261.61 337.368 262.059 336.2 262.247C335.032 262.435 334.338 262.346 334.272 262.002C334.206 261.657 334.772 261.084 335.846 260.408C336.92 259.733 338.415 259.01 340 258.4C341.642 257.768 343.244 257.305 344.452 257.111C345.66 256.917 346.376 257.01 346.443 257.368C346.509 257.726 345.92 258.32 344.806 259.02C343.691 259.72 342.142 260.468 340.5 261.1" fill="#009B3A" style="fill:#009B3A;fill:color(display-p3 0.0000 0.6078 0.2275);fill-opacity:1;"/>
<path d="M340.5 261C338.915 261.61 337.368 262.059 336.2 262.247C335.032 262.435 334.338 262.346 334.272 262.002C334.206 261.657 334.772 261.084 335.846 260.408C336.92 259.733 338.415 259.01 340 258.4C341.642 257.768 343.244 257.305 344.452 257.111C345.66 256.917 346.376 257.01 346.443 257.368C346.509 257.726 345.92 258.32 344.806 259.02C343.691 259.72 342.142 260.468 340.5 261.1" stroke="black" style="stroke:black;stroke-opacity:1;" stroke-width="0.1"/>
</g>
<path id="Vector_34" d="M338.4 256.4C337.758 257.602 337.067 258.659 336.443 259.395C335.819 260.13 335.299 260.5 334.971 260.441C334.643 260.383 334.527 259.9 334.641 259.073C334.756 258.246 335.094 257.126 335.6 255.9C335.929 255.104 336.317 254.288 336.738 253.514C337.158 252.739 337.599 252.024 338.029 251.422C338.46 250.82 338.868 250.345 339.224 250.033C339.58 249.72 339.876 249.578 340.089 249.616C340.302 249.654 340.427 249.871 340.456 250.252C340.484 250.634 340.415 251.169 340.253 251.819C340.091 252.469 339.841 253.218 339.52 254.01C339.2 254.803 338.817 255.619 338.4 256.4Z" fill="#009B3A" stroke="black" style="fill:#009B3A;fill:color(display-p3 0.0000 0.6078 0.2275);fill-opacity:1;stroke:black;stroke-opacity:1;" stroke-width="0.1"/>
<path id="Vector_35" d="M339.9 257.2C338.709 258.549 337.445 259.764 336.387 260.577C335.329 261.39 334.563 261.735 334.258 261.536C333.953 261.338 334.134 260.611 334.76 259.516C335.387 258.422 336.409 257.049 337.6 255.7C338.19 255.032 338.804 254.39 339.407 253.811C340.009 253.231 340.589 252.726 341.113 252.323C342.171 251.51 342.937 251.165 343.242 251.364C343.547 251.563 343.366 252.289 342.74 253.384C342.429 253.926 342.019 254.542 341.532 255.196C341.044 255.851 340.49 256.532 339.9 257.2Z" fill="#009B3A" stroke="black" style="fill:#009B3A;fill:color(display-p3 0.0000 0.6078 0.2275);fill-opacity:1;stroke:black;stroke-opacity:1;" stroke-width="0.1"/>
<path id="Vector_36" d="M340.3 259.1C339.578 259.693 338.81 260.268 338.05 260.786C337.291 261.304 336.559 261.752 335.904 262.097C335.25 262.443 334.69 262.679 334.264 262.788C333.838 262.897 333.555 262.876 333.437 262.728C333.318 262.58 333.366 262.307 333.577 261.93C333.789 261.552 334.158 261.078 334.66 260.542C335.162 260.005 335.783 259.419 336.481 258.825C337.179 258.23 337.937 257.641 338.7 257.1C339.93 256.228 341.112 255.524 342.039 255.111C342.966 254.697 343.579 254.602 343.77 254.841C343.961 255.079 343.718 255.637 343.083 256.416C342.449 257.195 341.463 258.145 340.3 259.1Z" fill="#009B3A" stroke="black" style="fill:#009B3A;fill:color(display-p3 0.0000 0.6078 0.2275);fill-opacity:1;stroke:black;stroke-opacity:1;" stroke-width="0.1"/>
<g id="Vector_37">
<path d="M334.4 261.7L333.7 259.5C333.6 259.1 334.3 258.7 334 257.5C333.687 256.517 333.006 255.693 332.1 255.2C331.433 254.867 331.267 255.4 331.6 256.8C332 258.2 333 258.7 333.3 259.4L334.1 261.8L336.3 263.7C336.9 264.2 337.8 266.1 339 266.8C340 267.5 341 267.3 340.8 266.6C340.357 265.637 339.667 264.809 338.8 264.2C338.1 263.6 337 263.9 336.3 263.4C335.9 262.9 334.3 261.8 334.3 261.7" fill="#009B3A" style="fill:#009B3A;fill:color(display-p3 0.0000 0.6078 0.2275);fill-opacity:1;"/>
<path d="M334.4 261.7L333.7 259.5C333.6 259.1 334.3 258.7 334 257.5C333.687 256.517 333.006 255.693 332.1 255.2C331.433 254.867 331.267 255.4 331.6 256.8C332 258.2 333 258.7 333.3 259.4L334.1 261.8L336.3 263.7C336.9 264.2 337.8 266.1 339 266.8C340 267.5 341 267.3 340.8 266.6C340.357 265.637 339.667 264.809 338.8 264.2C338.1 263.6 337 263.9 336.3 263.4C335.9 262.9 334.3 261.8 334.3 261.7" stroke="black" style="stroke:black;stroke-opacity:1;" stroke-width="0.1"/>
</g>
<path id="Vector_38" d="M330.8 268C329.469 267.926 328.286 267.721 327.439 267.417C326.592 267.113 326.132 266.728 326.132 266.324C326.132 265.92 326.592 265.521 327.439 265.19C328.286 264.859 329.469 264.616 330.8 264.5C332.131 264.574 333.314 264.779 334.161 265.083C335.008 265.387 335.468 265.772 335.468 266.176C335.468 266.58 335.008 266.979 334.161 267.31C333.314 267.641 332.131 267.884 330.8 268Z" fill="#009B3A" stroke="black" style="fill:#009B3A;fill:color(display-p3 0.0000 0.6078 0.2275);fill-opacity:1;stroke:black;stroke-opacity:1;" stroke-width="0.1"/>
<g id="Vector_39">
<path d="M330 262.5C328.953 263.853 327.807 265.036 326.814 265.786C325.821 266.537 325.062 266.795 324.704 266.503C324.346 266.211 324.418 265.394 324.905 264.231C325.392 263.067 326.253 261.653 327.3 260.3C327.807 259.646 328.343 259.026 328.877 258.477C329.411 257.928 329.933 257.46 330.413 257.099C330.892 256.739 331.32 256.493 331.672 256.376C332.024 256.259 332.293 256.274 332.463 256.418C332.634 256.563 332.703 256.834 332.667 257.218C332.63 257.602 332.489 258.09 332.251 258.655C332.013 259.22 331.683 259.85 331.28 260.51C330.876 261.169 330.407 261.846 329.9 262.5" fill="#009B3A" style="fill:#009B3A;fill:color(display-p3 0.0000 0.6078 0.2275);fill-opacity:1;"/>
<path d="M330 262.5C328.953 263.853 327.807 265.036 326.814 265.786C325.821 266.537 325.062 266.795 324.704 266.503C324.346 266.211 324.418 265.394 324.905 264.231C325.392 263.067 326.253 261.653 327.3 260.3C327.807 259.646 328.343 259.026 328.877 258.477C329.411 257.928 329.933 257.46 330.413 257.099C330.892 256.739 331.32 256.493 331.672 256.376C332.024 256.259 332.293 256.274 332.463 256.418C332.634 256.563 332.703 256.834 332.667 257.218C332.63 257.602 332.489 258.09 332.251 258.655C332.013 259.22 331.683 259.85 331.28 260.51C330.876 261.169 330.407 261.846 329.9 262.5" stroke="black" style="stroke:black;stroke-opacity:1;" stroke-width="0.1"/>
</g>
<path id="Vector_40" d="M330.8 265.3C329.242 265.969 327.685 266.436 326.472 266.6C325.258 266.763 324.486 266.609 324.327 266.171C324.168 265.734 324.634 265.048 325.623 264.266C326.612 263.484 328.042 262.669 329.6 262C331.158 261.331 332.715 260.864 333.928 260.7C335.142 260.537 335.914 260.691 336.073 261.129C336.232 261.566 335.766 262.252 334.777 263.034C333.788 263.816 332.358 264.631 330.8 265.3ZM332.5 211.9C333.185 212.542 333.752 213.177 334.088 213.68C334.425 214.183 334.507 214.518 334.319 214.619C334.131 214.719 333.685 214.578 333.071 214.223C332.456 213.867 331.717 213.324 331 212.7C330.603 212.354 330.224 211.995 329.889 211.644C329.553 211.293 329.268 210.958 329.051 210.661C328.834 210.364 328.691 210.111 328.629 209.919C328.568 209.726 328.59 209.598 328.694 209.542C328.799 209.487 328.983 209.505 329.235 209.595C329.488 209.686 329.803 209.847 330.161 210.069C330.519 210.291 330.911 210.568 331.314 210.883C331.717 211.198 332.121 211.545 332.5 211.9ZM330.6 213.4C331.428 213.554 332.17 213.751 332.713 213.963C333.256 214.174 333.568 214.387 333.602 214.569C333.636 214.752 333.39 214.892 332.902 214.97C332.413 215.048 331.71 215.059 330.9 215C330.334 214.959 329.735 214.886 329.149 214.786C328.563 214.686 328.006 214.562 327.521 214.424C327.036 214.286 326.636 214.137 326.352 213.989C326.069 213.841 325.909 213.697 325.885 213.57C325.861 213.443 325.974 213.335 326.215 213.255C326.456 213.175 326.818 213.124 327.274 213.108C327.73 213.092 328.267 213.109 328.844 213.16C329.421 213.211 330.022 213.293 330.6 213.4Z" fill="#009B3A" stroke="black" style="fill:#009B3A;fill:color(display-p3 0.0000 0.6078 0.2275);fill-opacity:1;stroke:black;stroke-opacity:1;" stroke-width="0.1"/>
<path id="Vector_41" d="M331.4 212.4C331.909 212.659 332.402 212.932 332.852 213.203C333.302 213.475 333.7 213.74 334.022 213.983C334.345 214.226 334.586 214.443 334.732 214.621C334.879 214.799 334.927 214.934 334.874 215.019C334.822 215.105 334.669 215.138 334.426 215.118C334.183 215.098 333.854 215.025 333.457 214.902C333.06 214.78 332.603 214.611 332.113 214.404C331.623 214.198 331.109 213.959 330.6 213.7C329.573 213.178 328.63 212.608 327.978 212.117C327.326 211.626 327.02 211.253 327.126 211.081C327.232 210.908 327.742 210.95 328.544 211.198C329.345 211.445 330.373 211.878 331.4 212.4ZM303.7 262C303.7 262 308.8 263.1 313.3 264.7C317.8 266.3 324.6 271.9 326.4 272.3C328.4 272.3 331.3 271.6 332.4 268.7C329.2 269.5 327.4 270.8 324.4 269.2C323.3 268.8 319.8 265.6 315.9 263.9C312.1 262.2 304.4 260.3 304.4 260.3L303.7 262ZM309.2 215.5L315.1 212.4L308.6 214.1L307.8 215.2L309.2 215.5Z" fill="#009B3A" stroke="black" style="fill:#009B3A;fill:color(display-p3 0.0000 0.6078 0.2275);fill-opacity:1;stroke:black;stroke-opacity:1;" stroke-width="0.1"/>
<g id="Vector_42">
<path d="M314.8 217C312.5 216.5 309 215.7 306.8 215.6C308.3 213.9 310.4 210.9 311.8 209.2C310.8 210.9 309.5 213.2 309 214.7C310.5 215.6 313 216.3 314.8 216.9" fill="#009B3A" style="fill:#009B3A;fill:color(display-p3 0.0000 0.6078 0.2275);fill-opacity:1;"/>
<path d="M314.8 217C312.5 216.5 309 215.7 306.8 215.6C308.3 213.9 310.4 210.9 311.8 209.2C310.8 210.9 309.5 213.2 309 214.7C310.5 215.6 313 216.3 314.8 216.9" stroke="black" style="stroke:black;stroke-opacity:1;" stroke-width="0.1"/>
</g>
<g id="Vector_43">
<path d="M308.1 215.9L313.4 211.8L307.3 214.5L306.7 215.8H308.1" fill="#009B3A" style="fill:#009B3A;fill:color(display-p3 0.0000 0.6078 0.2275);fill-opacity:1;"/>
<path d="M308.1 215.9L313.4 211.8L307.3 214.5L306.7 215.8H308.1" stroke="black" style="stroke:black;stroke-opacity:1;" stroke-width="0.1"/>
</g>
<g id="Vector_44">
<path d="M313.7 216.9C311.4 216.4 307.9 215.6 305.7 215.4C307.1 213.7 309.2 210.7 310.5 208.8C309.7 210.6 308.3 212.9 307.8 214.6C309.4 215.5 311.9 216.2 313.8 216.9" fill="#009B3A" style="fill:#009B3A;fill:color(display-p3 0.0000 0.6078 0.2275);fill-opacity:1;"/>
<path d="M313.7 216.9C311.4 216.4 307.9 215.6 305.7 215.4C307.1 213.7 309.2 210.7 310.5 208.8C309.7 210.6 308.3 212.9 307.8 214.6C309.4 215.5 311.9 216.2 313.8 216.9" stroke="black" style="stroke:black;stroke-opacity:1;" stroke-width="0.1"/>
</g>
<g id="Vector_45">
<path d="M307.3 216.2L313.4 213.6L306.8 214.7L305.9 215.7L307.2 216.2" fill="#009B3A" style="fill:#009B3A;fill:color(display-p3 0.0000 0.6078 0.2275);fill-opacity:1;"/>
<path d="M307.3 216.2L313.4 213.6L306.8 214.7L305.9 215.7L307.2 216.2" stroke="black" style="stroke:black;stroke-opacity:1;" stroke-width="0.1"/>
</g>
<g id="Vector_46">
<path d="M313 217C310.7 216.7 307 216.3 304.8 216.4C306.1 214.4 307.8 211.1 308.9 209.1C308.3 211 307.2 213.5 306.9 215.2C308.6 216 311.2 216.4 313 216.9" fill="#009B3A" style="fill:#009B3A;fill:color(display-p3 0.0000 0.6078 0.2275);fill-opacity:1;"/>
<path d="M313 217C310.7 216.7 307 216.3 304.8 216.4C306.1 214.4 307.8 211.1 308.9 209.1C308.3 211 307.2 213.5 306.9 215.2C308.6 216 311.2 216.4 313 216.9" stroke="black" style="stroke:black;stroke-opacity:1;" stroke-width="0.1"/>
</g>
<path id="Vector_47" d="M306.6 216.2L310.8 211.2L305.5 215.1L305.2 216.4L306.6 216.2Z" fill="#009B3A" stroke="black" style="fill:#009B3A;fill:color(display-p3 0.0000 0.6078 0.2275);fill-opacity:1;stroke:black;stroke-opacity:1;" stroke-width="0.1"/>
<path id="Vector_48" d="M313 217.3C310.5 217.3 306.6 217 304.2 217.3C305.4 215 306.9 211.3 307.8 209C307.4 211.1 306.5 214 306.4 215.9C308.2 216.5 311 216.9 313 217.3Z" fill="#009B3A" stroke="black" style="fill:#009B3A;fill:color(display-p3 0.0000 0.6078 0.2275);fill-opacity:1;stroke:black;stroke-opacity:1;" stroke-width="0.1"/>
<path id="Vector_49" d="M305.8 217.4L310.8 212.5L304.7 216L304.3 217.4H305.8Z" fill="#009B3A" stroke="black" style="fill:#009B3A;fill:color(display-p3 0.0000 0.6078 0.2275);fill-opacity:1;stroke:black;stroke-opacity:1;" stroke-width="0.1"/>
<path id="Vector_50" d="M311.9 217.4C309.2 217.4 305.1 217.3 302.4 217.6C304.2 215.1 306.6 211 308 208.5C307 210.8 305.6 213.9 305 216C306.9 216.7 309.8 217 311.9 217.4Z" fill="#009B3A" stroke="black" style="fill:#009B3A;fill:color(display-p3 0.0000 0.6078 0.2275);fill-opacity:1;stroke:black;stroke-opacity:1;" stroke-width="0.1"/>
<path id="Vector_51" d="M304 217.8L310.6 212.3L303.2 216.2L302.4 217.8H304Z" fill="#009B3A" stroke="black" style="fill:#009B3A;fill:color(display-p3 0.0000 0.6078 0.2275);fill-opacity:1;stroke:black;stroke-opacity:1;" stroke-width="0.1"/>
<g id="Vector_52">
<path d="M311 217.6C308.3 218 304.1 218.4 301.6 219.1C302.9 216.4 304.7 212.1 305.8 209.4C305.2 211.8 304.1 215 303.8 217.2C305.8 217.6 308.8 217.5 310.9 217.6" fill="#009B3A" style="fill:#009B3A;fill:color(display-p3 0.0000 0.6078 0.2275);fill-opacity:1;"/>
<path d="M311 217.6C308.3 218 304.1 218.4 301.6 219.1C302.9 216.4 304.7 212.1 305.8 209.4C305.2 211.8 304.1 215 303.8 217.2C305.8 217.6 308.8 217.5 310.9 217.6" stroke="black" style="stroke:black;stroke-opacity:1;" stroke-width="0.1"/>
</g>
<path id="Vector_53" d="M303.2 218.9L308.2 211.9L301.9 217.6L301.6 219.3L303.2 218.9Z" fill="#009B3A" stroke="black" style="fill:#009B3A;fill:color(display-p3 0.0000 0.6078 0.2275);fill-opacity:1;stroke:black;stroke-opacity:1;" stroke-width="0.1"/>
<path id="Vector_54" d="M309.4 218.4C306.8 218.7 302.6 218.9 300 219.4C301.5 216.8 303.5 212.6 304.8 210C304 212.3 302.8 215.5 302.4 217.7C304.4 218.2 307.4 218.2 309.4 218.4Z" fill="#009B3A" stroke="black" style="fill:#009B3A;fill:color(display-p3 0.0000 0.6078 0.2275);fill-opacity:1;stroke:black;stroke-opacity:1;" stroke-width="0.1"/>
<path id="Vector_55" d="M302.3 219.6L308.7 214.1L301.4 218L300.7 219.6H302.3Z" fill="#009B3A" stroke="black" style="fill:#009B3A;fill:color(display-p3 0.0000 0.6078 0.2275);fill-opacity:1;stroke:black;stroke-opacity:1;" stroke-width="0.1"/>
<path id="Vector_56" d="M308.7 218.7C306 219.3 301.8 220 299.3 220.8C300.5 218.1 302.1 213.7 303.1 211C302.6 213.4 301.7 216.6 301.5 218.8C303.5 219.1 306.5 218.8 308.7 218.7Z" fill="#009B3A" stroke="black" style="fill:#009B3A;fill:color(display-p3 0.0000 0.6078 0.2275);fill-opacity:1;stroke:black;stroke-opacity:1;" stroke-width="0.1"/>
<g id="Vector_57">
<path d="M301.2 220L305.2 212.3L299.8 218.9L299.7 220.6L301.2 219.9" fill="#009B3A" style="fill:#009B3A;fill:color(display-p3 0.0000 0.6078 0.2275);fill-opacity:1;"/>
<path d="M301.2 220L305.2 212.3L299.8 218.9L299.7 220.6L301.2 219.9" stroke="black" style="stroke:black;stroke-opacity:1;" stroke-width="0.1"/>
</g>
<g id="Vector_58">
<path d="M308.7 219.1C305.7 219.9 301.3 220.9 298.7 221.9C299.7 218.8 300.8 213.9 301.6 210.8C301.3 213.5 300.7 217.1 300.8 219.6C303.1 219.8 306.3 219.3 308.6 219.1" fill="#009B3A" style="fill:#009B3A;fill:color(display-p3 0.0000 0.6078 0.2275);fill-opacity:1;"/>
<path d="M308.7 219.1C305.7 219.9 301.3 220.9 298.7 221.9C299.7 218.8 300.8 213.9 301.6 210.8C301.3 213.5 300.7 217.1 300.8 219.6C303.1 219.8 306.3 219.3 308.6 219.1" stroke="black" style="stroke:black;stroke-opacity:1;" stroke-width="0.1"/>
</g>
<path id="Vector_59" d="M300.4 221.7L305.6 214.1L299 220.2L298.7 222.2L300.4 221.7Z" fill="#009B3A" stroke="black" style="fill:#009B3A;fill:color(display-p3 0.0000 0.6078 0.2275);fill-opacity:1;stroke:black;stroke-opacity:1;" stroke-width="0.1"/>
<path id="Vector_60" d="M307.5 220C304.7 220.9 300.3 222.1 297.7 223.3C298.5 220.1 299.5 215.2 300.1 212.1C300 214.8 299.6 218.4 299.8 220.8C302 220.9 305.2 220.2 307.5 220Z" fill="#009B3A" stroke="black" style="fill:#009B3A;fill:color(display-p3 0.0000 0.6078 0.2275);fill-opacity:1;stroke:black;stroke-opacity:1;" stroke-width="0.1"/>
<path id="Vector_61" d="M299.4 222.8L303.3 214.4L297.7 221.6V223.6L299.4 222.8Z" fill="#009B3A" stroke="black" style="fill:#009B3A;fill:color(display-p3 0.0000 0.6078 0.2275);fill-opacity:1;stroke:black;stroke-opacity:1;" stroke-width="0.1"/>
<g id="Vector_62">
<path d="M306.4 221.2C303.6 221.8 299.1 222.7 296.4 223.6C297.5 220.6 298.9 215.6 299.8 212.6C299.4 215.3 298.7 219 298.7 221.3C300.9 221.6 304.1 221.2 306.4 221.1" fill="#009B3A" style="fill:#009B3A;fill:color(display-p3 0.0000 0.6078 0.2275);fill-opacity:1;"/>
<path d="M306.4 221.2C303.6 221.8 299.1 222.7 296.4 223.6C297.5 220.6 298.9 215.6 299.8 212.6C299.4 215.3 298.7 219 298.7 221.3C300.9 221.6 304.1 221.2 306.4 221.1" stroke="black" style="stroke:black;stroke-opacity:1;" stroke-width="0.1"/>
</g>
<path id="Vector_63" d="M298.4 223.6L304.8 217L297.3 221.9L296.7 223.7L298.4 223.6Z" fill="#009B3A" stroke="black" style="fill:#009B3A;fill:color(display-p3 0.0000 0.6078 0.2275);fill-opacity:1;stroke:black;stroke-opacity:1;" stroke-width="0.1"/>
<path id="Vector_64" d="M305.2 222.3C302.3 222.7 297.9 223.1 295.2 223.8C296.5 220.8 298.2 216 299.2 213C298.6 215.7 297.7 219.3 297.5 221.7C299.7 222.2 302.9 222.1 305.2 222.3Z" fill="#009B3A" stroke="black" style="fill:#009B3A;fill:color(display-p3 0.0000 0.6078 0.2275);fill-opacity:1;stroke:black;stroke-opacity:1;" stroke-width="0.1"/>
<g id="Vector_65">
<path d="M297.2 223L301.5 214.7L295.6 221.7V223.6L297.2 222.9" fill="#009B3A" style="fill:#009B3A;fill:color(display-p3 0.0000 0.6078 0.2275);fill-opacity:1;"/>
<path d="M297.2 223L301.5 214.7L295.6 221.7V223.6L297.2 222.9" stroke="black" style="stroke:black;stroke-opacity:1;" stroke-width="0.1"/>
</g>
<path id="Vector_66" d="M305.5 221.3C302.5 222.6 297.5 224.3 294.6 225.9C295.6 222.2 296.6 216.4 297.2 212.8C297.2 215.9 296.7 220.2 296.9 222.9C299.4 222.9 302.9 221.8 305.5 221.3Z" fill="#009B3A" stroke="black" style="fill:#009B3A;fill:color(display-p3 0.0000 0.6078 0.2275);fill-opacity:1;stroke:black;stroke-opacity:1;" stroke-width="0.1"/>
<path id="Vector_67" d="M296.6 225.4L301.8 216L294.9 224L294.7 226.2L296.6 225.4Z" fill="#009B3A" stroke="black" style="fill:#009B3A;fill:color(display-p3 0.0000 0.6078 0.2275);fill-opacity:1;stroke:black;stroke-opacity:1;" stroke-width="0.1"/>
<path id="Vector_68" d="M304.3 222.5C301.3 223.9 296.5 225.9 293.7 227.6C294.5 224 295.2 218.1 295.7 214.6C295.7 217.6 295.5 221.9 295.8 224.6C298.3 224.3 301.8 223.1 304.3 222.5Z" fill="#009B3A" stroke="black" style="fill:#009B3A;fill:color(display-p3 0.0000 0.6078 0.2275);fill-opacity:1;stroke:black;stroke-opacity:1;" stroke-width="0.1"/>
<path id="Vector_69" d="M295.5 226.8L299.3 216.7L293.6 225.7L293.8 228L295.5 226.8Z" fill="#009B3A" stroke="black" style="fill:#009B3A;fill:color(display-p3 0.0000 0.6078 0.2275);fill-opacity:1;stroke:black;stroke-opacity:1;" stroke-width="0.1"/>
<path id="Vector_70" d="M303 223.3C300 224.8 295.2 226.8 292.4 228.6C293.1 224.9 293.8 219.1 294.3 215.5C294.3 218.5 294.1 222.8 294.5 225.5C297 225.2 300.5 223.9 303 223.3Z" fill="#009B3A" stroke="black" style="fill:#009B3A;fill:color(display-p3 0.0000 0.6078 0.2275);fill-opacity:1;stroke:black;stroke-opacity:1;" stroke-width="0.1"/>
<path id="Vector_71" d="M294.7 228L300.5 219.1L293.1 226.4L292.8 228.6L294.7 228Z" fill="#009B3A" stroke="black" style="fill:#009B3A;fill:color(display-p3 0.0000 0.6078 0.2275);fill-opacity:1;stroke:black;stroke-opacity:1;" stroke-width="0.1"/>
<g id="Vector_72">
<path d="M302.7 222.8C300 225 295.7 228.2 293.3 230.6C293.3 226.8 292.8 221.1 292.5 217.6C293.1 220.5 293.8 224.6 294.8 227.1C297.2 226.2 300.3 224.1 302.8 222.9" fill="#009B3A" style="fill:#009B3A;fill:color(display-p3 0.0000 0.6078 0.2275);fill-opacity:1;"/>
<path d="M302.7 222.8C300 225 295.7 228.2 293.3 230.6C293.3 226.8 292.8 221.1 292.5 217.6C293.1 220.5 293.8 224.6 294.8 227.1C297.2 226.2 300.3 224.1 302.8 222.9" stroke="black" style="stroke:black;stroke-opacity:1;" stroke-width="0.1"/>
</g>
<path id="Vector_73" d="M295 228.5L295.6 217.8L292.8 228.2L293.6 230.2L295 228.5Z" fill="#009B3A" stroke="black" style="fill:#009B3A;fill:color(display-p3 0.0000 0.6078 0.2275);fill-opacity:1;stroke:black;stroke-opacity:1;" stroke-width="0.1"/>
<path id="Vector_74" d="M302 223.8C299.2 226 295 229.1 292.5 231.5C292.5 227.8 292 222 291.7 218.5C292.4 221.5 293 225.5 294 228C296.4 227.2 299.5 225 302 223.8Z" fill="#009B3A" stroke="black" style="fill:#009B3A;fill:color(display-p3 0.0000 0.6078 0.2275);fill-opacity:1;stroke:black;stroke-opacity:1;" stroke-width="0.1"/>
<path id="Vector_75" d="M294.3 230.3L297 219.8L292.3 229.4L292.6 231.6L294.3 230.3Z" fill="#009B3A" stroke="black" style="fill:#009B3A;fill:color(display-p3 0.0000 0.6078 0.2275);fill-opacity:1;stroke:black;stroke-opacity:1;" stroke-width="0.1"/>
<g id="Vector_76">
<path d="M301.6 224C299.1 226.6 295 230.4 292.7 233C292.3 229.3 291.2 223.4 290.5 219.8C291.5 222.8 292.6 226.9 293.9 229.3C296.2 228.2 299.3 225.7 301.6 224.1" fill="#009B3A" style="fill:#009B3A;fill:color(display-p3 0.0000 0.6078 0.2275);fill-opacity:1;"/>
<path d="M301.6 224C299.1 226.6 295 230.4 292.7 233C292.3 229.3 291.2 223.4 290.5 219.8C291.5 222.8 292.6 226.9 293.9 229.3C296.2 228.2 299.3 225.7 301.6 224.1" stroke="black" style="stroke:black;stroke-opacity:1;" stroke-width="0.1"/>
</g>
<path id="Vector_77" d="M294.3 231.6L294.8 220.5L292.1 231.3L292.9 233.3L294.3 231.6Z" fill="#009B3A" stroke="black" style="fill:#009B3A;fill:color(display-p3 0.0000 0.6078 0.2275);fill-opacity:1;stroke:black;stroke-opacity:1;" stroke-width="0.1"/>
<g id="Vector_78">
<path d="M300.8 226C298.1 228.2 293.8 231.5 291.2 234C291.2 230.2 290.5 224.2 290.2 220.5C290.9 223.5 291.7 227.8 292.7 230.4C295.2 229.4 298.4 227.3 300.8 225.9" fill="#009B3A" style="fill:#009B3A;fill:color(display-p3 0.0000 0.6078 0.2275);fill-opacity:1;"/>
<path d="M300.8 226C298.1 228.2 293.8 231.5 291.2 234C291.2 230.2 290.5 224.2 290.2 220.5C290.9 223.5 291.7 227.8 292.7 230.4C295.2 229.4 298.4 227.3 300.8 225.9" stroke="black" style="stroke:black;stroke-opacity:1;" stroke-width="0.1"/>
</g>
<path id="Vector_79" d="M293.5 232.9L297.3 222.4L291.5 231.7L291.7 234L293.5 232.9Z" fill="#009B3A" stroke="black" style="fill:#009B3A;fill:color(display-p3 0.0000 0.6078 0.2275);fill-opacity:1;stroke:black;stroke-opacity:1;" stroke-width="0.1"/>
<path id="Vector_80" d="M300.8 226C298.3 228.5 294.5 232.4 292.3 235.1C291.9 231.3 290.8 225.3 290.2 221.7C291.2 224.7 292.2 228.9 293.4 231.3C295.7 230.1 298.5 227.6 300.8 226Z" fill="#009B3A" stroke="black" style="fill:#009B3A;fill:color(display-p3 0.0000 0.6078 0.2275);fill-opacity:1;stroke:black;stroke-opacity:1;" stroke-width="0.1"/>
<path id="Vector_81" d="M293.6 233.4L293.2 222.4L291.4 233.4L292.4 235.3L293.6 233.4Z" fill="#009B3A" stroke="black" style="fill:#009B3A;fill:color(display-p3 0.0000 0.6078 0.2275);fill-opacity:1;stroke:black;stroke-opacity:1;" stroke-width="0.1"/>
<path id="Vector_82" d="M299.6 226.8C297.2 229.4 293.5 233.3 291.4 236.1C290.9 232.1 289.6 226.3 288.9 222.6C289.9 225.6 291.2 229.8 292.4 232.2C294.6 231 297.4 228.4 299.6 226.8Z" fill="#009B3A" stroke="black" style="fill:#009B3A;fill:color(display-p3 0.0000 0.6078 0.2275);fill-opacity:1;stroke:black;stroke-opacity:1;" stroke-width="0.1"/>
<path id="Vector_83" d="M293 234.5L294.2 223.3L290.9 233.9L291.6 236.1L293 234.5Z" fill="#009B3A" stroke="black" style="fill:#009B3A;fill:color(display-p3 0.0000 0.6078 0.2275);fill-opacity:1;stroke:black;stroke-opacity:1;" stroke-width="0.1"/>
<g id="Vector_84">
<path d="M299 227.2C297 230.1 293.5 234.2 291.6 237.2C290.8 233.4 289.1 227.7 288.1 224.2C289.4 227 290.9 231 292.3 233.3C294.4 231.9 297 229.1 299.1 227.3" fill="#009B3A" style="fill:#009B3A;fill:color(display-p3 0.0000 0.6078 0.2275);fill-opacity:1;"/>
<path d="M299 227.2C297 230.1 293.5 234.2 291.6 237.2C290.8 233.4 289.1 227.7 288.1 224.2C289.4 227 290.9 231 292.3 233.3C294.4 231.9 297 229.1 299.1 227.3" stroke="black" style="stroke:black;stroke-opacity:1;" stroke-width="0.1"/>
</g>
<g id="Vector_85">
<path d="M293 235.6L292.2 224.3L290.8 235.5L291.8 237.5L292.9 235.5" fill="#009B3A" style="fill:#009B3A;fill:color(display-p3 0.0000 0.6078 0.2275);fill-opacity:1;"/>
<path d="M293 235.6L292.2 224.3L290.8 235.5L291.8 237.5L292.9 235.5" stroke="black" style="stroke:black;stroke-opacity:1;" stroke-width="0.1"/>
</g>
<path id="Vector_86" d="M298.9 227.9C296.9 230.9 293.6 235.2 291.9 238.3C290.9 234.5 288.9 228.8 287.7 225.3C289.1 228.1 290.8 232.1 292.4 234.3C294.4 232.8 296.9 229.8 298.9 227.9Z" fill="#009B3A" stroke="black" style="fill:#009B3A;fill:color(display-p3 0.0000 0.6078 0.2275);fill-opacity:1;stroke:black;stroke-opacity:1;" stroke-width="0.1"/>
<path id="Vector_87" d="M293.6 236.6L294.8 225.3L291.6 235.9L292.2 238.2L293.6 236.6Z" fill="#009B3A" stroke="black" style="fill:#009B3A;fill:color(display-p3 0.0000 0.6078 0.2275);fill-opacity:1;stroke:black;stroke-opacity:1;" stroke-width="0.1"/>
<g id="Vector_88">
<path d="M298.4 229C296.7 232.1 293.9 237 292.4 240.3C291.1 236.7 288.6 231.3 287.1 227.9C288.8 230.5 290.8 234.2 292.6 236.3C294.5 234.5 296.6 231.1 298.4 228.9" fill="#009B3A" style="fill:#009B3A;fill:color(display-p3 0.0000 0.6078 0.2275);fill-opacity:1;"/>
<path d="M298.4 229C296.7 232.1 293.9 237 292.4 240.3C291.1 236.7 288.6 231.3 287.1 227.9C288.8 230.5 290.8 234.2 292.6 236.3C294.5 234.5 296.6 231.1 298.4 228.9" stroke="black" style="stroke:black;stroke-opacity:1;" stroke-width="0.1"/>
</g>
<g id="Vector_89">
<path d="M293.3 237.6L290.1 226.8L291.1 238.1L292.6 239.7L293.2 237.6" fill="#009B3A" style="fill:#009B3A;fill:color(display-p3 0.0000 0.6078 0.2275);fill-opacity:1;"/>
<path d="M293.3 237.6L290.1 226.8L291.1 238.1L292.6 239.7L293.2 237.6" stroke="black" style="stroke:black;stroke-opacity:1;" stroke-width="0.1"/>
</g>
<g id="Vector_90">
<path d="M298.4 230.2C296.6 233.4 293.6 238.2 292.1 241.5C290.8 237.9 288.3 232.5 286.7 229.2C288.4 231.8 290.5 235.5 292.3 237.5C294.3 235.7 296.5 232.4 298.3 230.2" fill="#009B3A" style="fill:#009B3A;fill:color(display-p3 0.0000 0.6078 0.2275);fill-opacity:1;"/>
<path d="M298.4 230.2C296.6 233.4 293.6 238.2 292.1 241.5C290.8 237.9 288.3 232.5 286.7 229.2C288.4 231.8 290.5 235.5 292.3 237.5C294.3 235.7 296.5 232.4 298.3 230.2" stroke="black" style="stroke:black;stroke-opacity:1;" stroke-width="0.1"/>
</g>
<path id="Vector_91" d="M293.4 239.6L292.2 228.3L291.2 239.6L292.3 241.6L293.4 239.6Z" fill="#009B3A" stroke="black" style="fill:#009B3A;fill:color(display-p3 0.0000 0.6078 0.2275);fill-opacity:1;stroke:black;stroke-opacity:1;" stroke-width="0.1"/>
<path id="Vector_92" d="M298.6 231.2C296.7 234.3 293.6 239.1 292.1 242.3C290.8 238.7 288.4 233.3 286.9 229.9C288.6 232.5 290.6 236.3 292.4 238.3C294.4 236.6 296.7 233.3 298.6 231.2Z" fill="#009B3A" stroke="black" style="fill:#009B3A;fill:color(display-p3 0.0000 0.6078 0.2275);fill-opacity:1;stroke:black;stroke-opacity:1;" stroke-width="0.1"/>
<path id="Vector_93" d="M293.3 240.5L291.2 229.5L291.1 240.7L292.4 242.5L293.3 240.5Z" fill="#009B3A" stroke="black" style="fill:#009B3A;fill:color(display-p3 0.0000 0.6078 0.2275);fill-opacity:1;stroke:black;stroke-opacity:1;" stroke-width="0.1"/>
<path id="Vector_94" d="M297.8 232.8C295.8 235.8 292.5 240.3 290.8 243.5C289.7 239.8 287.5 234.1 286.2 230.7C287.7 233.4 289.6 237.3 291.2 239.5C293.3 237.9 295.8 234.8 297.8 232.8Z" fill="#009B3A" stroke="black" style="fill:#009B3A;fill:color(display-p3 0.0000 0.6078 0.2275);fill-opacity:1;stroke:black;stroke-opacity:1;" stroke-width="0.1"/>
<path id="Vector_95" d="M292.3 241.7L293.3 230.4L290.2 241.1L290.9 243.3L292.3 241.7Z" fill="#009B3A" stroke="black" style="fill:#009B3A;fill:color(display-p3 0.0000 0.6078 0.2275);fill-opacity:1;stroke:black;stroke-opacity:1;" stroke-width="0.1"/>
<g id="Vector_96">
<path d="M297.9 233C296.2 236.3 293.3 241.3 291.9 244.6C290.5 241.1 287.9 235.8 286.2 232.6C288 235 290.2 238.6 292 240.6C294 238.7 296 235.3 297.9 233.1" fill="#009B3A" style="fill:#009B3A;fill:color(display-p3 0.0000 0.6078 0.2275);fill-opacity:1;"/>
<path d="M297.9 233C296.2 236.3 293.3 241.3 291.9 244.6C290.5 241.1 287.9 235.8 286.2 232.6C288 235 290.2 238.6 292 240.6C294 238.7 296 235.3 297.9 233.1" stroke="black" style="stroke:black;stroke-opacity:1;" stroke-width="0.1"/>
</g>
<g id="Vector_97">
<path d="M292 242.7L288.5 232.1L289.8 243.3L291.3 244.9L291.9 242.7" fill="#009B3A" style="fill:#009B3A;fill:color(display-p3 0.0000 0.6078 0.2275);fill-opacity:1;"/>
<path d="M292 242.7L288.5 232.1L289.8 243.3L291.3 244.9L291.9 242.7" stroke="black" style="stroke:black;stroke-opacity:1;" stroke-width="0.1"/>
</g>
<path id="Vector_98" d="M297.4 233.9C296.2 237.5 294.2 242.9 293.4 246.6C291.4 243.4 287.9 238.8 285.8 235.9C287.9 238 290.7 241.1 292.8 242.6C294.4 240.3 296 236.6 297.4 233.9Z" fill="#009B3A" stroke="black" style="fill:#009B3A;fill:color(display-p3 0.0000 0.6078 0.2275);fill-opacity:1;stroke:black;stroke-opacity:1;" stroke-width="0.1"/>
<path id="Vector_99" d="M295 243.5L291.3 233.1L292.9 244.3L294.4 245.7L295 243.5Z" fill="#009B3A" stroke="black" style="fill:#009B3A;fill:color(display-p3 0.0000 0.6078 0.2275);fill-opacity:1;stroke:black;stroke-opacity:1;" stroke-width="0.1"/>
<path id="Vector_100" d="M297.4 235C296.2 238.6 294.2 244.1 293.4 247.7C291.4 244.5 288 240 285.8 237.2C287.9 239.2 290.7 242.2 292.8 243.8C294.4 241.5 296 237.7 297.4 235Z" fill="#009B3A" stroke="black" style="fill:#009B3A;fill:color(display-p3 0.0000 0.6078 0.2275);fill-opacity:1;stroke:black;stroke-opacity:1;" stroke-width="0.1"/>
<g id="Vector_101">
<path d="M295 245.3L290.2 235.6L293 246.4L294.7 247.6L295.1 245.3" fill="#009B3A" style="fill:#009B3A;fill:color(display-p3 0.0000 0.6078 0.2275);fill-opacity:1;"/>
<path d="M295 245.3L290.2 235.6L293 246.4L294.7 247.6L295.1 245.3" stroke="black" style="stroke:black;stroke-opacity:1;" stroke-width="0.1"/>
</g>
<path id="Vector_102" d="M297 235.9C296.3 239.6 295 245.4 294.5 249.1C292.2 246.2 288.2 242.1 285.8 239.7C288.1 241.4 291.2 244.1 293.5 245.2C294.8 242.7 295.9 238.7 297 235.9Z" fill="#009B3A" stroke="black" style="fill:#009B3A;fill:color(display-p3 0.0000 0.6078 0.2275);fill-opacity:1;stroke:black;stroke-opacity:1;" stroke-width="0.1"/>
<g id="Vector_103">
<path d="M295.4 246.8L292.8 235.9L293.2 247.2L294.6 248.9L295.4 246.9" fill="#009B3A" style="fill:#009B3A;fill:color(display-p3 0.0000 0.6078 0.2275);fill-opacity:1;"/>
<path d="M295.4 246.8L292.8 235.9L293.2 247.2L294.6 248.9L295.4 246.9" stroke="black" style="stroke:black;stroke-opacity:1;" stroke-width="0.1"/>
</g>
<g id="Vector_104">
<path d="M297 237C296.6 240.9 295.8 246.8 295.8 250.5C293.2 248 288.9 244.5 286.3 242.4C288.7 243.8 292 246 294.4 246.8C295.4 244.2 296.2 240 297 237.1" fill="#009B3A" style="fill:#009B3A;fill:color(display-p3 0.0000 0.6078 0.2275);fill-opacity:1;"/>
<path d="M297 237C296.6 240.9 295.8 246.8 295.8 250.5C293.2 248 288.9 244.5 286.3 242.4C288.7 243.8 292 246 294.4 246.8C295.4 244.2 296.2 240 297 237.1" stroke="black" style="stroke:black;stroke-opacity:1;" stroke-width="0.1"/>
</g>
<path id="Vector_105" d="M295.5 247.6L288.6 239.8L293.8 249.3L295.8 249.9L295.5 247.6Z" fill="#009B3A" stroke="black" style="fill:#009B3A;fill:color(display-p3 0.0000 0.6078 0.2275);fill-opacity:1;stroke:black;stroke-opacity:1;" stroke-width="0.1"/>
<path id="Vector_106" d="M297.2 238.4C296.8 242.2 296 248.1 295.9 251.8C293.3 249.3 289 245.8 286.4 243.6C288.9 245 292.2 247.3 294.5 248.1C295.6 245.5 296.3 241.3 297.2 238.4Z" fill="#009B3A" stroke="black" style="fill:#009B3A;fill:color(display-p3 0.0000 0.6078 0.2275);fill-opacity:1;stroke:black;stroke-opacity:1;" stroke-width="0.1"/>
<g id="Vector_107">
<path d="M296.3 249.4L291 240L294.3 250.7L296 251.8L296.3 249.5" fill="#009B3A" style="fill:#009B3A;fill:color(display-p3 0.0000 0.6078 0.2275);fill-opacity:1;"/>
<path d="M296.3 249.4L291 240L294.3 250.7L296 251.8L296.3 249.5" stroke="black" style="stroke:black;stroke-opacity:1;" stroke-width="0.1"/>
</g>
<g id="Vector_108">
<path d="M297.5 240C297.2 243.8 296.7 249.7 296.7 253.5C293.57 250.795 290.299 248.258 286.9 245.9C289.5 247.1 292.9 249.2 295.2 249.9C296.2 247.2 296.8 242.9 297.5 239.9" fill="#009B3A" style="fill:#009B3A;fill:color(display-p3 0.0000 0.6078 0.2275);fill-opacity:1;"/>
<path d="M297.5 240C297.2 243.8 296.7 249.7 296.7 253.5C293.57 250.795 290.299 248.258 286.9 245.9C289.5 247.1 292.9 249.2 295.2 249.9C296.2 247.2 296.8 242.9 297.5 239.9" stroke="black" style="stroke:black;stroke-opacity:1;" stroke-width="0.1"/>
</g>
<path id="Vector_109" d="M297 251.2L290.4 242.9L295.2 252.7L297 253.5V251.2Z" fill="#009B3A" stroke="black" style="fill:#009B3A;fill:color(display-p3 0.0000 0.6078 0.2275);fill-opacity:1;stroke:black;stroke-opacity:1;" stroke-width="0.1"/>
<g id="Vector_110">
<path d="M297.6 241.8C297.3 245.6 296.8 251.5 296.9 255.3C294.2 252.9 289.8 249.7 287 247.7C289.6 249 293 251 295.4 251.7C296.4 249 296.9 244.7 297.6 241.7" fill="#009B3A" style="fill:#009B3A;fill:color(display-p3 0.0000 0.6078 0.2275);fill-opacity:1;"/>
<path d="M297.6 241.8C297.3 245.6 296.8 251.5 296.9 255.3C294.2 252.9 289.8 249.7 287 247.7C289.6 249 293 251 295.4 251.7C296.4 249 296.9 244.7 297.6 241.7" stroke="black" style="stroke:black;stroke-opacity:1;" stroke-width="0.1"/>
</g>
<path id="Vector_111" d="M297.5 252.6L293 242.6L295.5 253.6L297.1 254.9L297.5 252.6Z" fill="#009B3A" stroke="black" style="fill:#009B3A;fill:color(display-p3 0.0000 0.6078 0.2275);fill-opacity:1;stroke:black;stroke-opacity:1;" stroke-width="0.1"/>
<path id="Vector_112" d="M297.7 242.9C297.9 246.8 297.9 252.7 298.3 256.5C294.929 254.278 291.458 252.209 287.9 250.3C290.5 251.2 294 252.7 296.5 253.1C297.2 250.2 297.3 246 297.7 242.9Z" fill="#009B3A" stroke="black" style="fill:#009B3A;fill:color(display-p3 0.0000 0.6078 0.2275);fill-opacity:1;stroke:black;stroke-opacity:1;" stroke-width="0.1"/>
<path id="Vector_113" d="M298.3 252.2L290 246.5L297 254.3L299 254.4L298.3 252.2Z" fill="#009B3A" stroke="black" style="fill:#009B3A;fill:color(display-p3 0.0000 0.6078 0.2275);fill-opacity:1;stroke:black;stroke-opacity:1;" stroke-width="0.1"/>
<path id="Vector_114" d="M298 243.3C298.3 247.2 298.7 253.1 299.3 256.8C296.3 254.9 291.5 252.5 288.5 251C291.2 251.8 294.8 253.2 297.3 253.5C297.8 250.6 297.7 246.4 298 243.3Z" fill="#009B3A" stroke="black" style="fill:#009B3A;fill:color(display-p3 0.0000 0.6078 0.2275);fill-opacity:1;stroke:black;stroke-opacity:1;" stroke-width="0.1"/>
<g id="Vector_115">
<path d="M299.3 254.3L292.3 246.3L297.6 255.9L299.5 256.6L299.2 254.3" fill="#009B3A" style="fill:#009B3A;fill:color(display-p3 0.0000 0.6078 0.2275);fill-opacity:1;"/>
<path d="M299.3 254.3L292.3 246.3L297.6 255.9L299.5 256.6L299.2 254.3" stroke="black" style="stroke:black;stroke-opacity:1;" stroke-width="0.1"/>
</g>
<path id="Vector_116" d="M298.6 244.8C299.1 248.6 299.6 254.5 300.5 258.2C297.5 256.5 292.5 254.4 289.5 253.1C292.2 253.7 295.9 254.9 298.3 255.1C298.7 252.1 298.5 247.9 298.6 244.8Z" fill="#009B3A" stroke="black" style="fill:#009B3A;fill:color(display-p3 0.0000 0.6078 0.2275);fill-opacity:1;stroke:black;stroke-opacity:1;" stroke-width="0.1"/>
<path id="Vector_117" d="M300.6 255.7L292.3 249.8L299.3 257.8L301.3 257.9L300.6 255.7Z" fill="#009B3A" stroke="black" style="fill:#009B3A;fill:color(display-p3 0.0000 0.6078 0.2275);fill-opacity:1;stroke:black;stroke-opacity:1;" stroke-width="0.1"/>
<path id="Vector_118" d="M298.9 246.4C299.6 250.2 300.6 256.1 301.6 259.7C298.5 258.2 293.4 256.6 290.3 255.6C293.1 255.9 296.8 256.8 299.3 256.6C299.5 253.7 299 249.6 298.9 246.4Z" fill="#009B3A" stroke="black" style="fill:#009B3A;fill:color(display-p3 0.0000 0.6078 0.2275);fill-opacity:1;stroke:black;stroke-opacity:1;" stroke-width="0.1"/>
<path id="Vector_119" d="M301.6 256.9L294.6 248.7L299.8 258.4L301.8 259.2L301.6 256.9Z" fill="#009B3A" stroke="black" style="fill:#009B3A;fill:color(display-p3 0.0000 0.6078 0.2275);fill-opacity:1;stroke:black;stroke-opacity:1;" stroke-width="0.1"/>
<g id="Vector_120">
<path d="M299.3 247.4C300.4 251.1 301.9 256.9 303.3 260.4C300 259.4 294.9 258.4 291.7 257.8C294.5 257.8 298.2 258.1 300.7 257.7C300.7 254.7 299.7 250.6 299.3 247.5" fill="#009B3A" style="fill:#009B3A;fill:color(display-p3 0.0000 0.6078 0.2275);fill-opacity:1;"/>
<path d="M299.3 247.4C300.4 251.1 301.9 256.9 303.3 260.4C300 259.4 294.9 258.4 291.7 257.8C294.5 257.8 298.2 258.1 300.7 257.7C300.7 254.7 299.7 250.6 299.3 247.5" stroke="black" style="stroke:black;stroke-opacity:1;" stroke-width="0.1"/>
</g>
<g id="Vector_121">
<path d="M302 256.9L292.3 254.9L301.4 259.4L303.3 258.7L301.9 256.9" fill="#009B3A" style="fill:#009B3A;fill:color(display-p3 0.0000 0.6078 0.2275);fill-opacity:1;"/>
<path d="M302 256.9L292.3 254.9L301.4 259.4L303.3 258.7L301.9 256.9" stroke="black" style="stroke:black;stroke-opacity:1;" stroke-width="0.1"/>
</g>
<path id="Vector_122" d="M300 248.6C301 252.3 302.5 258 303.8 261.5C300.6 260.5 295.5 259.5 292.3 258.9C295.1 258.9 298.8 259.2 301.3 258.9C301.3 255.9 300.3 251.7 300 248.6Z" fill="#009B3A" stroke="black" style="fill:#009B3A;fill:color(display-p3 0.0000 0.6078 0.2275);fill-opacity:1;stroke:black;stroke-opacity:1;" stroke-width="0.1"/>
<path id="Vector_123" d="M303.5 257.9L294.3 253.4L302.5 260.1L304.5 259.9L303.5 257.9Z" fill="#009B3A" stroke="black" style="fill:#009B3A;fill:color(display-p3 0.0000 0.6078 0.2275);fill-opacity:1;stroke:black;stroke-opacity:1;" stroke-width="0.1"/>
<path id="Vector_124" d="M299.5 249.2C301.3 252.6 304 257.9 306 260.9C302.6 260.7 297.4 260.9 294.2 260.9C296.9 260.4 300.6 259.9 302.9 258.9C302.2 256 300.5 252.2 299.5 249.2Z" fill="#009B3A" stroke="black" style="fill:#009B3A;fill:color(display-p3 0.0000 0.6078 0.2275);fill-opacity:1;stroke:black;stroke-opacity:1;" stroke-width="0.1"/>
<g id="Vector_125">
<path d="M305 258.9L295.4 256.3L304.4 261.3L306.2 260.8L304.9 258.8" fill="#009B3A" style="fill:#009B3A;fill:color(display-p3 0.0000 0.6078 0.2275);fill-opacity:1;"/>
<path d="M305 258.9L295.4 256.3L304.4 261.3L306.2 260.8L304.9 258.8" stroke="black" style="stroke:black;stroke-opacity:1;" stroke-width="0.1"/>
</g>
<g id="Vector_126">
<path d="M300.4 250.7C302.3 254 305 259.3 307.1 262.3C303.7 262.1 298.5 262.3 295.3 262.5C297.9 261.8 301.7 261.3 303.9 260.3C303.3 257.4 301.5 253.6 300.5 250.7" fill="#009B3A" style="fill:#009B3A;fill:color(display-p3 0.0000 0.6078 0.2275);fill-opacity:1;"/>
<path d="M300.4 250.7C302.3 254 305 259.3 307.1 262.3C303.7 262.1 298.5 262.3 295.3 262.5C297.9 261.8 301.7 261.3 303.9 260.3C303.3 257.4 301.5 253.6 300.5 250.7" stroke="black" style="stroke:black;stroke-opacity:1;" stroke-width="0.1"/>
</g>
<path id="Vector_127" d="M306.1 259.7L297.2 254.4L305 261.8H307L306.1 259.7Z" fill="#009B3A" stroke="black" style="fill:#009B3A;fill:color(display-p3 0.0000 0.6078 0.2275);fill-opacity:1;stroke:black;stroke-opacity:1;" stroke-width="0.1"/>
<path id="Vector_128" d="M301.2 251.5C303.3 254.6 306.5 259.5 308.8 262.4C304.901 262.714 301.026 263.282 297.2 264.1C299.8 263.1 303.4 262.1 305.6 260.8C304.6 258 302.5 254.3 301.2 251.5Z" fill="#009B3A" stroke="black" style="fill:#009B3A;fill:color(display-p3 0.0000 0.6078 0.2275);fill-opacity:1;stroke:black;stroke-opacity:1;" stroke-width="0.1"/>
<path id="Vector_129" d="M306.8 260.5L297.2 260.2L306.7 263.1L308.4 262L306.8 260.5ZM312.4 213.9L319.3 212.8L312.4 212.9L311.2 213.5L312.4 213.9Z" fill="#009B3A" stroke="black" style="fill:#009B3A;fill:color(display-p3 0.0000 0.6078 0.2275);fill-opacity:1;stroke:black;stroke-opacity:1;" stroke-width="0.1"/>
<path id="Vector_130" d="M316.2 215.4C314.2 214.8 311.2 213.8 309.1 213.4L316.5 209.9C315 210.9 312.7 212.1 311.5 213.1C312.7 213.9 314.8 214.7 316.2 215.4Z" fill="#009B3A" stroke="black" style="fill:#009B3A;fill:color(display-p3 0.0000 0.6078 0.2275);fill-opacity:1;stroke:black;stroke-opacity:1;" stroke-width="0.1"/>
<g id="Vector_131">
<path d="M312 214.1L318.8 212.3L311.8 213.2L310.8 213.9L312.1 214.1" fill="#009B3A" style="fill:#009B3A;fill:color(display-p3 0.0000 0.6078 0.2275);fill-opacity:1;"/>
<path d="M312 214.1L318.8 212.3L311.8 213.2L310.8 213.9L312.1 214.1" stroke="black" style="stroke:black;stroke-opacity:1;" stroke-width="0.1"/>
</g>
<path id="Vector_132" d="M316.5 215.9C314.1 215.6 310.5 215.2 308.2 215.2C310 213.6 312.4 211.1 313.9 209.5C312.9 211 311.3 212.9 310.6 214.3C312.2 215 314.7 215.4 316.5 215.9Z" fill="#009B3A" stroke="black" style="fill:#009B3A;fill:color(display-p3 0.0000 0.6078 0.2275);fill-opacity:1;stroke:black;stroke-opacity:1;" stroke-width="0.1"/>
<g id="Vector_133">
<path d="M309.6 214.6L316.6 213.8L309.8 213.6L308.5 214.2L309.5 214.6" fill="#009B3A" style="fill:#009B3A;fill:color(display-p3 0.0000 0.6078 0.2275);fill-opacity:1;"/>
<path d="M309.6 214.6L316.6 213.8L309.8 213.6L308.5 214.2L309.5 214.6" stroke="black" style="stroke:black;stroke-opacity:1;" stroke-width="0.1"/>
</g>
<path id="Vector_134" d="M314.7 216.1L307.2 214.8L314.1 211C312.7 212 310.7 213.4 309.7 214.4C311 215 313.2 215.6 314.7 216.1Z" fill="#009B3A" stroke="black" style="fill:#009B3A;fill:color(display-p3 0.0000 0.6078 0.2275);fill-opacity:1;stroke:black;stroke-opacity:1;" stroke-width="0.1"/>
<g id="Vector_135">
<path d="M309 214.6L315.1 211.9L308.4 213.7L307.6 214.5H309" fill="#009B3A" style="fill:#009B3A;fill:color(display-p3 0.0000 0.6078 0.2275);fill-opacity:1;"/>
<path d="M309 214.6L315.1 211.9L308.4 213.7L307.6 214.5H309" stroke="black" style="stroke:black;stroke-opacity:1;" stroke-width="0.1"/>
</g>
<path id="Vector_136" d="M314.5 216.9C312.8 216.2 310 214.9 308.3 214.4L312.7 209.6C311.9 210.9 310.7 212.6 310.1 214C311.3 215 313.1 216 314.5 216.9Z" fill="#009B3A" stroke="black" style="fill:#009B3A;fill:color(display-p3 0.0000 0.6078 0.2275);fill-opacity:1;stroke:black;stroke-opacity:1;" stroke-width="0.1"/>
<path id="Vector_137" d="M309.3 215L314.1 213L308.9 213.6L308.3 214.6L309.3 215ZM305.3 259.6H295.5L305.5 262.1L307.1 261.1L305.3 259.6Z" fill="#009B3A" stroke="black" style="fill:#009B3A;fill:color(display-p3 0.0000 0.6078 0.2275);fill-opacity:1;stroke:black;stroke-opacity:1;" stroke-width="0.1"/>
<path id="Vector_138" d="M307.1 260.2L297.1 257.9L306.7 262.6L308.7 262L307.1 260.2Z" fill="#009B3A" stroke="black" style="fill:#009B3A;fill:color(display-p3 0.0000 0.6078 0.2275);fill-opacity:1;stroke:black;stroke-opacity:1;" stroke-width="0.1"/>
<path id="Vector_139" d="M308.8 260.9L298.8 260.4L308.8 263.4L310.5 262.4L308.8 260.9Z" fill="#009B3A" stroke="black" style="fill:#009B3A;fill:color(display-p3 0.0000 0.6078 0.2275);fill-opacity:1;stroke:black;stroke-opacity:1;" stroke-width="0.1"/>
<path id="Vector_140" d="M302.5 253.9C305 256.7 308.9 261.3 311.6 263.8C308.3 264.3 303.3 265.6 300.2 266.5C302.6 265.3 306.2 263.9 308.2 262.5C306.8 259.9 304.2 256.5 302.5 253.9Z" fill="#009B3A" stroke="black" style="fill:#009B3A;fill:color(display-p3 0.0000 0.6078 0.2275);fill-opacity:1;stroke:black;stroke-opacity:1;" stroke-width="0.1"/>
<g id="Vector_141">
<path d="M310.1 261.4L300.1 258.1L309.5 263.7L311.5 263.3L310.1 261.3" fill="#009B3A" style="fill:#009B3A;fill:color(display-p3 0.0000 0.6078 0.2275);fill-opacity:1;"/>
<path d="M310.1 261.4L300.1 258.1L309.5 263.7L311.5 263.3L310.1 261.3" stroke="black" style="stroke:black;stroke-opacity:1;" stroke-width="0.1"/>
</g>
<path id="Vector_142" d="M303.4 254.5C306.2 257.1 310.4 261.2 313.4 263.5C310.2 264.4 305.4 266.3 302.4 267.5C304.7 266.1 308 264.3 309.8 262.5C308.2 260.1 305.3 257 303.4 254.5Z" fill="#009B3A" stroke="black" style="fill:#009B3A;fill:color(display-p3 0.0000 0.6078 0.2275);fill-opacity:1;stroke:black;stroke-opacity:1;" stroke-width="0.1"/>
<g id="Vector_143">
<path d="M311 262L301.5 263.9L311.5 264.5L312.9 263.2L310.9 262" fill="#009B3A" style="fill:#009B3A;fill:color(display-p3 0.0000 0.6078 0.2275);fill-opacity:1;"/>
<path d="M311 262L301.5 263.9L311.5 264.5L312.9 263.2L310.9 262" stroke="black" style="stroke:black;stroke-opacity:1;" stroke-width="0.1"/>
</g>
<g id="Vector_144">
<path d="M309 261.4L299.2 262.2L309.3 263.9L310.9 262.7L308.9 261.4" fill="#009B3A" style="fill:#009B3A;fill:color(display-p3 0.0000 0.6078 0.2275);fill-opacity:1;"/>
<path d="M309 261.4L299.2 262.2L309.3 263.9L310.9 262.7L308.9 261.4" stroke="black" style="stroke:black;stroke-opacity:1;" stroke-width="0.1"/>
</g>
<path id="Vector_145" d="M310.8 262L300.6 260.3L310.6 264.3L312.4 263.6L310.8 262Z" fill="#009B3A" stroke="black" style="fill:#009B3A;fill:color(display-p3 0.0000 0.6078 0.2275);fill-opacity:1;stroke:black;stroke-opacity:1;" stroke-width="0.1"/>
<path id="Vector_146" d="M312.5 262.5L302.5 262.7L312.7 265L314.3 263.9L312.5 262.5Z" fill="#009B3A" stroke="black" style="fill:#009B3A;fill:color(display-p3 0.0000 0.6078 0.2275);fill-opacity:1;stroke:black;stroke-opacity:1;" stroke-width="0.1"/>
<path id="Vector_147" d="M305.7 256C308.5 258.6 312.7 262.8 315.6 265.2C312.3 265.9 307.3 267.6 304.3 268.6C306.7 267.3 310.1 265.7 312 264.1C310.4 261.6 307.6 258.4 305.7 255.9V256Z" fill="#009B3A" stroke="black" style="fill:#009B3A;fill:color(display-p3 0.0000 0.6078 0.2275);fill-opacity:1;stroke:black;stroke-opacity:1;" stroke-width="0.1"/>
<path id="Vector_148" d="M313.9 262.9L303.7 260.3L313.5 265.3L315.4 264.7L313.9 262.9Z" fill="#009B3A" stroke="black" style="fill:#009B3A;fill:color(display-p3 0.0000 0.6078 0.2275);fill-opacity:1;stroke:black;stroke-opacity:1;" stroke-width="0.1"/>
<path id="Vector_149" d="M306.6 256.5C309.6 258.9 314.2 262.7 317.3 264.7C314.1 265.8 309.5 268.2 306.7 269.6C308.9 267.9 312 265.9 313.7 264.1C311.9 261.7 308.7 258.8 306.7 256.5H306.6Z" fill="#009B3A" stroke="black" style="fill:#009B3A;fill:color(display-p3 0.0000 0.6078 0.2275);fill-opacity:1;stroke:black;stroke-opacity:1;" stroke-width="0.1"/>
<path id="Vector_150" d="M314.8 263.4L305.5 266H315.5L316.8 264.5L314.8 263.5V263.4Z" fill="#009B3A" stroke="black" style="fill:#009B3A;fill:color(display-p3 0.0000 0.6078 0.2275);fill-opacity:1;stroke:black;stroke-opacity:1;" stroke-width="0.1"/>
</g>
<path id="Vector_151" d="M327.6 249.5L320 244.2L312.4 249.5L315.3 241.1L308.6 235.9H317.2L320 227.5L322.8 235.9H331.4L324.7 241.1L327.6 249.5Z" fill="#FEDF00" stroke="black" style="fill:#FEDF00;fill:color(display-p3 0.9961 0.8745 0.0000);fill-opacity:1;stroke:black;stroke-opacity:1;" stroke-width="0.4"/>
</g>
<defs>
<clipPath id="clip0_2194_7753">
<rect width="640" height="480" fill="white" style="fill:white;fill-opacity:1;"/>
</clipPath>
</defs>
</svg>
