<svg width="640" height="480" viewBox="0 0 640 480" fill="none" xmlns="http://www.w3.org/2000/svg">
<g id="sb" clip-path="url(#clip0_2194_8430)">
<g id="Clip path group">
<mask id="mask0_2194_8430" style="mask-type:luminance" maskUnits="userSpaceOnUse" x="0" y="0" width="641" height="480">
<g id="sb-a">
<path id="Vector" d="M0 0H640.031V480H0V0Z" fill="white" style="fill:white;fill-opacity:1;"/>
</g>
</mask>
<g mask="url(#mask0_2194_8430)">
<g id="Group">
<path id="Vector_2" fill-rule="evenodd" clip-rule="evenodd" d="M0 475.5L925.688 0H0V475.5Z" fill="#0000D6" style="fill:#0000D6;fill:color(display-p3 0.0000 0.0000 0.8392);fill-opacity:1;"/>
<path id="Vector_3" fill-rule="evenodd" clip-rule="evenodd" d="M960 0L25.5 480H960V0Z" fill="#006000" style="fill:#006000;fill:color(display-p3 0.0000 0.3765 0.0000);fill-opacity:1;"/>
<path id="Vector_4" fill-rule="evenodd" clip-rule="evenodd" d="M960 0H908.531L0 455.062V480H51.4688L960 25.875V0Z" fill="#FFCC00" style="fill:#FFCC00;fill:color(display-p3 1.0000 0.8000 0.0000);fill-opacity:1;"/>
<path id="Vector_5" fill-rule="evenodd" clip-rule="evenodd" d="M66.9375 8.53125L78 40.875H114.094L84.9375 60.6562L96.0938 92.9062L66.9375 73.125L37.7812 93L48.9375 60.75L19.7813 40.7813H55.7812L66.9375 8.53125ZM246.094 8.53125L257.25 40.875H293.344L264.094 60.75L275.344 93L246 73.125L216.937 93.0938L228.094 60.8438L198.844 40.875H234.938L246.094 8.53125ZM246.094 144L257.25 176.344H293.344L264.094 196.219L275.344 228.469L246.094 208.5L217.031 228.469L228.187 196.219L198.937 176.25H235.031L246.094 144ZM157.031 77.0625L168.187 109.312H204.188L175.125 129.281L186.188 161.531L157.125 141.562L127.875 161.531L139.125 129.281L109.875 109.312H145.969L157.031 77.0625ZM66.9375 144L78 176.344H114.094L84.9375 196.219L96.0938 228.469L66.9375 208.5L37.7812 228.469L49.0312 196.219L19.6875 176.25H55.6875L66.9375 144Z" fill="white" style="fill:white;fill-opacity:1;"/>
</g>
</g>
</g>
</g>
<defs>
<clipPath id="clip0_2194_8430">
<rect width="640" height="480" fill="white" style="fill:white;fill-opacity:1;"/>
</clipPath>
</defs>
</svg>
