<svg width="640" height="480" viewBox="0 0 640 480" fill="none" xmlns="http://www.w3.org/2000/svg">
<g id="sh-ta" clip-path="url(#clip0_2194_9234)">
<path id="Vector" d="M640 480V0H0V480H640Z" fill="#000066" style="fill:#000066;fill:color(display-p3 0.0000 0.0000 0.4000);fill-opacity:1;"/>
<path id="Vector_2" d="M574.5 199.7C574.5 263.4 564.3 332.2 481.5 365C398.9 332.2 388.8 263.4 388.4 199.7H574.5Z" fill="#8FC5FF" stroke="white" style="fill:#8FC5FF;fill:color(display-p3 0.5608 0.7725 1.0000);fill-opacity:1;stroke:white;stroke-opacity:1;" stroke-width="4.3"/>
<path id="Vector_3" d="M481.4 364.7C512.881 353.688 539.124 331.331 555 302H547.2C544.9 301.6 467.8 294.2 458.5 290.3C450.6 287.5 420.1 293 406.1 298.1C421.565 329.278 448.634 353.152 481.5 364.6L481.4 364.7Z" fill="#366CC9" stroke="black" style="fill:#366CC9;fill:color(display-p3 0.2118 0.4235 0.7882);fill-opacity:1;stroke:black;stroke-opacity:1;" stroke-width="4.3"/>
<path id="Vector_4" d="M423.6 325.6H428.3C429.4 325.6 429.4 325.6 429.8 324.4C430.2 323.2 431.4 323.6 432.2 324C433 324.4 434.5 324 435.2 323.2C436.1 322.4 436.1 322.4 436.9 323.2C437.7 324 438 323.6 438.9 323.2C439.2 323.2 440.8 322.4 441.2 321.2C441.6 320 442.7 319.7 443.2 320.5C443.533 321.167 444.167 321.433 445.1 321.3C445.7 321.233 445.933 321.733 445.8 322.8C445.8 323.6 445.8 324 447.8 322.4C449.4 324 449.8 323.2 449.8 321.6C449.8 320.1 449.8 313.8 449 313.4C448.2 313 447.8 310.3 447.4 308.4C447.4 304.4 447.4 304.4 443.5 302.4C443.5 301.4 442.7 300.9 439.5 300.9C440 300.5 439.5 299.4 438.8 298.9C438 298.6 438 298.2 438.8 296.6C439.6 296.6 441.2 296.6 441.5 295.4C442.3 294.7 444.7 294.7 446.2 295.4C447.8 296.2 449.4 296.2 452.1 295.4L456.8 293.1C458.8 291.9 459.1 291.5 459.1 290C459.1 286 458 282.2 457.1 280.2C456.1 278.2 456.1 276.2 454.4 272.8C452.9 269.6 452.9 268.8 451.4 266.9C450.5 266.1 450.1 265.7 450.1 264.6C449.974 263.059 449.257 261.626 448.1 260.6C445.1 257.9 444.3 248.9 442.7 242.3C441.9 238.3 442.7 229.3 441.2 227.8C438.4 225.8 437.2 226.2 435.2 225.5C433.7 223.5 433.3 220 431.8 216.5C429.8 216.9 428.6 218.8 427.5 219.5C426.3 220.4 425.9 220.4 425.9 222.3C425.9 223.9 424.7 226.3 423.2 229.3C421.6 232.5 418.1 231.3 415.3 235.6C409.9 229 409.9 227 409.5 225.1C409.5 223.1 408.3 222.7 405.2 220V214C402.4 212 400.9 212.5 399.7 214C398.5 215.2 397.7 217.1 395.8 218C395 219.5 391.8 222.6 389.5 227C391.9 262.1 399.7 297.3 423.5 325.5L423.6 325.6Z" fill="#5D3100" stroke="black" style="fill:#5D3100;fill:color(display-p3 0.3647 0.1922 0.0000);fill-opacity:1;stroke:black;stroke-opacity:1;" stroke-width="0.4"/>
<path id="Vector_5" d="M574.5 199.7C574.5 175.4 573.3 151.9 573.7 131.7C544.282 120.268 512.96 114.533 481.4 114.8C460.7 114.8 420 117.9 389.2 131.6C389.9 151.9 388.4 175.4 388.4 199.6L574.5 199.7Z" fill="#FFFF00" stroke="white" style="fill:#FFFF00;fill:color(display-p3 1.0000 1.0000 0.0000);fill-opacity:1;stroke:white;stroke-opacity:1;" stroke-width="4.3"/>
<path id="Vector_6" d="M393.5 227.4C394.5 229 396.4 231.7 396.5 233.4C397.3 231.8 397.9 231.2 398 230.3C398 229.3 399.3 227.6 398.8 226.6C398.3 225.6 398.1 224.9 399.2 225.6C400.3 226.3 400.1 227.6 399.9 229.4C399.2 234.4 397.2 235.4 396.9 238.7C399.8 245.7 397.6 248.3 400.9 255.3C401.4 255.5 402.7 255 403.1 255.1C404.9 253.9 406.1 254.2 408.6 254.8C411 255.3 412.3 257 412.3 258.6C412.3 260.2 412.3 260.5 412.9 261.4C413.5 262.3 414.3 263.7 414.2 264.8C414 265.8 414.167 266.467 414.7 266.8C415 267.3 414.5 268.6 414.3 269.2C413.9 269.867 414.233 270.933 415.3 272.4C416.5 273.9 419.3 280.3 419.3 284C419.3 287.9 419.6 289.6 421.1 290.3C422.6 291 423.1 291.6 422.9 293.2C422.7 294.8 423.6 303.2 423.8 304.6C423.9 305.9 424.5 305.6 425.2 306.3C425.9 307 426.2 307.8 428.2 307.8C430.4 307.733 432.133 307.733 433.4 307.8C435.4 310.3 436.4 313.8 436.9 315.9C437.4 318.1 437.3 320.9 437.9 320.9C438.7 320.9 439.4 320.9 439.2 318.4C439 315.8 438.8 315.4 437.9 314C436.833 312.8 436.5 311.9 436.9 311.3C437.367 310.433 437.533 309.4 437.4 308.2C437.2 307.2 436.8 305.6 438.6 307.6L441.3 310.9C441.8 311.5 442 312.9 441.9 314.2C441.7 315.533 442 315.867 442.8 315.2C443.5 314.6 444.3 315.7 443.8 317C443.533 318.267 444.033 319.133 445.3 319.6C446.433 319.867 447.1 320.4 447.3 321.2C447.6 322 448.6 322.5 448.6 320.6C448.501 318.258 448.098 315.938 447.4 313.7C446.9 312.5 446.5 309.9 446.4 308.3C446.2 306.8 446 306.4 445.3 306.2C444.5 305.8 444 305.267 443.8 304.6C443.8 303.9 443.1 303.6 442.7 303.6C442.233 303.6 441.833 303.333 441.5 302.8C441.3 302.267 440.967 302.067 440.5 302.2C440 302.1 439.2 302.4 438.9 301.6C438.7 300.8 438.3 299.6 437.8 299C437.3 298.4 436.9 298.1 436.8 295.8C436.7 293.5 436.8 293.2 436 292.4C435.2 291.6 434 289.4 433.5 288.6C433.1 287.6 432.5 286.7 432.5 288.6C432.5 290.6 432.5 291.6 433.8 292.3C435 293 435.3 293 434.8 294.1C434.2 295.1 434.8 295.8 435 296.5C435.2 297.2 435.6 297.9 435 298.5C434.333 299.3 433.967 299.133 433.9 298C433.927 296.836 433.614 295.689 433 294.7C432.6 293.7 432.1 293.1 431.5 293.7C430.9 294.1 430.4 293.5 430.8 293.1C431.2 292.7 431.2 292.367 430.8 292.1C430.467 291.9 430.5 291.5 430.9 290.9C431.5 290 431.4 290 431.1 288.6C430.8 287.2 428.6 280 427.6 278.4C426.6 276.7 426.7 275.6 427.9 277.1C429.2 278.7 430.4 280.1 430.6 281.5C430.6 282.833 430.833 283.7 431.3 284.1C431.7 284.7 432.033 284.433 432.3 283.3C432.3 282.2 433.3 282.6 431.9 280.5C430.4 278.4 427.8 274.8 426.7 268.3C425.7 261.9 425.3 257.8 424.3 256.1C423.3 254.3 423 253.9 422.9 252.3C422.8 250.7 422.9 249 422.2 247.8C421.5 246.6 421 246.4 420.9 248.2C420.8 250 420.9 254.2 421.5 254.8C422.1 255.5 421.7 257.4 421.5 258.3C421.3 259.3 419.8 260.4 423.2 262.4C424.5 263.3 424.2 264.4 424.2 265C424 265.8 423.6 265.667 423 264.6C422.52 263.577 421.8 262.684 420.9 262C420.2 261.5 420 261 420.2 259.5C420.467 257.967 420.467 256.967 420.2 256.5C419.867 256.1 419.567 256.367 419.3 257.3C419.1 258.1 419 260.3 418.4 260.9C417.9 261.5 417.9 261.1 417.6 259.8C417.333 258.4 417.6 256.5 418.4 254.1C419.1 251.9 419.6 249.3 419 246.3C418.4 243.3 418.6 242.3 416.4 239.8C414 237.2 411.3 234.8 410.3 231.7C409.1 228.5 408.9 225.7 407.6 224.3C406.474 222.86 405.124 221.61 403.6 220.6V215.9C403.6 214.7 403 214.167 401.8 214.3C400.533 214.567 399.533 215.5 398.8 217.1C398 218.7 397.4 218 396.2 220.6C395 223.2 393.6 224.6 393.6 227.4H393.5Z" fill="#CF6200" style="fill:#CF6200;fill:color(display-p3 0.8118 0.3843 0.0000);fill-opacity:1;"/>
<path id="Vector_7" d="M400.8 257.1C401.8 257.7 402.5 258 403.8 257.4C404.9 256.8 406.3 255 408.1 256.8C409.621 258.706 410.465 261.062 410.5 263.5C410.5 265.8 410.5 270 413.1 272.3C415.7 274.567 417.034 277.167 417.1 280.1C417.308 283.135 417.776 286.146 418.5 289.1C418.9 290.433 419.534 291.6 420.4 292.6C421.1 293.4 421.8 295.7 421.9 298.1C422 300.6 421.6 302.2 421.9 303.5C422.3 304.7 421.9 305.7 421.1 305.2C420.1 304.7 419.9 304.2 419.3 303.2C418.634 302.133 418.467 302.367 418.8 303.9C419.3 306.2 420.8 306.9 422.1 306.9C423.4 306.9 423.8 307 424.7 307.9C425.5 308.7 425.6 309.1 427 309.1C428.4 309.1 428.6 309.1 430 309.5C431.3 309.8 431.3 309.7 432 309.5C432.734 309.3 433.367 309.867 433.9 311.2C434.3 312.5 435.6 316.2 435.6 317.2C435.6 318.2 435.6 319.2 436.3 320.2C437 321.3 436.8 322.2 436 321.7C435.3 321.1 435.2 321.2 434.7 321.4C434.234 321.533 433.6 321.267 432.8 320.6C432 320.2 432.5 320.3 431.7 319.1C430.9 317.767 430.467 317.533 430.4 318.4C430.4 319.8 430.134 320.267 429.6 319.8C429.067 319.333 428.6 319.333 428.2 319.8C427.7 320.4 427.5 320.8 426.9 319.8C426.3 318.8 425.6 318.8 424.9 318.5C424.4 318.4 424.4 318.4 424.1 317.5C423.8 316.6 422.8 316.3 422.1 316.3C421.234 316.3 420.767 315.967 420.7 315.3C420.7 314.7 420.1 314.3 419.7 314C419.3 313.7 419.5 313 419.4 312.3C419.3 311.6 418.7 311.8 418.3 311.7C417.8 311.5 417.6 311.6 417.6 310.5C417.6 309.4 417.1 309.2 416.9 308.5C416.5 307.7 416.9 307 417.1 306.3C417.2 305.3 417.1 304.9 416.5 304.3C415.9 303.5 416.5 302.8 414.8 301.3C413.1 300 412.3 301.2 411.8 297.9C411.509 294.01 410.702 290.177 409.4 286.5C408.4 285.5 407.9 284.5 406.9 284.2C405.9 283.9 405.5 284.2 405.4 282.2C405.3 280.2 404.7 277.8 403.4 276.6L401.1 274.4C400.5 274 400.2 273 401.1 271.4C402 269.6 401.6 267.2 401.5 266.1C401.4 265 401.1 263.5 401.3 262.3C401.5 261.1 401.3 259.6 401.1 258.8C400.9 258 400.4 257.8 400.9 257.1H400.8ZM425.3 228.3C423.973 230.06 422.389 231.611 420.6 232.9C418.7 234.3 416.3 235.3 417.6 237.6C419 239.9 420.1 240.2 420.3 241.9C420.5 243.833 421.167 245.067 422.3 245.6C423.8 246 424.3 245.8 424.3 248.6C424.3 251.4 424.3 252.6 425.5 253.6C426.7 254.6 426.5 255.8 427.1 258.3C427.7 260.9 427.7 266.5 429.3 270.3C430.8 274 434.6 281.3 434.1 282.7C433.6 284.1 433.3 285.3 434.8 287.1C436.5 288.8 437.5 291.4 437.8 292.9C437.8 294.4 438.1 294.9 439.8 294.4C440.909 294.121 441.915 293.531 442.7 292.7C443.234 292.033 444.267 292.1 445.8 292.9C447.3 293.8 449.6 294.5 451 293.8C452.3 292.9 453 291.7 454.2 291.7C456.1 290.3 456.8 287.5 457.2 286.7C457.6 285.9 457.3 285.9 456.5 285.1C455.7 284.3 456.1 282.9 456 281.6C455.934 280.267 455.167 278.1 453.7 275.1C452.1 272.1 451 268.5 450 267.6C449 266.7 448.4 264.3 448.3 263.2C448.2 262.2 446.9 261.2 446.1 260.4C445.2 259.5 444.5 258.4 443.5 253.6C442.5 248.8 441.9 245.6 441.9 244.6C441.9 243.8 441.7 243.8 440.9 243.4C440.1 243 439.7 241.8 440.1 241.2C440.2 240.5 439.7 239.8 439.4 239C439.1 238.2 439.4 236.7 440 235.8C440.5 235 440.4 232.8 439.9 230.8C439.4 229 438.8 227.4 436.6 227C434.5 226.8 434 226.2 433.3 224.4C432.3 222.7 431.5 219.6 431.3 218.9C431.1 218.2 430.6 218.1 429 219.5C427.4 220.9 426.8 221.2 426.8 223.8C426.8 225.5 427.2 226 427.7 226.9C428.2 227.9 428.4 228.2 428.7 230.7C429 233.2 431.4 237.3 428.5 239.7C425.5 241.9 425.9 242.5 426 244.1C426.1 245.7 425.2 246.8 424.7 244.6C424.1 242.2 424.7 240.9 426.3 239.8C427.9 238.7 429.4 237.3 428.3 235.8C427.34 233.72 426.764 231.484 426.6 229.2C426.5 227.6 426.3 227 425.3 228.3Z" fill="#CF6200" style="fill:#CF6200;fill:color(display-p3 0.8118 0.3843 0.0000);fill-opacity:1;"/>
<path id="Vector_8" d="M401.2 262.8L401.5 266.1C401.5 267.2 401.9 269.6 401 271.3C400.333 272.9 400.333 273.933 401 274.4H401.1C402.8 273.9 403.1 272.1 402.6 271.2C402.366 270.727 402.262 270.2 402.297 269.673C402.332 269.146 402.506 268.638 402.8 268.2C403.333 267.333 403.333 266.6 402.8 266C402.3 265.3 402.3 265.3 402.8 263.4C403.4 261.7 402.1 261.7 401.2 262.8ZM418.6 289.1C418.3 287.9 417.1 283.1 417.1 280.1C416.967 277.167 415.633 274.567 413.1 272.3C411.1 270.5 410.7 267.6 410.5 265.3C409.033 264.433 408.4 264.833 408.6 266.5C408.6 268.3 410.6 269.1 410.3 271.8C410 274.5 410 273.8 411.3 275.1C412.4 276.3 413 277.7 412.3 278.1C411.6 278.6 411.6 279.6 412.5 279.9C413.5 280.3 413.5 281.3 413.4 282.3C413.3 283.3 414.3 283.4 414.7 284C415.3 284.7 415.3 286.4 414.7 287.3C414.3 288.3 414.2 289.8 415.1 289C416 288.2 416.5 289 417.2 290.2C417.8 291.2 418.4 290.9 419.2 290.7L418.5 289.1H418.6ZM431.6 312.7C431.2 313.9 430.5 313.6 429.9 313C429.3 312.4 428.6 312.4 428.9 311.2C429.1 310.1 428.9 309.9 428.2 309.3L427.9 309H427.1C425.6 309 425.5 308.7 424.6 307.8L424.1 307.4V308.2C424.1 309.3 424.1 309 423.1 309.4C422.1 309.8 422.1 308.3 421.9 307.4L421.8 306.8C421.081 306.639 420.421 306.284 419.892 305.772C419.363 305.26 418.985 304.613 418.8 303.9C418.3 302.3 418.8 302.2 419.4 303.2C420 304.2 420.1 304.5 421 305.2C421.8 305.7 422.2 304.7 421.8 303.5V302.2C421.65 301.788 421.369 301.437 421 301.2C419.2 300.5 419.8 300.4 419.8 299C420.067 297.8 419.667 297.6 418.6 298.4C417.6 299.1 417.6 298.4 417.6 296.2C417.6 294.2 416.2 294.2 415.9 295.6C415.6 297.1 415 296.1 414.5 294.1C414 292.1 413 291.5 413 293.5C413 295.167 412.467 295.567 411.4 294.7L411.8 297.8C412.3 301.1 413.1 299.8 414.8 301.3C416.4 302.7 415.9 303.5 416.5 304.2C417.033 304.867 417.233 305.533 417.1 306.2C416.7 307 416.6 307.733 416.8 308.4C417.1 309.2 417.6 309.4 417.6 310.5C417.6 311.5 417.8 311.4 418.3 311.7H419.1L419.8 310.7C421.1 309.5 422.8 310.7 423.5 312.4C424.1 314 424.867 314.2 425.8 313C426.8 311.8 426.4 312 427.4 313.1C428.4 314.2 428.8 314.1 428.8 314.1C428.8 314.1 429.8 313.7 430.6 314.3C431.3 314.9 431.6 314.8 433 312.9C434.3 310.9 432.4 311.5 431.8 312.7H431.6ZM435.4 256.9C435.8 253.9 435.5 251 436.7 249.9C438 248.9 439.4 246.6 439.4 251.3C439.2 255.9 439 255.6 438.1 256.7C437.2 257.8 436.3 258.1 437.1 259.8C438.2 261.5 438.3 261.8 438.2 264.4C438.1 267.1 438.1 268.3 439.1 269.6C440.2 271 440.5 271 440.8 272.6C441.088 274.322 441.931 275.902 443.2 277.1C444.4 278.3 445.8 281.3 445.9 283.5C446 285.7 447.9 286.2 449.7 287.8C451.5 289.4 449.3 290.3 448 289.6C446.6 289 447.1 289.6 446.3 290.6C445.5 291.6 445.3 291.7 444.6 290C443.9 288.4 441.6 287.3 440.5 286.9C439.4 286.5 438.5 284.7 437.5 282.9C437.112 282.181 436.553 281.568 435.874 281.115C435.194 280.661 434.413 280.382 433.6 280.3C434 281.433 434.167 282.233 434.1 282.7C433.7 284.2 433.3 285.3 434.8 287.1C436.5 288.8 437.5 291.4 437.8 292.9C437.8 294.4 438.1 294.9 439.8 294.4C440.89 294.077 441.886 293.494 442.7 292.7C443.233 291.967 444.267 292.033 445.8 292.9C447.3 293.7 449.6 294.5 451 293.7C452.3 292.8 453 291.7 454.2 291.7C456.1 290.3 456.8 287.4 457.2 286.7C457.6 285.7 457.3 285.7 456.5 285C455.7 284.2 456.1 282.8 455.9 281.5C455.967 280.167 455.233 278.033 453.7 275.1C452 272.1 451 268.5 450 267.6C449 266.7 448.3 264.3 448.3 263.2C448.1 262.2 446.9 261.2 446.1 260.3C445.3 259.4 444.4 258.3 443.5 253.6C442.7 249.8 442.2 247.133 442 245.6C441 247.2 440.333 247.467 440 246.4C439.5 245.2 439.1 244.6 438.5 245.4C437.9 246.2 437.8 244.6 437.8 243.9C437.8 243.2 437.8 243.2 436.9 243.2C436 243.2 436.9 242.2 436.6 240C436.3 238 435.9 237.8 435.7 240.2C435.5 242.6 434 244.2 434.6 244.6C435 245.2 434.9 246.3 434.3 247.9C433.853 249.058 433.853 250.342 434.3 251.5C434.7 252.5 434.1 254.7 433.9 256.4C433.7 258.1 435 259.9 435.4 257V256.9ZM410.6 232.7C409.6 232.7 408.9 233.7 409.5 236.7C409.9 238.7 408.5 238.3 407.9 237.3C407.4 236.3 406.9 234.3 405.9 232.6C404.8 230.9 405.3 233.7 405.2 235.4C405 237.1 406.1 237.1 407 238.4C407.9 239.7 407.2 240.3 406.2 240.3C405.2 240.3 405.5 242.5 405.8 243.9C406.1 245.4 405.5 245.7 404.8 244.5C403.8 243.2 404.5 241.5 404.6 239.1C404.8 236.8 404.9 237.3 403.4 236.8C401.9 236.2 402.1 235.9 402.8 234.6C403.3 233.2 403.8 232.6 403.1 231.9C402.433 231.233 402.633 230.833 403.7 230.7C404.7 230.5 404.3 229.7 405.3 229.5C406.3 229.2 406.7 229.5 406.8 227.8C406.867 226.2 407.433 225.567 408.5 225.9C409.2 228.2 410 231.7 410.6 232.7ZM424.3 248.7C424.3 251.5 424.3 252.7 425.5 253.7C426.7 254.7 426.5 255.9 427.1 258.4C427.7 261 427.7 266.6 429.3 270.4L431.1 274.4C431.939 273.681 432.62 272.795 433.1 271.8C433.4 271 432.2 269 431.3 267.5C430.3 265.7 431.4 265.2 432.3 263.1C433.3 261.2 432.3 261.1 430.7 260.5C429.3 260 429.3 258.5 428.5 256.4C427.7 254.2 427.8 253.3 428.3 252C428.833 250.733 428.533 249.933 427.4 249.6C426.3 249.3 426.6 248.6 427 247.2C427.4 245.8 427.7 245.6 426 245.9C424.8 246.3 424.5 246.6 424.1 246.9L424.3 248.7Z" fill="#00B800" style="fill:#00B800;fill:color(display-p3 0.0000 0.7216 0.0000);fill-opacity:1;"/>
<path id="Vector_9" d="M439.9 254.3C439.834 255.833 439.634 256.833 439.3 257.3C438.967 257.767 439.067 258.5 439.6 259.5C440.134 260.233 440.234 261.367 439.9 262.9C439.567 264.433 439.9 265.433 440.9 265.9C441.7 266.3 442.1 265.9 441.9 267.9C441.829 268.759 441.944 269.624 442.238 270.435C442.531 271.246 442.996 271.985 443.6 272.6C444.6 273.4 445.3 274.7 445.1 275.6C445.167 276.4 445.734 277.067 446.8 277.6C447.8 278 447.6 278.1 447.6 278.6C447.6 279.1 448 279.2 449 279.5C449.934 279.7 451 280.5 452.2 281.9C453.4 283.5 455.2 284.2 454.9 282.6C454.6 281 454.9 279.8 453.3 279.1C451.7 278.4 450.4 274.4 449.8 271.7C449.062 269.044 447.689 266.607 445.8 264.6C445.5 262.6 445.8 261.7 444.6 260.8C444.085 260.438 443.663 259.959 443.367 259.403C443.072 258.847 442.912 258.229 442.9 257.6C442.9 256.8 442.3 255.6 441.7 255.2C441.167 254.867 440.9 254.267 440.9 253.4C440.9 252.6 440.1 252.7 439.9 254.4V254.3Z" fill="#5D3100" style="fill:#5D3100;fill:color(display-p3 0.3647 0.1922 0.0000);fill-opacity:1;"/>
<path id="Vector_10" d="M432.7 327C436.041 326.491 439.302 325.55 442.4 324.2C444.1 325.3 446.9 326.8 448.1 326.8C445.7 327.267 444.234 327.2 443.7 326.6C444 327.3 444.7 328.5 445.3 328.6C443 328.6 440.5 328 439.7 327.2C437.7 328 434.5 328.2 432.7 327ZM437 330C437.9 330.3 442.2 331 442.8 331C441.4 332.2 442.6 333.4 444.9 333.2C443.9 333.4 442.5 333.8 443.4 334C446.454 333.972 449.475 333.361 452.3 332.2C450.3 334.7 440.9 337 437 330ZM441 336.1C442.757 335.665 444.604 335.769 446.3 336.4C444.9 337 441.8 337 440.9 336.2L441 336.1Z" fill="#00D860" style="fill:#00D860;fill:color(display-p3 0.0000 0.8471 0.3765);fill-opacity:1;"/>
<path id="Vector_11" d="M445.3 336.1C447.3 335.8 453.3 337.1 455.3 335.9C454.6 337.8 451 338.1 449.6 337.6C448.267 337.2 447.134 336.933 446.2 336.8C446.8 336.5 446 336.5 445.2 336.1H445.3Z" fill="black" style="fill:black;fill-opacity:1;"/>
<path id="Vector_12" d="M447.4 339C450.438 339.076 453.47 338.706 456.4 337.9C458.1 338.5 461.8 339.5 462.6 339.4C460.9 340.4 457.6 339.8 456.6 339.4C455.129 340.002 453.544 340.278 451.956 340.209C450.368 340.14 448.813 339.727 447.4 339Z" fill="#00D860" style="fill:#00D860;fill:color(display-p3 0.0000 0.8471 0.3765);fill-opacity:1;"/>
<path id="Vector_13" d="M450 339.9C452.2 340.3 454.367 340.133 456.5 339.4C457.2 339.6 458.8 340 460.4 340C461.4 340.5 462.7 341.3 464.1 341.5C461.579 341.83 459.016 341.591 456.6 340.8C453.856 340.716 451.127 341.228 448.6 342.3C448.649 341.825 448.811 341.368 449.072 340.968C449.332 340.568 449.685 340.236 450.1 340L450 339.9Z" fill="#00D860" style="fill:#00D860;fill:color(display-p3 0.0000 0.8471 0.3765);fill-opacity:1;"/>
<path id="Vector_14" d="M447.4 328.6C449.1 329.1 455.6 328.8 458.7 327.3C460.1 326.6 460.9 327.7 459.4 328.1C454.2 330.1 449.9 330.7 446.9 329.1C445.7 328.5 445.5 327.9 447.4 328.5V328.6Z" fill="black" style="fill:black;fill-opacity:1;"/>
<path id="Vector_15" d="M478.6 319.8C470.7 323.5 465.6 324.6 454.7 321.2C453.7 321 453 321.2 454.1 321.9C456.828 323.08 459.679 323.952 462.6 324.5C464 324.6 463.5 325.2 462.6 325.5C461.8 325.7 461.6 326.3 462.7 325.9C463.8 325.5 470.5 325.2 473.2 326.6C474.267 327.2 474.7 327.2 474.5 326.6C474.5 326.2 474.967 325.933 475.9 325.8C476.7 325.7 477.3 325.4 476.6 325.2C475.933 324.933 475.833 324.7 476.3 324.5C476.9 324.167 476.833 323.933 476.1 323.8C475.4 323.6 474.8 323.4 475.5 323.1C476.327 322.738 477.203 322.502 478.1 322.4C478.3 321.9 478 320.4 478.6 319.8Z" fill="#00D860" style="fill:#00D860;fill:color(display-p3 0.0000 0.8471 0.3765);fill-opacity:1;"/>
<path id="Vector_16" d="M465.6 320.7C471.801 320.791 477.83 318.663 482.6 314.7C484.2 315.7 486.3 316.7 487.5 316.9C488.6 317.1 489.5 318.1 487.8 318.1C486.1 318.1 483.8 317.4 482.6 316.9C477.488 319.994 471.568 321.492 465.6 321.2C464.5 321.2 464.2 320.7 465.6 320.8V320.7Z" fill="black" style="fill:black;fill-opacity:1;"/>
<path id="Vector_17" d="M452.3 296.3C453.9 297.4 456.6 299.2 460.1 298.9C461.791 300.254 463.726 301.272 465.8 301.9C463.4 302.7 460.8 303.6 460.2 304.3C459.2 303.3 457.7 303.5 457.4 302.9C456.4 303.9 456.5 304.2 457.2 304.7C459.469 305.375 461.833 305.679 464.2 305.6C465.4 305.2 465.9 306.3 464.8 306.6C462.1 307.6 456.8 306.6 455 303.7C453 300.8 451.5 299.7 446.5 302.4C446 300.9 446 300.7 445 300.7C444 300.7 442.2 299.4 443.6 299.4C445 299.4 449 298.8 452.3 296.4V296.3Z" fill="#00D860" style="fill:#00D860;fill:color(display-p3 0.0000 0.8471 0.3765);fill-opacity:1;"/>
<path id="Vector_18" d="M453.6 303C452.6 303.1 450.3 304.4 449.5 304.5C448.6 304.7 447.1 305.9 448.6 305.9C450.3 305.9 452.3 304.2 453.4 304.2C454.5 304.2 454.6 302.7 453.6 302.9V303ZM458.6 308C457.9 308.2 455.3 308.8 454.6 308.8C453.9 308.8 453.1 308.8 453.2 309.4C453.3 310 453.5 310.3 452.3 310.1C451.3 309.9 450.4 310.4 450.2 310.7C450 311 449.7 311.3 450.8 311.4C451.8 311.4 452.4 311.7 453.7 311C454.833 310.333 456.033 309.867 457.3 309.6C458.6 309.6 459.9 307.8 458.5 308.1L458.6 308Z" fill="#00D860" style="fill:#00D860;fill:color(display-p3 0.0000 0.8471 0.3765);fill-opacity:1;"/>
<path id="Vector_19" d="M454.9 311.1C456 312 461.5 313.7 463.4 313.7C465.4 313.6 465.1 314.4 463.6 314.7C461.9 314.965 460.162 314.86 458.506 314.394C456.85 313.929 455.313 313.112 454 312C452.8 311 454 310.6 454.8 311.1H454.9Z" fill="black" style="fill:black;fill-opacity:1;"/>
<path id="Vector_20" d="M480.8 314C477.477 314.937 473.973 315.04 470.6 314.3C468.9 313.7 467.3 313.7 468.6 314.9C469.6 316 473.4 316.7 475.6 316.2C468 317.9 466 317.8 464.2 317.5C461.878 317.218 459.535 317.151 457.2 317.3C456.084 317.48 454.941 317.341 453.9 316.9C453.2 316.4 453 315.8 455 316C457 316 457.2 315.833 455.6 315.5C453.8 315.2 451.5 315.9 453.8 317.5C456.2 318.9 461.2 317.3 464.5 318.3C467.387 319.018 470.402 319.048 473.303 318.388C476.203 317.728 478.908 316.396 481.2 314.5C481.5 314.3 482.1 313.5 480.8 313.9V314ZM460.2 307.7C460.4 308.3 460.4 308.767 460.2 309.1C460 309.5 460.1 310 460.7 309.5C461.3 309 461.7 308.3 462.5 308.7C463.2 309 464.8 309 465.5 308.9C466.434 308.9 466.434 308.667 465.5 308.2C464.587 307.795 463.599 307.591 462.6 307.6C461.934 307.667 461.3 307.567 460.7 307.3C459.8 306.9 460.1 307.3 460.2 307.7Z" fill="#00D860" style="fill:#00D860;fill:color(display-p3 0.0000 0.8471 0.3765);fill-opacity:1;"/>
<path id="Vector_21" d="M471 309.7C470.2 309.7 468.6 309.1 467.9 308.7C467.1 308.4 465.9 308.4 466.7 309.7C467.6 310.9 471.3 311.4 472.7 310.9C474 310.3 473.5 309.7 474.7 310.5C476.1 311.367 477.333 311.8 478.4 311.8C480 311.8 479.7 311.8 478.7 311.2C477.7 310.6 477.1 310.5 476.9 310C476.7 309.5 476.7 309.1 477.8 309.5C478.8 309.8 479.8 310.3 480.6 309.9C481.4 309.5 482.8 308.6 484.1 308.6L484.3 307.8C482.5 307.8 481.3 308.3 480.8 308.4C480.333 308.667 479.533 308.733 478.4 308.6C476.7 308.4 476.2 308.3 475.9 308.1C475.5 307.833 475.667 307.633 476.4 307.5C477.2 307.3 477.4 306.8 476.4 306.9C475.4 307.1 472.2 307.1 470.6 306.6C469.267 306.133 468.333 306.033 467.8 306.3C467.1 306.5 467.2 307.3 468.1 307.3C469.1 307.3 471.3 307.6 472.1 308.3C472.767 308.967 472.7 309.1 471.9 308.7C471 308.3 469.4 308.5 471 309.7Z" fill="#00D860" style="fill:#00D860;fill:color(display-p3 0.0000 0.8471 0.3765);fill-opacity:1;"/>
<path id="Vector_22" d="M484.3 307.8L484 308.6C485.9 308.6 490.4 309 492 309.9C493.4 308.8 493.1 308.4 494 308.7C495 309 496.4 309.2 497 309C497.455 308.74 497.993 308.668 498.5 308.8C499.1 308.8 500.5 308.6 501.2 308.2C502 307.7 503.6 307.2 504.5 307.2C505.4 307.2 506.5 306.9 504.8 306.6C503.1 306.3 500.6 306.9 499.8 307.2C498.8 307.5 496.3 307.7 494.8 307.7C493.3 307.7 491.2 308.4 489.5 308C487.7 307.6 485.3 307.8 484.2 307.8H484.3Z" fill="#00D860" style="fill:#00D860;fill:color(display-p3 0.0000 0.8471 0.3765);fill-opacity:1;"/>
<path id="Vector_23" d="M507.9 307C504.9 309.2 501.1 309.7 496.8 310C495.5 310 495.9 310.4 497 310.5C501.6 311 506.8 309.3 508.6 307.5C509.1 306.9 509 306.1 507.9 306.9V307Z" fill="black" style="fill:black;fill-opacity:1;"/>
<path id="Vector_24" d="M487.1 312.2C489.575 312.571 492.016 313.14 494.4 313.9C495.533 313.767 495.967 313.467 495.7 313C495.4 312.6 495.3 312.2 497.4 312.4H504.9C505.7 312.1 507.2 310.9 507.9 310.9C506.1 310.9 498.4 311.3 497.5 311.2C496.633 311.133 495.933 311.267 495.4 311.6C494.8 311.9 494.5 312.1 493.7 311.7C492.7 311.4 491.6 311 490.7 311.6C490.1 312 488.4 311.6 487.1 312.2Z" fill="#00D860" style="fill:#00D860;fill:color(display-p3 0.0000 0.8471 0.3765);fill-opacity:1;"/>
<path id="Vector_25" d="M504.9 312.4C505.6 312.1 507.2 310.9 507.9 310.8C509.3 310.7 510.7 311.2 511.4 311.4C512.1 311.6 512.9 311.4 512.4 310.8C511.9 310.2 512.4 309.2 514.4 309.5C516.6 309.7 517.6 310.1 519.7 309.9C521.8 309.7 522.6 311.2 526.4 309.7C526.2 311.2 526.9 311.3 527.6 311C528.267 310.667 529.167 310.9 530.3 311.7C531.6 312.7 539 312.7 540.7 312.4C542.4 312.1 543.3 313 542 313.4C540.7 313.8 540.4 314.4 540.7 314.9C541 315.4 541.3 315.8 539.7 315.6C538.1 315.4 537.7 315.9 537 316.4C536.3 316.9 536 317.4 533.7 316.9C531.4 316.4 531 316.8 529.8 316.9C528.6 317.1 528.3 317.2 527 316.8C525.231 316.187 523.325 316.083 521.5 316.5C519.9 317.1 518.8 317.5 517.3 317.1C515.8 316.8 515.8 316.9 516.7 316.1C517.5 315.1 517.7 315.1 519.5 315C521.3 314.9 522.5 314.3 521.4 313.6C520.1 312.9 519.8 313 518.1 313.7C516.5 314.5 515.7 315.1 513.8 314.1C511.9 313.1 511.2 313.2 509.8 313.6C508.6 313.9 506.6 313.1 504.9 312.4ZM511 315.4C508.6 315.8 508 314.3 505.6 314.5C504.8 314.7 503.4 315.7 505.3 315.5C507.2 315.3 509.3 316.4 511.1 316.3C512.9 316.2 512.1 315.3 511.1 315.4H511ZM508.4 317.1C509.5 316.7 512 317.6 513.2 317.4C514.4 317.2 515.2 317.8 514 318.3C512.8 318.8 510.3 317.6 509 317.9C507.9 318.3 506.6 317.8 508.3 317.1H508.4ZM484 323.8C485.7 323.8 491.8 323.5 494.2 318.5C494.267 318.033 494.6 318.033 495.2 318.5C495.9 319 498.8 320.6 504 321.1C505.5 321.1 507 321.9 504.1 321.8C501.1 321.6 496.5 320.8 495 319.8C492.3 323.9 487.6 324.4 484 324.3C481.9 324.3 482.4 323.7 484 323.8Z" fill="#00D860" style="fill:#00D860;fill:color(display-p3 0.0000 0.8471 0.3765);fill-opacity:1;"/>
<path id="Vector_26" d="M497.1 316.8C496.3 317.9 493.5 319.8 492.3 320C491 320 487.1 319.8 486.2 319.4C485.2 319.1 484.1 319.1 485.4 320.1C487.236 321.094 489.317 321.545 491.4 321.4C493 321.1 494.5 320.6 495.6 321.4C496.6 322 498.6 323.2 499.8 323C501 322.7 503.3 322.7 504.1 323C504.9 323.4 506.2 324.6 504.2 324C502.2 323.4 500.6 323.8 499.7 323.4C500.7 324.8 503 327.1 504.9 327.1C505.4 327.1 505.8 328 504.9 328.4C505.7 328.8 507.9 329.3 509.2 328.1C508.867 328.567 508.967 328.867 509.5 329C510 329.2 510.6 329.6 509.7 329.8C508.8 330 506.7 330.1 506.1 329.8C508.1 331.1 513.1 333.2 518.4 332.1C519.4 332 520 331.5 518.4 331.6C514.9 331.6 514.7 331.6 514.1 331.3C513.5 330.9 513.7 330.567 514.7 330.3L519 329.6C520 329.6 521.1 329.3 519 329.3C517 329.3 514.4 329.3 513.3 328.9C512.3 328.6 511.6 328 512.7 327.3C513.7 326.6 514.8 326.8 515.3 326.3C512 326.3 507.9 324.3 510.1 322.7C510.633 322.433 510.5 322.267 509.7 322.2C508.154 321.896 506.646 321.426 505.2 320.8C504.2 320.3 504.8 319.7 505.7 319.5C503.7 319.8 499.7 318.8 497.1 316.9V316.8ZM526.9 316.8C525.1 318.1 521.6 318.8 520.1 318.8C518.633 318.933 518.467 319.1 519.6 319.3C520.8 319.4 522.1 319.7 522.6 319.5C523.1 319.3 523.5 319.3 524.2 319.7C525.433 320.112 526.767 320.112 528 319.7C529.5 319.3 531.7 319.1 532.7 319.1C533.7 319.2 534.7 319.2 532.7 318.7C530.9 318.2 527.7 318.5 526.9 318.7C526.1 318.9 524.1 318.7 525.2 318.5C526.333 318.1 527.2 317.633 527.8 317.1L526.9 316.8ZM525.9 320.8C524.118 322.115 522.007 322.911 519.8 323.1C521.8 323.9 523.6 326.1 525 325.9C524.333 326.433 523.567 326.833 522.7 327.1C524.562 327.414 526.474 327.06 528.1 326.1C531.1 326.9 535.1 326.3 536.4 325.1C534.4 325.1 532.1 324.5 531 323.5C532.067 323.433 532.833 323.067 533.3 322.4C531 322.8 527.3 321.7 526 320.6L525.9 320.8Z" fill="#00D860" style="fill:#00D860;fill:color(display-p3 0.0000 0.8471 0.3765);fill-opacity:1;"/>
<path id="Vector_27" d="M522.7 327C523.5 327 524.4 326.4 525 326C521.121 326.29 517.247 325.382 513.9 323.4C511.7 321.5 511.7 323 513.2 324.3C514.465 325.492 515.995 326.367 517.663 326.854C519.332 327.341 521.092 327.425 522.8 327.1L522.7 327ZM528.1 331.7C527.2 332.2 522.8 332.6 521.4 332.2C519.933 331.867 519.333 332.033 519.6 332.7C519.9 333.3 520.2 333.7 519 333.5C517.648 333.44 516.296 333.609 515 334C514 334.2 513 335 514.8 334.7C516.7 334.5 518.3 334.1 519.8 334.4C521.1 334.7 525.9 334.8 526.8 334.4C527.7 334 527.2 334.1 526.8 334.1C526.2 334.1 526.2 333.867 526.8 333.4C527.467 333.067 527.9 332.5 528.1 331.7ZM485.8 325.9C482.672 326.988 479.462 327.824 476.2 328.4C474.2 329.333 472.667 329.8 471.6 329.8C472.3 330.4 475.1 331 476.1 330.7C475.5 331.4 474.1 332 473.6 332.4C475.3 332.1 477.1 332.6 478 332.7C475.95 333.807 473.622 334.294 471.3 334.1C471.9 334.7 472.6 335.4 473.5 335.4C471.713 335.932 469.821 336 468 335.6C468.533 336.6 469.133 337.2 469.8 337.4C468.1 337.5 466.1 337.8 464.4 336.8C465.733 338.533 468.6 339.133 473 338.6C477.4 338.1 481 336.2 482 335.4C480.2 335.6 477.7 335.7 476.6 335.4C479.632 334.595 482.53 333.348 485.2 331.7C484.197 331.687 483.222 331.374 482.4 330.8C485.092 330.934 487.788 330.664 490.4 330C488.995 329.679 487.752 328.862 486.9 327.7C492.433 329.304 498.282 329.476 503.9 328.2C504.7 328 504.7 326.9 503.2 327.1C500.4 327.3 494.9 326.5 493.4 325.8C494.592 326.653 495.958 327.233 497.4 327.5C494.9 328.3 491.2 328.8 485.8 325.8V325.9Z" fill="#00D860" style="fill:#00D860;fill:color(display-p3 0.0000 0.8471 0.3765);fill-opacity:1;"/>
<path id="Vector_28" d="M473.6 332.4C474.1 332 475.6 331.4 476.1 330.7C475 331 472.3 330.4 471.6 329.7C472.667 329.7 474.2 329.267 476.2 328.4C472.6 328.3 470.2 328.3 468.7 327.5C467.3 326.7 465 327.1 464 327.3C463 327.4 463.4 329 467.3 328.6C464.925 329.69 462.276 330.038 459.7 329.6C460.234 331.067 460.334 332.233 460 333.1C462.1 334.3 467.7 335.8 470.5 335.6C468 334.7 466.7 333.7 468.7 333.4C470.7 333.2 471.9 332.8 473.7 332.4H473.6Z" fill="#00D860" style="fill:#00D860;fill:color(display-p3 0.0000 0.8471 0.3765);fill-opacity:1;"/>
<path id="Vector_29" d="M467.3 339C472.1 338.6 478.7 338.5 483.9 334C485.2 333 486.1 333.4 484.8 334.5C480.19 338.062 474.615 340.152 468.8 340.5C466.1 340.5 464.9 339.2 467.3 338.9V339Z" fill="black" style="fill:black;fill-opacity:1;"/>
<path id="Vector_30" d="M503.7 331C501.884 331.545 499.996 331.814 498.1 331.8C497.003 331.556 495.859 331.626 494.8 332C493.933 332.6 494 332.933 495 333L498.3 333.2C497.59 333.55 496.973 334.064 496.5 334.7C498.3 334.3 501.2 335 502.1 335.5C501.407 335.604 500.699 335.463 500.1 335.1C502.8 338.1 511 338.1 512.3 337.5C511.633 338.1 511.067 338.433 510.6 338.5C512.867 339.167 515.367 338.833 518.1 337.5L513.9 337.3C514.463 336.748 515.148 336.337 515.9 336.1C514.9 335.9 511.7 336 510.9 336.4C511.225 335.7 511.746 335.11 512.4 334.7C508.4 334.7 503.5 334.7 501.8 333.7C504.5 334.1 507.7 332.4 509 332.4C506.8 332.4 504.4 331.9 503.8 330.9L503.7 331ZM493.6 333C491.6 333.5 488.6 334.4 487.7 334.8C486.9 335.3 486.1 335.5 487.8 335.5L488.4 335.4C487.7 335.4 486.9 335.4 488.3 334.9C489.7 334.4 491.3 333.6 493.5 333.2L493.6 333ZM489.6 337.9C490.3 337.9 493.3 337.9 494.6 336.9C495.8 337.7 498.3 339.1 499.8 339.1C501.333 339.167 501.333 339.367 499.8 339.7C497.882 339.614 496.021 339.028 494.4 338C492.6 338.7 491.1 338.1 489.4 337.9H489.6ZM466 351.6C469.235 353.029 472.836 353.414 476.3 352.7C478.1 354.2 481.6 354.3 483.5 353.9C485.4 353.5 487.2 353.3 489.4 353.9C491.4 354.7 495.8 354.8 497.1 355.8L493 355.9C492.4 356.1 492.667 356.433 493.8 356.9C489.832 356.862 485.927 357.899 482.5 359.9C482.965 358.71 483.798 357.7 484.877 357.017C485.956 356.333 487.226 356.012 488.5 356.1C486.7 355.5 480.8 355.4 478.8 356.6C478.273 356.018 477.865 355.339 477.6 354.6C474.5 356.3 468.4 353.7 465.9 351.6H466ZM458 345.8C460.65 345.579 463.182 344.608 465.3 343C466 343.6 468.8 344.2 471.8 343.3C471.2 343.7 471.1 344.6 471.3 345C468.886 345.227 466.524 345.835 464.3 346.8C463.1 347.4 459.3 347.9 458.1 347.2C456.967 346.533 456.9 346.067 457.9 345.8H458Z" fill="#00D860" style="fill:#00D860;fill:color(display-p3 0.0000 0.8471 0.3765);fill-opacity:1;"/>
<path id="Vector_31" d="M471.3 345.1C468.886 345.327 466.524 345.935 464.3 346.9L464.8 348.6C469.766 347.172 474.945 346.631 480.1 347C478.5 347.1 475.6 348.8 474 348.9C478 348.6 481.8 349.4 482.8 349.7C483.866 349.967 484.033 350.567 483.3 351.5C482.5 352.4 482.2 352.2 483.8 352.4C485.4 352.4 488.8 352.1 490.3 350.6C489.6 350 488.1 350.3 487.6 349.7C488.609 349.378 489.533 348.831 490.3 348.1C488.761 348.142 487.221 348.042 485.7 347.8C484.9 347.6 484.2 347.3 485.3 346.7C486.051 346.324 486.729 345.816 487.3 345.2C485.3 345.7 482.2 346.2 479.5 344.2C480.5 344.4 482.8 344.2 483.6 343.9C482.94 343.463 482.186 343.189 481.4 343.1C483.4 342.1 487.4 341.2 492.7 343.2C495.074 343.02 497.461 343.154 499.8 343.6C500.8 342.8 502.4 340.8 503.3 340.4C497.3 340.8 486.5 339.8 486.8 336.6C484.8 339.2 480.3 340.6 478.4 340.2C478.2 341 479 342.2 479.7 342.8C477.7 343.2 474.2 343.6 472.6 343.2C473.6 344.1 475.2 344.9 476.2 344.9C474.2 344.9 473 345.3 471.3 345.1Z" fill="#00D860" style="fill:#00D860;fill:color(display-p3 0.0000 0.8471 0.3765);fill-opacity:1;"/>
<path id="Vector_32" d="M483.7 352.3C485.5 352.3 488.7 352.1 490.3 350.6C489.6 350 488.1 350.3 487.6 349.7C488.61 349.378 489.533 348.831 490.3 348.1C494.7 347.7 498.4 347.9 500.3 347.4C502.1 346.9 506.8 347.1 507.7 346.9C503.6 347.6 502.8 347.9 502.7 348.6C502.5 349.3 503.9 349.7 504.9 349.7C503.2 349.7 500.8 351.6 500.5 352.4C498.1 351 497.1 352.6 496.7 353.2C495.7 352.8 492.3 352.9 490.6 354.4C488.4 353.7 486.9 353.4 484.6 353.7C486.1 353.4 485.8 352.4 483.8 352.3H483.7ZM503.2 340.3C504.6 340.3 507.6 340.5 508.7 340.3L506.9 341.6C510.4 341.2 515.1 340.9 516.5 341.2C514.7 340.9 513 342.1 512.1 342.6C511.433 343.133 511.734 343.467 513 343.6C514.2 343.8 515.7 344.6 513.6 344.4C511.6 344.2 507.2 344.1 506.2 344.2C505.2 344.4 504.6 343.9 506.2 343.6C507.281 343.438 508.328 343.101 509.3 342.6C508.1 342.9 505.8 342.9 505 342.6C504.067 342.333 503.967 342.067 504.7 341.8C505.6 341.5 505 341.4 504.1 341.5C503.2 341.5 501.1 342.5 499.8 343.6C501.134 342.133 502.267 341.067 503.2 340.4V340.3Z" fill="#00D860" style="fill:#00D860;fill:color(display-p3 0.0000 0.8471 0.3765);fill-opacity:1;"/>
<path id="Vector_33" d="M487.8 342.7C488.655 343.655 489.703 344.417 490.876 344.935C492.049 345.452 493.318 345.713 494.6 345.7C495.2 345.7 496.6 346.6 494.9 346.7C490.6 346.9 488.5 345.8 486.6 343.1C486.2 342.5 486.9 341.7 487.8 342.7ZM513.3 307.1C515.5 308.1 520 309.1 523.5 309C524.2 309 525.3 309.6 523.8 309.7C520.08 310.175 516.304 309.476 513 307.7C512.1 307.2 512.4 306.7 513.3 307.1Z" fill="black" style="fill:black;fill-opacity:1;"/>
<path id="Vector_34" d="M515.5 307.1C519 307.1 521.6 307.1 522.5 308C524.5 307.5 528.2 307.1 528.9 307.3C529.6 307.5 530.7 307 528.8 306.6C526.9 306.2 522.6 306 521.2 306.3C519.8 306.6 515.5 306.7 514.2 306.5C514.667 306.5 515.1 306.7 515.5 307.1ZM528.9 308.4C530.5 307.6 535.2 308.4 536.6 307.8C535.6 309 539.9 309.1 543.6 308.2C542.2 309 539.1 309.2 537.8 309.8C536.5 310.4 535.8 309.9 534.8 309.5C532.964 308.628 530.921 308.282 528.9 308.5V308.4Z" fill="#00D860" style="fill:#00D860;fill:color(display-p3 0.0000 0.8471 0.3765);fill-opacity:1;"/>
<path id="Vector_35" d="M543.6 308.2C539.9 309 535.6 309 536.6 307.8C535.2 308.4 530.6 307.6 528.9 308.4C530.7 307.4 531.9 308.3 533.1 306.2C533.9 306.3 535.7 306.4 536.3 305.6C537.3 305.9 539.3 306.3 539.8 306.9C540.3 307.5 541.1 306.7 540.5 305.9C542.2 305.3 541.1 306.6 545 305.6C545.9 305.4 547.8 305 548.5 305C546.972 306.269 545.293 307.344 543.5 308.2H543.6Z" fill="#00D860" style="fill:#00D860;fill:color(display-p3 0.0000 0.8471 0.3765);fill-opacity:1;"/>
<path id="Vector_36" d="M471.6 291.1L470.9 204.3C470.9 200.4 468.9 201.3 468.9 204.3V290.3L471.6 291.1ZM499.8 199.7L502.9 291.1L502.5 291.9H500.5L498.6 199.7H499.8ZM526.4 277.1L524.8 202.8C524.8 200.4 522.8 200.8 522.8 203.2L524.4 277.1H526.4Z" fill="#FFFF00" stroke="black" style="fill:#FFFF00;fill:color(display-p3 1.0000 1.0000 0.0000);fill-opacity:1;stroke:black;stroke-opacity:1;" stroke-width="0.4"/>
<path id="Vector_37" d="M484.2 214.9L456.8 214.5C455.6 220 462.3 219.5 464.6 218.5C467.733 220.433 470.066 220.433 471.6 218.5C474 220.4 477.1 220 478.3 218.5C481.4 221.2 484.9 218.5 484.2 214.5V214.9ZM486.2 228.2H458.7C453.7 232.9 459.9 235.2 465.4 232.1C466.2 233.7 469.3 234.4 471.6 233.3C474 234.8 477.1 233.7 478.6 232.1C481.4 233.3 484.9 233.7 486.5 228.1L486.2 228.2ZM485.3 245.8H458.7C458.4 250.1 463.8 249.7 465.7 248.5C467.7 251.7 472.4 250.9 474 248.9C476.7 250.9 479 250.5 480.2 248.9C483 251.3 485.7 248.1 485.3 245.8ZM487 263L456.9 262.6C455.3 267.6 460 268.5 461.9 267.3C462.8 270 466.7 269.3 467.9 267.3C469.4 268.5 471.4 267.7 472.1 266.5C472.5 269.2 476.1 269.6 478.8 267.3C484.3 271.2 489.3 266.5 486.6 263H487ZM513.2 256H488.6C489.666 260.667 492.133 261.667 496 259C499.1 262.2 503.8 261 505 259.5C510.5 263.8 513.2 258.7 513.2 255.5V256ZM510.8 238.8L486.6 238C487 244.2 492.9 243.8 496 241.5C498 244.2 501.9 243.5 503.8 241.5C506.5 244.6 511.6 242.7 510.8 238.8ZM514 219.6H488C488 223.9 493.8 226.2 498.1 222.3C499.3 227.4 504 225.8 506 223.9C509 227.8 515.7 223.1 513.8 219.9L514 219.6ZM512.4 206.6L488.9 207.1C488.9 211 494.4 212.6 496.4 209.4C497.6 211.4 501.4 211 502.6 209.4C504.2 212.2 506.6 210.2 507.3 209.4C510.1 211.4 512.8 210.2 512.4 206.7V206.6ZM539.4 215.3L511.2 214.9C511.2 217.6 514 218.9 515.9 217.6C515.9 220.8 519.9 221.6 522.6 219.2C524.1 221.9 529.2 222.3 531.2 219.2C535.1 222.7 539.8 220 539 215.2L539.4 215.3ZM539 238.3H511.6C511.6 242.3 515.9 243.4 518.6 241.5C519.1 244.6 522.6 245 524.6 243.1C527.3 245.8 531.2 246.1 533.6 243.1C536.6 244.2 539.4 241.5 539 238.4V238.3ZM537.4 259.1H515.5C515.5 263 520.2 263 522.2 261.1C524.5 263.8 527.7 263.8 529.6 261.8C532.3 264.2 537 263.4 537.4 259.1Z" fill="white" stroke="black" style="fill:white;fill-opacity:1;stroke:black;stroke-opacity:1;" stroke-width="0.4"/>
<path id="Vector_38" d="M502.5 292C490.8 292 478.7 292 470.5 291.1C462.3 290.4 459.9 288.8 454.1 285.3L432 272C430.1 271.2 428.2 272.4 430.9 274L452.8 288.4C457.788 291.62 462.27 295.563 466.1 300.1C470.8 305.2 473.9 305.2 476.2 304.4C478.6 303.7 481.7 302.4 485.2 303.3C488.4 304 493 304.4 495.4 304C497.4 306 502.4 305.6 505.2 304.8C507.8 304.067 510 303.933 511.8 304.4H518.5C520.5 304.4 525.5 303.3 529 303.7C533 304.4 536.4 303.7 538.8 303.7C541.346 303.039 544 302.903 546.6 303.3C549 301.7 549.7 299.7 550.6 297.8C552.9 297.4 553.6 297 554 295.8L556.4 289.6H557.2V287.2L555.6 284.9L556.4 280.9L558.4 280.2L557.6 276.2L523.2 277.1C521.968 278.245 521.128 279.75 520.8 281.4L510.6 282.9C509.5 283.3 508.3 283.3 507.1 284.9L502.5 292Z" fill="black" stroke="black" style="fill:black;fill-opacity:1;stroke:black;stroke-opacity:1;" stroke-width="0.4"/>
<path id="Vector_39" d="M543.6 276.7L548.6 257.5C549.4 255.5 547.5 255.2 546.7 257.5L541.7 276.7H543.6Z" fill="black" stroke="black" style="fill:black;fill-opacity:1;stroke:black;stroke-opacity:1;" stroke-width="0.4"/>
<path id="Vector_40" d="M563.5 255.2C559.2 257.2 556.9 258.3 554.9 257.5C552.9 256.7 550.6 256.3 549.1 257.1V257.5C547.686 262.472 546.253 267.439 544.8 272.4C547.8 273.6 553.4 273.6 554.5 272.4C556.1 270.8 559.6 271.2 561.5 271.2C562.7 269.6 563.1 267.7 562.7 266.9C562.3 266.1 562.7 264.2 562.7 262.9C562.7 261.9 564.3 257.5 563.5 255.2Z" fill="white" stroke="black" style="fill:white;fill-opacity:1;stroke:black;stroke-opacity:1;" stroke-width="0.4"/>
<path id="Vector_41" d="M465 218.4C457.415 238.152 446.86 256.632 433.7 273.2M441.5 277.9C458.856 263.902 473.906 247.266 486.1 228.6M458.7 245.4C457.6 256 454.4 274.7 452.9 284.5M463 268.9C459.1 272.8 454 279 449.8 282.5M499.4 247.7C496.3 250.9 492.8 254.7 489.2 255.6M501.4 248.6C504.254 251.875 507.856 254.414 511.9 256M499.4 231.7C496.003 234.715 492.02 236.996 487.7 238.4M501 232C503.3 234.3 506 237 509.6 238.7M488.5 219.5C492.4 218.349 495.989 216.332 499 213.6M500.2 213.6C503.23 216.4 506.804 218.544 510.7 219.9M489.2 206.9C492.866 206.249 496.191 204.339 498.6 201.5M499.8 200.7C502.5 203.1 507.6 206.2 510.4 206.6M522.9 209.7C521.3 211.7 517 214.8 514.3 214.8M524.8 209.8C526 211.7 529.1 214.8 531.1 214.8M512.3 238.3C516.517 236.721 520.29 234.148 523.3 230.8M525.3 231.2C527.157 234.069 529.656 236.465 532.6 238.2M516.6 258.6C518.2 258.6 522.5 256.2 523.6 253.6M526 252.3C528.147 255.012 530.795 257.287 533.8 259M460.7 262.5C465.7 260.9 475.6 254.7 480.7 248.8M471.3 256.2C475.2 259 480.3 262.2 483.8 262.9M459.5 245.3C462.963 243.915 466.147 241.916 468.9 239.4M470.9 239C472 240.6 480.2 245.7 483.8 245.7M468.9 222.7C465.918 224.974 462.615 226.793 459.1 228.1M470.9 222.6C473.6 224.6 479.5 228.1 482.9 228.1M469 207C466.7 209.3 462.8 213.2 459.6 214.4M471 207.4C472.5 210.1 477.2 214 480.3 214.4M511.6 224.6C519.1 237.5 532.3 253.6 545.6 262.1M490.6 210.1C501.5 225.7 522.6 259.8 542.9 272.3M546.9 259C541.66 266.129 535.152 272.231 527.7 277M545.2 263.3C538.6 252.3 535.1 238.7 529.6 220.3M474.9 268.8L482.7 292.2M473.3 268.4L480.7 291.8M471.4 267.2L478.4 291.4M470.6 267.6L476 291.4M476 290.7H482.7M481.9 288.3H475.7M481.1 286.3H474.9M480.3 284.4H474M479 282.1H474M473.6 280.1H478.6M473.2 278.5H478.2M472.8 276.5H477.5M472.5 275H476.7M472 273H476M471.6 271.5H475.6M471.3 270.3H475.2M471.2 268.8H474.8M464.6 268.8L459.9 288.3M465.8 268.8L461.8 289.1M467 268L463.8 289.5M468.5 267.5L466.2 290.3M468.9 288.7H461.1M468.9 286.7H459.9M468.9 284.4H460.7M468.5 282.4H461.1M468.9 280.4H461.5M468.9 278.1H462.3M468.9 276.1H462.3M468.5 274.2H462.7M468.5 272.2H463.5M468.5 270.3H463.8M468.5 269.1H464.2M468.2 290.7V267.6M493.5 259.8L478 291.5M494.8 259.5L481.5 291.9M495.6 259.1L485 291.9M496.8 259.9L488.2 291.9M488.6 290.8H478.8M489.3 287.6H480M489.7 285.3H481.9M491.3 282.9H483.5M491.7 280.6H484.3M492.5 278.2H485.5M493.2 275.5H487M493.6 273.5H487.8M494.4 271.2H488.9M494.9 269.6H489.7M495.2 268.1H489.7M494.8 266.5H490.9M494.9 265.3H491.3M495.2 263.8H492M495.9 262.2H492.8M495.8 261H493.1M506.4 260.6L513.1 282.6M507.6 261L515.8 282.2L522.1 261.5M508.8 261L518.6 281.8L523.3 262.2M520.9 279.8L509.9 260.6M520.9 280.2H513.1M520.1 277.1H512.3M519 274.7H511.5M517.4 272H510.7M515.8 269.6H510M514.3 266.9H509.2M513.1 264.2H508.4M511.5 261.8H507.6M520.1 262.2L513.1 282.5M524.4 263L520.5 281.4M513.9 280.2H520.5M514.7 277.9H521.3M515.4 275.1H521.7M516.7 272.8H522.5M517.4 270H522.9M518.2 267.7H523.2M519.3 264.9H524M520.1 262.6H524.1M527.6 263L530.6 277M528.7 262.2L533 276.7M530.3 262.2L535 276.7M532.2 263L537.3 276.7M536.9 275.5H530.3M536.2 273.5H529.9M535.4 271.6H529.5M534.5 269.2H528.7M533.4 267.2H528M532.7 265.3H527.7M532 263.3H527.3" stroke="black" style="stroke:black;stroke-opacity:1;" stroke-width="0.4"/>
<path id="Vector_42" d="M467.6 299.2C470.7 297.2 476.1 297.5 478.9 299.6C482.2 297.8 488.1 298.3 490.8 300.8C495 297.8 498.5 297.4 502.5 300.2C504.271 299.025 506.356 298.415 508.481 298.451C510.606 298.487 512.67 299.166 514.4 300.4C518.1 298.7 522.1 297.3 525.6 301C523.921 299.805 521.883 299.223 519.826 299.351C517.77 299.478 515.819 300.307 514.3 301.7C510.8 298.2 504.6 299.5 502.5 302C501.764 301.201 500.867 300.568 499.868 300.14C498.869 299.713 497.791 299.502 496.705 299.521C495.619 299.54 494.549 299.788 493.566 300.25C492.583 300.712 491.708 301.376 491 302.2C487.3 299.2 481.9 299 479 301.2C477.383 300.009 475.513 299.208 473.535 298.861C471.557 298.514 469.526 298.63 467.6 299.2Z" fill="#00B800" style="fill:#00B800;fill:color(display-p3 0.0000 0.7216 0.0000);fill-opacity:1;"/>
<path id="Vector_43" d="M523.1 294.8C507 297.6 471.7 295.8 464.1 293.7C461.4 293.1 462.1 292.1 464.4 292.7C473.3 294.7 492.3 294.7 502.7 294.1L508.9 285.6C509.9 284.3 510.3 284.2 512.4 283.9L521.1 282.4V283.6C520.9 283.933 520.667 284.167 520.4 284.3C520.4 286.3 520.8 291.4 521.3 293.3L522.4 293C523.1 292.8 523.8 294.7 523.1 294.8Z" fill="#CF6200" style="fill:#CF6200;fill:color(display-p3 0.8118 0.3843 0.0000);fill-opacity:1;"/>
<path id="Vector_44" d="M549.6 295.6H551.8C552.4 295.6 553.4 295.1 553.7 294.1L555.9 287.8L554.2 285.3L555.1 280L557.1 279.1C557.3 278.8 557.1 277.5 556.7 277.1L525.1 278.1C524.1 278.1 523.7 278.1 523.4 279.4C522.522 283.629 522.802 288.017 524.21 292.1C525.618 296.183 528.102 299.811 531.4 302.6C531.9 303 532.6 302.6 531.7 301.9C530.011 300.207 528.564 298.289 527.4 296.2H532.6C533 297.9 534.3 301.4 534.6 302.1C534.8 302.8 535.4 302.8 535 301.8C534.4 299.8 534 297.3 533.7 296.1H539L539.4 301.3C539.4 302 540 302 540 301.2V296L544.8 295.8L544.4 301C544.3 301.9 544.7 302.2 544.9 301L545.6 295.8L548.9 295.6C548.9 296.8 547.8 300 547.5 300.8C547.2 301.8 547.7 301.8 548 300.9C548.685 299.217 549.22 297.477 549.6 295.7V295.6Z" fill="#CF6200" style="fill:#CF6200;fill:color(display-p3 0.8118 0.3843 0.0000);fill-opacity:1;"/>
<path id="Vector_45" d="M526.5 294.8C526 293.7 524.2 289.7 524.1 286.8H531.1C531.3 288.9 531.9 293.6 532.3 294.7L526.5 294.8ZM532.3 286.6C532.4 288.4 533.3 294.1 533.5 294.6H539.1L538.7 286.5L532.3 286.6ZM524.4 279.6C524.151 281.59 524.084 283.598 524.2 285.6L530.9 285.3L530.3 279.4L524.4 279.6ZM531.7 279.4L532.1 285.4L538.7 285.2L538.4 279.2L531.7 279.4ZM539.7 279.1L539.9 285.1L545.6 285C545.6 283.7 545.9 279.8 545.8 278.9L539.7 279.1ZM546.9 278.9L546.7 284.9L552.9 284.7C553.2 283.4 553.8 280 553.8 278.7L546.9 278.9ZM553.2 286.1L546.6 286.3L546 294.3L552.3 294.1L554.6 288.1C554.1 287.1 553.7 286.8 553.2 286.1ZM539.9 286.5L540.1 294.5L544.9 294.3L545.5 286.3L539.9 286.5ZM512.9 284.9L510.3 285.3L504 294.1L513.3 293.9L512.9 284.9ZM514.1 284.6L514.5 293.8L520.1 293.4L519.1 283.8L514.1 284.6Z" fill="black" style="fill:black;fill-opacity:1;"/>
<g id="Vector_46">
<path d="M486.9 263H456.8V262.2L486.8 262.6L486.9 263ZM510.4 238.8C510.666 238.8 510.666 238.8 510.4 238.8L486.9 238.4C486.5 238.4 486.5 238.4 486.9 238.4H510.4V238.8ZM485.4 245.4C485.7 245.4 485.7 245.8 485.4 245.8H458.7C458.4 245.8 458.7 245.4 458.7 245.4H485.4ZM486.1 228.2C486.5 228.2 486.5 228.6 486.1 228.6H458.4C458 228.6 458 228.2 458.4 228.2H486.1ZM484.1 214.5C484.5 214.633 484.5 214.767 484.1 214.9H457.1C456.8 214.9 457.1 214.1 457.1 214.1L484.5 214.5H484.1Z" fill="black" style="fill:black;fill-opacity:1;"/>
<path d="M510.4 238.8C510.666 238.8 510.666 238.8 510.4 238.8ZM510.4 238.8L486.9 238.4M510.4 238.8V238.4H486.9M486.9 238.4C486.5 238.4 486.5 238.4 486.9 238.4ZM486.9 263H456.8V262.2L486.8 262.6L486.9 263ZM485.4 245.4C485.7 245.4 485.7 245.8 485.4 245.8H458.7C458.4 245.8 458.7 245.4 458.7 245.4H485.4ZM486.1 228.2C486.5 228.2 486.5 228.6 486.1 228.6H458.4C458 228.6 458 228.2 458.4 228.2H486.1ZM484.1 214.5C484.5 214.633 484.5 214.767 484.1 214.9H457.1C456.8 214.9 457.1 214.1 457.1 214.1L484.5 214.5H484.1Z" stroke="black" style="stroke:black;stroke-opacity:1;" stroke-width="0.4"/>
</g>
<path id="Vector_47" d="M512.3 206.7L488.8 207.1" stroke="black" style="stroke:black;stroke-opacity:1;" stroke-width="0.4"/>
<g id="Vector_48">
<path d="M513.5 220C513.9 220 513.9 220 513.5 220H488C487.6 220 487.6 220 488 220H513.5ZM538.9 238V238.4H511.5C510.7 238.4 510.7 238.4 511.5 238.4H539L538.9 238ZM538.9 214.9C539.7 214.9 539.7 215.3 538.9 215.3H511C510.6 215.3 510.6 214.9 511 214.9H539.2H538.9ZM513 255.6C513.4 255.6 513.4 256 513 256H488V255.6H513ZM537.2 259.1C537.6 259.1 537.6 259.1 537.2 259.1Z" fill="black" style="fill:black;fill-opacity:1;"/>
<path d="M513.5 220C513.9 220 513.9 220 513.5 220ZM513.5 220H488M488 220C487.6 220 487.6 220 488 220ZM511.5 238.4H538.9V238L539 238.4H511.5ZM511.5 238.4C510.7 238.4 510.7 238.4 511.5 238.4ZM537.2 259.1C537.6 259.1 537.6 259.1 537.2 259.1ZM537.2 259.1H515.3M538.9 214.9C539.7 214.9 539.7 215.3 538.9 215.3H511C510.6 215.3 510.6 214.9 511 214.9H539.2H538.9ZM513 255.6C513.4 255.6 513.4 256 513 256H488V255.6H513Z" stroke="black" style="stroke:black;stroke-opacity:1;" stroke-width="0.4"/>
</g>
<path id="Vector_49" d="M557.3 263C557.726 261.191 557.726 259.309 557.3 257.5C556.519 257.746 555.681 257.746 554.9 257.5L553.7 256.7C553.588 259.262 553.082 261.792 552.2 264.2C551 264.2 548.2 264.2 547.1 263.4L545.9 267.3C547.844 267.719 549.856 267.719 551.8 267.3C551.867 269.633 551.333 271.6 550.2 273.2C552.2 273.2 554.2 273.2 554.5 272C555.7 270.4 555.7 268 556.1 266.9L558.1 266.5L560 265.7L562.7 265.3V263L563.5 261.4L557.3 263.4V263Z" fill="#EF072D" stroke="black" style="fill:#EF072D;fill:color(display-p3 0.9373 0.0275 0.1765);fill-opacity:1;stroke:black;stroke-opacity:1;" stroke-width="0.4"/>
<path id="Vector_50" d="M460.3 130.8C457.2 130.8 450.1 130.8 448.6 131.6C447.4 132.4 447 132.8 449.4 133.2C451.7 133.6 456 135.2 458.4 136.3C460.7 137.9 462.3 140.3 462.3 144.1C461.431 148.923 462.092 153.897 464.19 158.326C466.288 162.755 469.718 166.417 474 168.8C474.4 169.2 474.8 169.5 474.4 171.1L473.2 175.4C473.2 176.2 472.8 177 474 176.6L470 182.8C463.8 182.1 458.4 182.8 458.4 189.8C458.4 190.7 458.4 191.4 459.1 189.8C460.3 188.3 461.5 186.8 464.2 186C462.6 188.733 461.934 190.933 462.2 192.6C462.2 193.8 463 194.6 463.8 192.6C464.2 191 465.8 189.5 467 188.3C467.7 187.9 467.7 187.9 467.3 189.1C467.132 190.634 467.562 192.174 468.5 193.4C469.367 194.133 469.634 193.867 469.3 192.6C469.3 191 469.3 188.3 471.3 187.6C473.6 186 475.9 186.7 476.7 188.3C477.9 190.3 478.7 188.3 477.5 186.7C476.3 185.2 475.2 183.2 473.6 183.2L477.6 176.6C477.734 175.733 478.234 175.467 479.1 175.8C479.1 176.2 479.9 176.2 480.2 175L483 169.5L485.3 168.8L489.3 174.6V177C489.3 178.5 487.7 182 487.3 183.2C482.6 183.2 480.3 183.2 478.7 186C477.9 187.1 479.1 187.5 480.2 187.1C481.414 186.388 482.793 186.009 484.2 186C484.9 186 485.3 186.7 484.2 187.1C481.4 188.3 479.5 190.3 479.5 193C479.5 193.8 480.2 194.2 480.6 193C481.744 191.08 483.562 189.654 485.7 189C485.7 191 486.1 194.2 487.7 195C488.8 195.7 488.8 195 488.5 193.8C487.7 191.8 488.5 189.8 489.6 188.7C491.6 186.4 496.3 189.5 497.5 190.3C498.2 191 499 191.4 498.2 189.1C497.8 186.4 493.9 185.1 490.4 184.4L495.1 168C497.1 169.2 499.1 166 502.1 167.2C507.351 169.543 512.345 172.425 517 175.8C518.6 177 519 176.6 519.7 175.8C520.5 175.4 521.7 175.8 522.9 175.8C523.6 176.2 524.4 176.6 523.3 174.2C521.058 170.102 517.827 166.63 513.9 164.1C517 164.1 520.9 164.1 520.9 163.3C520.9 162.5 516.2 160.9 514.3 160.9C516.599 160.476 518.741 159.439 520.5 157.9C521.434 157.033 520.4 156.6 517.4 156.6C509.2 156.6 504.9 156.6 500.6 154.3C493.6 150.3 489.2 145.7 485.7 144.1C484.2 143 483 140.6 481.8 138.7C479.8 132.7 479.8 129.7 474.8 127.7C469.8 125.7 463 128.1 460.3 130.8Z" fill="black" stroke="black" style="fill:black;fill-opacity:1;stroke:black;stroke-opacity:1;" stroke-width="0.4"/>
<path id="Vector_51" d="M460.7 132.4H454.1L459.9 134C461.1 134 460.7 135.1 459.9 134.7C459.1 134.4 458.4 134.7 459.1 135.5C463.1 138.3 463.8 139.5 463.1 150L465 151.6C465.8 151.6 465.4 152.3 465 151.9C464.6 151.5 463 151.9 464.2 152.7C465.4 153.5 466.2 153.5 465 153.5C463.8 153.5 462.7 154.3 465 153.9C467 153.9 468.1 154.7 465 155.1C462.7 155.1 463.4 155.9 465 155.9C467.7 155.9 467 156.6 466.2 156.6C465.4 156.6 465 157.4 467 157.4H469.7C470.1 157.4 470.5 157.4 469.7 157.8C468.9 157.8 468.9 158.6 470.1 158.6C471.3 158.6 472.1 158.6 470.9 159C470.5 159 469.7 159.4 470.9 159.8C473.6 159.8 473.9 160.5 473.2 160.9C472.5 161.3 472 161.3 473.2 161.3C474.4 161.3 475.6 161.7 474.4 162.1C473.6 162.1 473.2 162.9 474.4 162.9C475.6 162.9 476.4 163.7 475.6 164.1C474.8 164.5 474.4 164.9 475.6 164.9C476.8 164.9 477.034 165.133 476.3 165.6C475.7 166.4 475.034 166.4 474.3 165.6C474.3 164.9 473.6 164.9 473.6 165.6L472.8 164.5C472.4 163.3 471.6 163.3 471.6 164.5C471.6 165.7 470.9 164.9 470.1 164.5C472.003 166.654 474.566 168.117 477.389 168.66C480.211 169.203 483.134 168.795 485.7 167.5C486.1 167.5 486.5 167.5 486.9 168.8L489.2 173.1C489.6 173.8 490.4 173.1 490.4 172.3L492.8 165.6C492.8 164.5 494.3 163.6 493.9 166.8C495.1 166 499.8 165.6 503.7 166.8C507.469 168.31 511.031 170.293 514.3 172.7C514.567 172.94 514.893 173.104 515.245 173.174C515.597 173.244 515.962 173.219 516.3 173.1C517.3 173.1 517.8 173.1 515.8 171.1C513.8 169.1 514.7 168.4 515.8 169.1C516.9 169.8 517.8 169.5 516.6 168.4L512.7 164.9C512.3 164.9 512.3 164.1 510.4 164.1H504.4C503.7 164.1 502.9 164.1 505.3 164.9C507.6 165.6 511.9 168.8 513.1 169.5C514.3 170.3 514.7 171.9 512.7 170.3C508.245 167.337 503.564 164.729 498.7 162.5C488.1 163.7 479.5 164.9 473.2 158.2C470.1 154.7 470.1 147.2 475.2 144.2C474.467 143.2 474.334 142.667 474.8 142.6V140.2C473.867 139.733 473.334 139.067 473.2 138.2C472 138.2 471.2 136.3 469.3 137.1C467.3 137.9 467 137.1 466.2 136.7C465.8 135.9 465.4 135.9 464.2 135.9C463 135.9 462.2 135.9 462.2 135.1C462.2 134.433 463 134.433 464.6 135.1C467.3 136.3 469.6 137.1 471.6 134.4C473.2 132 470.9 130.1 467.7 129.3C464.2 128.5 461.9 131.3 460.3 132.4H460.7Z" fill="white" stroke="black" style="fill:white;fill-opacity:1;stroke:black;stroke-opacity:1;" stroke-width="0.4"/>
<path id="Vector_52" d="M477.9 131.2C476.744 130.159 475.381 129.375 473.9 128.9C472.9 128.9 472.9 129.7 473.2 130.1V132.4C474 132.8 474.4 133.6 473.2 133.6C472.4 134.4 473.2 137.1 474.4 136.3H475.2C475.2 136.3 475.2 137.5 475.9 137.5C476.7 137.5 475.9 138.3 475.9 138.7H476.7C477.5 138.7 477.1 140.2 476.3 140.7C477.433 140.567 477.967 140.8 477.9 141.4C478.3 142.2 479.5 142.6 479.5 143.7C479.5 144.9 479.5 144.9 477.9 144.5C476.3 144.1 476.3 144.5 475.9 145.3C475.5 146.1 475.2 146.5 475.9 146.5C476.7 146.5 477.5 146.9 476.3 147.3C475.2 147.6 474 147.3 473.6 148.4C473.6 149.6 473.6 150 474.4 149.6L477.1 148L479.1 148.4C479.9 148.8 479.1 150.4 478.3 149.6C477.5 148.8 476.7 149.6 476.3 150L474.3 150.8C473.6 150.8 472.8 150.8 473.3 152.8C473.3 158.2 477.5 162.1 485.3 162.1H498.3C495.967 160.5 494.233 159.733 493.1 159.8H492C492.4 159.4 492 158.6 491.6 158.6C491.2 158.6 490.4 157.8 489.6 158.6L485.7 160.6C484.9 160.6 483.7 160.6 484.9 159.8L488.5 158.2C489.2 158.2 488.8 157.4 488.8 157.4C488.8 157.4 488.8 156.2 490 156.6C492.4 158.2 495.9 160.2 497 160.2C498.2 160.2 498.6 159.4 497.8 159C497.1 158.6 496.7 157.8 496.7 157.4C496.7 157 497.1 156.6 498.7 157.4C500.2 158.6 502.5 159.4 503.7 159.8C504.9 160.2 505.7 160.2 503.7 159L494.7 152.3C493.5 151.2 493.5 152.3 493.9 153.1C494.3 153.9 492.8 154.3 491.9 153.5C491.2 152.7 490.8 152.3 491.9 151.9C493.1 151.6 492.8 151.2 491.6 149.9C490.067 148.9 489.533 148.9 490 149.9C490.533 151.233 490.267 151.8 489.2 151.6C488.1 151.2 486.9 150.4 488.1 150C488.8 149.2 490.1 148.8 488.1 147.6C486.1 146.4 487.3 147.6 486.9 148.4C486.5 149.2 485.3 149.2 484.9 148.4C484.5 147.6 483.8 147.3 484.2 146.9C484.5 146.5 484.5 146.1 485.3 146.9C486.1 147.6 486.9 146.9 485.7 145.7C484.5 144.5 484.2 144.9 484.5 145.7C484.8 146.5 483.8 147.3 482.2 145.7C481.4 145.3 481.4 144.5 482.2 144.1C483 144.1 483 143.733 482.2 143C479.5 138.3 480.6 134.7 477.5 131.2H477.9Z" fill="white" stroke="black" style="fill:white;fill-opacity:1;stroke:black;stroke-opacity:1;" stroke-width="0.4"/>
<path id="Vector_53" d="M478 132C477.8 132.4 477.7 132.3 477.2 132.7C476.7 133.1 476.5 134.2 477.5 134.1C477.776 134.071 478.043 133.985 478.284 133.847C478.525 133.71 478.735 133.523 478.9 133.3L478 132ZM475 129.4C474.133 130.2 473.933 130.6 474.4 130.6C474.8 130.467 474.8 130.667 474.4 131.2C474 131.7 475 132 475.4 131.5C475.8 131.033 476.033 131.033 476.1 131.5C476.2 132 477.1 131.5 477.4 131.2C476.6 130.533 475.766 129.933 474.9 129.4H475ZM473.5 133.8C472.5 134.3 472.8 137 474.4 136.2C474.933 136.067 475.233 136.167 475.3 136.5V137.2C475.944 136.924 476.524 136.515 477 136C477.9 134.8 477 135 475.6 135C474.2 135 473.9 134.7 475.2 133.9C476.5 133.1 475.5 132.7 473.9 132.9C474.1 133.167 473.966 133.467 473.5 133.8ZM479.4 139.8C478.6 138.9 479.1 138.6 479.9 138.1L480.3 137.8L479.6 135.2C479.3 135.4 478.8 136.3 478.6 136.7C478.466 137.433 478.133 137.767 477.6 137.7C476.9 137.4 476.3 138.1 476.2 138.8H476.7C476.9 139 476.966 139.333 476.9 139.8C478.8 139.8 479.1 140.9 479.4 141.8C479.8 142.667 480.133 142.767 480.4 142.1C480.6 141.433 480.266 140.667 479.4 139.8Z" fill="#CF6200" style="fill:#CF6200;fill:color(display-p3 0.8118 0.3843 0.0000);fill-opacity:1;"/>
<path id="Vector_54" d="M479.9 150.4C479.5 151.2 479.5 151.1 478.4 151.1C477.4 151.2 476 151.4 475.4 152C475.1 152.3 473.2 152.5 473.2 153.3C473.067 154.233 473.333 154.767 474 154.9C474.8 154.9 475.033 155.167 474.7 155.7C474.3 156.3 474.1 157.2 475.5 157.4C476.9 157.4 478 157.1 478.3 157.8C478.7 158.8 478.3 159.9 478.6 160.5C478.866 160.9 479.766 161.3 481.3 161.7C482.3 161.9 486.1 162.2 487.3 162C488.3 161.8 487.9 161.2 486.8 161.2C485.6 161.133 484.833 160.733 484.5 160C484.2 159.1 484 158.7 484.7 158C485.3 157.2 485.9 156.7 485.5 155.5C485.1 154.3 484.5 153 483.2 152.6C481.9 152.2 482.3 150.3 480.9 150.2C480.433 150.2 480.1 150.267 479.9 150.4Z" fill="#FFFF00" style="fill:#FFFF00;fill:color(display-p3 1.0000 1.0000 0.0000);fill-opacity:1;"/>
<path id="Vector_55" d="M473.3 161.4C474.5 161.6 475.4 161.9 474.5 162.2C473.6 162.5 473 163 474.2 163.1C475.4 163.2 476.5 163.7 475.5 163.9C474.5 164.1 474.5 164.9 475.6 164.9C476.7 164.9 477.3 165.3 476.5 165.9C475.6 166.3 475.1 166.6 474.5 165.8C474.034 164.933 473.734 164.767 473.6 165.3C473.467 165.833 473.167 165.6 472.7 164.6C472.4 163.8 471.5 163.4 471.7 164.1C472 164.8 471.1 165 470.2 164.6C471.022 165.561 472.003 166.373 473.1 167C474.3 166.6 475.7 167 476.1 167C476.7 167 478.2 167.4 479.1 167.9C480 168.4 480.6 167.5 480.2 166.6C479.8 165.7 479.8 165.9 479.4 166.6C478.934 166.867 478.734 166.4 478.8 165.2C478.8 164.4 478.2 164.5 478.1 165.1C477.9 165.6 477.4 164.7 477.6 164.2C477.8 163.667 477.667 163.467 477.2 163.6C476.8 163.867 476.6 163.533 476.6 162.6C476.5 161.5 476.1 161.6 476 162.1C475.867 162.367 475.434 162.033 474.7 161.1C474.2 160.5 473.7 160.9 472.6 161.2L473.3 161.4Z" fill="#CF6200" style="fill:#CF6200;fill:color(display-p3 0.8118 0.3843 0.0000);fill-opacity:1;"/>
<path id="Vector_56" d="M485.6 167.8C480.1 170 476.1 169 473.1 167C474.3 166.6 475.7 167 476.2 167C476.7 167 478.3 167.4 479.1 167.9C479.9 168.4 480.6 167.5 480.2 166.6C480.867 167.667 481.6 168.167 482.4 168.1L485.6 167.8ZM473.8 142C473.467 140.933 473.033 140.5 472.5 140.7C472.033 140.7 471.5 140.567 470.9 140.3C470.3 140 469.4 140.3 469.3 141.6C469.2 142.9 468.3 143.4 467.3 144.2C466.3 144.8 465.8 145.667 465.8 146.8C465.8 148 465.5 148.2 464.8 149.2L463.7 150.5L464.9 151.2C465.7 151.6 465.4 152.1 464.7 151.9C464 151.7 463.2 152.1 464.5 152.3C465.7 152.6 466.2 153.3 465.1 153.3C463.8 153 462.5 154.1 464.8 153.8C467.1 153.6 467.9 154.7 465.3 154.7C462.6 154.7 463.6 155.6 465.1 155.6C467.6 155.6 466.8 156.3 466.1 156.3C465.4 156.3 465.2 157.3 466.9 157L467.5 156C467.8 155.2 468 152.9 469 152.2C470 151.5 470.4 150.5 470.4 149.9C470.4 149.3 471.9 146.2 472.7 145.5C473.7 144.8 474.1 143.2 473.7 142.1L473.8 142Z" fill="#FFFF00" style="fill:#FFFF00;fill:color(display-p3 1.0000 1.0000 0.0000);fill-opacity:1;"/>
<path id="Vector_57" d="M471.8 142.2C470.9 141.5 469.9 142 469.9 143.2C469.833 144.133 469.366 144.8 468.5 145.2C467.631 145.712 466.988 146.534 466.7 147.5C466.7 148.5 466.9 149 466.3 149.8C465.633 150.467 465.5 151.067 465.9 151.6C466.5 152 466.5 152 466.6 152.6C466.9 153.2 468 152.6 468 151.9C468 151.2 468.3 151.2 469 150.8C469.8 150.4 471 148.4 470.7 147.9C470.5 147.4 469.7 146.9 470.7 146.2C471.7 145.4 472.5 145.2 472.5 144.6C472.5 143.933 472.666 143.5 473 143.3C473.3 143 472.4 142.6 471.8 142.3V142.2Z" fill="#CF6200" style="fill:#CF6200;fill:color(display-p3 0.8118 0.3843 0.0000);fill-opacity:1;"/>
<path id="Vector_58" d="M471.8 141.2C471.2 141 470.8 142.3 471.7 142.5C472.6 142.7 472.7 141.6 471.7 141.3L471.8 141.2ZM471.7 142.9C471 143 470.2 143.9 471.3 143.9C472.5 143.7 472.9 142.9 471.6 142.9H471.7ZM470.3 144.6C469.6 144.9 469.8 145.9 470.8 145.2C471.8 144.5 472 143.7 470.3 144.6ZM469.3 146C468.6 146.3 468.6 147.3 469.7 146.6C470.7 146 471 145.1 469.3 146Z" fill="black" style="fill:black;fill-opacity:1;"/>
<path id="Vector_59" d="M467.9 146.7C467.2 147 467.6 147.9 468.6 147.3C469.6 146.7 469.6 145.8 467.9 146.7ZM468.7 147.6C467.9 147.9 468.4 148.8 469.4 148.2C470.4 147.6 470.4 146.7 468.6 147.6H468.7Z" fill="black" style="fill:black;fill-opacity:1;"/>
<path id="Vector_60" d="M467.4 147.9C466.8 148.3 467.2 149.1 468.3 148.5C469.3 147.9 469.2 147 467.4 147.9ZM468.3 148.9C467.5 149.2 467.9 150.1 469 149.5C470 148.8 470 148 468.2 148.9H468.3Z" fill="black" style="fill:black;fill-opacity:1;"/>
<path id="Vector_61" d="M467 149.5C466.4 149.8 466.8 150.7 467.9 150.1C468.9 149.5 468.7 148.6 467.1 149.5H467Z" fill="black" style="fill:black;fill-opacity:1;"/>
<path id="Vector_62" d="M467 150.3C466.5 150.7 466.9 151.7 468 151C469 150.3 468.8 149.5 467 150.3Z" fill="black" style="fill:black;fill-opacity:1;"/>
<path id="Vector_63" d="M466.6 158.9C465.9 158.9 465.4 160 466.3 160.2C467.1 160.333 467.467 160.633 467.4 161.1C467.4 161.7 467.7 162.8 468.6 162.8C469.6 162.8 470.4 161.8 469.6 161.5C468.6 161.3 468.033 160.833 467.9 160.1C467.9 159.4 467.1 158.9 466.6 158.9Z" fill="#CF6200" style="fill:#CF6200;fill:color(display-p3 0.8118 0.3843 0.0000);fill-opacity:1;"/>
<path id="Vector_64" d="M491.5 153L492 153.6C492.7 154.1 494 153.6 493.7 153.1C493.6 152.7 492.9 151.1 494.7 152.3L503.9 158.8C505.8 160.2 504.5 160.4 503.7 159.9L498.7 157.6C497.2 156.7 497 157.1 496.7 157.3C496.567 157.7 496.767 158.167 497.3 158.7C496.4 158.8 495 158.7 494.5 157.7C494 156.5 492.8 155.1 491.9 154C491.633 153.6 491.533 153.3 491.6 153.1L491.5 153Z" fill="#FFFF00" style="fill:#FFFF00;fill:color(display-p3 1.0000 1.0000 0.0000);fill-opacity:1;"/>
<path id="Vector_65" d="M542 319.5C540.7 320.4 539 321.9 540.1 324L540.5 323.9C545.378 317.979 549.697 311.619 553.4 304.9V304.3C552.04 305.415 550.524 306.325 548.9 307C549.5 308.7 546.6 310.8 545.2 311.4C545.8 312.4 545.6 314 544.2 314.3C544.5 315.1 543.5 315.1 542.2 315.7C541.133 316.1 540.433 316.6 540.1 317.2C540.7 316.8 541.7 316.5 542.1 316.7C542.5 316.9 542.7 317.6 541.8 317.8C541 318.133 540.4 318.467 540 318.8C541.3 318.5 543.2 318.6 542 319.5Z" fill="#00D860" style="fill:#00D860;fill:color(display-p3 0.0000 0.8471 0.3765);fill-opacity:1;"/>
<path id="Vector_66" d="M481.8 151.2C480.2 150 479.8 150.8 480.2 151.2C480.6 151.6 480.2 152.7 479.1 153.2H475.1C474.4 153.2 473.2 154.7 475.1 154.2L481.4 153.2C482.2 153.2 483 152.3 481.4 151.2H481.8ZM484.5 153.5C483.4 152.3 483 152.7 483.4 153.5C483.8 154.3 483 154.7 482.2 154.7L476.7 156.2C475.2 156.2 475.2 157.4 477.1 157.4C479.1 157.4 483 155.4 483.4 155.4C483.8 155.4 484.2 154.3 484.5 154.7C484.8 155.1 485.7 154.7 484.5 153.5ZM485.7 156.6L481.8 158.6C480.6 158.6 479.8 159.8 481.8 159.8C483.8 159.8 485.8 157.8 486.5 157.4L488.1 156.6C488.1 156.6 489.6 156.2 488.1 155.1C486.5 153.9 484.9 155.1 485.7 155.5C486.5 155.9 485.7 156.6 485.7 156.6Z" fill="black" stroke="black" style="fill:black;fill-opacity:1;stroke:black;stroke-opacity:1;" stroke-width="0.4"/>
<path id="Vector_67" d="M469.7 131.2C467.2 129.5 464.5 132.9 467.2 134.8C469.6 136.5 472.2 132.8 469.8 131.2H469.7Z" fill="black" style="fill:black;fill-opacity:1;"/>
<path id="Vector_68" d="M466.6 132.7H467.3C467.3 133.5 468 134.7 469.1 134.4C468.2 135.1 466.5 134.2 466.6 132.7ZM476.2 169.7C477 170 479.6 170.2 480.6 170.2L479.4 172.4C479.133 173.2 478.967 173.1 478.9 172.1C478.9 171.1 478.3 170.4 477.8 171.5L476.8 173.5C476.5 173.9 476.1 174 476.2 172.9C476.333 171.767 476.333 170.7 476.2 169.7Z" fill="white" style="fill:white;fill-opacity:1;"/>
<path id="Vector_69" d="M574.5 199.7C574.5 263.4 564.3 332.2 481.5 365C398.9 332.2 388.8 263.4 388.4 199.7H574.5ZM574.5 199.7C574.5 175.4 573.3 151.9 573.7 131.7C544.282 120.268 512.96 114.533 481.4 114.8C460.7 114.8 420 117.9 389.2 131.6C389.9 151.9 388.4 175.4 388.4 199.6L574.5 199.7Z" stroke="black" style="stroke:black;stroke-opacity:1;" stroke-width="1.2"/>
<path id="Vector_70" d="M0 0H320V240H0V0Z" fill="#012169" style="fill:#012169;fill:color(display-p3 0.0039 0.1294 0.4118);fill-opacity:1;"/>
<path id="Vector_71" d="M37.5 0L159.5 90.5L281 0H320V31L200 120.5L320 209.5V240H280L160 150.5L40.5 240H0V210L119.5 121L0 32V0H37.5Z" fill="white" style="fill:white;fill-opacity:1;"/>
<path id="Vector_72" d="M212 140.5L320 220V240L184.5 140.5H212ZM120 150.5L123 168L27 240H0L120 150.5ZM320 0V1.5L195.5 95.5L196.5 73.5L295 0H320ZM0 0L119.5 88H89.5L0 21V0Z" fill="#C8102E" style="fill:#C8102E;fill:color(display-p3 0.7843 0.0627 0.1804);fill-opacity:1;"/>
<path id="Vector_73" d="M120.5 0V240H200.5V0H120.5ZM0 80V160H320V80H0Z" fill="white" style="fill:white;fill-opacity:1;"/>
<path id="Vector_74" d="M0 96.5V144.5H320V96.5H0ZM136.5 0V240H184.5V0H136.5Z" fill="#C8102E" style="fill:#C8102E;fill:color(display-p3 0.7843 0.0627 0.1804);fill-opacity:1;"/>
</g>
<defs>
<clipPath id="clip0_2194_9234">
<rect width="640" height="480" fill="white" style="fill:white;fill-opacity:1;"/>
</clipPath>
</defs>
</svg>
