<svg width="640" height="480" viewBox="0 0 640 480" fill="none" xmlns="http://www.w3.org/2000/svg">
<g id="si" clip-path="url(#clip0_2194_9315)">
<g id="Clip path group">
<mask id="mask0_2194_9315" style="mask-type:luminance" maskUnits="userSpaceOnUse" x="-1" y="0" width="641" height="480">
<g id="si-a">
<path id="Vector" d="M0.037598 0H639.975V480H-0.0561523L0.037598 0Z" fill="white" style="fill:white;fill-opacity:1;"/>
</g>
</mask>
<g mask="url(#mask0_2194_9315)">
<g id="Group">
<path id="Vector_2" fill-rule="evenodd" clip-rule="evenodd" d="M-44.0249 0H915.975V480H-44.0249V0Z" fill="white" style="fill:white;fill-opacity:1;"/>
<path id="Vector_3" fill-rule="evenodd" clip-rule="evenodd" d="M-44.0249 319.969H915.975V480H-44.0249V319.969Z" fill="#D50000" style="fill:#D50000;fill:color(display-p3 0.8353 0.0000 0.0000);fill-opacity:1;"/>
<path id="Vector_4" fill-rule="evenodd" clip-rule="evenodd" d="M-44.0249 160.031H915.975V319.969H-44.0249V160.031Z" fill="#0000BF" style="fill:#0000BF;fill:color(display-p3 0.0000 0.0000 0.7490);fill-opacity:1;"/>
<path id="Vector_5" fill-rule="evenodd" clip-rule="evenodd" d="M228.225 87.1875C224.475 144.937 222.225 176.625 213.506 191.25C203.944 207 194.756 218.531 157.538 232.5C120.413 218.531 111.225 207 101.663 191.25C92.8501 176.625 90.6938 144.937 86.9438 87.1875L92.3814 85.3125C103.444 81.9375 111.694 79.2187 117.788 78C126.506 76.125 134.006 74.0625 157.444 73.5938C180.881 73.9688 188.381 76.2188 197.1 78.0938C203.163 79.4063 211.694 81.8125 222.694 85.3125L228.225 87.1875Z" fill="#D50000" style="fill:#D50000;fill:color(display-p3 0.8353 0.0000 0.0000);fill-opacity:1;"/>
<path id="Vector_6" fill-rule="evenodd" clip-rule="evenodd" d="M222.788 85.3125C219.225 142.969 216.225 169.406 211.538 182.062C202.538 203.812 188.288 215.719 157.538 227.062C126.788 215.719 112.538 203.812 103.444 182.062C98.7564 169.312 95.9438 142.969 92.3813 85.2188C103.256 81.7188 111.725 79.3125 117.788 78C126.506 76.125 134.006 73.9688 157.444 73.5938C180.881 73.9688 188.381 76.125 197.1 78C205.778 79.9754 214.351 82.3847 222.788 85.2188V85.3125Z" fill="#0000BF" style="fill:#0000BF;fill:color(display-p3 0.0000 0.0000 0.7490);fill-opacity:1;"/>
<path id="Vector_7" fill-rule="evenodd" clip-rule="evenodd" d="M157.538 102.938L158.944 106.406L165.506 107.344L161.288 109.875L165.319 112.594L159.413 113.531L157.538 116.719L155.663 113.437L150.038 112.687L153.788 109.875L149.85 107.344L156.131 106.406L157.538 102.938Z" fill="#FFDF00" style="fill:#FFDF00;fill:color(display-p3 1.0000 0.8745 0.0000);fill-opacity:1;"/>
<path id="Vector_8" fill-rule="evenodd" clip-rule="evenodd" d="M209.381 168.375L205.725 165.563L203.194 161.25L198.131 156.844L195.413 152.438L190.35 147.844L187.913 143.437L185.1 141.281L183.413 139.5L178.725 143.531L176.288 147.938L173.194 150.75L169.725 148.031L167.194 143.531L157.538 126.375L147.881 143.531L145.35 148.031L141.881 150.75L138.788 147.938L136.256 143.531L131.663 139.5L129.881 141.188L127.163 143.437L124.725 147.844L119.663 152.438L116.944 156.844L111.881 161.25L109.35 165.563L105.694 168.375C107.767 181.275 113.872 193.188 123.131 202.406C133.189 211.014 144.85 217.546 157.444 221.625C170.134 217.639 181.875 211.099 191.944 202.406C197.381 196.781 207.506 184.313 209.381 168.375Z" fill="white" style="fill:white;fill-opacity:1;"/>
<path id="Vector_9" fill-rule="evenodd" clip-rule="evenodd" d="M172.913 78.6562L174.413 82.125L180.975 83.0625L176.663 85.5938L180.788 88.3125L174.881 89.25L173.006 92.4375L171.131 89.1562L165.506 88.4063L169.256 85.5938L165.319 83.0625L171.506 82.125L172.913 78.6562ZM141.975 78.6562L143.475 82.125L150.038 82.9687L145.819 85.5L149.85 88.2187L143.944 89.1562L142.069 92.3437L140.194 89.1562L134.569 88.3125L138.319 85.5L134.381 82.9687L140.663 82.0312L141.975 78.6562Z" fill="#FFDF00" style="fill:#FFDF00;fill:color(display-p3 1.0000 0.8745 0.0000);fill-opacity:1;"/>
<path id="Vector_10" fill-rule="evenodd" clip-rule="evenodd" d="M201.319 190.313H194.381L187.819 189.844L180.038 186.094H171.225L163.631 189.844L157.538 190.406L151.538 189.844L143.944 186.094H135.038L127.163 189.844L120.694 190.406L113.569 190.313L110.194 184.5L110.288 184.313L120.788 186.094L127.256 185.625L135.038 181.781H143.85L151.538 185.531L157.538 186.094L163.631 185.531L171.225 181.781H180.038L187.913 185.531L194.381 186.094L204.506 184.219L204.694 184.594L201.319 190.313ZM120.319 199.219L127.256 198.75L135.038 195H143.85L151.538 198.75L157.538 199.219L163.538 198.75L171.225 195H180.038L187.819 198.75L194.85 199.219L199.35 193.594H199.256L194.381 194.906L187.913 194.438L180.131 190.688H171.319L163.631 194.438L157.631 195L151.538 194.438L143.944 190.688H135.038L127.163 194.438L120.694 195L116.006 193.781V193.969L120.225 199.219H120.319Z" fill="#0000BF" style="fill:#0000BF;fill:color(display-p3 0.0000 0.0000 0.7490);fill-opacity:1;"/>
</g>
</g>
</g>
</g>
<defs>
<clipPath id="clip0_2194_9315">
<rect width="640" height="480" fill="white" style="fill:white;fill-opacity:1;"/>
</clipPath>
</defs>
</svg>
