<svg width="640" height="480" viewBox="0 0 640 480" fill="none" xmlns="http://www.w3.org/2000/svg">
<g id="sm" clip-path="url(#clip0_2194_9348)">
<g id="Group">
<path id="Vector" fill-rule="evenodd" clip-rule="evenodd" d="M0 240H640V480H0V240Z" fill="#19B6EF" style="fill:#19B6EF;fill:color(display-p3 0.0980 0.7137 0.9373);fill-opacity:1;"/>
<path id="Vector_2" fill-rule="evenodd" clip-rule="evenodd" d="M0 0H640V240H0V0Z" fill="white" style="fill:white;fill-opacity:1;"/>
</g>
<path id="Vector_3" fill-rule="evenodd" clip-rule="evenodd" d="M317 339.2C369.6 300 426 220 359.9 177.8C347.6 175.4 333.9 176.1 327.2 181.4C323.7 179.4 320.9 179.6 317.4 183.3C314.9 180.3 312.4 178.9 307.4 180.4C302.61 177.838 297.359 176.254 291.951 175.739C286.543 175.224 281.087 175.788 275.9 177.4C218 211.8 253.4 294 317 339.1V339.2Z" fill="#FFDD00" stroke="#7D6C00" style="fill:#FFDD00;fill:color(display-p3 1.0000 0.8667 0.0000);fill-opacity:1;stroke:#7D6C00;stroke:color(display-p3 0.4902 0.4235 0.0000);stroke-opacity:1;" stroke-width="2.4"/>
<g id="Group_2">
<path id="Vector_4" fill-rule="evenodd" clip-rule="evenodd" d="M414 250.1C414 250.1 420 242.1 420.2 242.1C426.1 238.7 426.7 234.2 426.7 234.2C432.6 232.4 430.7 227.5 431.2 226.9C432.174 226.03 432.838 224.866 433.091 223.585C433.344 222.303 433.171 220.974 432.6 219.8C432.6 219 434.6 211.4 431.8 210.4C431.9 202.4 427 203.1 423 208.4C418.8 209.6 417.9 213.1 419.4 216.9C413.9 216.9 413.7 224.9 415.3 229.3C408 229.1 412 237.3 411.8 237.7C409.4 238.9 413.7 250.5 414.1 250.1H414ZM368 318.3L371.6 320.5C372.4 323.3 375 325.1 376.9 324.6C377.9 328.9 382.5 328.3 385.9 325.8C388.6 329.8 391.9 329.8 396.5 328.5C400.5 331.5 405.8 330.2 409.3 327.1C413 330.1 415.5 327.9 417.4 324.6C420.4 325.4 422.6 324.9 423.7 322C429.4 321.5 426.6 316.1 421.9 313.8C425.6 310.6 429.8 303.8 423.9 302.8C422.1 301.5 418.6 301.8 416 303C415.3 300 411.2 299.3 406.6 302.6C405.1 299.3 399.6 300.9 397.1 303.2C393.8 300.4 389.9 300.4 384.2 303.6L368 318.3ZM368 309.6C368.6 305.8 366 299 370 298.4C369.3 292.1 370.3 285.1 377.5 285.7C378.7 279.8 378.5 274.3 385.3 273.5C385.3 273.5 390.8 254.4 396.5 267.6C398.7 271.5 398.3 277.8 393.8 276.6C394.7 281.3 393.1 285.5 387.9 285.3C390.2 288.7 389.5 293.2 386.9 295.3L368 309.6ZM401.1 285.7L407.1 284.5C413.1 280.5 415.6 278.8 418.6 283.3C423.7 282.3 428.6 282.7 428.4 286.7C434.4 287.2 434.4 291 433.7 294.1C434.7 299.4 432.3 306.4 428.7 297.9C416.8 290.7 410.1 291.7 391.4 295.9L401.1 285.7ZM404.2 279.8C404.4 279.6 421.7 275.1 419.9 269.8C424.8 269 425.8 264.1 425.9 264.1C436.2 260.9 435.6 255 435.6 255C438.5 251.9 443.6 248.7 442.5 243.2C442.8 236.9 443.4 233 434.9 237.1C428.6 236.5 426.4 240.1 424.6 245.6C421.6 242.1 416.8 247.7 416.2 252.7C416.2 252.7 408.5 260.3 408.5 260.5L402 272.5L404.2 279.8Z" fill="#4FD46B" stroke="#3A9D4F" style="fill:#4FD46B;fill:color(display-p3 0.3098 0.8314 0.4196);fill-opacity:1;stroke:#3A9D4F;stroke:color(display-p3 0.2275 0.6157 0.3098);stroke-opacity:1;" stroke-width="2.4" stroke-linejoin="round"/>
<path id="Vector_5" fill-rule="evenodd" clip-rule="evenodd" d="M404.5 266.4C400.4 263.3 398.1 259.5 398.8 255.8C396.1 252.1 394.2 249.9 396.8 246.6L394.8 239.1C389.4 237.1 391.7 232.6 393.1 231C390.567 227.4 390.5 223.933 392.9 220.6C392.9 214.1 397.5 216.6 401.2 220.6C401.2 220.6 407.6 225.1 402.9 229.1C407.6 230.8 408.9 234.8 406.3 236.5C410.4 238.3 411 242 408.8 244.5C412.9 247.7 411.4 251.9 412.6 255.6L404.5 266.4Z" fill="#4FD46B" stroke="#3A9D4F" style="fill:#4FD46B;fill:color(display-p3 0.3098 0.8314 0.4196);fill-opacity:1;stroke:#3A9D4F;stroke:color(display-p3 0.2275 0.6157 0.3098);stroke-opacity:1;" stroke-width="2.4" stroke-linejoin="round"/>
<path id="Vector_6" fill-rule="evenodd" clip-rule="evenodd" d="M411.8 236C411.6 235.9 404.9 227.3 406.8 226.7C406.3 224.1 404.3 221.2 405.5 218.6C402.2 215.2 402.1 211.3 404.7 208.2C402.5 205.2 403.5 201.1 406.5 198.4C405.5 193.4 409.1 192.2 412.2 191.3C414.5 183.3 418.2 185.3 420.4 191.5C423.6 194.3 423.1 198.5 422 201.7C425.8 204.2 423.5 207.4 421.8 208.7L411.8 236Z" fill="#4FD46B" stroke="#3A9D4F" style="fill:#4FD46B;fill:color(display-p3 0.3098 0.8314 0.4196);fill-opacity:1;stroke:#3A9D4F;stroke:color(display-p3 0.2275 0.6157 0.3098);stroke-opacity:1;" stroke-width="2.4" stroke-linejoin="round"/>
<path id="Vector_7" fill-rule="evenodd" clip-rule="evenodd" d="M410.8 193.1L405.1 187.4C406.6 184.4 407.8 179.1 403.5 176.6C401.1 170.9 389.3 163.7 387.4 177.4C385.6 173.3 381.8 169.2 379.1 174C372.9 168.7 369.6 170.3 372.8 177C372.8 177 369.9 181.5 377.4 185C378 185.6 375 193.1 384 193.3C382.3 195.9 385 199.5 388.6 199.3C386.1 202.4 390.4 205.8 393.1 204.5C392 208 392.1 209.7 397 210.2L402.5 216.5L407 222.6L410.8 193.1Z" fill="#4FD46B" stroke="#3A9D4F" style="fill:#4FD46B;fill:color(display-p3 0.3098 0.8314 0.4196);fill-opacity:1;stroke:#3A9D4F;stroke:color(display-p3 0.2275 0.6157 0.3098);stroke-opacity:1;" stroke-width="2.4" stroke-linejoin="round"/>
<path id="Vector_8" d="M414.3 246.5C414.6 246.2 425.3 221.7 426.7 214.3M415.4 203C415.4 203 417.2 223 412.3 237.6M382.6 182.9C382.6 182.9 404.5 203.9 406.6 212.6M397.9 180.6C397.9 180.6 399.3 197.9 405.4 214.9M436.4 243.3C436.4 243.3 414.6 261.8 404 278M415.8 308C415.8 308 387 312 374.4 312.3M406.4 320.3C406.4 320.3 370.6 319.5 368 316.9M388.5 273.9C388.5 274.3 370.3 304.2 369.7 313.9" stroke="#3A9D4F" style="stroke:#3A9D4F;stroke:color(display-p3 0.2275 0.6157 0.3098);stroke-opacity:1;" stroke-width="2.2" stroke-linecap="round"/>
</g>
<path id="Vector_9" fill-rule="evenodd" clip-rule="evenodd" d="M316.9 333.4C279.1 297.8 240.4 231 278.9 197.2C285.7 201 293.8 197.6 304.9 193.2C308.3 196.9 312.6 197.8 316.9 195C318.668 195.869 320.671 196.134 322.604 195.755C324.537 195.375 326.292 194.373 327.6 192.9C338.6 199.2 352.5 202.5 355.8 196.2C393.6 232.2 355.2 299.4 316.8 333.5L316.9 333.4Z" fill="#65C7FF" stroke="#7D6C00" style="fill:#65C7FF;fill:color(display-p3 0.3961 0.7804 1.0000);fill-opacity:1;stroke:#7D6C00;stroke:color(display-p3 0.4902 0.4235 0.0000);stroke-opacity:1;" stroke-width="2.4"/>
<path id="Vector_10" fill-rule="evenodd" clip-rule="evenodd" d="M317 332.4C299.757 315.719 285.455 296.245 274.7 274.8C276.7 273.1 277.6 272.6 278.6 269.8C284.4 270.6 287.5 270.8 295.1 269.4C296.7 275.2 297 280 300.6 284.8L308.3 269.8C313.716 271.155 319.383 271.155 324.8 269.8C328 274 326.8 280.5 332.5 285.4C335.9 275.4 339.2 274.8 342.6 269.4C347.6 271.2 350.8 270.4 354.9 269.1C356.9 271.6 355.9 271.5 359.9 275.1C349.308 296.688 334.794 316.118 317.1 332.4H317Z" fill="#8FC753" style="fill:#8FC753;fill:color(display-p3 0.5608 0.7804 0.3255);fill-opacity:1;"/>
<path id="Vector_11" fill-rule="evenodd" clip-rule="evenodd" d="M272.6 164.3C272.685 164.788 272.662 165.289 272.532 165.768C272.403 166.246 272.171 166.691 271.852 167.07C271.532 167.449 271.134 167.754 270.685 167.964C270.235 168.173 269.746 168.281 269.25 168.281C268.754 168.281 268.265 168.173 267.815 167.964C267.366 167.754 266.968 167.449 266.649 167.07C266.329 166.691 266.097 166.246 265.968 165.768C265.838 165.289 265.815 164.788 265.9 164.3C265.9 163.398 266.258 162.534 266.896 161.896C267.534 161.258 268.398 160.9 269.3 160.9C270.202 160.9 271.067 161.258 271.704 161.896C272.342 162.534 272.7 163.398 272.7 164.3H272.6ZM269.1 156.6C269.224 157.101 269.233 157.624 269.125 158.129C269.017 158.633 268.796 159.107 268.478 159.514C268.16 159.92 267.754 160.249 267.29 160.475C266.826 160.701 266.316 160.819 265.8 160.819C265.284 160.819 264.774 160.701 264.311 160.475C263.847 160.249 263.44 159.92 263.122 159.514C262.804 159.107 262.583 158.633 262.475 158.129C262.367 157.624 262.376 157.101 262.5 156.6C262.637 155.811 263.048 155.095 263.661 154.58C264.274 154.064 265.049 153.781 265.85 153.781C266.651 153.781 267.426 154.064 268.039 154.58C268.652 155.095 269.063 155.811 269.2 156.6H269.1ZM265.1 149.5C265.185 149.988 265.162 150.489 265.032 150.968C264.903 151.446 264.671 151.891 264.352 152.27C264.032 152.649 263.634 152.954 263.185 153.164C262.735 153.373 262.246 153.481 261.75 153.481C261.254 153.481 260.765 153.373 260.315 153.164C259.866 152.954 259.468 152.649 259.149 152.27C258.829 151.891 258.597 151.446 258.468 150.968C258.338 150.489 258.315 149.988 258.4 149.5C258.537 148.711 258.948 147.995 259.561 147.48C260.174 146.964 260.949 146.681 261.75 146.681C262.551 146.681 263.326 146.964 263.939 147.48C264.552 147.995 264.963 148.711 265.1 149.5ZM262.3 142.5C262.385 142.988 262.362 143.489 262.232 143.968C262.103 144.446 261.871 144.891 261.551 145.27C261.232 145.649 260.834 145.954 260.385 146.164C259.935 146.373 259.446 146.481 258.95 146.481C258.454 146.481 257.965 146.373 257.515 146.164C257.066 145.954 256.668 145.649 256.349 145.27C256.029 144.891 255.797 144.446 255.668 143.968C255.538 143.489 255.515 142.988 255.6 142.5C255.737 141.711 256.148 140.995 256.761 140.48C257.374 139.964 258.149 139.681 258.95 139.681C259.751 139.681 260.526 139.964 261.139 140.48C261.752 140.995 262.163 141.711 262.3 142.5ZM262.8 134.9C262.885 135.388 262.862 135.889 262.732 136.368C262.603 136.847 262.371 137.291 262.051 137.67C261.732 138.049 261.334 138.354 260.885 138.564C260.435 138.773 259.946 138.881 259.45 138.881C258.954 138.881 258.465 138.773 258.015 138.564C257.566 138.354 257.168 138.049 256.849 137.67C256.529 137.291 256.297 136.847 256.168 136.368C256.038 135.889 256.015 135.388 256.1 134.9C256.237 134.111 256.648 133.395 257.261 132.88C257.874 132.364 258.649 132.081 259.45 132.081C260.251 132.081 261.026 132.364 261.639 132.88C262.252 133.395 262.663 134.111 262.8 134.9ZM280.4 122.4C280.485 122.888 280.462 123.389 280.332 123.868C280.203 124.346 279.971 124.791 279.652 125.17C279.332 125.549 278.934 125.854 278.485 126.064C278.035 126.273 277.546 126.381 277.05 126.381C276.554 126.381 276.065 126.273 275.615 126.064C275.166 125.854 274.768 125.549 274.449 125.17C274.129 124.791 273.897 124.346 273.768 123.868C273.638 123.389 273.615 122.888 273.7 122.4C273.837 121.611 274.248 120.895 274.861 120.38C275.474 119.864 276.249 119.581 277.05 119.581C277.851 119.581 278.626 119.864 279.239 120.38C279.852 120.895 280.263 121.611 280.4 122.4Z" fill="white" stroke="black" style="fill:white;fill-opacity:1;stroke:black;stroke-opacity:1;" stroke-width="1.1"/>
<path id="Vector_12" fill-rule="evenodd" clip-rule="evenodd" d="M273.8 123.6C273.885 124.088 273.862 124.589 273.732 125.068C273.603 125.546 273.371 125.991 273.051 126.37C272.732 126.749 272.334 127.054 271.885 127.263C271.435 127.472 270.946 127.581 270.45 127.581C269.954 127.581 269.465 127.472 269.015 127.263C268.566 127.054 268.168 126.749 267.849 126.37C267.529 125.991 267.297 125.546 267.168 125.068C267.038 124.589 267.015 124.088 267.1 123.6C267.237 122.811 267.648 122.095 268.261 121.579C268.874 121.064 269.649 120.781 270.45 120.781C271.251 120.781 272.026 121.064 272.639 121.579C273.252 122.095 273.663 122.811 273.8 123.6ZM266.5 127.9C266.585 128.388 266.562 128.889 266.432 129.368C266.303 129.846 266.071 130.291 265.751 130.67C265.432 131.049 265.034 131.354 264.585 131.563C264.135 131.772 263.646 131.881 263.15 131.881C262.654 131.881 262.165 131.772 261.715 131.563C261.266 131.354 260.868 131.049 260.549 130.67C260.229 130.291 259.997 129.846 259.868 129.368C259.738 128.889 259.715 128.388 259.8 127.9C259.937 127.111 260.348 126.395 260.961 125.879C261.574 125.364 262.349 125.081 263.15 125.081C263.951 125.081 264.726 125.364 265.339 125.879C265.952 126.395 266.363 127.111 266.5 127.9ZM288.9 122.5C289.024 123.001 289.033 123.524 288.925 124.028C288.817 124.533 288.596 125.007 288.278 125.413C287.96 125.82 287.554 126.149 287.09 126.375C286.626 126.601 286.116 126.718 285.6 126.718C285.084 126.718 284.574 126.601 284.11 126.375C283.646 126.149 283.24 125.82 282.922 125.413C282.604 125.007 282.383 124.533 282.275 124.028C282.167 123.524 282.176 123.001 282.3 122.5C282.483 121.763 282.907 121.108 283.505 120.64C284.103 120.173 284.841 119.918 285.6 119.918C286.359 119.918 287.097 120.173 287.695 120.64C288.293 121.108 288.717 121.763 288.9 122.5ZM298.3 123.3C298.385 123.788 298.362 124.289 298.232 124.768C298.103 125.246 297.871 125.691 297.551 126.07C297.232 126.449 296.834 126.754 296.385 126.963C295.935 127.172 295.446 127.281 294.95 127.281C294.454 127.281 293.965 127.172 293.515 126.963C293.066 126.754 292.668 126.449 292.349 126.07C292.029 125.691 291.797 125.246 291.668 124.768C291.538 124.289 291.515 123.788 291.6 123.3C291.737 122.511 292.148 121.795 292.761 121.279C293.374 120.764 294.149 120.481 294.95 120.481C295.751 120.481 296.526 120.764 297.139 121.279C297.752 121.795 298.163 122.511 298.3 123.3ZM306.5 122.8C306.624 123.301 306.633 123.824 306.525 124.328C306.417 124.833 306.196 125.307 305.878 125.713C305.56 126.12 305.154 126.449 304.69 126.675C304.226 126.901 303.716 127.018 303.2 127.018C302.684 127.018 302.174 126.901 301.71 126.675C301.246 126.449 300.84 126.12 300.522 125.713C300.204 125.307 299.983 124.833 299.875 124.328C299.767 123.824 299.776 123.301 299.9 122.8C300.037 122.011 300.448 121.295 301.061 120.779C301.674 120.264 302.449 119.981 303.25 119.981C304.051 119.981 304.826 120.264 305.439 120.779C306.052 121.295 306.463 122.011 306.6 122.8H306.5Z" fill="white" stroke="black" style="fill:white;fill-opacity:1;stroke:black;stroke-opacity:1;" stroke-width="1.1"/>
<path id="Vector_13" fill-rule="evenodd" clip-rule="evenodd" d="M325.9 117.5C325.9 119.781 324.994 121.968 323.381 123.581C321.768 125.194 319.581 126.1 317.3 126.1C315.019 126.1 312.832 125.194 311.219 123.581C309.606 121.968 308.7 119.781 308.7 117.5C308.7 115.219 309.606 113.032 311.219 111.419C312.832 109.806 315.019 108.9 317.3 108.9C319.581 108.9 321.768 109.806 323.381 111.419C324.994 113.032 325.9 115.219 325.9 117.5Z" fill="#FFDD00" stroke="#7D6C00" style="fill:#FFDD00;fill:color(display-p3 1.0000 0.8667 0.0000);fill-opacity:1;stroke:#7D6C00;stroke:color(display-p3 0.4902 0.4235 0.0000);stroke-opacity:1;" stroke-width="1.1"/>
<path id="Vector_14" fill-rule="evenodd" clip-rule="evenodd" d="M335 122.7C335 123.602 334.642 124.466 334.004 125.104C333.366 125.742 332.502 126.1 331.6 126.1C330.698 126.1 329.833 125.742 329.196 125.104C328.558 124.466 328.2 123.602 328.2 122.7C328.337 121.911 328.748 121.195 329.361 120.679C329.974 120.164 330.749 119.881 331.55 119.881C332.351 119.881 333.126 120.164 333.739 120.679C334.352 121.195 334.763 121.911 334.9 122.7H335ZM343.6 123.4C343.724 123.901 343.733 124.424 343.625 124.928C343.517 125.433 343.296 125.907 342.978 126.313C342.66 126.72 342.253 127.049 341.789 127.275C341.325 127.501 340.816 127.618 340.3 127.618C339.784 127.618 339.274 127.501 338.81 127.275C338.346 127.049 337.94 126.72 337.622 126.313C337.304 125.907 337.083 125.433 336.975 124.928C336.867 124.424 336.876 123.901 337 123.4C337.137 122.611 337.548 121.895 338.161 121.379C338.774 120.864 339.549 120.581 340.35 120.581C341.151 120.581 341.926 120.864 342.539 121.379C343.152 121.895 343.563 122.611 343.7 123.4H343.6ZM352.1 123C352.185 123.488 352.162 123.989 352.032 124.468C351.903 124.946 351.671 125.391 351.351 125.77C351.032 126.149 350.634 126.454 350.185 126.663C349.735 126.872 349.246 126.981 348.75 126.981C348.254 126.981 347.765 126.872 347.315 126.663C346.866 126.454 346.468 126.149 346.148 125.77C345.829 125.391 345.597 124.946 345.468 124.468C345.338 123.989 345.315 123.488 345.4 123C345.537 122.211 345.948 121.495 346.561 120.979C347.174 120.464 347.949 120.181 348.75 120.181C349.551 120.181 350.326 120.464 350.939 120.979C351.552 121.495 351.963 122.211 352.1 123ZM359.2 122.7C359.285 123.188 359.262 123.689 359.132 124.168C359.003 124.646 358.771 125.091 358.451 125.47C358.132 125.849 357.734 126.154 357.285 126.363C356.835 126.572 356.346 126.681 355.85 126.681C355.354 126.681 354.865 126.572 354.415 126.363C353.966 126.154 353.568 125.849 353.248 125.47C352.929 125.091 352.697 124.646 352.568 124.168C352.438 123.689 352.415 123.188 352.5 122.7C352.637 121.911 353.048 121.195 353.661 120.679C354.274 120.164 355.049 119.881 355.85 119.881C356.651 119.881 357.426 120.164 358.039 120.679C358.652 121.195 359.063 121.911 359.2 122.7ZM368.1 123.7C368.185 124.188 368.162 124.689 368.032 125.168C367.903 125.646 367.671 126.091 367.351 126.47C367.032 126.849 366.634 127.154 366.185 127.363C365.735 127.572 365.246 127.681 364.75 127.681C364.254 127.681 363.765 127.572 363.315 127.363C362.866 127.154 362.468 126.849 362.148 126.47C361.829 126.091 361.597 125.646 361.468 125.168C361.338 124.689 361.315 124.188 361.4 123.7C361.537 122.911 361.948 122.195 362.561 121.679C363.174 121.164 363.949 120.881 364.75 120.881C365.551 120.881 366.326 121.164 366.939 121.679C367.552 122.195 367.963 122.911 368.1 123.7ZM375.1 128.1C375.185 128.588 375.162 129.089 375.032 129.568C374.903 130.046 374.671 130.491 374.351 130.87C374.032 131.249 373.634 131.554 373.185 131.763C372.735 131.972 372.246 132.081 371.75 132.081C371.254 132.081 370.765 131.972 370.315 131.763C369.866 131.554 369.468 131.249 369.148 130.87C368.829 130.491 368.597 130.046 368.468 129.568C368.338 129.089 368.315 128.588 368.4 128.1C368.537 127.311 368.948 126.595 369.561 126.079C370.174 125.564 370.949 125.281 371.75 125.281C372.551 125.281 373.326 125.564 373.939 126.079C374.552 126.595 374.963 127.311 375.1 128.1Z" fill="white" stroke="black" style="fill:white;fill-opacity:1;stroke:black;stroke-opacity:1;" stroke-width="1.1"/>
<path id="Vector_15" fill-rule="evenodd" clip-rule="evenodd" d="M269.4 151.7L278 168.2H357.2L366.4 152.3C361 148.6 357.4 145.8 349.7 147.5C345.4 141.3 340.7 140.2 333.7 140.8C331.6 138.7 329.7 137.4 326.1 136.8L309.5 137.3C305.1 137.7 301.7 141.1 301.5 141.1C294.5 140.2 288 140.4 286.3 147.3C279.8 145.7 275.3 147.5 269.4 151.7Z" fill="#E40000" stroke="#AC0000" style="fill:#E40000;fill:color(display-p3 0.8941 0.0000 0.0000);fill-opacity:1;stroke:#AC0000;stroke:color(display-p3 0.6745 0.0000 0.0000);stroke-opacity:1;" stroke-width="2.4"/>
<path id="Vector_16" fill-rule="evenodd" clip-rule="evenodd" d="M378 135.3C378.085 135.788 378.062 136.289 377.932 136.768C377.803 137.246 377.571 137.691 377.251 138.07C376.932 138.449 376.534 138.754 376.085 138.963C375.635 139.173 375.146 139.281 374.65 139.281C374.154 139.281 373.665 139.173 373.215 138.963C372.766 138.754 372.368 138.449 372.048 138.07C371.729 137.691 371.497 137.246 371.368 136.768C371.238 136.289 371.215 135.788 371.3 135.3C371.437 134.511 371.848 133.795 372.461 133.279C373.074 132.764 373.849 132.481 374.65 132.481C375.451 132.481 376.226 132.764 376.839 133.279C377.452 133.795 377.863 134.511 378 135.3ZM378.6 143.3C378.685 143.788 378.662 144.289 378.532 144.768C378.403 145.246 378.171 145.691 377.851 146.07C377.532 146.449 377.134 146.754 376.685 146.963C376.235 147.173 375.746 147.281 375.25 147.281C374.754 147.281 374.265 147.173 373.815 146.963C373.366 146.754 372.968 146.449 372.648 146.07C372.329 145.691 372.097 145.246 371.968 144.768C371.838 144.289 371.815 143.788 371.9 143.3C372.037 142.511 372.448 141.795 373.061 141.279C373.674 140.764 374.449 140.481 375.25 140.481C376.051 140.481 376.826 140.764 377.439 141.279C378.052 141.795 378.463 142.511 378.6 143.3ZM376.1 150.5C376.185 150.988 376.162 151.489 376.032 151.968C375.903 152.446 375.671 152.891 375.351 153.27C375.032 153.649 374.634 153.954 374.185 154.163C373.735 154.373 373.246 154.481 372.75 154.481C372.254 154.481 371.765 154.373 371.315 154.163C370.866 153.954 370.468 153.649 370.148 153.27C369.829 152.891 369.597 152.446 369.468 151.968C369.338 151.489 369.315 150.988 369.4 150.5C369.537 149.711 369.948 148.995 370.561 148.479C371.174 147.964 371.949 147.681 372.75 147.681C373.551 147.681 374.326 147.964 374.939 148.479C375.552 148.995 375.963 149.711 376.1 150.5ZM373.1 156.5C373.1 157.402 372.742 158.267 372.104 158.904C371.467 159.542 370.602 159.9 369.7 159.9C368.798 159.9 367.933 159.542 367.296 158.904C366.658 158.267 366.3 157.402 366.3 156.5C366.437 155.711 366.848 154.995 367.461 154.479C368.074 153.964 368.849 153.681 369.65 153.681C370.451 153.681 371.226 153.964 371.839 154.479C372.452 154.995 372.863 155.711 373 156.5H373.1ZM369.4 164C369.485 164.488 369.462 164.989 369.332 165.468C369.203 165.946 368.971 166.391 368.651 166.77C368.332 167.149 367.934 167.454 367.485 167.663C367.035 167.873 366.546 167.981 366.05 167.981C365.554 167.981 365.065 167.873 364.615 167.663C364.166 167.454 363.768 167.149 363.449 166.77C363.129 166.391 362.897 165.946 362.768 165.468C362.638 164.989 362.615 164.488 362.7 164C362.837 163.211 363.248 162.495 363.861 161.979C364.474 161.464 365.249 161.181 366.05 161.181C366.851 161.181 367.626 161.464 368.239 161.979C368.852 162.495 369.263 163.211 369.4 164ZM322.6 154.4C322.6 155.726 322.073 156.998 321.135 157.936C320.198 158.873 318.926 159.4 317.6 159.4C316.274 159.4 315.002 158.873 314.064 157.936C313.127 156.998 312.6 155.726 312.6 154.4C312.6 153.074 313.127 151.802 314.064 150.864C315.002 149.927 316.274 149.4 317.6 149.4C318.926 149.4 320.198 149.927 321.135 150.864C322.073 151.802 322.6 153.074 322.6 154.4Z" fill="white" stroke="black" style="fill:white;fill-opacity:1;stroke:black;stroke-opacity:1;" stroke-width="1.1"/>
<path id="Vector_17" fill-rule="evenodd" clip-rule="evenodd" d="M323.6 143C323.6 144.591 322.968 146.117 321.843 147.243C320.717 148.368 319.191 149 317.6 149C316.009 149 314.483 148.368 313.357 147.243C312.232 146.117 311.6 144.591 311.6 143C311.6 141.409 312.232 139.883 313.357 138.757C314.483 137.632 316.009 137 317.6 137C319.191 137 320.717 137.632 321.843 138.757C322.968 139.883 323.6 141.409 323.6 143Z" fill="white" stroke="black" style="fill:white;fill-opacity:1;stroke:black;stroke-opacity:1;" stroke-width="1.1"/>
<path id="Vector_18" fill-rule="evenodd" clip-rule="evenodd" d="M322.7 132C322.7 133.432 322.131 134.806 321.118 135.818C320.106 136.831 318.732 137.4 317.3 137.4C315.868 137.4 314.494 136.831 313.482 135.818C312.469 134.806 311.9 133.432 311.9 132C311.9 130.568 312.469 129.194 313.482 128.182C314.494 127.169 315.868 126.6 317.3 126.6C318.732 126.6 320.106 127.169 321.118 128.182C322.131 129.194 322.7 130.568 322.7 132Z" fill="white" stroke="black" style="fill:white;fill-opacity:1;stroke:black;stroke-opacity:1;" stroke-width="1.1"/>
<path id="Vector_19" fill-rule="evenodd" clip-rule="evenodd" d="M315.5 109V104.8L311.9 104.7L312.1 101.5H315.1V98.7H319.6V101.2H323.1L323 104.6H319.4V109.1H315.4L315.5 109Z" fill="#FFDD00" stroke="#7D6C00" style="fill:#FFDD00;fill:color(display-p3 1.0000 0.8667 0.0000);fill-opacity:1;stroke:#7D6C00;stroke:color(display-p3 0.4902 0.4235 0.0000);stroke-opacity:1;" stroke-width="1.1"/>
<path id="Vector_20" d="M277.6 168.2C270.5 156.2 260 139.8 266.6 132.7C275.5 122.6 296.5 131.7 309.9 125.9C310.9 137.3 307.7 156.3 312.8 160.2L308 164.4C305 160.7 299.6 155.6 292.8 164.6C288.8 161.2 284.5 161.8 282.4 166.3C280.4 166.6 280.5 167.4 277.6 168.2ZM357.6 167.7C364.8 155.7 375.2 139.4 368.7 132.3C359.7 122.2 338.7 131.3 325.4 125.4C324.4 136.9 327.6 155.9 322.4 159.8L327.2 164C331.9 157.5 337.6 157.3 342.5 164.2C346.4 160.8 350.4 161.2 352.9 165.9C354.9 166.2 354.7 166.9 357.7 167.7H357.6Z" stroke="#FFDD00" style="stroke:#FFDD00;stroke:color(display-p3 1.0000 0.8667 0.0000);stroke-opacity:1;" stroke-width="3.3"/>
<path id="Vector_21" fill-rule="evenodd" clip-rule="evenodd" d="M277.3 177.1C303.679 174.697 330.221 174.697 356.6 177.1L359.7 168.1C332 163.1 312.9 162.5 276.7 167.5L277.3 177.1Z" fill="#FFDD00" stroke="#7D6C00" style="fill:#FFDD00;fill:color(display-p3 1.0000 0.8667 0.0000);fill-opacity:1;stroke:#7D6C00;stroke:color(display-p3 0.4902 0.4235 0.0000);stroke-opacity:1;" stroke-width="2.4"/>
<path id="Vector_22" fill-rule="evenodd" clip-rule="evenodd" d="M314.1 329.4L314.7 325.2C317.6 326 319.7 325.7 322.1 324.8L324.5 321.1L322.7 319C321.1 319.3 319.7 320.8 318.7 322.1C317.1 322.2 315.7 321.4 314.1 321.1L312.6 314.7C311.1 312.9 307.9 313 308.6 316.2L308.9 318.7C309.5 320.2 309.8 322.3 310.8 323.4V326L314.1 329.4ZM315.3 311.1C313.3 312.1 310.7 310.3 308 309.2C305.5 309.1 303.6 311.2 300.6 310.5C301.2 308.9 302.5 308.6 303.4 307.7C302.7 303.6 304.9 302.2 305.5 302.2C306.1 302.2 308.6 302.8 308.6 302.8L311 303.1C312.5 305.8 314.5 308.1 315.3 311.1Z" fill="#C76E2E" style="fill:#C76E2E;fill:color(display-p3 0.7804 0.4314 0.1804);fill-opacity:1;"/>
<path id="Vector_23" fill-rule="evenodd" clip-rule="evenodd" d="M300.8 366C307.8 354.6 357 331.6 403.2 281.8C356.2 327.1 326.8 338.2 288.4 365.8L300.8 366.1V366Z" fill="#FFE100" stroke="#E9BF00" style="fill:#FFE100;fill:color(display-p3 1.0000 0.8824 0.0000);fill-opacity:1;stroke:#E9BF00;stroke:color(display-p3 0.9137 0.7490 0.0000);stroke-opacity:1;" stroke-width="2.4"/>
<path id="Vector_24" fill-rule="evenodd" clip-rule="evenodd" d="M368.4 313.2C368.4 314.155 368.021 315.07 367.346 315.746C366.67 316.421 365.755 316.8 364.8 316.8C363.845 316.8 362.929 316.421 362.254 315.746C361.579 315.07 361.2 314.155 361.2 313.2C361.2 312.245 361.579 311.329 362.254 310.654C362.929 309.979 363.845 309.6 364.8 309.6C365.755 309.6 366.67 309.979 367.346 310.654C368.021 311.329 368.4 312.245 368.4 313.2ZM402.8 278.3C402.8 279.374 402.373 280.404 401.614 281.164C400.854 281.923 399.824 282.35 398.75 282.35C397.676 282.35 396.646 281.923 395.886 281.164C395.127 280.404 394.7 279.374 394.7 278.3C394.7 277.239 395.121 276.222 395.872 275.471C396.622 274.721 397.639 274.3 398.7 274.3C399.761 274.3 400.778 274.721 401.528 275.471C402.279 276.222 402.7 277.239 402.7 278.3H402.8ZM414.2 248.7C414.287 249.216 414.26 249.745 414.122 250.25C413.983 250.754 413.737 251.223 413.399 251.622C413.061 252.022 412.64 252.343 412.165 252.563C411.69 252.784 411.173 252.898 410.65 252.898C410.127 252.898 409.61 252.784 409.135 252.563C408.66 252.343 408.239 252.022 407.901 251.622C407.563 251.223 407.316 250.754 407.178 250.25C407.04 249.745 407.013 249.216 407.1 248.7C407.241 247.861 407.675 247.099 408.325 246.549C408.975 245.999 409.799 245.698 410.65 245.698C411.501 245.698 412.325 245.999 412.975 246.549C413.624 247.099 414.059 247.861 414.2 248.7ZM403 210.3C403.087 210.816 403.06 211.345 402.922 211.85C402.783 212.354 402.537 212.823 402.199 213.222C401.861 213.622 401.44 213.943 400.965 214.163C400.49 214.384 399.973 214.498 399.45 214.498C398.927 214.498 398.41 214.384 397.935 214.163C397.46 213.943 397.039 213.622 396.701 213.222C396.363 212.823 396.116 212.354 395.978 211.85C395.84 211.345 395.813 210.816 395.9 210.3C396.041 209.461 396.475 208.699 397.125 208.149C397.775 207.599 398.599 207.298 399.45 207.298C400.301 207.298 401.125 207.599 401.775 208.149C402.424 208.699 402.859 209.461 403 210.3Z" fill="#9D4916" stroke="#68300E" style="fill:#9D4916;fill:color(display-p3 0.6157 0.2863 0.0863);fill-opacity:1;stroke:#68300E;stroke:color(display-p3 0.4078 0.1882 0.0549);stroke-opacity:1;" stroke-width="1.1"/>
<path id="Vector_25" fill-rule="evenodd" clip-rule="evenodd" d="M279.1 269.6V254.4L277.6 253.2V249.6L280.4 249.3L280.9 232.3L279.1 231.3L278.9 228.5C278.9 228.5 280.9 229.3 280.9 228.8L281.4 225.4C281.4 225.4 280.1 225.2 280.1 224.7C280.1 224.2 281.7 222.9 281.7 222.9C281.7 222.9 280.9 222.1 280.7 221.6L279.9 218.8L280.7 215.9L280.2 214.4L278.9 212.1L280.7 210.3L280.2 207.5C280.538 206.458 281.044 205.478 281.7 204.6C282 204.4 284 201.6 284 201.6L288.4 200.6L293.5 201.3L296.3 203.1L296.8 207.7C296.8 207.7 296.3 210.5 296.1 210.5L293.8 211.5C293.8 211.5 291.2 211.8 290.9 211.5C290.6 211.2 291.7 214.7 291.7 214.7V217.7L291.5 221.6C291.5 221.6 291.5 223.4 291.2 223.6C290.9 223.8 290.4 224.6 290.4 224.6L290.2 228.6L294.2 229.6L294 231.9L291.2 232.1L291.7 247.8L295.8 248.5V252.9L294 253.9L293.5 269.6H279.1ZM341.5 269.9V254.7L340 253.4V249.8L342.8 249.6L343.3 232.6L341.5 231.6L341.3 228.8C341.3 228.8 343.3 229.5 343.3 229L343.8 225.7C343.8 225.7 342.5 225.4 342.5 224.9C342.5 224.4 344.1 223.1 344.1 223.1C344.1 223.1 343.3 222.4 343.1 221.8L342.3 219L343.1 216.2L342.5 214.7L341.3 212.4L343.1 210.6L342.5 207.7C342.878 206.686 343.419 205.741 344.1 204.9L346.4 201.9L350.8 200.8L355.9 201.6L358.7 203.4L359.2 208C359.2 208 358.7 210.8 358.5 210.8L356.2 211.8C356.2 211.8 353.6 212.1 353.3 211.8C353 211.5 354.1 214.9 354.1 214.9V218L353.8 221.9C353.8 221.9 353.8 223.6 353.6 223.9L352.8 224.9L352.6 228.8L356.6 229.8L356.4 232.1L353.6 232.4L354.1 248L358.2 248.8V253.2L356.4 254.2L355.9 269.9H341.5ZM309.9 270.4V255.2L308.4 254V250.3L311.2 250.1L311.7 233.1L309.9 232.1L309.7 229.3C309.7 229.3 311.7 230.1 311.7 229.6L312.2 226.2C312.2 226.2 311 226 311 225.5C311 225 312.5 223.6 312.5 223.6C312.5 223.6 311.7 222.9 311.5 222.4L310.7 219.5L311.5 216.7L311 215.2L309.7 212.9L311.5 211.1L311 208.2C311.33 207.185 311.838 206.237 312.5 205.4C312.8 205.2 314.8 202.4 314.8 202.4L319.2 201.4L324.3 202.1L327.1 203.9L327.7 208.5C327.7 208.5 327.1 211.3 326.9 211.3L324.6 212.3C324.6 212.3 322 212.6 321.8 212.3C321.6 212 322.5 215.4 322.5 215.4V218.5L322.3 222.4C322.3 222.4 322.3 224.2 322 224.4L321.2 225.4L321 229.3L325 230.3L324.8 232.6L322 232.9L322.5 248.6L326.6 249.3V253.7L324.8 254.7L324.3 270.4H310H309.9Z" fill="white" stroke="#A9A9A9" style="fill:white;fill-opacity:1;stroke:#A9A9A9;stroke:color(display-p3 0.6627 0.6627 0.6627);stroke-opacity:1;" stroke-width="1.1"/>
<path id="Vector_26" fill-rule="evenodd" clip-rule="evenodd" d="M283 269.5V257.5H289.6V270L283 269.5ZM314.4 270.5L314.7 258.3H320.7V270.2L314.4 270.4V270.5ZM345.4 270.2L345 258.7L351.5 258.5V270.5L345.5 270.2H345.4ZM284.6 234.2H288.4V240.3H284.6V234.2ZM314.9 234.4H320.2V240.4H314.9V234.4ZM345.9 234.9H350.5V240.6H346L345.9 234.9Z" fill="black" style="fill:black;fill-opacity:1;"/>
<path id="Vector_27" d="M286.6 207C290.6 211.6 290.9 211.6 290.9 211.6M317.1 207C317.9 208.5 319.1 211.8 320.7 212.1M350 207.7C350 207.7 351.3 211.3 353 211.8" stroke="#A8A8A8" style="stroke:#A8A8A8;stroke:color(display-p3 0.6588 0.6588 0.6588);stroke-opacity:1;" stroke-width="1.1"/>
<path id="Vector_28" fill-rule="evenodd" clip-rule="evenodd" d="M282.2 194C294.2 190.1 279.4 182.4 276.9 194C273.1 194.7 272.6 197.5 264.2 196.3C243.8 229.3 258.9 282.8 318.3 338.1C211.9 247.5 255.1 180.5 284.6 183.1C300.6 184.1 292.6 204.1 282.2 194.1V194Z" fill="#B97700" style="fill:#B97700;fill:color(display-p3 0.7255 0.4667 0.0000);fill-opacity:1;"/>
<path id="Vector_29" d="M285.6 177C285.6 177 295.3 179.7 295.3 183.8M295.3 176.3C295.3 176.3 302.1 179.3 303.6 181.9M348.7 177.4C348.7 177.4 340.1 178.6 338.2 181.2M335.6 178.2C335.6 178.2 330.6 182.3 331.1 183.5M334.5 196.2C333.7 195.9 330.3 191.3 331.1 185.7M301.3 193.2C301.3 193.2 303.6 190.6 303.6 185.7M317.1 183.8L317.5 194.8M326.9 193.2C326.9 192.5 329.9 185.3 326.5 181.9M306.2 180.4C306.2 180.4 303.6 187.6 305.5 193.6M325.5 186.8C325.5 186.8 321.3 188 319.5 189.8M307.7 187.9C307.7 187.6 312.3 186.9 313.7 189.5" stroke="#7D6C00" style="stroke:#7D6C00;stroke:color(display-p3 0.4902 0.4235 0.0000);stroke-opacity:1;" stroke-width="2.4"/>
<path id="Vector_30" fill-rule="evenodd" clip-rule="evenodd" d="M300.6 301.9C300.8 301.9 304.4 301.2 304.4 299.5C306.2 298.3 304.9 295 304.9 295L301.5 294.4L296.9 289.2C296.7 287.6 297.2 286.1 296.2 284.4C293 285.2 291.2 287.9 290.2 290.9C290.9 291.9 291 292.9 292.5 293.8C294 294 295 293.1 296.4 293.4C297.1 294.7 296.9 295.8 297.2 297C299.1 298.3 299.5 300.2 300.6 301.9ZM296.5 279.7V273.5L292.1 273.3C291.5 274.3 290.5 274.7 289.9 275.5L286.8 277.1C288.1 278.6 289.7 279.5 290.6 280.3C292.8 280.967 294.767 280.767 296.5 279.7ZM282.7 288.8L280.3 284.8C281.854 284.354 283.515 284.46 285 285.1C285 285.1 286 287.6 285.3 288.5C284.9 289.4 282.6 289 282.7 288.8ZM319.2 292.9C319.866 292.583 320.453 292.123 320.919 291.552C321.386 290.982 321.721 290.315 321.9 289.6L317.4 284.5L313.4 284.4C312.333 283.467 311.133 283.067 309.8 283.2C309.8 283.2 311 285.2 312.6 285.5C313.8 288.1 318.8 292.9 319.2 292.9ZM323.5 293.5C323.5 293.4 327.5 292.1 329.5 292.2C329.4 290.6 332.5 286.9 332.5 286.9L338.1 294.2C337.1 295 335.3 294.8 333.9 295C333.9 295 331.2 297.6 330.9 297.7C330.6 297.8 325.7 299 323.3 297.5C322.3 295.5 323.6 293.2 323.5 293.5ZM326.7 280.7C327.401 278.215 327.401 275.585 326.7 273.1H320.3L316.1 275.1C316.1 275.1 317.4 279.3 319.1 278.9C319.8 281 322 280.5 323.1 281.3L326.7 280.7ZM351.6 274.3C350.6 277 350.2 279.8 351.4 282.3C352.6 282.6 354 283.3 355 283.1L360.1 273.9C356.567 272.767 353.7 272.9 351.5 274.3H351.6Z" fill="#C76E2E" style="fill:#C76E2E;fill:color(display-p3 0.7804 0.4314 0.1804);fill-opacity:1;"/>
<path id="Vector_31" fill-rule="evenodd" clip-rule="evenodd" d="M353.1 193.2C341.1 189.3 355.9 181.5 358.4 193.2C362.3 193.8 362.8 196.7 371.2 195.5C391.5 228.5 376.4 282 317 337.3C423.5 246.7 380.2 179.7 350.7 182.2C334.7 183.2 342.7 203.2 353.1 193.2Z" fill="#B97700" style="fill:#B97700;fill:color(display-p3 0.7255 0.4667 0.0000);fill-opacity:1;"/>
<path id="Vector_32" fill-rule="evenodd" clip-rule="evenodd" d="M354.3 284.7C354.1 284.7 351.3 286.7 351.3 286.7L347.1 288.4L342.7 288.5L341.7 285.5L345.1 282.5C342.167 282.1 339.5 283.033 337.1 285.3C337.1 285.3 337.1 288.6 339.1 290.3C340.2 291.7 343.6 294.3 343.6 294.3C344.521 294.506 345.474 294.523 346.402 294.352C347.33 294.18 348.214 293.822 349 293.3L354.3 284.7ZM331.1 314.8C332.5 315.2 342.4 302.1 342.4 302.1C341.505 299.747 339.755 297.819 337.5 296.7C337.5 296.7 332.7 302.4 332.6 304.3C331.8 306 329.6 312.6 330.6 313.5C330.5 313.7 330.1 316.4 331.1 314.8Z" fill="#C76E2E" style="fill:#C76E2E;fill:color(display-p3 0.7804 0.4314 0.1804);fill-opacity:1;"/>
<path id="Vector_33" fill-rule="evenodd" clip-rule="evenodd" d="M266.4 317.4C251.6 304.5 231.6 297.4 203.7 307.1C211.2 310.3 219.3 311.4 226.2 315L266.4 317.4Z" fill="#006800" stroke="#004100" style="fill:#006800;fill:color(display-p3 0.0000 0.4078 0.0000);fill-opacity:1;stroke:#004100;stroke:color(display-p3 0.0000 0.2549 0.0000);stroke-opacity:1;" stroke-width="2.4" stroke-linejoin="round"/>
<path id="Vector_34" d="M223.4 308.3C252.7 308.9 261.2 316.2 259.7 315" stroke="#00A400" style="stroke:#00A400;stroke:color(display-p3 0.0000 0.6431 0.0000);stroke-opacity:1;" stroke-width="2.2" stroke-linecap="round"/>
<path id="Vector_35" fill-rule="evenodd" clip-rule="evenodd" d="M267 319C258.2 320.6 246.2 329 242.6 328.7C233.1 327.6 224.1 323.7 214.9 320.7C211.1 319.5 207.2 320.7 203.3 320.7C236.1 305.2 247.3 307.3 267 318.9V319Z" fill="#006800" stroke="#004100" style="fill:#006800;fill:color(display-p3 0.0000 0.4078 0.0000);fill-opacity:1;stroke:#004100;stroke:color(display-p3 0.0000 0.2549 0.0000);stroke-opacity:1;" stroke-width="2.2" stroke-linejoin="round"/>
<path id="Vector_36" fill-rule="evenodd" clip-rule="evenodd" d="M245.4 296C245.4 296 234.4 297.6 229.5 297.9C224.7 297.6 217.5 293.1 209.7 284.9C205.7 280.3 196.3 280.9 196.3 280.9C216.9 276.5 233 280.7 245.3 296.1L245.4 296ZM230.4 274.8C215.5 273.8 196.9 260.5 192.7 244.6C192.7 244.8 198.2 248.1 197.3 248.9C221.7 255.1 223.3 260.1 230.4 274.8ZM255.4 300.3C257.5 286.8 258.1 277.9 251.8 269.9C246.5 263.9 245.2 260.2 241.4 251.6C240.3 269.4 236.4 284.1 255.4 300.3ZM232 263C243 246.9 245 234.7 243.2 215.5C242.9 217 239.2 226.5 239 226.5C222.5 236.8 229.8 253 232 263Z" fill="#006800" stroke="#004100" style="fill:#006800;fill:color(display-p3 0.0000 0.4078 0.0000);fill-opacity:1;stroke:#004100;stroke:color(display-p3 0.0000 0.2549 0.0000);stroke-opacity:1;" stroke-width="2.4" stroke-linejoin="round"/>
<path id="Vector_37" fill-rule="evenodd" clip-rule="evenodd" d="M222.2 185C233.2 201.1 231.6 216.3 229.8 235.5C229.5 234 225.8 224.5 225.6 224.5C209.1 214.2 220.1 195 222.2 185Z" fill="#006800" stroke="#004100" style="fill:#006800;fill:color(display-p3 0.0000 0.4078 0.0000);fill-opacity:1;stroke:#004100;stroke:color(display-p3 0.0000 0.2549 0.0000);stroke-opacity:1;" stroke-width="2.4" stroke-linejoin="round"/>
<path id="Vector_38" fill-rule="evenodd" clip-rule="evenodd" d="M231.3 210C258.1 196.4 247.8 179.3 252.7 166C234.1 179.9 231.7 194.6 231.4 210H231.3Z" fill="#006800" stroke="#004100" style="fill:#006800;fill:color(display-p3 0.0000 0.4078 0.0000);fill-opacity:1;stroke:#004100;stroke:color(display-p3 0.0000 0.2549 0.0000);stroke-opacity:1;" stroke-width="2.4" stroke-linejoin="round"/>
<path id="Vector_39" d="M235 206.6C238.4 197.1 245 181 245.7 181M227 226.4C226.4 219.7 223 201.7 222.7 199.9" stroke="#00A400" style="stroke:#00A400;stroke:color(display-p3 0.0000 0.6431 0.0000);stroke-opacity:1;" stroke-width="2.2" stroke-linecap="round"/>
<path id="Vector_40" fill-rule="evenodd" clip-rule="evenodd" d="M228.3 256.5C213.3 255.5 197.3 235.2 193 219.4C193 219.6 198.5 222.8 197.6 223.6C219 233.2 221.2 241.8 228.3 256.5ZM223.9 242.5C212.9 226.4 210.9 214.2 212.6 195C212.9 196.5 216.6 206 216.9 206C233.3 216.3 226 232.5 223.9 242.5ZM233.8 214.2C261.5 201.9 253 189 261.2 175.5C242.6 189.3 234.1 198.9 233.8 214.2Z" fill="#006800" stroke="#004100" style="fill:#006800;fill:color(display-p3 0.0000 0.4078 0.0000);fill-opacity:1;stroke:#004100;stroke:color(display-p3 0.0000 0.2549 0.0000);stroke-opacity:1;" stroke-width="2.4" stroke-linejoin="round"/>
<path id="Vector_41" d="M235 211.4C241.283 205.481 246.434 198.467 250.2 190.7" stroke="#00A400" style="stroke:#00A400;stroke:color(display-p3 0.0000 0.6431 0.0000);stroke-opacity:1;" stroke-width="2.2" stroke-linecap="round"/>
<g id="Group_3">
<path id="Vector_42" fill-rule="evenodd" clip-rule="evenodd" d="M333.6 366.4L347 366.6C302.3 324.6 216.5 306.4 228.4 229.2C216.1 312.9 298.5 320.7 333.6 366.4Z" fill="#FFE100" stroke="#E9BF00" style="fill:#FFE100;fill:color(display-p3 1.0000 0.8824 0.0000);fill-opacity:1;stroke:#E9BF00;stroke:color(display-p3 0.9137 0.7490 0.0000);stroke-opacity:1;" stroke-width="2.4"/>
<path id="Vector_43" fill-rule="evenodd" clip-rule="evenodd" d="M235.4 212.7C235.4 213.84 234.947 214.934 234.141 215.74C233.334 216.547 232.24 217 231.1 217C229.96 217 228.866 216.547 228.059 215.74C227.253 214.934 226.8 213.84 226.8 212.7C226.8 211.559 227.253 210.466 228.059 209.659C228.866 208.853 229.96 208.4 231.1 208.4C232.24 208.4 233.334 208.853 234.141 209.659C234.947 210.466 235.4 211.559 235.4 212.7ZM232.8 236.3C232.8 237.374 232.373 238.404 231.614 239.164C230.854 239.923 229.824 240.35 228.75 240.35C227.676 240.35 226.646 239.923 225.886 239.164C225.127 238.404 224.7 237.374 224.7 236.3C224.7 235.239 225.121 234.222 225.872 233.471C226.622 232.721 227.639 232.3 228.7 232.3C229.761 232.3 230.778 232.721 231.528 233.471C232.279 234.222 232.7 235.239 232.7 236.3H232.8ZM236.6 270C236.6 270.473 236.507 270.941 236.326 271.378C236.145 271.814 235.88 272.211 235.546 272.546C235.211 272.88 234.814 273.145 234.378 273.326C233.941 273.507 233.473 273.6 233 273.6C232.527 273.6 232.059 273.507 231.622 273.326C231.186 273.145 230.789 272.88 230.454 272.546C230.12 272.211 229.855 271.814 229.674 271.378C229.493 270.941 229.4 270.473 229.4 270C229.4 269.045 229.779 268.129 230.454 267.454C231.13 266.779 232.045 266.4 233 266.4C233.955 266.4 234.87 266.779 235.546 267.454C236.221 268.129 236.6 269.045 236.6 270ZM267.9 307.2C267.9 308.155 267.521 309.07 266.846 309.745C266.17 310.421 265.255 310.8 264.3 310.8C263.345 310.8 262.43 310.421 261.754 309.745C261.079 309.07 260.7 308.155 260.7 307.2C260.7 306.245 261.079 305.329 261.754 304.654C262.43 303.979 263.345 303.6 264.3 303.6C265.255 303.6 266.17 303.979 266.846 304.654C267.521 305.329 267.9 306.245 267.9 307.2ZM272.4 317.9C272.4 318.855 272.021 319.77 271.346 320.445C270.67 321.121 269.755 321.5 268.8 321.5C267.845 321.5 266.93 321.121 266.254 320.445C265.579 319.77 265.2 318.855 265.2 317.9C265.2 316.945 265.579 316.029 266.254 315.354C266.93 314.679 267.845 314.3 268.8 314.3C269.755 314.3 270.67 314.679 271.346 315.354C272.021 316.029 272.4 316.945 272.4 317.9Z" fill="#9D4916" stroke="#68300E" style="fill:#9D4916;fill:color(display-p3 0.6157 0.2863 0.0863);fill-opacity:1;stroke:#68300E;stroke:color(display-p3 0.4078 0.1882 0.0549);stroke-opacity:1;" stroke-width="1.1"/>
</g>
<g id="Group_4">
<g id="Group_5">
<path id="Vector_44" fill-rule="evenodd" clip-rule="evenodd" d="M288.2 349C286.161 347.476 284.516 345.488 283.4 343.2L269.4 341.7L269.2 349.7L288.2 349Z" fill="white" stroke="black" style="fill:white;fill-opacity:1;stroke:black;stroke-opacity:1;" stroke-width="1.1"/>
<path id="Vector_45" fill-rule="evenodd" clip-rule="evenodd" d="M185.3 339.6C193.5 341.1 205.8 338.8 209.8 344.1C214.6 349.5 194.7 358 197.5 362.7C203.7 369.2 210 366.5 216.9 362.9C218.6 359.4 219.9 353.1 220.7 351.2C218.2 345.5 211.4 342.6 213.2 333.9C224.5 329.7 246.4 330 248.8 331.7C250.6 335.3 248.9 336.9 249.3 339.8C247.4 343.5 242.6 349.6 242.6 352.9C254.6 357.1 257.6 352.3 268.4 352.5C281 352.7 288.6 356.1 291.4 351.1C289.4 346.7 277.9 350.3 273.6 347.5C271.4 346.8 270 345 268.1 343.1C266.2 341.2 260.9 341.1 260.1 336.2C262.3 326 277.1 327.6 279.4 326L317.8 328.7C324.8 328.5 328.8 341 319.3 344.7C309.9 348.5 282.2 339.2 270.1 345.6C269.5 343 260.8 339 260.2 338.9C256.5 339.9 249.3 339.6 249.3 339.6C247.6 342.8 245.5 345.2 243.8 348.5C235.8 345 228.3 351.2 219.6 349.4L206 350.9L197.4 350.1L184.2 353.9L193.6 345.6L185.3 339.6Z" fill="white" stroke="black" style="fill:white;fill-opacity:1;stroke:black;stroke-opacity:1;" stroke-width="1.1" stroke-linejoin="round"/>
<path id="Vector_46" fill-rule="evenodd" clip-rule="evenodd" d="M184.7 338C184.7 338.955 184.321 339.87 183.646 340.546C182.97 341.221 182.055 341.6 181.1 341.6C180.145 341.6 179.23 341.221 178.554 340.546C177.879 339.87 177.5 338.955 177.5 338C177.5 337.045 177.879 336.129 178.554 335.454C179.23 334.779 180.145 334.4 181.1 334.4C182.055 334.4 182.97 334.779 183.646 335.454C184.321 336.129 184.7 337.045 184.7 338ZM183.7 356C183.7 356.955 183.321 357.87 182.646 358.546C181.97 359.221 181.055 359.6 180.1 359.6C179.145 359.6 178.23 359.221 177.554 358.546C176.879 357.87 176.5 356.955 176.5 356C176.5 355.032 176.885 354.103 177.569 353.419C178.254 352.734 179.182 352.35 180.15 352.35C181.118 352.35 182.046 352.734 182.731 353.419C183.415 354.103 183.8 355.032 183.8 356H183.7Z" fill="white" stroke="black" style="fill:white;fill-opacity:1;stroke:black;stroke-opacity:1;" stroke-width="1.1"/>
</g>
<g id="Group_6">
<path id="Vector_47" fill-rule="evenodd" clip-rule="evenodd" d="M346.3 349.1C348.6 347 350.1 345.6 351 343.3L365 341.7L365.3 349.7L346.3 349.1Z" fill="white" stroke="black" style="fill:white;fill-opacity:1;stroke:black;stroke-opacity:1;" stroke-width="1.1"/>
<path id="Vector_48" fill-rule="evenodd" clip-rule="evenodd" d="M449.1 339.6C441 341.1 428.7 338.9 424.7 344.1C419.8 349.6 439.7 358.1 436.9 362.7C430.7 369.3 424.4 366.6 417.5 363C415.9 359.5 414.6 353.2 413.7 351.3C416.3 345.5 423 342.7 421.3 334C409.9 329.7 388 330 385.7 331.7C383.8 335.4 385.5 337 385.1 339.9C387.1 343.5 391.9 349.7 391.9 352.9C379.9 357.2 376.8 352.3 366.1 352.6C353.5 352.8 345.8 356.1 343.1 351.1C345 346.8 356.5 350.3 360.9 347.6C363.1 346.8 364.5 345.1 366.4 343.1C368.3 341.1 373.6 341.1 374.4 336.3C372.2 326.1 357.4 327.6 355 326.1L316.6 328.7C309.6 328.5 305.7 341 315.1 344.8C324.5 348.6 352.3 339.2 364.3 345.6C365 343 373.6 339.1 374.3 338.9C377.9 340 385.1 339.6 385.1 339.6C386.9 342.9 388.9 345.3 390.7 348.6C398.7 345 406.2 351.3 414.9 349.4L428.4 350.9L437.1 350.2L450.3 353.9L440.9 345.7L449.1 339.7V339.6Z" fill="white" stroke="black" style="fill:white;fill-opacity:1;stroke:black;stroke-opacity:1;" stroke-width="1.1" stroke-linejoin="round"/>
<path id="Vector_49" fill-rule="evenodd" clip-rule="evenodd" d="M449.7 338C449.7 338.968 450.085 339.897 450.769 340.581C451.454 341.266 452.382 341.65 453.35 341.65C454.318 341.65 455.246 341.266 455.931 340.581C456.615 339.897 457 338.968 457 338C457 337.032 456.615 336.104 455.931 335.419C455.246 334.735 454.318 334.35 453.35 334.35C452.382 334.35 451.454 334.735 450.769 335.419C450.085 336.104 449.7 337.032 449.7 338ZM450.7 356C450.7 356.955 451.079 357.871 451.754 358.546C452.429 359.221 453.345 359.6 454.3 359.6C455.255 359.6 456.17 359.221 456.846 358.546C457.521 357.871 457.9 356.955 457.9 356C457.9 355.045 457.521 354.13 456.846 353.454C456.17 352.779 455.255 352.4 454.3 352.4C453.345 352.4 452.429 352.779 451.754 353.454C451.079 354.13 450.7 355.045 450.7 356Z" fill="white" stroke="black" style="fill:white;fill-opacity:1;stroke:black;stroke-opacity:1;" stroke-width="1.1"/>
</g>
<path id="Vector_50" fill-rule="evenodd" clip-rule="evenodd" d="M317 329.3C313.8 328.7 312.6 328.9 310.4 328.7L305.3 344.5C313.3 345.2 320.6 345.2 320.6 345.2C315.8 344.2 316.9 329.4 317 329.3Z" fill="white" style="fill:white;fill-opacity:1;"/>
</g>
<g id="Group_7">
<path id="Vector_51" d="M283.4 340.2V329.5H285.2V338.5H290.2V340.2H283.4Z" fill="black" style="fill:black;fill-opacity:1;"/>
<path id="Vector_52" d="M291.7 340.7V330H293.6V340.7H291.7Z" fill="black" style="fill:black;fill-opacity:1;"/>
<path id="Vector_53" d="M300 341.5H296.7V331L299.9 330.8C301.033 330.8 301.867 331.033 302.4 331.5C303.067 332.033 303.4 332.733 303.4 333.6C303.4 334.4 302.967 335.066 302.1 335.6C303.433 336.066 304.1 337.033 304.1 338.5C304.1 339.5 303.7 340.266 302.9 340.8C302.233 341.333 301.3 341.6 300.1 341.6L300 341.5ZM298.7 332.4V334.9H299.7C300.833 334.9 301.4 334.433 301.4 333.5C301.4 332.766 300.833 332.4 299.7 332.4H298.7ZM298.7 336.4V339.9H299.7C300.5 339.9 301.067 339.766 301.4 339.5C301.867 339.3 302.1 338.866 302.1 338.2C302.1 337.533 301.933 337.1 301.6 336.9C301.267 336.566 300.633 336.4 299.7 336.4H298.7Z" fill="black" style="fill:black;fill-opacity:1;"/>
<path id="Vector_54" d="M308.6 333V335.7H312V337.4H308.6V340.5H313.6V342.2H306.7V331.5H313.4V333.2L308.6 333Z" fill="black" style="fill:black;fill-opacity:1;"/>
<path id="Vector_55" d="M322.2 342.4L319.4 337.9H318V342.4H316.2V331.7H317.4L319 331.5C321.8 331.5 323.2 332.567 323.2 334.7C323.2 335.367 323.033 335.933 322.7 336.4C322.233 336.933 321.733 337.3 321.2 337.5L324.5 342.4H322.2ZM318 333.4V336.2H318.9L320.5 336C320.967 335.8 321.2 335.367 321.2 334.7C321.2 334.167 321.033 333.767 320.7 333.5C320.233 333.3 319.567 333.2 318.7 333.2H318V333.4Z" fill="black" style="fill:black;fill-opacity:1;"/>
<path id="Vector_56" d="M329.9 333V342H327.9V333H324.5V331.4H333.4V333H329.9Z" fill="black" style="fill:black;fill-opacity:1;"/>
<path id="Vector_57" d="M340.7 340.5L339.9 338.4H336.2L335.5 340.5H333.4L337.7 329.7H338.5L342.9 340.5H340.7ZM338 333L336.9 337H339.4L338 333Z" fill="black" style="fill:black;fill-opacity:1;"/>
<path id="Vector_58" d="M344.4 339.7L345 338C345.8 338.467 346.533 338.7 347.2 338.7C348.333 338.7 348.9 338.3 348.9 337.5L348.5 336.5L346.9 335.4L345.2 334.4L344.5 333.4L344.4 332.2C344.4 331.333 344.667 330.6 345.2 330C345.867 329.6 346.633 329.4 347.5 329.4C348.767 329.4 349.733 329.6 350.4 330L349.7 331.7C349.033 331.167 348.3 330.9 347.5 330.9C347.1 330.9 346.767 331 346.5 331.2C346.3 331.4 346.2 331.733 346.2 332.2C346.2 332.733 346.867 333.333 348.2 334C349 334.333 349.567 334.667 349.9 335L350.5 336L350.7 337.4C350.7 338.267 350.367 338.967 349.7 339.5C349.033 340.033 348.133 340.333 347 340.4C345.867 340.467 345 340.167 344.4 339.5V339.7Z" fill="black" style="fill:black;fill-opacity:1;"/>
</g>
<path id="Vector_59" d="M231.3 318.6C241.4 319.8 255.4 318.9 261.5 318.6M216 284.2C224.6 290.9 243.1 294.9 242.8 294.9M253.5 296.7C250.7 282.7 247.7 279.3 245.2 270.5M201.7 254.7C216 261.1 218.2 265.3 227.3 271.7M232.5 257.7C233.7 240.4 236.1 235.8 240.4 231.8M201.7 229.8C206.9 235.5 223.9 253.5 223.9 253.5M216.9 213.9C223.3 218.4 223.3 234.9 223.3 234.9" stroke="#00A400" style="stroke:#00A400;stroke:color(display-p3 0.0000 0.6431 0.0000);stroke-opacity:1;" stroke-width="2.2" stroke-linecap="round"/>
</g>
<defs>
<clipPath id="clip0_2194_9348">
<rect width="640" height="480" fill="white" style="fill:white;fill-opacity:1;"/>
</clipPath>
</defs>
</svg>
