<svg width="640" height="480" viewBox="0 0 640 480" fill="none" xmlns="http://www.w3.org/2000/svg">
<g id="sx" clip-path="url(#clip0_2194_10387)">
<g id="Clip path group">
<mask id="mask0_2194_10387" style="mask-type:luminance" maskUnits="userSpaceOnUse" x="0" y="0" width="641" height="480">
<g id="sx-a">
<path id="Vector" d="M0 0H640.031V480H0V0Z" fill="white" style="fill:white;fill-opacity:1;"/>
</g>
</mask>
<g mask="url(#mask0_2194_10387)">
<g id="Group">
<path id="Vector_2" fill-rule="evenodd" clip-rule="evenodd" d="M0 0H720V240H319.969L0 0Z" fill="#ED2939" style="fill:#ED2939;fill:color(display-p3 0.9294 0.1608 0.2235);fill-opacity:1;"/>
<path id="Vector_3" fill-rule="evenodd" clip-rule="evenodd" d="M0 480H720V240H319.969L0 480Z" fill="#002395" style="fill:#002395;fill:color(display-p3 0.0000 0.1373 0.5843);fill-opacity:1;"/>
<path id="Vector_4" fill-rule="evenodd" clip-rule="evenodd" d="M0 0L319.969 240L0 480V0Z" fill="white" style="fill:white;fill-opacity:1;"/>
<path id="Vector_5" d="M161.531 181.125L161.625 177.375C161.625 177.375 159.656 174.187 162 170.812C162 170.812 157.031 168.188 158.25 164.063C158.25 164.063 153.75 162.938 154.031 158.063C154.031 158.063 149.344 157.781 148.781 153.656C148.781 153.656 144 154.406 141.844 150.469C141.844 150.469 137.156 151.406 135.844 148.125C135.844 148.125 131.25 149.625 128.625 145.781C128.625 145.781 123.75 147.75 121.781 144.094C119.812 147.75 114.938 145.781 114.938 145.781C112.313 149.625 107.719 148.031 107.719 148.031C106.406 151.312 101.813 150.375 101.813 150.375C99.6563 154.406 94.875 153.563 94.875 153.563C94.4062 157.688 89.625 158.063 89.625 158.063C89.7603 159.389 89.4198 160.721 88.6643 161.82C87.9087 162.919 86.7873 163.714 85.5 164.063C86.7187 168.094 81.75 170.719 81.75 170.719C84.1875 174.188 82.2188 177.281 82.2188 177.281L82.125 180.75L161.531 181.125Z" fill="#FFFF00" style="fill:#FFFF00;fill:color(display-p3 1.0000 1.0000 0.0000);fill-opacity:1;"/>
<path id="Vector_6" d="M161.646 181.103V177.343C161.646 177.343 159.711 174.119 162.076 170.896C162.076 170.896 157.132 168.21 158.314 164.127C158.314 164.127 153.8 163.052 154.122 158.11C154.122 158.11 149.286 157.787 148.749 153.704C148.749 153.704 144.02 154.456 141.978 150.481C141.978 150.481 137.249 151.341 135.959 148.117C135.959 148.117 131.338 149.729 128.651 145.861C128.651 145.861 123.814 147.795 121.88 144.142C119.838 147.795 115.001 145.861 115.001 145.861C112.422 149.621 107.801 148.01 107.801 148.01C106.511 151.341 101.89 150.481 101.89 150.481C99.74 154.456 94.9037 153.704 94.9037 153.704C94.4738 157.68 89.6374 158.002 89.6374 158.002C89.8392 159.32 89.5439 160.665 88.809 161.777C88.0742 162.889 86.9521 163.688 85.6608 164.019C86.7355 168.102 81.8992 170.681 81.8992 170.681C84.2636 174.119 82.2216 177.343 82.2216 177.343V180.781L161.646 181.103Z" stroke="black" style="stroke:black;stroke-opacity:1;" stroke-width="0.322383"/>
<path id="Vector_7" d="M159.656 176.437C147.188 175.219 132.844 172.219 121.781 178.5C114.281 174.094 103.969 174.375 95.1562 175.219C90.375 176.156 84.75 176.156 79.6875 176.906L78.9375 177C69.8437 177.656 61.5938 174.937 53.625 171.375C56.25 185.625 58.9688 200.156 60.375 215.062C63.375 237.187 49.9687 255.656 55.3125 277.5C58.5937 288 70.125 294.094 80.625 295.312C90.7796 295.955 100.871 297.365 110.812 299.531C112.582 299.967 114.308 300.563 115.969 301.312C118.31 302.344 120.416 303.843 122.156 305.719C127.781 299.813 136.219 298.125 144.375 297.281C159.188 295.5 177.469 296.437 186.563 283.031V282.281C191.531 274.781 190.875 263.531 188.719 255.094C188.531 252.188 187.781 249.563 187.313 246.75C178.313 222.844 186.094 195.937 189.938 171.75C185.083 174.19 179.906 175.927 174.562 176.906C170.344 177.469 165.656 177.281 161.438 177L159.656 176.437Z" fill="#FF0000" style="fill:#FF0000;fill:color(display-p3 1.0000 0.0000 0.0000);fill-opacity:1;"/>
<path id="Vector_8" d="M178.312 245.156C178.312 246.656 179.156 247.969 179.437 249.375C181.219 259.875 182.813 273.75 172.125 280.219C160.125 287.719 144.562 284.531 130.781 288.562C127.969 289.312 124.219 291.844 122.344 293.625C121.031 292.781 119.812 291.563 118.219 290.813C106.875 284.813 92.0625 286.781 79.3125 283.5C72.8437 281.531 66.1875 276.469 64.5 269.906C60.375 252.656 70.3125 237.937 69.1875 220.781C68.4375 207.656 66.1875 195.188 63.1875 182.906C73.2187 187.594 84.75 188.344 96 186.094C104.678 184.52 113.621 185.33 121.875 188.437C126.187 186.562 131.25 185.719 135.937 185.25C144.656 186.188 154.125 187.687 163.219 187.687C169.281 187.187 174.906 185.719 180.094 183.281C177 203.531 170.906 224.719 178.312 245.156Z" fill="#80CFE1" style="fill:#80CFE1;fill:color(display-p3 0.5020 0.8118 0.8824);fill-opacity:1;"/>
<path id="Vector_9" d="M160.312 249.187V230.062H162.562L133.5 211.312L133.406 201.469H136.219L121.594 191.156L107.156 201.469H109.969V211.312L81 230.062H83.3438V249.094H160.312" fill="white" style="fill:white;fill-opacity:1;"/>
<path id="Vector_10" d="M160.356 249.225V230.099H162.613L133.595 211.296L133.487 201.626H136.282L121.665 191.096L107.156 201.518H109.95L110.058 211.296L81.0396 230.099H83.404V249.117L160.356 249.225Z" stroke="black" style="stroke:black;stroke-opacity:1;" stroke-width="1.28953"/>
<path id="Vector_11" d="M169.313 274.219V280.125H75.4688V274.125L169.313 274.219Z" fill="white" style="fill:white;fill-opacity:1;"/>
<path id="Vector_12" d="M169.384 274.26V280.169H75.4507V274.152H169.384V274.26Z" stroke="black" style="stroke:black;stroke-opacity:1;" stroke-width="1.28953"/>
<path id="Vector_13" d="M81.6562 273.844V253.688H85.4062L85.2187 274.031L85.4062 253.781L79.9688 253.688V249.281L163.781 249.469V253.688H158.719V274.125L158.625 253.688H162.375L162.562 273.938" fill="white" style="fill:white;fill-opacity:1;"/>
<path id="Vector_14" d="M81.6844 273.83V253.63H85.446L85.2311 274.045L85.446 253.845L80.0723 253.63V249.332L163.903 249.44V253.737H158.744L158.851 274.152L158.636 253.737H162.506L162.613 273.937" stroke="black" style="stroke:black;stroke-opacity:1;" stroke-width="1.28953"/>
<path id="Vector_15" d="M99.74 268.888V254.812H88.3477V268.78L99.6325 268.888" stroke="black" style="stroke:black;stroke-opacity:1;" stroke-width="1.28953"/>
<path id="Vector_16" d="M91.5721 257.713V265.879H96.7309V257.713H91.4646M154.875 268.888L154.767 254.919H143.59V268.888H154.875Z" stroke="black" style="stroke:black;stroke-opacity:1;" stroke-width="1.28953"/>
<path id="Vector_17" d="M146.599 257.82V265.986H151.758V257.82H146.599ZM154.767 246.001V232.033H143.482V246.001H154.767Z" stroke="black" style="stroke:black;stroke-opacity:1;" stroke-width="1.28953"/>
<path id="Vector_18" d="M146.492 234.934V243.1H151.65V234.934H146.492ZM99.6325 246.001V231.926H88.3477V245.894H99.6325V246.001Z" stroke="black" style="stroke:black;stroke-opacity:1;" stroke-width="1.28953"/>
<path id="Vector_19" d="M120.053 246.001V231.926H108.768V245.894H120.053M91.4646 234.827V242.993H96.6234V234.827H91.4646Z" stroke="black" style="stroke:black;stroke-opacity:1;" stroke-width="1.28953"/>
<path id="Vector_20" d="M111.777 234.827V242.993H116.936V234.827H111.777ZM135.744 246.001V232.033L124.459 231.926V245.894L135.744 246.001Z" stroke="black" style="stroke:black;stroke-opacity:1;" stroke-width="1.28953"/>
<path id="Vector_21" d="M127.469 234.827V242.993H132.735V234.827H127.469Z" stroke="black" style="stroke:black;stroke-opacity:1;" stroke-width="1.28953"/>
<path id="Vector_22" d="M138.469 241.688L138.656 274.125H105.937L105.844 241.688H138.469Z" fill="white" style="fill:white;fill-opacity:1;"/>
<path id="Vector_23" d="M105.759 250.944H138.646M109.843 274.152V251.159M134.669 274.152V251.266M138.539 241.703L138.646 274.152H106.081L105.974 241.703H138.539ZM150.468 227.843L132.197 214.519H111.455L93.1841 227.843H150.468ZM113.067 203.345V211.511H130.478V203.345H113.067Z" stroke="black" style="stroke:black;stroke-opacity:1;" stroke-width="1.28953"/>
<path id="Vector_24" d="M121.665 193.89L131.338 200.766H112.1L121.772 193.89M117.796 205.386V209.469H125.749V205.386H117.796Z" stroke="black" style="stroke:black;stroke-opacity:1;" stroke-width="1.28953"/>
<path id="Vector_25" d="M160.688 189.375C163.406 189.375 164.063 200.625 164.063 206.25C166.5 207 171.656 210.281 174 213.187H147.562C149.813 210.281 154.969 207 157.313 206.344C157.313 200.719 157.875 189.281 160.688 189.469" fill="white" style="fill:white;fill-opacity:1;"/>
<path id="Vector_26" d="M128.866 242.563H131.23L130.478 243.96C130.478 243.96 131.66 245.357 130.478 247.076L131.123 248.15H128.973L129.511 247.076C129.511 247.076 128.436 245.142 129.511 243.852L128.866 242.67M160.678 189.377C163.473 189.377 164.118 200.659 164.118 206.353C166.482 206.998 171.748 210.329 174.005 213.23H147.566C149.823 210.329 155.09 206.998 157.347 206.353C157.347 200.659 157.992 189.377 160.678 189.377ZM107.478 242.563H109.843L109.198 243.852C109.198 243.852 110.273 245.357 109.198 247.076L109.843 248.15H107.478L108.123 247.076C108.123 247.076 107.048 245.142 108.123 243.852L107.478 242.563ZM112.315 242.563H114.679L114.034 243.852C114.034 243.852 115.109 245.357 114.034 247.076L114.679 248.15H112.315L112.96 247.076C112.96 247.076 111.885 245.142 112.96 243.852L112.315 242.563ZM117.688 242.563H119.945L119.301 243.852C119.301 243.852 120.375 245.357 119.301 247.076L119.945 248.15H117.688L118.226 247.076C118.226 247.076 117.151 245.142 118.226 243.852L117.581 242.563H117.688ZM123.6 242.563H125.964L125.212 243.96C125.212 243.96 126.394 245.357 125.212 247.076L125.857 248.15H123.6L124.244 247.076C124.244 247.076 123.17 245.142 124.244 243.852L123.6 242.563ZM134.132 242.67H136.497L135.744 243.96C135.744 243.96 136.926 245.357 135.744 247.076L136.389 248.15H134.24L134.777 247.076C134.777 247.076 133.702 245.142 134.777 243.852L134.132 242.67Z" stroke="black" style="stroke:black;stroke-opacity:1;" stroke-width="1.28953"/>
<path id="Vector_27" d="M122.344 315.75C134.531 315.75 149.531 313.219 156.562 309.656L172.031 308.25L172.406 327.094C159.281 334.312 129.094 335.906 122.438 335.812C115.781 335.719 85.2188 334.312 72 327.094L72.1875 308.156L87.6562 309.562C98.7113 313.844 110.49 315.945 122.344 315.75Z" fill="#FFFF00" style="fill:#FFFF00;fill:color(display-p3 1.0000 1.0000 0.0000);fill-opacity:1;"/>
<path id="Vector_28" d="M122.417 315.734C134.669 315.734 149.608 313.263 156.702 309.61L172.071 308.32L172.393 327.124C159.389 334.322 129.081 335.934 122.525 335.827C115.969 335.719 85.2309 334.322 72.0115 327.016L72.2264 308.213L87.7028 309.61C94.7962 313.263 110.273 315.734 122.417 315.734Z" stroke="black" style="stroke:black;stroke-opacity:1;" stroke-width="0.322383"/>
<path id="Vector_29" d="M32.25 235.312L45.8438 239.625L41.7188 261.656L28.875 263.719C28.875 263.719 26.7188 252.094 32.25 235.312Z" fill="#FFFF00" style="fill:#FFFF00;fill:color(display-p3 1.0000 1.0000 0.0000);fill-opacity:1;"/>
<path id="Vector_30" d="M32.3533 235.364L45.8952 239.662L41.8112 261.688L28.9141 263.73C28.9141 263.73 26.7646 252.126 32.3533 235.364Z" stroke="black" style="stroke:black;stroke-opacity:1;" stroke-width="0.322383"/>
<path id="Vector_31" d="M41.7188 261.469L28.875 263.719L37.0313 252.094L41.7188 261.469Z" fill="#7E7E7E" style="fill:#7E7E7E;fill:color(display-p3 0.4941 0.4941 0.4941);fill-opacity:1;"/>
<path id="Vector_32" d="M41.8111 261.474L28.9141 263.623L37.0822 252.126L41.8111 261.474Z" stroke="black" style="stroke:black;stroke-opacity:1;" stroke-width="0.322383"/>
<path id="Vector_33" d="M24.0938 251.25L37.2188 252.188C37.5 263.25 38.9063 305.625 89.5313 307.969L87.9375 323.438C26.3438 324 21.6563 271.406 24.1875 251.25" fill="#FFFF00" style="fill:#FFFF00;fill:color(display-p3 1.0000 1.0000 0.0000);fill-opacity:1;"/>
<path id="Vector_34" d="M72.334 326.586L87.8104 323.256M24.1852 251.266L37.2972 252.126C37.6196 263.3 38.9093 305.634 89.6375 307.998L88.0254 323.47C26.3347 324.115 21.7133 271.466 24.1852 251.266Z" stroke="black" style="stroke:black;stroke-opacity:1;" stroke-width="0.322383"/>
<path id="Vector_35" d="M211.312 235.5L197.812 239.813L202.125 261.75L215.062 263.812C215.062 263.812 217.125 252.281 211.312 235.5Z" fill="#FFFF00" style="fill:#FFFF00;fill:color(display-p3 1.0000 1.0000 0.0000);fill-opacity:1;"/>
<path id="Vector_36" d="M211.407 235.471L197.865 239.769L202.164 261.796L215.061 263.945C215.061 263.945 217.21 252.341 211.407 235.471Z" stroke="black" style="stroke:black;stroke-opacity:1;" stroke-width="0.322383"/>
<path id="Vector_37" d="M202.125 261.562L214.969 263.906L206.719 252.281L202.031 261.562" fill="#7E7E7E" style="fill:#7E7E7E;fill:color(display-p3 0.4941 0.4941 0.4941);fill-opacity:1;"/>
<path id="Vector_38" d="M202.164 261.581L215.061 263.837L206.785 252.341L202.164 261.581Z" stroke="black" style="stroke:black;stroke-opacity:1;" stroke-width="0.322383"/>
<path id="Vector_39" d="M219.656 251.344L206.531 252.281C206.344 263.344 205.313 305.719 154.688 308.062L156.563 323.437C218.156 324.187 222.375 271.5 219.75 251.344" fill="#FFFF00" style="fill:#FFFF00;fill:color(display-p3 1.0000 1.0000 0.0000);fill-opacity:1;"/>
<path id="Vector_40" d="M172.178 326.586L156.702 323.363M219.682 251.374L206.57 252.233C206.355 263.408 205.496 305.849 154.767 308.105L156.487 323.47C218.178 324.222 222.369 271.574 219.682 251.481V251.374Z" stroke="black" style="stroke:black;stroke-opacity:1;" stroke-width="0.322383"/>
<path id="Vector_41" d="M114.187 325.031C113.75 325.219 113.281 325.281 112.781 325.219L110.344 325.125L110.531 322.031L112.969 322.219C113.469 322.219 113.844 322.312 114.094 322.5C114.531 322.687 114.75 323.125 114.75 323.812C114.75 324.375 114.531 324.781 114.094 325.031M110.062 329.719L110.25 326.062L113.062 326.25C114 326.312 114.719 326.094 115.219 325.594C115.719 325.219 115.969 324.656 115.969 323.906C116.012 323.234 115.812 322.569 115.406 322.031C114.91 321.523 114.24 321.222 113.531 321.187L109.406 320.906L108.844 329.719H110.062ZM118.875 322.5H121.875L122.906 322.687C123.344 322.937 123.562 323.375 123.562 324C123.562 324.625 123.406 325.031 123.094 325.219C122.685 325.417 122.235 325.514 121.781 325.5H118.875V322.5ZM118.875 330.187V326.437L121.687 326.531C122.187 326.531 122.562 326.594 122.812 326.719C123.25 326.906 123.469 327.281 123.469 327.844V330L123.656 330.281H125.156V330.094L124.781 329.625L124.687 328.875V327.656C124.687 327.094 124.562 326.719 124.312 326.531L123.562 325.969C124 325.781 124.312 325.531 124.5 325.219C124.687 324.906 124.812 324.469 124.875 323.906C124.875 322.906 124.437 322.219 123.562 321.844L121.875 321.469H117.656V330.281L118.875 330.187ZM128.25 328.312C127.713 327.605 127.388 326.76 127.312 325.875C127.312 324.625 127.562 323.687 128.062 323.062C128.343 322.747 128.691 322.5 129.081 322.337C129.47 322.175 129.891 322.102 130.312 322.125C130.719 322.079 131.132 322.122 131.52 322.251C131.909 322.381 132.265 322.594 132.562 322.875C133.187 323.5 133.531 324.312 133.594 325.312C133.666 326.224 133.471 327.136 133.031 327.937C132.594 328.75 131.812 329.156 130.687 329.156C129 329.156 128.812 328.969 128.156 328.312M126.75 322.781C126.207 323.719 125.947 324.793 126 325.875C126.062 327.187 126.5 328.25 127.312 329.062C127.767 329.477 128.3 329.798 128.879 330.008C129.458 330.217 130.072 330.31 130.687 330.281C131.333 330.307 131.975 330.165 132.55 329.869C133.125 329.573 133.614 329.134 133.969 328.594C134.632 327.597 134.961 326.415 134.906 325.219C134.874 324.15 134.477 323.125 133.781 322.312C132.969 321.375 131.75 320.937 130.125 321C128.625 321 127.5 321.594 126.75 322.781ZM168 310.125C168.937 310 169.719 310.031 170.344 310.219C171.281 310.531 171.969 311.25 172.406 312.375L171.187 312.562C171.106 312.287 170.962 312.033 170.767 311.822C170.572 311.611 170.331 311.447 170.062 311.344C169.464 311.123 168.818 311.058 168.187 311.156C167.808 311.22 167.446 311.362 167.124 311.571C166.801 311.781 166.525 312.054 166.312 312.375C165.812 313 165.656 313.937 165.844 315.187C165.973 316.092 166.364 316.94 166.969 317.625C167.594 318.187 168.406 318.406 169.406 318.281C170.143 318.198 170.816 317.827 171.281 317.25C171.781 316.687 171.937 315.906 171.75 314.906L168.937 315.375L168.844 314.437L172.781 313.781L173.531 318.469H172.687L172.219 317.531L171.281 318.469C170.781 318.906 170.156 319.187 169.406 319.312C168.888 319.421 168.353 319.419 167.836 319.306C167.319 319.192 166.832 318.971 166.406 318.656C165.911 318.271 165.498 317.791 165.192 317.243C164.886 316.696 164.693 316.092 164.625 315.469C164.466 314.833 164.442 314.17 164.555 313.524C164.668 312.878 164.916 312.263 165.281 311.719C165.601 311.26 166.02 310.879 166.507 310.603C166.994 310.327 167.536 310.164 168.094 310.125M176.906 309.469L179.719 308.437C180.094 308.312 180.437 308.25 180.75 308.25C181.312 308.25 181.687 308.562 181.875 309.187C182.062 309.812 182.062 310.281 181.875 310.594C181.625 310.906 181.219 311.156 180.656 311.344L178.031 312.281L176.906 309.469ZM179.719 316.687L178.406 313.219L181.031 312.281L182.062 312C182.562 312.062 182.937 312.375 183.187 312.937L183.75 314.25L184.031 314.906L184.219 315.187L185.625 314.625V314.437C185.312 314.437 185.125 314.312 185.062 314.062C184.875 313.937 184.75 313.719 184.687 313.406L184.219 312.281C184.031 311.844 183.812 311.531 183.562 311.344L182.625 311.156L183.187 310.031C183.187 309.656 183.125 309.219 183 308.719C182.625 307.719 182 307.219 181.125 307.219C180.519 307.196 179.914 307.292 179.344 307.5L175.406 308.906L178.594 317.156L179.719 316.781M190.031 312.375L185.062 305.062L190.5 301.5L191.156 302.437L186.656 305.25L188.156 307.5L192.375 304.875L192.937 305.719L188.719 308.344L190.406 310.875L195.094 307.875L195.656 308.812L190.031 312.375ZM194.437 299.437L195.844 297.844C196.594 297.094 197.312 296.781 198 296.906C198.812 296.906 199.625 297.312 200.437 298.125C201.023 298.632 201.474 299.276 201.75 300C201.875 300.562 201.875 301.062 201.75 301.5L201.094 302.437L199.687 303.937L194.437 299.437ZM202.031 302.812C203.031 301.75 203.25 300.5 202.687 299.062C202.289 298.309 201.748 297.64 201.094 297.094C200.308 296.33 199.28 295.866 198.187 295.781C197.062 295.656 196.094 296.062 195.281 297L192.844 299.625L199.594 305.531L202.031 302.906M207.281 296.062L199.5 291.375L200.156 290.437L207.937 295.031L207.281 296.062ZM210.375 290.813L201.937 287.437L204.375 281.531L205.406 281.906L203.437 286.781L205.969 287.719L207.844 283.313L208.781 283.687L206.906 288.187L209.719 289.312L211.875 284.437L212.812 284.812L210.375 290.813ZM214.125 280.5L205.312 278.625L205.687 277.219L213.844 274.406L206.625 272.812L206.906 271.781L215.719 273.656L215.437 274.969L207.281 277.781L214.5 279.375L214.125 280.5ZM213.375 269.25L213.469 268.125C213.969 268.125 214.406 268.062 214.781 267.937C215.406 267.562 215.781 266.906 215.906 265.969L215.812 264.656C215.625 263.969 215.219 263.594 214.594 263.531C213.969 263.469 213.594 263.562 213.469 263.812C213.219 264.062 213 264.531 212.812 265.219L212.344 266.344C212.156 267.094 211.906 267.625 211.594 267.937C211.219 268.5 210.656 268.719 209.906 268.594C209.184 268.535 208.512 268.199 208.031 267.656C207.469 267.031 207.25 266.219 207.375 265.219C207.437 264.281 207.75 263.531 208.312 262.969C208.812 262.344 209.562 262.094 210.562 262.219L210.469 263.344C209.969 263.344 209.594 263.438 209.344 263.625C208.781 263.938 208.469 264.531 208.406 265.406C208.344 266.031 208.469 266.531 208.781 266.906C209.094 267.281 209.406 267.469 209.719 267.469C210.219 267.531 210.562 267.406 210.75 267.094L211.406 265.5L211.781 264.281C211.969 263.719 212.219 263.281 212.531 262.969C213.031 262.531 213.656 262.312 214.406 262.312C215.469 262.437 216.156 262.875 216.469 263.625C216.781 264.375 216.937 265.219 216.937 266.156C216.876 267.08 216.475 267.948 215.812 268.594C215.187 269.156 214.375 269.375 213.375 269.25ZM29.9999 268.781L30.2812 269.906C29.7187 269.969 29.3124 270.156 29.0624 270.469C28.5624 270.969 28.4062 271.719 28.5937 272.719L28.9687 273.844C29.3437 274.469 29.8749 274.75 30.5624 274.687C30.9999 274.625 31.3124 274.406 31.4999 274.031L31.7812 272.531V271.312C31.7812 270.5 31.8749 269.937 32.0624 269.625C32.3749 269.062 32.9062 268.687 33.6562 268.5C34.4687 268.375 35.1562 268.562 35.7187 269.062C36.3437 269.437 36.7499 270.125 36.9374 271.125C37.1197 271.946 37.0206 272.805 36.6562 273.562C36.3437 274.25 35.6874 274.688 34.6874 274.875L34.4999 273.844L35.4374 273.281C35.8749 272.844 36.0312 272.187 35.9062 271.312C35.7812 270.562 35.5312 270.094 35.1562 269.906C34.8203 269.696 34.4265 269.598 34.0312 269.625C33.8244 269.616 33.6203 269.675 33.4507 269.793C33.2811 269.912 33.1556 270.084 33.0937 270.281L32.9999 271.969L32.9062 273.187L32.5312 274.687C32.3943 275.003 32.1732 275.275 31.8921 275.474C31.611 275.672 31.2807 275.789 30.9374 275.813C29.9374 276 29.1562 275.75 28.5937 275.062C28.0207 274.429 27.6317 273.651 27.4687 272.812C27.2738 271.88 27.4414 270.908 27.9374 270.094C28.1703 269.751 28.4759 269.464 28.8324 269.254C29.189 269.043 29.5876 268.914 29.9999 268.875M29.4374 280.406L38.1562 277.781L40.1249 283.875L39.0937 284.25L37.4062 279.281L34.7812 280.031L36.3749 284.719L35.3437 285L33.8437 280.312L30.8437 281.25L32.5312 286.312L31.5937 286.594L29.4374 280.406ZM33.2812 291L41.2499 286.781L42.1874 288.281L36.6562 294L44.6249 292.687L45.4687 294.094L37.4999 298.312L36.9374 297.375L41.6249 294.844L42.4687 294.469L43.6874 293.812L35.7187 295.219L35.1562 294.187L40.5937 288.375L40.3124 288.562L39.3749 289.031L38.5312 289.5L33.8437 291.937L33.2812 291ZM48.0937 302.719C47.7187 302.594 47.3437 302.344 46.9687 301.969L45.2812 300.281L47.5312 298.219L49.2187 299.906L49.8749 300.844C50.0624 301.344 49.9062 301.812 49.4062 302.25C48.9062 302.687 48.4687 302.844 48.0937 302.719ZM41.7187 303.469L44.5312 300.937L46.4062 302.906C47.1562 303.531 47.8437 303.844 48.4687 303.844C49.165 303.834 49.8331 303.567 50.3437 303.094C50.8172 302.583 51.0844 301.915 51.0937 301.219C51.0937 300.594 50.8124 300 50.2499 299.437L47.4374 296.625L40.8749 302.625L41.7187 303.469ZM49.5937 310.5L54.3749 303L59.9999 306.375L59.4374 307.312L54.7499 304.5L53.3437 306.844L57.5624 309.375L57.0937 310.312L52.7812 307.687L51.1874 310.219L55.8749 313.031L55.3124 313.969L49.5937 310.5ZM63.6562 309L66.5624 309.937L67.4999 310.406C67.8749 310.781 67.9374 311.25 67.6874 311.812C67.5624 312.437 67.2812 312.781 66.8437 312.844L65.4374 312.75L62.7187 311.812L63.6562 309ZM61.2187 316.406L62.4374 312.844L65.0624 313.687C65.5624 313.812 65.9062 313.969 66.0937 314.156C66.4062 314.469 66.4999 314.906 66.3749 315.469L65.9062 316.875L65.8124 317.531V317.812L67.2187 318.281V318.094L67.0312 317.437L67.2187 316.781L67.5937 315.656C67.7187 315.094 67.7187 314.719 67.5937 314.531C67.5937 314.219 67.4062 313.937 67.0312 313.687C67.5312 313.687 67.9374 313.531 68.2499 313.219C68.5624 312.906 68.7812 312.531 68.9062 312.094C69.2812 311.156 69.0937 310.375 68.3437 309.75L66.8437 308.906L62.8124 307.687L59.9999 316.031L61.2187 316.406Z" fill="#009FC5" style="fill:#009FC5;fill:color(display-p3 0.0000 0.6235 0.7725);fill-opacity:1;"/>
<path id="Vector_42" d="M73.5938 164.625C74.5313 162.094 84.1876 155.25 115.594 158.25C115.594 158.25 120.938 161.531 124.031 161.062C125.906 160.875 123.094 161.25 120.656 159.281C118.313 157.406 117.844 153.375 123.188 153.562C128.625 153.656 148.781 154.781 149.156 156.656C149.531 158.531 138.469 159.187 134.438 159.094C130.313 159 130.688 161.062 134.813 160.969C147.656 160.406 161.625 155.906 176.344 166.406C178.125 167.625 171.938 167.812 167.156 165.844C167.156 165.844 154.031 166.5 148.406 165.562C148.406 165.562 144.188 169.125 138.469 168.75C139.219 170.625 136.406 177.375 118.781 172.219C115.781 173.156 105.188 174.937 106.313 171.75C103.5 171.75 98.6251 172.687 97.8751 171.094C97.1251 169.5 106.5 167.156 108.188 165.469C108.188 165.469 88.3126 165.656 84.5626 164.25C84.5626 164.25 72.8438 166.875 73.5938 164.625Z" fill="#BC715F" style="fill:#BC715F;fill:color(display-p3 0.7373 0.4431 0.3725);fill-opacity:1;"/>
<path id="Vector_43" d="M79.9688 192.375C80.3438 191.812 80.5313 190.687 81.4688 190.781C83.3438 191.25 84.7501 194.906 87.0938 192.562C88.0313 192.375 88.3126 193.5 88.9688 193.688C89.4376 195.656 91.1251 193.219 92.2501 193.406C94.9376 192.281 97.8751 191.969 101.063 192.469C101.063 194.531 99.5626 196.687 97.6876 197.812C97.6876 199.687 99.5626 201 99.4688 202.969C99.1876 203.719 99.4688 204.844 98.3438 205.125C96.8438 204.844 95.5313 204.75 94.3126 203.906C94.1876 203.719 94.0001 203.625 93.7501 203.625C93.5626 204.281 94.6876 204.938 95.0626 205.594C94.3126 206.813 93.1876 205.687 92.1563 205.687C91.8751 206.437 92.1563 207.281 91.4063 207.75C90.1876 207.75 89.9063 206.344 89.1563 205.687C88.3126 206.531 89.7188 207 89.9063 207.656C89.3438 210.281 89.4376 212.813 86.9063 214.5L85.1251 215.344C84.6563 214.031 84.9376 212.062 84.6563 210.656C83.7813 212.344 82.6876 213.875 81.3751 215.25C79.5001 214.688 78.5626 212.625 78.1876 210.844C77.8283 209.858 77.752 208.791 77.9673 207.764C78.1827 206.736 78.6812 205.79 79.4063 205.031C78.9376 204.094 77.0626 204.281 76.7813 202.781C73.9688 200.906 72.5626 205.875 70.7813 203.344C70.5347 202.092 70.5753 200.8 70.9001 199.566C71.2248 198.332 71.8253 197.187 72.6563 196.219C72.1876 195.281 70.8751 195.469 70.1251 194.906C68.4376 193.406 65.9063 191.906 66.0938 189.281C68.4469 188.429 70.9944 188.268 73.4361 188.816C75.8778 189.364 78.1119 190.599 79.8751 192.375" fill="#008737" style="fill:#008737;fill:color(display-p3 0.0000 0.5294 0.2157);fill-opacity:1;"/>
<path id="Vector_44" d="M82.4062 192.094C82.3124 194.25 83.8124 192.656 85.0312 193.969C84.0937 193.594 83.4374 195.563 82.4999 194.438L81.9374 195C82.3124 195.75 82.8749 195.844 82.3124 196.688C81.3749 197.063 81.0937 195.75 80.6249 195.281C80.7499 195.031 80.6874 194.781 80.4374 194.531C79.9374 194.969 79.3124 195.156 78.5624 195.094C78.3749 194.719 77.9062 194.156 78.3749 193.781C79.1249 192.844 80.2499 194.156 80.8124 193.5C80.9062 192.844 80.3437 192.094 81.0937 191.625C81.5624 191.719 82.2187 191.438 82.4062 192.094ZM88.2187 193.875C88.3124 194.25 88.0312 194.813 88.5937 195.188C89.4062 194.875 90.0312 195.063 90.4687 195.75C90.5937 196.25 90.4687 196.625 90.0937 196.875L88.9687 196.594C88.9687 196.469 88.8437 196.281 88.5937 196.031C88.0937 196.031 87.7187 196.219 87.4687 196.594C87.7499 196.969 88.4062 197.25 88.2187 197.719C87.5624 198.375 87.2812 197.156 86.5312 197.531C85.9687 197.344 86.6249 196.313 85.8749 195.938C84.9374 195.938 85.5937 197.438 84.3749 196.875C83.8749 196.375 83.7499 195.844 83.9999 195.281C84.2889 195.161 84.6033 195.116 84.9144 195.149C85.2255 195.181 85.5235 195.291 85.7812 195.469C86.5312 194.625 86.5312 191.625 88.3124 193.875M80.9999 196.969C81.4687 197.719 80.8124 198.656 81.4687 199.406C82.4062 197.531 83.3437 199.781 84.4687 199.594C84.8437 200.062 84.5624 200.625 84.6562 201.094C83.2499 201.469 81.5624 201.938 80.3437 200.813L79.9687 201.188C80.7187 201.844 81.3749 202.687 80.8124 203.812C79.7812 204 78.0937 204.094 77.6249 202.969C77.3437 202.031 78.2812 201.469 77.2499 200.719C76.5937 201.656 76.5937 202.781 75.1874 201.938C74.8008 201.703 74.5119 201.337 74.3741 200.906C74.2363 200.475 74.2588 200.009 74.4374 199.594C75.3749 198.094 77.0624 199.594 77.9999 198.938C78.1874 197.625 77.7187 196.5 78.9374 195.844C79.8749 195.656 80.3437 196.406 80.9999 196.969Z" fill="#FFFF00" style="fill:#FFFF00;fill:color(display-p3 1.0000 1.0000 0.0000);fill-opacity:1;"/>
<path id="Vector_45" d="M84.9375 197.812C84.4688 199.969 82.875 197.719 82.125 197.625C83.0625 195.75 83.7188 198.187 84.9375 197.812ZM90 200.156C88.875 200.437 89.0625 199.031 88.5 198.469L88.9688 198.094C89.3438 198.719 89.6875 199.406 90 200.156Z" fill="white" style="fill:white;fill-opacity:1;"/>
<path id="Vector_46" d="M88.5 199.688C88.7813 200.438 87.75 201.094 88.6875 201.563L89.4375 200.906C90.3125 200.969 91.0625 201.344 91.6875 202.031C92.25 203.625 90.6563 203.625 89.8125 204.094H88.875C89.0625 203.531 88.4063 203.344 88.3125 203.156C88.1324 203.093 87.9372 203.085 87.7529 203.136C87.5686 203.186 87.404 203.291 87.2813 203.438C87.4688 204.375 88.6875 205.313 87.4688 206.156C86.3438 206.156 84.6563 206.531 84.75 205.031C84.375 204.094 85.875 202.875 84.2813 202.781C83.7188 204 83.1562 205.031 81.75 204L81.9375 202.313C83.25 202.313 84.8438 202.594 85.4063 201.094C85.7813 200.063 84.75 199.031 85.6875 198.281C87.0938 197.906 87.8438 198.844 88.5 199.688Z" fill="#FFFF00" style="fill:#FFFF00;fill:color(display-p3 1.0000 1.0000 0.0000);fill-opacity:1;"/>
<path id="Vector_47" d="M87.5626 202.125C87.8439 202.969 87.0001 203.063 86.5314 203.438C86.0314 203.438 85.5939 203.25 85.2189 202.875C84.9376 201.938 85.6876 201.75 86.1564 201.375C86.8126 201.094 87.0939 201.844 87.5626 202.125Z" fill="black" style="fill:black;fill-opacity:1;"/>
<path id="Vector_48" d="M86.7188 202.688C86.5938 202.813 86.4063 202.875 86.1563 202.875L85.9688 201.938C86.5938 201.875 86.8438 202.125 86.7188 202.688Z" fill="white" style="fill:white;fill-opacity:1;"/>
</g>
</g>
</g>
</g>
<defs>
<clipPath id="clip0_2194_10387">
<rect width="640" height="480" fill="white" style="fill:white;fill-opacity:1;"/>
</clipPath>
</defs>
</svg>
