<svg width="640" height="480" viewBox="0 0 640 480" fill="none" xmlns="http://www.w3.org/2000/svg">
<g id="tk" clip-path="url(#clip0_2194_10589)">
<path id="Vector" d="M0 0H640V480H0V0Z" fill="#00247D" style="fill:#00247D;fill:color(display-p3 0.0000 0.1412 0.4902);fill-opacity:1;"/>
<path id="Vector_2" d="M108.1 354.6C101.4 354.5 170.9 317.6 229 270.2C305.2 208.1 469.3 108.8 517.6 92.5999C522.6 90.8999 507.3 101.2 505.3 104.5C453.8 165.5 494.9 280.5 559.3 338.4C578.7 353.2 577.7 354 613.6 355.4V358.8L108.1 354.6ZM103.9 361.3C103.9 361.3 99 364.8 99 367.4C99 370.3 104.5 374.1 104.5 374.1L603 379.6L612.2 373.5L599.4 365.6L103.9 361.3Z" fill="#FED100" style="fill:#FED100;fill:color(display-p3 0.9961 0.8196 0.0000);fill-opacity:1;"/>
<path id="Vector_3" d="M106.8 109.1L102.8 121.3L113.2 113.8L123.5 121.3L119.6 109.1L129.9 101.6H117.1L113.2 89.3999L109.2 101.6H96.4L106.8 109.1ZM184.9 166.5L193.5 160.2H182.8L179.5 150.1L176.2 160.2H165.6L174.2 166.5L170.9 176.6L179.5 170.3L188.2 176.6L184.9 166.5ZM39.7 179.5L35.7 167.3L31.8 179.5H19L29.3 187L25.4 199.2L35.7 191.7L46.1 199.2L42.1 187L52.5 179.5H39.7ZM117.8 301.8L113.2 287.6L108.6 301.8H93.6L105.7 310.5L101.1 324.8L113.2 316L125.3 324.8L120.6 310.5L132.7 301.8H117.8Z" fill="white" style="fill:white;fill-opacity:1;"/>
</g>
<defs>
<clipPath id="clip0_2194_10589">
<rect width="640" height="480" fill="white" style="fill:white;fill-opacity:1;"/>
</clipPath>
</defs>
</svg>
