<svg width="640" height="480" viewBox="0 0 640 480" fill="none" xmlns="http://www.w3.org/2000/svg">
<g id="tm" clip-path="url(#clip0_2194_10602)">
<path id="Vector" d="M0 0H640V480H0V0Z" fill="#00843D" style="fill:#00843D;fill:color(display-p3 0.0000 0.5176 0.2392);fill-opacity:1;"/>
<path id="Vector_2" d="M357.6 53C365.235 56.579 372.026 61.7348 377.524 68.1279C383.023 74.521 387.104 82.0064 389.501 90.0912C391.897 98.1759 392.553 106.677 391.426 115.033C390.3 123.39 387.415 131.413 382.964 138.575C378.512 145.736 372.593 151.873 365.598 156.582C358.603 161.29 350.689 164.464 342.379 165.893C334.068 167.322 325.549 166.974 317.383 164.872C309.217 162.771 301.588 158.963 295 153.7C308.089 159.207 322.713 159.868 336.245 155.564C349.778 151.26 361.333 142.273 368.836 130.217C376.34 118.161 379.3 103.825 377.186 89.7829C375.071 75.7407 368.021 62.9121 357.3 53.6L357.6 53ZM301 97L307.4 76.2L289.7 89.1H311.6L293.8 76.2L301 97ZM301 66.4001L307.4 45.6L289.7 58.5H311.6L293.8 45.3L301 66.4001ZM331.2 82L337.6 61.2001L319.8 74.1H341.8L324 61.2001L331.2 82ZM270.2 112.3L277.1 91.5L259.3 104.3H281.3L263.5 91.5L270.2 112.3ZM300.5 127.7L307.3 107L289.6 119.8H311.5L293.7 107L300.5 127.7Z" fill="white" style="fill:white;fill-opacity:1;"/>
<path id="Vector_3" d="M86.6 0H216.2V480H86.6V0Z" fill="#D22630" style="fill:#D22630;fill:color(display-p3 0.8235 0.1490 0.1882);fill-opacity:1;"/>
<g id="Group">
<path id="Vector_4" d="M118 0H113.8L105.5 7.6L102.5 4.2H105.5L104.7 1.2H99.8L89.6 10.2V14H94.6V11L96.8 13.2L91.5 17.8L94 20L86.5 26.8V31.8L99 20.3L96.8 17.7L101.7 13.1L97.5 9L100.2 6L105.8 11.2L118 0ZM87 0V8.7L89.5 6V2.3H92.5L95.3 0H87ZM109.6 0H106.6L107 2.3L109.6 0Z" fill="#383739" style="fill:#383739;fill:color(display-p3 0.2196 0.2157 0.2235);fill-opacity:1;"/>
<path id="Vector_5" d="M117.6 0H113.8L105.8 7.6L102.1 3.8H105.5L104.7 1.1H100.2L90.3 10.6V13.6H94.1V9.8L97.5 13.2L92.2 17.8L94.5 20L86.9 27.6V31.4L98.3 20L96 17.8L101.3 13.2L96.8 9.1L100.6 5.7L105.8 11L117.2 0H117.6ZM86.6 0V8.3L88.8 5.7V1.9H92.2L94.5 0H86.6ZM109.2 0H107.4V1.5L109.2 0Z" fill="#FFC72C" style="fill:#FFC72C;fill:color(display-p3 1.0000 0.7804 0.1725);fill-opacity:1;"/>
</g>
<g id="Group_2">
<path id="Vector_6" d="M86.6 55.6001V60.5001L93.8 67.3001L91.1 69.5001L96.4 74.5001L94.1 76.3001V73.3001H89.6V77.1001L99.8 86.6001H104.8L105.5 82.8001H102L105 80.1001L113.3 87.7001L105 94.5001L102 91.8001H105L104.2 88.1001H99.3L89.5 98.3001V102H94.5V98.3001L96.7 100.5L91.4 105.1L94 107.7L86.5 114.5V119.1L99 107.7L96.8 105.1L101.7 100.5L97.5 96.4001L100.2 93.7001L105.8 98.3001L118.3 86.9001L105.8 75.6001L100.2 80.9001L97.5 78.2001L101.7 74.1001L96.7 69.1001L99 67.0001L87 55.6001H86.6ZM86.6 78.2001V96.4001L89.2 93.4001V89.6001H92.2L94.9 87.3001L92.2 85.0001H89.2V81.3001L86.6 78.2001ZM107.4 84.7001V89.6001L110 87.3001L107.4 84.7001Z" fill="#383739" style="fill:#383739;fill:color(display-p3 0.2196 0.2157 0.2235);fill-opacity:1;"/>
<path id="Vector_7" d="M86.6 56.3V60.1L94.1 67.3001L91.9 69.5L97.2 74.5L93.8 77.1V73.7H90V76.7L99.8 86.2H104.3L105.1 83.5H101.3L105.5 79.7L114.2 87.3001L105.5 94.9001L101.7 91.1H105.1L104.3 88.8001H99.8L90 97.8001V100.9H93.8V97.1L97.2 100.5L91.9 105.1L94.1 107.7L86.6 114.9V118.7L97.9 107.3L95.6 105.1L100.9 100.5L96.4 96.4001L100.2 93L105.8 98.3001L117.6 87.3001L105.5 76.3001L99.8 81.6L96.4 78.6L100.9 74.5L95.6 69.5L98.3 67.3001L86.6 56.3ZM86.6 79V95.6L88.8 93.4001V89.6H92.2L94.5 87.3001L92.2 85.4001H88.8V81.6L86.6 79ZM107.7 85.4001V88.8001L109.7 87.3001L107.7 85.4001Z" fill="#FFC72C" style="fill:#FFC72C;fill:color(display-p3 1.0000 0.7804 0.1725);fill-opacity:1;"/>
</g>
<g id="Group_3">
<path id="Vector_8" d="M86.6 145.9V151.2L93.8 158L91.1 160.3L96.4 164.8L94.1 167.1V164.1H89.6V167.8L99.8 176.8H104.8L105.5 173.8H102L105 170.8L113.3 178L105 185.6L102 182.2H105L104.2 178.8H99.3L89.1 188.2V192H94.4V189L96.7 190.9L91.4 195.8L94 198L86.5 204.9V209.8L99 198.4L96.8 195.8L101.7 190.8L97.5 187.1L100.2 184.1L105.8 189L118.3 177.6L105.8 166.3L100.2 171.6L97.5 168.6L101.7 164.8L96.7 159.8L99 157.6L87 146.3L86.6 145.9ZM86.6 168.6V186.3L89.2 183.7V179.9H92.2L94.9 177.6L92.2 175H89.2V171.6L86.6 168.6ZM107.4 175V180L110 177.3L107.4 175Z" fill="#383739" style="fill:#383739;fill:color(display-p3 0.2196 0.2157 0.2235);fill-opacity:1;"/>
<path id="Vector_9" d="M86.6 146.3V150L94.1 157.6L92 160L97.3 164.5L93.9 167.5V163.8H90V167.5L99.8 176.2H104.3L105.1 173.6H101.3L105.5 169.8L114.2 177.4L105.5 185.3L101.7 181.5H105.1L104.3 178.9H99.8L90 188.3V191.3H93.8V187.6L97.2 190.6L91.9 195.5L94.1 197.8L86.6 205.3V209.1L97.9 197.8L95.6 195.5L100.9 190.5L96.4 186.8L100.2 183L105.8 189L117.6 177.7L105.5 167.2L99.8 172.4L96.4 169L100.9 165.3L95.6 160.3L98.3 158.1L86.6 146.3ZM86.6 168.9V185.9L88.8 183.3V179.5H92.2L94.5 177.6L92.2 175.4H88.8V171.6L86.6 169.3V168.9ZM107.7 175.7V179.1L109.7 177.3L107.7 175.7Z" fill="#FFC72C" style="fill:#FFC72C;fill:color(display-p3 1.0000 0.7804 0.1725);fill-opacity:1;"/>
</g>
<g id="Group_4">
<path id="Vector_10" d="M86.6 236.2V240.8L93.8 247.6L91.1 249.8L96.4 254.8L94.1 257V254H89.6V257.8L99.8 266.8H104.8L105.5 263.4H102L105 260.8L113.3 268L105 275.1L102 272.1H105L104.2 268.7H99.3L89.1 278.2V282H94.4V279L96.7 280.8L91.4 285.8L94 288L86.5 294.8V299.8L99 288.3L96.8 285.6L101.7 280.7L97.5 276.9L100.2 273.9L105.8 279.2L118.3 267.9L105.8 256.5L100.2 261.5L97.5 258.8L101.7 255L96.7 249.7L99 247.5L87 236.1L86.6 236.2ZM86.6 258.9V276.7L89.2 273.7V270.2H92.2L95 268L92.3 265.3H89.3V262L86.6 258.9ZM107.4 265.3V270.3L110 267.6L107.4 265.3Z" fill="#383739" style="fill:#383739;fill:color(display-p3 0.2196 0.2157 0.2235);fill-opacity:1;"/>
<path id="Vector_11" d="M86.6 236.6V240.4L94.1 247.9L91.9 249.9L97.2 254.7L93.8 257.7V254H90V257.4L99.8 266.4H104.3L105.1 263.8H101.3L105.5 260L114.2 267.6L105.5 275.6L101.7 271.7H105.1L104.3 269.1H99.8L90 278.1V281.6H93.8V277.8L97.2 280.8L91.9 285.8L94 288L86.5 295.6V299.3L97.9 288L95.6 285.7L100.9 280.8L96.4 277L100.2 273.3L105.8 278.9L117.6 267.6L105.5 257L99.8 262.3L96.4 258.9L100.9 255.1L95.6 249.8L98.3 247.6L86.6 236.6ZM86.6 259.3V276.3L88.8 273.6V270H92.2L94.5 268L92.2 265.8H88.8V262L86.6 259.8V259.3ZM107.7 266.1V269.5L109.7 267.5L107.7 266.1Z" fill="#FFC72C" style="fill:#FFC72C;fill:color(display-p3 1.0000 0.7804 0.1725);fill-opacity:1;"/>
</g>
<g id="Group_5">
<path id="Vector_12" d="M86.6 326.6V331.1L93.8 337.9L91.1 340.2L96.4 345.1L94.1 347V344H89.6V347.7L99.8 357.2H104.8L105.5 353.8H102L105 350.8L113.3 358.3L105 365.5L102 362.5H105L104.2 359.1H99.3L89.1 368.5V372.3H94.4V368.9L96.7 371.1L91.4 376.1L94 378.3L86.5 385.1V389.7L99 378.3L96.8 376.1L101.7 371.1L97.5 367L100.2 364.3L105.8 369.6L118.3 358.3L105.8 347L100.2 351.9L97.5 349.2L101.7 345.1L96.7 340.1L99 338L86.6 326.6ZM86.6 349.2V367L89.2 364V360.6H92.2L94.9 357.9L92.2 355.7H89.2V351.9L86.6 349.2ZM107.4 355.7V360.2L110 357.9L107.4 355.7Z" fill="#383739" style="fill:#383739;fill:color(display-p3 0.2196 0.2157 0.2235);fill-opacity:1;"/>
<path id="Vector_13" d="M86.6 327V330.7L94 338L91.8 340.3L97.1 345.2L93.7 348.2V344.4H90V347.8L99.8 356.8H104.3L105.1 354.2H101.3L105.5 350.5L114.2 358L105.5 366L101.7 362.2H105.1L104.3 359.5H99.8L90 368.6V372H93.8V368.2L97.2 371.2L91.9 376.2L94.1 378.4L86.6 386V389.4L97.9 378L95.6 376L100.9 371.1L96.4 367L100.2 363.6L105.8 368.9L117.6 357.9L105.5 346.9L99.8 352.3L96.4 349.3L100.9 345.1L95.6 340.1L98.3 337.9L86.6 327ZM86.6 349.6V366.6L88.8 364.3V360.6H92.2L94.5 358.3L92.2 356.4H88.8V352.6L86.6 350V349.6ZM107.7 356V359.8L109.7 357.9L107.7 356Z" fill="#FFC72C" style="fill:#FFC72C;fill:color(display-p3 1.0000 0.7804 0.1725);fill-opacity:1;"/>
</g>
<g id="Group_6">
<path id="Vector_14" d="M184.5 0H189L196.6 7.6L200.4 3.8H197.4L198.1 0.8H203L213.2 9.8V13.6H208V10.6L205.7 12.9L211 17.4L208.4 19.7L216 26.5V31.4L203.4 20L205.6 17.4L200.7 12.9L204.9 8.7L202.2 5.7L196.6 11.3L184.5 0ZM216.2 0V8.7L213.2 6V2.3H210.2L207.5 0H216.2ZM192.4 0H195.4L195.1 2.3L192.4 0Z" fill="#383739" style="fill:#383739;fill:color(display-p3 0.2196 0.2157 0.2235);fill-opacity:1;"/>
<path id="Vector_15" d="M185.2 0H188.2L197 7.6L200.7 3.8H197.3L198.1 1.1H202.6L212.5 10.6V13.6H208.7V9.8L205.7 13.2L210.6 17.8L208.3 20.4L215.9 27.6V31.4L204.5 20L206.8 17.8L201.5 13.2L206 9.1L202.2 5.7L197.3 11.3L185 0H185.2ZM216.2 0V8.3L213.6 5.7V1.9H210.2L208.2 0H216.2ZM192.8 0H195.1V1.5L192.8 0Z" fill="#FFC72C" style="fill:#FFC72C;fill:color(display-p3 1.0000 0.7804 0.1725);fill-opacity:1;"/>
<path id="Vector_16" d="M216.2 55.6001V60.5001L208.7 67.3001L211.3 69.5001L206 74.5001L208.3 76.3001V73.3001H212.8V77.1001L202.6 86.6001H197.7L197 82.8001H200L197 80.1001L189 87.7001L196.6 94.5001L200 91.8001H197L197.7 88.1001H202.7L212.8 97.9001V101.7H208V98.3001L205.7 100.5L211 105.1L208.4 107.7L216 114.5V119.1L203.5 107.7L205.7 105.1L200.8 100.5L205 96.4001L202.3 93.7001L196.7 98.3001L184 86.9001L196.5 75.6001L202.1 80.9001L204.8 78.2001L200.6 74.1001L205.6 69.1001L203.3 66.9001L215.8 55.6001H216.2ZM216.2 78.2001V96.4001L213.2 93.4001V89.6001H210.2L207.5 87.3001L210.2 85.0001H213.2V81.3001L216.2 78.2001ZM195.1 84.7001L195.4 87.3001L195.1 89.6001L192.4 87.3001L195.1 84.7001Z" fill="#383739" style="fill:#383739;fill:color(display-p3 0.2196 0.2157 0.2235);fill-opacity:1;"/>
<path id="Vector_17" d="M216.2 56.3V60.1L207.9 66.9001L210.2 69.2L205.2 74.1L208.2 76.7V73.3001H212.1V76.3001L202.2 85.8001H197.7L197 83.1H200.7L196.6 79.4001L187.9 86.9001L196.6 94.5L200.4 90.7H197L197.7 88.4001H202.2L212.1 97.5V100.5H208.3V96.8001L205.3 100.2L210.2 104.7L207.9 107.3L215.5 114.5V118.3L204 107L206.3 104.7L201 100.2L205.5 96L201.8 92.6L196.5 97.9001L184.4 86.9001L196.4 75.9001L202.1 81.3001L205.5 78.3001L201 74.1L206.3 69.1L203.7 66.9001L216.2 56.3ZM216.2 79V95.6L213.6 93.4001V89.6H210.2L208.2 87.3001L210.2 85.4001H213.6V81.6L216.2 79ZM194.7 85.4001L195.1 87.4001V88.8001L192.8 87.3001L194.7 85.4001Z" fill="#FFC72C" style="fill:#FFC72C;fill:color(display-p3 1.0000 0.7804 0.1725);fill-opacity:1;"/>
<path id="Vector_18" d="M216.2 145.9V151.2L208.7 158L211.3 160.3L206 164.8L208.3 167.1V164.1H212.8V167.8L202.6 176.8H197.7L196.6 173.8H199.6L196.6 170.8L189 177.6L196.6 185.2L200 181.8H197L197.7 178.4H202.7L212.8 187.8V191.6H208V188.6L205.7 190.5L211 195.4L208.4 197.7L216 204.5V209.4L203.4 198L205.6 195.4L200.7 190.4L204.9 186.7L202.2 183.7L196.6 189L184.1 177.6L196.6 166.3L202.2 171.6L204.9 168.6L200.7 164.8L205.7 159.8L203.4 157.6L215.9 146.3L216.2 145.9ZM216.2 168.6V186.3L213.2 183.7V179.9H210.2L207.5 177.6L210.2 175H213.2V171.6L216.2 168.6ZM195.1 175L195.4 177.3L195.1 179.9L192.4 177.3L195.1 175Z" fill="#383739" style="fill:#383739;fill:color(display-p3 0.2196 0.2157 0.2235);fill-opacity:1;"/>
<path id="Vector_19" d="M216.2 146.3V150L208.2 157.6L210.6 159.9L205.6 164.4L208.6 167.4V163.7H212.5V167.4L202.6 176.1H198.1L197.3 173.5H201.1L196.6 170.1L187.9 177.6L196.6 185.6L200.4 181.8H197L197.7 179.1H202.2L212.1 188.6V191.6H208.3V187.8L205.3 190.8L210.2 195.8L207.9 198L215.5 205.6V209.4L204 198L206.3 195.8L201 190.8L205.5 187.1L201.8 183.3L196.5 189L184.4 177.6L196.4 167.1L202.1 172.3L205.5 168.9L201 165.2L206.3 160.2L203.7 158L216.2 146.3ZM216.2 168.9V185.9L213.6 183.3V179.5H210.2L208.2 177.6L210.2 175.4H213.6V171.6L216.2 169.3V168.9ZM194.7 175.7L195.1 177.3V179.1L192.8 177.3L194.7 175.7Z" fill="#FFC72C" style="fill:#FFC72C;fill:color(display-p3 1.0000 0.7804 0.1725);fill-opacity:1;"/>
<path id="Vector_20" d="M216.2 236.2V240.8L208.7 247.6L211.3 249.8L206 254.8L208.3 257V254H212.8V257.8L202.6 266.8H197.7L197 263.4H200L197 260.8L189 268L196.6 275.1L200 272.1H197L197.7 268.7H202.7L212.8 278.2V282H208V279L205.7 280.8L211 285.8L208.4 288L216 294.8V299.8L203.5 288.4L205.7 285.7L200.8 280.8L205 277L202.3 274L196.7 279.3L184 268L196.5 256.6L202.1 261.6L204.8 258.9L200.6 255.1L205.6 249.8L203.3 247.6L215.8 236.2H216.2ZM216.2 258.9V276.7L213.2 273.7V270.2H210.2L207.5 268L210.2 265.3H213.2V262L216.2 258.9ZM195.1 265.3L195.4 267.6L195.1 270.2L192.4 267.6L195.1 265.3Z" fill="#383739" style="fill:#383739;fill:color(display-p3 0.2196 0.2157 0.2235);fill-opacity:1;"/>
<path id="Vector_21" d="M216.2 236.6V240.4L208.2 247.9L210.6 249.9L205.6 254.7L208.6 257.7V254H212.5V257.4L202.6 266.4H198.1L197.3 263.8H201.1L197 260L188.3 267.6L197 275.6L200.7 271.7H197.3L198.1 269.1H202.6L212.5 278.1V281.6H208.7V277.8L205.7 280.8L210.6 285.8L208.3 288L215.9 295.6V299.3L204.5 288L206.8 285.7L201.5 280.8L206 277L202.2 273.3L197 278.9L184.9 267.6L196.9 257L202.6 262.3L206 258.9L201.5 255.1L206.8 249.8L204.1 247.6L216.2 236.6ZM216.2 259.3V276.3L213.6 273.6V270H210.2L208.2 268L210.2 265.8H213.6V262L216.2 259.8V259.3ZM194.7 266.1L195.1 267.6V269.5L192.8 267.5L194.7 266.1Z" fill="#FFC72C" style="fill:#FFC72C;fill:color(display-p3 1.0000 0.7804 0.1725);fill-opacity:1;"/>
<path id="Vector_22" d="M216.2 326.6V331.1L208.7 337.9L211.3 340.2L206 345.1L208.3 347V344H212.8V347.7L202.6 357.2H197.7L197 353.8H200L197 350.8L189 358.3L196.6 365.5L200 362.5H197L197.7 359.1H202.7L212.8 368.5V372.3H208V368.9L205.7 371.1L211 376.1L208.4 378.3L216 385.1V389.7L203.5 378.3L205.7 376.1L200.8 371.1L205 367L202.3 364.3L196.7 369.6L184.2 358.3L196.7 347L202.3 351.9L205 349.2L200.8 345.1L205.8 340.1L203.5 337.9L216.2 326.6ZM216.2 349.2V367L213.2 364V360.6H210.2L207.5 357.9L210.2 355.7H213.2V351.9L216.2 349.2ZM195.1 355.7L195.4 357.9L195.1 360.2L192.4 357.9L195.1 355.7Z" fill="#383739" style="fill:#383739;fill:color(display-p3 0.2196 0.2157 0.2235);fill-opacity:1;"/>
<path id="Vector_23" d="M216.2 327V330.7L208 338L210.3 340.3L205.3 345.2L208.3 348.2V344.4H212.2V347.8L202.3 356.8H197.8L197.1 354.2H200.8L196.7 350.5L188 358L196.7 366L200.5 362.2H197L197.7 359.5H202.2L212.1 368.6V372H208.3V368.2L205.3 371.2L210.2 376.2L207.9 378.4L215.5 386V389.4L204 378L206.3 376L201 371.1L205.5 367L201.8 363.6L196.5 368.9L184.4 357.9L196.4 346.9L202.1 352.3L205.5 349.3L201 345.1L206.3 340.1L203.7 337.9L216.2 327ZM216.2 349.6V366.6L213.6 364.3V360.6H210.2L208.2 358.3L210.2 356.4H213.6V352.6L216.2 350V349.6ZM194.7 356L195.1 358V359.8L192.8 357.9L194.7 356Z" fill="#FFC72C" style="fill:#FFC72C;fill:color(display-p3 1.0000 0.7804 0.1725);fill-opacity:1;"/>
</g>
<path id="Vector_24" d="M96.8 424.8C97.5 427.5 99.8 429.4 100.6 432.4C101.3 429.4 102.1 426.7 101.6 423.7C100.9 421.4 99 419.9 99 417.3C96.8 419.1 96.4 421.8 96.8 424.8ZM96.4 436.2C98.2794 438.654 100.759 440.583 103.6 441.8C102.8 439.6 103.6 438 105.1 436.2C106.2 434.2 107 432.4 105.8 429.7C105.359 430.911 104.754 432.055 104 433.1C102.729 434.602 101.929 436.446 101.7 438.4C100.2 437.3 99.8 435.8 99 434.3C97.8188 432.065 96.0118 430.224 93.8 429C94.5 431.6 94.8 433.9 96.4 436.2ZM106.6 443.7L105.8 447.5L101.7 444.5C99.8 442.5 97.5 441.8 96 439.5C96.0231 440.914 96.3792 442.303 97.0394 443.554C97.6996 444.805 98.6454 445.883 99.8 446.7L107.8 451.7C107.4 449 108.5 446.7 109.2 444.1C109.426 443.052 109.409 441.966 109.149 440.925C108.889 439.885 108.393 438.918 107.7 438.1C107.7 439.9 107 441.8 106.6 443.3V443.7ZM111.9 452.4L114.9 457.7C112.433 456.767 109.933 455.5 107.4 453.9C104.7 452.4 101.7 451.7 99 449.4C99.6117 451.558 100.771 453.52 102.366 455.098C103.96 456.675 105.936 457.812 108.1 458.4C111.5 459.2 114.1 458.8 117.9 460.4C117.417 457.751 116.541 455.19 115.3 452.8L113 447.5C112.459 448.201 112.08 449.012 111.89 449.877C111.7 450.741 111.703 451.637 111.9 452.5V452.4ZM121.7 459.6C122.663 461.138 123.962 462.437 125.5 463.4C121.7 463.4 118.7 461.4 114.9 461.1C112.7 461.1 110.4 461.9 108.1 461.5C111.1 463.4 113.8 465.3 117.1 465.3C121.3 466 125.5 465.3 130.4 465.3C128.362 463.789 126.688 461.842 125.5 459.6C123.6 456.6 121.7 454.6 118.3 454.3L122.1 459.6H121.7ZM135 465.6C128.5 466.8 122.1 468.3 115.3 468.3C122.406 471.294 130.392 471.438 137.6 468.7C141.4 467.5 144.8 466.4 147.8 466.7C152.3 466.7 157.6 469 163.7 475.1L166 473.2C161.765 469.635 156.765 467.095 151.388 465.777C146.012 464.459 140.404 464.398 135 465.6Z" fill="#FFC72C" style="fill:#FFC72C;fill:color(display-p3 1.0000 0.7804 0.1725);fill-opacity:1;"/>
<path id="Vector_25" d="M102.8 56.2999L92.2 50V34.7999L102.8 28.2999V20L112.3 14.4H120.3L135.3 5.69995H167.1L182.2 14.4H189.8L200.4 20V28.2999L210.6 34.7999V49.7999L200.4 56.2999V64.3L190.5 70.3H182.5L167.5 78.6H135.7L120.6 70.3H113L102.4 64.3L102.8 56.2999Z" fill="#383739" style="fill:#383739;fill:color(display-p3 0.2196 0.2157 0.2235);fill-opacity:1;"/>
<path id="Vector_26" d="M135.3 6L120.3 14.7H112.7L102.8 20.4V28.4L92.6 34.8V49.8L102.8 55.9V64.3L112.7 69.9H120.2L135.3 78.2H167.1L182.2 69.9H189.8L199.6 64.3V55.9L209.8 49.9V34.8L199.6 28.3V20.4L189.8 14.7H182.2L167.1 6H135.3ZM136.1 9.4H166.3L181.5 17.8H189L196.6 21.9V30.2L206.8 36.7V48L196.2 54.4V62.4L189 66.9H181.5L166.3 75.2H136.1L121 67H113.4L105.8 62.5V54.5L95.6 48V36.7L106.2 30.2V22L113.8 17.9H121.3L136.1 9.4Z" fill="#00843D" style="fill:#00843D;fill:color(display-p3 0.0000 0.5176 0.2392);fill-opacity:1;"/>
<path id="Vector_27" d="M151.2 42.2999V9.3999H136.1L121.3 18.0999H113.8L106.2 21.8999V30.1999L96 36.6999V41.9999H151.2V74.7999H166.3L181.5 66.4999H189L195.8 62.3999V53.9999L206.4 47.5999V42.2999H151.2Z" fill="#FFC72C" style="fill:#FFC72C;fill:color(display-p3 1.0000 0.7804 0.1725);fill-opacity:1;"/>
<path id="Vector_28" d="M96 42.3V47.6L106.6 54V62.4001L113.4 66.1H121.4L136.4 74.8H151.2V42H206.4V36.7001L195.8 30.2001V22.7L189 18H181.5L166.3 9.30005H151.3V42.3H96Z" fill="white" style="fill:white;fill-opacity:1;"/>
<g id="Group_7">
<path id="Vector_29" d="M118.7 21.2L116.1 18.5L113.8 20L116.4 22.7L112.7 24.6H120.2L126.2 30.6L128.2 28.3L122.1 22.7V18.9L118.7 21.2Z" fill="#383739" style="fill:#383739;fill:color(display-p3 0.2196 0.2157 0.2235);fill-opacity:1;"/>
<path id="Vector_30" d="M130.8 19.9998L128.2 17.7998L125.9 19.2998L128.5 21.4998L124.7 23.4998H132.3L138.3 29.4998L140.3 27.1998L134.6 21.4998V17.7998L130.8 19.9998ZM117.9 27.5998L115.3 25.2998L112.7 27.2998L115.3 29.4998L111.9 31.3998H119.5L125.5 37.3998L127.4 35.0998L121.4 29.4998V25.6998L117.9 27.5998Z" fill="#383739" style="fill:#383739;fill:color(display-p3 0.2196 0.2157 0.2235);fill-opacity:1;"/>
<path id="Vector_31" d="M151.2 9.3999H144.8L141.4 12.3999H134.6L130 15.0999L131.2 17.7999L135.3 15.4999H137.3L144 23.0999L151.2 18.8999V9.3999Z" fill="#383739" style="fill:#383739;fill:color(display-p3 0.2196 0.2157 0.2235);fill-opacity:1;"/>
<path id="Vector_32" d="M116 18.8999L118.3 21.1999L116.4 22.2999L114.2 20.3999L116 18.8999ZM122.1 19.6999V22.6999L127.8 28.2999L126.3 29.8999L120.3 24.1999H114.2L121.7 19.1999L122.1 19.6999ZM128.1 18.0999L130.4 20.0999L128.5 21.4999L126.3 19.2999L128.1 18.0999ZM134.2 18.0999V21.9999L139.9 27.2999L138.4 29.1999L132.4 22.7999H126.3L133.8 18.1999L134.2 18.0999Z" fill="#D22630" style="fill:#D22630;fill:color(display-p3 0.8235 0.1490 0.1882);fill-opacity:1;"/>
<path id="Vector_33" d="M115.3 25.9999L117.6 27.9999L115.6 29.0999L113.4 27.1999L115.3 25.9999ZM121 25.9999V29.9999L127 35.1999L125.5 36.7999L119.5 31.0999H113.5L121 25.9999ZM151.2 9.3999H144.8L141.4 13.1999H135L130.4 15.1999L131.2 17.3999L135 14.9999H137.6L143.6 22.5999L151.2 18.7999V9.3999Z" fill="#D22630" style="fill:#D22630;fill:color(display-p3 0.8235 0.1490 0.1882);fill-opacity:1;"/>
<path id="Vector_34" d="M118.7 63.5L116.1 65.8L113.8 64.3L116.4 62L112.7 59.7H120.2L126.2 54L128.2 56.3L122 62V65.8L118.7 63.5Z" fill="#383739" style="fill:#383739;fill:color(display-p3 0.2196 0.2157 0.2235);fill-opacity:1;"/>
<path id="Vector_35" d="M130.8 64.3L128.2 66.9L125.9 65.4L128.5 63.0999L124.7 60.9H132.3L138.3 55.2L140.3 57.0999L134.6 62.7V66.5L130.8 64.3ZM117.9 56.7L115.3 59L112.7 57.4L115.3 55.2L111.9 52.9H119.5L125.5 47.2L127.4 49.2L121.4 54.7999V58.5999L117.9 56.7Z" fill="#383739" style="fill:#383739;fill:color(display-p3 0.2196 0.2157 0.2235);fill-opacity:1;"/>
<path id="Vector_36" d="M151.2 75.1999H144.8L141.4 71.8H134.6L130 69.5L131.2 66.5L135.3 68.8H137.3L144 61.2L151.6 65.8L151.2 75.1999Z" fill="#383739" style="fill:#383739;fill:color(display-p3 0.2196 0.2157 0.2235);fill-opacity:1;"/>
<path id="Vector_37" d="M116 65.3999L118.3 63.0999L116.4 61.9999L114.2 64.2999L116 65.3999ZM122.1 64.9999V61.5999L127.8 55.8999L126.3 54.3999L120.3 60.0999H114.2L121.7 65.0999L122.1 64.9999ZM128.1 66.4999L130.4 64.2999L128.5 63.0999L126.3 65.3999L128.1 66.4999ZM134.2 66.0999V62.3999L139.9 57.0999L138.4 55.5999L132.4 61.1999H126.3L133.8 66.1999L134.2 66.0999Z" fill="#D22630" style="fill:#D22630;fill:color(display-p3 0.8235 0.1490 0.1882);fill-opacity:1;"/>
<path id="Vector_38" d="M115.3 58.5999L117.6 56.2999L115.6 55.1999L113.4 57.3999L115.3 58.5999ZM121 58.1999V54.7999L127 49.0999L125.5 47.5999L119.5 53.2999H113.5L121 58.1999ZM151.2 74.7999H144.8L141.4 71.3999H135L130.4 69.1999L131.2 67.1999L135 69.1999H137.6L144 61.5999L151.2 65.7999V74.7999Z" fill="#D22630" style="fill:#D22630;fill:color(display-p3 0.8235 0.1490 0.1882);fill-opacity:1;"/>
<path id="Vector_39" d="M114.5 31.7L111.5 30.7L107.4 33.2999V34L100.9 42.2999L107.4 50.2999V51L111.1 54L114.5 53L112.7 51.4V49.0999L113.4 48.4H116.8V36.2999H113L112.7 35.5V33L114.5 31.7Z" fill="#383739" style="fill:#383739;fill:color(display-p3 0.2196 0.2157 0.2235);fill-opacity:1;"/>
<path id="Vector_40" d="M107.7 33.6L111.5 31L113.8 31.7L112.3 32.9V35.5L113 36.7H116.4V48H113L112.3 49.1V51.8L113.8 52.5L111.5 53.7L107.7 51V50.3L101.3 42.3L107.7 34V33.6Z" fill="#D22630" style="fill:#D22630;fill:color(display-p3 0.8235 0.1490 0.1882);fill-opacity:1;"/>
</g>
<g id="Group_8">
<path id="Vector_41" d="M183.7 21.2L186.4 18.5L188.6 20L186.4 22.7L189.4 24.6H182.2L176.2 30.6L174.2 28.3L180.3 22.7V18.9L183.7 21.2Z" fill="#383739" style="fill:#383739;fill:color(display-p3 0.2196 0.2157 0.2235);fill-opacity:1;"/>
<path id="Vector_42" d="M171.6 19.9998L174.3 17.7998L176.5 19.2998L174.3 21.4998L177.3 23.4998H170L164 29.4998L162 27.1998L168.1 21.4998V17.7998L171.6 19.9998ZM184.5 27.5998L187.1 25.2998L189.8 27.2998L187.1 29.4998L190.5 31.3998H183L177.3 37.7998L175.4 35.4998L181.4 29.8998V25.9998L184.5 27.5998Z" fill="#383739" style="fill:#383739;fill:color(display-p3 0.2196 0.2157 0.2235);fill-opacity:1;"/>
<path id="Vector_43" d="M151.2 9.3999H157.6L161.4 12.3999H167.8L172.8 15.0999L171.6 17.7999L167.1 15.4999H165.2L158.4 23.0999L151.2 18.8999V9.3999Z" fill="#383739" style="fill:#383739;fill:color(display-p3 0.2196 0.2157 0.2235);fill-opacity:1;"/>
<path id="Vector_44" d="M186.4 18.8999L184.1 21.1999L186 22.2999L188.3 20.3999L186.4 18.8999ZM180.7 19.6999V22.6999L174.7 28.2999L176.2 29.8999L182.2 24.1999H188.2L180.7 19.1999V19.6999ZM173.9 18.0999L171.6 20.0999L173.6 21.4999L175.8 19.2999L173.9 18.0999ZM168.2 18.0999V21.9999L162.6 27.2999L164.1 29.1999L170.1 22.7999H176.1L168.6 18.1999L168.2 18.0999Z" fill="#D22630" style="fill:#D22630;fill:color(display-p3 0.8235 0.1490 0.1882);fill-opacity:1;"/>
<path id="Vector_45" d="M187.1 26L184.9 28L186.7 29.1L189 27.2L187.1 26ZM181.5 26V30L175.4 35.2L176.9 36.8L182.9 31.1H189L181.5 26ZM151.2 9.5H157.6L161 13.3H167.5L172 15.3L171.2 17.5L167.5 15.2H165.2L158.4 22.8L151.2 19V9.5Z" fill="#D22630" style="fill:#D22630;fill:color(display-p3 0.8235 0.1490 0.1882);fill-opacity:1;"/>
<path id="Vector_46" d="M183.7 63.5L186.4 65.8L188.6 64.3L186.4 62L189.4 59.7H182.2L176.2 54L174.2 56.3L180.3 62V65.8L183.7 63.5Z" fill="#383739" style="fill:#383739;fill:color(display-p3 0.2196 0.2157 0.2235);fill-opacity:1;"/>
<path id="Vector_47" d="M171.6 64.3L174.3 66.9L176.5 65.4L174.3 63.0999L177.3 60.9H170L164 55.2L162 57.0999L168.1 62.7V66.5L171.6 64.3ZM184.5 56.7L187 59L189.7 57.4L187 55.2L190.4 52.9H183L177 47.2L175 49.2L181 54.7999V58.5999L184.5 56.7Z" fill="#383739" style="fill:#383739;fill:color(display-p3 0.2196 0.2157 0.2235);fill-opacity:1;"/>
<path id="Vector_48" d="M151.2 75.1999H157.6L161.4 71.8H167.8L172.8 69.5L171.6 66.5L167.1 68.8H165.2L158.4 61.2L151.2 65.8V75.1999Z" fill="#383739" style="fill:#383739;fill:color(display-p3 0.2196 0.2157 0.2235);fill-opacity:1;"/>
<path id="Vector_49" d="M186.4 65.3999L184 62.9999L186 61.9999L188.3 64.2999L186.4 65.3999ZM180.7 64.9999V61.5999L174.7 55.8999L176.2 54.3999L182.2 60.0999H188.2L180.7 64.9999ZM174.3 66.4999L172 64.2999L173.9 63.0999L176.2 65.3999L174.3 66.4999ZM168.6 66.0999V62.3999L162.6 57.3999L164 55.9999L170 61.6999H176L168.5 66.6999L168.6 66.0999Z" fill="#D22630" style="fill:#D22630;fill:color(display-p3 0.8235 0.1490 0.1882);fill-opacity:1;"/>
<path id="Vector_50" d="M187.1 58.5999L184.9 56.2999L186.7 55.1999L189 57.3999L187.1 58.5999ZM181.5 58.1999V54.7999L175.4 49.0999L176.9 47.5999L182.9 53.2999H189L181.5 58.1999ZM151.2 74.7999H157.6L161 71.3999H167.5L172 69.1999L171.2 67.1999L167.5 69.1999H165.2L158.4 61.5999L151.2 65.7999V74.7999Z" fill="#D22630" style="fill:#D22630;fill:color(display-p3 0.8235 0.1490 0.1882);fill-opacity:1;"/>
<path id="Vector_51" d="M187.9 31.7L190.9 30.7L195.1 33.2999V34L201.5 42.2999L195.1 50.2999V51L191.3 54L187.9 53L189.8 51.4V49.0999L189 48.4H185.6V36.2999H189.4L189.8 35.5V33L187.9 31.7Z" fill="#383739" style="fill:#383739;fill:color(display-p3 0.2196 0.2157 0.2235);fill-opacity:1;"/>
<path id="Vector_52" d="M194.7 33.6L190.9 31L188.6 31.7L190.1 32.9V35.5L189.4 36.7H186V48H189.4L190.1 49.1V51.8L188.6 52.5L190.9 53.7L194.7 51V50.3L201.1 42.3L194.7 34V33.6Z" fill="#D22630" style="fill:#D22630;fill:color(display-p3 0.8235 0.1490 0.1882);fill-opacity:1;"/>
</g>
<path id="Vector_53" d="M108.9 49.1L107.4 47.6V47L103.6 42.4001L107.4 37.9001V37L108.9 35.5L112.3 38.2001H110.3L113 40.8H119L124 37V27.2001H135.7L149.7 18.5V16.3L147.4 15.1L144.8 17.1V18.1L142.8 15.5L146.7 12.5L150.8 9.80005H152.3L156.1 12.5H156.9L160.7 15.5L158.7 18.1L158.4 17.1L155.7 15.1H155L152.7 16.6V19L166.7 27.7001H178.8V37.5L183.3 41.3H189.3L192 38.7001H190.5L193.5 36L195.1 37.5V38.3L198.8 42.8L195.1 47.3V48.1L193.5 49.6L190.5 47H192L189.4 44.3H183.4L178.8 48.1V57.9001H166.3L152.3 66.2V68.5L154.6 70H155L157.6 68.5V67.4001L159.6 70L156.1 72.7H155.7L151.6 75.7H150L146.2 72.7H145.4L141.7 69.7L143.9 67.4001V68.5L146.6 70H147L149.2 68.5V66.2L135.2 57.9001H123.5V48L118.6 44.2001H112.6L110 47H111.9L108.9 49.1Z" fill="#383739" style="fill:#383739;fill:color(display-p3 0.2196 0.2157 0.2235);fill-opacity:1;"/>
<path id="Vector_54" d="M151.2 70L153.1 71L151.2 72.2V70ZM146.7 71.8L150.5 74.8H151.2V72.6L149 71L151.3 69.4V65L136.2 56H125.2V46.9L119.6 42.3H110.9L108.9 45L106.7 42.3H104L107.7 46.5V47.2L108.9 48.8L111.1 46.8H110.1V46.5L112.7 43.5H119.1L124.4 47.2V57.1H135.7L150.1 65.8V68.4L147.8 69.9H146.7L144.4 68.4V67.7L142.9 69.2L145.9 71.8H146.7ZM108.9 40.1L110.4 42H107L108.9 40.1ZM151.2 12.5L149.7 13.6L151.2 14.7V12.5ZM192 42.7L193.5 44.2L195.5 42.3L192 42.7ZM155.7 12.5L152 9.5H151.2V11.7L153.5 13.7L151.2 15.1V19L166.3 28H177.3V37.9L183 42H191.7L193.5 39.7L195.8 42H198.5L194.7 38.2V37L193.5 36L191.3 37.8H192.4L189.8 41.2H183.3L178.4 37.4V27.2H166.4L152.4 18.9V16.3L154.6 14.7H155.7L158 16.3V17L159.5 15.1L156.5 12.5H155.7Z" fill="#FFC72C" style="fill:#FFC72C;fill:color(display-p3 1.0000 0.7804 0.1725);fill-opacity:1;"/>
<path id="Vector_55" d="M151.2 72.2L149.7 71.1L151.2 69.9V72.2ZM110.4 42.3L108.9 44.3L106.9 42.3H110.4ZM155.7 71.8L152 74.8H151.2V72.6L153.5 71.1L151.2 69.5V65L166.3 56H177.3V46.9L183 42.3H191.7L193.5 45L195.8 42.3H198.5L194.7 46.5V47.2L193.5 48.8L191.3 46.8H192.4V46.5L189.8 43.5H183.3L178.4 47.2V57.1H166.4L152 65.8V68.4L154.2 69.9H155.4L157.6 68.4V67.7L159.1 69.2L156.1 71.8H155.7ZM193.5 40.1L192 42H195.4L193.5 40.1ZM146.7 12.5L150.5 9.5H151.2V11.7L148.9 13.7L151.2 15.1V19L136.1 28H125.1V37.9L119.5 41.7H110.8L108.8 39.4L106.6 41.7H104L107.7 37.9V36.8L108.9 35.6L111.1 37.6H110.1L112.7 40.9H119.1L124.4 37.1V27.3H135.7L150.5 19V16.4L148.2 14.8H147L144.7 16.4V17.1L143.2 15.2L146.2 12.6H147L146.7 12.5ZM151.2 15.1L153.1 14L151.2 12.9V15.1Z" fill="white" style="fill:white;fill-opacity:1;"/>
<path id="Vector_56" d="M151.2 42.2999V19.7L136.1 28.7H125.5V37.7999L120.2 42H151.2V64.5999L166.3 55.5999H177V46.9L182.3 42.2999H151.2Z" fill="#00843D" style="fill:#00843D;fill:color(display-p3 0.0000 0.5176 0.2392);fill-opacity:1;"/>
<path id="Vector_57" d="M120.2 42.2999L125.5 46.9V55.5999H136.1L151.2 64.5999V42H182.2L176.9 37.7999V28.7999H166.3L151.3 19.7V42.2999H120.2Z" fill="#D22630" style="fill:#D22630;fill:color(display-p3 0.8235 0.1490 0.1882);fill-opacity:1;"/>
<path id="Vector_58" d="M135.3 31.4L132.7 28.7L130.4 30.7L132.7 32.9L129.7 34.7999H136.8L142.8 40.7999L144.8 38.5999L138.8 32.9V29L135.3 31.4ZM167.1 53.2999L169.7 55.5999L172.4 54L169.7 51.7999L172.7 49.5H166.3L159.9 43.7999L158 45.7999L164 51.4V55.2L167.1 53.2999ZM135.3 53.2999L132.7 55.5999L130.4 54L132.7 51.7999L129.7 49.5H136.8L142.8 43.7999L144.8 45.7999L138.8 51.4V55.2L135.3 53.2999ZM167.1 31.2999L169.7 28.7L172.4 30.7L169.7 32.9L172.7 34.7999H166.3L159.9 40.7999L158 38.5999L164 32.9V29L167.1 31.2999Z" fill="#383739" style="fill:#383739;fill:color(display-p3 0.2196 0.2157 0.2235);fill-opacity:1;"/>
<path id="Vector_59" d="M169.7 55.2L167.5 52.9L169.4 51.8L171.6 54L169.7 55.2ZM164.1 54.8V51.4L158.1 45.7L159.5 44.2L165.5 49.9H171.6L164.1 54.8ZM132.3 29.5L134.6 31.4L132.6 32.5L130.4 30.6L132.3 29.5ZM138 29.5V33.3L144 38.6L142.5 40.1L136.5 34.4H130.5L138 29.9V29.5Z" fill="#D22630" style="fill:#D22630;fill:color(display-p3 0.8235 0.1490 0.1882);fill-opacity:1;"/>
<path id="Vector_60" d="M169.7 29.5L167.5 31.4L169.4 32.5L171.6 30.6L169.7 29.5ZM164.1 29.5V33.3L158.1 38.6L159.5 40.1L165.5 34.4H171.6L164.1 29.5ZM132.3 55.5L134.6 53.3L132.6 52.2L130.4 54.4L132.3 55.5ZM138 55.2V51.8L144 46.1L142.5 44.6L136.5 50.3H130.5L138 55.2Z" fill="#00843D" style="fill:#00843D;fill:color(display-p3 0.0000 0.5176 0.2392);fill-opacity:1;"/>
<path id="Vector_61" d="M167 42.3L151.3 53L135.4 42.4001L151.4 31.8L167 42.3Z" fill="#383739" style="fill:#383739;fill:color(display-p3 0.2196 0.2157 0.2235);fill-opacity:1;"/>
<path id="Vector_62" d="M151.2 32.1001L136.1 42.0001H166.3L151.2 32.1001ZM151.2 32.1001V52.1001L166.2 42.3001H136L151.1 52.2001L151.2 32.1001Z" fill="white" style="fill:white;fill-opacity:1;"/>
<path id="Vector_63" d="M155.4 45.7001V48.7001H147.4V45.7001H141.8V38.6001H147.4V35.6001H155V38.6001H160.7V46.0001L155.4 45.7001Z" fill="#383739" style="fill:#383739;fill:color(display-p3 0.2196 0.2157 0.2235);fill-opacity:1;"/>
<path id="Vector_64" d="M147.4 36V39H141.8V42H151.2V36H147.4ZM151.2 42H160.7V39H155V36H151.2V42ZM141.8 42.3V45.7H147.4V48.4H151.2V42.4L141.8 42.3ZM151.2 48.3H155V45.7H160.7V42.3H151.2V48.3Z" fill="#D22630" style="fill:#D22630;fill:color(display-p3 0.8235 0.1490 0.1882);fill-opacity:1;"/>
<path id="Vector_65" d="M178.4 162.9V158.4H191.3V153.4H203.8V111.5H191.3V106.5H178.4V102H165.6V97.5H136.8V102H124V106.6H111V111.5H98.7V153.5H111V158.7H124V162.5H136.8V167.1H165.6V162.5L178.4 162.9Z" fill="#383739" style="fill:#383739;fill:color(display-p3 0.2196 0.2157 0.2235);fill-opacity:1;"/>
<path id="Vector_66" d="M137.2 97.8999V102H124.7V106.6H112V111.5H99.4V153.1H112V157.6H124.8V162.6H137.7V167.1H165.7V162.5H178.5V158H191.4V153H204V111.5H191.2V107H177.6V102.4H164.7V97.9999L137.2 97.8999ZM141 101.3H161.8V105.8H174.6V110.4H187.5V115.3H200.4V149.7H187.5V155H174.6V158.7H161.8V163.3H140.6V158.7H127.8V155H114.9V150H102.4V115.7H115V110.7H127.9V105.8H140.7L141 101.3Z" fill="#FFC72C" style="fill:#FFC72C;fill:color(display-p3 1.0000 0.7804 0.1725);fill-opacity:1;"/>
<path id="Vector_67" d="M128.5 158.7V154.2H115.3V149.7H102.4V115.7H115.3V110.7H128.5V106.2H141.4V101.7H161.8V105.8H174.6V110.4H187.5V115.3H200.4V149.3H187.5V153.8H173.9V158.8H161V163.7H140.6V158.7H128.5Z" fill="#D22630" style="fill:#D22630;fill:color(display-p3 0.8235 0.1490 0.1882);fill-opacity:1;"/>
<path id="Vector_68" d="M131.2 109.6L127.8 107V111.9L124.8 113.8V110.8L121.8 113.8L118.7 110.8V113.8L114.9 111.8V116L112.3 118.3V115.7L108.5 117.9L105.5 115.7V118.3L102 116V129.3H98.2V136.1H102V149.3L105.4 147V150L108.8 147.4L112.2 150V147L114.8 149.3V153.8L118.6 151.6V154.6L121.6 151.6L124.6 154.6V151.2L127.6 153.1V158L131.1 155.3V158.7L134.5 155.7L137.5 158.7V155L140.5 157.2V162.5L145.1 158.4V162.9L151.1 159.1L157.1 162.9V158.7L161.7 162.5V157.6L164.7 155.3V158.7L167.7 155.7L171.5 158.7V155L174.5 157.6V152.6L177.5 150.8V153.8L180.6 150.8L183.6 153.8V151.2L187.4 153.4V149L190 146.7V149.7L193.8 147.1L196.8 149.8V146.8L200.3 149V136.2H204V129.7H200.3V116.5L196.9 118.8V116L193.4 118.3L190 116V118.7L187.4 116.4V112.3L183.6 114.1V111.1L180.6 114.1L177.6 111.1V114.1L174.6 112.3V107.3L171.1 110V106.6L168.1 109.6L164.3 106.6V110L161.7 107.7V102.8L157.2 106.6V102L151.2 105.8L145.1 102V105.8L140.5 102V107L137.5 109.2V105.8L134.5 108.8L131.1 105.8L131.2 109.6Z" fill="#383739" style="fill:#383739;fill:color(display-p3 0.2196 0.2157 0.2235);fill-opacity:1;"/>
<path id="Vector_69" d="M105.8 119V116L108.8 118.3L111.9 116V119L114.9 116.4V148.5L111.9 146.3V148.9L108.9 146.6L105.9 148.9V146.3L102.4 148.5V135.3H98.7V129.6H102.4V116.4L105.8 119ZM131.6 107L134.6 109.6L137.2 107V110.4L140.6 107.7V157L137.2 154.7V158.1L134.6 155.4L131.6 158.1V154.7L128.2 157.3V108.2L131.6 110.5V107ZM170.9 107L168.2 109.6L165.2 107V110.4L161.8 107.7V157L165.2 154.7V158.1L168.2 155.4L170.9 158.1V154.7L174.3 157.3V108.2L170.9 110.5V107ZM196.6 119V116L193.6 118.3L190.6 116V119L187.5 116.4V148.5L190.5 146.3V148.9L193.5 146.6L196.5 148.9V146.3L200 148.5V135.3H203.8V129.6H200V116.4L196.6 119Z" fill="#00843D" style="fill:#00843D;fill:color(display-p3 0.0000 0.5176 0.2392);fill-opacity:1;"/>
<path id="Vector_70" d="M119 111.9L121.7 114.1L124.4 111.9V114.5L128.2 112.3V152.7L124.4 150.4V153.4L121.7 150.8L119.1 153.4V150.4L115.3 152.7V112.3L119.1 114.5L119 111.9ZM145.5 106.9L141 103.2V162.2L145.5 158V162.5L151.2 158.7L156.9 162.5V157.6L161.4 161.4V103.6L156.9 107.3V102L151.2 105.8L145.5 102V106.9ZM183.3 111.9L180.7 114.1L178.1 111.9V114.5L174.3 112.3V152.7L178.1 150.4V153.4L180.7 150.8L183.7 153.4V150.4L187.1 152.7V112.3L183.3 114.5V111.9Z" fill="#FFC72C" style="fill:#FFC72C;fill:color(display-p3 1.0000 0.7804 0.1725);fill-opacity:1;"/>
<g id="Group_9">
<path id="Vector_71" d="M107.4 126.6L108.9 127.4C109.2 127.4 110 127.4 110.4 126.6C111.5 125.5 111.5 123.2 111.5 121.7L109.6 123.6L108.9 121.7L107.7 123.6L106.2 121.7C106.2 123.2 106.2 125.5 107.4 126.7V126.6ZM121 123.2L119.8 122.1V120.1L117.6 122.5L121.3 126.2L125.9 122.5L123.6 120.2V122.1L122.5 123.2V119.4L124.4 117.9L121.7 115.7L119.1 117.9L121 119.9V123.2ZM133.4 119.4L132.7 118.3V116L130 118.3L134.6 122.5L138.4 118.7L136.1 116V118.3L135.3 119.1V115.3L137.3 114.1L134.6 111.9L131.9 114.1L133.4 115.7V119.4Z" fill="#383739" style="fill:#383739;fill:color(display-p3 0.2196 0.2157 0.2235);fill-opacity:1;"/>
<path id="Vector_72" d="M108.9 122.5L109.6 124L111.1 122.5C111.1 124.3 110.8 125.9 110.1 126.2C109.96 126.386 109.779 126.538 109.571 126.642C109.363 126.746 109.133 126.8 108.9 126.8C108.667 126.8 108.437 126.746 108.229 126.642C108.021 126.538 107.84 126.386 107.7 126.2C107 125.9 106.6 124.3 106.6 122.5L108.1 124L108.9 122.5ZM134.9 115.3V120.2L136.5 118.3V117.2L138 118.7L134.2 122.5L130.4 118.7L132.4 117.2V118.7L133.8 120.6V115.6L132.3 114.6L134.6 112.6L136.5 114.6L134.9 115.3Z" fill="white" style="fill:white;fill-opacity:1;"/>
<path id="Vector_73" d="M122.1 119.4V124L124 122.5V120.9L125.5 122.5L121.7 126.2L117.9 122.5L119.5 120.9V122.5L121 124V119.4L119.5 117.9L121.7 116.4L123.7 117.9L122.1 119.4Z" fill="#D22630" style="fill:#D22630;fill:color(display-p3 0.8235 0.1490 0.1882);fill-opacity:1;"/>
<path id="Vector_74" d="M195 126.6L193.5 127.4C193.167 127.533 192.833 127.267 192.5 126.6C190.9 125.5 190.9 123.2 190.9 121.7L192.8 123.6L193.5 121.7L194.7 123.6L196.2 121.7C196.2 123.2 196.2 125.5 195.1 126.7L195 126.6ZM181.8 123.2L182.6 122.1V120.1L184.9 122.5L181.1 126.2L176.5 122.5L178.8 120.2V122.1L179.9 123.2V119.4L178.1 117.9L180.7 115.7L183.3 117.9L181.8 119.9V123.2ZM169 119.4L169.7 118.3V116L172.4 118.3L168.2 122.5L163.7 118.7L166.3 116V118.3L167.1 119.1V115.3L165.6 114.1L168.2 111.9L170.9 114.1L168.9 115.7L169 119.4Z" fill="#383739" style="fill:#383739;fill:color(display-p3 0.2196 0.2157 0.2235);fill-opacity:1;"/>
<path id="Vector_75" d="M193.5 122.5L192.8 124L191.3 122.5C191.3 124.3 191.7 125.9 192.4 126.2C192.541 126.368 192.717 126.503 192.915 126.596C193.114 126.689 193.331 126.737 193.55 126.737C193.769 126.737 193.986 126.689 194.184 126.596C194.383 126.503 194.559 126.368 194.7 126.2C195.4 125.9 195.8 124.3 195.8 122.5L194.7 124L193.5 122.5ZM167.5 115.3V120.2L166 118.3V117.2L164.4 118.7L168.2 122.5L172 118.7L170.1 117.2V118.7L168.6 120.6V115.6L170.1 114.6L168.2 112.6L166 114.6L167.5 115.3Z" fill="white" style="fill:white;fill-opacity:1;"/>
<path id="Vector_76" d="M180.3 119.4V124L178.8 122.5V120.9L177.3 122.5L181.1 126.2L184.9 122.5L182.9 120.9V122.5L181.5 124V119.4L183 117.9L180.7 116.4L178.8 117.9L180.3 119.4Z" fill="#D22630" style="fill:#D22630;fill:color(display-p3 0.8235 0.1490 0.1882);fill-opacity:1;"/>
<path id="Vector_77" d="M156.1 121L155 118.7L158.4 115.7L155 113V114.9L153.9 116V112.3L156.9 110.3L151.2 105.8L145.5 109.6L148.5 112.3V115.7L147.5 114.5V112.6L144 115.3L147.8 118.3L146.3 120.2L156.1 121Z" fill="#383739" style="fill:#383739;fill:color(display-p3 0.2196 0.2157 0.2235);fill-opacity:1;"/>
<path id="Vector_78" d="M147 120.6L148.2 118.6L144.4 115.6L147.1 113.8V114.9L148.9 116.8V112.3L146.3 110.3L151.3 106.6L156.1 110.4L153.5 112.3V117.2L155.4 115.2V114.2L158 116L154.2 119L155.7 121L147 120.6Z" fill="#D22630" style="fill:#D22630;fill:color(display-p3 0.8235 0.1490 0.1882);fill-opacity:1;"/>
<path id="Vector_79" d="M148.6 110.4L151.2 112.3L153.9 110.3L151.2 108.5L148.6 110.4Z" fill="#383739" style="fill:#383739;fill:color(display-p3 0.2196 0.2157 0.2235);fill-opacity:1;"/>
<path id="Vector_80" d="M151.2 108.9L153.1 110.4L151.2 111.5L149.3 110.4L151.2 108.9Z" fill="#00843D" style="fill:#00843D;fill:color(display-p3 0.0000 0.5176 0.2392);fill-opacity:1;"/>
</g>
<g id="Group_10">
<path id="Vector_81" d="M107.4 138.3C107.586 138.083 107.815 137.908 108.074 137.788C108.333 137.667 108.614 137.603 108.9 137.6C109.2 137.6 110 137.6 110.4 138.3C111.5 139.5 111.5 141.7 111.5 143.3L109.6 141.7L108.9 143.2L107.7 141.7L106.2 143.2C106.2 141.7 106.2 139.5 107.4 138.3ZM121 141.7L119.8 142.9V144.8L117.6 142.5L121.3 138.7L125.9 142.5L123.6 144.8V142.8L122.5 141.8V145.5L124.4 147L121.7 149.3L119.1 147L121 145.1V141.7ZM133.4 145.5L132.7 146.6V148.9L130 146.6L134.6 142.5L138.4 146.6L136.1 148.9V146.6L135.3 145.9V149.7L137.3 150.8L134.6 153.1L131.9 150.8L133.4 149.3V145.5Z" fill="#383739" style="fill:#383739;fill:color(display-p3 0.2196 0.2157 0.2235);fill-opacity:1;"/>
<path id="Vector_82" d="M108.9 142.5L109.6 141L111.1 142.5C111.1 140.5 110.767 139.233 110.1 138.7C109.96 138.514 109.779 138.363 109.571 138.258C109.363 138.154 109.133 138.1 108.9 138.1C108.667 138.1 108.437 138.154 108.229 138.258C108.021 138.363 107.84 138.514 107.7 138.7C107.033 139.233 106.667 140.5 106.6 142.5L108.1 141L108.9 142.5ZM134.9 149.7V144.7L136.5 146.7V148.2L138 146.6L134.2 142.9L130.4 146.6L132.4 148.2V146.6L133.8 144.8V149.7L132.3 150.8L134.6 152.7L136.5 150.8L134.9 149.7Z" fill="white" style="fill:white;fill-opacity:1;"/>
<path id="Vector_83" d="M122.1 145.5V141L124 142.5V144L125.5 142.5L121.7 138.7L117.9 142.5L119.5 144V142.5L121 141V145.5L119.5 147L121.7 148.5L123.7 147L122.1 145.5Z" fill="#D22630" style="fill:#D22630;fill:color(display-p3 0.8235 0.1490 0.1882);fill-opacity:1;"/>
<path id="Vector_84" d="M195 138.3C194.814 138.083 194.585 137.908 194.326 137.788C194.067 137.667 193.785 137.603 193.5 137.6C193.167 137.467 192.833 137.7 192.5 138.3C190.9 139.5 190.9 141.7 190.9 143.3L192.8 141.7L193.5 143.2L194.7 141.7L196.2 143.2C196.2 141.7 196.2 139.5 195.1 138.3H195ZM181.8 141.7L182.6 142.9V144.8L184.9 142.5L181.1 138.7L176.5 142.5L178.8 144.8V142.8L179.9 141.8V145.5L178.1 147L180.7 149.3L183.3 147L181.8 145.1V141.7ZM169 145.5L169.7 146.6V148.9L172.4 146.6L168.2 142.5L163.7 146.6L166.3 148.9V146.6L167.1 145.9V149.7L165.6 150.8L168.2 153.1L170.9 150.8L168.9 149.3L169 145.5Z" fill="#383739" style="fill:#383739;fill:color(display-p3 0.2196 0.2157 0.2235);fill-opacity:1;"/>
<path id="Vector_85" d="M193.5 142.5L192.8 141L191.3 142.5C191.3 140.5 191.667 139.233 192.4 138.7C192.541 138.532 192.717 138.397 192.915 138.304C193.114 138.211 193.331 138.163 193.55 138.163C193.769 138.163 193.986 138.211 194.184 138.304C194.383 138.397 194.559 138.532 194.7 138.7C195.367 139.233 195.733 140.5 195.8 142.5L194.7 141L193.5 142.5ZM167.5 149.7V144.7L166 146.7V148.2L164.4 146.6L168.2 142.9L172 146.6L170.1 148.2V146.6L168.6 144.8V149.7L170.1 150.8L168.2 152.7L166 150.8L167.5 149.7Z" fill="white" style="fill:white;fill-opacity:1;"/>
<path id="Vector_86" d="M180.3 145.5V141L178.8 142.5V144L177.3 142.5L181.1 138.7L184.9 142.5L182.9 144V142.5L181.5 141V145.5L183 147L180.7 148.5L178.8 147L180.3 145.5Z" fill="#D22630" style="fill:#D22630;fill:color(display-p3 0.8235 0.1490 0.1882);fill-opacity:1;"/>
<path id="Vector_87" d="M156.1 144.4L155 146.3L158.4 149.3L155 151.9V150L153.9 149V152.7L156.9 154.6L151.2 158.7L145.5 155L148.5 152.3V149L147.5 150.1V152.1L144 149.4L147.8 146.4L146.3 144.4H156.1Z" fill="#383739" style="fill:#383739;fill:color(display-p3 0.2196 0.2157 0.2235);fill-opacity:1;"/>
<path id="Vector_88" d="M147 144.8L148.2 146.3L144.4 149.3L147.1 151.2V150L148.9 148.2V152.7L146.3 154.6L151.3 158.4L156.1 154.6L153.5 152.6V148.2L155.4 150V151.2L158 149.2L154.2 146.2L155.7 144.8H147Z" fill="#D22630" style="fill:#D22630;fill:color(display-p3 0.8235 0.1490 0.1882);fill-opacity:1;"/>
<path id="Vector_89" d="M148.6 155L151.2 152.7L153.9 154.6L151.2 156.5L148.6 155Z" fill="#383739" style="fill:#383739;fill:color(display-p3 0.2196 0.2157 0.2235);fill-opacity:1;"/>
<path id="Vector_90" d="M151.2 156L153.1 154.6L151.2 153.4L149.3 154.6L151.2 156Z" fill="#00843D" style="fill:#00843D;fill:color(display-p3 0.0000 0.5176 0.2392);fill-opacity:1;"/>
</g>
<path id="Vector_91" d="M196.6 130.4H191.3V128.5H173.9L161.8 120.9H140.6L128.6 128.5H111V130.8H105.7V134.6H111V137.2H128.4L140.5 144.8H161.7L173.7 137.2H191.2V134.9H196.5L196.6 130.4Z" fill="#383739" style="fill:#383739;fill:color(display-p3 0.2196 0.2157 0.2235);fill-opacity:1;"/>
<path id="Vector_92" d="M140.6 121L128.6 128.5H111.6V130.8H106.2V134.2H111.5V136.4H128.5L140.6 144H161.8L173.8 136.4H191V134.2H196.7V130.8H191V128.5H174L161.9 120.9L140.6 121ZM140.6 122H161.4L172.8 129.3V130.3H184.8V134.9H172.4V136.1L161.4 142.9H141L129.7 136.1V134.9H117.6V130.4H130V129.3L140.6 122Z" fill="#D22630" style="fill:#D22630;fill:color(display-p3 0.8235 0.1490 0.1882);fill-opacity:1;"/>
<path id="Vector_93" d="M161.4 122L172 129.6V130.4H184.5V134.2H172V135.7L161.4 142.9H141L130.4 135.7V134.6H118V130.8H130.5V129.3L141 122H161.4Z" fill="#D22630" style="fill:#D22630;fill:color(display-p3 0.8235 0.1490 0.1882);fill-opacity:1;"/>
<g id="Group_11">
<path id="Vector_94" d="M135.7 136.4L140.2 140.2L143.2 137.6L141.8 136.4L140.2 137.2L139.2 136.4L156.5 123.2H153.1L135.7 136.4ZM145.9 141.7H149.3L166.7 128.5L162.2 124.7L159.2 127.4L161 128.5L162.2 127.7L163.3 128.5L145.9 141.7ZM153.5 141.7H156.5L139.1 128.5L140.2 127.7L141.8 128.5L143.3 127.4L140.3 125.1L135.7 128.5L153.5 141.7ZM163.3 136.4L162.2 137.2L161 136.4L159.1 137.6L162.1 139.8L166.7 136.4L149.3 123.2H145.5L163.3 136.4ZM132.3 132.7L135.3 134.6L138.3 132.6L135.3 130.4L132.3 132.7ZM148.2 132.3L151.2 134.6L154.2 132.6L151.2 130.4L148.2 132.3ZM170.2 132.3L167.1 134.6L164.1 132.6L167.1 130.4L170.2 132.3Z" fill="#383739" style="fill:#383739;fill:color(display-p3 0.2196 0.2157 0.2235);fill-opacity:1;"/>
<path id="Vector_95" d="M166.3 136.4L162.2 139.4L159.5 137.6L161 136.8L162.2 137.6L163.7 136.4L146.7 123.6H149.3L166.3 136.4ZM155.7 141.4H153.1L136.1 128.5L140.2 125.5L142.9 127.4L141.8 128.1L140.2 127.4L138.7 128.5L155.7 141.4ZM149.3 141.4H146.7L163.7 128.5L162.2 127.4L161 128.1L159.5 127.4L162.2 125.4L166 128.5L149.3 141.4ZM153.1 123.6H155.7L138.7 136.4L140.2 137.6L141.8 136.8L142.8 137.6L140.2 139.5L136.5 136.5L153.1 123.6Z" fill="#FFC72C" style="fill:#FFC72C;fill:color(display-p3 1.0000 0.7804 0.1725);fill-opacity:1;"/>
<path id="Vector_96" d="M135.3 130.8L137.6 132.7L135.3 134.2L132.7 132.7L135.3 130.8ZM151.3 130.8L153.9 132.7L151.2 134.2L148.6 132.7L151.3 130.8ZM167.1 130.8L164.8 132.7L167.1 134.2L169.7 132.7L167.1 130.8Z" fill="#00843D" style="fill:#00843D;fill:color(display-p3 0.0000 0.5176 0.2392);fill-opacity:1;"/>
</g>
<path id="Vector_97" d="M96.4 219.2L95.3 221.1L97.5 222.6L95.3 224.5L96.4 226L99 226.4L101.3 224.5L107.7 228.3V225.3L104 222.6L107.7 220.3V217L101.3 220.8L99 219.3L96.4 219.2ZM96.4 207.9L95.3 209.8L97.5 211.3L95.3 213.2L96.4 214.7L99 215.1L101.3 213.1L107.7 216.9V213.9L104 211.3L107.7 209V205.6L101.3 209.4L99 207.9H96.4ZM96.4 237.4L95.3 235.8L97.5 234L95.3 232.4L96.4 230.6H99L101.3 232.1L107.7 228.3V231.7L104 234L107.7 236.6V239.6L101.3 235.8L99 237.8L96.4 237.4ZM206 219.2L207.2 221.1L204.9 222.6L207.2 224.5L206 226L203.4 226.4L201.1 224.5L194.7 228.3V225.3L198.5 222.6L194.7 220.3V217L201.1 220.8L203.4 219.3L206 219.2ZM206 207.9L207.2 209.8L204.9 211.3L207.2 213.2L206 214.7L203.4 215.1L201.1 213.1L194.7 216.9V213.9L198.5 211.3L194.7 209V205.6L201.1 209.4L203.4 207.9H206ZM206 237.4L207.2 235.8L204.9 234L207.2 232.4L206 230.6H203.4L201 232L194.6 228.2V231.6L198.4 233.9L194.6 236.5V239.5L201 235.7L203.3 237.7L206 237.4ZM181.5 189V193.5H184.9V195.8H188.3V192H185.3V189H181.5ZM191.3 196.5V200.3H195.1V202.2H198.1V198.4H195.1V196.5H191.3ZM121 189V193.5H117.6V195.8H114.2V192H117.2V189H121ZM181.5 257V252.5H184.9V250.5H188.3V254.4H185.3V257.4L181.5 257ZM121 257V252.5H117.6V250.5H114.2V254.4H117.2V257.4L121 257ZM191.3 249.4V245H195.1V242.7H198.1V246.5H195.1V249.5L191.3 249.4ZM111 196.5V200.3H107.3V202.2H104.3V198.4H107.3V196.5H111ZM111 249.8V245.3H107.3V243H104.3V246.8H107.3V249.8H111ZM164 189L161.3 186.3L158.7 188.6L160.9 190.9L157.9 193.5H162.1L163.6 192L165.1 193.5H170.1L167 191L169.3 188.7L166.6 186.4L164 189ZM151.1 189L148.5 186.3L145.8 188.6L148.1 190.9L145.4 193.5H149.6L151.1 192L152.6 193.5H156.8L154.1 190.9L156.4 188.6L153.8 186.3L151.1 189ZM138.6 189L141.3 186.3L143.6 188.6L141.3 190.9L144.3 193.5H140.1L138.6 192L137.1 193.5H132.2L135.2 190.9L133 188.6L135.6 186.3L138.3 189H138.6ZM163.6 257L161.3 260L158.7 257.4L160.9 255.5L157.9 252.5H162.1L163.6 254L165.1 252.5H170.1L167 255.5L169.3 257.4L166.6 260L163.6 257ZM151.1 257L148.5 260L145.8 257.4L148.1 255.5L145.4 252.5H149.6L151.1 254L152.6 252.5H156.8L154.1 255.5L156.4 257.4L153.8 260L151.1 257ZM138.6 257L141.3 260L143.6 257.4L141.3 255.5L144.3 252.5H140.1L138.6 254L137.1 252.5H132.2L135.2 255.5L133 257.4L135.6 260L138.3 257.4L138.6 257Z" fill="#383739" style="fill:#383739;fill:color(display-p3 0.2196 0.2157 0.2235);fill-opacity:1;"/>
<path id="Vector_98" d="M107.4 225.3V227.9L101.4 224.1L99 226.1H96.8L95.6 224.5L97.9 222.6L95.6 221.1L96.8 219.6H99L101.3 221.5L107.3 217.7V220L103.2 222.6L107.4 225.3ZM107.4 213.9V216.6L101.4 212.8L99 214.7H96.8L95.6 213.2L97.9 211.2L95.6 209.8L96.8 208.3H99L101.3 210.1L107.3 206.4V208.6L103.2 211.3L107.4 213.9ZM107.4 231.3V229L101.4 232.8L99 230.6H96.8L95.6 232.1L98 234L95.7 235.8L96.9 237H99L101.3 235.5L107.3 239.2V236.6L103.2 234L107.4 231.3ZM195.1 225.3V227.9L201.1 224.1L203.8 226.1H205.6L206.8 224.5L204.5 222.6L206.8 221.1L205.6 219.6H204.1L201.5 221.5L195.5 217.7V220L199.6 222.6L195.1 225.3ZM195.1 213.9V216.6L201.1 212.8L203.8 214.7H205.6L206.8 213.2L204.5 211.2L206.8 209.8L205.6 208.3H204.1L201.5 210.1L195.5 206.4V208.6L199.6 211.3L195.1 213.9ZM195.1 231.3V229L201.1 232.8L203.8 230.6H205.6L206.8 232.1L204.5 234L206.8 235.8L205.6 237H204.1L201.5 235.5L195.5 239.2V236.6L199.6 234L195.1 231.3ZM185.2 189V192H188.2V195H185.2V192.8H181.5V189H185.2ZM195.4 196.5V199.2H198.1V202.2H195.4V200.3H192V196.5H195.4ZM117.2 189V192H114.2V195H116.8V192.8H120.6V189H117.2ZM185.2 256.6V253.2H188.2V250.2H185.2V252.1H181.5V255.9L185.2 256.6ZM117.9 256.6V253.2H114.9V250.2H117.6V252.1H121.3V255.9L117.9 256.6ZM195.4 249.1V246.1H198.1V243.1H195.4V245.3H192V249.1H195.4ZM107.7 196.5V199.5H104.7V202.5H107.4V200.3H110.8V196.5H107.7ZM107.7 249.5V246.5H104.7V243.4H107.4V245.7H110.8V249.4L107.7 249.5ZM161.4 186.7L163.7 189.4L166.3 186.7L168.6 188.6L166.3 190.9L169 193.1H165.2L163.7 191.6L162.2 193.1H158.8L161.4 190.9L159.1 188.6L161.4 186.7ZM148.6 186.7L151.2 189.4L153.9 186.7L155.7 188.6L153.5 190.9L156.1 193.1H152.7L151.2 191.6L149.7 193.1H145.9L148.9 190.9L146.7 188.6L148.6 186.7ZM141 186.7L138.7 189.4L136.1 186.7L133.8 188.6L136.1 190.9L133.8 193.1H136.8L138.8 191.6L140.2 193.1H143.7L141 191L143.3 188.7L141 186.7ZM161.4 259.3L163.7 257L166.3 259.3L168.6 257.3L166.3 255.5L169 252.9H165.2L163.7 254.4L162.2 252.9H158.8L161.4 255.5L159.1 257.4L161.4 259.3ZM148.6 259.3L151.2 257L153.9 259.3L155.7 257.3L153.5 255.5L156.1 252.9H152.7L151.2 254.4L149.7 252.9H145.9L148.9 255.5L146.7 257.4L148.6 259.3ZM141 259.3L138.7 257L136.1 259.3L133.8 257.3L136.1 255.5L133.8 252.9H136.8L138.8 254.4L140.2 252.9H143.7L141 255.5L143.3 257.4L141 259.3Z" fill="#00843D" style="fill:#00843D;fill:color(display-p3 0.0000 0.5176 0.2392);fill-opacity:1;"/>
<path id="Vector_99" d="M117.2 245.3V252.9H185.2V245.3H195.1V200.3H185.2V192.8H117.2V200.3H107.4V245.3H117.2Z" fill="#383739" style="fill:#383739;fill:color(display-p3 0.2196 0.2157 0.2235);fill-opacity:1;"/>
<path id="Vector_100" d="M117.6 193.1V200.7H107.7V244.9H117.2V252.5H185.2V244.9H195.1V200.3H185.2V192.8H117.2L117.6 193.1ZM122.1 196.1H180.3V203.3L183 204.9H192V240.4H183L180.3 242.3V249.4H122.1V242L119.5 240.5H110.4V205H119.4L122.1 203.4V195.9V196.1Z" fill="#FFC72C" style="fill:#FFC72C;fill:color(display-p3 1.0000 0.7804 0.1725);fill-opacity:1;"/>
<path id="Vector_101" d="M122.5 196.5V203L131.2 196.5H122.5ZM171.6 196.5L179.9 203V196.5H171.6ZM111.1 205.2V211.7L119.1 205.7L111.1 205.2ZM183.3 205.2L191.7 211.7V205.2H183.3ZM191.7 234L183.3 240H191.7V234ZM110.7 234V240H119.1L110.7 234ZM122.1 242.6V249.1H131.1L122.1 242.6ZM179.9 242.6L171.2 249.1H179.9V242.6Z" fill="#D22630" style="fill:#D22630;fill:color(display-p3 0.8235 0.1490 0.1882);fill-opacity:1;"/>
<path id="Vector_102" d="M170.9 196.5L191.7 211.7V233.6L170.9 248.6H131.6L110.8 233.6V211.6L131.6 196.2L170.9 196.5Z" fill="#00843D" style="fill:#00843D;fill:color(display-p3 0.0000 0.5176 0.2392);fill-opacity:1;"/>
<path id="Vector_103" d="M115.7 235.8L113.4 233.2L115.7 230.6L113.4 227.9L115.7 225.3L113.4 222.6L115.7 220L113.4 217.3L115.7 214.7L113.4 212.4L115.7 209.4H186.7L189 212.4L186.7 214.7L189 217.3L186.7 220L189 222.6L186.7 225.3L189 227.9L186.7 230.6L189 233.2L186.7 235.8H115.7ZM164.8 199.9L161.8 197.3L159.1 199.6L156.5 197.3L153.9 199.6L151.2 197.3L148.6 199.6L145.9 197.3L143.3 199.6L140.6 197.3L138 199.9V245.3L140.6 247.9L143.3 245.7L145.9 247.9L148.6 245.7L151.2 247.9L153.9 245.7L156.5 247.9L159.1 245.7L161.8 247.9L164.4 245.7L164.8 199.9Z" fill="#383739" style="fill:#383739;fill:color(display-p3 0.2196 0.2157 0.2235);fill-opacity:1;"/>
<g id="Group_12">
<path id="Vector_104" d="M158.8 200.3L156.5 198L153.9 200V245.3L156.5 247.6L158.8 245.3V200.3ZM148.6 200.3L145.9 198L143.7 200V245.3L145.9 247.6L148.6 245.3V200.3Z" fill="#FFC72C" style="fill:#FFC72C;fill:color(display-p3 1.0000 0.7804 0.1725);fill-opacity:1;"/>
<path id="Vector_105" d="M116 235.8L113.8 233.2L116.1 230.9H186.4L188.6 233.2L186.4 235.8H116ZM186.4 220.3L188.6 222.6L186.4 225.3H116L113.7 222.6L116 220.3H186.4ZM186.4 214.7L188.6 212.4L186.4 209.8H116L113.7 212.4L116 214.7H186.4Z" fill="#FFC72C" style="fill:#FFC72C;fill:color(display-p3 1.0000 0.7804 0.1725);fill-opacity:1;"/>
</g>
<g id="Group_13">
<path id="Vector_106" d="M164 200.3L161.8 198L159.1 200V245.3L161.8 247.6L164.1 245.3L164 200.3ZM143.7 200.3L141 198L138.7 200V245.3L141 247.6L143.7 245.3V200.3Z" fill="#D22630" style="fill:#D22630;fill:color(display-p3 0.8235 0.1490 0.1882);fill-opacity:1;"/>
<path id="Vector_107" d="M116 230.6L113.8 227.9L116.1 225.6H186.4L188.6 227.9L186.4 230.6H116ZM116 220L113.8 217.3L116.1 215.1H186.4L188.6 217.3L186.4 220H116Z" fill="#D22630" style="fill:#D22630;fill:color(display-p3 0.8235 0.1490 0.1882);fill-opacity:1;"/>
<path id="Vector_108" d="M153.9 245.7L151.2 247.6L148.9 245.3V200.3L151.2 198.4L153.9 200.4V245.7Z" fill="#D22630" style="fill:#D22630;fill:color(display-p3 0.8235 0.1490 0.1882);fill-opacity:1;"/>
</g>
<path id="Vector_109" d="M175 200.7H127.4V204.5H121V240.8H127V244.5H174.6V240.8H181.5V204.5H175.4V200.7H175Z" fill="#383739" style="fill:#383739;fill:color(display-p3 0.2196 0.2157 0.2235);fill-opacity:1;"/>
<path id="Vector_110" d="M127.8 201V204.9H121.8V240.4H127.8V244.2H132.3L122.5 235.8V209.4L132.3 201.1H127.4L127.8 201ZM169.8 201L179.6 209.8V236.2L170.1 243.8H175.1V240H181.1V204.5H175.1V200.7H170.1L169.8 201Z" fill="#D22630" style="fill:#D22630;fill:color(display-p3 0.8235 0.1490 0.1882);fill-opacity:1;"/>
<g id="Group_14">
<path id="Vector_111" d="M133 201L123.2 209.8V235.8L133.1 244.2H169.4L179.2 235.8V209.4L169.4 201.1L133 201ZM133.8 202.6H168.6L178.1 210.1V235.1L168.6 242.6H133.8L124.4 235.1V210.5L133.8 202.6Z" fill="#00843D" style="fill:#00843D;fill:color(display-p3 0.0000 0.5176 0.2392);fill-opacity:1;"/>
<path id="Vector_112" d="M142.9 235.5L144.4 236.2L144.8 238.2L142.8 239.6L145.9 242.3H142.9L141 240.3L139.1 242.3H136.1L138.7 239.6L136.8 238.1V236.2L138.8 235.5L140.6 237L142.9 235.5ZM153.1 235.5L154.6 236.2L155 238.2L153.1 239.6L156.1 242.3H153.1L151.2 240.3L149.3 242.3H146.7L149.3 239.6L147.4 238.1V236.2L149.4 235.5L151.2 237L153.1 235.5ZM159.5 235.5L158 236.2L157.6 238.2L159.6 239.6L156.9 242.3H159.5L161.5 240.3L163.3 242.3H166.3L163.3 239.6L165.2 238.1V236.2L163.3 235.5L161.4 237L159.5 235.5ZM143 210L144.5 209.3L144.9 207.4L142.9 205.5L146 202.9H143L141.1 204.8L139.2 202.8H136.2L138.8 205.5L136.9 207.4V209.3L138.9 210L140.7 208.2L143 210ZM153.2 210L154.7 209.3L155.1 207.4L153.2 205.5L156.2 202.9H153.2L151.3 204.8L149.4 202.8H146.8L149.4 205.5L147.5 207.4V209.3L149.5 210L151.3 208.2L153.2 210ZM159.6 210L158.1 209.3L157.7 207.4L159.7 205.5L157 202.9H159.6L161.6 204.8L163.4 202.8H166.4L163.4 205.5L165.3 207.4V209.3L163.4 210L161.5 208.2L159.6 210ZM177.8 212.7L176.3 214.2L177.8 215.3V217.6L175.1 215.7L173.6 217.2H171.7L171 215.7L172.5 214.2L171 212.7L171.7 211.2H173.7L175.1 212.7L177.8 210.8V212.7ZM177.8 221.4L176.3 222.5L177.8 224V226L175.1 224L173.6 225.5H171.7L171 224L172.5 222.5L171 221L171.7 219.9H173.7L175.1 221L177.8 219.1V221.4ZM177.8 232.7L176.3 231.2L177.8 229.7V227.8L175.1 229.7L173.6 228.2H171.7L171 229.7L172.5 231.2L171 232.7L171.7 233.9H173.7L175.1 232.7L177.8 234.7V232.7ZM124.8 212.7L126.8 214.2L124.8 215.3V217.6L127.5 215.7L129 217.2H130.9L131.7 215.7L130.1 214.2L131.7 212.7L130.9 211.2H129L127.5 212.7L124.8 210.8V212.7ZM124.8 221.4L126.8 222.5L124.8 224V226L127.5 224L129 225.5H130.9L131.7 224L130.1 222.5L131.7 221L130.9 219.9H129L127.5 221L124.8 219.1V221.4ZM124.8 232.7L126.8 231.2L124.8 229.7V227.8L127.5 229.7L129 228.2H130.9L131.7 229.7L130.1 231.2L131.7 232.7L130.9 233.9H129L127.5 232.7L124.8 234.7V232.7Z" fill="#00843D" style="fill:#00843D;fill:color(display-p3 0.0000 0.5176 0.2392);fill-opacity:1;"/>
</g>
<path id="Vector_113" d="M133.8 203L125.1 210.5L127.4 212.5L128.9 210.9H131.2L131.9 212.8L130.4 214.3L131.9 215.8L131.2 217.3H128.5L127 216.2L124.4 218.1V218.8L127 220.8L128.5 219.2L130.8 219.6L131.6 221.1L130 222.6L131.6 224.1L130.8 226.1H128.5L127 224.5L124.4 226.8V227.1L127 229.4L128.5 227.9H130.8L131.6 229.8L130 231.3L131.6 232.8L130.8 234.3H128.5L127 233.2L124.7 235.1L133.4 242.6H135.4L138.4 239.6L136.4 238.1V235.8L138.7 235.1L140.7 236.6L142.5 235.1L144.5 235.8L144.8 238.1L142.8 239.6L145.9 242.3L148.6 239.6L146.6 238.1V235.8L148.9 235.1L150.9 236.6L152.7 235.1L154.7 235.8L155 238.1L153.1 239.6L155.7 242.3L158.7 239.6L156.9 238.1V235.8L159.1 235.1L161.1 236.6L162.9 235.1L164.9 235.8L165.2 238.1L163.3 239.6L166.3 242.3H168.3L176.9 234.7L174.6 233.2L173.1 234.7L170.9 234.3L170.1 232.8L171.6 231.3L170.1 229.8L170.9 228.3L173.1 227.9L174.6 229.4L177.3 227.1V226.8L174.6 224.5L173.1 226H171L170.2 224.1L171.7 222.6L170.2 221.1L171 219.6H173.2L174.7 220.7L177.4 218.8V218.1L174.7 216.1L173.2 217.7L171 217.3L170.2 215.8L171.7 214.3L170.2 212.8L171 211.3L173.2 210.9L174.7 212.4L177 210.5L168.3 203H166.4L163.4 205.6L165.3 207.5V209.8L163 210.5L161.1 209L159.2 210.5L157.4 209.8L157 207.5L158.9 205.6L156.2 203L153.2 205.6L155.1 207.5V209.8L152.8 210.5L150.9 209L149 210.5L147.2 209.8L146.8 207.5L148.7 205.6L146 203L143 205.6L144.9 207.5V209.8L142.6 210.5L140.7 209L138.8 210.5L136.9 209.8L136.6 207.5L138.5 205.6L135.5 203H133.8ZM124.8 221.9V223.7L125.8 222.7L124.8 221.9Z" fill="#D22630" style="fill:#D22630;fill:color(display-p3 0.8235 0.1490 0.1882);fill-opacity:1;"/>
<path id="Vector_114" d="M141 241.1L139.5 242.3H142.5L141 241.1ZM151.2 241.1L149.7 242.3H152.7L151.2 241.1ZM161.4 241.1L159.9 242.3H162.9L161.4 241.1ZM139.4 203.3L141 204.5L142.5 203L139.4 203.3ZM149.7 203.3L151.2 204.5L152.7 203L149.7 203.3ZM159.9 203.3L161.4 204.5L162.9 203L159.9 203.3ZM177.7 213.5L176.5 214.3L177.7 215.1V213.5ZM177.7 221.9L176.5 222.6L177.7 223.7V221.9ZM177.7 230.6L176.5 231.3L177.7 232.1V230.6ZM124.7 213.2V215.1L125.9 214.3L124.7 213.2ZM124.7 221.9V223.7L125.9 222.7L124.7 221.9ZM124.7 230.2V232.1L125.9 231.3L124.7 230.2Z" fill="white" style="fill:white;fill-opacity:1;"/>
<g id="Group_15">
<path id="Vector_115" d="M160 220V217H156.9V213.5H145.5V216.9H142.5V219.9H138.4V225.6H142.5V228.6H145.5V232.1H157V228.3H160V225.6H164.2V220H160Z" fill="#383739" style="fill:#383739;fill:color(display-p3 0.2196 0.2157 0.2235);fill-opacity:1;"/>
<path id="Vector_116" d="M151.2 214V217.3L146.3 220V222.6H138.7V220.3H142.5V217.3H145.9V213.5L151.2 214ZM151.2 231.7V227.9L156.2 225.3V223H163.7V225.3H159.9V228.3H156.5V231.7H151.2Z" fill="#FFC72C" style="fill:#FFC72C;fill:color(display-p3 1.0000 0.7804 0.1725);fill-opacity:1;"/>
<path id="Vector_117" d="M156.1 222.6V220L151.2 217.3V213.5H156.5V217.3H159.5V220.3H163.7V222.6H156.1ZM138.7 222.6H146.3V225.3L151.3 228.3V231.7H145.9V227.9H142.9V225.3H138.7V222.6Z" fill="white" style="fill:white;fill-opacity:1;"/>
<path id="Vector_118" d="M146.7 223V225.3L151.2 227.9V222.9L146.7 223Z" fill="#D22630" style="fill:#D22630;fill:color(display-p3 0.8235 0.1490 0.1882);fill-opacity:1;"/>
<path id="Vector_119" d="M151.2 217.7L146.7 220.3V222.6H151.2V217.7Z" fill="#00843D" style="fill:#00843D;fill:color(display-p3 0.0000 0.5176 0.2392);fill-opacity:1;"/>
<path id="Vector_120" d="M155.7 222.6V220.3L151.2 217.7V222.7L155.7 222.6Z" fill="#D22630" style="fill:#D22630;fill:color(display-p3 0.8235 0.1490 0.1882);fill-opacity:1;"/>
<path id="Vector_121" d="M151.2 228L155.7 225.3V223H151.2V228Z" fill="#00843D" style="fill:#00843D;fill:color(display-p3 0.0000 0.5176 0.2392);fill-opacity:1;"/>
</g>
<path id="Vector_122" d="M110 283V292.5H101.3V300.9H92.3V325H101.3V333.7H109.6V342.8H142.1L147.8 346.6L145.2 348.1H133.8L132.7 347H143.7L140.7 344H125.5L132.3 351.1H146.3L151.3 347.7L156.1 350.7H170.1L176.9 343.6H161.8L158.8 346.6H169.4L168.6 347.7H156.9L154.2 345.8L159.9 342.4H192.4V333.4H201.1V325H210.1V301H201.1V292.6H192.8V283.2H160.3L154.6 279.4L157.3 277.9H168.6L169.7 279H158.7L161.8 282H176.9L170.1 274.9H156.1L151.2 277.9L146.3 274.9H132.3L125.5 282.4H140.6L143.6 279H133.1L133.8 277.9H145.5L148.2 279.8L142.5 283.2L110 283Z" fill="#D22630" style="fill:#D22630;fill:color(display-p3 0.8235 0.1490 0.1882);fill-opacity:1;"/>
<path id="Vector_123" d="M160 342.4H192V333.4H200.4V324.7H209.4V301.2H200.4V292.5H191.7V283.5H159.5L146 275H132.4L126.4 281.5H140.4L142.6 279.2H132.4L133.9 277.3H145.6L160.8 286.8H189V295.8H198V304.5H207.2V321.2H198V329.9H189V339.3H161.3L146.2 348.3H134.1L132.6 346.5H142.8L140.5 344.2H126.5L132.5 350.6H146.5L160 342.4ZM141.4 339.4H113.8V330H105V321.3H96V304.6H105V296H113.3V287.3H141L156.1 277.9H168.2L169.7 279.8H159.5L161.8 282.1H175.8L170 275H156L142.8 283.4H110.3V292.4H102V301.1H93V324.6H102V333.3H110.8V342.3H143.3L156.5 350.6H170.1L176.1 344.2H162.1L159.9 346.5H170.1L168.6 348.4H156.9L141.4 339.4Z" fill="#FFC72C" style="fill:#FFC72C;fill:color(display-p3 1.0000 0.7804 0.1725);fill-opacity:1;"/>
<path id="Vector_124" d="M186 327.3V336.3H160.3L151.3 342L142.1 336.4H116.4V327.4H107.7V318.6H98.3V307.3H107.3V298.6H116.1V289.6H141.8L150.8 284.2L159.9 289.5H185.6V298.5H194.3V307.3H204.1V318.6H195.1V327.3H186Z" fill="#00843D" style="fill:#00843D;fill:color(display-p3 0.0000 0.5176 0.2392);fill-opacity:1;"/>
<g id="Group_16">
<path id="Vector_125" d="M119.8 324V332.6H134.2L119.8 323.1V324ZM119.8 302V293H134.2L119.8 302.4V302ZM182.6 324V332.6H168.2L182.6 323.1V324ZM182.6 302V293H168.2L182.6 302.4V302Z" fill="#383739" style="fill:#383739;fill:color(display-p3 0.2196 0.2157 0.2235);fill-opacity:1;"/>
<path id="Vector_126" d="M120.2 324.3L133.1 332.6H120.2V324.3ZM120.2 301.6L133.1 293.3H120.2V301.6ZM182.2 324.3L169.4 332.6H182.2V324.3ZM182.2 301.6L169.4 293.3H182.2V301.6Z" fill="#D22630" style="fill:#D22630;fill:color(display-p3 0.8235 0.1490 0.1882);fill-opacity:1;"/>
</g>
<g id="Group_17">
<path id="Vector_127" d="M138 310.3V306.1H136.5L128.9 301.6L121.3 306.1H119.8V310.7H116.1V316H119.8V320.5H121.3L128.9 325L136.5 320.5H138V316H143.3V310L138 310.3Z" fill="#383739" style="fill:#383739;fill:color(display-p3 0.2196 0.2157 0.2235);fill-opacity:1;"/>
<path id="Vector_128" d="M128.5 301.6L136.1 305.8H121.7L128.5 301.6ZM136.1 320.1L128.5 324.3L121.7 320.1H136.1ZM134.2 310.7V315.2H125.5V310.7H134.2Z" fill="#D22630" style="fill:#D22630;fill:color(display-p3 0.8235 0.1490 0.1882);fill-opacity:1;"/>
<path id="Vector_129" d="M137.6 315.6V319.7H128.9V315.6H137.6ZM128.6 315.6V319.7H119.8V315.6H128.6ZM142.9 310.6V315.2H134.6V310.7L142.9 310.6ZM125.1 310.6V315.2H116.4V310.7L125.1 310.6ZM137.6 306.1V310.3H128.9V306.5L137.6 306.1ZM128.6 306.1V310.3H119.8V306.5L128.6 306.1Z" fill="#FFC72C" style="fill:#FFC72C;fill:color(display-p3 1.0000 0.7804 0.1725);fill-opacity:1;"/>
<path id="Vector_130" d="M122.9 311.8V314.1H119V311.8H122.9ZM126.3 307.3V309.5H122.5V307.3H126.3ZM135.3 307.3V309.5H131.6V307.3H135.3ZM131.6 311.8V314.1H127.8V311.8H131.6ZM140.6 311.8V314.1H136.8V311.8H140.6ZM135.3 316.3V318.6H131.6V316.3H135.3ZM126.3 316.3V318.6H122.5V316.3H126.3Z" fill="#383739" style="fill:#383739;fill:color(display-p3 0.2196 0.2157 0.2235);fill-opacity:1;"/>
<path id="Vector_131" d="M122.5 312.2H119V313.7H122.4L122.5 312.2ZM126.3 307.7H122.5V309.2H126.3V307.7ZM135 307.7H131.6V309.2H135V307.7ZM131.2 312.2H128.5V313.7H131.5L131.2 312.2ZM140.2 312.2H137.2V313.7H140.2V312.2ZM135 316.7H131.6V318.2H135V316.7ZM125.9 316.7H122.9V318.2H125.9V316.7Z" fill="white" style="fill:white;fill-opacity:1;"/>
</g>
<g id="Group_18">
<path id="Vector_132" d="M164.4 310.3V306.1H166L173.5 301.6L181.1 306.1H183V310.7H186.4V316H182.6V320.5H181.5L173.9 325L166.3 320.5H164.8V316H159.5V310L164.4 310.3Z" fill="#383739" style="fill:#383739;fill:color(display-p3 0.2196 0.2157 0.2235);fill-opacity:1;"/>
<path id="Vector_133" d="M173.9 301.6L166.3 305.8H180.3L173.9 301.6ZM166.3 320.1L173.1 324.3L180.3 320.1H166.3ZM167.8 310.7V315.2H176.5V310.7H167.8Z" fill="#D22630" style="fill:#D22630;fill:color(display-p3 0.8235 0.1490 0.1882);fill-opacity:1;"/>
<path id="Vector_134" d="M164.8 315.6V319.7H173.5V315.6H164.8ZM173.8 315.6V319.7H182.6V315.6H173.8ZM159.5 310.6V315.2H168.2V310.7L159.5 310.6ZM177.3 310.6V315.2H186V310.7L177.3 310.6ZM164.8 306.1V310.3H173.5V306.5L164.8 306.1ZM173.8 306.1V310.3H182.6V306.5L173.8 306.1Z" fill="#FFC72C" style="fill:#FFC72C;fill:color(display-p3 1.0000 0.7804 0.1725);fill-opacity:1;"/>
<path id="Vector_135" d="M180 311.8V314.1H183.7V311.8H180ZM176.2 307.3V309.5H179.9V307.3H176.2ZM167.1 307.3V309.5H170.9V307.3H167.1ZM170.9 311.8V314.1H174.6V311.8H170.9ZM161.8 311.8V314.1H165.6V311.8H161.8ZM167.1 316.3V318.6H170.9V316.3H167.1ZM176.1 316.3V318.6H179.9V316.3H176.1Z" fill="#383739" style="fill:#383739;fill:color(display-p3 0.2196 0.2157 0.2235);fill-opacity:1;"/>
<path id="Vector_136" d="M180 312.2H183.3V313.7H180V312.2ZM176.5 307.7H179.5V309.2H176.5V307.7ZM167.5 307.7H170.9V309.2H167.5V307.7ZM171.2 312.2H174.2V313.7H171.2V312.2ZM162.2 312.2H165.2V313.7H162.6L162.2 312.2ZM167.5 316.7H170.9V318.2H167.5V316.7ZM176.5 316.7H179.5V318.2H176.5V316.7Z" fill="white" style="fill:white;fill-opacity:1;"/>
</g>
<g id="Group_19">
<path id="Vector_137" d="M160.3 302.7V307.3H158.8L151.2 312.2L143.7 307.2H142V302.7H137.5V297.8H142V293.3H143.6L151.1 288.3L158.7 293.3H160.2V297.8H164.7V302.4L160.3 302.7Z" fill="#383739" style="fill:#383739;fill:color(display-p3 0.2196 0.2157 0.2235);fill-opacity:1;"/>
<path id="Vector_138" d="M151.2 311.8L158 307.3H144.4L151.2 311.8ZM158 293L151.2 289.2L144.4 293H158Z" fill="#FFC72C" style="fill:#FFC72C;fill:color(display-p3 1.0000 0.7804 0.1725);fill-opacity:1;"/>
<path id="Vector_139" d="M160 297.8V293.3H151.6V297.8H160ZM151.2 297.8V293.3H142.5V297.8H151.2ZM164.4 302.4V298.6H155.7V302.4H164.4ZM155.4 302.4V298.6H147.4V302.4H155.4ZM146.7 302.4V298.6H138V302.4H146.7ZM159.9 306.9V302.7H151.6V306.9H159.9ZM151.2 306.9V302.7H142.5V306.9H151.2Z" fill="#D22630" style="fill:#D22630;fill:color(display-p3 0.8235 0.1490 0.1882);fill-opacity:1;"/>
<path id="Vector_140" d="M148.6 294.4V296.7H144.8V294.8L148.6 294.4ZM157.6 294.4V296.7H154V294.8L157.6 294.4ZM144 299V301.6H140.2V298.6L144 299ZM153.1 299V301.6H149.3V298.6L153.1 299ZM162.1 299V301.6H158.4V298.6L162.1 299ZM148.6 303.9V306.1H144.8V304L148.6 303.9ZM157.6 303.9V306.1H154V304L157.6 303.9Z" fill="#383739" style="fill:#383739;fill:color(display-p3 0.2196 0.2157 0.2235);fill-opacity:1;"/>
<path id="Vector_141" d="M148.2 294.8H145.2V296.3H148.2V294.8ZM157.2 294.8H154.2V296.3H157.2V294.8ZM143.7 299.3H140.7V301.3H143.7V299.3ZM152.7 299.3H149.7V301.3H152.7V299.3ZM161.8 299.3H158.8V301.3H161.8V299.3ZM148.2 303.9H145.2V305.8H148.2V303.9ZM157.2 303.9H154.2V305.8H157.2V303.9Z" fill="white" style="fill:white;fill-opacity:1;"/>
</g>
<g id="Group_20">
<path id="Vector_142" d="M160.3 328V333H158.8L151.2 337.5L143.7 333H142V328H137.5V323.1H142V318.6H143.6L151.1 313.7L158.7 318.7H160.2V323.1H164.7V328.1L160.3 328Z" fill="#383739" style="fill:#383739;fill:color(display-p3 0.2196 0.2157 0.2235);fill-opacity:1;"/>
<path id="Vector_143" d="M151.2 337.1L158 333H144.4L151.2 337.1ZM158 318.2L151.2 314.5L144.4 318.2H158Z" fill="#FFC72C" style="fill:#FFC72C;fill:color(display-p3 1.0000 0.7804 0.1725);fill-opacity:1;"/>
<path id="Vector_144" d="M160 323.1V319H151.6V323.1H160ZM151.2 323.1V319H142.5V323.1H151.2ZM164.4 327.7V323.5H155.7V327.7H164.4ZM155.4 327.7V323.5H147.4V327.7H155.4ZM146.7 327.7V323.5H138V327.7H146.7ZM159.9 332.6V328.1H151.6V332.6H159.9ZM151.2 332.6V328.1H142.5V332.6H151.2Z" fill="#D22630" style="fill:#D22630;fill:color(display-p3 0.8235 0.1490 0.1882);fill-opacity:1;"/>
<path id="Vector_145" d="M148.6 319.7V322.4H144.8V319.7H148.6ZM157.6 319.7V322.4H154V319.7H157.6ZM144 325V327.3H140.2V325H144ZM153.1 325V327.3H149.3V325H153.1ZM162.1 325V327.3H158.4V325H162.1ZM148.6 328.8V331.1H144.8V328.8H148.6ZM157.6 328.8V331.1H154V328.8H157.6Z" fill="#383739" style="fill:#383739;fill:color(display-p3 0.2196 0.2157 0.2235);fill-opacity:1;"/>
<path id="Vector_146" d="M148.2 320.1H145.2V322.1H148.2V320.1ZM157.2 320.1H154.2V322.1H157.2V320.1ZM143.7 325.1H140.7V326.6H143.7V325.1ZM152.7 325.1H149.7V326.6H152.7V325.1ZM161.8 325.1H158.8V326.6H161.8V325.1ZM148.2 329.6H145.2V331.1H148.2V329.6ZM157.2 329.6H154.2V331.1H157.2V329.6Z" fill="white" style="fill:white;fill-opacity:1;"/>
</g>
<path id="Vector_147" d="M102 383.6L136 365.5H166.3L200.3 383.6V413.5L166.3 431.2H136.1L102.1 413.5L102 383.6Z" fill="#383739" style="fill:#383739;fill:color(display-p3 0.2196 0.2157 0.2235);fill-opacity:1;"/>
<path id="Vector_148" d="M136 365.9L102.4 383.6V413.1L136.1 431.2H166.3L200 413.1V383.6L166.7 366L136 365.9ZM136.5 368.1H166.3L198.1 385.1V411.6L166.3 428.6H136.8L105.1 411.6V385L136.5 368.1Z" fill="#00843D" style="fill:#00843D;fill:color(display-p3 0.0000 0.5176 0.2392);fill-opacity:1;"/>
<path id="Vector_149" d="M151.2 398.4V428.6H166.3L197.7 411.6V398.7H151.2V368.5H136.1L104.7 385.1V398.4H151.2Z" fill="#FFC72C" style="fill:#FFC72C;fill:color(display-p3 1.0000 0.7804 0.1725);fill-opacity:1;"/>
<path id="Vector_150" d="M151.2 398.4V428.6H136.1L104.7 411.6V398.7H151.2V368.5H166.3L197.7 385.1V398.4H151.2Z" fill="white" style="fill:white;fill-opacity:1;"/>
<path id="Vector_151" d="M153.9 426.7V418L151.2 420L148.6 418V426.7H139.5L145.5 422.2V416.2L136.5 410.5H130.5V386.3H136.1L145.1 380.6V374.6L140 370H149V378.7L151.7 377.2L154.3 378.7V370.4H163.4L157.4 374.9V380.9L166.4 386.6H172.9V410.8H166.4L157.4 416.5V422.5L163.4 427.1L153.9 426.7Z" fill="#383739" style="fill:#383739;fill:color(display-p3 0.2196 0.2157 0.2235);fill-opacity:1;"/>
<path id="Vector_152" d="M154.2 370.4V379.4L151.2 377.6V380.2L165.2 388.9H169.7V398.4H172V387H166L156.5 381V374.2L161.8 370.4H154.2ZM130.8 398.7V410.1H136.1L145.5 416.1V422.6L140.2 426.3H147.8V417.3L150.8 419.1V416.5L136.8 407.8H132.3V398.8L130.8 398.7Z" fill="#FFC72C" style="fill:#FFC72C;fill:color(display-p3 1.0000 0.7804 0.1725);fill-opacity:1;"/>
<path id="Vector_153" d="M140.6 370.4L145.9 374.2V381L136.5 386.6H130.8V398H132.7V389.3H137.2L151.2 380.6V378L148.2 379.8V370.4H140.6ZM169.7 398.7V407.8H165.2L151.2 416.5V419.1L154.2 417.3V426.3H161.8L156.5 422.6V415.7L166 409.7H172V398.4L169.7 398.7Z" fill="white" style="fill:white;fill-opacity:1;"/>
<path id="Vector_154" d="M133 407.4H137.2L151.2 416.5L165.2 407.5H169.4V389.3H165.2L151.2 380.6L137.2 389.3H133.4L133 407.4Z" fill="#D22630" style="fill:#D22630;fill:color(display-p3 0.8235 0.1490 0.1882);fill-opacity:1;"/>
<path id="Vector_155" d="M160.7 402.9H163.7V401.4H161.4V398.7H166.4V405.2H161.8V409.7H152.3V403.3H156.5V405.9H155V407.1H158.8V404.8L141.4 394.2H138.4V395.3H140.6V398H136.1V391.6H140.6V387H150.1V393.4H146.3V390.8H147.4V389.7H143.7V391.9L160.7 402.9ZM159.1 391.9V389.7H155V390.8H156.5V393.4H152.3V387H161.8V391.6H166.3V398H161.4V395.3H163.7V394.2H160.7L143.7 404.4V406.7H147.4V405.5H146V403H150.2V409.4H140.7V404.9H136.2V398.5H141.1V401.1H138.8V402.6H141.8L159.1 391.9Z" fill="#383739" style="fill:#383739;fill:color(display-p3 0.2196 0.2157 0.2235);fill-opacity:1;"/>
<path id="Vector_156" d="M159.5 404.4V407.4H155V405.5H156.5V403.7H153.1V409.3H161.8V404.8H166.3V399H162.6V401H164.4V403.2H161L143.3 391.8V389.2H148.2V391.1H146.7V393H150.5V387.3H141.4V391.8H136.8V397.5H140.6V395.6H138.7V393.7H142.1L159.5 404.4ZM160.7 393.8H164.4V395.8H161.8V397.6H166.3V392H161.8V387.5H153.1V393.2H156.5V391.2H155V389.4H160V392.4L142.1 403.4H138.7V401H141V399.1H137.2V404.8H141.4V409.3H150.1V403.7H146.7V405.5H148.2V407.5H143.2V404.5L160.7 393.8Z" fill="white" style="fill:white;fill-opacity:1;"/>
<path id="Vector_157" d="M190.5 399.9V409.3H186.7V406H182.6V409.4H178.4V400H182.2V403.4H186.4V400L190.5 399.9ZM176.2 412.3V421.8H172.4V418.4H168.2V421.8H164.4V412.3H168.2V415.7H172V412.3H176.2ZM190.5 397.3V387.4H186.7V390.8H182.6V387.4H178.4V396.9H182.2V393.4H186.4V397.2L190.5 397.3ZM111.9 399.9V409.3H115.7V406H119.8V409.4H124V400H120.2V403.4H116.1V400L111.9 399.9ZM111.9 396.9V387.4H115.7V390.8H119.8V387.4H124V396.9H120.2V393.4H116.1V397.2L111.9 396.9ZM176.2 384.4V374.9H172.4V378.3H168.2V375H164.4V384.5H168.2V381H172V384.8L176.2 384.4ZM126.2 412.4V421.8H130V418.4H134.2V421.8H138.4V412.3H134.6V415.7H130.4V412.3L126.2 412.4ZM126.2 384.4V374.9H130V378.3H134.2V375H138.4V384.5H134.6V381H130.4V384.8L126.2 384.4ZM178.4 378V385.1H191.7L178.4 378ZM124 419V411.5H110.8L124 419ZM124 377.5V385H110.8L124 377.5ZM178.4 419V411.5H191.7L178.4 419Z" fill="#383739" style="fill:#383739;fill:color(display-p3 0.2196 0.2157 0.2235);fill-opacity:1;"/>
<path id="Vector_158" d="M186.7 405.5V409.3H190.1V400.3H186.7V403.7H182.2V400.3H178.4V408.9H182.2V405.5H186.7ZM172.4 418V421.8H175.8V412.8H172.4V416.1H167.8V412.7H164.4V421.4H167.8V418H172.4ZM186.7 391.2V387.8H190.1V396.5H186.7V393H182.2V396.8H178.4V387.7H182.2V391.1L186.7 391.2ZM115.7 405.5V409.3H112.3V400.3H115.7V403.7H120.2V400.3H124V408.9H120.2V405.5H115.7ZM115.7 391.2V387.8H112.3V396.5H115.7V393H120.2V396.8H124V387.7H120.2V391.1L115.7 391.2ZM172.4 378.7V375.3H175.8V384H172.4V380.6H167.8V384.4H164.4V375.4H167.8V378.7H172.4ZM130 418V421.8H126.6V412.8H130V416.1H134.6V412.7H138.4V421.4H134.6V418H130ZM130 378.7V375.3H126.6V384H130V380.6H134.6V384.4H138.4V375.4H134.6V378.7H130Z" fill="#D22630" style="fill:#D22630;fill:color(display-p3 0.8235 0.1490 0.1882);fill-opacity:1;"/>
<path id="Vector_159" d="M178.8 378.3V384.8H190.1L178.8 378.3ZM111.9 412.3L123.2 418.3V412.3H111.9Z" fill="#FFC72C" style="fill:#FFC72C;fill:color(display-p3 1.0000 0.7804 0.1725);fill-opacity:1;"/>
<path id="Vector_160" d="M123.6 378.3L112.3 384.8H123.6V378.3ZM178.8 412.3V418.3L190.1 412.3H178.8Z" fill="white" style="fill:white;fill-opacity:1;"/>
<path id="Vector_161" d="M205.6 424.8C204.9 427.5 202.6 429.4 202.2 432.4C201.2 429.4 200.4 426.7 201.2 423.7C201.2 421.4 203.4 419.9 203.8 417.3C205.467 419.167 206.067 421.667 205.6 424.8ZM206 436.2C204.232 438.601 201.895 440.525 199.2 441.8C199.6 439.6 198.5 438 197.3 436.2C196.2 434.2 195.4 432.4 196.6 429.7C197.072 430.916 197.711 432.061 198.5 433.1C199.6 434.6 200.7 436.1 200.7 438.4C202.2 437.3 202.7 435.8 203.4 434.3C204.608 432.051 206.451 430.208 208.7 429C207.9 431.6 207.5 433.9 206 436.2ZM196.2 443.7L196.6 447.5L200.7 444.5C202.7 442.5 204.9 441.8 206.4 439.5C206.307 440.9 205.921 442.264 205.266 443.504C204.611 444.745 203.703 445.834 202.6 446.7L195.1 451.7C195.033 449.1 194.367 446.567 193.1 444.1C192.939 443.013 193.036 441.904 193.384 440.861C193.731 439.819 194.319 438.873 195.1 438.1C195.1 439.967 195.467 441.7 196.2 443.3V443.7ZM190.5 452.4L187.5 457.7C190.033 456.767 192.567 455.5 195.1 453.9C197.7 452.4 200.7 451.7 203.4 449.4C202.2 454.3 198.8 456.9 194.4 458.4C191.3 459.2 188.3 458.8 184.4 460.4C184.914 457.746 185.825 455.184 187.1 452.8L189.8 447.5C190.6 448.9 190.833 450.567 190.5 452.5V452.4ZM180.7 459.6C179.737 461.138 178.438 462.437 176.9 463.4C180.7 463.4 183.7 461.4 187.5 461.1C189.8 461.1 192 461.9 194.3 461.5C191.7 463.4 188.6 465.3 185.3 465.3C181.1 466 176.9 465.3 172.3 465.3C174.6 463.7 175.8 461.5 176.9 459.6C178.9 456.6 180.7 454.6 184.1 454.3C182.6 455.8 181.8 458.1 180.7 459.6ZM167.5 465.6C173.9 466.8 180.3 468.3 187.1 468.3C179.994 471.294 172.009 471.438 164.8 468.7C161 467.5 157.6 466.4 154.6 466.7C150.5 466.7 144.8 469 138.7 475.1L136.5 473.2C145.2 465.6 156.5 463.7 167.5 465.6Z" fill="#FFC72C" style="fill:#FFC72C;fill:color(display-p3 1.0000 0.7804 0.1725);fill-opacity:1;"/>
</g>
<defs>
<clipPath id="clip0_2194_10602">
<rect width="640" height="480" fill="white" style="fill:white;fill-opacity:1;"/>
</clipPath>
</defs>
</svg>
