<svg width="640" height="480" viewBox="0 0 640 480" fill="none" xmlns="http://www.w3.org/2000/svg">
<g id="tn" clip-path="url(#clip0_2194_10785)">
<path id="Vector" d="M0 0H640V480H0V0Z" fill="#E70013" style="fill:#E70013;fill:color(display-p3 0.9059 0.0000 0.0745);fill-opacity:1;"/>
<path id="Vector_2" d="M320 119.2C288.134 119.067 257.521 131.599 234.895 154.038C212.268 176.476 199.483 206.984 199.35 238.85C199.217 270.716 211.749 301.329 234.188 323.955C256.626 346.582 287.134 359.367 319 359.5C350.866 359.633 381.479 347.101 404.105 324.662C426.732 302.224 439.517 271.716 439.65 239.85C439.783 207.984 427.251 177.371 404.812 154.745C382.374 132.118 351.866 119.333 320 119.2ZM392 293C380.74 308.233 364.96 319.524 346.909 325.266C328.857 331.008 309.454 330.907 291.463 324.98C273.472 319.052 257.81 307.598 246.707 292.25C235.605 276.902 229.628 258.443 229.628 239.5C229.628 220.557 235.605 202.098 246.707 186.75C257.81 171.402 273.472 159.948 291.463 154.02C309.454 148.093 328.857 147.992 346.909 153.734C364.96 159.476 380.74 170.768 392 186C381.657 176.684 368.834 170.567 355.086 168.388C341.337 166.209 327.252 168.062 314.535 173.723C301.818 179.384 291.014 188.61 283.433 200.284C275.851 211.958 271.815 225.58 271.815 239.5C271.815 253.42 275.851 267.042 283.433 278.716C291.014 290.39 301.818 299.616 314.535 305.277C327.252 310.938 341.337 312.791 355.086 310.612C368.834 308.433 381.657 302.316 392 293ZM387.3 271.3L349.9 259.2L326.8 291V251.7L289.4 239.5L326.8 227.3V188L349.9 219.8L387.3 207.7L364.2 239.5L387.3 271.3Z" fill="white" style="fill:white;fill-opacity:1;"/>
</g>
<defs>
<clipPath id="clip0_2194_10785">
<rect width="640" height="480" fill="white" style="fill:white;fill-opacity:1;"/>
</clipPath>
</defs>
</svg>
