<svg width="640" height="480" viewBox="0 0 640 480" fill="none" xmlns="http://www.w3.org/2000/svg">
<g id="tv" clip-path="url(#clip0_2194_10805)">
<path id="Vector" d="M0 0H640V480H0V0Z" fill="#009FCA" style="fill:#009FCA;fill:color(display-p3 0.0000 0.6235 0.7922);fill-opacity:1;"/>
<path id="Vector_2" fill-rule="evenodd" clip-rule="evenodd" d="M593.3 122.7H621L598.7 137.9L607.2 162.6L584.9 147.3L562.7 162.6L571.2 137.9L548.9 122.7H576.4L584.9 98L593.3 122.7ZM524.1 319.5H551.7L529.4 334.7L537.9 359.4L515.6 344.1L493.3 359.4L501.9 334.7L479.6 319.5H507L515.5 294.8L524.1 319.5ZM593.3 274.9H621L598.7 290.1L607.2 314.8L584.9 299.5L562.7 314.8L571.2 290.1L548.9 274.9H576.4L584.9 250.2L593.3 274.9ZM295.8 417.7H323.4L301 432.8L309.6 457.4L287.3 442.2L265 457.4L273.6 432.8L251.2 417.5H278.8L287.3 392.9L295.8 417.7ZM358.4 341.2H330.8L353.1 325.9L344.6 301.3L366.9 316.5L389.2 301.3L380.6 325.9L402.9 341.2H375.4L366.9 365.8L358.4 341.2ZM439.7 228.7H412L434.3 213.5L425.8 188.8L448.1 204.1L470.4 188.8L461.8 213.5L484.1 228.7H456.6L448.1 253.4L439.7 228.7ZM508 205.4H480.4L502.8 190.1L494.2 165.5L516.5 180.7L538.8 165.5L530.2 190.1L552.6 205.4H525L516.5 230L508 205.4ZM439.7 400H412L434.3 384.8L426 360L448.3 375.2L470.6 360L462 384.7L484.3 399.9H456.8L448.3 424.6L439.7 400ZM358.4 419.9H330.8L353.1 404.7L344.6 380L366.9 395.2L389.2 380L380.6 404.6L403 420H375.5L367 444.7L358.4 419.9Z" fill="#FFF40D" style="fill:#FFF40D;fill:color(display-p3 1.0000 0.9569 0.0510);fill-opacity:1;"/>
<path id="Vector_3" d="M0 0H320V240H0V0Z" fill="#012169" style="fill:#012169;fill:color(display-p3 0.0039 0.1294 0.4118);fill-opacity:1;"/>
<path id="Vector_4" d="M37.5 0L159.5 90.5L281 0H320V31L200 120.5L320 209.5V240H280L160 150.5L40.5 240H0V210L119.5 121L0 32V0H37.5Z" fill="white" style="fill:white;fill-opacity:1;"/>
<path id="Vector_5" d="M212 140.5L320 220V240L184.5 140.5H212ZM120 150.5L123 168L27 240H0L120 150.5ZM320 0V1.5L195.5 95.5L196.5 73.5L295 0H320ZM0 0L119.5 88H89.5L0 21V0Z" fill="#C8102E" style="fill:#C8102E;fill:color(display-p3 0.7843 0.0627 0.1804);fill-opacity:1;"/>
<path id="Vector_6" d="M120.5 0V240H200.5V0H120.5ZM0 80V160H320V80H0Z" fill="white" style="fill:white;fill-opacity:1;"/>
<path id="Vector_7" d="M0 96.5V144.5H320V96.5H0ZM136.5 0V240H184.5V0H136.5Z" fill="#C8102E" style="fill:#C8102E;fill:color(display-p3 0.7843 0.0627 0.1804);fill-opacity:1;"/>
</g>
<defs>
<clipPath id="clip0_2194_10805">
<rect width="640" height="480" fill="white" style="fill:white;fill-opacity:1;"/>
</clipPath>
</defs>
</svg>
