<svg width="640" height="480" viewBox="0 0 640 480" fill="none" xmlns="http://www.w3.org/2000/svg">
<g id="un" clip-path="url(#clip0_2194_10888)">
<path id="Vector" fill-rule="evenodd" clip-rule="evenodd" d="M0 0H640V480H0V0Z" fill="#4B92DB" style="fill:#4B92DB;fill:color(display-p3 0.2941 0.5725 0.8588);fill-opacity:1;"/>
<g id="Group">
<path id="un-a" d="M357.74 352.2C355.999 354.088 354.091 355.815 352.04 357.36C339.32 344.16 324.32 329.64 310.1 329.64C301.28 329.64 294.98 336.36 287.54 341.04C277.28 347.64 263.18 351.36 251.12 346.5C244.296 344.17 238.238 340.021 233.6 334.5C238.714 337.667 244.5 339.589 250.492 340.11C256.485 340.631 262.516 339.737 268.1 337.5C279.92 332.58 292.04 326.04 305.54 326.04C325.46 326.04 344.42 339.54 357.74 352.2ZM210.38 310.8C223.58 325.8 245.12 321 262.7 324.72C265.16 325.32 267.5 326.1 270.14 325.68C268.04 324.36 265.22 324.18 262.82 323.28C249.14 318.12 247.04 303.48 239.54 293.46C249.14 299.82 257 308.46 265.94 316.68C272.245 321.886 279.865 325.249 287.96 326.4C286.04 327.12 283.52 327 281.36 327.48C266.96 331.08 251 336.72 235.64 331.68C224.917 328.129 215.922 320.676 210.44 310.8H210.38ZM189.26 276C197.48 294.66 218.18 296.16 231.86 307.56C234.313 309.739 237.035 311.594 239.96 313.08L240.14 312.96C236.759 310.009 233.72 306.689 231.08 303.06C223.22 291.66 225.8 276.06 219.74 263.94C225.369 270.197 230.039 277.254 233.6 284.88C238.7 297 240.44 310.86 251.9 320.1C239.48 316.02 225.2 316.8 214.1 309.54C202.34 301.86 191.48 289.74 189.26 276.06V276ZM180.44 238.32C181.64 254.76 199.04 263.52 207.44 277.02C209.24 279.9 211.04 282.9 213.62 285.18C213.2 283.44 211.82 281.88 210.98 280.2C208.231 274.133 207.134 267.447 207.8 260.82C208.58 252.42 212.06 244.62 210.74 235.8C217.94 251.34 215.6 270.72 219.74 287.46C220.7 291.18 222.92 294.42 224.3 297.96C217.28 292.56 208.04 287.76 200.3 281.76C192.594 276.201 186.573 268.623 182.9 259.86C180.546 252.939 179.707 245.593 180.44 238.32ZM180.92 208.08C181.76 204.42 182.42 200.64 183.98 197.28C180.98 212.76 191.3 223.92 194.78 237.36C196.1 242.4 196.58 247.74 198.62 252.48C198.82 252.48 198.98 252.4 199.1 252.24C194 237.96 201.5 224.76 208.7 213.54C210.464 210.462 211.72 207.119 212.42 203.64C213.2 210.12 211.82 217.56 210.62 224.22C209.12 232.8 206.18 240.84 203.84 249.12C202.573 254.517 202.47 260.121 203.54 265.56L202.76 264.96C197.36 255 186.68 247.2 183.5 236.28C180.469 227.206 179.586 217.553 180.92 208.08ZM186.62 191.4C186.816 180.379 190.847 169.77 198.02 161.4C198.18 161.24 198.38 161.16 198.62 161.16C191.06 172.56 197.96 187.08 196.94 200.1L195.98 213.42C196.1 213.54 196.1 213.96 196.46 213.78C196.94 212.28 197.06 210.72 197.3 209.16C199.1 198.36 208.58 190.92 216.56 183.36C218.398 181.611 219.832 179.481 220.76 177.12C220.1 182.52 218.6 187.98 216.2 192.84C210.02 205.32 198.14 215.4 195.98 229.62C194.96 216 186.62 205.86 186.62 191.4ZM206.42 151.86C209.869 147.713 214.458 144.667 219.62 143.1C209.72 149.88 210.26 161.94 207.26 172.02C206.18 175.68 204.56 179.16 203.66 182.94L203.96 183.18C205.728 178.642 208.497 174.561 212.06 171.24C218.96 164.76 229.34 160.8 232.76 151.26C232.58 164.52 221.3 174.6 210.98 182.4C206.392 185.872 202.657 190.346 200.06 195.48C200.42 191.88 200.66 188.76 200.3 185.22C199.22 173.64 198.5 160.62 206.48 151.86H206.42ZM246.32 129.6C239.06 136.02 234.2 144.24 228.56 151.62C223.94 157.8 217.52 161.58 212.06 166.74C215.06 160.62 215.54 153.54 219.32 147.6C225.74 137.4 236.42 133.44 246.32 129.6Z" fill="white" style="fill:white;fill-opacity:1;"/>
<path id="un-a_2" d="M282.38 352.2C284.12 354.088 286.028 355.815 288.08 357.36C300.8 344.16 315.8 329.64 330.02 329.64C338.84 329.64 345.14 336.36 352.58 341.04C362.84 347.64 376.94 351.36 389 346.5C395.823 344.17 401.881 340.021 406.52 334.5C401.406 337.667 395.62 339.589 389.627 340.11C383.635 340.631 377.604 339.737 372.02 337.5C360.2 332.58 348.08 326.04 334.58 326.04C314.66 326.04 295.7 339.54 282.38 352.2ZM429.74 310.8C416.54 325.8 395 321 377.42 324.72C374.96 325.32 372.62 326.1 369.98 325.68C372.08 324.36 374.9 324.18 377.3 323.28C390.98 318.12 393.08 303.48 400.58 293.46C390.98 299.82 383.12 308.46 374.18 316.68C367.875 321.886 360.255 325.249 352.16 326.4C354.08 327.12 356.6 327 358.76 327.48C373.16 331.08 389.12 336.72 404.48 331.68C415.203 328.129 424.198 320.676 429.68 310.8H429.74ZM450.86 276C442.64 294.66 421.94 296.16 408.26 307.56C405.807 309.739 403.085 311.594 400.16 313.08L399.98 312.96C403.361 310.009 406.4 306.689 409.04 303.06C416.9 291.66 414.32 276.06 420.38 263.94C414.751 270.197 410.08 277.254 406.52 284.88C401.42 297 399.68 310.86 388.22 320.1C400.64 316.02 414.92 316.8 426.02 309.54C437.78 301.86 448.64 289.74 450.86 276.06V276ZM459.68 238.32C458.48 254.76 441.08 263.52 432.68 277.02C430.88 279.9 429.08 282.9 426.5 285.18C426.92 283.44 428.3 281.88 429.14 280.2C431.889 274.133 432.986 267.447 432.32 260.82C431.54 252.42 428.06 244.62 429.38 235.8C422.18 251.34 424.52 270.72 420.38 287.46C419.42 291.18 417.2 294.42 415.82 297.96C422.84 292.56 432.08 287.76 439.82 281.76C447.525 276.201 453.547 268.623 457.22 259.86C459.574 252.939 460.413 245.593 459.68 238.32ZM459.2 208.08C458.36 204.42 457.7 200.64 456.14 197.28C459.14 212.76 448.82 223.92 445.34 237.36C444.02 242.4 443.54 247.74 441.5 252.48C441.3 252.48 441.14 252.4 441.02 252.24C446.12 237.96 438.62 224.76 431.42 213.54C429.656 210.462 428.4 207.119 427.7 203.64C426.92 210.12 428.3 217.56 429.5 224.22C431 232.8 433.94 240.84 436.28 249.12C437.547 254.517 437.649 260.121 436.58 265.56L437.36 264.96C442.76 255 453.44 247.2 456.62 236.28C459.651 227.206 460.534 217.553 459.2 208.08ZM453.5 191.4C453.304 180.379 449.273 169.77 442.1 161.4C441.94 161.24 441.74 161.16 441.5 161.16C449.06 172.56 442.16 187.08 443.18 200.1L444.14 213.42C444.02 213.54 444.02 213.96 443.66 213.78C443.18 212.28 443.06 210.72 442.82 209.16C441.02 198.36 431.54 190.92 423.56 183.36C421.722 181.611 420.288 179.481 419.36 177.12C420.02 182.52 421.52 187.98 423.92 192.84C430.1 205.32 441.98 215.4 444.14 229.62C445.16 216 453.5 205.86 453.5 191.4ZM433.7 151.86C430.25 147.713 425.661 144.667 420.5 143.1C430.4 149.88 429.86 161.94 432.86 172.02C433.94 175.68 435.56 179.16 436.46 182.94L436.16 183.18C434.392 178.642 431.623 174.561 428.06 171.24C421.16 164.76 410.78 160.8 407.36 151.26C407.54 164.52 418.82 174.6 429.14 182.4C433.728 185.872 437.463 190.346 440.06 195.48C439.7 191.88 439.46 188.76 439.82 185.22C440.9 173.64 441.62 160.62 433.64 151.86H433.7ZM393.8 129.6C401.06 136.02 405.92 144.24 411.56 151.62C416.18 157.8 422.6 161.58 428.06 166.74C425.06 160.62 424.58 153.54 420.8 147.6C414.38 137.4 403.7 133.44 393.8 129.6Z" fill="white" style="fill:white;fill-opacity:1;"/>
</g>
<path id="Vector_2" d="M406.9 260.8C402.337 270.173 396.293 278.75 389 286.2L376.5 273.6C382.538 267.356 387.504 260.16 391.2 252.3L389.1 251.1C385.48 258.78 380.614 265.808 374.7 271.9L363.3 260.5C368.127 255.514 372.051 249.728 374.9 243.4L372.8 242.2C370.057 248.341 366.268 253.958 361.6 258.8L349.1 246.3C352.534 242.639 355.248 238.365 357.1 233.7L355 232.5C353.244 236.942 350.665 241.013 347.4 244.5L335.9 233.1C339.142 229.517 341.049 224.925 341.3 220.1H357.5C357.385 224.346 356.539 228.541 355 232.5L357.1 233.7C358.819 229.364 359.767 224.762 359.9 220.1H377.7C377.529 227.727 375.829 235.242 372.7 242.2L374.9 243.4C378.177 236.06 379.945 228.137 380.1 220.1H396.3C396.115 230.826 393.661 241.391 389.1 251.1L391.2 252.3C395.938 242.218 398.461 231.239 398.6 220.1H416.5C416.33 234.207 413.052 248.103 406.9 260.8ZM409 262C415.528 248.602 418.946 233.903 419 219C419.005 206.286 416.56 193.69 411.8 181.9L409.6 182.9C414.089 193.995 416.463 205.832 416.6 217.8H398.7C398.582 208.21 396.718 198.722 393.2 189.8L391 190.8C394.429 199.396 396.259 208.546 396.4 217.8H380C379.887 210.752 378.533 203.778 376 197.2L373.8 198.2C376.19 204.465 377.476 211.096 377.6 217.8H360C359.883 213.498 359.073 209.243 357.6 205.2L355.4 206.2C356.733 209.928 357.476 213.842 357.6 217.8H341.4C341.149 212.974 339.242 208.383 336 204.8L347.5 193.3C350.982 196.981 353.671 201.337 355.4 206.1L357.6 205.2C355.744 200.148 352.887 195.522 349.2 191.6L361.8 179C367.094 184.532 371.241 191.057 374 198.2L376.2 197.2C373.297 189.783 368.945 183.018 363.4 177.3L374.9 165.9C381.861 173.092 387.332 181.588 391 190.9L393.2 189.9C389.365 180.325 383.691 171.594 376.5 164.2L389.1 151.6C397.92 160.588 404.886 171.223 409.6 182.9L411.8 181.9C406.803 169.617 399.39 158.463 390 149.1C380.588 139.652 369.363 132.203 357 127.2L356.2 129.5C367.869 134.185 378.503 141.116 387.5 149.9L374.9 162.5C367.627 155.47 359.073 149.903 349.7 146.1L348.7 148.3C357.826 151.996 366.147 157.43 373.2 164.3L361.8 175.7C356.313 170.396 349.864 166.187 342.8 163.3L342 165.5C348.684 168.276 354.789 172.278 360 177.3L347.5 189.9C344.002 186.6 339.937 183.957 335.5 182.1L334.6 184.4C338.738 186.103 342.533 188.542 345.8 191.6L334.2 203C330.617 199.758 326.026 197.851 321.2 197.6V181.4C325.775 181.536 330.284 182.519 334.5 184.3L335.4 182.1C330.896 180.208 326.083 179.157 321.2 179V161.2C328.299 161.321 335.315 162.745 341.9 165.4L342.8 163.2C335.934 160.412 328.61 158.92 321.2 158.8V142.6C330.635 142.743 339.961 144.642 348.7 148.2L349.5 146C340.497 142.378 330.903 140.446 321.2 140.3V122.4C333.168 122.537 345.005 124.911 356.1 129.4L356.9 127.1C345.159 122.433 332.634 120.057 320 120.1C304.656 120.058 289.516 123.621 275.8 130.5L276.8 132.5C289.859 126.021 304.222 122.601 318.8 122.5V140.3C307.101 140.438 295.584 143.207 285.1 148.4L286.2 150.4C296.351 145.406 307.488 142.741 318.8 142.6V158.8C310.131 158.97 301.602 161.017 293.8 164.8L294.8 166.9C302.299 163.301 310.484 161.357 318.8 161.2V179C313.363 179.186 308.021 180.479 303.1 182.8L304.1 184.8C308.715 182.669 313.719 181.512 318.8 181.4V197.6C316.392 197.727 314.024 198.269 311.8 199.2L312.8 201.2C315.093 200.304 317.539 199.863 320 199.9C325.018 199.892 329.835 201.869 333.4 205.4C335.191 207.181 336.608 209.301 337.569 211.636C338.531 213.971 339.017 216.475 339 219C339 224.039 336.998 228.872 333.435 232.435C329.872 235.998 325.039 238 320 238C314.968 237.981 310.149 235.967 306.6 232.4C303.033 228.851 301.019 224.032 301 219C300.996 216.491 301.489 214.007 302.45 211.69C303.411 209.373 304.822 207.269 306.6 205.5C308.377 203.738 310.484 202.345 312.8 201.4L311.7 199.3C309.499 200.217 307.47 201.502 305.7 203.1L294.3 191.6C297.226 188.858 300.567 186.597 304.2 184.9L303.1 182.9C299.252 184.663 295.708 187.026 292.6 189.9L280 177.3C284.366 173.116 289.36 169.641 294.8 167L293.8 165C288.138 167.737 282.941 171.348 278.4 175.7L266.9 164C272.586 158.489 279.098 153.9 286.2 150.4L285.2 148.4C277.848 152.002 271.101 156.725 265.2 162.4L252.6 149.7C259.767 142.75 267.963 136.949 276.9 132.5L275.8 130.4C256.518 140.135 240.906 155.852 231.3 175.2L233.3 176.2C237.826 167.059 243.766 158.69 250.9 151.4L263.6 164.1C257.687 170.177 252.791 177.167 249.1 184.8L251.1 185.9C254.67 178.445 259.433 171.622 265.2 165.7L276.7 177.1C272.037 181.929 268.217 187.507 265.4 193.6L267.4 194.7C270.151 188.822 273.87 183.447 278.4 178.8L291 191.4C287.72 194.839 285.078 198.834 283.2 203.2L285.3 204.4C287.022 200.219 289.497 196.389 292.6 193.1L304.1 204.5C300.837 208.109 298.928 212.74 298.7 217.6H282.5C282.639 213.068 283.587 208.598 285.3 204.4L283.3 203.2C281.35 207.76 280.265 212.643 280.1 217.6H262.3C262.454 209.692 264.223 201.899 267.5 194.7L265.5 193.7C262.006 201.196 260.1 209.332 259.9 217.6H243.7C243.88 206.615 246.438 195.8 251.2 185.9L249.1 184.8C244.175 195.042 241.547 206.236 241.4 217.6H223.5C223.675 203.267 227.058 189.155 233.4 176.3L231.3 175.2C224.581 188.751 221.09 203.674 221.1 218.8C221.096 228.243 222.443 237.638 225.1 246.7L227.4 246.1C224.917 237.618 223.605 228.837 223.5 220H241.4C241.485 227.352 242.596 234.655 244.7 241.7L247 241.1C244.912 234.257 243.801 227.154 243.7 220H260C260.091 225.839 261.035 231.633 262.8 237.2L265.2 236.6C263.464 231.232 262.521 225.64 262.4 220H280C280.127 224.162 280.903 228.278 282.3 232.2L284.6 231.6C283.267 227.872 282.525 223.958 282.4 220H298.6C298.851 224.825 300.758 229.417 304 233L292.5 244.5C289.007 240.79 286.317 236.398 284.6 231.6L282.3 232.2C284.167 237.411 287.096 242.179 290.9 246.2L278.2 258.8C272.187 252.486 267.676 244.898 265 236.6L262.6 237.2C265.423 245.935 270.212 253.907 276.6 260.5L265.2 272C256.805 263.317 250.6 252.759 247.1 241.2L244.8 241.8C248.386 253.778 254.8 264.719 263.5 273.7L251 286.3C240 275.06 231.931 261.29 227.5 246.2L225.1 246.8C229.752 262.687 238.353 277.136 250.1 288.8C258.032 296.77 267.264 303.331 277.4 308.2L278.6 306.1C268.991 301.548 260.205 295.431 252.6 288L265.2 275.4C271.662 281.618 279.135 286.691 287.3 290.4L288.5 288.4C280.506 284.784 273.198 279.81 266.9 273.7L278.3 262.3C283.583 267.378 289.752 271.445 296.5 274.3L297.7 272.2C291.139 269.451 285.139 265.519 280 260.6L292.6 248C296.631 251.769 301.397 254.663 306.6 256.5L307.7 254.4C302.707 252.687 298.138 249.925 294.3 246.3L305.8 234.8C309.383 238.042 313.975 239.949 318.8 240.2V256.4C315.055 256.279 311.348 255.605 307.8 254.4L306.5 256.4C310.449 257.841 314.599 258.651 318.8 258.8V276.6C311.554 276.464 304.397 274.972 297.7 272.2L296.5 274.2C303.558 277.211 311.128 278.841 318.8 279V295.2C308.34 295.043 298.024 292.728 288.5 288.4L287.3 290.4C297.182 294.972 307.913 297.425 318.8 297.6V315.4C304.884 315.25 291.168 312.077 278.6 306.1L277.4 308.1C290.701 314.465 305.255 317.779 320 317.8C335.8 317.8 351 314.1 364.6 307.2L363.4 305C350.313 311.647 335.877 315.205 321.2 315.4V297.5C333.016 297.344 344.642 294.506 355.2 289.2L354.2 287.1C343.944 292.221 332.663 294.956 321.2 295.1V279.1C330.103 278.893 338.847 276.707 346.8 272.7L345.7 270.6C338.084 274.404 329.712 276.455 321.2 276.6V258.8C326.855 258.634 332.411 257.271 337.5 254.8L336.5 252.6C331.732 254.951 326.514 256.247 321.2 256.4V240.2C326.026 239.949 330.617 238.042 334.2 234.8L345.7 246.3C342.929 248.849 339.795 250.972 336.4 252.6L337.5 254.8C341.124 253.044 344.461 250.752 347.4 248L360 260.5C355.772 264.571 350.95 267.976 345.7 270.6L346.7 272.7C352.208 269.988 357.267 266.447 361.7 262.2L373.1 273.6C367.488 279.038 361.082 283.59 354.1 287.1L355.3 289.2C362.469 285.584 369.044 280.897 374.8 275.3L387.3 287.9C380.248 294.781 372.189 300.547 363.4 305L364.6 307.2C373.955 302.446 382.495 296.235 389.9 288.8C397.717 280.995 404.173 271.936 409 262Z" fill="white" style="fill:white;fill-opacity:1;"/>
<path id="Vector_3" d="M325.7 196H325.1V196.7H325.7V196ZM324.2 195H325V195.6H324.2V195ZM322.8 194.8L323.4 194.9L323.5 194.3H322.8V194.8ZM322.2 194.6H321.5V193.9L322.3 194L322.2 194.6ZM316.4 193.8H317.2V194.4H316.4V193.8ZM314.7 195L315.4 195.1V194.5H314.8L314.7 195ZM314.7 196L314 195.7V195.1L314.9 195.4L314.7 196ZM313.3 196.7V196.1L313.8 196L313.9 196.6L313.3 196.7ZM234.7 258.3V257.8H234.2V258.8H235V260.1H235.6V258.6L234.7 258.3ZM242.2 267.3L241.2 266.3L240.3 265.2L239.9 264.2L239.2 262.4L240.7 263.2L241.2 264.6L241.9 265.1L242.6 266.6L242.2 267.3ZM262.9 294.4L262.8 293.5L261.9 292.3L263.2 292.5L264.4 293.6L265 294.9L264.2 295.3L263.9 294.7L262.9 294.4ZM316.9 202.5H315.9L315.6 200.3L316.2 199.9V198.8H312.7V197.7L313.1 197.4L312.3 197.1L311.7 197.9L311.5 198.8L310.5 199V199.5H309.8V200.8L307 203.1L301.4 202.9C301.1 203.9 300.1 202.9 300.1 202.9C299.8 202.2 298.5 202.9 298.5 202.9C298.5 203.9 296.5 202.3 296.5 202.3L293.1 199.8C291.1 198 288.1 200.3 288 200.8C288 202.2 285.7 201.1 285.7 201.1C285.7 201.1 283.7 200.5 283.4 201.3C283.1 202.1 281.8 201.9 281.8 201.9L281.6 202.3L280.6 202.5L280.4 203.1L279.2 203.3H282.2C283 203.1 281.9 205 281.4 204.9H280L279.5 205.5H278.2L277.6 206.3L275.7 206.2C275.7 206.2 274.7 207.1 274.7 207.4C274.8 207.7 274.5 208.6 274.2 208.6C273.9 208.6 273.3 209.6 273.5 209.8C273.7 210.1 272.9 211.1 272.9 211.1L272.7 212.1L272.1 212.4V215.1L270.9 215.9V217.1L269.1 219.1L269.3 220.6L267.8 222.3L268 223.9L267.1 224.2L266.9 224.9L266.5 227L267.5 227.1C268 226.9 267.9 228.4 267.5 228.7C267.1 228.9 266 229.3 266.6 229.7C267.2 230.1 265 230 265 229.4C265 228.8 263.8 228.2 263.5 228.4C263.2 228.6 262.7 227.5 262.7 227.5C261.7 226.5 258.3 227.6 258.3 227.6L257.8 229.3C256.7 229.4 256 231.3 256 231.3C255 231.6 254.4 232.7 254.7 233C255 233.3 254.2 233.4 254.2 233.4V235.6L253.7 236.3V238.8C254.4 238.8 254.3 239.8 254.3 239.8C253.3 240 253.5 241.3 253.5 241.3L251.4 242L251 242.6H248.4L247.7 243.2L247 242.5H242L241.8 242L240.8 241.8V240.7H239.2L238.9 241.4L237.3 241.5C237.4 242.5 235.7 244 235.5 243.6C235.3 243.2 234.2 242.1 234.7 241.9L236.5 241.5V240.8L232.8 240.7L232.4 241.3L230.9 241.4V243L230.2 243.2C229.7 243.5 230.3 244.6 230.3 244.6C231 245.3 230.3 246.5 230.3 246.5C229.6 247.1 230.7 248.2 230.7 248.2C231.5 248.4 230.2 249 230.2 249C230.4 250 231 250.3 231 250.3C230.4 251.3 231.4 251.8 231.4 251.8L231.5 253.5L232.2 253.9V255.1L232.6 255.8H234.2V253.2C232.7 251.6 235.3 251.2 235.4 251.8C235.5 252.4 236.6 252.8 236.6 252.8C236.8 254.3 238.6 255.2 239 253.6C239.5 252.1 240 253 240.2 253.7C240.5 254.5 242.4 256.2 242.4 256.2H243.9L244.1 257.6C245.8 257.5 246.3 257.6 247 260C247.135 260.683 247.446 261.319 247.902 261.845C248.358 262.372 248.943 262.77 249.6 263L251 262.9C251 261.6 252.4 263.1 252.4 263.7C252.4 264.3 255.1 266.6 255.1 266.6L257.8 267.2L260.3 269.2L262.2 269H263C263.5 267.3 265.9 269.1 266 269.7C266.1 270.3 267.8 271.4 268 270.9C268.2 270.4 269.3 270.7 269.5 272.2C269.7 273.7 270.5 273.4 270.5 273.4L276.1 273.3L278.1 271.6L283.2 271.5C285.8 271.4 284.2 267.8 283.7 267.8C282.8 267.1 284 264.2 284 264.2L276.7 257.4C275 257.4 276.5 255 276.5 255C277.8 254.2 276.2 252.8 276.2 252.8C276.4 251.6 275.5 250.2 275.5 250.2C273.7 249 274.2 246.7 274.2 246.7V245C272.7 243.6 274.8 243.4 274.8 243.4C275.5 242.2 274.3 241.3 274.3 241.3V240L272.6 239.8L272.4 235L268.8 229.9C268.1 229.7 268.6 228.4 268.6 228.4C269.6 227.9 268.4 226.7 268.4 226.7V224.5L270.4 224.3L270.9 223.5H271.9V220.9C272.3 219.5 273.5 220.2 273.5 220.2L274.9 220.3L275.7 218.8L275.9 217.6H274.9C273.6 216.8 274.2 214.2 274.2 214.2C276.2 211.3 278.3 213 278.3 213L279.7 212.9C281.8 214.3 279.9 216.9 279.9 216.9C279.5 217.5 279.7 219.4 279.7 219.4L280.2 222.7L278.9 223.7C277.9 224.4 277.9 225.8 279 226.1C279.8 226.2 279.5 228.1 278.3 226.8C276.5 226.8 279.3 228.4 278.5 228C280.3 229 279.9 227.2 279.9 227.2L282.3 225.3C283.3 224.6 284.8 226.8 284.8 227.1C284.8 227.4 288.8 227.2 288.8 227.2C289.8 227.9 290.3 229.8 290.3 229.8C291.3 228.3 293.7 229.7 292 230.5C293.6 231.5 293.6 232.4 293.6 232.4C294.9 232 294.9 233 294.9 233.3L295.3 231.8C293.8 230.7 297.3 230.3 296.3 232.3L295.7 233.2L296.7 234V236.3C299 236.1 298.4 233.4 298.4 233.4L299.4 233.2C299.4 232.2 300.1 232.8 300.1 232.8C299.4 229.4 301.7 228.8 301.7 228.8C303 228.4 303.1 225.7 303.1 225.7C302.1 225.3 302.7 223.9 303.7 225.1C304.7 226.3 303.1 222.7 303.1 222.7L302.3 222L301.2 221.9L301.1 220.8H299.3L299 222.2L298.3 222.4L298.1 222L297.8 223H296L295.9 221.9L296.9 221.6L297.4 221L297.7 219.3H299L300.7 218.8C300.7 217.1 301.7 217.5 301.7 217.5L302.3 218L303.2 218.7V219.3L302.7 219.6L302.6 220.4L302.9 221.6H303.6C303.9 219.9 306 219.9 306.6 221L307.2 219.5C305.8 218.8 307.2 217.7 307.6 218.2C308 218.7 308.9 216.9 308.9 216.9C308.9 216.9 309.6 217.9 308.9 216.6C308.2 215.4 309.4 214.8 309.4 214.8C309.2 213.6 310.7 213.8 310.7 213.8L310.8 212.1H309.4C309.1 213.5 307.9 212.2 308.5 211.9C309.1 211.6 309.7 211 309.7 211V210L310.3 209.8L310.4 208.8H311.9L313.2 208.2L313.5 207.7L314.9 207.6L316.9 205.8L316.7 205C315.5 205 316.7 204 316.7 204L316.9 202.5Z" fill="white" style="fill:white;fill-opacity:1;"/>
<path id="Vector_4" d="M276.7 222.6L274.9 222.4L275 223.1H275.5C276.3 224.5 275.6 227.9 275.6 227.9C275.6 227.9 274.4 228 274.2 227.4C274 226.8 273.5 228.7 273.9 229.1C274.3 229.5 275.7 229.1 275.9 230.1C275.9 231.3 276.7 229.5 276.7 229.5V222.6Z" fill="white" style="fill:white;fill-opacity:1;"/>
<path id="Vector_5" d="M276.7 231.2L277.3 231.1L277.4 230.4L275.9 231.4L274.9 230.8V233.2L276.5 235.3L277.1 233.9L277.3 233L276.6 232.7L276.7 231.2ZM277.5 237.6V236.6H276.8V237.5L277.5 237.6ZM276.6 242.4V241.7L275.8 241.8V242.5L276.6 242.4ZM277.8 239.3C277.919 239.3 278.034 239.252 278.118 239.168C278.202 239.084 278.25 238.969 278.25 238.85C278.25 238.731 278.202 238.616 278.118 238.532C278.034 238.447 277.919 238.4 277.8 238.4C277.738 238.398 277.676 238.41 277.62 238.436C277.563 238.462 277.514 238.501 277.475 238.55C277.436 238.598 277.409 238.655 277.396 238.716C277.383 238.777 277.384 238.84 277.4 238.9C277.4 239.1 277.533 239.233 277.8 239.3Z" fill="white" style="fill:white;fill-opacity:1;"/>
<path id="Vector_6" d="M278.5 241.4C278.721 241.4 278.9 241.221 278.9 241C278.9 240.779 278.721 240.6 278.5 240.6C278.279 240.6 278.1 240.779 278.1 241C278.1 241.221 278.279 241.4 278.5 241.4Z" fill="white" style="fill:white;fill-opacity:1;"/>
<path id="Vector_7" d="M278.5 229.8C278.721 229.8 278.9 229.621 278.9 229.4C278.9 229.179 278.721 229 278.5 229C278.279 229 278.1 229.179 278.1 229.4C278.1 229.621 278.279 229.8 278.5 229.8Z" fill="white" style="fill:white;fill-opacity:1;"/>
<path id="Vector_8" d="M312.4 214.5L311.4 214.4L311.1 214.9H310.6V215.7H311.1L311.2 216.3L310.8 216.7L310.6 217.2L309.8 217.4L308 219.1V219.9L307.4 220.6L306.8 222.2H304.8L304.3 224.1L304.6 225.6L306.4 226.3L306.6 225.3L307.2 225L307.3 224L307.7 223.3L308.3 222.6L308.5 221.8L309.5 221.2L310.7 220.9L311.2 220.3L311.4 219.1V218.2L311.9 217.6L313.1 217.1V215.1H312.5L312.4 214.5ZM315.2 221.4V219.9L315 218.6L313.5 217.9L312.5 218.9L312.2 220.3V221.3L311.2 221.5L311 224.2L310.2 224.5L310.3 225.5L309.3 225.8L308.1 226.1L307.9 227.4L307.1 227.9L306.7 229.2L306.2 232.1C306.2 232.1 307.2 233.8 307.6 233C308.1 232.2 308.9 232 308.9 232L309.2 231.4H311.9C312.1 230.4 313.4 230.8 313.4 231.3C313.4 231.8 314.4 231.3 314.4 231.3L315.1 230.3H316.2L316.3 229L316.8 228.7V227C318.4 226.5 318.2 225 318.2 225L318.6 224.5L318.4 223.8C317.6 223.5 318 222.8 318.5 223C319 223.2 317.8 222 317.8 222C317.2 222.6 316.8 221.5 316.8 221.5L315.2 221.4ZM316.8 233.6C316.8 234.8 315.2 235.2 315.2 235.2L314.2 234.9L313.5 234.4V233L314.3 232.9L314.5 233.5L316.8 233.6ZM322.2 227.1C322.4 228.1 322.4 225.7 322.8 225.8C323.2 225.9 322.9 224.4 322.9 224.4L321.1 225.7C322 225.8 322.1 226.7 322.2 227.1ZM327.5 221.9C327.9 222.8 327.8 224.1 329.3 225.1C329.8 225.4 329 226.1 328.5 225.8L326.5 223.3V222C326.9 221.2 327.3 221.5 327.5 221.9ZM327.8 252.9L328.1 253.4L328.8 252.4L328.2 252.1L327.5 252.6L327.8 252.9ZM325 251V252.2ZM339.4 249.6L340.2 249.1L339.9 248.5L339.1 249L339.4 249.6ZM368.3 270.6L369.2 271.1V272.8C370.5 274 374.4 273 374.4 272.7L374.2 268.9L373.7 268.4L373.6 265.9C374 264.6 371.6 262.7 371.5 263.1C371.4 263.5 370 263.1 370 263.6C370 264.1 369.2 266 369.6 266.7C370 267.4 369.3 267.4 369.2 268.1C369.1 268.8 368.1 270.1 368.2 270.7L368.3 270.6ZM366.1 266.6C365.9 267.4 365.1 267.8 364.8 267.6C364.4 267.2 365.3 268 365.5 268.4C365.833 268.8 366.166 268.8 366.5 268.4C366.7 268 366.5 267.1 366.8 266.7C367.1 266.3 366.2 266.2 366.1 266.7V266.6ZM361.4 248H362.1V250H361.4V248ZM371.8 228.6C371.3 228 373.8 226.9 374.2 228.2C374.6 229.5 374.2 229.2 373.8 229.1C373.4 229 372.4 229.4 371.8 228.6ZM373.9 215V215.6L374.9 215.8L375 215.2L373.9 215ZM369.4 216.6L370.2 217.1H370.5L371.1 216.7V216.9L371.7 216.7L371.5 216.2V215.9L371.1 216L370.4 216.5L369.7 216L369.4 216.6ZM375 192H373.5C373.5 192 374 192.2 372.5 190.9C371.2 189.6 370.3 191.2 370.3 191.2L368.7 191.4V193L367.9 193.3V194.3H369.1C369.1 194.3 369.1 195.4 369.4 194.9C369.7 194.4 372.2 195 372 196.3C371.9 196.8 374.5 198.1 374.2 199.7C375.5 199.9 375.2 201.2 375.2 201.2L376.9 201.4L377.4 200.4L377.9 200.5V199.9L376.8 199.6L376.6 196.3L375.9 195.8L376.1 195L375.3 194.7L375.7 193.4L375 192ZM379.3 202.3H378.5L376.7 202.5L375.7 204.5C375.7 204.5 376.2 204.8 376.7 205.5C377 206.2 377.2 210.3 376 211C374.8 211.7 376.1 211.3 376.1 211.3L375.9 213.6C376.2 214.6 376.7 214.1 377 213.6C377.3 213.1 377.6 213 378 212.5C378.4 212 379 211 379.1 210.3C379.2 209.6 379.7 208.5 379.4 208.2C379.1 207.9 379.7 206.5 379.7 206.5C379.7 206.5 380.1 205.7 379.7 204.9C379.3 204.1 379.8 203.1 380.1 202.7L379.3 202.3ZM380.5 206.5L380.6 205.7H381.2V206.5H380.5ZM380.5 209.3L380 209L380.3 208.4L380.8 208.7L380.5 209.3ZM379.6 201.3L379.2 200.3C379.2 200.3 379.2 199.5 379.4 199.1C379.6 198.7 379 198.3 378.7 198.1C378.4 198.1 378.5 197.3 378.4 196.9C378.3 196.5 377.6 196.2 377.6 196.2L377.4 194.3C377.4 194 376.5 193.6 376.8 193.3L377.6 192.4C377.9 192.2 377.3 190.8 377.8 191.1C378.2 191.433 378.433 191.833 378.5 192.3C378.7 192.7 378.5 194.1 378.9 194.4C379.3 194.7 378.9 195.8 379.6 195.8C380.4 195.8 379.9 197.7 379.9 197.7C379.9 197.7 379.7 199.1 380.2 199.2C380.7 199.3 380.4 201.7 380.4 201.7L379.6 201.3ZM373.2 184.8C373.5 185.2 374.1 185.5 374.1 185.9C374.1 186.3 373.9 186.6 374.5 186.7C375.1 186.7 375.5 186.833 375.7 187.1C375.9 187.6 375.9 188.5 375.7 188.9C375.7 189.433 375.933 189.767 376.4 189.9C377.1 190.1 377 189.9 377 190.3C377 190.6 377.6 189.2 377.6 189.2C377.1 188.8 376.6 187.9 376.6 187.9L376.2 186.2C376.2 186 375.5 185.8 375.2 185.7C374.9 185.6 374.4 184.7 374.4 184.7L373.2 184.8ZM374.2 183.9C373.933 183.5 373.6 183.2 373.2 183C372.8 182.8 372.433 182.667 372.1 182.6C371.985 182.595 371.872 182.561 371.773 182.502C371.674 182.443 371.591 182.36 371.532 182.261C371.472 182.162 371.438 182.05 371.433 181.934C371.427 181.819 371.45 181.704 371.5 181.6C371.7 181.2 371.2 181 371.2 180.6C371.2 180.2 371.5 180.2 372 180.5C372.5 180.8 372.4 180.9 372.8 181.4C373.2 181.9 373.4 182.4 373.8 182.3C374.2 182.2 374.5 183.2 374.8 182.9C375.3 182.6 375.2 183.6 375.2 183.6L374.2 183.9ZM362.5 195.3C363 195.9 359.5 195.7 359.5 195.3C359.5 194.9 359.8 193.5 360.7 193.8C361.6 194.1 361.7 192 361.7 192C361.7 192 360.9 192.1 361.6 191.7C362.3 191.3 361.6 190.7 361.3 190.4L360.7 189.6H362.1C362.7 189.2 362.9 187.3 362.9 187.3C364.1 187.7 364.7 186.8 364.7 186.8L365.3 188C365.7 188.5 364.3 188.7 364.8 189C365.3 189.3 365.5 190.2 365.3 190.5C365.1 190.8 364 190.5 364 190.2C364 189.9 363.6 190.7 364 191.2C364.4 191.7 363.5 192.4 363.3 192.4C363.1 192.4 361.8 192.6 362.9 193.2C363.9 193.8 365.2 193.5 365.2 193.5C365.2 193.5 366.1 193.5 366.4 193.9C366.6 194.367 366.4 194.567 365.8 194.5L362.8 194.3C362.8 194.3 362.2 195 362.5 195.3ZM356.1 196.3C356.6 196.2 357.8 196.1 358.1 196.3C358.2 196.7 357.3 197.1 357.3 197.1L356.1 197.3C355.633 196.7 355.633 196.367 356.1 196.3ZM369 187.8C369.8 187.4 371.5 187.4 371.4 186.8C371.3 186.2 372.4 185.9 372.4 185.9L372.7 187.1L373.6 187.8V188.8L372.9 189C371.8 189.3 372.5 189.8 372.5 189.8H370L369.7 188.8L368.9 187.8H369ZM365 182.3C365.7 182.3 364.9 184.6 366.5 184.4C368.1 184.2 366.5 185.1 367.8 185.2C369 185.3 368.7 184.3 369.1 183.6C369.5 182.933 369.333 182.5 368.6 182.3C367.9 182.1 367.9 182.1 367.6 181.3C367.5 180.5 366.6 180.3 366.6 180.3L366.4 179.1L365.1 179.9L363.8 181.6C363.8 182.9 364.5 182.3 365.1 182.3H365ZM367.7 190.8L368 190.2L368.6 190.5L368.3 191.1L367.7 190.8ZM366.7 189.8H367.3V190.6H366.7V189.8ZM367.2 176.4V177.3H366.7L366.6 176.5L367.2 176.4ZM365.5 185.8H366.1V186.3H365.5V185.8ZM363.9 185.8V185.2H364.9V185.7L363.9 185.8ZM355.7 195.6L355.1 195.3L355.4 194.6L356 194.9L355.7 195.6ZM352.5 193.7V193.1H353.5V193.6L352.5 193.7ZM335.2 193.5L333 193.6V194.2H335.3L335.2 193.5ZM331.6 194.4L331.4 193.5L332 193.4L332.2 194.3L331.6 194.4ZM331.2 195L331 194.5L331.3 194.4L331.5 194.9L331.2 195ZM336.2 193.3L336.1 194L337.1 194.1C337.1 194.1 337.6 194.5 337.6 194.8C337.6 195.1 338.3 195.4 338.7 195.4C339.1 195.4 340.2 194.6 340.2 194.6C340.2 194.6 340.7 193.2 340.3 193.3C339.9 193.4 339.1 194 339 193.4C339 192.8 337.7 193.1 337.7 193.1L336.2 193.3ZM341.2 192.3C341.2 192.5 340.9 192.9 341.5 193C342.1 193.1 343.2 192.6 343.3 193.2C343.4 193.8 343.4 194.2 344.3 194.5L346.1 194.9L348.1 194.7C348.1 194.7 349.4 195 349.7 195.2C350.766 196.4 351.466 196.733 351.8 196.2C352.1 195.7 351.8 194.5 351.6 194.2C351.6 193.7 350.1 191.8 349.6 192.2C349.1 192.6 349 192.2 348.1 192.5C347.2 192.8 345.3 192.6 345.2 192.2C345.2 191.8 343.7 191.6 343.7 191.2C343.7 190.8 342.7 190.2 342.8 190.9C342.9 191.6 342.1 191.8 341.9 191.6C341.7 191.4 341.1 192.2 341.1 192.2L341.2 192.3ZM364.1 179.3L364.8 177C363.8 176.8 364 175.7 364 175.7C363.9 174.7 362.5 173.7 362 174.1C361.5 174.5 361.7 172 361.7 172C361.7 172 362.6 171.4 363 171.7C363.4 172 359.6 166.6 358.8 167.1C358 167.6 356.2 166.6 356.3 165.7C356.4 164.7 352.7 161.7 352.7 161.7C352.7 161.7 351.5 160.9 351.3 161.5C351.1 162.1 350.7 162.5 351.3 162.9C351.9 163.3 351.8 162.4 352.5 163.1C353.2 163.8 354.5 164.7 354 165.3C353.4 165.833 353.066 166.1 353 166.1L353.6 166.9H354.7L354.9 168.6C354.9 168.6 356.1 169.2 356.4 169.9C356.666 170.567 356.666 171.1 356.4 171.5C356.1 171.9 355.5 172.5 355.6 173.3C355.7 174 356.6 174.3 356.6 174.3H357.3L357.9 174.7V176C358.7 175.8 360 177 359.9 177.6C359.9 178.3 360.1 177.9 361.1 178.6C362.1 179.3 361.8 179.4 362.5 180C363.233 180.467 363.766 180.2 364.1 179.2V179.3Z" fill="white" style="fill:white;fill-opacity:1;"/>
<path id="Vector_9" d="M347.5 165.6C347.5 165.2 347.2 163.8 347.8 163.9C348.4 163.9 348 163.9 348.8 164.2C349.6 164.5 349.5 163.7 349.5 163.7H350.6L352 164.7L351.8 165.7H350.8C350.3 165 349.3 165.3 349.5 166C349.7 166.7 349 168 348.6 168.1C348.2 168.2 346.9 168.2 347 167.6L347.5 165.6ZM346.7 162.9V162C346.7 162 346.7 161.2 346.1 161.2C345.5 161.2 344.7 160.6 344.9 160.2C345.1 159.8 343.2 159.4 343.2 159.4C343.2 159.4 341.5 157.8 342.2 158C342.7 158.2 342.4 157.3 342.4 157.3C342.4 157.3 341.2 157.5 340.9 157.3C340.6 157.3 340.7 156.3 340.7 156.3C340.7 156.3 339.5 156.1 339.5 156.3C339.5 156.5 339.9 156.7 340.1 157.3C340.3 157.9 340.2 158.9 341.1 159.1C342 159.3 342.2 159.5 342.3 159.9C342.4 160.3 343.5 160.4 343.5 160.4L344.3 160.8L346.7 162.9ZM336 152.5L335.7 151.7L334.9 151.5V152.5H336ZM335.7 148.3C334.7 147.5 337.1 148.9 337.1 148.9C337.9 148.9 338.4 149.5 338.4 149.8C338.4 150.1 339.4 150 339.4 150L339.5 149.3L338.7 148.3L338 147.8C338 147.8 337 147.7 337 147.4C337 147.1 336 148.6 335.6 148.3H335.7ZM354 148.9C353.7 149.8 353.6 151 353.1 151C352.6 151 352.8 152.3 352.8 152.3L354.5 152.4C354.9 152.5 354.9 153.5 354.9 153.5C356.4 153.5 357 155.5 356.9 156C356.6 156.5 357.4 156.5 357.4 156.5C357.4 156.5 357.4 158.1 357.2 158.5C357 158.9 358.5 159.2 358.9 159.8C359.3 160.4 358.7 162.4 358.4 162.5C358.1 162.6 359.2 163 359.1 163.5C359 164 359.4 163.5 359.5 164.3L359.8 166.8L361.2 166.9C361.4 165.6 364 165.5 364.4 165.7C366.1 166.3 367.4 168.9 367.4 169.5C367.4 170.1 366.3 170.2 366.3 170.2L366.5 173.2C368.2 173.7 369.5 176.2 369.4 176.5C369.2 176.9 370.6 176.8 370.6 176.8C370.8 175 372.5 175.6 372.6 176.2C372.6 176.8 373 178.2 373 178.2L373.5 179L374.2 179.7H375.2L375.6 180.3L376.8 180.5C376.8 180.5 377.9 181.7 378 182C378.1 182.3 379.6 182.2 380 182.3C380.533 182.3 380.9 182.6 381.1 183.2C381.2 183.7 381.8 184.5 381.8 184.5C381.8 184.5 383 184.8 383.1 185.2L383.7 186.5L384.7 187.3L384.8 188.3H385.9L386.2 189.6L388 189.5L389 188.8C389.926 188.342 390.718 187.653 391.3 186.8C391.4 186.3 391.6 184.8 392.6 185.1C393.6 185.4 392.9 182.9 392.9 182.9C392.9 182.9 391.5 181.9 391.6 181.4C391.7 180.9 390.2 179.9 390.3 179.4C390.4 179.1 389 178.2 389.1 177.8C389.2 177.4 388.4 176.3 388.4 176.3L387 175L386.8 174H385.6L383.2 171L383.3 170.2H382.6V169L381.9 168.6H380.9L378.6 166.1L378.4 165H377.4L377.6 162.9C378.3 161.9 377.9 160.2 377.9 160.2C377.9 160.2 376.5 160.9 375.8 160.6C375.1 160.3 376.1 159.6 376.1 159.6V158.8L375.5 158.2C375.5 158.2 373.8 158.4 373.7 158.1L373.3 156.5L373.2 154.8L372.5 154.5L372.4 153.8L371.3 153.9V152.7L370.7 152.5L370.1 152.2L370 151L367.8 150.9L367.1 149.9L366.3 148.7L363.8 148.5L363.2 147.9L362.2 147.7L361.5 147.4L361.2 147.9H359.2V148.6C358.2 149.1 354.2 148.6 354.2 149L354 148.9ZM364.5 146.2C364.3 145.5 366.5 144.7 367 145.3C367.5 145.9 368.9 146 369 149.1C369.1 150.1 367.3 148 367.3 148L365.8 147.5C365 147.233 364.567 146.833 364.5 146.3V146.2ZM335.2 147.5L334.7 147.2L335.1 146.3L335.6 146.6L335.2 147.5ZM330.1 137.5L328.8 136.2V135.2L328.4 134.7L328 133.3L326.7 132.9L325.4 133.4L324 134.3L322.5 134.5L321.7 135.5L324.9 135.7L325.5 136.7L327.8 136.9L329.3 138.4C330.6 138.9 330.9 138.2 330.1 137.5ZM329.9 132.5C329.7 131.7 328.4 133.7 329.7 134.1C331 134.5 332.3 134.1 332.3 134.1L332.6 133.5L337.6 133.6C338 133.2 338.2 132.6 338.2 132.6C338.2 132.6 339.4 132.2 339.9 132.4C340.4 132.6 339.9 131 339.5 131.2C339.1 131.4 338 131.2 338 131.2H336.2C336.1 130.6 334.5 130.9 334.4 131.2C334.3 131.7 333.7 131.8 333.7 131.8L331.4 132C331.2 132.6 330 133 329.9 132.6V132.5ZM320 149.7C321.5 150.2 322.1 149.7 322.2 149.4C322.2 149.067 322.467 148.867 323 148.8C323.6 148.7 322.9 147.5 322.3 147.6C321.633 147.6 321.2 147.367 321 146.9C320.9 146.3 319.9 145 319.8 146C319.7 147 319.1 147 319.2 147.8C319.3 148.5 319.6 149.5 320 149.7ZM308.5 150.8C308.5 150.4 310.5 150.4 310.8 150.7C311.1 151 310.9 151.5 311.8 151.5C312.7 151.5 312.3 152.1 312.2 152.5C312.2 152.7 311.2 152.6 311 152.3C311 152 309.4 151.9 309.4 151.9C309.4 151.9 308.6 151.3 308.5 150.8ZM342.5 129.1L341.7 129.7L341.2 129.2L340.7 129.7L341.4 130.4L341.6 130.6L341.8 130.4L342.8 129.6L342.5 129.1ZM337 127.3L336.3 126.9L336 127.4L336.8 127.9H337.1L338.2 127.2L337.9 126.7L337 127.3ZM333.7 148.1L332.7 148V148.6H333.5L334.1 149.6L334.6 149.3L333.9 148.3L333.7 148.1ZM300.7 176.3L300.8 177.4H302.3C302.9 177.4 301.8 176.7 301.8 176.7C301.8 176.7 300.6 176.8 300.8 176.3H300.7ZM302.7 176.3L303 175.9L303.6 176.4L303.2 176.8L302.7 176.3ZM284.5 157.4L284.9 157L285.5 157.6L285.1 158L284.5 157.4ZM313.5 287.7L312.5 287.2L312.2 287.7L312.8 288L312.6 288.2L313 288.7L313.5 288.2L313.8 287.9L313.5 287.7ZM305.7 280.4L305.3 279.9L304.7 280.4L304.4 280.7L304.8 280.9L305.5 281.4L305.8 280.9L305.4 280.6L305.7 280.4ZM379.9 261.2C379.8 260.7 379.2 260.5 379.1 260.4L378.9 261L379.1 261.1L379.2 261.6L379.1 261.8L379.5 262.2C379.9 261.867 380.033 261.533 379.9 261.2ZM380.9 259.2H379.9V258.3L380.9 258.5V259.2ZM403.9 251.4C404.4 251.1 404.9 250.6 404.9 251.8C404.8 252.9 404.3 252.5 403.9 252.9C403.6 253.3 403.3 251.8 403.9 251.4ZM409 247.1L408.8 246.4L408.3 246.7L408.4 247.1C408.4 247.3 408.467 247.467 408.6 247.6C408.667 247.733 408.8 247.733 409 247.6L408.9 247.1H409ZM407.7 247.6L408.1 248.8L408.6 248.6L408.3 247.4L407.7 247.6ZM405.5 250H404.9C404.9 250.4 404.9 251 405.4 251L405.6 250.5L405.5 250ZM402.9 238L402.5 237.5C402.033 237.367 401.533 237.5 401 237.9L401.3 238.4C401.767 238.133 402.1 238 402.3 238H402.9ZM375.2 205.6C374.8 206 373.9 206.2 373.9 206.2L373.6 207.2L373.2 207.7V208.7C373.2 209.4 372.2 209.8 372.2 209.8L371.8 210.3H369.1C368.1 209.9 368.8 208.7 369.4 208.8C370 208.9 369.3 207.1 369.3 207.1L370.1 207C370.1 207 370.1 205.2 370.5 205.2C370.7 205.067 370.533 204.733 370 204.2C369.6 203.9 369 202.9 368.7 203H366.7L366.4 203.6L365.3 203.8L365.2 204.8C364.6 205.6 362.2 207.1 363.2 204.6L363.6 203.9V203H361.8C361.8 203 360.8 202.6 360.8 202.2V201.3L358.7 199L356.2 198.7L356 198.2L354.5 198C352.7 197 351.1 197.9 351.5 199.4C351.7 200.9 352.2 201.5 351.2 201.5C350.2 201.5 350 200.7 350 200.7C350 200.7 349.2 200.4 349.2 200.8C349.2 201.2 348.9 202 349.2 202.4C349.5 202.8 348.8 203.4 348.5 203.1C348.2 202.8 347.5 201.9 347.6 201.6C347.8 201.3 346.2 199.4 347.8 199.1C349.4 198.8 347.8 197.9 348.3 197.7L349.1 197.3H349.9L350.4 196.9L349.1 196.7L348.3 196.6L346.8 196.5C345.951 196.988 345.31 197.771 345 198.7C344.2 200.2 342.3 198.1 343 197.3C343.7 196.5 340.8 197.2 340.3 197.6C339.8 198 338.3 197.8 338.3 197.8C338 198.7 336.6 197.7 337 197.1C337.333 196.433 337.467 196.1 337.4 196.1L336.9 195.9L336.3 197.1C335 197.1 334.6 197.9 334.8 198.4C335.1 198.9 334.4 198.3 334.2 199C334 199.7 334.4 199.7 334.9 200C335.5 200.3 334.6 200.3 335 200.8C335.4 201.3 336.6 200.8 336 201.5C335.2 202.2 333.9 201.9 333.9 201.9C333.8 202.9 331.9 202.6 331.7 202.3L330 200.2L328 200.1C327.9 198.7 329 199.4 329.4 198.3C329.8 197.2 330 195.3 330 195.3C330 195.3 328.4 195.3 328.3 195.7C328.2 196.1 327.2 196.6 327.2 196.6C327.2 196.6 326.4 196.9 326.7 197.3C327 197.7 326.1 197.9 326.1 197.9C326.1 197.9 326.2 198.5 326 198.8C325.2 199.6 323.2 198.8 322.9 198.6L321.7 198.1L320.5 197.3L319.1 197.9L318.7 198.3H317.2L317.1 199.5L319.8 199.8L320 202.3L318.9 201.9H318.2L317.9 201.3H317.3V203.4L317.9 203.9L318.4 204.4L319.4 204.5L319.6 205.8H322.1L322.4 206.4H323.9L326.8 209.4L326.6 210.4L326.1 210.6C326.3 211.3 324.8 210.9 324.8 210.9V211.5L325.5 211.6L326.2 212L327.2 210.3C328.2 209.6 328.8 210.6 328.9 211.3C328.9 211.8 328.4 211.7 328.4 211.7V213.2L329 213.4C330 214.6 328.6 215.3 328.6 215.3L328.3 216.3C328 217.2 326.9 217 326.9 217L326.5 217.6L325.3 217.9L327.7 218.2C328.033 217.4 328.367 217.2 328.7 217.6C329.1 218 329.1 218.7 329.1 218.7L329.7 218.8L329.6 219.9L330.2 220.1V223.4L330.9 224.2C332.1 223.7 332.1 224.5 331.5 224.9C330.9 225.3 331.3 227.1 331.3 227.1L330.8 227.6V228.4L330.2 228.8V230C329.2 229.5 328 229.7 327.7 230C326.7 229.4 324.9 229.6 324.9 230C325.5 230.9 324.2 231 324.2 231L323.5 231.9C324 232.9 323 233 323 233V235L321.8 236V238.7C321.8 239.4 323.4 239.5 323.7 239.1C324 238.7 325.2 239.9 325.2 239.9H326.1L326.3 238.1L325.7 237.8V234.8L326.7 233.8C327.9 233.3 327.5 236.3 327.5 236.6C327.5 237.8 328.1 237.6 328.5 237.4C329.5 237 328.8 238.6 328 238.4C327.2 238.4 327.7 239.4 327.7 239.4L328.2 239.7L327.2 240.4L326.5 241.3L325.5 241L324.3 240.9L323.9 240.2L323.2 240.1L323.1 241.5L322.6 242.1L321.4 243.3C323 243.3 321.2 244.4 320.8 244.4C321.7 244.7 320.7 245.6 318.4 244.9V245.6L317.6 245.7L318.3 246.6H319.1L318.8 248.4C318.8 249.7 315.5 248.8 315.2 248.4V250.4H314.5L314.6 251.6V253.3L315.6 253.1V253.8L318.3 253.9L322.2 249.8L324.5 249.3C324.7 248.3 325.7 249.5 325.7 249.5C326.7 249.4 326.9 250.1 326.9 250.1L328.2 250.3C329.2 250.6 328.6 250.7 328.7 251.1C328.7 251.7 329.3 251.5 329.3 251.5L329.5 250.2L330.1 250.3L329.5 249.6L328.4 249.1L327.2 248.6C326.4 247.5 327.4 247.6 328.2 247.8H329.5C329.5 247.8 331 249.8 331 250.3C331 250.8 331.7 250.9 331.7 250.9H332.6L332.9 251.5H333.8L334.1 252.1H335.9V251.2L334.3 250.9L334.2 249.9L333 249.6C332.6 247.9 333.3 247.4 333.8 248.2H334.4L334.2 246.8L334.9 246.6L334.7 244.4L334.1 244.2V243.5L336.6 243.6C336.533 242.267 336.533 241.633 336.6 241.7H337.4V242.2L340.5 242.5L342.7 240C342.6 239.8 342.9 239.7 342.7 239.5C342.3 239.2 341.9 239.5 341.4 239.2C340.9 238.9 341.4 237.2 341.4 236.7C341.2 236.3 343 235.7 342.7 236.7C342.4 237.5 342.7 238 342.7 238C344 236.7 345.1 238 345 238.4C345 238.7 345.7 239 346.2 238.7C346.7 238.4 347.3 239.6 347.2 240.2C346.9 240.8 345.2 240.7 345 240.1C344.933 239.633 344.733 239.6 344.4 240C344.067 240.4 343.533 240.467 342.8 240.2L342.7 240L340.5 242.5H340.6C341.8 243.2 341.2 244.1 340.8 244.3C340.4 244.5 339.8 244.5 339.8 244.5L339.5 244.9L336.9 245.1L336.7 246.1C335.5 246 335 247.4 335.3 248.1C335.6 248.8 335.3 249.4 335.3 249.4L336.3 249.9L337.8 249.5C338 248.5 338.8 248.3 339.6 247.7C340.4 247.1 341.7 248.7 341.3 249.6C340.967 250.4 340.833 250.767 340.9 250.7L341 251.7L340 252L339.2 252.4V252.9H336.4L336 253.4L334.7 253.5L334.3 254.2H333.3C333.3 254.2 331.9 255 332.5 255.8C333.1 256.6 330 256.5 329.3 255.4C329.1 256.4 328 255.4 328 255.4L326.9 255.2L326.8 253.7C326.6 252.7 324.7 252.7 324.8 253.4C324.8 254.1 321.2 253.7 321.2 253.7L320 254.2L318.9 254.9L318.8 255.4L317 255.6L316.2 256L315.9 255.4H315.1L314.3 256.4C312.3 256.6 310.3 257.8 310.4 258.4C310.6 258.8 309.6 259.4 309.6 259.4L308.7 259.6L308.1 260.6L306.9 260.9L306.7 263.1L306.1 263.5V264.4L305.4 264.6V265.1H304.4L305 266.7L305.8 267.1C307.2 267.3 306.6 269.1 306.6 269.1H307.4L307.8 270.2L308.6 271.9C308.9 273.1 309.8 272.8 310.2 272.7C310.6 272.6 311 273.9 311 273.9L315 274C315 274 314.8 274.4 315.5 274.6C316.2 274.8 320.8 275 321 274.7C320.8 273.8 323.5 273.6 324.6 274.4C325.6 275.2 327.2 274.7 327.2 274.7L328.7 276.5L329.7 278.8L331.4 279.3L332.6 279.6L333 281.3H333.9L334.2 282.5C335.2 283.3 333.9 285 333.9 285V287.3L334.7 287.7L334.6 288.5L335.9 289.8H337.4L341.1 293.9L344.1 294.9L344.6 296.5L345.4 296.4L346 295.9L348.4 295.8L349.6 294.6L350.9 294.4L361.9 285L360.9 284.4V282.2C362.8 280.9 362.9 278.5 361.2 278.3C359.9 278.2 360.5 276.8 361.7 276.6L362.4 276.3V275.4L364.7 273.3V271.7L359.7 267.5C357.5 266.7 359.7 261.8 361.2 261.9C362.7 262 361.1 254.5 361.1 254.5L360.3 254.1L360.5 251.6H359.4L357.6 254L357.1 255.6C356.9 257.7 350.7 257.3 350.4 257C350.1 256.7 348 255.8 348 255.8C348 255.8 346.4 254.5 346.1 254.8C345.8 255.3 344.4 254.4 344.4 254.7C344.4 255 343.1 253.9 343.1 253.9L341.1 253.2L342.6 252.9L342.3 251.7L344.9 253C345.2 253.4 346.5 253.3 346.5 253.3L346.9 253.8C346.9 253.8 347.7 253.8 348.2 254.3C348.7 255 351.3 254.5 351.3 254.5L352 255.1L353.1 255.5H356.2L356.3 253.6L356.9 253V251.8L357.5 251.2V250.2L358.1 250L358.2 247.8L358.7 247.7V242.8L357.2 241.4C357.1 241.9 355.5 241.9 355.5 241.9C355.5 241.9 355.1 242.6 354.8 242.6C354.5 242.6 355.2 243.6 355 244.1C354.8 244.6 354 244.7 354 244.7L352.5 245.1L352.1 245.6H350.5L350.3 244.3L352.1 243.8L353.1 243.3L353.6 242.3C353.7 241.3 354.9 241.4 354.9 241.4C354.9 241.4 357.2 239.4 357.3 238.6C357.4 237.6 358.2 235.1 359.6 235.1H362.2C363.2 234.7 362.9 233.4 362.9 233.4L364.2 233.2L364.4 233.9C364.4 233.9 366.2 234.1 366.4 233.9C366.6 233.5 367 232.9 367.4 233.1C368 233.4 369.6 232.4 369.6 232.4C369.6 231.7 372.2 232 372.2 232L372.5 231C372.5 231 370.8 228.7 370.5 228.7C370.2 228.7 368.5 227.3 368.4 227.8C366.8 227.4 366.9 225.2 366.9 225.2L366.3 223.8C366.3 223 364.8 221.3 364.5 221.5C364.272 221.368 364.082 221.179 363.95 220.951C363.818 220.723 363.748 220.464 363.748 220.2C363.748 219.936 363.818 219.677 363.95 219.449C364.082 219.221 364.272 219.031 364.5 218.9C364.9 218.9 365.9 217.4 365.9 217.4L366.4 216L368.1 215.5L368.3 214.2L367.3 214.1C367.3 214.1 368.3 212.2 368.9 212.2C369.5 212.2 372.7 212.2 372.9 212C373.3 211.8 373.9 210.2 373.9 210C373.9 209.6 374.7 209.5 374.9 209.4C375.3 209.4 375.9 208.5 376.2 208.1C376.4 207.7 375.7 205.1 375.2 205.6Z" fill="white" style="fill:white;fill-opacity:1;"/>
<path id="Vector_10" d="M320 242C320.1 242 320.3 242.5 320.6 242.4C320.9 242.3 321.1 243 320.7 243C320.567 243.067 320.5 243.233 320.5 243.5C320.5 243.7 320.4 243.967 320.2 244.3C320 244.433 319.767 244.4 319.5 244.2C319.233 244.067 318.933 244 318.6 244C318.3 244 318.6 244.6 318.6 244.6C318.6 244.6 317 244.6 317.3 244.3C317.7 244.1 317.833 243.967 317.7 243.9C317.567 243.833 317.567 243.633 317.7 243.3C317.8 242.9 318.4 243.1 318.2 242.9C318 242.7 318.2 241.8 318.6 242.3L318.8 241.8C318.6 241.5 318.8 241.5 318.3 241.3C317.8 241.1 318.2 240.3 318.2 240.3V239.6C318.4 238.9 319.9 238.8 320 239.5V240.6L320.5 240.8C320.5 240.8 320.4 241.2 320 241.2C319.6 241.2 320 241.4 319.8 241.7L320 242.1V242ZM315 242.8C315.3 242.4 315.8 240.4 316.4 241C317 241.6 317.4 241 317.4 241C317.4 241 317.7 241.3 317.5 242C317.367 242.6 317.167 243 316.9 243.2C316.567 243.267 316.167 243.4 315.7 243.6C315.3 243.6 315.1 242.8 315.1 242.8H315Z" fill="white" style="fill:white;fill-opacity:1;"/>
</g>
<defs>
<clipPath id="clip0_2194_10888">
<rect width="640" height="480" fill="white" style="fill:white;fill-opacity:1;"/>
</clipPath>
</defs>
</svg>
