<svg width="640" height="480" viewBox="0 0 640 480" fill="none" xmlns="http://www.w3.org/2000/svg">
<g id="uy" clip-path="url(#clip0_2194_10907)">
<path id="Vector" d="M0 0H640V480H0V0Z" fill="white" style="fill:white;fill-opacity:1;"/>
<path id="Vector_2" d="M266 53.3H640V106.7H266V53.3ZM266 160H640V213.3H266V160ZM0 266.7H640V320H0V266.7ZM0 373.3H640V426.7H0V373.3Z" fill="#0038A8" style="fill:#0038A8;fill:color(display-p3 0.0000 0.2196 0.6588);fill-opacity:1;"/>
<g id="Group">
<g id="uy-c">
<g id="uy-b">
<g id="uy-a">
<g id="Vector_3">
<path d="M127.433 159.406L136.233 172.606C99.8598 199.006 121.86 214.26 96.3398 222.473C112.18 207.22 93.6998 205.753 107.193 173.193" fill="#FCD116" style="fill:#FCD116;fill:color(display-p3 0.9882 0.8196 0.0863);fill-opacity:1;"/>
<path d="M127.433 159.406L136.233 172.606C99.8598 199.006 121.86 214.26 96.3398 222.473C112.18 207.22 93.6998 205.753 107.193 173.193" stroke="black" style="stroke:black;stroke-opacity:1;" stroke-width="1.76" stroke-miterlimit="20" stroke-linecap="square"/>
</g>
<path id="Vector_4" d="M120.98 163.219C101.033 196.073 113.94 214.259 96.3398 222.766" stroke="black" style="stroke:black;stroke-opacity:1;" stroke-width="1.76" stroke-miterlimit="20"/>
<g id="Vector_5">
<path d="M133.3 133.3H150.9L133.3 230.099L115.7 133.3H133.3V230.099Z" fill="#FCD116" style="fill:#FCD116;fill:color(display-p3 0.9882 0.8196 0.0863);fill-opacity:1;"/>
<path d="M133.3 133.3H150.9L133.3 230.099M133.3 133.3H115.7L133.3 230.099M133.3 133.3V230.099" stroke="black" style="stroke:black;stroke-opacity:1;" stroke-width="1.76" stroke-miterlimit="20"/>
</g>
</g>
<g id="uy-a_2">
<g id="Vector_6">
<path d="M110.691 147.612L107.58 163.168C63.1927 156.116 67.9633 182.458 44.1103 170.22C66.0965 170.635 54.0663 156.53 86.6309 143.048" fill="#FCD116" style="fill:#FCD116;fill:color(display-p3 0.9882 0.8196 0.0863);fill-opacity:1;"/>
<path d="M110.691 147.612L107.58 163.168C63.1927 156.116 67.9633 182.458 44.1103 170.22C66.0965 170.635 54.0663 156.53 86.6309 143.048" stroke="black" style="stroke:black;stroke-opacity:1;" stroke-width="1.76" stroke-miterlimit="20" stroke-linecap="square"/>
</g>
<path id="Vector_7" d="M103.431 145.745C66.0962 154.871 62.3627 176.857 43.9025 170.427" stroke="black" style="stroke:black;stroke-opacity:1;" stroke-width="1.76" stroke-miterlimit="20"/>
<g id="Vector_8">
<path d="M133.3 133.3L145.745 145.745L64.8517 201.747L120.854 120.854L133.3 133.3L64.8517 201.747Z" fill="#FCD116" style="fill:#FCD116;fill:color(display-p3 0.9882 0.8196 0.0863);fill-opacity:1;"/>
<path d="M133.3 133.3L145.745 145.745L64.8517 201.747M133.3 133.3L120.854 120.854L64.8517 201.747M133.3 133.3L64.8517 201.747" stroke="black" style="stroke:black;stroke-opacity:1;" stroke-width="1.76" stroke-miterlimit="20"/>
</g>
</g>
</g>
<g id="uy-b_2">
<g id="uy-a_3">
<g id="Vector_9">
<path d="M107.193 127.433L93.9934 136.233C67.5934 99.8598 52.3401 121.86 44.1268 96.3398C59.3801 112.18 60.8467 93.6998 93.4067 107.193" fill="#FCD116" style="fill:#FCD116;fill:color(display-p3 0.9882 0.8196 0.0863);fill-opacity:1;"/>
<path d="M107.193 127.433L93.9934 136.233C67.5934 99.8598 52.3401 121.86 44.1268 96.3398C59.3801 112.18 60.8467 93.6998 93.4067 107.193" stroke="black" style="stroke:black;stroke-opacity:1;" stroke-width="1.76" stroke-miterlimit="20" stroke-linecap="square"/>
</g>
<path id="Vector_10" d="M103.38 120.98C70.5266 101.033 52.3399 113.94 43.8333 96.3398" stroke="black" style="stroke:black;stroke-opacity:1;" stroke-width="1.76" stroke-miterlimit="20"/>
<g id="Vector_11">
<path d="M133.3 133.3V150.9L36.4999 133.3L133.3 115.7V133.3H36.4999Z" fill="#FCD116" style="fill:#FCD116;fill:color(display-p3 0.9882 0.8196 0.0863);fill-opacity:1;"/>
<path d="M133.3 133.3V150.9L36.4999 133.3M133.3 133.3V115.7L36.4999 133.3M133.3 133.3H36.4999" stroke="black" style="stroke:black;stroke-opacity:1;" stroke-width="1.76" stroke-miterlimit="20"/>
</g>
</g>
<g id="uy-a_4">
<g id="Vector_12">
<path d="M118.988 110.691L103.432 107.58C110.484 63.1925 84.1421 67.9631 96.3798 44.11C95.965 66.0963 110.069 54.0661 123.552 86.6307" fill="#FCD116" style="fill:#FCD116;fill:color(display-p3 0.9882 0.8196 0.0863);fill-opacity:1;"/>
<path d="M118.988 110.691L103.432 107.58C110.484 63.1925 84.1421 67.9631 96.3798 44.11C95.965 66.0963 110.069 54.0661 123.552 86.6307" stroke="black" style="stroke:black;stroke-opacity:1;" stroke-width="1.76" stroke-miterlimit="20" stroke-linecap="square"/>
</g>
<path id="Vector_13" d="M120.855 103.432C111.728 66.0964 89.7421 62.3629 96.172 43.9027" stroke="black" style="stroke:black;stroke-opacity:1;" stroke-width="1.76" stroke-miterlimit="20"/>
<g id="Vector_14">
<path d="M133.3 133.3L120.855 145.745L64.8522 64.8517L145.745 120.854L133.3 133.3L64.8522 64.8517Z" fill="#FCD116" style="fill:#FCD116;fill:color(display-p3 0.9882 0.8196 0.0863);fill-opacity:1;"/>
<path d="M133.3 133.3L120.855 145.745L64.8522 64.8517M133.3 133.3L145.745 120.854L64.8522 64.8517M133.3 133.3L64.8522 64.8517" stroke="black" style="stroke:black;stroke-opacity:1;" stroke-width="1.76" stroke-miterlimit="20"/>
</g>
</g>
</g>
</g>
<g id="uy-c_2">
<g id="uy-b_3">
<g id="uy-a_5">
<g id="Vector_15">
<path d="M139.166 107.193L130.366 93.9934C166.74 67.5934 144.74 52.3401 170.26 44.1268C154.42 59.3801 172.9 60.8467 159.406 93.4067" fill="#FCD116" style="fill:#FCD116;fill:color(display-p3 0.9882 0.8196 0.0863);fill-opacity:1;"/>
<path d="M139.166 107.193L130.366 93.9934C166.74 67.5934 144.74 52.3401 170.26 44.1268C154.42 59.3801 172.9 60.8467 159.406 93.4067" stroke="black" style="stroke:black;stroke-opacity:1;" stroke-width="1.76" stroke-miterlimit="20" stroke-linecap="square"/>
</g>
<path id="Vector_16" d="M145.62 103.38C165.566 70.5268 152.66 52.3402 170.26 43.8335" stroke="black" style="stroke:black;stroke-opacity:1;" stroke-width="1.76" stroke-miterlimit="20"/>
<g id="Vector_17">
<path d="M133.3 133.3H115.7L133.3 36.5002L150.9 133.3H133.3V36.5002Z" fill="#FCD116" style="fill:#FCD116;fill:color(display-p3 0.9882 0.8196 0.0863);fill-opacity:1;"/>
<path d="M133.3 133.3H115.7L133.3 36.5002M133.3 133.3H150.9L133.3 36.5002M133.3 133.3V36.5002" stroke="black" style="stroke:black;stroke-opacity:1;" stroke-width="1.76" stroke-miterlimit="20"/>
</g>
</g>
<g id="uy-a_6">
<g id="Vector_18">
<path d="M155.908 118.988L159.02 103.432C203.407 110.484 198.636 84.1419 222.489 96.3796C200.503 95.9647 212.533 110.069 179.969 123.551" fill="#FCD116" style="fill:#FCD116;fill:color(display-p3 0.9882 0.8196 0.0863);fill-opacity:1;"/>
<path d="M155.908 118.988L159.02 103.432C203.407 110.484 198.636 84.1419 222.489 96.3796C200.503 95.9647 212.533 110.069 179.969 123.551" stroke="black" style="stroke:black;stroke-opacity:1;" stroke-width="1.76" stroke-miterlimit="20" stroke-linecap="square"/>
</g>
<path id="Vector_19" d="M163.168 120.855C200.503 111.729 204.237 89.7423 222.697 96.1723" stroke="black" style="stroke:black;stroke-opacity:1;" stroke-width="1.76" stroke-miterlimit="20"/>
<g id="Vector_20">
<path d="M133.3 133.3L120.855 120.855L201.748 64.8522L145.745 145.745L133.3 133.3L201.748 64.8522Z" fill="#FCD116" style="fill:#FCD116;fill:color(display-p3 0.9882 0.8196 0.0863);fill-opacity:1;"/>
<path d="M133.3 133.3L120.855 120.855L201.748 64.8522M133.3 133.3L145.745 145.745L201.748 64.8522M133.3 133.3L201.748 64.8522" stroke="black" style="stroke:black;stroke-opacity:1;" stroke-width="1.76" stroke-miterlimit="20"/>
</g>
</g>
</g>
<g id="uy-b_4">
<g id="uy-a_7">
<g id="Vector_21">
<path d="M159.406 139.166L172.606 130.366C199.006 166.74 214.26 144.74 222.473 170.26C207.22 154.42 205.753 172.9 173.193 159.406" fill="#FCD116" style="fill:#FCD116;fill:color(display-p3 0.9882 0.8196 0.0863);fill-opacity:1;"/>
<path d="M159.406 139.166L172.606 130.366C199.006 166.74 214.26 144.74 222.473 170.26C207.22 154.42 205.753 172.9 173.193 159.406" stroke="black" style="stroke:black;stroke-opacity:1;" stroke-width="1.76" stroke-miterlimit="20" stroke-linecap="square"/>
</g>
<path id="Vector_22" d="M163.22 145.62C196.073 165.566 214.26 152.66 222.766 170.26" stroke="black" style="stroke:black;stroke-opacity:1;" stroke-width="1.76" stroke-miterlimit="20"/>
<g id="Vector_23">
<path d="M133.3 133.3V115.7L230.1 133.3L133.3 150.9V133.3H230.1Z" fill="#FCD116" style="fill:#FCD116;fill:color(display-p3 0.9882 0.8196 0.0863);fill-opacity:1;"/>
<path d="M133.3 133.3V115.7L230.1 133.3M133.3 133.3V150.9L230.1 133.3M133.3 133.3H230.1" stroke="black" style="stroke:black;stroke-opacity:1;" stroke-width="1.76" stroke-miterlimit="20"/>
</g>
</g>
<g id="uy-a_8">
<g id="Vector_24">
<path d="M147.611 155.908L163.168 159.02C156.115 203.407 182.457 198.636 170.22 222.489C170.635 200.503 156.53 212.533 143.048 179.969" fill="#FCD116" style="fill:#FCD116;fill:color(display-p3 0.9882 0.8196 0.0863);fill-opacity:1;"/>
<path d="M147.611 155.908L163.168 159.02C156.115 203.407 182.457 198.636 170.22 222.489C170.635 200.503 156.53 212.533 143.048 179.969" stroke="black" style="stroke:black;stroke-opacity:1;" stroke-width="1.76" stroke-miterlimit="20" stroke-linecap="square"/>
</g>
<path id="Vector_25" d="M145.745 163.168C154.871 200.503 176.858 204.237 170.428 222.697" stroke="black" style="stroke:black;stroke-opacity:1;" stroke-width="1.76" stroke-miterlimit="20"/>
<g id="Vector_26">
<path d="M133.3 133.3L145.745 120.855L201.747 201.748L120.854 145.745L133.3 133.3L201.747 201.748Z" fill="#FCD116" style="fill:#FCD116;fill:color(display-p3 0.9882 0.8196 0.0863);fill-opacity:1;"/>
<path d="M133.3 133.3L145.745 120.855L201.747 201.748M133.3 133.3L120.854 145.745L201.747 201.748M133.3 133.3L201.747 201.748" stroke="black" style="stroke:black;stroke-opacity:1;" stroke-width="1.76" stroke-miterlimit="20"/>
</g>
</g>
</g>
</g>
<path id="Vector_27" d="M133.3 165.566C151.12 165.566 165.566 151.12 165.566 133.3C165.566 115.479 151.12 101.033 133.3 101.033C115.479 101.033 101.033 115.479 101.033 133.3C101.033 151.12 115.479 165.566 133.3 165.566Z" fill="#FCD116" stroke="black" style="fill:#FCD116;fill:color(display-p3 0.9882 0.8196 0.0863);fill-opacity:1;stroke:black;stroke-opacity:1;" stroke-width="1.76" stroke-miterlimit="20"/>
</g>
<g id="Group_2">
<g id="uy-d">
<path id="Vector_28" d="M157.059 120.393C155.006 122.74 153.833 118.633 146.499 118.633C139.166 118.633 137.993 123.033 136.82 122.153C135.646 121.273 142.98 115.993 145.326 115.7C147.673 115.407 154.419 117.753 157.059 120.393ZM148.553 123.033C150.606 124.793 148.846 128.607 146.793 128.607C144.739 128.607 140.926 125.087 142.686 122.74" fill="black" style="fill:black;fill-opacity:1;"/>
<path id="Vector_29" d="M138.873 125.673C139.166 122.153 142.1 121.567 146.793 121.567C151.486 121.567 153.54 125.087 155.3 125.967C153.246 125.967 151.486 123.033 146.793 123.033C142.1 123.033 142.1 123.033 138.873 125.967M139.753 126.553C140.926 124.793 142.393 128.313 145.62 128.313C148.846 128.313 150.606 127.433 152.66 125.967C154.713 124.5 149.726 129.487 146.5 129.487C143.273 129.487 138.873 127.727 139.753 126.553Z" fill="black" style="fill:black;fill-opacity:1;"/>
<path id="Vector_30" d="M149.726 128.313C153.539 126.26 151.193 123.327 149.726 122.74C150.313 123.327 152.659 126.26 149.726 128.313ZM133.3 145.913C135.06 145.913 135.646 145.326 137.993 145.326C140.34 145.326 145.913 148.553 149.139 147.38C142.393 150.02 145.033 148.26 133.3 148.26H131.833M150.313 150.02C149.139 147.966 149.433 148.553 147.086 145.326C149.433 147.086 150.019 147.966 150.313 150.02ZM133.3 152.953C140.633 152.953 139.46 151.486 149.139 147.38C142.1 148.26 140.633 150.606 133.3 150.606H131.833M133.3 142.1C135.353 142.1 135.94 140.633 138.286 140.633C140.633 140.633 143.86 141.513 145.326 142.686C145.62 142.98 144.446 140.34 142.1 140.046C139.753 139.753 140.633 135.94 137.993 135.353C137.993 136.526 138.873 136.233 139.166 137.993C139.166 139.46 136.526 139.46 135.94 137.993C136.526 140.34 134.766 140.34 133.3 140.34" fill="black" style="fill:black;fill-opacity:1;"/>
</g>
<g id="uy-d_2">
<path id="Vector_31" d="M109.54 120.393C111.594 122.74 112.767 118.633 120.1 118.633C127.433 118.633 128.607 123.033 129.78 122.153C130.953 121.273 123.62 115.993 121.273 115.7C118.927 115.407 112.18 117.753 109.54 120.393ZM118.047 123.033C115.994 124.793 117.754 128.607 119.807 128.607C121.86 128.607 125.673 125.087 123.913 122.74" fill="black" style="fill:black;fill-opacity:1;"/>
<path id="Vector_32" d="M127.727 125.673C127.433 122.153 124.5 121.567 119.807 121.567C115.113 121.567 113.06 125.087 111.3 125.967C113.353 125.967 115.113 123.033 119.807 123.033C124.5 123.033 124.5 123.033 127.727 125.967M126.847 126.553C125.673 124.793 124.207 128.313 120.98 128.313C117.753 128.313 115.993 127.433 113.94 125.967C111.887 124.5 116.873 129.487 120.1 129.487C123.327 129.487 127.727 127.727 126.847 126.553Z" fill="black" style="fill:black;fill-opacity:1;"/>
<path id="Vector_33" d="M116.873 128.313C113.06 126.26 115.407 123.327 116.873 122.74C116.287 123.327 113.94 126.26 116.873 128.313ZM133.3 145.913C131.54 145.913 130.953 145.326 128.607 145.326C126.26 145.326 120.687 148.553 117.46 147.38C124.207 150.02 121.567 148.26 133.3 148.26H134.767M116.287 150.02C117.46 147.966 117.167 148.553 119.513 145.326C117.167 147.086 116.58 147.966 116.287 150.02ZM133.3 152.953C125.967 152.953 127.14 151.486 117.46 147.38C124.5 148.26 125.967 150.606 133.3 150.606H134.767M133.3 142.1C131.247 142.1 130.66 140.633 128.313 140.633C125.967 140.633 122.74 141.513 121.273 142.686C120.98 142.98 122.153 140.34 124.5 140.046C126.847 139.753 125.967 135.94 128.607 135.353C128.607 136.526 127.727 136.233 127.433 137.993C127.433 139.46 130.073 139.46 130.66 137.993C130.073 140.34 131.833 140.34 133.3 140.34" fill="black" style="fill:black;fill-opacity:1;"/>
</g>
<path id="Vector_34" d="M133.3 155.593C131.833 155.593 128.02 156.473 133.3 156.473C138.579 156.473 134.766 155.593 133.3 155.593Z" fill="black" style="fill:black;fill-opacity:1;"/>
</g>
</g>
<defs>
<clipPath id="clip0_2194_10907">
<rect width="640" height="480" fill="white" style="fill:white;fill-opacity:1;"/>
</clipPath>
</defs>
</svg>
