<svg width="640" height="480" viewBox="0 0 640 480" fill="none" xmlns="http://www.w3.org/2000/svg">
<g id="uz" clip-path="url(#clip0_2194_10960)">
<path id="Vector" d="M0 320H640V480H0V320Z" fill="#1EB53A" style="fill:#1EB53A;fill:color(display-p3 0.1176 0.7098 0.2275);fill-opacity:1;"/>
<path id="Vector_2" d="M0 0H640V160H0V0Z" fill="#0099B5" style="fill:#0099B5;fill:color(display-p3 0.0000 0.6000 0.7098);fill-opacity:1;"/>
<path id="Vector_3" d="M0 153.6H640V326.4H0V153.6Z" fill="#CE1126" style="fill:#CE1126;fill:color(display-p3 0.8078 0.0667 0.1490);fill-opacity:1;"/>
<path id="Vector_4" d="M0 163.2H640V316.8H0V163.2Z" fill="white" style="fill:white;fill-opacity:1;"/>
<path id="Vector_5" d="M134.4 134.4C166.211 134.4 192 108.612 192 76.8C192 44.9884 166.211 19.2 134.4 19.2C102.588 19.2 76.7998 44.9884 76.7998 76.8C76.7998 108.612 102.588 134.4 134.4 134.4Z" fill="white" style="fill:white;fill-opacity:1;"/>
<path id="Vector_6" d="M153.6 134.4C185.412 134.4 211.2 108.612 211.2 76.8C211.2 44.9884 185.412 19.2 153.6 19.2C121.788 19.2 96 44.9884 96 76.8C96 108.612 121.788 134.4 153.6 134.4Z" fill="#0099B5" style="fill:#0099B5;fill:color(display-p3 0.0000 0.6000 0.7098);fill-opacity:1;"/>
<g id="Group">
<g id="uz-e">
<g id="uz-d">
<g id="uz-c">
<g id="uz-b">
<path id="uz-a" d="M261.1 111.38L257.452 122.324L263.02 124.244" fill="white" style="fill:white;fill-opacity:1;"/>
<path id="uz-a_2" d="M261.1 111.38L264.748 122.324L259.18 124.244" fill="white" style="fill:white;fill-opacity:1;"/>
</g>
<g id="uz-b_2">
<path id="uz-a_3" d="M272.056 119.34L260.521 119.252L260.415 125.141" fill="white" style="fill:white;fill-opacity:1;"/>
<path id="uz-a_4" d="M272.056 119.34L262.775 126.191L259.229 121.489" fill="white" style="fill:white;fill-opacity:1;"/>
</g>
</g>
<g id="uz-b_3">
<path id="uz-a_5" d="M250.144 119.34L259.425 126.191L262.972 121.489" fill="white" style="fill:white;fill-opacity:1;"/>
<path id="uz-a_6" d="M250.144 119.34L261.679 119.252L261.785 125.141" fill="white" style="fill:white;fill-opacity:1;"/>
</g>
<g id="uz-c_2">
<g id="uz-b_4">
<path id="uz-a_7" d="M267.871 132.22L264.39 121.222L258.757 122.941" fill="white" style="fill:white;fill-opacity:1;"/>
<path id="uz-a_8" d="M267.871 132.22L258.487 125.51L261.863 120.684" fill="white" style="fill:white;fill-opacity:1;"/>
</g>
<g id="uz-b_5">
<path id="uz-a_9" d="M254.329 132.22L263.713 125.51L260.337 120.684" fill="white" style="fill:white;fill-opacity:1;"/>
<path id="uz-a_10" d="M254.329 132.22L257.811 121.222L263.444 122.941" fill="white" style="fill:white;fill-opacity:1;"/>
</g>
</g>
</g>
<g id="uz-d_2">
<g id="uz-c_3">
<g id="uz-b_6">
<path id="uz-a_11" d="M261.1 65.3L257.452 76.244L263.02 78.164" fill="white" style="fill:white;fill-opacity:1;"/>
<path id="uz-a_12" d="M261.1 65.3L264.748 76.244L259.18 78.164" fill="white" style="fill:white;fill-opacity:1;"/>
</g>
<g id="uz-b_7">
<path id="uz-a_13" d="M272.056 73.2602L260.521 73.1727L260.415 79.0614" fill="white" style="fill:white;fill-opacity:1;"/>
<path id="uz-a_14" d="M272.056 73.2603L262.775 80.1116L259.229 75.4094" fill="white" style="fill:white;fill-opacity:1;"/>
</g>
</g>
<g id="uz-b_8">
<path id="uz-a_15" d="M250.144 73.2603L259.425 80.1116L262.972 75.4094" fill="white" style="fill:white;fill-opacity:1;"/>
<path id="uz-a_16" d="M250.144 73.2602L261.679 73.1727L261.785 79.0614" fill="white" style="fill:white;fill-opacity:1;"/>
</g>
<g id="uz-c_4">
<g id="uz-b_9">
<path id="uz-a_17" d="M267.871 86.1398L264.39 75.1417L258.757 76.8612" fill="white" style="fill:white;fill-opacity:1;"/>
<path id="uz-a_18" d="M267.871 86.1399L258.487 79.4303L261.863 74.6042" fill="white" style="fill:white;fill-opacity:1;"/>
</g>
<g id="uz-b_10">
<path id="uz-a_19" d="M254.329 86.1399L263.713 79.4303L260.337 74.6042" fill="white" style="fill:white;fill-opacity:1;"/>
<path id="uz-a_20" d="M254.329 86.1398L257.811 75.1417L263.444 76.8612" fill="white" style="fill:white;fill-opacity:1;"/>
</g>
</g>
</g>
<g id="uz-d_3">
<g id="uz-c_5">
<g id="uz-b_11">
<path id="uz-a_21" d="M261.1 19.22L257.452 30.164L263.02 32.084" fill="white" style="fill:white;fill-opacity:1;"/>
<path id="uz-a_22" d="M261.1 19.22L264.748 30.164L259.18 32.084" fill="white" style="fill:white;fill-opacity:1;"/>
</g>
<g id="uz-b_12">
<path id="uz-a_23" d="M272.056 27.1801L260.521 27.0926L260.415 32.9814" fill="white" style="fill:white;fill-opacity:1;"/>
<path id="uz-a_24" d="M272.056 27.1802L262.775 34.0315L259.229 29.3294" fill="white" style="fill:white;fill-opacity:1;"/>
</g>
</g>
<g id="uz-b_13">
<path id="uz-a_25" d="M250.144 27.1802L259.425 34.0315L262.972 29.3294" fill="white" style="fill:white;fill-opacity:1;"/>
<path id="uz-a_26" d="M250.144 27.1801L261.679 27.0926L261.785 32.9814" fill="white" style="fill:white;fill-opacity:1;"/>
</g>
<g id="uz-c_6">
<g id="uz-b_14">
<path id="uz-a_27" d="M267.871 40.0598L264.39 29.0616L258.757 30.7811" fill="white" style="fill:white;fill-opacity:1;"/>
<path id="uz-a_28" d="M267.871 40.0599L258.487 33.3502L261.863 28.5241" fill="white" style="fill:white;fill-opacity:1;"/>
</g>
<g id="uz-b_15">
<path id="uz-a_29" d="M254.329 40.0599L263.713 33.3502L260.337 28.5241" fill="white" style="fill:white;fill-opacity:1;"/>
<path id="uz-a_30" d="M254.329 40.0598L257.81 29.0616L263.443 30.7811" fill="white" style="fill:white;fill-opacity:1;"/>
</g>
</g>
</g>
</g>
<g id="uz-e_2">
<g id="uz-d_4">
<g id="uz-c_7">
<g id="uz-b_16">
<path id="uz-a_31" d="M307.18 111.38L303.532 122.324L309.1 124.244" fill="white" style="fill:white;fill-opacity:1;"/>
<path id="uz-a_32" d="M307.18 111.38L310.828 122.324L305.26 124.244" fill="white" style="fill:white;fill-opacity:1;"/>
</g>
<g id="uz-b_17">
<path id="uz-a_33" d="M318.137 119.34L306.601 119.252L306.495 125.141" fill="white" style="fill:white;fill-opacity:1;"/>
<path id="uz-a_34" d="M318.136 119.34L308.855 126.191L305.309 121.489" fill="white" style="fill:white;fill-opacity:1;"/>
</g>
</g>
<g id="uz-b_18">
<path id="uz-a_35" d="M296.224 119.34L305.505 126.191L309.052 121.489" fill="white" style="fill:white;fill-opacity:1;"/>
<path id="uz-a_36" d="M296.224 119.34L307.759 119.252L307.865 125.141" fill="white" style="fill:white;fill-opacity:1;"/>
</g>
<g id="uz-c_8">
<g id="uz-b_19">
<path id="uz-a_37" d="M313.952 132.22L310.47 121.222L304.837 122.941" fill="white" style="fill:white;fill-opacity:1;"/>
<path id="uz-a_38" d="M313.951 132.22L304.567 125.51L307.943 120.684" fill="white" style="fill:white;fill-opacity:1;"/>
</g>
<g id="uz-b_20">
<path id="uz-a_39" d="M300.409 132.22L309.793 125.51L306.417 120.684" fill="white" style="fill:white;fill-opacity:1;"/>
<path id="uz-a_40" d="M300.409 132.22L303.891 121.222L309.524 122.941" fill="white" style="fill:white;fill-opacity:1;"/>
</g>
</g>
</g>
<g id="uz-d_5">
<g id="uz-c_9">
<g id="uz-b_21">
<path id="uz-a_41" d="M307.18 65.3L303.532 76.244L309.1 78.164" fill="white" style="fill:white;fill-opacity:1;"/>
<path id="uz-a_42" d="M307.18 65.3L310.828 76.244L305.26 78.164" fill="white" style="fill:white;fill-opacity:1;"/>
</g>
<g id="uz-b_22">
<path id="uz-a_43" d="M318.137 73.2602L306.601 73.1727L306.495 79.0614" fill="white" style="fill:white;fill-opacity:1;"/>
<path id="uz-a_44" d="M318.136 73.2603L308.855 80.1116L305.309 75.4094" fill="white" style="fill:white;fill-opacity:1;"/>
</g>
</g>
<g id="uz-b_23">
<path id="uz-a_45" d="M296.224 73.2603L305.505 80.1116L309.052 75.4094" fill="white" style="fill:white;fill-opacity:1;"/>
<path id="uz-a_46" d="M296.224 73.2602L307.759 73.1727L307.865 79.0614" fill="white" style="fill:white;fill-opacity:1;"/>
</g>
<g id="uz-c_10">
<g id="uz-b_24">
<path id="uz-a_47" d="M313.952 86.1398L310.47 75.1417L304.837 76.8612" fill="white" style="fill:white;fill-opacity:1;"/>
<path id="uz-a_48" d="M313.951 86.1399L304.567 79.4303L307.943 74.6042" fill="white" style="fill:white;fill-opacity:1;"/>
</g>
<g id="uz-b_25">
<path id="uz-a_49" d="M300.409 86.1399L309.793 79.4303L306.417 74.6042" fill="white" style="fill:white;fill-opacity:1;"/>
<path id="uz-a_50" d="M300.409 86.1398L303.891 75.1417L309.524 76.8612" fill="white" style="fill:white;fill-opacity:1;"/>
</g>
</g>
</g>
<g id="uz-d_6">
<g id="uz-c_11">
<g id="uz-b_26">
<path id="uz-a_51" d="M307.18 19.22L303.532 30.164L309.1 32.084" fill="white" style="fill:white;fill-opacity:1;"/>
<path id="uz-a_52" d="M307.18 19.22L310.828 30.164L305.26 32.084" fill="white" style="fill:white;fill-opacity:1;"/>
</g>
<g id="uz-b_27">
<path id="uz-a_53" d="M318.137 27.1801L306.601 27.0926L306.495 32.9814" fill="white" style="fill:white;fill-opacity:1;"/>
<path id="uz-a_54" d="M318.136 27.1802L308.855 34.0315L305.309 29.3294" fill="white" style="fill:white;fill-opacity:1;"/>
</g>
</g>
<g id="uz-b_28">
<path id="uz-a_55" d="M296.224 27.1802L305.505 34.0315L309.052 29.3294" fill="white" style="fill:white;fill-opacity:1;"/>
<path id="uz-a_56" d="M296.224 27.1801L307.759 27.0926L307.865 32.9814" fill="white" style="fill:white;fill-opacity:1;"/>
</g>
<g id="uz-c_12">
<g id="uz-b_29">
<path id="uz-a_57" d="M313.952 40.0598L310.47 29.0616L304.837 30.7811" fill="white" style="fill:white;fill-opacity:1;"/>
<path id="uz-a_58" d="M313.951 40.0599L304.567 33.3502L307.943 28.5241" fill="white" style="fill:white;fill-opacity:1;"/>
</g>
<g id="uz-b_30">
<path id="uz-a_59" d="M300.409 40.0599L309.793 33.3502L306.417 28.5241" fill="white" style="fill:white;fill-opacity:1;"/>
<path id="uz-a_60" d="M300.409 40.0598L303.89 29.0616L309.523 30.7811" fill="white" style="fill:white;fill-opacity:1;"/>
</g>
</g>
</g>
</g>
<g id="uz-e_3">
<g id="uz-d_7">
<g id="uz-c_13">
<g id="uz-b_31">
<path id="uz-a_61" d="M353.26 111.38L349.612 122.324L355.18 124.244" fill="white" style="fill:white;fill-opacity:1;"/>
<path id="uz-a_62" d="M353.26 111.38L356.908 122.324L351.34 124.244" fill="white" style="fill:white;fill-opacity:1;"/>
</g>
<g id="uz-b_32">
<path id="uz-a_63" d="M364.216 119.34L352.681 119.252L352.575 125.141" fill="white" style="fill:white;fill-opacity:1;"/>
<path id="uz-a_64" d="M364.216 119.34L354.935 126.191L351.388 121.489" fill="white" style="fill:white;fill-opacity:1;"/>
</g>
</g>
<g id="uz-b_33">
<path id="uz-a_65" d="M342.304 119.34L351.585 126.191L355.131 121.489" fill="white" style="fill:white;fill-opacity:1;"/>
<path id="uz-a_66" d="M342.303 119.34L353.839 119.252L353.944 125.141" fill="white" style="fill:white;fill-opacity:1;"/>
</g>
<g id="uz-c_14">
<g id="uz-b_34">
<path id="uz-a_67" d="M360.031 132.22L356.55 121.222L350.917 122.941" fill="white" style="fill:white;fill-opacity:1;"/>
<path id="uz-a_68" d="M360.031 132.22L350.647 125.51L354.023 120.684" fill="white" style="fill:white;fill-opacity:1;"/>
</g>
<g id="uz-b_35">
<path id="uz-a_69" d="M346.489 132.22L355.873 125.51L352.497 120.684" fill="white" style="fill:white;fill-opacity:1;"/>
<path id="uz-a_70" d="M346.489 132.22L349.97 121.222L355.603 122.941" fill="white" style="fill:white;fill-opacity:1;"/>
</g>
</g>
</g>
<g id="uz-d_8">
<g id="uz-c_15">
<g id="uz-b_36">
<path id="uz-a_71" d="M353.26 65.3L349.612 76.244L355.18 78.164" fill="white" style="fill:white;fill-opacity:1;"/>
<path id="uz-a_72" d="M353.26 65.3L356.908 76.244L351.34 78.164" fill="white" style="fill:white;fill-opacity:1;"/>
</g>
<g id="uz-b_37">
<path id="uz-a_73" d="M364.216 73.2602L352.681 73.1727L352.575 79.0614" fill="white" style="fill:white;fill-opacity:1;"/>
<path id="uz-a_74" d="M364.216 73.2603L354.935 80.1116L351.388 75.4094" fill="white" style="fill:white;fill-opacity:1;"/>
</g>
</g>
<g id="uz-b_38">
<path id="uz-a_75" d="M342.304 73.2603L351.585 80.1116L355.131 75.4094" fill="white" style="fill:white;fill-opacity:1;"/>
<path id="uz-a_76" d="M342.303 73.2602L353.839 73.1727L353.944 79.0614" fill="white" style="fill:white;fill-opacity:1;"/>
</g>
<g id="uz-c_16">
<g id="uz-b_39">
<path id="uz-a_77" d="M360.031 86.1398L356.55 75.1417L350.917 76.8612" fill="white" style="fill:white;fill-opacity:1;"/>
<path id="uz-a_78" d="M360.031 86.1399L350.647 79.4303L354.023 74.6042" fill="white" style="fill:white;fill-opacity:1;"/>
</g>
<g id="uz-b_40">
<path id="uz-a_79" d="M346.489 86.1399L355.873 79.4303L352.497 74.6042" fill="white" style="fill:white;fill-opacity:1;"/>
<path id="uz-a_80" d="M346.489 86.1398L349.97 75.1417L355.603 76.8612" fill="white" style="fill:white;fill-opacity:1;"/>
</g>
</g>
</g>
<g id="uz-d_9">
<g id="uz-c_17">
<g id="uz-b_41">
<path id="uz-a_81" d="M353.26 19.22L349.612 30.164L355.18 32.084" fill="white" style="fill:white;fill-opacity:1;"/>
<path id="uz-a_82" d="M353.26 19.22L356.908 30.164L351.34 32.084" fill="white" style="fill:white;fill-opacity:1;"/>
</g>
<g id="uz-b_42">
<path id="uz-a_83" d="M364.216 27.1801L352.681 27.0926L352.575 32.9814" fill="white" style="fill:white;fill-opacity:1;"/>
<path id="uz-a_84" d="M364.216 27.1802L354.935 34.0315L351.388 29.3294" fill="white" style="fill:white;fill-opacity:1;"/>
</g>
</g>
<g id="uz-b_43">
<path id="uz-a_85" d="M342.304 27.1802L351.585 34.0315L355.131 29.3294" fill="white" style="fill:white;fill-opacity:1;"/>
<path id="uz-a_86" d="M342.303 27.1801L353.839 27.0926L353.944 32.9814" fill="white" style="fill:white;fill-opacity:1;"/>
</g>
<g id="uz-c_18">
<g id="uz-b_44">
<path id="uz-a_87" d="M360.031 40.0598L356.55 29.0616L350.917 30.7811" fill="white" style="fill:white;fill-opacity:1;"/>
<path id="uz-a_88" d="M360.031 40.0599L350.647 33.3502L354.023 28.5241" fill="white" style="fill:white;fill-opacity:1;"/>
</g>
<g id="uz-b_45">
<path id="uz-a_89" d="M346.489 40.0599L355.873 33.3502L352.497 28.5241" fill="white" style="fill:white;fill-opacity:1;"/>
<path id="uz-a_90" d="M346.488 40.0598L349.97 29.0616L355.603 30.7811" fill="white" style="fill:white;fill-opacity:1;"/>
</g>
</g>
</g>
</g>
<g id="uz-d_10">
<g id="uz-c_19">
<g id="uz-b_46">
<path id="uz-a_91" d="M168.94 111.38L165.292 122.324L170.86 124.244" fill="white" style="fill:white;fill-opacity:1;"/>
<path id="uz-a_92" d="M168.94 111.38L172.588 122.324L167.02 124.244" fill="white" style="fill:white;fill-opacity:1;"/>
</g>
<g id="uz-b_47">
<path id="uz-a_93" d="M179.896 119.34L168.361 119.252L168.255 125.141" fill="white" style="fill:white;fill-opacity:1;"/>
<path id="uz-a_94" d="M179.896 119.34L170.615 126.191L167.068 121.489" fill="white" style="fill:white;fill-opacity:1;"/>
</g>
</g>
<g id="uz-b_48">
<path id="uz-a_95" d="M157.984 119.34L167.265 126.191L170.811 121.489" fill="white" style="fill:white;fill-opacity:1;"/>
<path id="uz-a_96" d="M157.984 119.34L169.519 119.252L169.625 125.141" fill="white" style="fill:white;fill-opacity:1;"/>
</g>
<g id="uz-c_20">
<g id="uz-b_49">
<path id="uz-a_97" d="M175.711 132.22L172.23 121.222L166.597 122.941" fill="white" style="fill:white;fill-opacity:1;"/>
<path id="uz-a_98" d="M175.711 132.22L166.327 125.51L169.703 120.684" fill="white" style="fill:white;fill-opacity:1;"/>
</g>
<g id="uz-b_50">
<path id="uz-a_99" d="M162.169 132.22L171.553 125.51L168.177 120.684" fill="white" style="fill:white;fill-opacity:1;"/>
<path id="uz-a_100" d="M162.169 132.22L165.65 121.222L171.284 122.941" fill="white" style="fill:white;fill-opacity:1;"/>
</g>
</g>
</g>
<g id="uz-d_11">
<g id="uz-c_21">
<g id="uz-b_51">
<path id="uz-a_101" d="M215.02 111.38L211.372 122.324L216.94 124.244" fill="white" style="fill:white;fill-opacity:1;"/>
<path id="uz-a_102" d="M215.02 111.38L218.668 122.324L213.1 124.244" fill="white" style="fill:white;fill-opacity:1;"/>
</g>
<g id="uz-b_52">
<path id="uz-a_103" d="M225.976 119.34L214.441 119.252L214.335 125.141" fill="white" style="fill:white;fill-opacity:1;"/>
<path id="uz-a_104" d="M225.976 119.34L216.695 126.191L213.149 121.489" fill="white" style="fill:white;fill-opacity:1;"/>
</g>
</g>
<g id="uz-b_53">
<path id="uz-a_105" d="M204.064 119.34L213.345 126.191L216.892 121.489" fill="white" style="fill:white;fill-opacity:1;"/>
<path id="uz-a_106" d="M204.064 119.34L215.599 119.252L215.705 125.141" fill="white" style="fill:white;fill-opacity:1;"/>
</g>
<g id="uz-c_22">
<g id="uz-b_54">
<path id="uz-a_107" d="M221.791 132.22L218.31 121.222L212.677 122.941" fill="white" style="fill:white;fill-opacity:1;"/>
<path id="uz-a_108" d="M221.791 132.22L212.407 125.51L215.783 120.684" fill="white" style="fill:white;fill-opacity:1;"/>
</g>
<g id="uz-b_55">
<path id="uz-a_109" d="M208.249 132.22L217.633 125.51L214.257 120.684" fill="white" style="fill:white;fill-opacity:1;"/>
<path id="uz-a_110" d="M208.249 132.22L211.731 121.222L217.364 122.941" fill="white" style="fill:white;fill-opacity:1;"/>
</g>
</g>
</g>
<g id="uz-d_12">
<g id="uz-c_23">
<g id="uz-b_56">
<path id="uz-a_111" d="M215.02 65.3L211.372 76.244L216.94 78.164" fill="white" style="fill:white;fill-opacity:1;"/>
<path id="uz-a_112" d="M215.02 65.3L218.668 76.244L213.1 78.164" fill="white" style="fill:white;fill-opacity:1;"/>
</g>
<g id="uz-b_57">
<path id="uz-a_113" d="M225.976 73.2602L214.441 73.1727L214.335 79.0614" fill="white" style="fill:white;fill-opacity:1;"/>
<path id="uz-a_114" d="M225.976 73.2603L216.695 80.1116L213.149 75.4094" fill="white" style="fill:white;fill-opacity:1;"/>
</g>
</g>
<g id="uz-b_58">
<path id="uz-a_115" d="M204.064 73.2603L213.345 80.1116L216.892 75.4094" fill="white" style="fill:white;fill-opacity:1;"/>
<path id="uz-a_116" d="M204.064 73.2602L215.599 73.1727L215.705 79.0614" fill="white" style="fill:white;fill-opacity:1;"/>
</g>
<g id="uz-c_24">
<g id="uz-b_59">
<path id="uz-a_117" d="M221.791 86.1398L218.31 75.1417L212.677 76.8612" fill="white" style="fill:white;fill-opacity:1;"/>
<path id="uz-a_118" d="M221.791 86.1399L212.407 79.4303L215.783 74.6042" fill="white" style="fill:white;fill-opacity:1;"/>
</g>
<g id="uz-b_60">
<path id="uz-a_119" d="M208.249 86.1399L217.633 79.4303L214.257 74.6042" fill="white" style="fill:white;fill-opacity:1;"/>
<path id="uz-a_120" d="M208.249 86.1398L211.731 75.1417L217.364 76.8612" fill="white" style="fill:white;fill-opacity:1;"/>
</g>
</g>
</g>
</g>
</g>
<defs>
<clipPath id="clip0_2194_10960">
<rect width="640" height="480" fill="white" style="fill:white;fill-opacity:1;"/>
</clipPath>
</defs>
</svg>
