<svg width="640" height="480" viewBox="0 0 640 480" fill="none" xmlns="http://www.w3.org/2000/svg">
<g id="ve" clip-path="url(#clip0_2194_11400)">
<path id="Vector" d="M0 0H640V480H0V0Z" fill="#CF142B" style="fill:#CF142B;fill:color(display-p3 0.8118 0.0784 0.1686);fill-opacity:1;"/>
<path id="Vector_2" d="M0 0H640V320H0V0Z" fill="#00247D" style="fill:#00247D;fill:color(display-p3 0.0000 0.1412 0.4902);fill-opacity:1;"/>
<path id="Vector_3" d="M0 0H640V160H0V0Z" fill="#FFCC00" style="fill:#FFCC00;fill:color(display-p3 1.0000 0.8000 0.0000);fill-opacity:1;"/>
<g id="ve-f">
<g id="ve-e">
<g id="ve-d">
<g id="ve-c">
<g id="ve-b">
<path id="ve-a" d="M348.478 174.492L339.235 192.358L349.64 197.848L348.478 174.492Z" fill="white" style="fill:white;fill-opacity:1;"/>
<path id="Vector_4" d="M348.478 174.492L351.053 194.442L339.398 196.042L348.478 174.492Z" fill="white" style="fill:white;fill-opacity:1;"/>
</g>
<g id="ve-b_2">
<path id="ve-a_2" d="M364.811 191.404L344.963 188.135L342.956 199.727L364.811 191.404Z" fill="white" style="fill:white;fill-opacity:1;"/>
<path id="Vector_5" d="M364.811 191.405L346.633 200.018L341.509 189.428L364.811 191.405Z" fill="white" style="fill:white;fill-opacity:1;"/>
</g>
</g>
<g id="ve-b_3">
<path id="ve-a_3" d="M327.346 184.799L341.482 199.11L349.919 190.911L327.346 184.799Z" fill="white" style="fill:white;fill-opacity:1;"/>
<path id="Vector_6" d="M327.346 184.799L347.116 188.515L345.036 200.094L327.346 184.799Z" fill="white" style="fill:white;fill-opacity:1;"/>
</g>
<g id="ve-c_2">
<g id="ve-b_4">
<path id="ve-a_4" d="M353.773 212.164L350.749 192.277L339.104 193.951L353.773 212.164Z" fill="white" style="fill:white;fill-opacity:1;"/>
<path id="Vector_7" d="M353.773 212.164L339.963 197.537L348.452 189.392L353.773 212.164Z" fill="white" style="fill:white;fill-opacity:1;"/>
</g>
<g id="ve-b_5">
<path id="ve-a_5" d="M330.619 208.081L348.598 199.06L343.407 188.503L330.619 208.081Z" fill="white" style="fill:white;fill-opacity:1;"/>
<path id="Vector_8" d="M330.619 208.082L340.262 190.428L350.632 195.984L330.619 208.082Z" fill="white" style="fill:white;fill-opacity:1;"/>
</g>
</g>
</g>
<g id="ve-d_2">
<g id="ve-c_3">
<g id="ve-b_6">
<path id="ve-a_6" d="M402 193.972L387.204 207.599L395.103 216.317L402 193.972Z" fill="white" style="fill:white;fill-opacity:1;"/>
<path id="Vector_9" d="M402 193.972L397.596 213.599L386.097 211.117L402 193.972Z" fill="white" style="fill:white;fill-opacity:1;"/>
</g>
<g id="ve-b_7">
<path id="ve-a_7" d="M411.563 215.45L394.03 205.59L388.18 215.796L411.563 215.45Z" fill="white" style="fill:white;fill-opacity:1;"/>
<path id="Vector_10" d="M411.563 215.45L391.535 217.327L390.342 205.624L411.563 215.45Z" fill="white" style="fill:white;fill-opacity:1;"/>
</g>
</g>
<g id="ve-b_8">
<path id="ve-a_8" d="M378.617 196.43L387.006 214.713L397.738 209.894L378.617 196.43Z" fill="white" style="fill:white;fill-opacity:1;"/>
<path id="Vector_11" d="M378.617 196.429L395.923 206.683L390.009 216.853L378.617 196.429Z" fill="white" style="fill:white;fill-opacity:1;"/>
</g>
<g id="ve-c_4">
<g id="ve-b_9">
<path id="ve-a_9" d="M394.091 231.183L398.051 211.461L386.536 209.051L394.091 231.183Z" fill="white" style="fill:white;fill-opacity:1;"/>
<path id="Vector_12" d="M394.091 231.183L386.116 212.715L396.879 207.964L394.091 231.183Z" fill="white" style="fill:white;fill-opacity:1;"/>
</g>
<g id="ve-b_10">
<path id="ve-a_10" d="M373.729 219.427L393.71 217.099L392.443 205.403L373.729 219.427Z" fill="white" style="fill:white;fill-opacity:1;"/>
<path id="Vector_13" d="M373.729 219.427L388.829 206.136L396.673 214.904L373.729 219.427Z" fill="white" style="fill:white;fill-opacity:1;"/>
</g>
</g>
</g>
</g>
<g id="ve-e_2">
<g id="ve-d_3">
<g id="ve-c_5">
<g id="ve-b_11">
<path id="ve-a_11" d="M445.631 230.583L427.066 238.328L431.508 249.222L445.631 230.583Z" fill="white" style="fill:white;fill-opacity:1;"/>
<path id="Vector_14" d="M445.631 230.583L434.78 247.521L424.823 241.255L445.631 230.583Z" fill="white" style="fill:white;fill-opacity:1;"/>
</g>
<g id="ve-b_12">
<path id="ve-a_12" d="M447.271 254.037L434.168 238.774L425.18 246.365L447.271 254.037Z" fill="white" style="fill:white;fill-opacity:1;"/>
<path id="Vector_15" d="M447.271 254.037L427.809 248.951L430.691 237.545L447.271 254.037Z" fill="white" style="fill:white;fill-opacity:1;"/>
</g>
</g>
<g id="ve-b_13">
<path id="ve-a_13" d="M422.818 224.895L424.448 244.945L436.181 244.087L422.818 224.895Z" fill="white" style="fill:white;fill-opacity:1;"/>
<path id="Vector_16" d="M422.818 224.896L435.574 240.45L426.538 247.983L422.818 224.896Z" fill="white" style="fill:white;fill-opacity:1;"/>
</g>
<g id="ve-c_6">
<g id="ve-b_14">
<path id="ve-a_14" d="M425.472 262.845L435.939 245.667L425.942 239.464L425.472 262.845Z" fill="white" style="fill:white;fill-opacity:1;"/>
<path id="Vector_17" d="M425.472 262.845L424.295 242.764L436.033 241.98L425.472 262.845Z" fill="white" style="fill:white;fill-opacity:1;"/>
</g>
<g id="ve-b_15">
<path id="ve-a_15" d="M410.359 244.834L429.931 249.48L432.741 238.056L410.359 244.834Z" fill="white" style="fill:white;fill-opacity:1;"/>
<path id="Vector_18" d="M410.359 244.834L429.094 237.509L433.466 248.431L410.359 244.834Z" fill="white" style="fill:white;fill-opacity:1;"/>
</g>
</g>
</g>
<g id="ve-d_4">
<g id="ve-c_7">
<g id="ve-b_16">
<path id="ve-a_16" d="M474.11 279.909L454.015 280.837L454.463 292.593L474.11 279.909Z" fill="white" style="fill:white;fill-opacity:1;"/>
<path id="Vector_19" d="M474.11 279.909L458.12 292.114L450.906 282.82L474.11 279.909Z" fill="white" style="fill:white;fill-opacity:1;"/>
</g>
<g id="ve-b_17">
<path id="ve-a_17" d="M467.629 302.509L460.536 283.686L449.494 287.744L467.629 302.509Z" fill="white" style="fill:white;fill-opacity:1;"/>
<path id="Vector_20" d="M467.629 302.509L451.08 291.073L457.69 281.341L467.629 302.509Z" fill="white" style="fill:white;fill-opacity:1;"/>
</g>
</g>
<g id="ve-b_18">
<path id="ve-a_18" d="M454.618 266.761L449.292 286.159L460.61 289.366L454.618 266.761Z" fill="white" style="fill:white;fill-opacity:1;"/>
<path id="Vector_21" d="M454.618 266.761L461.284 285.74L450.217 289.729L454.618 266.761Z" fill="white" style="fill:white;fill-opacity:1;"/>
</g>
<g id="ve-c_8">
<g id="ve-b_19">
<path id="ve-a_19" d="M444.132 303.33L459.843 290.768L452.57 281.52L444.132 303.33Z" fill="white" style="fill:white;fill-opacity:1;"/>
<path id="Vector_22" d="M444.132 303.33L449.894 284.057L461.192 287.336L444.132 303.33Z" fill="white" style="fill:white;fill-opacity:1;"/>
</g>
<g id="ve-b_20">
<path id="ve-a_20" d="M436.09 281.236L452.893 292.296L459.441 282.522L436.09 281.236Z" fill="white" style="fill:white;fill-opacity:1;"/>
<path id="Vector_23" d="M436.09 281.236L456.2 280.761L456.574 292.519L436.09 281.236Z" fill="white" style="fill:white;fill-opacity:1;"/>
</g>
</g>
</g>
</g>
</g>
<g id="ve-f_2">
<g id="ve-e_3">
<g id="ve-d_5">
<g id="ve-c_9">
<g id="ve-b_21">
<path id="ve-a_21" d="M165.89 279.909L181.88 292.114L189.094 282.82L165.89 279.909Z" fill="white" style="fill:white;fill-opacity:1;"/>
<path id="Vector_24" d="M165.891 279.909L185.985 280.837L185.537 292.593L165.891 279.909Z" fill="white" style="fill:white;fill-opacity:1;"/>
</g>
<g id="ve-b_22">
<path id="ve-a_22" d="M185.382 266.761L178.716 285.74L189.783 289.729L185.382 266.761Z" fill="white" style="fill:white;fill-opacity:1;"/>
<path id="Vector_25" d="M185.382 266.761L190.709 286.159L179.39 289.366L185.382 266.761Z" fill="white" style="fill:white;fill-opacity:1;"/>
</g>
</g>
<g id="ve-b_23">
<path id="ve-a_23" d="M172.371 302.509L188.92 291.073L182.31 281.341L172.371 302.509Z" fill="white" style="fill:white;fill-opacity:1;"/>
<path id="Vector_26" d="M172.371 302.509L179.464 283.686L190.506 287.744L172.371 302.509Z" fill="white" style="fill:white;fill-opacity:1;"/>
</g>
<g id="ve-c_10">
<g id="ve-b_24">
<path id="ve-a_24" d="M203.91 281.236L183.8 280.761L183.426 292.519L203.91 281.236Z" fill="white" style="fill:white;fill-opacity:1;"/>
<path id="Vector_27" d="M203.91 281.236L187.107 292.296L180.56 282.522L203.91 281.236Z" fill="white" style="fill:white;fill-opacity:1;"/>
</g>
<g id="ve-b_25">
<path id="ve-a_25" d="M195.868 303.33L190.106 284.057L178.808 287.336L195.868 303.33Z" fill="white" style="fill:white;fill-opacity:1;"/>
<path id="Vector_28" d="M195.868 303.33L180.158 290.768L187.43 281.52L195.868 303.33Z" fill="white" style="fill:white;fill-opacity:1;"/>
</g>
</g>
</g>
<g id="ve-d_6">
<g id="ve-c_11">
<g id="ve-b_26">
<path id="ve-a_26" d="M194.369 230.583L205.22 247.521L215.177 241.255L194.369 230.583Z" fill="white" style="fill:white;fill-opacity:1;"/>
<path id="Vector_29" d="M194.369 230.583L212.933 238.328L208.492 249.222L194.369 230.583Z" fill="white" style="fill:white;fill-opacity:1;"/>
</g>
<g id="ve-b_27">
<path id="ve-a_27" d="M217.182 224.895L204.426 240.449L213.462 247.983L217.182 224.895Z" fill="white" style="fill:white;fill-opacity:1;"/>
<path id="Vector_30" d="M217.182 224.895L215.552 244.945L203.819 244.087L217.182 224.895Z" fill="white" style="fill:white;fill-opacity:1;"/>
</g>
</g>
<g id="ve-b_28">
<path id="ve-a_28" d="M192.729 254.037L212.191 248.951L209.309 237.545L192.729 254.037Z" fill="white" style="fill:white;fill-opacity:1;"/>
<path id="Vector_31" d="M192.729 254.037L205.832 238.774L214.82 246.365L192.729 254.037Z" fill="white" style="fill:white;fill-opacity:1;"/>
</g>
<g id="ve-c_12">
<g id="ve-b_29">
<path id="ve-a_29" d="M229.641 244.834L210.906 237.509L206.534 248.43L229.641 244.834Z" fill="white" style="fill:white;fill-opacity:1;"/>
<path id="Vector_32" d="M229.641 244.833L210.069 249.48L207.259 238.056L229.641 244.833Z" fill="white" style="fill:white;fill-opacity:1;"/>
</g>
<g id="ve-b_30">
<path id="ve-a_30" d="M214.528 262.844L215.705 242.763L203.967 241.979L214.528 262.844Z" fill="white" style="fill:white;fill-opacity:1;"/>
<path id="Vector_33" d="M214.528 262.844L204.061 245.666L214.058 239.463L214.528 262.844Z" fill="white" style="fill:white;fill-opacity:1;"/>
</g>
</g>
</g>
</g>
<g id="ve-e_4">
<g id="ve-d_7">
<g id="ve-c_13">
<g id="ve-b_31">
<path id="ve-a_31" d="M238 193.972L242.404 213.599L253.903 211.117L238 193.972Z" fill="white" style="fill:white;fill-opacity:1;"/>
<path id="Vector_34" d="M238 193.972L252.796 207.599L244.897 216.317L238 193.972Z" fill="white" style="fill:white;fill-opacity:1;"/>
</g>
<g id="ve-b_32">
<path id="ve-a_32" d="M261.383 196.429L244.077 206.683L249.991 216.853L261.383 196.429Z" fill="white" style="fill:white;fill-opacity:1;"/>
<path id="Vector_35" d="M261.383 196.43L252.994 214.713L242.262 209.894L261.383 196.43Z" fill="white" style="fill:white;fill-opacity:1;"/>
</g>
</g>
<g id="ve-b_33">
<path id="ve-a_33" d="M228.437 215.45L248.465 217.327L249.658 205.624L228.437 215.45Z" fill="white" style="fill:white;fill-opacity:1;"/>
<path id="Vector_36" d="M228.437 215.45L245.97 205.59L251.82 215.796L228.437 215.45Z" fill="white" style="fill:white;fill-opacity:1;"/>
</g>
<g id="ve-c_14">
<g id="ve-b_34">
<path id="ve-a_34" d="M266.271 219.427L251.171 206.136L243.327 214.903L266.271 219.427Z" fill="white" style="fill:white;fill-opacity:1;"/>
<path id="Vector_37" d="M266.271 219.426L246.29 217.098L247.557 205.402L266.271 219.426Z" fill="white" style="fill:white;fill-opacity:1;"/>
</g>
<g id="ve-b_35">
<path id="ve-a_35" d="M245.91 231.182L253.884 212.715L243.121 207.964L245.91 231.182Z" fill="white" style="fill:white;fill-opacity:1;"/>
<path id="Vector_38" d="M245.91 231.182L241.949 211.46L253.464 209.051L245.91 231.182Z" fill="white" style="fill:white;fill-opacity:1;"/>
</g>
</g>
</g>
<g id="ve-d_8">
<g id="ve-c_15">
<g id="ve-b_36">
<path id="ve-a_36" d="M291.522 174.491L288.947 194.442L300.602 196.042L291.522 174.491Z" fill="white" style="fill:white;fill-opacity:1;"/>
<path id="Vector_39" d="M291.522 174.491L300.764 192.358L290.36 197.848L291.522 174.491Z" fill="white" style="fill:white;fill-opacity:1;"/>
</g>
<g id="ve-b_37">
<path id="ve-a_37" d="M312.653 184.798L292.884 188.514L294.964 200.093L312.653 184.798Z" fill="white" style="fill:white;fill-opacity:1;"/>
<path id="Vector_40" d="M312.653 184.798L298.518 199.11L290.081 190.911L312.653 184.798Z" fill="white" style="fill:white;fill-opacity:1;"/>
</g>
</g>
<g id="ve-b_38">
<path id="ve-a_38" d="M275.189 191.404L293.367 200.018L298.491 189.428L275.189 191.404Z" fill="white" style="fill:white;fill-opacity:1;"/>
<path id="Vector_41" d="M275.189 191.404L295.038 188.135L297.044 199.727L275.189 191.404Z" fill="white" style="fill:white;fill-opacity:1;"/>
</g>
<g id="ve-c_16">
<g id="ve-b_39">
<path id="ve-a_39" d="M309.381 208.081L299.738 190.427L289.368 195.983L309.381 208.081Z" fill="white" style="fill:white;fill-opacity:1;"/>
<path id="Vector_42" d="M309.381 208.081L291.402 199.06L296.593 188.502L309.381 208.081Z" fill="white" style="fill:white;fill-opacity:1;"/>
</g>
<g id="ve-b_40">
<path id="ve-a_40" d="M286.227 212.163L300.037 197.537L291.548 189.391L286.227 212.163Z" fill="white" style="fill:white;fill-opacity:1;"/>
<path id="Vector_43" d="M286.227 212.163L289.251 192.276L300.896 193.95L286.227 212.163Z" fill="white" style="fill:white;fill-opacity:1;"/>
</g>
</g>
</g>
</g>
</g>
</g>
<defs>
<clipPath id="clip0_2194_11400">
<rect width="640" height="480" fill="white" style="fill:white;fill-opacity:1;"/>
</clipPath>
</defs>
</svg>
