<svg width="640" height="480" viewBox="0 0 640 480" fill="none" xmlns="http://www.w3.org/2000/svg">
<g id="za" clip-path="url(#clip0_2194_11748)">
<g id="Clip path group">
<mask id="mask0_2194_11748" style="mask-type:luminance" maskUnits="userSpaceOnUse" x="-1" y="0" width="642" height="480">
<g id="za-a">
<path id="Vector" d="M-0.00488281 0H640.013V479.99H-0.00488281V0Z" fill="white" style="fill:white;fill-opacity:1;"/>
</g>
</mask>
<g mask="url(#mask0_2194_11748)">
<g id="Group">
<g id="Group_2">
<path id="Vector_2" fill-rule="evenodd" clip-rule="evenodd" d="M-0.00488281 382.304V97.8728L211.772 240.089L-0.00488281 382.304Z" fill="#000001" style="fill:#000001;fill:color(display-p3 0.0000 0.0000 0.0039);fill-opacity:1;"/>
<path id="Vector_3" fill-rule="evenodd" clip-rule="evenodd" d="M144.461 480.083L382.206 320.149H719.886V479.99H144.461V480.083Z" fill="#000C8A" style="fill:#000C8A;fill:color(display-p3 0.0000 0.0471 0.5412);fill-opacity:1;"/>
<path id="Vector_4" fill-rule="evenodd" clip-rule="evenodd" d="M129.273 -1.60288e-05H719.886V160.122H382.112C382.112 160.122 132.367 -1.59373 129.273 -1.60288e-05Z" fill="#E1392D" style="fill:#E1392D;fill:color(display-p3 0.8824 0.2235 0.1765);fill-opacity:1;"/>
<path id="Vector_5" fill-rule="evenodd" clip-rule="evenodd" d="M-0.00488624 59.9988V97.873L211.772 239.995L-0.0986328 382.304V420.085L266.614 240.089L-0.00488624 59.9988Z" fill="#FFB915" style="fill:#FFB915;fill:color(display-p3 1.0000 0.7255 0.0824);fill-opacity:1;"/>
<path id="Vector_6" fill-rule="evenodd" clip-rule="evenodd" d="M-0.00488281 59.9987V0H89.0557L371.425 191.246H719.98V288.931H371.425L88.962 479.99H-0.00488281V420.085L266.614 240.089L0.0888638 59.9987H-0.00488281Z" fill="#007847" style="fill:#007847;fill:color(display-p3 0.0000 0.4706 0.2784);fill-opacity:1;"/>
<path id="Vector_7" fill-rule="evenodd" clip-rule="evenodd" d="M88.9619 0H144.461L382.206 160.028H719.886V191.246H371.425L88.9619 0ZM88.9619 480.084H144.461L382.206 320.149H719.886V289.025H371.425L88.9619 479.99V480.084Z" fill="white" style="fill:white;fill-opacity:1;"/>
</g>
</g>
</g>
</g>
</g>
<defs>
<clipPath id="clip0_2194_11748">
<rect width="640" height="480" fill="white" style="fill:white;fill-opacity:1;"/>
</clipPath>
</defs>
</svg>
