<svg width="640" height="480" viewBox="0 0 640 480" fill="none" xmlns="http://www.w3.org/2000/svg">
<g id="zm" clip-path="url(#clip0_2194_11760)">
<g id="Clip path group">
<mask id="mask0_2194_11760" style="mask-type:luminance" maskUnits="userSpaceOnUse" x="-1" y="0" width="641" height="480">
<g id="zm-a">
<path id="Vector" d="M-0.03125 0H640V480H-0.03125V0Z" fill="white" style="fill:white;fill-opacity:1;"/>
</g>
</mask>
<g mask="url(#mask0_2194_11760)">
<g id="Group">
<path id="Vector_2" fill-rule="evenodd" clip-rule="evenodd" d="M-80 0H640V480H-80V0Z" fill="#198A00" style="fill:#198A00;fill:color(display-p3 0.0980 0.5412 0.0000);fill-opacity:1;"/>
<path id="Vector_3" fill-rule="evenodd" clip-rule="evenodd" d="M555.531 172.5H640V480H555.531V172.5Z" fill="#EF7D00" style="fill:#EF7D00;fill:color(display-p3 0.9373 0.4902 0.0000);fill-opacity:1;"/>
<path id="Vector_4" fill-rule="evenodd" clip-rule="evenodd" d="M471.156 172.312H555.531V479.812H471.156V172.312Z" fill="#000001" style="fill:#000001;fill:color(display-p3 0.0000 0.0000 0.0039);fill-opacity:1;"/>
<path id="Vector_5" fill-rule="evenodd" clip-rule="evenodd" d="M385 172.5H471.156V480H384.906L385 172.5Z" fill="#DE2010" style="fill:#DE2010;fill:color(display-p3 0.8706 0.1255 0.0627);fill-opacity:1;"/>
<g id="Group_2">
<path id="Vector_6" fill-rule="evenodd" clip-rule="evenodd" d="M583.375 61.5C583.375 61.5 615.25 47.9062 618.25 45.0938C619.656 46.7812 605.5 63.8438 578.031 70.125C602.969 64.3125 624.25 45.75 628.656 46.3125C629.875 46.5938 629.594 64.4062 572.406 79.875C611.969 69.5625 634.938 50.4375 634.656 52.5C634.938 52.9688 630.719 67.5 596.125 78.8438C605.781 76.5937 632.031 60.6563 631.75 63.75C632.594 64.9688 606.438 98.625 559 87.6563C596.875 97.5 621.344 73.7812 624.813 74.25C625.563 74.3437 617.875 94.875 570.25 96.1875C593.031 93.8438 586.469 96.0938 586.469 96.0938C586.469 96.0938 573.063 106.594 556.75 99.4688C569.5 102.938 570.906 103.125 571.188 104.156C570.344 105.656 559.938 107.719 549.719 102.281C557.875 105.656 565.188 106.219 565.281 107.438C565.188 107.813 560.031 110.813 555.344 108.656C550.656 106.5 508.188 80.4375 508.188 80.4375L580.75 60.4688L583.375 61.4063V61.5ZM498.063 132.375C491.688 132.375 491.5 138 491.5 138C491.5 138 491.031 138.469 491.313 141.188L492.906 138.75C493.656 138.844 496.563 139.687 501.156 136.125C496.938 140.531 499.469 142.125 499.469 142.125C499.469 142.125 498.531 145.594 501.719 146.25C500.781 144.844 501.344 143.625 501.344 143.625C501.344 143.625 505.844 143.156 505.563 137.719C505.656 142.687 508.375 143.906 508.375 143.906C508.375 143.906 508.375 146.625 511.281 146.906C509.781 145.5 510.063 143.344 510.063 143.344C510.063 143.344 513.813 140.531 510.719 135.844C512.594 134.719 514.188 131.625 514.188 131.625C514.188 131.625 511.563 130.5 510.344 129.562C509.781 128.344 510.344 121.594 510.344 121.594L508.656 112.875L504.156 126.469C504.344 124.594 504.438 132.375 498.063 132.375Z" fill="#EF7D00" stroke="black" style="fill:#EF7D00;fill:color(display-p3 0.9373 0.4902 0.0000);fill-opacity:1;stroke:black;stroke-opacity:1;" stroke-width="0.9375" stroke-linejoin="round"/>
<path id="Vector_7" fill-rule="evenodd" clip-rule="evenodd" d="M529.563 112.781C529.75 112.875 534.344 118.031 538.844 117.75C540.531 116.344 535.375 113.344 535.375 112.594C537.25 114.281 544.844 120.844 549.812 118.5C551.687 115.688 546.25 116.156 540.25 108.563C544.469 111.375 554.969 117.469 559.938 115.125C561.906 112.875 548.969 105.844 544.563 100.406L533.313 94.6875L518.125 107.156L529.656 112.781H529.563Z" fill="#EF7D00" stroke="black" style="fill:#EF7D00;fill:color(display-p3 0.9373 0.4902 0.0000);fill-opacity:1;stroke:black;stroke-opacity:1;" stroke-width="0.9375" stroke-linejoin="round"/>
<path id="Vector_8" fill-rule="evenodd" clip-rule="evenodd" d="M512.406 70.1249C512.406 70.1249 517.563 67.1249 538.281 68.6249C540.531 68.9061 552.344 64.5936 556.188 63.2811C562.188 62.1561 581.5 58.0311 586.563 54.0936C590.313 53.6249 585.625 60.7499 580.938 62.5311C576.063 64.6874 558.344 70.8749 551.969 70.0311C559.563 70.1249 555.344 76.3124 542.781 73.4061C548.781 76.7811 546.531 77.3436 546.531 77.3436C546.531 77.3436 535.938 77.9061 533.125 75.4686C540.25 78.1874 537.25 79.2186 537.25 79.2186C537.25 79.2186 530.031 79.8749 526.656 78.2811C531.813 79.8749 529.187 80.8124 529.187 80.8124C529.187 80.8124 524.969 81.5624 521.5 80.2499C517.938 79.0311 512.688 70.2186 512.406 70.2186V70.1249Z" fill="#EF7D00" stroke="black" style="fill:#EF7D00;fill:color(display-p3 0.9373 0.4902 0.0000);fill-opacity:1;stroke:black;stroke-opacity:1;" stroke-width="0.9375" stroke-linecap="round" stroke-linejoin="round"/>
<path id="Vector_9" fill-rule="evenodd" clip-rule="evenodd" d="M520.657 115.688L521.407 129.375L520.657 130.5C520.375 130.875 511 129 512.219 136.125C512.219 139.125 512.219 139.875 514.282 141.469C513.813 139.594 513.907 138.187 513.907 138.187C513.907 138.187 516.625 139.781 519.157 135.375C517.375 139.687 518.594 141.281 519.063 141.375C519.438 142.125 518.313 145.594 521.875 145.5C520.469 144.187 521.125 142.313 521.125 142.313C521.125 142.313 524.875 141.75 523.563 135.094C524.875 133.781 525.438 135.094 525.438 135.094C525.438 135.094 525.813 139.031 529.094 138.187C530.5 139.031 528.813 141.188 528.813 141.188C528.813 141.188 531.157 141.188 531.907 139.313C532.563 137.25 533.407 133.687 529.563 132.187C529.094 130.781 531.063 130.687 531.063 130.687C531.063 130.687 533.5 131.531 534.25 132.75C535 133.969 534.719 129.563 531.625 129C527.875 129 527.688 128.156 527.688 128.063L526.75 115.219L520.657 115.688Z" fill="#EF7D00" stroke="black" style="fill:#EF7D00;fill:color(display-p3 0.9373 0.4902 0.0000);fill-opacity:1;stroke:black;stroke-opacity:1;" stroke-width="0.9375" stroke-linejoin="round"/>
<path id="Vector_10" fill-rule="evenodd" clip-rule="evenodd" d="M533.688 127.312C533.688 126.656 527.313 118.031 529 117C530.594 117.281 533.219 121.219 535.469 119.906C534.813 118.406 532.844 119.25 530.688 115.312C528.438 110.812 528.156 104.156 520.375 96.9375C525.438 104.625 536.688 109.125 537.25 106.875C537.813 104.625 527.219 96.1875 527.781 94.125C529.844 98.25 540.344 107.625 548.031 106.875C548.594 105 541.75 101.437 539.969 98.0625C535 94.6875 521.781 83.3437 521.594 80.7187C519.275 76.7589 516.105 73.3645 512.313 70.7812L511.563 69.1875C508.563 62.1562 512.5 59.8125 514.844 59.5312C516.719 59.25 517.281 59.5312 518.594 58.875L513.813 57C515.969 58.5937 521.313 57.1875 520.188 61.6875C522.531 60.75 527.594 54.75 514.469 53.4375C510.156 48.5625 492.625 45.75 488.219 67.125C488.594 67.4062 488.781 67.6875 489.906 68.4375C484.281 65.8125 469.375 63.75 464.031 62.8125C449.406 58.6875 434.313 48.5625 432.906 49.7812C431.031 50.7187 441.719 60.6562 441.156 60.8437C432.818 56.0957 424.21 51.8385 415.375 48.0937C409.75 46.0312 404.219 41.1562 403.656 42.0937C401.594 46.3125 412.563 57 414.625 58.2187C416.688 59.4375 432.719 66.9375 432.438 67.0312C408.25 56.0625 404.313 54 403 52.7812C400.844 52.3125 395.688 45.2812 394.281 45.75C393.438 46.5 395.031 57.5625 406.563 62.625C408.438 63.9375 431.313 72.0937 431.125 72.75C431.125 72.9375 404.875 61.9687 403.938 61.5C398.875 59.625 392.688 52.6875 391.563 53.4375C390.438 54.1875 394.375 61.6875 399.438 64.0312C402.156 65.1562 412.375 70.2187 421.563 73.4062C422.125 73.6875 404.969 66.9375 396.719 63.5625C392.969 61.5 391.281 58.875 390.719 59.4375C389.781 60 392.031 71.0625 418.563 77.25C419.219 77.625 427.938 75.2812 427.469 75.5625C422.6 76.7874 417.65 77.6646 412.656 78.1875C412.375 78.9375 414.344 82.875 428.031 82.125C429.719 82.0312 439.281 78.6562 438.438 79.3125C433.884 81.0503 429.254 82.5831 424.563 83.9062C423.719 83.9062 419.313 84.4687 419.125 84.8437C418.938 85.5937 422.406 88.4062 429.719 88.7812C436.281 89.1562 448.656 84.8437 448.469 85.125C448.094 85.4062 436.469 89.4375 436.188 89.625C435.719 89.9062 431.5 90.0937 431.313 90.4687C430.938 91.3125 437.5 97.4062 456.719 90.8437C454.844 93.4687 445.469 95.25 445.469 95.7187C445.469 96.1875 447.531 98.0625 450.813 98.8125C452.406 99.1875 454.656 99.0937 456.719 98.8125C460.469 98.0625 464.219 96.6562 469.188 92.0625C469.75 93.4687 456.906 100.031 457.469 100.594C460.281 103.219 469.563 100.312 470.125 99.9375C470.781 99.6562 487.938 89.9062 487.938 88.6875C488.219 90.1875 465.719 102.469 466 102.937C467.406 105.187 475.094 102.844 475.375 102.562L485.5 97.125C485.781 97.0312 474.438 103.687 475.375 104.812C474.906 109.219 493.188 101.812 494.594 100.875C495.25 100.406 485.781 105 485.781 107.156C488.875 112.312 498.625 110.719 500.125 109.594C500.875 109.031 499.188 113.344 499.75 112.969C500.903 111.789 501.853 110.427 502.563 108.937C502.375 110.437 501.25 112.687 500.688 115.312C500.125 117.937 499.844 120.844 499 123.937C498.813 125.25 505 121.219 504.063 111.562C504.625 116.625 502.188 126 502.844 126.562C504.063 127.5 507.719 121.875 508.094 118.031C509.125 119.906 511.375 123.937 513.344 124.875C513.156 121.969 513.344 122.062 512.406 119.25C512.906 115.312 513.156 110.281 513.156 104.156C518.406 114.187 520.563 118.5 519.063 126.187C520.656 126.844 523.094 120.75 522.906 117.75C523.453 120.283 524.793 122.576 526.732 124.295C528.671 126.015 531.107 127.072 533.688 127.312Z" fill="#EF7D00" stroke="black" style="fill:#EF7D00;fill:color(display-p3 0.9373 0.4902 0.0000);fill-opacity:1;stroke:black;stroke-opacity:1;" stroke-width="1.03125" stroke-linecap="round" stroke-linejoin="round"/>
<g id="Vector_11">
<path fill-rule="evenodd" clip-rule="evenodd" d="M446.313 63.4688C446.313 63.4688 442.656 66.1875 438.25 66C439.375 70.5 448.563 67.0313 448.563 67.0313C448.563 67.0313 444.156 72 440.969 72.75C442.844 74.3438 450.906 73.7813 452.219 73.0313C453.531 72.2813 455.969 69.0938 455.969 69.0938C455.969 69.0938 447.719 78.6563 446.594 78.5625C446.313 79.6875 455.125 79.3125 456.906 77.625C458.688 75.9375 463.469 73.5 463.469 73.5C463.469 73.5 451.281 81.9375 450.813 81.9375C455.313 83.0625 464.406 80.4375 470.219 76.875C461.594 82.5938 460.844 83.625 456.438 85.5938C460.375 86.4375 462.344 89.0625 475.469 83.3438C482.969 79.7813 487.281 73.2188 487.281 73.2188C481.553 79.9677 474.702 85.6766 467.031 90.0938C466.563 91.0313 475.844 94.9688 487.563 82.6875" fill="#EF7D00" style="fill:#EF7D00;fill:color(display-p3 0.9373 0.4902 0.0000);fill-opacity:1;"/>
<path d="M446.313 63.4688C446.313 63.4688 442.656 66.1875 438.25 66C439.375 70.5 448.563 67.0313 448.563 67.0313C448.563 67.0313 444.156 72 440.969 72.75C442.844 74.3438 450.906 73.7813 452.219 73.0313C453.531 72.2813 455.969 69.0938 455.969 69.0938C455.969 69.0938 447.719 78.6563 446.594 78.5625C446.313 79.6875 455.125 79.3125 456.906 77.625C458.688 75.9375 463.469 73.5 463.469 73.5C463.469 73.5 451.281 81.9375 450.813 81.9375C455.313 83.0625 464.406 80.4375 470.219 76.875C461.594 82.5938 460.844 83.625 456.438 85.5938C460.375 86.4375 462.344 89.0625 475.469 83.3438C482.969 79.7813 487.281 73.2188 487.281 73.2188C481.553 79.9677 474.702 85.6766 467.031 90.0938C466.563 91.0313 475.844 94.9688 487.563 82.6875" stroke="black" style="stroke:black;stroke-opacity:1;" stroke-width="1.03125" stroke-linecap="round" stroke-linejoin="round"/>
</g>
<g id="Vector_12">
<path fill-rule="evenodd" clip-rule="evenodd" d="M510.063 90C510.063 90 510.906 93.75 514.094 96.5625C517.281 99.375 517.469 102.188 517.469 102.188M508.563 65.625C508.563 65.625 509.594 69.0938 512.875 71.25C516.25 73.3125 521.313 80.0625 521.594 81.2812C521.969 82.6875 523.938 93.0937 523.75 94.2188M488.313 70.7812C488.5 72.1875 483.625 78.5625 490.375 86.1563C484.188 93.6563 484.188 94.5938 484.188 94.5938C484.188 94.5938 487.656 96.4688 493.75 91.2188C503.875 103.594 500.5 109.219 500.5 109.219" fill="#EF7D00" style="fill:#EF7D00;fill:color(display-p3 0.9373 0.4902 0.0000);fill-opacity:1;"/>
<path d="M510.063 90C510.063 90 510.906 93.75 514.094 96.5625C517.281 99.375 517.469 102.188 517.469 102.188M508.563 65.625C508.563 65.625 509.594 69.0938 512.875 71.25C516.25 73.3125 521.313 80.0625 521.594 81.2812C521.969 82.6875 523.938 93.0937 523.75 94.2188M488.313 70.7812C488.5 72.1875 483.625 78.5625 490.375 86.1563C484.188 93.6563 484.188 94.5938 484.188 94.5938C484.188 94.5938 487.656 96.4688 493.75 91.2188C503.875 103.594 500.5 109.219 500.5 109.219" stroke="black" style="stroke:black;stroke-opacity:1;" stroke-width="1.03125" stroke-linecap="round"/>
</g>
<g id="Vector_13">
<path fill-rule="evenodd" clip-rule="evenodd" d="M499.656 100.5C499.656 100.5 498.719 99.1875 500.406 94.2188C501.906 96.0938 503.594 96.375 504.25 97.0312C505 97.875 512.687 98.9062 513.062 104.062" fill="#EF7D00" style="fill:#EF7D00;fill:color(display-p3 0.9373 0.4902 0.0000);fill-opacity:1;"/>
<path d="M499.656 100.5C499.656 100.5 498.719 99.1875 500.406 94.2188C501.906 96.0938 503.594 96.375 504.25 97.0312C505 97.875 512.687 98.9062 513.062 104.062" stroke="black" style="stroke:black;stroke-opacity:1;" stroke-width="1.03125" stroke-linecap="round" stroke-linejoin="round"/>
</g>
<path id="Vector_14" fill-rule="evenodd" clip-rule="evenodd" d="M508.656 53.9061C508.656 53.5311 507.062 50.1561 501.344 54.2811C504.437 54.4686 507.437 56.2499 508.656 53.9061Z" fill="#EF7D00" stroke="black" style="fill:#EF7D00;fill:color(display-p3 0.9373 0.4902 0.0000);fill-opacity:1;stroke:black;stroke-opacity:1;" stroke-width="1.03125"/>
<g id="Vector_15">
<path fill-rule="evenodd" clip-rule="evenodd" d="M563.219 68.9062C563.5 69.0938 580.281 72.6562 585.906 70.875C578.781 80.4375 564.438 73.9688 564.438 73.9688C571.469 76.0313 571.75 75.8437 574 77.9062C574.75 79.7812 561.063 78.8438 556.656 76.3125C569.125 80.25 569.406 80.0625 569.781 81.4688C570.344 83.625 549.344 80.9063 547.563 78.1875C553.188 82.5 556.188 83.3438 559.281 85.3125C555.531 87 548.5 88.6875 535.656 79.5938C552.531 94.9688 567.813 94.0312 570.25 96.75C564.344 105.469 541.469 91.5937 530.969 84.5625C520.469 77.5312 553.938 101.531 557.031 101.156C555.531 103.5 544.469 101.438 543.719 100.219" fill="#EF7D00" style="fill:#EF7D00;fill:color(display-p3 0.9373 0.4902 0.0000);fill-opacity:1;"/>
<path d="M563.219 68.9062C563.5 69.0938 580.281 72.6562 585.906 70.875C578.781 80.4375 564.438 73.9688 564.438 73.9688C571.469 76.0313 571.75 75.8437 574 77.9062C574.75 79.7812 561.063 78.8438 556.656 76.3125C569.125 80.25 569.406 80.0625 569.781 81.4688C570.344 83.625 549.344 80.9063 547.563 78.1875C553.188 82.5 556.188 83.3438 559.281 85.3125C555.531 87 548.5 88.6875 535.656 79.5938C552.531 94.9688 567.813 94.0312 570.25 96.75C564.344 105.469 541.469 91.5937 530.969 84.5625C520.469 77.5312 553.938 101.531 557.031 101.156C555.531 103.5 544.469 101.438 543.719 100.219" stroke="black" style="stroke:black;stroke-opacity:1;" stroke-width="1.03125" stroke-linejoin="round"/>
</g>
<g id="Vector_16">
<path fill-rule="evenodd" clip-rule="evenodd" d="M567.531 85.0312C565.656 85.3125 559.75 85.3125 558.906 85.125Z" fill="#EF7D00" style="fill:#EF7D00;fill:color(display-p3 0.9373 0.4902 0.0000);fill-opacity:1;"/>
<path d="M567.531 85.0312C565.656 85.3125 559.75 85.3125 558.906 85.125" stroke="black" style="stroke:black;stroke-opacity:1;" stroke-width="1.03125" stroke-linecap="round"/>
</g>
<g id="Vector_17">
<path fill-rule="evenodd" clip-rule="evenodd" d="M441.344 60.9375C441.344 60.9375 454.094 67.6875 459.531 67.2187C458.494 68.0943 457.278 68.7341 455.969 69.0937C457.281 69.6562 461.031 71.625 466.656 70.4062L463.562 73.2187C463.562 73.2187 468.437 75.0937 473.875 72.2812L471.25 75.75L475.094 76.0312" fill="#EF7D00" style="fill:#EF7D00;fill:color(display-p3 0.9373 0.4902 0.0000);fill-opacity:1;"/>
<path d="M441.344 60.9375C441.344 60.9375 454.094 67.6875 459.531 67.2187C458.494 68.0943 457.278 68.7341 455.969 69.0937C457.281 69.6562 461.031 71.625 466.656 70.4062L463.562 73.2187C463.562 73.2187 468.437 75.0937 473.875 72.2812L471.25 75.75L475.094 76.0312" stroke="black" style="stroke:black;stroke-opacity:1;" stroke-width="1.03125" stroke-linecap="round" stroke-linejoin="round"/>
</g>
</g>
</g>
</g>
</g>
</g>
<defs>
<clipPath id="clip0_2194_11760">
<rect width="640" height="480" fill="white" style="fill:white;fill-opacity:1;"/>
</clipPath>
</defs>
</svg>
