<svg width="640" height="480" viewBox="0 0 640 480" fill="none" xmlns="http://www.w3.org/2000/svg">
<g id="zw" clip-path="url(#clip0_2194_11782)">
<g id="Clip path group">
<mask id="mask0_2194_11782" style="mask-type:luminance" maskUnits="userSpaceOnUse" x="-1" y="0" width="641" height="481">
<g id="zw-a">
<path id="Vector" d="M639.948 0.0141602H-0.0727539V480.02H639.948V0.0141602Z" fill="white" style="fill:white;fill-opacity:1;"/>
</g>
</mask>
<g mask="url(#mask0_2194_11782)">
<g id="Group">
<path id="Vector_2" d="M-2.2998 -0.100098H982.348V479.792H-2.2998V-0.100098Z" fill="#006400" style="fill:#006400;fill:color(display-p3 0.0000 0.3922 0.0000);fill-opacity:1;"/>
<path id="Vector_3" d="M-2.2998 68.4561H982.348V411.236H-2.2998V68.4561Z" fill="#FFD200" style="fill:#FFD200;fill:color(display-p3 1.0000 0.8235 0.0000);fill-opacity:1;"/>
<path id="Vector_4" d="M-2.2998 137.012H982.348V342.68H-2.2998V137.012Z" fill="#D40000" style="fill:#D40000;fill:color(display-p3 0.8314 0.0000 0.0000);fill-opacity:1;"/>
<path id="Vector_5" d="M-2.2998 205.568H982.348V274.124H-2.2998V205.568Z" fill="#000001" style="fill:#000001;fill:color(display-p3 0.0000 0.0000 0.0039);fill-opacity:1;"/>
<path id="Vector_6" d="M-2.2998 -0.100098V479.792L325.916 239.846L-2.2998 -0.100098Z" fill="black" stroke="black" style="fill:black;fill-opacity:1;stroke:black;stroke-opacity:1;" stroke-width="23.1461"/>
<path id="Vector_7" d="M-2.2998 -0.100098V479.792L325.916 239.846L-2.2998 -0.100098Z" fill="white" style="fill:white;fill-opacity:1;"/>
<path id="Vector_8" d="M122.539 119.188L187.596 314.229L17.3931 193.685H227.803L57.4823 314.229L122.539 119.188Z" fill="#D40000" style="fill:#D40000;fill:color(display-p3 0.8314 0.0000 0.0000);fill-opacity:1;"/>
<path id="Vector_9" d="M94.7586 289.777L106.246 287.721L127.463 286.921L135.317 287.606L152.9 290.463L154.189 288.749V276.409L156.299 265.783L159.816 255.042L163.684 246.473L168.607 237.561L176.578 239.503H178.688L178.923 238.018L162.043 223.964L144.46 210.824L119.023 192.314L116.679 191.742L113.983 172.318L111.99 166.491L109.294 164.206L104.253 162.606L98.6268 162.834L96.048 164.206L90.6559 165.348L87.8426 165.805L85.9671 167.976L85.7326 170.718L93.5864 170.947L95.5791 171.747L95.3447 172.547L90.8903 173.118L88.7803 173.803L91.242 175.632L93.8208 176.546L97.103 177.688L97.8063 179.973L98.0407 209.453L96.2824 214.023L95.6963 222.592L98.2752 232.876L91.7108 240.189L87.9598 246.701L87.2565 250.7L85.2637 254.7L85.0293 257.213L86.3187 259.955L91.3592 276.18L93.938 289.549L94.7586 289.777Z" fill="#FFCC00" style="fill:#FFCC00;fill:color(display-p3 1.0000 0.8000 0.0000);fill-opacity:1;"/>
<path id="Vector_10" d="M100.854 162.149C98.7436 162.149 97.8059 162.377 95.8131 163.406C94.1588 164.32 92.3174 164.866 90.421 165.005C87.4905 165.005 85.1461 167.062 85.1461 169.69V171.404L89.366 171.29C101.791 171.633 90.5382 172.775 89.6005 172.889C86.5527 173.461 90.3038 175.86 93.9376 177.117C97.8059 178.26 97.5714 177.574 97.5714 194.256C97.5714 207.853 97.5714 209.795 96.3992 212.88C94.8754 217.451 94.8754 224.306 96.3992 228.877C97.1025 230.705 97.5714 232.305 97.5714 232.647C97.5714 232.99 95.6959 235.047 93.4687 237.561C89.366 242.131 86.9044 246.816 86.9044 250.129C86.7582 251.195 86.3566 252.213 85.7322 253.1C84.2083 255.042 84.2083 258.356 85.615 259.613C87.1388 260.984 93.3515 284.521 93.4687 288.978C93.4687 290.577 93.7032 290.577 103.198 288.749C110.935 287.264 129.104 286.921 138.364 288.063C142.584 288.635 147.507 289.549 149.265 289.892C154.892 291.377 154.658 291.605 154.658 284.978C154.701 274.537 156.728 264.193 160.636 254.471C162.877 248.932 165.582 243.581 168.724 238.475C168.724 238.475 170.834 238.703 173.413 239.389C178.219 240.531 179.625 240.417 179.625 238.246C179.625 237.103 174.585 232.99 149.852 214.251C139.876 206.293 129.592 198.708 119.023 191.514C118.241 191.514 117.733 191.247 117.499 190.714L115.741 179.859C114.92 174.26 113.748 168.776 113.279 167.633C111.716 164.282 108.356 162.454 103.198 162.149H100.854ZM100.971 163.292H103.315C111.052 163.749 112.458 165.805 114.568 179.288L115.975 190.028C116.053 190.866 114.803 192.123 112.224 193.799C107.79 196.836 103.84 200.493 100.502 204.654L98.9781 206.71L98.6264 201.911V188.429C98.9781 178.488 98.6264 177.574 95.3442 176.431C92.6482 175.517 89.1316 174.603 90.0694 174.032C91.2416 173.346 92.4137 173.803 95.227 173.004C96.3992 172.775 96.282 172.889 96.0476 171.975C95.8131 170.49 94.172 169.69 89.8349 169.919C86.3183 170.147 85.9666 170.033 86.2011 169.119C86.7481 167.291 88.5064 166.186 91.476 165.805C93.272 165.612 95.0184 165.109 96.6337 164.32C97.9422 163.553 99.4442 163.157 100.971 163.177V163.292ZM118.437 192.771H118.905C120.898 193.113 178.453 236.989 178.453 238.246C178.453 238.779 178.062 239.046 177.281 239.046C176.812 239.046 162.16 235.047 144.811 230.134C117.147 222.135 113.162 220.993 111.989 219.507C111.155 218.512 110.689 217.271 110.668 215.985C110.647 214.7 111.071 213.445 111.872 212.423C112.435 211.758 112.836 210.976 113.044 210.138C113.044 208.767 110.114 212.195 109.528 214.137C108.942 216.422 110.114 220.307 111.872 221.564C112.576 222.135 117.85 223.849 123.594 225.563C133.441 228.305 134.144 228.648 134.613 230.248C135.785 234.018 131.682 238.475 125.821 239.731C123.628 240.255 121.558 241.187 119.726 242.474C113.646 247.386 106.852 251.391 99.5642 254.357C99.0953 254.7 98.5092 256.528 98.1575 258.242C97.4542 262.012 97.2198 262.583 96.0476 262.583C95.4224 262.66 95.3442 262.126 95.8131 260.984C96.6337 258.699 96.5164 255.956 95.6959 255.956C95.1489 255.956 94.8754 256.642 94.8754 258.013C94.8754 259.156 94.5237 260.527 94.0548 260.87C93.4687 261.555 93.3515 261.098 93.586 258.242C93.8204 256.299 93.7032 254.814 93.4687 254.814C92.8826 254.814 91.8276 257.67 91.476 260.184C91.3197 261.707 91.0853 261.593 90.7727 259.841C90.421 258.47 90.5382 257.556 91.5932 255.842C92.2593 254.601 92.6582 253.24 92.7654 251.843C92.7654 250.358 93.9376 248.872 99.4469 243.502C102.964 239.96 107.301 235.504 108.825 233.561C111.521 230.362 111.638 230.134 111.521 226.82C111.521 224.992 111.286 223.278 111.052 223.05C110.348 222.364 109.411 226.02 109.88 227.963C110.114 229.791 109.88 230.362 106.011 234.818C103.228 237.924 100.295 240.898 97.2198 243.731C92.6482 247.844 91.0071 250.129 91.0071 252.186C91.0071 252.871 90.5382 254.471 89.8349 255.956C89.1316 257.442 88.8971 258.927 89.1316 259.27C89.2879 259.651 89.1707 259.651 88.7799 259.27C88.2329 258.813 88.1938 257.67 88.6627 255.842C88.9311 254.875 89.0106 253.867 88.8972 252.871C88.3111 251.729 87.4905 253.1 87.1389 255.956C86.9044 257.556 86.5527 258.813 86.2011 258.584C85.3805 258.127 85.615 255.157 86.67 253.557C87.2561 252.757 87.8422 250.929 88.1938 249.444C89.0144 245.216 90.8899 241.788 94.9926 237.218L98.7436 232.876L97.5714 229.105C95.9993 224.011 95.9181 218.589 97.337 213.452C98.8218 209.186 101.948 204.73 106.715 200.083C111.403 195.627 115.975 192.885 118.437 192.771ZM136.02 229.562C136.168 229.552 136.318 229.561 136.459 229.591C136.601 229.62 136.732 229.669 136.843 229.734C136.953 229.799 137.042 229.878 137.102 229.967C137.162 230.055 137.193 230.151 137.192 230.248C137.12 230.382 136.985 230.499 136.807 230.581C136.628 230.664 136.414 230.708 136.195 230.708C135.976 230.708 135.763 230.664 135.584 230.581C135.406 230.499 135.271 230.382 135.199 230.248C135.193 230.09 135.271 229.935 135.421 229.81C135.571 229.685 135.782 229.597 136.02 229.562ZM138.95 229.905C139.098 229.894 139.248 229.904 139.39 229.934C139.532 229.963 139.662 230.012 139.773 230.077C139.884 230.142 139.972 230.221 140.032 230.309C140.093 230.398 140.123 230.494 140.122 230.591C140.05 230.725 139.916 230.842 139.737 230.924C139.559 231.007 139.345 231.051 139.126 231.051C138.907 231.051 138.693 231.007 138.515 230.924C138.336 230.842 138.202 230.725 138.13 230.591C138.123 230.432 138.202 230.278 138.351 230.153C138.501 230.028 138.713 229.94 138.95 229.905ZM141.998 230.476C142.146 230.466 142.296 230.475 142.438 230.505C142.579 230.535 142.71 230.583 142.821 230.648C142.932 230.713 143.02 230.792 143.08 230.881C143.14 230.969 143.171 231.065 143.17 231.162C143.098 231.296 142.963 231.413 142.785 231.495C142.606 231.578 142.393 231.622 142.174 231.622C141.955 231.622 141.741 231.578 141.562 231.495C141.384 231.413 141.249 231.296 141.177 231.162C141.171 231.004 141.25 230.849 141.399 230.724C141.549 230.599 141.76 230.512 141.998 230.476ZM144.811 231.048C144.959 231.037 145.109 231.047 145.251 231.076C145.393 231.106 145.523 231.155 145.634 231.219C145.745 231.284 145.833 231.363 145.893 231.452C145.954 231.541 145.984 231.636 145.983 231.733C145.911 231.868 145.777 231.984 145.598 232.067C145.42 232.149 145.206 232.193 144.987 232.193C144.768 232.193 144.554 232.149 144.376 232.067C144.197 231.984 144.063 231.868 143.991 231.733C143.984 231.575 144.063 231.42 144.212 231.295C144.362 231.17 144.574 231.083 144.811 231.048ZM137.426 231.733C137.574 231.722 137.724 231.732 137.866 231.762C138.008 231.791 138.138 231.84 138.249 231.905C138.36 231.97 138.448 232.049 138.509 232.138C138.569 232.226 138.599 232.322 138.598 232.419C138.526 232.553 138.392 232.67 138.213 232.752C138.035 232.835 137.821 232.879 137.602 232.879C137.383 232.879 137.169 232.835 136.991 232.752C136.812 232.67 136.678 232.553 136.606 232.419C136.6 232.261 136.678 232.106 136.828 231.981C136.977 231.856 137.189 231.768 137.426 231.733ZM140.24 232.19C140.388 232.18 140.537 232.189 140.679 232.219C140.821 232.248 140.952 232.297 141.062 232.362C141.173 232.427 141.262 232.506 141.322 232.595C141.382 232.683 141.413 232.779 141.412 232.876C141.34 233.01 141.205 233.127 141.027 233.209C140.848 233.292 140.634 233.336 140.415 233.336C140.196 233.336 139.983 233.292 139.804 233.209C139.626 233.127 139.491 233.01 139.419 232.876C139.413 232.718 139.491 232.563 139.641 232.438C139.79 232.313 140.002 232.225 140.24 232.19ZM146.335 232.419C146.483 232.408 146.633 232.418 146.775 232.447C146.917 232.477 147.047 232.526 147.158 232.591C147.269 232.655 147.357 232.735 147.417 232.823C147.477 232.912 147.508 233.008 147.507 233.104C147.435 233.239 147.301 233.355 147.122 233.438C146.943 233.52 146.73 233.565 146.511 233.565C146.292 233.565 146.078 233.52 145.9 233.438C145.721 233.355 145.586 233.239 145.514 233.104C145.508 232.946 145.587 232.791 145.736 232.666C145.886 232.541 146.097 232.454 146.335 232.419ZM143.17 232.419C143.318 232.408 143.468 232.418 143.61 232.447C143.752 232.477 143.882 232.526 143.993 232.591C144.104 232.655 144.192 232.735 144.252 232.823C144.312 232.912 144.343 233.008 144.342 233.104C144.27 233.239 144.136 233.355 143.957 233.438C143.779 233.52 143.565 233.565 143.346 233.565C143.127 233.565 142.913 233.52 142.735 233.438C142.556 233.355 142.421 233.239 142.349 233.104C142.343 232.946 142.422 232.791 142.571 232.666C142.721 232.541 142.932 232.454 143.17 232.419ZM149.031 233.104C149.148 233.104 153.368 234.018 158.409 235.39L167.669 238.018L165.911 241.103L163.097 246.13C161.925 248.415 161.691 248.415 156.064 247.158C149.969 245.787 140.357 244.53 130.51 243.731L121.133 242.931L124.649 241.674L130.862 238.932C133.206 237.675 134.144 237.446 137.778 237.789C143.092 238.094 146.491 237.18 147.976 235.047L149.148 233.104H149.031ZM138.716 233.79C138.864 233.779 139.014 233.789 139.155 233.819C139.297 233.848 139.428 233.897 139.539 233.962C139.649 234.026 139.738 234.106 139.798 234.194C139.858 234.283 139.889 234.379 139.888 234.476C139.816 234.61 139.681 234.726 139.503 234.809C139.324 234.891 139.111 234.936 138.891 234.936C138.672 234.936 138.459 234.891 138.28 234.809C138.102 234.726 137.967 234.61 137.895 234.476C137.889 234.317 137.967 234.162 138.117 234.038C138.267 233.913 138.478 233.825 138.716 233.79ZM145.28 233.79C145.428 233.779 145.578 233.789 145.72 233.819C145.862 233.848 145.992 233.897 146.103 233.962C146.214 234.026 146.302 234.106 146.362 234.194C146.422 234.283 146.453 234.379 146.452 234.476C146.363 234.587 146.229 234.681 146.064 234.747C145.898 234.812 145.708 234.847 145.514 234.847C145.321 234.847 145.131 234.812 144.965 234.747C144.8 234.681 144.665 234.587 144.577 234.476C144.571 234.317 144.649 234.162 144.799 234.038C144.948 233.913 145.16 233.825 145.397 233.79H145.28ZM135.902 233.79C136.05 233.779 136.2 233.789 136.342 233.819C136.484 233.848 136.615 233.897 136.725 233.962C136.836 234.026 136.924 234.106 136.985 234.194C137.045 234.283 137.075 234.379 137.075 234.476C137.003 234.61 136.868 234.726 136.689 234.809C136.511 234.891 136.297 234.936 136.078 234.936C135.859 234.936 135.646 234.891 135.467 234.809C135.288 234.726 135.154 234.61 135.082 234.476C135.113 234.337 135.208 234.209 135.355 234.106C135.501 234.004 135.692 233.934 135.902 233.904V233.79ZM142.115 234.018C142.386 233.996 142.66 234.044 142.879 234.15C143.097 234.257 143.244 234.414 143.287 234.59C143.215 234.724 143.081 234.841 142.902 234.923C142.724 235.006 142.51 235.05 142.291 235.05C142.072 235.05 141.858 235.006 141.68 234.923C141.501 234.841 141.366 234.724 141.294 234.59C141.325 234.452 141.421 234.323 141.567 234.221C141.714 234.119 141.905 234.048 142.115 234.018ZM134.379 235.275C134.527 235.265 134.676 235.274 134.818 235.304C134.96 235.333 135.091 235.382 135.201 235.447C135.312 235.512 135.401 235.591 135.461 235.68C135.521 235.768 135.552 235.864 135.551 235.961C135.479 236.095 135.344 236.212 135.166 236.294C134.987 236.377 134.773 236.421 134.554 236.421C134.335 236.421 134.122 236.377 133.943 236.294C133.765 236.212 133.63 236.095 133.558 235.961C133.552 235.803 133.63 235.648 133.78 235.523C133.929 235.398 134.141 235.31 134.379 235.275ZM137.309 235.275C137.473 235.262 137.64 235.273 137.796 235.309C137.952 235.345 138.092 235.405 138.206 235.483C138.32 235.56 138.405 235.655 138.453 235.758C138.5 235.861 138.51 235.969 138.481 236.075C138.409 236.21 138.275 236.326 138.096 236.409C137.918 236.491 137.704 236.535 137.485 236.535C137.266 236.535 137.052 236.491 136.874 236.409C136.695 236.326 136.56 236.21 136.488 236.075C136.482 235.917 136.561 235.762 136.71 235.637C136.86 235.512 137.071 235.425 137.309 235.39V235.275ZM140.357 235.504C140.628 235.482 140.902 235.529 141.12 235.636C141.339 235.742 141.485 235.9 141.529 236.075C141.457 236.21 141.322 236.326 141.144 236.409C140.965 236.491 140.752 236.535 140.533 236.535C140.313 236.535 140.1 236.491 139.921 236.409C139.743 236.326 139.608 236.21 139.536 236.075C139.567 235.937 139.662 235.808 139.809 235.706C139.956 235.604 140.147 235.533 140.357 235.504ZM143.639 235.504C143.787 235.493 143.937 235.503 144.079 235.532C144.221 235.562 144.351 235.611 144.462 235.676C144.573 235.74 144.661 235.82 144.721 235.908C144.781 235.997 144.812 236.093 144.811 236.189C144.739 236.324 144.604 236.44 144.426 236.523C144.247 236.605 144.034 236.65 143.815 236.65C143.596 236.65 143.382 236.605 143.203 236.523C143.025 236.44 142.89 236.324 142.818 236.189C142.812 236.031 142.891 235.876 143.04 235.751C143.19 235.626 143.401 235.539 143.639 235.504ZM119.843 244.759C133.681 245.115 147.454 246.722 160.987 249.558C161.105 249.672 160.284 252.414 158.995 255.728L156.65 262.583C156.65 263.117 155.673 263.231 153.72 262.926C143.991 261.441 115.858 261.555 105.074 263.155C98.8608 264.069 98.0403 263.955 98.5092 262.698L99.6814 258.699L100.385 255.614L106.715 252.414C110.935 250.318 114.939 247.831 118.671 244.987H119.726L119.843 244.759ZM88.1938 260.984C88.5846 260.984 89.2097 261.289 90.0694 261.898C91.2416 262.583 92.6482 263.155 93.2343 263.155C96.282 263.155 97.9231 267.382 100.502 281.436L101.44 286.464C101.674 287.606 101.44 287.835 98.7436 288.406C95.4615 289.092 94.6409 289.206 94.6409 288.749C94.6409 287.606 91.3588 273.095 89.9521 267.954L88.0766 261.098H88.1938V260.984ZM121.719 263.269H125.118L123.946 264.412C121.953 266.697 121.015 266.811 119.609 265.326L118.437 263.612C118.437 263.383 119.96 263.155 121.719 263.155V263.269ZM128.869 263.269H135.199L133.792 264.64C132.151 266.468 132.034 266.468 130.276 264.64L128.869 263.155V263.269ZM138.481 263.269H140.005C140.826 263.269 142.349 263.269 143.287 263.498L145.046 263.84L143.404 265.326C142.389 266.24 141.763 266.697 141.529 266.697L139.888 264.869L138.481 263.269ZM148.445 263.612L149.852 263.955C150.672 264.183 152.43 264.297 153.72 264.412H156.064L154.306 265.897L152.196 267.382C152.079 267.382 151.024 266.468 150.203 265.44L148.445 263.612ZM113.044 263.726H113.279C113.357 264.107 112.966 264.754 112.107 265.668L110.935 267.268L109.176 265.897L107.418 264.412L110.231 264.069L113.044 263.726ZM115.741 263.955L117.616 265.554L119.492 267.268L115.975 267.497L112.458 267.611L114.099 265.897L115.741 263.955ZM136.84 263.955C137.153 263.955 137.465 264.069 137.778 264.297L139.302 266.24C139.927 267.078 139.536 267.459 138.13 267.382L135.199 266.811L133.792 266.468L135.316 264.983C135.941 264.221 136.488 263.84 136.957 263.84L136.84 263.955ZM127.111 263.955C127.658 263.878 128.283 264.374 128.986 265.44C129.807 266.697 129.807 266.697 126.642 266.697H123.477L125.118 265.211C125.9 264.45 126.564 264.069 127.111 264.069V263.955ZM147.038 264.183L148.445 265.554C150.086 267.078 150.32 267.839 149.148 267.839L145.866 267.497L143.287 267.268L145.163 265.783L147.038 264.183ZM105.777 264.983C106.011 264.983 106.949 265.554 107.652 266.354L109.059 267.839L106.128 268.296L102.026 268.868C101.166 269.096 101.557 268.487 103.198 267.04C104.526 265.745 105.386 265.059 105.777 264.983ZM101.44 264.983H101.909C102.846 265.211 102.846 265.44 101.205 267.04L99.4469 268.754L98.8608 267.268C98.392 266.126 98.5092 265.783 99.5642 265.326L101.44 264.983ZM155.361 267.04C155.595 267.04 155.595 267.268 155.361 267.725C155.126 268.639 154.071 268.868 154.071 267.954C154.071 267.725 154.345 267.459 154.892 267.154L155.361 267.04ZM130.276 268.868C139.302 268.868 148.445 269.096 150.672 269.325C154.306 269.782 154.658 269.896 154.658 271.267C154.658 272.867 154.189 272.981 149.265 272.181C147.859 271.839 141.881 271.381 136.137 270.924C124.989 270.27 113.803 270.653 102.729 272.067C100.502 272.296 99.9158 272.067 99.9158 271.381C99.9158 269.896 111.872 268.868 130.276 268.868ZM118.202 272.181H124.532L123.125 273.667C121.367 275.495 121.25 275.495 119.609 273.667L118.202 272.181ZM126.408 272.181L128.049 273.781L129.69 275.609L126.29 275.723H122.891L124.649 273.895L126.408 272.181ZM128.869 272.181H135.199L133.792 273.667C132.151 275.495 132.034 275.495 130.276 273.667L128.869 272.181ZM113.865 272.181C114.099 272.181 113.826 272.753 113.044 273.895C112.107 275.038 111.521 275.647 111.286 275.723C110.895 275.647 110.309 275.152 109.528 274.238L108.121 272.753H110.231C111.304 272.758 112.371 272.604 113.396 272.296L113.865 272.181ZM116.209 272.753L117.733 274.124L119.492 275.609L116.444 275.838L113.044 276.066L114.686 274.352L116.209 272.753ZM136.606 272.753L138.247 274.581C140.122 276.523 140.005 276.637 135.785 275.838L133.792 275.495L135.199 274.124L136.606 272.753ZM138.95 272.753H141.763C144.733 272.676 145.28 273.362 143.404 274.809C141.998 275.952 141.998 275.952 140.357 274.238L138.95 272.753ZM103.081 273.324C104.487 273.324 104.37 273.438 102.612 275.152C101.322 276.409 101.205 276.409 100.736 275.495C100.502 274.276 101.283 273.552 103.081 273.324ZM148.562 273.552C149.109 273.552 149.891 273.629 150.907 273.781L153.603 274.238L152.079 275.609L150.672 276.98L149.383 275.381L148.21 273.552H148.562ZM106.363 274.124C106.676 274.124 107.105 274.39 107.652 274.924C108.825 276.066 108.825 276.066 107.887 276.523L105.074 276.98H103.198L104.722 275.381C105.503 274.619 106.011 274.2 106.246 274.124H106.363ZM146.335 274.467C146.726 274.39 147.195 274.771 147.742 275.609L148.797 276.98H146.335C144.772 276.98 143.991 276.752 143.991 276.295C144.225 275.761 144.733 275.266 145.514 274.809L146.335 274.467ZM153.837 275.952C154.071 275.952 154.15 276.142 154.071 276.523C154.071 277.666 153.016 278.466 152.548 277.666C152.469 277.285 152.665 276.866 153.134 276.409L153.837 275.952ZM123.477 277.323C133.675 277.323 144.928 278.009 151.61 279.151L153.485 279.494V284.521C153.485 288.292 153.251 289.549 152.665 289.549L146.804 288.406C133.249 286.166 119.44 285.781 105.777 287.264L103.081 287.606L102.377 283.379L101.909 279.037C101.909 279.037 104.605 278.466 107.77 278.123C111.638 277.552 117.382 277.323 123.477 277.323Z" fill="black" style="fill:black;fill-opacity:1;"/>
<path id="zw-b" d="M143.991 248.758C140.474 248.758 138.013 251.158 138.013 254.7C138.013 260.184 144.343 262.927 148.094 259.042C151.845 255.157 149.266 248.758 143.991 248.758ZM143.991 250.129C145.234 250.129 146.427 250.611 147.306 251.468C148.186 252.325 148.68 253.488 148.68 254.7C148.68 258.128 144.811 260.413 141.647 258.927C138.482 257.214 138.716 251.958 142.115 250.586L143.991 250.129Z" fill="black" style="fill:black;fill-opacity:1;"/>
<path id="zw-b_2" d="M120.429 248.073C116.913 248.073 114.451 250.472 114.451 254.014C114.451 259.499 120.781 262.241 124.532 258.356C128.283 254.471 125.704 248.073 120.429 248.073ZM120.429 249.444C121.673 249.444 122.866 249.925 123.745 250.783C124.624 251.64 125.118 252.802 125.118 254.014C125.118 257.442 121.25 259.727 118.085 258.242C114.92 256.528 115.154 251.272 118.554 249.901L120.429 249.444Z" fill="black" style="fill:black;fill-opacity:1;"/>
<path id="Vector_11" d="M100.854 165.92C100.365 165.949 99.9028 166.163 99.5568 166.521C99.2108 166.88 99.0049 167.357 98.9785 167.862C98.9785 168.424 99.1946 168.962 99.5793 169.359C99.964 169.756 100.486 169.979 101.03 169.979C101.574 169.979 102.096 169.756 102.48 169.359C102.865 168.962 103.081 168.424 103.081 167.862C103.068 167.58 102.999 167.304 102.877 167.051C102.756 166.798 102.586 166.573 102.377 166.391C102.168 166.209 101.925 166.073 101.663 165.992C101.401 165.911 101.126 165.886 100.854 165.92ZM100.971 166.605C101.325 166.604 101.666 166.733 101.927 166.966C102.187 167.199 102.348 167.519 102.378 167.862C102.378 168.196 102.23 168.515 101.966 168.751C101.702 168.987 101.344 169.119 100.971 169.119C100.598 169.119 100.24 168.987 99.9766 168.751C99.7128 168.515 99.5646 168.196 99.5646 167.862C99.5941 167.519 99.7552 167.199 100.016 166.966C100.277 166.733 100.618 166.604 100.971 166.605Z" fill="black" style="fill:black;fill-opacity:1;"/>
</g>
</g>
</g>
</g>
<defs>
<clipPath id="clip0_2194_11782">
<rect width="640" height="480" fill="white" style="fill:white;fill-opacity:1;"/>
</clipPath>
</defs>
</svg>
