<svg width="640" height="480" viewBox="0 0 640 480" fill="none" xmlns="http://www.w3.org/2000/svg">
<g id="ad" clip-path="url(#clip0_2194_3)">
<path id="Vector" d="M0 0H640V480H0V0Z" fill="#D0103A" style="fill:#D0103A;fill:color(display-p3 0.8157 0.0627 0.2275);fill-opacity:1;"/>
<path id="Vector_2" d="M0 0H435.2V480H0V0Z" fill="#FEDF00" style="fill:#FEDF00;fill:color(display-p3 0.9961 0.8745 0.0000);fill-opacity:1;"/>
<path id="Vector_3" d="M0 0H204.8V480H0V0Z" fill="#0018A8" style="fill:#0018A8;fill:color(display-p3 0.0000 0.0941 0.6588);fill-opacity:1;"/>
<path id="Vector_4" d="M300.4 136.6C308.1 136.6 311.3 143.2 319 143.2C323.7 143.2 326.5 141.7 330.7 139.3C333.6 137.7 335.4 136.8 338.7 136.8C342.1 136.8 344.2 137.8 346 140.8C347 142.4 347.8 145.7 347.3 147.5C346.705 150.357 345.8 153.14 344.6 155.8C343.9 157.4 343.3 158.3 343.3 160C343.3 164.1 348.9 165.5 352.7 165.6C353.5 165.6 360.4 165.6 364.7 161.4C362.4 161.3 359.8 159.4 359.8 157.1C359.8 154.5 361.6 152.8 364.1 152C364.6 151.9 365.4 152.3 365.8 152C366.5 151.7 366.2 151 366.8 150.6C368 149.6 368.8 149 370.4 149C371.266 148.933 372.1 149.167 372.9 149.7C373.233 150.167 373.566 150.433 373.9 150.5C375.1 150.5 375.7 149.7 376.9 149.7C377.704 149.712 378.493 149.918 379.2 150.3C379.8 150.6 379.8 151.8 380.6 151.8C381 151.8 383 150.9 384.1 150.9C386.3 150.9 387.5 151.7 388.9 153.4C389.3 153.9 389.5 154.8 389.9 154.8C390.885 154.867 391.838 155.175 392.676 155.698C393.513 156.222 394.208 156.944 394.7 157.8C395 158.2 395.4 159.2 395.8 159.3C396.4 159.6 396.8 159.5 397.5 160C398.319 160.515 399.001 161.221 399.489 162.056C399.977 162.892 400.255 163.834 400.3 164.8C400.233 165.6 400.066 166.333 399.8 167C398 173.5 393.5 175.6 389 181.3C387 183.7 385.5 185.6 385.5 188.7C385.5 189.4 386.5 190.8 386.8 191.4C386.6 190 387.3 188.2 388.8 188.1C389.795 188.095 390.756 188.461 391.496 189.127C392.235 189.793 392.7 190.71 392.8 191.7L392.5 193.5C393.718 192.753 395.082 192.276 396.5 192.1H398.4C401.7 192.1 405.4 194 407.7 195.9C410.107 197.967 412.014 200.552 413.278 203.462C414.542 206.372 415.131 209.53 415 212.7C414.2 217.9 414.7 227.5 401.2 231.3C403.7 232.3 405.4 234.3 405.4 236.5C405.427 237.099 405.333 237.698 405.125 238.261C404.918 238.823 404.599 239.339 404.189 239.777C403.779 240.214 403.286 240.566 402.738 240.81C402.191 241.055 401.599 241.187 401 241.2C400.346 241.272 399.685 241.182 399.075 240.938C398.464 240.694 397.923 240.303 397.5 239.8C394.7 242.6 394.2 245.5 394.2 249.5C394.2 251.9 394.6 253.3 395.6 255.5C396.6 257.7 397.4 259 399.3 260.6C400.166 259 401.5 258.133 403.3 258C405.1 257.933 406.4 258.667 407.2 260.2C407.4 260.7 407.2 261.1 407.5 261.6C407.8 262.2 408.3 262.3 408.6 262.9C409.1 263.9 408.6 264.7 409.1 265.6C409.4 266.3 410 266.4 410.3 267C410.7 268 410.8 268.6 410.8 269.7C410.8 272.7 408.1 274.9 405.1 274.9C404.1 274.9 403.7 274.5 402.8 274.6C404.5 276.3 405.8 277.1 407.1 279.1C409.123 282.149 410.17 285.742 410.1 289.4C410.18 293.316 409.213 297.183 407.3 300.6C405.808 304.033 403.382 306.978 400.3 309.1C395.583 312.534 390.083 314.734 384.3 315.5C380.673 316.241 376.996 316.709 373.3 316.9L359.2 317.7C352 318.1 347 319.2 341.9 324.3C344.3 326 345.9 327.8 345.9 330.7C345.766 333.833 344.2 335.9 341.2 336.9C340.5 337.1 340 336.9 339.3 337.3C338.6 337.7 338.6 338.6 337.9 339C336.781 339.751 335.443 340.103 334.1 340C332.914 340.085 331.725 339.905 330.618 339.472C329.511 339.04 328.514 338.366 327.7 337.5C325.5 339.3 324.7 340.9 322.2 342.4C321.4 342.8 321 343.4 320.1 343.4C318.6 343.4 317.9 342.4 316.7 341.6C315.066 340.463 313.587 339.118 312.3 337.6C310 338.9 308.7 340 306 340C304.596 340.076 303.202 339.727 302 339C301.4 338.5 301.2 337.8 300.5 337.4C299.8 337 299.2 337.1 298.4 336.7C295.4 335.4 293.4 333.2 293.4 329.9C293.4 327 295.2 325.2 297.8 323.9C292.8 318.9 287.8 318.1 280.8 317.7L266.8 316.9C262.4 316.6 260 316.2 255.8 315.5C252.5 315 250.6 314.8 247.6 313.4C237.4 308.6 230.8 302.1 229.6 290.9C229.4 289.9 229.4 289.4 229.4 288.4C229.4 282.6 231.7 279 235.8 274.9C234.8 274.6 234.1 274.9 233 274.6C230.5 273.6 228.6 271.9 228.6 269.1C228.533 268.167 228.7 267.3 229.1 266.5C229.5 265.9 230.1 265.8 230.3 265.1C230.5 264.1 230.3 263.5 230.7 262.6C231 262.1 231.5 262 231.7 261.4C232.7 259.5 233.7 258 235.8 258C237.6 258.067 238.866 258.9 239.6 260.5C241.4 259.7 241.8 258.4 242.8 256.8C243.979 254.815 244.714 252.599 244.956 250.303C245.198 248.008 244.94 245.687 244.2 243.5C243.8 242 243.6 241 242.4 239.8C241.466 240.733 240.333 241.2 239 241.2C236.1 241.2 234 238.7 234 235.9C233.996 234.924 234.279 233.969 234.812 233.151C235.345 232.334 236.105 231.69 237 231.3C235.4 229.9 234 229.8 232.3 228.7C229.7 227.1 228.8 225.3 227.1 222.7C225.9 221.1 225.6 219.9 225.1 218C224.226 215.498 223.886 212.841 224.1 210.2C224.7 205.2 225.6 202.2 228.7 198.3C230.5 196 231.7 194.6 234.5 193.4C236.8 192.4 238.2 191.7 240.7 191.7L242.7 191.8C243.679 191.868 244.633 192.14 245.5 192.6C245.9 192.8 246.6 193.5 246.6 193C246.6 192.5 246.3 192.2 246.3 191.7C246.3 189.7 247.8 187.7 249.9 187.7C251.4 187.7 252 189.1 252.8 190.4C253.2 189.733 253.433 188.967 253.5 188.1C253.5 184.7 251.6 182.9 249.5 180.2C244.8 174.4 239 171.7 239 164.2C239 162.067 240 160.433 242 159.3C242.5 159 243.3 159.3 243.8 159C244.3 158.7 244.2 158 244.5 157.6C244.966 157 245.5 156.467 246.1 156C247.1 155 248.1 155.4 249.2 154.5C249.733 154.033 250.133 153.567 250.4 153.1C251.7 151.5 252.9 150.7 255 150.7C255.866 150.633 256.7 150.767 257.5 151.1L258.5 151.6C258.833 151.267 259.333 150.9 260 150.5C260.659 150.091 261.424 149.882 262.2 149.9C263.3 149.9 264 150.5 265.2 150.5C265.4 150.367 265.666 150.167 266 149.9C267 149.2 267.5 148.9 268.7 148.9C269.9 148.9 270.5 149.2 271.5 149.9C272.5 150.4 272.5 151.2 273.5 151.7C274.033 151.9 274.533 152.033 275 152.1C277.6 153 279.5 154.7 279.5 157.4C279.566 158.8 279.1 159.967 278.1 160.9C277.2 161.6 276.4 161.5 275.3 161.9C278.481 164.467 282.524 165.72 286.6 165.4C290.8 165.4 295.9 163.7 295.9 159.5C295.9 157.5 294.9 156.5 294.1 154.7C292.748 152.069 292.029 149.158 292 146.2C292 143.4 292.3 141.7 293.9 139.5C295.5 137.3 297.5 136.6 300.4 136.6Z" fill="#C7B37F" style="fill:#C7B37F;fill:color(display-p3 0.7804 0.7020 0.4980);fill-opacity:1;"/>
<g id="Group">
<path id="Vector_5" d="M272.4 159C272.6 159.552 272.918 160.052 273.333 160.467C273.747 160.882 274.248 161.2 274.8 161.4C275.6 161.7 277.5 161.6 278.6 160C279.6 158.8 279.6 157.2 279.2 156C278.853 155.121 278.263 154.358 277.5 153.8L272.4 159Z" stroke="#703D29" style="stroke:#703D29;stroke:color(display-p3 0.4392 0.2392 0.1608);stroke-opacity:1;" stroke-width="0.7" stroke-linejoin="round"/>
<path id="Vector_6" d="M401 236.1C399.8 233.2 396.7 234.5 396.6 236.1C396.1 239.8 399.3 240.9 401.6 240.3C402.132 240.157 402.628 239.905 403.059 239.561C403.489 239.217 403.843 238.788 404.1 238.3C404.767 237.233 404.9 236 404.5 234.6L403.7 233L402.4 231.8C401.6 231.333 400.467 231.133 399 231.2C393.5 231.2 388.6 237.7 387 244.6C386.4 246.8 385.7 251.9 386.7 256.6C387.508 260.866 389.561 264.798 392.6 267.9C395.427 270.546 398.809 272.528 402.5 273.7C403.803 274.072 405.18 274.106 406.5 273.8C409.7 273.1 411.2 270 409.5 266.8C408.2 264.3 404.2 262.8 402.3 266.2C402.1 266.533 401.967 267.033 401.9 267.7C401.9 268.6 402.3 269.7 402.9 270.1C404.4 271 406.7 270.7 406.6 268.1" stroke="#703D29" style="stroke:#703D29;stroke:color(display-p3 0.4392 0.2392 0.1608);stroke-opacity:1;" stroke-width="0.7" stroke-linecap="round"/>
<path id="Vector_7" d="M383.8 274C385.493 272.025 387.832 270.714 390.4 270.3C393.333 270.033 396.067 270.7 398.6 272.3C401.812 273.837 404.528 276.246 406.438 279.251C408.347 282.257 409.374 285.739 409.4 289.3C409.4 292.9 408.4 296.8 407.4 298.7C406.6 300.4 404.4 307.7 392.1 312.7C385 315.7 374.1 316.3 366.4 316.7C356 317 346.4 317.4 340.9 324.3" stroke="#703D29" style="stroke:#703D29;stroke:color(display-p3 0.4392 0.2392 0.1608);stroke-opacity:1;" stroke-width="0.8"/>
<g id="Group_2">
<path id="Vector_8" d="M386.4 285.7C386.133 284.7 386.4 283.6 387.2 282.4C388.4 280.8 390.9 280.3 393.2 281.4C394.198 281.922 395.056 282.676 395.7 283.6L396.8 285.2C397.466 286.333 397.8 287.167 397.8 287.7C400.3 294.7 396.4 302.2 391.3 305.3C387.3 307.7 382.6 308.7 376.9 309.3C374.4 309.7 372.9 309.6 370.4 309.8H353.6C350.7 310.1 348.6 310.2 346 310.6C344.4 310.8 342.6 311.133 340.6 311.6C340 311.6 339.4 311.733 338.8 312L337.6 312.3C333.933 313.367 330.666 314.767 327.8 316.5C326.933 316.967 326.1 317.533 325.3 318.2L324 319.4C322 321.4 320.1 323.4 319.6 326.1V327.7C319.6 329.5 321 332 325 332.7M330.5 162.7C331.3 164.1 331.8 165 331.3 166.6C330.7 168.4 329.5 169.333 327.7 169.4C323.7 169.4 321.4 164.6 323.2 161.6C326.4 156.3 332.5 159.3 338.2 161.9C337.9 160.6 337.4 160.1 337.5 158.4C337.6 154.2 340.7 152.4 342 148.4C342.7 146.1 343 144.1 341.3 142.4C339.833 141.2 338.133 141 336.2 141.8C332.4 143.3 327.7 147.7 319.6 147.8C311.4 147.7 306.8 143.3 302.9 141.8C300.9 141 299.2 141.233 297.8 142.5C296.1 144.1 296.4 146.1 297.1 148.5C298.4 152.3 301.5 154.2 301.6 158.5C301.6 160.1 301.2 160.5 300.9 161.9C306.6 159.3 312.9 156 315.9 161.6C317.6 164.8 315.4 169.3 311.4 169.3C309.6 169.3 308.4 168.4 307.8 166.6C307.466 165.133 307.733 163.8 308.6 162.6" stroke="#703D29" style="stroke:#703D29;stroke:color(display-p3 0.4392 0.2392 0.1608);stroke-opacity:1;" stroke-width="0.7"/>
<path id="Vector_9" d="M314.6 159.9C315.449 160.404 316.129 161.147 316.556 162.037C316.984 162.927 317.138 163.923 317 164.9C316.8 167.4 316.2 168 314.2 169.4M316.6 165.6C316.6 167.067 315.833 168.1 314.3 168.7" stroke="#703D29" style="stroke:#703D29;stroke:color(display-p3 0.4392 0.2392 0.1608);stroke-opacity:1;" stroke-width="0.7" stroke-linecap="round"/>
</g>
<path id="Vector_10" d="M276.7 153.3L277.4 153.8L278.2 154.6L278.7 155.6L278.9 156.4V158.3L278.7 159.1L278.2 159.7L277.6 160.3L276.7 160.8L275.7 161L274.7 161.2L273.7 160.7L272.8 160.1L272.3 159.3L271.9 158.3V157.9L276.7 153.3Z" fill="#C7B37F" style="fill:#C7B37F;fill:color(display-p3 0.7804 0.7020 0.4980);fill-opacity:1;"/>
<path id="Vector_11" d="M275.2 157.2C274.9 155.5 273 155.2 272.2 156.2C271.1 157.7 271.9 160.2 274.2 160.9C274.916 161.045 275.658 160.991 276.346 160.744C277.033 160.498 277.64 160.067 278.1 159.5C279.1 158.2 279 156.7 278.6 155.5C278.253 154.621 277.663 153.858 276.9 153.3C274.2 151.3 269.8 151.7 268.3 155.3C266.5 159.7 270.5 163.1 274.3 165.6C278.9 168.8 284.3 169.4 288.3 169.4C297.5 169.3 304.5 164.9 309 162.4C310.133 161.8 311.033 161.867 311.7 162.6C311.999 163.005 312.134 163.508 312.079 164.009C312.023 164.509 311.781 164.97 311.4 165.3" stroke="#703D29" style="stroke:#703D29;stroke:color(display-p3 0.4392 0.2392 0.1608);stroke-opacity:1;" stroke-width="0.7" stroke-linecap="round"/>
<path id="Vector_12" d="M248 281.2L246 281.9L244 283.5L243 284.8L241.9 286.8L241.4 288.3L241 290.1L240.8 291.5M259.8 281.4L259.7 283.2L259.4 284.4L258.4 286.6L257.1 288.4L255.6 289.6L254.5 290.1L252.9 290.5" stroke="#703D29" style="stroke:#703D29;stroke:color(display-p3 0.4392 0.2392 0.1608);stroke-opacity:1;" stroke-width="0.7"/>
<path id="Vector_13" d="M319.7 329.1C319.4 330.8 317.8 332.7 314.4 333.3L313.8 333.5" stroke="#703D29" style="stroke:#703D29;stroke:color(display-p3 0.4392 0.2392 0.1608);stroke-opacity:1;" stroke-width="0.8"/>
<path id="Vector_14" d="M404.2 276.2C406.026 277.933 407.467 280.031 408.432 282.356C409.396 284.681 409.863 287.183 409.8 289.7C409.8 293.3 408.8 297.2 407.8 299.1C407 300.8 404.8 308.1 392.5 313.1C384.221 315.734 375.588 317.083 366.9 317.1C356.6 317.4 347.1 317.8 341.5 324.4" stroke="#703D29" style="stroke:#703D29;stroke:color(display-p3 0.4392 0.2392 0.1608);stroke-opacity:1;" stroke-width="0.9"/>
<path id="Vector_15" d="M387.5 282.9C388.3 281.9 391 280.5 393.3 281.8C394.226 282.258 395.018 282.947 395.6 283.8" stroke="#703D29" style="stroke:#703D29;stroke:color(display-p3 0.4392 0.2392 0.1608);stroke-opacity:1;" stroke-width="0.6"/>
<path id="Vector_16" d="M401.6 273.8L403 274.3C404.305 274.689 405.695 274.689 407 274.3C409.8 273.5 411.6 270.9 410.2 267.4C409.771 266.569 409.155 265.85 408.4 265.3" stroke="#703D29" style="stroke:#703D29;stroke:color(display-p3 0.4392 0.2392 0.1608);stroke-opacity:1;" stroke-width="0.9"/>
<path id="Vector_17" d="M240.3 199.8C238.3 200.9 237 201.2 235.5 202.9C234.341 205.044 233.467 207.33 232.9 209.7M278.9 158C278.833 159.8 277.833 160.867 275.9 161.2" stroke="#703D29" style="stroke:#703D29;stroke:color(display-p3 0.4392 0.2392 0.1608);stroke-opacity:1;" stroke-width="0.7" stroke-linecap="round"/>
<path id="Vector_18" d="M397.1 192C399.63 192.051 402.124 192.607 404.436 193.635C406.749 194.663 408.832 196.143 410.565 197.987C412.297 199.832 413.644 202.004 414.526 204.376C415.408 206.748 415.807 209.272 415.7 211.8C415.7 227.8 405.8 230.3 401.9 231.4" stroke="#703D29" style="stroke:#703D29;stroke:color(display-p3 0.4392 0.2392 0.1608);stroke-opacity:1;" stroke-width="0.6"/>
<path id="Vector_19" d="M398.4 192C406.5 191.7 414.9 197.7 415.3 212.7C415.6 224.4 407.3 229.7 403.3 230.7" stroke="#703D29" style="stroke:#703D29;stroke:color(display-p3 0.4392 0.2392 0.1608);stroke-opacity:1;" stroke-width="0.7"/>
<path id="Vector_20" d="M393.8 248.4L393.9 246.8L394.5 244.3L395.2 242.3L396.1 240.7L397.1 239.4M404.9 236V237.5L404.4 238.5L403.7 239.6L402.9 240.2L401.7 240.7H400.6L399.8 240.6M385.5 187.8L385.8 186.1L386.6 184.5L387.6 183L389.2 180.8L390.6 179.4L392.6 177.2L394.6 175.3L395.7 174L397.2 172.1L398.6 170.1L399.4 168.4L399.9 166.2L400 163.5L399.8 162.7M387.5 290.9L389.1 290.5L390.3 289.9L391 289.2L391.5 288.4L391.8 287.2V286.3M233.6 274.2H236.3L237.9 273.6M242.9 237.1L242.7 238.5L242.3 239.1L241.9 239.7L241.2 240.2L240.5 240.5L239.5 240.6H238.9M248.8 225.1L248.5 227.2L248 228.2L247.2 229.4L246 230.3L244.8 230.9L242.5 231.4M257.8 191.7L257.3 193L256.8 194L256 195L255 196L253.8 196.5L252.7 196.8L252.1 196.7M252.4 190.5V191.5" stroke="#703D29" style="stroke:#703D29;stroke:color(display-p3 0.4392 0.2392 0.1608);stroke-opacity:1;" stroke-width="0.6"/>
<g id="Group_3">
<path id="Vector_21" d="M254.3 224C253.69 224.59 252.979 225.064 252.2 225.4M402.7 270.2L403.2 270.4C404.6 271.2 407.4 270.2 406.6 268" stroke="#703D29" style="stroke:#703D29;stroke:color(display-p3 0.4392 0.2392 0.1608);stroke-opacity:1;" stroke-width="0.6" stroke-linecap="round"/>
<path id="Vector_22" d="M397.8 239.6C398.8 240.9 400.7 241.3 402.2 240.9C402.732 240.757 403.228 240.505 403.659 240.161C404.089 239.817 404.443 239.387 404.7 238.9C405.366 237.833 405.5 236.6 405.1 235.2L404.2 233.6L402.9 232.1L402.5 231.9M408.9 265.9L409 265.2C409.007 264.637 408.894 264.078 408.67 263.561C408.446 263.044 408.115 262.58 407.7 262.2L406.9 261.4M407.3 261.9C407.3 260.1 405.8 258.7 403.9 258.4M399.7 261.2L398.4 260.2C395.686 257.292 394.153 253.477 394.1 249.5C394.1 245.3 395.7 241.1 397.7 239.5M341.2 324L343 322.4L344.2 321.4L346.5 320L348.7 319L350.3 318.5L353.3 317.9L356.9 317.3M327.4 336.7C325.516 339.431 322.874 341.552 319.8 342.8C316.754 341.504 314.124 339.393 312.2 336.7" stroke="#703D29" style="stroke:#703D29;stroke:color(display-p3 0.4392 0.2392 0.1608);stroke-opacity:1;" stroke-width="0.6"/>
<path id="Vector_23" d="M314.4 332.6C314.014 334.156 313.259 335.597 312.2 336.8" stroke="#703D29" style="stroke:#703D29;stroke:color(display-p3 0.4392 0.2392 0.1608);stroke-opacity:1;" stroke-width="0.6" stroke-linecap="round"/>
<path id="Vector_24" d="M314.7 330.5L314.3 332.7M312 337L311 338L309.3 338.9L307.3 339.5M301.7 161.7C302 160.9 302.2 160.3 302.2 159.1C302.1 154.9 299 153 297.7 149.1M297.7 149.1C297 146.8 296.7 144.8 298.4 143.1C299.866 141.767 301.533 141.567 303.4 142.5C307.4 144 312 148.3 320.1 148.5C312 148.3 307.3 144 303.5 142.5C301.5 141.7 299.7 141.5 298.2 143C296.5 144.6 297 146.8 297.7 149.1ZM297.7 149.1C299 153 301.9 154.9 302 159.1C301.933 160.167 301.766 161.033 301.5 161.7M320 148C328 147.6 334.9 142.2 337.1 141.7C339.1 141.3 340.1 141.5 341.6 142.8C340.2 141.5 338.6 141.6 336.6 142.3C332.8 143.8 328.2 148.1 320 148.3M399.6 261.2C397.703 259.731 396.16 257.853 395.087 255.707C394.014 253.56 393.437 251.2 393.4 248.8C393.4 244.7 395.1 240.4 397 238.8M327 336.4C325.7 338.4 322.7 341.4 319.4 342.6C316.341 341.277 313.71 339.13 311.8 336.4" stroke="#703D29" style="stroke:#703D29;stroke:color(display-p3 0.4392 0.2392 0.1608);stroke-opacity:1;" stroke-width="0.6"/>
<path id="Vector_25" d="M306.7 163.7L309 162.4C310 161.8 311.3 161.9 311.9 162.6C312.5 163.3 312.6 164.6 311.7 165.4" stroke="#703D29" style="stroke:#703D29;stroke:color(display-p3 0.4392 0.2392 0.1608);stroke-opacity:1;" stroke-width="0.6" stroke-linecap="round"/>
<path id="Vector_26" d="M294.7 169.3C300.2 168.1 304.7 165.7 308.1 163.8M340.3 328C340.8 328.3 341.1 329 341.1 329C341.233 329.2 341.333 329.467 341.4 329.8C341.7 331.3 340.7 332.2 339.4 332.4C337.7 332.6 336.4 331.6 335.9 330.4M294.4 169C299.9 167.9 304.4 165.4 307.8 163.5M405.4 270.4C404.4 270.8 403.8 270.7 402.4 270.2L400.6 269.2C396.963 267.107 394.038 263.972 392.2 260.2C391.437 258.747 390.865 257.2 390.5 255.6C390.18 254.529 390.012 253.418 390 252.3C389.918 246.833 391.563 241.479 394.7 237C395.8 235.4 396.8 234.5 398.9 234.4M255.2 195.1C256.064 195.773 256.759 196.639 257.228 197.629C257.697 198.619 257.927 199.705 257.9 200.8C257.9 203.9 255.3 209 248.9 210.8C247.85 211.104 246.75 211.189 245.667 211.052C244.583 210.914 243.539 210.556 242.6 210" stroke="#703D29" style="stroke:#703D29;stroke:color(display-p3 0.4392 0.2392 0.1608);stroke-opacity:1;" stroke-width="0.6"/>
<path id="Vector_27" d="M256.3 205.6C257.367 206.267 257.9 207.367 257.9 208.9C257.9 209.967 257.267 211.2 256 212.6C254.891 213.841 253.535 214.837 252.02 215.525C250.506 216.214 248.864 216.58 247.2 216.6C245.2 216.667 243.2 216.1 241.2 214.9C239.295 213.647 237.937 211.717 237.4 209.5" stroke="#703D29" style="stroke:#703D29;stroke:color(display-p3 0.4392 0.2392 0.1608);stroke-opacity:1;" stroke-width="0.6"/>
<path id="Vector_28" d="M256.2 212.3C257.4 213.5 257.967 215.033 257.9 216.9C257.967 219.5 256.733 221.833 254.2 223.9C253.667 224.433 253 224.933 252.2 225.4M381.7 203.3V206.8M381.4 202.4V207.4M381.7 191.6V198.2M381.4 190.2V199.1M379.5 281.1C378.459 283.211 377.035 285.11 375.3 286.7C373.627 288.402 371.662 289.79 369.5 290.8C367.413 291.837 365.192 292.578 362.9 293C360.671 293.536 358.392 293.837 356.1 293.9C353.6 293.9 352.2 293.9 349.7 293.7C347.2 293.5 345.7 293.1 343 292.9C340.8 292.7 339.6 292.5 337.4 292.6C333.65 292.457 329.909 293.069 326.4 294.4C323.8 295.4 320.7 297.4 320.1 298.2C318.198 296.579 316.034 295.294 313.7 294.4C312.062 293.73 310.35 293.26 308.6 293C306.3 292.6 305.1 292.6 302.8 292.6C300.5 292.6 299.4 292.7 297.2 292.9C294.6 293.2 293.2 293.5 290.5 293.7C288 293.9 286.6 294 284.1 293.9C279.472 293.851 274.907 292.829 270.7 290.9C268.265 289.747 266.088 288.115 264.3 286.1M306.4 339.5L308.2 339.3M338.5 336.9L340.3 336.8L342 336.1L343.2 335.3L344.9 333.3L345.2 332.7L345.5 331V330.2M392.5 193.5C393.2 190.9 392.3 188.1 389.7 188.2M257.7 234.7C257.17 236.653 255.919 238.333 254.2 239.4M257.8 192.7C257.493 193.571 257.018 194.373 256.4 195.06C255.782 195.746 255.034 196.304 254.2 196.7C252.3 197.5 250.2 196.7 249 195.9" stroke="#703D29" style="stroke:#703D29;stroke:color(display-p3 0.4392 0.2392 0.1608);stroke-opacity:1;" stroke-width="0.6"/>
<path id="Vector_29" d="M243.8 202.4C245.3 203.2 246.9 202 246.6 200C246.447 199.427 246.128 198.913 245.683 198.521C245.238 198.13 244.687 197.879 244.1 197.8" stroke="#703D29" style="stroke:#703D29;stroke:color(display-p3 0.4392 0.2392 0.1608);stroke-opacity:1;" stroke-width="0.6" stroke-linecap="round"/>
<path id="Vector_30" d="M250.2 286.6C250.4 286.933 250.666 287.2 251 287.4C251.7 287.6 252.2 287.8 252.9 286.9C253.7 285.8 253.2 284.1 252.4 283C251.663 282.242 250.704 281.736 249.662 281.556C248.62 281.377 247.548 281.532 246.6 282C245.8 282.4 244.933 283.133 244 284.2L242.9 285.8C242.233 286.933 241.866 287.733 241.8 288.2C239.8 294.1 242.2 300.2 245.9 303.9" stroke="#703D29" style="stroke:#703D29;stroke:color(display-p3 0.4392 0.2392 0.1608);stroke-opacity:1;" stroke-width="0.6"/>
<path id="Vector_31" d="M340.2 327.8L340.9 328.6L341.1 329.5C341.4 331 340.4 331.9 339.1 332.1C337.5 332.3 336.3 331.3 335.8 330.1" stroke="#703D29" style="stroke:#703D29;stroke:color(display-p3 0.4392 0.2392 0.1608);stroke-opacity:1;" stroke-width="0.6" stroke-linecap="round"/>
<path id="Vector_32" d="M389.4 154.8C391.099 155.054 392.658 155.891 393.807 157.169C394.957 158.446 395.626 160.083 395.7 161.8C395.7 166.2 394.2 167.8 391.9 171C389.4 174.4 381.2 180.6 381.2 187.7C381.067 191.967 382.5 194.767 385.5 196.1C387.5 197.1 389.8 196.1 390.9 195.1C393.5 192.7 392.4 188.6 389.7 188.1C386.5 187.5 385.8 192.7 389 192.4M406.9 261.4C406.692 260.585 406.232 259.856 405.585 259.318C404.939 258.779 404.139 258.458 403.3 258.4C402.319 258.4 401.378 258.79 400.684 259.484C399.99 260.178 399.6 261.119 399.6 262.1C399.6 263.167 399.933 264.033 400.6 264.7" stroke="#703D29" style="stroke:#703D29;stroke:color(display-p3 0.4392 0.2392 0.1608);stroke-opacity:1;" stroke-width="0.6"/>
<path id="Vector_33" d="M383.9 195.1C383.035 195.773 382.34 196.639 381.871 197.629C381.403 198.619 381.172 199.705 381.2 200.8C381.2 203.9 383.8 209 390.2 210.8C392.6 211.5 395 211.4 396.4 210.5M240.4 200.2C238.45 200.79 236.758 202.024 235.6 203.7C233.228 207.481 232.438 212.042 233.4 216.4C233.803 218.396 234.584 220.297 235.7 222L236.7 223.2L237.9 224.2M301.9 316.2C306.8 318.3 310.3 319.9 313.3 324.7C314.112 326.204 314.525 327.891 314.5 329.6C314.5 332.3 313.5 335.3 311.2 337.2C310.307 338.019 309.241 338.624 308.08 338.971C306.919 339.317 305.695 339.396 304.5 339.2C302.6 339 300.8 337.6 300.5 336.6M254 224.1C256.7 226.3 257.9 228.3 257.9 231.6C258.005 233.1 257.686 234.599 256.978 235.925C256.271 237.252 255.204 238.352 253.9 239.1" stroke="#703D29" style="stroke:#703D29;stroke:color(display-p3 0.4392 0.2392 0.1608);stroke-opacity:1;" stroke-width="0.6"/>
<path id="Vector_34" d="M251.5 236.4C255.5 241.5 257.8 244.5 257.9 250.5C258 256.2 256.2 260.1 252.9 264.2" stroke="#703D29" style="stroke:#703D29;stroke:color(display-p3 0.4392 0.2392 0.1608);stroke-opacity:1;" stroke-width="0.6" stroke-linecap="round"/>
<path id="Vector_35" d="M329.8 169.3C330.536 168.76 331.066 167.983 331.3 167.1C331.833 165.633 331.766 164.3 331.1 163.1C331.966 164.433 332.2 165.767 331.8 167.1C331.7 168.1 331 168.6 330.2 169.4M381.7 255.5V271.7L381.6 274.2L381.3 275.9" stroke="#703D29" style="stroke:#703D29;stroke:color(display-p3 0.4392 0.2392 0.1608);stroke-opacity:1;" stroke-width="0.6"/>
<path id="Vector_36" d="M381.4 254V273.9L380.9 276.5M381.4 233.5V248.1M381.7 234.7V246.5M381.7 219.7V228.5M381.4 218.6V229.6M381.7 210.6V214.1M381.4 209.9V214.9M379.6 280.1L379.2 280.8C378.199 282.938 376.809 284.871 375.1 286.5C373.389 288.176 371.39 289.531 369.2 290.5C367.145 291.529 364.957 292.269 362.7 292.7C360 293.3 358.5 293.5 355.8 293.6C353.3 293.6 351.9 293.6 349.5 293.4C346.8 293.2 345.4 292.9 342.7 292.6C340.5 292.4 339.3 292.3 337.1 292.3C334.9 292.3 333.6 292.3 331.4 292.7C329.616 292.952 327.869 293.422 326.2 294.1C323.5 295.2 320.5 297.1 319.8 297.9C319.2 297.1 316.1 295.2 313.5 294.1C311.83 293.422 310.084 292.952 308.3 292.7C306.1 292.3 304.8 292.3 302.5 292.3C300.2 292.3 299.1 292.4 296.9 292.6C294.3 292.9 292.9 293.2 290.2 293.4C287.7 293.6 286.3 293.7 283.9 293.6C279.238 293.565 274.637 292.542 270.4 290.6C268.237 289.59 266.273 288.202 264.6 286.5L262.1 283.7M260.1 280.5C260.27 281.873 260.153 283.266 259.757 284.591C259.361 285.916 258.695 287.145 257.8 288.2C257 289.1 255.2 290.8 252.8 290.8C249.1 290.8 248 288.3 247.8 287.6" stroke="#703D29" style="stroke:#703D29;stroke:color(display-p3 0.4392 0.2392 0.1608);stroke-opacity:1;" stroke-width="0.6"/>
<path id="Vector_37" d="M255.6 278.9C256.266 279.567 256.9 280.4 257.5 281.4C258.5 283.2 258.1 286.2 257.4 287.6L257.1 288M236.8 306C239 308.533 242.633 310.9 247.7 313.1C254.8 316.1 265.8 316.7 273.4 317.1C283.4 317.4 292.7 317.8 298.4 324.1M315.7 320.1C317.536 321.509 318.925 323.419 319.7 325.6M312.4 337.1L311.7 337.8C310.819 338.604 309.768 339.202 308.626 339.548C307.484 339.894 306.279 339.98 305.1 339.8C303.1 339.6 301.3 338.2 300.8 337.2M295.4 334.3L295.7 334.7C297.052 336.092 298.865 336.945 300.8 337.1M327.8 337.1C325.848 339.808 323.182 341.92 320.1 343.2C317.054 341.904 314.424 339.793 312.5 337.1L312.2 336.6M327.8 337L328.5 337.7C329.392 338.519 330.459 339.124 331.62 339.471C332.78 339.817 334.004 339.896 335.2 339.7C336.001 339.575 336.768 339.289 337.456 338.859C338.143 338.43 338.737 337.865 339.2 337.2L339.7 336.5" stroke="#703D29" style="stroke:#703D29;stroke:color(display-p3 0.4392 0.2392 0.1608);stroke-opacity:1;" stroke-width="0.6"/>
<path id="Vector_38" d="M339 336.6L338.3 337.8L337.2 338.8L335.5 339.5H333.9" stroke="#703D29" style="stroke:#703D29;stroke:color(display-p3 0.4392 0.2392 0.1608);stroke-opacity:1;" stroke-width="0.6"/>
<path id="Vector_39" d="M343 325.3C344.019 326.062 344.842 327.056 345.4 328.2C345.666 328.867 345.833 329.633 345.9 330.5C345.958 332.041 345.421 333.545 344.4 334.7C342.972 336.16 341.04 337.018 339 337.1H338.6M338.8 336.9C337.828 336.914 336.863 336.726 335.968 336.348C335.073 335.969 334.266 335.408 333.6 334.7M397.3 266.8C395.353 264.95 393.73 262.787 392.5 260.4C391.745 258.978 391.173 257.466 390.8 255.9C390.48 254.829 390.312 253.718 390.3 252.6C390.189 247.144 391.799 241.791 394.9 237.3C395.6 236.5 396.3 235.5 397 235.1M395.7 159.2C398.2 159.4 400.5 162.2 400.5 164.9C400.5 168.7 399.2 170.4 396.1 174.2C393.5 177.4 385.5 183.2 385.8 188.7C385.866 189.767 386.233 190.7 386.9 191.5M383.7 195C384.279 195.58 384.956 196.054 385.7 196.4C386.393 196.674 387.14 196.789 387.884 196.737C388.628 196.685 389.351 196.468 390 196.1M369 153C369.969 153.636 370.733 154.539 371.2 155.6C373 160.1 369 163.5 365.2 166C362.702 167.682 359.871 168.808 356.9 169.3" stroke="#703D29" style="stroke:#703D29;stroke:color(display-p3 0.4392 0.2392 0.1608);stroke-opacity:1;" stroke-width="0.6"/>
<path id="Vector_40" d="M364.6 161.6C364.004 161.597 363.416 161.46 362.88 161.201C362.344 160.941 361.872 160.565 361.5 160.1L360.8 159.1M345.8 164L344.6 163C343.466 162.067 343.2 160.6 343.8 158.6C344.4 156.7 347.5 151.4 347.6 147.7C347.8 142.1 345.6 138.7 342.3 137.5" stroke="#703D29" style="stroke:#703D29;stroke:color(display-p3 0.4392 0.2392 0.1608);stroke-opacity:1;" stroke-width="0.6"/>
<path id="Vector_41" d="M347.3 146.5L347.2 148.5L346.6 150.7L345.6 153.7L344.6 155.6L343.8 157.5L343.4 158.8L343.2 159.8L343.3 160.7M381.3 287L381.9 287.8C382.6 288.8 385.1 290.8 387.4 290.8C391.1 290.8 392 288.2 392.1 287.6C392.6 284.7 391.6 284 390.1 283.1C390.1 283.1 389.3 282.7 388.2 282.9" stroke="#703D29" style="stroke:#703D29;stroke:color(display-p3 0.4392 0.2392 0.1608);stroke-opacity:1;" stroke-width="0.6" stroke-linecap="round"/>
<path id="Vector_42" d="M237 274.4C235.789 274.732 234.511 274.732 233.3 274.4C230.4 273.5 228.1 270.8 229.3 267.4M242.7 235.6C242.966 235.933 243.1 236.267 243.1 236.6C243.5 240.4 240.3 241.4 238.1 240.8C236.878 240.377 235.826 239.57 235.1 238.5C234.683 237.802 234.442 237.012 234.4 236.2M256.4 212.6C257 213.067 257.433 213.633 257.7 214.3M256.6 205.8C257.133 206.267 257.5 206.7 257.7 207.1" stroke="#703D29" style="stroke:#703D29;stroke:color(display-p3 0.4392 0.2392 0.1608);stroke-opacity:1;" stroke-width="0.6"/>
<path id="Vector_43" d="M257.9 210.5C257.499 211.381 256.959 212.191 256.3 212.9C255.191 214.141 253.836 215.137 252.321 215.825C250.806 216.514 249.164 216.88 247.5 216.9C245.5 216.967 243.5 216.4 241.5 215.2C239.546 213.865 238.129 211.881 237.5 209.6" stroke="#703D29" style="stroke:#703D29;stroke:color(display-p3 0.4392 0.2392 0.1608);stroke-opacity:1;" stroke-width="0.6" stroke-linecap="round"/>
<path id="Vector_44" d="M255.4 195.3C256.486 196.202 257.314 197.375 257.8 198.7" stroke="#703D29" style="stroke:#703D29;stroke:color(display-p3 0.4392 0.2392 0.1608);stroke-opacity:1;" stroke-width="0.6"/>
<path id="Vector_45" d="M257.8 203.2C256.9 206.2 254.3 209.8 249.2 211.1C246.8 211.7 243.6 210.9 242.6 210.1" stroke="#703D29" style="stroke:#703D29;stroke:color(display-p3 0.4392 0.2392 0.1608);stroke-opacity:1;" stroke-width="0.6" stroke-linecap="round"/>
<path id="Vector_46" d="M240 202.6C240.3 205.2 242 207.2 245.4 207.2C250.1 207.3 253 200.5 248.8 195.7" stroke="#703D29" style="stroke:#703D29;stroke:color(display-p3 0.4392 0.2392 0.1608);stroke-opacity:1;" stroke-width="0.6"/>
<path id="Vector_47" d="M229.4 225.5C230.067 226.367 230.867 227.167 231.8 227.9C233.555 229.396 235.597 230.518 237.8 231.2M243 231.7C247.2 231.2 249.6 228 249 224.4C248.7 221.6 246.2 219.4 244.4 219.3" stroke="#703D29" style="stroke:#703D29;stroke:color(display-p3 0.4392 0.2392 0.1608);stroke-opacity:1;" stroke-width="0.6" stroke-linecap="round"/>
<path id="Vector_48" d="M249.8 188.1C251.7 188.1 252.8 189.7 252.7 191.1" stroke="#703D29" style="stroke:#703D29;stroke:color(display-p3 0.4392 0.2392 0.1608);stroke-opacity:1;" stroke-width="0.6"/>
<path id="Vector_49" d="M249.4 163C250.37 165.465 252.128 167.539 254.4 168.9M398.6 199.9C400.3 202.2 399.2 206.9 394.6 206.9C393.694 206.931 392.796 206.714 392.003 206.274C391.211 205.833 390.553 205.186 390.1 204.4" stroke="#703D29" style="stroke:#703D29;stroke:color(display-p3 0.4392 0.2392 0.1608);stroke-opacity:1;" stroke-width="0.6" stroke-linecap="round"/>
<path id="Vector_50" d="M381.7 169.1V185" stroke="#703D29" style="stroke:#703D29;stroke:color(display-p3 0.4392 0.2392 0.1608);stroke-opacity:1;" stroke-width="0.6"/>
<path id="Vector_51" d="M243.8 202.3C245.2 203.3 247.1 201.6 246.3 199.7C245.8 198.5 244.1 197.1 241.6 198.8C238.8 200.7 239.6 206.6 244.8 206.7C249.5 206.7 252.4 199.9 248.2 195.1C244.2 190.5 236.9 191.5 232.2 195.3C228.556 198.282 226.02 202.403 225 207C224.38 210.035 224.38 213.165 225 216.2C225.505 218.871 226.524 221.418 228 223.7L229.3 225.4C230.1 226.2 230.3 226.6 231.3 227.4C234.17 229.91 237.889 231.233 241.7 231.1C246.3 230.9 249 227.7 248.5 223.8C248.1 220 244.3 218.1 241.8 219.9C240.1 221.1 239.5 224.8 242.5 225.7C244.1 226.2 245.6 224 244.5 222.7M374 150.9C376.667 149.433 378.767 149.767 380.3 151.9C381.731 154.008 382.303 156.584 381.9 159.1C381.533 161.415 380.277 163.496 378.4 164.9" stroke="#703D29" style="stroke:#703D29;stroke:color(display-p3 0.4392 0.2392 0.1608);stroke-opacity:1;" stroke-width="0.6" stroke-linecap="round"/>
<path id="Vector_52" d="M380.5 152C383.6 150 387 150.9 388.8 153.6C390.1 155.6 390.5 157.2 390.4 159.7C390.323 161.595 389.758 163.438 388.76 165.049C387.761 166.661 386.363 167.988 384.7 168.9" stroke="#703D29" style="stroke:#703D29;stroke:color(display-p3 0.4392 0.2392 0.1608);stroke-opacity:1;" stroke-width="0.6" stroke-linecap="round"/>
<path id="Vector_53" d="M395 159.2C397.6 159.4 399.6 161.7 399.6 164.3C399.6 168.1 398.6 169.8 395.6 173.6C392.9 176.9 385 182.6 385.2 188.2C385.2 190.3 387 192.2 388.5 192.4" stroke="#703D29" style="stroke:#703D29;stroke:color(display-p3 0.4392 0.2392 0.1608);stroke-opacity:1;" stroke-width="0.6"/>
<path id="Vector_54" d="M395.4 202.3C393.9 203.3 392.1 201.7 392.9 199.9C393.4 198.7 395.1 197.1 397.6 198.8C400.3 200.7 399.6 206.6 394.3 206.7C389.6 206.7 386.3 200.1 390.9 195.1C394.9 190.5 402.6 191.4 407.4 195.2C409.4 196.8 413.5 201.2 414.4 207.2C415.4 214.2 415.3 222.8 408 228.2C405 230.3 401 231.3 397.4 231.2C392.8 231 390.1 227.7 390.6 223.8C391.1 220 394.6 218.4 397.3 219.9C400 221.4 399.6 225.3 396.6 225.7C394.9 225.9 393.5 224 394.6 222.7" stroke="#703D29" style="stroke:#703D29;stroke:color(display-p3 0.4392 0.2392 0.1608);stroke-opacity:1;" stroke-width="0.6" stroke-linecap="round"/>
<path id="Vector_55" d="M392.9 199.9C393.7 196.4 396.6 196.1 399.1 196.1C405.6 196.2 410.2 204.1 410.3 211.6C410.3 221.1 406.3 226.8 399.3 227.1C397.4 227.1 394.3 226.3 394.3 224.1" stroke="#703D29" style="stroke:#703D29;stroke:color(display-p3 0.4392 0.2392 0.1608);stroke-opacity:1;" stroke-width="0.6"/>
<path id="Vector_56" d="M397 198.3C403.9 199.9 406.3 206.1 406.3 212.1C406.3 217 405.8 223.7 396.3 226" stroke="#703D29" style="stroke:#703D29;stroke:color(display-p3 0.4392 0.2392 0.1608);stroke-opacity:1;" stroke-width="0.6" stroke-linecap="square"/>
<path id="Vector_57" d="M408.4 265.3C408.511 264.623 408.442 263.929 408.199 263.288C407.957 262.647 407.55 262.08 407.019 261.647C406.488 261.213 405.851 260.927 405.175 260.817C404.498 260.708 403.804 260.778 403.163 261.023C402.522 261.267 401.957 261.675 401.525 262.208C401.092 262.74 400.808 263.377 400.7 264.054C400.592 264.731 400.665 265.425 400.91 266.065C401.156 266.705 401.566 267.269 402.1 267.7" stroke="#703D29" style="stroke:#703D29;stroke:color(display-p3 0.4392 0.2392 0.1608);stroke-opacity:1;" stroke-width="0.6"/>
<path id="Vector_58" d="M394.4 259.4C395.8 261.4 397.4 263.5 400.7 265.4M399.4 275.9C396.2 273.7 389.9 270.9 384.4 273.7C383.41 274.102 382.51 274.699 381.754 275.455C380.999 276.21 380.402 277.11 380 278.1C379.472 279.706 379.361 281.421 379.675 283.082C379.99 284.743 380.721 286.298 381.8 287.6C382.7 288.6 384.5 290.2 386.8 290.3C390.6 290.3 391.5 287.7 391.6 287.1C392 284.3 390.4 283.2 389.6 283C388.9 282.7 386.8 282.8 386.4 284.3C386.2 284.9 386.266 285.567 386.6 286.3" stroke="#703D29" style="stroke:#703D29;stroke:color(display-p3 0.4392 0.2392 0.1608);stroke-opacity:1;" stroke-width="0.6" stroke-linecap="round"/>
<path id="Vector_59" d="M340.5 328.4C341.5 330.6 340.3 331.6 338.9 331.8C336.7 332.1 335.6 330.4 335.5 328.8C335.459 328.206 335.54 327.609 335.736 327.047C335.933 326.485 336.241 325.968 336.643 325.529C337.045 325.09 337.532 324.736 338.075 324.491C338.618 324.245 339.204 324.112 339.8 324.1C342.1 324.1 343.9 325.6 344.8 327.6C345.133 328.267 345.3 329.067 345.3 330C345.36 331.493 344.861 332.955 343.9 334.1C342.488 335.597 340.554 336.492 338.5 336.6C334.3 336.7 331 332.8 331 328.8C331 321.1 342.4 316.8 347 315.8C352.863 314.359 358.864 313.554 364.9 313.4C368.4 313.3 371.1 313.4 375 312.9C378.5 312.6 380.4 312.4 384 311.6C388.694 310.623 393.043 308.414 396.6 305.2C399.5 302.5 401.1 300.7 402.5 297C403.28 294.723 403.567 292.307 403.343 289.91C403.119 287.514 402.388 285.193 401.2 283.1C400.117 281.255 398.625 279.683 396.84 278.504C395.054 277.325 393.022 276.571 390.9 276.3C387.2 275.8 383.9 277.4 381.9 281.1C380.9 282.9 381.3 285.9 382 287.3C382.491 288.156 383.187 288.878 384.024 289.402C384.861 289.925 385.815 290.233 386.8 290.3C390.6 290.3 391.5 287.7 391.6 287.1C392 284.3 390.4 283.2 389.6 282.9C388.9 282.7 386.8 282.8 386.4 284.3C386.2 284.9 386.267 285.567 386.6 286.3" stroke="#703D29" style="stroke:#703D29;stroke:color(display-p3 0.4392 0.2392 0.1608);stroke-opacity:1;" stroke-width="0.6" stroke-linecap="round"/>
<path id="Vector_60" d="M337.2 316.2C332.4 318.3 328.8 319.9 325.8 324.7C324.988 326.204 324.574 327.891 324.6 329.6C324.6 332.3 325.7 335.3 327.9 337.2C328.792 338.019 329.859 338.624 331.02 338.971C332.18 339.317 333.404 339.396 334.6 339.2C336.6 339 338.3 337.6 338.6 336.6" stroke="#703D29" style="stroke:#703D29;stroke:color(display-p3 0.4392 0.2392 0.1608);stroke-opacity:1;" stroke-width="0.6" stroke-linecap="round"/>
<path id="Vector_61" d="M385.1 224.1C382.8 224.9 381.2 228.3 381.2 231.6C381.095 233.1 381.414 234.599 382.121 235.925C382.829 237.252 383.896 238.352 385.2 239.1" stroke="#703D29" style="stroke:#703D29;stroke:color(display-p3 0.4392 0.2392 0.1608);stroke-opacity:1;" stroke-width="0.6"/>
<path id="Vector_62" d="M387.6 236.4C383.6 241.5 381.3 244.5 381.2 250.5C381.2 256.2 382.9 260.1 386.3 264.2" stroke="#703D29" style="stroke:#703D29;stroke:color(display-p3 0.4392 0.2392 0.1608);stroke-opacity:1;" stroke-width="0.6" stroke-linecap="round"/>
<path id="Vector_63" d="M365.9 152L366.2 151.5C367.9 149.1 370.9 148.4 373.1 150C375.7 152 376.4 155.4 375.7 159C375.1 161.2 373.767 163.033 371.7 164.5" stroke="#703D29" style="stroke:#703D29;stroke:color(display-p3 0.4392 0.2392 0.1608);stroke-opacity:1;" stroke-width="0.6"/>
<path id="Vector_64" d="M265.1 150.8C262.5 149.533 260.4 149.867 258.8 151.8C258.04 152.819 257.504 153.987 257.228 155.229C256.953 156.47 256.943 157.755 257.2 159C257.8 161.7 258.6 162.8 260.7 164.8" stroke="#703D29" style="stroke:#703D29;stroke:color(display-p3 0.4392 0.2392 0.1608);stroke-opacity:1;" stroke-width="0.6" stroke-linecap="round"/>
<path id="Vector_65" d="M258.6 152C257.285 151.118 255.675 150.791 254.12 151.09C252.565 151.39 251.192 152.292 250.3 153.6C249.048 155.374 248.48 157.54 248.7 159.7C248.9 163.9 251.5 167.3 254.5 168.9" stroke="#703D29" style="stroke:#703D29;stroke:color(display-p3 0.4392 0.2392 0.1608);stroke-opacity:1;" stroke-width="0.6"/>
<path id="Vector_66" d="M249.7 154.8C248.088 155.031 246.607 155.816 245.512 157.021C244.417 158.225 243.776 159.774 243.7 161.4C243.7 165.9 244.7 167.7 247.2 171C249.7 174.4 257.9 180.6 257.9 187.7C258.033 191.967 256.6 194.767 253.6 196.1C251.6 197.1 249.3 196.1 248.2 195.1C245.6 192.7 246.7 188.6 249.4 188.1C252.7 187.5 253.3 192.7 250.1 192.4" stroke="#703D29" style="stroke:#703D29;stroke:color(display-p3 0.4392 0.2392 0.1608);stroke-opacity:1;" stroke-width="0.6"/>
<path id="Vector_67" d="M244 159.2C241.5 159.4 239 161.5 239 164.2C239 168 240.5 169.8 243.6 173.6C246.2 176.9 253.7 182.6 253.5 188.1C253.5 190.1 252 192.7 250.6 192.4" stroke="#703D29" style="stroke:#703D29;stroke:color(display-p3 0.4392 0.2392 0.1608);stroke-opacity:1;" stroke-width="0.6"/>
<path id="Vector_68" d="M238 236.1C239.3 233.2 242.4 234.5 242.6 236.1C243 239.8 239.8 240.9 237.5 240.3C236.968 240.157 236.471 239.905 236.041 239.561C235.611 239.217 235.256 238.788 235 238.3C234.395 237.164 234.252 235.839 234.6 234.6L235.5 233L236.7 231.8C237.566 231.333 238.7 231.133 240.1 231.2C245.6 231.2 250.5 237.7 252.1 244.6C252.7 246.8 253.4 251.9 252.4 256.6C251.619 260.855 249.602 264.785 246.6 267.9C243.744 270.559 240.326 272.542 236.6 273.7C235.335 274.102 233.983 274.137 232.7 273.8C229.9 272.9 228.1 270.3 229.5 266.8C230.7 264.2 234.9 262.8 236.8 266.2C237 266.533 237.133 267.033 237.2 267.7C237.2 268.6 236.8 269.7 236.2 270.1C234.8 271 232.5 270.7 232.6 268.1" stroke="#703D29" style="stroke:#703D29;stroke:color(display-p3 0.4392 0.2392 0.1608);stroke-opacity:1;" stroke-width="0.6" stroke-linecap="round"/>
<path id="Vector_69" d="M233.8 270.4C234.8 270.8 235.4 270.7 236.7 270.2L238.5 269.2C241.1 267.7 244.1 265.4 246.9 260.1C247.655 258.678 248.226 257.166 248.6 255.6C248.867 254.533 249.067 253.433 249.2 252.3C249.252 246.822 247.572 241.467 244.4 237C243.3 235.4 242.4 234.5 240.2 234.4M230.7 265.4C230.573 264.723 230.627 264.025 230.857 263.376C231.087 262.727 231.485 262.15 232.011 261.705C232.536 261.259 233.17 260.961 233.848 260.84C234.526 260.719 235.223 260.78 235.87 261.016C236.517 261.252 237.09 261.655 237.53 262.185C237.971 262.714 238.264 263.35 238.378 264.03C238.493 264.709 238.426 265.406 238.184 266.051C237.942 266.695 237.533 267.264 237 267.7" stroke="#703D29" style="stroke:#703D29;stroke:color(display-p3 0.4392 0.2392 0.1608);stroke-opacity:1;" stroke-width="0.6"/>
<path id="Vector_70" d="M232.2 261.4C232.413 260.569 232.888 259.829 233.554 259.289C234.221 258.749 235.043 258.437 235.9 258.4C236.864 258.426 237.779 258.827 238.452 259.518C239.124 260.209 239.5 261.136 239.5 262.1C239.489 263.058 239.134 263.981 238.5 264.7" stroke="#703D29" style="stroke:#703D29;stroke:color(display-p3 0.4392 0.2392 0.1608);stroke-opacity:1;" stroke-width="0.6"/>
<path id="Vector_71" d="M239.4 261.3C241.297 259.83 242.839 257.953 243.913 255.806C244.986 253.66 245.563 251.299 245.6 248.9C245.6 244.8 244 240.5 242 238.9" stroke="#703D29" style="stroke:#703D29;stroke:color(display-p3 0.4392 0.2392 0.1608);stroke-opacity:1;" stroke-width="0.6"/>
<path id="Vector_72" d="M244.7 259.4C243.156 261.912 240.985 263.98 238.4 265.4" stroke="#703D29" style="stroke:#703D29;stroke:color(display-p3 0.4392 0.2392 0.1608);stroke-opacity:1;" stroke-width="0.6" stroke-linecap="round"/>
<path id="Vector_73" d="M254.6 273.7C253.666 271.567 251.733 270.4 248.8 270.2C245.933 270 243.2 270.633 240.6 272.1C237.387 273.637 234.672 276.045 232.762 279.051C230.852 282.057 229.826 285.539 229.8 289.1C229.839 292.367 230.519 295.594 231.8 298.6C232.7 300.2 234.8 307.6 247.1 312.6C255.419 315.195 264.085 316.51 272.8 316.5C283.2 316.9 292.8 317.3 298.4 324.1" stroke="#703D29" style="stroke:#703D29;stroke:color(display-p3 0.4392 0.2392 0.1608);stroke-opacity:1;" stroke-width="0.6"/>
<path id="Vector_74" d="M239.7 275.9C243 273.7 249.2 270.9 254.8 273.7C255.771 274.113 256.652 274.715 257.39 275.47C258.128 276.225 258.709 277.119 259.1 278.1C259.627 279.707 259.739 281.421 259.424 283.082C259.109 284.743 258.378 286.298 257.3 287.6C256.4 288.6 254.6 290.2 252.3 290.3C248.5 290.3 247.6 287.7 247.5 287.1C247.1 284.3 248.7 283.2 249.5 282.9C250.2 282.7 252.3 282.8 252.7 284.3C252.966 284.9 252.9 285.567 252.5 286.3" stroke="#703D29" style="stroke:#703D29;stroke:color(display-p3 0.4392 0.2392 0.1608);stroke-opacity:1;" stroke-width="0.6" stroke-linecap="round"/>
<path id="Vector_75" d="M252.7 285.7C253.1 284.633 252.833 283.533 251.9 282.4C251.149 281.597 250.154 281.064 249.069 280.883C247.985 280.702 246.871 280.884 245.9 281.4C245.166 281.8 244.366 282.533 243.5 283.6C243.033 284.067 242.633 284.6 242.3 285.2C241.633 286.333 241.3 287.167 241.3 287.7C238.8 294.7 242.8 302.1 247.8 305.3C252.2 308.1 256.6 308.9 262.2 309.3C264.7 309.6 266.2 309.6 268.7 309.8H285.5C288.5 310.1 290.6 310.2 293.1 310.6C294.766 310.8 296.566 311.133 298.5 311.6C299.1 311.6 299.7 311.733 300.3 312L301.5 312.3C305.166 313.367 308.433 314.767 311.3 316.5C312.166 316.967 313 317.533 313.8 318.2L315.1 319.4C317.1 321.4 319.1 323.4 319.5 326.1V327.7C319.5 329.5 318.1 332 314.2 332.7" stroke="#703D29" style="stroke:#703D29;stroke:color(display-p3 0.4392 0.2392 0.1608);stroke-opacity:1;" stroke-width="0.6"/>
<path id="Vector_76" d="M298.6 328.4C297.6 330.6 298.8 331.6 300.2 331.8C302.4 332.1 303.5 330.4 303.7 328.8C303.741 328.197 303.658 327.593 303.455 327.024C303.253 326.455 302.935 325.934 302.522 325.493C302.11 325.052 301.61 324.701 301.056 324.461C300.502 324.222 299.904 324.099 299.3 324.1C298.23 324.183 297.201 324.551 296.322 325.167C295.442 325.782 294.744 326.623 294.3 327.6C293.993 328.364 293.824 329.177 293.8 330C293.74 331.493 294.239 332.955 295.2 334.1C296.612 335.597 298.546 336.492 300.6 336.6C304.8 336.7 308.1 332.8 308.1 328.8C308.1 321.1 296.7 316.8 292.1 315.8C286.237 314.359 280.236 313.554 274.2 313.4C270.7 313.3 268 313.4 264.1 312.9C260.6 312.6 258.7 312.4 255.1 311.6C250.442 310.607 246.129 308.399 242.6 305.2C239.271 302.735 236.956 299.14 236.091 295.089C235.225 291.038 235.869 286.81 237.9 283.2C238.972 281.336 240.458 279.744 242.245 278.548C244.031 277.351 246.069 276.582 248.2 276.3C252.133 275.833 255.133 277.433 257.2 281.1C258.2 282.9 257.8 285.9 257.1 287.3C256.609 288.156 255.913 288.878 255.076 289.402C254.239 289.925 253.285 290.233 252.3 290.3C248.5 290.3 247.6 287.7 247.5 287.1C247.1 284.3 248.7 283.2 249.5 282.9C250.2 282.7 252.3 282.8 252.7 284.3C252.9 284.9 252.833 285.567 252.5 286.3" stroke="#703D29" style="stroke:#703D29;stroke:color(display-p3 0.4392 0.2392 0.1608);stroke-opacity:1;" stroke-width="0.6"/>
<path id="Vector_77" d="M273.3 152L272.9 151.5C271.2 149.1 268.2 148.4 266 150C263.4 152 262.7 155.4 263.5 159C264.062 161.286 265.498 163.26 267.5 164.5" stroke="#703D29" style="stroke:#703D29;stroke:color(display-p3 0.4392 0.2392 0.1608);stroke-opacity:1;" stroke-width="0.6" stroke-linecap="round"/>
<path id="Vector_78" d="M366.8 159.6C362.8 164 358.7 165.4 352.7 165.6C350.7 165.6 347.2 165 345.1 163.5C343.8 162.5 342.3 160.9 343.2 158C343.8 156.1 346.9 150.8 347 147.1C347.3 141.5 345.1 138.4 341.7 137.2C335.5 135 328.7 141.2 324.7 142.6C322.6 143.3 321.5 143.4 319.6 143.4C317.6 143.4 316.6 143.3 314.4 142.6C310.4 141.2 303.7 135 297.4 137.2C294 138.4 291.9 141.5 292.1 147.2C292.2 150.8 295.3 156.2 295.9 158C296.9 160.9 295.4 162.5 294 163.5C292 165 288.3 165.6 286.5 165.5C280.5 165.4 276.4 164 272.4 159.6" stroke="#703D29" style="stroke:#703D29;stroke:color(display-p3 0.4392 0.2392 0.1608);stroke-opacity:1;" stroke-width="0.6"/>
<path id="Vector_79" d="M297.3 314.4C298.1 314.7 297.5 314.2 302.6 316.4C307.257 318.017 311.237 321.151 313.9 325.3C315.029 327.558 315.346 330.135 314.8 332.6" stroke="#703D29" style="stroke:#703D29;stroke:color(display-p3 0.4392 0.2392 0.1608);stroke-opacity:1;" stroke-width="0.6" stroke-linecap="round"/>
<path id="Vector_80" d="M297.7 336C298.692 336.521 299.782 336.827 300.9 336.9C305.1 337 308.4 333.1 308.4 329.1C308.4 326.3 306.9 323.9 304.8 322.1" stroke="#703D29" style="stroke:#703D29;stroke:color(display-p3 0.4392 0.2392 0.1608);stroke-opacity:1;" stroke-width="0.6"/>
<path id="Vector_81" d="M298.6 328.4C297.6 330.7 299 331.9 300.4 332.1C302.6 332.3 303.8 330.7 304 329.1C304.009 328.272 303.813 327.456 303.429 326.723C303.045 325.99 302.485 325.363 301.8 324.9" stroke="#703D29" style="stroke:#703D29;stroke:color(display-p3 0.4392 0.2392 0.1608);stroke-opacity:1;" stroke-width="0.6" stroke-linecap="round"/>
<path id="Vector_82" d="M390.1 154.8C393.3 154.8 396.1 158.4 396.1 162C396.1 166.3 393.9 168.9 392.2 170.8C390.933 172.333 389.466 173.9 387.8 175.5" stroke="#703D29" style="stroke:#703D29;stroke:color(display-p3 0.4392 0.2392 0.1608);stroke-opacity:1;" stroke-width="0.6"/>
<path id="Vector_83" d="M386.3 151.4C387.389 151.998 388.342 152.815 389.1 153.8C390.4 155.8 390.8 157.5 390.7 160C390.5 164.2 387.5 167.1 384.7 169M380 151.4L380.6 152.1C382.5 154.3 382.6 157.5 382.2 159.3C381.987 160.419 381.538 161.479 380.883 162.41C380.228 163.342 379.381 164.122 378.4 164.7M373.4 150.3C376 152.3 376.8 155.7 375.9 159.3C375.233 161.7 373.833 163.433 371.7 164.5M382.8 205.6C383.1 206.6 383.7 206.9 384.3 207.6C386.031 209.282 388.166 210.487 390.5 211.1C392.967 211.7 395.067 211.4 396.8 210.2M233.8 264.2C235.133 264.267 236.233 265.033 237.1 266.5C237.3 266.767 237.433 267.267 237.5 268C237.5 269 237.167 269.733 236.5 270.2C235 271.2 232.5 270.7 232.5 268.2" stroke="#703D29" style="stroke:#703D29;stroke:color(display-p3 0.4392 0.2392 0.1608);stroke-opacity:1;" stroke-width="0.6" stroke-linecap="round"/>
<path id="Vector_84" d="M241.5 231.3C246.5 232.3 251.2 238.2 252.7 244.6C253.3 246.9 254 251.9 253 256.6C252.182 260.914 250.093 264.884 247 268L244.9 269.9L243.9 270.6M235.9 258.5C237.9 258.5 239.7 260.4 239.7 262.5C239.689 263.459 239.334 264.381 238.7 265.1" stroke="#703D29" style="stroke:#703D29;stroke:color(display-p3 0.4392 0.2392 0.1608);stroke-opacity:1;" stroke-width="0.6"/>
<path id="Vector_85" d="M234.6 260.7C236.7 260.7 238.7 262.7 238.7 264.9C238.694 265.471 238.566 266.034 238.325 266.552C238.083 267.069 237.734 267.529 237.3 267.9" stroke="#703D29" style="stroke:#703D29;stroke:color(display-p3 0.4392 0.2392 0.1608);stroke-opacity:1;" stroke-width="0.6"/>
<path id="Vector_86" d="M254 239.5C255.869 241.723 257.173 244.364 257.8 247.2M257.8 255.7C257.47 257.091 256.966 258.435 256.3 259.7C255.367 261.455 254.151 263.043 252.7 264.4" stroke="#703D29" style="stroke:#703D29;stroke:color(display-p3 0.4392 0.2392 0.1608);stroke-opacity:1;" stroke-width="0.6" stroke-linecap="round"/>
<path id="Vector_87" d="M254.3 224.3C256.1 225.767 257.266 227.367 257.8 229.1" stroke="#703D29" style="stroke:#703D29;stroke:color(display-p3 0.4392 0.2392 0.1608);stroke-opacity:1;" stroke-width="0.6"/>
<path id="Vector_88" d="M257.9 219.5C257.239 221.332 256.057 222.93 254.5 224.1M245.3 206.9L247.5 206.3L248.8 205.3L249.6 204.2L250.3 202.4L250.6 200.9" stroke="#703D29" style="stroke:#703D29;stroke:color(display-p3 0.4392 0.2392 0.1608);stroke-opacity:1;" stroke-width="0.6" stroke-linecap="round"/>
<path id="Vector_89" d="M241 199.3C240.266 199.5 239.433 199.767 238.5 200.1C237.092 200.779 235.886 201.813 235 203.1C232.628 206.88 231.838 211.442 232.8 215.8C233.203 217.796 233.984 219.697 235.1 221.4L236.1 222.8C237.5 224.1 238.7 224.8 240.7 224.5" stroke="#703D29" style="stroke:#703D29;stroke:color(display-p3 0.4392 0.2392 0.1608);stroke-opacity:1;" stroke-width="0.6"/>
<path id="Vector_90" d="M253 189.8C252.7 191.1 252 192.7 250 192.5" stroke="#703D29" style="stroke:#703D29;stroke:color(display-p3 0.4392 0.2392 0.1608);stroke-opacity:1;" stroke-width="0.6" stroke-linecap="round"/>
<path id="Vector_91" d="M245.7 198.5C243.7 196.6 239.7 196.1 235.6 198.7L234 200L232.6 201.6C231.547 203.133 230.737 204.819 230.2 206.6C229.5 209.6 229.5 212.2 229.6 212.9C229.6 213.9 229.7 214.8 229.9 215.6C230.567 218.4 231.333 220.467 232.2 221.8C233.1 223.3 235.2 226.8 239.9 227.2C241.7 227.3 244.7 226.5 244.9 224.2" stroke="#703D29" style="stroke:#703D29;stroke:color(display-p3 0.4392 0.2392 0.1608);stroke-opacity:1;" stroke-width="0.6"/>
<path id="Vector_92" d="M363.8 157C364.1 155.4 366.1 155.1 366.8 156C368 157.6 367.2 160.2 364.8 160.9C364.099 161.026 363.378 160.963 362.71 160.716C362.042 160.47 361.451 160.05 361 159.5C360 158.2 360.1 156.7 360.5 155.5C360.766 154.7 361.333 153.967 362.2 153.3C364.9 151.3 369.3 151.7 370.8 155.3C372.6 159.7 368.6 163.1 364.8 165.6C360.2 168.8 354.8 169.4 350.8 169.3C341.6 169.3 334.7 164.9 330.1 162.3C328.966 161.833 328.066 161.933 327.4 162.6C327.101 163.005 326.965 163.508 327.021 164.009C327.077 164.509 327.319 164.97 327.7 165.3" stroke="#703D29" style="stroke:#703D29;stroke:color(display-p3 0.4392 0.2392 0.1608);stroke-opacity:1;" stroke-width="0.6" stroke-linecap="round"/>
<path id="Vector_93" d="M365.6 155.5C366.6 155.5 366.8 155.9 367.1 156.3C368.3 157.8 367.4 160.4 365.1 161.2M382.9 212.7C379.4 216.5 382.7 223 385.3 224.5C386.2 225.2 386.6 224.8 387.3 225.2" stroke="#703D29" style="stroke:#703D29;stroke:color(display-p3 0.4392 0.2392 0.1608);stroke-opacity:1;" stroke-width="0.6" stroke-linecap="round"/>
<path id="Vector_94" d="M383.1 205.4C382.1 206.067 381.567 207.167 381.5 208.7C381.426 209.429 381.513 210.165 381.755 210.856C381.997 211.547 382.388 212.177 382.9 212.7C385.438 215.037 388.75 216.355 392.2 216.4C394.2 216.467 396.2 215.9 398.2 214.7C400.105 213.446 401.463 211.516 402 209.3M381.2 271.1L381 273.6C380.791 276.04 380.112 278.417 379 280.6C377.959 282.711 376.535 284.61 374.8 286.2C373.089 287.876 371.09 289.231 368.9 290.2C366.85 291.263 364.662 292.037 362.4 292.5C358.055 293.363 353.605 293.566 349.2 293.1C346.5 292.9 345.1 292.6 342.4 292.3C340.2 292.2 339 292 336.8 292C333.076 291.902 329.371 292.548 325.9 293.9C323.2 294.9 320.2 296.9 319.5 297.7C318.9 296.8 315.8 294.9 313.2 293.9C311.535 293.188 309.788 292.684 308 292.4C305.8 292 304.5 292 302.2 292C299.9 292 298.8 292.2 296.6 292.4C294 292.6 292.6 293 289.9 293.1C287.4 293.3 286 293.4 283.6 293.3C281.245 293.284 278.898 293.016 276.6 292.5C274.342 292.069 272.155 291.329 270.1 290.3C267.937 289.29 265.973 287.902 264.3 286.2C262.555 284.58 261.13 282.646 260.1 280.5C259.001 278.348 258.322 276.006 258.1 273.6C257.9 272.6 257.9 271.1 257.9 271.1V169.3H381.1L381.2 271.1Z" stroke="#703D29" style="stroke:#703D29;stroke:color(display-p3 0.4392 0.2392 0.1608);stroke-opacity:1;" stroke-width="0.6"/>
</g>
<g id="Group_4">
<path id="Vector_95" d="M248 285.6C248 284.937 248.263 284.301 248.732 283.832C249.201 283.363 249.837 283.1 250.5 283.1C251.163 283.1 251.799 283.363 252.268 283.832C252.737 284.301 253 284.937 253 285.6C253 286.263 252.737 286.899 252.268 287.368C251.799 287.837 251.163 288.1 250.5 288.1C249.837 288.1 249.201 287.837 248.732 287.368C248.263 286.899 248 286.263 248 285.6ZM232.5 268C232.633 266.6 233.233 265.833 234.3 265.7C235.9 265.5 236 266.7 236 268C235.867 269.333 235.3 270.067 234.3 270.2C233.233 270.067 232.633 269.333 232.5 268Z" fill="#C7B37F" stroke="#C7B37F" style="fill:#C7B37F;fill:color(display-p3 0.7804 0.7020 0.4980);fill-opacity:1;stroke:#C7B37F;stroke:color(display-p3 0.7804 0.7020 0.4980);stroke-opacity:1;" stroke-width="0.3"/>
<path id="Vector_96" d="M241.3 223.6C241.433 222.467 242 221.867 243 221.8C244.066 221.933 244.633 222.533 244.7 223.6C244.8 225.2 244 225.4 243 225.4C242 225.4 241.3 224.6 241.3 223.6ZM272 158C272 157 272.5 156 273.4 156C274.4 156 275 156.533 275.2 157.6C275.2 158.6 274.7 159.6 273.8 159.6C272.866 159.6 272.266 159.067 272 158Z" fill="#C7B37F" style="fill:#C7B37F;fill:color(display-p3 0.7804 0.7020 0.4980);fill-opacity:1;"/>
</g>
<g id="Group_5">
<path id="Vector_97" d="M239.3 234C238.9 234.067 238.633 234.233 238.5 234.5C238.233 234.7 238.033 235 237.9 235.4L237.7 236.6M242.4 263.3L243.4 262.3L244 261.3L244.5 260.3L245.2 259M243.9 273L242.4 273.7L241.3 274.3L240 275.1L238.8 276.1M253.8 238.2L253 237.4L252 236.6L251.1 235.8" stroke="#C7B37F" style="stroke:#C7B37F;stroke:color(display-p3 0.7804 0.7020 0.4980);stroke-opacity:1;" stroke-width="0.6" stroke-linecap="round"/>
<path id="Vector_98" d="M254.2 225L253 225.5L251.5 225.8" stroke="#C7B37F" style="stroke:#C7B37F;stroke:color(display-p3 0.7804 0.7020 0.4980);stroke-opacity:1;" stroke-width="0.6"/>
<path id="Vector_99" d="M237.4 208.4C237.533 208.933 237.7 209.433 237.9 209.9C238.1 210.567 238.4 211.133 238.8 211.6C239.441 212.693 240.332 213.619 241.4 214.3L242.9 215.1M241.9 209.3L243.2 209.9C244.143 210.319 245.168 210.524 246.2 210.5L248 210.4M255.2 169.7L253.2 168.5C252.4 168.033 251.733 167.533 251.2 167L250.1 165.7L249.3 164.4M256.8 159.8L257.4 161.5L258.8 163.5C259.8 164.5 260.5 164.8 261.6 165.7M263 159.7C263.2 160.3 263.433 160.833 263.7 161.3C263.967 161.767 264.233 162.167 264.5 162.5L265.8 163.8C266.467 164.267 267.133 164.633 267.8 164.9" stroke="#C7B37F" style="stroke:#C7B37F;stroke:color(display-p3 0.7804 0.7020 0.4980);stroke-opacity:1;" stroke-width="0.6" stroke-linecap="round"/>
</g>
<path id="Vector_100" d="M333.3 151.6C333.3 149.9 331.6 149.8 330.9 149.8C329.1 149.8 328.6 150.9 326.3 152.1C324.315 153.417 321.982 154.113 319.6 154.1C317.218 154.113 314.885 153.417 312.9 152.1C310.6 150.9 310.2 149.8 308.3 149.8C307.998 149.813 307.701 149.885 307.427 150.013C307.153 150.14 306.907 150.321 306.702 150.544C306.498 150.767 306.339 151.028 306.236 151.312C306.133 151.596 306.087 151.898 306.1 152.2V153.1L306.4 153.3C306.4 152.633 306.567 152.067 306.9 151.6C307.086 151.352 307.328 151.15 307.605 151.011C307.883 150.872 308.189 150.8 308.5 150.8C310.3 150.8 311 152 313.3 153.2C316.3 154.8 317.5 155.1 320 155.2C322.416 155.233 324.786 154.536 326.8 153.2C329.1 152 329.8 150.7 331.6 150.7C332.2 150.7 332.633 151.033 332.9 151.7V152.6L333.1 152.7C333.167 152.5 333.233 152.167 333.3 151.7V151.6Z" fill="#703D29" stroke="#703D29" style="fill:#703D29;fill:color(display-p3 0.4392 0.2392 0.1608);fill-opacity:1;stroke:#703D29;stroke:color(display-p3 0.4392 0.2392 0.1608);stroke-opacity:1;" stroke-width="0.2"/>
</g>
<g id="Group_6">
<path id="Vector_101" d="M264.4 294C264.9 293.5 265.3 293.7 265.4 293.4C265.4 293.267 265.3 293.167 265.1 293.1L264.2 292.9L263.4 292.5C263.267 292.433 263.1 292.433 262.9 292.5C262.8 292.9 263.9 292.9 263.5 293.9L262.7 295.1L260.1 298.1L259.9 298.2V293.9L260 292.1C260.2 291.7 260.8 292.1 260.9 291.7C260.9 291.567 260.8 291.467 260.6 291.4C260.4 291.333 260.033 291.233 259.5 291.1L258.5 290.6C258.233 290.533 258.033 290.533 257.9 290.6L258 290.9C258.333 291.033 258.5 291.367 258.5 291.9V299.3C258.5 299.767 258.567 300 258.7 300C258.767 300 258.9 299.9 259.1 299.7L264.4 294Z" fill="#703D29" style="fill:#703D29;fill:color(display-p3 0.4392 0.2392 0.1608);fill-opacity:1;"/>
<path id="Vector_102" d="M267.5 295.2C267.8 294.1 268.5 294.8 268.5 294.4C268.567 294.267 268.5 294.167 268.3 294.1L267 293.7C266.6 293.633 266.2 293.5 265.8 293.3C265.733 293.3 265.6 293.3 265.4 293.3C265.3 293.8 266.5 293.8 266.2 294.8L264.5 300.3C264.2 301.3 263.5 300.9 263.4 301.3V301.4L264.6 301.8L266.2 302.3H266.5C266.7 301.9 265.3 302 265.8 300.6L267.5 295.2ZM271.2 296.2C271.4 295.733 271.7 295.6 272.1 295.8C273.167 296.2 273.5 297.033 273.1 298.3C272.9 298.9 272.7 299.5 271.1 299.1C270.7 299.033 270.5 298.867 270.5 298.6L271.2 296.3V296.2ZM268.4 301.2C267.9 302.6 267.2 302 267.1 302.4C267.1 302.533 267.2 302.633 267.4 302.7L269 303.1L269.8 303.4H270.2C270.3 302.9 269.2 303.1 269.5 301.9L270.1 299.9C270.1 299.5 270.3 299.4 270.7 299.6C271.233 299.667 271.5 299.933 271.5 300.4L271.8 302.4C271.867 303.333 272.2 304 272.8 304.4C273.467 304.467 273.933 304.333 274.2 304L274 303.8H273.7C273.7 303.8 273.4 303.8 273.4 303.5L272.7 299.9C272.767 299.767 273.033 299.667 273.5 299.6C273.749 299.466 273.967 299.281 274.139 299.057C274.312 298.833 274.435 298.575 274.5 298.3C274.6 297.8 274.9 296.1 272.7 295.4L270.6 294.9L269.4 294.5H269.1C269 295 270.2 294.9 269.8 296.2L268.4 301.2ZM276.8 303.7C276.4 305.1 275.4 304.2 275.3 304.7C275.3 304.9 275.4 305 275.6 305L277.1 305.3L278.5 305.7C278.767 305.833 278.967 305.8 279.1 305.6C279.1 305.3 277.8 305.3 278.1 303.8L279.4 298.6C279.4 298.067 279.6 297.9 280 298.1L281 298.3C282.1 298.6 281.5 299.8 282 299.9C282.133 299.833 282.2 299.633 282.2 299.3L282.3 298.3V297.9L279 297.2L275.8 296.4C275.667 296.4 275.6 296.467 275.6 296.6L275.1 298.1C274.967 298.3 274.967 298.433 275.1 298.5C275.6 298.6 275.6 297 276.8 297.3L277.7 297.5C278.1 297.5 278.233 297.767 278.1 298.3L276.8 303.7ZM289.5 300.4C289.9 299.8 290.3 299.9 290.4 299.7C290.4 299.567 290.267 299.467 290 299.4H289.1L288.2 299.1C288 299.033 287.867 299.067 287.8 299.2C287.7 299.6 288.8 299.4 288.6 300.5C288.6 300.7 288.4 301.133 288 301.8L286 305.1L285.7 305.3V305.1L285 301.1L284.9 299.3C284.9 298.8 285.6 299.1 285.6 298.8C285.667 298.667 285.533 298.567 285.2 298.5L284.1 298.4C283.7 298.4 283.367 298.3 283.1 298.1C282.833 298.033 282.633 298.067 282.5 298.2L282.6 298.4C283.067 298.533 283.3 298.833 283.3 299.3L284.6 306.6C284.733 307.067 284.833 307.3 284.9 307.3C284.967 307.3 285.1 307.2 285.3 307L289.5 300.4ZM290.1 307.2C290.1 307.4 290.167 307.567 290.3 307.7C290.833 307.967 291.4 308.2 292 308.4C293.4 308.6 294.6 307.7 294.8 306.2C295.1 304.7 294.5 304.1 293.4 303.3C292.1 302.4 291.6 302.2 291.7 301.3C291.9 300.633 292.367 300.3 293.1 300.3C294.9 300.6 294.7 302.9 294.9 302.9C295.167 302.9 295.267 302.767 295.2 302.5L295.4 300.9V300.5H294.8C294.4 300.5 294.1 300 293.2 299.8C291.867 299.733 291.033 300.4 290.7 301.8C290.633 302.867 291.033 303.667 291.9 304.2C293.5 305.3 294.1 305.6 293.9 306.6C293.7 307.6 293.133 308.033 292.2 307.9C291 307.7 290.6 306.5 290.4 305.3C290.4 305.1 290.333 305 290.2 305C290.067 305.067 290 305.233 290 305.5V307.2H290.1ZM305.9 302.7C306.2 302 306.7 302.1 306.7 301.8C306.7 301.667 306.567 301.6 306.3 301.6H305.4L304.5 301.5C304.3 301.5 304.167 301.567 304.1 301.7C304.1 302.1 305.1 301.7 305.1 302.8C305.1 303 304.933 303.467 304.6 304.2L302.8 307.7L302.7 308L302.6 307.7L301.5 303.7L301.2 302.1C301.2 301.6 301.9 301.8 301.9 301.5C301.967 301.367 301.833 301.3 301.5 301.3H300.3L299.3 301.1C299.033 301.033 298.833 301.067 298.7 301.2L298.9 301.4C299.3 301.533 299.533 301.8 299.6 302.2L301.7 309.3L302.1 310C302.233 310.067 302.333 309.933 302.4 309.6L305.9 302.7Z" fill="#703D29" style="fill:#703D29;fill:color(display-p3 0.4392 0.2392 0.1608);fill-opacity:1;"/>
<path id="Vector_103" d="M307.6 308.5C307.6 309.7 306.6 309.5 306.6 310C306.6 310.133 306.7 310.167 306.9 310.1H309.1L309.5 310C309.5 309.4 308.1 310.2 308.1 308V303.8L308.2 303.7L308.4 303.8L313.5 310.1L313.8 310.2L314 309.9V303.2C314 301.9 315 302.2 315 301.9C315 301.833 314.9 301.767 314.7 301.7H312.4C312.267 301.7 312.2 301.767 312.2 301.9C312.2 302.3 313.5 302.1 313.5 303.2V307.2L313.4 307.6L313 307.3L308.8 302C308.733 301.733 308.6 301.633 308.4 301.7H306.6L306.4 301.8C306.4 302.4 307.6 301.6 307.6 303.9V308.5ZM318 303C318 301.9 318.8 302.3 318.8 301.9C318.867 301.767 318.733 301.7 318.4 301.7H315.8C315.8 301.7 315.5 301.7 315.5 301.9C315.5 302.3 316.6 301.9 316.6 303.1V308.8C316.6 309.9 315.8 309.6 315.8 310C315.8 310.067 315.867 310.133 316 310.2H318.8C319 310.2 319.1 310.133 319.1 310C319.1 309.6 317.9 310.2 317.9 308.7L318 303ZM322.5 308.5C322.5 310 321.3 309.5 321.3 309.9C321.3 310.1 321.433 310.167 321.7 310.1H324.7C325.033 310.1 325.2 310 325.2 309.8C325.2 309.5 323.8 309.8 323.8 308.4V303C323.733 302.533 323.9 302.333 324.3 302.4H325.3C326.5 302.3 326.1 303.6 326.6 303.6C326.733 303.533 326.767 303.333 326.7 303L326.6 302C326.6 301.8 326.533 301.667 326.4 301.6L323.1 301.7H319.8L319.6 302L319.5 303.6L319.6 304C320.1 304 319.8 302.4 321 302.4H321.9C322.233 302.333 322.433 302.533 322.5 303V308.6V308.5ZM328.8 306.3H328.4L328.5 305.8L329.2 303.6V303.4L329.4 303.5L330.4 305.6L330.6 306C330.6 306.2 330.467 306.267 330.2 306.2L328.8 306.3ZM330.6 306.8C330.9 306.8 330.9 306.8 331.4 307.8L331.6 308.6C331.6 309.3 330.9 309.2 330.9 309.6C330.9 309.733 331.033 309.733 331.3 309.6H332.5L333.8 309.5C334.067 309.5 334.2 309.433 334.2 309.3C334.2 308.9 333.6 309.3 333.2 308.6L329.8 301.6L329.5 301.2C329.367 301.2 329.267 301.333 329.2 301.6L327 309C326.8 309.7 326.2 309.7 326.3 310H328.6C328.867 310 329.033 309.9 329.1 309.7C329.2 309.4 327.9 309.7 327.8 308.8L328 307.8C328.2 307.133 328.4 306.867 328.6 307L330.7 306.8H330.6ZM338.9 301.8C338.8 301 338.9 301 340.1 300.8C342.1 300.6 341.5 302.1 342.1 302C342.233 301.933 342.233 301.733 342.1 301.4L342 300.3C342 300.167 341.9 300.1 341.7 300.1C340.767 300.1 339.967 300.2 339.3 300.4L336.5 300.8C336.3 300.8 336.2 300.867 336.2 301C336.3 301.5 337.5 301 337.6 302L338.3 307.5C338.5 309 337.6 308.5 337.7 309C337.7 309 337.767 309 337.9 309L339.3 308.9L340.5 308.8C340.833 308.8 341 308.7 341 308.5C341 308.2 339.8 308.6 339.6 307.3L339.4 305.6C339.267 304.933 339.367 304.6 339.7 304.6H340.5C341.6 304.4 341.5 305.7 341.8 305.6C342.067 305.467 342.1 305.3 341.9 305.1L341.6 303C341.533 302.733 341.467 302.633 341.4 302.7C341.1 302.7 341.3 303.8 340.4 303.9L339.7 304C339.3 304.133 339.1 303.967 339.1 303.5L338.9 301.8ZM342.9 304.6C343.3 306.9 345 308.3 347.1 307.9C350.5 307.2 350.6 304.3 350.3 302.6C349.8 300.1 348 298.9 345.9 299.3C343.4 299.8 342.4 302 342.9 304.6ZM344 303.6C343.7 302 344 300.2 345.7 299.9C347.1 299.6 348.7 300.7 349.1 303.3C349.4 305.3 349.1 306.9 347.3 307.3C345.5 307.7 344.3 305.3 344 303.7V303.6ZM352.3 299.5C352.3 298.9 352.5 298.6 352.9 298.6C353.967 298.467 354.667 299 355 300.2C355.2 300.9 355.3 301.6 353.7 302C353.367 302.067 353.1 302 352.9 301.8L352.4 299.5H352.3ZM352.3 305.2C352.7 306.6 351.8 306.5 351.8 306.8C351.933 307 352.067 307.033 352.2 306.9C352.733 306.833 353.267 306.7 353.8 306.5L354.8 306.3C355 306.3 355.067 306.233 355 306.1C355 305.7 354 306.4 353.7 305.1L353.2 303.1C353.2 302.7 353 302.7 353.6 302.6C354 302.4 354.367 302.5 354.7 302.9L356 304.5C356.5 305.1 357 305.8 357.8 305.6C358.4 305.467 358.733 305.167 358.8 304.7L358.6 304.6L358.3 304.7C358.3 304.7 358 304.8 357.9 304.7L355.5 301.8L356 301.2C356.267 300.8 356.333 300.267 356.2 299.6C356.1 299.1 355.5 297.5 353.2 298L351.1 298.6L349.9 298.8C349.7 298.8 349.633 298.867 349.7 299C349.7 299.5 350.8 298.8 351.1 300L352.3 305.2ZM361 303.2C361.3 304.6 360 304.4 360.1 304.8C360.167 305 360.333 305.067 360.6 305L362 304.5L363.5 304.2C363.833 304.267 363.967 304.133 363.9 303.8C363.9 303.5 362.6 304.2 362.2 302.8L360.9 297.5C360.767 297.033 360.867 296.8 361.2 296.8L362.2 296.6C363.3 296.2 363.3 297.6 363.7 297.5C364.1 297.4 363.7 297 363.7 296.8L363.3 295.8C363.3 295.8 363.3 295.5 363.1 295.6L359.9 296.5L356.7 297.2V297.5L356.8 299.1C356.8 299.367 356.9 299.5 357.1 299.5C357.6 299.4 356.8 297.9 358.1 297.6L358.9 297.4C359.3 297.267 359.533 297.433 359.6 297.9L361 303.2ZM366.5 295.9C366.2 294.9 367.1 295 366.9 294.6H366.6L365.2 295L364 295.3C364 295.3 363.7 295.3 363.7 295.5C363.8 295.9 364.9 295.3 365.2 296.3L366.8 301.9C367 302.9 366.2 302.9 366.3 303.2C366.3 303.333 366.367 303.367 366.5 303.3L367.6 303L369.2 302.6C369.467 302.6 369.567 302.5 369.5 302.3C369.4 302 368.4 302.8 368 301.4L366.5 295.9ZM368.8 298.6C369.5 300.9 371.4 302 373.5 301.3C376.7 300.2 376.5 297.2 375.9 295.6C375.1 293.2 373.1 292.3 371.1 292.9C368.7 293.8 367.9 296.1 368.8 298.6ZM369.8 297.6C369.2 295.9 369.2 294.1 370.9 293.6C372.2 293.1 373.9 294 374.8 296.5C375.4 298.3 375.3 300.1 373.6 300.7C371.8 301.3 370.4 299.2 369.8 297.5V297.6ZM377.4 292.1C377.267 291.5 377.4 291.167 377.8 291.1C378.933 290.9 379.733 291.367 380.2 292.5C380.4 293.1 380.6 293.8 379.1 294.4C378.7 294.533 378.433 294.533 378.3 294.4L377.4 292.1ZM378.2 297.7C378.8 299.1 377.8 299.1 378 299.4C378 299.6 378.133 299.633 378.4 299.5L379.9 298.8L380.8 298.6C381 298.533 381.067 298.433 381 298.3C380.8 297.9 380 298.7 379.6 297.5L378.8 295.6C378.533 295.267 378.633 295.033 379.1 294.9C379.5 294.7 379.867 294.8 380.2 295.2L381.8 296.6C382.3 297.1 382.9 297.7 383.8 297.4C384.1 297.2 384.7 296.7 384.5 296.4L384.3 296.3L384.1 296.5H383.6L380.8 294L381.2 293.3C381.31 293.048 381.367 292.775 381.367 292.5C381.367 292.225 381.31 291.952 381.2 291.7C381.1 291.1 380.2 289.7 378.1 290.5L376.1 291.4L374.9 291.8L374.7 292C374.9 292.4 375.8 291.6 376.3 292.8L378.3 297.8L378.2 297.7Z" fill="#703D29" style="fill:#703D29;fill:color(display-p3 0.4392 0.2392 0.1608);fill-opacity:1;"/>
</g>
<g id="Group_7">
<path id="Vector_104" d="M264.128 175.552H316.672V228.032H264.128V175.552Z" fill="#D52B1E" style="fill:#D52B1E;fill:color(display-p3 0.8353 0.1686 0.1176);fill-opacity:1;"/>
<path id="ad-a" d="M288.768 216.832C288.768 216.832 288.768 218.752 288.256 220.224C287.616 221.952 287.616 221.952 287.04 222.784C286.422 223.802 285.592 224.675 284.608 225.344C283.328 226.155 282.048 226.496 280.768 226.368C277.312 226.112 275.648 222.272 274.88 219.2C274.048 215.936 271.68 214.08 270.08 215.36C269.226 216.085 269.162 217.067 269.888 218.304C270.577 219.136 271.486 219.757 272.512 220.096L270.656 222.464C270.656 222.464 266.624 221.952 265.856 217.728C265.536 216.128 266.304 213.184 268.992 212.288C272.384 211.136 274.496 213.568 275.584 215.616C276.992 218.432 277.632 223.552 281.6 222.784C283.776 222.336 284.8 219.2 284.8 217.728L286.336 216.064L288.704 216.832H288.768Z" fill="white" style="fill:white;fill-opacity:1;"/>
<path id="ad-a_2" d="M292.032 216.832C292.032 216.832 292.032 218.752 292.544 220.224C293.184 221.952 293.184 221.952 293.76 222.784C294.378 223.802 295.208 224.675 296.192 225.344C297.472 226.155 298.752 226.496 300.032 226.368C303.488 226.112 305.152 222.272 305.92 219.2C306.752 215.936 309.12 214.08 310.72 215.36C311.573 216.085 311.637 217.067 310.912 218.304C310.223 219.136 309.313 219.757 308.288 220.096L310.144 222.464C310.144 222.464 314.176 221.952 314.944 217.728C315.264 216.128 314.496 213.184 311.808 212.288C308.416 211.136 306.304 213.568 305.216 215.616C303.808 218.432 303.168 223.552 299.2 222.784C297.024 222.336 296 219.2 296 217.728L294.464 216.064L292.096 216.832H292.032Z" fill="white" style="fill:white;fill-opacity:1;"/>
<path id="Vector_105" d="M295.104 194.56L302.016 187.072C302.016 187.072 303.04 186.24 303.04 184.896L301.632 185.152L301.312 184.384L301.248 183.68L303.168 183.232V182.4L303.36 181.568L301.312 181.696L301.504 180.8L301.824 180.16L303.04 179.904H304.256C305.408 177.728 310.144 175.808 313.472 179.264C315.904 181.824 315.392 186.432 312.192 187.712C311.482 188.056 310.684 188.173 309.905 188.047C309.126 187.921 308.405 187.558 307.84 187.008L309.12 184.448C310.848 185.536 312.32 184.256 312.192 182.912C312.064 181.184 310.912 180.16 309.44 180.032C307.947 179.989 306.88 180.629 306.24 181.952C305.856 182.784 306.048 183.36 305.92 184.256C305.792 185.216 305.92 185.728 305.6 186.688C305.283 187.569 304.756 188.36 304.064 188.992L297.024 196.672L269.504 226.368L267.456 224.448L295.104 194.56Z" fill="#FEDF00" style="fill:#FEDF00;fill:color(display-p3 0.9961 0.8745 0.0000);fill-opacity:1;"/>
<path id="Vector_106" d="M274.88 197.12C274.88 197.12 276.608 205.696 282.496 218.56C285.504 217.472 287.232 216.768 290.432 216.768C293.632 216.768 295.296 217.408 298.304 218.56C301.581 211.697 304.133 204.512 305.92 197.12L290.432 177.28L274.88 197.12Z" fill="white" style="fill:white;fill-opacity:1;"/>
<path id="Vector_107" d="M291.904 183.936L302.656 197.824C302.656 197.824 301.248 204.544 296.896 214.656C295.168 214.272 293.696 213.952 291.904 213.824V183.936ZM288.896 183.936L278.144 197.824C278.144 197.824 279.552 204.544 283.904 214.656C285.632 214.272 287.104 213.952 288.896 213.824V183.936Z" fill="#FEDF00" style="fill:#FEDF00;fill:color(display-p3 0.9961 0.8745 0.0000);fill-opacity:1;"/>
</g>
<g id="Group_8">
<path id="Vector_108" d="M322.3 175.5H374.9V228H322.3V175.5Z" fill="#FEDF00" style="fill:#FEDF00;fill:color(display-p3 0.9961 0.8745 0.0000);fill-opacity:1;"/>
<path id="Vector_109" d="M329.7 175.5H337.5V228H329.7V175.5ZM344.7 175.5H352.5V228H344.7V175.5ZM359.7 175.5H367.6V228H359.7V175.5Z" fill="#D52B1E" style="fill:#D52B1E;fill:color(display-p3 0.8353 0.1686 0.1176);fill-opacity:1;"/>
</g>
<g id="Group_9">
<path id="Vector_110" d="M264.3 273.5C264.367 274.567 264.833 276 265.7 277.8C266.7 279.3 266.3 279.2 268.4 281.6C269.564 282.781 270.916 283.761 272.4 284.5C277.129 286.524 282.266 287.414 287.4 287.1C290.067 286.967 292.267 286.734 294 286.4C297.646 285.916 301.323 285.715 305 285.8C306.467 285.8 308.033 286 309.7 286.4C313.2 287.1 316.7 288.4 316.7 288.4V233.7H264.1V271L264.3 273.4V273.5Z" fill="#FEDF00" style="fill:#FEDF00;fill:color(display-p3 0.9961 0.8745 0.0000);fill-opacity:1;"/>
<path id="Vector_111" d="M270.4 283.1L272.9 284.6L276.3 285.8V233.6H270.4V283.1ZM299.6 285.5V233.6H293.8V286.4L299.6 285.7V285.5ZM311.3 233.6H305.5V285.7C307.367 285.967 309.3 286.3 311.3 286.7V233.6ZM287.9 233.6V287C287.9 287 284.1 287.2 282.1 287V233.6H287.9Z" fill="#D52B1E" stroke="#D52B1E" style="fill:#D52B1E;fill:color(display-p3 0.8353 0.1686 0.1176);fill-opacity:1;stroke:#D52B1E;stroke:color(display-p3 0.8353 0.1686 0.1176);stroke-opacity:1;" stroke-width="0.3"/>
</g>
<g id="Group_10">
<path id="Vector_112" d="M374.72 273.536C374.489 275.013 374.013 276.44 373.312 277.76C372.352 279.232 372.672 279.232 370.56 281.6C368.278 283.866 365.388 285.422 362.24 286.08C358.777 286.991 355.19 287.337 351.616 287.104C348.928 286.933 346.731 286.72 345.024 286.464C342.592 286.08 340.736 285.888 337.984 285.824H334.016C330.023 286.274 326.094 287.176 322.304 288.512V233.6H374.912V271.04L374.72 273.536Z" fill="#FEDF00" style="fill:#FEDF00;fill:color(display-p3 0.9961 0.8745 0.0000);fill-opacity:1;"/>
<g id="ad-b">
<path id="Vector_113" d="M335.744 238.08L335.36 238.208L334.848 238.72C334.635 238.933 334.379 239.104 334.08 239.232L333.696 239.552C333.504 239.744 333.696 239.936 333.504 240.192C333.461 240.405 333.333 240.619 333.12 240.832C332.907 241.045 332.693 241.259 332.48 241.472L331.712 242.112L331.52 242.176H331.136C330.923 242.347 330.752 242.517 330.624 242.688L330.816 243.072L331.328 243.968C331.413 244.224 331.52 244.395 331.648 244.48C331.947 244.608 332.224 244.629 332.48 244.544C332.907 244.629 333.333 244.736 333.76 244.864L334.72 245.376C334.976 245.547 335.253 245.653 335.552 245.696H336.704V245.888L337.984 246.528L337.92 246.784C337.835 246.997 337.813 247.168 337.856 247.296C338.283 248.533 338.603 249.216 338.816 249.344C339.157 249.515 339.392 249.835 339.52 250.304L339.328 250.496C338.901 250.837 338.539 251.221 338.24 251.648C337.792 252.416 337.472 252.416 338.048 253.44L339.008 254.976C339.221 255.403 339.392 255.829 339.52 256.256C339.648 256.683 339.712 257.109 339.712 257.536L340.352 257.728L340.8 257.344L341.184 256.576V255.936C341.056 255.851 341.013 255.701 341.056 255.488C341.056 255.232 341.376 255.296 341.504 255.104C341.696 254.784 341.248 254.592 341.056 254.4C340.672 253.952 340.16 253.824 340.032 253.184C339.989 253.056 340.075 252.907 340.288 252.736L341.568 251.584C341.739 251.669 341.952 251.691 342.208 251.648L343.04 251.904C343.381 251.947 343.637 251.947 343.808 251.904H344.064L344.128 252.288C344.192 252.928 344.064 254.208 344.256 254.528L344.448 254.912L344.576 255.296V256.576L344.448 257.664C344.448 257.92 344.341 258.133 344.128 258.304C343.915 258.475 343.701 258.624 343.488 258.752V259.392L344.192 259.712L345.024 259.904L345.472 259.712L345.536 259.328L345.856 259.008C346.155 258.965 346.347 258.944 346.432 258.944C346.517 258.816 346.517 258.645 346.432 258.432C346.432 258.091 346.368 257.749 346.24 257.408L346.176 255.616C346.176 255.275 346.219 254.955 346.304 254.656C346.368 254.016 346.56 253.76 346.688 253.248C346.816 252.693 346.901 252.16 346.944 251.648C349.101 251.981 351.305 251.85 353.408 251.264C353.92 251.691 354.496 252.032 355.136 252.288V252.928C355.136 253.099 355.179 253.248 355.264 253.376L355.456 253.568C355.627 253.568 355.776 253.525 355.904 253.44C356.032 253.355 356.075 253.205 356.032 252.992V252.544H357.184V253.248C357.269 253.419 357.376 253.504 357.504 253.504H357.888C358.016 253.333 358.08 253.12 358.08 252.864V252.416L358.72 252.16V252.736L358.528 253.312C358.4 253.696 358.208 253.824 358.016 254.208C357.845 254.549 357.632 254.869 357.376 255.168L356.992 255.616L356.608 256.192L356.032 256.832C355.584 257.216 355.264 256.96 354.752 257.408L354.56 258.048L355.456 258.432L356.288 258.56L356.544 258.432C356.544 258.219 356.608 258.048 356.736 257.92C356.864 257.792 357.013 257.707 357.184 257.664C357.44 257.664 357.653 257.621 357.824 257.536C357.995 257.28 358.144 256.96 358.272 256.576C358.747 255.63 359.399 254.782 360.192 254.08L361.28 253.184C361.451 253.013 361.557 252.8 361.6 252.544L361.472 252.16L361.344 251.52C362.304 251.968 361.984 251.968 362.112 252.416C362.304 252.8 362.112 253.056 362.176 253.504C362.24 254.016 362.496 254.208 362.496 254.72C362.496 255.189 362.432 255.68 362.304 256.192C362.304 256.619 362.197 257.045 361.984 257.472C361.828 257.843 361.587 258.172 361.28 258.432L360.896 258.752L360.832 259.392L361.536 259.648L362.56 259.904L362.816 259.712C362.944 259.264 362.816 258.624 363.072 258.624C363.328 258.624 363.499 258.56 363.584 258.432V257.984L364.032 255.104L364.288 253.888L364.544 252.8C364.992 251.52 364.416 251.328 363.904 250.496C363.605 250.112 363.456 249.792 363.456 249.536V245.888L363.712 245.76C364.48 245.312 364.8 245.184 365.248 244.16L365.44 243.2V242.56L365.184 241.92L364.8 241.408C364.352 240.768 363.712 240.704 363.072 240.448C362.112 240.128 361.472 240.192 360.512 240.128C359.36 240 358.784 240 357.696 240.128C356.416 240.128 355.712 240.384 354.432 240.576L351.296 240.832C349.824 240.832 348.48 240.512 347.584 240.576C346.048 240.704 345.984 241.088 343.616 241.28L341.184 241.408L339.776 240.96C340.352 240.768 340.48 240.64 340.736 240.32C340.992 240 340.864 239.872 341.12 239.616L341.568 238.976L340.992 238.72H340.352L339.584 238.912L339.072 239.296L337.664 238.528C337.063 238.225 336.413 238.03 335.744 237.952V238.08Z" fill="#D52B1E" style="fill:#D52B1E;fill:color(display-p3 0.8353 0.1686 0.1176);fill-opacity:1;"/>
<g id="Group_11">
<path id="Vector_114" d="M364.032 246.08L363.52 246.272C363.008 246.486 362.453 246.592 361.856 246.592C360.192 246.72 359.104 245.888 357.376 246.016C356.48 246.08 356.096 246.784 355.136 247.04L354.048 247.168L354.368 246.528C354.368 246.528 353.6 246.72 353.088 246.72L352.064 246.592L352.704 245.952L351.872 245.824L351.232 245.376L352.32 245.184C353.28 244.928 353.6 244.416 354.816 244.288C355.52 244.288 356.736 244.288 359.68 244.8C361.6 245.12 362.496 244.928 363.2 244.608C363.627 244.395 363.861 244.011 363.904 243.456C363.904 242.944 363.733 242.56 363.392 242.304C363.307 242.262 363.072 242.176 362.688 242.048" stroke="#FEDF00" style="stroke:#FEDF00;stroke:color(display-p3 0.9961 0.8745 0.0000);stroke-opacity:1;" stroke-width="0.64" stroke-linecap="round"/>
<path id="Vector_115" d="M335.872 240.384C335.573 240.384 335.296 240.448 335.04 240.576C334.784 240.79 334.571 241.024 334.4 241.28C334.699 241.408 334.955 241.472 335.168 241.472C335.381 241.472 335.552 241.366 335.68 241.152C335.851 240.939 335.936 240.683 335.936 240.384H335.872Z" fill="#FCD900" stroke="#FEDF00" style="fill:#FCD900;fill:color(display-p3 0.9882 0.8510 0.0000);fill-opacity:1;stroke:#FEDF00;stroke:color(display-p3 0.9961 0.8745 0.0000);stroke-opacity:1;" stroke-width="0.32"/>
<path id="Vector_116" d="M343.04 248.832L343.68 250.304C343.808 250.816 343.68 251.072 343.808 251.584V252.608M348.16 248.128L347.968 248.96L347.328 251.2V251.648M340.288 249.088C340.864 249.216 340.672 251.2 341.504 251.648" stroke="#FEDF00" style="stroke:#FEDF00;stroke:color(display-p3 0.9961 0.8745 0.0000);stroke-opacity:1;" stroke-width="0.64" stroke-linecap="round"/>
<path id="Vector_117" d="M358.464 252.672L358.72 252.48C359.369 252.218 359.957 251.826 360.448 251.328" stroke="#FEDF00" style="stroke:#FEDF00;stroke:color(display-p3 0.9961 0.8745 0.0000);stroke-opacity:1;" stroke-width="0.64"/>
<path id="Vector_118" d="M353.536 251.52C355.776 250.944 357.312 249.856 358.4 249.664M355.84 248.704H356.352C357.312 248.512 357.44 249.088 358.08 249.472C359.296 250.112 359.424 250.944 360.832 251.648L361.088 251.712L361.6 251.968" stroke="#FEDF00" style="stroke:#FEDF00;stroke:color(display-p3 0.9961 0.8745 0.0000);stroke-opacity:1;" stroke-width="0.64" stroke-linecap="round"/>
<path id="Vector_119" d="M331.328 242.88H331.776L332.288 242.752C332.459 242.752 332.608 242.795 332.736 242.88C332.821 242.88 332.885 242.944 332.928 243.072C332.971 243.2 332.992 243.307 332.992 243.392C332.992 243.52 332.864 243.606 332.608 243.648C332.48 243.648 332.373 243.584 332.288 243.456V243.2C332.199 243.245 332.1 243.269 332 243.269C331.9 243.269 331.801 243.245 331.712 243.2L331.328 242.88Z" fill="#FCD900" stroke="#FEDF00" style="fill:#FCD900;fill:color(display-p3 0.9882 0.8510 0.0000);fill-opacity:1;stroke:#FEDF00;stroke:color(display-p3 0.9961 0.8745 0.0000);stroke-opacity:1;" stroke-width="0.32"/>
</g>
<path id="Vector_120" d="M336.064 249.088L334.784 248.512C335.04 248.427 335.253 248.32 335.424 248.192C335.552 247.936 335.659 247.659 335.744 247.36C335.787 246.934 335.936 246.635 336.192 246.464C336.448 246.294 336.683 246.272 336.896 246.4C337.195 246.443 337.387 246.592 337.472 246.848C337.472 247.19 337.408 247.51 337.28 247.808C337.195 248.15 337.152 248.448 337.152 248.704C337.152 248.96 337.237 249.174 337.408 249.344L336.128 249.088H336.064ZM335.424 249.728C335.413 249.654 335.424 249.577 335.455 249.509C335.487 249.44 335.538 249.383 335.603 249.343C335.667 249.304 335.742 249.284 335.817 249.287C335.892 249.289 335.965 249.314 336.027 249.358C336.088 249.402 336.135 249.463 336.162 249.533C336.189 249.604 336.195 249.681 336.178 249.754C336.162 249.828 336.124 249.895 336.069 249.947C336.015 250 335.946 250.035 335.872 250.048C335.817 250.058 335.76 250.055 335.705 250.04C335.651 250.025 335.601 249.998 335.558 249.961C335.515 249.924 335.481 249.879 335.458 249.828C335.435 249.776 335.423 249.72 335.424 249.664V249.728ZM334.336 239.104H334.208C334.037 238.848 333.909 238.592 333.824 238.336L333.632 237.568V236.288C333.632 236.075 333.589 235.883 333.504 235.712C333.504 235.584 333.248 235.52 333.312 235.456C333.355 235.456 333.44 235.456 333.568 235.456C333.781 235.456 333.995 235.542 334.208 235.712C334.421 235.883 334.549 236.096 334.592 236.352L334.848 237.312L335.04 237.824L335.36 238.208L334.912 238.72L334.336 239.104ZM336.64 245.888L338.048 246.528C339.016 245.954 339.795 245.108 340.288 244.096C340.864 242.944 340.928 242.368 341.184 241.28L340.032 240.96H339.776C339.456 242.112 339.328 242.688 338.752 243.648C338.24 244.502 337.685 245.142 337.088 245.568L336.64 245.888ZM339.84 257.536L340.352 256.704L341.248 256H341.504C341.493 256.611 341.385 257.216 341.184 257.792L340.928 258.432L340.608 258.752C340.288 258.24 339.776 257.92 339.776 257.472L339.84 257.536ZM360.96 258.688L361.856 259.072L362.816 259.648V259.968L361.856 260.096H360.384L360 259.84C360.32 259.392 360.512 258.816 360.896 258.688H360.96ZM354.688 257.408L355.584 257.728L356.544 258.368C356.544 258.454 356.544 258.539 356.544 258.624C355.981 258.775 355.398 258.84 354.816 258.816L354.176 258.752L353.728 258.56C354.112 258.112 354.304 257.472 354.688 257.408ZM343.552 258.752L344.512 259.072L345.472 259.712V260.032C344.885 260.168 344.28 260.212 343.68 260.16H343.04L342.656 259.904C342.976 259.456 343.168 258.88 343.552 258.752ZM337.792 239.68C337.365 239.424 337.237 239.083 337.408 238.656C337.493 238.571 337.621 238.486 337.792 238.4C337.877 238.23 337.877 238.059 337.792 237.888L337.728 237.248L337.6 236.608C337.557 236.267 337.643 235.926 337.856 235.584C338.069 235.371 338.24 235.243 338.368 235.2C338.453 235.328 338.453 235.499 338.368 235.712C338.368 235.968 338.432 236.224 338.56 236.48L339.008 237.312C339.136 237.611 339.221 237.91 339.264 238.208C339.264 238.464 339.221 238.72 339.136 238.976L338.752 239.488L338.24 239.744L337.792 239.68Z" fill="#0065BD" style="fill:#0065BD;fill:color(display-p3 0.0000 0.3961 0.7412);fill-opacity:1;"/>
</g>
<g id="ad-b_2">
<path id="Vector_121" d="M335.744 261.504L335.36 261.632L334.848 262.144C334.635 262.357 334.379 262.528 334.08 262.656L333.696 262.976C333.504 263.168 333.696 263.36 333.504 263.616C333.461 263.829 333.333 264.043 333.12 264.256C332.907 264.469 332.693 264.683 332.48 264.896L331.712 265.536L331.52 265.6H331.136C330.923 265.771 330.752 265.941 330.624 266.112L330.816 266.496L331.328 267.392C331.413 267.648 331.52 267.819 331.648 267.904C331.947 268.032 332.224 268.053 332.48 267.968C332.907 268.053 333.333 268.16 333.76 268.288L334.72 268.8C334.976 268.971 335.253 269.077 335.552 269.12H336.704V269.312L337.984 269.952L337.92 270.208C337.835 270.421 337.813 270.592 337.856 270.72C338.283 271.957 338.603 272.64 338.816 272.768C339.157 272.939 339.392 273.259 339.52 273.728L339.328 273.92C338.901 274.261 338.539 274.645 338.24 275.072C337.792 275.84 337.472 275.84 338.048 276.864L339.008 278.4C339.221 278.827 339.392 279.253 339.52 279.68C339.648 280.107 339.712 280.533 339.712 280.96L340.352 281.152L340.8 280.768L341.184 280V279.36C341.056 279.275 341.013 279.125 341.056 278.912C341.056 278.656 341.376 278.72 341.504 278.528C341.696 278.208 341.248 278.016 341.056 277.824C340.672 277.376 340.16 277.248 340.032 276.608C339.989 276.48 340.075 276.331 340.288 276.16L341.568 275.008C341.739 275.093 341.952 275.115 342.208 275.072L343.04 275.328C343.381 275.371 343.637 275.371 343.808 275.328H344.064L344.128 275.712C344.192 276.352 344.064 277.632 344.256 277.952L344.448 278.336L344.576 278.72V280L344.448 281.088C344.448 281.344 344.341 281.557 344.128 281.728C343.915 281.899 343.701 282.048 343.488 282.176V282.816L344.192 283.136L345.024 283.328L345.472 283.136L345.536 282.752L345.856 282.432C346.155 282.389 346.347 282.368 346.432 282.368C346.517 282.24 346.517 282.069 346.432 281.856C346.432 281.515 346.368 281.173 346.24 280.832L346.176 279.04C346.176 278.699 346.219 278.379 346.304 278.08C346.368 277.44 346.56 277.184 346.688 276.672C346.816 276.117 346.901 275.584 346.944 275.072C349.101 275.405 351.305 275.274 353.408 274.688C353.92 275.115 354.496 275.456 355.136 275.712V276.352C355.136 276.523 355.179 276.672 355.264 276.8L355.456 276.992C355.627 276.992 355.776 276.949 355.904 276.864C356.032 276.779 356.075 276.629 356.032 276.416V275.968H357.184V276.672C357.269 276.843 357.376 276.928 357.504 276.928H357.888C358.016 276.757 358.08 276.544 358.08 276.288V275.84L358.72 275.584V276.16L358.528 276.736C358.4 277.12 358.208 277.248 358.016 277.632C357.845 277.973 357.632 278.293 357.376 278.592L356.992 279.04L356.608 279.616L356.032 280.256C355.584 280.64 355.264 280.384 354.752 280.832L354.56 281.472L355.456 281.856L356.288 281.984L356.544 281.856C356.544 281.643 356.608 281.472 356.736 281.344C356.864 281.216 357.013 281.131 357.184 281.088C357.44 281.088 357.653 281.045 357.824 280.96C357.995 280.704 358.144 280.384 358.272 280C358.747 279.053 359.399 278.206 360.192 277.504L361.28 276.608C361.451 276.437 361.557 276.224 361.6 275.968L361.472 275.584L361.344 274.944C362.304 275.392 361.984 275.392 362.112 275.84C362.304 276.224 362.112 276.48 362.176 276.928C362.24 277.44 362.496 277.632 362.496 278.144C362.496 278.613 362.432 279.104 362.304 279.616C362.304 280.043 362.197 280.469 361.984 280.896C361.828 281.267 361.587 281.596 361.28 281.856L360.896 282.176L360.832 282.816L361.536 283.072L362.56 283.328L362.816 283.136C362.944 282.688 362.816 282.048 363.072 282.048C363.328 282.048 363.499 281.984 363.584 281.856V281.408L364.032 278.528L364.288 277.312L364.544 276.224C364.992 274.944 364.416 274.752 363.904 273.92C363.605 273.536 363.456 273.216 363.456 272.96V269.312L363.712 269.184C364.48 268.736 364.8 268.608 365.248 267.584L365.44 266.624V265.984L365.184 265.344L364.8 264.832C364.352 264.192 363.712 264.128 363.072 263.872C362.112 263.552 361.472 263.616 360.512 263.552C359.36 263.424 358.784 263.424 357.696 263.552C356.416 263.552 355.712 263.808 354.432 264L351.296 264.256C349.824 264.256 348.48 263.936 347.584 264C346.048 264.128 345.984 264.512 343.616 264.704L341.184 264.832L339.776 264.384C340.352 264.192 340.48 264.064 340.736 263.744C340.992 263.424 340.864 263.296 341.12 263.04L341.568 262.4L340.992 262.144H340.352L339.584 262.336L339.072 262.72L337.664 261.952C337.063 261.649 336.413 261.454 335.744 261.376V261.504Z" fill="#D52B1E" style="fill:#D52B1E;fill:color(display-p3 0.8353 0.1686 0.1176);fill-opacity:1;"/>
<g id="Group_12">
<path id="Vector_122" d="M364.032 269.504L363.52 269.696C363.008 269.909 362.453 270.016 361.856 270.016C360.192 270.144 359.104 269.312 357.376 269.44C356.48 269.504 356.096 270.208 355.136 270.464L354.048 270.592L354.368 269.952C354.368 269.952 353.6 270.144 353.088 270.144L352.064 270.016L352.704 269.376L351.872 269.248L351.232 268.8L352.32 268.608C353.28 268.352 353.6 267.84 354.816 267.712C355.52 267.712 356.736 267.712 359.68 268.224C361.6 268.544 362.496 268.352 363.2 268.032C363.627 267.819 363.861 267.435 363.904 266.88C363.904 266.368 363.733 265.984 363.392 265.728C363.307 265.685 363.072 265.6 362.688 265.472" stroke="#FEDF00" style="stroke:#FEDF00;stroke:color(display-p3 0.9961 0.8745 0.0000);stroke-opacity:1;" stroke-width="0.64" stroke-linecap="round"/>
<path id="Vector_123" d="M335.872 263.808C335.573 263.808 335.296 263.872 335.04 264C334.784 264.213 334.571 264.448 334.4 264.704C334.699 264.832 334.955 264.896 335.168 264.896C335.381 264.896 335.552 264.789 335.68 264.576C335.851 264.363 335.936 264.107 335.936 263.808H335.872Z" fill="#FCD900" stroke="#FEDF00" style="fill:#FCD900;fill:color(display-p3 0.9882 0.8510 0.0000);fill-opacity:1;stroke:#FEDF00;stroke:color(display-p3 0.9961 0.8745 0.0000);stroke-opacity:1;" stroke-width="0.32"/>
<path id="Vector_124" d="M343.04 272.256L343.68 273.728C343.808 274.24 343.68 274.496 343.808 275.008V276.032M348.16 271.552L347.968 272.384L347.328 274.624V275.072M340.288 272.512C340.864 272.64 340.672 274.624 341.504 275.072" stroke="#FEDF00" style="stroke:#FEDF00;stroke:color(display-p3 0.9961 0.8745 0.0000);stroke-opacity:1;" stroke-width="0.64" stroke-linecap="round"/>
<path id="Vector_125" d="M358.464 276.096L358.72 275.904C359.369 275.642 359.957 275.25 360.448 274.752" stroke="#FEDF00" style="stroke:#FEDF00;stroke:color(display-p3 0.9961 0.8745 0.0000);stroke-opacity:1;" stroke-width="0.64"/>
<path id="Vector_126" d="M353.536 274.944C355.776 274.368 357.312 273.28 358.4 273.088M355.84 272.128H356.352C357.312 271.936 357.44 272.512 358.08 272.896C359.296 273.536 359.424 274.368 360.832 275.072L361.088 275.136L361.6 275.392" stroke="#FEDF00" style="stroke:#FEDF00;stroke:color(display-p3 0.9961 0.8745 0.0000);stroke-opacity:1;" stroke-width="0.64" stroke-linecap="round"/>
<path id="Vector_127" d="M331.328 266.304H331.776L332.288 266.176C332.459 266.176 332.608 266.219 332.736 266.304C332.821 266.304 332.885 266.368 332.928 266.496C332.971 266.624 332.992 266.731 332.992 266.816C332.992 266.944 332.864 267.029 332.608 267.072C332.48 267.072 332.373 267.008 332.288 266.88V266.624C332.199 266.669 332.1 266.692 332 266.692C331.9 266.692 331.801 266.669 331.712 266.624L331.328 266.304Z" fill="#FCD900" stroke="#FEDF00" style="fill:#FCD900;fill:color(display-p3 0.9882 0.8510 0.0000);fill-opacity:1;stroke:#FEDF00;stroke:color(display-p3 0.9961 0.8745 0.0000);stroke-opacity:1;" stroke-width="0.32"/>
</g>
<path id="Vector_128" d="M336.064 272.512L334.784 271.936C335.04 271.851 335.253 271.744 335.424 271.616C335.552 271.36 335.659 271.083 335.744 270.784C335.787 270.357 335.936 270.059 336.192 269.888C336.448 269.717 336.683 269.696 336.896 269.824C337.195 269.867 337.387 270.016 337.472 270.272C337.472 270.613 337.408 270.933 337.28 271.232C337.195 271.573 337.152 271.872 337.152 272.128C337.152 272.384 337.237 272.597 337.408 272.768L336.128 272.512H336.064ZM335.424 273.152C335.413 273.077 335.424 273.001 335.455 272.933C335.487 272.864 335.538 272.806 335.603 272.767C335.667 272.727 335.742 272.708 335.817 272.71C335.892 272.713 335.965 272.738 336.027 272.782C336.088 272.826 336.135 272.887 336.162 272.957C336.189 273.028 336.195 273.105 336.178 273.178C336.162 273.252 336.124 273.319 336.069 273.371C336.015 273.424 335.946 273.459 335.872 273.472C335.817 273.481 335.76 273.478 335.705 273.463C335.651 273.448 335.601 273.422 335.558 273.385C335.515 273.348 335.481 273.303 335.458 273.251C335.435 273.2 335.423 273.144 335.424 273.088V273.152ZM334.336 262.528H334.208C334.037 262.272 333.909 262.016 333.824 261.76L333.632 260.992V259.712C333.632 259.499 333.589 259.307 333.504 259.136C333.504 259.008 333.248 258.944 333.312 258.88C333.355 258.88 333.44 258.88 333.568 258.88C333.781 258.88 333.995 258.965 334.208 259.136C334.421 259.307 334.549 259.52 334.592 259.776L334.848 260.736L335.04 261.248L335.36 261.632L334.912 262.144L334.336 262.528ZM336.64 269.312L338.048 269.952C339.016 269.378 339.795 268.532 340.288 267.52C340.864 266.368 340.928 265.792 341.184 264.704L340.032 264.384H339.776C339.456 265.536 339.328 266.112 338.752 267.072C338.24 267.925 337.685 268.565 337.088 268.992L336.64 269.312ZM339.84 280.96L340.352 280.128L341.248 279.424H341.504C341.493 280.035 341.385 280.639 341.184 281.216L340.928 281.856L340.608 282.176C340.288 281.664 339.776 281.344 339.776 280.896L339.84 280.96ZM360.96 282.112L361.856 282.496L362.816 283.072V283.392L361.856 283.52H360.384L360 283.264C360.32 282.816 360.512 282.24 360.896 282.112H360.96ZM354.688 280.832L355.584 281.152L356.544 281.792C356.544 281.877 356.544 281.963 356.544 282.048C355.981 282.199 355.398 282.264 354.816 282.24L354.176 282.176L353.728 281.984C354.112 281.536 354.304 280.896 354.688 280.832ZM343.552 282.176L344.512 282.496L345.472 283.136V283.456C344.885 283.592 344.28 283.635 343.68 283.584H343.04L342.656 283.328C342.976 282.88 343.168 282.304 343.552 282.176ZM337.792 263.104C337.365 262.848 337.237 262.507 337.408 262.08C337.493 261.995 337.621 261.909 337.792 261.824C337.877 261.653 337.877 261.483 337.792 261.312L337.728 260.672L337.6 260.032C337.557 259.691 337.643 259.349 337.856 259.008C338.069 258.795 338.24 258.667 338.368 258.624C338.453 258.752 338.453 258.923 338.368 259.136C338.368 259.392 338.432 259.648 338.56 259.904L339.008 260.736C339.136 261.035 339.221 261.333 339.264 261.632C339.264 261.888 339.221 262.144 339.136 262.4L338.752 262.912L338.24 263.168L337.792 263.104Z" fill="#0065BD" style="fill:#0065BD;fill:color(display-p3 0.0000 0.3961 0.7412);fill-opacity:1;"/>
</g>
</g>
<path id="Vector_129" d="M264.1 175.5H316.7V228H264.1V175.5ZM322.3 175.5H374.9V228H322.3V175.5ZM264.3 273.5C264.367 274.567 264.833 276 265.7 277.8C266.7 279.3 266.3 279.2 268.4 281.6C269.564 282.781 270.916 283.761 272.4 284.5C277.129 286.524 282.266 287.414 287.4 287.1C290.067 286.967 292.267 286.733 294 286.4C297.646 285.915 301.323 285.715 305 285.8C306.467 285.8 308.033 286 309.7 286.4C313.2 287.1 316.7 288.4 316.7 288.4V233.7H264.1V271L264.3 273.4V273.5ZM374.7 273.5C374.488 275.004 374.014 276.459 373.3 277.8C372.3 279.3 372.7 279.2 370.6 281.6C369.436 282.781 368.085 283.761 366.6 284.5C365.3 285.2 364.3 285.5 362.2 286.1C358.744 287.005 355.164 287.343 351.6 287.1C348.933 286.9 346.767 286.667 345.1 286.4L337.9 285.8H334C332.533 285.8 330.967 286 329.3 286.4C325.8 287.1 322.3 288.4 322.3 288.4V233.6H375V271.1L374.8 273.5H374.7Z" stroke="#703D29" style="stroke:#703D29;stroke:color(display-p3 0.4392 0.2392 0.1608);stroke-opacity:1;" stroke-width="0.5"/>
</g>
<defs>
<clipPath id="clip0_2194_3">
<rect width="640" height="480" fill="white" style="fill:white;fill-opacity:1;"/>
</clipPath>
</defs>
</svg>
