<svg width="640" height="480" viewBox="0 0 640 480" fill="none" xmlns="http://www.w3.org/2000/svg">
<g id="ai" clip-path="url(#clip0_2194_286)">
<path id="Vector" d="M0 0H640V480H0V0Z" fill="#012169" style="fill:#012169;fill:color(display-p3 0.0039 0.1294 0.4118);fill-opacity:1;"/>
<g id="Vector_2">
<path d="M0 0L320 240ZM320 0L0 240Z" fill="black" style="fill:black;fill-opacity:1;"/>
<path d="M0 0L320 240M320 0L0 240" stroke="white" style="stroke:white;stroke-opacity:1;" stroke-width="50"/>
</g>
<g id="Clip path group">
<mask id="mask0_2194_286" style="mask-type:luminance" maskUnits="userSpaceOnUse" x="0" y="0" width="374" height="280">
<g id="ai-a">
<path id="Vector_3" d="M0 0V120H373.3V240H320L0 0ZM320 0H160V280H0V240L320 0Z" fill="white" style="fill:white;fill-opacity:1;"/>
</g>
</mask>
<g mask="url(#mask0_2194_286)">
<g id="Vector_4">
<path d="M0 0L320 240ZM320 0L0 240Z" fill="black" style="fill:black;fill-opacity:1;"/>
<path d="M0 0L320 240M320 0L0 240" stroke="#C8102E" style="stroke:#C8102E;stroke:color(display-p3 0.7843 0.0627 0.1804);stroke-opacity:1;" stroke-width="30"/>
</g>
</g>
</g>
<g id="Vector_5">
<path d="M160 0V280ZM0 120H373.3Z" fill="black" style="fill:black;fill-opacity:1;"/>
<path d="M160 0V280M0 120H373.3" stroke="white" style="stroke:white;stroke-opacity:1;" stroke-width="75"/>
</g>
<g id="Vector_6">
<path d="M160 0V280ZM0 120H373.3Z" fill="black" style="fill:black;fill-opacity:1;"/>
<path d="M160 0V280M0 120H373.3" stroke="#C8102E" style="stroke:#C8102E;stroke:color(display-p3 0.7843 0.0627 0.1804);stroke-opacity:1;" stroke-width="50"/>
</g>
<path id="Vector_7" d="M0 240H320V0H426.7V320H0V240Z" fill="#012169" style="fill:#012169;fill:color(display-p3 0.0039 0.1294 0.4118);fill-opacity:1;"/>
<path id="Vector_8" d="M424 191.8C424 282.2 433.7 313.3 453.3 334.3C463.625 345.767 475.389 355.85 488.3 364.3C501.204 355.841 512.967 345.759 523.3 334.3C542.8 313.3 552.6 282.2 552.6 191.8C538.4 198.3 530.3 201.5 518.6 201.3C507.955 200.245 497.642 197.011 488.3 191.8C478.958 197.011 468.645 200.245 458 201.3C446.3 201.5 438.2 198.3 424 191.8Z" fill="white" style="fill:white;fill-opacity:1;"/>
<g id="Group">
<path id="Vector_9" d="M490.36 237.074C493.3 244.281 503.1 252.289 505.648 256.293C502.316 260.297 501.728 259.897 502.12 267.104C508 260.898 508 260.097 511.92 261.098C520.152 269.506 513.488 287.725 506.432 291.729C499.768 295.933 500.944 291.729 490.752 296.934C495.26 300.938 500.748 296.333 505.256 297.534C507.608 300.537 504.08 305.743 506.04 310.948C509.96 310.547 509.568 302.339 510.352 299.336C513.292 288.525 530.736 281.118 531.52 271.108C535.244 269.306 538.772 270.507 543.28 273.11C541.124 263.901 533.676 263.901 531.716 261.098C527.012 253.691 522.896 245.482 512.9 243.08C505.452 241.679 506.04 243.681 501.14 240.277C498.004 237.875 488.792 233.47 490.36 237.074" fill="#FF9900" style="fill:#FF9900;fill:color(display-p3 1.0000 0.6000 0.0000);fill-opacity:1;"/>
<path id="Vector_10" d="M510.548 246.884C511.414 246.884 512.116 246.167 512.116 245.282C512.116 244.398 511.414 243.681 510.548 243.681C509.682 243.681 508.98 244.398 508.98 245.282C508.98 246.167 509.682 246.884 510.548 246.884Z" fill="white" style="fill:white;fill-opacity:1;"/>
</g>
<g id="Group_2">
<path id="Vector_11" d="M465.935 267.985C470.8 261.964 473.152 249.374 475.427 245.203C480.45 246.342 480.378 247.06 486.434 243.34C478.314 240.928 477.62 241.302 476.655 237.295C480.086 225.934 498.971 223.443 505.735 227.945C512.488 232 508.299 232.901 517.568 239.674C518.928 233.733 512.377 230.928 511.31 226.296C512.81 222.769 518.965 223.524 522.555 219.323C520.376 215.97 513.454 220.158 510.488 220.852C499.756 223.246 485.191 210.953 476.16 214.92C472.86 212.398 472.251 208.651 472.397 203.365C465.433 209.613 468.913 216.339 467.403 219.418C463.19 227.125 458.008 234.676 460.6 244.825C462.868 252.205 464.326 250.739 463.67 256.754C463.056 260.708 463.548 271.084 465.935 267.985" fill="#FF9900" style="fill:#FF9900;fill:color(display-p3 1.0000 0.6000 0.0000);fill-opacity:1;"/>
<path id="Vector_12" d="M464.992 245.172C464.587 244.39 463.638 244.091 462.872 244.504C462.107 244.918 461.814 245.886 462.219 246.668C462.624 247.451 463.572 247.75 464.338 247.336C465.104 246.923 465.396 245.955 464.992 245.172Z" fill="white" style="fill:white;fill-opacity:1;"/>
</g>
<g id="Group_3">
<path id="Vector_13" d="M505.53 272.139C497.967 271.001 486.197 275.457 481.524 275.626C479.881 270.647 480.52 270.338 474.27 266.97C476.448 275.314 477.12 275.727 474.26 278.643C462.962 281.52 451.108 266.304 451.384 258.064C451.29 250.064 454.212 253.259 455.096 241.655C449.413 243.54 450.449 250.716 447.118 254.044C443.386 254.557 440.836 248.788 435.458 247.823C433.774 251.461 440.864 255.345 442.98 257.578C450.537 265.72 447.764 284.807 455.76 290.648C455.353 294.836 452.527 297.307 448.02 299.913C456.859 302.768 460.697 296.247 464.059 295.975C472.699 295.671 481.708 296.294 488.875 288.78C493.889 282.981 491.906 282.465 497.287 279.927C500.919 278.419 509.362 272.622 505.53 272.139" fill="#FF9900" style="fill:#FF9900;fill:color(display-p3 1.0000 0.6000 0.0000);fill-opacity:1;"/>
<path id="Vector_14" d="M486.895 284.762C486.449 285.52 486.689 286.504 487.431 286.96C488.173 287.415 489.137 287.17 489.583 286.412C490.029 285.653 489.789 284.67 489.047 284.214C488.305 283.758 487.341 284.004 486.895 284.762Z" fill="white" style="fill:white;fill-opacity:1;"/>
</g>
<path id="Vector_15" d="M440 315.1C443.445 322.131 447.928 328.604 453.3 334.3C463.625 345.767 475.389 355.85 488.3 364.3C501.204 355.841 512.967 345.759 523.3 334.3C528.636 328.597 533.086 322.125 536.5 315.1H440Z" fill="#99CCFF" style="fill:#99CCFF;fill:color(display-p3 0.6000 0.8000 1.0000);fill-opacity:1;"/>
<path id="Vector_16" d="M421.2 188.2C421.2 282.4 431.4 314.8 451.8 336.7C462.581 348.59 474.849 359.043 488.3 367.8C501.722 359.045 513.957 348.591 524.7 336.7C545.1 314.8 555.3 282.4 555.3 188.2C540.5 195 532 198.3 519.8 198.2C508.8 197.9 497.2 192.5 488.3 188.2C479.3 192.5 467.7 197.9 456.8 198.2C444.5 198.3 436.1 195 421.2 188.2ZM425.2 193.2C439.2 199.7 447.2 202.8 458.7 202.6C469.108 201.537 479.185 198.337 488.3 193.2C496.7 197.2 507.6 202.4 517.9 202.6C529.4 202.8 537.3 199.6 551.3 193.2C551.3 282.2 541.7 312.8 522.5 333.4C512.408 344.626 500.914 354.507 488.3 362.8C475.651 354.514 464.123 344.633 454 333.4C434.8 312.8 425.3 282.1 425.3 193.2H425.2Z" fill="#FDC301" style="fill:#FDC301;fill:color(display-p3 0.9922 0.7647 0.0039);fill-opacity:1;"/>
</g>
<defs>
<clipPath id="clip0_2194_286">
<rect width="640" height="480" fill="white" style="fill:white;fill-opacity:1;"/>
</clipPath>
</defs>
</svg>
