<svg width="640" height="480" viewBox="0 0 640 480" fill="none" xmlns="http://www.w3.org/2000/svg">
<g id="aq" clip-path="url(#clip0_2194_327)">
<path id="Vector" d="M0 0H640V480H0V0Z" fill="#3A7DCE" style="fill:#3A7DCE;fill:color(display-p3 0.2275 0.4902 0.8078);fill-opacity:1;"/>
<path id="Vector_2" d="M157.7 230.8C154.2 223 154.2 223 154.2 215.2C152.4 215.2 152.2 215.5 151.2 215.2C150.1 214.9 149.7 222.4 146.4 221C145.9 220.2 148.8 214.8 145.7 212.5C144.7 211.8 145.9 207.3 145.5 205.3C145.5 205.3 141.5 207.7 138.5 199.5C137 197.3 135 201.5 135 201.5C135 201.5 135.9 203.9 134.3 204.5C132.1 202.7 130.4 203.7 127.6 201.1C124.8 198.5 128.2 195.7 122.8 193.6C126.3 183.8 126.3 185.7 135 181.8C129.8 177.8 129.8 177.8 126.3 172C121.1 170 119.3 168 114.1 164.2C107.1 154.3 103.6 134.7 103.6 121C108 116.4 114.1 136.7 122.8 142.6L135 148.5C142 152.4 143.7 156.3 149 160.2L164.6 166.2C171.6 172 175.1 179.8 180.3 181.8C186 181.8 187.1 178.1 188.9 177.9C199.2 177.3 204.4 175.9 206.4 172.4C208.5 169.6 213.4 174 227.4 168.1L225.7 160.2C225.7 160.2 229.4 156.8 234.4 158.2C234.3 154.7 233.9 145.2 238.9 140.8C235.9 137.3 240.7 131.8 240.9 130.1C239.5 121.5 242.3 121.4 242.9 118.8C243.5 116.3 240.5 117.1 241.3 113.6C242.2 110.1 247.3 109.3 247.9 106.4C248.6 103.5 246.8 92.0998 246.6 89.5998C256 86.7998 259 78.1998 262.3 81.7998C264 69.9998 265.8 65.9998 276.3 65.9998C277.7 62.3998 272.4 59.2998 274.5 58.0998C278 57.5998 280.6 57.8998 284.7 63.7998C286 65.7998 286.3 61.0998 287.6 60.5998C288.9 60.0998 292 60.0998 292.5 57.7998C293 55.3998 293.7 52.1998 295.5 48.2998C296.9 45.0998 298 49.5998 299.3 55.7998C306.7 56.0998 323.3 57.8998 330.3 60.0998C335.5 61.5998 339 58.5998 344 57.8998C347.7 62.0998 351.2 58.8998 353.2 67.8998C355.9 72.6998 360.5 68.2998 361.5 69.6998C367.3 87.7998 387.3 75.5998 388.9 75.8998C391.4 75.8998 394.5 83.8998 396.6 83.7998C399.8 83.1998 398.9 80.6998 401.8 81.6998C401 88.4998 407.4 96.2998 407.4 101.4C407.4 101.4 408.9 102.3 410.4 100.8C411.8 99.1998 413.1 95.3998 414.4 95.4998C417.4 95.9998 436.4 101.5 440.2 103.4C441.9 106.9 443.5 108.7 447 108.1C449.8 110.2 447.8 113.1 449.4 113.2C452.9 111.2 454.1 109.2 457.6 111.1C461.1 113.1 464.6 117 466.3 120.9C466.3 122.9 464.5 130.7 466.3 142.5C467.2 146.4 476 174.8 476 177.7C476 181.7 473.3 183.7 471.5 187.6C478.5 193.5 471.5 203.3 468 209.2C494.2 215.1 482 226.8 502.9 220.9C497.7 234.7 499.5 233.6 504.7 247.3C494.3 255.1 504.5 257.5 497.6 267.3C497.1 268 501.7 275.9 508.1 275.9C506.4 291.5 501.1 285.7 502.9 309.2C489.2 308.9 494.7 326.8 485.5 324.9C486 336.1 490.7 337.1 488.9 348.4C481.9 350.4 481.9 350.4 478.5 356.3L473.3 354.3C471.5 364.1 468 366.1 473.3 375.9C473.3 375.9 466.5 376.1 464.5 375.9C464.4 379.3 467.5 380.2 468 383.7C467.8 385.1 458.1 391.3 450.6 391.6C448.6 396.4 455.8 401.6 455.4 404C447.2 405.8 443.6 417 443.6 417C443.6 417 447.8 419 447.1 421C444.9 419.2 443.6 419 440.1 419C438.4 419.5 434.1 419 430.1 426.7C425.6 428.3 423.5 427.7 420.1 432.7C418.6 428 416.4 432.8 413.8 434.7C411.1 436.5 407.6 441.2 407.1 441C407.2 439.6 408.7 434.7 408.7 434.7L399 437C398.3 437.1 398.5 431.3 396.8 431.5C395.1 431.7 390.4 438.8 388.8 439C387.2 439.2 386.7 436.8 385.3 437C383.9 437.2 381.3 444.5 380.3 444.7C379.3 444.8 375.3 440.2 372 440.9C354.9 447.7 352.1 427.5 349.5 438.9C345.9 436.7 346.5 437.9 342.8 439C340.5 439.7 340.3 435.6 338.2 435.6C334.1 435.8 334.2 440.2 332 438.9C330.2 429.7 319 431.3 318 427.4C317 423.5 322.8 423.4 324.6 420.6C326 416.6 323.1 415 328.9 411.2C336.4 405.5 335.7 391.4 333.8 385.9C333.8 385.9 327.9 368.2 326.8 368.2C323.3 367.2 323.3 374.7 318.2 376.8C307.7 380.8 289.2 366.9 286 366.9C283.1 366.9 269.5 370.5 270 362.9C268 370.3 260.5 364.6 260 364.6C253 364.6 255.7 370.7 251 370.5C248.9 369.7 227.4 368.2 227.4 368.2V372.2L201.3 360.4C190.8 356.4 196 346.7 178.6 352.6V340.8H169.9C173.4 317.2 169.9 329 168.1 307.4L161.1 309.4C154.1 298.8 170.9 300.8 155.9 293.7C155.9 293.7 156.2 282 152.4 285.9C151.7 286.4 154.2 291.7 154.2 291.7C140.2 289.7 136.8 285.9 136.8 270.2C136.8 270.2 148.2 272 147.2 270.2C145.6 267.2 143.5 248.2 143.8 246.8C143.7 244.2 154.5 237.8 152.4 231.6C153.8 231 157.7 230.9 157.7 230.9" fill="white" style="fill:white;fill-opacity:1;"/>
<path id="Vector_3" d="M512.255 288C511.739 289.29 511.768 290.451 512.341 291.483C513.287 289.838 512.513 289.161 512.341 288H512.255ZM102.795 143.419C102.795 143.419 100.214 143.032 100.731 145.645C101.591 143.709 102.709 143.516 102.795 143.419ZM102.537 137.226C101.075 137.226 99.2682 137.032 99.9564 139.645C100.817 137.613 102.537 137.322 102.537 137.226ZM113.462 172.355C113.462 172.355 115.698 172.161 115.182 174.774C114.322 172.838 113.462 172.451 113.462 172.355Z" stroke="white" style="stroke:white;stroke-opacity:1;" stroke-width="2.28098" stroke-linejoin="round"/>
</g>
<defs>
<clipPath id="clip0_2194_327">
<rect width="640" height="480" fill="white" style="fill:white;fill-opacity:1;"/>
</clipPath>
</defs>
</svg>
