<svg width="640" height="480" viewBox="0 0 640 480" fill="none" xmlns="http://www.w3.org/2000/svg">
<g id="as" clip-path="url(#clip0_2194_490)">
<path id="Vector" d="M0 0H640V480H0V0Z" fill="#000066" style="fill:#000066;fill:color(display-p3 0.0000 0.0000 0.4000);fill-opacity:1;"/>
<path id="Vector_2" d="M-0.600098 240L639.4 0V480L-0.600098 240Z" fill="#BD1021" style="fill:#BD1021;fill:color(display-p3 0.7412 0.0627 0.1294);fill-opacity:1;"/>
<path id="Vector_3" d="M59.7 240L639.7 25.7002V454.3" fill="white" style="fill:white;fill-opacity:1;"/>
<path id="Vector_4" d="M474 270.4C479.1 270.7 479 275.8 479 275.8L497 276.2C499.3 269.9 501.8 270.6 506.2 273.8C508.878 275.619 511.81 277.034 514.9 278C516.6 269 529.4 270.8 529.4 270.8C535 257.8 535.4 257.9 532.1 256.3C530.152 255.292 528.551 253.725 527.5 251.8C524.5 248.1 522.9 242.7 522.5 239.4C522.1 236.1 518.3 241 517.5 240C516.9 239 511.2 239.6 511.2 239.6C512.6 241.1 507.8 240.2 507.8 240.2C508.3 240.6 507.8 241.9 507.8 241.9C507.4 241.3 503.7 240.7 503.7 240.7L502.6 242.3C500.6 241.5 496.6 241.6 496.6 241.6C492.774 241.471 488.991 242.443 485.7 244.4C484.1 245.3 478.3 248.2 473.4 252.9C468.7 257.5 466 256.9 466 256.9C464.6 262.1 453.2 268.4 453.2 268.4C451.4 270 445.6 270.8 442.7 268.4C439.8 266 442.7 261.5 442.7 261.5C443.9 259.5 444.9 259.6 445 252.5C445.1 247.8 450 244 455 238.5C461.3 231.7 470 220.5 470 220.5C470 223.9 471.8 224.5 471.8 224.5C473.5 221 476 218.2 476 218.2C476.2 218.467 476.367 218.6 476.5 218.6C478.5 216.133 479.5 214.933 479.5 215C479 214.7 473.5 215 468.5 219.4C463.5 223.8 460.1 222.4 460.1 222.4C456.6 221.2 456.3 218.4 456.3 218.4C453.8 207.5 463.7 199.7 463.7 199.7C450.3 196.5 460 179.4 476.7 172.2C493.4 165 493.1 161.7 493.1 161.7C493.833 162.614 494.438 163.624 494.9 164.7C495 164.7 496.3 162.8 505.9 158.6C515.5 154.3 520.1 150.6 520.1 150.6C521.3 153 521.1 154.6 521.1 154.6C547.4 145.5 573.1 124.4 573.1 124.4C573.9 126.1 573.6 128.8 573.6 128.8C577.8 124.8 593.3 115.6 593.3 115.6C593.364 117.258 592.968 118.901 592.156 120.349C591.344 121.796 590.148 122.99 588.7 123.8L589.5 126.1C594.375 123.049 599.177 119.881 603.9 116.6C608.2 120.3 604.3 126.4 604.3 126.4C605.9 126.1 606.9 124.8 606.9 124.8C608.1 131.2 601 136.8 601 136.8C602.3 136.8 604.3 135.5 604.3 135.5C603 142.5 589.9 150.1 589.9 150.1C591.8 151.9 589.9 154.1 588.3 155.1C586.8 156.1 584 158.4 584.9 159.3C585.8 160.2 591.6 156.1 591.6 156.1C592.6 159 585.1 164.7 585.1 164.7C590.3 165.4 604.7 158.8 604.7 158.8C603.6 164.4 598.1 168.8 591.4 171.3C584.7 173.8 585 174.3 585 174.3C586.2 175.1 595.5 172.5 595.5 172.5C592.7 178.7 583 183 583 183C585.7 185.3 589.3 182.6 593 180.1C597.362 177.354 602.07 175.202 607 173.7C612.3 171.8 616.2 173.2 616.2 173.2C618.981 172.379 621.964 172.592 624.6 173.8C633.3 174.5 634.2 177.7 634.2 177.7C635.2 177.9 635.9 178.3 638.2 180C640.3 181.6 640.2 186.6 640.2 189.2C640 191.6 639.3 191.6 638.9 192.2C638.567 193 638.4 193.833 638.4 194.7C638.4 195.7 636.2 201.6 622.7 201.6H602.4C601.2 201.6 599.9 202.3 599.9 202.3C594.2 205.1 597.2 200.3 590.5 205.9C583.8 211.5 580.3 210.5 580.3 210.5C576.523 214.362 572.407 217.876 568 221C564 223.6 564.7 223.3 568.3 224.8C571.9 226.3 577.1 224.8 577.1 224.8C573.7 227.1 576.1 228.2 576.1 228.2C580.5 225.5 583.3 226.5 583.3 226.5C584.7 230.4 579.5 236.5 579.5 236.5C581.5 236.8 585.3 236.5 585.3 236.5C584.3 239.2 580.7 242.1 577.9 242.9C575.2 243.9 575.6 244.2 576.5 245.9C577.2 247.5 576.6 249.2 576.6 249.2C571.8 245.9 571.6 248.8 571.6 248.8C571.1 252.8 571.2 258.4 571.2 258.4C567.8 256.7 567.7 258.9 567.7 258.9C566.7 262.5 562.6 266.6 562.6 266.6C562.4 264.4 560.4 263.8 560.4 263.8C558.2 268 554.3 270.5 554.3 270.5C553.8 274 554.8 279.1 554.8 279.1C552.2 278.5 551.3 278.5 550.8 279.1C550.5 279.8 551.4 280.1 551.4 280.1L584.8 280.9C585.3 280.9 587.3 281.2 587.3 284.7C587.3 288.4 584.3 288.6 584.3 288.6L547.9 287.7C547.9 287.7 548 288.7 546.1 289.7C544.2 290.7 544.9 288.6 544.4 293.1C543.9 297.6 536.6 292.7 536.6 292.7C535.4 294.5 532.6 296.7 532.6 296.7C530.9 291.7 529.2 290.3 526.6 294.5C524 298.7 531.4 298.1 531.4 298.1C531.4 298.1 574.2 291.8 576.5 291.6C578.8 291.4 581.4 291.5 582.5 294.7C583.6 297.9 577.2 298.5 577.2 298.5L533.2 303.3C532.3 305.9 528.7 305.7 528.7 305.7C529 308.2 526.4 309.7 525.1 310.7C523.7 311.5 519.5 311.2 519.5 311.2C514.5 314.6 511.9 311.9 511.9 311.9C508.6 313.3 506.5 312.7 503.8 311.5C501 310.3 501.3 307 501.3 307L473.5 310C472.701 310.265 471.955 310.671 471.3 311.2C472.3 312.5 469.3 315.5 469.3 315.5C470.2 316 471.8 317.6 472 321C472.2 324.7 467.5 325.3 469.8 328C472.1 330.5 476.5 328.3 481.3 326C486.1 323.7 490.8 324 492.8 324C494.8 324 500.6 325.6 504.2 326.8C507.8 328 509 327.2 509.2 325.4C509.4 323.6 511.1 323.1 511.1 323.1C510.6 324.9 511.6 325.7 511.6 325.7C512.901 325.492 514.155 325.052 515.3 324.4C515.1 325.8 513.3 326.6 513.3 326.6C509.9 328.9 514.7 328.1 514.7 328.1C519.705 326.694 524.918 326.187 530.1 326.6C534.969 328.037 539.745 329.773 544.4 331.8C544.8 330.6 544.5 327.8 544.5 327.8C547.5 328.6 548.7 330.3 548.7 330.3C549.9 329.1 549.1 326.9 549.1 326.9C558.8 332.4 547.1 334.9 544 335.9C540.9 336.9 541 338.2 541 338.2C543.075 337.519 545.223 337.082 547.4 336.9C549.6 336.7 548.8 336.9 553.9 335.9C559.1 334.9 561.7 337.1 561.7 337.1C557.4 337.3 556.2 338.6 556.2 338.6C558.8 340.3 556.2 342 556.2 342C552.4 337 549 342.1 549 342.1C551.211 342.09 553.396 342.568 555.4 343.5L560.8 346.2C564.4 347.8 563.7 346.8 566.4 347.8C569.2 348.8 568.1 351.5 568.1 351.5C567.255 350.098 565.946 349.037 564.4 348.5C564.2 351.5 561.3 352 561.3 352C564.9 348 557.2 346.2 553.5 346.3C549.9 346.3 547.2 348.7 547.2 348.7C554.5 355.6 559.5 353.3 559.5 353.3C558.6 355.8 552.6 354.8 552.6 354.8C555.4 357 555.1 358.4 555.1 358.4C553.6 357 551.1 357.7 545.9 354.4C540.7 350.9 536 352.1 536 352.1C541.2 357.4 534.2 360.7 534.2 360.7C531.6 362.3 535.2 364.2 535.2 364.2C532 364.8 531.6 361.6 531.6 361.6C529.9 361.2 527.4 363.2 527.4 363.2C527.6 360 532 361.6 532 358.2C532.2 354.7 528 352 515.7 353.7C503.4 355.4 499.7 351.5 499.7 351.5C498.7 351.5 498.5 352.5 498.5 352.5C500.5 354.5 501.4 355.3 501.1 356.7C500.7 358 501.7 358.5 501.7 358.5C499.4 358.3 499.3 355.7 499.3 355.7C499.3 356.8 498.8 356.9 498 358C497.2 359.1 498 360.7 498 360.7C497 359.9 495.3 358.9 497 356.4C498.2 354.6 494.3 352.2 494.3 352.2C492.8 350.7 488.7 352.2 488.7 352.2C486.349 352.694 483.914 352.615 481.599 351.971C479.285 351.327 477.159 350.137 475.4 348.5C474.4 348.5 472.5 347.9 472.5 347.9C463.6 351.9 455.8 343.3 455.8 343.3C449.1 344.6 446 341.3 444 338.1C442.821 335.94 441.005 334.194 438.8 333.1C436.2 331.5 433.6 326.9 436.2 324.4C438.2 322.3 437.7 321.8 437.7 321.8C434.2 315.9 443.8 314.1 444 312.6C444.3 310.6 446.3 309.3 448.5 309.2C450.7 309.1 450.7 309.2 452.2 307.8C453.5 306.3 456.2 308.1 456.2 308.1C456.9 307.7 461.7 304 465.9 305.9C470.2 307.8 473.8 306.5 473.8 306.5C476.8 305.8 501.8 302.5 501.8 302.5C503.3 300 504.5 297.1 511.4 295.5C518.3 293.9 523.4 289.5 523.4 289.5C522.2 288.3 520.2 288.3 519.2 288.2C518.1 288.2 516 286.2 516 286.2C514.7 286.8 514 286.5 505 292C496.9 297 496.7 287.2 496.7 287.2H479C478.7 290.9 476 292.4 476 292.4L469.5 292.7C465.9 290.9 465.9 284.5 465.9 284.5C446.5 284.8 435.8 291.7 435.8 291.7C413.8 280.5 396.6 277.9 396.6 277.9C410.688 276.887 424.493 273.436 437.4 267.7C446.041 272.943 455.816 276.03 465.9 276.7C466.4 271.3 470 270 470 270L474 270.4Z" fill="black" style="fill:black;fill-opacity:1;"/>
<path id="Vector_5" d="M442.3 314.6C436.8 317.8 437.8 319.6 438.3 320.6C438.8 321.6 438.8 322.6 437.3 324.2C435.8 325.7 435.9 326.2 435.9 326.2C436.2 331.6 439.9 332.8 441.6 334.2C443 335.2 445.2 338.7 445.2 338.7C448.1 342.8 451.1 342.9 453.3 342.9C455.6 342.9 455.3 342.6 454.3 341.6L450.9 338.9C453.122 339.856 455.129 341.251 456.8 343C462.4 349.2 467.6 348.4 469.9 348.2C472.2 348 471.9 346.5 471.9 346.5L469.5 346.1C461 345.3 458.5 339.7 458.5 339.7C462.813 343.505 468.349 345.634 474.1 345.7C476.5 345.6 476.4 346.3 475.8 346.5L473.4 346.3C472.3 346.3 472.3 346.6 472.5 347.1C472.9 347.433 473.8 347.567 475.2 347.5C476.6 347.5 475.5 347.6 479 350.3C482.6 353.1 491.3 350.8 491.3 350.8C485.6 349.5 484.9 346.8 484.9 346.8C477.2 347.8 474.1 343.2 474.1 343.2C472.355 341.849 470.479 340.677 468.5 339.7C467.291 339.161 466.217 338.361 465.352 337.358C464.488 336.356 463.856 335.175 463.5 333.9C464.8 335.7 467.2 337.7 470.2 338.5C473.2 339.3 474 339.7 474 339.7C473.23 339.861 472.43 339.791 471.7 339.5C468.7 338.5 470.4 339.8 470.4 339.8C473.8 342.5 474.7 342.3 474.7 342.3C483.3 343.2 479 339.7 479 339.7C485.2 341.2 486.2 338.9 486.2 338.9C487.5 341.6 492.2 340.6 492.2 340.6C486 343.6 490.7 342.7 490.7 342.7C497 341.6 498.3 343.2 498.3 343.2C499.9 344.7 501.7 344.6 501.7 344.6C501.7 344.6 502.9 344.6 505.2 345C507.6 345.5 511.4 347.5 514.8 347.2C518.3 346.7 518.8 347.8 518.8 347.8C518.2 347.5 516.6 347.3 514 348.5C511.3 349.8 506.6 350.1 499.8 348.5C493 346.9 492.4 347.2 492.4 347.2C493.906 348.166 495.089 349.559 495.8 351.2C496.1 352.4 497.3 352.4 497.3 352.4C497.8 350.9 499.8 350.3 499.8 350.3C501.363 351.408 503.039 352.347 504.8 353.1C505.2 352.4 504.8 351.8 504.8 351.8C507.4 354.3 510.4 353.5 510.4 353.5C511.2 353 511 351.5 511 351.5C512 351.5 512.2 352.1 513 352.7C513.7 353.1 516 352.8 516 352.8C515.2 352.4 514.5 351.1 514.5 351.1C518 348.8 525.5 349.8 525.5 349.8C530.8 350.8 530.2 354.3 530.2 354.3C531.143 354.858 531.987 355.568 532.7 356.4C533.2 355.2 532.7 353.9 532.7 353.9C535.3 355.1 535.7 357.9 535.7 357.9C538.7 354.7 533 351.1 533 351.1C535.7 350.7 538.7 350.9 540.5 351.1C542.935 351.532 545.212 352.602 547.1 354.2C549.2 355.9 553 356.7 553 356.7C552.9 356 550.8 354.7 550.3 354.5C549.8 354.3 549.7 353.6 549.7 353.6C551.6 354 552.8 353.8 552.8 353.8C546.4 349.8 544.7 347.9 544.7 347.9C547.1 348.2 548.5 346.7 548.5 346.7C543.4 346.7 543.1 345.5 543.1 345.5C543.8 345.6 546.2 346.2 549.3 345.6C552.4 345 556.5 345.6 556.5 345.6C554.3 342 545.8 342.6 543 342.8C540.2 343 539.2 342.6 539.2 342.6C539.6 342.4 540.1 342 542.2 341.9C544.4 341.9 546.5 342.1 549 340.3C551.3 338.7 554.7 339.3 554.7 339.3C553.9 337.7 550 337.1 546.7 339.3C543.2 341.4 540.2 340.8 540.2 340.8C545.5 340 547.1 338.1 547.1 338.1C545.5 337.7 544.6 338.2 541.3 338.9C538.1 339.5 537.3 338.4 537.3 338.4C540.8 336.3 543.3 335.4 543.3 335.4C540.3 334.8 537.5 333.4 537.5 333.4C534.3 336.4 531.9 338 525.8 335C519.8 331.8 516.6 332.2 516.6 332.2C518.876 330.906 521.47 330.276 524.086 330.383C526.702 330.489 529.236 331.326 531.4 332.8C535.4 335.1 536.4 333.2 536.4 333.2C535.2 332.5 535.4 331.7 535.4 331.7C545 336.6 549.2 333.7 551.3 332.2C553.4 330.7 550.3 328.8 550.3 328.8C550.1 331.8 546.3 333.4 543.1 332.3C540.1 331.3 537.1 329.9 532.7 328C528.3 326.1 522.7 327.2 517.6 328.2C512.4 329.3 511.7 328.8 511.2 328.4C510.7 328 510.5 326.7 507.8 327.8C505.2 328.9 499 326 495.2 325.1C491.4 324.2 485.1 324.6 479.7 327.6C474.3 330.7 471.5 329.9 469.9 329.2C468.3 328.4 467.2 326.4 469 324.6C470.8 322.8 471 322.3 470.8 319.6C470.6 317 468 315.4 468 315.4C470.4 312.9 471 312.4 470.2 311.4C469.4 310.2 470.6 310.2 472 309.6C473.4 309 472.8 308.9 472.5 308.1C472.2 307.3 471.3 307.5 471.3 307.5C468.2 307.6 466.4 306.7 466.4 306.7C461.2 304.3 456.3 309 456.3 309C453.3 306.7 452.6 308.3 452.1 308.8C451.567 309.4 450.567 309.733 449.1 309.8C447.9 310 446 310.5 445.3 311.7C445.3 311.7 444.7 312.7 445.4 313.7C445.4 313.7 446.2 314.9 444.8 316.4C443.3 317.9 442.8 318.2 443.3 319.7C443.7 321.033 443.6 322.133 443 323C443 323 442.3 322.3 442.5 321.3C442.7 320.3 442.7 319.633 442.5 319.3C442.5 319.3 441 320.7 440.7 321.7C440.7 321.7 440.1 320.1 442.3 318C444.367 316.067 445.167 314.733 444.7 314C444.3 313.4 442.7 314.4 442.4 314.6H442.3Z" fill="#FFC221" style="fill:#FFC221;fill:color(display-p3 1.0000 0.7608 0.1294);fill-opacity:1;"/>
<path id="Vector_6" d="M448.4 338C448.4 338 445.7 336 446 333.1C446.3 330.4 446.3 330.1 446 329.4C446 329.4 445.5 329.7 445.6 330.8C445.7 331.9 445.4 332.9 445.3 333.1C445.3 333.1 444 330.8 443.3 330.3C443.3 330.3 443.9 327.9 443.1 326.9C442.433 325.9 441.633 325.633 440.7 326.1C439.5 326.5 438.6 327.6 442.7 330.9C442.7 330.9 444.2 332.2 445.2 334.8C446.2 337.4 448 337.8 448.3 338H448.4ZM461.4 330.2C461.4 330.2 461.3 328.7 462.7 325.9C463.202 325.062 463.492 324.113 463.545 323.137C463.597 322.161 463.41 321.187 463 320.3C462.7 319.5 462.4 319.8 463.9 318.6C465.6 317.1 463.2 315.2 466.2 312.6C466.2 312.6 468 311 468.5 310.3C468.5 310.3 465.5 311.9 463.3 312.8C461.3 313.6 453.7 317.4 455.3 319.9C457.1 322.4 456.9 322.6 456.6 323.7C456.6 323.7 452 321.2 453.6 317.3C453.6 317.3 454.4 315.8 456.3 313.9C458.1 312.3 457.1 314.3 460.6 312.2C460.6 312.2 463.3 310.6 464.9 308.3C464.9 308.3 462.9 309.5 462.3 309.7C462.3 309.7 458.3 310.5 456.5 312.2C454.9 313.9 451.4 316.9 452.5 320.2C452.5 320.2 448.5 319.8 447.5 315.5C447.5 315.5 439.9 324.9 455.9 329.3C455.9 329.3 458.9 330.1 461.5 330.3L461.4 330.2Z" fill="black" style="fill:black;fill-opacity:1;"/>
<path id="Vector_7" d="M531.6 299C537.6 298 572 292.8 575.2 292.5C578.6 292.2 579.9 291.7 581.1 294.5C582.4 297.5 576.3 297.6 576.3 297.6L535.2 302.3C533.2 302.5 532.7 301.7 532.7 301.7L531.2 299.7C531.2 299.7 530.7 299.1 531.6 298.9V299Z" fill="#FFC221" style="fill:#FFC221;fill:color(display-p3 1.0000 0.7608 0.1294);fill-opacity:1;"/>
<path id="Vector_8" d="M447.3 317.7C447.3 317.7 442.9 327 460.3 329.3C460.233 329.233 460.5 328.4 461.1 326.8C461.9 325.3 463.4 322.3 461.9 320.4C460.4 318.5 463.1 319.5 463.4 317C463.9 314.5 463.2 314.8 464.4 313.2C464.4 313.2 459 315.2 456.8 317.7C454.8 320.1 459.7 321.9 456.8 324.6C456.8 324.6 454.3 323.6 452.8 321C452.8 321 449.5 321 447.3 317.7Z" fill="#5A3719" style="fill:#5A3719;fill:color(display-p3 0.3529 0.2157 0.0980);fill-opacity:1;"/>
<path id="Vector_9" d="M464.5 329.2C464.5 329.2 468.8 332.9 473.9 332.8C479 332.5 481.3 331.2 482.6 329.2C482.6 329.2 483.6 330.7 483.6 331.8C483.6 331.8 488 328.1 495.6 331.3C503.2 334.5 501 333.6 502.7 333.8C502.7 333.8 499.4 333.3 492 336.7C484.3 340.2 464.3 339 464.4 329.2H464.5Z" fill="black" style="fill:black;fill-opacity:1;"/>
<path id="Vector_10" d="M457.3 312.6C457.3 312.6 459.2 312.9 461.1 310.7C461.1 310.7 458.5 311.2 457.3 312.7V312.6ZM442.6 330C442.6 330 439 327.2 441.3 326.6C441.3 326.6 443 326.3 442.6 330Z" fill="#5A3719" style="fill:#5A3719;fill:color(display-p3 0.3529 0.2157 0.0980);fill-opacity:1;"/>
<path id="Vector_11" d="M521.2 347.8C521.2 347.8 523.2 344.3 528.7 344.3C534.2 344.3 534.8 346.9 541.8 347.3C541.8 347.3 533.4 349.7 527.6 347.6C524.6 346.5 521.8 347.4 521.2 347.8Z" fill="black" style="fill:black;fill-opacity:1;"/>
<path id="Vector_12" d="M466.3 331.7C466.3 331.7 474.7 336.7 482 331.2C482.133 331.2 482.533 331.867 483.2 333.2C483.2 333.2 488.8 327.8 498.7 333.6C498.7 333.6 497.5 333.5 492.8 335.4C486.7 338.1 471.4 339.9 466.3 331.6V331.7Z" fill="#5A3719" style="fill:#5A3719;fill:color(display-p3 0.3529 0.2157 0.0980);fill-opacity:1;"/>
<path id="Vector_13" d="M498.3 336.7C498.3 336.7 506.3 337.7 513 337.3C517.1 337.1 521.6 336.3 519.4 337.7C517.1 339 518.3 339.2 527.8 338.4C537.2 337.4 527.7 340.1 534.2 341C534.2 341 518.3 349 498.3 336.7Z" fill="black" style="fill:black;fill-opacity:1;"/>
<path id="Vector_14" d="M519.2 331.7C519.2 331.7 523.8 330 528.2 332C532.5 334 531.8 334.2 534.7 334.5C534.7 334.5 532.7 337.4 528 335.1C523.3 332.8 522 332.3 519.2 331.7ZM524.4 346C524.4 346 529 343.7 534 346C534.6 346.4 536 347 537.3 347.2C537.3 347.2 533.5 348.5 529.5 347.2C527.8 346.7 526.5 346.3 524.4 346ZM501.7 337.8C501.7 337.8 512 338.8 517.5 337.7C517.5 337.7 511.1 340.7 527.2 339.4C527.2 339.4 530.7 339 530.2 339.5C529.9 340 529.6 340.5 531.4 341C531.4 341 519.4 346.4 501.7 337.8Z" fill="#5A3719" style="fill:#5A3719;fill:color(display-p3 0.3529 0.2157 0.0980);fill-opacity:1;"/>
<path id="Vector_15" d="M450.7 329.2C450.7 329.2 450.9 329.9 453.1 330.9C454.813 331.743 456.214 333.109 457.1 334.8C457.841 336.188 459.098 337.23 460.6 337.7C460.6 337.7 452.6 339.4 449 335.1C449 335.1 446.3 332.1 450.6 329.1" fill="black" style="fill:black;fill-opacity:1;"/>
<path id="Vector_16" d="M513.7 347.6C513.7 347.6 510.6 347.4 506.2 345.9C501.9 344.4 500.8 345.7 498.3 343.9C495.9 342 491 343.2 490.1 343.3C489.1 343.4 486.5 343.3 489.8 341.2C489.8 341.2 487.2 341.2 486.2 339.8C486.2 339.8 485 341 480.6 340.6C480.6 340.6 482.6 343.6 474.6 342.7C475.917 344.281 477.689 345.418 479.676 345.955C481.662 346.492 483.766 346.403 485.7 345.7C485.7 345.9 485.2 348.2 488.7 349.2C492.5 350.1 493.2 350.8 495.1 351.5C495.1 351.5 495.4 350 490.5 346.5C490.5 346.5 493.1 346.3 496.9 347.2C500.7 348.1 509.1 350.3 513.7 347.6ZM515.7 351.3C515.7 351.3 516.5 353.1 518.9 352.7C522.302 351.913 525.863 352.192 529.1 353.5C529.1 353.5 529.8 350.3 522.1 350.1C522.1 350.1 517.3 350.3 515.7 351.3ZM450.5 330.3C450.5 330.3 447.5 332.8 450.2 335.3C452.6 337.6 456.4 337.4 458.2 337.3C458.2 337.3 457.2 336.7 456.2 335.3C455.2 333.8 455.2 332.8 453.2 331.9C451.1 331 450.9 330.8 450.5 330.3ZM447.5 317.7C447.5 317.7 442.9 327 460.5 329.3C460.367 329.233 460.6 328.4 461.2 326.8C461.8 325.3 463.3 322.3 462 320.4C460.4 318.5 463.1 319.5 463.5 317C463.9 314.5 463.2 314.8 464.5 313.2C464.5 313.2 459 315.2 456.8 317.7C454.8 320.1 459.7 321.9 456.8 324.6C456.8 324.6 454.3 323.6 452.8 321C452.8 321 449.5 321 447.3 317.7H447.5Z" fill="#5A3719" style="fill:#5A3719;fill:color(display-p3 0.3529 0.2157 0.0980);fill-opacity:1;"/>
<path id="Vector_17" d="M493.3 339.3C493.3 339.3 497 338.7 506.3 342.2C515.7 345.6 519.6 344.8 520.9 344.7C520.9 344.7 515.7 347.5 507.5 343.9C500.3 340.7 499.9 341.9 493.3 339.3Z" fill="black" style="fill:black;fill-opacity:1;"/>
<path id="Vector_18" d="M551.8 337.2C551.8 337.2 553.8 337.2 555.2 337.7C555.2 337.7 555.9 337 557.9 336.7C557.9 336.7 556.6 335.5 551.8 337.2ZM545.4 332C545.4 332 547.5 332 548.2 330.8C548.2 330.8 547.1 329.5 545.4 328.8C545.4 328.8 545.8 330.4 545.4 332ZM473.7 308.2C473.7 308.2 473.2 307.2 475.5 306.8L506.8 302.3C506.8 302.3 508.3 302.3 508.5 303.3C508.8 304.4 508.4 305.2 501.3 306L475.7 309.2C475.7 309.2 473.8 309.5 473.7 308.2Z" fill="#FFC221" style="fill:#FFC221;fill:color(display-p3 1.0000 0.7608 0.1294);fill-opacity:1;"/>
<path id="Vector_19" d="M502 306.9C502 306.9 502 311 506.2 311.6C510.2 312.2 511.7 311.4 512.7 309.3C513 308.6 514.3 304.3 512.5 304C511.567 303.867 510.6 303.967 509.6 304.3C508.2 305 506.9 305.7 507.3 306.3C508.3 307.9 508.5 308.3 508.3 308.3C507.1 308.6 506.5 307.7 506.3 307.1C506 306.3 506.8 305.9 504.1 306.3C502.833 306.3 502.167 306.5 502.1 306.9H502ZM519.5 303.7C521.5 304 521.4 308.5 518.9 310.6C516.1 312.8 513.5 311.9 513.5 311.9C512.1 311.4 512.3 311.5 513.4 309.9C514.4 308.4 514.9 306.3 514.3 304.9C514.167 304.367 514.5 304.033 515.3 303.9C515.3 303.9 517.3 303.5 519.5 303.7Z" fill="#FFC221" style="fill:#FFC221;fill:color(display-p3 1.0000 0.7608 0.1294);fill-opacity:1;"/>
<path id="Vector_20" d="M521.3 304.1C521.3 304.1 522.9 306.1 520.9 309.6C520.9 309.6 520.1 310.6 522 310.5C523.8 310.3 528.1 308.3 527.7 305.7C527.7 305.7 527.5 305.1 526.4 305.1C525.3 305.1 526.2 304.6 526.7 304.3C527.1 304.3 528.6 303.7 524.8 301.3C524.8 301.3 524.2 300.7 523.5 301C522.9 301.2 520.9 302 520.9 303.2C521.033 303.8 521.167 304.133 521.3 304.2V304.1Z" fill="#FFC221" style="fill:#FFC221;fill:color(display-p3 1.0000 0.7608 0.1294);fill-opacity:1;"/>
<path id="Vector_21" d="M525.4 300.9C525.4 300.9 528.4 303 528.4 303.7C528.4 304.4 528.1 305.2 528.9 305C529.7 305 532.9 304.3 531.9 302.2C531.233 300.2 530.167 299.067 528.7 298.8C527.2 298.2 526.8 298.9 525.5 299.9C525.5 299.9 524.6 300.5 525.4 300.9ZM509.3 303.9C509.3 303.9 509.8 302.4 507.1 301.7C507.1 301.7 508.2 300.7 510.5 301.3C512.7 301.7 512.5 303.3 512.5 303.4C512.5 303.4 510.7 303.4 509.3 303.9ZM515.1 303.5C515.1 303.5 518.1 303 519.6 303.1C519.6 303.1 518 299.8 513.9 300.8C513.9 300.8 515.4 302.6 515.1 303.5ZM520.4 302.7C520.4 302.7 520.4 301.6 523 300.6C523 300.6 521.8 299.4 520 299.6C518 299.6 517.5 300.3 517.5 300.3C517.5 300.3 519.8 301.1 520.4 302.7ZM521.4 299.1C521.4 299.1 523.1 299.5 524.1 300.4C524.1 300.4 525.6 298.7 526.9 298.4C526.9 298.4 524.4 297 521.4 299.1Z" fill="#FFC221" style="fill:#FFC221;fill:color(display-p3 1.0000 0.7608 0.1294);fill-opacity:1;"/>
<path id="Vector_22" d="M435.8 290.9C435.8 290.9 443 284.7 447 285.5C451 286.3 449 285.7 453.4 285C457.8 284.3 462.4 283.9 464.2 284.1C464.2 284.1 458.8 280.3 449.3 280.4C449.3 280.4 442.7 282.7 438 285.7C438 285.7 429.1 280.8 420 283.7C420 283.7 429.9 287.4 435.8 290.9Z" fill="#5A3719" style="fill:#5A3719;fill:color(display-p3 0.3529 0.2157 0.0980);fill-opacity:1;"/>
<path id="Vector_23" d="M512.2 301.4L513.4 301.2C513.4 301.2 515.4 303.7 514 303.7C512.8 303.7 513.2 303.4 513 302.7C512.916 302.178 512.628 301.71 512.2 301.4ZM503.2 301.6C503.2 301.6 502.4 302.6 503.8 302.4C505.5 302.1 505.2 302.4 506.9 301.1C506.9 301.1 508.1 300 510.1 300.7C510.1 300.7 511.9 301.3 513.3 300.6C514.7 299.8 515 299.9 515.8 300C516.6 300.1 516.6 300.2 517.5 299.4C518.5 298.7 520.3 299.3 521.4 298.4C522.5 297.5 523.9 298.2 521.4 296.4C521.4 296.4 520.9 295.9 520.9 295.4C520.9 295.4 521.9 295.8 522.7 296.4C523.5 297.2 524.7 296.9 524.9 296.8C524.9 296.8 525.1 294.5 527.2 292.5C529.5 290.5 529.5 290.3 528.2 290.3C526.9 290.3 524.7 289.7 523.9 290.3C523.1 290.9 516.7 295.1 512.9 295.8C509.1 296.5 505.6 297.6 503.2 301.6ZM401.9 278.2C401.9 278.2 413.6 281.2 416.2 282.4C416.2 282.4 416.8 280.5 411.5 279C411.5 279 424.4 278.6 437.9 284.8C437.9 284.8 444.5 279.2 465.6 280.9C465.6 280.9 465.6 279.1 465.8 277.6C465.8 277.6 451 277.2 437.4 268.9C437.4 268.9 425.1 274.9 401.9 278.2ZM466.6 283.8C465.9 272 470.4 270.8 470.4 270.8C470.4 270.8 472.5 270.8 474.8 271.3C474.8 271.3 471.2 275.6 472.2 284.1C472.2 284.1 472.6 285.4 469.5 285.4C466.4 285.4 466.6 283.9 466.6 283.9V283.8Z" fill="#FFC221" style="fill:#FFC221;fill:color(display-p3 1.0000 0.7608 0.1294);fill-opacity:1;"/>
<path id="Vector_24" d="M469.8 291.7C469.8 291.7 467.5 289.4 467.3 286.8C467.3 286.8 467.3 286.2 469.5 286.2C471.7 286.2 472 286 472.5 287.3C473 288.6 474.5 291.3 474.8 291.6L469.8 291.7Z" fill="#5A3719" style="fill:#5A3719;fill:color(display-p3 0.3529 0.2157 0.0980);fill-opacity:1;"/>
<path id="Vector_25" d="M474.5 285.7L474.3 281.2C474.4 274.6 475.5 275.2 476 276H478.3C478.3 276 476.6 268.6 474.6 273C473.132 276.257 472.612 279.861 473.1 283.4C473.167 285.4 473.367 286.733 473.7 287.4L474.5 285.7Z" fill="#FFC221" style="fill:#FFC221;fill:color(display-p3 1.0000 0.7608 0.1294);fill-opacity:1;"/>
<path id="Vector_26" d="M500.2 285.7C500.2 285.7 504.5 286.5 497.9 288C497.9 288 498.2 296.2 506.1 290.5C506.1 290.5 510.8 287.5 514.1 286.3C514.1 286.3 515.7 285.7 515.5 284.5C515.5 284.5 515.7 283 514 283.4C514 283.4 512.6 283.4 511.7 283.1C511.7 283.1 510.7 281.9 510.1 282.3C509.5 282.8 508 282.5 509.2 284C510.4 285.4 510.7 285 511.2 284.6C511.7 284.2 514.3 283.2 512.1 285.3C509.9 287.4 507.9 284.1 507.1 283.5L500.2 285.7ZM478.2 286.7H476.2C476.2 286.7 475.2 288.3 474.5 285.7L473.8 287.3C473.8 287.3 476.1 296.1 478.2 286.7Z" fill="#5A3719" style="fill:#5A3719;fill:color(display-p3 0.3529 0.2157 0.0980);fill-opacity:1;"/>
<path id="Vector_27" d="M475.4 276.6C475.4 276.6 474.4 282.4 475.7 285.8L496.8 286.3C496.8 286.3 496.6 282.3 496.8 276.6H494C494 276.6 493.5 281.2 494 284.1H493.5C493.5 284.1 493.1 280.1 493.5 276.6H491C491 276.6 490.6 280.9 491 284.1H490.5C490.5 284.1 490.1 280.4 490.5 276.6H488C488 276.6 487.5 280.5 488 284.1H487.4C487.4 284.1 486.9 280.2 487.4 276.6H484.7C484.7 276.6 484.1 280.2 484.7 284.1H484.2C484.2 284.1 483.6 280.5 484.2 276.6H481.5C481.5 276.6 480.9 280.8 481.5 284.1H480.9C480.9 284.1 480.5 280.1 481 276.6H478.5C478.5 276.6 477.8 280.1 478.5 284.1H477.8C477.8 284.1 477.4 281.1 478 276.6H475.4ZM497.7 287C497.7 287 497.2 276.8 499.1 274C501.1 271.4 501.6 272 504.9 274C508.3 276.2 512.6 278.5 513.4 278.8C514 279.1 515 279.3 515 281.2C515 283.1 515.3 283.6 512.4 281.2C511.617 280.441 510.702 279.832 509.7 279.4C507.1 278.5 510.3 279.9 511.2 281.3C512 282.3 512.7 282.3 510.6 282.8C506.258 284.067 501.956 285.467 497.7 287Z" fill="#FFC221" style="fill:#FFC221;fill:color(display-p3 1.0000 0.7608 0.1294);fill-opacity:1;"/>
<path id="Vector_28" d="M505 279.6C505 279.6 503.5 277.8 505.5 277.3C507.5 276.8 507.6 280.3 508 282.4C508.3 284.6 505.5 280.3 505.2 279.7L505 279.6ZM502.3 288.6C502.3 288.6 500 289.5 501.6 290.2C503 290.9 507.1 287.5 505.8 287.7C504.2 288 502.3 288.7 502.3 288.7V288.6ZM505.3 285.6C505.3 285.6 507.3 285.3 506.9 286.1C506.6 287.1 505.9 286.5 505.5 286.3C505.1 286.1 503.9 285.6 505.4 285.5L505.3 285.6Z" fill="black" style="fill:black;fill-opacity:1;"/>
<path id="Vector_29" d="M516 282.8C516 282.8 516.6 286.8 520 287.8C520 287.8 522 288.2 521.5 286.5C521.5 286.5 521.2 285 520.9 284.5C520.6 283.8 519.3 283.5 519.1 283.4C518.9 283.4 518.8 282.9 519.7 283.2C520.7 283.5 520.7 283.6 520.7 282.9C520.7 282.2 520.1 282.5 519.3 282.1C518.9 281.9 519.3 281.7 519.6 281.8C520 281.8 520.9 282.1 520.9 280.8C520.9 280.8 521 280 520 280C518.9 280 519 279.4 519.3 279.3C519.6 279.2 520.8 280.1 521.2 278.7C521.6 277.3 519.6 278.2 519.8 277.5C520.1 276.7 521.5 277.8 521.5 277C521.7 276.2 522.8 275.9 520.9 275.6C520 275.5 520.9 275 521.9 275.2C522.9 275.4 523.5 274 524.2 273.6C524.9 273.2 528.4 271 523.6 271.7C518.8 272.4 517.5 274.7 517.3 275.2C516.108 277.544 515.655 280.193 516 282.8Z" fill="#FFC221" style="fill:#FFC221;fill:color(display-p3 1.0000 0.7608 0.1294);fill-opacity:1;"/>
<path id="Vector_30" d="M527 285.8C527.667 285.733 528.133 285.9 528.4 286.3C529.2 287.9 527.4 287.3 526.4 288.5C525.4 289.7 525.4 289.5 524 289C522.6 288.5 522 286.5 522 286.5C522 285.833 522.4 285.633 523.2 285.9C523.2 285.9 525.5 286.1 527.1 285.9L527 285.8ZM522 285C522 285 522 285.4 522.9 285.5C523.6 285.5 525.9 285.8 527.4 285.4C527.4 285.4 527.8 285.3 527.6 284.4C527.6 284.4 527.6 283.7 526.4 284C525.1 284.2 523.4 284 522.7 283.9C522.033 283.633 521.767 283.967 521.9 284.9L522 285ZM521.8 282.1C521.8 282.1 521.7 283.4 522.9 283.5C524.2 283.7 525.8 283.7 526.4 283.5C526.9 283.5 527.8 283.3 527.9 282.5C527.9 281.8 528.1 281.3 526.6 281.7C525.1 282.1 523.2 281.7 523 281.7C522.9 281.7 521.8 281.4 521.8 282.1ZM522.3 279.6C522.3 279.6 522 280.2 522.1 280.8C522.1 281.267 522.933 281.5 524.6 281.5C527.1 281.5 527.6 281.3 527.8 280.8C527.9 280.1 528.3 279.5 527.1 279.8C525.8 279.9 524.1 280 523.5 279.8C522.833 279.467 522.433 279.4 522.3 279.6Z" fill="#FFC221" style="fill:#FFC221;fill:color(display-p3 1.0000 0.7608 0.1294);fill-opacity:1;"/>
<path id="Vector_31" d="M582.1 286C582.1 286 582.1 287 583 288.2L537.8 286.9C537.8 286.9 538.4 286.5 538.6 284.7L582.1 286Z" fill="#5A3719" style="fill:#5A3719;fill:color(display-p3 0.3529 0.2157 0.0980);fill-opacity:1;"/>
<path id="Vector_32" d="M522.7 277.8C522.7 277.8 522.3 278.9 523.1 279.2C523.9 279.467 525.233 279.5 527.1 279.3C527.1 279.3 528.1 279.3 528.4 278.3C528.7 277.3 528.7 277.9 526.1 277.5C526.1 277.5 525.3 277.2 527.6 277.2C527.6 277.2 529 277.2 529.1 277C529.4 276.8 531.1 275.3 528.8 275.5C526.5 275.5 527.7 275 528.8 275C529.9 275 530.4 275.3 530.8 275C531.2 274.7 530.8 274.8 530.1 274.2C529.4 273.6 530 273.7 530.4 274.1C530.8 274.5 531.233 274.5 531.7 274.1C532.4 273.5 531.3 272.9 531.7 273.1C532 273.1 532.3 273.9 533.7 273.1C535.3 272.4 537.2 272.8 537.7 273.1C538.3 273.6 539.9 274.1 540.8 273.1C541.8 272.3 539.7 271.4 540.5 271.3C541.5 271.2 542.1 271.5 542.4 270.8C542.8 270 541 269.4 542.7 269C544.4 268.6 542.9 264 542.4 263.5C542.4 263.5 540.5 264.6 538.6 267.8C536.5 271.1 535.3 273 532.6 272C528.7 270.5 526.6 272.6 526.1 273C525.1 273.6 528.1 273.8 526.3 273.9C524.6 273.9 524.6 274.1 524.5 274.3C524.367 274.567 524.467 274.767 524.8 274.9C525.1 274.9 525.7 275.5 524.7 275.5C523.7 275.5 522.9 275.2 523.2 276.4C523.133 276.4 523.333 276.5 523.8 276.7C524.4 276.7 524.6 277.5 523.5 277.5C522.833 277.5 522.567 277.6 522.7 277.8ZM526.8 289.1C526.8 289.1 526.1 289.6 527.1 289.7C528.3 289.7 528.8 290 529.2 289.4C529.6 288.8 531 289 530 288.2C529 287.4 528.4 287.9 526.8 289.2V289.1Z" fill="#FFC221" style="fill:#FFC221;fill:color(display-p3 1.0000 0.7608 0.1294);fill-opacity:1;"/>
<path id="Vector_33" d="M531.5 275.5C531.5 275.5 535.3 272 538.4 274.3C541.6 276.8 541.8 277.1 541.9 277.2C541.9 277.2 542.3 277.5 541.5 278.2C540.6 279 541.5 279 542.4 278.5C543.3 278 543.4 278.5 543.8 279C544.3 279.5 544.9 279.8 543.5 279.8H538.9C538.9 279.8 536.8 280 537.9 279.1C538.9 278.2 538.7 277.2 538.2 277.1C537.6 277.1 538.2 277.7 537.9 278.1C537.5 278.5 536.867 278.733 536 278.8C534.667 279 534.6 279.333 535.8 279.8C536.9 280.2 535.6 280.5 535 280.5C534.4 280.5 531.5 280.7 534.5 281.1C537.5 281.5 534.2 281.4 536.5 282.6C538.9 284 537.1 286.9 536.2 287.2C536.2 287.2 535.2 287.7 536.4 287.6C537.7 287.4 538.4 287.3 537.4 288C536.6 288.6 534.8 290.9 532.4 289.2C532.4 289.2 531.2 288.6 533.2 288.5C535.2 288.4 531.6 288 530.9 287.5C530.4 287.2 527.9 284.8 529.4 285C531 285.4 530.4 284.5 529.5 284.2C528.6 283.9 528.5 282.6 529.5 282.8C530.5 283 531.5 283.7 532.5 283.6C533.3 283.6 532.9 283.333 531.3 282.8C529.6 282.2 528.9 282.1 529.3 280.8C529.7 279.3 531.6 281.3 531.1 280.2C530.7 279.2 529.1 279.7 529.9 278.3C530.7 276.9 530.9 277.5 531.4 277.7C531.7 277.8 532.4 277.7 531.3 276.9C530.5 276.4 531.3 275.6 531.5 275.5Z" fill="#FFC221" style="fill:#FFC221;fill:color(display-p3 1.0000 0.7608 0.1294);fill-opacity:1;"/>
<path id="Vector_34" d="M534.2 276.5C534.2 276.5 534.2 276 535 276.1C535.6 276.1 535.4 275.9 535.6 275.7C535.8 275.7 537.5 276.2 535.9 276.7C535.3 277 534.3 276.9 534.3 276.5H534.2Z" fill="black" style="fill:black;fill-opacity:1;"/>
<path id="Vector_35" d="M537.9 280.5C537.9 280.5 536.6 281.1 537.7 282.5C538.7 283.5 538.7 284 538.7 284.7C538.6 285.5 582.1 286 582.1 286C582.1 286 582.1 283.1 583.9 281.5L537.9 280.5Z" fill="#FFC221" style="fill:#FFC221;fill:color(display-p3 1.0000 0.7608 0.1294);fill-opacity:1;"/>
<path id="Vector_36" d="M582.8 285.2C582.8 285.2 583 282.8 584.4 282.1C585.1 281.6 586 281.8 586.4 283.7C587 286.4 584.7 288.8 583.7 287.7C582.7 286.6 582.9 285.2 582.9 285.2H582.8Z" fill="#5A3719" style="fill:#5A3719;fill:color(display-p3 0.3529 0.2157 0.0980);fill-opacity:1;"/>
<path id="Vector_37" d="M532.9 295.4C532.9 295.4 535.8 292.9 536.3 291.8C536.3 291.8 544.1 297.4 543.6 292.2L543.8 289.6C543.8 289.6 546.7 289.9 547.1 287.6L539.8 287.3C539.8 287.3 539 287.2 537.8 288.4C536.8 289.6 534.4 290.9 532.3 289.8C532.3 289.8 531.3 289 530.4 289.8C529.4 290.3 529.4 290.5 530.2 291.3C531 292.1 532.6 294.2 532.9 295.3V295.4ZM549.7 280L545.4 279.8C545.4 279.8 543.9 277.6 540.8 275.2C540.8 275.2 539.9 274.8 541.6 273.4C543.267 271.867 544.033 270.7 543.9 269.9C543.9 269.3 543.9 268.2 544.5 268.9C545.1 269.7 549.5 273.8 550.3 272.6C550.833 271.533 551.067 270.833 551 270.5C551.2 270.1 551.3 269 552 270.2C552.7 271.4 553 271 553.1 274C553.1 274 553.1 277 553.6 278C553.6 278 548 276.3 549.8 280H549.7ZM531.1 270.8C531.1 270.8 534.4 272.8 536.1 270.2C537.6 267.7 538.7 267.4 537.5 264.9C536.3 262.6 537.5 261.5 538.4 260.5C539.3 259.5 540.2 259.7 540.2 255.9C540.4 252 543 250.9 544.2 249.6C545.4 248.3 548.4 246.6 543.8 245.9C539.4 245.1 530.4 242.9 528.1 239.4C525.8 235.9 524.8 237.9 524.8 238.1C524.8 238.3 524 240.8 526.3 245.4C528.6 250 530.5 253 532.8 254.4C535.1 255.8 537 256.7 535.8 259.8C534.6 262.9 532.8 268.4 531.1 270.8Z" fill="#7B3C20" style="fill:#7B3C20;fill:color(display-p3 0.4824 0.2353 0.1255);fill-opacity:1;"/>
<path id="Vector_38" d="M543.2 261C543.2 261 543.8 269 549.5 271.8C549.5 271.8 550.8 268.8 550.3 265.7C550.3 265.7 552.2 265.8 552.7 266.7C552.7 266.7 552.7 264.4 550.1 263.5C547.4 262.8 548.7 257.5 549.7 257C550.7 256.5 550.3 255.3 549.7 254.4C549.1 253.5 548.9 252.1 551.1 252.7C553.3 253.3 553.1 252.1 551.6 251C550.3 249.9 550.3 248.5 552.3 248.5C554.3 248.5 557.3 246.6 555.5 246.1C553.5 245.5 553 244.8 555.5 244.1C558.2 243.3 559.5 242.4 557.5 242.1C555.5 241.9 554.2 241.2 556.1 240.9C558 240.6 555.8 238.6 553.6 238.6C551.3 238.4 546.6 239.3 550.3 236.3C554 233.3 544.9 235.5 548.7 233.5C552.5 231.5 547.4 232.4 546.7 232.4C546 232.4 546 232.4 546.3 231.4C546.6 230.4 545.8 229.8 544.6 230.5C543.6 231.1 543.6 231.1 543.6 229.8C543.6 228.3 542.3 229.4 541.5 229.8C540.6 230.1 538.5 231.7 537.6 230.8C536.9 229.9 536.4 229.1 533.8 230.6C531.2 232.1 531.8 230.8 531.8 230.1C531.8 229.4 532.8 226.7 529.4 229.6C526 232.5 528.7 226.6 525.9 228.6C523.1 230.6 522.9 231 522.4 230.1C521.9 229.1 521.4 228.4 518.4 230.4C515.3 232.3 517.6 229.1 517.9 228.4C518.4 227.8 519.7 223.4 517 226.8C517 226.8 515.7 229.2 512.8 224.9C512.8 224.9 509.8 229.2 508.9 227.3C508.1 225.3 507.4 225.3 506.3 226.5C505.3 227.7 506.1 226.4 505.6 225.3C505.1 224.2 504.9 222.4 499.8 226.1C494.7 229.8 501.6 227.1 497.7 228.8C493.8 230.5 484.2 235.8 492.9 234.7C501.6 233.4 488.7 238 491.7 238.9C494.7 239.7 493.7 242.4 505.1 239.2C516.3 236.2 514.5 238.8 520.3 236.2C526.1 233.8 518.9 237.1 526.7 237C534.4 236.8 528 237 529.5 238.6C531 240.2 537.5 243.9 543.6 244.6C549.7 245.2 551.3 242.9 549.5 245.6C547.7 248.2 547.1 249.2 546.1 250.2C545.1 251 542.1 253.2 542.1 256.8C542.1 260.5 537.3 261.1 539.1 265.1L543.2 261.1V261Z" fill="#5A3719" style="fill:#5A3719;fill:color(display-p3 0.3529 0.2157 0.0980);fill-opacity:1;"/>
<path id="Vector_39" d="M553.3 269.9C553.3 269.9 551.9 268.9 551.9 267.1C551.9 267.1 552.9 267.3 553.3 267.9C553.3 267.9 556.8 263.9 552.5 262.5C548.4 261.1 550.5 257.2 551.9 257.2C553.3 257.2 553.6 256.9 552.3 255.2C551.1 253.7 551.3 253.6 553.6 253.2C555.9 252.8 555.7 252.2 554.6 251.7C553.887 251.269 553.246 250.729 552.7 250.1C552.7 250.1 559.5 247.2 557.3 245.8C555.1 244.4 557.3 244.8 559.3 243.5C561.3 242.1 561.5 241.8 561.8 241.2C561.8 241.2 559.8 241.5 558.4 241.2C558.4 241.2 560.1 240.3 558.4 238.9C556.7 237.5 556.1 236.3 553.4 236.9C550.7 237.5 551.6 236.7 552.6 235.6C553.6 234.5 553.2 233.9 551.3 233.6C551.3 233.6 551.5 232.4 553 231.1C553 231.1 549.3 231.3 548 230.7C548 230.7 549.6 229.7 549.6 228.4C549.6 228.4 547.6 229.1 545.1 228.9C545.1 228.9 546.6 227.6 546.6 226.5C546.6 226.5 542.2 227.5 540.2 229C540.067 229.133 539.8 228.933 539.4 228.4C539 228 538.8 227.4 533.9 229C533.9 229 534.4 226.8 535.6 226C536.8 225.2 536.6 223.4 529.1 228.1C529.1 228.1 528.1 227.5 527.2 225.2C527.2 225.2 525.5 227.5 524.3 228.3C524.3 228.3 523.3 228.8 523.3 227.3C523.5 225.8 522.6 226.8 521.9 227.3C521.1 227.7 520.6 228.8 520.9 225.8C521.2 222.8 519.9 222.2 519.9 222.2C519.9 222.2 517.6 225.5 516.2 225.9C516.2 225.9 513.7 223.5 512.8 221.9C511.9 220.3 512 219.7 511.1 222.5C510.2 225.2 509.1 225.5 509.1 225.5C509.1 225.5 507.6 224.2 507.5 223.5C507.5 223.5 507.2 224.2 506.7 224.5C506.7 224.5 505.4 223 505.5 220.8C505.5 220.8 497.3 225.3 496.3 228C496.3 228 488.6 227.5 485.5 228.1C485.5 228.1 486.2 225.7 488.2 224.4C488.2 224.4 486.2 224.2 486.2 222.1C486.2 222.1 487.8 222.3 488.8 222.1C489.8 221.9 487.4 219 489.9 218.9C492.4 218.8 494.1 220.1 492.9 216.7C491.9 213.4 492.3 213.4 492.3 213.4C492.3 213.4 496.7 216 497.4 215.3C498.2 214.7 496.9 213.3 500.8 213.9C504.7 214.5 503.6 212.4 505.2 212.2C506.7 212.2 507.5 213.2 506.5 206.1C505.5 199 511.3 209.6 507.4 198.9C507.4 198.9 506.4 195.6 504.1 194.2C504.1 194.2 503.5 196.5 500.9 194.5C498.3 192.5 493.1 191.7 495.3 190.1C497.5 188.5 498.5 186.2 497.9 184.9C497.9 184.9 495.3 187.5 490.9 185.6C487.3 184.1 486.5 186.9 482.9 186.1C482.9 186.1 482.9 185.1 486 182.7C489 180.4 484.2 183.5 482.4 184C480.6 184.5 480 184 483.9 180.9C487.9 177.9 495.9 172.4 494.9 167.9C494.9 167.9 496.7 170.2 501.6 168.5C506.5 166.8 510.2 166.2 511.6 163.5C513.367 161.252 515.537 159.353 518 157.9C519.1 157.4 520.4 156.9 518.9 159.4C517.3 161.8 514.9 166 508.1 168.8C501.3 171.6 498.6 173.6 497.4 175.1C496.2 176.6 490 179.9 494.1 179.4C498.1 178.7 505 179.4 501.7 178.4C498.5 177.5 494.8 179 497.8 176.3C500.8 173.6 501.3 172.7 505.7 170.9C510.1 169.1 514.9 164.8 514.4 169.3C513.9 173.8 505.8 178.4 503.8 179.9C501.8 181.3 502.6 181.1 502.6 181.7C502.6 182.3 502.2 183.5 501.4 184C500.6 184.6 500.9 185.2 501.1 186.4C501.3 187.7 500.9 188.2 501.5 188.4C502.1 188.6 502.7 188.6 502.9 189.5C503.1 190.4 503.5 190.5 504.7 190.5C505.9 190.3 506.567 190.5 506.7 191.1C506.7 191.8 507.9 192.8 508 190.7C508.1 188.5 509 188.2 506.8 189.2C504.6 190.2 504.2 189.8 504.2 188.8C504.2 187.8 504 188 503.2 187.9C502.2 187.9 501.9 186.6 503.5 185.7C505.1 184.9 505.1 185.7 507.1 184.1C509.1 182.5 509.1 182.1 509.4 181.1C509.7 180.4 506.5 183.5 505 184.1C503.5 184.9 504 183.6 504.2 182C504.5 180.3 508.2 178 509.9 178C511.6 178 515.5 179 513.9 181.3C512.2 183.6 507.5 186.5 509.4 186.7C511.5 186.9 511.8 186.1 513 187.1C514.2 188.1 513 190.3 512.6 191.5C512.074 192.551 511.323 193.473 510.4 194.2C510.4 194.2 508.2 190.4 508.3 193.4C508.3 196.5 507.8 197.6 508.3 197.7C508.8 197.8 511.1 199.4 511.9 199.4C512.7 199.4 507.8 201.7 509.9 201.9C511.9 202 515.2 200.9 516.3 198.9C516.3 198.9 512.1 197.9 510.4 196.3C510.4 196.3 515.3 195.1 513.9 190.5C513.9 190.5 518.8 191.8 516.6 194C514.6 196.1 513.3 195.8 515.1 196.4C516.967 197.067 517.867 197.467 517.8 197.6C517.7 197.8 519.1 198.2 518.3 199.2C517.6 200.2 517.6 201.8 518.3 201.7C518.8 201.7 520.9 200.7 519.2 199.7C517.5 198.7 521.1 198.9 519.6 198C518 197 517.6 196.9 517.2 196.4C516.7 196.1 536.9 184.2 526.7 188.6C526.7 188.6 528.8 184 531.8 184C534.8 184 535 186.3 533.3 188.2C531.6 189.9 530.5 192.8 526.6 193.4C526.6 193.4 532.2 196.1 525.6 200.6C525.6 200.6 524.1 201.3 524.6 201.8C525.1 202.3 529.1 200.1 529.6 198.8C530.201 197.468 531.268 196.401 532.6 195.8C536.925 193.362 540.73 190.101 543.8 186.2C546.1 182.3 546.6 182.2 551 178.7C555.4 175.2 554.6 175.9 555.2 175.1C555.7 174.2 555.9 172.8 557.9 171.7C559.9 170.6 567.7 166.3 570.2 164.5C572.6 162.7 577.6 159.5 579.8 156.7C582 153.9 587.8 150.5 589.2 151.1C590.6 151.7 589 153.9 585.7 156.5C582.2 159 573.7 165.8 572.4 166.9C569.006 169.631 565.233 171.854 561.2 173.5C558.5 173.8 558.8 174.8 557.2 176.5C555.6 178.2 551.9 181.9 550.7 182.9C549.5 183.9 546.4 185.9 546.3 187.4C546.2 188.9 546.8 189 544.4 191.2C540.845 194.46 536.837 197.188 532.5 199.3C532.5 199.3 537 200.9 534.3 203.9C531.7 206.9 531.8 206.5 531.7 206.7C531.7 206.7 538.4 205.7 533.7 211C533.7 211 532.7 212.5 534.8 211C537.1 209.1 536.2 206.9 535.8 206.5C535.8 206.5 539.5 204.2 543.7 204.2C547.7 204.267 547.767 203.8 543.9 202.8C543.9 202.8 546.6 199.6 548.9 201.2C551.1 202.7 550.3 203.7 548 205C545.6 206.2 542.2 206.7 539.5 208.2C539.5 208.2 544.5 209.2 547.1 207.1C549.7 205.1 549.9 206.1 550.1 206.5C550.6 206.9 550.9 207.5 549.7 209.1C548.5 210.7 548.4 210.9 548.5 211.3C548.5 211.7 548.4 212.8 546 213.3C543.7 213.6 542.5 214.6 543.4 215.7C544.1 216.9 544.1 219.7 542.2 219.4C540.2 219.1 540.6 217.5 539.9 216.9C539.1 216.3 538 215.4 534.5 217.1C530.9 219 530.7 216.8 530.8 215.6C530.8 215.6 528.5 217.6 526.6 215.8C524.7 214 526.4 213.2 527.6 212.3C528.6 211.3 533.1 209.3 530.4 209.8C527.7 210.1 523.7 210.2 522.8 208.2C521.8 206.1 524.8 206.3 525.2 206.5C525.7 206.7 527.5 208.2 527.7 206.2C527.7 204.2 530.7 203.9 529.7 203.6C528.7 203.3 527.2 204.5 526.8 204.9C526.8 204.9 524.8 202 521.4 202.9C518 203.9 522.4 203.6 523.4 203.7C524.2 203.9 523.7 205.5 520.7 208.3C517.7 211.1 519 210.1 521.2 210.1C523.4 210.1 529.1 210.1 525.8 212.7C522.6 215.4 521.3 216.7 519.8 216.3C518 215.8 519.8 214.7 520.6 214.2C521.4 213.7 521.8 213 520.2 213.6C518.6 214.2 518.1 214.3 516.8 212.1C515.5 209.9 516 210.5 516.6 209C517.2 207.5 518.4 206 517 206.5C515.4 207.1 515.6 207.2 515.7 205.5C515.8 203.8 514 203.4 514 203.4C514 203.4 514.8 205.1 514.1 206.2C513.433 207.133 513.567 207.667 514.5 207.8C515.5 208.2 516.5 209.1 515.1 210.1C513.7 211.1 513.9 210.8 514.7 211.4C515.7 212.1 517 212.7 515.6 214.1C514.2 215.5 515.3 215.1 516 215.1C516.8 215.1 518.3 215.7 518.3 217.1C518.3 218.3 518.3 218.6 520.6 217.4C522.9 216.1 527.3 216.3 527.3 218C527.3 219.7 526.7 220.3 529.1 218.8C531.5 217.3 532.6 220.2 534.3 218.8C535.9 217.3 536.9 216 538.9 218.4C540.9 220.8 540.2 221.4 537.9 223.2C535.6 225 539 223.6 540.8 222.7C542.6 221.8 547.5 221.2 550.3 222.5C553.2 223.7 554 223.5 556.1 222.5C558.2 221.7 559.3 221.5 562.4 223.6C565.7 225.8 568.1 226.2 569.8 226.1C569.8 226.1 566.3 227.5 562.3 227.7C558.433 228.1 556.2 228.633 555.6 229.3C555.6 229.3 557.9 230.8 558.4 232.5C558.4 232.5 561 232.2 562.2 232.7C562.2 232.7 561.6 234.6 563.2 235.6C564.8 236.6 565.9 237 564.7 238.3C563.5 239.6 566.6 239.1 564.8 241C563 242.9 562.7 244 562.6 245.5C562.6 247.1 563 247.3 561.5 247.5C559.9 247.6 561.7 249.4 561 251.5C560.3 253.5 556 253.2 556.2 258.7C556.2 258.7 557.4 256 560 253.7C562.5 251.3 562.6 251.1 562.5 249.7C562.5 248.3 562.4 248.6 563.7 247.5C565.1 246.5 563.1 245.5 564.5 243.9C565.8 242.4 564.7 242.7 566.3 241.2C567.8 239.6 564.8 239.5 566.5 237.9C568 236.3 562.5 234.4 564.2 233.4C565.7 232.4 568.5 231 559.2 231.1C559.2 231.1 561.5 227.5 569.2 228.2C569.2 228.2 567.2 229.8 567 231.2L568.6 231.7C568.6 231.7 568.2 232.8 566.7 234C566.7 234 570.9 236.3 571.6 237.8C571.6 237.8 569 238.6 568.3 239.6C568.3 239.6 569.5 240.9 569.9 242.6C569.9 242.6 567 242.2 566.7 244.3C566.4 246.4 565.4 245 565.4 246.3C565.4 247.6 565.5 248 564.5 248.3C563.5 248.3 564.4 249.4 564.5 250.1C564.7 250.8 565.1 252.4 564.9 252.9C564.9 252.9 563.4 252.9 562.8 253.1C562.8 253.1 563.2 256.1 561.5 256.6C559.8 257.1 562.5 257.6 560.6 257.9C558.7 258.2 559.1 258.4 556.9 262.4C556.9 262.4 558.8 261.4 560.7 260C562.7 258.7 560.5 259 563.7 256C567 252.7 566.4 252.5 566.1 250.9C565.9 249.3 565.8 247.9 567 246.4C568.2 244.9 568.5 243.2 572.7 243.4C572.7 243.4 571.5 240.6 570 239.9C570 239.9 572 238.6 574 238.4C574 238.4 572.2 236.1 568.4 234C568.4 234 571.4 231.4 572.3 230.1C572.3 230.1 570.8 230.4 569.6 230.1C569.6 230.1 570.2 228.8 573 227C573 227 574.5 228.4 574.4 229.9C574.4 229.9 579.2 227.2 581.9 227.5C581.9 227.5 583.3 230.9 576.6 237.5C576.6 237.5 580.8 237.8 582.6 237.5C582.6 237.5 581.6 240.7 576.6 242.5C571.6 244.5 577.6 246.7 572.5 246.3C567.4 245.9 569 247.6 569.1 250.2C569.2 252.8 569.4 255.5 569.3 256.2C569.3 256.2 565.3 254.9 565.3 258.8C565.4 262.8 563.3 263.6 562.8 263.9C562.8 263.9 561.6 262.9 559.8 262.2C559.8 262.2 557.3 267.1 553.3 269.9Z" fill="#5A3719" style="fill:#5A3719;fill:color(display-p3 0.3529 0.2157 0.0980);fill-opacity:1;"/>
<path id="Vector_40" d="M547.4 220.5C547.4 220.5 548.8 220.3 551.2 221.7C553.5 223.2 555.8 220.2 553.2 219.4C550.6 218.6 553.2 217.6 555.6 219.6C558 221.5 558.9 220.5 559.8 219.9C560.6 219.2 561.7 218.8 560.1 217.7C558.5 216.6 561.1 217.1 562.4 218C563.6 218.7 563.1 219.5 563 219.7C562.8 219.9 562.7 222.6 565 220.2C567.4 217.7 568.7 215.4 568.6 214.2C568.6 214.2 569.9 215 570.1 216.5C570.3 218 572.1 215.7 572.7 214.9C573.3 214.1 574.3 211.9 574.2 210.5C574.2 210.5 575.8 213 578.2 210.5C580.6 208 579.6 209.5 582.4 208.8C585.666 207.901 588.612 206.099 590.9 203.6C592.9 201.1 593 202.8 595.5 202.2C598 201.6 603.2 198 603.7 196.1C604.2 194.2 604 193 603.3 193.7C602.6 194.3 602.9 193.7 601.8 193.1C600.7 192.5 599.1 194 599.1 194C599.1 194 600.7 195.2 599.4 195.7C598.2 196.3 597.1 198 594.8 197.3C592.5 196.6 590 199.5 590 199.5C590 199.5 592 201.1 589.3 202.2C586.6 203.2 587 203.6 585.4 202.4C585.4 202.4 582.5 206.1 580.8 206.9C580.8 206.9 580.1 206.9 579.6 206.1C579.6 206.1 577.6 208.2 576.8 208.6C576.8 208.6 575.5 207.6 574.5 207.1C574.5 207.1 572.2 210 570.3 210.8C570.3 210.8 569.7 209.8 568.5 209.1C568.5 209.1 567.9 212.7 563.9 214.9C563.9 214.9 564.1 213.9 562.1 212.6C562.1 212.6 557.1 216.9 555.2 217.3C553.3 217.7 555 216.4 555.2 215.8C555.6 215.3 556.8 213.5 554.4 212.8C552 212.1 552.4 213.3 551.9 213.5C551.4 213.7 551.3 213.1 549.7 213.3C548.1 213.5 548.4 214.2 547.7 214.5C546.9 214.7 544.1 214 544.3 215.9C544.4 217.7 545.8 219 543.3 220.1C540.8 221.1 544.3 220.9 547.4 220.5Z" fill="#7B3C20" style="fill:#7B3C20;fill:color(display-p3 0.4824 0.2353 0.1255);fill-opacity:1;"/>
<path id="Vector_41" d="M557.5 215.3C557.5 215.3 558.1 212.8 556 211.8C556 211.8 569.2 209.7 559.2 204.6C559.2 204.6 571.1 202.3 568.2 198.5C565.5 194.7 562.8 195.5 562.4 195.5C562 195.5 564.9 193.4 565.7 193.7C566.5 194 575.9 197.6 573.5 194.4C571.1 191.4 571.3 191.5 570.9 190.6C570.9 190.6 574 190.6 578.8 195.2C578.8 195.2 579.8 194.2 579.7 192.3C579.7 192.3 583 193.3 584.1 194.3C584.1 194.3 584.7 193.1 584.4 192.5C584.4 192.5 587.4 194 588.4 195.7C588.4 195.7 589.7 194.5 589.9 193.1C589.9 193.1 592.9 194.4 593.6 195.3C593.6 195.3 594.6 194 594.2 192.3C594.2 192.3 599.1 193.6 599.7 190.7C599.7 190.7 604.6 191.7 601.4 193.6C597.4 196.1 601 193 596.8 195.9C593.6 198.2 591.8 200.8 590.2 200.3C589.1 199.8 587.7 203.2 586.2 201.6C584.7 199.9 584.7 200.6 583.5 202.3C582.673 203.548 581.736 204.72 580.7 205.8C580.7 205.8 579.9 205.3 579.1 204.6C579.1 204.6 578.3 206.2 577.1 207.4C577.1 207.4 576.1 206.1 574.5 205.4C574.5 205.4 572.2 208.1 570.7 209.1C570.7 209.1 569.3 207.7 567.8 207.2C567.8 207.2 567.6 211 564.7 212.9C564.7 212.9 564.1 211.7 562.1 210.9C562.1 210.9 560.7 213.2 557.5 215.2V215.3Z" fill="#5A3719" style="fill:#5A3719;fill:color(display-p3 0.3529 0.2157 0.0980);fill-opacity:1;"/>
<path id="Vector_42" d="M550.6 209.5C550.6 209.5 549 210.7 550 212C551 213.3 551.1 211.8 552.4 211.7C553.7 211.5 569.9 208.7 555.2 204.4C555.2 204.4 555.9 203.8 558.3 203.6C560.9 203.3 570.1 200.9 565.8 197.6C561.5 194.3 557.9 198.7 561.5 194.8C564.5 191.7 562.1 190.2 562.1 190.2C562.1 190.2 553.6 195.8 551.7 196.9C549.9 197.9 547.1 199.9 550.3 200.9C553.6 201.9 555.7 197.5 556 198.5C556.3 199.5 549.6 203.3 550.6 204.9C551.5 206.7 551.3 208.2 553 207.8C554.7 207.4 559 208.6 555.5 208.5C551.8 208.4 550.5 209.5 550.5 209.5H550.6Z" fill="#5A3719" style="fill:#5A3719;fill:color(display-p3 0.3529 0.2157 0.0980);fill-opacity:1;"/>
<path id="Vector_43" d="M556.4 201.3C556.4 201.3 554.9 202.4 556.9 201.9C558.9 201.4 562.8 200.5 562.1 199.5C561.4 198.5 558.7 199.7 556.4 201.3Z" fill="black" style="fill:black;fill-opacity:1;"/>
<path id="Vector_44" d="M582.4 184.5C582.4 184.5 589.9 184.3 592.9 186.4C595.767 188.467 597.6 189.733 598.4 190.2C598.4 190.2 598.3 193 593.4 190.9C593.4 190.9 593.8 192.3 593.2 193.7C593.2 193.7 591.5 192.5 589.4 192C589.4 192 589 193 588.4 193.7C588.4 193.7 586.3 191.5 583.8 190.8C583.8 190.8 583.4 191.9 583 192.4C583 192.4 580.4 190.8 578.4 190.8C578.4 190.8 578.8 192.5 578.4 193.1C578.4 193.1 573 188.8 568.1 189.3C568.1 189.3 570.4 192.8 571.9 194.4C571.9 194.4 562.1 193.7 563.9 188.4C565.4 183.1 563.7 184.4 570.1 184.4L582.4 184.5Z" fill="#7B3C20" style="fill:#7B3C20;fill:color(display-p3 0.4824 0.2353 0.1255);fill-opacity:1;"/>
<path id="Vector_45" d="M536.3 199.1C536.3 199.1 535.2 200.1 536.3 200.8C537.4 201.6 541.3 198.8 541.8 198.4C542.3 198 543.8 198 541.8 199.5C539.8 201 538 202.5 536.8 204.1C536.8 204.1 543.2 202.3 547.4 198.7C551.7 195 547.3 197.4 554.4 193.9C561.7 190.4 565.5 184.8 561.6 185.4C557.7 186 554.3 190.4 551.2 192.1C548.2 193.8 546.5 194.1 547 193.1C547.5 192.1 549.7 192.5 553.9 189.1C558 185.8 557.1 186.1 557.1 184.9C557.1 183.7 555.6 180.9 561.8 177.5C568 174.2 587.4 163 589.1 159C589.1 159 583.4 159.6 575.9 165.1C571.785 168.537 567.289 171.489 562.5 173.9C560.5 174.7 560.7 174.1 559.4 175.8C556.168 179.203 552.799 182.472 549.3 185.6C548 186.6 547.5 187.2 547.4 189.4C547.4 190.4 539 196.7 536.4 199.1H536.3Z" fill="#5A3719" style="fill:#5A3719;fill:color(display-p3 0.3529 0.2157 0.0980);fill-opacity:1;"/>
<path id="Vector_46" d="M562 184.3C562 184.3 560.5 184.9 559 184.3C557.7 183.6 558.2 180.7 561.5 178.8C565.464 176.638 569.702 175.024 574.1 174C574.1 174 573.6 177.8 564 181.1C564 181.1 564.6 183.1 562 184.3Z" fill="#5A3719" style="fill:#5A3719;fill:color(display-p3 0.3529 0.2157 0.0980);fill-opacity:1;"/>
<path id="Vector_47" d="M565.4 181.8C565.4 181.8 565.7 182.8 565.4 183.6C565.4 183.6 583.3 185.3 592.5 174.4C592.5 174.4 579.8 175.6 574.8 178.7C574.8 178.7 578 174.7 587.5 171.4C597 168.1 600.9 164 601.7 161.7C601.7 161.7 589.7 166 584 166C584 166 582.8 166 581.7 166.5C580.6 167.2 572.9 172.7 570.9 173.7C570.9 173.7 575.2 173.3 576.8 171.9C576.8 171.9 573.8 179.9 565.4 181.9V181.8Z" fill="#AA5323" style="fill:#AA5323;fill:color(display-p3 0.6667 0.3255 0.1373);fill-opacity:1;"/>
<path id="Vector_48" d="M531 192C531 192 528.7 193.7 529.7 194.4C530.7 195.3 532.3 195.4 535.7 192.5C539.3 189.5 547.8 182.3 542.5 182C542.5 182 535.5 181.6 535.8 185.8C536.1 190 531.4 191.8 531 192ZM515.1 189.5C515.1 189.5 519.7 192.2 517.9 194.4C517.9 194.4 531.9 182.6 527.9 180C524.1 177.4 521 182.3 521.9 182.7C522.9 183.3 524.9 182.3 524.2 183.3C521.351 185.577 518.343 187.649 515.2 189.5H515.1ZM511.5 185.7C511.5 185.7 514.5 186.7 514.7 188C514.8 189.2 523.9 181.6 521.5 178.3C520.4 176.8 515.5 176.3 515.1 179.1C514.9 182.1 519.7 178.8 518.1 180.9C515.9 183.6 512.2 185.3 511.5 185.7ZM544.1 179.3C544.1 179.3 542.2 180.7 544 181.6C545.8 182.3 546.8 181 547.7 180.3C548.6 179.6 553 176.3 553.9 174.3C554.8 172.3 556.4 171.6 558 170.6C559.6 169.6 570.6 164 577.5 157.9C584.3 151.8 581.5 153.4 588.5 149.5C595.5 145.6 600.2 142 601.7 137.7C601.7 137.7 598.4 138.7 595.5 140.7L584.8 147.2C583.5 147.7 581.8 147.8 580.8 148.8C579.8 149.8 579.8 151.1 576.5 153.8C573 156.7 555.5 169.1 553.3 170.8L544.1 179.3Z" fill="#5A3719" style="fill:#5A3719;fill:color(display-p3 0.3529 0.2157 0.0980);fill-opacity:1;"/>
<path id="Vector_49" d="M530 183.4C530 183.4 532 182.4 535.6 182.6C539.2 182.8 553.4 169 557.6 166.3C563.988 161.913 570.225 157.31 576.3 152.5C578.1 150.7 578.3 148.9 579.9 147.9C581.4 146.9 582.9 147 586.3 145C589.7 143 606.6 133 605.6 127.2C605.6 127.2 580.6 142.2 574.9 147C566.909 153.231 558.669 159.136 550.2 164.7C547.4 166.6 545.2 169.7 540.3 173.5C535.6 177.4 530.8 180.7 530 183.5V183.4Z" fill="#AA5323" style="fill:#AA5323;fill:color(display-p3 0.6667 0.3255 0.1373);fill-opacity:1;"/>
<path id="Vector_50" d="M524.8 178C524.8 178 529.4 177.6 530 179.9C530 179.9 540 173.1 542.2 170.3C544.4 167.5 541.4 169.1 547.1 165.4C556.276 159.285 565.279 152.916 574.1 146.3C576.8 144 581.9 140.8 586 138.1C590 135.3 605.9 127.5 604.1 121.1L589.9 130.6C587.2 132.4 586 131.4 583.4 133.5C580.8 135.6 574.9 139.8 573.9 141.1C569.31 145.034 564.503 148.707 559.5 152.1C555.1 155.1 545.4 160.7 540.6 164.9L524.8 178.1V178Z" fill="#AA5323" style="fill:#AA5323;fill:color(display-p3 0.6667 0.3255 0.1373);fill-opacity:1;"/>
<path id="Vector_51" d="M510.4 176.8C510.4 176.8 512.7 176.8 513.5 177.7C513.5 177.7 517.8 173.8 522.4 177.7C522.4 177.7 539.2 166.2 540.9 163.3C542.6 160.5 545.4 160.4 551.9 155.7C558.5 150.9 562.6 148.8 566.9 145.5C571.3 142.1 575 138.2 578.1 136.2C581.2 134.2 589.1 129 587.9 124.5C587.9 124.5 581.4 128.1 577.3 132.7C573.1 137.3 573.5 133.4 569.2 137.2C564.26 141.745 558.786 145.673 552.9 148.9C547.4 151.6 550.7 151.3 546.7 153.9C542.8 156.4 543.1 155.9 541.7 156.4C539.736 156.863 537.958 157.908 536.6 159.4C535 161.1 531.2 163.4 527 165.9C521.141 169.011 515.583 172.66 510.4 176.8Z" fill="#AA5323" style="fill:#AA5323;fill:color(display-p3 0.6667 0.3255 0.1373);fill-opacity:1;"/>
<path id="Vector_52" d="M515.5 168C515.5 168 514.5 166.1 516.2 164.7C517.9 163.3 520.8 159.9 521.2 157.7C521.6 155.5 521.3 155.8 526 153.9C539.533 148.216 552.353 140.967 564.2 132.3C566 130.8 570.6 127.7 572.5 126.1C572.5 126.1 573.3 128.6 571.3 130.3C564.432 135.685 557.253 140.66 549.8 145.2C546.472 146.801 543.264 148.639 540.2 150.7C538.3 152.3 538.6 152.7 530 157C521.5 161.1 521 161.6 521.3 161.9C521.6 162.2 525.5 160.6 527.3 159.5C529.1 158.4 536.1 155.2 538.3 153.5C540.527 151.689 542.865 150.02 545.3 148.5C551.432 144.983 557.436 141.247 563.3 137.3C566.8 134.6 567.8 133.8 568.6 134.3C569.4 134.8 570.6 134.7 569 136.3C567.4 137.9 562.3 142.3 560.3 143.6C558.3 144.9 552.2 148.6 550.5 149.4C548.8 150.4 548.1 151.9 547.1 152.6C546.1 153.3 543.4 155.3 540.1 156.1C536.8 156.9 536.1 159.4 533.8 160.9C531.5 162.3 515.8 170.9 515.3 171.2C515.3 171.2 516.2 170.2 515.5 168Z" fill="#AA5323" style="fill:#AA5323;fill:color(display-p3 0.6667 0.3255 0.1373);fill-opacity:1;"/>
<path id="Vector_53" d="M570.3 132.4C570.3 132.4 569.4 133.2 569.9 133.6C570.5 134.2 572.7 135.8 575.5 133C579.411 129.359 583.589 126.017 588 123C590.3 121.5 591.6 120.2 591.5 118.3C591.5 118.3 580.1 124.3 570.3 132.4ZM585.9 131.4C585.9 131.4 587.6 128.5 591.9 125.7C596.2 123 602.7 119 603.4 118.1C603.4 118.1 605 119.8 601.7 121.9L590.9 128.9C590.2 129.6 588.9 130.5 585.9 131.4Z" fill="#AA5323" style="fill:#AA5323;fill:color(display-p3 0.6667 0.3255 0.1373);fill-opacity:1;"/>
<path id="Vector_54" d="M499 163C499 163 494.2 165.6 495.9 167.2C497.6 168.7 500.1 168.2 501.3 167.8L504.5 166.8C504.9 166.8 509 165.5 510.1 163.6C511.2 161.7 513.9 159.4 516.1 157.8C518.3 156.2 519.1 154.6 518.8 153.5L499 163ZM470.6 185C470.6 185 474 183 478.6 184.3C478.6 184.3 478.4 183.2 477.6 182.6C477.6 182.6 483.3 181.1 484.5 178.6C485.7 176.1 486 176.6 487 176C488.2 175.2 495.7 169.2 494.8 167.9C493.9 166.6 493.8 164.8 493.1 164.2C493.1 164.2 491.6 166.3 484.1 169.9C476.9 173.5 468.7 176.1 462.7 184.1C456.7 192.1 457.4 196.7 464.7 198.8C464.7 198.8 469.7 195.6 482.3 196.7C494.7 197.8 498.9 202.5 499.7 203.3C500.5 204.2 503 207.3 500.6 212.4C500.6 212.4 503.1 213.5 503.2 211.1C503.5 208.8 503.6 209.3 504.2 209.6C504.8 209.9 505.5 210.1 505.2 208.2C504.952 205.664 504.168 203.21 502.9 201C501.8 199.5 503.1 200.2 503.8 200.4C504.5 200.6 507.1 202.9 505.6 198.9C504.1 195.1 503.6 196.9 503.6 197.1C503.6 197.4 503.2 198.3 499.8 195.7C497.161 193.707 494.178 192.215 491 191.3C488.7 190.7 490.3 190.7 491.7 190.3C493.1 189.7 494.8 189.5 495.5 187.9C495.5 187.9 494.1 188.2 491.7 187.3C489.76 186.714 487.71 186.589 485.713 186.937C483.716 187.284 481.828 188.093 480.2 189.3C480.2 189.3 481.4 184.8 477.7 185C474.1 185.3 471.5 185.2 467.7 188.2C467.7 188.2 467.4 183.6 471.1 181.2C474.8 178.8 474.3 180.2 476.3 179.6C478.3 179 478.6 176.9 477.7 176.2C477.7 176.2 482.5 177.1 490.5 170.4C490.5 170.4 486.2 176.1 481 177.2C481 177.2 480.1 180.2 475.3 180.9C470.5 181.6 470.7 184.3 470.7 185H470.6Z" fill="#7B3C20" style="fill:#7B3C20;fill:color(display-p3 0.4824 0.2353 0.1255);fill-opacity:1;"/>
<path id="Vector_55" d="M457 212.7C457 212.7 459.2 198.6 472.5 197.6C483.9 196.6 487.6 198.1 489.9 198.9C492.2 199.7 497.9 201.3 495.7 203.1C493.5 204.9 492.2 204.6 492.2 204.6C492.2 204.6 494.7 201.7 492.4 201.3C490.1 200.8 490 202.2 489.7 203.3C489.3 204.6 489.2 205.9 488.1 206.9C488.1 206.9 486.9 205.5 485.2 206.7C483.5 207.9 485 207.9 485.7 207.7C486.4 207.5 487.2 207.2 487 208.2C486.8 209.2 486 211 483.2 212.4C480.4 213.8 480.6 213.7 477.4 214.3C474.1 214.8 471.1 216.1 466.9 219.6C462.7 223.2 458.2 222 457.3 218.1C456.5 214.7 456.9 212.7 456.9 212.7H457Z" fill="#5A3719" style="fill:#5A3719;fill:color(display-p3 0.3529 0.2157 0.0980);fill-opacity:1;"/>
<path id="Vector_56" d="M472 212.2C472 212.2 473.2 209.5 471 208.2C471 208.2 464.1 209.4 462 207.3C462 207.3 469.5 206.9 474.2 205C478.8 203.3 477.5 202 475.9 201.6C474.3 201.2 471.3 202.1 471 203.6C471 203.6 470 202 471.2 201C471.855 200.486 472.628 200.144 473.449 200.004C474.269 199.864 475.112 199.932 475.9 200.2C477.6 200.6 479 201.4 484.5 198.6C484.5 198.6 487.6 199.3 487.8 201.4C487.8 203.6 487.5 204.4 487.2 204.7C487 205.233 486.567 205.567 485.9 205.7C485.3 205.5 484.4 205.4 483.6 206.9C483.062 208.335 482.167 209.608 481 210.6C481 210.6 482.5 206 478.5 204.9C478.5 204.9 475.2 206.9 472.7 207C472.7 207 475.9 210 471.9 212.2H472Z" fill="black" style="fill:black;fill-opacity:1;"/>
<path id="Vector_57" d="M479.3 203.8C479.3 203.8 477.7 202.2 479.7 201.9C481.7 201.8 484.3 203.3 483.9 204.6C483.3 205.8 480.9 205.7 479.3 203.8Z" fill="#5A3719" style="fill:#5A3719;fill:color(display-p3 0.3529 0.2157 0.0980);fill-opacity:1;"/>
<path id="Vector_58" d="M592.6 181.6C592.6 181.6 588.9 182.6 592.4 184.9C595.8 187.2 597.4 189.1 599.9 189.7C602.4 190.4 604.9 191.2 604.9 193.7C604.9 196.2 604.4 197.2 603 198.9C601.6 200.6 603.8 201.3 605.6 200.4C607.4 199.533 608.9 198.8 610.1 198.2C611.2 197.5 613.1 197.6 611.5 198.5C609.6 199.5 607.8 200 610.1 200C612.4 200.1 626.3 200.4 629.2 199.4C632.1 198.4 636 198.2 636.2 194.4C636.2 194.4 636.4 192.8 637.5 192C638.5 191.3 639.3 189.7 637.7 190.8C636.1 192 635.1 192.433 634.7 192.1C634.4 191.8 634.2 191.5 635.4 191C636.6 190.5 637.2 191 638.3 189.5C639.3 187.9 639.3 188.1 638.7 187.5C638.1 186.9 636.9 186.5 637.5 185.7C638.1 184.9 638.7 182.7 636.1 184C633.5 185.3 628.5 188.8 626.1 189.3C623.9 189.8 622.1 190.5 619 191.1C615.9 191.7 614 192.5 610.5 194.4C607.2 196.2 607.5 193.3 608 192.9C608 192.9 609.3 195.2 612.7 192.2C616.1 189.3 615 192.1 623.3 189.3C631.6 186.5 629.6 186.2 632.8 184.5C636 182.8 639.2 182.7 636.8 180.5C634.6 178.1 634.4 178 631.5 180.5C626.783 183.933 621.283 186.133 615.5 186.9C615.5 186.9 634.3 178.9 632.4 177.7C630.759 176.623 628.975 175.781 627.1 175.2C625.8 174.9 625.4 174.6 622.4 176C619.4 177.4 618.9 177.6 618.1 177.7C617.033 177.633 614.7 178.433 611.1 180.1C607.5 182 605.6 182.7 603.1 184.1C603.1 184.1 604.8 180.8 612.2 178.6C619.6 176.4 623.3 174.4 622.6 174C621.9 173.6 619.9 173.2 618.6 173.5C617.1 173.8 617.6 173.4 613 175.2C608.4 177 610.4 176.6 606.8 177.4C603.1 178.1 601.7 178.9 599.9 179.7C599.9 179.7 600.7 178.7 603 177.8C604.3 177.4 601.7 176.9 605.2 176.8H606.2C609.211 176.12 612.107 175.009 614.8 173.5C614.1 173.4 609.7 172.9 605.3 175.1C600.8 177.1 602.8 176.4 601.3 176.6C599.7 177 596.3 179 595.3 180C594.2 180.9 592.6 181.5 592.6 181.5V181.6Z" fill="white" style="fill:white;fill-opacity:1;"/>
<path id="Vector_59" d="M482.7 201.8C482.7 201.8 484.5 202.3 484.9 203.6C485.4 204.8 486.5 203 486.5 202.5C486.4 201.9 485.3 199.5 483.5 200.6C481.5 201.7 482.5 201.7 482.7 201.8Z" fill="#5A3719" style="fill:#5A3719;fill:color(display-p3 0.3529 0.2157 0.0980);fill-opacity:1;"/>
<path id="Vector_60" d="M477.9 226C477.9 226 481.6 224.2 484.8 224.5C484.8 224.5 483.5 220.1 485.7 220.8C487.8 221.6 487.2 221.2 487.7 221.2C487.7 221.2 487.8 218.3 487.2 217.2C487.2 217.2 489.5 217.7 491.8 217.7C491.8 217.7 489.6 213.6 492 210.7C492.44 211.517 493.038 212.238 493.759 212.822C494.48 213.405 495.31 213.84 496.2 214.1V211.8C496.2 211.8 497.9 211.5 499.2 212.2C500.6 213 501.7 204.6 497.7 202.9C497.7 202.9 496.7 204.4 493 205.2C489.3 206 489.3 206.7 487.8 209.5C486.3 212.3 484.8 212.4 481.6 214.5C478.6 216.5 476.6 220.5 476.6 220.9C476.6 220.9 478.1 222.9 477.9 226Z" fill="#7B3C20" style="fill:#7B3C20;fill:color(display-p3 0.4824 0.2353 0.1255);fill-opacity:1;"/>
<path id="Vector_61" d="M603.1 177.8C604.4 177.6 601.7 176.9 605.1 176.8H606.1C609.145 176.13 612.076 175.018 614.8 173.5C614.1 173.4 609.7 172.9 605.3 175C600.9 177.1 602.8 176.4 601.3 176.7C599.7 177 596.3 179 595.3 180C594.2 180.9 592.6 181.5 592.6 181.5C592.6 181.5 588.9 182.5 592.4 184.9C595.8 187.2 597.4 189.1 599.9 189.7C602.4 190.4 604.9 191.2 604.9 193.7C604.953 194.65 604.812 195.602 604.486 196.496C604.159 197.39 603.653 198.208 603 198.9C601.7 200.6 603.8 201.3 605.6 200.4C607.4 199.533 608.9 198.8 610.1 198.2C611.2 197.5 613.1 197.6 611.4 198.5C609.6 199.5 607.8 200 610.1 200C612.4 200.1 626.3 200.4 629.2 199.4C632.1 198.4 636 198.2 636.2 194.4C636.2 194.4 636.4 192.8 637.5 192C638.5 191.3 639.3 189.7 637.7 190.8C636.2 191.9 634.9 192.5 634.7 192.1C634.5 191.7 634.2 191.5 635.4 191C636.6 190.5 637.2 191 638.3 189.5C639.3 187.9 639.3 188.1 638.7 187.5L637.7 186.6C637.7 186.6 636.8 185.9 635.8 186.5C633.598 187.71 631.244 188.618 628.8 189.2C627.333 189.333 625.167 190.133 622.3 191.6C618 193.8 614.1 196.2 613.3 193.3L610.5 194.3C607.1 196.1 607.5 193.6 608 192.9C608 192.9 606.2 194.9 606.3 193.1C606.3 191.3 607.5 191.6 609.6 191C611.7 190.4 614.6 189 613.4 188C612.2 187 610.7 189 609.2 189.8C607.8 190.5 604.9 191 604.4 188.9C603.9 186.8 604 185.3 600.1 185.1C596.1 184.9 596.2 182.4 597.3 181.3C598.4 180.2 599.3 178.5 603 177.8H603.1Z" fill="#999999" style="fill:#999999;fill:color(display-p3 0.6000 0.6000 0.6000);fill-opacity:1;"/>
<path id="Vector_62" d="M615.6 196.9C615.6 196.9 621.7 194.1 627.3 192.8C633 191.5 628.5 193 627.6 193.2C626.6 193.5 617.9 196.4 615.8 197.4C613.8 198.4 614.1 197.6 615.6 197V196.9ZM617 198.2C617 198.2 623.9 195.9 625.2 196.8C626.5 197.8 625.4 197.4 623.9 197.6C622.3 197.7 618.2 198.4 617.1 198.4C616 198.4 617 198.2 617 198.2ZM628 195.7C628 195.7 629.4 195.5 629.5 196.1C629.6 196.5 628.9 196.6 628.2 196.5C627.5 196.4 626.9 196 628.1 195.7H628Z" fill="black" style="fill:black;fill-opacity:1;"/>
<path id="Vector_63" d="M446 255.9C446 255.9 445.7 249.7 448.8 246.7C451.9 243.7 466.6 228.2 468.9 223.9C468.9 223.9 470.9 225.2 470.9 227.7C470.9 227.7 473.4 223.4 475.4 221.7C475.4 221.7 477.1 223.5 476.9 227.1C476.9 227.1 480.4 225.2 485.9 225.2C485.9 225.2 483.9 227.6 483.8 229.1C483.8 229.1 491.4 228.1 495.5 228.8C495.5 228.8 484.9 234.8 487.8 235.3C490.9 235.8 494 235.3 494 235.3C494 235.3 490.6 238.6 485.2 239.3C485.2 239.3 492.1 239.3 493.4 240.8C493.4 240.8 486.8 241.8 481.4 245.8C481.4 245.8 481 245.6 481 244.1C481 244.1 480.7 245.5 479.2 246.8C477.7 248 474.1 250.8 472.7 252.1C471.3 253.4 468.9 256.1 466.1 256.1C466.1 256.1 466.7 254 464.7 253.3C463.658 252.982 462.549 252.953 461.492 253.217C460.435 253.482 459.47 254.029 458.7 254.8C458.7 254.8 451.7 254.9 449.3 255.3C449.3 255.3 450.9 252.7 452.3 252.7C453.9 252.7 459.9 253.7 460.4 249.5C461 245.5 456.6 246.5 458.2 244.1C459.9 241.7 459.5 241.9 459.6 241.5C459.6 241.5 458.2 242.3 457.4 244.5C456.727 246.921 455.244 249.038 453.2 250.5C451.232 251.769 449.588 253.481 448.4 255.5C448.4 255.5 447.1 255.5 446 255.9Z" fill="white" style="fill:white;fill-opacity:1;"/>
<path id="Vector_64" d="M452.8 252.2C452.8 252.2 453.1 251.4 455.1 251C457.3 250.7 457.4 249.7 457.1 249.2C456.8 248.7 455.6 248.8 457.6 246.4C457.6 246.4 458.4 246.7 458.8 247.2C459.4 247.8 461.7 252.7 452.8 252.2Z" fill="white" style="fill:white;fill-opacity:1;"/>
<path id="Vector_65" d="M447.9 247.9C447.9 251.9 453.2 250.4 453.2 250.4C451.788 251.437 450.511 252.646 449.4 254C449.8 252 446.4 251.5 446.4 251.5C446.7 250.226 447.207 249.01 447.9 247.9ZM467.2 226.4L468.9 223.9C468.9 223.9 470.9 225.2 470.9 227.7C470.9 227.7 473.4 223.4 475.4 221.7C475.4 221.7 477.1 223.5 476.9 227.1C476.9 227.1 480.4 225.2 485.9 225.2C485.9 225.2 483.9 227.6 483.8 229.1C483.8 229.1 491.4 228.1 495.5 228.8C495.5 228.8 484.9 234.8 487.8 235.3C490.9 235.8 494 235.3 494 235.3C494 235.3 490.6 238.6 485.2 239.3C485.2 239.3 492.1 239.3 493.4 240.8C493.4 240.8 491.4 241.1 488.8 242C488.8 242 486.9 240.2 481.2 240.5C481.2 240.5 485.6 237.9 489.2 237.1C489.2 237.1 487.6 235.1 485.2 237C485.2 237 480.3 233.7 484.4 230.8C484.4 230.8 481.6 230.3 479.7 231.6C479.7 231.6 479.7 229.3 481.8 228.3C481.8 228.3 476.4 227.3 475.1 231.3C475.1 231.3 474.1 229.8 474.6 227.9C474.6 227.9 471.3 229.8 469.8 231.9C469.8 231.9 469.3 227.9 467.2 226.4ZM456.8 252C455.867 252.2 454.533 252.267 452.8 252.2C452.667 252.133 453.1 251.8 454.1 251.2C454.1 251.2 454.5 252 456.8 252Z" fill="#999999" style="fill:#999999;fill:color(display-p3 0.6000 0.6000 0.6000);fill-opacity:1;"/>
<path id="Vector_66" d="M466.6 236.7C466.6 236.7 469.1 238.7 469.9 239.7C469.9 239.7 472.2 238.3 472.9 237C472.9 237 474.8 238.1 475.3 239.8C475.3 239.8 476.6 239 476.8 237.8C476.8 237.8 479.8 238.4 481 239.4C481 239.4 481.4 236.4 481 234.6C481 234.6 483.1 234.8 484.4 235.3C484.4 235.3 483.2 233.3 489.4 230.8C489.4 230.8 484.7 231.9 482.9 233.8C482.9 233.8 480.9 234 480 233.4V237.9C480 237.9 478.8 237.3 476.5 236.8C476.5 236.8 475.9 237.8 475.5 238C475.5 238 474 236.8 473.4 235.3C473.4 235.3 471.1 237.4 470.4 238.3C470.4 238.3 468.1 236.7 466.6 236.7Z" fill="black" style="fill:black;fill-opacity:1;"/>
<path id="Vector_67" d="M452.5 267.3C452.5 267.3 453.5 267.7 455.8 265.9C458.1 264.1 464.5 260 465 256.7C465.7 253.4 463 253.3 461 254.2C458.8 255.2 459.7 256.9 459.8 257.6C459.8 258.2 460 260.5 456.5 263.6L452.5 267.3Z" fill="#FFC221" style="fill:#FFC221;fill:color(display-p3 1.0000 0.7608 0.1294);fill-opacity:1;"/>
<path id="Vector_68" d="M451.9 268.3C451.9 268.3 446.7 266.1 451.3 263.8C455.9 261.5 458 260.9 458.5 258.9C459.1 257 458.7 257.4 457 258.2C455.3 258.9 448.8 262 447.8 259.2C447.8 259.2 450.5 260.2 453.8 258.6C457.2 256.9 460 256.5 457.8 255.8C454.129 255.417 450.421 255.586 446.8 256.3C445.4 256.7 445.8 256.6 445.5 257.9C445.3 259.2 443.9 261.9 443.3 262.6C442.8 263.4 441.5 266.6 443.9 268.1C445.128 268.748 446.489 269.103 447.877 269.138C449.264 269.173 450.641 268.886 451.9 268.3Z" fill="#FFC221" style="fill:#FFC221;fill:color(display-p3 1.0000 0.7608 0.1294);fill-opacity:1;"/>
<path id="Vector_69" d="M449.9 257C449.9 257 448.6 257.2 448.9 257.7C449.1 258.1 449.433 258.233 449.9 258.1C450.2 258.1 450.9 257.9 451 257.6C451 257.3 450.2 256.9 449.9 257.1V257Z" fill="black" style="fill:black;fill-opacity:1;"/>
<path id="Vector_70" d="M451.5 267.1C451.5 267.1 449.1 266 451.9 264.5C454.7 263 457.5 261.5 457.9 260.9C457.9 260.9 456.6 262.8 451.5 267.1Z" fill="white" style="fill:white;fill-opacity:1;"/>
</g>
<defs>
<clipPath id="clip0_2194_490">
<rect width="640" height="480" fill="white" style="fill:white;fill-opacity:1;"/>
</clipPath>
</defs>
</svg>
