<svg width="640" height="480" viewBox="0 0 640 480" fill="none" xmlns="http://www.w3.org/2000/svg">
<g id="au" clip-path="url(#clip0_2194_580)">
<path id="Vector" d="M0 0H640V480H0V0Z" fill="#00008B" style="fill:#00008B;fill:color(display-p3 0.0000 0.0000 0.5451);fill-opacity:1;"/>
<path id="Vector_2" d="M37.5 0L159.5 90.5L281 0H320V31L200 120.5L320 209.5V240H280L160 150.5L40.5 240H0V210L119.5 121L0 32V0H37.5Z" fill="white" style="fill:white;fill-opacity:1;"/>
<path id="Vector_3" d="M212 140.5L320 220V240L184.5 140.5H212ZM120 150.5L123 168L27 240H0L120 150.5ZM320 0V1.5L195.5 95.5L196.5 73.5L295 0H320ZM0 0L119.5 88H89.5L0 21V0Z" fill="#FF0000" style="fill:#FF0000;fill:color(display-p3 1.0000 0.0000 0.0000);fill-opacity:1;"/>
<path id="Vector_4" d="M120.5 0V240H200.5V0H120.5ZM0 80V160H320V80H0Z" fill="white" style="fill:white;fill-opacity:1;"/>
<path id="Vector_5" d="M0 96.5V144.5H320V96.5H0ZM136.5 0V240H184.5V0H136.5Z" fill="#FF0000" style="fill:#FF0000;fill:color(display-p3 1.0000 0.0000 0.0000);fill-opacity:1;"/>
<path id="Vector_6" d="M527 396.7L506.5 399.3L508.7 419.8L493.9 405.4L479.2 419.9L481.2 399.4L460.7 397L478 385.8L467.1 368.3L486.7 374.8L493.6 355.3L500.7 374.7L520.2 368L509.5 385.6L527 396.7ZM523.3 279.5L526 266.5L516.2 257.5L529.4 256L534.9 243.9L540.4 256L553.6 257.5L543.8 266.5L546.5 279.5L534.9 272.9L523.3 279.5ZM419.2 219.5L398.9 221.7L400.7 242L386.3 227.5L371.5 241.6L373.9 221.3L353.7 218.6L371 207.8L360.5 190.3L379.8 197.1L387 178L393.7 197.3L413.1 191L402.2 208.3L419.3 219.5H419.2ZM623 186.7L602.1 189.4L604.4 210.3L589.3 195.6L574.3 210.4L576.4 189.4L555.5 187L573.2 175.5L562.1 157.6L582.1 164.3L589.1 144.5L596.3 164.3L616.2 157.4L605.2 175.4L623 186.7ZM526.9 103.2L506.2 105.5L508.1 126.3L493.4 111.5L478.3 125.9L480.7 105.2L460 102.4L477.7 91.3999L467 73.4999L486.7 80.3999L494 60.8999L500.8 80.5999L520.6 74.0999L509.5 91.6999L526.9 103.2ZM234 385.7L188.2 391.1L192.8 437L160 404.6L127 436.8L131.9 390.9L86.1001 385.1L125 360.3L101 320.9L144.6 335.9L160.4 292.5L175.9 336L219.6 321.3L195.3 360.5L234.1 385.6L234 385.7Z" fill="white" style="fill:white;fill-opacity:1;"/>
</g>
<defs>
<clipPath id="clip0_2194_580">
<rect width="640" height="480" fill="white" style="fill:white;fill-opacity:1;"/>
</clipPath>
</defs>
</svg>
