<svg width="640" height="480" viewBox="0 0 640 480" fill="none" xmlns="http://www.w3.org/2000/svg">
<g id="bi" clip-path="url(#clip0_2194_830)">
<g id="Clip path group">
<mask id="mask0_2194_830" style="mask-type:luminance" maskUnits="userSpaceOnUse" x="0" y="0" width="640" height="480">
<g id="bi-a">
<path id="Vector" d="M0.0562744 0H639.9V480H0.0562744V0Z" fill="white" style="fill:white;fill-opacity:1;"/>
</g>
</mask>
<g mask="url(#mask0_2194_830)">
<g id="Group">
<path id="Vector_2" fill-rule="evenodd" clip-rule="evenodd" d="M-81.975 0L320.025 240L-81.975 480V0ZM722.025 0L320.025 240L722.025 480V0Z" fill="#18B637" style="fill:#18B637;fill:color(display-p3 0.0941 0.7137 0.2157);fill-opacity:1;"/>
<path id="Vector_3" fill-rule="evenodd" clip-rule="evenodd" d="M-81.975 0L320.025 240L722.025 0H-81.975ZM-81.975 480L320.025 240L722.025 480H-81.975Z" fill="#CF0921" style="fill:#CF0921;fill:color(display-p3 0.8118 0.0353 0.1294);fill-opacity:1;"/>
<path id="Vector_4" fill-rule="evenodd" clip-rule="evenodd" d="M722.025 0H647.119L-81.975 435.281V480H-7.06872L722.025 44.7188V0Z" fill="white" style="fill:white;fill-opacity:1;"/>
<path id="Vector_5" fill-rule="evenodd" clip-rule="evenodd" d="M458.869 240C458.869 276.811 444.246 312.115 418.216 338.144C392.187 364.174 356.883 378.797 320.072 378.797C283.261 378.797 247.957 364.174 221.928 338.144C195.898 312.115 181.275 276.811 181.275 240C181.275 203.201 195.893 167.91 221.914 141.889C247.935 115.868 283.226 101.25 320.025 101.25C356.824 101.25 392.115 115.868 418.136 141.889C444.157 167.91 458.775 203.201 458.775 240H458.869Z" fill="white" style="fill:white;fill-opacity:1;"/>
<path id="Vector_6" fill-rule="evenodd" clip-rule="evenodd" d="M-81.975 0V44.7188L647.119 480H722.025V435.281L-7.06872 0H-81.975Z" fill="white" style="fill:white;fill-opacity:1;"/>
<path id="Vector_7" fill-rule="evenodd" clip-rule="evenodd" d="M347.4 187.687L329.306 187.969L319.931 203.344L310.65 187.969L292.65 187.594L301.369 171.75L292.744 156L310.744 155.625L320.119 140.25L329.4 155.719L347.4 156.094L338.681 171.844L347.4 187.687ZM286.838 292.312L268.838 292.594L259.463 307.969L250.181 292.594L232.181 292.219L240.9 276.375L232.275 260.625L250.275 260.25L259.65 244.875L268.931 260.344L286.931 260.719L278.213 276.469L286.838 292.312ZM409.275 292.312L391.275 292.594L381.9 307.969L372.525 292.594L354.619 292.219L363.338 276.375L354.619 260.625L372.619 260.25L381.994 244.875L391.369 260.344L409.369 260.719L400.556 276.469L409.275 292.312Z" fill="#CF0921" stroke="#18B637" style="fill:#CF0921;fill:color(display-p3 0.8118 0.0353 0.1294);fill-opacity:1;stroke:#18B637;stroke:color(display-p3 0.0941 0.7137 0.2157);stroke-opacity:1;" stroke-width="3.65625"/>
</g>
</g>
</g>
</g>
<defs>
<clipPath id="clip0_2194_830">
<rect width="640" height="480" fill="white" style="fill:white;fill-opacity:1;"/>
</clipPath>
</defs>
</svg>
