<svg width="640" height="480" viewBox="0 0 640 480" fill="none" xmlns="http://www.w3.org/2000/svg">
<g id="bm" clip-path="url(#clip0_2194_841)">
<path id="Vector" d="M0 0H640V480H0V0Z" fill="#CF142B" style="fill:#CF142B;fill:color(display-p3 0.8118 0.0784 0.1686);fill-opacity:1;"/>
<path id="Vector_2" d="M559.7 130.6V292.2C559.7 335.3 473.5 349.4 473.5 349.4C473.5 349.4 387.1 335.4 387.1 292V130.6H559.6H559.7Z" fill="white" style="fill:white;fill-opacity:1;"/>
<path id="Vector_3" d="M559.7 292.2C559.7 335.3 473.5 349.4 473.5 349.4C473.5 349.4 387.1 335.4 387.1 292C387.1 292 387.1 288.5 388.9 286.6C388.9 286.6 387.9 293.7 393.4 299.2C393.4 299.2 389.1 291.4 393.4 283.9C393.4 283.9 391.7 293.7 397.8 299.2C397.8 299.2 394.5 291.3 398.2 282.5C398.2 282.5 396.4 296.8 402.9 299.8C402.9 299.8 404.7 291.4 402.1 286.2C402.1 286.2 406.6 288 406.4 300C406.4 300 407.8 298.2 408.2 289.5C408.2 289.5 408.4 299.5 411.7 301.8C411.7 301.8 412.9 300.8 411.4 296.3C409.8 291.9 412 290.3 412.4 290.3C412.4 290.3 411.6 295.3 415.8 299.1C415.8 299.1 414 291.2 416.5 290.1C416.5 290.1 415.9 296.8 421.3 298.2C421.3 298.2 421.6 296.3 420.5 294.2C420.5 294.2 419.5 291.7 420.2 289.7C420.2 289.7 421.9 295.7 424.2 296.7C424.2 296.7 422.8 293.1 424.2 289.7C424.2 289.7 424.4 294.7 428.9 296.8C428.9 296.8 425.9 292.8 427 288.6L455.7 290L470.7 290.7L515.4 287.7L523 281C523 281 526.1 285.1 521.2 291.8C521.2 291.8 526 291 527.5 283.5C527.5 283.5 529.5 287.6 526.8 292.3C526.8 292.3 532.1 286.9 532.8 281C532.8 281 534.9 286.8 529.9 293C529.9 293 534.3 291.4 536.2 284.9C536.2 284.9 537.8 288.9 533.5 294.4C533.5 294.4 541.6 290.3 541.4 281.4C541.4 281.4 544.7 286.2 540.9 293C540.9 293 544.9 289.3 545.4 283.7C545.4 283.7 547.7 286.2 545.2 293.1C545.2 293.1 550.2 288.3 551 283.2C551 283.2 552 288 547.8 294C547.8 294 550.7 293.2 553.5 287.4C553.5 287.4 554.2 289.8 551.7 294C551.7 294 554.5 293.5 556.3 288.1C556.3 288.1 556.6 291.3 555.8 294.1C555.8 294.1 557.9 292.8 558.4 286.8C558.416 288.345 558.829 289.861 559.6 291.2V292L559.7 292.2Z" fill="#2F8F22" style="fill:#2F8F22;fill:color(display-p3 0.1843 0.5608 0.1333);fill-opacity:1;"/>
<path id="Vector_4" d="M515.4 198.7C515.4 198.7 512.4 199.3 508.4 198.1C504.6 196.9 503.1 197.4 501.9 198.1C501.9 198.1 503.4 195 499.6 192.5C499.6 192.5 500.8 195.7 499.1 197.1C499.1 197.1 498.4 197.8 497.5 196.8C497.5 196.8 496.2 195.3 494.7 194.4C494.7 194.4 498 193.2 497.4 189.9C496.8 186.6 495 186.3 494.1 185.8C493.938 186.592 493.938 187.408 494.1 188.2C494.1 188.2 490.6 186.2 495.3 183.5C500 180.8 499.3 179.1 498.4 177.7C497.478 176.284 496.289 175.061 494.9 174.1C494.9 174.1 495.9 175.7 495.6 177C495.5 178.2 493.2 179 493.6 176.9C494.1 174.5 493.6 174.9 493.6 172.6C493.6 172.6 497.8 174 499.6 169.8C499.6 169.8 501.2 165.5 495.8 163.4C495.8 163.4 497.1 165.2 496.5 166.4C496.5 166.4 495.3 168.6 494 167C492.7 165.4 491.8 164.8 491.9 162.8C491.9 162.8 496.8 163.5 495.5 158.1C495.5 158.1 494.6 161.7 488.3 156.9C488.3 156.9 492.5 152.7 490.8 149.3C490.8 149.3 490.3 147.8 485.9 148.6C485.9 148.6 489.7 146.2 488.2 144.1C488.2 144.1 487.3 142.8 483.6 144.5C483.6 144.5 485.1 142.2 481.5 139.5C481.5 139.5 479.1 140.7 477.9 141.9C477.9 141.9 475.5 138.9 473.9 137.6C473.9 137.6 471.1 138.7 470.4 141.9C470.4 141.9 469.1 140.4 466.1 139.5C466.1 139.5 464.7 142.3 466.6 144.5C466.6 144.5 465.2 144.5 462.6 143.4C462.6 143.4 459.8 142.2 460.3 144.5C460.6 146.9 460.9 147.5 461.5 148.7C461.5 148.7 455 147.2 455.3 150.7C455.438 153.083 456.517 155.313 458.3 156.9C458.3 156.9 454.8 161.7 451.7 158.1C451.7 158.1 450.5 159.3 452.9 162.3C452.9 162.3 455.3 164.8 453.2 166.5C453.2 166.5 450.7 168.5 449.5 164.5C449.5 164.5 445.4 168.6 450.3 171.7C450.3 171.7 453.3 173.5 456.6 170.7C456.6 170.7 455.6 178.7 452.6 177.1C452.6 177.1 450.7 175.9 454 174.2C454 174.2 449.2 173.6 448.5 178.2C448.5 178.2 447.9 181.7 452 183.2C452 183.2 455.1 184.4 452 186.8C452 186.8 449.5 188.5 451.1 191.2C451.1 191.2 452.9 194 448.2 194.4C448.2 194.4 445.8 194.4 444.9 194C444.9 194 443.9 196 444.5 198C444.5 198 442.2 196.3 437 198.2C431.8 200.2 432.1 198.8 431.8 199.4L430.2 201.8C430.2 201.8 433 205.4 433.1 205.1L432.5 209.1L433.9 209.7L444.7 204.9L455.7 199.2L464.6 199.6L470.2 200.9L477.4 201.5L482.8 198.7H490.4L498.8 202.9L508.3 208.6L513.3 209.6L517.2 209.3V201.5L515.4 198.7Z" fill="#D40000" stroke="black" style="fill:#D40000;fill:color(display-p3 0.8314 0.0000 0.0000);fill-opacity:1;stroke:black;stroke-opacity:1;" stroke-width="1.2" stroke-linejoin="round"/>
<path id="Vector_5" d="M428.2 207.7C428.2 207.7 432.4 209.9 434.2 207.4C434.2 207.4 436.4 203 431.4 201.4C431.4 201.4 434.2 198.2 431.2 195.2C431.2 195.2 429.6 193.6 427 194.7C427 194.7 425.8 192.4 423.3 192.5C423.3 192.5 420.9 192.5 420.3 195C420.3 195 417.1 193.8 415.4 195.6C415.4 195.6 412.4 198.8 416.5 201.4L419.4 201.7L422.2 200.3L425.5 201.2C425.5 201.2 424.6 204.4 428.2 207.7Z" fill="#D40000" stroke="black" style="fill:#D40000;fill:color(display-p3 0.8314 0.0000 0.0000);fill-opacity:1;stroke:black;stroke-opacity:1;" stroke-width="1.2" stroke-linejoin="round"/>
<path id="Vector_6" d="M521.6 200.1C522.999 199.968 524.405 200.26 525.635 200.937C526.866 201.615 527.864 202.647 528.5 203.9C531.1 210.1 525.5 213.5 525.5 213.5C525.9 214.8 526 216.7 526 216.7C533.8 217.7 532.4 226.5 532.4 226.5L529.8 224.3C525.3 222.5 520.5 226.5 517.2 232.9C513.8 239.5 515.4 242.4 516 250.2C516.6 257.9 529 262.6 529 262.6L519.3 287.6C515.5 297.6 507.3 293.5 505 291.3C502.7 289.3 502.1 290.5 501 291.3C499.9 292.3 506.3 297.3 494.5 302.1C482.8 306.8 480.8 310.4 478.8 311.6C476.8 312.8 468.8 312.1 468 311C467 310 467.6 310 464.5 308.1C461.5 306.4 456.3 304.6 450.7 301.9C445.1 299.2 445.3 295.7 445.4 295C445.4 294.3 447.3 288.5 440.7 293.1C434.2 297.8 428.6 290.9 428.6 290.9C427.4 289.2 421.8 274.5 421.8 274.5C420.646 270.405 419.209 266.396 417.5 262.5C417.5 262.5 417.1 263.3 422 260.5C426.8 257.8 429 253.2 430.7 248.6C432.4 244 430.7 236.1 430.1 234.6C429.5 233 425.9 225.7 421.4 224.2C417 222.6 413.9 226.6 413.9 226.6C413.9 226.6 412.6 217.6 420.5 216.6C420.5 216.6 420.5 214.8 420.9 213.5C420.9 213.5 415.3 210.1 417.9 203.9C417.9 203.9 419.7 199.6 424.7 200.1L423.6 202.5C423.6 202.5 422.4 215.1 440.8 206.7C459.3 198.1 458.8 196.5 469.5 201.9L477.1 201.8C477.1 201.8 488.1 196.5 491.8 198.8C495.3 201.1 508.1 208.2 508.1 208.2C508.1 208.2 520.5 212.9 523 204.2L521.6 200.1Z" fill="#64B4D1" stroke="black" style="fill:#64B4D1;fill:color(display-p3 0.3922 0.7059 0.8196);fill-opacity:1;stroke:black;stroke-opacity:1;" stroke-width="1.2"/>
<path id="Vector_7" d="M465.8 255C465.8 255 465.2 251.1 464.6 248.6C464.6 248.6 463.1 244.7 465.6 241.8L468.4 238.5C468.4 238.5 470.2 236.1 472.4 235.8C472.4 235.8 474.7 235.8 474.8 235.3C475.1 234.8 477.6 230.8 483.4 235.3C483.4 235.3 485.2 232.3 488.2 231.7C488.2 231.7 491.2 230.9 492.7 233.1C492.7 233.1 496.2 230.5 499.1 234.8C499.1 234.8 503.2 232.4 506.3 237.1C506.3 237.1 510.3 235.1 512.7 239.2C515.2 243.5 514.7 245.2 514.7 245.2L516.7 252L523.2 260L508 265.8H501L487.3 269.4L463 271.3L456.3 263.3L465.9 255H465.8Z" fill="white" stroke="#00247D" style="fill:white;fill-opacity:1;stroke:#00247D;stroke:color(display-p3 0.0000 0.1412 0.4902);stroke-opacity:1;" stroke-width="1.2" stroke-miterlimit="10"/>
<path id="Vector_8" d="M445.3 295.5C445.3 295.5 441.7 295.6 439.8 296.7C438 297.5 436.5 298.5 434.4 299.9C434.4 299.9 433.4 301.2 429.2 300.4C429.2 300.4 422 298.7 422 304.4C422 304.4 413.2 305 416.8 312.7C416.8 312.7 419.1 318.7 424.1 314.5C424.1 314.5 420.9 319 427.1 320.8C427.1 320.8 431.5 322 432.9 317.3C432.9 317.3 433.6 315.5 431.9 313.3C431.9 313.3 434 312.9 435.5 310.6C435.5 310.6 430.9 316.4 436 318.6C436 318.6 442.3 320.1 442.6 313.6C442.6 313.6 442 310.4 444.6 309.3C444.6 309.3 449.6 308.1 451.6 302.7C451.6 302.7 444.6 298.8 445.3 295.5ZM430.6 238C430.6 238 425 235.5 422.2 238C422.2 238 418.7 235.8 414.7 238C414.7 238 411 240.4 408.4 243.2C408.4 243.2 406.6 244.7 407.2 249.6C407.2 249.6 408.2 253.1 407.7 254.7C407.7 254.7 406.5 254.5 404 257.5C404 257.5 400.9 261 398 257.8C398 257.8 399 262.4 404.1 261.6C404.1 261.6 401.6 263.6 403.8 268.6C403.8 268.6 405.4 272.2 402.8 276.8C402.8 276.8 407.3 275 407.2 269.6C407.2 269.6 406.7 266 408.2 263.6C408.2 263.6 406.7 265.8 409.8 270.7C409.8 270.7 412.2 274.3 410.3 277.9C410.3 277.9 414.7 276.3 414.3 270.9C413.9 265.5 411.3 267.7 412.9 262.7C412.9 262.7 413.4 265.3 414.7 266.7C415.714 267.526 416.476 268.62 416.901 269.857C417.325 271.094 417.394 272.426 417.1 273.7C417.1 273.7 419.7 270.3 419.1 266.9C418.931 265.368 418.491 263.878 417.8 262.5L426.2 257.7L430.5 250.2L430.6 238Z" fill="#D40000" stroke="black" style="fill:#D40000;fill:color(display-p3 0.8314 0.0000 0.0000);fill-opacity:1;stroke:black;stroke-opacity:1;" stroke-width="1.2" stroke-linejoin="round"/>
<path id="Vector_9" d="M417.8 259.5C417.8 259.5 414.3 259.3 413.8 256.5M407.7 254.7C407.7 254.7 408.9 254.7 410.1 255.9C410.1 255.9 410.8 257.1 412 256.9" stroke="black" style="stroke:black;stroke-opacity:1;" stroke-width="1.2" stroke-miterlimit="10"/>
<path id="Vector_10" d="M423 249.2C423 249.2 421.2 249.2 420 248.4C420 248.4 419.1 247.7 418.5 248.8C418.5 248.8 417.5 250.4 419.3 251.1C419.3 251.1 421.5 252.3 418.1 254.5C418.1 254.5 422.1 252.9 420.5 250.9C420.5 250.9 418.7 249.7 419.3 249.2C419.3 249.2 419.5 248.8 420.3 249.2C420.9 249.8 422.3 249.6 423 249.2Z" fill="black" style="fill:black;fill-opacity:1;"/>
<path id="Vector_11" d="M477.6 259L479.7 258.4L465.7 210.4H465.3L477.6 259Z" fill="#784421" stroke="black" style="fill:#784421;fill:color(display-p3 0.4706 0.2667 0.1294);fill-opacity:1;stroke:black;stroke-opacity:1;" stroke-width="1.2"/>
<path id="Vector_12" d="M431.2 312.3C431.2 312.3 428 310.4 425.2 312.6C425.2 312.6 425.6 311.4 427.6 310.9C427.6 310.9 428.8 307.7 431.9 308C431.9 308 430.6 309.6 428.9 310.8C428.9 310.8 430.7 311 431.3 312.3H431.2Z" fill="black" style="fill:black;fill-opacity:1;"/>
<path id="Vector_13" d="M419.7 319.8C419.7 319.8 414.5 316.6 417.4 311.1C417.4 311.1 418.2 309.6 419.7 309.9C419.7 309.9 423 310.9 420.5 315.4C420.5 315.4 419.1 318.3 419.7 319.9V319.8ZM430.2 325.1C430.2 325.1 422.8 321.7 425.1 315.9C425.1 315.9 425.8 313.9 427.5 314.1C427.5 314.1 430.3 314.3 429.8 318.1C429.8 318.1 428.9 321.7 430.2 325.1Z" fill="#64B4D1" stroke="#00247D" style="fill:#64B4D1;fill:color(display-p3 0.3922 0.7059 0.8196);fill-opacity:1;stroke:#00247D;stroke:color(display-p3 0.0000 0.1412 0.4902);stroke-opacity:1;" stroke-width="1.2" stroke-miterlimit="2.6"/>
<path id="Vector_14" d="M428.7 303.6C428.7 303.6 426.4 305.3 425.6 306.4C425.6 306.4 424.6 305.2 423.4 304.6C423.4 304.6 424.9 304.3 425.6 304.9C425.6 304.9 426.8 303.9 428.6 303.6H428.7Z" fill="black" style="fill:black;fill-opacity:1;"/>
<path id="Vector_15" d="M435.2 323.6C435.2 323.6 441.2 322.2 440 316.1C440 316.1 439.4 313.5 437 313.9C437 313.9 434 314.7 436 318.5C436 318.5 437.1 321.1 435.2 323.6Z" fill="#64B4D1" stroke="#00247D" style="fill:#64B4D1;fill:color(display-p3 0.3922 0.7059 0.8196);fill-opacity:1;stroke:#00247D;stroke:color(display-p3 0.0000 0.1412 0.4902);stroke-opacity:1;" stroke-width="1.2" stroke-miterlimit="2.6"/>
<path id="Vector_16" d="M461.6 196.7L467.3 198.6C467.3 198.6 472.7 200.9 479.6 198.6L484.8 196.6L481.3 202V204.9L483.4 208.1C483.4 208.1 482.1 208.7 478 206.1C478 206.1 473.6 202.7 468.4 206.1C468.4 206.1 465.4 208.1 463 208.1L466.5 204.3L465.2 200.8L461.6 196.5V196.7Z" fill="#F5CE00" stroke="black" style="fill:#F5CE00;fill:color(display-p3 0.9608 0.8078 0.0000);fill-opacity:1;stroke:black;stroke-opacity:1;" stroke-width="1.2" stroke-miterlimit="2.6"/>
<path id="Vector_17" d="M437.5 316.5C437.5 316.5 437.7 316.1 437.5 316L437 316.2C437 316.2 436.4 317.2 437 318.6C437 318.6 437.5 319.5 437.3 320.4V320.8C437.3 320.8 437.6 320.7 437.6 320.4C437.6 320.4 438 319.6 437.4 318.6C437.4 318.6 436.8 317.2 437.5 316.5Z" fill="white" style="fill:white;fill-opacity:1;"/>
<path id="Vector_18" d="M518 207.7C518 207.7 513.8 209.9 512 207.4C512 207.4 509.9 203 514.9 201.4C514.9 201.4 512.1 198.2 515 195.2C515 195.2 516.6 193.6 519.2 194.7C519.2 194.7 520.4 192.4 522.9 192.5C522.9 192.5 525.3 192.5 525.9 195C525.9 195 529.2 193.8 530.9 195.6C530.9 195.6 533.7 198.8 529.7 201.4L526.8 201.7L523.9 200.3L520.9 201.2C520.9 201.2 521.7 204.4 517.9 207.7H518Z" fill="#D40000" stroke="black" style="fill:#D40000;fill:color(display-p3 0.8314 0.0000 0.0000);fill-opacity:1;stroke:black;stroke-opacity:1;" stroke-width="1.2" stroke-linejoin="round"/>
<path id="Vector_19" d="M484.8 204.4C484.8 204.4 484.8 205.2 484 205.4C484 205.4 483 205.7 482.5 204.5V204.2C482.5 203.7 482.2 202.2 483.9 200.9C483.9 200.9 486.5 198.8 491.5 201.4C496.323 204.112 501.261 206.614 506.3 208.9C506.3 208.9 509.4 210.5 514.2 210.7C514.2 210.7 520.7 211.2 523.5 206.6C523.5 206.6 525.6 203.1 523.5 200.8C523.5 200.8 522.6 199.8 521.2 200C520.472 200.162 519.83 200.59 519.4 201.2C519.4 201.2 518.4 202.6 519.5 203.7C519.5 203.7 521.1 204.7 521.7 202.7C521.7 202.9 522.2 204.4 521.3 205.6C521.3 205.6 517.3 211.6 506.4 205.5L492.1 197.4C492.1 197.4 485 193.7 480.5 199.5C480.5 199.5 477.1 204.3 481.6 207.4C481.6 207.4 485 209.4 487 206.2C487 206.2 488.8 203.1 486 201.8C486 201.8 483.6 200.6 482.7 203C481.7 205.4 484.5 206 484.7 204.3C484.7 204.3 484.7 203.9 485 204.3L484.8 204.4Z" fill="#F5CE00" stroke="black" style="fill:#F5CE00;fill:color(display-p3 0.9608 0.8078 0.0000);fill-opacity:1;stroke:black;stroke-opacity:1;" stroke-width="1.2" stroke-miterlimit="2.6"/>
<path id="Vector_20" d="M428 229.2V220.2C428 219.4 428 219 429.2 218C430.2 217.2 431.3 215.7 432.9 219.7C432.9 219.7 436.1 216.2 437.1 215.7C437.1 215.7 439.1 214.2 440.4 216.4C440.4 216.4 442 213.8 443.4 213.2C443.4 213.2 446.6 211.2 446.7 217.4L449.2 215C449.2 215 451.2 213.5 453.4 215.7C453.4 215.7 456.9 219.3 457.4 220.3C457.4 220.3 458.2 221.3 458.4 223C458.4 223 458.4 225 459.4 226C459.4 226 460.5 227 461.6 227.2C461.6 227.2 464.1 227.3 465.2 229.8C465.2 229.8 465.5 229.3 466.8 241V262.5L452.4 279.6L429.3 273L420.1 269.1L417.9 262.5L426.9 256.6L431.7 243.6L430.2 234.3L428 229.1V229.2Z" fill="#E4CB5E" stroke="black" style="fill:#E4CB5E;fill:color(display-p3 0.8941 0.7961 0.3686);fill-opacity:1;stroke:black;stroke-opacity:1;" stroke-width="1.2" stroke-miterlimit="2.6"/>
<path id="Vector_21" d="M491.6 240.4L492.8 238.9L495.3 236.9C495.3 236.9 499.3 247.3 499.5 249.6V252.8C499.5 252.8 505.5 254.4 506.7 263.5L501.7 272.7L493.9 268.3L491.6 266.8V240.4Z" fill="#784421" stroke="black" style="fill:#784421;fill:color(display-p3 0.4706 0.2667 0.1294);fill-opacity:1;stroke:black;stroke-opacity:1;" stroke-width="1.2"/>
<path id="Vector_22" d="M418.3 312.4C418.3 312.4 418.5 312.1 418.3 311.8L417.8 312.2C417.8 312.2 416.3 313.9 417.6 316.6C417.6 316.6 417.6 317 417.9 316.8C417.9 316.8 418.2 316.8 417.9 316.5C417.9 316.5 416.8 314.1 418.3 312.5V312.4Z" fill="white" style="fill:white;fill-opacity:1;"/>
<path id="Vector_23" d="M441.7 310.6C441.7 310.6 441.8 309.8 441.3 309C441.167 309 441.1 308.5 441.1 307.5M446.7 217.4C446.7 217.4 446.7 219.7 447.4 221.4C448 223 450.3 225.9 450.4 227.3" stroke="black" style="stroke:black;stroke-opacity:1;" stroke-width="1.2" stroke-miterlimit="10"/>
<path id="Vector_24" d="M501 295.5C501 295.5 504.6 295.6 506.5 296.7C508.5 297.5 509.9 298.5 512 299.9C512 299.9 513 301.2 517.2 300.4C517.2 300.4 524.4 298.7 524.4 304.4C524.4 304.4 533.1 305 529.6 312.7C529.6 312.7 527.2 318.7 522.2 314.5C522.2 314.5 525.4 319 519.2 320.8C519.2 320.8 514.8 322 513.5 317.3C513.5 317.3 512.7 315.5 514.5 313.3C514.5 313.3 512.4 312.9 511 310.6C511 310.6 515.5 316.4 510.5 318.6C510.5 318.6 504.2 320.1 503.8 313.6C503.8 313.6 504.3 310.4 501.8 309.3C501.8 309.3 496.8 308.1 494.6 302.7C494.6 302.7 501.8 298.8 501.1 295.5H501Z" fill="#D40000" stroke="black" style="fill:#D40000;fill:color(display-p3 0.8314 0.0000 0.0000);fill-opacity:1;stroke:black;stroke-opacity:1;" stroke-width="1.2" stroke-linejoin="round"/>
<path id="Vector_25" d="M443.8 227.4L449.8 275.2M445.3 227.3L451.9 271.9M446.4 227.1L454.2 271.3" stroke="black" style="stroke:black;stroke-opacity:1;" stroke-width="1.2" stroke-miterlimit="10"/>
<path id="Vector_26" d="M458.6 267.5L460.8 266.8L446.8 218.8H446.3L458.6 267.5Z" fill="#784421" stroke="black" style="fill:#784421;fill:color(display-p3 0.4706 0.2667 0.1294);fill-opacity:1;stroke:black;stroke-opacity:1;" stroke-width="1.2"/>
<path id="Vector_27" d="M450.7 225.3L464.8 260.8M449.8 225.8L463.4 262.8" stroke="black" style="stroke:black;stroke-opacity:1;" stroke-width="1.2" stroke-miterlimit="10"/>
<path id="Vector_28" d="M427.6 321.6C427.6 321.6 425.9 320.1 426.2 317.3C426.2 317.3 426.2 316.7 425.9 316.6C425.9 316.6 425.6 316.5 425.6 317.2C425.6 317.2 425.1 320.1 427.1 321.7C427.1 321.833 427.233 321.9 427.5 321.9C427.567 321.9 427.567 321.8 427.5 321.6H427.6Z" fill="white" style="fill:white;fill-opacity:1;"/>
<path id="Vector_29" d="M451.5 224.8L465.8 257.2M447.5 226.8L456.5 270.5" stroke="black" style="stroke:black;stroke-opacity:1;" stroke-width="1.2" stroke-miterlimit="10"/>
<path id="Vector_30" d="M520 259C513.7 255.4 512.3 247.6 512.3 247.6C511.42 242.78 511.977 237.807 513.9 233.3C517.9 224.7 525 223 525 223C525 223 518.1 227.8 516.2 234.2C516.2 234.2 514.8 239.7 515.6 244.9C516.4 250.4 516.1 249 517.4 253.2L520 259.2V259Z" fill="#F5CE00" stroke="black" style="fill:#F5CE00;fill:color(display-p3 0.9608 0.8078 0.0000);fill-opacity:1;stroke:black;stroke-opacity:1;" stroke-width="1.2" stroke-miterlimit="2.6"/>
<path id="Vector_31" d="M492.7 238.7L466.1 247.2L464.7 259.2C458.4 268.3 445.5 269.9 445.5 269.9L455.5 280.6L474.5 284.6L484.7 276.8L493.9 268.4C492.9 263.9 493.4 257.2 493.4 257.2C493.4 256 493.9 253.4 493.9 253.4C493.9 253.4 492.4 242.7 492.7 238.9V238.7Z" fill="#784421" stroke="black" style="fill:#784421;fill:color(display-p3 0.4706 0.2667 0.1294);fill-opacity:1;stroke:black;stroke-opacity:1;" stroke-width="1.2"/>
<path id="Vector_32" d="M465 256.2C465 256.2 482.6 250.7 493 246.2M456.6 266.2C456.6 266.2 478.6 262.2 493.9 253.4L499.5 249.6" stroke="black" style="stroke:black;stroke-opacity:1;" stroke-width="1.2" stroke-miterlimit="10"/>
<path id="Vector_33" d="M499.5 252.8L493.5 257.2C493.5 257.2 469 268.4 450.3 268.8M493.4 265.2C493.4 265.2 474.6 275 464 275" stroke="black" style="stroke:black;stroke-opacity:1;" stroke-width="1.2" stroke-miterlimit="10"/>
<path id="Vector_34" d="M515.8 238C515.8 238 521.4 235.5 524.2 238C524.2 238 527.8 235.8 531.8 238C531.8 238 535.4 240.4 538 243.2C538 243.2 539.8 244.7 539.2 249.6C539.2 249.6 538.2 253.1 538.9 254.7C538.9 254.7 540 254.5 542.4 257.5C542.4 257.5 545.7 261 548.4 257.8C548.4 257.8 547.6 262.4 542.4 261.6C542.4 261.6 544.8 263.6 542.7 268.6C542.7 268.6 541.1 272.2 543.7 276.8C543.7 276.8 539.1 275 539.3 269.6C539.3 269.6 539.7 266 538.3 263.6C538.3 263.6 539.7 265.8 536.6 270.7C536.6 270.7 534.2 274.3 536.2 277.9C536.2 277.9 531.7 276.3 532.2 270.9C532.5 265.5 535.2 267.7 533.5 262.7C533.5 262.7 533.1 265.3 531.8 266.7C530.786 267.526 530.024 268.62 529.599 269.857C529.175 271.094 529.106 272.426 529.4 273.7C529.4 273.7 526.8 270.3 527.4 266.9C528 263.4 528.6 262.5 528.6 262.5L520.3 257.7L516.1 250.2L515.8 238Z" fill="#D40000" stroke="black" style="fill:#D40000;fill:color(display-p3 0.8314 0.0000 0.0000);fill-opacity:1;stroke:black;stroke-opacity:1;" stroke-width="1.2" stroke-linejoin="round"/>
<path id="Vector_35" d="M420.6 268.4C420.6 268.4 421.4 264.7 424.9 266C424.9 266 426.1 260 432.6 259.8C439.1 259.6 439.4 266.2 439.4 266.6C439.4 266.6 441.4 263.8 444.5 264.1C444.5 264.1 450 263.8 448.1 272.6L449.1 273.8C449.1 273.8 453.2 263.9 461.8 266.4C461.8 266.4 470.2 269 464.8 277.1C464.8 277.1 469 282.6 472.4 282.1C476 281.6 479.1 280.5 482.6 274.3C486.2 268.1 494.3 267.1 496.3 267.5C498.3 267.8 500 269.3 500.3 270.7C500.3 270.7 504.6 256.4 520.1 258.5L526.3 261.8L528.7 262.8L525.1 272.8L516.7 292L510.1 294L503.3 290.1L500.9 291.3V297.2L491.9 303.6L485.7 306.1L478.9 310.9L477.2 315.1C477.2 315.1 473.5 313.4 469.2 315.1L467.8 311.5L463.8 307.8L448.2 300.4L445.5 291.4L442.6 290.1L439.4 293.7L434.9 294.3L427.9 289.5L420.5 268.5L420.6 268.4Z" fill="white" stroke="#00247D" style="fill:white;fill-opacity:1;stroke:#00247D;stroke:color(display-p3 0.0000 0.1412 0.4902);stroke-opacity:1;" stroke-width="1.2" stroke-miterlimit="10"/>
<path id="Vector_36" d="M488.2 198C488.2 198 482.2 197.8 482.5 204" stroke="black" style="stroke:black;stroke-opacity:1;" stroke-width="1.2" stroke-miterlimit="2.6"/>
<path id="Vector_37" d="M527 263.3C516.8 260.1 514 249 514 249C512.81 243.832 513.229 238.423 515.2 233.5C520 222.5 527.9 222.5 527.9 222.5C528.918 222.353 529.953 222.603 530.791 223.199C531.629 223.795 532.205 224.69 532.4 225.7C532.8 228.1 531.1 229 531.1 229C528.4 230.5 526.6 228.5 526.6 228.5C525.4 226.9 526.3 225.6 526.3 225.6C527 224.6 528.3 225.2 528.3 225.2C529.6 225.4 529.3 226.8 529.3 226.8C529.3 226.8 529.7 225.2 528.1 225C528.1 225 524.9 224.3 521.3 228.8C521.3 228.8 516.6 234.9 516.6 242.9C516.6 242.9 516 257.7 531.3 261.5C531.3 261.5 529.7 263.9 526.7 272.6C526.7 272.6 523.4 283.8 520.3 289.9C520.3 289.9 516 298.5 506.4 295C506.4 295 500.8 292.5 500.8 288.5C500.8 288.5 500.5 284.7 503.8 284.5C503.8 284.5 507.1 284.2 507.1 287C507.1 287 507.1 290 503.6 289.4C503.6 289.4 502.4 289.1 502.5 287.9C502.5 287.9 502.7 286.7 504.3 287.3C505.8 287.9 504.3 287.3 504.3 287.2C504.3 287.2 503.7 286.9 503.1 287.2C503.1 287.2 502.5 287.2 502.5 288.2C502.367 288.333 502.6 288.7 503.2 289.3L504.9 289.5C504.9 289.5 505.9 291.5 507.9 292.2C509.095 292.569 510.36 292.652 511.593 292.444C512.826 292.236 513.993 291.741 515 291C516.332 289.829 517.361 288.354 518 286.7C520.02 282.316 521.757 277.806 523.2 273.2C523.2 273.2 525 267.5 526.6 264.5L527 263.3Z" fill="#F5CE00" stroke="black" style="fill:#F5CE00;fill:color(display-p3 0.9608 0.8078 0.0000);fill-opacity:1;stroke:black;stroke-opacity:1;" stroke-width="1.2" stroke-miterlimit="2.6"/>
<path id="Vector_38" d="M498 291.4C498 291.4 500 291.2 500 292.9C500 292.9 499.9 295.3 496.8 294.8C496.8 294.8 493.8 294.2 494.8 290.8C494.8 290.8 495.6 288.5 498.4 288.8C498.4 288.8 501.2 288.8 502.4 292.6C502.4 292.6 503.4 295.9 501.7 298.6C499.9 301.6 495.5 303.6 493.3 304.6C493.3 304.6 484.6 307.9 482 309.9C482 309.9 478 312.8 479.8 315.5C479.8 315.5 480.5 316.6 481.5 316.6C481.5 316.6 482.7 316.6 482.8 315.4C482.8 315.4 482.8 316.1 482.1 316.4C482.1 316.4 481.3 316.8 480.4 316.1C480.4 316.1 479.4 315.1 480.2 313.7C480.2 313.7 481.2 312.1 483.8 313.1C483.8 313.1 485.8 314.2 485 316.4C485 316.4 484.1 318.5 481.6 318.4C481.6 318.4 479.7 318.4 478.4 317.2C476.4 315.1 476.4 311.2 478.2 309.2C478.2 309.2 479.7 307.1 482.9 305.6L491.9 302.1C494.567 301.1 496.7 299.733 498.3 298C498.3 298 499.6 296.6 500.1 294C500.1 294 500.5 292 499.3 291.6L498.1 291.3L498 291.4Z" fill="#F5CE00" stroke="black" style="fill:#F5CE00;fill:color(display-p3 0.9608 0.8078 0.0000);fill-opacity:1;stroke:black;stroke-opacity:1;" stroke-width="1.2" stroke-miterlimit="2.6"/>
<path id="Vector_39" d="M498.2 291.4C498.2 291.4 500.3 291 501.7 293.6C501.7 293.6 502.4 295.1 502.5 296.1M503.2 287.1C503.2 287.1 501.1 287.4 502.2 290.5C503.3 293.4 505.2 294.2 505.7 294.7" stroke="black" style="stroke:black;stroke-opacity:1;" stroke-width="1.2" stroke-miterlimit="2.6"/>
<path id="Vector_40" d="M461.6 204.4C461.6 204.4 461.6 205.2 462.6 205.4C462.6 205.4 463.4 205.6 463.9 204.5V204.2C463.9 203.7 464.2 202.2 462.7 200.9C462.7 200.9 459.9 198.8 454.9 201.4C454.9 201.4 450.9 203.4 448.2 205C448.2 205 441.1 208.8 440.2 209C440.2 209 437 210.6 432.2 210.8C432.2 210.8 425.7 211.3 423 206.7C423 206.7 420.8 203.2 423 200.9C423 200.9 423.8 199.9 425.2 200.1C425.8 200.1 426.4 200.5 427 201.3C427 201.3 428 202.7 426.9 203.8C426.9 203.8 425.3 204.8 424.7 202.8C424.7 203 424.4 204.4 425.2 205.8C425.2 205.8 429.2 211.7 440 205.5L454.3 197.5C454.3 197.5 461.5 193.8 465.9 199.5C465.9 199.5 469.3 204.3 464.9 207.5C464.9 207.5 461.6 209.5 459.4 206.3C459.4 206.3 457.8 203.3 460.4 201.9C460.4 201.9 462.8 200.7 463.9 203.1C464.9 205.5 461.9 206.1 461.7 204.4C461.7 204.4 461.7 204 461.6 204.4ZM426.4 259.1C432.7 255.6 434.2 247.6 434.2 247.6C435.6 239.6 432.5 233.3 432.5 233.3C428.5 224.7 421.5 223 421.5 223C421.5 223 428.3 227.8 430.2 234.2C430.2 234.2 431.8 239.7 430.8 244.9C430 250.4 430.3 249 429 253.2L426.4 259.1Z" fill="#F5CE00" stroke="black" style="fill:#F5CE00;fill:color(display-p3 0.9608 0.8078 0.0000);fill-opacity:1;stroke:black;stroke-opacity:1;" stroke-width="1.2" stroke-miterlimit="2.6"/>
<path id="Vector_41" d="M458.4 198C458.4 198 464.4 197.8 464 204" stroke="black" style="stroke:black;stroke-opacity:1;" stroke-width="1.2" stroke-miterlimit="2.6"/>
<path id="Vector_42" d="M419.3 263.3C429.6 260.1 432.3 249 432.3 249C433.522 243.842 433.138 238.434 431.2 233.5C426.4 222.5 418.5 222.5 418.5 222.5C417.482 222.353 416.447 222.603 415.609 223.199C414.771 223.795 414.195 224.69 414 225.7C413.7 228.1 415.3 229 415.3 229C418.1 230.5 419.9 228.5 419.9 228.5C421 226.9 420.1 225.6 420.1 225.6C419.4 224.6 418.1 225.2 418.1 225.2C416.9 225.4 417.1 226.8 417.1 226.8C417.1 226.8 416.8 225.2 418.3 225C418.3 225 421.5 224.3 425.1 228.8C425.1 228.8 429.9 234.9 429.9 242.9C429.9 242.9 430.5 257.7 415.1 261.5C415.1 261.5 416.8 263.9 419.7 272.6C419.7 272.6 423.1 283.8 426.3 289.9C426.3 289.9 430.5 298.5 440 295C440 295 445.6 292.5 445.6 288.5C445.6 288.5 446 284.7 442.6 284.5C442.6 284.5 439.3 284.2 439.3 287C439.3 287 439.3 290 442.9 289.4C442.9 289.4 444.1 289.1 443.9 287.9C443.9 287.9 443.7 286.7 442.2 287.3C440.6 287.9 442.2 287.3 442.2 287.2C442.2 287.2 442.7 286.9 443.3 287.2C443.3 287.2 443.9 287.2 443.9 288.2C444.033 288.333 443.8 288.7 443.2 289.3L441.7 289.5C441.7 289.5 440.7 291.5 438.5 292.2C437.32 292.552 436.074 292.627 434.86 292.419C433.645 292.211 432.496 291.725 431.5 291C430.168 289.829 429.139 288.354 428.5 286.7C426.449 282.317 424.678 277.808 423.2 273.2C423.2 273.2 421.4 267.5 420 264.5L419.4 263.3H419.3Z" fill="#F5CE00" stroke="black" style="fill:#F5CE00;fill:color(display-p3 0.9608 0.8078 0.0000);fill-opacity:1;stroke:black;stroke-opacity:1;" stroke-width="1.2" stroke-miterlimit="2.6"/>
<path id="Vector_43" d="M448.5 291.4C448.5 291.4 446.5 291.2 446.5 292.9C446.5 292.9 446.5 295.3 449.7 294.8C449.7 294.8 452.7 294.2 451.6 290.8C451.6 290.8 450.9 288.5 448 288.8C448 288.8 445.3 288.8 444 292.6C444 292.6 443.1 295.9 444.8 298.6C446.6 301.6 451 303.6 453.1 304.6C453.1 304.6 461.8 307.9 464.5 309.9C464.5 309.9 468.4 312.8 466.6 315.5C466.6 315.5 466 316.6 464.9 316.6C464.9 316.6 463.7 316.6 463.6 315.4C463.6 315.4 463.6 316.1 464.3 316.4C464.3 316.4 465.2 316.8 466 316.1C466 316.1 467 315.1 466.2 313.7C466.2 313.7 465.2 312.1 462.8 313.1C462.8 313.1 460.6 314.2 461.6 316.4C461.6 316.4 462.3 318.5 464.8 318.4C464.8 318.4 466.8 318.4 468 317.2C470 315.1 470 311.2 468.4 309.2C468.4 309.2 466.7 307.1 463.6 305.6C461.7 305 458.1 303.5 454.6 302.1C451.867 301.1 449.7 299.733 448.1 298C448.1 298 446.8 296.6 446.3 294C446.3 294 446 292 447.2 291.6L448.4 291.3L448.5 291.4Z" fill="#F5CE00" stroke="black" style="fill:#F5CE00;fill:color(display-p3 0.9608 0.8078 0.0000);fill-opacity:1;stroke:black;stroke-opacity:1;" stroke-width="1.2" stroke-miterlimit="2.6"/>
<path id="Vector_44" d="M448.2 291.4C448.2 291.4 446.1 291 444.8 293.6C444.8 293.6 444.1 295.1 443.9 296.1M443.2 287.1C443.2 287.1 445.4 287.4 444.3 290.5C443.1 293.4 441.3 294.2 440.7 294.7M468.1 203.6C468.1 203.6 473.3 200.3 478.5 203.9M438.8 235.2C438.8 235.2 439.5 232.2 436.2 227.2C436.2 227.2 434 222.5 433 219.7M440.4 216.4L442.7 223L445.7 229.8" stroke="black" style="stroke:black;stroke-opacity:1;" stroke-width="1.2" stroke-miterlimit="2.6"/>
<path id="Vector_45" d="M441.2 238.3C441.2 238.3 443.2 240.4 443 243.9M434.9 236C434.9 236 437 237 436.8 242.8C436.8 242.8 436.7 246.8 439.8 249M434.5 250.4C434.5 250.4 441.2 249.7 441.7 253.9C441.7 253.9 441.7 257.9 444.1 258.2C444.1 258.2 447.4 258.5 448.1 261.8M436.7 255C436.7 255 437.9 256.7 439.1 257.6M445.3 250.6C445.3 250.6 446.9 253.3 447.3 254.7M452.6 219.7C452.6 219.7 454.2 221.8 455.7 222.7M458.8 232.3C458.8 232.3 462.2 233.9 461.8 242.3C461.8 242.3 461.2 247.3 462.7 250" stroke="black" style="stroke:black;stroke-opacity:1;" stroke-width="1.2" stroke-miterlimit="10"/>
<path id="Vector_46" d="M443.1 226.6L443.5 227.4C443.5 227.4 449.5 227.7 452.6 223.6L452.3 222.8C452.3 222.8 447 222.5 443.3 226.6H443.1Z" fill="#784421" stroke="black" style="fill:#784421;fill:color(display-p3 0.4706 0.2667 0.1294);fill-opacity:1;stroke:black;stroke-opacity:1;" stroke-width="1.2"/>
<path id="Vector_47" d="M464.7 258.5C464.7 258.5 485.3 252.5 493.3 248.9" stroke="black" style="stroke:black;stroke-opacity:1;" stroke-width="1.2" stroke-miterlimit="10"/>
<path id="Vector_48" d="M462.5 220.5L462.3 219.9L472.4 215.9L472.7 216.7L462.5 220.5Z" fill="#784421" stroke="black" style="fill:#784421;fill:color(display-p3 0.4706 0.2667 0.1294);fill-opacity:1;stroke:black;stroke-opacity:1;" stroke-width="1.2"/>
<path id="Vector_49" d="M463.4 220.1L470.2 253.4M464.6 219.8L472.3 252.8M465.9 219.2L474.3 252.1M469.3 218L480.8 242.6M470.8 217.6L483.1 241.8M471.8 217L485.2 241.3M469.7 253.7L474.9 252.1M465.8 250.5C465.8 250.5 481 246 492.8 241.3M465.4 252C465.4 252 484.9 247 492.6 243.2M471.4 267.8L472.4 271.1L475.2 270.1L474.2 267M479.2 265.7L480.2 268.7L483 267.8L482 264.8M466 247.2L465.8 243L491.3 235.3L492.6 238.9M476.6 239.7L477.9 243.5M485.5 237.1L487.1 240.7M487.6 236.4L489.2 239.7M489.6 235.7L491.2 239.3M491.2 235.3L494 233.7L495.2 236.8M492.6 234.5L494 237.8" stroke="black" style="stroke:black;stroke-opacity:1;" stroke-width="1.2" stroke-miterlimit="10"/>
<path id="Vector_50" d="M429.5 283.1C429.5 283.1 424.5 278 429.5 273.1C429.5 273.1 424 270.5 424.9 266.1M438.5 287.1C438.5 287.1 433.2 287.8 434.8 277.7C434.8 277.7 432.6 281.7 431.9 283.7C431.636 284.697 431.687 285.75 432.045 286.717C432.403 287.684 433.051 288.516 433.9 289.1C434.8 289.7 439.4 290.9 440.9 287.9M432.6 271.7C432.6 271.7 430.5 273.6 432 277.1M434.8 272.1C434.8 272.1 435 275.6 436.8 277.5M436.3 270.8C436.3 270.8 436.3 274.8 439.2 277.4M437.7 269.4C437.7 269.4 437.7 273.9 441.1 276.8M454.6 276.1C454.6 276.1 456.2 272.2 459.8 272.5C459.8 272.5 458.1 273.3 458.1 275C458.1 275 457.9 278 461 278.2C461 278.2 463.5 278.6 464.8 277.2" stroke="#00247D" style="stroke:#00247D;stroke:color(display-p3 0.0000 0.1412 0.4902);stroke-opacity:1;" stroke-width="1.2" stroke-miterlimit="10"/>
<path id="Vector_51" d="M463.1 293.1C463.1 293.1 454.2 288.9 455.1 283C455.1 283 455.5 279.4 459.1 277.6M457.1 281.4C457.1 281.4 456.3 283.9 458.1 285.7M459.2 279.7C459.2 279.7 458 282.5 459.9 284.5M461.4 278.2C461.4 278.2 460 280.6 461.6 282.7M453.2 293.7C453.2 293.7 458 298 461.8 298M451.7 295.1C451.7 295.1 456.2 298.7 459.1 299.3M450.1 296.1C450.1 296.1 455.6 301 459.1 301.3M472.8 305.9C472.8 305.9 467.3 308.9 471.6 312.1M469.2 302.7L478.2 298.1M471.5 304.3C471.5 304.3 480.5 298.8 483.2 297.6M476.2 304.8C476.2 304.8 483.9 299.6 488.1 297.3M481.3 304.4C481.3 304.4 486.6 300.4 491.8 297.3M493.5 292.2C493.5 292.2 490.9 288.3 482.3 292.2C482.3 292.2 485.6 289.3 491.8 287M500.3 270.7C500.3 270.7 501.1 273.8 500.3 275.7" stroke="#00247D" style="stroke:#00247D;stroke:color(display-p3 0.0000 0.1412 0.4902);stroke-opacity:1;" stroke-width="1.2" stroke-miterlimit="10"/>
<path id="Vector_52" d="M486.5 285.7C486.5 285.7 488.3 283.1 492.8 281.7C492.8 281.7 494 284.7 497.6 284.2C497.6 284.2 502.8 283.1 501.2 277.2C501.2 277.2 500.1 273 494 272.5M512.1 265.2C512.1 265.2 518.2 266.4 518.1 271.3C518.1 271.3 518.7 278.9 510.7 280.3M517.3 268.3C517.3 268.3 518.9 264.6 522.8 263.1M518.2 260.9C518.2 260.9 519.9 263.7 521 264M517.4 263C517.4 263 518.9 265.1 519.4 265.5M516.8 265L518.3 266.6M485 235.8C485 235.8 486.2 233.8 489.3 234.6M501.4 250.4C501.4 250.4 503.4 242.6 509.9 245.4M507.3 244.8C507.3 244.8 507.9 241.2 506.3 239.3M502.7 244.5C502.7 244.5 503.6 246 502.8 247.2" stroke="#00247D" style="stroke:#00247D;stroke:color(display-p3 0.0000 0.1412 0.4902);stroke-opacity:1;" stroke-width="1.2" stroke-miterlimit="10"/>
<path id="Vector_53" d="M516.2 325C516.2 325 523.6 321.7 521.3 315.9C521.3 315.9 520.6 313.9 518.9 314.1C518.9 314.1 516.1 314.2 516.6 318.1C516.6 318.1 517.6 321.9 516.1 325.1L516.2 325Z" fill="#64B4D1" stroke="#00247D" style="fill:#64B4D1;fill:color(display-p3 0.3922 0.7059 0.8196);fill-opacity:1;stroke:#00247D;stroke:color(display-p3 0.0000 0.1412 0.4902);stroke-opacity:1;" stroke-width="1.2" stroke-miterlimit="2.6"/>
<path id="Vector_54" d="M518.8 321.6C518.8 321.6 520.5 320.1 520.3 317.3C520.3 317.3 520.1 316.7 520.3 316.6C520.3 316.6 520.7 316.5 520.7 317.2C520.7 317.2 521.2 320.1 519.3 321.7C519.3 321.833 519.167 321.9 518.9 321.9C518.767 321.9 518.767 321.8 518.9 321.6H518.8Z" fill="white" style="fill:white;fill-opacity:1;"/>
<path id="Vector_55" d="M526.7 319.8C526.7 319.8 531.9 316.6 529.1 311.1C529.1 311.1 528.2 309.6 526.7 309.9C526.7 309.9 523.5 310.9 526 315.4C526 315.4 527.2 318.3 526.7 319.9V319.8Z" fill="#64B4D1" stroke="#00247D" style="fill:#64B4D1;fill:color(display-p3 0.3922 0.7059 0.8196);fill-opacity:1;stroke:#00247D;stroke:color(display-p3 0.0000 0.1412 0.4902);stroke-opacity:1;" stroke-width="1.2" stroke-miterlimit="2.6"/>
<path id="Vector_56" d="M528 312.4C528 312.4 527.8 312.1 528 311.8L528.4 312.2C528.4 312.2 529.9 313.9 528.7 316.6C528.7 316.6 528.6 317 528.2 316.8V316.5C528.2 316.5 529.4 314.1 528 312.5V312.4Z" fill="white" style="fill:white;fill-opacity:1;"/>
<path id="Vector_57" d="M511 323.6C511 323.6 505.2 322.2 506.3 316.1C506.3 316.1 506.9 313.5 509.4 313.9C509.4 313.9 512.4 314.7 510.4 318.5C510.4 318.5 509.3 321.1 511.1 323.6H511Z" fill="#64B4D1" stroke="#00247D" style="fill:#64B4D1;fill:color(display-p3 0.3922 0.7059 0.8196);fill-opacity:1;stroke:#00247D;stroke:color(display-p3 0.0000 0.1412 0.4902);stroke-opacity:1;" stroke-width="1.2" stroke-miterlimit="2.6"/>
<path id="Vector_58" d="M508.8 316.5V316C508.8 316 509.2 316 509.3 316.2C509.3 316.2 509.9 317.2 509.4 318.6C509.4 318.6 508.9 319.5 509.2 320.4C509.2 320.467 509.1 320.6 508.9 320.8L508.7 320.4C508.7 320.4 508.4 319.6 508.9 318.6C508.9 318.6 509.5 317.2 508.9 316.5H508.8Z" fill="white" style="fill:white;fill-opacity:1;"/>
<path id="Vector_59" d="M515.2 312.3C515.2 312.3 518.6 310.4 521.2 312.6C521.2 312.6 521 311.4 518.8 310.9C518.8 310.9 517.8 307.7 514.6 308C514.6 308 515.8 309.6 517.6 310.8C517.6 310.8 515.8 311 515.2 312.3ZM517.6 303.6C517.6 303.6 520 305.3 520.8 306.4C520.8 306.4 521.7 305.2 522.8 304.6C522.8 304.6 521.6 304.3 520.8 304.9C520.8 304.9 519.7 303.9 517.8 303.6H517.6Z" fill="black" style="fill:black;fill-opacity:1;"/>
<path id="Vector_60" d="M504.8 310.6C504.8 310.6 504.5 309.8 505.1 309C505.1 309 505.5 308.4 505.3 307.5M528.7 259.5C528.7 259.5 532.2 259.3 532.7 256.5M538.7 254.7C538.7 254.7 537.5 254.7 536.5 255.9C536.5 255.9 535.6 257.1 534.5 256.9" stroke="black" style="stroke:black;stroke-opacity:1;" stroke-width="1.2" stroke-miterlimit="10"/>
<path id="Vector_61" d="M523.6 249.2C523.6 249.2 525.4 249.2 526.3 248.4C526.3 248.4 527.4 247.7 528 248.8C528 248.8 529 250.4 527.2 251.1C527.2 251.1 525 252.3 528.5 254.5C528.5 254.5 524.3 252.9 526.1 250.9C526.1 250.9 527.9 249.7 527.1 249.2C527.1 249.2 526.9 248.8 526.2 249.2C525.5 249.8 524.1 249.6 523.6 249.2Z" fill="black" style="fill:black;fill-opacity:1;"/>
<path id="Vector_62" d="M526 205.6C526 205.6 526.8 204.4 526.5 201.2C526.2 198 529.1 197.5 530.1 198.4C530.1 198.4 531.3 199.4 530.1 201.5C529.294 203.331 527.831 204.794 526 205.6Z" fill="#64B4D1" stroke="#00247D" style="fill:#64B4D1;fill:color(display-p3 0.3922 0.7059 0.8196);fill-opacity:1;stroke:#00247D;stroke:color(display-p3 0.0000 0.1412 0.4902);stroke-opacity:1;" stroke-width="1.2" stroke-miterlimit="2.6"/>
<path id="Vector_63" d="M527 203C527 203 528.2 201.9 527.6 199.4L527.8 199.2H528.1C528.1 199.2 528.7 202 527.5 203.4C527.5 203.4 527.3 203.7 527 203.4V203Z" fill="white" style="fill:white;fill-opacity:1;"/>
<path id="Vector_64" d="M525.1 204.4C525.1 204.4 525.1 203 522.8 200.8C520.4 198.4 522.3 196.4 523.8 196.4C523.8 196.4 525.1 196.4 525.8 198.7C526.28 200.621 526.031 202.652 525.1 204.4Z" fill="#64B4D1" stroke="#00247D" style="fill:#64B4D1;fill:color(display-p3 0.3922 0.7059 0.8196);fill-opacity:1;stroke:#00247D;stroke:color(display-p3 0.0000 0.1412 0.4902);stroke-opacity:1;" stroke-width="1.2" stroke-miterlimit="2.6"/>
<path id="Vector_65" d="M524.8 201.4C524.8 201.4 524.8 199.8 522.6 198.1V197.7H523C523 197.7 525.3 199.5 525.3 201.5C525.3 201.633 525.2 201.733 525 201.8C524.933 201.867 524.867 201.733 524.8 201.4Z" fill="white" style="fill:white;fill-opacity:1;"/>
<path id="Vector_66" d="M522 203.3C522 203.3 521.3 202.3 518.5 201.2C515.6 200.2 516.3 197.7 517.5 197.2C517.5 197.2 518.8 196.7 520.1 198.3C521.252 199.713 521.887 201.477 521.9 203.3H522Z" fill="#64B4D1" stroke="#00247D" style="fill:#64B4D1;fill:color(display-p3 0.3922 0.7059 0.8196);fill-opacity:1;stroke:#00247D;stroke:color(display-p3 0.0000 0.1412 0.4902);stroke-opacity:1;" stroke-width="1.2" stroke-miterlimit="2.6"/>
<path id="Vector_67" d="M520.6 201.3C520.6 201.3 520 199.9 517.4 199.2C517.333 199.2 517.267 199.1 517.2 198.9C517.2 198.833 517.3 198.8 517.5 198.8C517.5 198.8 520.4 199.4 521.2 201.2L521.1 201.5C521.1 201.5 520.8 201.5 520.7 201.3H520.6Z" fill="white" style="fill:white;fill-opacity:1;"/>
<path id="Vector_68" d="M523.7 204.4C523.7 204.4 522.4 204.9 519.3 203.4C516.2 201.9 514.9 204.5 515.5 205.7C515.5 205.7 516 207.3 518.3 206.9C520.34 206.818 522.272 205.96 523.7 204.5V204.4Z" fill="#64B4D1" stroke="#00247D" style="fill:#64B4D1;fill:color(display-p3 0.3922 0.7059 0.8196);fill-opacity:1;stroke:#00247D;stroke:color(display-p3 0.0000 0.1412 0.4902);stroke-opacity:1;" stroke-width="1.2" stroke-miterlimit="2.6"/>
<path id="Vector_69" d="M516.6 205.4C516.6 205.4 518 206.4 520.5 205.4H520.8C520.8 205.4 520.8 205.6 520.6 205.7C520.6 205.7 518 206.9 516.2 205.8C516.133 205.8 516.133 205.7 516.2 205.5L516.6 205.4Z" fill="white" style="fill:white;fill-opacity:1;"/>
<path id="Vector_70" d="M519.3 194.7C519.3 194.7 520.7 195.5 520.5 197.2" stroke="black" style="stroke:black;stroke-opacity:1;" stroke-width="1.2" stroke-miterlimit="2.6"/>
<path id="Vector_71" d="M526 195C526 195 526.6 196.9 526 198" stroke="black" style="stroke:black;stroke-opacity:1;" stroke-width="1.2" stroke-miterlimit="10"/>
<path id="Vector_72" d="M420.2 205.6C420.2 205.6 419.4 204.4 419.7 201.2C420.1 197.8 417.2 197.5 416.2 198.4C416.2 198.4 415 199.4 416 201.5C416.83 203.35 418.331 204.815 420.2 205.6Z" fill="#64B4D1" stroke="#00247D" style="fill:#64B4D1;fill:color(display-p3 0.3922 0.7059 0.8196);fill-opacity:1;stroke:#00247D;stroke:color(display-p3 0.0000 0.1412 0.4902);stroke-opacity:1;" stroke-width="1.2" stroke-miterlimit="2.6"/>
<path id="Vector_73" d="M419.1 203C419.1 203 418.1 201.9 418.5 199.4V199.2H418.1C418.1 199.2 417.6 202 418.8 203.4C418.8 203.4 419 203.7 419.1 203.4V203Z" fill="white" style="fill:white;fill-opacity:1;"/>
<path id="Vector_74" d="M421.2 204.4C421.2 204.4 421.2 203 423.6 200.8C425.9 198.4 424 196.4 422.6 196.4C422.6 196.4 421 196.4 420.6 198.7C420.089 200.609 420.303 202.639 421.2 204.4Z" fill="#64B4D1" stroke="#00247D" style="fill:#64B4D1;fill:color(display-p3 0.3922 0.7059 0.8196);fill-opacity:1;stroke:#00247D;stroke:color(display-p3 0.0000 0.1412 0.4902);stroke-opacity:1;" stroke-width="1.2" stroke-miterlimit="2.6"/>
<path id="Vector_75" d="M421.5 201.4C421.5 201.4 421.5 199.8 423.5 198.1C423.5 198.1 423.8 197.8 423.5 197.7H423.3C423.3 197.7 420.9 199.5 420.9 201.5C420.833 201.633 420.967 201.733 421.3 201.8C421.367 201.867 421.433 201.733 421.5 201.4Z" fill="white" style="fill:white;fill-opacity:1;"/>
<path id="Vector_76" d="M424.3 203.3C424.3 203.3 424.9 202.3 427.8 201.2C430.6 200.2 429.8 197.7 428.7 197.2C428.7 197.2 427.5 196.7 426.1 198.3C424.948 199.713 424.313 201.477 424.3 203.3Z" fill="#64B4D1" stroke="#00247D" style="fill:#64B4D1;fill:color(display-p3 0.3922 0.7059 0.8196);fill-opacity:1;stroke:#00247D;stroke:color(display-p3 0.0000 0.1412 0.4902);stroke-opacity:1;" stroke-width="1.2" stroke-miterlimit="2.6"/>
<path id="Vector_77" d="M425.6 201.3C425.6 201.3 426.2 199.9 428.8 199.2C428.867 199.2 428.933 199.1 429 198.9C429 198.833 428.933 198.8 428.8 198.8C428.8 198.8 425.9 199.4 425.1 201.2V201.5C425.1 201.5 425.5 201.5 425.6 201.3Z" fill="white" style="fill:white;fill-opacity:1;"/>
<path id="Vector_78" d="M422.5 204.4C422.5 204.4 423.9 204.9 426.9 203.4C429.9 201.9 431.3 204.5 430.9 205.7C430.9 205.7 430.2 207.3 427.9 206.9C425.86 206.818 423.928 205.96 422.5 204.5V204.4Z" fill="#64B4D1" stroke="#00247D" style="fill:#64B4D1;fill:color(display-p3 0.3922 0.7059 0.8196);fill-opacity:1;stroke:#00247D;stroke:color(display-p3 0.0000 0.1412 0.4902);stroke-opacity:1;" stroke-width="1.2" stroke-miterlimit="2.6"/>
<path id="Vector_79" d="M429.6 205.4C429.6 205.4 428.3 206.4 425.7 205.4H425.5V205.7C425.5 205.7 428.3 206.9 430 205.8C430.133 205.8 430.133 205.7 430 205.5L429.6 205.4Z" fill="white" style="fill:white;fill-opacity:1;"/>
<path id="Vector_80" d="M427 194.7C427 194.7 425.5 195.5 425.8 197.2" stroke="black" style="stroke:black;stroke-opacity:1;" stroke-width="1.2" stroke-miterlimit="2.6"/>
<path id="Vector_81" d="M420.2 195C420.2 195 419.6 196.9 420.2 198" stroke="black" style="stroke:black;stroke-opacity:1;" stroke-width="1.2" stroke-miterlimit="10"/>
<path id="Vector_82" d="M486.7 177.6C486.7 177.6 487.7 180.3 487.3 182.8C487 185.2 487.5 185.7 488.3 186.2C489 186.5 490.7 185.8 490.8 184C490.8 184 492.8 187.8 489 190.3C489 190.3 486.3 192 484 189.9C483.2 189 482.8 186.9 483.3 184.9C483.3 184.9 483.9 182.2 482.8 179.4C482.8 179.4 484.4 181 484 184.3C484 184.3 483.2 190.3 487.6 189.9C487.6 189.9 490.6 189.9 490.6 186.3C490.6 186.3 489.5 187.5 488.2 187.1C487.596 186.957 487.071 186.585 486.736 186.063C486.4 185.541 486.28 184.909 486.4 184.3C486.5 182.7 487 180 486.7 177.6ZM482 187C482 187 481.6 191.8 477.4 192.9C477.4 192.9 478 192 477.1 189.6C477.1 189.6 476.1 188.4 476.1 186.3C476.1 186.3 474.9 187.3 476.4 190.1C477.4 191.8 476.4 193.7 476.3 193.8C475.9 193.9 483.2 192.8 481.9 187.1L482 187ZM476.4 182.5C476.4 182.5 475.3 181.3 475.2 178.7C475.2 176 474.7 175.3 474.3 175.1C474.3 175.1 474.8 177.4 474.7 178.7C474.613 179.717 474.75 180.741 475.1 181.7C475.1 181.7 472.7 182 471.2 178.7C469.9 175.4 468.5 175.7 467.8 175.7C467.8 175.7 468.6 175.8 470.2 178.7C471.8 181.7 472.3 182.4 476.4 182.4V182.5ZM465.6 175.5C465.6 175.5 466.8 178.7 467 180.3C467 180.3 463.9 179.3 463 176.8C463 176.8 459.8 177.8 461 181.5C461 181.5 458.1 180.5 456.8 178.3C456.8 178.3 458.4 179.5 459.9 180C459.9 180 459.7 176.9 463.5 175.8C463.5 175.8 464.1 178.5 466.1 179.1L465.6 175.5ZM470.6 170.1C470.6 170.1 471.8 171.6 474 171.6C474.613 171.612 475.22 171.483 475.775 171.223C476.33 170.963 476.817 170.578 477.2 170.1C477.2 170.1 477.1 172.7 474 172.8C474 172.8 470.7 172.8 470.7 170.1H470.6ZM457.2 188.6L459.2 190.5C459.2 190.5 460.4 191.7 461.2 190.2C461.2 190.2 462.5 187.8 464.1 188C464.1 188 462.9 188.7 461.7 191C461.7 191 461.5 191.7 460.5 191.8C460 191.8 459.5 192 458.7 191.1C458.567 191.1 458.067 190.3 457.2 188.7V188.6ZM473.9 159.2C470.7 159.2 473.4 161.6 473.4 161.6C473.4 165.6 470.3 167 468.1 165.8C465.9 164.6 467.7 161.8 467.7 161.8C467.7 161.8 465.3 163.3 466.7 165.7C468.3 168.1 472.4 166.9 473.9 164.8C475.4 167 479.6 168.1 481 165.7C482.7 163.3 480.2 161.7 480.2 161.7C480.2 161.7 482 164.6 479.7 165.7C477.6 167 474.3 165.7 474.5 161.7C474.5 161.7 477.2 159.2 474 159.2H473.9ZM475.9 154.8C475.9 154.8 477.1 156.8 476.9 159.8C476.9 159.8 477.8 156.8 475.9 154.9V154.8ZM465.9 159.5C465.9 159.5 465.6 157.3 463.5 157.1C463.5 157.1 465.4 158.4 465.9 159.5ZM481.9 159.5C481.9 159.5 482.2 157.3 484.4 157.1C484.4 157.1 482.6 158.4 482 159.5H481.9ZM462.7 162.7C462.7 162.7 464.3 163.2 465.3 162L462.7 162.7ZM457.3 149.6C457.3 149.6 459.2 149.5 461.1 152.3C461.1 152.3 459.2 153.3 458.7 153.9C458.7 153.9 458.7 152.9 459.7 152.2C459.7 152.2 459.3 150.8 457.3 149.7V149.6ZM489.3 149.6C489.3 149.6 487.3 149.5 485.4 152.3C485.4 152.3 487.4 153.3 487.8 153.9C487.8 153.9 487.8 152.9 486.8 152.2C486.8 152.2 487.2 150.8 489.3 149.7V149.6ZM474.6 151.8C474.6 151.8 476.3 152.3 478.4 151.1C478.4 151.1 481 149.7 482.7 151.1C482.7 151.1 481.3 150.4 478.4 151.8C478.4 151.8 475.7 153.4 474.6 151.8Z" fill="black" style="fill:black;fill-opacity:1;"/>
<path id="Vector_83" d="M476.4 153.6C476.4 153.6 477.8 151.1 482.4 151.6C482.4 151.6 481.1 155.2 476.4 153.6Z" fill="white" style="fill:white;fill-opacity:1;"/>
<path id="Vector_84" d="M479.4 153.9C479.842 153.9 480.2 153.407 480.2 152.8C480.2 152.192 479.842 151.7 479.4 151.7C478.958 151.7 478.6 152.192 478.6 152.8C478.6 153.407 478.958 153.9 479.4 153.9Z" fill="#784421" style="fill:#784421;fill:color(display-p3 0.4706 0.2667 0.1294);fill-opacity:1;"/>
<path id="Vector_85" d="M479.4 153.5C479.676 153.5 479.9 153.187 479.9 152.8C479.9 152.413 479.676 152.1 479.4 152.1C479.124 152.1 478.9 152.413 478.9 152.8C478.9 153.187 479.124 153.5 479.4 153.5Z" fill="black" style="fill:black;fill-opacity:1;"/>
<path id="Vector_86" d="M466.8 148.1C466.8 148.1 469.6 148.4 471.4 149.3C471.4 149.3 473.2 150.5 475.2 149C475.2 149 477.4 147.6 478.9 145.9C478.9 145.9 475.4 148.2 474.1 148.6C474.1 148.6 472.9 147.6 472.6 146.3C472.6 146.3 472.6 145.3 474.6 143.6C474.6 143.6 472.1 144.4 471.6 146.5C471.913 147.35 472.389 148.131 473 148.8C473 148.8 472.6 149.1 471.4 148.2C471.4 148.2 468.6 147.4 466.8 148.2V148.1ZM474 165.1C471.6 167.2 474 167 474 167C474 167 476.4 167.2 474 165V165.1ZM472.6 151.9C472.6 151.9 470.8 152.4 468.6 151.2C468.6 151.2 466 149.8 464.3 151.2C464.3 151.2 465.8 150.5 468.6 151.9C468.6 151.9 471.5 153.5 472.6 151.9Z" fill="black" style="fill:black;fill-opacity:1;"/>
<path id="Vector_87" d="M470.8 153.6C470.8 153.6 469.3 151.1 464.8 151.6C464.8 151.6 466 155.2 470.8 153.6Z" fill="white" style="fill:white;fill-opacity:1;"/>
<path id="Vector_88" d="M467.7 153.9C468.142 153.9 468.5 153.407 468.5 152.8C468.5 152.192 468.142 151.7 467.7 151.7C467.258 151.7 466.9 152.192 466.9 152.8C466.9 153.407 467.258 153.9 467.7 153.9Z" fill="#784421" style="fill:#784421;fill:color(display-p3 0.4706 0.2667 0.1294);fill-opacity:1;"/>
<path id="Vector_89" d="M467.7 153.5C467.976 153.5 468.2 153.187 468.2 152.8C468.2 152.413 467.976 152.1 467.7 152.1C467.424 152.1 467.2 152.413 467.2 152.8C467.2 153.187 467.424 153.5 467.7 153.5Z" fill="black" style="fill:black;fill-opacity:1;"/>
<path id="Vector_90" d="M560 130.6V292.2C560 335.3 473.8 349.4 473.8 349.4C473.8 349.4 387.4 335.4 387.4 292.2V130.6H560Z" stroke="black" style="stroke:black;stroke-opacity:1;" stroke-width="1.2"/>
<path id="Vector_91" d="M0 0H320V240H0V0Z" fill="#000066" style="fill:#000066;fill:color(display-p3 0.0000 0.0000 0.4000);fill-opacity:1;"/>
<path id="Vector_92" d="M37.5 0L159.5 90.5L281 0H320V31L200 120.5L320 209.5V240H280L160 150.5L40.5 240H0V210L119.5 121L0 32V0H37.5Z" fill="white" style="fill:white;fill-opacity:1;"/>
<path id="Vector_93" d="M212 140.5L320 220V240L184.5 140.5H212ZM120 150.5L123 168L27 240H0L120 150.5ZM320 0V1.5L195.5 95.5L196.5 73.5L295 0H320ZM0 0L119.5 88H89.5L0 21V0Z" fill="#C8102E" style="fill:#C8102E;fill:color(display-p3 0.7843 0.0627 0.1804);fill-opacity:1;"/>
<path id="Vector_94" d="M120.5 0V240H200.5V0H120.5ZM0 80V160H320V80H0Z" fill="white" style="fill:white;fill-opacity:1;"/>
<path id="Vector_95" d="M0 96.5V144.5H320V96.5H0ZM136.5 0V240H184.5V0H136.5Z" fill="#C8102E" style="fill:#C8102E;fill:color(display-p3 0.7843 0.0627 0.1804);fill-opacity:1;"/>
</g>
<defs>
<clipPath id="clip0_2194_841">
<rect width="640" height="480" fill="white" style="fill:white;fill-opacity:1;"/>
</clipPath>
</defs>
</svg>
