<svg width="640" height="480" viewBox="0 0 640 480" fill="none" xmlns="http://www.w3.org/2000/svg">
<g id="ca" clip-path="url(#clip0_2194_1934)">
<path id="Vector" d="M150.1 0H489.8V480H150L150.1 0Z" fill="white" style="fill:white;fill-opacity:1;"/>
<path id="Vector_2" d="M-19.7 0H150.1V480H-19.7V0ZM489.8 0H659.6V480H489.9L489.8 0ZM201 232L187.7 236.4L249.1 290.4C253.8 304.1 247.5 308.2 243.5 315.4L310.1 307L308.5 374L322.4 373.7L319.3 307.1L386 315.1C381.9 306.4 378.2 301.8 382 287.9L443.3 236.9L432.6 232.9C423.8 226.1 436.4 200.3 438.2 184C438.2 184 402.5 196.3 400.2 189.8L391 172.3L358.4 208.1C354.9 209 353.4 207.6 352.5 204.6L367.5 129.8L343.7 143.2C341.567 144.067 339.833 143.333 338.5 141L315.5 95L291.9 142.8C290.033 144.467 288.367 144.7 286.9 143.5L264 130.8L277.7 204.9C276.6 207.9 274 208.7 271 207.1L239.8 171.8C235.8 178.3 233 188.9 227.6 191.3C222.2 193.7 204.1 186.8 192 184.3C196.2 199.1 209 223.9 201 232Z" fill="#D52B1E" style="fill:#D52B1E;fill:color(display-p3 0.8353 0.1686 0.1176);fill-opacity:1;"/>
</g>
<defs>
<clipPath id="clip0_2194_1934">
<rect width="640" height="480" fill="white" style="fill:white;fill-opacity:1;"/>
</clipPath>
</defs>
</svg>
