<svg width="640" height="480" viewBox="0 0 640 480" fill="none" xmlns="http://www.w3.org/2000/svg">
<g id="cefta" clip-path="url(#clip0_2194_1956)">
<path id="Vector" d="M0 0H640V480H0V0Z" fill="#003399" style="fill:#003399;fill:color(display-p3 0.0000 0.2000 0.6000);fill-opacity:1;"/>
<path id="Vector_2" d="M320 280.2C336.789 280.2 350.4 266.589 350.4 249.8C350.4 233.01 336.789 219.4 320 219.4C303.211 219.4 289.6 233.01 289.6 249.8C289.6 266.589 303.211 280.2 320 280.2Z" stroke="#FFCC00" style="stroke:#FFCC00;stroke:color(display-p3 1.0000 0.8000 0.0000);stroke-opacity:1;" stroke-width="27.5"/>
<path id="Vector_3" d="M320 338.1C368.767 338.1 408.3 298.567 408.3 249.8C408.3 201.033 368.767 161.5 320 161.5C271.233 161.5 231.7 201.033 231.7 249.8C231.7 298.567 271.233 338.1 320 338.1Z" stroke="#FFCC00" style="stroke:#FFCC00;stroke:color(display-p3 1.0000 0.8000 0.0000);stroke-opacity:1;" stroke-width="27.5"/>
<path id="Vector_4" d="M404.7 165.1L489.4 249.8L404.7 334.5L320 249.8L404.7 165.1Z" fill="#003399" style="fill:#003399;fill:color(display-p3 0.0000 0.2000 0.6000);fill-opacity:1;"/>
<path id="Vector_5" d="M175.7 236.1H234.9V263.6H175.7V236.1ZM434.8 236.1H523.1V263.6H434.8V236.1ZM363 187.4L401.8 148.6L421.2 168.1L382.5 206.8L363 187.4ZM306.3 48.6001H333.8V155.7H306.3V48.6001Z" fill="#FFCC00" style="fill:#FFCC00;fill:color(display-p3 1.0000 0.8000 0.0000);fill-opacity:1;"/>
<path id="Vector_6" d="M225.1 173.3C232.666 173.3 238.8 167.166 238.8 159.6C238.8 152.034 232.666 145.9 225.1 145.9C217.534 145.9 211.4 152.034 211.4 159.6C211.4 167.166 217.534 173.3 225.1 173.3Z" fill="#FFCC00" style="fill:#FFCC00;fill:color(display-p3 1.0000 0.8000 0.0000);fill-opacity:1;"/>
<path id="Vector_7" d="M144.3 263.5C151.866 263.5 158 257.366 158 249.8C158 242.234 151.866 236.1 144.3 236.1C136.734 236.1 130.6 242.234 130.6 249.8C130.6 257.366 136.734 263.5 144.3 263.5Z" fill="#FFCC00" style="fill:#FFCC00;fill:color(display-p3 1.0000 0.8000 0.0000);fill-opacity:1;"/>
<path id="Vector_8" d="M320 395.1C327.566 395.1 333.7 388.966 333.7 381.4C333.7 373.834 327.566 367.7 320 367.7C312.434 367.7 306.3 373.834 306.3 381.4C306.3 388.966 312.434 395.1 320 395.1Z" fill="#FFCC00" style="fill:#FFCC00;fill:color(display-p3 1.0000 0.8000 0.0000);fill-opacity:1;"/>
<path id="Vector_9" d="M320 439.2C327.566 439.2 333.7 433.066 333.7 425.5C333.7 417.934 327.566 411.8 320 411.8C312.434 411.8 306.3 417.934 306.3 425.5C306.3 433.066 312.434 439.2 320 439.2Z" fill="#FFCC00" style="fill:#FFCC00;fill:color(display-p3 1.0000 0.8000 0.0000);fill-opacity:1;"/>
<path id="Vector_10" d="M408.3 263.5C415.866 263.5 422 257.366 422 249.8C422 242.234 415.866 236.1 408.3 236.1C400.734 236.1 394.6 242.234 394.6 249.8C394.6 257.366 400.734 263.5 408.3 263.5Z" fill="#FFCC00" style="fill:#FFCC00;fill:color(display-p3 1.0000 0.8000 0.0000);fill-opacity:1;"/>
<path id="Vector_11" d="M208.3 341.5L227.8 322.1L247.2 341.5L227.8 361L208.3 341.5ZM413 362.5L432.5 343L452 362.5L432.5 381.9L413 362.5Z" fill="#FFCC00" style="fill:#FFCC00;fill:color(display-p3 1.0000 0.8000 0.0000);fill-opacity:1;"/>
</g>
<defs>
<clipPath id="clip0_2194_1956">
<rect width="640" height="480" fill="white" style="fill:white;fill-opacity:1;"/>
</clipPath>
</defs>
</svg>
