<svg width="640" height="480" viewBox="0 0 640 480" fill="none" xmlns="http://www.w3.org/2000/svg">
<g id="cm" clip-path="url(#clip0_2194_2015)">
<path id="Vector" d="M0 0H213.3V480H0V0Z" fill="#007A5E" style="fill:#007A5E;fill:color(display-p3 0.0000 0.4784 0.3686);fill-opacity:1;"/>
<path id="Vector_2" d="M213.3 0H426.7V480H213.3V0Z" fill="#CE1126" style="fill:#CE1126;fill:color(display-p3 0.8078 0.0667 0.1490);fill-opacity:1;"/>
<path id="Vector_3" d="M426.7 0H640V480H426.7V0Z" fill="#FCD116" style="fill:#FCD116;fill:color(display-p3 0.9882 0.8196 0.0863);fill-opacity:1;"/>
<g id="Group">
<g id="cm-b">
<path id="cm-a" d="M320 183.111L302.222 237.156L329.244 246.4L320 183.111Z" fill="#FCD116" style="fill:#FCD116;fill:color(display-p3 0.9882 0.8196 0.0863);fill-opacity:1;"/>
<path id="cm-a_2" d="M320 183.111L337.778 237.156L310.755 246.4L320 183.111Z" fill="#FCD116" style="fill:#FCD116;fill:color(display-p3 0.9882 0.8196 0.0863);fill-opacity:1;"/>
</g>
<g id="cm-b_2">
<path id="cm-a_3" d="M374.104 222.421L317.212 222.214L316.77 250.77L374.104 222.421Z" fill="#FCD116" style="fill:#FCD116;fill:color(display-p3 0.9882 0.8196 0.0863);fill-opacity:1;"/>
<path id="cm-a_4" d="M374.105 222.42L328.199 256.029L311.057 233.186L374.105 222.42Z" fill="#FCD116" style="fill:#FCD116;fill:color(display-p3 0.9882 0.8196 0.0863);fill-opacity:1;"/>
</g>
<g id="cm-b_3">
<path id="cm-a_5" d="M353.438 286.024L336.054 231.852L308.759 240.256L353.438 286.024Z" fill="#FCD116" style="fill:#FCD116;fill:color(display-p3 0.9882 0.8196 0.0863);fill-opacity:1;"/>
<path id="cm-a_6" d="M353.438 286.024L307.289 252.751L323.717 229.389L353.438 286.024Z" fill="#FCD116" style="fill:#FCD116;fill:color(display-p3 0.9882 0.8196 0.0863);fill-opacity:1;"/>
</g>
<g id="cm-b_4">
<path id="cm-a_7" d="M286.562 286.024L332.711 252.751L316.283 229.389L286.562 286.024Z" fill="#FCD116" style="fill:#FCD116;fill:color(display-p3 0.9882 0.8196 0.0863);fill-opacity:1;"/>
<path id="cm-a_8" d="M286.562 286.024L303.946 231.852L331.241 240.256L286.562 286.024Z" fill="#FCD116" style="fill:#FCD116;fill:color(display-p3 0.9882 0.8196 0.0863);fill-opacity:1;"/>
</g>
<g id="cm-b_5">
<path id="cm-a_9" d="M265.895 222.42L311.801 256.029L328.943 233.186L265.895 222.42Z" fill="#FCD116" style="fill:#FCD116;fill:color(display-p3 0.9882 0.8196 0.0863);fill-opacity:1;"/>
<path id="cm-a_10" d="M265.896 222.421L322.788 222.214L323.23 250.77L265.896 222.421Z" fill="#FCD116" style="fill:#FCD116;fill:color(display-p3 0.9882 0.8196 0.0863);fill-opacity:1;"/>
</g>
</g>
</g>
<defs>
<clipPath id="clip0_2194_2015">
<rect width="640" height="480" fill="white" style="fill:white;fill-opacity:1;"/>
</clipPath>
</defs>
</svg>
