<svg width="640" height="480" viewBox="0 0 640 480" fill="none" xmlns="http://www.w3.org/2000/svg">
<g id="cx" clip-path="url(#clip0_2194_2086)">
<path id="Vector" d="M0 0H640V480H0V0Z" fill="#0021AD" style="fill:#0021AD;fill:color(display-p3 0.0000 0.1294 0.6784);fill-opacity:1;"/>
<path id="Vector_2" d="M0 0H640V480L0 0Z" fill="#1C8A42" style="fill:#1C8A42;fill:color(display-p3 0.1098 0.5412 0.2588);fill-opacity:1;"/>
<path id="Vector_3" d="M320 297.8C351.922 297.8 377.8 271.922 377.8 240C377.8 208.078 351.922 182.2 320 182.2C288.078 182.2 262.2 208.078 262.2 240C262.2 271.922 288.078 297.8 320 297.8Z" fill="#FFC639" style="fill:#FFC639;fill:color(display-p3 1.0000 0.7765 0.2235);fill-opacity:1;"/>
<path id="Vector_4" d="M284.7 214C288.7 219.5 294.7 228.6 299.5 226.2C303.2 226.2 305.2 226.5 305.7 229C311.963 229.62 318.28 228.632 324.054 226.129C329.829 223.627 334.87 219.693 338.7 214.7C338.7 214.7 339.5 214.7 339.2 210.2C339.2 208.2 342 208.6 342 209.2C342.4 210.2 342.4 210.9 342.9 211C343.9 210.6 345.6 208 346.9 206.4C347.1 205.733 347.167 204.933 347.1 204C347.8 202.3 349.5 202.7 349.9 203.6L350.5 205.2C352.3 206.4 355.5 205.2 355.7 205.2C356 203.8 356.9 204 356.9 204C358.1 203.7 357.6 203.8 358.4 204.2C357.7 211.9 359.9 212.2 359.7 216.2C359.8 220.6 358.4 221.8 358.4 223.5C358.8 225.5 365.4 225.6 363 227.4C361 228.4 363 230.4 360 231.2C351.2 235.7 349.6 239.5 349.6 239.5C349.6 239.5 347.4 243.7 347.1 243.7C345.6 246.5 343.8 244.9 342.7 246.3C342.2 248 341.7 251.8 342.7 253.7C343.2 256.4 342.7 257.9 342 260.6C341.4 266.2 339.2 267.1 338.9 269C337.9 271.2 339.1 281 338.1 281C331.6 281.2 326.6 279.8 324 279.3C326.5 268.4 325.5 258.9 325.5 257.9C324.9 250.1 313.9 252 312.2 250.9C310.8 250.7 309.9 249.6 309.5 249.1C307.9 248.9 307.3 248.5 305.8 248.4C305 248.8 305.5 249.2 303.8 249.7C299.3 250.2 297.4 245.9 297.4 245.9C297.6 244.4 287.5 246.2 282.1 244.9C279.8 246.2 278.8 249.9 277 250.3C277 251.4 274 249.3 273.4 248.3C273.2 244.9 276.2 243.5 276.2 243.5C278.6 241.8 280 241.5 281.2 240.4C281.7 237.5 281.4 235.4 282.7 233.3C283.7 231.6 285.2 232.3 286.2 231.7C287.3 230.9 287.8 226.1 286.8 224.7L282.1 220.5C280.7 216.4 283.8 213.7 284.7 214Z" fill="#1C8A42" style="fill:#1C8A42;fill:color(display-p3 0.1098 0.5412 0.2588);fill-opacity:1;"/>
<path id="Vector_5" d="M561.9 142.4C559.3 132.1 535.9 109.7 518.2 95.5001C514 92.7001 511.2 94.4001 511.8 98.5001C514 102.1 515.6 106.1 517.8 109.8C518.4 112.3 519.6 114 520.2 116.4C520.2 116.4 520.4 120.6 520.8 121C526.2 127 527 132.1 527 132.1C529.756 138.014 533.666 143.318 538.5 147.7C544.7 151.6 540.1 163.7 540.3 170.2C540.3 174.2 537.4 173.8 534.8 173.2C514.7 154.7 494.7 154.7 477 149.3C470.2 148.6 470 151.9 472.3 153.7C483.321 165.976 496.594 176.024 511.4 183.3L519.1 188.1L527.9 195.4C534.7 199.8 535.2 203.8 535.2 204.2C535.4 212.4 531 218.8 529.7 221.4C527.4 230.1 522.7 231.6 522.7 231.6C485.1 257 465.3 263.6 404.3 255.7C403.3 255.3 397.5 256.2 404.3 258.7C419.8 263.9 458 272.2 494.9 254.7C503.9 248.5 509.7 250.5 516.2 246.7C525.337 241.041 534.786 235.899 544.5 231.3C552.8 226.8 575.8 221.9 581.1 217.5C587.2 217 593.5 216.2 593.9 211C595.9 209.7 598.9 210.7 601.1 206.4C605.9 205.5 605.1 203.8 605.1 203.8C603.9 200.4 599.3 199 596.1 196.5C591.3 194.9 588.1 194.5 584.6 196.1L581.3 197.6C581.3 197.6 576.2 196.9 576.2 196.5C564.8 195.9 565.9 158.2 561.9 142.5V142.4Z" fill="#FFC639" style="fill:#FFC639;fill:color(display-p3 1.0000 0.7765 0.2235);fill-opacity:1;"/>
<path id="Vector_6" d="M588.6 204.2C588.52 204.426 588.371 204.627 588.161 204.793C587.951 204.958 587.685 205.085 587.378 205.165C587.07 205.246 586.728 205.279 586.369 205.262C586.011 205.245 585.644 205.179 585.29 205.067C584.935 204.956 584.6 204.801 584.303 204.611C584.006 204.422 583.753 204.202 583.559 203.963C583.365 203.725 583.234 203.473 583.172 203.222C583.11 202.971 583.12 202.726 583.2 202.5C583.362 202.045 583.802 201.697 584.422 201.535C585.043 201.372 585.794 201.407 586.51 201.633C587.226 201.858 587.849 202.255 588.241 202.737C588.633 203.218 588.762 203.745 588.6 204.2Z" fill="#1C8A42" style="fill:#1C8A42;fill:color(display-p3 0.1098 0.5412 0.2588);fill-opacity:1;"/>
<g id="Group">
<path id="cx-a" d="M120.448 202.24L112.256 194.56L104 202.112L104.896 190.976L93.824 189.184L103.104 182.912L97.6 173.184L108.288 176.576L112.448 166.208L116.48 176.64L127.168 173.44L121.536 183.04L130.752 189.44L119.68 191.04L120.448 202.24Z" fill="white" style="fill:white;fill-opacity:1;"/>
<path id="Vector_7" d="M149.376 294.72L140.544 288.896L131.968 295.04L135.04 285.12L126.336 279.04L136.96 278.784L140.16 268.864L143.744 278.656L154.432 278.592L145.92 284.8L149.312 294.656L149.376 294.72Z" fill="white" style="fill:white;fill-opacity:1;"/>
<path id="cx-a_2" d="M122.048 374.464L113.856 366.784L105.6 374.336L106.496 363.2L95.4241 361.408L104.704 355.136L99.2001 345.408L109.888 348.8L114.048 338.432L118.08 348.864L128.768 345.664L123.136 355.264L132.352 361.664L121.28 363.264L122.048 374.464Z" fill="white" style="fill:white;fill-opacity:1;"/>
<path id="cx-a_3" d="M48.7041 281.088L40.5121 273.408L32.2561 280.96L33.1521 269.824L22.0801 268.032L31.3601 261.76L25.8561 252.032L36.5441 255.424L40.7041 245.056L44.7361 255.488L55.4241 252.288L49.7921 261.888L59.0081 268.288L47.9361 269.888L48.7041 281.088Z" fill="white" style="fill:white;fill-opacity:1;"/>
<path id="cx-a_4" d="M189.824 256.64L181.632 248.96L173.376 256.512L174.272 245.376L163.2 243.584L172.48 237.312L166.976 227.584L177.664 230.976L181.824 220.608L185.856 231.04L196.544 227.84L190.912 237.44L200.128 243.84L189.056 245.44L189.824 256.64Z" fill="white" style="fill:white;fill-opacity:1;"/>
</g>
</g>
<defs>
<clipPath id="clip0_2194_2086">
<rect width="640" height="480" fill="white" style="fill:white;fill-opacity:1;"/>
</clipPath>
</defs>
</svg>
