<svg width="640" height="480" viewBox="0 0 640 480" fill="none" xmlns="http://www.w3.org/2000/svg">
<g id="dz" clip-path="url(#clip0_2194_2502)">
<path id="Vector" d="M320 0H640V480H320V0Z" fill="white" style="fill:white;fill-opacity:1;"/>
<path id="Vector_2" d="M0 0H320V480H0V0Z" fill="#006233" style="fill:#006233;fill:color(display-p3 0.0000 0.3843 0.2000);fill-opacity:1;"/>
<path id="Vector_3" d="M424 180C410.792 157.123 390.404 139.244 365.999 129.135C341.594 119.025 314.535 117.252 289.019 124.089C263.503 130.926 240.956 145.991 224.875 166.949C208.793 187.906 200.077 213.584 200.077 240C200.077 266.416 208.793 292.094 224.875 313.051C240.956 334.009 263.503 349.074 289.019 355.911C314.535 362.748 341.594 360.975 365.999 350.866C390.404 340.757 410.792 322.877 424 300C411.569 315.526 394.623 326.808 375.502 332.287C356.382 337.765 336.033 337.169 317.266 330.582C298.499 323.995 282.241 311.741 270.739 295.515C259.238 279.288 253.06 259.89 253.06 240C253.06 220.111 259.238 200.712 270.739 184.485C282.241 168.259 298.499 156.005 317.266 149.418C336.033 142.831 356.382 142.235 375.502 147.714C394.623 153.192 411.569 164.474 424 180ZM428 240L320 204.8L387.2 296.8V183.2L320 275.2L428 240Z" fill="#D21034" style="fill:#D21034;fill:color(display-p3 0.8235 0.0627 0.2039);fill-opacity:1;"/>
</g>
<defs>
<clipPath id="clip0_2194_2502">
<rect width="640" height="480" fill="white" style="fill:white;fill-opacity:1;"/>
</clipPath>
</defs>
</svg>
