<svg width="640" height="480" viewBox="0 0 640 480" fill="none" xmlns="http://www.w3.org/2000/svg">
<g id="fj" clip-path="url(#clip0_2194_3714)">
<path id="Vector" d="M0 0V480H640V0H0Z" fill="#68BFE5" style="fill:#68BFE5;fill:color(display-p3 0.4078 0.7490 0.8980);fill-opacity:1;"/>
<g id="Group">
<path id="Vector_2" d="M420.9 193.2V329.6C420.9 374.2 501.5 400.6 501.5 400.6C501.5 400.6 582 374.2 582 329.6V193.2H420.9Z" fill="white" style="fill:white;fill-opacity:1;"/>
<path id="Vector_3" d="M490.3 241.2V302.6H420.9V324.9H490.3V396.4L501.5 400.7L512.6 396.4V325H582V302.6H512.6V241.2H490.3Z" fill="#D21034" style="fill:#D21034;fill:color(display-p3 0.8235 0.0627 0.2039);fill-opacity:1;"/>
<path id="Vector_4" d="M420.9 193.2H582V246H420.8L420.9 193.2Z" fill="#D21034" style="fill:#D21034;fill:color(display-p3 0.8235 0.0627 0.2039);fill-opacity:1;"/>
<g id="Group_2">
<g id="Group_3">
<path id="Vector_5" d="M433.791 232.599C438.785 232.599 442.833 229.325 442.833 225.286C442.833 221.247 438.785 217.973 433.791 217.973C428.797 217.973 424.749 221.247 424.749 225.286C424.749 229.325 428.797 232.599 433.791 232.599Z" fill="white" stroke="black" style="fill:white;fill-opacity:1;stroke:black;stroke-opacity:1;" stroke-width="0.531888" stroke-miterlimit="3"/>
<path id="Vector_6" d="M433.791 225.552C438.234 225.552 441.836 223.736 441.836 221.496C441.836 219.256 438.234 217.441 433.791 217.441C429.348 217.441 425.746 219.256 425.746 221.496C425.746 223.736 429.348 225.552 433.791 225.552Z" fill="white" stroke="black" style="fill:white;fill-opacity:1;stroke:black;stroke-opacity:1;" stroke-width="0.531888" stroke-miterlimit="3"/>
<path id="Vector_7" d="M433.791 233.73C438.234 233.73 441.836 231.914 441.836 229.674C441.836 227.434 438.234 225.618 433.791 225.618C429.348 225.618 425.746 227.434 425.746 229.674C425.746 231.914 429.348 233.73 433.791 233.73Z" fill="white" stroke="black" style="fill:white;fill-opacity:1;stroke:black;stroke-opacity:1;" stroke-width="0.531888" stroke-miterlimit="3"/>
<path id="Vector_8" d="M433.791 229.342C438.234 229.342 441.836 227.526 441.836 225.286C441.836 223.046 438.234 221.23 433.791 221.23C429.348 221.23 425.746 223.046 425.746 225.286C425.746 227.526 429.348 229.342 433.791 229.342Z" fill="white" stroke="black" style="fill:white;fill-opacity:1;stroke:black;stroke-opacity:1;" stroke-width="0.531888" stroke-miterlimit="3"/>
</g>
<path id="Vector_9" d="M578 235.4L576.7 231.8C576.7 231.8 573.1 230.3 572.8 228.4C572.2 223.3 570.4 221.4 567.6 220.6C566.092 220.173 564.477 220.352 563.1 221.1C562.3 222.3 558.1 222.3 555.9 222.4C553.6 222.4 553.5 221.4 553.5 221.4C551.8 221.4 551 220.1 551 220.1C549.9 217.8 549 216.9 548.4 216.6C551.4 216.6 553.6 215.3 557 211.8C560.6 208 563.2 209.4 563.2 209.4C561.4 213 563.8 212.7 563.8 212.7C568.6 210.2 564.4 204 563 204.3C561.5 204.6 561.1 203.6 561.1 203.6C561.1 204.7 559.5 205.2 559.5 205.2C560.7 198.1 556.5 196.2 556.5 196.2C555.9 196.8 555.5 198.1 555.5 198.1C554.3 202.4 550.4 201.7 546 199.6C541.6 197.6 530 201.8 526.3 203.3C522.6 204.8 515.9 207 509.9 203.7C503.9 200.4 502.4 200.9 500 201.6C497.7 202.2 493.5 203.2 492 202.4C490.937 201.879 489.781 201.573 488.6 201.5C489 201.3 488.4 200.3 488.4 200.3C486.5 197.8 488.6 196.3 488.6 196.3C488.6 196.3 485.2 197.3 486.6 203.1L487.2 203.9C487.2 203.9 487.6 205.8 488.6 206.3V206.7C488.6 206.7 489.5 206.3 489.7 207.5C489.9 208.7 491.3 207.5 491.8 206.5C491.8 206.5 490.9 211.9 497.5 213.2C497.5 213.2 496.8 212.3 497 211.8C497.3 211.2 496.2 210.8 496.3 210C496.4 209.2 494.7 208.8 496 208.1C497.3 207.4 498 206.2 501 208C503.9 209.7 506.2 209.3 506.2 209.3C506.2 209.3 504.4 205.7 505.4 205.7C506.4 205.7 510.8 211.1 512.9 210.9C515.1 210.6 519.3 208.1 521.4 209C521.4 209 521.6 208 529.6 206.6C537.6 205.2 547.6 201.2 551.3 204.7C551.3 204.7 551.7 207.5 553.3 208.2C553.3 208.2 553 214 543.1 210.8L539.5 209.8C539.5 209.8 538.9 208.1 520 213C520 213 518.9 213.4 518.1 213.9C517.3 214.4 516.4 213.6 512.6 214.9C508.9 216.4 494.9 220.9 486.3 219.3C484.4 218.7 482.7 219 482.6 218.7C482.6 218.4 483.6 218.8 483.6 218.8C483 218.133 482.7 217.867 482.7 218C475.5 217.2 476.7 214 476.7 214L477.1 215C478.3 213.4 476.7 209.8 476.7 209.8H476.6V209.5L477.1 209.1C480.6 206.1 484.6 205.6 484.6 205.6C482.2 202.6 477.2 204.2 477.2 204.2C477.3 200.7 475.8 196.5 475.8 196.5C472.72 197.005 469.958 198.691 468.1 201.2C467.9 197.5 463.2 195.4 463.2 195.4C465 197.5 463.9 202.6 463.9 202.6H464.1H463.6L463.5 203.7H463.3C463.3 203.7 461.6 204.3 459.6 208.9C459.6 208.9 459.4 209.9 458.6 210.9V210.5C458.6 210.5 456.3 213.5 451.2 210.5C451.2 210.5 444.2 206.4 441.6 206.5C439.2 206.7 437.6 207.8 437.7 208.5C437.7 208.5 432 208.1 430.1 211.3C430.1 211.3 425.8 212.9 429.5 216.3C429.5 216.3 430 217.9 431 218.7C431 218.7 430.9 215.5 431.7 216.4L432.2 217C432.3 217.4 432.7 218.6 433.4 219.3L434 219.1C434 218.3 434.2 217.3 434.4 216.9H434.6L435.6 218.5L436.6 217.9C437.2 217.9 437.9 218.4 437.9 218.4L439.2 217.3C440.5 217.5 440.9 214.9 440.9 214.9C441.424 215.03 441.968 215.053 442.501 214.967C443.034 214.881 443.544 214.688 444 214.4C444.6 216.4 449.2 218.7 449.2 218.7H449.4L448.8 219.1C450.9 220.6 454.8 220.2 454.8 220.2C453.2 220.8 453.4 223.9 453.4 223.9C452.4 224.3 452.4 225.2 452.4 225.2C455.6 226.5 457.7 225.4 457.7 225.4C457.767 226.333 457.767 226.733 457.7 226.6C456.4 229.3 455.8 232 455.8 232H455.9V232.2C455.9 232.2 450.2 234.2 447.8 236.9C447.8 236.9 447.5 236.1 446.8 236.1C446.1 236.1 444 234.3 443 234C442 233.7 440.5 234.3 440 233.8C439.7 233.4 439.9 230.2 439.2 229.8L438.5 227.8C438.1 228.8 436.1 228.6 436.1 228.6L435.3 229.2L434.5 229.1C434.3 229.167 434.133 229.5 434 230.1L433.7 230.4V229.8C433.4 230.1 432.6 229.7 432.3 229.7C432.1 229.7 431.933 230 431.8 230.6L429.9 230.7C429.6 230.9 429.9 233.3 429.9 233.3C427.6 234.5 428.7 236.4 428.7 236.4C429.9 242.4 440.2 239.7 441 240.5C441.8 241.3 443.6 241.5 444.5 241.5C445.5 241.5 446.6 243.7 447.9 243.9C449.2 244.1 447.9 242.1 454 240.7C460.1 239.3 462.2 236.7 462.2 236.7C464.1 236.3 464.6 234 464.7 233.1L464.9 234.5C465.2 236.6 463.7 237.5 463.7 237.5L469 235.8C471.1 235.3 470.8 233.4 470.8 233.4C472.8 239.2 476.5 239.6 476.5 239.6C477.2 237.4 477.1 236.7 477.1 236.7H478.8C478.8 235.4 477.8 234.5 477.1 234.1L479.7 235.6L480.7 235.5C480.7 236.4 482 237.2 482 237.2L482.2 236C483.4 237.6 485.6 237 485.6 237L485.4 236.2C490.1 239.1 497.6 235.4 497.6 235.4C499.6 235.8 499.9 234.6 499.9 234.6C502.1 234.9 502.7 233.3 502.7 233.3C508 232.9 511.8 229.1 511.8 229.1C514.5 228.9 514.6 227 514.6 227C514.6 227 517.2 227.5 519.8 224.3C525.8 215.8 534.6 220.3 534.6 220.3L529.5 220.6C516 220.5 521.6 229.6 521.6 229.6H522.4C523.7 229.8 528.1 233.3 526.4 235.8V236C523.6 239.7 518.6 236.2 517.1 233C515.7 229.8 512.7 230.5 512.7 230.5C512.7 230.5 505.2 231.8 508.3 237.8C508.4 239.3 509.3 241 512.1 242.6C513.6 244.8 518.6 245 522.2 244.2C524 244 533 240 533 240C533.7 238 536 238.5 538 235.6C540 232.8 535.1 231.8 534 230.2C533 228.7 534.3 229 534.3 229C538.7 231.3 539.1 223.8 539.1 223.8C539.273 225.013 539.761 226.159 540.515 227.124C541.27 228.089 542.265 228.84 543.4 229.3C545.7 227 544 222.1 544 222.1C549.7 232.3 553.1 230.6 553.1 230.6C550.1 228.8 551.6 226.2 551.6 226.2C554.3 237 565.6 227.6 565.6 227.6C565 229.2 565.6 230.1 566.6 231.1C567.6 232.1 568.8 232.5 568.2 234.4C567.7 236.2 562.4 235.8 562.4 235.8C562.4 235.8 557.4 235.6 557.8 239.8C558.1 240.8 561.4 241.2 562.8 240.9C562.8 240.9 562.2 241.1 564.1 241.3H566.3C568.4 241.3 570.8 240.9 570.8 240.9C573.7 240.3 573.2 239.3 573.2 239.3C577.7 238.5 578.2 235.5 578.2 235.5L578 235.4Z" fill="#FFD100" stroke="black" style="fill:#FFD100;fill:color(display-p3 1.0000 0.8196 0.0000);fill-opacity:1;stroke:black;stroke-opacity:1;" stroke-width="0.8" stroke-miterlimit="3"/>
<path id="Vector_10" d="M429.6 216.7C429.6 216.7 429.9 216.2 430.3 216.1C430.7 216.1 431.1 216.367 431.5 216.9L431.8 216.7C431.8 216.7 430.6 214.9 431 213.7C431.267 213.033 431.8 212.667 432.6 212.6V212.3C431.6 212.5 431 212.933 430.8 213.6L430.6 214.3C430.6 214.967 430.767 215.533 431.1 216L430.3 215.8C430.126 215.821 429.96 215.887 429.82 215.993C429.679 216.098 429.569 216.238 429.5 216.4L429.6 216.7ZM570.6 240.7C567.6 241.2 563.1 241.4 562.7 240.5C562.7 240.3 562.7 239.7 565.1 238.1L564.9 237.6C562.833 238.933 561.933 239.933 562.2 240.6C562.9 242.4 569.4 241.4 570.7 241.2L570.6 240.7ZM512.2 242.4C511.533 241.333 511.867 239.9 513.2 238.1L512.7 237.8C511.367 239.8 511.033 241.467 511.7 242.8L512.2 242.4Z" fill="black" style="fill:black;fill-opacity:1;"/>
<path id="Vector_11" d="M508.1 237.8C508.1 239.733 509.4 241.433 512 242.9L512.3 242.4C509.9 240.933 508.7 239.4 508.7 237.8C508.5 235.3 511.2 233.3 511.3 233.3L511 232.9C510.8 232.9 508 235 508.1 237.9V237.8ZM560.1 238.5C559.3 239.8 559.6 241.3 559.6 241.3H560.1C560.1 241.2 559.9 239.9 560.6 238.8C560.836 238.476 561.135 238.204 561.479 237.998C561.822 237.791 562.203 237.656 562.6 237.6V237.1C561.467 237.3 560.667 237.767 560.2 238.5H560.1ZM441 215.1H440.8V215.3C440.8 215.3 440.6 216.9 439.8 217.3H439.2L437.9 216.6C437.767 216.4 437.5 216.333 437.1 216.4C436.796 216 436.653 215.5 436.7 215C436.767 214.333 437.3 213.667 438.3 213L438.1 212.7C437.1 213.367 436.533 214.133 436.4 215C436.4 216 436.9 216.6 436.9 216.6V216.7H437.1C437.3 216.633 437.5 216.7 437.7 216.9L439.1 217.7H440.1C440.8 217.2 441.1 215.8 441.1 215.5C444.3 216.2 446.9 212.2 447.1 212.1L446.8 211.9C446.8 211.9 444.1 215.9 441 215.1Z" fill="black" style="fill:black;fill-opacity:1;"/>
<path id="Vector_12" d="M433.1 214.5C432.996 215.193 433.137 215.9 433.5 216.5C433.833 217.033 434.167 217.333 434.5 217.4C434.967 217.4 435.367 217.2 435.7 216.8C435.9 216.6 436.1 216.467 436.3 216.4L436.6 216.6L436.8 216.4L436.3 216.1C435.967 216.1 435.7 216.267 435.5 216.6C435.3 216.933 434.967 217.1 434.5 217.1C434.3 217.1 434.033 216.833 433.7 216.3C433.526 216.057 433.409 215.778 433.357 215.484C433.305 215.19 433.32 214.888 433.4 214.6C433.8 213.2 435.5 212.1 435.5 212.1L435.4 211.8C435.3 211.8 433.5 213 433.1 214.5ZM428.7 235.2C428.833 234.667 429.267 234.2 430 233.8C429.8 233.8 430.6 234.4 431.3 234.4L431.8 234.1C432 234.3 433.2 235.4 433.2 236.8C433.2 237.133 433.133 237.433 433 237.7L433.3 237.8C434.2 235.7 431.9 233.8 431.9 233.8H431.7L431.3 234.1C430.7 234.1 430 233.5 430 233.5C429.067 233.9 428.533 234.433 428.4 235.1L428.7 235.2ZM439 229.8C438.3 229.9 436.5 230.2 435.9 231.2C435.633 231.6 435.6 232 435.8 232.4L436 233C436.6 234.6 437.2 236.2 437.9 236.6L438 236.3C437.4 236 436.8 234.3 436.3 232.9L436.1 232.3C436.012 232.148 435.966 231.975 435.966 231.8C435.966 231.624 436.012 231.452 436.1 231.3C436.6 230.6 438.3 230.3 439.1 230.2C439.5 230.2 439.6 231.7 439.7 232.6H440C439.9 231.2 439.7 229.8 439 229.8Z" fill="black" style="fill:black;fill-opacity:1;"/>
<path id="Vector_13" d="M433.9 231.4C433.633 231.8 433.533 232.1 433.6 232.3C433.6 232.4 433.8 236.3 435.6 237.1L435.7 236.8C434.1 236.1 433.9 232.3 433.9 232.2C433.9 232.067 433.967 231.867 434.1 231.6C434.367 231.333 434.9 231.333 435.7 231.6L435.8 231.3C434.933 231.033 434.3 231.033 433.9 231.3V231.4Z" fill="black" style="fill:black;fill-opacity:1;"/>
<path id="Vector_14" d="M432.4 231.7C431.6 232.3 431.7 233.9 431.7 234H432C432 234 432 232.4 432.6 232C432.867 231.8 433.2 231.8 433.6 232L433.7 231.6C433.167 231.4 432.733 231.4 432.4 231.6V231.7Z" fill="black" style="fill:black;fill-opacity:1;"/>
<g id="Group_4">
<path id="Vector_15" d="M476.409 210.194C476.409 210.194 477.273 212.188 477.273 213.717C477.273 213.983 477.207 214.205 477.074 214.382L476.741 213.518L476.542 214.183C476.542 214.183 476.143 215.114 476.741 216.111C477.539 217.441 479.534 218.261 482.725 218.571V218.637L482.459 218.704L482.326 218.837V219.103C482.415 219.369 482.814 219.48 483.523 219.435L483.988 219.502L484.387 219.635L484.321 219.568C485.03 219.568 485.828 219.746 486.714 220.1L486.049 220.233L486.781 220.566C486.847 220.566 492.565 222.893 494.892 224.754C494.227 225.353 491.368 227.414 486.448 226.217L485.65 226.017L486.182 226.682C486.182 226.682 489.44 230.405 490.105 232.666C488.975 232.666 484.653 232.666 483.124 231.336L482.791 231.669C482.791 231.669 484.786 234.727 485.318 237.054C484.653 237.187 483.323 237.254 482.459 236.123L482.06 235.658L481.861 236.988C481.462 236.655 480.93 236.256 480.93 235.724V235.458L479.733 235.658L477.207 234.129L476.808 233.863L476.542 234.328L476.941 234.528C477.473 234.927 478.403 235.658 478.47 236.722H476.874V237.054C476.874 237.254 476.874 237.985 476.276 239.514C475.544 239.381 472.752 238.384 471.09 233.663L470.558 233.796V233.929C470.558 234.395 470.425 235.458 468.962 235.857L464.641 237.187C464.999 236.633 465.184 235.985 465.173 235.325V234.794L465.04 233.065C464.995 232.09 465.306 231.425 465.97 231.07L465.705 230.538C465.638 230.538 459.322 233.131 456.197 232.068C456.33 231.403 456.862 229.275 457.926 227.015L457.793 227.148C457.992 227.015 458.192 226.749 457.992 225.685V225.353L457.66 225.486C457.66 225.486 455.665 226.416 452.74 225.353C452.74 225.042 453.006 224.732 453.538 224.422L453.737 224.355V223.823C453.737 223.026 453.804 221.164 454.934 220.765L454.801 220.233C454.801 220.233 451.41 220.499 449.349 219.369C450.239 218.729 451.261 218.297 452.341 218.106H452.54V217.84C452.532 217.313 452.419 216.793 452.208 216.31C453.006 216.576 453.936 216.776 454.269 216.51L454.402 216.443L454.269 214.382H453.737L453.804 216.111L451.809 215.646L451.011 215.38L451.543 216.044C451.865 216.513 452.028 217.072 452.008 217.64C450.804 217.907 449.67 218.428 448.684 219.169L448.352 219.435L448.684 219.635C450.28 220.699 452.74 220.831 454.003 220.765C453.423 221.654 453.122 222.696 453.139 223.757V224.023C452.871 224.173 452.642 224.384 452.469 224.637C452.296 224.891 452.184 225.181 452.141 225.486V225.685L452.274 225.751C453.923 226.51 455.795 226.629 457.527 226.084V226.682C456.197 229.475 455.532 232.201 455.532 232.201V232.467H455.732C458.325 233.53 462.846 232.134 464.907 231.403C464.641 231.846 464.486 232.4 464.441 233.065L464.641 235.325C464.641 236.855 463.643 237.453 463.577 237.453L463.776 237.985L469.095 236.389C470.292 236.057 470.757 235.325 470.957 234.727C473.018 239.647 476.276 240.046 476.475 240.112H476.675L476.741 239.913C477.093 239.064 477.317 238.168 477.406 237.254L479.002 237.187V236.855C479.002 236.411 478.913 236.012 478.736 235.658L479.667 236.19L480.531 236.057C480.73 236.921 481.794 237.652 481.927 237.719L482.26 237.918L482.459 236.788C483.789 237.918 485.584 237.586 485.717 237.586L485.916 237.519V237.254C485.65 235.458 484.454 233.331 483.722 232.201C486.049 233.264 490.304 233.198 490.504 233.198H490.77V232.865C489.894 230.666 488.633 228.639 487.047 226.882C492.498 227.879 495.424 225.02 495.557 224.887L495.756 224.688L495.49 224.555C493.1 222.848 490.51 221.442 487.778 220.366L488.376 220.233L487.711 219.901C486.516 219.296 485.195 218.977 483.855 218.97C483.19 218.172 482.858 218.106 482.791 218.039C479.068 217.64 477.738 216.643 477.207 215.845V215.646L477.34 215.446C477.65 215.003 477.805 214.427 477.805 213.717C477.805 211.989 476.941 210.061 476.941 209.994L476.409 210.194Z" fill="black" style="fill:black;fill-opacity:1;"/>
<path id="Vector_16" d="M459.455 209.13C459.455 209.13 459.056 211.124 457.327 212.122C455.998 212.831 454.313 212.764 452.274 211.922L452.008 211.856V212.122C452.157 212.977 452.634 213.741 453.338 214.249C454.225 214.914 455.532 215.18 457.261 215.047C456.662 215.712 454.867 217.973 454.867 220.233V220.566C455.133 220.698 457.926 221.496 459.255 219.834C459.255 220.499 459.521 222.826 460.386 223.69C460.873 224.267 461.095 224.865 461.051 225.485C461.006 226.062 460.962 226.372 460.918 226.416L460.785 226.815L461.117 226.549C461.25 226.483 463.843 224.555 464.641 222.095C464.641 222.095 465.106 221.43 465.904 221.23V221.563C465.904 222.56 466.303 224.289 469.095 225.353L469.295 225.419V224.754C469.295 224.023 469.295 222.76 470.026 222.095C470.304 221.81 470.49 221.45 470.561 221.059C470.632 220.668 470.585 220.265 470.425 219.901C471.023 220.034 472.353 220.499 472.885 221.496C473.683 222.959 476.409 221.762 476.542 221.762L476.475 221.43C476.475 221.43 475.279 221.696 474.547 221.23C474.391 221.113 474.262 220.963 474.17 220.791C474.078 220.619 474.025 220.428 474.015 220.233L473.882 218.637C473.882 217.973 473.727 217.485 473.417 217.175C473.749 217.175 474.481 217.175 474.747 217.84C475.279 218.903 476.941 218.97 477.007 218.97L477.606 219.036L477.14 218.704C477.14 218.704 475.677 217.773 475.943 216.51L476.143 215.579C476.542 213.917 477.207 211.191 476.608 209.462L476.342 209.595C476.475 210.039 476.542 210.526 476.542 211.058C476.542 212.521 476.076 214.382 475.877 215.513L475.611 216.443V216.776C475.7 217.662 475.988 218.261 476.475 218.571C476.01 218.504 475.345 218.239 475.146 217.707C474.68 216.776 473.616 216.776 473.151 216.842L472.752 216.909L473.018 217.175C473.461 217.396 473.639 217.906 473.55 218.704L473.683 220.233C473.772 220.765 473.993 221.164 474.348 221.43C474.791 221.651 475.168 221.762 475.478 221.762C474.68 221.962 473.55 222.095 473.151 221.363C472.42 219.901 470.292 219.568 470.226 219.502H469.893L470.026 219.768C470.026 219.768 470.292 220.167 470.292 220.698C470.292 221.053 470.137 221.43 469.827 221.829C469.095 222.56 468.962 223.956 468.962 224.688V224.954C466.569 223.956 466.17 222.494 466.17 221.629V220.964L466.303 220.765H466.037C465.695 220.845 465.371 220.991 465.086 221.197C464.801 221.402 464.559 221.662 464.375 221.962C463.714 223.587 462.636 225.009 461.25 226.084L461.316 225.419C461.361 224.798 461.139 224.156 460.652 223.491C459.654 222.56 459.521 219.502 459.521 219.502V218.97L459.255 219.435C458.192 221.297 455.133 220.366 455.067 220.366C454.934 218.039 457.726 214.981 457.726 214.914L457.992 214.648H457.593C455.82 214.87 454.446 214.648 453.471 213.983C452.956 213.55 452.586 212.97 452.407 212.321C454.402 213.075 456.086 213.097 457.46 212.388C458.046 212.052 458.552 211.592 458.942 211.041C459.332 210.49 459.598 209.861 459.721 209.196C461.715 204.808 463.378 204.077 463.378 204.077L463.311 203.811C463.178 203.811 461.449 204.476 459.455 209.13Z" fill="black" style="fill:black;fill-opacity:1;"/>
<path id="Vector_17" d="M463.909 202.548H463.776L462.181 204.742H462.646C467.607 205.133 472.26 207.305 475.744 210.859L475.943 211.058L477.473 209.396L477.34 209.196C473.018 202.415 463.976 202.548 463.843 202.548H463.909ZM464.042 203.146C465.106 203.146 472.819 203.346 476.808 209.329L475.943 210.26C472.436 206.927 467.924 204.846 463.112 204.343L464.042 203.146Z" fill="black" style="fill:black;fill-opacity:1;"/>
<path id="Vector_18" d="M462.646 207.069C461.931 208.005 461.452 209.099 461.25 210.26L461.316 210.526C460.844 211.004 460.481 211.578 460.251 212.209C460.022 212.84 459.931 213.513 459.987 214.183C459.987 215.069 460.12 215.911 460.386 216.709L460.585 217.175C461.383 219.435 462.114 221.43 465.771 220.233C469.228 219.169 469.361 218.903 470.226 217.441L470.492 217.108C470.957 216.31 471.489 216.177 472.021 215.978C472.686 215.778 473.35 215.579 474.015 214.382L474.547 213.518C475.212 212.654 476.01 211.523 476.076 210.194H475.81C475.606 211.346 475.102 212.424 474.348 213.318L473.683 214.249C473.52 214.605 473.281 214.921 472.982 215.174C472.683 215.427 472.332 215.61 471.954 215.712C471.6 215.783 471.264 215.927 470.967 216.132C470.669 216.338 470.417 216.602 470.226 216.909L469.96 217.308C469.162 218.704 469.029 218.903 465.638 219.967C462.247 221.031 461.649 219.369 460.851 217.042L460.652 216.576C459.721 214.05 460.452 211.523 461.715 210.593L462.114 210.26L461.516 210.327V210.26C461.516 209.795 461.981 208.531 462.846 207.268C463.644 206.204 465.505 205.207 465.505 205.141L465.372 204.875C465.239 204.941 463.444 206.005 462.646 207.069Z" fill="black" style="fill:black;fill-opacity:1;"/>
<path id="Vector_19" d="M461.051 216.31C461.627 216.665 462.447 216.665 463.511 216.31C463.511 216.643 463.511 217.441 464.175 217.973C464.973 218.637 466.192 218.77 467.832 218.371V218.039C466.236 218.438 465.084 218.327 464.375 217.707C464.163 217.501 464 217.252 463.897 216.976C463.793 216.7 463.752 216.405 463.776 216.111V215.845L463.577 215.978C462.602 216.421 461.804 216.421 461.184 215.978C460.186 215.313 460.253 213.518 460.253 213.518H459.987C459.987 213.518 459.854 215.513 461.051 216.31Z" fill="black" style="fill:black;fill-opacity:1;"/>
<path id="Vector_20" d="M462.912 213.85C462.558 214.028 462.38 214.271 462.38 214.582V214.781C462.513 215.579 463.378 216.111 464.109 216.31C464.84 216.51 465.838 216.576 466.17 216.111C466.347 215.934 466.347 215.557 466.17 214.981C465.884 214.419 465.393 213.989 464.8 213.779C464.206 213.569 463.554 213.594 462.979 213.85H462.912ZM464.242 216.044C463.577 215.845 462.779 215.38 462.713 214.715C462.713 214.715 462.646 214.249 463.045 214.116C463.559 213.908 464.132 213.902 464.65 214.099C465.168 214.297 465.593 214.683 465.838 215.18C466.015 215.49 466.037 215.712 465.904 215.845C465.705 216.177 464.973 216.244 464.242 216.044ZM463.976 217.84C463.776 219.502 463.976 219.568 464.042 219.568H464.175L464.308 219.502L465.239 218.172L464.042 217.64V217.84H463.976ZM464.308 218.105L464.774 218.305L464.242 219.036L464.308 218.105ZM461.516 216.51L461.449 218.039L462.779 216.443L461.449 216.31L461.516 216.51ZM461.782 216.643H462.181L461.782 217.175V216.643Z" fill="black" style="fill:black;fill-opacity:1;"/>
<path id="Vector_21" d="M460.585 215.978C460.585 215.978 461.582 217.906 461.782 218.637C461.915 219.081 462.358 219.457 463.112 219.768C463.865 220.078 464.463 220.056 464.907 219.701L465.771 218.97C465.993 218.66 466.214 218.549 466.436 218.637V218.305C466.081 218.305 465.793 218.438 465.572 218.704L464.707 219.369C464.175 219.768 463.577 219.635 463.245 219.502C462.535 219.236 462.136 218.903 462.048 218.504C461.848 217.84 460.918 215.911 460.851 215.845L460.585 215.978ZM461.915 210.26C461.165 210.655 460.594 211.321 460.319 212.122L460.585 212.188C460.585 212.188 461.051 210.991 461.981 210.526C462.233 210.416 462.505 210.36 462.779 210.36C463.054 210.36 463.325 210.416 463.577 210.526L463.643 210.26C463.023 209.994 462.425 209.994 461.848 210.26H461.915ZM469.095 213.717C469.228 213.717 471.223 215.313 470.093 217.175L470.292 217.374C471.622 215.18 469.295 213.451 469.295 213.385L469.095 213.717ZM462.979 213.983C462.979 213.983 462.646 215.114 464.308 215.513C464.308 215.513 462.779 215.513 462.646 215.114C462.58 214.715 462.646 213.85 462.979 213.983ZM467.965 215.313C467.965 215.446 467.899 215.513 467.766 215.513L467.566 215.38C467.566 215.247 467.633 215.18 467.766 215.18C467.899 215.18 467.965 215.247 467.965 215.38V215.313ZM468.098 216.111C468.098 216.2 468.054 216.244 467.965 216.244L467.766 216.111L467.965 215.911C468.054 215.911 468.098 215.978 468.098 216.111Z" fill="black" style="fill:black;fill-opacity:1;"/>
<path id="Vector_22" d="M466.901 215.911C467.011 215.911 467.101 215.822 467.101 215.712C467.101 215.602 467.011 215.513 466.901 215.513C466.791 215.513 466.702 215.602 466.702 215.712C466.702 215.822 466.791 215.911 466.901 215.911Z" fill="black" style="fill:black;fill-opacity:1;"/>
<path id="Vector_23" d="M467.433 216.776C467.433 216.829 467.412 216.879 467.375 216.917C467.337 216.954 467.287 216.975 467.234 216.975C467.181 216.975 467.13 216.954 467.093 216.917C467.055 216.879 467.034 216.829 467.034 216.776C467.034 216.687 467.101 216.643 467.234 216.643L467.433 216.776ZM462.713 211.922C462.713 211.975 462.692 212.026 462.654 212.063C462.617 212.101 462.566 212.122 462.513 212.122C462.46 212.122 462.41 212.101 462.372 212.063C462.335 212.026 462.314 211.975 462.314 211.922C462.332 211.895 462.357 211.872 462.386 211.857C462.415 211.841 462.447 211.833 462.48 211.833C462.513 211.833 462.545 211.841 462.574 211.857C462.603 211.872 462.628 211.895 462.646 211.922H462.713Z" fill="black" style="fill:black;fill-opacity:1;"/>
<path id="Vector_24" d="M462.646 212.853C462.756 212.853 462.846 212.764 462.846 212.654C462.846 212.544 462.756 212.454 462.646 212.454C462.536 212.454 462.447 212.544 462.447 212.654C462.447 212.764 462.536 212.853 462.646 212.853Z" fill="black" style="fill:black;fill-opacity:1;"/>
<path id="Vector_25" d="M461.649 212.521C461.759 212.521 461.848 212.431 461.848 212.321C461.848 212.211 461.759 212.122 461.649 212.122C461.539 212.122 461.449 212.211 461.449 212.321C461.449 212.431 461.539 212.521 461.649 212.521Z" fill="black" style="fill:black;fill-opacity:1;"/>
<path id="Vector_26" d="M462.114 213.385L461.981 213.585C461.928 213.585 461.878 213.564 461.84 213.526C461.803 213.489 461.782 213.438 461.782 213.385C461.782 213.332 461.803 213.281 461.84 213.244C461.878 213.207 461.928 213.186 461.981 213.186L462.114 213.385ZM465.306 207.002C465.306 207.002 467.633 208.465 465.372 211.191C465.372 211.191 466.502 210.327 466.569 208.931C466.635 207.534 465.771 206.404 465.239 207.002H465.306ZM474.281 210.925C473.483 211.324 472.42 210.593 471.888 209.928C471.356 209.263 470.226 209.063 469.494 210.327C468.829 211.523 467.832 211.989 467.832 211.989C467.832 211.989 468.829 211.457 469.827 210.327C470.824 209.196 471.422 210.127 472.42 210.659C473.35 211.191 473.55 211.324 474.215 210.992V210.925H474.281Z" fill="black" style="fill:black;fill-opacity:1;"/>
<path id="Vector_27" d="M474.082 211.125C473.858 211.258 473.6 211.323 473.34 211.311C473.08 211.299 472.83 211.211 472.619 211.058C471.954 210.526 471.489 209.861 470.757 210.26C469.96 210.659 468.563 211.723 468.563 211.723C468.563 211.723 470.89 210.127 471.356 210.526C471.755 210.859 472.819 211.723 473.417 211.457L474.082 211.125Z" fill="black" style="fill:black;fill-opacity:1;"/>
<path id="Vector_28" d="M472.287 212.055C471.555 211.523 470.824 212.72 470.226 212.587C469.561 212.454 469.095 211.39 469.095 211.39C469.095 211.39 469.627 212.454 470.425 212.255C471.289 211.989 471.821 211.457 472.353 211.856C472.885 212.255 472.287 212.055 472.287 212.055Z" fill="black" style="fill:black;fill-opacity:1;"/>
<path id="Vector_29" d="M471.156 212.255C470.966 212.294 470.77 212.291 470.582 212.246C470.393 212.201 470.216 212.115 470.064 211.995C469.912 211.874 469.789 211.722 469.702 211.549C469.615 211.376 469.566 211.185 469.561 210.992C469.561 210.992 470.026 212.188 471.289 211.989L471.156 212.255Z" fill="black" style="fill:black;fill-opacity:1;"/>
<path id="Vector_30" d="M471.09 211.324C471.223 211.679 471.112 211.856 470.757 211.856C470.27 211.856 470.048 211.679 470.093 211.324C470.093 210.992 471.023 211.058 471.09 211.324ZM465.904 209.329C465.864 209.428 465.801 209.516 465.72 209.586C465.639 209.655 465.542 209.704 465.439 209.728C465.173 209.728 465.062 209.595 465.106 209.329C465.173 208.93 465.106 208.864 465.439 208.864C465.771 208.864 465.904 209.063 465.904 209.329Z" fill="black" style="fill:black;fill-opacity:1;"/>
<path id="Vector_31" d="M464.242 207.667C464.242 207.667 466.768 207.667 465.572 210.792C465.572 210.792 466.502 209.263 465.904 208.133C465.239 207.069 464.375 207.335 464.375 207.335C464.375 207.335 464.109 207.534 464.242 207.667Z" fill="black" style="fill:black;fill-opacity:1;"/>
<path id="Vector_32" d="M464.242 208.93C464.242 209.551 464.641 210.194 465.439 210.859L465.638 210.593C464.885 210.016 464.508 209.462 464.508 208.93C464.508 208.133 464.907 208.066 464.907 208.066L464.707 207.867C464.707 207.867 464.242 208.266 464.175 208.93H464.242Z" fill="black" style="fill:black;fill-opacity:1;"/>
<path id="Vector_33" d="M464.774 209.462C464.862 209.817 465.128 210.083 465.572 210.26L465.705 209.994C465.35 209.861 465.128 209.64 465.04 209.329C464.907 208.797 465.306 208.199 465.306 208.199L465.04 208C465.04 208 464.574 208.797 464.774 209.462ZM468.165 211.191C468.165 211.191 468.63 212.188 467.965 213.252L467.3 214.316C467.3 214.316 468.098 212.787 467.766 212.188C467.433 211.59 468.165 211.191 468.165 211.191ZM477.871 221.696C480.398 222.161 486.182 226.682 486.182 226.682L486.515 226.283C486.315 226.084 480.597 221.629 477.938 221.164L477.871 221.696ZM480.132 228.012C480.265 230.339 482.791 231.735 482.791 231.802L483.124 231.336C483.124 231.336 480.797 230.007 480.664 228.012H480.132ZM473.949 228.544C473.949 231.07 476.342 234.129 476.475 234.262L476.874 233.929C476.874 233.929 474.481 230.871 474.481 228.544H473.949ZM465.904 228.81C466.259 229.652 466.347 230.139 466.17 230.272C465.948 230.494 465.815 230.583 465.771 230.538L465.838 231.07C466.103 231.07 466.369 230.893 466.635 230.538C466.901 230.095 466.813 229.43 466.369 228.544L465.904 228.81Z" fill="black" style="fill:black;fill-opacity:1;"/>
</g>
<g id="Group_5">
<path id="Vector_34" d="M429.6 216.3C429.6 216.3 429.7 218 431 219C431 219 430.9 217.2 431.3 216.4C431.3 216.4 430.6 215.6 429.6 216.3ZM432.2 217.3C432.2 217.3 432.5 218.9 433.4 219.6L434 219.5C434 219.5 434.2 217.5 434.5 217.3C434.8 217.1 433.2 218 432.2 217.3Z" fill="white" stroke="black" style="fill:white;fill-opacity:1;stroke:black;stroke-opacity:1;" stroke-width="0.2" stroke-miterlimit="3"/>
<g id="Vector_35">
<path d="M434.5 217.3L435.5 218.9L436.7 218.2L436.5 216.4C436.5 216.4 435.8 216.2 434.5 217.3ZM439.2 217.6L437.9 218.7C437.9 218.7 437.2 218.2 436.7 218.2L436.9 216.5C436.9 216.5 437.9 215.8 439.2 217.6ZM429.9 233.6C429.9 233.6 429.7 231.2 429.9 231.1C429.9 231.1 430.9 231.4 431.3 231.1C431.3 231.1 431.8 232.9 431.7 233.7C431.5 234.5 430.6 234.2 429.9 233.7V233.6ZM435.9 231.2C435.9 231.2 435.8 229.2 436.1 228.9C436.1 228.9 438.1 229.2 438.5 228.1L439.2 230.1C439.2 230.1 437.1 229.8 435.8 231.1L435.9 231.2Z" fill="white" style="fill:white;fill-opacity:1;"/>
<path d="M436.7 218.2L435.5 218.9L434.5 217.3C435.8 216.2 436.5 216.4 436.5 216.4L436.7 218.2ZM436.7 218.2C437.2 218.2 437.9 218.7 437.9 218.7L439.2 217.6C437.9 215.8 436.9 216.5 436.9 216.5L436.7 218.2ZM429.9 233.6C429.9 233.6 429.7 231.2 429.9 231.1C429.9 231.1 430.9 231.4 431.3 231.1C431.3 231.1 431.8 232.9 431.7 233.7C431.5 234.5 430.6 234.2 429.9 233.7V233.6ZM435.9 231.2C435.9 231.2 435.8 229.2 436.1 228.9C436.1 228.9 438.1 229.2 438.5 228.1L439.2 230.1C439.2 230.1 437.1 229.8 435.8 231.1L435.9 231.2Z" stroke="black" style="stroke:black;stroke-opacity:1;" stroke-width="0.2" stroke-miterlimit="3"/>
</g>
<path id="Vector_36" d="M433.8 231.6C433.8 231.6 434.1 229.5 434.5 229.4C434.5 229.4 435.5 229.7 435.8 229.3V231.9C435.8 231.9 435.8 230.8 433.8 231.6ZM431.5 231.9C431.5 231.9 432 230 432.3 230C432.6 230 433.3 230.5 433.7 230.2V231.6C433.7 231.6 432.1 231.2 431.8 233.5L431.5 231.9Z" fill="white" stroke="black" style="fill:white;fill-opacity:1;stroke:black;stroke-opacity:1;" stroke-width="0.2" stroke-miterlimit="3"/>
</g>
</g>
<g id="Group_6">
<path id="Vector_37" d="M461.7 270.4C461.7 270.4 466.9 275.3 465.6 279.6C465.6 279.6 468.9 272.3 465.3 270.1C461.7 268.1 461.6 269.6 461.7 270.4Z" fill="#00A651" stroke="black" style="fill:#00A651;fill:color(display-p3 0.0000 0.6510 0.3176);fill-opacity:1;stroke:black;stroke-opacity:1;" stroke-width="0.5" stroke-miterlimit="4.8"/>
<path id="Vector_38" d="M455 275.1C455 275.1 453.7 277.1 455.2 278.4C455.2 278.4 453.5 280.8 454.8 282.8C454.8 282.8 453.8 284.9 454 287.2C454 287.2 453.2 290.7 455 292.3C455 292.3 457 293.3 458 292.4C458 292.4 459.7 289.8 458.6 287.1C458.6 287.1 459.8 284.8 458.4 281.9C458.4 281.9 458.8 280.3 457.7 278.4C457.7 278.4 458.4 277.2 457.8 276.2C457.8 276.2 455.3 273.5 455 275.2V275.1Z" fill="#964B36" stroke="black" style="fill:#964B36;fill:color(display-p3 0.5882 0.2941 0.2118);fill-opacity:1;stroke:black;stroke-opacity:1;" stroke-width="0.5" stroke-miterlimit="4.8"/>
<path id="Vector_39" d="M456.5 269C456.5 269 450.3 257 445.9 256.5C441.5 256 441.3 251.7 441.3 251.7C441.3 251.7 441.8 253.7 445.3 253.7C448.8 253.7 455.5 258.7 456.3 262.4C457 266.1 457.8 265.6 457.8 265.6L456.5 269Z" fill="#00A651" stroke="black" style="fill:#00A651;fill:color(display-p3 0.0000 0.6510 0.3176);fill-opacity:1;stroke:black;stroke-opacity:1;" stroke-width="0.5" stroke-miterlimit="4.8"/>
<path id="Vector_40" d="M456.5 268.1C456.5 268.1 458.8 253 468.7 252.7C478.6 252.5 475.3 253.5 477.7 251.9C477.7 251.9 471.1 255.3 467 255.9C462.8 256.3 459.4 264.4 459.6 265.9C459.6 267.4 457.3 270.3 456.2 269.3C455.1 268.3 456.5 268.1 456.5 268.1Z" fill="#00A651" stroke="black" style="fill:#00A651;fill:color(display-p3 0.0000 0.6510 0.3176);fill-opacity:1;stroke:black;stroke-opacity:1;" stroke-width="0.5" stroke-miterlimit="4.8"/>
<path id="Vector_41" d="M458.8 273.8C458.8 273.8 461.1 267.8 464.9 269.8C464.9 269.8 461.9 264 456.5 269C456.5 269 458.9 272.3 458.8 273.8ZM451.3 267.8C451.3 267.8 454.5 281.2 449.5 285.3C449.5 285.3 449.7 278.4 446.6 274.3C443.6 270.1 449.6 265.6 451.3 267.8Z" fill="#00A651" stroke="black" style="fill:#00A651;fill:color(display-p3 0.0000 0.6510 0.3176);fill-opacity:1;stroke:black;stroke-opacity:1;" stroke-width="0.5" stroke-miterlimit="4.8"/>
<path id="Vector_42" d="M451.7 270.1C451.7 270.1 457.6 275.8 457.9 277.7C458.3 279.5 459.7 272 456.9 269.9C454.1 267.8 451.2 267.4 451.2 267.4L451.7 270.2V270.1Z" fill="#00A651" stroke="black" style="fill:#00A651;fill:color(display-p3 0.0000 0.6510 0.3176);fill-opacity:1;stroke:black;stroke-opacity:1;" stroke-width="0.5" stroke-miterlimit="4.8"/>
<path id="Vector_43" d="M440.8 285C440.8 285 441.3 287.3 442.8 287.8C442.8 287.8 442.8 289.5 444.2 290C444.2 290 443.5 291.5 444.6 292.4C444.6 292.4 444.4 295.4 445.4 295.9C445.4 295.9 448.1 295.8 449 295C449 295 449.5 293.1 448 291.2C448 291.2 448.3 289.4 446.8 288.4C446.8 288.4 447.3 285.9 445.4 285C445.4 285 445.1 283 444 282C444 282 441.8 285.1 440.8 285Z" fill="#964B36" stroke="black" style="fill:#964B36;fill:color(display-p3 0.5882 0.2941 0.2118);fill-opacity:1;stroke:black;stroke-opacity:1;" stroke-width="0.5" stroke-miterlimit="4.8"/>
<path id="Vector_44" d="M443.7 282C443.7 282 436 279.2 431.7 283.2C431.7 283.2 438.3 284.2 439.1 285.5C439.9 286.8 444 283.3 443.7 282Z" fill="#00A651" stroke="black" style="fill:#00A651;fill:color(display-p3 0.0000 0.6510 0.3176);fill-opacity:1;stroke:black;stroke-opacity:1;" stroke-width="0.5" stroke-miterlimit="4.8"/>
<path id="Vector_45" d="M441.3 286.8L439.9 285.8C439.2 285.2 432.7 283.5 431.8 289.8C431.8 289.8 429.4 283.5 432.8 282.8C436.3 281.8 439 283.8 441.3 286.8ZM436.3 274C436.3 274 438.6 279.2 439.5 279.4C440.4 279.6 441 278.8 441 278.8C441 278.8 437.9 274.2 436.2 274H436.3ZM434.5 266.1C434.5 266.1 432.5 259.5 430.1 261.3C427.7 263.1 428.3 267.8 428.3 267.8C428.3 267.8 423.6 262.8 426.3 259C429 255.2 434.5 259.4 434.5 266.1Z" fill="#00A651" stroke="black" style="fill:#00A651;fill:color(display-p3 0.0000 0.6510 0.3176);fill-opacity:1;stroke:black;stroke-opacity:1;" stroke-width="0.5" stroke-miterlimit="4.8"/>
<path id="Vector_46" d="M439.9 279.8C439.9 279.8 439.9 281.1 440.8 281.4C441.7 281.7 443.3 282.4 443.3 281.7C443.3 281 442 278 441.5 278.4C441 278.8 440.1 278.8 439.9 279.8Z" fill="#964B36" stroke="black" style="fill:#964B36;fill:color(display-p3 0.5882 0.2941 0.2118);fill-opacity:1;stroke:black;stroke-opacity:1;" stroke-width="0.5" stroke-miterlimit="4.8"/>
<g id="Vector_47">
<path d="M438.4 272C438.4 272 438.1 266.3 441.9 264.1C441.9 264.1 442.6 264.3 443 263.1C443 263.1 440 270.4 440.9 274.1L440.8 274.5" fill="#00A651" style="fill:#00A651;fill:color(display-p3 0.0000 0.6510 0.3176);fill-opacity:1;"/>
<path d="M438.4 272C438.4 272 438.1 266.3 441.9 264.1C441.9 264.1 442.6 264.3 443 263.1C443 263.1 440 270.4 440.9 274.1L440.8 274.5" stroke="black" style="stroke:black;stroke-opacity:1;" stroke-width="0.5" stroke-miterlimit="4.8"/>
</g>
<path id="Vector_48" d="M439.1 265C439.1 265 445.9 251 454.1 255.9C454.1 255.9 445.5 257.6 442.4 263.8L439.3 268.4L439.1 265Z" fill="#00A651" stroke="black" style="fill:#00A651;fill:color(display-p3 0.0000 0.6510 0.3176);fill-opacity:1;stroke:black;stroke-opacity:1;" stroke-width="0.5" stroke-miterlimit="4.8"/>
<g id="Vector_49">
<path d="M435.5 270.1C435.5 270.1 433.5 260.7 432.2 259.5C431 258.2 428.9 256.9 426.3 259C426.3 259 430.7 255.1 435.3 258.4C440 261.6 439 266.8 439 266.8L438.5 273.3L435.4 270.4" fill="#00A651" style="fill:#00A651;fill:color(display-p3 0.0000 0.6510 0.3176);fill-opacity:1;"/>
<path d="M435.5 270.1C435.5 270.1 433.5 260.7 432.2 259.5C431 258.2 428.9 256.9 426.3 259C426.3 259 430.7 255.1 435.3 258.4C440 261.6 439 266.8 439 266.8L438.5 273.3L435.4 270.4" stroke="black" style="stroke:black;stroke-opacity:1;" stroke-width="0.5" stroke-miterlimit="4.8"/>
</g>
<path id="Vector_50" d="M442.8 281.3C442.8 281.3 434.5 265.6 429.1 276.8C429.1 276.8 428.1 279.7 429.2 280.8C429.2 280.8 426.2 278.5 427.6 273C429 267.5 438.1 270 440.8 274.5C443.5 279 444.1 281.3 443.8 281.5C443.4 281.8 442.8 281.3 442.8 281.3ZM466.1 285.8C466.1 285.8 472.1 273.4 475.6 279C475.6 279 476.6 281.8 475.1 283C475.1 283 472.7 280 470.6 283.6C468.4 287.1 469.3 286.8 469.3 286.8C469.3 286.8 467.1 287.4 466.1 285.8Z" fill="#00A651" stroke="black" style="fill:#00A651;fill:color(display-p3 0.0000 0.6510 0.3176);fill-opacity:1;stroke:black;stroke-opacity:1;" stroke-width="0.5" stroke-miterlimit="4.8"/>
<path id="Vector_51" d="M475 283C475 283 478.3 284.7 477.2 288.2C477.2 288.2 481.6 279.8 475.6 279C475.6 279 476.7 281.7 475.1 283H475ZM475.5 274.4C475.5 274.4 483.4 276.7 483.6 280.1C483.6 280.1 485 273.5 480.5 271.5C480.5 271.5 475.1 272.5 475.5 274.5V274.4Z" fill="#00A651" stroke="black" style="fill:#00A651;fill:color(display-p3 0.0000 0.6510 0.3176);fill-opacity:1;stroke:black;stroke-opacity:1;" stroke-width="0.5" stroke-miterlimit="4.8"/>
<g id="Vector_52">
<path d="M479 264C482.4 257.4 486.6 266.1 486.6 266.1C486.6 266.1 488.1 259.2 483.9 258C479.6 256.7 476.9 272.7 476.9 272.7L471.9 273.7C471.9 273.7 473.2 259.9 480.7 258.7H481.7" fill="#00A651" style="fill:#00A651;fill:color(display-p3 0.0000 0.6510 0.3176);fill-opacity:1;"/>
<path d="M479 264C482.4 257.4 486.6 266.1 486.6 266.1C486.6 266.1 488.1 259.2 483.9 258C479.6 256.7 476.9 272.7 476.9 272.7L471.9 273.7C471.9 273.7 473.2 259.9 480.7 258.7H481.7" stroke="black" style="stroke:black;stroke-opacity:1;" stroke-width="0.5" stroke-miterlimit="4.8"/>
</g>
<path id="Vector_53" d="M473 268C473 268 468.2 258.2 465 257.2C461.8 256.2 466.7 254.7 468.7 256.6C470.7 258.5 474.5 260.9 474.1 265.9L473 268ZM468 281.4C468 281.4 469.4 274.8 473.2 272.8C477 270.8 480.5 271.5 480.5 271.5C480.5 271.5 476 272.5 475.2 274.8C474.4 277.1 473.2 277.2 473.2 277.2L468 281.4Z" fill="#00A651" stroke="black" style="fill:#00A651;fill:color(display-p3 0.0000 0.6510 0.3176);fill-opacity:1;stroke:black;stroke-opacity:1;" stroke-width="0.5" stroke-miterlimit="4.8"/>
<path id="Vector_54" d="M466 285.8C466 285.8 464 289.8 464.4 290.4C464.4 290.4 462.2 293.7 463.1 295.4C463.1 295.4 465.3 297.1 466.3 296.4C466.3 296.4 468.9 292.7 468.2 290.7C468.2 290.7 470 288.3 469.3 286.8C469.3 286.8 466.7 286.9 466.1 285.8H466Z" fill="#964B36" stroke="black" style="fill:#964B36;fill:color(display-p3 0.5882 0.2941 0.2118);fill-opacity:1;stroke:black;stroke-opacity:1;" stroke-width="0.5" stroke-miterlimit="4.8"/>
<path id="Vector_55" d="M455 278.6C455.2 278.7 456.5 279.3 457.3 279L457.9 278.5L457.4 278.3C457.1 278.9 455.7 278.4 455.3 278.2L455.1 278.6H455ZM454.9 282.6L454.7 283.1C454.8 283.1 457.4 283.6 458.6 282.5L458.2 282.1C457.2 283 454.9 282.5 454.8 282.5L454.9 282.6ZM454.2 287L453.9 287.4C453.9 287.4 456.9 289.5 458.8 287.2L458.3 286.9C456.8 288.8 454.3 287.1 454.2 286.9V287ZM442.7 287.6L442.8 287.9C442.9 287.9 445.4 286.9 445.6 285H445.3C445.2 286.6 442.8 287.6 442.7 287.6ZM444.1 289.9V290.2C444.3 290.2 446.6 290 447 288.4H446.7C446.3 289.7 444.2 289.9 444.1 289.9ZM444.6 292.3V292.6C444.7 292.6 447.3 292.7 448.2 291.3L447.9 291.1C447.1 292.4 444.6 292.3 444.6 292.3ZM464.3 290.6C464.3 290.6 465.4 291.8 466.7 291.7C467.027 291.716 467.353 291.651 467.65 291.512C467.946 291.372 468.204 291.162 468.4 290.9L468 290.5C467.6 290.967 467.167 291.2 466.7 291.2C465.7 291.2 464.7 290.2 464.7 290.2L464.3 290.6Z" fill="#000001" style="fill:#000001;fill:color(display-p3 0.0000 0.0000 0.0039);fill-opacity:1;"/>
</g>
<g id="Group_7">
<g id="Vector_56">
<path d="M542 299.8L541.7 300.1L542.1 299.8H542ZM551.3 297.5C551.167 297.367 551.067 297.3 551 297.3L550.6 296.5H550.3L549.6 295.1V294.4C549.6 294.4 549.4 294.4 549.3 294.2V292.6L549.2 292.1L548.9 291V290C548.9 289.667 548.867 289.333 548.8 289L548.9 288.1V282.7L548.8 281.7L548.7 281.3V279.7V282.3L548.5 278L545.1 276.4C545.1 276.4 544.8 282.6 544.9 283.4C544.9 284.3 545.3 290.1 545.1 290.8L544.6 295.1C544.6 295.1 543 296.3 542.4 297.5C541.7 298.8 541.9 299.2 541.7 299.2L543.2 299L542.1 299.8L542.8 299.9L543 300.1L543.2 299.9C543.5 299.9 543.7 300.3 543.9 300.2L544.3 300L544.5 299.6C544.633 299.6 544.767 299.6 544.9 299.6H545.6C545.933 299.467 546.233 299.233 546.5 298.9C546.7 298.7 546.933 298.6 547.2 298.6C547.467 298.667 547.8 298.767 548.2 298.9C548.4 298.9 548.567 298.833 548.7 298.7L549.1 298.1L549.9 298L550.3 298.1H550.9L551.2 298.3L551.4 297.9L551.3 297.5Z" fill="#964B36" style="fill:#964B36;fill:color(display-p3 0.5882 0.2941 0.2118);fill-opacity:1;"/>
<path d="M542.1 299.8L541.7 300.1L542 299.8H542.1ZM542.1 299.8L543.2 299L541.7 299.2C541.9 299.2 541.7 298.8 542.4 297.5C543 296.3 544.6 295.1 544.6 295.1L545.1 290.8C545.3 290.1 544.9 284.3 544.9 283.4C544.8 282.6 545.1 276.4 545.1 276.4L548.5 278L548.7 282.3V279.7V281.3L548.8 281.7L548.9 282.7V288.1L548.8 289C548.867 289.333 548.9 289.667 548.9 290V291L549.2 292.1L549.3 292.6V294.2C549.4 294.4 549.6 294.4 549.6 294.4V295.1L550.3 296.5H550.6L551 297.3C551.067 297.3 551.167 297.367 551.3 297.5L551.4 297.9L551.2 298.3L550.9 298.1H550.3L549.9 298L549.1 298.1L548.7 298.7C548.567 298.833 548.4 298.9 548.2 298.9C547.8 298.767 547.467 298.667 547.2 298.6C546.933 298.6 546.7 298.7 546.5 298.9C546.233 299.233 545.933 299.467 545.6 299.6H544.9C544.767 299.6 544.633 299.6 544.5 299.6L544.3 300L543.9 300.2C543.7 300.3 543.5 299.9 543.2 299.9L543 300.1L542.8 299.9L542.1 299.8Z" stroke="black" style="stroke:black;stroke-opacity:1;" stroke-width="0.3" stroke-miterlimit="4.8"/>
</g>
<g id="Vector_57">
<path d="M544.5 299.7H545.1V299.9H545.3L545.6 300.1H545.9L546.3 300.2C546.5 300.267 546.7 300.233 546.9 300.1C547.1 299.967 547.3 300.033 547.5 300.3C547.567 300.433 547.633 300.433 547.7 300.3L547.8 300.2L548.1 300.1L548.4 300L548.8 299.8L549.2 300H549.4L550.1 299.5C550.367 299.433 550.6 299.433 550.8 299.5H551.1C551.167 299.5 551.3 299.5 551.5 299.5C551.5 299.433 551.567 299.333 551.7 299.2L552.4 299.6C552.5 299.7 553.1 299.8 553 299.4C552.9 299 552.6 299.3 552.5 299V298.4L552.2 298C552.067 298 551.933 298 551.8 298L551.6 297.4L551.3 297.6C551.167 297.6 551.067 297.5 551 297.3C550.7 297 550.6 297.5 550.3 297.4C550.1 297.267 549.933 297.033 549.8 296.7C549.667 296.367 549.5 296.233 549.3 296.3C549.167 296.5 549.167 296.733 549.3 297H548.8C548.667 297 548.567 297.067 548.5 297.2C548.367 297.667 548.133 297.867 547.8 297.8C547.667 297.8 547.533 297.8 547.4 297.8L546.9 298H546.5L546.1 297.6C546.1 297.573 546.089 297.548 546.071 297.529C546.052 297.51 546.027 297.5 546 297.5C545.973 297.5 545.948 297.51 545.929 297.529C545.911 297.548 545.9 297.573 545.9 297.6L545.8 297.4C545.667 297.4 545.567 297.5 545.5 297.7L545.4 298.2L545.1 298.6L544.7 298.7C544.5 298.7 544.3 299 544.3 298.7C544.1 298.3 544.6 297.6 544.1 297.7C544.033 297.7 543.933 297.767 543.8 297.9V298.6C543.7 298.9 543.1 299.4 543.2 299.6C543.2 299.9 543.6 299.6 543.6 299.6L543.8 300C544 300.3 544.5 299.6 544.5 300M542.4 297.3V297.1L542 297C541.8 297.067 541.633 297.2 541.5 297.4C541.3 297.8 541.3 298.4 540.9 298.4H540.4V299.4C540.4 299.4 540.2 299.4 540.2 299.6C540.2 299.867 540.333 299.933 540.6 299.8H541.6L542.1 299.7C542.3 299.7 542.467 299.633 542.6 299.5L542.8 299.1V298.7C542.867 298.633 542.967 298.5 543.1 298.3C543.2 297.6 542.5 298.1 542.6 297.4" fill="#964B36" style="fill:#964B36;fill:color(display-p3 0.5882 0.2941 0.2118);fill-opacity:1;"/>
<path d="M544.5 299.7H545.1V299.9H545.3L545.6 300.1H545.9L546.3 300.2C546.5 300.267 546.7 300.233 546.9 300.1C547.1 299.967 547.3 300.033 547.5 300.3C547.567 300.433 547.633 300.433 547.7 300.3L547.8 300.2L548.1 300.1L548.4 300L548.8 299.8L549.2 300H549.4L550.1 299.5C550.367 299.433 550.6 299.433 550.8 299.5H551.1C551.167 299.5 551.3 299.5 551.5 299.5C551.5 299.433 551.567 299.333 551.7 299.2L552.4 299.6C552.5 299.7 553.1 299.8 553 299.4C552.9 299 552.6 299.3 552.5 299V298.4L552.2 298C552.067 298 551.933 298 551.8 298L551.6 297.4L551.3 297.6C551.167 297.6 551.067 297.5 551 297.3C550.7 297 550.6 297.5 550.3 297.4C550.1 297.267 549.933 297.033 549.8 296.7C549.667 296.367 549.5 296.233 549.3 296.3C549.167 296.5 549.167 296.733 549.3 297H548.8C548.667 297 548.567 297.067 548.5 297.2C548.367 297.667 548.133 297.867 547.8 297.8C547.667 297.8 547.533 297.8 547.4 297.8L546.9 298H546.5L546.1 297.6C546.1 297.573 546.089 297.548 546.071 297.529C546.052 297.51 546.027 297.5 546 297.5C545.973 297.5 545.948 297.51 545.929 297.529C545.911 297.548 545.9 297.573 545.9 297.6L545.8 297.4C545.667 297.4 545.567 297.5 545.5 297.7L545.4 298.2L545.1 298.6L544.7 298.7C544.5 298.7 544.3 299 544.3 298.7C544.1 298.3 544.6 297.6 544.1 297.7C544.033 297.7 543.933 297.767 543.8 297.9V298.6C543.7 298.9 543.1 299.4 543.2 299.6C543.2 299.9 543.6 299.6 543.6 299.6L543.8 300C544 300.3 544.5 299.6 544.5 300M542.4 297.3V297.1L542 297C541.8 297.067 541.633 297.2 541.5 297.4C541.3 297.8 541.3 298.4 540.9 298.4H540.4V299.4C540.4 299.4 540.2 299.4 540.2 299.6C540.2 299.867 540.333 299.933 540.6 299.8H541.6L542.1 299.7C542.3 299.7 542.467 299.633 542.6 299.5L542.8 299.1V298.7C542.867 298.633 542.967 298.5 543.1 298.3C543.2 297.6 542.5 298.1 542.6 297.4" stroke="black" style="stroke:black;stroke-opacity:1;" stroke-width="0.3" stroke-miterlimit="4.8"/>
</g>
</g>
<g id="Group_8">
<path id="Vector_58" d="M550.8 277.9C550.733 278.9 550.267 279.433 549.4 279.5C548.6 279.433 548.133 278.9 548 277.9C548.133 276.9 548.6 276.367 549.4 276.3C550.267 276.367 550.733 276.9 550.8 277.9ZM546.3 275.9C546.233 276.9 545.767 277.433 544.9 277.5C543.6 277.6 543.5 276.8 543.5 275.9C543.633 274.833 544.1 274.3 544.9 274.3C546.1 274.3 546.3 275 546.3 275.9Z" fill="black" stroke="black" style="fill:black;fill-opacity:1;stroke:black;stroke-opacity:1;" stroke-width="0.5" stroke-miterlimit="4.8"/>
<path id="Vector_59" d="M548.7 276.5C548.633 277.567 548.167 278.1 547.3 278.1C546.433 278.033 545.967 277.5 545.9 276.5C545.967 275.5 546.433 274.967 547.3 274.9C548.167 274.967 548.633 275.5 548.7 276.5Z" fill="black" stroke="black" style="fill:black;fill-opacity:1;stroke:black;stroke-opacity:1;" stroke-width="0.5" stroke-miterlimit="4.8"/>
<path id="Vector_60" d="M546.4 278C546.333 279 545.867 279.533 545 279.6C544.133 279.533 543.667 279 543.6 278C543.667 277 544.133 276.467 545 276.4C545.867 276.467 546.333 277 546.4 278Z" fill="black" stroke="black" style="fill:black;fill-opacity:1;stroke:black;stroke-opacity:1;" stroke-width="0.5" stroke-miterlimit="4.8"/>
<path id="Vector_61" d="M548.5 279.3C548.433 280.233 547.967 280.767 547.1 280.9C546.3 280.833 545.833 280.3 545.7 279.3C545.833 278.233 546.3 277.667 547.1 277.6C547.967 277.667 548.433 278.2 548.5 279.2V279.3Z" fill="black" stroke="black" style="fill:black;fill-opacity:1;stroke:black;stroke-opacity:1;" stroke-width="0.5" stroke-miterlimit="4.8"/>
</g>
<path id="Vector_62" d="M549.2 261.5C549.2 261.5 563.1 242.1 578 262.2C578 262.2 578.1 264.2 576.7 266.4L576.4 264.7L575.4 265L575.2 264L573.6 263.9L574.1 261.7L572.4 263.1L572.6 261.6L570.6 263.6L570.9 259.3L568.7 263L569 260.5L568.2 261.6L567.8 260.1L567.1 261.6L566.1 260.9V261.9L564.3 260.4L563.7 262.4L562.8 260.2L562.6 261.7L561.7 260L561.6 261.9L558.7 260.6L559.3 262.4L558 261.4L558.2 262.4L556.3 262L556.5 263.1L554.5 262.7L554.8 263.7L552.1 263.4L553.1 264.4L552.8 265C552.8 265 567.8 260 568.8 278.8L566.1 280.1L566.9 278.6L566.1 278.1L563.8 276.4L564.5 274L563.7 274.3L563.6 272.9L563.2 273.1L562.3 271.8L562.1 272.3L561.5 270.6L560.8 271.8L560.5 269L559.5 270.8L559.3 269.8L559 270.4L557.7 268.9L557.3 269.9L556.8 269.1L556.5 270.1L555.1 268.7V269.7L554.1 269L553.8 269.5L551.7 268.4L551.6 269.4L550.4 268.4L550.1 269.4C550.1 269.4 563.7 277.2 559.5 289.8L558.7 291.4L558.5 287.2L557.2 289.4L558.1 284.5L557.2 285.5L557.1 283.5L556 285.5L555.6 283.3L555.1 283.9L554.3 280.7L553.7 282L552.7 278.4L551.9 279.9L551.4 276.8L550.9 278.7L549.4 275.9L549.2 277L548.3 274.8L547.8 275.5C547.8 275.5 545.3 275.4 544.5 274.8C543.7 274.2 541.7 278.5 541.7 278.5L541.9 275.9L541 277.7V275.9L539.4 281.2L539 277.4L538.2 280.7L537.8 279.7L537.5 281L537 280.5L536.6 282L535.8 281.4V283.4L535 282.4L534.4 285.4L534 284.2V285.5L533.4 284.8L532.8 287.8L531.8 286.5V288.7L532.1 290.3L531.1 289.8L531.5 292.4C531.5 292.4 527.6 285.2 532.3 278.2C536.9 271.2 543.2 269.2 543.2 269.2L542.5 268.6V268L538.7 269.9V268.8L537.7 269.6L537.5 268.4L536.9 269.5L536.8 269L535.8 270.4L535.4 268.4L534.8 270.8L534.2 269.1L532.9 272.6V270L531.9 272.8L531.5 269.8L530.8 273.2V270.2L529.6 273.2L528.9 270.2L528.4 273.2L527.6 270.9L526.9 274.3L525.7 271.3L525.1 275.8L524.4 274L524.2 277.3L523.4 275.3L524.2 279.5L523.2 277.9L523.5 280.5L521.9 277.6V281L521.1 279.9L520.7 281.2C520.7 281.2 520.4 268.2 529.3 265.6C538.2 263 543.9 266.4 543.9 266.4L540.5 263.6L540.9 262.7H539.7L540.2 261.7L537.5 261.8L538.3 260.8L536.3 261.1V260.5L535 261.5L535.5 260.3L533.8 261.5L533.7 259.8L532.7 261.2L532.3 259.7L528.3 263.7L529.3 259.6L528.6 260.5L528.5 259.5L527.4 261.3L527.1 260.1L526.6 261.6L526.2 259.8L525.4 261.6L524.4 260L524.1 262.1L523.5 261L522.7 262.6L521.7 261.6V262.6L519.7 261.7L520.1 263.2L518.6 262L518.2 264L517.4 263L516.7 265.5L516.1 263.1L515.5 265C515.5 265 523.3 244.8 543.1 258C543.1 258 545.3 260.1 545.8 261.6C546.3 263.1 545.9 261.8 545.9 261.8L545.5 247.9L546.3 253.9L546.8 251.9L546.7 254.9L548.7 250.6C548.7 250.6 546.3 257.8 547.2 260.5C547.2 260.5 548.1 252.1 551.1 251.1L548.3 257.1L549.2 257L548.6 258.2H549.3L548.4 260.2L547.9 261.2L548.4 262.2L549.2 261.5Z" fill="#00A651" stroke="black" style="fill:#00A651;fill:color(display-p3 0.0000 0.6510 0.3176);fill-opacity:1;stroke:black;stroke-opacity:1;" stroke-width="0.5" stroke-miterlimit="4.8"/>
<path id="Vector_63" d="M547.1 269.6L547.5 270C547.5 270 548.8 268.6 550.9 270.4L551.2 270C548.7 267.9 547.2 269.6 547.2 269.6H547.1ZM546.5 262.8V263.3L547.4 262.9L546.7 264.1L548.2 263.6L546.4 265.9L546.8 266.2L549.7 262.5L547.9 263.1L548.7 261.8L547.1 262.4L547.4 260.5H546.9L546.5 262.8Z" fill="black" style="fill:black;fill-opacity:1;"/>
<path id="Vector_64" d="M543.9 263L544.5 264.3L543.5 263.9L546.4 269.1L546.8 268.6L546.2 270.1L546.7 270.3L547.9 267.1L547.5 266.8L546.5 268.1L544.7 265L545.5 265.3L544.7 263.6L545.8 264.2V262.3H545.3V263.3L543.5 262.2L543.9 263ZM542 269.4L542.2 269.9C543 269.567 543.667 269.5 544.2 269.7C544.667 270.1 544.9 270.433 544.9 270.7L545.4 270.5C545.4 270.5 545.2 269.6 544.4 269.3C543.8 268.967 543 269 542 269.4ZM544.3 274.8L543.8 272H544.4L544.8 274.7L544.3 274.8ZM548.1 274.4L547.4 272.2L547.9 272.1L548.6 274.1L548.1 274.4ZM549.5 275.9L549 273.8L549.5 273.7L550.1 275.8L549.5 275.9Z" fill="black" style="fill:black;fill-opacity:1;"/>
<g id="Vector_65">
<path d="M442.6 340.2C442.6 340.2 440.2 339.2 439.1 340C438.1 340.7 438.2 341.9 437.3 341.8C437.3 341.8 440.9 342.6 441.6 341.7L442.6 340.5M443 341.2C443 341.2 441.4 343.2 442 344.5C442.5 345.7 443.7 345.8 443.4 346.7C443.4 346.7 444.9 343.4 444.2 342.4C443.5 341.4 443.2 341.3 443.2 341.3M440.4 335.5C440.4 335.5 437.9 336.3 437.6 337.5C437.4 338.9 438.2 339.6 437.5 340.2C437.5 340.2 440.7 338.4 440.6 337.2V335.7M441.8 336.4C441.8 336.4 443 334.1 442.3 333C441.5 331.8 440.3 332 440.5 331C440.5 331 439.5 334.5 440.5 335.4L441.6 336.4M439.4 335.5C439.4 335.5 439.4 332.9 438.4 332.3C437.2 331.6 436.2 332.2 435.9 331.3C435.9 331.3 436.6 334.9 437.7 335.3L439.2 335.6M443.6 339.8C443.6 339.8 446.3 338.8 446.6 341.8C446.9 344.8 446.4 343.8 446.4 343.8C446.4 343.8 445 340.6 443.4 340.1L443.6 339.8Z" fill="#00A651" style="fill:#00A651;fill:color(display-p3 0.0000 0.6510 0.3176);fill-opacity:1;"/>
<path d="M442.6 340.2C442.6 340.2 440.2 339.2 439.1 340C438.1 340.7 438.2 341.9 437.3 341.8C437.3 341.8 440.9 342.6 441.6 341.7L442.6 340.5M443 341.2C443 341.2 441.4 343.2 442 344.5C442.5 345.7 443.7 345.8 443.4 346.7C443.4 346.7 444.9 343.4 444.2 342.4C443.5 341.4 443.2 341.3 443.2 341.3M440.4 335.5C440.4 335.5 437.9 336.3 437.6 337.5C437.4 338.9 438.2 339.6 437.5 340.2C437.5 340.2 440.7 338.4 440.6 337.2V335.7M441.8 336.4C441.8 336.4 443 334.1 442.3 333C441.5 331.8 440.3 332 440.5 331C440.5 331 439.5 334.5 440.5 335.4L441.6 336.4M439.4 335.5C439.4 335.5 439.4 332.9 438.4 332.3C437.2 331.6 436.2 332.2 435.9 331.3C435.9 331.3 436.6 334.9 437.7 335.3L439.2 335.6M443.6 339.8C443.6 339.8 446.3 338.8 446.6 341.8C446.9 344.8 446.4 343.8 446.4 343.8C446.4 343.8 445 340.6 443.4 340.1L443.6 339.8Z" stroke="black" style="stroke:black;stroke-opacity:1;" stroke-width="0.5" stroke-miterlimit="4.8"/>
</g>
<path id="Vector_66" d="M443 341.3L443.2 343.5H443.6L443.3 341.3L444.3 336.4H443.9L442.9 341.3H443Z" fill="black" style="fill:black;fill-opacity:1;"/>
<path id="Vector_67" d="M440.5 340.6L440.4 340.9C441.7 341.4 443.4 339.9 443.5 339.9L443.3 339.6C443.3 339.6 441.6 340.9 440.5 340.6ZM443.9 337.7L437.9 334.7L438.1 334.2L444.1 337.2L443.9 337.7Z" fill="black" style="fill:black;fill-opacity:1;"/>
<path id="Vector_68" d="M439.5 337L439.1 336.6L440.3 335.4L440.7 335.8L439.5 337ZM441.6 336.4L440.3 333.6L440.8 333.4L442.1 336.2L441.6 336.4ZM443.4 339.8V340.4C445.1 340.3 445.4 341.4 445.4 341.4L446 341.2C446 340.9 445.3 339.7 443.4 339.8Z" fill="black" style="fill:black;fill-opacity:1;"/>
<g id="Vector_69">
<path d="M471.2 341C473.2 340 473.6 336 473.6 336C473.1 337.4 469.4 338.9 469.4 338.9C472.1 337.2 475.4 329.5 475.4 329.5C474.6 332.2 467.4 334.5 462.8 337.1C458.2 339.7 460.6 347.1 460.6 347.1C459.3 346.2 456.8 342.3 456.3 338.8C455.8 335.3 454.5 333.9 451.3 333.5C448.2 333.1 446.3 336.7 446.3 336.7L441.6 339.1L446.4 339.3C446.4 339.3 449.8 340.4 449.8 343.1C449.8 345.8 446.8 356.4 451.8 362.4C455.1 366.5 467.8 368.9 467.8 368.9" fill="white" style="fill:white;fill-opacity:1;"/>
<path d="M471.2 341C473.2 340 473.6 336 473.6 336C473.1 337.4 469.4 338.9 469.4 338.9C472.1 337.2 475.4 329.5 475.4 329.5C474.6 332.2 467.4 334.5 462.8 337.1C458.2 339.7 460.6 347.1 460.6 347.1C459.3 346.2 456.8 342.3 456.3 338.8C455.8 335.3 454.5 333.9 451.3 333.5C448.2 333.1 446.3 336.7 446.3 336.7L441.6 339.1L446.4 339.3C446.4 339.3 449.8 340.4 449.8 343.1C449.8 345.8 446.8 356.4 451.8 362.4C455.1 366.5 467.8 368.9 467.8 368.9" stroke="black" style="stroke:black;stroke-opacity:1;" stroke-width="0.7" stroke-miterlimit="4.8"/>
</g>
<g id="Vector_70">
<path d="M461.9 349.3C461.9 349.3 462.9 344.5 466 344.7C469.1 344.9 470 341.1 471.9 340.6C473.8 340 483.4 337.4 484.4 332.8C484.4 332.8 483.5 340.4 474.7 344.2C474.7 344.2 481.8 341.9 482.7 340.3C482.7 340.3 479.5 347.1 471.8 348.2C471.8 348.2 479 347.6 480 345.7C480 345.7 476.8 349.9 471.5 350.5C471.5 350.5 476.5 352.5 477.7 350.8C477.7 350.8 475 354 471.7 354.2L472.7 354.4C472.7 354.4 469.5 358.2 466 355.7C462.5 353.2 462.4 356.3 462.4 356.3" fill="white" style="fill:white;fill-opacity:1;"/>
<path d="M461.9 349.3C461.9 349.3 462.9 344.5 466 344.7C469.1 344.9 470 341.1 471.9 340.6C473.8 340 483.4 337.4 484.4 332.8C484.4 332.8 483.5 340.4 474.7 344.2C474.7 344.2 481.8 341.9 482.7 340.3C482.7 340.3 479.5 347.1 471.8 348.2C471.8 348.2 479 347.6 480 345.7C480 345.7 476.8 349.9 471.5 350.5C471.5 350.5 476.5 352.5 477.7 350.8C477.7 350.8 475 354 471.7 354.2L472.7 354.4C472.7 354.4 469.5 358.2 466 355.7C462.5 353.2 462.4 356.3 462.4 356.3" stroke="black" style="stroke:black;stroke-opacity:1;" stroke-width="0.7" stroke-miterlimit="4.8"/>
</g>
<g id="Vector_71">
<path d="M469 356.5C469 356.5 473.1 363.3 473.5 366.9C473.5 366.9 481.3 375.4 484.2 375.9C484.2 375.9 482.8 376.5 480.2 374.4C480.2 374.4 482.4 376.6 482.8 376.7C483.2 376.8 481.1 376.5 480.8 375.9L482.2 377.4L481.7 377.2C481.7 377.2 480.7 377.1 480.1 376.7C479.6 376.3 480 377.7 480 377.7C480 377.7 478.8 377.4 478.4 377C478 376.6 478.5 377.9 478.5 377.9L477.5 377.6L476.7 378.1C476.7 378.1 476.7 378.6 476.2 378.1C475.7 377.8 474.8 378.1 474.8 378.1C474.8 378.1 474.2 378.7 473.8 378.3C473.5 377.9 472.3 379.9 472.3 379.9L467.3 367.6" fill="white" style="fill:white;fill-opacity:1;"/>
<path d="M469 356.5C469 356.5 473.1 363.3 473.5 366.9C473.5 366.9 481.3 375.4 484.2 375.9C484.2 375.9 482.8 376.5 480.2 374.4C480.2 374.4 482.4 376.6 482.8 376.7C483.2 376.8 481.1 376.5 480.8 375.9L482.2 377.4L481.7 377.2C481.7 377.2 480.7 377.1 480.1 376.7C479.6 376.3 480 377.7 480 377.7C480 377.7 478.8 377.4 478.4 377C478 376.6 478.5 377.9 478.5 377.9L477.5 377.6L476.7 378.1C476.7 378.1 476.7 378.6 476.2 378.1C475.7 377.8 474.8 378.1 474.8 378.1C474.8 378.1 474.2 378.7 473.8 378.3C473.5 377.9 472.3 379.9 472.3 379.9L467.3 367.6" stroke="black" style="stroke:black;stroke-opacity:1;" stroke-width="0.7" stroke-miterlimit="4.8"/>
</g>
<path id="Vector_72" d="M473.9 378.7L467.5 366.5L468.1 366.1L474.5 378.4L473.9 378.7ZM479.5 377.9L468.5 365.6L469.1 365.1L480.1 377.4L479.5 377.9ZM482 376.9L469.5 365L470 364.5L482.5 376.2L482 376.9Z" fill="black" style="fill:black;fill-opacity:1;"/>
<g id="Group_9">
<path id="Vector_73" d="M450.546 337.381C450.546 337.381 449.748 335.919 449.017 336.517C448.352 337.005 447.953 337.204 447.82 337.115C447.82 337.115 448.485 337.115 448.95 336.783C449.393 336.34 449.925 336.561 450.546 337.448V337.381ZM446.158 336.717L446.623 337.647L446.091 339.177L446.49 339.31L446.955 337.647L446.49 336.584L446.158 336.717Z" fill="black" style="fill:black;fill-opacity:1;"/>
<path id="Vector_74" d="M450.413 337.182C450.413 337.182 449.748 337.847 448.95 337.714L448.086 337.514H449.283C449.748 337.514 450.346 337.315 450.413 337.182Z" fill="black" style="fill:black;fill-opacity:1;"/>
<path id="Vector_75" d="M450.213 337.315C450.213 337.315 449.415 336.517 448.884 336.783C448.884 336.783 449.814 336.451 450.346 337.248L450.213 337.315Z" fill="black" style="fill:black;fill-opacity:1;"/>
<path id="Vector_76" d="M450.08 337.182C450.08 337.182 449.216 337.78 448.285 337.182L448.219 337.049H448.352C448.352 337.049 449.482 337.514 450.08 337.182Z" fill="black" style="fill:black;fill-opacity:1;"/>
<path id="Vector_77" d="M449.349 337.315C449.496 337.315 449.615 337.196 449.615 337.049C449.615 336.902 449.496 336.783 449.349 336.783C449.202 336.783 449.083 336.902 449.083 337.049C449.083 337.196 449.202 337.315 449.349 337.315Z" fill="black" style="fill:black;fill-opacity:1;"/>
</g>
<path id="Vector_78" d="M450 359.6C450 359.6 449.3 360.8 449.7 361.6C450 362.3 451.7 362.6 451.8 363.6C451.9 364.6 452.6 364.6 453.3 364.6L454.2 364.3C454.2 364.3 451.1 362.7 450.2 360L450 359.6Z" fill="black" style="fill:black;fill-opacity:1;"/>
<g id="Group_10">
<path id="Vector_79" d="M549.4 334.8C549.4 334.8 555 327.4 560 329.3C565 331.2 568.1 332.3 568.1 332.3C568.1 332.3 568.2 337.2 565.6 337.2C563 337.2 560.4 332.2 558 333.7C556.185 334.72 554.642 336.16 553.5 337.9C553.4 338.6 547.2 338.7 549.4 334.8Z" fill="#964B36" stroke="black" style="fill:#964B36;fill:color(display-p3 0.5882 0.2941 0.2118);fill-opacity:1;stroke:black;stroke-opacity:1;" stroke-width="0.3" stroke-miterlimit="4.8"/>
<path id="Vector_80" d="M528.2 370.4C528.2 370.4 526.6 372 527.3 372.4C528 372.8 529.4 372.4 529.4 371.8C529.4 371.2 528.4 370.2 528.2 370.4Z" fill="#964B36" stroke="black" style="fill:#964B36;fill:color(display-p3 0.5882 0.2941 0.2118);fill-opacity:1;stroke:black;stroke-opacity:1;" stroke-width="0.5" stroke-miterlimit="4.8"/>
<path id="Vector_81" d="M527 372C527 372 524 370.3 521.8 374.2C519.5 378 517.7 384.3 516.4 385.2C515.1 386 529.2 379 529.4 376C529.4 376 530.3 372.2 528.8 372.3C527.3 372.4 527.2 372.5 526.9 371.9L527 372Z" fill="#964B36" stroke="black" style="fill:#964B36;fill:color(display-p3 0.5882 0.2941 0.2118);fill-opacity:1;stroke:black;stroke-opacity:1;" stroke-width="0.5" stroke-miterlimit="4.8"/>
<g id="Vector_82">
<path d="M527.3 372.4C527.3 372.4 524.3 373.1 523.7 377.3C523.1 381.5 519 383.6 518.7 383.8M568.1 332.2C568.1 332.2 563.7 333.8 564.4 336.9Z" fill="#964B36" style="fill:#964B36;fill:color(display-p3 0.5882 0.2941 0.2118);fill-opacity:1;"/>
<path d="M527.3 372.4C527.3 372.4 524.3 373.1 523.7 377.3C523.1 381.5 519 383.6 518.7 383.8M568.1 332.2C568.1 332.2 563.7 333.8 564.4 336.9" stroke="black" style="stroke:black;stroke-opacity:1;" stroke-width="0.3" stroke-miterlimit="4.8"/>
</g>
</g>
<g id="Vector_83">
<path d="M533.7 341.3C533.7 341.3 533.9 330.7 542.6 331.1C544.2 331.3 543.4 333.2 543.4 333.2C543.4 333.2 545.4 331.9 546.2 334C546.2 334 548.9 332.8 549.2 335.5C549.2 335.5 552.2 335.1 551.8 337.5C551.8 337.5 553.8 337 553.8 338.7C553.8 338.7 556.1 337.8 555.8 340.2C555.8 340.2 558.4 338.5 558.1 341.6C558.1 341.6 560.7 339.7 561.6 342.8C562.6 346 559 352.6 555.5 354.3" fill="#FFF200" style="fill:#FFF200;fill:color(display-p3 1.0000 0.9490 0.0000);fill-opacity:1;"/>
<path d="M533.7 341.3C533.7 341.3 533.9 330.7 542.6 331.1C544.2 331.3 543.4 333.2 543.4 333.2C543.4 333.2 545.4 331.9 546.2 334C546.2 334 548.9 332.8 549.2 335.5C549.2 335.5 552.2 335.1 551.8 337.5C551.8 337.5 553.8 337 553.8 338.7C553.8 338.7 556.1 337.8 555.8 340.2C555.8 340.2 558.4 338.5 558.1 341.6C558.1 341.6 560.7 339.7 561.6 342.8C562.6 346 559 352.6 555.5 354.3" stroke="black" style="stroke:black;stroke-opacity:1;" stroke-width="0.3" stroke-miterlimit="4.8"/>
</g>
<path id="Vector_84" d="M557.9 342C557.9 342 559 350.2 554.4 353.3L554.5 353.5C559.4 350.5 558.2 342 558.2 341.9H557.9V342ZM552.2 351L552.4 351.2C555.4 348.3 556.1 340.6 556.1 340.2H555.8C555.8 340.2 555.1 348.2 552.2 351ZM549.5 349.1H549.8C550.41 345.412 551.809 341.899 553.9 338.8L553.7 338.7C553.7 338.7 549.9 344.2 549.5 349.1ZM547.3 347.7H547.6C548.1 342 552 337.7 552 337.6L551.8 337.4C551.8 337.4 547.8 341.9 547.3 347.7ZM544.3 345.7H544.6C544.9 339 549.4 335.7 549.4 335.7L549.2 335.4C549.2 335.4 544.6 338.8 544.2 345.8L544.3 345.7ZM541.5 344.1H541.8C541.6 337.9 546.3 334.1 546.4 334.1L546.2 333.9C546.2 333.9 541.2 337.7 541.5 344.1ZM536.5 341.8H536.8C537.01 339.896 537.762 338.091 538.968 336.602C540.173 335.113 541.781 334.002 543.6 333.4V333.1C541.744 333.779 540.106 334.945 538.856 336.476C537.607 338.007 536.793 339.846 536.5 341.8Z" fill="black" style="fill:black;fill-opacity:1;"/>
<g id="Vector_85">
<path d="M528.6 354.2C528.6 354.2 527.1 344.3 533 341.2C533 341.2 534.1 341 534.7 342.4C534.7 342.4 537.8 341.1 537.9 343.7C537.9 343.7 539.5 342.5 539.9 344.2C539.9 344.2 543.2 343.5 542.6 346C542.6 346 545.4 345.2 545.1 347.6C545.1 347.6 547.9 346.6 547.5 348.6C547.5 348.6 550.5 348 549.7 350.4C549.7 350.4 553.4 350 552.3 352.5C552.3 352.5 555 351.8 554.3 353.9C554.3 353.9 557.9 354.6 556.3 356.9C553.681 360.028 550.309 362.437 546.5 363.9" fill="#00A651" style="fill:#00A651;fill:color(display-p3 0.0000 0.6510 0.3176);fill-opacity:1;"/>
<path d="M528.6 354.2C528.6 354.2 527.1 344.3 533 341.2C533 341.2 534.1 341 534.7 342.4C534.7 342.4 537.8 341.1 537.9 343.7C537.9 343.7 539.5 342.5 539.9 344.2C539.9 344.2 543.2 343.5 542.6 346C542.6 346 545.4 345.2 545.1 347.6C545.1 347.6 547.9 346.6 547.5 348.6C547.5 348.6 550.5 348 549.7 350.4C549.7 350.4 553.4 350 552.3 352.5C552.3 352.5 555 351.8 554.3 353.9C554.3 353.9 557.9 354.6 556.3 356.9C553.681 360.028 550.309 362.437 546.5 363.9" stroke="black" style="stroke:black;stroke-opacity:1;" stroke-width="0.3" stroke-miterlimit="4.8"/>
</g>
<g id="Vector_86">
<path d="M525.4 364.1C525.4 364.1 523 355.9 527.6 353.8C527.6 353.8 528.5 353.6 528.6 354.4C528.6 354.4 529.6 353.1 530.4 354.3C530.4 354.3 532.7 353.2 533.3 354.9C533.3 354.9 534.8 353.6 535.6 355.5C535.6 355.5 537.1 354.9 537.1 356.5C537.1 356.5 539.1 355.5 539.1 357.5C539.1 357.5 541.1 356.7 540.6 358.7C540.6 358.7 543.6 359.2 542.7 360.6C542.7 360.6 545.4 361.3 544.4 362.4C544.4 362.4 547.2 362.1 545.7 364C545.7 364 547.9 363.3 546.7 365.7C545.5 368.1 541.5 370.7 538.7 371.1" fill="#00A651" style="fill:#00A651;fill:color(display-p3 0.0000 0.6510 0.3176);fill-opacity:1;"/>
<path d="M525.4 364.1C525.4 364.1 523 355.9 527.6 353.8C527.6 353.8 528.5 353.6 528.6 354.4C528.6 354.4 529.6 353.1 530.4 354.3C530.4 354.3 532.7 353.2 533.3 354.9C533.3 354.9 534.8 353.6 535.6 355.5C535.6 355.5 537.1 354.9 537.1 356.5C537.1 356.5 539.1 355.5 539.1 357.5C539.1 357.5 541.1 356.7 540.6 358.7C540.6 358.7 543.6 359.2 542.7 360.6C542.7 360.6 545.4 361.3 544.4 362.4C544.4 362.4 547.2 362.1 545.7 364C545.7 364 547.9 363.3 546.7 365.7C545.5 368.1 541.5 370.7 538.7 371.1" stroke="black" style="stroke:black;stroke-opacity:1;" stroke-width="0.3" stroke-miterlimit="4.8"/>
</g>
<path id="Vector_87" d="M528.3 370.6C528.3 370.6 523.2 365.6 525.6 364.2C525.6 364.2 526.6 364.5 527.1 365.6C527.1 365.6 528.3 363.8 529.1 365.6C529.1 365.6 530.9 365 530.9 366.3L532.3 367.3C532.3 367.3 534 367.2 533.7 368.3C533.7 368.3 535.6 368 535.5 369C535.5 369 537.1 369.1 537 370.2C537 370.2 539.8 370.7 538.5 372.1C538.5 372.1 533.7 373.1 530.2 371.7C530.2 371.7 528.5 371.1 528.3 370.6Z" fill="#00A651" stroke="black" style="fill:#00A651;fill:color(display-p3 0.0000 0.6510 0.3176);fill-opacity:1;stroke:black;stroke-opacity:1;" stroke-width="0.3" stroke-miterlimit="4.8"/>
<path id="Vector_88" d="M545.9 362.4V362.7C549.242 360.312 552.151 357.369 554.5 354L554.2 353.8C554.2 353.9 548.8 361.3 545.9 362.4ZM544.1 361.1L544.3 361.4C546.9 359.9 552.2 352.9 552.3 352.6L552.2 352.4C552.1 352.5 546.7 359.6 544.2 361.1H544.1ZM542.6 360.5L542.8 360.7C545.571 357.585 547.924 354.123 549.8 350.4L549.6 350.3C549.6 350.3 545.4 358.2 542.6 360.5ZM541.3 358.7H541.6C542.1 354.9 547.6 348.8 547.6 348.7L547.3 348.6C547.1 348.8 541.8 354.8 541.3 358.7ZM530.4 354H530.7C530.3 348.5 534.8 342.5 534.9 342.5L534.6 342.3C534.6 342.3 529.9 348.5 530.4 354ZM533.3 354.5H533.6C532.8 350.1 538 343.9 538 343.8L537.8 343.6C537.6 343.9 532.5 350 533.3 354.5ZM537.7 356.1H538C537.8 351.1 542.6 346.1 542.7 346.1L542.5 345.8C542.5 345.9 537.5 351 537.7 356.1ZM527.2 365.1H527.5C525.7 360.4 528.7 354.5 528.8 354.5L528.5 354.3C528.5 354.3 525.4 360.4 527.2 365.2V365.1ZM529.2 365.5L529.5 365.4C527.9 360.7 530.5 354.4 530.5 354.4L530.3 354.2C530.3 354.2 527.6 360.7 529.2 365.5ZM537.5 370.2V370.4C542.5 368.7 545.8 364.1 545.8 364.1L545.5 363.9C545.5 363.9 542.3 368.4 537.5 370.2ZM536.5 369.1V369.4C540.5 367.6 544.2 362.6 544.2 362.6L544 362.4C544 362.4 540.3 367.4 536.5 369.1ZM535.5 368.7L535.7 369C538.7 366.7 542.7 361 542.7 361L542.5 360.8C542.5 360.8 538.5 366.5 535.5 368.7ZM530.5 365.8H530.9C530.733 362.007 531.597 358.241 533.4 354.9L533.1 354.8C533.1 354.8 529.9 360.8 530.6 365.8H530.5ZM532.7 367.2L532.9 367.4C536.1 364.5 537.2 356.8 537.2 356.4H536.9C536.9 356.4 535.9 364.4 532.7 367.2ZM534.9 368L535.1 368.3C538.007 365.859 540.014 362.514 540.8 358.8H540.5C540.5 358.8 539.3 364.8 534.9 368.1V368ZM535.4 354.6V355.5L532 366.5L532.3 366.6L535.7 355.6C535.2 350.2 539.9 344.3 540 344.3L539.7 344.1C539.7 344.1 535.4 349.4 535.4 354.6Z" fill="black" style="fill:black;fill-opacity:1;"/>
<path id="Vector_89" d="M539 357.3C539 357.5 537.9 365 533.8 367.8L534 368.1C538.2 365.2 539.2 357.8 539.2 357.4C541 355.3 545.2 347.7 545.2 347.7L545 347.5C545 347.5 540.8 355.1 539 357.3ZM527 365.6C527 365.7 527.6 369.6 528.4 370.8L528.7 370.7C527.9 369.4 527.2 365.6 527.2 365.5L526.9 365.6H527ZM528.9 365.6L528.8 370.9H529.1V365.6H528.9Z" fill="black" style="fill:black;fill-opacity:1;"/>
<path id="Vector_90" d="M529 371L529.3 371.1C530.6 368.3 531 366.3 531 366.3H530.7C530.7 366.3 530.3 368.2 529 371ZM529.3 371.1L529.5 371.4C530.958 370.481 532.027 369.057 532.5 367.4H532.2C532.2 367.4 531.6 369.8 529.3 371.1ZM529.8 371.3V371.6C532.2 371.4 533.8 368.5 533.8 368.3H533.6C533.6 368.3 532 371.1 529.8 371.3Z" fill="black" style="fill:black;fill-opacity:1;"/>
<path id="Vector_91" d="M530 371.5V371.8C533.9 371.5 535.6 369.2 535.6 369.1L535.4 369C535.4 369 533.7 371.2 530 371.5Z" fill="black" style="fill:black;fill-opacity:1;"/>
<path id="Vector_92" d="M530.3 371.5V371.8C530.4 371.8 535.3 372.9 537 370.4L536.7 370.2C535.2 372.6 530.3 371.6 530.3 371.5Z" fill="black" style="fill:black;fill-opacity:1;"/>
<path id="Vector_93" d="M420.9 193.2V329.6C420.9 374.2 501.5 400.6 501.5 400.6C501.5 400.6 582 374.2 582 329.6V193.2H420.9Z" stroke="black" style="stroke:black;stroke-opacity:1;" stroke-width="2.8" stroke-miterlimit="4.8"/>
</g>
<path id="Vector_94" d="M0 0H320V240H0V0Z" fill="#012169" style="fill:#012169;fill:color(display-p3 0.0039 0.1294 0.4118);fill-opacity:1;"/>
<path id="Vector_95" d="M37.5 0L159.5 90.5L281 0H320V31L200 120.5L320 209.5V240H280L160 150.5L40.5 240H0V210L119.5 121L0 32V0H37.5Z" fill="white" style="fill:white;fill-opacity:1;"/>
<path id="Vector_96" d="M212 140.5L320 220V240L184.5 140.5H212ZM120 150.5L123 168L27 240H0L120 150.5ZM320 0V1.5L195.5 95.5L196.5 73.5L295 0H320ZM0 0L119.5 88H89.5L0 21V0Z" fill="#C8102E" style="fill:#C8102E;fill:color(display-p3 0.7843 0.0627 0.1804);fill-opacity:1;"/>
<path id="Vector_97" d="M120.5 0V240H200.5V0H120.5ZM0 80V160H320V80H0Z" fill="white" style="fill:white;fill-opacity:1;"/>
<path id="Vector_98" d="M0 96.5V144.5H320V96.5H0ZM136.5 0V240H184.5V0H136.5Z" fill="#C8102E" style="fill:#C8102E;fill:color(display-p3 0.7843 0.0627 0.1804);fill-opacity:1;"/>
</g>
<defs>
<clipPath id="clip0_2194_3714">
<rect width="640" height="480" fill="white" style="fill:white;fill-opacity:1;"/>
</clipPath>
</defs>
</svg>
