<svg width="640" height="480" viewBox="0 0 640 480" fill="none" xmlns="http://www.w3.org/2000/svg">
<g id="gl" clip-path="url(#clip0_2194_4230)">
<path id="Vector" d="M0 0H640V480H0V0Z" fill="white" style="fill:white;fill-opacity:1;"/>
<path id="Vector_2" d="M0 240H640V480H0V240ZM80 240C80 282.435 96.8571 323.131 126.863 353.137C156.869 383.143 197.565 400 240 400C282.435 400 323.131 383.143 353.137 353.137C383.143 323.131 400 282.435 400 240C400 197.565 383.143 156.869 353.137 126.863C323.131 96.8571 282.435 80 240 80C197.565 80 156.869 96.8571 126.863 126.863C96.8571 156.869 80 197.565 80 240Z" fill="#D00C33" style="fill:#D00C33;fill:color(display-p3 0.8157 0.0471 0.2000);fill-opacity:1;"/>
</g>
<defs>
<clipPath id="clip0_2194_4230">
<rect width="640" height="480" fill="white" style="fill:white;fill-opacity:1;"/>
</clipPath>
</defs>
</svg>
