<svg width="640" height="480" viewBox="0 0 640 480" fill="none" xmlns="http://www.w3.org/2000/svg">
<g id="hk" clip-path="url(#clip0_2194_4610)">
<path id="Vector" d="M0 0H640V480H0" fill="#EC1B2E" style="fill:#EC1B2E;fill:color(display-p3 0.9255 0.1059 0.1804);fill-opacity:1;"/>
<path id="hk-a" d="M346.3 103.1C267 98 230.6 201.9 305.6 240.3C279.6 217.9 285 185 295.5 167.9L297.4 169C283.6 192.5 286.2 221.7 308.5 240C295.8 227.7 299 201 320.6 191.1C342.2 181.2 344.2 151.8 337 142C327.2 124.933 330.3 111.967 346.3 103.1ZM307.9 164L303.2 171.4L301.4 162.8L292.8 160.5L300.6 156.2L300 147.3L306.5 153.4L314.8 150.1L311.1 158.2L316.7 165L307.9 164Z" fill="white" style="fill:white;fill-opacity:1;"/>
<path id="hk-a_2" d="M456.473 232.26C436.818 155.265 326.755 152.753 313.411 235.949C326.68 204.299 359.639 199.268 379.146 203.97L378.687 206.117C352.073 200.255 325.106 211.751 314.592 238.614C322.366 222.735 348.748 217.528 364.838 235.011C380.928 252.495 409.508 245.312 416.603 235.436C429.806 220.841 443.096 219.783 456.473 232.26ZM386.687 214.558L378.197 212.375L385.82 208.006L385.35 199.116L391.85 205.205L400.129 201.884L396.336 209.951L402.039 216.825L393.192 215.809L388.456 223.237L386.687 214.558Z" fill="white" style="fill:white;fill-opacity:1;"/>
<path id="hk-a_3" d="M367.68 376.953C434.833 334.468 403.211 229.015 319.963 242.033C354.164 244.873 369.134 274.663 370.69 294.669L368.506 294.896C365.858 267.773 346.591 245.678 317.794 243.98C335.298 246.466 348.403 269.948 336.747 290.654C325.091 311.359 340.754 336.32 352.339 340.016C370.299 348.063 375.413 360.375 367.68 376.953ZM362.951 305.113L362.403 296.364L368.915 302.263L377.224 299.069L373.441 307.133L379.158 313.98L370.314 312.866L365.539 320.414L363.771 311.686L355.243 309.477L362.951 305.113Z" fill="white" style="fill:white;fill-opacity:1;"/>
<path id="hk-a_4" d="M202.63 337.219C263.788 387.956 354.307 325.295 316.202 250.145C324.07 283.549 300.363 306.992 281.817 314.654L280.926 312.647C305.904 301.747 320.964 276.595 313.679 248.683C316.724 266.098 298.441 285.818 275.147 281.131C251.853 276.445 232.954 299.054 233.019 311.214C230.916 330.782 220.786 339.45 202.63 337.219ZM269.493 310.521L277.645 307.297L274.046 315.312L279.652 322.228L270.814 321.122L266.068 328.675L264.395 319.919L255.74 317.71L263.495 313.332L262.961 304.539L269.493 310.521Z" fill="white" style="fill:white;fill-opacity:1;"/>
<path id="hk-a_5" d="M189.416 167.968C160.061 241.811 247.627 308.536 307.324 249.073C277.986 266.879 248.365 251.577 235.347 236.306L236.98 234.839C255.065 255.226 283.64 261.776 307.935 246.223C292.313 254.5 267.908 243.206 265.168 219.604C262.427 196.002 235.084 185.015 223.539 188.834C204.279 192.88 192.905 185.925 189.416 167.968ZM235.469 223.308L241.055 230.065L232.32 229.119L227.475 236.587L225.795 227.84L217.146 225.661L224.956 221.364L224.382 212.45L230.942 218.472L239.14 215.248L235.469 223.308Z" fill="white" style="fill:white;fill-opacity:1;"/>
</g>
<defs>
<clipPath id="clip0_2194_4610">
<rect width="640" height="480" fill="white" style="fill:white;fill-opacity:1;"/>
</clipPath>
</defs>
</svg>
