<svg width="640" height="480" viewBox="0 0 640 480" fill="none" xmlns="http://www.w3.org/2000/svg">
<g id="io" clip-path="url(#clip0_2194_5101)">
<path id="Vector" d="M0 0H640V480H0V0Z" fill="white" style="fill:white;fill-opacity:1;"/>
<path id="Vector_2" fill-rule="evenodd" clip-rule="evenodd" d="M640 416.2C632.8 422.9 626.7 438.2 607.6 438.2C569.5 438.2 560 405.7 531.4 405.7C512.4 405.7 502.9 438.2 483.8 438.2C445.7 438.2 436.2 405.7 407.6 405.7C388.6 405.7 379.1 438.2 360.1 438.2C321.9 438.2 312.4 405.7 283.8 405.7C264.8 405.7 255.2 438.2 236.2 438.2C198.1 438.2 188.6 405.7 160 405.7C141 405.7 131.4 438.2 112.4 438.2C74.2 438.2 64.7 405.7 36.2 405.7C17.2 405.7 11.4 428.9 0 428.9V470.6C11.4 470.6 17.1 447.6 36.3 447.6C64.8 447.6 74.3 480 112.3 480C131.4 480 140.9 447.5 160 447.5C188.6 447.5 198.1 480 236.3 480C255.3 480 264.7 447.5 283.8 447.5C312.4 447.5 321.9 480 360 480C379 480 388.6 447.5 407.6 447.5C436.2 447.5 445.7 480 483.8 480C502.8 480 512.4 447.5 531.4 447.5C560 447.5 569.6 480 607.6 480C626.6 480 632.8 470.8 640 464.2V416.2ZM640 335C632.8 341.7 626.7 357 607.6 357C569.5 357 560 324.5 531.4 324.5C512.4 324.5 502.9 357 483.8 357C445.7 357 436.2 324.5 407.6 324.5C388.6 324.5 379.1 357 360.1 357C321.9 357 312.4 324.5 283.8 324.5C264.8 324.5 255.2 357 236.2 357C198.1 357 188.6 324.5 160 324.5C141 324.5 131.4 357 112.4 357C74.2 357 64.7 324.5 36.2 324.5C17.2 324.5 11.4 347.7 0 347.7V389.5C11.4 389.5 17.1 366.4 36.3 366.4C64.8 366.4 74.3 398.9 112.3 398.9C131.4 398.9 140.9 366.4 160 366.4C188.6 366.4 198.1 398.9 236.3 398.9C255.3 398.9 264.7 366.4 283.8 366.4C312.4 366.4 321.9 398.9 360.1 398.9C379.1 398.9 388.6 366.4 407.6 366.4C436.2 366.4 445.7 398.9 483.8 398.9C502.8 398.9 512.4 366.4 531.4 366.4C560 366.4 569.6 398.9 607.6 398.9C626.6 398.9 632.8 389.7 640 383.1V335ZM640 253.9C632.8 260.6 626.7 275.9 607.6 275.9C569.5 275.9 560 243.4 531.4 243.4C512.4 243.4 502.9 275.9 483.8 275.9C445.7 275.9 436.2 243.4 407.6 243.4C388.6 243.4 379.1 275.9 360.1 275.9C321.9 275.9 312.4 243.4 283.8 243.4C264.8 243.4 255.2 275.9 236.2 275.9C198.1 275.9 188.6 243.4 160 243.4C141 243.4 131.4 275.9 112.4 275.9C74.2 275.9 64.7 243.4 36.2 243.4C17.2 243.4 11.4 266.6 0 266.6V308.4C11.4 308.4 17.1 285.2 36.3 285.2C64.8 285.2 74.3 317.7 112.3 317.7C131.4 317.7 140.9 285.2 160 285.2C188.6 285.2 198.1 317.7 236.3 317.7C255.3 317.7 264.7 285.2 283.8 285.2C312.4 285.2 321.9 317.7 360.1 317.7C379.1 317.7 388.6 285.2 407.6 285.2C436.2 285.2 445.7 317.7 483.8 317.7C502.8 317.7 512.4 285.2 531.4 285.2C560 285.2 569.6 317.7 607.6 317.7C626.6 317.7 632.8 308.5 640 301.9V253.9ZM640 172.8C632.8 179.4 626.7 194.8 607.6 194.8C569.5 194.8 560 162.3 531.4 162.3C512.4 162.3 502.9 194.8 483.8 194.8C445.7 194.8 436.2 162.3 407.6 162.3C388.6 162.3 379.1 194.8 360.1 194.8C321.9 194.8 312.4 162.3 283.8 162.3C264.8 162.3 255.2 194.8 236.2 194.8C198.1 194.8 188.6 162.3 160 162.3C141 162.3 131.4 194.8 112.4 194.8C74.2 194.8 64.7 162.3 36.2 162.3C17.2 162.3 11.4 185.5 0 185.5V227.2C11.4 227.2 17.1 204.2 36.3 204.2C64.8 204.2 74.3 236.6 112.3 236.6C131.4 236.6 140.9 204.1 160 204.1C188.6 204.1 198.1 236.6 236.3 236.6C255.3 236.6 264.7 204.1 283.8 204.1C312.4 204.1 321.9 236.6 360.1 236.6C379.1 236.6 388.6 204.1 407.6 204.1C436.2 204.1 445.7 236.6 483.8 236.6C502.8 236.6 512.4 204.1 531.4 204.1C560 204.1 569.6 236.6 607.6 236.6C626.6 236.6 632.8 227.3 640 220.7V172.8ZM640 91.5C632.8 98.2 626.7 113.6 607.6 113.6C569.5 113.6 560 81.1 531.4 81.1C512.4 81.1 502.9 113.6 483.8 113.6C445.7 113.6 436.2 81.1 407.6 81.1C388.6 81.1 379.1 113.6 360.1 113.6C321.9 113.6 312.4 81.1 283.8 81.1C264.8 81.1 255.2 113.6 236.2 113.6C198.1 113.6 188.6 81.1 160 81.1C141 81.1 131.4 113.6 112.4 113.6C74.2 113.6 64.7 81.1 36.2 81.1C17.2 81.2 11.4 104.4 0 104.4V146.2C11.4 146.2 17.1 123.1 36.2 123.1C64.7 123.1 74.3 155.6 112.4 155.6C131.4 155.6 140.9 123.1 160 123.1C188.6 123.1 198.1 155.6 236.3 155.6C255.3 155.6 264.7 123.1 283.7 123.1C312.4 123.1 321.9 155.6 360 155.6C379 155.6 388.6 123.1 407.6 123.1C436.2 123.1 445.7 155.6 483.8 155.6C502.8 155.6 512.4 123.1 531.4 123.1C560 123.1 569.6 155.6 607.6 155.6C626.6 155.6 632.8 146.3 640 139.7V91.7V91.5ZM640 10.5C632.8 17.1 626.7 32.5 607.6 32.5C569.5 32.5 560 0 531.4 0C512.4 0 502.9 32.5 483.8 32.5C445.7 32.5 436.2 0 407.6 0C388.6 0 379.1 32.5 360.1 32.5C321.9 32.5 312.4 0 283.8 0C264.8 0 255.2 32.5 236.2 32.5C198 32.5 188.6 0 160 0C141 0 131.4 32.5 112.4 32.5C74.2 32.5 64.7 0 36.2 0C17.2 0 11.4 23.2 0 23.2V65.1C11.4 65 17.1 42 36.2 42C64.7 42 74.3 74.4 112.4 74.4C131.4 74.4 140.9 42 160 42C188.6 42 198.1 74.4 236.3 74.4C255.3 74.4 264.7 42 283.7 42C312.4 42 321.9 74.4 360 74.4C379 74.4 388.6 42 407.6 42C436.2 42 445.7 74.4 483.8 74.4C502.8 74.4 512.4 42 531.4 42C560 42 569.6 74.4 607.6 74.4C626.6 74.4 632.8 65.2 640 58.6V10.5Z" fill="#000063" style="fill:#000063;fill:color(display-p3 0.0000 0.0000 0.3882);fill-opacity:1;"/>
<path id="Vector_3" fill-rule="evenodd" clip-rule="evenodd" d="M474.8 131.7L471.3 460.7C471.3 478 487 478 488.7 460.7L485.2 131.7H474.8Z" fill="#A24300" stroke="white" style="fill:#A24300;fill:color(display-p3 0.6353 0.2627 0.0000);fill-opacity:1;stroke:white;stroke-opacity:1;" stroke-width="2.1"/>
<path id="Vector_4" fill-rule="evenodd" clip-rule="evenodd" d="M510.7 254L499.7 242.1L497.1 254.2L492.4 236.7L487.9 245.5L487.1 226.9L482.7 235.7L481.9 217.1L477.5 225.9L475 204L470.6 212.8L468 191L463.5 199.8L461 177.9L459.7 166.9L461.9 162.6L467.7 164.7L476.8 173.4L495.1 190.8L483.8 186.5L502.1 203.9L490.7 199.6L509 216.9L497.6 212.7L514.2 226.7L502.9 222.5L519.4 236.5L508.1 232.3L520.7 247.5L507.6 239.9L510.6 254.2L510.7 254Z" fill="#006D00" stroke="white" style="fill:#006D00;fill:color(display-p3 0.0000 0.4275 0.0000);fill-opacity:1;stroke:white;stroke-opacity:1;" stroke-width="1.8"/>
<path id="Vector_5" d="M510.7 254L462 162.6M495.1 190.8L469 175.6L463.6 199.7" stroke="black" style="stroke:black;stroke-opacity:1;" stroke-width="0.3"/>
<path id="Vector_6" d="M502.2 203.8L475.9 188.7L470.6 212.8" stroke="black" style="stroke:black;stroke-opacity:1;" stroke-width="0.3"/>
<path id="Vector_7" d="M509.1 216.8L482.9 201.8L477.5 225.8" stroke="black" style="stroke:black;stroke-opacity:1;" stroke-width="0.3"/>
<path id="Vector_8" d="M514.3 226.7L489.8 214.8L482.8 235.8" stroke="black" style="stroke:black;stroke-opacity:1;" stroke-width="0.3"/>
<path id="Vector_9" d="M519.5 236.5L495 224.6L488 245.6" stroke="black" style="stroke:black;stroke-opacity:1;" stroke-width="0.3"/>
<path id="Vector_10" d="M520.8 247.4L498.5 231.2L497.1 254.2" stroke="black" style="stroke:black;stroke-opacity:1;" stroke-width="0.3"/>
<path id="Vector_11" fill-rule="evenodd" clip-rule="evenodd" d="M383 97.9L400.8 104.7L395.6 91.2L411.2 106.5L409.7 95.5L422.3 113.9L420.8 102.9L433.4 121.3L431.9 110.3L448.2 131.1L446.7 120.1L463 140.9L461.6 129.9L477.8 150.7L486 161.1L486.7 166.6L480 167.2L466 162.9L437.8 154.2L451.1 153.1L423 144.4L436.3 143.3L408.2 134.6L421.5 133.4L397.1 127.2L410.4 126.1L386 119.9L399.3 118.7L377.8 109.4L394.9 110.7L383.1 98L383 97.9Z" fill="#006D00" stroke="white" style="fill:#006D00;fill:color(display-p3 0.0000 0.4275 0.0000);fill-opacity:1;stroke:white;stroke-opacity:1;" stroke-width="2"/>
<path id="Vector_12" d="M383 97.9L486.7 166.6M437.8 154.2L471.9 156.8L461.6 129.9" stroke="black" style="stroke:black;stroke-opacity:1;" stroke-width="0.3"/>
<path id="Vector_13" d="M423 144.4L457 147L446.7 120" stroke="black" style="stroke:black;stroke-opacity:1;" stroke-width="0.3"/>
<path id="Vector_14" d="M408.2 134.6L442.2 137.2L431.9 110.2" stroke="black" style="stroke:black;stroke-opacity:1;" stroke-width="0.3"/>
<path id="Vector_15" d="M397 127.2L427.5 127.3L420.8 102.9" stroke="black" style="stroke:black;stroke-opacity:1;" stroke-width="0.3"/>
<path id="Vector_16" d="M386 119.8L416.4 120L409.7 95.5" stroke="black" style="stroke:black;stroke-opacity:1;" stroke-width="0.3"/>
<path id="Vector_17" d="M377.8 109.4L408.9 115.1L395.7 91.2" stroke="black" style="stroke:black;stroke-opacity:1;" stroke-width="0.3"/>
<path id="Vector_18" fill-rule="evenodd" clip-rule="evenodd" d="M589.8 120.8L575 131.7L591.4 133.5L568.5 138.9L580.7 142.5L556 144.3L568.2 147.9L543.5 149.7L555.6 153.4L526.7 157L538.9 160.6L510 164.2L522.2 167.8L493.3 171.4L478.8 173.2L472.8 171.4L475 166L485.7 157L507 138.9L502.4 149.7L523.7 131.7L519.1 142.5L540.4 124.5L535.8 135.3L553 119L548.5 129.9L565.5 113.6L561 124.4L580 111.8L571.3 124.5L589.9 120.9L589.8 120.8Z" fill="#006D00" stroke="white" style="fill:#006D00;fill:color(display-p3 0.0000 0.4275 0.0000);fill-opacity:1;stroke:white;stroke-opacity:1;" stroke-width="2"/>
<path id="Vector_19" d="M589.8 120.8L472.8 171.4M506.9 138.9L489.5 164.2L522.2 167.8" stroke="black" style="stroke:black;stroke-opacity:1;" stroke-width="0.3"/>
<path id="Vector_20" d="M523.7 131.7L506.2 157L538.9 160.6" stroke="black" style="stroke:black;stroke-opacity:1;" stroke-width="0.3"/>
<path id="Vector_21" d="M540.4 124.4L522.9 149.7L555.6 153.4" stroke="black" style="stroke:black;stroke-opacity:1;" stroke-width="0.3"/>
<path id="Vector_22" d="M553 119L539.7 142.5L568.2 147.9" stroke="black" style="stroke:black;stroke-opacity:1;" stroke-width="0.3"/>
<path id="Vector_23" d="M565.5 113.6L552.2 137.1L580.7 142.5" stroke="black" style="stroke:black;stroke-opacity:1;" stroke-width="0.3"/>
<path id="Vector_24" d="M580 111.8L560.6 133.5H591.3" stroke="black" style="stroke:black;stroke-opacity:1;" stroke-width="0.3"/>
<path id="Vector_25" fill-rule="evenodd" clip-rule="evenodd" d="M587.4 230.3L569 225L575.6 238L558.5 224L561.1 234.7L546.6 217.5L549.3 228.3L534.8 211L537.4 221.8L518.9 202.4L521.6 213.2L503.1 193.8L505.8 204.6L487.3 185.2L478.1 175.5L476.8 170.1L483.4 168.9L497.9 172.1L526.9 178.5L513.7 180.7L542.7 187.1L529.5 189.3L558.5 195.7L545.3 198L570.3 202.2L557.1 204.4L582.1 208.6L569 211L591.3 218.5H574.3L587.3 230.5L587.4 230.3Z" fill="#006D00" stroke="white" style="fill:#006D00;fill:color(display-p3 0.0000 0.4275 0.0000);fill-opacity:1;stroke:white;stroke-opacity:1;" stroke-width="2"/>
<path id="Vector_26" d="M587.4 230.3L476.8 170.1M526.8 178.5L492.6 178.7L505.8 204.7" stroke="black" style="stroke:black;stroke-opacity:1;" stroke-width="0.3"/>
<path id="Vector_27" d="M542.6 187.1L508.4 187.3L521.6 213.3" stroke="black" style="stroke:black;stroke-opacity:1;" stroke-width="0.3"/>
<path id="Vector_28" d="M558.4 195.7L524.2 195.9L537.4 221.9" stroke="black" style="stroke:black;stroke-opacity:1;" stroke-width="0.3"/>
<path id="Vector_29" d="M570.3 202.2L540 204.5L549.3 228.3" stroke="black" style="stroke:black;stroke-opacity:1;" stroke-width="0.3"/>
<path id="Vector_30" d="M582.2 208.7L551.9 210.9L561.1 234.7" stroke="black" style="stroke:black;stroke-opacity:1;" stroke-width="0.3"/>
<path id="Vector_31" d="M591.3 218.4L559.8 215.2L575.6 238" stroke="black" style="stroke:black;stroke-opacity:1;" stroke-width="0.3"/>
<path id="Vector_32" fill-rule="evenodd" clip-rule="evenodd" d="M395.2 236.6L404.5 223.6L390.4 225.7L407.8 215.8L396.7 215.3L416.7 208.3L405.6 207.7L425.6 200.7L414.5 200.1L437.5 190.5L426.3 190L449.3 180.3L438.2 179.8L461.2 170.2L472.7 165.3L478.3 165.6L477.9 170.9L471.6 181.3L459 202.1L459.8 191.5L447.2 212.3L447.9 201.6L435.3 222.4L436 211.8L426.4 230L427.1 219.4L417.5 237.6L418.2 227L406 242.4L409.7 229.2L395.2 236.6Z" fill="#006D00" stroke="white" style="fill:#006D00;fill:color(display-p3 0.0000 0.4275 0.0000);fill-opacity:1;stroke:white;stroke-opacity:1;" stroke-width="1.8"/>
<path id="Vector_33" d="M395.2 236.6L478.2 165.6M459.1 202.1L466.4 175.7L438.2 179.8" stroke="black" style="stroke:black;stroke-opacity:1;" stroke-width="0.3"/>
<path id="Vector_34" d="M447.2 212.3L454.5 185.9L426.3 189.9" stroke="black" style="stroke:black;stroke-opacity:1;" stroke-width="0.3"/>
<path id="Vector_35" d="M435.3 222.4L442.7 196L414.5 200.1" stroke="black" style="stroke:black;stroke-opacity:1;" stroke-width="0.3"/>
<path id="Vector_36" d="M426.4 230L430.8 206.2L405.6 207.7" stroke="black" style="stroke:black;stroke-opacity:1;" stroke-width="0.3"/>
<path id="Vector_37" d="M417.5 237.6L421.9 213.8L396.7 215.3" stroke="black" style="stroke:black;stroke-opacity:1;" stroke-width="0.3"/>
<path id="Vector_38" d="M406 242.4L416 218.9L390.4 225.7" stroke="black" style="stroke:black;stroke-opacity:1;" stroke-width="0.3"/>
<path id="Vector_39" fill-rule="evenodd" clip-rule="evenodd" d="M563 66.2L545.1 78.2L542.2 65.3L531.7 83.1L529.7 74.6L521.1 92.8L519.9 84.4L513.2 103.1L509.4 94.1L502.7 116.8L498.9 107.8L492.2 130.5L488.3 121.5L481.6 144.2L478.3 155.6L480.2 160.1L487.4 157.7L499.8 148.5L524.8 130.1L510.4 134.8L535.3 116.3L520.9 121.1L545.8 102.6L531.4 107.4L556.4 93L539.4 97L566 83.3L549.7 87.5L569.4 71.9L552.4 80L563 66.2Z" fill="#006D00" stroke="white" style="fill:#006D00;fill:color(display-p3 0.0000 0.4275 0.0000);fill-opacity:1;stroke:white;stroke-opacity:1;" stroke-width="2"/>
<path id="Vector_40" d="M556 72.7L530.2 94.9L480.2 160.1" stroke="black" style="stroke:black;stroke-opacity:1;" stroke-width="0.3"/>
<path id="Vector_41" d="M519.3 132.8L490.7 146.3L488.3 125.5" stroke="black" style="stroke:black;stroke-opacity:1;" stroke-width="0.3"/>
<path id="Vector_42" d="M530.2 119.2L501.2 132.6L498.9 111.8" stroke="black" style="stroke:black;stroke-opacity:1;" stroke-width="0.3"/>
<path id="Vector_43" d="M540.5 105.5L511.8 118.9L509.6 98.2" stroke="black" style="stroke:black;stroke-opacity:1;" stroke-width="0.3"/>
<path id="Vector_44" d="M549.1 95.3L522.3 105.2L519.3 88.2" stroke="black" style="stroke:black;stroke-opacity:1;" stroke-width="0.3"/>
<path id="Vector_45" d="M559 85.5L530.2 95L529.2 78.6" stroke="black" style="stroke:black;stroke-opacity:1;" stroke-width="0.3"/>
<path id="Vector_46" d="M562.8 76.2L536.2 89.8L541.4 69.2" stroke="black" style="stroke:black;stroke-opacity:1;" stroke-width="0.3"/>
<path id="Vector_47" fill-rule="evenodd" clip-rule="evenodd" d="M466.1 43.8L474.1 62L484.4 52.4L482.7 72.2L489.5 65.8L485.8 85.2L491.8 78.6L486.3 97.6L495 91.6L487 113.9L495.6 107.9L487.6 130.4L496.3 124.4L488.3 146.8L484.3 158L479.9 161L475.1 155.7L470.1 142.3L460.1 115.4L469.5 125.9L459.4 98.9L468.8 109.5L458.8 82.5L468 93L455.5 69.6L467.5 80.7L453.1 56.8L464.4 67.8L457.1 45.6L466.7 60.2L466.1 43.8Z" fill="#006D00" stroke="white" style="fill:#006D00;fill:color(display-p3 0.0000 0.4275 0.0000);fill-opacity:1;stroke:white;stroke-opacity:1;" stroke-width="2"/>
<path id="Vector_48" d="M468.2 52.4L476.7 82.9L479.9 160.9" stroke="black" style="stroke:black;stroke-opacity:1;" stroke-width="0.3"/>
<path id="Vector_49" d="M463 120.2L479.2 144.5L493.9 127.8" stroke="black" style="stroke:black;stroke-opacity:1;" stroke-width="0.3"/>
<path id="Vector_50" d="M462 103.7L478.5 128.1L493.2 111.4" stroke="black" style="stroke:black;stroke-opacity:1;" stroke-width="0.3"/>
<path id="Vector_51" d="M461.5 87.3L477.9 111.7L492.3 95" stroke="black" style="stroke:black;stroke-opacity:1;" stroke-width="0.3"/>
<path id="Vector_52" d="M460.4 74.9L477.2 95.3L490.2 82.3" stroke="black" style="stroke:black;stroke-opacity:1;" stroke-width="0.3"/>
<path id="Vector_53" d="M458 62L476.7 83L487.7 69.4" stroke="black" style="stroke:black;stroke-opacity:1;" stroke-width="0.3"/>
<path id="Vector_54" d="M460.3 52.4L474.7 75.9L482.8 56" stroke="black" style="stroke:black;stroke-opacity:1;" stroke-width="0.3"/>
<path id="Vector_55" fill-rule="evenodd" clip-rule="evenodd" d="M359 178L382.3 161.8L370.6 155.8L391.1 159.2L384.1 149.9L403.9 157.4L396.9 148.1L416.8 155.5L409.8 146.3L433.8 154.4L426.8 145.1L450.1 157.2L443.1 147.9L467.1 156.1L478.8 162.1L482.3 166.7L477.6 170L464.7 171.8L444 180.4L447.8 173L422.1 176.6L431.4 170.2L405.1 177.8L414.5 171.3L392.3 179.6L402.2 169.2L379.4 181.4L389.4 171L370.6 184L381.1 169.6L359 178Z" fill="#006D00" stroke="white" style="fill:#006D00;fill:color(display-p3 0.0000 0.4275 0.0000);fill-opacity:1;stroke:white;stroke-opacity:1;" stroke-width="1.9"/>
<path id="Vector_56" d="M366.3 173.6L390.5 163.1L403.4 161.3L414.1 161.1L432.6 162.3L449.3 163L482.3 166.7" stroke="black" style="stroke:black;stroke-opacity:1;" stroke-width="0.3"/>
<path id="Vector_57" d="M447.2 176.9L465.7 165.5L446.9 150.8" stroke="black" style="stroke:black;stroke-opacity:1;" stroke-width="0.3"/>
<path id="Vector_58" d="M426.5 175.2L449.2 163L430.5 148.2" stroke="black" style="stroke:black;stroke-opacity:1;" stroke-width="0.3"/>
<path id="Vector_59" d="M411.7 174.8L432.6 162.3L413.6 148.6M384.1 178.2L403.4 161.3L387.8 152.8" stroke="black" style="stroke:black;stroke-opacity:1;" stroke-width="0.3"/>
<path id="Vector_60" d="M375.5 179.3L390.5 163.2L378.5 158.7M396.9 176.4L415.9 161.2L400.7 150.8" stroke="black" style="stroke:black;stroke-opacity:1;" stroke-width="0.3"/>
<g id="Group">
<path id="Vector_61" fill-rule="evenodd" clip-rule="evenodd" d="M437.538 355.193L437.318 327.916L429.415 315.177C427.436 308.914 428.406 305.89 431.614 305.676C434.809 305.486 437.978 307.295 442.582 307.498C447.187 307.7 446.32 300.425 453.123 300.628C459.927 300.83 471.787 304.474 481.876 305.081C491.977 305.676 497.241 301.842 508.882 301.438C520.522 301.033 523.588 306.486 524.247 306.486C524.907 306.486 528.205 304.271 531.49 303.866C534.789 303.462 535.888 305.081 535.888 305.081C535.888 305.081 535.668 311.951 534.129 315.987C532.59 320.035 527.106 326.702 526.886 326.702C526.666 326.702 524.907 356.407 524.907 356.61C524.907 356.812 437.538 355.8 437.538 355.193Z" fill="#CC0000" stroke="black" style="fill:#CC0000;fill:color(display-p3 0.8000 0.0000 0.0000);fill-opacity:1;stroke:black;stroke-opacity:1;" stroke-width="0.165458"/>
<g id="Group_2">
<path id="Vector_62" fill-rule="evenodd" clip-rule="evenodd" d="M527.856 327.202C527.856 327.202 536.651 321.011 536.884 306.117C537.013 297.545 532.435 291.354 520.975 291.354C504.937 291.354 482.031 297.676 482.031 297.676V299.783C482.031 299.783 500.358 293.461 520.988 293.461C530.145 293.461 534.737 299.652 534.737 305.986C534.737 316.535 525.554 327.214 525.554 327.214V344.085H527.856V327.202Z" fill="#FFF100" stroke="black" style="fill:#FFF100;fill:color(display-p3 1.0000 0.9451 0.0000);fill-opacity:1;stroke:black;stroke-opacity:1;" stroke-width="0.165458"/>
<path id="Vector_63" fill-rule="evenodd" clip-rule="evenodd" d="M532.624 322.788C532.6 323.079 532.642 323.371 532.747 323.646C532.851 323.921 533.016 324.174 533.232 324.388C533.447 324.602 533.709 324.772 533.999 324.889C534.289 325.006 534.603 325.066 534.92 325.066C535.237 325.066 535.55 325.006 535.84 324.889C536.131 324.772 536.392 324.602 536.607 324.388C536.823 324.174 536.988 323.921 537.093 323.646C537.197 323.371 537.239 323.079 537.215 322.788C537.172 322.255 536.911 321.756 536.485 321.393C536.06 321.029 535.5 320.827 534.92 320.827C534.339 320.827 533.78 321.029 533.354 321.393C532.928 321.756 532.667 322.255 532.624 322.788Z" fill="white" stroke="black" style="fill:white;fill-opacity:1;stroke:black;stroke-opacity:1;" stroke-width="0.165458"/>
<path id="Vector_64" fill-rule="evenodd" clip-rule="evenodd" d="M534.924 317.988C534.9 318.279 534.942 318.571 535.047 318.846C535.151 319.122 535.316 319.374 535.532 319.588C535.747 319.802 536.009 319.972 536.299 320.089C536.589 320.206 536.903 320.266 537.22 320.266C537.537 320.266 537.85 320.206 538.14 320.089C538.431 319.972 538.692 319.802 538.908 319.588C539.123 319.374 539.288 319.122 539.393 318.846C539.497 318.571 539.539 318.279 539.516 317.988C539.472 317.455 539.211 316.956 538.786 316.593C538.36 316.229 537.8 316.027 537.22 316.027C536.639 316.027 536.08 316.229 535.654 316.593C535.228 316.956 534.967 317.455 534.924 317.988Z" fill="white" stroke="black" style="fill:white;fill-opacity:1;stroke:black;stroke-opacity:1;" stroke-width="0.165458"/>
<path id="Vector_65" fill-rule="evenodd" clip-rule="evenodd" d="M536.124 312.988C536.1 313.279 536.142 313.571 536.247 313.846C536.351 314.122 536.516 314.374 536.732 314.588C536.947 314.802 537.209 314.972 537.499 315.089C537.789 315.206 538.103 315.266 538.42 315.266C538.737 315.266 539.05 315.206 539.34 315.089C539.631 314.972 539.892 314.802 540.107 314.588C540.323 314.374 540.488 314.122 540.593 313.846C540.697 313.571 540.739 313.279 540.715 312.988C540.672 312.455 540.411 311.956 539.985 311.593C539.56 311.229 539 311.027 538.42 311.027C537.839 311.027 537.28 311.229 536.854 311.593C536.428 311.956 536.167 312.455 536.124 312.988Z" fill="white" stroke="black" style="fill:white;fill-opacity:1;stroke:black;stroke-opacity:1;" stroke-width="0.165458"/>
<path id="Vector_66" fill-rule="evenodd" clip-rule="evenodd" d="M537.024 307.788C537 308.079 537.042 308.371 537.146 308.646C537.251 308.921 537.416 309.174 537.632 309.388C537.847 309.602 538.108 309.772 538.399 309.889C538.689 310.006 539.003 310.066 539.32 310.066C539.636 310.066 539.95 310.006 540.24 309.889C540.531 309.772 540.792 309.602 541.007 309.388C541.223 309.174 541.388 308.921 541.493 308.646C541.597 308.371 541.639 308.079 541.615 307.788C541.572 307.255 541.311 306.756 540.885 306.393C540.46 306.029 539.9 305.827 539.32 305.827C538.739 305.827 538.18 306.029 537.754 306.393C537.328 306.756 537.067 307.255 537.024 307.788Z" fill="white" stroke="black" style="fill:white;fill-opacity:1;stroke:black;stroke-opacity:1;" stroke-width="0.165458"/>
<path id="Vector_67" fill-rule="evenodd" clip-rule="evenodd" d="M536.824 302.188C536.8 302.479 536.842 302.771 536.946 303.046C537.051 303.321 537.216 303.574 537.432 303.788C537.647 304.002 537.908 304.172 538.199 304.289C538.489 304.406 538.803 304.466 539.12 304.466C539.436 304.466 539.75 304.406 540.04 304.289C540.331 304.172 540.592 304.002 540.807 303.788C541.023 303.574 541.188 303.321 541.293 303.046C541.397 302.771 541.439 302.479 541.415 302.188C541.372 301.655 541.111 301.156 540.685 300.793C540.26 300.429 539.7 300.227 539.12 300.227C538.539 300.227 537.98 300.429 537.554 300.793C537.128 301.156 536.867 301.655 536.824 302.188Z" fill="white" stroke="black" style="fill:white;fill-opacity:1;stroke:black;stroke-opacity:1;" stroke-width="0.165458"/>
<path id="Vector_68" fill-rule="evenodd" clip-rule="evenodd" d="M529.324 327.088C529.3 327.379 529.342 327.671 529.446 327.946C529.551 328.222 529.716 328.474 529.932 328.688C530.147 328.902 530.408 329.072 530.699 329.189C530.989 329.306 531.303 329.366 531.62 329.366C531.936 329.366 532.25 329.306 532.54 329.189C532.831 329.072 533.092 328.902 533.307 328.688C533.523 328.474 533.688 328.222 533.793 327.946C533.897 327.671 533.939 327.379 533.915 327.088C533.872 326.555 533.611 326.056 533.185 325.693C532.76 325.329 532.2 325.127 531.62 325.127C531.039 325.127 530.48 325.329 530.054 325.693C529.628 326.056 529.367 326.555 529.324 327.088Z" fill="white" stroke="black" style="fill:white;fill-opacity:1;stroke:black;stroke-opacity:1;" stroke-width="0.165458"/>
<path id="Vector_69" fill-rule="evenodd" clip-rule="evenodd" d="M534.824 296.788C534.8 297.079 534.842 297.371 534.946 297.646C535.051 297.921 535.216 298.174 535.432 298.388C535.647 298.602 535.908 298.772 536.199 298.889C536.489 299.006 536.803 299.066 537.12 299.066C537.436 299.066 537.75 299.006 538.04 298.889C538.331 298.772 538.592 298.602 538.807 298.388C539.023 298.174 539.188 297.921 539.293 297.646C539.397 297.371 539.439 297.079 539.415 296.788C539.372 296.255 539.111 295.756 538.685 295.393C538.26 295.029 537.7 294.827 537.12 294.827C536.539 294.827 535.98 295.029 535.554 295.393C535.128 295.756 534.867 296.255 534.824 296.788Z" fill="white" stroke="black" style="fill:white;fill-opacity:1;stroke:black;stroke-opacity:1;" stroke-width="0.165458"/>
<path id="Vector_70" fill-rule="evenodd" clip-rule="evenodd" d="M530.624 292.488C530.6 292.779 530.642 293.071 530.747 293.346C530.851 293.622 531.016 293.874 531.232 294.088C531.447 294.302 531.709 294.472 531.999 294.589C532.289 294.706 532.603 294.766 532.92 294.766C533.237 294.766 533.55 294.706 533.84 294.589C534.131 294.472 534.392 294.302 534.607 294.088C534.823 293.874 534.988 293.622 535.093 293.346C535.197 293.071 535.239 292.779 535.215 292.488C535.172 291.955 534.911 291.456 534.485 291.093C534.06 290.729 533.5 290.527 532.92 290.527C532.339 290.527 531.78 290.729 531.354 291.093C530.928 291.456 530.667 291.955 530.624 292.488Z" fill="white" stroke="black" style="fill:white;fill-opacity:1;stroke:black;stroke-opacity:1;" stroke-width="0.165458"/>
<path id="Vector_71" fill-rule="evenodd" clip-rule="evenodd" d="M524.924 289.688C524.9 289.979 524.942 290.271 525.047 290.546C525.151 290.821 525.316 291.074 525.532 291.288C525.747 291.502 526.009 291.672 526.299 291.789C526.589 291.906 526.903 291.966 527.22 291.966C527.537 291.966 527.85 291.906 528.14 291.789C528.431 291.672 528.692 291.502 528.908 291.288C529.123 291.074 529.288 290.821 529.393 290.546C529.497 290.271 529.539 289.979 529.516 289.688C529.472 289.155 529.211 288.656 528.786 288.293C528.36 287.929 527.8 287.727 527.22 287.727C526.639 287.727 526.08 287.929 525.654 288.293C525.228 288.656 524.967 289.155 524.924 289.688Z" fill="white" stroke="black" style="fill:white;fill-opacity:1;stroke:black;stroke-opacity:1;" stroke-width="0.165458"/>
<path id="Vector_72" fill-rule="evenodd" clip-rule="evenodd" d="M519.124 289.288C519.1 289.579 519.142 289.871 519.247 290.146C519.351 290.421 519.516 290.674 519.732 290.888C519.947 291.102 520.209 291.272 520.499 291.389C520.789 291.506 521.103 291.566 521.42 291.566C521.737 291.566 522.05 291.506 522.34 291.389C522.631 291.272 522.892 291.102 523.107 290.888C523.323 290.674 523.488 290.421 523.593 290.146C523.697 289.871 523.739 289.579 523.715 289.288C523.672 288.755 523.411 288.256 522.985 287.893C522.56 287.529 522 287.327 521.42 287.327C520.839 287.327 520.28 287.529 519.854 287.893C519.428 288.256 519.167 288.755 519.124 289.288Z" fill="white" stroke="black" style="fill:white;fill-opacity:1;stroke:black;stroke-opacity:1;" stroke-width="0.165458"/>
<path id="Vector_73" fill-rule="evenodd" clip-rule="evenodd" d="M513.124 289.388C513.1 289.679 513.142 289.971 513.247 290.246C513.351 290.522 513.516 290.774 513.732 290.988C513.947 291.202 514.209 291.372 514.499 291.489C514.789 291.606 515.103 291.666 515.42 291.666C515.737 291.666 516.05 291.606 516.34 291.489C516.631 291.372 516.892 291.202 517.107 290.988C517.323 290.774 517.488 290.522 517.593 290.246C517.697 289.971 517.739 289.679 517.715 289.388C517.672 288.855 517.411 288.356 516.985 287.993C516.56 287.629 516 287.427 515.42 287.427C514.839 287.427 514.28 287.629 513.854 287.993C513.428 288.356 513.167 288.855 513.124 289.388Z" fill="white" stroke="black" style="fill:white;fill-opacity:1;stroke:black;stroke-opacity:1;" stroke-width="0.165458"/>
<path id="Vector_74" fill-rule="evenodd" clip-rule="evenodd" d="M506.924 290.388C506.9 290.679 506.942 290.971 507.047 291.246C507.151 291.522 507.316 291.774 507.532 291.988C507.747 292.202 508.009 292.372 508.299 292.489C508.589 292.606 508.903 292.666 509.22 292.666C509.537 292.666 509.85 292.606 510.14 292.489C510.431 292.372 510.692 292.202 510.908 291.988C511.123 291.774 511.288 291.522 511.393 291.246C511.497 290.971 511.539 290.679 511.516 290.388C511.472 289.855 511.211 289.356 510.786 288.993C510.36 288.629 509.8 288.427 509.22 288.427C508.639 288.427 508.08 288.629 507.654 288.993C507.228 289.356 506.967 289.855 506.924 290.388Z" fill="white" stroke="black" style="fill:white;fill-opacity:1;stroke:black;stroke-opacity:1;" stroke-width="0.165458"/>
<path id="Vector_75" fill-rule="evenodd" clip-rule="evenodd" d="M500.824 291.088C500.8 291.379 500.842 291.671 500.946 291.946C501.051 292.222 501.216 292.474 501.432 292.688C501.647 292.902 501.908 293.072 502.199 293.189C502.489 293.306 502.803 293.366 503.12 293.366C503.436 293.366 503.75 293.306 504.04 293.189C504.331 293.072 504.592 292.902 504.807 292.688C505.023 292.474 505.188 292.222 505.293 291.946C505.397 291.671 505.439 291.379 505.415 291.088C505.372 290.555 505.111 290.056 504.685 289.693C504.26 289.329 503.7 289.127 503.12 289.127C502.539 289.127 501.98 289.329 501.554 289.693C501.128 290.056 500.867 290.555 500.824 291.088Z" fill="white" stroke="black" style="fill:white;fill-opacity:1;stroke:black;stroke-opacity:1;" stroke-width="0.165458"/>
<path id="Vector_76" fill-rule="evenodd" clip-rule="evenodd" d="M494.124 291.988C494.1 292.279 494.142 292.571 494.247 292.846C494.351 293.122 494.516 293.374 494.732 293.588C494.947 293.802 495.209 293.972 495.499 294.089C495.789 294.206 496.103 294.266 496.42 294.266C496.737 294.266 497.05 294.206 497.34 294.089C497.631 293.972 497.892 293.802 498.107 293.588C498.323 293.374 498.488 293.122 498.593 292.846C498.697 292.571 498.739 292.279 498.715 291.988C498.672 291.455 498.411 290.956 497.985 290.593C497.56 290.229 497 290.027 496.42 290.027C495.839 290.027 495.28 290.229 494.854 290.593C494.428 290.956 494.167 291.455 494.124 291.988Z" fill="white" stroke="black" style="fill:white;fill-opacity:1;stroke:black;stroke-opacity:1;" stroke-width="0.165458"/>
<path id="Vector_77" fill-rule="evenodd" clip-rule="evenodd" d="M488.524 293.488C488.5 293.779 488.542 294.071 488.646 294.346C488.751 294.622 488.916 294.874 489.132 295.088C489.347 295.302 489.608 295.472 489.899 295.589C490.189 295.706 490.503 295.766 490.82 295.766C491.136 295.766 491.45 295.706 491.74 295.589C492.031 295.472 492.292 295.302 492.507 295.088C492.723 294.874 492.888 294.622 492.993 294.346C493.097 294.071 493.139 293.779 493.115 293.488C493.072 292.955 492.811 292.456 492.385 292.093C491.96 291.729 491.4 291.527 490.82 291.527C490.239 291.527 489.68 291.729 489.254 292.093C488.828 292.456 488.567 292.955 488.524 293.488Z" fill="white" stroke="black" style="fill:white;fill-opacity:1;stroke:black;stroke-opacity:1;" stroke-width="0.165458"/>
</g>
<path id="Vector_78" fill-rule="evenodd" clip-rule="evenodd" d="M431.376 322.788C431.4 323.079 431.358 323.371 431.254 323.646C431.149 323.921 430.984 324.174 430.768 324.388C430.553 324.602 430.292 324.772 430.001 324.889C429.711 325.006 429.397 325.066 429.081 325.066C428.764 325.066 428.45 325.006 428.16 324.889C427.869 324.772 427.608 324.602 427.393 324.388C427.177 324.174 427.012 323.921 426.907 323.646C426.803 323.371 426.761 323.079 426.785 322.788C426.828 322.255 427.089 321.756 427.515 321.393C427.941 321.029 428.5 320.827 429.081 320.827C429.661 320.827 430.221 321.029 430.646 321.393C431.072 321.756 431.333 322.255 431.376 322.788Z" fill="white" stroke="black" style="fill:white;fill-opacity:1;stroke:black;stroke-opacity:1;" stroke-width="0.165458"/>
<path id="Vector_79" fill-rule="evenodd" clip-rule="evenodd" d="M429.076 317.988C429.1 318.279 429.058 318.571 428.954 318.846C428.849 319.122 428.684 319.374 428.468 319.588C428.253 319.802 427.992 319.972 427.701 320.089C427.411 320.206 427.097 320.266 426.781 320.266C426.464 320.266 426.15 320.206 425.86 320.089C425.569 319.972 425.308 319.802 425.093 319.588C424.877 319.374 424.712 319.122 424.607 318.846C424.503 318.571 424.461 318.279 424.485 317.988C424.528 317.455 424.789 316.956 425.215 316.593C425.64 316.229 426.2 316.027 426.781 316.027C427.361 316.027 427.921 316.229 428.346 316.593C428.772 316.956 429.033 317.455 429.076 317.988Z" fill="white" stroke="black" style="fill:white;fill-opacity:1;stroke:black;stroke-opacity:1;" stroke-width="0.165458"/>
<path id="Vector_80" fill-rule="evenodd" clip-rule="evenodd" d="M427.876 312.988C427.9 313.279 427.858 313.571 427.754 313.846C427.649 314.122 427.484 314.374 427.268 314.588C427.053 314.802 426.792 314.972 426.501 315.089C426.211 315.206 425.897 315.266 425.581 315.266C425.264 315.266 424.95 315.206 424.66 315.089C424.369 314.972 424.108 314.802 423.893 314.588C423.677 314.374 423.512 314.122 423.407 313.846C423.303 313.571 423.261 313.279 423.285 312.988C423.328 312.455 423.589 311.956 424.015 311.593C424.441 311.229 425 311.027 425.581 311.027C426.161 311.027 426.721 311.229 427.146 311.593C427.572 311.956 427.833 312.455 427.876 312.988Z" fill="white" stroke="black" style="fill:white;fill-opacity:1;stroke:black;stroke-opacity:1;" stroke-width="0.165458"/>
<path id="Vector_81" fill-rule="evenodd" clip-rule="evenodd" d="M427.076 307.788C427.1 308.079 427.058 308.371 426.954 308.646C426.849 308.921 426.684 309.174 426.468 309.388C426.253 309.602 425.992 309.772 425.701 309.889C425.411 310.006 425.097 310.066 424.781 310.066C424.464 310.066 424.15 310.006 423.86 309.889C423.569 309.772 423.308 309.602 423.093 309.388C422.877 309.174 422.712 308.921 422.607 308.646C422.503 308.371 422.461 308.079 422.485 307.788C422.528 307.255 422.789 306.756 423.215 306.393C423.64 306.029 424.2 305.827 424.781 305.827C425.361 305.827 425.921 306.029 426.346 306.393C426.772 306.756 427.033 307.255 427.076 307.788Z" fill="white" stroke="black" style="fill:white;fill-opacity:1;stroke:black;stroke-opacity:1;" stroke-width="0.165458"/>
<path id="Vector_82" fill-rule="evenodd" clip-rule="evenodd" d="M427.276 302.188C427.3 302.479 427.258 302.771 427.154 303.046C427.049 303.321 426.884 303.574 426.668 303.788C426.453 304.002 426.192 304.172 425.901 304.289C425.611 304.406 425.297 304.466 424.98 304.466C424.664 304.466 424.35 304.406 424.06 304.289C423.769 304.172 423.508 304.002 423.293 303.788C423.077 303.574 422.912 303.321 422.807 303.046C422.703 302.771 422.661 302.479 422.685 302.188C422.728 301.655 422.989 301.156 423.415 300.793C423.84 300.429 424.4 300.227 424.98 300.227C425.561 300.227 426.121 300.429 426.546 300.793C426.972 301.156 427.233 301.655 427.276 302.188Z" fill="white" stroke="black" style="fill:white;fill-opacity:1;stroke:black;stroke-opacity:1;" stroke-width="0.165458"/>
<path id="Vector_83" fill-rule="evenodd" clip-rule="evenodd" d="M429.176 296.788C429.2 297.079 429.158 297.371 429.054 297.646C428.949 297.921 428.784 298.174 428.568 298.388C428.353 298.602 428.092 298.772 427.801 298.889C427.511 299.006 427.197 299.066 426.881 299.066C426.564 299.066 426.25 299.006 425.96 298.889C425.669 298.772 425.408 298.602 425.193 298.388C424.977 298.174 424.812 297.921 424.707 297.646C424.603 297.371 424.561 297.079 424.585 296.788C424.628 296.255 424.889 295.756 425.315 295.393C425.741 295.029 426.3 294.827 426.881 294.827C427.461 294.827 428.021 295.029 428.446 295.393C428.872 295.756 429.133 296.255 429.176 296.788Z" fill="white" stroke="black" style="fill:white;fill-opacity:1;stroke:black;stroke-opacity:1;" stroke-width="0.165458"/>
<path id="Vector_84" fill-rule="evenodd" clip-rule="evenodd" d="M433.276 292.488C433.3 292.779 433.258 293.071 433.154 293.346C433.049 293.622 432.884 293.874 432.668 294.088C432.453 294.302 432.192 294.472 431.901 294.589C431.611 294.706 431.297 294.766 430.98 294.766C430.664 294.766 430.35 294.706 430.06 294.589C429.769 294.472 429.508 294.302 429.293 294.088C429.077 293.874 428.912 293.622 428.807 293.346C428.703 293.071 428.661 292.779 428.685 292.488C428.728 291.955 428.989 291.456 429.415 291.093C429.84 290.729 430.4 290.527 430.98 290.527C431.561 290.527 432.121 290.729 432.546 291.093C432.972 291.456 433.233 291.955 433.276 292.488Z" fill="white" stroke="black" style="fill:white;fill-opacity:1;stroke:black;stroke-opacity:1;" stroke-width="0.165458"/>
<path id="Vector_85" fill-rule="evenodd" clip-rule="evenodd" d="M439.076 289.688C439.1 289.979 439.058 290.271 438.954 290.546C438.849 290.821 438.684 291.074 438.468 291.288C438.253 291.502 437.992 291.672 437.701 291.789C437.411 291.906 437.097 291.966 436.781 291.966C436.464 291.966 436.15 291.906 435.86 291.789C435.569 291.672 435.308 291.502 435.093 291.288C434.877 291.074 434.712 290.821 434.607 290.546C434.503 290.271 434.461 289.979 434.485 289.688C434.528 289.155 434.789 288.656 435.215 288.293C435.64 287.929 436.2 287.727 436.781 287.727C437.361 287.727 437.921 287.929 438.346 288.293C438.772 288.656 439.033 289.155 439.076 289.688Z" fill="white" stroke="black" style="fill:white;fill-opacity:1;stroke:black;stroke-opacity:1;" stroke-width="0.165458"/>
<path id="Vector_86" fill-rule="evenodd" clip-rule="evenodd" d="M444.776 289.288C444.8 289.579 444.758 289.871 444.654 290.146C444.549 290.421 444.384 290.674 444.168 290.888C443.953 291.102 443.692 291.272 443.401 291.389C443.111 291.506 442.797 291.566 442.48 291.566C442.164 291.566 441.85 291.506 441.56 291.389C441.269 291.272 441.008 291.102 440.793 290.888C440.577 290.674 440.412 290.421 440.307 290.146C440.203 289.871 440.161 289.579 440.185 289.288C440.228 288.755 440.489 288.256 440.915 287.893C441.34 287.529 441.9 287.327 442.48 287.327C443.061 287.327 443.621 287.529 444.046 287.893C444.472 288.256 444.733 288.755 444.776 289.288Z" fill="white" stroke="black" style="fill:white;fill-opacity:1;stroke:black;stroke-opacity:1;" stroke-width="0.165458"/>
<path id="Vector_87" fill-rule="evenodd" clip-rule="evenodd" d="M450.876 289.388C450.9 289.679 450.858 289.971 450.754 290.246C450.649 290.522 450.484 290.774 450.268 290.988C450.053 291.202 449.792 291.372 449.501 291.489C449.211 291.606 448.897 291.666 448.581 291.666C448.264 291.666 447.95 291.606 447.66 291.489C447.369 291.372 447.108 291.202 446.893 290.988C446.677 290.774 446.512 290.522 446.407 290.246C446.303 289.971 446.261 289.679 446.285 289.388C446.328 288.855 446.589 288.356 447.015 287.993C447.441 287.629 448 287.427 448.581 287.427C449.161 287.427 449.721 287.629 450.146 287.993C450.572 288.356 450.833 288.855 450.876 289.388Z" fill="white" stroke="black" style="fill:white;fill-opacity:1;stroke:black;stroke-opacity:1;" stroke-width="0.165458"/>
<path id="Vector_88" fill-rule="evenodd" clip-rule="evenodd" d="M457.076 290.388C457.1 290.679 457.058 290.971 456.954 291.246C456.849 291.522 456.684 291.774 456.468 291.988C456.253 292.202 455.992 292.372 455.701 292.489C455.411 292.606 455.097 292.666 454.781 292.666C454.464 292.666 454.15 292.606 453.86 292.489C453.569 292.372 453.308 292.202 453.093 291.988C452.877 291.774 452.712 291.522 452.607 291.246C452.503 290.971 452.461 290.679 452.485 290.388C452.528 289.855 452.789 289.356 453.215 288.993C453.64 288.629 454.2 288.427 454.781 288.427C455.361 288.427 455.921 288.629 456.346 288.993C456.772 289.356 457.033 289.855 457.076 290.388Z" fill="white" stroke="black" style="fill:white;fill-opacity:1;stroke:black;stroke-opacity:1;" stroke-width="0.165458"/>
<path id="Vector_89" fill-rule="evenodd" clip-rule="evenodd" d="M463.276 291.088C463.3 291.379 463.258 291.671 463.154 291.946C463.049 292.222 462.884 292.474 462.668 292.688C462.453 292.902 462.192 293.072 461.901 293.189C461.611 293.306 461.297 293.366 460.98 293.366C460.664 293.366 460.35 293.306 460.06 293.189C459.769 293.072 459.508 292.902 459.293 292.688C459.077 292.474 458.912 292.222 458.807 291.946C458.703 291.671 458.661 291.379 458.685 291.088C458.728 290.555 458.989 290.056 459.415 289.693C459.84 289.329 460.4 289.127 460.98 289.127C461.561 289.127 462.121 289.329 462.546 289.693C462.972 290.056 463.233 290.555 463.276 291.088Z" fill="white" stroke="black" style="fill:white;fill-opacity:1;stroke:black;stroke-opacity:1;" stroke-width="0.165458"/>
<path id="Vector_90" fill-rule="evenodd" clip-rule="evenodd" d="M469.776 291.988C469.8 292.279 469.758 292.571 469.654 292.846C469.549 293.122 469.384 293.374 469.168 293.588C468.953 293.802 468.692 293.972 468.401 294.089C468.111 294.206 467.797 294.266 467.48 294.266C467.164 294.266 466.85 294.206 466.56 294.089C466.269 293.972 466.008 293.802 465.793 293.588C465.577 293.374 465.412 293.122 465.307 292.846C465.203 292.571 465.161 292.279 465.185 291.988C465.228 291.455 465.489 290.956 465.915 290.593C466.34 290.229 466.9 290.027 467.48 290.027C468.061 290.027 468.621 290.229 469.046 290.593C469.472 290.956 469.733 291.455 469.776 291.988Z" fill="white" stroke="black" style="fill:white;fill-opacity:1;stroke:black;stroke-opacity:1;" stroke-width="0.165458"/>
<path id="Vector_91" fill-rule="evenodd" clip-rule="evenodd" d="M475.476 293.488C475.5 293.779 475.458 294.071 475.354 294.346C475.249 294.622 475.084 294.874 474.868 295.088C474.653 295.302 474.392 295.472 474.101 295.589C473.811 295.706 473.498 295.766 473.181 295.766C472.864 295.766 472.55 295.706 472.26 295.589C471.97 295.472 471.708 295.302 471.493 295.088C471.277 294.874 471.112 294.622 471.008 294.346C470.903 294.071 470.861 293.779 470.885 293.488C470.928 292.955 471.189 292.456 471.615 292.093C472.041 291.729 472.6 291.527 473.181 291.527C473.761 291.527 474.321 291.729 474.746 292.093C475.172 292.456 475.433 292.955 475.476 293.488Z" fill="white" stroke="black" style="fill:white;fill-opacity:1;stroke:black;stroke-opacity:1;" stroke-width="0.165458"/>
<path id="Vector_92" fill-rule="evenodd" clip-rule="evenodd" d="M434.676 327.088C434.7 327.379 434.658 327.671 434.554 327.946C434.449 328.222 434.284 328.474 434.068 328.688C433.853 328.902 433.592 329.072 433.301 329.189C433.011 329.306 432.697 329.366 432.381 329.366C432.064 329.366 431.75 329.306 431.46 329.189C431.169 329.072 430.908 328.902 430.693 328.688C430.477 328.474 430.312 328.222 430.207 327.946C430.103 327.671 430.061 327.379 430.085 327.088C430.128 326.555 430.389 326.056 430.815 325.693C431.241 325.329 431.8 325.127 432.381 325.127C432.961 325.127 433.521 325.329 433.946 325.693C434.372 326.056 434.633 326.555 434.676 327.088Z" fill="white" stroke="black" style="fill:white;fill-opacity:1;stroke:black;stroke-opacity:1;" stroke-width="0.165458"/>
<path id="Vector_93" fill-rule="evenodd" clip-rule="evenodd" d="M436.244 327.202C436.244 327.202 427.449 321.011 427.216 306.117C427.087 297.545 431.666 291.354 443.125 291.354C459.163 291.354 482.069 297.676 482.069 297.676V299.783C482.069 299.783 463.742 293.461 443.112 293.461C433.955 293.461 429.363 299.652 429.363 305.986C429.363 316.535 438.546 327.214 438.546 327.214V344.085H436.244V327.202Z" fill="#FFF100" stroke="black" style="fill:#FFF100;fill:color(display-p3 1.0000 0.9451 0.0000);fill-opacity:1;stroke:black;stroke-opacity:1;" stroke-width="0.165458"/>
<path id="Vector_94" fill-rule="evenodd" clip-rule="evenodd" d="M452.165 335.009C452.165 335.009 452.825 333.403 455.222 333.403C456.851 333.403 458.274 335.009 458.274 336.615V339.831H459.804V336.615C459.804 335.009 461.33 333.403 462.856 333.403C465.15 333.403 465.913 335.009 465.913 335.009C465.913 335.009 465.913 330.187 462.856 330.187C460.567 330.187 459.804 331.793 459.804 331.793C459.804 331.793 460.567 329.384 460.567 326.971C460.567 324.558 459.041 322.952 459.041 322.952C459.041 323.261 457.511 324.562 457.511 326.971C457.511 329.38 458.274 331.793 458.274 331.793C458.274 331.793 457.511 330.187 455.222 330.187C452.165 330.187 452.165 335.009 452.165 335.009Z" fill="#FFF100" stroke="black" style="fill:#FFF100;fill:color(display-p3 1.0000 0.9451 0.0000);fill-opacity:1;stroke:black;stroke-opacity:1;" stroke-width="0.132662"/>
<path id="Vector_95" fill-rule="evenodd" clip-rule="evenodd" d="M497.965 335.009C497.965 335.009 498.625 333.403 501.022 333.403C502.651 333.403 504.074 335.009 504.074 336.615V339.831H505.604V336.615C505.604 335.009 507.13 333.403 508.656 333.403C510.95 333.403 511.713 335.009 511.713 335.009C511.713 335.009 511.713 330.187 508.656 330.187C506.367 330.187 505.604 331.793 505.604 331.793C505.604 331.793 506.367 329.384 506.367 326.971C506.367 324.558 504.841 322.952 504.841 322.952C504.841 323.261 503.311 324.562 503.311 326.971C503.311 329.38 504.074 331.793 504.074 331.793C504.074 331.793 503.311 330.187 501.022 330.187C497.965 330.187 497.965 335.009 497.965 335.009Z" fill="#FFF100" stroke="black" style="fill:#FFF100;fill:color(display-p3 1.0000 0.9451 0.0000);fill-opacity:1;stroke:black;stroke-opacity:1;" stroke-width="0.132662"/>
<path id="Vector_96" fill-rule="evenodd" clip-rule="evenodd" d="M436.244 356.741V337.751C436.244 337.751 440.823 344.085 447.704 344.085C453.33 344.085 459.163 335.644 459.163 335.644C459.163 335.644 464.531 341.978 470.623 341.978C476.055 341.978 482.069 333.81 482.069 333.81C482.069 333.81 487.657 341.978 493.529 341.978C499.414 341.978 504.988 335.644 504.988 335.644C504.988 335.644 510.977 344.085 518.737 344.085C525.605 344.085 527.907 337.751 527.907 337.751V356.741H436.244Z" fill="#FFF100" stroke="black" style="fill:#FFF100;fill:color(display-p3 1.0000 0.9451 0.0000);fill-opacity:1;stroke:black;stroke-opacity:1;" stroke-width="0.165458"/>
<path id="Vector_97" fill-rule="evenodd" clip-rule="evenodd" d="M436.163 356.741V341.978C436.163 341.978 449.912 346.181 449.912 356.741H436.163Z" fill="#FFF100" stroke="black" style="fill:#FFF100;fill:color(display-p3 1.0000 0.9451 0.0000);fill-opacity:1;stroke:black;stroke-opacity:1;" stroke-width="0.165458"/>
<path id="Vector_98" fill-rule="evenodd" clip-rule="evenodd" d="M527.737 356.741V341.978C527.737 341.978 513.988 346.181 513.988 356.741H527.737Z" fill="#FFF100" stroke="black" style="fill:#FFF100;fill:color(display-p3 1.0000 0.9451 0.0000);fill-opacity:1;stroke:black;stroke-opacity:1;" stroke-width="0.165458"/>
<path id="Vector_99" fill-rule="evenodd" clip-rule="evenodd" d="M445.415 356.741C445.415 346.181 459.163 339.513 459.163 339.513C459.163 339.513 472.912 346.181 472.912 356.741H445.415Z" fill="#FFF100" stroke="black" style="fill:#FFF100;fill:color(display-p3 1.0000 0.9451 0.0000);fill-opacity:1;stroke:black;stroke-opacity:1;" stroke-width="0.165458"/>
<path id="Vector_100" fill-rule="evenodd" clip-rule="evenodd" d="M491.214 356.741C491.214 346.181 504.963 339.513 504.963 339.513C504.963 339.513 518.712 346.181 518.712 356.741H491.214Z" fill="#FFF100" stroke="black" style="fill:#FFF100;fill:color(display-p3 1.0000 0.9451 0.0000);fill-opacity:1;stroke:black;stroke-opacity:1;" stroke-width="0.165458"/>
<path id="Vector_101" fill-rule="evenodd" clip-rule="evenodd" d="M466.012 356.803C466.012 346.255 482.063 337.825 482.063 337.825C482.063 337.825 498.101 346.255 498.101 356.803H466.025H466.012Z" fill="#FFF100" stroke="black" style="fill:#FFF100;fill:color(display-p3 1.0000 0.9451 0.0000);fill-opacity:1;stroke:black;stroke-opacity:1;" stroke-width="0.165458"/>
<path id="Vector_102" fill-rule="evenodd" clip-rule="evenodd" d="M530.124 356.744C525.597 354.636 508.896 352.529 482.003 352.529C455.109 352.529 437.245 354.636 432.705 356.744C428.178 358.851 428.178 363.078 432.705 365.185C437.232 367.293 455.122 369.4 482.003 369.4C508.883 369.4 525.597 367.293 530.124 365.185C534.651 363.078 534.651 358.851 530.124 356.744Z" fill="white" stroke="black" style="fill:white;fill-opacity:1;stroke:black;stroke-opacity:1;" stroke-width="0.164522"/>
<path id="Vector_103" fill-rule="evenodd" clip-rule="evenodd" d="M527.9 365.2C527.9 369.4 489.7 369.4 482 369.4C473.7 369.4 436.2 370.6 436.2 365.2C436.2 361 474 361 482 361C490 361 527.9 361.8 527.9 365.2Z" fill="#808080" style="fill:#808080;fill:color(display-p3 0.5020 0.5020 0.5020);fill-opacity:1;"/>
<path id="Vector_104" fill-rule="evenodd" clip-rule="evenodd" d="M440.8 350C440.8 351.4 439.8 352.6 438.5 352.6C437.2 352.6 436.2 351.4 436.2 350C436.2 348.6 437.2 347.5 438.5 347.5C439.8 347.5 440.8 348.7 440.8 350ZM527.8 350C527.8 351.4 526.8 352.6 525.5 352.6C524.2 352.6 523.2 351.4 523.2 350C523.2 348.6 524.2 347.5 525.5 347.5C526.8 347.5 527.8 348.7 527.8 350Z" fill="#CC0000" style="fill:#CC0000;fill:color(display-p3 0.8000 0.0000 0.0000);fill-opacity:1;"/>
<path id="Vector_105" fill-rule="evenodd" clip-rule="evenodd" d="M486.6 348.8C486.6 350.1 484.5 351.2 482 351.2C479.5 351.2 477.4 350.1 477.4 348.7C477.4 347.3 479.4 346.2 482 346.2C484.6 346.2 486.6 347.4 486.6 348.7V348.8Z" fill="black" style="fill:black;fill-opacity:1;"/>
<path id="Vector_106" fill-rule="evenodd" clip-rule="evenodd" d="M508.6 348.8C508.6 350.1 507 351.2 505.1 351.2C503.2 351.2 501.7 350.1 501.7 348.7C501.7 347.3 503.3 346.2 505.1 346.2C506.9 346.2 508.6 347.4 508.6 348.7V348.8ZM461.4 348.8C461.4 350.1 459.9 351.2 458 351.2C456.1 351.2 454.5 350.1 454.5 348.7C454.5 347.3 456 346.2 458 346.2C459.9 346.2 461.4 347.4 461.4 348.7V348.8Z" fill="#006300" style="fill:#006300;fill:color(display-p3 0.0000 0.3882 0.0000);fill-opacity:1;"/>
<path id="Vector_107" fill-rule="evenodd" clip-rule="evenodd" d="M472.859 334.248C472.859 334.248 475.475 330.642 478.098 330.642H480.715V333.044C480.715 336.663 476.79 337.874 476.79 337.874H487.262C487.262 337.874 483.331 336.663 483.331 333.044V330.642H485.954C488.57 330.642 491.186 334.261 491.186 334.261V324.607C491.186 324.607 488.57 328.226 485.954 328.226H483.331V325.811C483.331 322.198 487.262 320.994 487.262 320.994H476.783C476.783 320.994 480.707 322.198 480.707 325.811V328.226H478.091C475.468 328.226 472.852 324.607 472.852 324.607V334.255L472.859 334.248Z" fill="#FFF100" stroke="black" style="fill:#FFF100;fill:color(display-p3 1.0000 0.9451 0.0000);fill-opacity:1;stroke:black;stroke-opacity:1;" stroke-width="0.156001"/>
<path id="Vector_108" fill-rule="evenodd" clip-rule="evenodd" d="M436.075 341.994H438.696C438.696 341.994 436.729 340.94 436.729 337.773V335.672H438.038C439.35 335.672 440.662 338.839 440.662 338.839V330.391C440.662 330.391 439.35 333.558 438.038 333.558H436.729V331.445C436.729 328.284 438.696 327.23 438.696 327.23H436.075V341.994Z" fill="#FFF100" stroke="black" style="fill:#FFF100;fill:color(display-p3 1.0000 0.9451 0.0000);fill-opacity:1;stroke:black;stroke-opacity:1;" stroke-width="0.154792"/>
<path id="Vector_109" fill-rule="evenodd" clip-rule="evenodd" d="M527.925 341.994H525.305C525.305 341.994 527.271 340.94 527.271 337.773V335.672H525.962C524.65 335.672 523.338 338.839 523.338 338.839V330.391C523.338 330.391 524.65 333.558 525.962 333.558H527.271V331.445C527.271 328.284 525.305 327.23 525.305 327.23H527.925V341.994Z" fill="#FFF100" stroke="black" style="fill:#FFF100;fill:color(display-p3 1.0000 0.9451 0.0000);fill-opacity:1;stroke:black;stroke-opacity:1;" stroke-width="0.154792"/>
<path id="Vector_110" fill-rule="evenodd" clip-rule="evenodd" d="M484.359 329.322C484.359 329.881 484.117 330.417 483.688 330.812C483.259 331.207 482.677 331.429 482.069 331.429C481.462 331.429 480.88 331.207 480.451 330.812C480.021 330.417 479.78 329.881 479.78 329.322C479.78 328.763 480.021 328.227 480.451 327.832C480.88 327.436 481.462 327.214 482.069 327.214C482.677 327.214 483.259 327.436 483.688 327.832C484.117 328.227 484.359 328.763 484.359 329.322Z" fill="white" stroke="black" style="fill:white;fill-opacity:1;stroke:black;stroke-opacity:1;" stroke-width="0.165458"/>
<path id="Vector_111" fill-rule="evenodd" clip-rule="evenodd" d="M472.859 289.948C472.859 289.948 475.475 286.342 478.098 286.342H480.715V288.744C480.715 292.363 476.79 293.574 476.79 293.574H487.262C487.262 293.574 483.331 292.363 483.331 288.744V286.342H485.954C488.57 286.342 491.186 289.961 491.186 289.961V280.307C491.186 280.307 488.57 283.926 485.954 283.926H483.331V281.511C483.331 277.898 487.262 276.694 487.262 276.694H476.783C476.783 276.694 480.707 277.898 480.707 281.511V283.926H478.091C475.468 283.926 472.852 280.307 472.852 280.307V289.955L472.859 289.948Z" fill="#FFF100" stroke="black" style="fill:#FFF100;fill:color(display-p3 1.0000 0.9451 0.0000);fill-opacity:1;stroke:black;stroke-opacity:1;" stroke-width="0.156001"/>
<path id="Vector_112" fill-rule="evenodd" clip-rule="evenodd" d="M484.559 285.422C484.559 285.981 484.317 286.517 483.888 286.912C483.459 287.307 482.876 287.529 482.269 287.529C481.662 287.529 481.08 287.307 480.651 286.912C480.221 286.517 479.98 285.981 479.98 285.422C479.98 284.863 480.221 284.327 480.651 283.932C481.08 283.536 481.662 283.314 482.269 283.314C482.876 283.314 483.459 283.536 483.888 283.932C484.317 284.327 484.559 284.863 484.559 285.422Z" fill="white" stroke="black" style="fill:white;fill-opacity:1;stroke:black;stroke-opacity:1;" stroke-width="0.165458"/>
<path id="Vector_113" fill-rule="evenodd" clip-rule="evenodd" d="M477.491 293.544H486.661V299.878H477.478L477.491 293.544Z" fill="#FFF100" stroke="black" style="fill:#FFF100;fill:color(display-p3 1.0000 0.9451 0.0000);fill-opacity:1;stroke:black;stroke-opacity:1;" stroke-width="0.165458"/>
<path id="Vector_114" fill-rule="evenodd" clip-rule="evenodd" d="M477.491 296.854H486.661V320.963H477.478L477.491 296.854Z" fill="#FFF100" stroke="black" style="fill:#FFF100;fill:color(display-p3 1.0000 0.9451 0.0000);fill-opacity:1;stroke:black;stroke-opacity:1;" stroke-width="0.165458"/>
<path id="Vector_115" fill-rule="evenodd" clip-rule="evenodd" d="M484.276 316.588C484.3 316.879 484.258 317.171 484.154 317.446C484.049 317.722 483.884 317.974 483.668 318.188C483.453 318.402 483.192 318.572 482.901 318.689C482.611 318.806 482.297 318.866 481.98 318.866C481.664 318.866 481.35 318.806 481.06 318.689C480.769 318.572 480.508 318.402 480.293 318.188C480.077 317.974 479.912 317.722 479.807 317.446C479.703 317.171 479.661 316.879 479.685 316.588C479.728 316.055 479.989 315.556 480.415 315.193C480.84 314.829 481.4 314.627 481.98 314.627C482.561 314.627 483.121 314.829 483.546 315.193C483.972 315.556 484.233 316.055 484.276 316.588Z" fill="white" stroke="black" style="fill:white;fill-opacity:1;stroke:black;stroke-opacity:1;" stroke-width="0.165458"/>
<path id="Vector_116" fill-rule="evenodd" clip-rule="evenodd" d="M484.276 311.188C484.3 311.479 484.258 311.771 484.154 312.046C484.049 312.321 483.884 312.574 483.668 312.788C483.453 313.002 483.192 313.172 482.901 313.289C482.611 313.406 482.297 313.466 481.98 313.466C481.664 313.466 481.35 313.406 481.06 313.289C480.769 313.172 480.508 313.002 480.293 312.788C480.077 312.574 479.912 312.321 479.807 312.046C479.703 311.771 479.661 311.479 479.685 311.188C479.728 310.655 479.989 310.156 480.415 309.793C480.84 309.429 481.4 309.227 481.98 309.227C482.561 309.227 483.121 309.429 483.546 309.793C483.972 310.156 484.233 310.655 484.276 311.188Z" fill="white" stroke="black" style="fill:white;fill-opacity:1;stroke:black;stroke-opacity:1;" stroke-width="0.165458"/>
<path id="Vector_117" fill-rule="evenodd" clip-rule="evenodd" d="M484.276 306.188C484.3 306.479 484.258 306.771 484.154 307.046C484.049 307.321 483.884 307.574 483.668 307.788C483.453 308.002 483.192 308.172 482.901 308.289C482.611 308.406 482.297 308.466 481.98 308.466C481.664 308.466 481.35 308.406 481.06 308.289C480.769 308.172 480.508 308.002 480.293 307.788C480.077 307.574 479.912 307.321 479.807 307.046C479.703 306.771 479.661 306.479 479.685 306.188C479.728 305.655 479.989 305.156 480.415 304.793C480.84 304.429 481.4 304.227 481.98 304.227C482.561 304.227 483.121 304.429 483.546 304.793C483.972 305.156 484.233 305.655 484.276 306.188Z" fill="white" stroke="black" style="fill:white;fill-opacity:1;stroke:black;stroke-opacity:1;" stroke-width="0.165458"/>
<path id="Vector_118" fill-rule="evenodd" clip-rule="evenodd" d="M484.276 300.888C484.3 301.179 484.258 301.471 484.154 301.746C484.049 302.022 483.884 302.274 483.668 302.488C483.453 302.702 483.192 302.872 482.901 302.989C482.611 303.106 482.297 303.166 481.98 303.166C481.664 303.166 481.35 303.106 481.06 302.989C480.769 302.872 480.508 302.702 480.293 302.488C480.077 302.274 479.912 302.022 479.807 301.746C479.703 301.471 479.661 301.179 479.685 300.888C479.728 300.355 479.989 299.856 480.415 299.493C480.84 299.129 481.4 298.927 481.98 298.927C482.561 298.927 483.121 299.129 483.546 299.493C483.972 299.856 484.233 300.355 484.276 300.888Z" fill="white" stroke="black" style="fill:white;fill-opacity:1;stroke:black;stroke-opacity:1;" stroke-width="0.165458"/>
<path id="Vector_119" fill-rule="evenodd" clip-rule="evenodd" d="M486.9 356.8C486.9 357.8 484.8 358.5 482.1 358.5C479.4 358.5 477.6 357.8 477.6 356.8C477.6 355.8 479.6 355.1 482.2 355.1C484.8 355.1 486.9 355.9 486.9 356.8ZM529 361C528.7 361.7 526.4 361.8 523.9 361C521.3 360.5 519.5 359.6 519.7 359C520 358.2 522.3 358.2 524.8 358.8C527.4 359.4 529.2 360.3 529 361ZM511.3 358.2C511.3 359 509 359.5 506.3 359.4C503.8 359.2 501.7 358.4 501.8 357.4C501.9 356.6 504.2 356.2 506.8 356.4C509.4 356.6 511.5 357.3 511.3 358.2ZM433.8 361C434 361.7 436.3 361.8 438.8 361C441.4 360.5 443.3 359.6 443 359C442.7 358.2 440.5 358.2 438 358.8C435.4 359.4 433.6 360.3 433.8 361ZM452.3 357.8C452.4 358.6 454.7 359.1 457.3 358.9C459.9 358.7 462 357.9 461.8 357C461.8 356.3 459.5 355.7 456.8 355.9C454.3 356.1 452.2 356.9 452.3 357.8Z" fill="black" style="fill:black;fill-opacity:1;"/>
</g>
<path id="Vector_120" d="M0 0H320V240H0V0Z" fill="#012169" style="fill:#012169;fill:color(display-p3 0.0039 0.1294 0.4118);fill-opacity:1;"/>
<path id="Vector_121" d="M37.5 0L159.5 90.5L281 0H320V31L200 120.5L320 209.5V240H280L160 150.5L40.5 240H0V210L119.5 121L0 32V0H37.5Z" fill="white" style="fill:white;fill-opacity:1;"/>
<path id="Vector_122" d="M212 140.5L320 220V240L184.5 140.5H212ZM120 150.5L123 168L27 240H0L120 150.5ZM320 0V1.5L195.5 95.5L196.5 73.5L295 0H320ZM0 0L119.5 88H89.5L0 21V0Z" fill="#C8102E" style="fill:#C8102E;fill:color(display-p3 0.7843 0.0627 0.1804);fill-opacity:1;"/>
<path id="Vector_123" d="M120.5 0V240H200.5V0H120.5ZM0 80V160H320V80H0Z" fill="white" style="fill:white;fill-opacity:1;"/>
<path id="Vector_124" d="M0 96.5V144.5H320V96.5H0ZM136.5 0V240H184.5V0H136.5Z" fill="#C8102E" style="fill:#C8102E;fill:color(display-p3 0.7843 0.0627 0.1804);fill-opacity:1;"/>
</g>
<defs>
<clipPath id="clip0_2194_5101">
<rect width="640" height="480" fill="white" style="fill:white;fill-opacity:1;"/>
</clipPath>
</defs>
</svg>
