<svg width="640" height="480" viewBox="0 0 640 480" fill="none" xmlns="http://www.w3.org/2000/svg">
<g id="ke" clip-path="url(#clip0_2194_5527)">
<path id="Vector" d="M0 0H640V480H0V0Z" fill="white" style="fill:white;fill-opacity:1;"/>
<path id="Vector_2" d="M0 0H640V144H0V0Z" fill="#000001" style="fill:#000001;fill:color(display-p3 0.0000 0.0000 0.0039);fill-opacity:1;"/>
<path id="Vector_3" d="M0 336H640V480H0V336Z" fill="#006600" style="fill:#006600;fill:color(display-p3 0.0000 0.4000 0.0000);fill-opacity:1;"/>
<g id="ke-b">
<path id="Vector_4" d="M234.2 382.5L239.6 385.5L379.7 142.5C387.8 140.7 392.3 132.9 396.8 125.1C399.8 119.7 411.8 99 416.9 72C402.667 84.6477 390.607 99.5457 381.2 116.1C376.7 123.9 372.2 131.7 374.3 139.8L234.2 382.5Z" fill="black" stroke="black" style="fill:black;fill-opacity:1;stroke:black;stroke-opacity:1;" stroke-width="3"/>
<path id="Vector_5" d="M234.2 382.5L239.6 385.5L379.7 142.5C387.8 140.7 392.3 132.9 396.8 125.1C399.8 119.7 411.8 99 416.9 72C402.667 84.6477 390.607 99.5457 381.2 116.1C376.7 123.9 372.2 131.7 374.3 139.8L234.2 382.5Z" fill="white" style="fill:white;fill-opacity:1;"/>
</g>
<g id="ke-b_2">
<path id="Vector_6" d="M405.8 382.5L400.4 385.5L260.3 142.5C252.2 140.7 247.7 132.9 243.2 125.1C240.2 119.7 228.2 99 223.1 72C237.333 84.6477 249.393 99.5457 258.8 116.1C263.3 123.9 267.8 131.7 265.7 139.8L405.8 382.5Z" fill="black" stroke="black" style="fill:black;fill-opacity:1;stroke:black;stroke-opacity:1;" stroke-width="3"/>
<path id="Vector_7" d="M405.8 382.5L400.4 385.5L260.3 142.5C252.2 140.7 247.7 132.9 243.2 125.1C240.2 119.7 228.2 99 223.1 72C237.333 84.6477 249.393 99.5457 258.8 116.1C263.3 123.9 267.8 131.7 265.7 139.8L405.8 382.5Z" fill="white" style="fill:white;fill-opacity:1;"/>
</g>
<path id="Vector_8" d="M640.5 168H377C368 144 338 96 320 96C302 96 272 144 263 168H-0.199951V312H263C272 336 302 384 320 384C338 384 368 336 377 312H640.5V168Z" fill="#BB0000" style="fill:#BB0000;fill:color(display-p3 0.7333 0.0000 0.0000);fill-opacity:1;"/>
<path id="ke-c" d="M377 312C386 288 392 264 392 240C392 216 386 192 377 168C368 192 362 216 362 240C362 264 368 288 377 312Z" fill="black" style="fill:black;fill-opacity:1;"/>
<path id="ke-c_2" d="M263 312C254 288 248 264 248 240C248 216 254 192 263 168C272 192 278 216 278 240C278 264 272 288 263 312Z" fill="black" style="fill:black;fill-opacity:1;"/>
<g id="Group">
<path id="Vector_9" d="M320 258C326.627 258 332 249.941 332 240C332 230.059 326.627 222 320 222C313.373 222 308 230.059 308 240C308 249.941 313.373 258 320 258Z" fill="white" style="fill:white;fill-opacity:1;"/>
<path id="ke-d" d="M323 257.4C323 257.4 335 281.4 335 320.4C335 359.4 323 383.4 323 383.4V257.4Z" fill="white" style="fill:white;fill-opacity:1;"/>
<path id="ke-d_2" d="M317 222.6C317 222.6 305 198.6 305 159.6C305 120.6 317 96.6 317 96.6V222.6Z" fill="white" style="fill:white;fill-opacity:1;"/>
<path id="ke-d_3" d="M317 257.4C317 257.4 305 281.4 305 320.4C305 359.4 317 383.4 317 383.4V257.4Z" fill="white" style="fill:white;fill-opacity:1;"/>
<path id="ke-d_4" d="M323 222.6C323 222.6 335 198.6 335 159.6C335 120.6 323 96.6 323 96.6V222.6Z" fill="white" style="fill:white;fill-opacity:1;"/>
</g>
</g>
<defs>
<clipPath id="clip0_2194_5527">
<rect width="640" height="480" fill="white" style="fill:white;fill-opacity:1;"/>
</clipPath>
</defs>
</svg>
