<svg width="640" height="480" viewBox="0 0 640 480" fill="none" xmlns="http://www.w3.org/2000/svg">
<g id="kg" clip-path="url(#clip0_2194_5546)">
<path id="Vector" d="M0 0H640V480H0V0Z" fill="#FF0000" style="fill:#FF0000;fill:color(display-p3 1.0000 0.0000 0.0000);fill-opacity:1;"/>
<path id="Vector_2" fill-rule="evenodd" clip-rule="evenodd" d="M340.7 146.6L343.4 94.6C343.4 94.3333 343.267 94.1667 343 94.1C342.8 94.1 342.633 94.2333 342.5 94.5L329.2 144.6L329.1 145.1C328.883 145.912 328.842 146.761 328.98 147.591C329.118 148.42 329.431 149.21 329.899 149.908C330.367 150.606 330.979 151.197 331.694 151.639C332.409 152.082 333.21 152.366 334.043 152.474C334.877 152.582 335.724 152.51 336.528 152.264C337.332 152.018 338.074 151.603 338.704 151.047C339.334 150.491 339.838 149.806 340.183 149.039C340.527 148.272 340.703 147.441 340.7 146.6ZM355.1 151L365.9 100C366.033 99.8 365.933 99.6333 365.6 99.5C365.4 99.5 365.233 99.6 365.1 99.8L344 147.2L343.8 147.7C343.52 148.459 343.4 149.268 343.446 150.075C343.492 150.883 343.703 151.673 344.067 152.395C344.431 153.118 344.94 153.757 345.562 154.275C346.184 154.792 346.906 155.177 347.682 155.403C348.459 155.63 349.274 155.695 350.076 155.593C350.879 155.492 351.652 155.226 352.348 154.813C353.043 154.4 353.647 153.849 354.12 153.193C354.594 152.537 354.927 151.79 355.1 151ZM368.6 157.6L387.3 109C387.3 108.907 387.274 108.816 387.225 108.737C387.176 108.658 387.107 108.594 387.024 108.553C386.941 108.511 386.848 108.494 386.755 108.502C386.663 108.51 386.574 108.544 386.5 108.6L358.2 152L358 152.4C357.56 153.107 357.274 153.899 357.161 154.724C357.049 155.549 357.113 156.388 357.348 157.187C357.583 157.986 357.985 158.726 358.526 159.358C359.068 159.99 359.737 160.501 360.49 160.856C361.244 161.211 362.063 161.403 362.896 161.419C363.728 161.435 364.555 161.274 365.321 160.948C366.087 160.621 366.775 160.136 367.34 159.525C367.905 158.913 368.335 158.189 368.6 157.4M380.9 166.1L406.9 121.1C406.93 121.006 406.932 120.906 406.905 120.811C406.878 120.716 406.824 120.631 406.749 120.567C406.675 120.503 406.583 120.463 406.485 120.451C406.387 120.439 406.288 120.456 406.2 120.5L371.5 159.1L371.2 159.5C370.664 160.131 370.266 160.868 370.033 161.662C369.801 162.457 369.738 163.291 369.848 164.112C369.959 164.932 370.242 165.72 370.677 166.425C371.113 167.129 371.692 167.733 372.376 168.199C373.061 168.665 373.836 168.981 374.651 169.128C375.466 169.275 376.302 169.248 377.106 169.05C377.91 168.852 378.663 168.487 379.317 167.979C379.971 167.471 380.51 166.83 380.9 166.1ZM391.7 176.5L424.5 136.1V135.5C424.274 135.416 424.026 135.416 423.8 135.5L383.5 168.1L383.1 168.5C382.485 169.046 381.99 169.714 381.648 170.462C381.306 171.21 381.125 172.022 381.115 172.844C381.105 173.667 381.268 174.482 381.592 175.238C381.915 175.994 382.394 176.674 382.996 177.234C383.598 177.794 384.311 178.222 385.089 178.491C385.866 178.759 386.691 178.862 387.511 178.793C388.33 178.724 389.126 178.484 389.848 178.09C390.569 177.695 391.2 177.153 391.7 176.5ZM400.7 188.5L439.4 153.7C439.6 153.5 439.6 153.267 439.4 153H438.8L394 179L393.6 179.2C392.917 179.645 392.334 180.227 391.888 180.909C391.441 181.59 391.14 182.357 391.005 183.161C390.869 183.965 390.902 184.788 391.1 185.578C391.299 186.369 391.659 187.109 392.158 187.754C392.656 188.398 393.283 188.932 393.999 189.322C394.715 189.712 395.503 189.95 396.315 190.02C397.127 190.09 397.945 189.991 398.717 189.73C399.489 189.468 400.198 189.049 400.8 188.5M407.8 201.8L451.5 173.4C451.556 173.326 451.59 173.237 451.598 173.145C451.606 173.052 451.589 172.959 451.547 172.876C451.506 172.793 451.442 172.723 451.363 172.675C451.284 172.626 451.193 172.6 451.1 172.6L402.7 191.2L402.2 191.5C401.429 191.812 400.733 192.283 400.157 192.882C399.582 193.482 399.139 194.196 398.858 194.978C398.578 195.761 398.466 196.594 398.53 197.423C398.594 198.251 398.832 199.057 399.229 199.788C399.626 200.518 400.173 201.156 400.834 201.66C401.495 202.165 402.254 202.523 403.064 202.713C403.873 202.903 404.713 202.92 405.529 202.763C406.346 202.605 407.119 202.277 407.8 201.8ZM412.8 216L460.3 194.8C460.353 194.732 460.388 194.652 460.401 194.568C460.414 194.483 460.405 194.396 460.375 194.316C460.345 194.235 460.294 194.164 460.229 194.109C460.163 194.053 460.084 194.016 460 194L409.3 204.8L408.8 204.9C407.982 205.084 407.214 205.44 406.544 205.945C405.875 206.449 405.321 207.091 404.92 207.826C404.518 208.561 404.277 209.374 404.214 210.209C404.15 211.045 404.266 211.884 404.552 212.672C404.838 213.46 405.289 214.177 405.874 214.777C406.46 215.376 407.166 215.845 407.946 216.15C408.727 216.455 409.563 216.591 410.4 216.548C411.237 216.505 412.055 216.284 412.8 215.9M415.3 230.8L465.7 217.4C465.9 217.333 466 217.167 466 216.9C465.933 216.633 465.767 216.5 465.5 216.5L413.7 219.2H413.2C412.411 219.307 411.651 219.573 410.967 219.982C410.283 220.391 409.689 220.934 409.221 221.578C408.753 222.223 408.42 222.956 408.243 223.732C408.065 224.509 408.047 225.313 408.189 226.097C408.331 226.881 408.63 227.628 409.068 228.293C409.507 228.959 410.075 229.528 410.74 229.968C411.404 230.407 412.151 230.707 412.935 230.85C413.718 230.993 414.523 230.976 415.3 230.8ZM415.6 245.8L467.4 240.4C467.667 240.333 467.8 240.167 467.8 239.9C467.8 239.7 467.667 239.533 467.4 239.4L415.8 234H415.3C414.525 234.02 413.762 234.192 413.054 234.507C412.345 234.821 411.706 235.272 411.172 235.834C410.638 236.396 410.22 237.057 409.942 237.781C409.663 238.504 409.53 239.275 409.55 240.05C409.57 240.825 409.742 241.588 410.056 242.296C410.371 243.005 410.822 243.644 411.384 244.178C411.946 244.712 412.607 245.13 413.331 245.408C414.054 245.687 414.825 245.82 415.6 245.8ZM413.5 260.6L465.5 263.3C465.59 263.269 465.669 263.214 465.729 263.14C465.788 263.066 465.826 262.976 465.836 262.882C465.847 262.787 465.83 262.692 465.788 262.607C465.746 262.521 465.681 262.45 465.6 262.4L415.5 249.1L415 249C414.188 248.783 413.339 248.742 412.509 248.88C411.68 249.018 410.89 249.331 410.192 249.799C409.493 250.267 408.903 250.879 408.461 251.594C408.018 252.309 407.733 253.11 407.626 253.943C407.518 254.777 407.589 255.624 407.836 256.428C408.082 257.232 408.497 257.974 409.053 258.604C409.609 259.234 410.294 259.738 411.061 260.083C411.828 260.427 412.659 260.603 413.5 260.6ZM409.1 275L460.1 285.8C460.3 285.933 460.467 285.833 460.6 285.5C460.6 285.3 460.5 285.133 460.3 285L412.8 264L412.3 263.8C411.541 263.52 410.732 263.4 409.925 263.446C409.117 263.492 408.327 263.703 407.605 264.067C406.882 264.431 406.242 264.94 405.725 265.562C405.207 266.184 404.823 266.906 404.597 267.682C404.37 268.459 404.305 269.274 404.407 270.076C404.508 270.879 404.774 271.652 405.187 272.348C405.6 273.043 406.151 273.647 406.807 274.12C407.463 274.594 408.21 274.927 409 275.1M402.4 288.6L451 307.3C451.093 307.3 451.184 307.274 451.263 307.225C451.342 307.176 451.406 307.107 451.447 307.024C451.489 306.941 451.506 306.848 451.498 306.755C451.49 306.663 451.456 306.574 451.4 306.5L408 278.2L407.6 278C406.893 277.56 406.101 277.274 405.276 277.162C404.451 277.049 403.612 277.113 402.813 277.348C402.014 277.583 401.274 277.985 400.642 278.526C400.01 279.068 399.499 279.737 399.144 280.49C398.789 281.244 398.597 282.063 398.581 282.896C398.565 283.728 398.726 284.555 399.052 285.321C399.379 286.087 399.864 286.775 400.475 287.34C401.087 287.905 401.811 288.335 402.6 288.6M393.9 300.9L438.9 326.9C438.994 326.93 439.094 326.932 439.189 326.905C439.284 326.878 439.368 326.824 439.433 326.749C439.497 326.675 439.537 326.583 439.549 326.485C439.561 326.387 439.544 326.288 439.5 326.2L400.9 291.5L400.5 291.2C399.869 290.664 399.132 290.266 398.338 290.033C397.543 289.801 396.709 289.738 395.888 289.849C395.068 289.959 394.28 290.242 393.575 290.677C392.871 291.113 392.267 291.692 391.801 292.376C391.335 293.061 391.019 293.836 390.872 294.651C390.725 295.466 390.752 296.302 390.95 297.106C391.148 297.91 391.513 298.663 392.021 299.317C392.529 299.971 393.17 300.51 393.9 300.9ZM383.5 311.7L423.9 344.5C423.996 344.572 424.115 344.607 424.235 344.599C424.355 344.59 424.468 344.539 424.554 344.454C424.639 344.368 424.69 344.255 424.699 344.135C424.707 344.015 424.672 343.896 424.6 343.8L391.9 303.5L391.5 303.1C390.954 302.485 390.286 301.99 389.538 301.648C388.79 301.307 387.978 301.125 387.156 301.115C386.333 301.105 385.518 301.268 384.762 301.592C384.006 301.916 383.326 302.394 382.766 302.996C382.206 303.598 381.778 304.311 381.509 305.089C381.241 305.866 381.138 306.691 381.207 307.511C381.276 308.33 381.515 309.126 381.91 309.848C382.305 310.569 382.847 311.2 383.5 311.7ZM371.5 320.7L406.3 359.4C406.38 359.506 406.498 359.576 406.629 359.595C406.761 359.614 406.894 359.58 407 359.5C407.106 359.42 407.176 359.302 407.195 359.171C407.214 359.039 407.18 358.906 407.1 358.8L381 314L380.7 313.6C380.255 312.917 379.673 312.334 378.991 311.888C378.31 311.441 377.543 311.14 376.739 311.005C375.935 310.869 375.112 310.902 374.322 311.1C373.531 311.299 372.791 311.659 372.146 312.158C371.502 312.657 370.968 313.284 370.578 313.999C370.188 314.715 369.95 315.503 369.88 316.315C369.81 317.127 369.909 317.945 370.17 318.717C370.432 319.489 370.851 320.198 371.4 320.8M358.1 327.8L386.5 371.5C386.633 371.7 386.833 371.767 387.1 371.7C387.3 371.567 387.367 371.367 387.3 371.1L368.7 322.7L368.4 322.2C368.088 321.429 367.617 320.733 367.018 320.158C366.418 319.582 365.704 319.139 364.921 318.858C364.139 318.578 363.306 318.466 362.477 318.53C361.648 318.594 360.843 318.832 360.112 319.229C359.382 319.626 358.744 320.173 358.24 320.834C357.735 321.495 357.377 322.255 357.187 323.064C356.997 323.873 356.98 324.713 357.137 325.529C357.295 326.346 357.623 327.119 358.1 327.8ZM343.9 332.8L365.1 380.3C365.167 380.633 365.333 380.733 365.6 380.6C365.867 380.6 365.967 380.4 365.9 380L355.1 329.3L355 328.8C354.816 327.982 354.46 327.214 353.955 326.545C353.451 325.875 352.809 325.321 352.074 324.92C351.339 324.518 350.526 324.277 349.691 324.214C348.855 324.15 348.015 324.266 347.228 324.552C346.44 324.838 345.723 325.289 345.123 325.874C344.524 326.46 344.055 327.166 343.75 327.947C343.445 328.727 343.309 329.563 343.352 330.4C343.395 331.237 343.616 332.055 344 332.8M329.1 335.3L342.5 385.7C342.567 385.9 342.733 386 343 386C343.267 385.933 343.4 385.767 343.4 385.5L340.7 333.7V333.2C340.593 332.411 340.327 331.651 339.918 330.967C339.509 330.283 338.966 329.689 338.322 329.221C337.677 328.753 336.944 328.42 336.168 328.243C335.391 328.065 334.587 328.047 333.803 328.189C333.019 328.331 332.272 328.63 331.606 329.068C330.941 329.507 330.372 330.075 329.932 330.74C329.493 331.404 329.193 332.151 329.05 332.935C328.907 333.719 328.924 334.523 329.1 335.3ZM314.1 335.6L319.5 387.4C319.5 387.533 319.553 387.66 319.646 387.754C319.74 387.847 319.867 387.9 320 387.9C320.133 387.9 320.26 387.847 320.354 387.754C320.447 387.66 320.5 387.533 320.5 387.4L325.9 335.8C325.954 334.987 325.843 334.172 325.572 333.404C325.301 332.636 324.877 331.931 324.325 331.333C323.773 330.734 323.105 330.254 322.361 329.921C321.618 329.589 320.814 329.412 320 329.4C319.203 329.413 318.417 329.584 317.688 329.904C316.958 330.224 316.299 330.686 315.75 331.263C315.201 331.84 314.772 332.521 314.489 333.266C314.205 334.01 314.073 334.804 314.1 335.6ZM299.3 333.5L296.6 385.5C296.631 385.59 296.686 385.669 296.76 385.729C296.834 385.788 296.924 385.826 297.018 385.836C297.113 385.847 297.208 385.83 297.293 385.788C297.379 385.746 297.45 385.681 297.5 385.6L310.8 335.5L310.9 335C311.117 334.188 311.158 333.339 311.02 332.509C310.882 331.68 310.569 330.89 310.101 330.192C309.633 329.494 309.021 328.903 308.306 328.461C307.591 328.018 306.79 327.734 305.957 327.626C305.123 327.518 304.276 327.59 303.472 327.836C302.668 328.082 301.926 328.497 301.296 329.053C300.666 329.609 300.162 330.294 299.817 331.061C299.473 331.828 299.297 332.659 299.3 333.5ZM284.9 329.1L274.1 380.1C274.128 380.176 274.175 380.244 274.235 380.298C274.296 380.352 274.369 380.391 274.447 380.411C274.526 380.43 274.608 380.431 274.687 380.411C274.766 380.392 274.839 380.354 274.9 380.3L296 332.9L296.2 332.4C296.48 331.641 296.6 330.832 296.554 330.025C296.508 329.217 296.297 328.427 295.933 327.705C295.568 326.982 295.06 326.343 294.438 325.825C293.816 325.308 293.094 324.923 292.318 324.697C291.541 324.47 290.726 324.405 289.924 324.507C289.121 324.608 288.348 324.874 287.652 325.287C286.956 325.7 286.353 326.251 285.88 326.907C285.406 327.563 285.073 328.31 284.9 329.1ZM271.4 322.5L252.7 371C252.633 371.267 252.7 371.467 252.9 371.6C253.1 371.733 253.3 371.667 253.5 371.4L281.8 327.9C282.206 327.207 282.469 326.44 282.573 325.643C282.677 324.847 282.62 324.037 282.406 323.263C282.191 322.489 281.824 321.766 281.324 321.137C280.825 320.508 280.205 319.985 279.5 319.6C278.068 318.912 276.421 318.821 274.921 319.346C273.421 319.871 272.191 320.969 271.5 322.4M259.1 313.8L233.1 358.8C233.07 358.894 233.068 358.994 233.095 359.089C233.122 359.184 233.176 359.269 233.251 359.333C233.325 359.397 233.417 359.437 233.515 359.449C233.613 359.461 233.712 359.444 233.8 359.4L268.5 320.8L268.8 320.4C269.336 319.769 269.734 319.032 269.967 318.238C270.199 317.443 270.262 316.609 270.151 315.788C270.04 314.968 269.758 314.18 269.323 313.475C268.887 312.771 268.308 312.167 267.624 311.701C266.939 311.235 266.164 310.919 265.349 310.772C264.534 310.625 263.698 310.652 262.894 310.85C262.09 311.048 261.337 311.413 260.683 311.921C260.029 312.429 259.49 313.07 259.1 313.8ZM248.3 303.4L215.5 343.8V344.4C215.767 344.6 216 344.6 216.2 344.4L256.5 311.8L256.9 311.4C257.515 310.854 258.01 310.186 258.352 309.438C258.693 308.69 258.875 307.878 258.885 307.056C258.895 306.233 258.732 305.418 258.408 304.662C258.084 303.906 257.606 303.226 257.004 302.666C256.402 302.106 255.689 301.678 254.911 301.409C254.134 301.141 253.309 301.038 252.489 301.107C251.67 301.176 250.874 301.416 250.152 301.81C249.431 302.205 248.8 302.747 248.3 303.4ZM239.3 291.4L200.6 326.2C200.494 326.28 200.424 326.398 200.405 326.529C200.386 326.661 200.42 326.794 200.5 326.9C200.58 327.006 200.698 327.076 200.829 327.095C200.961 327.114 201.094 327.08 201.2 327L246.1 301L246.5 300.7C247.183 300.255 247.766 299.673 248.212 298.991C248.659 298.31 248.959 297.543 249.095 296.739C249.23 295.935 249.198 295.112 249 294.322C248.801 293.531 248.441 292.791 247.942 292.146C247.443 291.502 246.816 290.968 246.101 290.578C245.385 290.188 244.597 289.95 243.785 289.88C242.973 289.81 242.155 289.909 241.383 290.17C240.611 290.432 239.902 290.851 239.3 291.4ZM232.3 278.1L188.6 306.5C188.544 306.574 188.51 306.663 188.502 306.755C188.494 306.848 188.511 306.941 188.553 307.024C188.594 307.107 188.658 307.176 188.737 307.225C188.816 307.274 188.907 307.3 189 307.3L237.4 288.7L237.9 288.4C238.671 288.088 239.367 287.617 239.942 287.018C240.518 286.418 240.961 285.704 241.242 284.922C241.522 284.139 241.634 283.306 241.57 282.477C241.506 281.649 241.268 280.843 240.871 280.112C240.474 279.382 239.927 278.744 239.266 278.24C238.605 277.735 237.845 277.377 237.036 277.187C236.227 276.997 235.387 276.98 234.57 277.137C233.754 277.295 232.981 277.623 232.3 278.1ZM227.3 263.9L179.8 285.1C179.467 285.167 179.367 285.333 179.5 285.6C179.5 285.867 179.7 285.967 180.1 285.9L230.8 275.1L231.3 275C232.117 274.816 232.886 274.46 233.555 273.955C234.225 273.451 234.778 272.809 235.18 272.074C235.582 271.339 235.823 270.526 235.886 269.691C235.95 268.855 235.834 268.015 235.548 267.228C235.262 266.44 234.811 265.723 234.225 265.123C233.64 264.524 232.934 264.055 232.153 263.75C231.373 263.445 230.537 263.309 229.7 263.352C228.863 263.395 228.045 263.616 227.3 264M224.8 249.1L174.4 262.5C174.267 262.527 174.151 262.605 174.076 262.717C174.001 262.83 173.973 262.967 174 263.1C174.026 263.233 174.105 263.349 174.217 263.424C174.33 263.499 174.467 263.527 174.6 263.5L226.4 260.7H226.9C227.689 260.593 228.449 260.327 229.133 259.918C229.817 259.509 230.41 258.966 230.879 258.322C231.347 257.677 231.68 256.945 231.857 256.168C232.035 255.391 232.053 254.587 231.911 253.803C231.769 253.019 231.47 252.272 231.032 251.607C230.593 250.941 230.025 250.372 229.36 249.932C228.696 249.493 227.949 249.193 227.165 249.05C226.381 248.907 225.577 248.924 224.8 249.1ZM224.5 234.1L172.7 239.5C172.567 239.5 172.44 239.553 172.346 239.646C172.253 239.74 172.2 239.867 172.2 240C172.2 240.133 172.253 240.26 172.346 240.354C172.44 240.447 172.567 240.5 172.7 240.5L224.3 245.9H224.8C226.365 245.86 227.85 245.2 228.928 244.066C230.006 242.931 230.59 241.415 230.55 239.85C230.51 238.285 229.85 236.8 228.716 235.722C227.581 234.644 226.065 234.06 224.5 234.1ZM226.6 219.3L174.6 216.6C174.51 216.631 174.431 216.686 174.371 216.76C174.312 216.834 174.274 216.924 174.264 217.018C174.253 217.113 174.27 217.208 174.312 217.293C174.354 217.379 174.419 217.45 174.5 217.5L224.6 230.8L225.1 230.9C225.912 231.117 226.761 231.158 227.59 231.02C228.42 230.882 229.21 230.569 229.908 230.101C230.606 229.633 231.197 229.021 231.639 228.306C232.082 227.591 232.366 226.79 232.474 225.957C232.582 225.123 232.51 224.276 232.264 223.472C232.018 222.668 231.603 221.926 231.047 221.296C230.491 220.666 229.806 220.162 229.039 219.817C228.272 219.473 227.441 219.297 226.6 219.3ZM231 204.9L180 194.1C179.8 193.967 179.633 194.067 179.5 194.4C179.5 194.6 179.6 194.767 179.8 194.9L227.2 216L227.7 216.2C228.459 216.48 229.268 216.6 230.075 216.554C230.883 216.508 231.673 216.297 232.395 215.933C233.118 215.569 233.757 215.06 234.275 214.438C234.792 213.816 235.177 213.094 235.403 212.318C235.63 211.541 235.695 210.726 235.593 209.924C235.492 209.121 235.226 208.348 234.813 207.652C234.4 206.956 233.849 206.353 233.193 205.88C232.537 205.406 231.79 205.073 231 204.9ZM237.6 191.4L189 172.7C188.907 172.7 188.816 172.726 188.737 172.775C188.658 172.823 188.594 172.893 188.553 172.976C188.511 173.059 188.494 173.152 188.502 173.245C188.51 173.337 188.544 173.426 188.6 173.5L232.1 201.8L232.5 202C233.207 202.44 233.999 202.726 234.824 202.838C235.649 202.951 236.488 202.887 237.287 202.652C238.086 202.417 238.825 202.015 239.458 201.474C240.09 200.932 240.601 200.263 240.956 199.51C241.311 198.756 241.503 197.937 241.519 197.104C241.535 196.272 241.374 195.445 241.048 194.679C240.721 193.913 240.236 193.225 239.625 192.66C239.013 192.095 238.289 191.665 237.5 191.4M246.2 179.1L201.2 153.1C200.974 153.016 200.726 153.016 200.5 153.1C200.433 153.3 200.467 153.533 200.6 153.8L239.2 188.5L239.6 188.8C240.231 189.336 240.967 189.734 241.762 189.967C242.557 190.199 243.391 190.262 244.212 190.151C245.032 190.041 245.82 189.758 246.525 189.323C247.229 188.887 247.833 188.308 248.299 187.624C248.765 186.939 249.081 186.164 249.228 185.349C249.375 184.534 249.348 183.698 249.15 182.894C248.952 182.09 248.587 181.337 248.079 180.683C247.571 180.029 246.93 179.49 246.2 179.1ZM256.6 168.3L216.2 135.5H215.6C215.4 135.7 215.4 135.933 215.6 136.2L248.2 176.5L248.6 176.9C249.146 177.515 249.814 178.01 250.562 178.352C251.31 178.693 252.122 178.875 252.944 178.885C253.766 178.895 254.582 178.732 255.338 178.408C256.094 178.084 256.774 177.606 257.334 177.004C257.894 176.402 258.322 175.689 258.591 174.911C258.859 174.134 258.962 173.309 258.893 172.489C258.824 171.67 258.584 170.874 258.189 170.152C257.795 169.431 257.253 168.8 256.6 168.3ZM268.6 159.3L233.8 120.6C233.712 120.556 233.613 120.539 233.515 120.551C233.417 120.563 233.325 120.603 233.251 120.667C233.176 120.731 233.122 120.816 233.095 120.911C233.068 121.006 233.07 121.106 233.1 121.2L259.1 166.1L259.3 166.5C259.745 167.183 260.327 167.766 261.009 168.212C261.69 168.659 262.457 168.959 263.261 169.095C264.065 169.231 264.888 169.198 265.678 169C266.469 168.801 267.209 168.441 267.854 167.942C268.498 167.444 269.032 166.816 269.422 166.101C269.812 165.385 270.05 164.597 270.12 163.785C270.19 162.973 270.091 162.155 269.83 161.383C269.568 160.611 269.149 159.902 268.6 159.3ZM281.9 152.3L253.5 108.6C253.426 108.544 253.337 108.51 253.245 108.502C253.152 108.494 253.059 108.511 252.976 108.553C252.893 108.594 252.823 108.658 252.775 108.737C252.726 108.816 252.7 108.907 252.7 109L271.3 157.4L271.6 157.9C271.912 158.671 272.383 159.367 272.982 159.943C273.582 160.518 274.296 160.961 275.078 161.242C275.861 161.522 276.694 161.634 277.523 161.57C278.351 161.506 279.157 161.268 279.888 160.871C280.618 160.474 281.256 159.927 281.76 159.266C282.264 158.605 282.623 157.845 282.813 157.036C283.003 156.227 283.02 155.387 282.863 154.571C282.705 153.754 282.377 152.981 281.9 152.3ZM296.1 147.3L274.9 99.8C274.832 99.747 274.752 99.7123 274.668 99.6991C274.583 99.686 274.496 99.695 274.416 99.7251C274.335 99.7552 274.264 99.8056 274.209 99.8712C274.153 99.9369 274.116 100.016 274.1 100.1L284.9 150.8L285 151.3C285.184 152.117 285.54 152.886 286.045 153.555C286.549 154.225 287.191 154.778 287.926 155.18C288.661 155.582 289.474 155.823 290.309 155.886C291.145 155.95 291.984 155.834 292.772 155.548C293.56 155.262 294.277 154.811 294.877 154.226C295.476 153.64 295.945 152.934 296.25 152.154C296.555 151.373 296.691 150.537 296.648 149.7C296.605 148.863 296.384 148.045 296 147.3M310.9 144.8L297.5 94.4C297.433 94.2 297.267 94.1 297 94.1C296.733 94.1667 296.6 94.3333 296.6 94.6L299.3 146.4V146.9C299.407 147.689 299.673 148.449 300.082 149.133C300.491 149.817 301.034 150.411 301.678 150.879C302.323 151.347 303.055 151.68 303.832 151.857C304.609 152.035 305.413 152.053 306.197 151.911C306.981 151.769 307.728 151.47 308.393 151.032C309.059 150.593 309.628 150.025 310.067 149.36C310.507 148.696 310.807 147.949 310.95 147.165C311.093 146.382 311.076 145.577 310.9 144.8ZM325.9 144.5L320.5 92.7C320.5 92.5674 320.447 92.4402 320.354 92.3464C320.26 92.2527 320.133 92.2 320 92.2C319.867 92.2 319.74 92.2527 319.646 92.3464C319.553 92.4402 319.5 92.5674 319.5 92.7L314.1 144.3V144.8C314.12 145.575 314.292 146.338 314.606 147.046C314.921 147.755 315.372 148.394 315.934 148.928C316.496 149.462 317.157 149.88 317.881 150.158C318.604 150.437 319.375 150.57 320.15 150.55C320.925 150.53 321.688 150.358 322.396 150.043C323.105 149.729 323.744 149.278 324.278 148.716C324.812 148.154 325.23 147.493 325.508 146.769C325.787 146.046 325.92 145.275 325.9 144.5ZM320 150.8C343.657 150.8 366.346 160.198 383.074 176.926C399.802 193.654 409.2 216.343 409.2 240C409.2 263.657 399.802 286.346 383.074 303.074C366.346 319.802 343.657 329.2 320 329.2C296.343 329.2 273.654 319.802 256.926 303.074C240.198 286.346 230.8 263.657 230.8 240C230.8 216.343 240.198 193.654 256.926 176.926C273.654 160.198 296.343 150.8 320 150.8ZM320 161.5C330.309 161.5 340.517 163.53 350.041 167.475C359.565 171.42 368.218 177.203 375.508 184.492C382.797 191.782 388.579 200.435 392.524 209.959C396.469 219.483 398.5 229.691 398.5 240C398.5 250.309 396.469 260.517 392.524 270.041C388.579 279.565 382.797 288.218 375.508 295.508C368.218 302.797 359.565 308.58 350.041 312.525C340.517 316.47 330.309 318.5 320 318.5C299.18 318.5 279.214 310.229 264.492 295.508C249.77 280.786 241.5 260.819 241.5 240C241.5 219.181 249.77 199.214 264.492 184.492C279.214 169.771 299.18 161.5 320 161.5ZM254.4 263.5C262.4 246.8 273.6 231.9 286.4 219.5L292.4 223.5C278.029 237.292 266.451 253.725 258.3 271.9C256.82 269.222 255.517 266.449 254.4 263.6M325.5 223C327.367 224.533 329.167 226.133 330.9 227.8L336.7 223.3L331.3 218.6L325.5 223ZM314.1 214.3L320 218.6L325.9 214.3L320 210L314.1 214.3ZM314.7 232.6L320 237.6L325.3 232.6L320 227.6L314.7 232.6ZM303.3 223.3C305.3 224.767 307.233 226.267 309.1 227.8L314.5 223L308.7 218.6C306.9 220.067 305.1 221.633 303.3 223.3ZM338.5 206.4C336.5 204.867 334.5 203.433 332.5 202.1L325.8 206.1L331.8 210.4L338.5 206.4ZM348.9 215L343.6 210.4L337.2 214.4L342.7 219C344.7 217.667 346.767 216.333 348.9 215ZM312.9 198.4C315.233 196.867 317.6 195.433 320 194.1L327 198.4L320 202.4L312.9 198.4ZM301.4 206.4C303.4 204.867 305.4 203.433 307.4 202.1L314.1 206.1L308.1 210.4L301.4 206.4ZM291 215L296.3 210.4L302.7 214.4L297.2 219C295.2 217.667 293.133 216.333 291 215ZM258.3 204.8C265.726 207.78 272.914 211.324 279.8 215.4C268.394 226.316 258.747 238.932 251.2 252.8C247.826 236.474 250.304 219.482 258.2 204.8M264.2 195.6C272.867 198.4 281.4 202.067 289.8 206.6L284.5 211.2C276.767 206.933 268.9 203.333 260.9 200.4C261.967 198.667 263.067 197.067 264.2 195.6ZM271.7 187.3C281.433 189.967 291.167 193.733 300.9 198.6L294.9 202.8C285.9 198.333 276.8 194.6 267.6 191.6L271.7 187.3ZM282.7 178.9L283.3 179.1L284.1 179.3C293.967 181.967 303.867 185.8 313.8 190.8L306.4 195.1C296.687 190.368 286.583 186.487 276.2 183.5C278.2 181.833 280.333 180.3 282.6 178.9M351.2 175.5L350.4 175.8C340.133 178.8 329.967 182.733 319.9 187.6C310.033 182.8 300.033 178.9 289.9 175.9L289.4 175.8C289.067 175.8 288.8 175.7 288.6 175.5C298.319 170.642 309.035 168.112 319.9 168.112C330.765 168.112 341.481 170.642 351.2 175.5ZM363.7 183.5L363 183.7C353 186.633 343.133 190.433 333.4 195.1C331 193.567 328.533 192.133 326 190.8C335.939 185.638 346.442 181.645 357.3 178.9C359.567 180.367 361.7 181.9 363.7 183.5ZM372.2 191.5C363 194.5 353.933 198.267 345 202.8L339 198.6C348.667 193.667 358.333 189.9 368 187.3L372.2 191.5ZM378.9 200.3C370.9 203.233 363.033 206.833 355.3 211.1C353.567 209.567 351.8 208.067 350 206.6C358.4 201.933 366.933 198.267 375.6 195.6C376.8 197 377.9 198.567 378.9 200.3ZM388.6 252.7C381.053 238.832 371.406 226.216 360 215.3C366.886 211.224 374.074 207.68 381.5 204.7C389.514 219.342 392.032 236.365 388.6 252.7ZM381.6 271.8C373.467 253.669 361.925 237.272 347.6 223.5C349.6 222.033 351.6 220.667 353.6 219.4C366.4 231.8 377.4 246.7 385.5 263.4C384.387 266.283 383.084 269.089 381.6 271.8ZM370.7 286.8C362.1 264.8 350.1 246.9 336 232.6L341.6 227.9C356.2 242.3 368.6 259.9 376.6 279.8C374.786 282.258 372.815 284.596 370.7 286.8ZM357.4 297.7L356.5 295.2C348.8 274.2 337.9 257 325.1 242.9L330.4 237.6C345.572 253.263 357.171 272.027 364.4 292.6C362.17 294.407 359.832 296.076 357.4 297.6M289.5 301.6L290.4 298.8C296.9 279.8 307.2 262.8 319.9 248.5C332.6 262.9 342.9 279.8 349.4 298.8L350.4 301.6C340.905 306.187 330.495 308.57 319.95 308.57C309.405 308.57 298.995 306.187 289.5 301.6ZM275.4 292.6C282.629 272.027 294.228 253.263 309.4 237.6L314.7 242.9C300.935 258.128 290.27 275.892 283.3 295.2L282.3 297.7C279.866 296.178 277.529 294.509 275.3 292.7M263.3 279.7C271.3 259.8 283.6 242.3 298.2 227.9L303.8 232.6C288.615 248.077 276.8 266.531 269.1 286.8C267.033 284.533 265.067 282.2 263.2 279.8" fill="#FFFF00" style="fill:#FFFF00;fill:color(display-p3 1.0000 1.0000 0.0000);fill-opacity:1;"/>
</g>
<defs>
<clipPath id="clip0_2194_5546">
<rect width="640" height="480" fill="white" style="fill:white;fill-opacity:1;"/>
</clipPath>
</defs>
</svg>
