<svg width="640" height="480" viewBox="0 0 640 480" fill="none" xmlns="http://www.w3.org/2000/svg">
<g id="kz" clip-path="url(#clip0_2194_5838)">
<path id="Vector" d="M0 0H640V480H0V0Z" fill="#00ABC2" style="fill:#00ABC2;fill:color(display-p3 0.0000 0.6706 0.7608);fill-opacity:1;"/>
<g id="Group">
<g id="Group_2">
<path id="Vector_2" d="M345.8 266.208C381.482 266.208 410.408 237.282 410.408 201.6C410.408 165.918 381.482 136.992 345.8 136.992C310.118 136.992 281.192 165.918 281.192 201.6C281.192 237.282 310.118 266.208 345.8 266.208Z" fill="#FFEC2D" style="fill:#FFEC2D;fill:color(display-p3 1.0000 0.9255 0.1765);fill-opacity:1;"/>
<g id="kz-c">
<g id="kz-b">
<path id="kz-a" d="M345.8 128.208C349.64 128.16 351.08 125.76 351.08 122.88C351.08 119.04 345.8 100.752 345.8 100.752C345.8 100.752 340.52 119.04 340.52 122.88C340.52 125.76 341.96 128.208 345.8 128.208Z" fill="#FFEC2D" style="fill:#FFEC2D;fill:color(display-p3 1.0000 0.9255 0.1765);fill-opacity:1;"/>
<path id="kz-a_2" d="M419.192 201.6C419.24 205.44 421.64 206.88 424.52 206.88C428.36 206.88 446.648 201.6 446.648 201.6C446.648 201.6 428.36 196.32 424.52 196.32C421.64 196.32 419.192 197.76 419.192 201.6Z" fill="#FFEC2D" style="fill:#FFEC2D;fill:color(display-p3 1.0000 0.9255 0.1765);fill-opacity:1;"/>
<path id="kz-a_3" d="M345.8 274.992C341.96 275.04 340.52 277.44 340.52 280.32C340.52 284.16 345.8 302.448 345.8 302.448C345.8 302.448 351.08 284.16 351.08 280.32C351.08 277.44 349.64 274.992 345.8 274.992Z" fill="#FFEC2D" style="fill:#FFEC2D;fill:color(display-p3 1.0000 0.9255 0.1765);fill-opacity:1;"/>
<path id="kz-a_4" d="M272.408 201.6C272.36 197.76 269.96 196.32 267.08 196.32C263.24 196.32 244.952 201.6 244.952 201.6C244.952 201.6 263.24 206.88 267.08 206.88C269.96 206.88 272.408 205.44 272.408 201.6Z" fill="#FFEC2D" style="fill:#FFEC2D;fill:color(display-p3 1.0000 0.9255 0.1765);fill-opacity:1;"/>
</g>
<g id="kz-b_2">
<path id="kz-a_5" d="M373.886 133.795C377.452 135.22 379.701 133.554 380.803 130.893C382.272 127.345 384.393 108.429 384.393 108.429C384.393 108.429 372.516 123.304 371.047 126.852C369.945 129.512 370.338 132.325 373.886 133.795Z" fill="#FFEC2D" style="fill:#FFEC2D;fill:color(display-p3 1.0000 0.9255 0.1765);fill-opacity:1;"/>
<path id="kz-a_6" d="M413.605 229.686C412.18 233.252 413.846 235.501 416.507 236.603C420.055 238.072 438.971 240.193 438.971 240.193C438.971 240.193 424.096 228.316 420.548 226.847C417.888 225.745 415.075 226.138 413.605 229.686Z" fill="#FFEC2D" style="fill:#FFEC2D;fill:color(display-p3 1.0000 0.9255 0.1765);fill-opacity:1;"/>
<path id="kz-a_7" d="M317.714 269.405C314.148 267.98 311.899 269.646 310.797 272.307C309.328 275.855 307.207 294.771 307.207 294.771C307.207 294.771 319.084 279.896 320.553 276.348C321.655 273.688 321.262 270.875 317.714 269.405Z" fill="#FFEC2D" style="fill:#FFEC2D;fill:color(display-p3 1.0000 0.9255 0.1765);fill-opacity:1;"/>
<path id="kz-a_8" d="M277.995 173.514C279.42 169.948 277.753 167.699 275.093 166.597C271.545 165.128 252.628 163.007 252.628 163.007C252.628 163.007 267.504 174.884 271.052 176.353C273.712 177.455 276.525 177.062 277.995 173.514Z" fill="#FFEC2D" style="fill:#FFEC2D;fill:color(display-p3 1.0000 0.9255 0.1765);fill-opacity:1;"/>
</g>
<g id="kz-b_3">
<path id="kz-a_9" d="M397.696 149.704C400.445 152.385 403.16 151.707 405.197 149.67C407.912 146.955 417.11 130.29 417.11 130.29C417.11 130.29 400.445 139.488 397.73 142.203C395.693 144.239 394.981 146.989 397.696 149.704Z" fill="#FFEC2D" style="fill:#FFEC2D;fill:color(display-p3 1.0000 0.9255 0.1765);fill-opacity:1;"/>
<path id="kz-a_10" d="M397.696 253.496C395.015 256.245 395.694 258.961 397.73 260.997C400.445 263.712 417.11 272.91 417.11 272.91C417.11 272.91 407.912 256.245 405.197 253.53C403.161 251.493 400.411 250.781 397.696 253.496Z" fill="#FFEC2D" style="fill:#FFEC2D;fill:color(display-p3 1.0000 0.9255 0.1765);fill-opacity:1;"/>
<path id="kz-a_11" d="M293.904 253.496C291.155 250.815 288.44 251.493 286.403 253.53C283.688 256.245 274.49 272.91 274.49 272.91C274.49 272.91 291.155 263.712 293.87 260.997C295.907 258.961 296.619 256.211 293.904 253.496Z" fill="#FFEC2D" style="fill:#FFEC2D;fill:color(display-p3 1.0000 0.9255 0.1765);fill-opacity:1;"/>
<path id="kz-a_12" d="M293.904 149.704C296.585 146.955 295.906 144.239 293.87 142.203C291.155 139.488 274.49 130.29 274.49 130.29C274.49 130.29 283.688 146.955 286.403 149.67C288.439 151.707 291.189 152.419 293.904 149.704Z" fill="#FFEC2D" style="fill:#FFEC2D;fill:color(display-p3 1.0000 0.9255 0.1765);fill-opacity:1;"/>
</g>
<g id="kz-b_4">
<path id="kz-a_13" d="M413.605 173.514C415.119 177.043 417.888 177.455 420.548 176.353C424.096 174.884 438.971 163.007 438.971 163.007C438.971 163.007 420.055 165.128 416.507 166.597C413.847 167.699 412.136 169.966 413.605 173.514Z" fill="#FFEC2D" style="fill:#FFEC2D;fill:color(display-p3 1.0000 0.9255 0.1765);fill-opacity:1;"/>
<path id="kz-a_14" d="M373.886 269.405C370.357 270.919 369.945 273.688 371.047 276.348C372.516 279.896 384.393 294.771 384.393 294.771C384.393 294.771 382.272 275.855 380.803 272.307C379.701 269.646 377.434 267.936 373.886 269.405Z" fill="#FFEC2D" style="fill:#FFEC2D;fill:color(display-p3 1.0000 0.9255 0.1765);fill-opacity:1;"/>
<path id="kz-a_15" d="M277.995 229.686C276.481 226.157 273.712 225.745 271.052 226.847C267.504 228.316 252.629 240.193 252.629 240.193C252.629 240.193 271.545 238.072 275.093 236.603C277.754 235.501 279.464 233.234 277.995 229.686Z" fill="#FFEC2D" style="fill:#FFEC2D;fill:color(display-p3 1.0000 0.9255 0.1765);fill-opacity:1;"/>
<path id="kz-a_16" d="M317.714 133.795C321.243 132.281 321.655 129.512 320.553 126.852C319.084 123.304 307.207 108.429 307.207 108.429C307.207 108.429 309.328 127.345 310.797 130.893C311.899 133.554 314.166 135.264 317.714 133.795Z" fill="#FFEC2D" style="fill:#FFEC2D;fill:color(display-p3 1.0000 0.9255 0.1765);fill-opacity:1;"/>
</g>
</g>
<g id="kz-c_2">
<g id="kz-b_5">
<path id="kz-a_17" d="M360.181 129.631C363.956 130.336 365.838 128.265 366.402 125.441C367.155 121.675 365.561 102.707 365.561 102.707C365.561 102.707 356.8 119.606 356.047 123.371C355.483 126.196 356.415 128.878 360.181 129.631Z" fill="#FFEC2D" style="fill:#FFEC2D;fill:color(display-p3 1.0000 0.9255 0.1765);fill-opacity:1;"/>
<path id="kz-a_18" d="M417.769 215.981C417.064 219.756 419.135 221.638 421.959 222.203C425.725 222.955 444.693 221.361 444.693 221.361C444.693 221.361 427.794 212.6 424.028 211.847C421.204 211.283 418.522 212.215 417.769 215.981Z" fill="#FFEC2D" style="fill:#FFEC2D;fill:color(display-p3 1.0000 0.9255 0.1765);fill-opacity:1;"/>
<path id="kz-a_19" d="M331.419 273.569C327.644 272.864 325.762 274.935 325.197 277.759C324.445 281.525 326.039 300.493 326.039 300.493C326.039 300.493 334.8 283.594 335.553 279.829C336.117 277.004 335.185 274.322 331.419 273.569Z" fill="#FFEC2D" style="fill:#FFEC2D;fill:color(display-p3 1.0000 0.9255 0.1765);fill-opacity:1;"/>
<path id="kz-a_20" d="M273.831 187.219C274.536 183.444 272.465 181.562 269.641 180.997C265.875 180.245 246.907 181.839 246.907 181.839C246.907 181.839 263.806 190.6 267.571 191.353C270.396 191.917 273.078 190.985 273.831 187.219Z" fill="#FFEC2D" style="fill:#FFEC2D;fill:color(display-p3 1.0000 0.9255 0.1765);fill-opacity:1;"/>
</g>
<g id="kz-b_6">
<path id="kz-a_21" d="M386.628 140.612C389.845 142.709 392.377 141.515 393.979 139.122C396.115 135.931 401.901 117.797 401.901 117.797C401.901 117.797 387.34 130.057 385.204 133.248C383.602 135.641 383.437 138.476 386.628 140.612Z" fill="#FFEC2D" style="fill:#FFEC2D;fill:color(display-p3 1.0000 0.9255 0.1765);fill-opacity:1;"/>
<path id="kz-a_22" d="M406.788 242.428C404.691 245.645 405.885 248.177 408.278 249.779C411.469 251.915 429.603 257.701 429.603 257.701C429.603 257.701 417.343 243.14 414.152 241.004C411.759 239.402 408.924 239.237 406.788 242.428Z" fill="#FFEC2D" style="fill:#FFEC2D;fill:color(display-p3 1.0000 0.9255 0.1765);fill-opacity:1;"/>
<path id="kz-a_23" d="M304.972 262.588C301.755 260.491 299.223 261.685 297.621 264.078C295.485 267.269 289.699 285.403 289.699 285.403C289.699 285.403 304.26 273.143 306.396 269.952C307.998 267.559 308.163 264.724 304.972 262.588Z" fill="#FFEC2D" style="fill:#FFEC2D;fill:color(display-p3 1.0000 0.9255 0.1765);fill-opacity:1;"/>
<path id="kz-a_24" d="M284.812 160.772C286.909 157.555 285.715 155.023 283.322 153.421C280.131 151.285 261.997 145.499 261.997 145.499C261.997 145.499 274.257 160.06 277.448 162.196C279.841 163.798 282.676 163.963 284.812 160.772Z" fill="#FFEC2D" style="fill:#FFEC2D;fill:color(display-p3 1.0000 0.9255 0.1765);fill-opacity:1;"/>
</g>
<g id="kz-b_7">
<path id="kz-a_25" d="M406.859 160.879C409.029 164.047 411.825 163.913 414.221 162.315C417.416 160.185 429.701 145.645 429.701 145.645C429.701 145.645 411.557 151.399 408.362 153.53C405.966 155.128 404.728 157.684 406.859 160.879Z" fill="#FFEC2D" style="fill:#FFEC2D;fill:color(display-p3 1.0000 0.9255 0.1765);fill-opacity:1;"/>
<path id="kz-a_26" d="M386.521 262.659C383.353 264.829 383.487 267.625 385.085 270.021C387.215 273.216 401.755 285.501 401.755 285.501C401.755 285.501 396.001 267.357 393.87 264.162C392.272 261.766 389.716 260.528 386.521 262.659Z" fill="#FFEC2D" style="fill:#FFEC2D;fill:color(display-p3 1.0000 0.9255 0.1765);fill-opacity:1;"/>
<path id="kz-a_27" d="M284.741 242.321C282.571 239.153 279.775 239.287 277.379 240.885C274.184 243.015 261.899 257.555 261.899 257.555C261.899 257.555 280.044 251.801 283.238 249.67C285.634 248.072 286.872 245.516 284.741 242.321Z" fill="#FFEC2D" style="fill:#FFEC2D;fill:color(display-p3 1.0000 0.9255 0.1765);fill-opacity:1;"/>
<path id="kz-a_28" d="M305.079 140.541C308.247 138.371 308.113 135.575 306.515 133.179C304.385 129.984 289.845 117.699 289.845 117.699C289.845 117.699 295.599 135.843 297.73 139.038C299.328 141.434 301.884 142.672 305.079 140.541Z" fill="#FFEC2D" style="fill:#FFEC2D;fill:color(display-p3 1.0000 0.9255 0.1765);fill-opacity:1;"/>
</g>
<g id="kz-b_8">
<path id="kz-a_29" d="M417.794 187.345C418.587 191.102 421.221 192.049 424.046 191.489C427.813 190.743 444.727 182.012 444.727 182.012C444.727 182.012 425.762 180.385 421.995 181.13C419.17 181.69 417.048 183.578 417.794 187.345Z" fill="#FFEC2D" style="fill:#FFEC2D;fill:color(display-p3 1.0000 0.9255 0.1765);fill-opacity:1;"/>
<path id="kz-a_30" d="M360.055 273.594C356.298 274.387 355.351 277.021 355.911 279.846C356.657 283.613 365.388 300.527 365.388 300.527C365.388 300.527 367.015 281.562 366.27 277.795C365.71 274.97 363.822 272.848 360.055 273.594Z" fill="#FFEC2D" style="fill:#FFEC2D;fill:color(display-p3 1.0000 0.9255 0.1765);fill-opacity:1;"/>
<path id="kz-a_31" d="M273.806 215.855C273.013 212.098 270.379 211.151 267.554 211.711C263.787 212.457 246.873 221.188 246.873 221.188C246.873 221.188 265.838 222.815 269.605 222.07C272.43 221.51 274.552 219.622 273.806 215.855Z" fill="#FFEC2D" style="fill:#FFEC2D;fill:color(display-p3 1.0000 0.9255 0.1765);fill-opacity:1;"/>
<path id="kz-a_32" d="M331.545 129.606C335.302 128.813 336.249 126.179 335.689 123.354C334.944 119.587 326.212 102.673 326.212 102.673C326.212 102.673 324.585 121.638 325.33 125.405C325.89 128.23 327.778 130.352 331.545 129.606Z" fill="#FFEC2D" style="fill:#FFEC2D;fill:color(display-p3 1.0000 0.9255 0.1765);fill-opacity:1;"/>
</g>
</g>
</g>
<g id="Group_3">
<path id="Vector_3" d="M343.584 314.4C341.904 317.424 340.896 320.928 338.784 323.664C332.256 317.76 322.848 317.904 314.592 317.568C307.776 317.184 300.384 316.56 295.104 311.712C289.584 307.152 285.024 301.296 278.88 297.6C273.105 296.36 267.678 293.851 262.992 290.256C253.296 282.336 247.728 270.576 238.224 262.416C236.448 260.688 234.288 259.296 232.272 257.808C230.352 258.288 231.216 262.416 228.864 260.304C227.568 259.344 224.352 259.296 224.064 260.592C226.944 264.432 229.872 268.752 230.304 273.648C228.288 273.84 224.784 273.216 223.824 273.936C226.46 277.895 229.775 281.356 233.616 284.16C231.792 284.448 228.192 284.304 227.472 285.024C231.066 288.465 235.503 290.899 240.336 292.08C241.296 293.424 238.848 296.016 240.96 297.168C242.16 297.648 246.192 298.512 243.408 299.904C241.488 301.152 242.208 304.176 244.656 304.08C246.192 304.896 249.648 305.04 249.936 306.48C248.544 307.824 244.32 309.456 247.92 310.8C251.314 312.724 255.112 313.825 259.008 314.016C257.088 315.648 254.688 316.56 252.72 318.096C261.6 323.328 271.44 326.736 281.232 330.096C285.072 331.344 289.056 332.544 293.088 333.312C281.376 332.64 270.048 329.184 259.392 324.432C253.888 322 248.32 319.728 242.688 317.616C245.136 316.32 248.016 315.984 250.608 314.88C245.232 313.824 239.424 313.44 234.768 310.56C235.44 309.216 238.128 309.168 239.664 308.496C242.544 307.824 244.272 307.056 240.288 306.768C236.256 305.664 231.648 306.144 228.048 303.744C228.288 302.304 232.032 302.784 233.52 302.16C235.44 301.824 237.552 301.536 239.088 300.24C232.848 297.696 224.688 299.52 219.792 294C218.688 291.888 223.296 293.568 224.592 293.232C227.952 293.232 231.552 294.288 234.768 292.944C225.648 288.96 215.904 285.264 208.992 277.872C208.224 276.672 205.92 273.408 207.792 273.024C213.168 273.744 217.056 279.6 222.864 278.688C223.632 277.68 219.504 276 218.448 274.512C209.763 267.537 202.188 259.283 195.984 250.032C195.6 246.816 200.544 246.336 201.84 248.784C208.272 255.024 214.08 262.224 222.096 266.448C224.976 267.84 220.464 264.816 219.888 263.712C212.265 255.259 205.675 245.93 200.256 235.92C199.296 234.096 197.808 230.784 200.592 229.824C203.328 228.432 206.112 230.304 207.504 232.704C212.928 239.568 216.96 247.728 223.728 253.44C217.968 242.256 211.776 230.4 211.632 217.536C211.776 215.04 211.92 211.296 215.328 211.344C218.208 210.912 217.728 214.56 218.688 216.288C221.472 225.792 222.672 236.064 228.288 244.416C227.088 237.408 225.216 230.16 226.464 223.008C226.752 220.608 229.344 219.936 231.12 221.376C232.512 224.736 232.8 229.008 234.048 232.656C241.529 257.504 257.28 279.047 278.688 293.712C296.221 305.7 316.673 312.717 337.872 314.016C339.792 314.176 341.696 314.288 343.584 314.352M409.056 358.08C405.6 360.192 402.912 356.448 400.032 355.344C397.92 356.496 397.728 360.24 395.808 362.064C393.504 364.704 390.624 361.296 390.864 358.704C388.08 361.056 386.688 366.384 382.224 365.616C380.064 363.888 378.48 360.24 376.848 364.416C375.552 366.432 372.048 369.312 370.176 366.24C369.6 363.552 368.256 360.384 366.816 364.656C365.76 367.728 362.496 369.936 359.424 368.592C357.696 367.2 360.768 362.016 358.608 362.352C355.344 364.56 353.424 369.888 348.864 369.456C347.088 367.536 349.968 364.128 348 361.92C345.744 364.848 343.2 369.168 339.216 369.456C337.296 367.92 339.312 363.456 338.064 362.832C334.032 365.232 329.712 369.6 324.624 368.256C326.592 360.576 334.944 357.936 341.904 357.36C353.952 355.872 366.624 358.608 378.24 354.24C380.112 353.088 384.624 351.504 383.04 348.864C381.6 346.752 386.736 347.568 387.216 345.12C386.928 342.048 389.616 342.48 392.208 342.24C403.92 341.712 415.488 344.16 427.152 344.592C428.016 350.256 421.728 354.24 416.592 352.512C414.192 352.896 410.592 346.944 411.312 351.264C410.832 353.568 411.12 356.544 409.056 358.08ZM309.504 346.464C312.192 348.912 314.112 345.984 316.656 344.88C324.964 341.628 332.769 337.216 339.84 331.776C344.256 328.128 348.096 323.376 354.048 322.176C365.664 318.672 378 319.104 389.616 315.84C398.496 303.744 413.52 299.376 426.144 292.416C428.976 291.552 430.08 289.2 430.944 286.656C435.744 279.024 442.32 272.304 450.096 267.696C453.763 265.52 458.091 264.737 462.288 265.488C461.726 270.39 459.387 274.916 455.712 278.208C458.544 278.16 460.992 276.384 463.776 276.48C464.736 281.568 459.264 284.208 456.336 287.376C457.968 287.76 464.208 288.24 460.8 289.872C456.48 292.848 451.536 294.912 447.552 298.416C451.248 299.088 451.68 299.856 447.936 301.2C445.872 302.544 441.984 303.024 441.6 305.712C444.384 307.44 440.352 309.072 438.768 309.648C435.792 310.368 432.624 311.664 436.608 313.968C435.12 316.224 431.856 316.704 429.216 316.464C430.032 319.056 431.184 321.936 427.872 323.088C420.439 328.954 411.541 332.673 402.144 333.84C413.904 334.704 426.048 332.544 436.08 326.16C437.424 324.576 444.384 322.848 440.496 321.552C438.672 320.784 434.736 319.92 434.448 318.528C439.92 315.168 446.784 316.368 452.64 314.4C452.784 312.48 448.176 313.008 446.448 312.576C442.368 312.24 442.608 311.184 446.544 310.8C451.536 309.456 457.2 309.216 461.424 306C458.016 304.368 453.696 305.76 450.048 304.464C456.24 301.776 463.536 301.488 469.104 297.408C471.648 294.576 465.84 295.488 464.16 295.536C460.752 296.16 459.168 294.48 463.056 293.088C469.728 288.144 478.128 284.976 482.832 277.872C483.936 276.288 485.424 271.488 481.872 273.168C477.264 274.752 473.184 279.936 467.856 278.352C478.32 270.24 488.208 261.072 495.36 249.888C495.744 246.624 490.656 246.288 489.36 248.832C482.64 255.264 476.592 262.896 468 266.976C476.097 258.877 483.13 249.78 488.928 239.904C490.224 237.024 493.632 233.52 491.808 230.304C488.784 227.808 485.04 230.112 483.504 233.04C478.272 239.856 474.336 247.776 467.664 253.344C473.472 242.16 479.568 230.208 479.664 217.344C479.664 214.656 479.184 210.72 475.536 211.248C472.656 211.728 473.376 216.048 472.176 218.208C469.584 227.04 468.336 236.592 463.056 244.272C464.256 237.12 466.32 229.632 464.736 222.432C463.968 219.168 458.736 220.56 459.456 223.776C453.216 255.408 431.952 283.056 404.256 299.04C391.536 306.24 377.376 310.848 362.88 312.96C359.04 313.776 354.816 313.296 351.12 314.64C342.096 321.504 336.672 333.072 325.296 336.672C320.16 339.216 313.536 339.744 309.888 344.448C309.6 345.079 309.468 345.771 309.504 346.464ZM334.32 341.52C332.592 341.584 330.896 341.856 329.232 342.336C326.976 342.672 324.816 343.44 322.608 343.776L321.696 343.968L320.208 344.112C320.4 344.917 320.4 345.755 320.208 346.56C320.052 346.923 319.823 347.249 319.536 347.52C319.248 347.904 318.896 348.192 318.48 348.384C318.09 348.576 317.666 348.69 317.232 348.72C316.816 348.752 316.384 348.688 315.936 348.528C315.52 348.4 315.12 348.16 314.736 347.808L313.392 348.048H312.144L310.8 347.568L309.552 346.944C307.92 347.904 306.096 348.816 305.088 350.496C304.619 351.265 304.355 352.14 304.32 353.04C304.256 354.192 304.48 355.312 304.992 356.4C305.184 356.688 305.328 355.296 305.856 355.104C306.816 354.336 307.888 353.808 309.072 353.52C310.032 353.04 309.888 353.52 309.504 354.288C309.408 354.72 308.88 356.208 309.6 355.44C312.919 354.2 316.425 353.535 319.968 353.472C325.056 352.992 330.144 352.752 335.232 352.752L349.632 353.04C351.936 353.136 354.24 353.616 356.496 353.232C357.024 353.088 357.888 353.088 358.224 352.752C357.168 352.176 355.968 352.128 354.864 351.984H345.696C343.152 351.744 340.512 351.696 338.112 350.736C337.44 350.496 336.864 349.872 336.24 350.544C335.326 350.87 334.375 351.08 333.408 351.168C331.712 351.232 330.08 350.944 328.512 350.304C329.664 348.8 330.896 347.36 332.208 345.984L329.232 345.36C330.96 344.08 332.656 342.8 334.32 341.52Z" fill="#FFEC2D" style="fill:#FFEC2D;fill:color(display-p3 1.0000 0.9255 0.1765);fill-opacity:1;"/>
<path id="Vector_4" d="M316.8 347.184C317.436 347.184 317.952 346.668 317.952 346.032C317.952 345.396 317.436 344.88 316.8 344.88C316.164 344.88 315.648 345.396 315.648 346.032C315.648 346.668 316.164 347.184 316.8 347.184Z" fill="#FFEC2D" style="fill:#FFEC2D;fill:color(display-p3 1.0000 0.9255 0.1765);fill-opacity:1;"/>
<path id="Vector_5" d="M316.704 346.32C316.969 346.32 317.184 346.105 317.184 345.84C317.184 345.575 316.969 345.36 316.704 345.36C316.439 345.36 316.224 345.575 316.224 345.84C316.224 346.105 316.439 346.32 316.704 346.32Z" fill="#FFEC2D" stroke="#FFEC2D" style="fill:#FFEC2D;fill:color(display-p3 1.0000 0.9255 0.1765);fill-opacity:1;stroke:#FFEC2D;stroke:color(display-p3 1.0000 0.9255 0.1765);stroke-opacity:1;" stroke-width="0.192"/>
</g>
<g id="Group_4">
<g id="kz-f">
<g id="kz-e">
<path id="Vector_6" d="M57.6 35.04C57.6 35.04 52.9919 31.104 51.4079 33.072C48.912 36.192 59.184 51.792 59.184 57.264C59.184 66.288 53.136 68.736 45.744 69.984C40.752 70.848 32.64 69.648 32.64 69.648C34.176 67.584 35.184 66.96 37.728 66.816C34.848 65.376 31.968 62.112 31.968 57.072C31.968 49.344 35.1359 46.128 35.1359 37.392C35.1359 32.64 31.2 26.4 31.2 26.4C38.208 27.12 41.6639 33.6 39.6959 38.784C40.2361 38.8915 40.7945 38.8645 41.3218 38.7055C41.8491 38.5465 42.3293 38.2602 42.72 37.872C43.2 39.312 42.432 40.992 41.328 42.432C42.192 42.912 42.864 42.624 44.208 42.336C44.112 43.776 43.248 45.408 41.04 46.896C47.376 45.264 51.2159 49.632 51.2159 54.24C51.2159 57.744 48.8159 60.24 46.4159 60.24C45.6479 60.24 44.496 59.904 43.872 59.424C43.392 60.384 43.68 61.68 44.112 62.64C42.384 62.16 41.232 61.104 42.048 58.944C40.704 58.848 39.664 58.368 38.928 57.504C39.664 56.544 40.704 56.064 42.048 56.064C41.088 54.048 42.1919 52.944 43.7759 52.032C43.7759 52.032 42.768 56.064 45.312 56.064C46.464 56.064 47.52 55.728 47.52 54C47.52 52.512 46.224 50.448 43.2 50.592C40.176 50.736 37.7759 52.656 37.7759 57.456C37.7759 61.872 41.376 64.08 46.08 64.176C50.304 64.368 53.52 62.064 53.52 57.696C53.52 51.84 45.12 38.592 45.12 33.408C45.12 29.52 48.576 27.312 52.032 27.312C56.448 27.312 60.192 31.728 60.192 31.728L57.6 34.992V35.04Z" fill="#FFEC2D" style="fill:#FFEC2D;fill:color(display-p3 1.0000 0.9255 0.1765);fill-opacity:1;"/>
<path id="kz-d" d="M58.5601 140.208C58.5601 149.952 49.824 154.944 42.96 154.944C33.744 154.944 28.8 149.424 28.8 142.176C28.8 138.096 29.568 135.504 31.44 131.616L52.656 87.6C53.4247 85.7485 53.7533 83.744 53.616 81.744C53.616 77.808 49.7761 74.592 45.7921 74.544C42.1441 74.4 38.112 77.904 38.112 81.888C38.112 86.736 40.656 88.896 43.248 88.896C46.416 88.896 47.6641 87.6 47.6641 85.344C47.6001 83.84 46.992 83.104 45.84 83.136C43.104 83.136 43.92 86.784 43.92 86.784C43.5588 86.7172 43.2167 86.5714 42.9183 86.3572C42.6198 86.1429 42.3724 85.8654 42.1935 85.5444C42.0147 85.2235 41.909 84.867 41.8838 84.5005C41.8587 84.1339 41.9147 83.7664 42.048 83.424C41.018 83.2002 40.0903 82.6436 39.408 81.84C40.112 81.104 40.992 80.624 42.048 80.4C41.424 78.288 42.2881 77.28 44.1121 76.8C43.7968 77.525 43.713 78.3296 43.8721 79.104C46.7521 78.24 51.216 79.584 51.216 84.576C51.216 89.568 47.76 93.744 41.28 92.736C42.816 93.456 43.584 94.944 43.776 96.624C42.576 96.144 41.28 96.144 41.28 96.144C42.048 97.44 43.104 98.544 43.056 101.232C41.856 100.656 40.704 99.648 39.216 100.272C41.616 105.072 38.64 111.6 31.056 113.136C33.808 109.84 35.1841 106.432 35.1841 102.912C35.1841 91.632 32.0641 89.76 32.0641 81.888C32.1134 80.0623 32.5962 78.2745 33.4725 76.6721C34.3488 75.0697 35.5936 73.6987 37.1041 72.672V72.816C36.1752 72.6252 35.2972 72.2401 34.5278 71.6858C33.7585 71.1315 33.1151 70.4207 32.64 69.6C37.9872 68.1263 43.6398 68.1761 48.96 69.744C50.7396 69.9958 52.4399 70.6441 53.9353 71.6411C55.4308 72.638 56.6832 73.9582 57.6 75.504C58.5584 77.6908 59.0532 80.0524 59.0532 82.44C59.0532 84.8276 58.5584 87.1892 57.6 89.376C54.576 95.616 40.464 125.664 36.048 135.072C35.088 137.088 34.592 139.232 34.56 141.504C34.56 147.264 39.84 149.28 42.816 149.28C46.416 149.28 50.1121 146.544 50.1121 143.136C50.1121 140.976 48.9121 139.632 47.2321 139.632C43.1521 139.632 43.392 143.088 44.208 145.296C41.664 144.144 40.224 142.128 40.608 140.016C39.033 139.752 37.6035 138.935 36.576 137.712C37.536 136.464 38.784 135.504 40.608 135.456C39.792 132.144 42.048 130.752 44.208 129.984C43.536 132.384 43.0561 135.216 47.2321 135.216C50.2561 135.216 52.608 135.696 54 137.712L54.336 124.752C54.528 120.864 49.152 120.912 45.696 122.112C46.992 117.648 49.632 115.2 55.776 115.824C54.8347 115.462 54.0314 114.813 53.4799 113.968C52.9285 113.124 52.657 112.127 52.7041 111.12C52.7041 107.472 55.68 103.44 57.6 102.24L58.5601 140.16V140.208Z" fill="#FFEC2D" style="fill:#FFEC2D;fill:color(display-p3 1.0000 0.9255 0.1765);fill-opacity:1;"/>
<path id="kz-d_2" d="M58.5601 169.392C58.5601 159.648 49.824 154.656 42.96 154.656C33.744 154.656 28.8 160.176 28.8 167.424C28.8 171.504 29.568 174.096 31.44 177.984L52.656 222C53.4247 223.851 53.7533 225.856 53.616 227.856C53.616 231.792 49.7761 235.008 45.7921 235.056C42.1441 235.2 38.112 231.696 38.112 227.712C38.112 222.864 40.656 220.704 43.248 220.704C46.416 220.704 47.6641 222 47.6641 224.256C47.6001 225.76 46.992 226.496 45.84 226.464C43.104 226.464 43.92 222.816 43.92 222.816C43.5588 222.883 43.2167 223.029 42.9183 223.243C42.6198 223.457 42.3724 223.735 42.1935 224.056C42.0147 224.377 41.909 224.733 41.8838 225.1C41.8587 225.466 41.9147 225.834 42.048 226.176C41.018 226.4 40.0903 226.956 39.408 227.76C40.112 228.496 40.992 228.976 42.048 229.2C41.424 231.312 42.2881 232.32 44.1121 232.8C43.7968 232.075 43.713 231.27 43.8721 230.496C46.7521 231.36 51.216 230.016 51.216 225.024C51.216 220.032 47.76 215.856 41.28 216.864C42.816 216.144 43.584 214.656 43.776 212.976C42.576 213.456 41.28 213.456 41.28 213.456C42.048 212.16 43.104 211.056 43.056 208.368C41.856 208.944 40.704 209.952 39.216 209.328C41.616 204.528 38.64 198 31.056 196.464C33.808 199.76 35.1841 203.168 35.1841 206.688C35.1841 217.968 32.0641 219.84 32.0641 227.712C32.1134 229.538 32.5962 231.325 33.4725 232.928C34.3488 234.53 35.5936 235.901 37.1041 236.928V236.784C36.1752 236.975 35.2972 237.36 34.5278 237.914C33.7585 238.469 33.1151 239.179 32.64 240C37.9872 241.474 43.6398 241.424 48.96 239.856C50.7396 239.604 52.4399 238.956 53.9353 237.959C55.4308 236.962 56.6832 235.642 57.6 234.096C58.5584 231.909 59.0532 229.548 59.0532 227.16C59.0532 224.772 58.5584 222.411 57.6 220.224C54.576 213.984 40.464 183.936 36.048 174.528C35.088 172.512 34.592 170.368 34.56 168.096C34.56 162.336 39.84 160.32 42.816 160.32C46.416 160.32 50.1121 163.056 50.1121 166.464C50.1121 168.624 48.9121 169.968 47.2321 169.968C43.1521 169.968 43.392 166.512 44.208 164.304C41.664 165.456 40.224 167.472 40.608 169.584C39.033 169.848 37.6035 170.665 36.576 171.888C37.536 173.136 38.784 174.096 40.608 174.144C39.792 177.456 42.048 178.848 44.208 179.616C43.536 177.216 43.0561 174.384 47.2321 174.384C50.2561 174.384 52.608 173.904 54 171.888L54.336 184.848C54.528 188.736 49.152 188.688 45.696 187.488C46.992 191.952 49.632 194.4 55.776 193.776C54.8347 194.138 54.0314 194.787 53.4799 195.632C52.9285 196.476 52.657 197.473 52.7041 198.48C52.7041 202.128 55.68 206.16 57.6 207.36L58.5601 169.44V169.392Z" fill="#FFEC2D" style="fill:#FFEC2D;fill:color(display-p3 1.0000 0.9255 0.1765);fill-opacity:1;"/>
</g>
<g id="kz-e_2">
<path id="Vector_7" d="M57.6002 35.04C57.6002 35.04 62.2082 31.104 63.7922 33.072C66.2882 36.192 56.0162 51.792 56.0162 57.264C56.0162 66.288 62.0642 68.736 69.4562 69.984C74.4482 70.848 82.5602 69.648 82.5602 69.648C81.0242 67.584 80.0162 66.96 77.4722 66.816C80.3522 65.376 83.2322 62.112 83.2322 57.072C83.2322 49.344 80.0642 46.128 80.0642 37.392C80.0642 32.64 84.0002 26.4 84.0002 26.4C76.9922 27.12 73.5362 33.6 75.5042 38.784C74.9641 38.8915 74.4057 38.8645 73.8784 38.7055C73.3511 38.5465 72.8709 38.2602 72.4802 37.872C72.0002 39.312 72.7682 40.992 73.8722 42.432C73.0082 42.912 72.3362 42.624 70.9922 42.336C71.0882 43.776 71.9522 45.408 74.1602 46.896C67.8242 45.264 63.9842 49.632 63.9842 54.24C63.9842 57.744 66.3842 60.24 68.7842 60.24C69.5522 60.24 70.7042 59.904 71.3282 59.424C71.8082 60.384 71.5202 61.68 71.0882 62.64C72.8162 62.16 73.9682 61.104 73.1522 58.944C74.4962 58.848 75.5362 58.368 76.2722 57.504C75.5362 56.544 74.4962 56.064 73.1522 56.064C74.1122 54.048 73.0082 52.944 71.4242 52.032C71.4242 52.032 72.4322 56.064 69.8882 56.064C68.7362 56.064 67.6802 55.728 67.6802 54C67.6802 52.512 68.9762 50.448 72.0002 50.592C75.0242 50.736 77.4242 52.656 77.4242 57.456C77.4242 61.872 73.8242 64.08 69.1202 64.176C64.8962 64.368 61.6802 62.064 61.6802 57.696C61.6802 51.84 70.0802 38.592 70.0802 33.408C70.0802 29.52 66.6242 27.312 63.1682 27.312C58.7522 27.312 55.0082 31.728 55.0082 31.728L57.6002 34.992V35.04Z" fill="#FFEC2D" style="fill:#FFEC2D;fill:color(display-p3 1.0000 0.9255 0.1765);fill-opacity:1;"/>
<path id="kz-d_3" d="M56.6401 140.208C56.6401 149.952 65.3761 154.944 72.2401 154.944C81.4561 154.944 86.4001 149.424 86.4001 142.176C86.4001 138.096 85.6321 135.504 83.7601 131.616L62.5441 87.6C61.7755 85.7485 61.4469 83.744 61.5841 81.744C61.5841 77.808 65.4241 74.592 69.4081 74.544C73.0561 74.4 77.0881 77.904 77.0881 81.888C77.0881 86.736 74.5441 88.896 71.9521 88.896C68.7841 88.896 67.5361 87.6 67.5361 85.344C67.6001 83.84 68.2081 83.104 69.3601 83.136C72.0961 83.136 71.2801 86.784 71.2801 86.784C71.6414 86.7172 71.9835 86.5714 72.2819 86.3572C72.5804 86.1429 72.8278 85.8654 73.0067 85.5444C73.1855 85.2235 73.2912 84.867 73.3164 84.5005C73.3415 84.1339 73.2855 83.7664 73.1521 83.424C74.1822 83.2002 75.1099 82.6436 75.7921 81.84C75.0881 81.104 74.2081 80.624 73.1521 80.4C73.7761 78.288 72.9121 77.28 71.0881 76.8C71.4034 77.525 71.4872 78.3296 71.3281 79.104C68.4481 78.24 63.9841 79.584 63.9841 84.576C63.9841 89.568 67.4401 93.744 73.9201 92.736C72.3841 93.456 71.6161 94.944 71.4241 96.624C72.6241 96.144 73.9201 96.144 73.9201 96.144C73.1521 97.44 72.0961 98.544 72.1441 101.232C73.3441 100.656 74.4961 99.648 75.9841 100.272C73.5841 105.072 76.5601 111.6 84.1441 113.136C81.3921 109.84 80.0161 106.432 80.0161 102.912C80.0161 91.632 83.1361 89.76 83.1361 81.888C83.0867 80.0623 82.604 78.2745 81.7277 76.6721C80.8514 75.0697 79.6066 73.6987 78.0961 72.672V72.816C79.025 72.6252 79.903 72.2401 80.6724 71.6858C81.4417 71.1315 82.0851 70.4207 82.5601 69.6C77.213 68.1263 71.5604 68.1761 66.2401 69.744C64.4606 69.9958 62.7603 70.6441 61.2649 71.6411C59.7694 72.638 58.517 73.9582 57.6001 75.504C56.6418 77.6908 56.147 80.0524 56.147 82.44C56.147 84.8276 56.6418 87.1892 57.6001 89.376C60.6241 95.616 74.7361 125.664 79.1521 135.072C80.1121 137.088 80.6081 139.232 80.6401 141.504C80.6401 147.264 75.3601 149.28 72.3841 149.28C68.7841 149.28 65.0881 146.544 65.0881 143.136C65.0881 140.976 66.2881 139.632 67.9681 139.632C72.0481 139.632 71.8081 143.088 70.9921 145.296C73.5361 144.144 74.9761 142.128 74.5921 140.016C76.1672 139.752 77.5966 138.935 78.6241 137.712C77.6641 136.464 76.4161 135.504 74.5921 135.456C75.4081 132.144 73.1521 130.752 70.9921 129.984C71.6641 132.384 72.1441 135.216 67.9681 135.216C64.9441 135.216 62.5921 135.696 61.2001 137.712L60.8641 124.752C60.6721 120.864 66.0481 120.912 69.5041 122.112C68.2081 117.648 65.5681 115.2 59.4241 115.824C60.3654 115.462 61.1688 114.813 61.7203 113.968C62.2717 113.124 62.5432 112.127 62.4961 111.12C62.4961 107.472 59.5201 103.44 57.6001 102.24L56.6401 140.16V140.208Z" fill="#FFEC2D" style="fill:#FFEC2D;fill:color(display-p3 1.0000 0.9255 0.1765);fill-opacity:1;"/>
<path id="kz-d_4" d="M56.6401 169.392C56.6401 159.648 65.3761 154.656 72.2401 154.656C81.4561 154.656 86.4001 160.176 86.4001 167.424C86.4001 171.504 85.6321 174.096 83.7601 177.984L62.5441 222C61.7755 223.851 61.4469 225.856 61.5841 227.856C61.5841 231.792 65.4241 235.008 69.4081 235.056C73.0561 235.2 77.0881 231.696 77.0881 227.712C77.0881 222.864 74.5441 220.704 71.9521 220.704C68.7841 220.704 67.5361 222 67.5361 224.256C67.6001 225.76 68.2081 226.496 69.3601 226.464C72.0961 226.464 71.2801 222.816 71.2801 222.816C71.6414 222.883 71.9835 223.029 72.2819 223.243C72.5804 223.457 72.8278 223.735 73.0067 224.056C73.1855 224.377 73.2912 224.733 73.3164 225.1C73.3415 225.466 73.2855 225.834 73.1521 226.176C74.1822 226.4 75.1099 226.956 75.7921 227.76C75.0881 228.496 74.2081 228.976 73.1521 229.2C73.7761 231.312 72.9121 232.32 71.0881 232.8C71.4034 232.075 71.4872 231.27 71.3281 230.496C68.4481 231.36 63.9841 230.016 63.9841 225.024C63.9841 220.032 67.4401 215.856 73.9201 216.864C72.3841 216.144 71.6161 214.656 71.4241 212.976C72.6241 213.456 73.9201 213.456 73.9201 213.456C73.1521 212.16 72.0961 211.056 72.1441 208.368C73.3441 208.944 74.4961 209.952 75.9841 209.328C73.5841 204.528 76.5601 198 84.1441 196.464C81.3921 199.76 80.0161 203.168 80.0161 206.688C80.0161 217.968 83.1361 219.84 83.1361 227.712C83.0867 229.538 82.604 231.325 81.7277 232.928C80.8514 234.53 79.6066 235.901 78.0961 236.928V236.784C79.025 236.975 79.903 237.36 80.6724 237.914C81.4417 238.469 82.0851 239.179 82.5601 240C77.213 241.474 71.5604 241.424 66.2401 239.856C64.4606 239.604 62.7603 238.956 61.2649 237.959C59.7694 236.962 58.517 235.642 57.6001 234.096C56.6418 231.909 56.147 229.548 56.147 227.16C56.147 224.772 56.6418 222.411 57.6001 220.224C60.6241 213.984 74.7361 183.936 79.1521 174.528C80.1121 172.512 80.6081 170.368 80.6401 168.096C80.6401 162.336 75.3601 160.32 72.3841 160.32C68.7841 160.32 65.0881 163.056 65.0881 166.464C65.0881 168.624 66.2881 169.968 67.9681 169.968C72.0481 169.968 71.8081 166.512 70.9921 164.304C73.5361 165.456 74.9761 167.472 74.5921 169.584C76.1672 169.848 77.5966 170.665 78.6241 171.888C77.6641 173.136 76.4161 174.096 74.5921 174.144C75.4081 177.456 73.1521 178.848 70.9921 179.616C71.6641 177.216 72.1441 174.384 67.9681 174.384C64.9441 174.384 62.5921 173.904 61.2001 171.888L60.8641 184.848C60.6721 188.736 66.0481 188.688 69.5041 187.488C68.2081 191.952 65.5681 194.4 59.4241 193.776C60.3654 194.138 61.1688 194.787 61.7203 195.632C62.2717 196.476 62.5432 197.473 62.4961 198.48C62.4961 202.128 59.5201 206.16 57.6001 207.36L56.6401 169.44V169.392Z" fill="#FFEC2D" style="fill:#FFEC2D;fill:color(display-p3 1.0000 0.9255 0.1765);fill-opacity:1;"/>
</g>
</g>
<g id="kz-f_2">
<g id="kz-e_3">
<path id="Vector_8" d="M57.6 444.96C57.6 444.96 52.9919 448.896 51.4079 446.928C48.912 443.808 59.184 428.208 59.184 422.736C59.184 413.712 53.136 411.264 45.744 410.016C40.752 409.152 32.64 410.352 32.64 410.352C34.176 412.416 35.184 413.04 37.728 413.184C34.848 414.624 31.968 417.888 31.968 422.928C31.968 430.656 35.1359 433.872 35.1359 442.608C35.1359 447.36 31.2 453.6 31.2 453.6C38.208 452.88 41.6639 446.4 39.6959 441.216C40.2361 441.109 40.7945 441.135 41.3218 441.295C41.8491 441.454 42.3293 441.74 42.72 442.128C43.2 440.688 42.432 439.008 41.328 437.568C42.192 437.088 42.864 437.376 44.208 437.664C44.112 436.224 43.248 434.592 41.04 433.104C47.376 434.736 51.2159 430.368 51.2159 425.76C51.2159 422.256 48.8159 419.76 46.4159 419.76C45.6479 419.76 44.496 420.096 43.872 420.576C43.392 419.616 43.68 418.32 44.112 417.36C42.384 417.84 41.232 418.896 42.048 421.056C40.704 421.152 39.664 421.632 38.928 422.496C39.664 423.456 40.704 423.936 42.048 423.936C41.088 425.952 42.1919 427.056 43.7759 427.968C43.7759 427.968 42.768 423.936 45.312 423.936C46.464 423.936 47.52 424.272 47.52 426C47.52 427.488 46.224 429.552 43.2 429.408C40.176 429.264 37.7759 427.344 37.7759 422.544C37.7759 418.128 41.376 415.92 46.08 415.824C50.304 415.632 53.52 417.936 53.52 422.304C53.52 428.16 45.12 441.408 45.12 446.592C45.12 450.48 48.576 452.688 52.032 452.688C56.448 452.688 60.192 448.272 60.192 448.272L57.6 445.008V444.96Z" fill="#FFEC2D" style="fill:#FFEC2D;fill:color(display-p3 1.0000 0.9255 0.1765);fill-opacity:1;"/>
<path id="kz-d_5" d="M58.5601 339.792C58.5601 330.048 49.824 325.056 42.96 325.056C33.744 325.056 28.8 330.576 28.8 337.824C28.8 341.904 29.568 344.496 31.44 348.384L52.656 392.4C53.4247 394.251 53.7533 396.256 53.616 398.256C53.616 402.192 49.7761 405.408 45.7921 405.456C42.1441 405.6 38.112 402.096 38.112 398.112C38.112 393.264 40.656 391.104 43.248 391.104C46.416 391.104 47.6641 392.4 47.6641 394.656C47.6001 396.16 46.992 396.896 45.84 396.864C43.104 396.864 43.92 393.216 43.92 393.216C43.5588 393.283 43.2167 393.429 42.9183 393.643C42.6198 393.857 42.3724 394.135 42.1935 394.456C42.0147 394.777 41.909 395.133 41.8838 395.5C41.8587 395.866 41.9147 396.234 42.048 396.576C41.018 396.8 40.0903 397.356 39.408 398.16C40.112 398.896 40.992 399.376 42.048 399.6C41.424 401.712 42.2881 402.72 44.1121 403.2C43.7968 402.475 43.713 401.67 43.8721 400.896C46.7521 401.76 51.216 400.416 51.216 395.424C51.216 390.432 47.76 386.256 41.28 387.264C42.816 386.544 43.584 385.056 43.776 383.376C42.576 383.856 41.28 383.856 41.28 383.856C42.048 382.56 43.104 381.456 43.056 378.768C41.856 379.344 40.704 380.352 39.216 379.728C41.616 374.928 38.64 368.4 31.056 366.864C33.808 370.16 35.1841 373.568 35.1841 377.088C35.1841 388.368 32.0641 390.24 32.0641 398.112C32.1134 399.938 32.5962 401.725 33.4725 403.328C34.3488 404.93 35.5936 406.301 37.1041 407.328V407.184C36.1752 407.375 35.2972 407.76 34.5278 408.314C33.7585 408.869 33.1151 409.579 32.64 410.4C37.9872 411.874 43.6398 411.824 48.96 410.256C50.7396 410.004 52.4399 409.356 53.9353 408.359C55.4308 407.362 56.6832 406.042 57.6 404.496C58.5584 402.309 59.0532 399.948 59.0532 397.56C59.0532 395.172 58.5584 392.811 57.6 390.624C54.576 384.384 40.464 354.336 36.048 344.928C35.088 342.912 34.592 340.768 34.56 338.496C34.56 332.736 39.84 330.72 42.816 330.72C46.416 330.72 50.1121 333.456 50.1121 336.864C50.1121 339.024 48.9121 340.368 47.2321 340.368C43.1521 340.368 43.392 336.912 44.208 334.704C41.664 335.856 40.224 337.872 40.608 339.984C39.033 340.248 37.6035 341.065 36.576 342.288C37.536 343.536 38.784 344.496 40.608 344.544C39.792 347.856 42.048 349.248 44.208 350.016C43.536 347.616 43.0561 344.784 47.2321 344.784C50.2561 344.784 52.608 344.304 54 342.288L54.336 355.248C54.528 359.136 49.152 359.088 45.696 357.888C46.992 362.352 49.632 364.8 55.776 364.176C54.8347 364.538 54.0314 365.187 53.4799 366.032C52.9285 366.876 52.657 367.873 52.7041 368.88C52.7041 372.528 55.68 376.56 57.6 377.76L58.5601 339.84V339.792Z" fill="#FFEC2D" style="fill:#FFEC2D;fill:color(display-p3 1.0000 0.9255 0.1765);fill-opacity:1;"/>
<path id="kz-d_6" d="M58.5601 310.608C58.5601 320.352 49.824 325.344 42.96 325.344C33.744 325.344 28.8 319.824 28.8 312.576C28.8 308.496 29.568 305.904 31.44 302.016L52.656 258C53.4247 256.149 53.7533 254.144 53.616 252.144C53.616 248.208 49.7761 244.992 45.7921 244.944C42.1441 244.8 38.112 248.304 38.112 252.288C38.112 257.136 40.656 259.296 43.248 259.296C46.416 259.296 47.6641 258 47.6641 255.744C47.6001 254.24 46.992 253.504 45.84 253.536C43.104 253.536 43.92 257.184 43.92 257.184C43.5588 257.117 43.2167 256.971 42.9183 256.757C42.6198 256.543 42.3724 256.265 42.1935 255.944C42.0147 255.623 41.909 255.267 41.8838 254.9C41.8587 254.534 41.9147 254.166 42.048 253.824C41.018 253.6 40.0903 253.044 39.408 252.24C40.112 251.504 40.992 251.024 42.048 250.8C41.424 248.688 42.2881 247.68 44.1121 247.2C43.7968 247.925 43.713 248.73 43.8721 249.504C46.7521 248.64 51.216 249.984 51.216 254.976C51.216 259.968 47.76 264.144 41.28 263.136C42.816 263.856 43.584 265.344 43.776 267.024C42.576 266.544 41.28 266.544 41.28 266.544C42.048 267.84 43.104 268.944 43.056 271.632C41.856 271.056 40.704 270.048 39.216 270.672C41.616 275.472 38.64 282 31.056 283.536C33.808 280.24 35.1841 276.832 35.1841 273.312C35.1841 262.032 32.0641 260.16 32.0641 252.288C32.1134 250.462 32.5962 248.675 33.4725 247.072C34.3488 245.47 35.5936 244.099 37.1041 243.072V243.216C36.1752 243.025 35.2972 242.64 34.5278 242.086C33.7585 241.531 33.1151 240.821 32.64 240C37.9872 238.526 43.6398 238.576 48.96 240.144C50.7396 240.396 52.4399 241.044 53.9353 242.041C55.4308 243.038 56.6832 244.358 57.6 245.904C58.5584 248.091 59.0532 250.452 59.0532 252.84C59.0532 255.228 58.5584 257.589 57.6 259.776C54.576 266.016 40.464 296.064 36.048 305.472C35.088 307.488 34.592 309.632 34.56 311.904C34.56 317.664 39.84 319.68 42.816 319.68C46.416 319.68 50.1121 316.944 50.1121 313.536C50.1121 311.376 48.9121 310.032 47.2321 310.032C43.1521 310.032 43.392 313.488 44.208 315.696C41.664 314.544 40.224 312.528 40.608 310.416C39.033 310.152 37.6035 309.335 36.576 308.112C37.536 306.864 38.784 305.904 40.608 305.856C39.792 302.544 42.048 301.152 44.208 300.384C43.536 302.784 43.0561 305.616 47.2321 305.616C50.2561 305.616 52.608 306.096 54 308.112L54.336 295.152C54.528 291.264 49.152 291.312 45.696 292.512C46.992 288.048 49.632 285.6 55.776 286.224C54.8347 285.862 54.0314 285.213 53.4799 284.368C52.9285 283.524 52.657 282.527 52.7041 281.52C52.7041 277.872 55.68 273.84 57.6 272.64L58.5601 310.56V310.608Z" fill="#FFEC2D" style="fill:#FFEC2D;fill:color(display-p3 1.0000 0.9255 0.1765);fill-opacity:1;"/>
</g>
<g id="kz-e_4">
<path id="Vector_9" d="M57.6002 444.96C57.6002 444.96 62.2082 448.896 63.7922 446.928C66.2882 443.808 56.0162 428.208 56.0162 422.736C56.0162 413.712 62.0642 411.264 69.4562 410.016C74.4482 409.152 82.5602 410.352 82.5602 410.352C81.0242 412.416 80.0162 413.04 77.4722 413.184C80.3522 414.624 83.2322 417.888 83.2322 422.928C83.2322 430.656 80.0642 433.872 80.0642 442.608C80.0642 447.36 84.0002 453.6 84.0002 453.6C76.9922 452.88 73.5362 446.4 75.5042 441.216C74.9641 441.109 74.4057 441.135 73.8784 441.295C73.3511 441.454 72.8709 441.74 72.4802 442.128C72.0002 440.688 72.7682 439.008 73.8722 437.568C73.0082 437.088 72.3362 437.376 70.9922 437.664C71.0882 436.224 71.9522 434.592 74.1602 433.104C67.8242 434.736 63.9842 430.368 63.9842 425.76C63.9842 422.256 66.3842 419.76 68.7842 419.76C69.5522 419.76 70.7042 420.096 71.3282 420.576C71.8082 419.616 71.5202 418.32 71.0882 417.36C72.8162 417.84 73.9682 418.896 73.1522 421.056C74.4962 421.152 75.5362 421.632 76.2722 422.496C75.5362 423.456 74.4962 423.936 73.1522 423.936C74.1122 425.952 73.0082 427.056 71.4242 427.968C71.4242 427.968 72.4322 423.936 69.8882 423.936C68.7362 423.936 67.6802 424.272 67.6802 426C67.6802 427.488 68.9762 429.552 72.0002 429.408C75.0242 429.264 77.4242 427.344 77.4242 422.544C77.4242 418.128 73.8242 415.92 69.1202 415.824C64.8962 415.632 61.6802 417.936 61.6802 422.304C61.6802 428.16 70.0802 441.408 70.0802 446.592C70.0802 450.48 66.6242 452.688 63.1682 452.688C58.7522 452.688 55.0082 448.272 55.0082 448.272L57.6002 445.008V444.96Z" fill="#FFEC2D" style="fill:#FFEC2D;fill:color(display-p3 1.0000 0.9255 0.1765);fill-opacity:1;"/>
<path id="kz-d_7" d="M56.6401 339.792C56.6401 330.048 65.3761 325.056 72.2401 325.056C81.4561 325.056 86.4001 330.576 86.4001 337.824C86.4001 341.904 85.6321 344.496 83.7601 348.384L62.5441 392.4C61.7755 394.251 61.4469 396.256 61.5841 398.256C61.5841 402.192 65.4241 405.408 69.4081 405.456C73.0561 405.6 77.0881 402.096 77.0881 398.112C77.0881 393.264 74.5441 391.104 71.9521 391.104C68.7841 391.104 67.5361 392.4 67.5361 394.656C67.6001 396.16 68.2081 396.896 69.3601 396.864C72.0961 396.864 71.2801 393.216 71.2801 393.216C71.6414 393.283 71.9835 393.429 72.2819 393.643C72.5804 393.857 72.8278 394.135 73.0067 394.456C73.1855 394.777 73.2912 395.133 73.3164 395.5C73.3415 395.866 73.2855 396.234 73.1521 396.576C74.1822 396.8 75.1099 397.356 75.7921 398.16C75.0881 398.896 74.2081 399.376 73.1521 399.6C73.7761 401.712 72.9121 402.72 71.0881 403.2C71.4034 402.475 71.4872 401.67 71.3281 400.896C68.4481 401.76 63.9841 400.416 63.9841 395.424C63.9841 390.432 67.4401 386.256 73.9201 387.264C72.3841 386.544 71.6161 385.056 71.4241 383.376C72.6241 383.856 73.9201 383.856 73.9201 383.856C73.1521 382.56 72.0961 381.456 72.1441 378.768C73.3441 379.344 74.4961 380.352 75.9841 379.728C73.5841 374.928 76.5601 368.4 84.1441 366.864C81.3921 370.16 80.0161 373.568 80.0161 377.088C80.0161 388.368 83.1361 390.24 83.1361 398.112C83.0867 399.938 82.604 401.725 81.7277 403.328C80.8514 404.93 79.6066 406.301 78.0961 407.328V407.184C79.025 407.375 79.903 407.76 80.6724 408.314C81.4417 408.869 82.0851 409.579 82.5601 410.4C77.213 411.874 71.5604 411.824 66.2401 410.256C64.4606 410.004 62.7603 409.356 61.2649 408.359C59.7694 407.362 58.517 406.042 57.6001 404.496C56.6418 402.309 56.147 399.948 56.147 397.56C56.147 395.172 56.6418 392.811 57.6001 390.624C60.6241 384.384 74.7361 354.336 79.1521 344.928C80.1121 342.912 80.6081 340.768 80.6401 338.496C80.6401 332.736 75.3601 330.72 72.3841 330.72C68.7841 330.72 65.0881 333.456 65.0881 336.864C65.0881 339.024 66.2881 340.368 67.9681 340.368C72.0481 340.368 71.8081 336.912 70.9921 334.704C73.5361 335.856 74.9761 337.872 74.5921 339.984C76.1672 340.248 77.5966 341.065 78.6241 342.288C77.6641 343.536 76.4161 344.496 74.5921 344.544C75.4081 347.856 73.1521 349.248 70.9921 350.016C71.6641 347.616 72.1441 344.784 67.9681 344.784C64.9441 344.784 62.5921 344.304 61.2001 342.288L60.8641 355.248C60.6721 359.136 66.0481 359.088 69.5041 357.888C68.2081 362.352 65.5681 364.8 59.4241 364.176C60.3654 364.538 61.1688 365.187 61.7203 366.032C62.2717 366.876 62.5432 367.873 62.4961 368.88C62.4961 372.528 59.5201 376.56 57.6001 377.76L56.6401 339.84V339.792Z" fill="#FFEC2D" style="fill:#FFEC2D;fill:color(display-p3 1.0000 0.9255 0.1765);fill-opacity:1;"/>
<path id="kz-d_8" d="M56.6401 310.608C56.6401 320.352 65.3761 325.344 72.2401 325.344C81.4561 325.344 86.4001 319.824 86.4001 312.576C86.4001 308.496 85.6321 305.904 83.7601 302.016L62.5441 258C61.7755 256.149 61.4469 254.144 61.5841 252.144C61.5841 248.208 65.4241 244.992 69.4081 244.944C73.0561 244.8 77.0881 248.304 77.0881 252.288C77.0881 257.136 74.5441 259.296 71.9521 259.296C68.7841 259.296 67.5361 258 67.5361 255.744C67.6001 254.24 68.2081 253.504 69.3601 253.536C72.0961 253.536 71.2801 257.184 71.2801 257.184C71.6414 257.117 71.9835 256.971 72.2819 256.757C72.5804 256.543 72.8278 256.265 73.0067 255.944C73.1855 255.623 73.2912 255.267 73.3164 254.9C73.3415 254.534 73.2855 254.166 73.1521 253.824C74.1822 253.6 75.1099 253.044 75.7921 252.24C75.0881 251.504 74.2081 251.024 73.1521 250.8C73.7761 248.688 72.9121 247.68 71.0881 247.2C71.4034 247.925 71.4872 248.73 71.3281 249.504C68.4481 248.64 63.9841 249.984 63.9841 254.976C63.9841 259.968 67.4401 264.144 73.9201 263.136C72.3841 263.856 71.6161 265.344 71.4241 267.024C72.6241 266.544 73.9201 266.544 73.9201 266.544C73.1521 267.84 72.0961 268.944 72.1441 271.632C73.3441 271.056 74.4961 270.048 75.9841 270.672C73.5841 275.472 76.5601 282 84.1441 283.536C81.3921 280.24 80.0161 276.832 80.0161 273.312C80.0161 262.032 83.1361 260.16 83.1361 252.288C83.0867 250.462 82.604 248.675 81.7277 247.072C80.8514 245.47 79.6066 244.099 78.0961 243.072V243.216C79.025 243.025 79.903 242.64 80.6724 242.086C81.4417 241.531 82.0851 240.821 82.5601 240C77.213 238.526 71.5604 238.576 66.2401 240.144C64.4606 240.396 62.7603 241.044 61.2649 242.041C59.7694 243.038 58.517 244.358 57.6001 245.904C56.6418 248.091 56.147 250.452 56.147 252.84C56.147 255.228 56.6418 257.589 57.6001 259.776C60.6241 266.016 74.7361 296.064 79.1521 305.472C80.1121 307.488 80.6081 309.632 80.6401 311.904C80.6401 317.664 75.3601 319.68 72.3841 319.68C68.7841 319.68 65.0881 316.944 65.0881 313.536C65.0881 311.376 66.2881 310.032 67.9681 310.032C72.0481 310.032 71.8081 313.488 70.9921 315.696C73.5361 314.544 74.9761 312.528 74.5921 310.416C76.1672 310.152 77.5966 309.335 78.6241 308.112C77.6641 306.864 76.4161 305.904 74.5921 305.856C75.4081 302.544 73.1521 301.152 70.9921 300.384C71.6641 302.784 72.1441 305.616 67.9681 305.616C64.9441 305.616 62.5921 306.096 61.2001 308.112L60.8641 295.152C60.6721 291.264 66.0481 291.312 69.5041 292.512C68.2081 288.048 65.5681 285.6 59.4241 286.224C60.3654 285.862 61.1688 285.213 61.7203 284.368C62.2717 283.524 62.5432 282.527 62.4961 281.52C62.4961 277.872 59.5201 273.84 57.6001 272.64L56.6401 310.56V310.608Z" fill="#FFEC2D" style="fill:#FFEC2D;fill:color(display-p3 1.0000 0.9255 0.1765);fill-opacity:1;"/>
</g>
</g>
</g>
</g>
</g>
<defs>
<clipPath id="clip0_2194_5838">
<rect width="640" height="480" fill="white" style="fill:white;fill-opacity:1;"/>
</clipPath>
</defs>
</svg>
