<svg width="640" height="480" viewBox="0 0 640 480" fill="none" xmlns="http://www.w3.org/2000/svg">
<g id="ls" clip-path="url(#clip0_2194_6023)">
<path id="Vector" d="M0 0H640V480H0V0Z" fill="white" style="fill:white;fill-opacity:1;"/>
<path id="Vector_2" d="M0 336H640V480H0V336Z" fill="#009543" style="fill:#009543;fill:color(display-p3 0.0000 0.5843 0.2627);fill-opacity:1;"/>
<path id="Vector_3" d="M0 0H640V144H0V0Z" fill="#00209F" style="fill:#00209F;fill:color(display-p3 0.0000 0.1255 0.6235);fill-opacity:1;"/>
<path id="Vector_4" d="M319.6 153C316.9 153 314.2 156 314.2 156L314.5 188.4L304.2 199.1H312.5V217.6L263.5 283.6L256.3 281L243.6 308C243.6 308 274.9 327.6 320.3 327C370.1 326.5 397.2 307.1 397.2 307.1L384.2 280.5L377.7 283.3L328.1 217.7V198.6H336.3L325.1 188V155.8C325.1 155.8 322.4 152.8 319.6 152.9V153Z" fill="black" stroke="black" style="fill:black;fill-opacity:1;stroke:black;stroke-opacity:1;" stroke-width="1.6"/>
<path id="Vector_5" d="M336.7 230.4H302.8C302.8 230.4 290.6 204.5 292.5 186.4C294.5 168 305.1 159.3 319.1 159.1C335.7 159 344.3 167.2 346.9 185.7C349.5 204 336.7 230.4 336.7 230.4Z" stroke="black" style="stroke:black;stroke-opacity:1;" stroke-width="8"/>
<path id="Vector_6" d="M260.5 292.1C259.9 292.8 255.8 301 255.8 301L262.8 299.5L260.5 292.1ZM264.5 302.6L257.1 305L266 308.5L264.5 302.6ZM267.8 292.3L271.5 303.2L280.5 300.6L278.2 295.4L267.8 292.3ZM273.6 307.1L274.8 311.5L286.8 314.5L282 304.3L273.6 307.1ZM286.8 297.8L291.1 308L300.1 304.5L297.1 300L286.8 297.8ZM292.8 311.7L294.2 315.5L308.2 317.5L302.3 308.3L292.7 311.7H292.8ZM306.2 300.7L311.4 309.8L324.4 305L323 301.5L306.2 300.8V300.7ZM313.8 313.1L316.5 317.9L332.7 317.4L326.7 308.4L313.7 313.1H313.8ZM330.9 301.1L335.3 308.7L345.7 303.7L342.9 299.7L330.9 301.1ZM347.9 306.9L337.6 312L340.3 316.5L354.1 314.3L347.9 306.9ZM351.2 298.9L356.5 305.6L365.2 298.7L362.2 295.7L351.2 298.9ZM367.1 302.4L358.8 308.7L361 312.6L372.4 309.6L367.1 302.4ZM378.5 289.4L380.5 292.3L374.8 300.8L368.9 293.2L378.5 289.4ZM382.4 296.7L385.9 303.7L378.9 306.1L378.3 302.8L382.3 296.8L382.4 296.7Z" fill="white" style="fill:white;fill-opacity:1;"/>
</g>
<defs>
<clipPath id="clip0_2194_6023">
<rect width="640" height="480" fill="white" style="fill:white;fill-opacity:1;"/>
</clipPath>
</defs>
</svg>
