<svg width="640" height="480" viewBox="0 0 640 480" fill="none" xmlns="http://www.w3.org/2000/svg">
<g id="ly" clip-path="url(#clip0_2194_6043)">
<g id="Clip path group">
<mask id="mask0_2194_6043" style="mask-type:luminance" maskUnits="userSpaceOnUse" x="0" y="0" width="640" height="480">
<g id="ly-a">
<path id="Vector" d="M0.0319824 0H639.968V480H0.0319824V0Z" fill="white" style="fill:white;fill-opacity:1;"/>
</g>
</mask>
<g mask="url(#mask0_2194_6043)">
<g id="Group">
<path id="Vector_2" d="M-160 0H800V480H-160V0Z" fill="#239E46" style="fill:#239E46;fill:color(display-p3 0.1373 0.6196 0.2745);fill-opacity:1;"/>
<path id="Vector_3" d="M-160 0H800V360H-160V0Z" fill="#000001" style="fill:#000001;fill:color(display-p3 0.0000 0.0000 0.0039);fill-opacity:1;"/>
<path id="Vector_4" d="M-160 0H800V120H-160V0Z" fill="#E70013" style="fill:#E70013;fill:color(display-p3 0.9059 0.0000 0.0745);fill-opacity:1;"/>
<path id="Vector_5" d="M362.432 197.568C354.637 192.006 345.461 188.698 335.91 188.008C326.359 187.317 316.803 189.271 308.289 193.655C299.776 198.039 292.634 204.683 287.648 212.858C282.662 221.033 280.024 230.424 280.024 240C280.024 249.576 282.662 258.967 287.648 267.142C292.634 275.317 299.776 281.962 308.289 286.345C316.803 290.729 326.359 292.683 335.91 291.992C345.461 291.302 354.637 287.994 362.432 282.432C354.04 290.822 343.349 296.534 331.711 298.848C320.072 301.162 308.009 299.973 297.047 295.431C286.084 290.89 276.714 283.199 270.122 273.333C263.53 263.466 260.011 251.866 260.011 240C260.011 228.134 263.53 216.534 270.122 206.667C276.714 196.801 286.084 189.11 297.047 184.569C308.009 180.027 320.072 178.838 331.711 181.152C343.349 183.466 354.04 189.178 362.432 197.568ZM349.184 240L429.92 213.792L380 282.432V197.568L429.92 266.208L349.184 240Z" fill="white" style="fill:white;fill-opacity:1;"/>
</g>
</g>
</g>
</g>
<defs>
<clipPath id="clip0_2194_6043">
<rect width="640" height="480" fill="white" style="fill:white;fill-opacity:1;"/>
</clipPath>
</defs>
</svg>
