<svg width="640" height="480" viewBox="0 0 640 480" fill="none" xmlns="http://www.w3.org/2000/svg">
<g id="md" clip-path="url(#clip0_2194_6059)">
<g id="Group">
<path id="Vector" fill-rule="evenodd" clip-rule="evenodd" d="M0 0H213.3V480H0V0Z" fill="#00319C" style="fill:#00319C;fill:color(display-p3 0.0000 0.1922 0.6118);fill-opacity:1;"/>
<path id="Vector_2" fill-rule="evenodd" clip-rule="evenodd" d="M213.3 0H426.7V480H213.3V0Z" fill="#FFDE00" style="fill:#FFDE00;fill:color(display-p3 1.0000 0.8706 0.0000);fill-opacity:1;"/>
<path id="Vector_3" fill-rule="evenodd" clip-rule="evenodd" d="M426.7 0H640V480H426.7V0Z" fill="#DE2110" style="fill:#DE2110;fill:color(display-p3 0.8706 0.1294 0.0627);fill-opacity:1;"/>
</g>
<g id="Vector_4">
<path fill-rule="evenodd" clip-rule="evenodd" d="M360.4 320.4L384.6 355.4C386 357.4 387.3 359.3 385.3 360.6C383.3 361.9 383.9 367 385.3 369C388 372.9 391.3 373.5 393.3 372.2L411.7 360.6C413.7 359.4 414.4 356.1 411.7 352.2C410.2 350.2 405.7 347.7 403.7 349C401.6 350.3 400.2 348.3 398.9 346.4L374.6 311.4" fill="#FF1900" style="fill:#FF1900;fill:color(display-p3 1.0000 0.0980 0.0000);fill-opacity:1;"/>
<path d="M360.4 320.4L384.6 355.4C386 357.4 387.3 359.3 385.3 360.6C383.3 361.9 383.9 367 385.3 369C388 372.9 391.3 373.5 393.3 372.2L411.7 360.6C413.7 359.4 414.4 356.1 411.7 352.2C410.2 350.2 405.7 347.7 403.7 349C401.6 350.3 400.2 348.3 398.9 346.4L374.6 311.4" stroke="black" style="stroke:black;stroke-opacity:1;" stroke-width="0.7"/>
</g>
<path id="Vector_5" fill-rule="evenodd" clip-rule="evenodd" d="M369.899 295.73C380.722 308.024 384.487 322.12 378.318 327.079C372.149 332.038 358.26 326.08 347.437 313.786C336.613 301.492 332.901 287.354 339.07 282.395C345.239 277.435 359.084 283.343 369.951 295.687L369.899 295.73Z" fill="#A77B3B" stroke="black" style="fill:#A77B3B;fill:color(display-p3 0.6549 0.4824 0.2314);fill-opacity:1;stroke:black;stroke-opacity:1;" stroke-width="1.68476"/>
<g id="Vector_6">
<path fill-rule="evenodd" clip-rule="evenodd" d="M262 306.1L240.5 342.8C239.3 344.8 238.1 346.8 236 345.8C233.9 344.6 229.4 347.5 228.2 349.6C225.8 353.6 226.7 356.8 228.9 358L248.1 368.2C250.1 369.3 253.5 368.4 255.9 364.4C257 362.2 257.3 357.1 255.2 356C253.1 354.9 254.2 352.8 255.5 350.8L276.9 314.1" fill="#FF1900" style="fill:#FF1900;fill:color(display-p3 1.0000 0.0980 0.0000);fill-opacity:1;"/>
<path d="M262 306.1L240.5 342.8C239.3 344.8 238.1 346.8 236 345.8C233.9 344.6 229.4 347.5 228.2 349.6C225.8 353.6 226.7 356.8 228.9 358L248.1 368.2C250.1 369.3 253.5 368.4 255.9 364.4C257 362.2 257.3 357.1 255.2 356C253.1 354.9 254.2 352.8 255.5 350.8L276.9 314.1" stroke="black" style="stroke:black;stroke-opacity:1;" stroke-width="0.7"/>
</g>
<path id="Vector_7" fill-rule="evenodd" clip-rule="evenodd" d="M331.2 280.6H311.6C311 281.2 305.4 316.2 299.4 329.6C292.1 345.9 270.2 360.3 270.2 360.3C270.2 360.3 283.3 364.3 287.2 366.9C288.2 366.6 309.2 362.2 311.6 336.6C314 362.2 297 373.9 297 373.9C297 373.9 321.4 380.9 321.4 397.2C321.4 380.9 345.8 373.9 345.8 373.9C345.8 373.9 333.6 362.2 331.1 336.6C336.1 362.2 354.6 366.6 355.6 366.9C359.5 364.3 372.6 360.3 372.6 360.3C372.6 360.3 350.7 345.9 343.4 329.6C337.4 316.2 331.8 281.2 331.2 280.6ZM248.2 163.9L284.8 175.6C296.9 175.6 309.2 163.9 309.2 152.2C309.6 126.2 299.4 117.2 297 117.2L301.8 112.6L294.5 105.6C294.5 105.6 297 93.5 321.4 93.9C345.8 94.3 345.8 105.6 345.8 117.2C345.8 128.8 333.6 128.9 333.6 152.2C333.6 163.9 345.8 175.6 358 175.6L394.6 163.9V280.6H248.1L248.2 163.9Z" fill="#A77B3B" stroke="black" style="fill:#A77B3B;fill:color(display-p3 0.6549 0.4824 0.2314);fill-opacity:1;stroke:black;stroke-opacity:1;" stroke-width="1.7"/>
<g id="Group_2">
<path id="Vector_8" d="M304.283 168.571L306.717 175.587L309.168 168.571L311.602 175.587L316.487 168.571L318.871 175.961L321.372 168.571L324.973 175.961L328.691 168.571L331.125 175.587L333.575 168.571" stroke="black" style="stroke:black;stroke-opacity:1;" stroke-width="0.139624"/>
<path id="Vector_9" d="M314.076 142.944L309.184 168.623M316.488 142.944V168.623M321.38 142.944V168.623M326.273 142.944L328.684 168.623M331.165 142.944L333.576 168.623" stroke="black" style="stroke:black;stroke-opacity:1;" stroke-width="0.134713"/>
</g>
<g id="Group_3">
<path id="Vector_10" fill-rule="evenodd" clip-rule="evenodd" d="M223.662 93.9566C199.27 105.611 199.27 128.985 199.27 140.639C200.096 151.24 199.27 373.921 199.27 373.921C199.27 373.921 200.854 360.752 211.466 350.613L223.593 338.958L235.789 327.304C244.747 319.535 247.985 303.93 247.985 292.276V128.985C247.985 128.985 247.985 117.265 223.593 93.9566H223.662Z" fill="#A77B3B" stroke="black" style="fill:#A77B3B;fill:color(display-p3 0.6549 0.4824 0.2314);fill-opacity:1;stroke:black;stroke-opacity:1;" stroke-width="1.68392"/>
<path id="Vector_11" d="M248.054 140.639C247.779 140.639 235.858 128.985 235.858 128.985L223.662 140.639L211.466 128.985L199.27 140.639" stroke="black" style="stroke:black;stroke-opacity:1;" stroke-width="1.68392"/>
<path id="Vector_12" d="M248.054 152.261C247.779 152.261 235.858 163.915 235.858 163.915L223.662 152.261L211.466 163.915L199.27 152.261" stroke="black" style="stroke:black;stroke-opacity:1;" stroke-width="1.68392"/>
<path id="Vector_13" d="M248.054 187.239C247.779 187.239 235.858 175.585 235.858 175.585L223.662 187.239L211.466 175.585L199.27 187.239" stroke="black" style="stroke:black;stroke-opacity:1;" stroke-width="1.68392"/>
<path id="Vector_14" d="M235.72 128.954L235.858 327.313" stroke="black" style="stroke:black;stroke-opacity:1;" stroke-width="2.31935"/>
<path id="Vector_15" d="M223.72 140.615L223.858 338.491" stroke="black" style="stroke:black;stroke-opacity:1;" stroke-width="2.1973"/>
<path id="Vector_16" d="M211.52 129.007L211.658 350.673" stroke="black" style="stroke:black;stroke-opacity:1;" stroke-width="2.32564"/>
</g>
<g id="Group_4">
<path id="Vector_17" fill-rule="evenodd" clip-rule="evenodd" d="M419.038 93.9566C443.43 105.611 443.43 128.985 443.43 140.639C442.604 151.24 443.43 373.921 443.43 373.921C443.43 373.921 441.846 360.752 431.234 350.613L419.107 338.958L406.911 327.304C397.953 319.535 394.715 303.93 394.715 292.276V128.985C394.715 128.985 394.715 117.265 419.107 93.9566H419.038Z" fill="#A77B3B" stroke="black" style="fill:#A77B3B;fill:color(display-p3 0.6549 0.4824 0.2314);fill-opacity:1;stroke:black;stroke-opacity:1;" stroke-width="1.68392"/>
<path id="Vector_18" d="M394.646 140.639C394.921 140.639 406.842 128.985 406.842 128.985L419.038 140.639L431.234 128.985L443.43 140.639" stroke="black" style="stroke:black;stroke-opacity:1;" stroke-width="1.68392"/>
<path id="Vector_19" d="M394.646 152.261C394.921 152.261 406.842 163.915 406.842 163.915L419.038 152.261L431.234 163.915L443.43 152.261" stroke="black" style="stroke:black;stroke-opacity:1;" stroke-width="1.68392"/>
<path id="Vector_20" d="M394.646 187.239C394.921 187.239 406.842 175.585 406.842 175.585L419.038 187.239L431.234 175.585L443.43 187.239" stroke="black" style="stroke:black;stroke-opacity:1;" stroke-width="1.68392"/>
<path id="Vector_21" d="M406.98 128.954L406.842 327.313" stroke="black" style="stroke:black;stroke-opacity:1;" stroke-width="2.31935"/>
<path id="Vector_22" d="M419.08 140.615L418.942 338.491" stroke="black" style="stroke:black;stroke-opacity:1;" stroke-width="2.1973"/>
<path id="Vector_23" d="M431.28 129.007L431.142 350.673" stroke="black" style="stroke:black;stroke-opacity:1;" stroke-width="2.32564"/>
</g>
<path id="Vector_24" fill-rule="evenodd" clip-rule="evenodd" d="M289.275 302.87C282.808 317.699 271.428 327.363 263.986 324.4C256.545 321.438 255.712 306.912 262.179 292.082C268.645 277.252 280.089 267.614 287.531 270.576C294.973 273.539 295.831 288.004 289.338 302.895L289.275 302.87Z" fill="#A77B3B" stroke="black" style="fill:#A77B3B;fill:color(display-p3 0.6549 0.4824 0.2314);fill-opacity:1;stroke:black;stroke-opacity:1;" stroke-width="1.68435"/>
<path id="Vector_25" fill-rule="evenodd" clip-rule="evenodd" d="M248.1 175.6H394.6V245.6H248.1V175.6Z" fill="#FF0000" style="fill:#FF0000;fill:color(display-p3 1.0000 0.0000 0.0000);fill-opacity:1;"/>
<path id="Vector_26" fill-rule="evenodd" clip-rule="evenodd" d="M248.1 245.6H394.6V280.6C394.6 303.9 358 303.9 321.4 327.2C284.7 304 248 304 248 280.6L248.1 245.6Z" fill="#564DFF" style="fill:#564DFF;fill:color(display-p3 0.3373 0.3020 1.0000);fill-opacity:1;"/>
<path id="Vector_27" d="M248.134 175.602H394.626V280.687C394.626 303.996 358.038 303.996 321.38 327.37C284.792 303.996 248.134 303.996 248.134 280.622V175.668V175.602Z" stroke="#FFFF00" style="stroke:#FFFF00;stroke:color(display-p3 1.0000 1.0000 0.0000);stroke-opacity:1;" stroke-width="1.34713"/>
<path id="Vector_28" fill-rule="evenodd" clip-rule="evenodd" d="M294.49 180.261C294.49 180.261 270.084 197.42 270.084 213.837C270.084 230.254 295.696 235.757 295.696 235.757C295.696 235.757 287.159 235.757 287.159 257.646C287.159 268.622 312.771 263.15 312.771 268.622C312.771 274.094 312.433 287.327 312.771 296.014C312.771 301.487 295.696 296.014 295.696 301.487C295.696 304.207 308.526 317.904 321.357 317.904C334.187 317.904 346.969 304.207 346.969 301.487C346.969 296.014 329.894 301.487 329.894 296.014V268.622C329.894 263.15 355.506 268.622 355.506 257.646C355.506 235.757 346.969 235.757 346.969 235.757C346.969 235.757 372.629 230.285 372.629 213.837C372.629 197.389 348.175 180.261 348.175 180.261C348.175 180.261 361.921 202.892 361.921 213.837C361.921 219.309 355.506 230.285 338.431 230.285C338.431 230.285 334.09 224.782 329.894 230.285C329.894 230.285 324.974 224.782 321.357 230.285C320.103 232.14 317.884 224.782 312.771 230.285C310.649 231.738 308.912 224.782 304.234 230.285C295.696 230.285 278.621 224.782 278.621 213.837C278.621 202.892 294.49 180.261 294.49 180.261Z" fill="#FFFF00" stroke="black" style="fill:#FFFF00;fill:color(display-p3 1.0000 1.0000 0.0000);fill-opacity:1;stroke:black;stroke-opacity:1;" stroke-width="0.965418"/>
<path id="Vector_29" fill-rule="evenodd" clip-rule="evenodd" d="M294.992 278.274C293.255 279.387 297.21 297.226 298.368 297.999C300.104 299.081 310.378 299.081 312.066 297.999C313.272 297.226 312.066 280.469 310.378 279.387C308.642 278.274 296.197 277.532 294.943 278.274H294.992Z" fill="#FFFF00" stroke="black" style="fill:#FFFF00;fill:color(display-p3 1.0000 1.0000 0.0000);fill-opacity:1;stroke:black;stroke-opacity:1;" stroke-width="0.965418"/>
<path id="Vector_30" fill-rule="evenodd" clip-rule="evenodd" d="M347.808 278.274C349.545 279.387 345.59 297.226 344.432 297.999C342.696 299.081 332.422 299.081 330.734 297.999C329.528 297.226 330.734 280.469 332.422 279.387C334.158 278.274 346.603 277.532 347.857 278.274H347.808Z" fill="#FFFF00" stroke="black" style="fill:#FFFF00;fill:color(display-p3 1.0000 1.0000 0.0000);fill-opacity:1;stroke:black;stroke-opacity:1;" stroke-width="0.965418"/>
<path id="Vector_31" fill-rule="evenodd" clip-rule="evenodd" d="M312.554 271.768C312.554 273.404 311.62 274.973 309.956 276.129C308.293 277.285 306.036 277.935 303.684 277.935C301.331 277.935 299.075 277.285 297.412 276.129C295.748 274.973 294.813 273.404 294.813 271.768C294.813 270.133 295.748 268.564 297.412 267.408C299.075 266.251 301.331 265.602 303.684 265.602C306.036 265.602 308.293 266.251 309.956 267.408C311.62 268.564 312.554 270.133 312.554 271.768Z" fill="#FFFF00" stroke="black" style="fill:#FFFF00;fill:color(display-p3 1.0000 1.0000 0.0000);fill-opacity:1;stroke:black;stroke-opacity:1;" stroke-width="1.15563"/>
<path id="Vector_32" fill-rule="evenodd" clip-rule="evenodd" d="M347.858 271.771C347.858 273.406 346.924 274.975 345.26 276.131C343.597 277.288 341.34 277.938 338.988 277.938C336.635 277.938 334.379 277.288 332.715 276.131C331.052 274.975 330.117 273.406 330.117 271.771C330.117 270.135 331.052 268.567 332.715 267.41C334.379 266.254 336.635 265.604 338.988 265.604C341.34 265.604 343.597 266.254 345.26 267.41C346.924 268.567 347.858 270.135 347.858 271.771Z" fill="#FFFF00" stroke="black" style="fill:#FFFF00;fill:color(display-p3 1.0000 1.0000 0.0000);fill-opacity:1;stroke:black;stroke-opacity:1;" stroke-width="1.15566"/>
<path id="Vector_33" fill-rule="evenodd" clip-rule="evenodd" d="M336.8 307.5C336.8 309 334.8 310.2 332.5 310.2C330.1 310.2 328.2 309 328.2 307.5C328.2 306 330.2 304.8 332.5 304.8C334.8 304.8 336.8 306 336.8 307.5ZM314.5 307.5C314.5 309 312.6 310.2 310.3 310.2C308 310.2 306 309 306 307.5C306 306 307.9 304.8 310.3 304.8C312.6 304.8 314.5 306 314.5 307.5Z" fill="black" style="fill:black;fill-opacity:1;"/>
<path id="Vector_34" fill-rule="evenodd" clip-rule="evenodd" d="M321.387 220.003L316.143 213.387L307.538 214.479L308.748 206.257L301.824 201.311L308.748 196.3L307.538 188.078L316.143 189.234L321.387 182.618L326.63 189.234L335.168 188.078L334.025 196.3L340.882 201.311L334.025 206.321L335.168 214.479L326.563 213.387L321.387 220.003Z" fill="#FFFF00" stroke="black" style="fill:#FFFF00;fill:color(display-p3 1.0000 1.0000 0.0000);fill-opacity:1;stroke:black;stroke-opacity:1;" stroke-width="0.722854"/>
<path id="Vector_35" fill-rule="evenodd" clip-rule="evenodd" d="M357.969 245.593L372.646 252.638L387.322 245.593L372.646 238.614L357.969 245.593Z" fill="#FFFF00" stroke="black" style="fill:#FFFF00;fill:color(display-p3 1.0000 1.0000 0.0000);fill-opacity:1;stroke:black;stroke-opacity:1;" stroke-width="0.740923"/>
<path id="Vector_36" fill-rule="evenodd" clip-rule="evenodd" d="M252.969 245.593L267.646 252.638L282.322 245.593L267.646 238.614L252.969 245.593Z" fill="#FFFF00" stroke="black" style="fill:#FFFF00;fill:color(display-p3 1.0000 1.0000 0.0000);fill-opacity:1;stroke:black;stroke-opacity:1;" stroke-width="0.740923"/>
<path id="Vector_37" fill-rule="evenodd" clip-rule="evenodd" d="M380.621 287.343C376.127 284.494 368.558 285.914 364.316 288.242C360.073 290.57 355.831 292.898 355.26 301.336C350.387 293.228 354.225 285.731 360.678 282.19C364.109 280.625 368.013 280.29 371.68 281.246C375.348 282.202 378.533 284.386 380.655 287.4L380.621 287.343Z" fill="#FFFF00" stroke="black" style="fill:#FFFF00;fill:color(display-p3 1.0000 1.0000 0.0000);fill-opacity:1;stroke:black;stroke-opacity:1;" stroke-width="0.741211"/>
<path id="Vector_38" fill-rule="evenodd" clip-rule="evenodd" d="M279.811 273.596C279.811 274.828 279.299 276.008 278.388 276.879C277.477 277.749 276.242 278.238 274.953 278.238C273.665 278.238 272.429 277.749 271.518 276.879C270.607 276.008 270.096 274.828 270.096 273.596C270.096 272.365 270.607 271.185 271.518 270.314C272.429 269.444 273.665 268.954 274.953 268.954C276.242 268.954 277.477 269.444 278.388 270.314C279.299 271.185 279.811 272.365 279.811 273.596Z" fill="#FFFF00" stroke="black" style="fill:#FFFF00;fill:color(display-p3 1.0000 1.0000 0.0000);fill-opacity:1;stroke:black;stroke-opacity:1;" stroke-width="0.740923"/>
<path id="Vector_39" fill-rule="evenodd" clip-rule="evenodd" d="M274.911 289.896C274.911 291.127 274.399 292.308 273.488 293.179C272.577 294.049 271.342 294.538 270.053 294.538C268.765 294.538 267.529 294.049 266.618 293.179C265.707 292.308 265.195 291.127 265.195 289.896C265.195 288.665 265.707 287.485 266.618 286.614C267.529 285.743 268.765 285.254 270.053 285.254C271.342 285.254 272.577 285.743 273.488 286.614C274.399 287.485 274.911 288.665 274.911 289.896Z" fill="#FFFF00" stroke="black" style="fill:#FFFF00;fill:color(display-p3 1.0000 1.0000 0.0000);fill-opacity:1;stroke:black;stroke-opacity:1;" stroke-width="0.740923"/>
<path id="Vector_40" fill-rule="evenodd" clip-rule="evenodd" d="M272.511 280.596C272.511 281.828 271.999 283.008 271.088 283.879C270.177 284.749 268.942 285.238 267.653 285.238C266.365 285.238 265.129 284.749 264.218 283.879C263.307 283.008 262.796 281.828 262.796 280.596C262.796 279.365 263.307 278.185 264.218 277.314C265.129 276.444 266.365 275.954 267.653 275.954C268.942 275.954 270.177 276.444 271.088 277.314C271.999 278.185 272.511 279.365 272.511 280.596Z" fill="#FFFF00" stroke="black" style="fill:#FFFF00;fill:color(display-p3 1.0000 1.0000 0.0000);fill-opacity:1;stroke:black;stroke-opacity:1;" stroke-width="0.740923"/>
<path id="Vector_41" fill-rule="evenodd" clip-rule="evenodd" d="M284.711 289.896C284.711 291.127 284.199 292.308 283.288 293.179C282.377 294.049 281.142 294.538 279.853 294.538C278.565 294.538 277.329 294.049 276.418 293.179C275.507 292.308 274.995 291.127 274.995 289.896C274.995 288.665 275.507 287.485 276.418 286.614C277.329 285.743 278.565 285.254 279.853 285.254C281.142 285.254 282.377 285.743 283.288 286.614C284.199 287.485 284.711 288.665 284.711 289.896Z" fill="#FFFF00" stroke="black" style="fill:#FFFF00;fill:color(display-p3 1.0000 1.0000 0.0000);fill-opacity:1;stroke:black;stroke-opacity:1;" stroke-width="0.740923"/>
<path id="Vector_42" fill-rule="evenodd" clip-rule="evenodd" d="M287.111 280.596C287.111 281.828 286.599 283.008 285.688 283.879C284.777 284.749 283.542 285.238 282.253 285.238C280.965 285.238 279.729 284.749 278.818 283.879C277.907 283.008 277.396 281.828 277.396 280.596C277.396 279.365 277.907 278.185 278.818 277.314C279.729 276.444 280.965 275.954 282.253 275.954C283.542 275.954 284.777 276.444 285.688 277.314C286.599 278.185 287.111 279.365 287.111 280.596Z" fill="#FFFF00" stroke="black" style="fill:#FFFF00;fill:color(display-p3 1.0000 1.0000 0.0000);fill-opacity:1;stroke:black;stroke-opacity:1;" stroke-width="0.740923"/>
<path id="Vector_43" fill-rule="evenodd" clip-rule="evenodd" d="M279.811 282.896C279.811 284.127 279.299 285.308 278.388 286.179C277.477 287.049 276.242 287.538 274.953 287.538C273.665 287.538 272.429 287.049 271.518 286.179C270.607 285.308 270.096 284.127 270.096 282.896C270.096 281.665 270.607 280.485 271.518 279.614C272.429 278.743 273.665 278.254 274.953 278.254C276.242 278.254 277.477 278.743 278.388 279.614C279.299 280.485 279.811 281.665 279.811 282.896Z" fill="#FFFF00" stroke="black" style="fill:#FFFF00;fill:color(display-p3 1.0000 1.0000 0.0000);fill-opacity:1;stroke:black;stroke-opacity:1;" stroke-width="0.740923"/>
<g id="Group_5">
<path id="Vector_44" fill-rule="evenodd" clip-rule="evenodd" d="M297.8 120.4C285.4 120.4 283.8 122.4 278.2 124.3C278.2 118.9 292 112.6 304.2 112.6C304.2 116.5 301 120.4 297.8 120.4Z" fill="#DA4500" style="fill:#DA4500;fill:color(display-p3 0.8549 0.2706 0.0000);fill-opacity:1;"/>
<path id="Vector_45" fill-rule="evenodd" clip-rule="evenodd" d="M316.5 108C316.5 110.5 314.3 112.6 311.6 112.6C308.9 112.6 306.7 110.5 306.7 107.9C306.7 105.3 308.9 103.3 311.6 103.3C314.3 103.3 316.5 105.3 316.5 107.9V108Z" fill="#CAC9C7" style="fill:#CAC9C7;fill:color(display-p3 0.7922 0.7882 0.7804);fill-opacity:1;"/>
<path id="Vector_46" fill-rule="evenodd" clip-rule="evenodd" d="M265.223 91.6521V98.6314H277.419V133.594H284.792V98.6314H296.988V91.6521H284.792V82.3024H277.35V91.6521H265.223Z" fill="#FFFF00" stroke="black" style="fill:#FFFF00;fill:color(display-p3 1.0000 1.0000 0.0000);fill-opacity:1;stroke:black;stroke-opacity:1;" stroke-width="0.740923"/>
<path id="Vector_47" fill-rule="evenodd" clip-rule="evenodd" d="M304.3 112.6C294.375 112.045 284.434 113.368 275 116.5C275 109.3 283.4 100.9 297.8 100.9C301 100.9 304.3 108.7 304.3 112.6Z" fill="#DA4500" style="fill:#DA4500;fill:color(display-p3 0.8549 0.2706 0.0000);fill-opacity:1;"/>
</g>
<g id="Group_6">
<path id="Vector_48" fill-rule="evenodd" clip-rule="evenodd" d="M177.259 236.488C173.745 228.913 173.826 226.496 180.078 235.163L255.382 377.926L253.077 378.577L177.298 236.518L177.259 236.488Z" fill="#008500" stroke="black" style="fill:#008500;fill:color(display-p3 0.0000 0.5216 0.0000);fill-opacity:1;stroke:black;stroke-opacity:1;" stroke-width="0.256829"/>
<path id="Vector_49" fill-rule="evenodd" clip-rule="evenodd" d="M228.4 330.4C229.2 319.8 209.8 308.4 209 309.1C208.3 309.9 210.2 316.1 213.9 319.2C206.9 315.6 199.5 313.4 199.3 314.9C198.7 317.1 210.3 322.1 211.3 324.1C211.3 325.5 202.7 325.3 202.9 326.7C203.1 328.1 227.2 340.3 228.4 330.4ZM209 299.6C209.8 289 190.4 277.6 189.7 278.3C188.9 279 190.8 285.2 194.5 288.4C187.5 284.8 180.1 282.5 179.9 284.1C179.4 286.2 190.9 291.3 191.9 293.3C192 294.7 183.4 294.5 183.5 295.9C183.7 297.3 207.8 309.4 209 299.6ZM194.2 271.6C195 261 175.6 249.6 174.8 250.3C174 251 176 257.2 179.7 260.4C172.7 256.8 165.3 254.5 165.1 256.1C164.6 258.2 176.1 263.3 177.1 265.3C177.1 266.7 168.6 266.5 168.7 267.9C168.9 269.3 193 281.5 194.2 271.6ZM179.6 241.2C180.3 230.7 161 219.2 160.2 219.9C159.4 220.7 161.4 226.9 165 230.1C158 226.4 150.6 224.2 150.5 225.8C149.9 227.9 161.5 233 162.4 234.9C162.5 236.3 153.9 236.2 154.1 237.6C154.3 239 178.3 251.1 179.6 241.2Z" fill="#008F00" style="fill:#008F00;fill:color(display-p3 0.0000 0.5608 0.0000);fill-opacity:1;"/>
<path id="Vector_50" fill-rule="evenodd" clip-rule="evenodd" d="M184.6 239.9C194 234.2 192.1 212.5 191.1 212.3C190 212.2 185.9 217.3 185.4 222.1C184.3 214.5 181.8 207.5 180.4 208.3C178.3 209.1 180.8 221 179.7 222.9C178.7 223.9 173.7 217.1 172.7 218.1C171.5 219.1 175.5 244.8 184.7 239.9H184.6ZM198.2 266.5C209 264.1 214.9 243.1 213.9 242.6C212.9 242.1 207.3 245.6 205.2 250C206.8 242.5 206.9 235.1 205.2 235.4C202.9 235.5 201.2 247.5 199.5 248.9C198.2 249.5 195.8 241.6 194.5 242.1C193.1 242.7 187.9 268.2 198.2 266.5ZM214.4 293.7C224.3 288.9 224.4 267.1 223.4 266.9C222.4 266.6 217.9 271.4 216.9 276.1C216.5 268.4 214.7 261.3 213.2 262C211 262.6 212.4 274.6 211.2 276.4C210 277.3 205.7 270.1 204.5 271C203.3 271.9 204.9 297.8 214.5 293.7H214.4ZM232 329.3C242.3 325.4 244.8 303.8 243.8 303.4C242.8 303 237.8 307.4 236.3 312C236.7 304.3 235.7 297 234.1 297.6C231.8 298 232 310.1 230.6 311.8C229.3 312.5 225.8 305 224.6 305.8C223.3 306.4 222.1 332.5 232 329.3Z" fill="#008F00" style="fill:#008F00;fill:color(display-p3 0.0000 0.5608 0.0000);fill-opacity:1;"/>
</g>
<path id="Vector_51" fill-rule="evenodd" clip-rule="evenodd" d="M254.684 366.405C252.064 370.889 243.778 371.295 236.077 367.186C228.376 363.078 224.389 356.125 227.009 351.641C229.629 347.156 237.976 346.783 245.616 350.859C253.257 354.936 257.304 361.921 254.684 366.405Z" fill="#FF1900" stroke="black" style="fill:#FF1900;fill:color(display-p3 1.0000 0.0980 0.0000);fill-opacity:1;stroke:black;stroke-opacity:1;" stroke-width="0.741205"/>
<g id="Group_7">
<path id="Vector_52" fill-rule="evenodd" clip-rule="evenodd" d="M453.518 216.209L454.814 212.862L458.306 213.962L459.603 210.616L463.095 211.716L461.817 215.015L465.408 216.146L464.094 219.539L460.502 218.408L457.27 226.75L453.778 225.65L457.01 217.308L453.518 216.209ZM446.017 245.681L449.509 246.78L411.985 343.632L408.493 342.533L446.017 245.681Z" fill="#FFFF00" stroke="black" style="fill:#FFFF00;fill:color(display-p3 1.0000 1.0000 0.0000);fill-opacity:1;stroke:black;stroke-opacity:1;" stroke-width="0.257077"/>
<path id="Vector_53" fill-rule="evenodd" clip-rule="evenodd" d="M407.336 340.318L414.42 342.548L404.067 369.271L396.983 367.04L407.336 340.318ZM448.989 227.897L459.615 231.243C466.649 233.458 450.698 249.058 450.698 249.058L443.664 246.843C443.664 246.843 441.905 225.666 448.989 227.897ZM458.755 228.117C458.208 229.531 456.223 230.175 454.277 229.562C452.332 228.949 451.174 227.316 451.703 225.949C452.233 224.582 454.236 223.891 456.181 224.503C458.127 225.116 459.285 226.75 458.737 228.164L458.755 228.117Z" fill="#FFFF00" stroke="black" style="fill:#FFFF00;fill:color(display-p3 1.0000 1.0000 0.0000);fill-opacity:1;stroke:black;stroke-opacity:1;" stroke-width="0.257077"/>
</g>
<path id="Vector_54" fill-rule="evenodd" clip-rule="evenodd" d="M413.021 354.199C415.989 358.481 412.564 365.703 405.21 370.356C397.857 375.01 389.562 375.205 386.594 370.923C383.627 366.641 387.109 359.383 394.405 354.766C401.701 350.149 410.053 349.917 413.021 354.199Z" fill="#FF1900" stroke="black" style="fill:#FF1900;fill:color(display-p3 1.0000 0.0980 0.0000);fill-opacity:1;stroke:black;stroke-opacity:1;" stroke-width="0.741252"/>
</g>
<defs>
<clipPath id="clip0_2194_6059">
<rect width="640" height="480" fill="white" style="fill:white;fill-opacity:1;"/>
</clipPath>
</defs>
</svg>
