<svg width="640" height="480" viewBox="0 0 640 480" fill="none" xmlns="http://www.w3.org/2000/svg">
<g id="mh" clip-path="url(#clip0_2194_6245)">
<g id="Group">
<path id="Vector" fill-rule="evenodd" clip-rule="evenodd" d="M0 0H639.9V480H0V0Z" fill="#3B5AA3" style="fill:#3B5AA3;fill:color(display-p3 0.2314 0.3529 0.6392);fill-opacity:1;"/>
<path id="Vector_2" fill-rule="evenodd" clip-rule="evenodd" d="M0 467L639.9 0V87L0 480V467Z" fill="#E2AE57" style="fill:#E2AE57;fill:color(display-p3 0.8863 0.6824 0.3412);fill-opacity:1;"/>
<path id="Vector_3" fill-rule="evenodd" clip-rule="evenodd" d="M22.4 480L640 179.2L639.9 83.7L0 480H22.4ZM175.4 15.2L169 118L142 52.4L152.4 122.2L110.5 65.8L138 130.1L83 87.5L125.8 141.1L63.7 113.5L118.1 154.7L50.4 145.7L114.4 171.1L14 180.3L114.6 187L50.9 213.2L117.9 204.2L63.6 244.2L126.6 216.6L83.6 270.6L138.2 229.3L111.2 292.2L154.8 237.5L143 305.6L170.5 241.9L176.7 342.6L186.4 242.2L210.1 306.2L201.1 237.2L244.5 292L215.9 228L270.5 272L227.1 217.1L292 244.1L234.6 202.2L304.5 214L237.5 188.3L341.6 181.8L237.6 172.1L306.1 149.3L235.1 158.3L293.7 117.3L227.7 143.8L273.3 88.5L217.7 131.9L244.4 65.5L201.3 121.9L210.6 51.5L184.9 118L175.3 15.2H175.4Z" fill="white" style="fill:white;fill-opacity:1;"/>
</g>
</g>
<defs>
<clipPath id="clip0_2194_6245">
<rect width="640" height="480" fill="white" style="fill:white;fill-opacity:1;"/>
</clipPath>
</defs>
</svg>
