<svg width="640" height="480" viewBox="0 0 640 480" fill="none" xmlns="http://www.w3.org/2000/svg">
<g id="mo" clip-path="url(#clip0_2194_6281)">
<path id="Vector" d="M0 0H640V480H0V0Z" fill="#00785E" style="fill:#00785E;fill:color(display-p3 0.0000 0.4706 0.3686);fill-opacity:1;"/>
<path id="Vector_2" d="M295 108.7L335.5 138.2L320 90.5L304.5 138.2L345.1 108.7H295Z" fill="#FBD116" style="fill:#FBD116;fill:color(display-p3 0.9843 0.8196 0.0863);fill-opacity:1;"/>
<g id="mo-a">
<path id="Vector_3" d="M320 331.6H217.5L213.7 327.6H320C320.422 327.732 320.788 328 321.041 328.362C321.294 328.723 321.42 329.159 321.4 329.6C321.4 330.533 320.934 331.2 320 331.6ZM320 300.3C321.158 297.946 321.576 295.296 321.2 292.7C321.015 291.375 320.609 290.091 320 288.9C310.787 297.668 299.66 304.173 287.5 307.9C279.881 310.215 271.963 311.395 264 311.4H200.9L206.7 319.4H267.7C287.7 319.4 305.9 312.2 320 300.3ZM210.4 275.6C207.29 276.766 204.018 277.441 200.7 277.6C208.3 286.239 217.653 293.16 228.137 297.902C238.62 302.644 249.994 305.098 261.5 305.1C272.434 305.097 283.253 302.88 293.307 298.584C303.361 294.287 312.441 288 320 280.1C322.81 260.622 324.314 240.978 324.5 221.3C324.741 198.651 323.237 176.018 320 153.6C313.4 159.6 301 172.3 295.2 191.9C293.025 199.405 291.947 207.186 292 215C292.015 231.025 296.783 246.685 305.7 260C294.712 245.836 288.733 228.427 288.7 210.5C288.767 197.967 291.367 186.4 296.5 175.8C293.035 172.1 290.469 167.652 289 162.8C282.098 175 278.48 188.783 278.5 202.8C278.5 220.8 284.4 237.5 294.4 250.9C284.994 241.016 273.57 233.274 260.904 228.201C248.238 223.128 234.628 220.842 221 221.5C223.757 224.057 226.057 227.067 227.8 230.4C240.627 230.415 253.318 233.028 265.108 238.081C276.898 243.134 287.543 250.522 296.4 259.8C279.304 245.467 257.709 237.608 235.4 237.6C222.804 237.576 210.329 240.058 198.7 244.9C204.909 261.407 216.335 275.436 231.243 284.857C246.151 294.279 263.727 298.577 281.3 297.1C276.634 297.967 271.834 298.4 266.9 298.4C245.852 298.417 225.624 290.239 210.5 275.6H210.4ZM320 364.4H266.9C283.804 371.088 301.821 374.515 320 374.5C320.824 372.96 321.27 371.246 321.3 369.5C321.286 367.72 320.84 365.97 320 364.4ZM320 339.9H226.4L234.2 346.1H320C320.778 345.248 321.238 344.152 321.3 343C321.321 342.42 321.216 341.842 320.992 341.307C320.767 340.771 320.429 340.291 320 339.9ZM320 352.4H243.3C247.944 355.339 252.751 358.01 257.7 360.4H320C320.782 359.138 321.198 357.684 321.2 356.2C321.127 354.852 320.714 353.545 320 352.4Z" fill="white" style="fill:white;fill-opacity:1;"/>
<path id="Vector_4" d="M200.5 174.8L225.9 198.4L219.2 164.4L204.6 195.8L234.9 179L200.5 174.8ZM237.4 142.8L272.1 143.4L244.4 122.4L254.5 155.7L265.8 122.8L237.4 142.8Z" fill="#FBD116" style="fill:#FBD116;fill:color(display-p3 0.9843 0.8196 0.0863);fill-opacity:1;"/>
</g>
<g id="mo-a_2">
<path id="Vector_5" d="M320 331.6H422.5L426.3 327.6H320C319.578 327.732 319.212 328 318.959 328.362C318.706 328.723 318.58 329.159 318.6 329.6C318.6 330.533 319.066 331.2 320 331.6ZM320 300.3C318.842 297.946 318.424 295.296 318.8 292.7C318.985 291.375 319.391 290.091 320 288.9C329.213 297.668 340.34 304.173 352.5 307.9C360.119 310.215 368.037 311.395 376 311.4H439.1L433.3 319.4H372.3C352.3 319.4 334.1 312.2 320 300.3ZM429.6 275.6C432.71 276.766 435.982 277.441 439.3 277.6C431.7 286.239 422.347 293.16 411.863 297.902C401.38 302.644 390.006 305.098 378.5 305.1C367.566 305.097 356.747 302.88 346.693 298.584C336.639 294.287 327.559 288 320 280.1C317.19 260.622 315.686 240.978 315.5 221.3C315.259 198.651 316.763 176.018 320 153.6C326.6 159.6 339 172.3 344.8 191.9C346.975 199.405 348.053 207.186 348 215C347.985 231.025 343.217 246.685 334.3 260C345.288 245.836 351.267 228.427 351.3 210.5C351.233 197.967 348.633 186.4 343.5 175.8C346.965 172.1 349.531 167.652 351 162.8C357.902 175 361.52 188.783 361.5 202.8C361.5 220.8 355.6 237.5 345.6 250.9C355.006 241.016 366.43 233.274 379.096 228.201C391.762 223.128 405.372 220.842 419 221.5C416.243 224.057 413.943 227.067 412.2 230.4C399.373 230.415 386.682 233.028 374.892 238.081C363.102 243.134 352.457 250.522 343.6 259.8C360.696 245.467 382.291 237.608 404.6 237.6C417.196 237.576 429.671 240.058 441.3 244.9C435.091 261.407 423.665 275.436 408.757 284.857C393.849 294.279 376.273 298.577 358.7 297.1C363.366 297.967 368.166 298.4 373.1 298.4C394.148 298.417 414.376 290.239 429.5 275.6H429.6ZM320 364.4H373.1C356.196 371.088 338.179 374.515 320 374.5C319.176 372.96 318.73 371.246 318.7 369.5C318.714 367.72 319.16 365.97 320 364.4ZM320 339.9H413.6L405.8 346.1H320C319.222 345.248 318.762 344.152 318.7 343C318.679 342.42 318.784 341.842 319.008 341.307C319.233 340.771 319.571 340.291 320 339.9ZM320 352.4H396.7C392.056 355.339 387.249 358.01 382.3 360.4H320C319.218 359.138 318.802 357.684 318.8 356.2C318.873 354.852 319.286 353.545 320 352.4Z" fill="white" style="fill:white;fill-opacity:1;"/>
<path id="Vector_6" d="M439.5 174.8L414.1 198.4L420.8 164.4L435.4 195.8L405.1 179L439.5 174.8ZM402.6 142.8L367.9 143.4L395.6 122.4L385.5 155.7L374.2 122.8L402.6 142.8Z" fill="#FBD116" style="fill:#FBD116;fill:color(display-p3 0.9843 0.8196 0.0863);fill-opacity:1;"/>
</g>
</g>
<defs>
<clipPath id="clip0_2194_6281">
<rect width="640" height="480" fill="white" style="fill:white;fill-opacity:1;"/>
</clipPath>
</defs>
</svg>
