<svg width="640" height="480" viewBox="0 0 640 480" fill="none" xmlns="http://www.w3.org/2000/svg">
<g id="my" clip-path="url(#clip0_2194_6853)">
<g id="Clip path group">
<mask id="mask0_2194_6853" style="mask-type:luminance" maskUnits="userSpaceOnUse" x="0" y="0" width="640" height="480">
<g id="my-a">
<path id="Vector" d="M0 0H640V480H0V0Z" fill="white" style="fill:white;fill-opacity:1;"/>
</g>
</mask>
<g mask="url(#mask0_2194_6853)">
<g id="Group">
<path id="Vector_2" d="M0 0H640V480H0V0Z" fill="#CC0000" style="fill:#CC0000;fill:color(display-p3 0.8000 0.0000 0.0000);fill-opacity:1;"/>
<path id="Vector_3" d="M0 0H640V34.3H0V0Z" fill="#CC0000" style="fill:#CC0000;fill:color(display-p3 0.8000 0.0000 0.0000);fill-opacity:1;"/>
<path id="Vector_4" d="M0 34.3H640V68.6H0V34.3Z" fill="white" style="fill:white;fill-opacity:1;"/>
<path id="Vector_5" d="M0 68.6H640V102.9H0V68.6Z" fill="#CC0000" style="fill:#CC0000;fill:color(display-p3 0.8000 0.0000 0.0000);fill-opacity:1;"/>
<path id="Vector_6" d="M0 102.9H640V137H0V102.9Z" fill="white" style="fill:white;fill-opacity:1;"/>
<path id="Vector_7" d="M0 137.1H640V171.4H0V137.1Z" fill="#CC0000" style="fill:#CC0000;fill:color(display-p3 0.8000 0.0000 0.0000);fill-opacity:1;"/>
<path id="Vector_8" d="M0 171.4H640V205.7H0V171.4Z" fill="white" style="fill:white;fill-opacity:1;"/>
<path id="Vector_9" d="M0 205.7H640V240H0V205.7Z" fill="#CC0000" style="fill:#CC0000;fill:color(display-p3 0.8000 0.0000 0.0000);fill-opacity:1;"/>
<path id="Vector_10" d="M0 240H640V274.3H0V240Z" fill="white" style="fill:white;fill-opacity:1;"/>
<path id="Vector_11" d="M0 274.3H640V308.6H0V274.3Z" fill="#CC0000" style="fill:#CC0000;fill:color(display-p3 0.8000 0.0000 0.0000);fill-opacity:1;"/>
<path id="Vector_12" d="M0 308.6H640V342.9H0V308.6Z" fill="white" style="fill:white;fill-opacity:1;"/>
<path id="Vector_13" d="M0 342.9H640V377H0V342.9Z" fill="#CC0000" style="fill:#CC0000;fill:color(display-p3 0.8000 0.0000 0.0000);fill-opacity:1;"/>
<path id="Vector_14" d="M0 377.1H640V411.4H0V377.1Z" fill="white" style="fill:white;fill-opacity:1;"/>
<path id="Vector_15" d="M0 411.4H640V445.7H0V411.4Z" fill="#CC0000" style="fill:#CC0000;fill:color(display-p3 0.8000 0.0000 0.0000);fill-opacity:1;"/>
<path id="Vector_16" d="M0 445.7H640V480H0V445.7Z" fill="white" style="fill:white;fill-opacity:1;"/>
<path id="Vector_17" d="M0 0.5H320V274.8H0V0.5Z" fill="#000066" style="fill:#000066;fill:color(display-p3 0.0000 0.0000 0.4000);fill-opacity:1;"/>
<path id="Vector_18" d="M207.5 73.7999L213.5 114.5L236.5 80.4999L224.1 119.7L259.6 98.8999L231.5 128.9L272.5 125.7L234.2 140.5L272.5 155.3L231.5 152.1L259.6 182.1L224.1 161.3L236.4 200.6L213.4 166.5L207.4 207.2L201.5 166.5L178.5 200.5L190.9 161.3L155.4 182.1L183.4 152.1L142.4 155.3L180.8 140.5L142.5 125.7L183.5 128.9L155.4 98.8999L190.9 119.7L178.5 80.3999L201.5 114.5L207.5 73.7999ZM174.2 75.4999C163.374 70.6553 151.506 68.6001 139.681 69.522C127.856 70.444 116.45 74.3137 106.506 80.7777C96.5609 87.2418 88.394 96.0943 82.7508 106.527C77.1076 116.959 74.1678 128.639 74.2 140.5C74.1678 152.361 77.1076 164.041 82.7508 174.473C88.394 184.906 96.5609 193.758 106.506 200.222C116.45 206.686 127.856 210.556 139.681 211.478C151.506 212.4 163.374 210.345 174.2 205.5C162.245 214.088 148.152 219.211 133.472 220.305C118.793 221.398 104.096 218.421 91 211.7C77.9189 204.97 66.9468 194.763 59.29 182.202C51.6333 169.64 47.5884 155.211 47.6 140.5C47.6049 125.793 51.6639 111.371 59.3311 98.8208C66.9983 86.2702 77.9769 76.076 91.0604 69.3586C104.144 62.6411 118.826 59.6603 133.493 60.7438C148.161 61.8272 162.245 66.933 174.2 75.4999Z" fill="#FFCC00" style="fill:#FFCC00;fill:color(display-p3 1.0000 0.8000 0.0000);fill-opacity:1;"/>
</g>
</g>
</g>
</g>
<defs>
<clipPath id="clip0_2194_6853">
<rect width="640" height="480" fill="white" style="fill:white;fill-opacity:1;"/>
</clipPath>
</defs>
</svg>
