<svg width="640" height="480" viewBox="0 0 640 480" fill="none" xmlns="http://www.w3.org/2000/svg">
<g id="mz" clip-path="url(#clip0_2194_6875)">
<g id="Clip path group">
<mask id="mask0_2194_6875" style="mask-type:luminance" maskUnits="userSpaceOnUse" x="0" y="0" width="641" height="480">
<g id="mz-a">
<path id="Vector" d="M0 0H640.031V480H0V0Z" fill="white" style="fill:white;fill-opacity:1;"/>
</g>
</mask>
<g mask="url(#mask0_2194_6875)">
<g id="Group">
<path id="Vector_2" fill-rule="evenodd" clip-rule="evenodd" d="M0 0H720V150H0V0Z" fill="#009A00" style="fill:#009A00;fill:color(display-p3 0.0000 0.6039 0.0000);fill-opacity:1;"/>
<path id="Vector_3" fill-rule="evenodd" clip-rule="evenodd" d="M0 150H720V165H0V150Z" fill="white" style="fill:white;fill-opacity:1;"/>
<path id="Vector_4" fill-rule="evenodd" clip-rule="evenodd" d="M0 165H720V315H0V165Z" fill="#000001" style="fill:#000001;fill:color(display-p3 0.0000 0.0000 0.0039);fill-opacity:1;"/>
<path id="Vector_5" fill-rule="evenodd" clip-rule="evenodd" d="M0 315H720V330H0V315Z" fill="white" style="fill:white;fill-opacity:1;"/>
<path id="Vector_6" fill-rule="evenodd" clip-rule="evenodd" d="M0 330H720V480H0V330Z" fill="#FFCA00" style="fill:#FFCA00;fill:color(display-p3 1.0000 0.7922 0.0000);fill-opacity:1;"/>
<path id="Vector_7" fill-rule="evenodd" clip-rule="evenodd" d="M0 0V480L315 240L0 0Z" fill="#FF0000" style="fill:#FF0000;fill:color(display-p3 1.0000 0.0000 0.0000);fill-opacity:1;"/>
<path id="Vector_8" fill-rule="evenodd" clip-rule="evenodd" d="M186.094 312.187L138.094 277.031L90.0937 312.187L108.75 255.656L60.4688 220.875L120 221.063L138.094 164.438L156.281 221.156L215.812 220.875L167.531 255.656L186.094 312.187Z" fill="#FFCA00" style="fill:#FFCA00;fill:color(display-p3 1.0000 0.7922 0.0000);fill-opacity:1;"/>
<path id="Vector_9" fill-rule="evenodd" clip-rule="evenodd" d="M96.375 272.719H131.063C133.875 275.812 139.969 277.125 145.875 272.719C156.75 266.719 177.75 272.719 177.75 272.719L181.875 268.313L171.844 235.312L168.187 231.375C168.187 231.375 160.406 226.687 145.687 228.281C130.969 229.875 125.812 227.812 125.812 227.812C125.812 227.812 112.969 229.313 109.312 231.188L105.187 235.312L96.375 272.719Z" fill="white" stroke="black" style="fill:white;fill-opacity:1;stroke:black;stroke-opacity:1;" stroke-width="1.03125" stroke-linecap="round" stroke-linejoin="round"/>
<path id="Vector_10" d="M103.406 264.187C103.406 264.187 136.406 260.062 145.969 272.719C140.625 276.469 135.844 276.75 130.781 273C131.531 271.594 142.594 260.062 170.812 263.906" stroke="black" style="stroke:black;stroke-opacity:1;" stroke-width="1.03125" stroke-linecap="round" stroke-linejoin="round"/>
<path id="Vector_11" d="M138.75 231.188L138.469 267.562M168.187 231.656L174.375 260.625" stroke="black" style="stroke:black;stroke-opacity:1;" stroke-width="1.125"/>
<path id="Vector_12" d="M109.687 231.188L106.219 246.188" stroke="black" style="stroke:black;stroke-opacity:1;" stroke-width="1.03125" stroke-linecap="round" stroke-linejoin="round"/>
<path id="Vector_13" fill-rule="evenodd" clip-rule="evenodd" d="M73.9688 276.656L82.0312 286.219C82.9687 286.781 83.875 286.781 84.75 286.219L96.75 271.781L101.812 265.5C102.625 264.5 102.937 263.563 102.75 262.688L112.5 253.969L114.562 254.156C113.625 253.969 112.969 253.5 113.625 252.469L115.875 250.781L117.562 252.937C117.562 252.937 115.125 256.125 114.844 256.125H112.219L107.156 260.719L109.406 262.594L112.687 271.781L116.812 268.875L114.187 259.5L119.906 253.219L117.75 249.844L119.25 247.969C119.25 247.969 139.219 260.531 147 257.156C147.187 257.156 147.469 248.156 147.469 248.156C147.469 248.156 126.656 246 126.188 241.875C125.719 237.75 130.875 237.188 130.875 237.188L128.625 234.188L129.094 232.5L132.75 237L140.906 230.062L189.187 285C191.812 283.969 192.375 283.312 192.562 280.687L145.312 226.406L148.875 222.562C149.625 221.719 149.812 221.438 149.812 220.125L155.437 215.344C156.922 215.828 158.185 216.825 159 218.156L174.375 205.312C174.75 205.688 175.969 206.062 176.812 205.687L202.031 181.406L174.562 200.812L173.625 200.156C173.625 199.313 174.562 199.219 173.625 197.719C172.5 196.406 170.906 198.937 170.719 198.937C170.531 198.937 166.687 197.625 165.844 195.938L165.656 200.344L158.625 206.906L153.281 206.625L145.594 214.125L144.656 216.937L145.875 219.469C145.875 219.469 141.75 223.031 141.75 222.844C141.75 222.562 140.906 221.719 140.812 221.625L144.375 218.438L144.844 216.281L143.719 214.406C143.344 214.687 138.844 219.469 138.562 218.906L125.437 204.375L126.188 201.656L118.031 192.75C115.031 191.719 110.25 191.531 109.312 198.094C108.562 199.594 102.375 198.281 102.375 198.281L99 199.031L79.875 225.938L90.4687 238.688L112.219 211.219L112.875 203.438L117.375 208.5C118.937 208.812 120.406 208.656 121.781 208.031L134.625 222.375L132.469 224.531L134.344 226.594L136.594 225.094L137.438 226.312C136.438 226.937 135.469 227.594 134.531 228.281C132.844 227.156 131.156 225.75 131.25 223.594L124.031 229.594L123.75 230.719L102.281 248.531L100.406 248.812L99.9375 254.437L113.906 242.812V241.125L115.312 242.344L126.188 233.625C126.188 233.625 126.938 234.562 126.656 234.562C126.375 234.562 117 243.281 117 243.281L116.812 244.219L115.125 245.719L114.187 244.969L101.062 256.594H99.1875L91.9687 263.812C90.0937 264 88.5 264.187 86.9062 265.219L73.9688 276.656Z" fill="black" stroke="black" style="fill:black;fill-opacity:1;stroke:black;stroke-opacity:1;" stroke-width="1.03125" stroke-linecap="round" stroke-linejoin="round"/>
</g>
</g>
</g>
</g>
<defs>
<clipPath id="clip0_2194_6875">
<rect width="640" height="480" fill="white" style="fill:white;fill-opacity:1;"/>
</clipPath>
</defs>
</svg>
