<svg width="640" height="480" viewBox="0 0 640 480" fill="none" xmlns="http://www.w3.org/2000/svg">
<g id="ni" clip-path="url(#clip0_2194_6932)">
<path id="Vector" d="M0 0H640V480H0V0Z" fill="#0067C6" style="fill:#0067C6;fill:color(display-p3 0.0000 0.4039 0.7765);fill-opacity:1;"/>
<path id="Vector_2" d="M0 160H640V320H0V160Z" fill="white" style="fill:white;fill-opacity:1;"/>
<path id="Vector_3" d="M248 239.5L256 240V238.8L253 238.6L253.2 234.8L256.5 232.4L256.6 230.9L253.1 233.4C252.967 232.467 252.5 231.8 251.7 231.4C250.9 231.133 250.133 231.233 249.4 231.7C248.667 232.367 248.333 233.2 248.4 234.2L248 239.5ZM249.2 238.4L249.5 234.4C249.5 233.733 249.767 233.133 250.3 232.6C250.427 232.515 250.571 232.46 250.723 232.44C250.874 232.42 251.028 232.434 251.173 232.482C251.317 232.531 251.449 232.611 251.558 232.718C251.667 232.825 251.749 232.956 251.8 233.1C252.067 234.1 252.1 235.167 251.9 236.3L251.8 238.5L249.2 238.4ZM249 227.2L256.8 229L258.6 221.4L257.5 221.2L256 227.6L253.6 227.1L255 221.3L253.9 221L252.5 226.8L250.5 226.3L251.9 220.1L250.7 219.9L249 227.2ZM251.8 216.7L259.4 219.4L259.8 218.3L256.8 217.3L258 213.8C258.333 212.8 258.3 211.8 257.9 210.8C257.387 210.221 256.671 209.863 255.9 209.8C254.967 209.933 254.3 210.433 253.9 211.3C253.3 212.367 252.867 213.5 252.6 214.7L251.8 216.7ZM253.3 216L254.5 212.6C254.767 211.933 255.2 211.433 255.8 211.1C255.939 211.071 256.082 211.072 256.221 211.103C256.359 211.134 256.49 211.194 256.603 211.279C256.717 211.364 256.811 211.473 256.879 211.597C256.948 211.721 256.989 211.859 257 212C257.2 213 256.7 214 256.4 215L255.7 216.9L253.3 216ZM256 207L260.3 209.6C261.167 210.067 262.067 210.133 263 209.8C264.064 209.043 264.895 208.004 265.4 206.8C265.8 205.8 266.2 204.6 265.6 203.6C264.933 202.733 264.033 202.067 262.9 201.6L260.2 200L259.6 201L263.6 203.4C264.333 203.8 264.7 204.433 264.7 205.3C264.501 206.216 264.09 207.072 263.5 207.8C263.033 208.467 262.367 208.8 261.5 208.8C260.7 208.533 259.967 208.133 259.3 207.6L256.6 206.1L256 207.1V207ZM261.8 197.7L268.1 202.5L271.1 198.7C271.767 197.767 272 196.767 271.8 195.7C271.583 195.339 271.293 195.029 270.949 194.787C270.604 194.546 270.213 194.38 269.8 194.3C269.267 194.367 268.867 194.5 268.6 194.7C268.8 193.8 268.1 193 267.4 192.8C266.4 192.5 265.4 193.1 264.8 193.8L262.8 196.3L261.8 197.7ZM263.4 197.4C264.067 196.4 264.8 195.467 265.6 194.6C266 194.2 266.6 193.6 267.1 194C267.6 194.2 267.8 194.9 267.5 195.3C267.1 196.1 266.567 196.867 265.9 197.6L265.1 198.7L263.4 197.4ZM266 199.4L268.3 196.4C268.7 196 269.3 195.4 269.9 195.6C270.567 195.8 270.833 196.233 270.7 196.9C270.3 197.833 269.7 198.733 268.9 199.6L267.9 200.9L266 199.4ZM269 189.2L274.5 195L279.2 190.5L278.4 189.7L274.6 193.3H274.5L269.8 188.3L269 189.2ZM276 183L280.9 189.3L281.9 188.6L276.9 182.3L276 183ZM283.2 178.1C282.423 178.565 281.744 179.176 281.2 179.9C280.795 180.522 280.572 181.244 280.554 181.986C280.537 182.728 280.726 183.46 281.1 184.1C281.483 184.739 282.037 185.259 282.7 185.6C283.321 185.904 284.01 186.042 284.7 186C285.66 185.857 286.579 185.517 287.4 185C288.245 184.54 288.94 183.845 289.4 183C289.8 182.2 289.9 181.4 289.7 180.6L288.7 181C288.9 182.6 287.9 183.4 286.7 184C284.833 185.2 283.3 185.033 282.1 183.5C281 181.6 282.1 180.1 283.7 179.1C284.8 178.4 285.9 177.9 286.9 178.6L287.8 177.8C287.227 177.367 286.517 177.154 285.8 177.2C284.933 177.2 284.067 177.533 283.2 178.2V178.1ZM292.7 173.4L291.8 182.4L293.1 181.9L293.3 179.1L297.3 177.5L299.5 179.3L300.7 178.8L293.9 172.9L292.7 173.4ZM293.7 174.4L296.4 176.6L293.4 177.8L293.7 174.4ZM310.2 168.4L310.7 176.4L315 176.2C316.333 176.133 317.367 175.667 318.1 174.8C319.1 173.8 319.3 172.1 318.8 170.7C318.57 170.116 318.205 169.595 317.736 169.178C317.267 168.761 316.707 168.46 316.1 168.3C314.9 168.167 313.7 168.167 312.5 168.3L310.2 168.5V168.4ZM311.4 169.5L314.9 169.4C315.538 169.371 316.169 169.546 316.7 169.9C317.567 170.567 317.967 171.4 317.9 172.4C317.819 172.945 317.59 173.458 317.237 173.881C316.884 174.304 316.422 174.622 315.9 174.8C315.233 174.933 314.6 175.033 314 175.1L311.8 175.2L311.4 169.5ZM321.4 168L320.9 176L328.7 176.4V175.3L322.1 174.9L322.2 172.5L328.2 172.8V171.7L322.3 171.4L322.4 169.2L328.8 169.6V168.4L321.4 168ZM342.2 171.3L339.3 178.8L340.3 179.2L342.7 173.2V173L342.9 173.3L345.7 181.3L347 181.8L349.9 174.3L348.9 173.9L346.6 179.9L346.5 180.1L346.3 179.8L343.6 171.8L342.2 171.3ZM353 176L349.3 183L348.3 182.5L351.9 175.4L353 176ZM359 179.5C358.269 179.02 357.455 178.681 356.6 178.5C355.86 178.346 355.091 178.406 354.383 178.671C353.675 178.937 353.057 179.397 352.6 180C352.209 180.631 352.001 181.358 352 182.1C352 182.767 352.2 183.467 352.6 184.2C353 184.867 353.667 185.533 354.6 186.2C355.406 186.748 356.332 187.091 357.3 187.2C358.086 187.188 358.851 186.944 359.5 186.5L358.7 185.6C357.3 186.6 356.2 185.9 355.1 185.2C353.167 183.933 352.7 182.433 353.7 180.7C354.9 178.9 356.8 179.4 358.4 180.4C359.4 181.1 360.4 181.9 360.2 183.1L361.2 183.5C361.335 182.819 361.228 182.112 360.9 181.5C360.5 180.7 359.867 180.033 359 179.5ZM366.6 185.2L358.3 188.6L359.3 189.5L361.9 188.5L365.2 191.3L364.5 194L365.5 194.9L367.6 186.1L366.6 185.2ZM366.3 186.6L365.5 190L363 188L366.3 186.6ZM372.7 190.8L366.5 195.8L367.2 196.8L369.7 194.8L372.1 197.8L371.4 201.8L372.3 202.9L373.1 198.7C373.9 199.3 374.733 199.433 375.6 199.1C376.4 198.7 376.867 198.1 377 197.3C376.867 196.233 376.433 195.3 375.7 194.5L372.7 190.8ZM372.5 192.4L375.1 195.6C375.5 196.2 376 197 375.5 197.6C375.2 198.2 374.4 198.2 373.9 197.8C372.967 197.067 372.167 196.2 371.5 195.2L370.5 194.1L372.5 192.4ZM382 203.5L373 203.9L373.7 205.1L376.5 205L378.7 208.8L377.1 211.1L377.8 212.3L382.7 204.7L382 203.5ZM381.3 204.7L379.3 207.7L377.8 204.9L381.3 204.7ZM387.2 214.1C386.733 212.633 385.833 211.5 384.5 210.7C383.738 210.382 382.897 210.308 382.091 210.487C381.286 210.666 380.555 211.089 380 211.7C379.133 212.833 378.9 214.133 379.3 215.6C379.633 217.2 380.3 218.567 381.3 219.7L380.7 219.9L381.1 221L384.9 219.7L383.4 215.6L382.6 215.9L383.6 218.9L382.4 219.4C381.315 218.388 380.58 217.057 380.3 215.6C379.9 214.4 380.067 213.333 380.8 212.4C381.8 211.4 383.4 211.1 384.5 211.9C385.6 212.7 386.2 214 386.5 215.3C386.833 216.3 386.7 217.167 386.1 217.9C385.967 217.967 386 218.1 386.2 218.3L386.5 218.8C386.828 218.532 387.096 218.197 387.286 217.818C387.475 217.439 387.583 217.024 387.6 216.6C387.62 215.749 387.484 214.902 387.2 214.1ZM389.5 220.4L385 221.2C384.308 221.296 383.653 221.572 383.1 222C382.694 222.412 382.416 222.933 382.3 223.5V225.9C382.567 226.833 382.9 227.6 383.3 228.2C383.633 228.867 384.033 229.2 384.5 229.2C385.156 229.369 385.844 229.369 386.5 229.2L391 228.4L390.8 227.3L386.4 228.1C384.4 228.5 383.8 227.5 383.4 225.7C383 223.9 383.4 222.7 385.3 222.4L389.7 221.5L389.5 220.4ZM391.9 234L383.6 230.4L383.7 231.8L386.3 232.8L386.6 237.2L384.2 238.7L384.3 240L392 235.3L391.9 234ZM390.7 234.7L387.7 236.6L387.5 233.4L390.7 234.7ZM254.2 254.7L253 255L254.3 259.9L255.5 259.6L254.2 254.7ZM385.8 254.7L387 255L385.7 259.9L384.5 259.6L385.8 254.7ZM266.6 275.2L257.6 276.2L258.4 277.3L261.2 277L263.6 280.6L262.2 283.1L263 284.1L267.3 276.3L266.6 275.2ZM265.9 276.5L264.2 279.5L262.4 276.9L265.9 276.5ZM270 280.1L264.3 285.4L265.1 286.2L269.9 281.7L267.3 288.7L268.3 289.6L275.1 287.6L270.4 291.9L271.2 292.7L276.9 287.4L275.7 286.2L268.7 288.2L271.3 281.5L270 280.1ZM278.3 288.5L273.5 295L279.7 299.6L280.4 298.7L275.1 294.7L276.6 292.7L281.3 296.4L282 295.4L277.3 291.9L278.6 290.2L283.6 294L284.3 293L278.3 288.5ZM286.1 294.3L282.4 301.3L283.4 301.9L284.9 299.1L288.3 300.9L289.1 304.9L290.4 305.6L289.5 301.4C290.5 301.733 291.333 301.533 292 300.8C292.6 300.2 292.8 299.5 292.6 298.7C292.4 297.7 291.3 297.1 290.5 296.6L286.1 294.3ZM286.6 295.8L290.2 297.8C290.8 298.2 291.5 298.7 291.4 299.4C291.4 300.1 290.7 300.4 290.1 300.3C288.967 299.967 287.9 299.5 286.9 298.9L285.4 298.1L286.6 295.8ZM295.2 299L292.2 306.4L293.2 306.9L296.2 299.5L295.2 299ZM302.4 301.5C301.566 301.204 300.684 301.068 299.8 301.1C299.045 301.167 298.325 301.447 297.723 301.907C297.121 302.367 296.662 302.989 296.4 303.7C296.213 304.388 296.213 305.112 296.4 305.8C296.4 306.533 296.733 307.2 297.4 307.8C298.089 308.412 298.911 308.857 299.8 309.1C300.726 309.452 301.735 309.522 302.7 309.3C303.097 309.244 303.478 309.108 303.821 308.902C304.165 308.696 304.464 308.423 304.7 308.1L303.7 307.5C302.7 308.8 301.4 308.5 300.1 308C297.967 307.333 297.133 306 297.6 304C298.3 302 300.3 302 302 302.5C303.2 302.9 304.3 303.5 304.4 304.6L305.6 304.8C305.563 304.044 305.242 303.329 304.7 302.8C304.064 302.168 303.269 301.719 302.4 301.5ZM310.4 303.3L305.2 310.6L306.5 310.8L308.1 308.5L312.5 309.2L313.4 311.8L314.7 312L311.7 303.5L310.4 303.3ZM310.9 304.6L312.1 308L308.9 307.5L310.9 304.6ZM329.2 303.4C328.267 303.533 327.467 303.833 326.8 304.3C326.178 304.724 325.689 305.315 325.388 306.005C325.088 306.695 324.988 307.456 325.1 308.2C325.167 308.867 325.5 309.533 326.1 310.2C326.5 310.667 327.1 311 327.9 311.2C328.633 311.4 329.567 311.4 330.7 311.2C331.833 311 332.7 310.6 333.3 310C333.916 309.504 334.311 308.786 334.4 308H333.2C332.9 309.6 331.7 310 330.4 310.2C328.2 310.6 326.833 309.833 326.3 307.9C325.9 305.8 327.6 304.8 329.3 304.4C330.6 304.2 331.8 304.1 332.5 305.1L333.5 304.7C333.137 304.091 332.57 303.631 331.9 303.4C331.017 303.152 330.083 303.152 329.2 303.4ZM334.5 302.4L336.8 310.1L344.3 307.9L343.9 306.8L337.6 308.7L336.9 306.3L342.6 304.6L342.3 303.6L336.6 305.2L336 303.2L342 301.4L341.7 300.3L334.5 302.4ZM343.2 299.7L346.5 307L347.5 306.5L344.7 300.5L352.5 304H353L354 303.5L350.6 296.2L349.6 296.7L352.4 302.7L344.4 299.1L343.2 299.7ZM352 295.6L352.6 296.6L355.4 294.6H355.6L359.3 300.3L360.3 299.6L356.6 294V293.9L359.5 291.9L358.9 291L352 295.6ZM360 290L365.4 296L366.3 295.1L364.2 292.8L367 290.2L371 290.8L372.2 289.8L367.9 289.2C368.433 288.4 368.5 287.533 368.1 286.6C367.7 285.8 367.067 285.4 366.2 285.4C365.2 285.4 364.2 286.2 363.5 286.8L360 290ZM361.6 290.1L364.6 287.3C365.2 286.9 366 286.4 366.6 286.8C367.267 287.267 367.367 287.8 366.9 288.4C366.233 289.333 365.433 290.2 364.5 291L363.4 292L361.6 290V290.1ZM369.3 280.7L372.9 289L373.7 288L372.7 285.4L375.4 282L378.1 282.6L379 281.6L370.2 279.6L369.3 280.7ZM370.7 281L374.2 281.7L372.2 284.2L370.7 281ZM372.8 276.2L379.5 280.5L383 275.1L382 274.5L379.3 278.8L379.2 279H379.1L373.4 275.2L372.8 276.2Z" fill="#C8A400" style="fill:#C8A400;fill:color(display-p3 0.7843 0.6431 0.0000);fill-opacity:1;"/>
<g id="Clip path group">
<mask id="mask0_2194_6932" style="mask-type:luminance" maskUnits="userSpaceOnUse" x="269" y="181" width="102" height="89">
<g id="ni-c">
<path id="Vector_4" d="M320 181.12L269.04 269.36H370.96L320 181.12Z" fill="white" style="fill:white;fill-opacity:1;"/>
</g>
</mask>
<g mask="url(#mask0_2194_6932)">
<g id="Group">
<path id="Vector_5" d="M320 181.12L294.8 224.72L282.48 246.08H357.52L345.76 225.76L320 181.12Z" fill="white" style="fill:white;fill-opacity:1;"/>
<g id="ni-e">
<g id="ni-d">
<path id="Vector_6" opacity="0.6" d="M320 181.12L318.08 184.32L320 228.32L321.92 184.32L320 181.12Z" fill="#17C0EB" stroke="#17C0EB" style="fill:#17C0EB;fill:color(display-p3 0.0902 0.7529 0.9216);fill-opacity:1;stroke:#17C0EB;stroke:color(display-p3 0.0902 0.7529 0.9216);stroke-opacity:1;" stroke-width="0.08"/>
<path id="Vector_7" d="M320 222H319.92L320 224.4L320.08 222H320Z" fill="white" style="fill:white;fill-opacity:1;"/>
</g>
<g id="ni-d_2">
<path id="Vector_8" opacity="0.6" d="M364.966 213.79L361.33 212.952L320.076 228.375L362.516 216.605L364.966 213.79Z" fill="#17C0EB" stroke="#17C0EB" style="fill:#17C0EB;fill:color(display-p3 0.0902 0.7529 0.9216);fill-opacity:1;stroke:#17C0EB;stroke:color(display-p3 0.0902 0.7529 0.9216);stroke-opacity:1;" stroke-width="0.08"/>
<path id="Vector_9" d="M326.087 226.422L326.062 226.346L323.805 227.164L326.112 226.498L326.087 226.422Z" fill="white" style="fill:white;fill-opacity:1;"/>
</g>
<g id="ni-d_3">
<path id="Vector_10" opacity="0.6" d="M347.79 266.65L347.463 262.933L320.047 228.465L344.356 265.19L347.79 266.65Z" fill="#17C0EB" stroke="#17C0EB" style="fill:#17C0EB;fill:color(display-p3 0.0902 0.7529 0.9216);fill-opacity:1;stroke:#17C0EB;stroke:color(display-p3 0.0902 0.7529 0.9216);stroke-opacity:1;" stroke-width="0.08"/>
<path id="Vector_11" d="M323.762 233.578L323.827 233.531L322.351 231.636L323.697 233.625L323.762 233.578Z" fill="white" style="fill:white;fill-opacity:1;"/>
</g>
<g id="ni-d_4">
<path id="Vector_12" opacity="0.6" d="M292.21 266.65L295.644 265.19L319.953 228.465L292.537 262.933L292.21 266.65Z" fill="#17C0EB" stroke="#17C0EB" style="fill:#17C0EB;fill:color(display-p3 0.0902 0.7529 0.9216);fill-opacity:1;stroke:#17C0EB;stroke:color(display-p3 0.0902 0.7529 0.9216);stroke-opacity:1;" stroke-width="0.08"/>
<path id="Vector_13" d="M316.238 233.578L316.303 233.625L317.649 231.636L316.174 233.531L316.238 233.578Z" fill="white" style="fill:white;fill-opacity:1;"/>
</g>
<g id="ni-d_5">
<path id="Vector_14" opacity="0.6" d="M275.034 213.79L277.484 216.605L319.924 228.375L278.671 212.953L275.034 213.79Z" fill="#17C0EB" stroke="#17C0EB" style="fill:#17C0EB;fill:color(display-p3 0.0902 0.7529 0.9216);fill-opacity:1;stroke:#17C0EB;stroke:color(display-p3 0.0902 0.7529 0.9216);stroke-opacity:1;" stroke-width="0.08"/>
<path id="Vector_15" d="M313.913 226.422L313.889 226.498L316.196 227.164L313.938 226.346L313.913 226.422Z" fill="white" style="fill:white;fill-opacity:1;"/>
</g>
</g>
<g id="ni-e_2">
<g id="ni-d_6">
<path id="Vector_16" opacity="0.6" d="M326.58 181.58L324.233 184.482L320.011 228.321L328.036 185.016L326.58 181.58Z" fill="#17C0EB" stroke="#17C0EB" style="fill:#17C0EB;fill:color(display-p3 0.0902 0.7529 0.9216);fill-opacity:1;stroke:#17C0EB;stroke:color(display-p3 0.0902 0.7529 0.9216);stroke-opacity:1;" stroke-width="0.08"/>
<path id="Vector_17" d="M320.891 222.062L320.812 222.051L320.557 224.439L320.97 222.073L320.891 222.062Z" fill="white" style="fill:white;fill-opacity:1;"/>
</g>
<g id="ni-d_7">
<path id="Vector_18" opacity="0.6" d="M366.562 220.19L363.077 218.855L320.079 228.386L363.744 222.636L366.562 220.19Z" fill="#17C0EB" stroke="#17C0EB" style="fill:#17C0EB;fill:color(display-p3 0.0902 0.7529 0.9216);fill-opacity:1;stroke:#17C0EB;stroke:color(display-p3 0.0902 0.7529 0.9216);stroke-opacity:1;" stroke-width="0.08"/>
<path id="Vector_19" d="M326.303 227.289L326.289 227.21L323.939 227.705L326.317 227.367L326.303 227.289Z" fill="white" style="fill:white;fill-opacity:1;"/>
</g>
<g id="ni-d_8">
<path id="Vector_20" opacity="0.6" d="M342.197 270.146L342.39 266.419L320.038 228.471L338.999 268.222L342.197 270.146Z" fill="#17C0EB" stroke="#17C0EB" style="fill:#17C0EB;fill:color(display-p3 0.0902 0.7529 0.9216);fill-opacity:1;stroke:#17C0EB;stroke:color(display-p3 0.0902 0.7529 0.9216);stroke-opacity:1;" stroke-width="0.08"/>
<path id="Vector_21" d="M323.005 234.051L323.076 234.013L321.878 231.932L322.934 234.088L323.005 234.051Z" fill="white" style="fill:white;fill-opacity:1;"/>
</g>
<g id="ni-d_9">
<path id="Vector_22" opacity="0.6" d="M287.156 262.41L290.761 261.442L319.944 228.458L287.998 258.775L287.156 262.41Z" fill="#17C0EB" stroke="#17C0EB" style="fill:#17C0EB;fill:color(display-p3 0.0902 0.7529 0.9216);fill-opacity:1;stroke:#17C0EB;stroke:color(display-p3 0.0902 0.7529 0.9216);stroke-opacity:1;" stroke-width="0.08"/>
<path id="Vector_23" d="M315.554 233.004L315.612 233.059L317.221 231.277L315.497 232.948L315.554 233.004Z" fill="white" style="fill:white;fill-opacity:1;"/>
</g>
<g id="ni-d_10">
<path id="Vector_24" opacity="0.6" d="M277.505 207.674L279.54 210.802L319.928 228.365L281.223 207.351L277.505 207.674Z" fill="#17C0EB" stroke="#17C0EB" style="fill:#17C0EB;fill:color(display-p3 0.0902 0.7529 0.9216);fill-opacity:1;stroke:#17C0EB;stroke:color(display-p3 0.0902 0.7529 0.9216);stroke-opacity:1;" stroke-width="0.08"/>
<path id="Vector_25" d="M314.248 225.594L314.213 225.666L316.405 226.647L314.283 225.523L314.248 225.594Z" fill="white" style="fill:white;fill-opacity:1;"/>
</g>
</g>
<g id="ni-e_3">
<g id="ni-d_11">
<path id="Vector_26" opacity="0.6" d="M333.033 182.951L330.305 185.498L320.023 228.323L333.996 186.557L333.033 182.951Z" fill="#17C0EB" stroke="#17C0EB" style="fill:#17C0EB;fill:color(display-p3 0.0902 0.7529 0.9216);fill-opacity:1;stroke:#17C0EB;stroke:color(display-p3 0.0902 0.7529 0.9216);stroke-opacity:1;" stroke-width="0.08"/>
<path id="Vector_27" d="M321.764 222.248L321.688 222.226L321.103 224.555L321.841 222.27L321.764 222.248Z" fill="white" style="fill:white;fill-opacity:1;"/>
</g>
<g id="ni-d_12">
<path id="Vector_28" opacity="0.6" d="M367.252 226.75L363.987 224.943L320.08 228.397L364.121 228.78L367.252 226.75Z" fill="#17C0EB" stroke="#17C0EB" style="fill:#17C0EB;fill:color(display-p3 0.0902 0.7529 0.9216);fill-opacity:1;stroke:#17C0EB;stroke:color(display-p3 0.0902 0.7529 0.9216);stroke-opacity:1;" stroke-width="0.08"/>
<path id="Vector_29" d="M326.396 228.177L326.394 228.097L323.998 228.26L326.399 228.257L326.396 228.177Z" fill="white" style="fill:white;fill-opacity:1;"/>
</g>
<g id="ni-d_13">
<path id="Vector_30" opacity="0.6" d="M336.171 272.829L336.881 269.165L320.028 228.475L333.273 270.478L336.171 272.829Z" fill="#17C0EB" stroke="#17C0EB" style="fill:#17C0EB;fill:color(display-p3 0.0902 0.7529 0.9216);fill-opacity:1;stroke:#17C0EB;stroke:color(display-p3 0.0902 0.7529 0.9216);stroke-opacity:1;" stroke-width="0.08"/>
<path id="Vector_31" d="M322.189 234.414L322.265 234.387L321.369 232.159L322.114 234.441L322.189 234.414Z" fill="white" style="fill:white;fill-opacity:1;"/>
</g>
<g id="ni-d_14">
<path id="Vector_32" opacity="0.6" d="M282.743 257.508L286.447 257.051L319.937 228.449L284.083 254.025L282.743 257.508Z" fill="#17C0EB" stroke="#17C0EB" style="fill:#17C0EB;fill:color(display-p3 0.0902 0.7529 0.9216);fill-opacity:1;stroke:#17C0EB;stroke:color(display-p3 0.0902 0.7529 0.9216);stroke-opacity:1;" stroke-width="0.08"/>
<path id="Vector_33" d="M314.957 232.34L315.006 232.403L316.848 230.863L314.908 232.277L314.957 232.34Z" fill="white" style="fill:white;fill-opacity:1;"/>
</g>
<g id="ni-d_15">
<path id="Vector_34" opacity="0.6" d="M280.804 201.961L282.383 205.343L319.934 228.355L284.53 202.159L280.804 201.961Z" fill="#17C0EB" stroke="#17C0EB" style="fill:#17C0EB;fill:color(display-p3 0.0902 0.7529 0.9216);fill-opacity:1;stroke:#17C0EB;stroke:color(display-p3 0.0902 0.7529 0.9216);stroke-opacity:1;" stroke-width="0.08"/>
<path id="Vector_35" d="M314.695 224.821L314.65 224.887L316.684 226.163L314.739 224.755L314.695 224.821Z" fill="white" style="fill:white;fill-opacity:1;"/>
</g>
</g>
<g id="ni-e_4">
<g id="ni-d_16">
<path id="Vector_36" opacity="0.6" d="M339.231 185.208L336.175 187.35L320.033 228.327L339.683 188.912L339.231 185.208Z" fill="#17C0EB" stroke="#17C0EB" style="fill:#17C0EB;fill:color(display-p3 0.0902 0.7529 0.9216);fill-opacity:1;stroke:#17C0EB;stroke:color(display-p3 0.0902 0.7529 0.9216);stroke-opacity:1;" stroke-width="0.08"/>
<path id="Vector_37" d="M322.604 222.553L322.531 222.521L321.628 224.746L322.677 222.586L322.604 222.553Z" fill="white" style="fill:white;fill-opacity:1;"/>
</g>
<g id="ni-d_17">
<path id="Vector_38" opacity="0.6" d="M367.021 233.342L364.04 231.098L320.08 228.408L363.638 234.917L367.021 233.342Z" fill="#17C0EB" stroke="#17C0EB" style="fill:#17C0EB;fill:color(display-p3 0.0902 0.7529 0.9216);fill-opacity:1;stroke:#17C0EB;stroke:color(display-p3 0.0902 0.7529 0.9216);stroke-opacity:1;" stroke-width="0.08"/>
<path id="Vector_39" d="M326.365 229.069L326.374 228.99L323.978 228.818L326.357 229.149L326.365 229.069Z" fill="white" style="fill:white;fill-opacity:1;"/>
</g>
<g id="ni-d_18">
<path id="Vector_40" opacity="0.6" d="M329.83 274.647L331.043 271.118L320.017 228.478L327.287 271.916L329.83 274.647Z" fill="#17C0EB" stroke="#17C0EB" style="fill:#17C0EB;fill:color(display-p3 0.0902 0.7529 0.9216);fill-opacity:1;stroke:#17C0EB;stroke:color(display-p3 0.0902 0.7529 0.9216);stroke-opacity:1;" stroke-width="0.08"/>
<path id="Vector_41" d="M321.331 234.66L321.409 234.644L320.832 232.313L321.253 234.677L321.331 234.66Z" fill="white" style="fill:white;fill-opacity:1;"/>
</g>
<g id="ni-d_19">
<path id="Vector_42" opacity="0.6" d="M279.055 252.04L282.786 252.103L319.931 228.44L280.866 248.777L279.055 252.04Z" fill="#17C0EB" stroke="#17C0EB" style="fill:#17C0EB;fill:color(display-p3 0.0902 0.7529 0.9216);fill-opacity:1;stroke:#17C0EB;stroke:color(display-p3 0.0902 0.7529 0.9216);stroke-opacity:1;" stroke-width="0.08"/>
<path id="Vector_43" d="M314.458 231.6L314.498 231.669L316.536 230.4L314.418 231.531L314.458 231.6Z" fill="white" style="fill:white;fill-opacity:1;"/>
</g>
<g id="ni-d_20">
<path id="Vector_44" opacity="0.6" d="M284.864 196.763L285.958 200.332L319.941 228.346L288.527 197.478L284.864 196.763Z" fill="#17C0EB" stroke="#17C0EB" style="fill:#17C0EB;fill:color(display-p3 0.0902 0.7529 0.9216);fill-opacity:1;stroke:#17C0EB;stroke:color(display-p3 0.0902 0.7529 0.9216);stroke-opacity:1;" stroke-width="0.08"/>
<path id="Vector_45" d="M315.244 224.118L315.19 224.177L317.028 225.723L315.297 224.058L315.244 224.118Z" fill="white" style="fill:white;fill-opacity:1;"/>
</g>
</g>
<g id="ni-e_5">
<g id="ni-d_21">
<path id="Vector_46" opacity="0.6" d="M345.055 188.304L341.731 190.001L320.043 228.332L344.988 192.036L345.055 188.304Z" fill="#17C0EB" stroke="#17C0EB" style="fill:#17C0EB;fill:color(display-p3 0.0902 0.7529 0.9216);fill-opacity:1;stroke:#17C0EB;stroke:color(display-p3 0.0902 0.7529 0.9216);stroke-opacity:1;" stroke-width="0.08"/>
<path id="Vector_47" d="M323.392 222.973L323.324 222.93L322.12 225.008L323.46 223.015L323.392 222.973Z" fill="white" style="fill:white;fill-opacity:1;"/>
</g>
<g id="ni-d_22">
<path id="Vector_48" opacity="0.6" d="M365.876 239.838L363.235 237.201L320.078 228.419L362.306 240.927L365.876 239.838Z" fill="#17C0EB" stroke="#17C0EB" style="fill:#17C0EB;fill:color(display-p3 0.0902 0.7529 0.9216);fill-opacity:1;stroke:#17C0EB;stroke:color(display-p3 0.0902 0.7529 0.9216);stroke-opacity:1;" stroke-width="0.08"/>
<path id="Vector_49" d="M326.21 229.948L326.229 229.871L323.881 229.368L326.191 230.026L326.21 229.948Z" fill="white" style="fill:white;fill-opacity:1;"/>
</g>
<g id="ni-d_23">
<path id="Vector_50" opacity="0.6" d="M323.299 275.565L324.991 272.239L320.006 228.48L321.16 272.507L323.299 275.565Z" fill="#17C0EB" stroke="#17C0EB" style="fill:#17C0EB;fill:color(display-p3 0.0902 0.7529 0.9216);fill-opacity:1;stroke:#17C0EB;stroke:color(display-p3 0.0902 0.7529 0.9216);stroke-opacity:1;" stroke-width="0.08"/>
<path id="Vector_51" d="M320.447 234.784L320.527 234.779L320.28 232.39L320.367 234.79L320.447 234.784Z" fill="white" style="fill:white;fill-opacity:1;"/>
</g>
<g id="ni-d_24">
<path id="Vector_52" opacity="0.6" d="M276.163 246.111L279.849 246.693L319.926 228.43L278.411 243.132L276.163 246.111Z" fill="#17C0EB" stroke="#17C0EB" style="fill:#17C0EB;fill:color(display-p3 0.0902 0.7529 0.9216);fill-opacity:1;stroke:#17C0EB;stroke:color(display-p3 0.0902 0.7529 0.9216);stroke-opacity:1;" stroke-width="0.08"/>
<path id="Vector_53" d="M314.066 230.798L314.096 230.872L316.291 229.898L314.036 230.723L314.066 230.798Z" fill="white" style="fill:white;fill-opacity:1;"/>
</g>
<g id="ni-d_25">
<path id="Vector_54" opacity="0.6" d="M289.609 192.182L290.196 195.867L319.949 228.339L293.137 193.399L289.609 192.182Z" fill="#17C0EB" stroke="#17C0EB" style="fill:#17C0EB;fill:color(display-p3 0.0902 0.7529 0.9216);fill-opacity:1;stroke:#17C0EB;stroke:color(display-p3 0.0902 0.7529 0.9216);stroke-opacity:1;" stroke-width="0.08"/>
<path id="Vector_55" d="M315.886 223.497L315.825 223.549L317.429 225.336L315.948 223.446L315.886 223.497Z" fill="white" style="fill:white;fill-opacity:1;"/>
</g>
</g>
<g id="ni-e_6">
<g id="ni-d_26">
<path id="Vector_56" opacity="0.6" d="M350.391 192.181L346.863 193.399L320.052 228.339L349.805 195.867L350.391 192.181Z" fill="#17C0EB" stroke="#17C0EB" style="fill:#17C0EB;fill:color(display-p3 0.0902 0.7529 0.9216);fill-opacity:1;stroke:#17C0EB;stroke:color(display-p3 0.0902 0.7529 0.9216);stroke-opacity:1;" stroke-width="0.08"/>
<path id="Vector_57" d="M324.114 223.497L324.053 223.446L322.571 225.336L324.175 223.549L324.114 223.497Z" fill="white" style="fill:white;fill-opacity:1;"/>
</g>
<g id="ni-d_27">
<path id="Vector_58" opacity="0.6" d="M363.837 246.111L361.59 243.133L320.074 228.43L360.151 246.693L363.837 246.111Z" fill="#17C0EB" stroke="#17C0EB" style="fill:#17C0EB;fill:color(display-p3 0.0902 0.7529 0.9216);fill-opacity:1;stroke:#17C0EB;stroke:color(display-p3 0.0902 0.7529 0.9216);stroke-opacity:1;" stroke-width="0.08"/>
<path id="Vector_59" d="M325.934 230.798L325.964 230.723L323.709 229.899L325.904 230.872L325.934 230.798Z" fill="white" style="fill:white;fill-opacity:1;"/>
</g>
<g id="ni-d_28">
<path id="Vector_60" opacity="0.6" d="M316.702 275.565L318.84 272.507L319.994 228.48L315.01 272.239L316.702 275.565Z" fill="#17C0EB" stroke="#17C0EB" style="fill:#17C0EB;fill:color(display-p3 0.0902 0.7529 0.9216);fill-opacity:1;stroke:#17C0EB;stroke:color(display-p3 0.0902 0.7529 0.9216);stroke-opacity:1;" stroke-width="0.08"/>
<path id="Vector_61" d="M319.553 234.784L319.633 234.79L319.721 232.39L319.474 234.779L319.553 234.784Z" fill="white" style="fill:white;fill-opacity:1;"/>
</g>
<g id="ni-d_29">
<path id="Vector_62" opacity="0.6" d="M274.124 239.838L277.694 240.927L319.922 228.419L276.765 237.201L274.124 239.838Z" fill="#17C0EB" stroke="#17C0EB" style="fill:#17C0EB;fill:color(display-p3 0.0902 0.7529 0.9216);fill-opacity:1;stroke:#17C0EB;stroke:color(display-p3 0.0902 0.7529 0.9216);stroke-opacity:1;" stroke-width="0.08"/>
<path id="Vector_63" d="M313.79 229.948L313.81 230.026L316.119 229.368L313.771 229.871L313.79 229.948Z" fill="white" style="fill:white;fill-opacity:1;"/>
</g>
<g id="ni-d_30">
<path id="Vector_64" opacity="0.6" d="M294.946 188.304L295.013 192.036L319.958 228.332L298.27 190.001L294.946 188.304Z" fill="#17C0EB" stroke="#17C0EB" style="fill:#17C0EB;fill:color(display-p3 0.0902 0.7529 0.9216);fill-opacity:1;stroke:#17C0EB;stroke:color(display-p3 0.0902 0.7529 0.9216);stroke-opacity:1;" stroke-width="0.08"/>
<path id="Vector_65" d="M316.609 222.972L316.541 223.015L317.881 225.008L316.677 222.93L316.609 222.972Z" fill="white" style="fill:white;fill-opacity:1;"/>
</g>
</g>
<g id="ni-e_7">
<g id="ni-d_31">
<path id="Vector_66" opacity="0.6" d="M355.136 196.764L351.473 197.478L320.059 228.346L354.042 200.332L355.136 196.764Z" fill="#17C0EB" stroke="#17C0EB" style="fill:#17C0EB;fill:color(display-p3 0.0902 0.7529 0.9216);fill-opacity:1;stroke:#17C0EB;stroke:color(display-p3 0.0902 0.7529 0.9216);stroke-opacity:1;" stroke-width="0.08"/>
<path id="Vector_67" d="M324.756 224.118L324.703 224.058L322.973 225.723L324.81 224.177L324.756 224.118Z" fill="white" style="fill:white;fill-opacity:1;"/>
</g>
<g id="ni-d_32">
<path id="Vector_68" opacity="0.6" d="M360.946 252.04L359.134 248.777L320.069 228.44L357.214 252.103L360.946 252.04Z" fill="#17C0EB" stroke="#17C0EB" style="fill:#17C0EB;fill:color(display-p3 0.0902 0.7529 0.9216);fill-opacity:1;stroke:#17C0EB;stroke:color(display-p3 0.0902 0.7529 0.9216);stroke-opacity:1;" stroke-width="0.08"/>
<path id="Vector_69" d="M325.543 231.6L325.583 231.531L323.464 230.4L325.503 231.669L325.543 231.6Z" fill="white" style="fill:white;fill-opacity:1;"/>
</g>
<g id="ni-d_33">
<path id="Vector_70" opacity="0.6" d="M310.17 274.647L312.713 271.916L319.983 228.478L308.957 271.118L310.17 274.647Z" fill="#17C0EB" stroke="#17C0EB" style="fill:#17C0EB;fill:color(display-p3 0.0902 0.7529 0.9216);fill-opacity:1;stroke:#17C0EB;stroke:color(display-p3 0.0902 0.7529 0.9216);stroke-opacity:1;" stroke-width="0.08"/>
<path id="Vector_71" d="M318.669 234.66L318.748 234.677L319.168 232.313L318.591 234.644L318.669 234.66Z" fill="white" style="fill:white;fill-opacity:1;"/>
</g>
<g id="ni-d_34">
<path id="Vector_72" opacity="0.6" d="M272.979 233.342L276.362 234.917L319.92 228.408L275.961 231.098L272.979 233.342Z" fill="#17C0EB" stroke="#17C0EB" style="fill:#17C0EB;fill:color(display-p3 0.0902 0.7529 0.9216);fill-opacity:1;stroke:#17C0EB;stroke:color(display-p3 0.0902 0.7529 0.9216);stroke-opacity:1;" stroke-width="0.08"/>
<path id="Vector_73" d="M313.635 229.069L313.644 229.149L316.022 228.818L313.627 228.989L313.635 229.069Z" fill="white" style="fill:white;fill-opacity:1;"/>
</g>
<g id="ni-d_35">
<path id="Vector_74" opacity="0.6" d="M300.77 185.208L300.317 188.912L319.968 228.327L303.825 187.35L300.77 185.208Z" fill="#17C0EB" stroke="#17C0EB" style="fill:#17C0EB;fill:color(display-p3 0.0902 0.7529 0.9216);fill-opacity:1;stroke:#17C0EB;stroke:color(display-p3 0.0902 0.7529 0.9216);stroke-opacity:1;" stroke-width="0.08"/>
<path id="Vector_75" d="M317.397 222.553L317.324 222.586L318.373 224.746L317.47 222.521L317.397 222.553Z" fill="white" style="fill:white;fill-opacity:1;"/>
</g>
</g>
<g id="ni-e_8">
<g id="ni-d_36">
<path id="Vector_76" opacity="0.6" d="M359.197 201.961L355.471 202.159L320.067 228.355L357.618 205.343L359.197 201.961Z" fill="#17C0EB" stroke="#17C0EB" style="fill:#17C0EB;fill:color(display-p3 0.0902 0.7529 0.9216);fill-opacity:1;stroke:#17C0EB;stroke:color(display-p3 0.0902 0.7529 0.9216);stroke-opacity:1;" stroke-width="0.08"/>
<path id="Vector_77" d="M325.306 224.821L325.261 224.755L323.316 226.163L325.351 224.888L325.306 224.821Z" fill="white" style="fill:white;fill-opacity:1;"/>
</g>
<g id="ni-d_37">
<path id="Vector_78" opacity="0.6" d="M357.257 257.508L355.918 254.025L320.063 228.449L353.554 257.051L357.257 257.508Z" fill="#17C0EB" stroke="#17C0EB" style="fill:#17C0EB;fill:color(display-p3 0.0902 0.7529 0.9216);fill-opacity:1;stroke:#17C0EB;stroke:color(display-p3 0.0902 0.7529 0.9216);stroke-opacity:1;" stroke-width="0.08"/>
<path id="Vector_79" d="M325.044 232.34L325.093 232.277L323.152 230.863L324.994 232.403L325.044 232.34Z" fill="white" style="fill:white;fill-opacity:1;"/>
</g>
<g id="ni-d_38">
<path id="Vector_80" opacity="0.6" d="M303.83 272.829L306.728 270.478L319.973 228.475L303.12 269.165L303.83 272.829Z" fill="#17C0EB" stroke="#17C0EB" style="fill:#17C0EB;fill:color(display-p3 0.0902 0.7529 0.9216);fill-opacity:1;stroke:#17C0EB;stroke:color(display-p3 0.0902 0.7529 0.9216);stroke-opacity:1;" stroke-width="0.08"/>
<path id="Vector_81" d="M317.812 234.414L317.887 234.441L318.632 232.159L317.736 234.387L317.812 234.414Z" fill="white" style="fill:white;fill-opacity:1;"/>
</g>
<g id="ni-d_39">
<path id="Vector_82" opacity="0.6" d="M272.749 226.75L275.88 228.781L319.92 228.397L276.014 224.943L272.749 226.75Z" fill="#17C0EB" stroke="#17C0EB" style="fill:#17C0EB;fill:color(display-p3 0.0902 0.7529 0.9216);fill-opacity:1;stroke:#17C0EB;stroke:color(display-p3 0.0902 0.7529 0.9216);stroke-opacity:1;" stroke-width="0.08"/>
<path id="Vector_83" d="M313.604 228.177L313.602 228.257L316.003 228.261L313.607 228.097L313.604 228.177Z" fill="white" style="fill:white;fill-opacity:1;"/>
</g>
<g id="ni-d_40">
<path id="Vector_84" opacity="0.6" d="M306.968 182.952L306.005 186.557L319.978 228.323L309.696 185.498L306.968 182.952Z" fill="#17C0EB" stroke="#17C0EB" style="fill:#17C0EB;fill:color(display-p3 0.0902 0.7529 0.9216);fill-opacity:1;stroke:#17C0EB;stroke:color(display-p3 0.0902 0.7529 0.9216);stroke-opacity:1;" stroke-width="0.08"/>
<path id="Vector_85" d="M318.236 222.248L318.159 222.27L318.898 224.555L318.313 222.226L318.236 222.248Z" fill="white" style="fill:white;fill-opacity:1;"/>
</g>
</g>
<g id="ni-e_9">
<g id="ni-d_41">
<path id="Vector_86" opacity="0.6" d="M362.495 207.674L358.778 207.351L320.072 228.365L360.461 210.802L362.495 207.674Z" fill="#17C0EB" stroke="#17C0EB" style="fill:#17C0EB;fill:color(display-p3 0.0902 0.7529 0.9216);fill-opacity:1;stroke:#17C0EB;stroke:color(display-p3 0.0902 0.7529 0.9216);stroke-opacity:1;" stroke-width="0.08"/>
<path id="Vector_87" d="M325.753 225.594L325.718 225.523L323.596 226.647L325.788 225.666L325.753 225.594Z" fill="white" style="fill:white;fill-opacity:1;"/>
</g>
<g id="ni-d_42">
<path id="Vector_88" opacity="0.6" d="M352.844 262.41L352.002 258.775L320.056 228.458L349.24 261.442L352.844 262.41Z" fill="#17C0EB" stroke="#17C0EB" style="fill:#17C0EB;fill:color(display-p3 0.0902 0.7529 0.9216);fill-opacity:1;stroke:#17C0EB;stroke:color(display-p3 0.0902 0.7529 0.9216);stroke-opacity:1;" stroke-width="0.08"/>
<path id="Vector_89" d="M324.446 233.004L324.504 232.948L322.779 231.277L324.389 233.059L324.446 233.004Z" fill="white" style="fill:white;fill-opacity:1;"/>
</g>
<g id="ni-d_43">
<path id="Vector_90" opacity="0.6" d="M297.804 270.146L301.001 268.222L319.963 228.471L297.611 266.419L297.804 270.146Z" fill="#17C0EB" stroke="#17C0EB" style="fill:#17C0EB;fill:color(display-p3 0.0902 0.7529 0.9216);fill-opacity:1;stroke:#17C0EB;stroke:color(display-p3 0.0902 0.7529 0.9216);stroke-opacity:1;" stroke-width="0.08"/>
<path id="Vector_91" d="M316.996 234.051L317.066 234.088L318.122 231.932L316.925 234.013L316.996 234.051Z" fill="white" style="fill:white;fill-opacity:1;"/>
</g>
<g id="ni-d_44">
<path id="Vector_92" opacity="0.6" d="M273.438 220.19L276.256 222.636L319.921 228.386L276.923 218.855L273.438 220.19Z" fill="#17C0EB" stroke="#17C0EB" style="fill:#17C0EB;fill:color(display-p3 0.0902 0.7529 0.9216);fill-opacity:1;stroke:#17C0EB;stroke:color(display-p3 0.0902 0.7529 0.9216);stroke-opacity:1;" stroke-width="0.08"/>
<path id="Vector_93" d="M313.697 227.289L313.684 227.368L316.061 227.706L313.711 227.21L313.697 227.289Z" fill="white" style="fill:white;fill-opacity:1;"/>
</g>
<g id="ni-d_45">
<path id="Vector_94" opacity="0.6" d="M313.42 181.58L311.964 185.016L319.989 228.321L315.767 184.482L313.42 181.58Z" fill="#17C0EB" stroke="#17C0EB" style="fill:#17C0EB;fill:color(display-p3 0.0902 0.7529 0.9216);fill-opacity:1;stroke:#17C0EB;stroke:color(display-p3 0.0902 0.7529 0.9216);stroke-opacity:1;" stroke-width="0.08"/>
<path id="Vector_95" d="M319.11 222.062L319.031 222.073L319.444 224.439L319.189 222.051L319.11 222.062Z" fill="white" style="fill:white;fill-opacity:1;"/>
</g>
</g>
<path id="Vector_96" d="M320 212.64C311.476 212.616 303.233 215.686 296.8 221.28L285.12 241.6C284.702 243.789 284.488 246.012 284.48 248.24H288.48C288.888 240.165 292.382 232.556 298.241 226.985C304.1 221.414 311.876 218.307 319.96 218.307C328.045 218.307 335.821 221.414 341.68 226.985C347.539 232.556 351.033 240.165 351.44 248.24H355.44C355.459 246.014 355.272 243.791 354.88 241.6L343.2 221.28C336.768 215.686 328.525 212.616 320 212.64Z" fill="#FF0000" style="fill:#FF0000;fill:color(display-p3 1.0000 0.0000 0.0000);fill-opacity:1;"/>
<path id="Vector_97" d="M320 213.36C310.967 213.383 302.289 216.877 295.76 223.12L286.16 239.84C285.483 242.562 285.134 245.355 285.12 248.16H288.56C289.128 240.209 292.687 232.768 298.52 227.336C304.354 221.904 312.029 218.884 320 218.884C327.971 218.884 335.646 221.904 341.48 227.336C347.314 232.768 350.873 240.209 351.44 248.16H354.88C354.873 245.328 354.523 242.508 353.84 239.76L344.24 223.12C337.712 216.877 329.033 213.383 320 213.36Z" fill="#FF6600" style="fill:#FF6600;fill:color(display-p3 1.0000 0.4000 0.0000);fill-opacity:1;"/>
<path id="Vector_98" d="M320 214C315.169 214.002 310.393 215.022 305.982 216.993C301.571 218.964 297.625 221.842 294.4 225.44L287.44 237.44C286.336 240.932 285.795 244.578 285.84 248.24H288.481C288.888 240.165 292.382 232.556 298.241 226.985C304.1 221.414 311.876 218.307 319.961 218.307C328.045 218.307 335.821 221.414 341.68 226.985C347.539 232.556 351.033 240.165 351.44 248.24H354.24C354.24 244.507 353.681 240.933 352.561 237.52L345.521 225.44C342.305 221.852 338.372 218.98 333.976 217.01C329.579 215.039 324.818 214.014 320 214Z" fill="#FFFF00" style="fill:#FFFF00;fill:color(display-p3 1.0000 1.0000 0.0000);fill-opacity:1;"/>
<path id="Vector_99" d="M320 214.64C314.483 214.637 309.049 215.993 304.179 218.588C299.31 221.183 295.155 224.938 292.08 229.52L289.84 233.44C287.579 238.046 286.402 243.109 286.4 248.24H288.56C289.128 240.289 292.687 232.849 298.521 227.417C304.354 221.984 312.029 218.964 320 218.964C327.972 218.964 335.647 221.984 341.48 227.417C347.314 232.849 350.873 240.289 351.44 248.24H353.6C353.599 243.109 352.422 238.046 350.16 233.44L347.92 229.44C344.846 224.858 340.691 221.103 335.821 218.508C330.952 215.913 325.518 214.557 320 214.56V214.64Z" fill="#00FF00" style="fill:#00FF00;fill:color(display-p3 0.0000 1.0000 0.0000);fill-opacity:1;"/>
<path id="Vector_100" d="M320 215.2C315.659 215.179 311.357 216.019 307.344 217.673C303.33 219.327 299.684 221.761 296.618 224.835C293.552 227.908 291.127 231.559 289.483 235.577C287.839 239.595 287.009 243.899 287.04 248.24H288.56C289.128 240.289 292.687 232.849 298.521 227.416C304.354 221.984 312.029 218.964 320 218.964C327.972 218.964 335.647 221.984 341.48 227.416C347.314 232.849 350.873 240.289 351.44 248.24H352.96C352.992 243.899 352.162 239.595 350.518 235.577C348.874 231.559 346.448 227.908 343.383 224.835C340.317 221.761 336.671 219.327 332.657 217.673C328.644 216.019 324.342 215.179 320 215.2Z" fill="#00CCFF" style="fill:#00CCFF;fill:color(display-p3 0.0000 0.8000 1.0000);fill-opacity:1;"/>
<path id="Vector_101" d="M320 215.84C311.428 215.84 303.208 219.245 297.146 225.306C291.085 231.367 287.68 239.588 287.68 248.16H288.8C288.8 239.885 292.087 231.949 297.938 226.098C303.79 220.247 311.725 216.96 320 216.96C328.275 216.96 336.211 220.247 342.062 226.098C347.913 231.949 351.2 239.885 351.2 248.16H352.32C352.278 239.616 348.854 231.436 342.797 225.41C336.741 219.383 328.544 216 320 216V215.84Z" fill="#0000FF" style="fill:#0000FF;fill:color(display-p3 0.0000 0.0000 1.0000);fill-opacity:1;"/>
<path id="Vector_102" d="M320 216.56C315.793 216.559 311.627 217.397 307.746 219.024C303.866 220.651 300.348 223.035 297.399 226.036C294.45 229.037 292.128 232.596 290.569 236.505C289.01 240.413 288.246 244.593 288.32 248.8H288.96V248.16C289.045 239.928 292.397 232.066 298.278 226.305C304.159 220.544 312.088 217.355 320.32 217.44C328.553 217.525 336.414 220.877 342.175 226.758C347.936 232.639 351.125 240.568 351.04 248.8H351.68V248.16C351.68 244 350.861 239.88 349.269 236.037C347.677 232.193 345.343 228.701 342.402 225.759C339.46 222.817 335.967 220.484 332.124 218.891C328.28 217.299 324.161 216.48 320 216.48V216.56Z" fill="#800080" style="fill:#800080;fill:color(display-p3 0.5020 0.0000 0.5020);fill-opacity:1;"/>
<path id="Vector_103" d="M320.32 230.48C319.76 230.48 319.36 230.08 318.88 230C318.632 230.194 318.446 230.457 318.347 230.755C318.247 231.054 318.238 231.376 318.32 231.68C318.56 231.76 318.56 232 319.04 232.4C319.52 232.8 319.44 232.96 319.36 234C319.36 234.32 319.44 235.2 319.84 235.28C320.32 235.333 320.614 235.013 320.72 234.32C320.827 233.787 321.014 233.36 321.28 233.04C321.52 231.52 321.12 230.96 320.32 230.48Z" fill="#510000" style="fill:#510000;fill:color(display-p3 0.3176 0.0000 0.0000);fill-opacity:1;"/>
<path id="Vector_104" d="M317.76 226.8C317.28 226.8 316.48 227.6 316.16 227.2C315.947 226.88 315.947 226.507 316.16 226.08C316.531 225.291 317.149 224.645 317.92 224.24C319.734 223.173 321.067 223.44 321.92 225.04C322.8 226.48 323.68 228.08 323.76 229.36C323.76 229.76 324 230.48 323.6 230.88C322.56 232 319.92 229.68 318.4 230.08C317.92 230.16 317.28 230.56 316.8 230.24C316.48 230 316.8 229.44 317.04 229.2C317.52 228.8 318.24 227.28 318.16 226.64C318.16 226.32 318.16 226.8 317.76 226.8Z" fill="#FF0000" style="fill:#FF0000;fill:color(display-p3 1.0000 0.0000 0.0000);fill-opacity:1;"/>
<path id="Vector_105" d="M317.6 226.08C316.64 226.4 316.8 226.88 316.32 227.28C316.48 227.36 316.96 227.52 317.44 227.04C317.6 226.88 317.787 226.8 318 226.8L317.44 227.36C316.961 227.747 316.578 228.24 316.32 228.8C316.08 229.44 316 230.16 316.08 230.24C316.08 230.24 316.4 230.88 317.28 231.2C318.88 231.84 319.2 233.2 320.88 233.2C322.16 233.2 322 232.32 323.04 232.48C323.84 232.64 324.4 231.92 323.52 231.52C322.094 231.24 320.627 231.24 319.2 231.52C318.88 228.32 319.2 229.44 319.12 228C319.04 226.64 318.56 226.56 319.12 225.36C318.72 226.16 318.16 226 317.52 226L317.6 226.08Z" fill="url(#paint0_linear_2194_6932)" style=""/>
<path id="Vector_106" d="M320.8 223.84L320.72 224.32L320.96 225.12L321.12 225.92C321.174 226.133 321.36 226.293 321.68 226.4C322 226.64 321.68 227.2 321.92 227.28C322.08 227.28 322.32 226.48 322.32 226.32V225.76L321.92 225.04L321.76 224.8L321.12 224.08L320.88 223.92L320.72 223.84H320.8Z" fill="#FF2A2A" style="fill:#FF2A2A;fill:color(display-p3 1.0000 0.1647 0.1647);fill-opacity:1;"/>
<path id="Vector_107" d="M321.04 229.92L319.44 229.36C318.4 229.04 317.36 228.4 316.64 228.72C316.427 228.773 316.32 229.013 316.32 229.44C316.32 229.84 315.92 230.48 316.32 230.24C316.72 230 318.24 230.88 318.72 231.12C318.96 231.28 319.52 231.6 319.6 231.92C319.76 232.4 319.6 233.36 319.6 233.84C319.6 234.32 319.76 235.28 320.16 235.44C320.694 235.493 321.04 235.147 321.2 234.4C321.36 233.76 321.574 233.253 321.84 232.88C322.16 232.4 322.507 232.16 322.88 232.16C323.36 232.16 324 232.56 324 232C324 231.68 323.68 231.36 323.84 230.88C323.92 230.48 323.52 230.56 323.12 230.4L321.04 229.92Z" fill="url(#paint1_linear_2194_6932)" style=""/>
<path id="Vector_108" d="M318.72 231.12C318.4 230.96 316.88 229.92 316.32 230.32C316.107 230.32 316 230.24 316 230.08L316.16 229.36C316.16 229.04 316.294 228.773 316.56 228.56C317.12 228.08 318.4 228.96 319.04 229.2L318.72 231.12Z" fill="#910000" style="fill:#910000;fill:color(display-p3 0.5686 0.0000 0.0000);fill-opacity:1;"/>
<path id="Vector_109" d="M321.44 233.12C322.16 231.84 322.64 232 323.52 232C323.84 232 323.947 231.813 323.84 231.44C323.6 231.92 322.48 231.44 321.84 231.68C320.64 232.24 320.88 234.64 320.24 234.88C320.88 235.44 321.12 233.52 321.44 233.12Z" fill="#FF3A3A" style="fill:#FF3A3A;fill:color(display-p3 1.0000 0.2275 0.2275);fill-opacity:1;"/>
<g id="Group_2">
<path id="Vector_110" d="M282.48 246.08L274.48 259.92H365.6L357.6 246.16H282.56L282.48 246.08Z" fill="white" style="fill:white;fill-opacity:1;"/>
<g id="ni-n">
<path id="ni-k" d="M279.761 257.12L276.001 257.36L275.601 258.08C277.467 257.76 279.387 257.573 281.361 257.52C283.921 257.52 286.321 258.16 289.121 258.16H292.801C295.601 258.16 297.921 257.52 300.561 257.52C303.201 257.52 305.601 258.16 308.401 258.16H312.081C314.881 258.16 317.201 257.52 319.841 257.52C322.481 257.52 324.881 258.16 327.681 258.16H331.281C334.081 258.16 336.481 257.52 339.121 257.52C341.761 257.52 344.161 258.16 346.961 258.16H350.561C353.361 258.16 355.761 257.52 358.401 257.52C360.427 257.627 362.427 257.813 364.401 258.08L364.001 257.28L360.481 257.12H356.881C354.081 257.12 351.681 257.68 349.041 257.76C346.401 257.76 344.001 257.12 341.201 257.12H337.601C334.801 257.12 332.401 257.68 329.761 257.76C327.121 257.76 324.721 257.12 321.921 257.12H318.401C315.601 257.12 313.201 257.68 310.561 257.76C307.921 257.76 305.521 257.12 302.721 257.12H299.121C296.321 257.12 293.921 257.68 291.281 257.76C288.641 257.76 286.321 257.12 283.521 257.12H279.761Z" fill="url(#paint2_linear_2194_6932)" style=""/>
<path id="ni-k_2" d="M279.761 256.24L276.001 256.48L275.601 257.2C277.467 256.88 279.387 256.693 281.361 256.64C283.921 256.64 286.321 257.28 289.121 257.28H292.801C295.601 257.28 297.921 256.64 300.561 256.64C303.201 256.64 305.601 257.28 308.401 257.28H312.081C314.881 257.28 317.201 256.64 319.841 256.64C322.481 256.64 324.881 257.28 327.681 257.28H331.281C334.081 257.28 336.481 256.64 339.121 256.64C341.761 256.64 344.161 257.28 346.961 257.28H350.561C353.361 257.28 355.761 256.64 358.401 256.64C360.427 256.747 362.427 256.933 364.401 257.2L364.001 256.4L360.481 256.24H356.881C354.081 256.24 351.681 256.8 349.041 256.88C346.401 256.88 344.001 256.24 341.201 256.24H337.601C334.801 256.24 332.401 256.8 329.761 256.88C327.121 256.88 324.721 256.24 321.921 256.24H318.401C315.601 256.24 313.201 256.8 310.561 256.88C307.921 256.88 305.521 256.24 302.721 256.24H299.121C296.321 256.24 293.921 256.8 291.281 256.88C288.641 256.88 286.321 256.24 283.521 256.24H279.761Z" fill="url(#paint3_linear_2194_6932)" style=""/>
<path id="ni-k_3" d="M279.761 255.36L276.001 255.6L275.601 256.32C277.467 256 279.387 255.813 281.361 255.76C283.921 255.76 286.321 256.4 289.121 256.4H292.801C295.601 256.4 297.921 255.76 300.561 255.76C303.201 255.76 305.601 256.4 308.401 256.4H312.081C314.881 256.4 317.201 255.76 319.841 255.76C322.481 255.76 324.881 256.4 327.681 256.4H331.281C334.081 256.4 336.481 255.76 339.121 255.76C341.761 255.76 344.161 256.4 346.961 256.4H350.561C353.361 256.4 355.761 255.76 358.401 255.76C360.427 255.867 362.427 256.053 364.401 256.32L364.001 255.52L360.481 255.36H356.881C354.081 255.36 351.681 255.92 349.041 256C346.401 256 344.001 255.36 341.201 255.36H337.601C334.801 255.36 332.401 255.92 329.761 256C327.121 256 324.721 255.36 321.921 255.36H318.401C315.601 255.36 313.201 255.92 310.561 256C307.921 256 305.521 255.36 302.721 255.36H299.121C296.321 255.36 293.921 255.92 291.281 256C288.641 256 286.321 255.36 283.521 255.36H279.761Z" fill="url(#paint4_linear_2194_6932)" style=""/>
</g>
<g id="ni-n_2">
<path id="ni-k_4" d="M279.761 254.48L276.001 254.72L275.601 255.44C277.467 255.12 279.387 254.933 281.361 254.88C283.921 254.88 286.321 255.52 289.121 255.52H292.801C295.601 255.52 297.921 254.88 300.561 254.88C303.201 254.88 305.601 255.52 308.401 255.52H312.081C314.881 255.52 317.201 254.88 319.841 254.88C322.481 254.88 324.881 255.52 327.681 255.52H331.281C334.081 255.52 336.481 254.88 339.121 254.88C341.761 254.88 344.161 255.52 346.961 255.52H350.561C353.361 255.52 355.761 254.88 358.401 254.88C360.427 254.987 362.427 255.173 364.401 255.44L364.001 254.64L360.481 254.48H356.881C354.081 254.48 351.681 255.04 349.041 255.12C346.401 255.12 344.001 254.48 341.201 254.48H337.601C334.801 254.48 332.401 255.04 329.761 255.12C327.121 255.12 324.721 254.48 321.921 254.48H318.401C315.601 254.48 313.201 255.04 310.561 255.12C307.921 255.12 305.521 254.48 302.721 254.48H299.121C296.321 254.48 293.921 255.04 291.281 255.12C288.641 255.12 286.321 254.48 283.521 254.48H279.761Z" fill="url(#paint5_linear_2194_6932)" style=""/>
<path id="ni-k_5" d="M279.761 253.6L276.001 253.84L275.601 254.56C277.467 254.24 279.387 254.053 281.361 254C283.921 254 286.321 254.64 289.121 254.64H292.801C295.601 254.64 297.921 254 300.561 254C303.201 254 305.601 254.64 308.401 254.64H312.081C314.881 254.64 317.201 254 319.841 254C322.481 254 324.881 254.64 327.681 254.64H331.281C334.081 254.64 336.481 254 339.121 254C341.761 254 344.161 254.64 346.961 254.64H350.561C353.361 254.64 355.761 254 358.401 254C360.427 254.107 362.427 254.293 364.401 254.56L364.001 253.76L360.481 253.6H356.881C354.081 253.6 351.681 254.16 349.041 254.24C346.401 254.24 344.001 253.6 341.201 253.6H337.601C334.801 253.6 332.401 254.16 329.761 254.24C327.121 254.24 324.721 253.6 321.921 253.6H318.401C315.601 253.6 313.201 254.16 310.561 254.24C307.921 254.24 305.521 253.6 302.721 253.6H299.121C296.321 253.6 293.921 254.16 291.281 254.24C288.641 254.24 286.321 253.6 283.521 253.6H279.761Z" fill="url(#paint6_linear_2194_6932)" style=""/>
<path id="ni-k_6" d="M279.761 252.72L276.001 252.96L275.601 253.68C277.467 253.36 279.387 253.173 281.361 253.12C283.921 253.12 286.321 253.76 289.121 253.76H292.801C295.601 253.76 297.921 253.12 300.561 253.12C303.201 253.12 305.601 253.76 308.401 253.76H312.081C314.881 253.76 317.201 253.12 319.841 253.12C322.481 253.12 324.881 253.76 327.681 253.76H331.281C334.081 253.76 336.481 253.12 339.121 253.12C341.761 253.12 344.161 253.76 346.961 253.76H350.561C353.361 253.76 355.761 253.12 358.401 253.12C360.427 253.227 362.427 253.413 364.401 253.68L364.001 252.88L360.481 252.72H356.881C354.081 252.72 351.681 253.28 349.041 253.36C346.401 253.36 344.001 252.72 341.201 252.72H337.601C334.801 252.72 332.401 253.28 329.761 253.36C327.121 253.36 324.721 252.72 321.921 252.72H318.401C315.601 252.72 313.201 253.28 310.561 253.36C307.921 253.36 305.521 252.72 302.721 252.72H299.121C296.321 252.72 293.921 253.28 291.281 253.36C288.641 253.36 286.321 252.72 283.521 252.72H279.761Z" fill="url(#paint7_linear_2194_6932)" style=""/>
</g>
<g id="ni-n_3">
<path id="ni-k_7" d="M279.761 251.76L276.001 252L275.601 252.72C277.467 252.4 279.387 252.213 281.361 252.16C283.921 252.16 286.321 252.8 289.121 252.8H292.801C295.601 252.8 297.921 252.16 300.561 252.16C303.201 252.16 305.601 252.8 308.401 252.8H312.081C314.881 252.8 317.201 252.16 319.841 252.16C322.481 252.16 324.881 252.8 327.681 252.8H331.281C334.081 252.8 336.481 252.16 339.121 252.16C341.761 252.16 344.161 252.8 346.961 252.8H350.561C353.361 252.8 355.761 252.16 358.401 252.16C360.427 252.267 362.427 252.453 364.401 252.72L364.001 251.92L360.481 251.76H356.881C354.081 251.76 351.681 252.32 349.041 252.4C346.401 252.4 344.001 251.76 341.201 251.76H337.601C334.801 251.76 332.401 252.32 329.761 252.4C327.121 252.4 324.721 251.76 321.921 251.76H318.401C315.601 251.76 313.201 252.32 310.561 252.4C307.921 252.4 305.521 251.76 302.721 251.76H299.121C296.321 251.76 293.921 252.32 291.281 252.4C288.641 252.4 286.321 251.76 283.521 251.76H279.761Z" fill="url(#paint8_linear_2194_6932)" style=""/>
<path id="ni-k_8" d="M279.761 250.88L276.001 251.12L275.601 251.84C277.467 251.52 279.387 251.333 281.361 251.28C283.921 251.28 286.321 251.92 289.121 251.92H292.801C295.601 251.92 297.921 251.28 300.561 251.28C303.201 251.28 305.601 251.92 308.401 251.92H312.081C314.881 251.92 317.201 251.28 319.841 251.28C322.481 251.28 324.881 251.92 327.681 251.92H331.281C334.081 251.92 336.481 251.28 339.121 251.28C341.761 251.28 344.161 251.92 346.961 251.92H350.561C353.361 251.92 355.761 251.28 358.401 251.28C360.427 251.387 362.427 251.573 364.401 251.84L364.001 251.04L360.481 250.88H356.881C354.081 250.88 351.681 251.44 349.041 251.52C346.401 251.52 344.001 250.88 341.201 250.88H337.601C334.801 250.88 332.401 251.44 329.761 251.52C327.121 251.52 324.721 250.88 321.921 250.88H318.401C315.601 250.88 313.201 251.44 310.561 251.52C307.921 251.52 305.521 250.88 302.721 250.88H299.121C296.321 250.88 293.921 251.44 291.281 251.52C288.641 251.52 286.321 250.88 283.521 250.88H279.761Z" fill="url(#paint9_linear_2194_6932)" style=""/>
<path id="ni-k_9" d="M279.761 250L276.001 250.24L275.601 250.96C277.467 250.64 279.387 250.453 281.361 250.4C283.921 250.4 286.321 251.04 289.121 251.04H292.801C295.601 251.04 297.921 250.4 300.561 250.4C303.201 250.4 305.601 251.04 308.401 251.04H312.081C314.881 251.04 317.201 250.4 319.841 250.4C322.481 250.4 324.881 251.04 327.681 251.04H331.281C334.081 251.04 336.481 250.4 339.121 250.4C341.761 250.4 344.161 251.04 346.961 251.04H350.561C353.361 251.04 355.761 250.4 358.401 250.4C360.427 250.507 362.427 250.693 364.401 250.96L364.001 250.16L360.481 250H356.881C354.081 250 351.681 250.56 349.041 250.64C346.401 250.64 344.001 250 341.201 250H337.601C334.801 250 332.401 250.56 329.761 250.64C327.121 250.64 324.721 250 321.921 250H318.401C315.601 250 313.201 250.56 310.561 250.64C307.921 250.64 305.521 250 302.721 250H299.121C296.321 250 293.921 250.56 291.281 250.64C288.641 250.64 286.321 250 283.521 250H279.761Z" fill="url(#paint10_linear_2194_6932)" style=""/>
</g>
<path id="Vector_111" d="M282.56 246V246.16H357.52L357.44 246H282.56ZM282.4 246.24L282.32 246.48H357.6L357.52 246.24H282.32H282.4ZM282.24 246.56L282.08 246.8H357.92L357.76 246.56H282.24ZM282 246.96L281.76 247.36H358.24L358 246.96H282ZM281.68 247.52L281.44 247.92H358.56L358.32 247.52H281.68ZM281.36 248.08L281.2 248.4H358.8L358.64 248.08H281.36ZM281.04 248.64L280.88 248.96H359.2L358.96 248.64H281.04ZM280.72 249.2L280.48 249.68H359.52L359.28 249.2H280.8H280.72Z" fill="url(#paint11_linear_2194_6932)" style=""/>
<path id="Vector_112" d="M285.92 249.84C288.64 250.4 288.88 249.84 288.88 249.84H285.92ZM351.12 249.84C351.12 249.84 351.36 250.4 354.08 249.84H351.12Z" fill="url(#paint12_linear_2194_6932)" style=""/>
</g>
<g id="Group_3">
<g id="ni-t">
<path id="Vector_113" d="M344.48 237.6C343.12 237.6 342.72 238.32 342.72 238.32C340.56 246.8 333.28 255.36 324.64 255.36H318.24V264H367.36L362.4 255.2C354.64 254.08 348.32 246.16 346.32 238.32C346.32 238.32 345.84 237.6 344.48 237.6Z" fill="url(#paint13_linear_2194_6932)" style=""/>
<path id="Vector_114" d="M344.48 238C343.894 238 343.494 238.08 343.28 238.24L343.04 238.48C341.828 242.904 339.516 246.949 336.32 250.24C333.12 253.52 329.12 255.76 324.64 255.76H318.48V263.68H367.2L362.64 255.68C358.8 255.04 355.494 253.227 352.72 250.24C349.525 246.949 347.213 242.904 346 238.48L345.76 238.24C345.364 238.043 344.921 237.96 344.48 238Z" fill="#97C924" style="fill:#97C924;fill:color(display-p3 0.5922 0.7882 0.1412);fill-opacity:1;"/>
<path id="Vector_115" d="M344.48 238H344.8V246.64C344.724 248.457 344.172 250.223 343.2 251.76C342.8 253.04 342.4 252.56 341.36 254.08C340.012 254.548 338.617 254.869 337.2 255.04C335.2 255.36 330.8 255.68 328.48 255.12C331.458 254.209 334.155 252.558 336.32 250.32L338 248.32C338.891 247.211 339.694 246.034 340.4 244.8L341.2 243.2L342.24 240.88L343.04 238.48L343.28 238.24L343.76 238.08L344.48 238Z" fill="#EDE71F" style="fill:#EDE71F;fill:color(display-p3 0.9294 0.9059 0.1216);fill-opacity:1;"/>
<path id="Vector_116" d="M344 239.12C343.6 243.92 342.16 249.68 338.64 253.36C337.36 254.4 335.68 255.44 334.16 255.2C339.52 250.8 342.8 244 343.92 239.12H344Z" fill="#C6CB24" style="fill:#C6CB24;fill:color(display-p3 0.7765 0.7961 0.1412);fill-opacity:1;"/>
<path id="Vector_117" d="M339.6 247.44C338.8 249.6 335.76 252.8 332.56 255.44H330.24C332.24 255.28 336.88 251.44 339.6 247.44Z" fill="#9ECB34" style="fill:#9ECB34;fill:color(display-p3 0.6196 0.7961 0.2039);fill-opacity:1;"/>
</g>
<g id="ni-t_2">
<path id="Vector_118" d="M332.24 237.6C330.88 237.6 330.48 238.32 330.48 238.32C328.32 246.8 321.04 255.36 312.4 255.36H306V264H355.12L350.16 255.2C342.4 254.08 336.08 246.16 334.08 238.32C334.08 238.32 333.6 237.6 332.24 237.6Z" fill="url(#paint14_linear_2194_6932)" style=""/>
<path id="Vector_119" d="M332.24 238C331.654 238 331.254 238.08 331.04 238.24L330.8 238.48C329.588 242.904 327.276 246.949 324.08 250.24C320.88 253.52 316.88 255.76 312.4 255.76H306.24V263.68H354.96L350.4 255.68C346.56 255.04 343.254 253.227 340.48 250.24C337.284 246.949 334.973 242.904 333.76 238.48L333.52 238.24C333.124 238.043 332.681 237.96 332.24 238Z" fill="#97C924" style="fill:#97C924;fill:color(display-p3 0.5922 0.7882 0.1412);fill-opacity:1;"/>
<path id="Vector_120" d="M332.24 238H332.56V246.64C332.484 248.457 331.932 250.223 330.96 251.76C330.56 253.04 330.16 252.56 329.12 254.08C327.772 254.548 326.377 254.869 324.96 255.04C322.96 255.36 318.56 255.68 316.24 255.12C319.218 254.209 321.915 252.558 324.08 250.32L325.76 248.32C326.651 247.211 327.453 246.034 328.16 244.8L328.96 243.2L330 240.88L330.8 238.48L331.04 238.24L331.52 238.08L332.24 238Z" fill="#EDE71F" style="fill:#EDE71F;fill:color(display-p3 0.9294 0.9059 0.1216);fill-opacity:1;"/>
<path id="Vector_121" d="M331.76 239.12C331.36 243.92 329.92 249.68 326.4 253.36C325.12 254.4 323.44 255.44 321.92 255.2C327.28 250.8 330.56 244 331.68 239.12H331.76Z" fill="#C6CB24" style="fill:#C6CB24;fill:color(display-p3 0.7765 0.7961 0.1412);fill-opacity:1;"/>
<path id="Vector_122" d="M327.36 247.44C326.56 249.6 323.52 252.8 320.32 255.44H318C320 255.28 324.64 251.44 327.36 247.44Z" fill="#9ECB34" style="fill:#9ECB34;fill:color(display-p3 0.6196 0.7961 0.2039);fill-opacity:1;"/>
</g>
<g id="Group_4">
<path id="Vector_123" d="M321.76 238.4C324 246.8 331.2 255.36 339.84 255.36H346.32V264H293.68V255.36H300.08C308.72 255.36 316 246.8 318.16 238.32C318.16 238.32 318.64 237.68 320 237.68C321.36 237.68 321.76 238.32 321.76 238.32V238.4Z" fill="url(#paint15_linear_2194_6932)" style=""/>
<path id="Vector_124" d="M320 238C320.587 238 320.987 238.08 321.2 238.24L321.44 238.48C322.653 242.904 324.964 246.949 328.16 250.24C331.36 253.52 335.36 255.76 339.84 255.76H346V263.68H294V255.68H300.16C304.56 255.68 308.64 253.52 311.84 250.24C315.007 246.94 317.291 242.896 318.48 238.48L318.72 238.24C319.116 238.043 319.559 237.96 320 238Z" fill="#97C924" style="fill:#97C924;fill:color(display-p3 0.5922 0.7882 0.1412);fill-opacity:1;"/>
<path id="Vector_125" d="M319.44 238H319.2L318.72 238.24L318.48 238.48L317.68 240.88L316.72 243.28L315.92 244.8C315.213 246.034 314.411 247.211 313.52 248.32L311.84 250.24C309.684 252.507 306.986 254.186 304 255.12C306.24 255.68 307.2 255.12 309.2 254.8C310.853 254.587 312.453 254.267 314 253.84C315.2 252.24 314.8 252.8 315.2 251.52C316.16 249.76 317.6 248.16 317.92 246.16C319.2 243.76 319.44 239.28 319.44 238Z" fill="#EDE71F" style="fill:#EDE71F;fill:color(display-p3 0.9294 0.9059 0.1216);fill-opacity:1;"/>
<path id="Vector_126" d="M319.44 239.12C319.12 243.92 317.6 249.68 314.08 253.36C312.8 254.4 311.2 255.44 309.6 255.2C315.04 250.8 318.32 244 319.44 239.12Z" fill="#C6CB24" style="fill:#C6CB24;fill:color(display-p3 0.7765 0.7961 0.1412);fill-opacity:1;"/>
<path id="Vector_127" d="M315.04 247.44C313.301 250.585 310.899 253.315 308 255.44H305.76C307.76 255.28 312.32 251.44 315.04 247.44Z" fill="#9ECB34" style="fill:#9ECB34;fill:color(display-p3 0.6196 0.7961 0.2039);fill-opacity:1;"/>
<path id="Vector_128" d="M320.8 238.08L321.2 238.24L321.52 238.48L322.32 240.88L323.28 243.28L324.08 244.8C324.787 246.034 325.589 247.211 326.48 248.32L328.16 250.24C330.302 252.597 332.996 254.384 336 255.44C330.16 255.44 327.68 254.96 325.6 252.24C324.088 250.639 322.941 248.728 322.24 246.64C321.84 245.04 320.64 241.44 320.72 238.08H320.8Z" fill="#EDE71F" style="fill:#EDE71F;fill:color(display-p3 0.9294 0.9059 0.1216);fill-opacity:1;"/>
<path id="Vector_129" d="M321.2 239.12C321.52 243.92 322.96 248.72 326.48 252.4C327.76 253.52 329.36 254.48 330.96 254.24C325.928 250.6 322.446 245.204 321.2 239.12Z" fill="#C6CB24" style="fill:#C6CB24;fill:color(display-p3 0.7765 0.7961 0.1412);fill-opacity:1;"/>
</g>
<g id="ni-w">
<path id="Vector_130" d="M307.84 237.6C306.4 237.6 306 238.32 306 238.32C304 246.16 296.56 256.16 288.8 257.36L284.96 264H324.16V254.96C317.12 253.04 311.44 245.6 309.6 238.32C309.6 238.32 309.2 237.68 307.76 237.68L307.84 237.6Z" fill="url(#paint16_linear_2194_6932)" style=""/>
<path id="Vector_131" d="M307.84 238C307.2 238 306.774 238.08 306.56 238.24L306.32 238.48C304.983 242.872 302.779 246.953 299.84 250.48C297.12 253.92 292.08 257.36 288.64 257.68L285.2 263.68H323.6V255.12C320.709 254.173 318.098 252.524 316 250.32C312.793 247.007 310.48 242.932 309.28 238.48L309.04 238.24C308.668 238.058 308.254 237.975 307.84 238Z" fill="#97C924" style="fill:#97C924;fill:color(display-p3 0.5922 0.7882 0.1412);fill-opacity:1;"/>
<path id="Vector_132" d="M306.72 239.12C306.24 246.32 302.24 255.52 297.68 257.04C296.16 257.6 293.6 257.76 292.72 257.84C296.247 255.88 299.323 253.201 301.749 249.976C304.174 246.751 305.895 243.053 306.8 239.12H306.72Z" fill="#93BC30" style="fill:#93BC30;fill:color(display-p3 0.5765 0.7373 0.1882);fill-opacity:1;"/>
<path id="Vector_133" d="M307.84 238H307.44V246.64C307.547 248.4 308.08 250.107 309.04 251.76L309.2 252.16C309.6 253.04 309.84 253.36 311.04 254.32C314.475 256.772 318.677 257.907 322.88 257.52C321.973 256.773 321.067 256.133 320.16 255.6L323.76 255.2C320.795 254.231 318.124 252.524 316 250.24L314.88 249.04L314.4 248.4C313.453 247.269 312.597 246.066 311.84 244.8L311.04 243.2L309.76 240.08L309.28 238.48L309.04 238.24L308.56 238.08L307.76 238H307.84Z" fill="#EDE71F" style="fill:#EDE71F;fill:color(display-p3 0.9294 0.9059 0.1216);fill-opacity:1;"/>
<path id="Vector_134" d="M308.32 239.12C308.72 243.92 310.16 249.68 313.68 253.36C314.96 254.4 316.56 255.44 318.16 255.2C313.3 250.983 309.863 245.366 308.32 239.12Z" fill="#CCD11E" style="fill:#CCD11E;fill:color(display-p3 0.8000 0.8196 0.1176);fill-opacity:1;"/>
<path id="Vector_135" d="M311.68 245.84C314.271 250.908 318.345 255.066 323.36 257.76H325.36C321.84 255.84 316.16 253.12 311.76 245.76L311.68 245.84Z" fill="#9ECB34" style="fill:#9ECB34;fill:color(display-p3 0.6196 0.7961 0.2039);fill-opacity:1;"/>
</g>
<g id="ni-w_2">
<path id="Vector_136" d="M295.52 237.6C294.08 237.6 293.68 238.32 293.68 238.32C291.68 246.16 284.24 256.16 276.48 257.36L272.64 264H311.84V254.96C304.8 253.04 299.12 245.6 297.28 238.32C297.28 238.32 296.88 237.68 295.44 237.68L295.52 237.6Z" fill="url(#paint17_linear_2194_6932)" style=""/>
<path id="Vector_137" d="M295.52 238C294.88 238 294.453 238.08 294.24 238.24L294 238.48C292.662 242.872 290.459 246.953 287.52 250.48C284.8 253.92 279.76 257.36 276.32 257.68L272.88 263.68H311.28V255.12C308.389 254.173 305.777 252.524 303.68 250.32C300.472 247.007 298.16 242.932 296.96 238.48L296.72 238.24C296.347 238.058 295.934 237.975 295.52 238Z" fill="#97C924" style="fill:#97C924;fill:color(display-p3 0.5922 0.7882 0.1412);fill-opacity:1;"/>
<path id="Vector_138" d="M294.4 239.12C293.92 246.32 289.92 255.52 285.36 257.04C283.84 257.6 281.28 257.76 280.4 257.84C283.927 255.88 287.003 253.201 289.429 249.976C291.855 246.751 293.575 243.053 294.48 239.12H294.4Z" fill="#93BC30" style="fill:#93BC30;fill:color(display-p3 0.5765 0.7373 0.1882);fill-opacity:1;"/>
<path id="Vector_139" d="M295.52 238H295.12V246.64C295.227 248.4 295.76 250.107 296.72 251.76L296.88 252.16C297.28 253.04 297.52 253.36 298.72 254.32C302.155 256.772 306.357 257.907 310.56 257.52C309.653 256.773 308.747 256.133 307.84 255.6L311.44 255.2C308.475 254.231 305.805 252.524 303.68 250.24L302.56 249.04L302.08 248.4C301.133 247.269 300.277 246.066 299.52 244.8L298.72 243.2L297.44 240.08L296.96 238.48L296.72 238.24L296.24 238.08L295.44 238H295.52Z" fill="#EDE71F" style="fill:#EDE71F;fill:color(display-p3 0.9294 0.9059 0.1216);fill-opacity:1;"/>
<path id="Vector_140" d="M296 239.12C296.4 243.92 297.84 249.68 301.36 253.36C302.64 254.4 304.24 255.44 305.84 255.2C300.98 250.983 297.543 245.366 296 239.12Z" fill="#C6CB24" style="fill:#C6CB24;fill:color(display-p3 0.7765 0.7961 0.1412);fill-opacity:1;"/>
<path id="Vector_141" d="M299.36 245.84C301.952 250.908 306.026 255.066 311.04 257.76H313.04C309.52 255.84 303.84 253.12 299.44 245.76L299.36 245.84Z" fill="#9ECB34" style="fill:#9ECB34;fill:color(display-p3 0.6196 0.7961 0.2039);fill-opacity:1;"/>
</g>
</g>
<path id="Vector_142" d="M365.2 259.76C364.72 259.92 361.68 259.6 360.08 259.76L359.04 260H356.4C353.52 260 351.04 260.8 348.32 260.8C345.6 260.8 343.12 260 340.32 260H337.6C334.72 260 332.24 260.8 329.52 260.8C326.8 260.8 324.32 260 321.52 260H318.8C315.92 260 313.44 260.8 310.8 260.8C308 260.8 305.6 260 302.72 260H300C297.12 260 294.72 260.8 292 260.8C289.28 260.8 286.8 260 283.92 260H281.2C278.96 260 276.24 260.48 274.08 260.64L269.04 269.36H370.96L365.2 259.76Z" fill="white" style="fill:white;fill-opacity:1;"/>
<path id="Vector_143" d="M358.4 258.48H357.92C355.36 258.56 353.44 259.36 348.96 259.36C344.48 259.36 344 258.56 338.88 258.72C334.08 258.72 332.16 259.68 329.52 259.68C326.88 259.68 322.8 259.12 319.52 259.44C316.24 259.76 312.48 260.48 309.92 260.48C306.8 260.48 303.68 259.92 300.48 260.24C297.28 260.56 295.68 261.44 291.6 261.44C288.08 261.44 284.4 260.88 281.36 260.88C278.64 260.88 275.6 261.68 273.36 262L272.64 263.2C274.48 262.96 279.52 262.16 281.28 262.16C283.2 262.16 289.84 262.56 293.52 262.4C297.28 262.32 297.68 261.44 302.08 261.44C305.12 261.44 307.36 261.76 310.48 261.76C312.48 261.76 314.24 260.8 317.2 260.8L319.44 260.72C321.92 260.32 326.16 260.72 329.04 260.88C331.68 261.04 333.44 260.4 336.24 260.32L339.76 260.24C342.56 260.08 344.88 260.72 347.52 260.72C350.08 260.56 352.64 259.92 355.36 259.92L358.96 259.76C360.8 259.76 363.68 259.76 365.6 260.16L364.96 259.04C363.04 258.96 360.72 258.48 358.4 258.48Z" fill="url(#paint18_linear_2194_6932)" style=""/>
<g id="ni-A">
<path id="ni-z" d="M280.24 267.84C277.52 267.84 275.12 268.48 272.56 268.56L269.68 268.32L269.28 268.96H274.08C276.88 268.96 279.2 268.32 281.76 268.24C284.4 268.32 286.72 269.04 289.52 269.04H293.12C295.84 269.04 298.24 268.32 300.8 268.24C303.44 268.32 305.84 269.04 308.56 269.04H312.16C314.96 269.04 317.28 268.32 319.92 268.24C322.48 268.32 324.8 269.04 327.6 269.04H331.2C333.92 269.04 336.32 268.32 338.96 268.24C341.52 268.32 343.92 269.04 346.64 269.04H350.24C353.04 269.04 355.36 268.32 357.92 268.24C360.56 268.32 362.88 269.04 365.68 269.04H369.28L370.72 268.96L370.32 268.32C369.52 268.427 368.667 268.507 367.76 268.56C365.12 268.56 362.8 267.76 360 267.76H356.4C353.68 267.76 351.28 268.56 348.72 268.56C346.08 268.48 343.76 267.76 340.96 267.76H337.36C334.64 267.76 332.24 268.56 329.68 268.56C327.04 268.48 324.72 267.76 321.92 267.76H318.32C315.52 267.76 313.2 268.56 310.64 268.56C308 268.48 305.68 267.76 302.88 267.76H299.28C296.56 267.76 294.16 268.56 291.6 268.56C288.96 268.48 286.64 267.76 283.84 267.76H280.24V267.84Z" fill="url(#paint19_linear_2194_6932)" style=""/>
<path id="ni-z_2" d="M280.24 266.8C277.52 266.8 275.12 267.44 272.56 267.52L269.68 267.28L269.28 267.92H274.08C276.88 267.92 279.2 267.28 281.76 267.2C284.4 267.28 286.72 268 289.52 268H293.12C295.84 268 298.24 267.28 300.8 267.2C303.44 267.28 305.84 268 308.56 268H312.16C314.96 268 317.28 267.28 319.92 267.2C322.48 267.28 324.8 268 327.6 268H331.2C333.92 268 336.32 267.28 338.96 267.2C341.52 267.28 343.92 268 346.64 268H350.24C353.04 268 355.36 267.28 357.92 267.2C360.56 267.28 362.88 268 365.68 268H369.28L370.72 267.92L370.32 267.28C369.52 267.387 368.667 267.467 367.76 267.52C365.12 267.52 362.8 266.72 360 266.72H356.4C353.68 266.72 351.28 267.52 348.72 267.52C346.08 267.44 343.76 266.72 340.96 266.72H337.36C334.64 266.72 332.24 267.52 329.68 267.52C327.04 267.44 324.72 266.72 321.92 266.72H318.32C315.52 266.72 313.2 267.52 310.64 267.52C308 267.44 305.68 266.72 302.88 266.72H299.28C296.56 266.72 294.16 267.52 291.6 267.52C288.96 267.44 286.64 266.72 283.84 266.72H280.24V266.8Z" fill="url(#paint20_linear_2194_6932)" style=""/>
<path id="ni-z_3" d="M280.24 265.76C277.52 265.76 275.12 266.4 272.56 266.48L269.68 266.24L269.28 266.88H274.08C276.88 266.88 279.2 266.24 281.76 266.16C284.4 266.24 286.72 266.96 289.52 266.96H293.12C295.84 266.96 298.24 266.24 300.8 266.16C303.44 266.24 305.84 266.96 308.56 266.96H312.16C314.96 266.96 317.28 266.24 319.92 266.16C322.48 266.24 324.8 266.96 327.6 266.96H331.2C333.92 266.96 336.32 266.24 338.96 266.16C341.52 266.24 343.92 266.96 346.64 266.96H350.24C353.04 266.96 355.36 266.24 357.92 266.16C360.56 266.24 362.88 266.96 365.68 266.96H369.28L370.72 266.88L370.32 266.24C369.52 266.347 368.667 266.427 367.76 266.48C365.12 266.48 362.8 265.68 360 265.68H356.4C353.68 265.68 351.28 266.48 348.72 266.48C346.08 266.4 343.76 265.68 340.96 265.68H337.36C334.64 265.68 332.24 266.48 329.68 266.48C327.04 266.4 324.72 265.68 321.92 265.68H318.32C315.52 265.68 313.2 266.48 310.64 266.48C308 266.4 305.68 265.68 302.88 265.68H299.28C296.56 265.68 294.16 266.48 291.6 266.48C288.96 266.4 286.64 265.68 283.84 265.68H280.24V265.76Z" fill="url(#paint21_linear_2194_6932)" style=""/>
</g>
<g id="ni-A_2">
<path id="ni-z_4" d="M280.24 264.72C277.52 264.72 275.12 265.36 272.56 265.44L269.68 265.2L269.28 265.84H274.08C276.88 265.84 279.2 265.2 281.76 265.12C284.4 265.2 286.72 265.92 289.52 265.92H293.12C295.84 265.92 298.24 265.2 300.8 265.12C303.44 265.2 305.84 265.92 308.56 265.92H312.16C314.96 265.92 317.28 265.2 319.92 265.12C322.48 265.2 324.8 265.92 327.6 265.92H331.2C333.92 265.92 336.32 265.2 338.96 265.12C341.52 265.2 343.92 265.92 346.64 265.92H350.24C353.04 265.92 355.36 265.2 357.92 265.12C360.56 265.2 362.88 265.92 365.68 265.92H369.28L370.72 265.84L370.32 265.2C369.52 265.307 368.667 265.387 367.76 265.44C365.12 265.44 362.8 264.64 360 264.64H356.4C353.68 264.64 351.28 265.44 348.72 265.44C346.08 265.36 343.76 264.64 340.96 264.64H337.36C334.64 264.64 332.24 265.44 329.68 265.44C327.04 265.36 324.72 264.64 321.92 264.64H318.32C315.52 264.64 313.2 265.44 310.64 265.44C308 265.36 305.68 264.64 302.88 264.64H299.28C296.56 264.64 294.16 265.44 291.6 265.44C288.96 265.36 286.64 264.64 283.84 264.64H280.24V264.72Z" fill="url(#paint22_linear_2194_6932)" style=""/>
<path id="ni-z_5" d="M280.24 263.68C277.52 263.68 275.12 264.32 272.56 264.4L269.68 264.16L269.28 264.8H274.08C276.88 264.8 279.2 264.16 281.76 264.08C284.4 264.16 286.72 264.88 289.52 264.88H293.12C295.84 264.88 298.24 264.16 300.8 264.08C303.44 264.16 305.84 264.88 308.56 264.88H312.16C314.96 264.88 317.28 264.16 319.92 264.08C322.48 264.16 324.8 264.88 327.6 264.88H331.2C333.92 264.88 336.32 264.16 338.96 264.08C341.52 264.16 343.92 264.88 346.64 264.88H350.24C353.04 264.88 355.36 264.16 357.92 264.08C360.56 264.16 362.88 264.88 365.68 264.88H369.28L370.72 264.8L370.32 264.16C369.52 264.267 368.667 264.347 367.76 264.4C365.12 264.4 362.8 263.6 360 263.6H356.4C353.68 263.6 351.28 264.4 348.72 264.4C346.08 264.32 343.76 263.6 340.96 263.6H337.36C334.64 263.6 332.24 264.4 329.68 264.4C327.04 264.32 324.72 263.6 321.92 263.6H318.32C315.52 263.6 313.2 264.4 310.64 264.4C308 264.32 305.68 263.6 302.88 263.6H299.28C296.56 263.6 294.16 264.4 291.6 264.4C288.96 264.32 286.64 263.6 283.84 263.6H280.24V263.68Z" fill="url(#paint23_linear_2194_6932)" style=""/>
<path id="ni-z_6" d="M280.24 262.64C277.52 262.64 275.12 263.28 272.56 263.36L269.68 263.12L269.28 263.76H274.08C276.88 263.76 279.2 263.12 281.76 263.04C284.4 263.12 286.72 263.84 289.52 263.84H293.12C295.84 263.84 298.24 263.12 300.8 263.04C303.44 263.12 305.84 263.84 308.56 263.84H312.16C314.96 263.84 317.28 263.12 319.92 263.04C322.48 263.12 324.8 263.84 327.6 263.84H331.2C333.92 263.84 336.32 263.12 338.96 263.04C341.52 263.12 343.92 263.84 346.64 263.84H350.24C353.04 263.84 355.36 263.12 357.92 263.04C360.56 263.12 362.88 263.84 365.68 263.84H369.28L370.72 263.76L370.32 263.12C369.52 263.227 368.667 263.307 367.76 263.36C365.12 263.36 362.8 262.56 360 262.56H356.4C353.68 262.56 351.28 263.36 348.72 263.36C346.08 263.28 343.76 262.56 340.96 262.56H337.36C334.64 262.56 332.24 263.36 329.68 263.36C327.04 263.28 324.72 262.56 321.92 262.56H318.32C315.52 262.56 313.2 263.36 310.64 263.36C308 263.28 305.68 262.56 302.88 262.56H299.28C296.56 262.56 294.16 263.36 291.6 263.36C288.96 263.28 286.64 262.56 283.84 262.56H280.24V262.64Z" fill="url(#paint24_linear_2194_6932)" style=""/>
</g>
<g id="ni-A_3">
<path id="ni-z_7" d="M280.24 261.68C277.52 261.68 275.12 262.32 272.56 262.4L269.68 262.16L269.28 262.8H274.08C276.88 262.8 279.2 262.16 281.76 262.08C284.4 262.16 286.72 262.88 289.52 262.88H293.12C295.84 262.88 298.24 262.16 300.8 262.08C303.44 262.16 305.84 262.88 308.56 262.88H312.16C314.96 262.88 317.28 262.16 319.92 262.08C322.48 262.16 324.8 262.88 327.6 262.88H331.2C333.92 262.88 336.32 262.16 338.96 262.08C341.52 262.16 343.92 262.88 346.64 262.88H350.24C353.04 262.88 355.36 262.16 357.92 262.08C360.56 262.16 362.88 262.88 365.68 262.88H369.28L370.72 262.8L370.32 262.16C369.52 262.267 368.667 262.347 367.76 262.4C365.12 262.4 362.8 261.6 360 261.6H356.4C353.68 261.6 351.28 262.4 348.72 262.4C346.08 262.32 343.76 261.6 340.96 261.6H337.36C334.64 261.6 332.24 262.4 329.68 262.4C327.04 262.32 324.72 261.6 321.92 261.6H318.32C315.52 261.6 313.2 262.4 310.64 262.4C308 262.32 305.68 261.6 302.88 261.6H299.28C296.56 261.6 294.16 262.4 291.6 262.4C288.96 262.32 286.64 261.6 283.84 261.6H280.24V261.68Z" fill="url(#paint25_linear_2194_6932)" style=""/>
<path id="ni-z_8" d="M280.24 260.64C277.52 260.64 275.12 261.28 272.56 261.36L269.68 261.12L269.28 261.76H274.08C276.88 261.76 279.2 261.12 281.76 261.04C284.4 261.12 286.72 261.84 289.52 261.84H293.12C295.84 261.84 298.24 261.12 300.8 261.04C303.44 261.12 305.84 261.84 308.56 261.84H312.16C314.96 261.84 317.28 261.12 319.92 261.04C322.48 261.12 324.8 261.84 327.6 261.84H331.2C333.92 261.84 336.32 261.12 338.96 261.04C341.52 261.12 343.92 261.84 346.64 261.84H350.24C353.04 261.84 355.36 261.12 357.92 261.04C360.56 261.12 362.88 261.84 365.68 261.84H369.28L370.72 261.76L370.32 261.12C369.52 261.227 368.667 261.307 367.76 261.36C365.12 261.36 362.8 260.56 360 260.56H356.4C353.68 260.56 351.28 261.36 348.72 261.36C346.08 261.28 343.76 260.56 340.96 260.56H337.36C334.64 260.56 332.24 261.36 329.68 261.36C327.04 261.28 324.72 260.56 321.92 260.56H318.32C315.52 260.56 313.2 261.36 310.64 261.36C308 261.28 305.68 260.56 302.88 260.56H299.28C296.56 260.56 294.16 261.36 291.6 261.36C288.96 261.28 286.64 260.56 283.84 260.56H280.24V260.64Z" fill="url(#paint26_linear_2194_6932)" style=""/>
<path id="ni-z_9" d="M280.24 259.6C277.52 259.6 275.12 260.24 272.56 260.32L269.68 260.08L269.28 260.72H274.08C276.88 260.72 279.2 260.08 281.76 260C284.4 260.08 286.72 260.8 289.52 260.8H293.12C295.84 260.8 298.24 260.08 300.8 260C303.44 260.08 305.84 260.8 308.56 260.8H312.16C314.96 260.8 317.28 260.08 319.92 260C322.48 260.08 324.8 260.8 327.6 260.8H331.2C333.92 260.8 336.32 260.08 338.96 260C341.52 260.08 343.92 260.8 346.64 260.8H350.24C353.04 260.8 355.36 260.08 357.92 260C360.56 260.08 362.88 260.8 365.68 260.8H369.28L370.72 260.72L370.32 260.08C369.52 260.187 368.667 260.267 367.76 260.32C365.12 260.32 362.8 259.52 360 259.52H356.4C353.68 259.52 351.28 260.32 348.72 260.32C346.08 260.24 343.76 259.52 340.96 259.52H337.36C334.64 259.52 332.24 260.32 329.68 260.32C327.04 260.24 324.72 259.52 321.92 259.52H318.32C315.52 259.52 313.2 260.32 310.64 260.32C308 260.24 305.68 259.52 302.88 259.52H299.28C296.56 259.52 294.16 260.32 291.6 260.32C288.96 260.24 286.64 259.52 283.84 259.52H280.24V259.6Z" fill="url(#paint27_linear_2194_6932)" style=""/>
</g>
<path id="Vector_144" d="M275.12 259.76L273.12 263.12C275.44 262.72 278.8 261.76 281.68 261.76C284.56 261.76 288.08 262.48 291.6 262.56C295.6 262.56 297.2 261.6 300.4 261.28C303.6 260.96 306.8 261.68 310 261.76C312.48 261.76 316.32 260.88 319.6 260.56C322.8 260.16 325.76 260.8 329.6 260.8C333.52 260.88 334.16 259.84 338.88 259.76C344 259.68 344.48 260.48 348.96 260.48C352.32 260.64 355.28 259.76 358.32 259.6C361.36 259.44 362.72 259.6 364.96 259.6L363.44 257.04L282.4 258.88L275.12 259.76Z" fill="#97C924" style="fill:#97C924;fill:color(display-p3 0.5922 0.7882 0.1412);fill-opacity:1;"/>
<path id="Vector_145" d="M360 259.68L363.2 259.92L365.521 260.16L365.2 259.76C364.72 259.92 361.68 259.6 360.08 259.76L360 259.68Z" fill="white" style="fill:white;fill-opacity:1;"/>
</g>
</g>
</g>
<path id="Vector_146" d="M320 179.9L294.3 224.4L268 270H372L346.3 225.4L320 179.9ZM320 182.3L345.2 226L369.9 268.8H270.1L295.3 225L320 182.3Z" fill="#C8A400" style="fill:#C8A400;fill:color(display-p3 0.7843 0.6431 0.0000);fill-opacity:1;"/>
</g>
<defs>
<linearGradient id="paint0_linear_2194_6932" x1="318.96" y1="231.28" x2="320.48" y2="226.72" gradientUnits="userSpaceOnUse">
<stop stop-color="#510000" style="stop-color:#510000;stop-color:color(display-p3 0.3176 0.0000 0.0000);stop-opacity:1;"/>
<stop offset="0.3" stop-color="#8A0000" style="stop-color:#8A0000;stop-color:color(display-p3 0.5412 0.0000 0.0000);stop-opacity:1;"/>
<stop offset="1" stop-color="#AA0000" style="stop-color:#AA0000;stop-color:color(display-p3 0.6667 0.0000 0.0000);stop-opacity:1;"/>
</linearGradient>
<linearGradient id="paint1_linear_2194_6932" x1="321.12" y1="233.12" x2="322.32" y2="229.92" gradientUnits="userSpaceOnUse">
<stop stop-color="#FF2A2A" style="stop-color:#FF2A2A;stop-color:color(display-p3 1.0000 0.1647 0.1647);stop-opacity:1;"/>
<stop offset="1" stop-color="#FF0000" style="stop-color:#FF0000;stop-color:color(display-p3 1.0000 0.0000 0.0000);stop-opacity:1;"/>
</linearGradient>
<linearGradient id="paint2_linear_2194_6932" x1="275.601" y1="254" x2="427.521" y2="254" gradientUnits="userSpaceOnUse">
<stop stop-color="#002255" style="stop-color:#002255;stop-color:color(display-p3 0.0000 0.1333 0.3333);stop-opacity:1;"/>
<stop offset="0.5" stop-color="#0044AA" style="stop-color:#0044AA;stop-color:color(display-p3 0.0000 0.2667 0.6667);stop-opacity:1;"/>
<stop offset="1" stop-color="#002255" style="stop-color:#002255;stop-color:color(display-p3 0.0000 0.1333 0.3333);stop-opacity:1;"/>
</linearGradient>
<linearGradient id="paint3_linear_2194_6932" x1="275.601" y1="253.12" x2="427.521" y2="253.12" gradientUnits="userSpaceOnUse">
<stop stop-color="#002255" style="stop-color:#002255;stop-color:color(display-p3 0.0000 0.1333 0.3333);stop-opacity:1;"/>
<stop offset="0.5" stop-color="#0044AA" style="stop-color:#0044AA;stop-color:color(display-p3 0.0000 0.2667 0.6667);stop-opacity:1;"/>
<stop offset="1" stop-color="#002255" style="stop-color:#002255;stop-color:color(display-p3 0.0000 0.1333 0.3333);stop-opacity:1;"/>
</linearGradient>
<linearGradient id="paint4_linear_2194_6932" x1="275.601" y1="252.24" x2="427.521" y2="252.24" gradientUnits="userSpaceOnUse">
<stop stop-color="#002255" style="stop-color:#002255;stop-color:color(display-p3 0.0000 0.1333 0.3333);stop-opacity:1;"/>
<stop offset="0.5" stop-color="#0044AA" style="stop-color:#0044AA;stop-color:color(display-p3 0.0000 0.2667 0.6667);stop-opacity:1;"/>
<stop offset="1" stop-color="#002255" style="stop-color:#002255;stop-color:color(display-p3 0.0000 0.1333 0.3333);stop-opacity:1;"/>
</linearGradient>
<linearGradient id="paint5_linear_2194_6932" x1="275.601" y1="251.36" x2="427.521" y2="251.36" gradientUnits="userSpaceOnUse">
<stop stop-color="#002255" style="stop-color:#002255;stop-color:color(display-p3 0.0000 0.1333 0.3333);stop-opacity:1;"/>
<stop offset="0.5" stop-color="#0044AA" style="stop-color:#0044AA;stop-color:color(display-p3 0.0000 0.2667 0.6667);stop-opacity:1;"/>
<stop offset="1" stop-color="#002255" style="stop-color:#002255;stop-color:color(display-p3 0.0000 0.1333 0.3333);stop-opacity:1;"/>
</linearGradient>
<linearGradient id="paint6_linear_2194_6932" x1="275.601" y1="250.48" x2="427.521" y2="250.48" gradientUnits="userSpaceOnUse">
<stop stop-color="#002255" style="stop-color:#002255;stop-color:color(display-p3 0.0000 0.1333 0.3333);stop-opacity:1;"/>
<stop offset="0.5" stop-color="#0044AA" style="stop-color:#0044AA;stop-color:color(display-p3 0.0000 0.2667 0.6667);stop-opacity:1;"/>
<stop offset="1" stop-color="#002255" style="stop-color:#002255;stop-color:color(display-p3 0.0000 0.1333 0.3333);stop-opacity:1;"/>
</linearGradient>
<linearGradient id="paint7_linear_2194_6932" x1="275.601" y1="249.6" x2="427.521" y2="249.6" gradientUnits="userSpaceOnUse">
<stop stop-color="#002255" style="stop-color:#002255;stop-color:color(display-p3 0.0000 0.1333 0.3333);stop-opacity:1;"/>
<stop offset="0.5" stop-color="#0044AA" style="stop-color:#0044AA;stop-color:color(display-p3 0.0000 0.2667 0.6667);stop-opacity:1;"/>
<stop offset="1" stop-color="#002255" style="stop-color:#002255;stop-color:color(display-p3 0.0000 0.1333 0.3333);stop-opacity:1;"/>
</linearGradient>
<linearGradient id="paint8_linear_2194_6932" x1="275.601" y1="248.64" x2="427.521" y2="248.64" gradientUnits="userSpaceOnUse">
<stop stop-color="#002255" style="stop-color:#002255;stop-color:color(display-p3 0.0000 0.1333 0.3333);stop-opacity:1;"/>
<stop offset="0.5" stop-color="#0044AA" style="stop-color:#0044AA;stop-color:color(display-p3 0.0000 0.2667 0.6667);stop-opacity:1;"/>
<stop offset="1" stop-color="#002255" style="stop-color:#002255;stop-color:color(display-p3 0.0000 0.1333 0.3333);stop-opacity:1;"/>
</linearGradient>
<linearGradient id="paint9_linear_2194_6932" x1="275.601" y1="247.76" x2="427.521" y2="247.76" gradientUnits="userSpaceOnUse">
<stop stop-color="#002255" style="stop-color:#002255;stop-color:color(display-p3 0.0000 0.1333 0.3333);stop-opacity:1;"/>
<stop offset="0.5" stop-color="#0044AA" style="stop-color:#0044AA;stop-color:color(display-p3 0.0000 0.2667 0.6667);stop-opacity:1;"/>
<stop offset="1" stop-color="#002255" style="stop-color:#002255;stop-color:color(display-p3 0.0000 0.1333 0.3333);stop-opacity:1;"/>
</linearGradient>
<linearGradient id="paint10_linear_2194_6932" x1="275.601" y1="246.88" x2="427.521" y2="246.88" gradientUnits="userSpaceOnUse">
<stop stop-color="#002255" style="stop-color:#002255;stop-color:color(display-p3 0.0000 0.1333 0.3333);stop-opacity:1;"/>
<stop offset="0.5" stop-color="#0044AA" style="stop-color:#0044AA;stop-color:color(display-p3 0.0000 0.2667 0.6667);stop-opacity:1;"/>
<stop offset="1" stop-color="#002255" style="stop-color:#002255;stop-color:color(display-p3 0.0000 0.1333 0.3333);stop-opacity:1;"/>
</linearGradient>
<linearGradient id="paint11_linear_2194_6932" x1="275.6" y1="254" x2="427.521" y2="254" gradientUnits="userSpaceOnUse">
<stop stop-color="#002255" style="stop-color:#002255;stop-color:color(display-p3 0.0000 0.1333 0.3333);stop-opacity:1;"/>
<stop offset="0.5" stop-color="#0044AA" style="stop-color:#0044AA;stop-color:color(display-p3 0.0000 0.2667 0.6667);stop-opacity:1;"/>
<stop offset="1" stop-color="#002255" style="stop-color:#002255;stop-color:color(display-p3 0.0000 0.1333 0.3333);stop-opacity:1;"/>
</linearGradient>
<linearGradient id="paint12_linear_2194_6932" x1="275.6" y1="254" x2="427.52" y2="254" gradientUnits="userSpaceOnUse">
<stop stop-color="#002255" style="stop-color:#002255;stop-color:color(display-p3 0.0000 0.1333 0.3333);stop-opacity:1;"/>
<stop offset="0.5" stop-color="#0044AA" style="stop-color:#0044AA;stop-color:color(display-p3 0.0000 0.2667 0.6667);stop-opacity:1;"/>
<stop offset="1" stop-color="#002255" style="stop-color:#002255;stop-color:color(display-p3 0.0000 0.1333 0.3333);stop-opacity:1;"/>
</linearGradient>
<linearGradient id="paint13_linear_2194_6932" x1="307.84" y1="249.36" x2="307.84" y2="254.08" gradientUnits="userSpaceOnUse">
<stop stop-color="#F5F549" style="stop-color:#F5F549;stop-color:color(display-p3 0.9608 0.9608 0.2863);stop-opacity:1;"/>
<stop offset="1" stop-color="#97C924" style="stop-color:#97C924;stop-color:color(display-p3 0.5922 0.7882 0.1412);stop-opacity:1;"/>
</linearGradient>
<linearGradient id="paint14_linear_2194_6932" x1="295.6" y1="249.36" x2="295.6" y2="254.08" gradientUnits="userSpaceOnUse">
<stop stop-color="#F5F549" style="stop-color:#F5F549;stop-color:color(display-p3 0.9608 0.9608 0.2863);stop-opacity:1;"/>
<stop offset="1" stop-color="#97C924" style="stop-color:#97C924;stop-color:color(display-p3 0.5922 0.7882 0.1412);stop-opacity:1;"/>
</linearGradient>
<linearGradient id="paint15_linear_2194_6932" x1="307.84" y1="249.36" x2="307.84" y2="254.08" gradientUnits="userSpaceOnUse">
<stop stop-color="#F5F549" style="stop-color:#F5F549;stop-color:color(display-p3 0.9608 0.9608 0.2863);stop-opacity:1;"/>
<stop offset="1" stop-color="#97C924" style="stop-color:#97C924;stop-color:color(display-p3 0.5922 0.7882 0.1412);stop-opacity:1;"/>
</linearGradient>
<linearGradient id="paint16_linear_2194_6932" x1="307.84" y1="249.36" x2="307.84" y2="254.08" gradientUnits="userSpaceOnUse">
<stop stop-color="#F5F549" style="stop-color:#F5F549;stop-color:color(display-p3 0.9608 0.9608 0.2863);stop-opacity:1;"/>
<stop offset="1" stop-color="#97C924" style="stop-color:#97C924;stop-color:color(display-p3 0.5922 0.7882 0.1412);stop-opacity:1;"/>
</linearGradient>
<linearGradient id="paint17_linear_2194_6932" x1="295.52" y1="249.36" x2="295.52" y2="254.08" gradientUnits="userSpaceOnUse">
<stop stop-color="#F5F549" style="stop-color:#F5F549;stop-color:color(display-p3 0.9608 0.9608 0.2863);stop-opacity:1;"/>
<stop offset="1" stop-color="#97C924" style="stop-color:#97C924;stop-color:color(display-p3 0.5922 0.7882 0.1412);stop-opacity:1;"/>
</linearGradient>
<linearGradient id="paint18_linear_2194_6932" x1="272.65" y1="258.499" x2="365.715" y2="258.499" gradientUnits="userSpaceOnUse">
<stop stop-color="#002255" style="stop-color:#002255;stop-color:color(display-p3 0.0000 0.1333 0.3333);stop-opacity:1;"/>
<stop offset="0.5" stop-color="#0044AA" style="stop-color:#0044AA;stop-color:color(display-p3 0.0000 0.2667 0.6667);stop-opacity:1;"/>
<stop offset="1" stop-color="#002255" style="stop-color:#002255;stop-color:color(display-p3 0.0000 0.1333 0.3333);stop-opacity:1;"/>
</linearGradient>
<linearGradient id="paint19_linear_2194_6932" x1="269.634" y1="267.792" x2="370.363" y2="267.792" gradientUnits="userSpaceOnUse">
<stop stop-color="#002255" style="stop-color:#002255;stop-color:color(display-p3 0.0000 0.1333 0.3333);stop-opacity:1;"/>
<stop offset="0.5" stop-color="#0044AA" style="stop-color:#0044AA;stop-color:color(display-p3 0.0000 0.2667 0.6667);stop-opacity:1;"/>
<stop offset="1" stop-color="#002255" style="stop-color:#002255;stop-color:color(display-p3 0.0000 0.1333 0.3333);stop-opacity:1;"/>
</linearGradient>
<linearGradient id="paint20_linear_2194_6932" x1="269.634" y1="266.752" x2="370.363" y2="266.752" gradientUnits="userSpaceOnUse">
<stop stop-color="#002255" style="stop-color:#002255;stop-color:color(display-p3 0.0000 0.1333 0.3333);stop-opacity:1;"/>
<stop offset="0.5" stop-color="#0044AA" style="stop-color:#0044AA;stop-color:color(display-p3 0.0000 0.2667 0.6667);stop-opacity:1;"/>
<stop offset="1" stop-color="#002255" style="stop-color:#002255;stop-color:color(display-p3 0.0000 0.1333 0.3333);stop-opacity:1;"/>
</linearGradient>
<linearGradient id="paint21_linear_2194_6932" x1="269.634" y1="265.712" x2="370.363" y2="265.712" gradientUnits="userSpaceOnUse">
<stop stop-color="#002255" style="stop-color:#002255;stop-color:color(display-p3 0.0000 0.1333 0.3333);stop-opacity:1;"/>
<stop offset="0.5" stop-color="#0044AA" style="stop-color:#0044AA;stop-color:color(display-p3 0.0000 0.2667 0.6667);stop-opacity:1;"/>
<stop offset="1" stop-color="#002255" style="stop-color:#002255;stop-color:color(display-p3 0.0000 0.1333 0.3333);stop-opacity:1;"/>
</linearGradient>
<linearGradient id="paint22_linear_2194_6932" x1="269.634" y1="264.672" x2="370.363" y2="264.672" gradientUnits="userSpaceOnUse">
<stop stop-color="#002255" style="stop-color:#002255;stop-color:color(display-p3 0.0000 0.1333 0.3333);stop-opacity:1;"/>
<stop offset="0.5" stop-color="#0044AA" style="stop-color:#0044AA;stop-color:color(display-p3 0.0000 0.2667 0.6667);stop-opacity:1;"/>
<stop offset="1" stop-color="#002255" style="stop-color:#002255;stop-color:color(display-p3 0.0000 0.1333 0.3333);stop-opacity:1;"/>
</linearGradient>
<linearGradient id="paint23_linear_2194_6932" x1="269.634" y1="263.632" x2="370.363" y2="263.632" gradientUnits="userSpaceOnUse">
<stop stop-color="#002255" style="stop-color:#002255;stop-color:color(display-p3 0.0000 0.1333 0.3333);stop-opacity:1;"/>
<stop offset="0.5" stop-color="#0044AA" style="stop-color:#0044AA;stop-color:color(display-p3 0.0000 0.2667 0.6667);stop-opacity:1;"/>
<stop offset="1" stop-color="#002255" style="stop-color:#002255;stop-color:color(display-p3 0.0000 0.1333 0.3333);stop-opacity:1;"/>
</linearGradient>
<linearGradient id="paint24_linear_2194_6932" x1="269.634" y1="262.592" x2="370.363" y2="262.592" gradientUnits="userSpaceOnUse">
<stop stop-color="#002255" style="stop-color:#002255;stop-color:color(display-p3 0.0000 0.1333 0.3333);stop-opacity:1;"/>
<stop offset="0.5" stop-color="#0044AA" style="stop-color:#0044AA;stop-color:color(display-p3 0.0000 0.2667 0.6667);stop-opacity:1;"/>
<stop offset="1" stop-color="#002255" style="stop-color:#002255;stop-color:color(display-p3 0.0000 0.1333 0.3333);stop-opacity:1;"/>
</linearGradient>
<linearGradient id="paint25_linear_2194_6932" x1="269.634" y1="261.632" x2="370.363" y2="261.632" gradientUnits="userSpaceOnUse">
<stop stop-color="#002255" style="stop-color:#002255;stop-color:color(display-p3 0.0000 0.1333 0.3333);stop-opacity:1;"/>
<stop offset="0.5" stop-color="#0044AA" style="stop-color:#0044AA;stop-color:color(display-p3 0.0000 0.2667 0.6667);stop-opacity:1;"/>
<stop offset="1" stop-color="#002255" style="stop-color:#002255;stop-color:color(display-p3 0.0000 0.1333 0.3333);stop-opacity:1;"/>
</linearGradient>
<linearGradient id="paint26_linear_2194_6932" x1="269.634" y1="260.592" x2="370.363" y2="260.592" gradientUnits="userSpaceOnUse">
<stop stop-color="#002255" style="stop-color:#002255;stop-color:color(display-p3 0.0000 0.1333 0.3333);stop-opacity:1;"/>
<stop offset="0.5" stop-color="#0044AA" style="stop-color:#0044AA;stop-color:color(display-p3 0.0000 0.2667 0.6667);stop-opacity:1;"/>
<stop offset="1" stop-color="#002255" style="stop-color:#002255;stop-color:color(display-p3 0.0000 0.1333 0.3333);stop-opacity:1;"/>
</linearGradient>
<linearGradient id="paint27_linear_2194_6932" x1="269.634" y1="259.552" x2="370.363" y2="259.552" gradientUnits="userSpaceOnUse">
<stop stop-color="#002255" style="stop-color:#002255;stop-color:color(display-p3 0.0000 0.1333 0.3333);stop-opacity:1;"/>
<stop offset="0.5" stop-color="#0044AA" style="stop-color:#0044AA;stop-color:color(display-p3 0.0000 0.2667 0.6667);stop-opacity:1;"/>
<stop offset="1" stop-color="#002255" style="stop-color:#002255;stop-color:color(display-p3 0.0000 0.1333 0.3333);stop-opacity:1;"/>
</linearGradient>
<clipPath id="clip0_2194_6932">
<rect width="640" height="480" fill="white" style="fill:white;fill-opacity:1;"/>
</clipPath>
</defs>
</svg>
