<svg width="640" height="480" viewBox="0 0 640 480" fill="none" xmlns="http://www.w3.org/2000/svg">
<g id="nu" clip-path="url(#clip0_2194_7193)">
<path id="Vector" d="M0 0H640V480H0V0Z" fill="#FEDD00" style="fill:#FEDD00;fill:color(display-p3 0.9961 0.8667 0.0000);fill-opacity:1;"/>
<path id="Vector_2" d="M0 0H320V240H0V0Z" fill="#012169" style="fill:#012169;fill:color(display-p3 0.0039 0.1294 0.4118);fill-opacity:1;"/>
<path id="Vector_3" d="M37.5 0L159.5 90.5L281 0H320V31L200 120.5L320 209.5V240H280L160 150.5L40.5 240H0V210L119.5 121L0 32V0H37.5Z" fill="white" style="fill:white;fill-opacity:1;"/>
<path id="Vector_4" d="M212 140.5L320 220V240L184.5 140.5H212ZM120 150.5L123 168L27 240H0L120 150.5ZM320 0V1.5L195.5 95.5L196.5 73.5L295 0H320ZM0 0L119.5 88H89.5L0 21V0Z" fill="#C8102E" style="fill:#C8102E;fill:color(display-p3 0.7843 0.0627 0.1804);fill-opacity:1;"/>
<path id="Vector_5" d="M120.5 0V240H200.5V0H120.5ZM0 80V160H320V80H0Z" fill="white" style="fill:white;fill-opacity:1;"/>
<path id="Vector_6" d="M0 96.5V144.5H320V96.5H0ZM136.5 0V240H184.5V0H136.5Z" fill="#C8102E" style="fill:#C8102E;fill:color(display-p3 0.7843 0.0627 0.1804);fill-opacity:1;"/>
<path id="Vector_7" d="M160 160.8C182.533 160.8 200.8 142.533 200.8 120C200.8 97.4667 182.533 79.2 160 79.2C137.467 79.2 119.2 97.4667 119.2 120C119.2 142.533 137.467 160.8 160 160.8Z" fill="#012169" style="fill:#012169;fill:color(display-p3 0.0039 0.1294 0.4118);fill-opacity:1;"/>
<path id="Vector_8" d="M160 79.2L184 153L121.2 107.4H198.8L136 153M66.6999 98.3L80.6999 141.7L43.8999 115H89.5999L52.5999 141.8M253.3 98.3L267.4 141.7L230.5 114.9H276.2L239.2 141.7M160 178.3L174.1 221.7L137.1 194.9H182.8L145.8 221.7M160 18.3L174.1 61.7001L137.1 34.9001H182.8L145.8 61.7001" fill="#FEDD00" style="fill:#FEDD00;fill:color(display-p3 0.9961 0.8667 0.0000);fill-opacity:1;"/>
</g>
<defs>
<clipPath id="clip0_2194_7193">
<rect width="640" height="480" fill="white" style="fill:white;fill-opacity:1;"/>
</clipPath>
</defs>
</svg>
