<svg width="640" height="480" viewBox="0 0 640 480" fill="none" xmlns="http://www.w3.org/2000/svg">
<g id="nz" clip-path="url(#clip0_2194_7204)">
<path id="Vector" fill-rule="evenodd" clip-rule="evenodd" d="M0 0H640V480H0V0Z" fill="#00247D" style="fill:#00247D;fill:color(display-p3 0.0000 0.1412 0.4902);fill-opacity:1;"/>
<g id="Group">
<g id="nz-b">
<g id="nz-a">
<path id="Vector_2" d="M490.425 107.188V122.358L520.763 107.188H490.425Z" fill="white" style="fill:white;fill-opacity:1;"/>
<path id="Vector_3" d="M496.493 125.392L490.425 113.256L520.763 107.188L496.493 125.392Z" fill="white" style="fill:white;fill-opacity:1;"/>
</g>
<g id="nz-a_2">
<path id="Vector_4" d="M490.425 107.188V122.358L460.086 107.188H490.425Z" fill="white" style="fill:white;fill-opacity:1;"/>
<path id="Vector_5" d="M484.357 125.392L490.425 113.256L460.086 107.188L484.357 125.392Z" fill="white" style="fill:white;fill-opacity:1;"/>
</g>
<g id="nz-a_3">
<path id="Vector_6" d="M499.081 113.477L484.654 118.165L508.456 142.331L499.081 113.477Z" fill="white" style="fill:white;fill-opacity:1;"/>
<path id="Vector_7" d="M483.644 124.873L493.31 115.352L508.456 142.331L483.644 124.873Z" fill="white" style="fill:white;fill-opacity:1;"/>
</g>
<g id="nz-a_4">
<path id="Vector_8" d="M481.769 113.477L496.196 118.165L491.144 84.6237L481.769 113.477Z" fill="white" style="fill:white;fill-opacity:1;"/>
<path id="Vector_9" d="M500.956 113.332L487.54 115.352L491.144 84.6237L500.956 113.332Z" fill="white" style="fill:white;fill-opacity:1;"/>
</g>
<g id="nz-a_5">
<path id="Vector_10" d="M481.769 113.477L496.196 118.165L472.394 142.331L481.769 113.477Z" fill="white" style="fill:white;fill-opacity:1;"/>
<path id="Vector_11" d="M497.206 124.873L487.54 115.352L472.394 142.331L497.206 124.873Z" fill="white" style="fill:white;fill-opacity:1;"/>
</g>
</g>
<g id="nz-b_2">
<g id="nz-a_6">
<path id="Vector_12" d="M490.425 110.276V120.3L510.472 110.276H490.425Z" fill="#CC142B" style="fill:#CC142B;fill:color(display-p3 0.8000 0.0784 0.1686);fill-opacity:1;"/>
<path id="Vector_13" d="M494.434 122.304L490.425 114.285L510.472 110.276L494.434 122.304Z" fill="#CC142B" style="fill:#CC142B;fill:color(display-p3 0.8000 0.0784 0.1686);fill-opacity:1;"/>
</g>
<g id="nz-a_7">
<path id="Vector_14" d="M490.425 110.276V120.3L470.377 110.276H490.425Z" fill="#CC142B" style="fill:#CC142B;fill:color(display-p3 0.8000 0.0784 0.1686);fill-opacity:1;"/>
<path id="Vector_15" d="M486.415 122.304L490.425 114.285L470.377 110.276L486.415 122.304Z" fill="#CC142B" style="fill:#CC142B;fill:color(display-p3 0.8000 0.0784 0.1686);fill-opacity:1;"/>
</g>
<g id="nz-a_8">
<path id="Vector_16" d="M496.145 114.432L486.612 117.529L502.34 133.498L496.145 114.432Z" fill="#CC142B" style="fill:#CC142B;fill:color(display-p3 0.8000 0.0784 0.1686);fill-opacity:1;"/>
<path id="Vector_17" d="M485.944 121.962L492.332 115.671L502.34 133.498L485.944 121.962Z" fill="#CC142B" style="fill:#CC142B;fill:color(display-p3 0.8000 0.0784 0.1686);fill-opacity:1;"/>
</g>
<g id="nz-a_9">
<path id="Vector_18" d="M484.705 114.432L494.238 117.529L490.9 95.3652L484.705 114.432Z" fill="#CC142B" style="fill:#CC142B;fill:color(display-p3 0.8000 0.0784 0.1686);fill-opacity:1;"/>
<path id="Vector_19" d="M497.384 114.335L488.518 115.671L490.9 95.3652L497.384 114.335Z" fill="#CC142B" style="fill:#CC142B;fill:color(display-p3 0.8000 0.0784 0.1686);fill-opacity:1;"/>
</g>
<g id="nz-a_10">
<path id="Vector_20" d="M484.705 114.432L494.238 117.529L478.51 133.498L484.705 114.432Z" fill="#CC142B" style="fill:#CC142B;fill:color(display-p3 0.8000 0.0784 0.1686);fill-opacity:1;"/>
<path id="Vector_21" d="M494.906 121.962L488.518 115.671L478.51 133.498L494.906 121.962Z" fill="#CC142B" style="fill:#CC142B;fill:color(display-p3 0.8000 0.0784 0.1686);fill-opacity:1;"/>
</g>
</g>
</g>
<g id="Group_2">
<g id="nz-b_3">
<g id="nz-a_11">
<path id="Vector_22" d="M569.919 177.2L569.919 190.699L596.916 177.2L569.919 177.2Z" fill="white" style="fill:white;fill-opacity:1;"/>
<path id="Vector_23" d="M575.318 193.398L569.919 182.6L596.916 177.2L575.318 193.398Z" fill="white" style="fill:white;fill-opacity:1;"/>
</g>
<g id="nz-a_12">
<path id="Vector_24" d="M569.919 177.2L569.919 190.699L542.922 177.2L569.919 177.2Z" fill="white" style="fill:white;fill-opacity:1;"/>
<path id="Vector_25" d="M564.519 193.398L569.919 182.6L542.922 177.2L564.519 193.398Z" fill="white" style="fill:white;fill-opacity:1;"/>
</g>
<g id="nz-a_13">
<path id="Vector_26" d="M577.622 182.796L564.784 186.968L585.964 208.472L577.622 182.796Z" fill="white" style="fill:white;fill-opacity:1;"/>
<path id="Vector_27" d="M563.885 192.937L572.487 184.465L585.964 208.472L563.885 192.937Z" fill="white" style="fill:white;fill-opacity:1;"/>
</g>
<g id="nz-a_14">
<path id="Vector_28" d="M562.216 182.796L575.054 186.968L570.559 157.12L562.216 182.796Z" fill="white" style="fill:white;fill-opacity:1;"/>
<path id="Vector_29" d="M579.29 182.667L567.351 184.465L570.559 157.12L579.29 182.667Z" fill="white" style="fill:white;fill-opacity:1;"/>
</g>
<g id="nz-a_15">
<path id="Vector_30" d="M562.216 182.796L575.054 186.968L553.874 208.472L562.216 182.796Z" fill="white" style="fill:white;fill-opacity:1;"/>
<path id="Vector_31" d="M575.953 192.937L567.351 184.465L553.874 208.472L575.953 192.937Z" fill="white" style="fill:white;fill-opacity:1;"/>
</g>
</g>
<g id="nz-b_4">
<g id="nz-a_16">
<path id="Vector_32" d="M569.919 180.287L569.919 188.64L586.625 180.287L569.919 180.287Z" fill="#CC142B" style="fill:#CC142B;fill:color(display-p3 0.8000 0.0784 0.1686);fill-opacity:1;"/>
<path id="Vector_33" d="M573.26 190.311L569.919 183.629L586.625 180.287L573.26 190.311Z" fill="#CC142B" style="fill:#CC142B;fill:color(display-p3 0.8000 0.0784 0.1686);fill-opacity:1;"/>
</g>
<g id="nz-a_17">
<path id="Vector_34" d="M569.919 180.287L569.919 188.64L553.213 180.287L569.919 180.287Z" fill="#CC142B" style="fill:#CC142B;fill:color(display-p3 0.8000 0.0784 0.1686);fill-opacity:1;"/>
<path id="Vector_35" d="M566.578 190.311L569.919 183.629L553.213 180.287L566.578 190.311Z" fill="#CC142B" style="fill:#CC142B;fill:color(display-p3 0.8000 0.0784 0.1686);fill-opacity:1;"/>
</g>
<g id="nz-a_18">
<path id="Vector_36" d="M574.685 183.751L566.741 186.332L579.848 199.639L574.685 183.751Z" fill="#CC142B" style="fill:#CC142B;fill:color(display-p3 0.8000 0.0784 0.1686);fill-opacity:1;"/>
<path id="Vector_37" d="M566.185 190.026L571.508 184.783L579.848 199.639L566.185 190.026Z" fill="#CC142B" style="fill:#CC142B;fill:color(display-p3 0.8000 0.0784 0.1686);fill-opacity:1;"/>
</g>
<g id="nz-a_19">
<path id="Vector_38" d="M565.152 183.75L573.097 186.332L570.315 167.862L565.152 183.75Z" fill="#CC142B" style="fill:#CC142B;fill:color(display-p3 0.8000 0.0784 0.1686);fill-opacity:1;"/>
<path id="Vector_39" d="M575.718 183.67L568.33 184.783L570.315 167.862L575.718 183.67Z" fill="#CC142B" style="fill:#CC142B;fill:color(display-p3 0.8000 0.0784 0.1686);fill-opacity:1;"/>
</g>
<g id="nz-a_20">
<path id="Vector_40" d="M565.152 183.75L573.097 186.332L559.99 199.639L565.152 183.75Z" fill="#CC142B" style="fill:#CC142B;fill:color(display-p3 0.8000 0.0784 0.1686);fill-opacity:1;"/>
<path id="Vector_41" d="M573.653 190.026L568.33 184.783L559.99 199.639L573.653 190.026Z" fill="#CC142B" style="fill:#CC142B;fill:color(display-p3 0.8000 0.0784 0.1686);fill-opacity:1;"/>
</g>
</g>
</g>
<g id="Group_3">
<g id="nz-b_5">
<g id="nz-a_21">
<path id="Vector_42" d="M397.835 200.413L397.835 215.582L428.173 200.413L397.835 200.413Z" fill="white" style="fill:white;fill-opacity:1;"/>
<path id="Vector_43" d="M403.903 218.616L397.835 206.481L428.173 200.413L403.903 218.616Z" fill="white" style="fill:white;fill-opacity:1;"/>
</g>
<g id="nz-a_22">
<path id="Vector_44" d="M397.835 200.413L397.835 215.582L367.496 200.413L397.835 200.413Z" fill="white" style="fill:white;fill-opacity:1;"/>
<path id="Vector_45" d="M391.767 218.616L397.835 206.481L367.496 200.413L391.767 218.616Z" fill="white" style="fill:white;fill-opacity:1;"/>
</g>
<g id="nz-a_23">
<path id="Vector_46" d="M406.491 206.702L392.064 211.389L415.866 235.556L406.491 206.702Z" fill="white" style="fill:white;fill-opacity:1;"/>
<path id="Vector_47" d="M391.054 218.098L400.72 208.577L415.866 235.556L391.054 218.098Z" fill="white" style="fill:white;fill-opacity:1;"/>
</g>
<g id="nz-a_24">
<path id="Vector_48" d="M389.179 206.702L403.606 211.389L398.554 177.848L389.179 206.702Z" fill="white" style="fill:white;fill-opacity:1;"/>
<path id="Vector_49" d="M408.366 206.556L394.95 208.577L398.554 177.848L408.366 206.556Z" fill="white" style="fill:white;fill-opacity:1;"/>
</g>
<g id="nz-a_25">
<path id="Vector_50" d="M389.179 206.702L403.606 211.389L379.804 235.556L389.179 206.702Z" fill="white" style="fill:white;fill-opacity:1;"/>
<path id="Vector_51" d="M404.616 218.098L394.95 208.577L379.804 235.556L404.616 218.098Z" fill="white" style="fill:white;fill-opacity:1;"/>
</g>
</g>
<g id="nz-b_6">
<g id="nz-a_26">
<path id="Vector_52" d="M397.835 203.5L397.835 213.524L417.882 203.5L397.835 203.5Z" fill="#CC142B" style="fill:#CC142B;fill:color(display-p3 0.8000 0.0784 0.1686);fill-opacity:1;"/>
<path id="Vector_53" d="M401.844 215.529L397.835 207.51L417.882 203.5L401.844 215.529Z" fill="#CC142B" style="fill:#CC142B;fill:color(display-p3 0.8000 0.0784 0.1686);fill-opacity:1;"/>
</g>
<g id="nz-a_27">
<path id="Vector_54" d="M397.835 203.5L397.835 213.524L377.787 203.5L397.835 203.5Z" fill="#CC142B" style="fill:#CC142B;fill:color(display-p3 0.8000 0.0784 0.1686);fill-opacity:1;"/>
<path id="Vector_55" d="M393.825 215.529L397.835 207.51L377.787 203.5L393.825 215.529Z" fill="#CC142B" style="fill:#CC142B;fill:color(display-p3 0.8000 0.0784 0.1686);fill-opacity:1;"/>
</g>
<g id="nz-a_28">
<path id="Vector_56" d="M403.555 207.656L394.022 210.754L409.75 226.722L403.555 207.656Z" fill="#CC142B" style="fill:#CC142B;fill:color(display-p3 0.8000 0.0784 0.1686);fill-opacity:1;"/>
<path id="Vector_57" d="M393.354 215.186L399.742 208.895L409.75 226.722L393.354 215.186Z" fill="#CC142B" style="fill:#CC142B;fill:color(display-p3 0.8000 0.0784 0.1686);fill-opacity:1;"/>
</g>
<g id="nz-a_29">
<path id="Vector_58" d="M392.115 207.656L401.648 210.754L398.31 188.59L392.115 207.656Z" fill="#CC142B" style="fill:#CC142B;fill:color(display-p3 0.8000 0.0784 0.1686);fill-opacity:1;"/>
<path id="Vector_59" d="M404.794 207.56L395.928 208.895L398.31 188.59L404.794 207.56Z" fill="#CC142B" style="fill:#CC142B;fill:color(display-p3 0.8000 0.0784 0.1686);fill-opacity:1;"/>
</g>
<g id="nz-a_30">
<path id="Vector_60" d="M392.115 207.656L401.648 210.754L385.92 226.722L392.115 207.656Z" fill="#CC142B" style="fill:#CC142B;fill:color(display-p3 0.8000 0.0784 0.1686);fill-opacity:1;"/>
<path id="Vector_61" d="M402.316 215.186L395.928 208.895L385.92 226.722L402.316 215.186Z" fill="#CC142B" style="fill:#CC142B;fill:color(display-p3 0.8000 0.0784 0.1686);fill-opacity:1;"/>
</g>
</g>
</g>
<g id="Group_4">
<g id="nz-b_7">
<g id="nz-a_31">
<path id="Vector_62" d="M490.425 346.756V363.596L524.105 346.756H490.425Z" fill="white" style="fill:white;fill-opacity:1;"/>
<path id="Vector_63" d="M497.161 366.964L490.425 353.492L524.105 346.756L497.161 366.964Z" fill="white" style="fill:white;fill-opacity:1;"/>
</g>
<g id="nz-a_32">
<path id="Vector_64" d="M490.425 346.756V363.596L456.745 346.756H490.425Z" fill="white" style="fill:white;fill-opacity:1;"/>
<path id="Vector_65" d="M483.689 366.964L490.425 353.492L456.745 346.756L483.689 366.964Z" fill="white" style="fill:white;fill-opacity:1;"/>
</g>
<g id="nz-a_33">
<path id="Vector_66" d="M500.034 353.738L484.019 358.941L510.442 385.769L500.034 353.738Z" fill="white" style="fill:white;fill-opacity:1;"/>
<path id="Vector_67" d="M482.897 366.389L493.628 355.819L510.442 385.769L482.897 366.389Z" fill="white" style="fill:white;fill-opacity:1;"/>
</g>
<g id="nz-a_34">
<path id="Vector_68" d="M480.815 353.738L496.831 358.941L491.223 321.706L480.815 353.738Z" fill="white" style="fill:white;fill-opacity:1;"/>
<path id="Vector_69" d="M502.116 353.576L487.222 355.819L491.223 321.706L502.116 353.576Z" fill="white" style="fill:white;fill-opacity:1;"/>
</g>
<g id="nz-a_35">
<path id="Vector_70" d="M480.815 353.738L496.831 358.941L470.408 385.769L480.815 353.738Z" fill="white" style="fill:white;fill-opacity:1;"/>
<path id="Vector_71" d="M497.953 366.389L487.222 355.819L470.408 385.769L497.953 366.389Z" fill="white" style="fill:white;fill-opacity:1;"/>
</g>
</g>
<g id="nz-b_8">
<g id="nz-a_36">
<path id="Vector_72" d="M490.425 349.843V361.538L513.814 349.843H490.425Z" fill="#CC142B" style="fill:#CC142B;fill:color(display-p3 0.8000 0.0784 0.1686);fill-opacity:1;"/>
<path id="Vector_73" d="M495.103 363.877L490.425 354.521L513.814 349.843L495.103 363.877Z" fill="#CC142B" style="fill:#CC142B;fill:color(display-p3 0.8000 0.0784 0.1686);fill-opacity:1;"/>
</g>
<g id="nz-a_37">
<path id="Vector_74" d="M490.425 349.843V361.538L467.036 349.843H490.425Z" fill="#CC142B" style="fill:#CC142B;fill:color(display-p3 0.8000 0.0784 0.1686);fill-opacity:1;"/>
<path id="Vector_75" d="M485.747 363.877L490.425 354.521L467.036 349.843L485.747 363.877Z" fill="#CC142B" style="fill:#CC142B;fill:color(display-p3 0.8000 0.0784 0.1686);fill-opacity:1;"/>
</g>
<g id="nz-a_38">
<path id="Vector_76" d="M497.098 354.692L485.976 358.306L504.326 376.936L497.098 354.692Z" fill="#CC142B" style="fill:#CC142B;fill:color(display-p3 0.8000 0.0784 0.1686);fill-opacity:1;"/>
<path id="Vector_77" d="M485.197 363.477L492.649 356.137L504.326 376.936L485.197 363.477Z" fill="#CC142B" style="fill:#CC142B;fill:color(display-p3 0.8000 0.0784 0.1686);fill-opacity:1;"/>
</g>
<g id="nz-a_39">
<path id="Vector_78" d="M483.752 354.692L494.874 358.306L490.979 332.448L483.752 354.692Z" fill="#CC142B" style="fill:#CC142B;fill:color(display-p3 0.8000 0.0784 0.1686);fill-opacity:1;"/>
<path id="Vector_79" d="M498.544 354.579L488.201 356.137L490.979 332.448L498.544 354.579Z" fill="#CC142B" style="fill:#CC142B;fill:color(display-p3 0.8000 0.0784 0.1686);fill-opacity:1;"/>
</g>
<g id="nz-a_40">
<path id="Vector_80" d="M483.752 354.692L494.874 358.306L476.524 376.936L483.752 354.692Z" fill="#CC142B" style="fill:#CC142B;fill:color(display-p3 0.8000 0.0784 0.1686);fill-opacity:1;"/>
<path id="Vector_81" d="M495.653 363.477L488.201 356.137L476.524 376.936L495.653 363.477Z" fill="#CC142B" style="fill:#CC142B;fill:color(display-p3 0.8000 0.0784 0.1686);fill-opacity:1;"/>
</g>
</g>
</g>
<path id="Vector_82" d="M0 0H320V240H0V0Z" fill="#012169" style="fill:#012169;fill:color(display-p3 0.0039 0.1294 0.4118);fill-opacity:1;"/>
<path id="Vector_83" d="M37.5 0L159.5 90.5L281 0H320V31L200 120.5L320 209.5V240H280L160 150.5L40.5 240H0V210L119.5 121L0 32V0H37.5Z" fill="white" style="fill:white;fill-opacity:1;"/>
<path id="Vector_84" d="M212 140.5L320 220V240L184.5 140.5H212ZM120 150.5L123 168L27 240H0L120 150.5ZM320 0V1.5L195.5 95.5L196.5 73.5L295 0H320ZM0 0L119.5 88H89.5L0 21V0Z" fill="#C8102E" style="fill:#C8102E;fill:color(display-p3 0.7843 0.0627 0.1804);fill-opacity:1;"/>
<path id="Vector_85" d="M120.5 0V240H200.5V0H120.5ZM0 80V160H320V80H0Z" fill="white" style="fill:white;fill-opacity:1;"/>
<path id="Vector_86" d="M0 96.5V144.5H320V96.5H0ZM136.5 0V240H184.5V0H136.5Z" fill="#C8102E" style="fill:#C8102E;fill:color(display-p3 0.7843 0.0627 0.1804);fill-opacity:1;"/>
</g>
<defs>
<clipPath id="clip0_2194_7204">
<rect width="640" height="480" fill="white" style="fill:white;fill-opacity:1;"/>
</clipPath>
</defs>
</svg>
