<svg width="640" height="480" viewBox="0 0 640 480" fill="none" xmlns="http://www.w3.org/2000/svg">
<g id="om" clip-path="url(#clip0_2194_7343)">
<g id="Clip path group">
<mask id="mask0_2194_7343" style="mask-type:luminance" maskUnits="userSpaceOnUse" x="0" y="0" width="640" height="480">
<g id="om-a">
<path id="Vector" d="M0 0H640V480H0V0Z" fill="white" style="fill:white;fill-opacity:1;"/>
</g>
</mask>
<g mask="url(#mask0_2194_7343)">
<g id="Group">
<path id="Vector_2" fill-rule="evenodd" clip-rule="evenodd" d="M-3.30005 -21.6H699V531.4H-3.30005V-21.6Z" fill="#EF2D29" style="fill:#EF2D29;fill:color(display-p3 0.9373 0.1765 0.1608);fill-opacity:1;"/>
<path id="Vector_3" fill-rule="evenodd" clip-rule="evenodd" d="M174.6 317.3H710.3V525H174.6V317.3Z" fill="#009025" style="fill:#009025;fill:color(display-p3 0.0000 0.5647 0.1451);fill-opacity:1;"/>
<path id="Vector_4" fill-rule="evenodd" clip-rule="evenodd" d="M174.6 -35.4H739.5V154.6H174.5L174.6 -35.4Z" fill="white" style="fill:white;fill-opacity:1;"/>
<g id="Group_2">
<g id="Group_3">
<path id="Vector_5" d="M140 69.5886H117.056C115.817 69.5886 114.813 70.526 114.813 71.6824V82.5772C114.813 83.7336 115.817 84.671 117.056 84.671H140C141.239 84.671 142.243 83.7336 142.243 82.5772V71.6824C142.243 70.526 141.239 69.5886 140 69.5886Z" fill="white" stroke="#EF2D28" style="fill:white;fill-opacity:1;stroke:#EF2D28;stroke:color(display-p3 0.9373 0.1765 0.1569);stroke-opacity:1;" stroke-width="0.262732"/>
<path id="Vector_6" d="M139.425 70.2274H117.651C116.478 70.2274 115.528 71.0933 115.528 72.1615V82.1336C115.528 83.2018 116.478 84.0677 117.651 84.0677H139.425C140.597 84.0677 141.548 83.2018 141.548 82.1336V72.1615C141.548 71.0933 140.597 70.2274 139.425 70.2274Z" fill="white" stroke="#EF2D28" style="fill:white;fill-opacity:1;stroke:#EF2D28;stroke:color(display-p3 0.9373 0.1765 0.1569);stroke-opacity:1;" stroke-width="0.243965"/>
<path id="Vector_7" fill-rule="evenodd" clip-rule="evenodd" d="M127.629 73.9784L128.94 74.0303L128.994 74.6326L130.076 75.1829L130.914 74.4872L131.928 75.0375L130.981 75.6398L131.211 76.4705L132.401 76.4186V77.5089L131.455 77.4673L130.968 78.1527L132.049 78.9315L131.211 79.5753L130.306 78.8899L128.994 79.1599L129.062 80.1671L127.629 80.271L127.44 79.2949L126.25 78.7965L125.588 79.4818L124.574 78.973L125.169 78.1942L124.452 77.6958H123.438L123.384 76.2732L124.398 76.3667L125.115 75.536L124.276 74.8922L125.358 74.1653L126.128 74.7572L127.44 74.5703L127.629 73.9784Z" fill="white" stroke="#EF2D28" style="fill:white;fill-opacity:1;stroke:#EF2D28;stroke:color(display-p3 0.9373 0.1765 0.1569);stroke-opacity:1;" stroke-width="0.154021"/>
<path id="Vector_8" d="M128.002 78.2066C128.803 78.2066 129.452 77.6543 129.452 76.973C129.452 76.2917 128.803 75.7394 128.002 75.7394C127.201 75.7394 126.552 76.2917 126.552 76.973C126.552 77.6543 127.201 78.2066 128.002 78.2066Z" fill="white" stroke="#EF2D28" style="fill:white;fill-opacity:1;stroke:#EF2D28;stroke:color(display-p3 0.9373 0.1765 0.1569);stroke-opacity:1;" stroke-width="0.165862"/>
<g id="Vector_9">
<path fill-rule="evenodd" clip-rule="evenodd" d="M119.041 70.8484L116.917 72.7293ZM120.45 70.8484L118.326 72.7293ZM121.839 70.8484L119.735 72.7293ZM123.248 70.8484L121.145 72.7293ZM124.658 70.8484L122.554 72.7293ZM126.067 70.8484L123.963 72.7293ZM127.476 70.8484L125.372 72.7293ZM128.885 70.8484L126.781 72.7293ZM130.294 70.8484L128.171 72.7293ZM131.704 70.8484L129.56 72.7293ZM133.073 70.8484L130.969 72.7293ZM134.482 70.8484L132.379 72.7293ZM128.865 70.8484L126.781 72.7293ZM135.911 70.8484L133.808 72.7293ZM137.321 70.8484L135.217 72.7293ZM138.73 70.8484L136.626 72.7293ZM140.139 70.8484L138.035 72.7293ZM138.035 70.8484L140.139 72.7293ZM136.626 70.8484L138.73 72.7293ZM135.217 70.8484L137.321 72.7293ZM133.808 70.8484L135.911 72.7293ZM132.398 70.8484L134.502 72.7293ZM130.989 70.8484L133.093 72.7293ZM129.58 70.8484L131.704 72.7293ZM128.171 70.8484L130.275 72.7293ZM126.742 70.8484L128.865 72.7293ZM125.352 70.8484L127.456 72.7293ZM123.943 70.8484L126.047 72.7293ZM122.534 70.8484L124.638 72.7293ZM128.171 70.8484L130.275 72.7293ZM121.145 70.8484L123.229 72.7293ZM119.716 70.8484L121.839 72.7293ZM118.306 70.8484L120.43 72.7293ZM116.897 70.8484L119.041 72.7293ZM119.041 81.5303L116.937 83.4289ZM120.43 81.5303L118.306 83.4289ZM121.859 81.5303L119.735 83.4289ZM123.248 81.5303L121.145 83.4289ZM124.658 81.5303L122.554 83.4289ZM126.067 81.5303L123.963 83.4289ZM127.476 81.5303L125.392 83.4289ZM128.885 81.5303L126.781 83.4289ZM130.294 81.5303L128.171 83.4289ZM131.684 81.5303L129.56 83.4289ZM133.133 81.5303L131.009 83.4289ZM134.522 81.5303L132.418 83.4289ZM128.885 81.5303L126.781 83.4289ZM135.911 81.5303L133.808 83.4289ZM137.321 81.5303L135.217 83.4289ZM138.73 81.5303L136.626 83.4289ZM140.139 81.5303L138.035 83.4289ZM138.035 81.5303L140.139 83.4289ZM136.626 81.5303L138.73 83.4289ZM135.217 81.5303L137.321 83.4289ZM133.808 81.5303L135.911 83.4289ZM132.398 81.5303L134.502 83.4289ZM130.989 81.5303L133.113 83.4289ZM129.56 81.5303L131.684 83.4289ZM128.171 81.5303L130.275 83.4289ZM126.781 81.5303L128.885 83.4289ZM125.372 81.5303L127.476 83.4289ZM123.963 81.5303L126.067 83.4289ZM122.554 81.5303L124.658 83.4289ZM128.191 81.5303L130.294 83.4289ZM121.164 81.5303L123.248 83.4289ZM119.735 81.5303L121.859 83.4289ZM118.326 81.5303L120.45 83.4289ZM116.937 81.5303L119.041 83.4289Z" fill="white" style="fill:white;fill-opacity:1;"/>
<path d="M119.041 70.8484L116.917 72.7293M120.45 70.8484L118.326 72.7293M121.839 70.8484L119.735 72.7293M123.248 70.8484L121.145 72.7293M124.658 70.8484L122.554 72.7293M126.067 70.8484L123.963 72.7293M127.476 70.8484L125.372 72.7293M128.885 70.8484L126.781 72.7293L128.865 70.8484M130.294 70.8484L128.171 72.7293M131.704 70.8484L129.56 72.7293M133.073 70.8484L130.969 72.7293M134.482 70.8484L132.379 72.7293M135.911 70.8484L133.808 72.7293M137.321 70.8484L135.217 72.7293M138.73 70.8484L136.626 72.7293M140.139 70.8484L138.035 72.7293M138.035 70.8484L140.139 72.7293M136.626 70.8484L138.73 72.7293M135.217 70.8484L137.321 72.7293M133.808 70.8484L135.911 72.7293M132.398 70.8484L134.502 72.7293M130.989 70.8484L133.093 72.7293M129.58 70.8484L131.704 72.7293M128.171 70.8484L130.275 72.7293M126.742 70.8484L128.865 72.7293M125.352 70.8484L127.456 72.7293M123.943 70.8484L126.047 72.7293M122.534 70.8484L124.638 72.7293M121.145 70.8484L123.229 72.7293M119.716 70.8484L121.839 72.7293M118.306 70.8484L120.43 72.7293M116.897 70.8484L119.041 72.7293M119.041 81.5303L116.937 83.4289M120.43 81.5303L118.306 83.4289M121.859 81.5303L119.735 83.4289M123.248 81.5303L121.145 83.4289M124.658 81.5303L122.554 83.4289M126.067 81.5303L123.963 83.4289M127.476 81.5303L125.392 83.4289M128.885 81.5303L126.781 83.4289M130.294 81.5303L128.171 83.4289M131.684 81.5303L129.56 83.4289M133.133 81.5303L131.009 83.4289M134.522 81.5303L132.418 83.4289M135.911 81.5303L133.808 83.4289M137.321 81.5303L135.217 83.4289M138.73 81.5303L136.626 83.4289M140.139 81.5303L138.035 83.4289M138.035 81.5303L140.139 83.4289M136.626 81.5303L138.73 83.4289M135.217 81.5303L137.321 83.4289M133.808 81.5303L135.911 83.4289M132.398 81.5303L134.502 83.4289M130.989 81.5303L133.113 83.4289M129.56 81.5303L131.684 83.4289M128.171 81.5303L130.275 83.4289M126.781 81.5303L128.885 83.4289M125.372 81.5303L127.476 83.4289M123.963 81.5303L126.067 83.4289M122.554 81.5303L124.658 83.4289M128.191 81.5303L130.294 83.4289M121.164 81.5303L123.248 83.4289M119.735 81.5303L121.859 83.4289M118.326 81.5303L120.45 83.4289M116.937 81.5303L119.041 83.4289" stroke="#EF2D28" style="stroke:#EF2D28;stroke:color(display-p3 0.9373 0.1765 0.1569);stroke-opacity:1;" stroke-width="0.243965"/>
</g>
</g>
<g id="Group_4">
<path id="Vector_10" d="M47.8001 68.9886H24.8559C23.6172 68.9886 22.613 69.9261 22.613 71.0824V81.9773C22.613 83.1336 23.6172 84.071 24.8559 84.071H47.8001C49.0388 84.071 50.043 83.1336 50.043 81.9773V71.0824C50.043 69.9261 49.0388 68.9886 47.8001 68.9886Z" fill="white" stroke="#EF2D28" style="fill:white;fill-opacity:1;stroke:#EF2D28;stroke:color(display-p3 0.9373 0.1765 0.1569);stroke-opacity:1;" stroke-width="0.262732"/>
<path id="Vector_11" d="M47.2245 69.6274H25.4513C24.2783 69.6274 23.3275 70.4934 23.3275 71.5615V81.5337C23.3275 82.6018 24.2783 83.4678 25.4513 83.4678H47.2245C48.3974 83.4678 49.3482 82.6018 49.3482 81.5337V71.5615C49.3482 70.4934 48.3974 69.6274 47.2245 69.6274Z" fill="white" stroke="#EF2D28" style="fill:white;fill-opacity:1;stroke:#EF2D28;stroke:color(display-p3 0.9373 0.1765 0.1569);stroke-opacity:1;" stroke-width="0.243965"/>
<path id="Vector_12" fill-rule="evenodd" clip-rule="evenodd" d="M35.4289 73.3784L36.7401 73.4303L36.7942 74.0326L37.8757 74.5829L38.7138 73.8872L39.7276 74.4376L38.7814 75.0398L39.0112 75.8705L40.2008 75.8186V76.9089L39.2545 76.8674L38.7678 77.5527L39.8493 78.3315L39.0112 78.9753L38.1055 78.2899L36.7942 78.5599L36.8618 79.5672L35.4289 79.671L35.2396 78.6949L34.05 78.1965L33.3877 78.8818L32.3738 78.373L32.9686 77.5942L32.2521 77.0958H31.2383L31.1842 75.6732L32.1981 75.7667L32.9145 74.936L32.0764 74.2922L33.1578 73.5653L33.9284 74.1572L35.2396 73.9703L35.4289 73.3784Z" fill="white" stroke="#EF2D28" style="fill:white;fill-opacity:1;stroke:#EF2D28;stroke:color(display-p3 0.9373 0.1765 0.1569);stroke-opacity:1;" stroke-width="0.154021"/>
<path id="Vector_13" d="M35.8019 77.6066C36.6027 77.6066 37.252 77.0543 37.252 76.373C37.252 75.6917 36.6027 75.1394 35.8019 75.1394C35.001 75.1394 34.3518 75.6917 34.3518 76.373C34.3518 77.0543 35.001 77.6066 35.8019 77.6066Z" fill="white" stroke="#EF2D28" style="fill:white;fill-opacity:1;stroke:#EF2D28;stroke:color(display-p3 0.9373 0.1765 0.1569);stroke-opacity:1;" stroke-width="0.165862"/>
<g id="Vector_14">
<path fill-rule="evenodd" clip-rule="evenodd" d="M26.8406 70.2484L24.7169 72.1293ZM28.2498 70.2484L26.1261 72.1293ZM29.6392 70.2484L27.5353 72.1293ZM31.0484 70.2484L28.9445 72.1293ZM32.4576 70.2484L30.3537 72.1293ZM33.8668 70.2484L31.7629 72.1293ZM35.276 70.2484L33.1721 72.1293ZM36.6852 70.2484L34.5813 72.1293ZM38.0944 70.2484L35.9707 72.1293ZM39.5036 70.2484L37.36 72.1293ZM40.8731 70.2484L38.7693 72.1293ZM42.2824 70.2484L40.1785 72.1293ZM36.6654 70.2484L34.5813 72.1293ZM43.7114 70.2484L41.6075 72.1293ZM45.1206 70.2484L43.0167 72.1293ZM46.5298 70.2484L44.4259 72.1293ZM47.939 70.2484L45.8351 72.1293ZM45.8351 70.2484L47.939 72.1293ZM44.4259 70.2484L46.5298 72.1293ZM43.0167 70.2484L45.1206 72.1293ZM41.6075 70.2484L43.7114 72.1293ZM40.1983 70.2484L42.3022 72.1293ZM38.7891 70.2484L40.893 72.1293ZM37.3799 70.2484L39.5036 72.1293ZM35.9707 70.2484L38.0746 72.1293ZM34.5416 70.2484L36.6654 72.1293ZM33.1523 70.2484L35.2562 72.1293ZM31.7431 70.2484L33.847 72.1293ZM30.3339 70.2484L32.4377 72.1293ZM35.9707 70.2484L38.0746 72.1293ZM28.9445 70.2484L31.0285 72.1293ZM27.5154 70.2484L29.6392 72.1293ZM26.1062 70.2484L28.23 72.1293ZM24.697 70.2484L26.8406 72.1293ZM26.8406 80.9303L24.7367 82.8289ZM28.23 80.9303L26.1062 82.8289ZM29.659 80.9303L27.5353 82.8289ZM31.0484 80.9303L28.9445 82.8289ZM32.4576 80.9303L30.3537 82.8289ZM33.8668 80.9303L31.7629 82.8289ZM35.276 80.9303L33.192 82.8289ZM36.6852 80.9303L34.5813 82.8289ZM38.0944 80.9303L35.9707 82.8289ZM39.4838 80.9303L37.36 82.8289ZM40.9327 80.9303L38.809 82.8289ZM42.322 80.9303L40.2182 82.8289ZM36.6852 80.9303L34.5813 82.8289ZM43.7114 80.9303L41.6075 82.8289ZM45.1206 80.9303L43.0167 82.8289ZM46.5298 80.9303L44.4259 82.8289ZM47.939 80.9303L45.8351 82.8289ZM45.8351 80.9303L47.939 82.8289ZM44.4259 80.9303L46.5298 82.8289ZM43.0167 80.9303L45.1206 82.8289ZM41.6075 80.9303L43.7114 82.8289ZM40.1983 80.9303L42.3022 82.8289ZM38.7891 80.9303L40.9128 82.8289ZM37.36 80.9303L39.4838 82.8289ZM35.9707 80.9303L38.0746 82.8289ZM34.5813 80.9303L36.6852 82.8289ZM33.1721 80.9303L35.276 82.8289ZM31.7629 80.9303L33.8668 82.8289ZM30.3537 80.9303L32.4576 82.8289ZM35.9905 80.9303L38.0944 82.8289ZM28.9643 80.9303L31.0484 82.8289ZM27.5353 80.9303L29.659 82.8289ZM26.1261 80.9303L28.2498 82.8289ZM24.7367 80.9303L26.8406 82.8289Z" fill="white" style="fill:white;fill-opacity:1;"/>
<path d="M26.8406 70.2484L24.7169 72.1293M28.2498 70.2484L26.1261 72.1293M29.6392 70.2484L27.5353 72.1293M31.0484 70.2484L28.9445 72.1293M32.4576 70.2484L30.3537 72.1293M33.8668 70.2484L31.7629 72.1293M35.276 70.2484L33.1721 72.1293M36.6852 70.2484L34.5813 72.1293L36.6654 70.2484M38.0944 70.2484L35.9707 72.1293M39.5036 70.2484L37.36 72.1293M40.8731 70.2484L38.7693 72.1293M42.2824 70.2484L40.1785 72.1293M43.7114 70.2484L41.6075 72.1293M45.1206 70.2484L43.0167 72.1293M46.5298 70.2484L44.4259 72.1293M47.939 70.2484L45.8351 72.1293M45.8351 70.2484L47.939 72.1293M44.4259 70.2484L46.5298 72.1293M43.0167 70.2484L45.1206 72.1293M41.6075 70.2484L43.7114 72.1293M40.1983 70.2484L42.3022 72.1293M38.7891 70.2484L40.893 72.1293M37.3799 70.2484L39.5036 72.1293M35.9707 70.2484L38.0746 72.1293M34.5416 70.2484L36.6654 72.1293M33.1523 70.2484L35.2562 72.1293M31.7431 70.2484L33.847 72.1293M30.3339 70.2484L32.4377 72.1293M28.9445 70.2484L31.0285 72.1293M27.5154 70.2484L29.6392 72.1293M26.1062 70.2484L28.23 72.1293M24.697 70.2484L26.8406 72.1293M26.8406 80.9303L24.7367 82.8289M28.23 80.9303L26.1062 82.8289M29.659 80.9303L27.5353 82.8289M31.0484 80.9303L28.9445 82.8289M32.4576 80.9303L30.3537 82.8289M33.8668 80.9303L31.7629 82.8289M35.276 80.9303L33.192 82.8289M36.6852 80.9303L34.5813 82.8289M38.0944 80.9303L35.9707 82.8289M39.4838 80.9303L37.36 82.8289M40.9327 80.9303L38.809 82.8289M42.322 80.9303L40.2182 82.8289M43.7114 80.9303L41.6075 82.8289M45.1206 80.9303L43.0167 82.8289M46.5298 80.9303L44.4259 82.8289M47.939 80.9303L45.8351 82.8289M45.8351 80.9303L47.939 82.8289M44.4259 80.9303L46.5298 82.8289M43.0167 80.9303L45.1206 82.8289M41.6075 80.9303L43.7114 82.8289M40.1983 80.9303L42.3022 82.8289M38.7891 80.9303L40.9128 82.8289M37.36 80.9303L39.4838 82.8289M35.9707 80.9303L38.0746 82.8289M34.5813 80.9303L36.6852 82.8289M33.1721 80.9303L35.276 82.8289M31.7629 80.9303L33.8668 82.8289M30.3537 80.9303L32.4576 82.8289M35.9905 80.9303L38.0944 82.8289M28.9643 80.9303L31.0484 82.8289M27.5353 80.9303L29.659 82.8289M26.1261 80.9303L28.2498 82.8289M24.7367 80.9303L26.8406 82.8289" stroke="#EF2D28" style="stroke:#EF2D28;stroke:color(display-p3 0.9373 0.1765 0.1569);stroke-opacity:1;" stroke-width="0.243965"/>
</g>
</g>
<path id="Vector_15" fill-rule="evenodd" clip-rule="evenodd" d="M65.6757 100.559C31.5461 134.031 16.9868 138.259 23.8317 140.961C30.6767 143.663 52.6486 126.384 75.5078 103.453C98.367 80.5225 112.369 60.0978 105.524 57.3961C98.6792 54.6944 101.986 64.9882 65.6757 100.559Z" fill="white" stroke="#EF2D28" style="fill:white;fill-opacity:1;stroke:#EF2D28;stroke:color(display-p3 0.9373 0.1765 0.1569);stroke-opacity:1;" stroke-width="0.4083"/>
<path id="Vector_16" fill-rule="evenodd" clip-rule="evenodd" d="M36.9894 124.914L48.9578 128.055C37.7039 138.755 25.0409 143.138 21.5278 141.257C18.0147 139.376 27.8593 134.975 37.0093 124.932L36.9894 124.914Z" fill="white" stroke="#EF2D28" style="fill:white;fill-opacity:1;stroke:#EF2D28;stroke:color(display-p3 0.9373 0.1765 0.1569);stroke-opacity:1;" stroke-width="0.225198"/>
<path id="Vector_17" fill-rule="evenodd" clip-rule="evenodd" d="M36.985 126.161L46.8453 128.669C35.883 138.957 25.0366 141.875 22.2332 140.612C19.4104 139.367 28.0914 135.835 36.985 126.161Z" fill="white" stroke="#EF2D28" style="fill:white;fill-opacity:1;stroke:#EF2D28;stroke:color(display-p3 0.9373 0.1765 0.1569);stroke-opacity:1;" stroke-width="0.236113"/>
<path id="Vector_18" d="M73.6437 99.1295C73.6157 99.2909 73.5319 100.011 73.462 100.296C73.462 100.694 73.42 100.992 73.3781 101.302C73.2663 101.575 73.2802 101.823 72.9448 101.923C72.7889 102.17 72.5423 102.363 72.2459 102.469C71.977 102.66 71.6809 102.818 71.3653 102.941C71.0338 103.065 70.6663 103.091 70.3169 103.015C70.028 102.816 69.7671 102.634 69.5341 102.469C69.4782 102.221 69.4223 101.861 69.3524 101.612C69.461 101.943 69.5221 102.286 69.5341 102.63C69.5062 103.003 69.3524 103.176 69.1847 103.474" stroke="#EF2D28" style="stroke:#EF2D28;stroke:color(display-p3 0.9373 0.1765 0.1569);stroke-opacity:1;" stroke-width="0.237111"/>
<path id="Vector_19" d="M70.4697 104.326L70.3858 104.252C70.5955 104.438 70.5116 104.351 70.0363 104.09C69.7102 103.958 69.3328 103.859 68.9041 103.792H67.6741C67.1988 103.792 66.8773 103.854 66.5418 103.941C66.2902 104.165 65.9268 104.289 65.6612 104.488C65.4252 104.646 65.2456 104.861 65.144 105.108C64.9064 105.319 64.7527 105.642 64.529 105.803C64.4312 106.163 64.2355 106.151 64.0957 106.424C64.515 106.449 64.8365 106.499 65.0602 106.734C65.4236 106.896 64.7527 106.573 64.6129 106.424C64.3333 106.35 64.2634 106.275 63.8301 106.275C63.4387 106.151 63.1871 106.362 62.7818 106.424C62.5441 106.548 62.4743 106.586 62.1667 106.586" stroke="#EF2D28" style="stroke:#EF2D28;stroke:color(display-p3 0.9373 0.1765 0.1569);stroke-opacity:1;" stroke-width="0.237111"/>
<path id="Vector_20" d="M65.7623 108.189C65.5806 108.189 64.7699 108.326 64.4484 108.189C64.085 108.102 63.8893 107.941 63.6656 107.643C63.5538 107.432 63.6656 108.015 63.6656 108.264C63.6237 108.723 63.4699 108.723 63.2183 109.033C62.9667 109.182 62.7011 109.381 62.4356 109.505C62.2026 109.674 61.9375 109.804 61.6528 109.89C61.3546 109.997 61.0937 110.126 60.87 110.275C60.5765 110.461 60.5905 110.684 60.4227 110.982C60.4647 111.355 60.5346 111.578 60.7722 111.752C60.884 112.013 61.1077 112.273 61.3033 112.447C61.513 112.819 61.7646 112.981 61.2195 113.068C60.912 113.192 60.7442 113.093 60.4227 113.068" stroke="#EF2D28" style="stroke:#EF2D28;stroke:color(display-p3 0.9373 0.1765 0.1569);stroke-opacity:1;" stroke-width="0.237111"/>
<path id="Vector_21" d="M60.2217 113.599C59.998 113.549 59.2432 113.326 58.9077 113.214H57.6777C57.2164 113.251 57.1186 113.375 56.7272 113.524C56.4616 113.76 56.2939 113.922 55.9304 114.071C55.7487 114.282 55.3713 114.654 55.2315 114.927C55.1176 115.248 55.061 115.583 55.0638 115.92C55.0638 116.38 55.2036 116.466 55.2315 116.864C55.3281 117.205 55.5096 117.524 55.7627 117.795C55.7907 117.878 55.8466 117.927 55.9304 117.944" stroke="#EF2D28" style="stroke:#EF2D28;stroke:color(display-p3 0.9373 0.1765 0.1569);stroke-opacity:1;" stroke-width="0.237111"/>
<path id="Vector_22" d="M56.0989 118.956C56.0592 118.956 55.9798 119.152 55.8508 119.318C55.563 119.612 55.5332 119.632 55.1065 119.632C54.7095 119.612 54.7591 119.475 54.4813 119.387C54.3522 119.191 54.1935 119.034 54.0446 118.77C53.9454 118.613 53.8561 118.368 53.7469 118.221C53.6278 118.035 53.4889 117.897 53.3698 117.731C53.2507 117.682 53.211 117.633 53.0522 117.604C53.4095 117.662 53.4492 117.79 53.6774 117.976L53.9851 118.525C54.0248 118.789 54.1042 118.995 54.1141 119.318C54.1141 119.661 54.1141 119.896 53.9851 120.181C53.8362 120.328 53.737 120.484 53.5484 120.612C53.3917 120.762 53.2489 120.926 53.1217 121.102L52.556 121.464C52.3774 121.572 52.169 121.68 51.8812 121.709C51.514 121.68 51.4048 121.582 51.1369 121.464C50.8987 121.298 50.7201 121.19 50.5117 121.033C50.3406 120.894 50.1932 120.728 50.075 120.543C49.7475 120.465 49.5292 120.494 49.3307 120.671C49.1631 120.787 49.0185 120.934 48.904 121.102C48.8047 121.151 48.6261 121.298 48.5269 121.347" stroke="#EF2D28" style="stroke:#EF2D28;stroke:color(display-p3 0.9373 0.1765 0.1569);stroke-opacity:1;" stroke-width="0.22681"/>
<path id="Vector_23" d="M49.2411 121.547C49.3398 121.583 49.71 121.84 49.858 121.926C49.9567 122.256 50.1171 122.427 50.1665 122.782C50.2405 123.108 50.2693 123.463 50.2528 123.846C50.1665 124.237 50.0061 124.518 49.858 124.824C49.6113 124.995 49.4879 125.118 49.1671 125.289C48.871 125.346 48.5379 125.374 48.1677 125.374C47.921 125.448 47.4768 125.484 47.2424 125.374C46.8969 125.325 46.6378 125.191 46.391 125.069C46.1073 124.91 45.9345 124.751 45.6261 124.604C45.4534 124.392 45.2477 124.164 45.0092 123.919C44.8118 123.662 44.6761 123.516 44.5403 123.234C44.6802 123.544 44.8077 123.85 44.9228 124.151C45.1079 124.469 45.2066 124.592 45.2313 124.983C45.3547 125.301 45.3176 125.692 45.3176 126.059C45.2806 126.304 45.2683 126.768 45.1572 126.976V127.209" stroke="#EF2D28" style="stroke:#EF2D28;stroke:color(display-p3 0.9373 0.1765 0.1569);stroke-opacity:1;" stroke-width="0.233384"/>
<path id="Vector_24" d="M37.8627 128.41V128.534C37.8363 128.227 37.8826 128.375 38.0017 128.978C38.22 129.226 38.7956 129.297 39.2322 129.191C39.6292 128.889 39.6292 128.658 40.3437 128.534C41.0583 128.57 41.3361 128.747 41.7331 128.978C42.1509 129.124 42.5007 129.393 42.7255 129.741C42.8644 130.113 42.9438 130.38 42.4675 130.522C42.0533 130.771 41.5755 130.924 41.0781 130.965C40.5224 130.965 40.1055 130.912 39.8475 131.196C39.4506 131.551 39.4903 131.764 39.4903 132.402C39.3513 132.598 39.3315 133.183 39.2322 133.414C38.8893 133.571 38.5058 133.645 38.1207 133.627C37.9818 133.272 37.8429 132.669 37.7436 132.296C37.6444 131.906 37.6245 131.338 37.3665 131.072C37.1375 130.767 36.8483 130.503 36.5131 130.291C36.3123 130.087 36.0506 129.94 35.7588 129.865C36.255 130.078 36.3146 130.326 36.3741 130.859C35.9573 131.036 35.8382 131.178 35.1435 131.196C34.4489 131.143 34.2901 130.983 34.0321 130.628C33.9725 131.196 33.774 131.373 33.6351 131.87C33.3969 132.189 33.2977 132.527 33.0397 132.97C33.1389 133.503 33.3771 133.52 33.3969 134.177C33.5557 134.62 33.5557 135.028 33.8931 135.295C34.0519 135.472 34.171 135.49 34.5283 135.508C33.8137 135.508 33.3771 135.437 32.9007 135.188C32.5699 134.963 32.2391 134.739 31.9083 134.514C31.4604 134.213 30.9564 133.984 30.4197 133.84C29.8441 133.84 29.4273 133.786 29.1891 134.07C28.8451 134.307 28.5937 134.68 28.4349 135.188C28.3357 135.756 28.2761 136.146 28.5739 136.519C28.7723 136.945 28.8319 137.105 28.5739 137.619C28.2761 137.974 27.8593 138.027 27.1845 138.169C26.7081 138.146 26.298 138.075 25.9539 137.956" stroke="#EF2D28" style="stroke:#EF2D28;stroke:color(display-p3 0.9373 0.1765 0.1569);stroke-opacity:1;" stroke-width="0.225198"/>
<g id="Group_5">
<path id="Vector_25" fill-rule="evenodd" clip-rule="evenodd" d="M104.656 70.378C119.792 44.1795 129.83 21.8548 127.093 20.5911C124.328 19.3143 109.803 39.5675 94.6677 65.7661L104.656 70.378Z" fill="white" stroke="#EF2D28" style="fill:white;fill-opacity:1;stroke:#EF2D28;stroke:color(display-p3 0.9373 0.1765 0.1569);stroke-opacity:1;" stroke-width="0.310154"/>
<g id="Vector_26">
<path fill-rule="evenodd" clip-rule="evenodd" d="M103.657 69.9351C118.258 44.6611 128.314 23.2959 126.124 22.285C123.912 21.2635 110.267 40.9715 95.6656 66.2455" fill="white" style="fill:white;fill-opacity:1;"/>
<path d="M103.657 69.9351C118.258 44.6611 128.314 23.2959 126.124 22.285C123.912 21.2635 110.267 40.9715 95.6656 66.2455" stroke="#EF2D28" style="stroke:#EF2D28;stroke:color(display-p3 0.9373 0.1765 0.1569);stroke-opacity:1;" stroke-width="0.272474"/>
</g>
<path id="Vector_27" fill-rule="evenodd" clip-rule="evenodd" d="M101.149 56.7505C99.3708 59.704 97.4872 63.0881 95.6656 66.2412L103.679 69.9412C105.5 66.7881 107.497 63.4562 109.162 60.4505L101.149 56.7505Z" fill="white" stroke="#EF2D28" style="fill:white;fill-opacity:1;stroke:#EF2D28;stroke:color(display-p3 0.9373 0.1765 0.1569);stroke-opacity:1;" stroke-width="0.30924"/>
<path id="Vector_28" fill-rule="evenodd" clip-rule="evenodd" d="M101.846 57.7712C100.059 60.7406 98.8309 62.9896 97.0002 66.1584L102.982 68.9204C104.804 65.7673 106.162 63.5389 107.827 60.5332L101.846 57.7712Z" fill="white" stroke="#EF2D28" style="fill:white;fill-opacity:1;stroke:#EF2D28;stroke:color(display-p3 0.9373 0.1765 0.1569);stroke-opacity:1;" stroke-width="0.30924"/>
<g id="Vector_29">
<path fill-rule="evenodd" clip-rule="evenodd" d="M106.193 61.1966L102.187 59.3466L98.6344 65.4951L102.641 67.3451L106.193 61.1966ZM106.193 61.1966L98.6344 65.4951ZM102.641 67.3451L102.187 59.3466ZM124.264 29.9181L120.257 28.0681Z" fill="white" style="fill:white;fill-opacity:1;"/>
<path d="M106.193 61.1966L102.187 59.3466M106.193 61.1966L102.641 67.3451M106.193 61.1966L98.6344 65.4951M102.187 59.3466L98.6344 65.4951M102.187 59.3466L102.641 67.3451M98.6344 65.4951L102.641 67.3451M124.264 29.9181L120.257 28.0681" stroke="#EF2D28" style="stroke:#EF2D28;stroke:color(display-p3 0.9373 0.1765 0.1569);stroke-opacity:1;" stroke-width="0.30924"/>
</g>
<path id="Vector_30" d="M124.24 27.0093C123.624 27.1649 123.012 26.8521 122.873 26.3106C122.734 25.7692 123.121 25.204 123.736 25.0484C124.352 24.8928 124.964 25.2056 125.103 25.747C125.242 26.2885 124.855 26.8536 124.24 27.0093Z" fill="#EF0000" stroke="#EF2D28" style="fill:#EF0000;fill:color(display-p3 0.9373 0.0000 0.0000);fill-opacity:1;stroke:#EF2D28;stroke:color(display-p3 0.9373 0.1765 0.1569);stroke-opacity:1;" stroke-width="0.400692"/>
</g>
<path id="Vector_31" fill-rule="evenodd" clip-rule="evenodd" d="M98.7242 99.9586C132.854 133.431 147.413 137.659 140.568 140.361C133.723 143.063 111.751 125.784 88.8921 102.853C66.0329 79.9225 52.0307 59.4978 58.8757 56.7961C65.7207 54.0944 62.4138 64.3882 98.7242 99.9586Z" fill="white" stroke="#EF2D28" style="fill:white;fill-opacity:1;stroke:#EF2D28;stroke:color(display-p3 0.9373 0.1765 0.1569);stroke-opacity:1;" stroke-width="0.4083"/>
<path id="Vector_32" fill-rule="evenodd" clip-rule="evenodd" d="M127.41 124.314L115.442 127.455C126.696 138.155 139.359 142.538 142.872 140.657C146.385 138.776 136.541 134.375 127.391 124.332L127.41 124.314Z" fill="white" stroke="#EF2D28" style="fill:white;fill-opacity:1;stroke:#EF2D28;stroke:color(display-p3 0.9373 0.1765 0.1569);stroke-opacity:1;" stroke-width="0.225198"/>
<path id="Vector_33" fill-rule="evenodd" clip-rule="evenodd" d="M127.415 125.461L117.555 127.969C128.517 138.257 139.363 141.175 142.167 139.912C144.99 138.667 136.309 135.135 127.415 125.461Z" fill="white" stroke="#EF2D28" style="fill:white;fill-opacity:1;stroke:#EF2D28;stroke:color(display-p3 0.9373 0.1765 0.1569);stroke-opacity:1;" stroke-width="0.236113"/>
<path id="Vector_34" d="M90.7563 98.4296C90.7843 98.5909 90.8682 99.311 90.9381 99.5965C90.9381 99.9937 90.98 100.292 91.0219 100.602C91.1338 100.875 91.1198 101.123 91.4552 101.223C91.6111 101.47 91.8577 101.663 92.1541 101.769C92.423 101.96 92.7191 102.119 93.0348 102.241C93.3662 102.365 93.7337 102.391 94.0831 102.315C94.372 102.117 94.6329 101.934 94.8659 101.769C94.9218 101.521 94.9777 101.161 95.0476 100.912C94.939 101.244 94.878 101.586 94.8659 101.93C94.8938 102.303 95.0476 102.477 95.2153 102.774" stroke="#EF2D28" style="stroke:#EF2D28;stroke:color(display-p3 0.9373 0.1765 0.1569);stroke-opacity:1;" stroke-width="0.237111"/>
<path id="Vector_35" d="M93.9304 103.626L94.0142 103.552C93.8046 103.738 93.8884 103.651 94.3637 103.39C94.6898 103.258 95.0672 103.159 95.4959 103.092H96.726C97.2012 103.092 97.5227 103.154 97.8582 103.241C98.1098 103.465 98.4732 103.589 98.7388 103.788C98.9748 103.946 99.1544 104.162 99.256 104.408C99.4936 104.619 99.6474 104.942 99.871 105.103C99.9689 105.463 100.165 105.451 100.304 105.724C99.885 105.749 99.5635 105.799 99.3398 106.035C98.9764 106.196 99.6474 105.873 99.7871 105.724C100.067 105.65 100.137 105.575 100.57 105.575C100.961 105.451 101.213 105.662 101.618 105.724C101.856 105.848 101.926 105.886 102.233 105.886" stroke="#EF2D28" style="stroke:#EF2D28;stroke:color(display-p3 0.9373 0.1765 0.1569);stroke-opacity:1;" stroke-width="0.237111"/>
<path id="Vector_36" d="M98.6376 107.589C98.8193 107.589 99.63 107.726 99.9515 107.589C100.315 107.502 100.511 107.341 100.734 107.043C100.846 106.832 100.734 107.415 100.734 107.664C100.776 108.123 100.93 108.123 101.182 108.433C101.433 108.582 101.699 108.781 101.964 108.905C102.197 109.074 102.462 109.204 102.747 109.29C103.045 109.397 103.306 109.526 103.53 109.675C103.823 109.861 103.809 110.084 103.977 110.382C103.935 110.755 103.865 110.978 103.628 111.152C103.516 111.413 103.292 111.673 103.097 111.847C102.887 112.219 102.635 112.381 103.18 112.468C103.488 112.592 103.656 112.493 103.977 112.468" stroke="#EF2D28" style="stroke:#EF2D28;stroke:color(display-p3 0.9373 0.1765 0.1569);stroke-opacity:1;" stroke-width="0.237111"/>
<path id="Vector_37" d="M104.178 112.999C104.402 112.949 105.157 112.726 105.492 112.614H106.722C107.183 112.651 107.281 112.775 107.673 112.924C107.938 113.16 108.106 113.321 108.469 113.47C108.651 113.681 109.029 114.054 109.168 114.327C109.282 114.648 109.339 114.983 109.336 115.32C109.336 115.779 109.196 115.866 109.168 116.264C109.072 116.605 108.89 116.923 108.637 117.195C108.609 117.277 108.553 117.327 108.469 117.344" stroke="#EF2D28" style="stroke:#EF2D28;stroke:color(display-p3 0.9373 0.1765 0.1569);stroke-opacity:1;" stroke-width="0.237111"/>
<path id="Vector_38" d="M108.401 118.356C108.441 118.356 108.52 118.552 108.649 118.718C108.937 119.012 108.967 119.032 109.393 119.032C109.79 119.012 109.741 118.875 110.019 118.787C110.148 118.591 110.306 118.434 110.455 118.17C110.555 118.013 110.644 117.768 110.753 117.621C110.872 117.435 111.011 117.298 111.13 117.131C111.249 117.082 111.289 117.033 111.448 117.004C111.09 117.062 111.051 117.19 110.822 117.376L110.515 117.925C110.475 118.189 110.396 118.395 110.386 118.718C110.386 119.061 110.386 119.297 110.515 119.581C110.664 119.728 110.763 119.884 110.951 120.012C111.108 120.162 111.251 120.326 111.378 120.502L111.944 120.864C112.123 120.972 112.331 121.08 112.619 121.109C112.986 121.08 113.095 120.982 113.363 120.864C113.601 120.698 113.78 120.59 113.988 120.433C114.159 120.294 114.307 120.128 114.425 119.943C114.752 119.865 114.971 119.894 115.169 120.071C115.337 120.188 115.481 120.334 115.596 120.502C115.695 120.551 115.874 120.698 115.973 120.747" stroke="#EF2D28" style="stroke:#EF2D28;stroke:color(display-p3 0.9373 0.1765 0.1569);stroke-opacity:1;" stroke-width="0.22681"/>
<path id="Vector_39" d="M115.159 120.847C115.06 120.883 114.69 121.14 114.542 121.226C114.443 121.556 114.283 121.727 114.233 122.082C114.159 122.408 114.131 122.762 114.147 123.146C114.233 123.537 114.394 123.818 114.542 124.124C114.789 124.295 114.912 124.417 115.233 124.589C115.529 124.646 115.862 124.674 116.232 124.674C116.479 124.748 116.923 124.784 117.158 124.674C117.503 124.625 117.762 124.491 118.009 124.369C118.293 124.21 118.465 124.051 118.774 123.904C118.947 123.692 119.152 123.464 119.391 123.219C119.588 122.962 119.724 122.815 119.86 122.534C119.72 122.844 119.592 123.15 119.477 123.451C119.292 123.769 119.193 123.892 119.169 124.283C119.045 124.601 119.082 124.992 119.082 125.359C119.119 125.604 119.132 126.068 119.243 126.276V126.509" stroke="#EF2D28" style="stroke:#EF2D28;stroke:color(display-p3 0.9373 0.1765 0.1569);stroke-opacity:1;" stroke-width="0.233384"/>
<path id="Vector_40" d="M126.537 127.81V127.934C126.564 127.627 126.517 127.775 126.398 128.378C126.18 128.626 125.604 128.697 125.168 128.591C124.771 128.289 124.771 128.058 124.056 127.934C123.342 127.97 123.064 128.147 122.667 128.378C122.249 128.525 121.899 128.793 121.674 129.141C121.535 129.513 121.456 129.78 121.932 129.922C122.347 130.171 122.824 130.324 123.322 130.365C123.878 130.365 124.294 130.312 124.552 130.596C124.949 130.951 124.91 131.164 124.91 131.802C125.049 131.998 125.068 132.583 125.168 132.814C125.511 132.971 125.894 133.045 126.279 133.027C126.418 132.672 126.557 132.069 126.656 131.696C126.756 131.306 126.775 130.738 127.033 130.472C127.262 130.167 127.552 129.903 127.887 129.691C128.088 129.487 128.349 129.34 128.641 129.265C128.145 129.478 128.085 129.726 128.026 130.259C128.443 130.436 128.562 130.578 129.256 130.596C129.951 130.543 130.11 130.383 130.368 130.028C130.427 130.596 130.626 130.773 130.765 131.27C131.003 131.589 131.102 131.927 131.36 132.37C131.261 132.903 131.023 132.92 131.003 133.577C130.844 134.02 130.844 134.429 130.507 134.695C130.348 134.872 130.229 134.89 129.872 134.908C130.586 134.908 131.023 134.837 131.499 134.588C131.83 134.363 132.161 134.139 132.492 133.914C132.94 133.613 133.443 133.384 133.98 133.24C134.556 133.24 134.973 133.186 135.211 133.47C135.555 133.707 135.806 134.08 135.965 134.588C136.064 135.156 136.124 135.546 135.826 135.919C135.628 136.345 135.568 136.505 135.826 137.019C136.124 137.374 136.541 137.427 137.215 137.569C137.692 137.546 138.102 137.475 138.446 137.356" stroke="#EF2D28" style="stroke:#EF2D28;stroke:color(display-p3 0.9373 0.1765 0.1569);stroke-opacity:1;" stroke-width="0.225198"/>
<g id="Group_6">
<path id="Vector_41" fill-rule="evenodd" clip-rule="evenodd" d="M59.7438 69.7781C44.6081 43.5795 34.5699 21.2549 37.3068 19.9911C40.072 18.7144 54.5965 38.9675 69.7322 65.1661L59.7438 69.7781Z" fill="white" stroke="#EF2D28" style="fill:white;fill-opacity:1;stroke:#EF2D28;stroke:color(display-p3 0.9373 0.1765 0.1569);stroke-opacity:1;" stroke-width="0.310154"/>
<g id="Vector_42">
<path fill-rule="evenodd" clip-rule="evenodd" d="M60.7434 69.3351C46.1418 44.0611 36.0861 22.696 38.2757 21.685C40.4879 20.6636 54.1327 40.3715 68.7343 65.6455" fill="white" style="fill:white;fill-opacity:1;"/>
<path d="M60.7434 69.3351C46.1418 44.0611 36.0861 22.696 38.2757 21.685C40.4879 20.6636 54.1327 40.3715 68.7343 65.6455" stroke="#EF2D28" style="stroke:#EF2D28;stroke:color(display-p3 0.9373 0.1765 0.1569);stroke-opacity:1;" stroke-width="0.272474"/>
</g>
<path id="Vector_43" fill-rule="evenodd" clip-rule="evenodd" d="M63.2513 56.1505C65.0292 59.1041 66.9127 62.4881 68.7343 65.6412L60.721 69.3412C58.8994 66.1882 56.903 62.8562 55.238 59.8505L63.2513 56.1505Z" fill="white" stroke="#EF2D28" style="fill:white;fill-opacity:1;stroke:#EF2D28;stroke:color(display-p3 0.9373 0.1765 0.1569);stroke-opacity:1;" stroke-width="0.30924"/>
<path id="Vector_44" fill-rule="evenodd" clip-rule="evenodd" d="M62.5542 57.1713C64.3412 60.1406 65.569 62.3896 67.3997 65.5584L61.4179 68.3204C59.5963 65.1673 58.2374 62.939 56.5724 59.9332L62.5542 57.1713Z" fill="white" stroke="#EF2D28" style="fill:white;fill-opacity:1;stroke:#EF2D28;stroke:color(display-p3 0.9373 0.1765 0.1569);stroke-opacity:1;" stroke-width="0.30924"/>
<g id="Vector_45">
<path fill-rule="evenodd" clip-rule="evenodd" d="M58.2067 60.5966L62.2134 58.7466L65.7655 64.8951L61.7589 66.7451L58.2067 60.5966ZM58.2067 60.5966L65.7655 64.8951ZM61.7589 66.7451L62.2134 58.7466ZM40.1364 29.3181L44.143 27.4681Z" fill="white" style="fill:white;fill-opacity:1;"/>
<path d="M58.2067 60.5966L62.2134 58.7466M58.2067 60.5966L61.7589 66.7451M58.2067 60.5966L65.7655 64.8951M62.2134 58.7466L65.7655 64.8951M62.2134 58.7466L61.7589 66.7451M65.7655 64.8951L61.7589 66.7451M40.1364 29.3181L44.143 27.4681" stroke="#EF2D28" style="stroke:#EF2D28;stroke:color(display-p3 0.9373 0.1765 0.1569);stroke-opacity:1;" stroke-width="0.30924"/>
</g>
<path id="Vector_46" d="M40.1604 26.4093C40.776 26.5649 41.3877 26.2521 41.5266 25.7107C41.6656 25.1692 41.2791 24.6041 40.6635 24.4484C40.0479 24.2928 39.4362 24.6056 39.2972 25.1471C39.1583 25.6885 39.5447 26.2537 40.1604 26.4093Z" fill="#EF0000" stroke="#EF2D28" style="fill:#EF0000;fill:color(display-p3 0.9373 0.0000 0.0000);fill-opacity:1;stroke:#EF2D28;stroke:color(display-p3 0.9373 0.1765 0.1569);stroke-opacity:1;" stroke-width="0.400692"/>
</g>
<g id="Group_7">
<path id="Vector_47" fill-rule="evenodd" clip-rule="evenodd" d="M71.8473 56.4259C71.8473 78.4285 71.9796 86.7149 70.3654 87.8505C68.8305 89.0749 26.1451 87.8505 26.1451 94.1319C26.1451 100.413 61.2885 106.73 71.8473 106.73C85.9258 106.73 92.9562 100.437 92.9386 87.8505V56.4436H71.8473V56.4259Z" fill="white" stroke="#EF2D28" style="fill:white;fill-opacity:1;stroke:#EF2D28;stroke:color(display-p3 0.9373 0.1765 0.1569);stroke-opacity:1;" stroke-width="0.281703"/>
<path id="Vector_48" fill-rule="evenodd" clip-rule="evenodd" d="M71.856 62.7065V65.8472C78.8334 66.8935 85.9571 66.8935 92.9345 65.8472V62.7065C85.9571 63.7528 78.8334 63.7528 71.856 62.7065Z" fill="white" stroke="#EF2D28" style="fill:white;fill-opacity:1;stroke:#EF2D28;stroke:color(display-p3 0.9373 0.1765 0.1569);stroke-opacity:1;" stroke-width="0.243965"/>
<path id="Vector_49" fill-rule="evenodd" clip-rule="evenodd" d="M71.856 56.4252V59.5658C78.8334 60.6121 85.9571 60.6121 92.9345 59.5658V56.4252C85.9571 57.4714 78.8334 57.4714 71.856 56.4252Z" fill="white" stroke="#EF2D28" style="fill:white;fill-opacity:1;stroke:#EF2D28;stroke:color(display-p3 0.9373 0.1765 0.1569);stroke-opacity:1;" stroke-width="0.243965"/>
<path id="Vector_50" fill-rule="evenodd" clip-rule="evenodd" d="M71.856 59.5659V62.7066C78.8334 63.7528 85.9571 63.7528 92.9345 62.7066V59.5659C85.9571 60.6122 78.8334 60.6122 71.856 59.5659Z" fill="white" stroke="#EF2D28" style="fill:white;fill-opacity:1;stroke:#EF2D28;stroke:color(display-p3 0.9373 0.1765 0.1569);stroke-opacity:1;" stroke-width="0.243965"/>
<path id="Vector_51" fill-rule="evenodd" clip-rule="evenodd" d="M71.856 65.8473V68.9879C78.8334 70.0342 85.9571 70.0342 92.9345 68.9879V65.8473C85.9571 66.8936 78.8334 66.8936 71.856 65.8473Z" fill="white" stroke="#EF2D28" style="fill:white;fill-opacity:1;stroke:#EF2D28;stroke:color(display-p3 0.9373 0.1765 0.1569);stroke-opacity:1;" stroke-width="0.243965"/>
<path id="Vector_52" d="M72.8139 62.0233C73.346 62.0233 73.7774 61.7193 73.7774 61.3444C73.7774 60.9695 73.346 60.6655 72.8139 60.6655C72.2817 60.6655 71.8503 60.9695 71.8503 61.3444C71.8503 61.7193 72.2817 62.0233 72.8139 62.0233Z" fill="white" stroke="#EF2D28" style="fill:white;fill-opacity:1;stroke:#EF2D28;stroke:color(display-p3 0.9373 0.1765 0.1569);stroke-opacity:1;" stroke-width="0.231281"/>
<path id="Vector_53" d="M76.6463 62.3615C77.1784 62.3615 77.6098 62.0576 77.6098 61.6826C77.6098 61.3077 77.1784 61.0038 76.6463 61.0038C76.1141 61.0038 75.6827 61.3077 75.6827 61.6826C75.6827 62.0576 76.1141 62.3615 76.6463 62.3615Z" fill="white" stroke="#EF2D28" style="fill:white;fill-opacity:1;stroke:#EF2D28;stroke:color(display-p3 0.9373 0.1765 0.1569);stroke-opacity:1;" stroke-width="0.231281"/>
<path id="Vector_54" d="M80.4895 62.7067C81.0217 62.7067 81.453 62.4028 81.453 62.0279C81.453 61.6529 81.0217 61.349 80.4895 61.349C79.9574 61.349 79.526 61.6529 79.526 62.0279C79.526 62.4028 79.9574 62.7067 80.4895 62.7067Z" fill="white" stroke="#EF2D28" style="fill:white;fill-opacity:1;stroke:#EF2D28;stroke:color(display-p3 0.9373 0.1765 0.1569);stroke-opacity:1;" stroke-width="0.231281"/>
<path id="Vector_55" d="M84.322 62.7067C84.8542 62.7067 85.2856 62.4028 85.2856 62.0279C85.2856 61.6529 84.8542 61.349 84.322 61.349C83.7899 61.349 83.3585 61.6529 83.3585 62.0279C83.3585 62.4028 83.7899 62.7067 84.322 62.7067Z" fill="white" stroke="#EF2D28" style="fill:white;fill-opacity:1;stroke:#EF2D28;stroke:color(display-p3 0.9373 0.1765 0.1569);stroke-opacity:1;" stroke-width="0.231281"/>
<path id="Vector_56" d="M88.1544 62.3615C88.6866 62.3615 89.118 62.0576 89.118 61.6826C89.118 61.3077 88.6866 61.0038 88.1544 61.0038C87.6223 61.0038 87.1909 61.3077 87.1909 61.6826C87.1909 62.0576 87.6223 62.3615 88.1544 62.3615Z" fill="white" stroke="#EF2D28" style="fill:white;fill-opacity:1;stroke:#EF2D28;stroke:color(display-p3 0.9373 0.1765 0.1569);stroke-opacity:1;" stroke-width="0.231281"/>
<path id="Vector_57" d="M91.9977 62.0233C92.5298 62.0233 92.9612 61.7193 92.9612 61.3444C92.9612 60.9695 92.5298 60.6655 91.9977 60.6655C91.4656 60.6655 91.0342 60.9695 91.0342 61.3444C91.0342 61.7193 91.4656 62.0233 91.9977 62.0233Z" fill="white" stroke="#EF2D28" style="fill:white;fill-opacity:1;stroke:#EF2D28;stroke:color(display-p3 0.9373 0.1765 0.1569);stroke-opacity:1;" stroke-width="0.231281"/>
<g id="Vector_58">
<path fill-rule="evenodd" clip-rule="evenodd" d="M71.856 72.1293L92.9346 89.1103ZM73.9599 72.1293L92.9544 87.2117ZM76.7584 72.7681L92.9544 85.3486ZM78.8623 72.7503L92.9544 83.4499ZM80.9861 72.7681L92.9346 81.5691ZM83.09 72.7681L92.9346 79.6882ZM85.1938 72.7681L92.9346 77.7896ZM87.3374 72.7681L92.9743 76.5298ZM89.4215 72.7681L92.9544 75.2877ZM91.5452 72.7681L92.9346 74.0101ZM71.856 74.0101L92.9346 91.0089ZM92.9346 72.147L69.7124 90.9911ZM90.8108 72.1293L70.4269 88.4892ZM88.0123 72.7681L71.8361 85.3308ZM85.8885 72.7681L71.8361 83.4499ZM83.8045 72.7681L71.856 81.5691ZM81.7006 72.7681L71.856 79.6882ZM79.5967 72.7681L71.856 77.7896ZM77.4531 72.7681L71.8361 76.5298ZM75.3492 72.7681L71.8361 75.2877ZM73.2255 72.7681L71.8361 74.0101ZM92.9346 74.0101L69.7124 92.9075ZM92.9346 75.9265L69.7124 94.7706ZM92.9346 77.7896L69.7124 96.6515ZM92.9346 79.6705L69.7124 98.5678ZM92.9346 81.5868L69.7124 100.431ZM92.9346 83.4499L69.7124 102.312ZM92.9346 85.3308L69.7124 104.193ZM92.9346 87.2294L69.7124 106.091ZM92.9346 89.1103L71.1216 106.712ZM92.9346 90.9911L73.2453 106.712ZM92.22 93.5108L76.7386 106.091ZM91.5452 96.0127L78.8822 106.074ZM90.136 99.1534L83.7846 104.175ZM71.856 75.891L92.2399 92.2332ZM71.856 77.7719L92.2399 94.1318ZM71.856 79.6882L91.5452 95.3917ZM71.856 81.5513L91.5452 97.2903ZM71.856 83.4499L90.8307 98.5323ZM71.1415 84.7098L90.136 99.7922ZM71.1415 86.6084L88.7268 100.449ZM70.4468 87.8505L88.0321 101.691ZM69.7124 89.0925L86.5832 102.294ZM69.7124 90.9734L85.8885 103.554ZM69.7124 92.872L83.8045 104.175Z" fill="white" style="fill:white;fill-opacity:1;"/>
<path d="M71.856 72.1293L92.9346 89.1103L71.1216 106.712M73.9599 72.1293L92.9544 87.2117M76.7584 72.7681L92.9544 85.3486M78.8623 72.7503L92.9544 83.4499M80.9861 72.7681L92.9346 81.5691M83.09 72.7681L92.9346 79.6882M85.1938 72.7681L92.9346 77.7896L69.7124 96.6515M87.3374 72.7681L92.9743 76.5298M89.4215 72.7681L92.9544 75.2877M91.5452 72.7681L92.9346 74.0101L69.7124 92.9075M71.856 74.0101L92.9346 91.0089M92.9346 72.147L69.7124 90.9911M90.8108 72.1293L70.4269 88.4892M88.0123 72.7681L71.8361 85.3308M85.8885 72.7681L71.8361 83.4499M83.8045 72.7681L71.856 81.5691M81.7006 72.7681L71.856 79.6882L91.5452 95.3917M79.5967 72.7681L71.856 77.7896M77.4531 72.7681L71.8361 76.5298M75.3492 72.7681L71.8361 75.2877M73.2255 72.7681L71.8361 74.0101M92.9346 75.9265L69.7124 94.7706M92.9346 79.6705L69.7124 98.5678M92.9346 81.5868L69.7124 100.431M92.9346 83.4499L69.7124 102.312M92.9346 85.3308L69.7124 104.193M92.9346 87.2294L69.7124 106.091M92.9346 90.9911L73.2453 106.712M92.22 93.5108L76.7386 106.091M91.5452 96.0127L78.8822 106.074M90.136 99.1534L83.7846 104.175M71.856 75.891L92.2399 92.2332M71.856 77.7719L92.2399 94.1318M71.856 81.5513L91.5452 97.2903M71.856 83.4499L90.8307 98.5323M71.1415 84.7098L90.136 99.7922M71.1415 86.6084L88.7268 100.449M70.4468 87.8505L88.0321 101.691M69.7124 89.0925L86.5832 102.294M69.7124 90.9734L85.8885 103.554M69.7124 92.872L83.8045 104.175" stroke="#EF2D28" style="stroke:#EF2D28;stroke:color(display-p3 0.9373 0.1765 0.1569);stroke-opacity:1;" stroke-width="0.243965"/>
</g>
<path id="Vector_59" fill-rule="evenodd" clip-rule="evenodd" d="M71.856 69.0056V72.1463C78.8334 73.1925 85.9571 73.1925 92.9345 72.1463V69.0056C85.9571 70.0519 78.8334 70.0519 71.856 69.0056Z" fill="white" stroke="#EF2D28" style="fill:white;fill-opacity:1;stroke:#EF2D28;stroke:color(display-p3 0.9373 0.1765 0.1569);stroke-opacity:1;" stroke-width="0.243965"/>
<g id="Vector_60">
<path fill-rule="evenodd" clip-rule="evenodd" d="M69.7323 94.7706L82.3953 104.831ZM69.7323 96.6692L80.9861 105.453ZM69.7323 98.5324L79.5769 106.091ZM69.7323 100.413L76.7783 106.091ZM69.7124 102.312L75.3492 106.712ZM69.7124 104.193L73.2255 106.712Z" fill="white" style="fill:white;fill-opacity:1;"/>
<path d="M69.7323 94.7706L82.3953 104.831M69.7323 96.6692L80.9861 105.453M69.7323 98.5324L79.5769 106.091M69.7323 100.413L76.7783 106.091M69.7124 102.312L75.3492 106.712M69.7124 104.193L73.2255 106.712" stroke="#EF2D28" style="stroke:#EF2D28;stroke:color(display-p3 0.9373 0.1765 0.1569);stroke-opacity:1;" stroke-width="0.243965"/>
</g>
<path id="Vector_61" d="M72.8139 71.4631C73.346 71.4631 73.7774 71.1591 73.7774 70.7842C73.7774 70.4093 73.346 70.1053 72.8139 70.1053C72.2817 70.1053 71.8503 70.4093 71.8503 70.7842C71.8503 71.1591 72.2817 71.4631 72.8139 71.4631Z" fill="white" stroke="#EF2D28" style="fill:white;fill-opacity:1;stroke:#EF2D28;stroke:color(display-p3 0.9373 0.1765 0.1569);stroke-opacity:1;" stroke-width="0.231281"/>
<path id="Vector_62" d="M76.6463 71.8013C77.1784 71.8013 77.6098 71.4974 77.6098 71.1225C77.6098 70.7475 77.1784 70.4436 76.6463 70.4436C76.1141 70.4436 75.6827 70.7475 75.6827 71.1225C75.6827 71.4974 76.1141 71.8013 76.6463 71.8013Z" fill="white" stroke="#EF2D28" style="fill:white;fill-opacity:1;stroke:#EF2D28;stroke:color(display-p3 0.9373 0.1765 0.1569);stroke-opacity:1;" stroke-width="0.231281"/>
<path id="Vector_63" d="M80.4895 72.1288C81.0217 72.1288 81.453 71.8249 81.453 71.45C81.453 71.0751 81.0217 70.7711 80.4895 70.7711C79.9574 70.7711 79.526 71.0751 79.526 71.45C79.526 71.8249 79.9574 72.1288 80.4895 72.1288Z" fill="white" stroke="#EF2D28" style="fill:white;fill-opacity:1;stroke:#EF2D28;stroke:color(display-p3 0.9373 0.1765 0.1569);stroke-opacity:1;" stroke-width="0.231281"/>
<path id="Vector_64" d="M84.322 72.1288C84.8542 72.1288 85.2856 71.8249 85.2856 71.45C85.2856 71.0751 84.8542 70.7711 84.322 70.7711C83.7899 70.7711 83.3585 71.0751 83.3585 71.45C83.3585 71.8249 83.7899 72.1288 84.322 72.1288Z" fill="white" stroke="#EF2D28" style="fill:white;fill-opacity:1;stroke:#EF2D28;stroke:color(display-p3 0.9373 0.1765 0.1569);stroke-opacity:1;" stroke-width="0.231281"/>
<path id="Vector_65" d="M88.1544 71.8013C88.6866 71.8013 89.118 71.4974 89.118 71.1225C89.118 70.7475 88.6866 70.4436 88.1544 70.4436C87.6223 70.4436 87.1909 70.7475 87.1909 71.1225C87.1909 71.4974 87.6223 71.8013 88.1544 71.8013Z" fill="white" stroke="#EF2D28" style="fill:white;fill-opacity:1;stroke:#EF2D28;stroke:color(display-p3 0.9373 0.1765 0.1569);stroke-opacity:1;" stroke-width="0.231281"/>
<path id="Vector_66" d="M91.9977 71.4631C92.5298 71.4631 92.9612 71.1591 92.9612 70.7842C92.9612 70.4093 92.5298 70.1053 91.9977 70.1053C91.4656 70.1053 91.0342 70.4093 91.0342 70.7842C91.0342 71.1591 91.4656 71.4631 91.9977 71.4631Z" fill="white" stroke="#EF2D28" style="fill:white;fill-opacity:1;stroke:#EF2D28;stroke:color(display-p3 0.9373 0.1765 0.1569);stroke-opacity:1;" stroke-width="0.231281"/>
<g id="Vector_67">
<path fill-rule="evenodd" clip-rule="evenodd" d="M41.6076 101.691L66.9138 88.4893ZM40.1984 101.052L64.1152 88.4893ZM39.5037 99.7922L61.2968 88.4893ZM38.7892 98.5501L57.7837 88.4893ZM37.3601 97.2903L54.9454 88.4893ZM38.0746 95.4094L50.0231 89.1103ZM37.3601 94.1319L46.4902 89.1103ZM37.3601 92.251L43.7115 89.1103ZM43.7115 102.312L67.6085 89.7313ZM45.8352 102.933L68.323 90.9912ZM47.9391 103.572L69.0375 92.251ZM50.043 104.193L67.6283 94.7706ZM52.8415 104.193L68.323 96.0305ZM54.9454 104.831L68.3031 97.9113ZM57.0493 105.453L67.6085 99.7922ZM59.8677 105.47L68.3031 101.052ZM62.6862 106.091L68.323 102.933ZM65.5443 106.091L69.0574 104.21Z" fill="white" style="fill:white;fill-opacity:1;"/>
<path d="M41.6076 101.691L66.9138 88.4893M40.1984 101.052L64.1152 88.4893M39.5037 99.7922L61.2968 88.4893M38.7892 98.5501L57.7837 88.4893M37.3601 97.2903L54.9454 88.4893M38.0746 95.4094L50.0231 89.1103M37.3601 94.1319L46.4902 89.1103M37.3601 92.251L43.7115 89.1103M43.7115 102.312L67.6085 89.7313M45.8352 102.933L68.323 90.9912M47.9391 103.572L69.0375 92.251M50.043 104.193L67.6283 94.7706M52.8415 104.193L68.323 96.0305M54.9454 104.831L68.3031 97.9113M57.0493 105.453L67.6085 99.7922M59.8677 105.47L68.3031 101.052M62.6862 106.091L68.323 102.933M65.5443 106.091L69.0574 104.21" stroke="#EF2D28" style="stroke:#EF2D28;stroke:color(display-p3 0.9373 0.1765 0.1569);stroke-opacity:1;" stroke-width="0.243965"/>
</g>
<path id="Vector_68" fill-rule="evenodd" clip-rule="evenodd" d="M70.4277 87.8683H66.9147C65.7443 94.1061 65.7443 100.475 66.9147 106.712H70.4277C69.2574 100.475 69.2574 94.1061 70.4277 87.8683Z" fill="white" stroke="#EF2D28" style="fill:white;fill-opacity:1;stroke:#EF2D28;stroke:color(display-p3 0.9373 0.1765 0.1569);stroke-opacity:1;" stroke-width="0.243965"/>
<g id="Vector_69">
<path fill-rule="evenodd" clip-rule="evenodd" d="M28.9446 96.6515L37.38 90.3701ZM28.9446 92.251L37.38 99.7922Z" fill="white" style="fill:white;fill-opacity:1;"/>
<path d="M28.9446 96.6515L37.38 90.3701M28.9446 92.251L37.38 99.7922" stroke="#EF2D28" style="stroke:#EF2D28;stroke:color(display-p3 0.9373 0.1765 0.1569);stroke-opacity:1;" stroke-width="0.243965"/>
</g>
<path id="Vector_70" fill-rule="evenodd" clip-rule="evenodd" d="M41.6077 89.0978L37.384 89.7271C36.4472 93.7165 36.4472 97.0654 37.384 101.055L41.6077 102.302C40.6708 98.324 40.6708 93.0872 41.6077 89.0978Z" fill="white" stroke="#EF2D28" style="fill:white;fill-opacity:1;stroke:#EF2D28;stroke:color(display-p3 0.9373 0.1765 0.1569);stroke-opacity:1;" stroke-width="0.173655"/>
<path id="Vector_71" fill-rule="evenodd" clip-rule="evenodd" d="M92.9366 57.668V54.4918C89.7546 54.5273 87.6432 52.6287 87.6432 50.7301L77.1158 50.7478C77.1158 52.6287 75.0342 54.5273 71.8522 54.5273V57.668H92.9366Z" fill="white" stroke="#EF2D28" style="fill:white;fill-opacity:1;stroke:#EF2D28;stroke:color(display-p3 0.9373 0.1765 0.1569);stroke-opacity:1;" stroke-width="0.298625"/>
<g id="Vector_72">
<path fill-rule="evenodd" clip-rule="evenodd" d="M77.8501 46.9861H86.9008V50.7656H77.8501V46.9861ZM78.6242 43.2067H86.1466V46.9861H78.6043L78.6242 43.2067ZM78.6242 39.4449H86.1466V43.2067H78.6043L78.6242 39.4449ZM79.3784 34.4056H85.3923V39.4449H79.3784V34.4056ZM79.1204 30.0051H85.6702V34.4056H79.1204V30.0051Z" fill="white" style="fill:white;fill-opacity:1;"/>
<path d="M86.1466 43.2067H78.6242L78.6043 46.9861H86.1466V43.2067ZM86.1466 43.2067V39.4449H78.6242L78.6043 43.2067H86.1466ZM77.8501 46.9861H86.9008V50.7656H77.8501V46.9861ZM79.3784 34.4056H85.3923V39.4449H79.3784V34.4056ZM79.1204 30.0051H85.6702V34.4056H79.1204V30.0051Z" stroke="#EF2D28" style="stroke:#EF2D28;stroke:color(display-p3 0.9373 0.1765 0.1569);stroke-opacity:1;" stroke-width="0.262732"/>
</g>
<path id="Vector_73" d="M82.7338 31.9037C87.5476 31.9037 91.4501 29.2265 91.4501 25.9239C91.4501 22.6214 87.5476 19.9442 82.7338 19.9442C77.9199 19.9442 74.0175 22.6214 74.0175 25.9239C74.0175 29.2265 77.9199 31.9037 82.7338 31.9037Z" fill="white" stroke="#EF2D28" style="fill:white;fill-opacity:1;stroke:#EF2D28;stroke:color(display-p3 0.9373 0.1765 0.1569);stroke-opacity:1;" stroke-width="0.247994"/>
<path id="Vector_74" fill-rule="evenodd" clip-rule="evenodd" d="M87.1022 25.6045C87.1022 27.2547 89.2761 30.005 89.2761 30.005C87.6969 31.1051 85.1333 31.9036 82.7338 31.9036C80.3342 31.9036 77.3399 31.4423 76.1914 30.005C76.1914 30.005 78.3654 27.2724 78.3654 25.6223C78.3654 23.9721 76.1914 21.8428 76.1914 21.8428C78.0976 20.637 80.393 19.9791 82.7543 19.9619C85.1333 19.9619 87.6764 20.7604 89.2761 21.8428C89.2761 21.8428 87.1022 23.9721 87.1022 25.6223V25.6045Z" fill="white" stroke="#EF2D28" style="fill:white;fill-opacity:1;stroke:#EF2D28;stroke:color(display-p3 0.9373 0.1765 0.1569);stroke-opacity:1;" stroke-width="0.247994"/>
<path id="Vector_75" fill-rule="evenodd" clip-rule="evenodd" d="M85.6461 25.6045C85.6461 27.2547 87.82 30.6438 87.82 30.6438C86.2408 31.7084 85.1539 31.8859 82.7338 31.8859C80.3137 31.8859 78.7961 32.0811 77.6476 30.6438C77.6476 30.6438 79.8215 27.2724 79.8215 25.6045C79.8215 23.9366 77.6476 21.204 77.6476 21.204C79.2268 20.1394 80.3137 19.9619 82.7338 19.9619C85.1333 19.9619 86.2408 20.1394 87.82 21.204C87.82 21.204 85.6461 23.9543 85.6461 25.6045Z" fill="white" stroke="#EF2D28" style="fill:white;fill-opacity:1;stroke:#EF2D28;stroke:color(display-p3 0.9373 0.1765 0.1569);stroke-opacity:1;" stroke-width="0.247994"/>
<path id="Vector_76" d="M74.0175 28.1065C75.2181 28.1065 76.1914 27.2644 76.1914 26.2256C76.1914 25.1868 75.2181 24.3447 74.0175 24.3447C72.8168 24.3447 71.8435 25.1868 71.8435 26.2256C71.8435 27.2644 72.8168 28.1065 74.0175 28.1065Z" fill="white" stroke="#EF2D28" style="fill:white;fill-opacity:1;stroke:#EF2D28;stroke:color(display-p3 0.9373 0.1765 0.1569);stroke-opacity:1;" stroke-width="0.247994"/>
<path id="Vector_77" d="M91.4639 28.1065C92.6645 28.1065 93.6378 27.2644 93.6378 26.2256C93.6378 25.1868 92.6645 24.3447 91.4639 24.3447C90.2632 24.3447 89.2899 25.1868 89.2899 26.2256C89.2899 27.2644 90.2632 28.1065 91.4639 28.1065Z" fill="white" stroke="#EF2D28" style="fill:white;fill-opacity:1;stroke:#EF2D28;stroke:color(display-p3 0.9373 0.1765 0.1569);stroke-opacity:1;" stroke-width="0.247994"/>
<path id="Vector_78" d="M82.7506 28.1065C83.9512 28.1065 84.9246 27.2644 84.9246 26.2256C84.9246 25.1868 83.9512 24.3447 82.7506 24.3447C81.55 24.3447 80.5767 25.1868 80.5767 26.2256C80.5767 27.2644 81.55 28.1065 82.7506 28.1065Z" fill="white" stroke="#EF2D28" style="fill:white;fill-opacity:1;stroke:#EF2D28;stroke:color(display-p3 0.9373 0.1765 0.1569);stroke-opacity:1;" stroke-width="0.247994"/>
<path id="Vector_79" d="M82.7506 21.8251C83.9512 21.8251 84.9246 20.983 84.9246 19.9442C84.9246 18.9054 83.9512 18.0634 82.7506 18.0634C81.55 18.0634 80.5767 18.9054 80.5767 19.9442C80.5767 20.983 81.55 21.8251 82.7506 21.8251Z" fill="white" stroke="#EF2D28" style="fill:white;fill-opacity:1;stroke:#EF2D28;stroke:color(display-p3 0.9373 0.1765 0.1569);stroke-opacity:1;" stroke-width="0.247994"/>
<path id="Vector_80" d="M76.3777 57.668C77.6212 57.668 78.6293 56.8259 78.6293 55.7871C78.6293 54.7483 77.6212 53.9062 76.3777 53.9062C75.1342 53.9062 74.1261 54.7483 74.1261 55.7871C74.1261 56.8259 75.1342 57.668 76.3777 57.668Z" fill="white" stroke="#EF2D28" style="fill:white;fill-opacity:1;stroke:#EF2D28;stroke:color(display-p3 0.9373 0.1765 0.1569);stroke-opacity:1;" stroke-width="0.252383"/>
<path id="Vector_81" d="M88.4056 57.668C89.6491 57.668 90.6572 56.8259 90.6572 55.7871C90.6572 54.7483 89.6491 53.9062 88.4056 53.9062C87.1621 53.9062 86.1541 54.7483 86.1541 55.7871C86.1541 56.8259 87.1621 57.668 88.4056 57.668Z" fill="white" stroke="#EF2D28" style="fill:white;fill-opacity:1;stroke:#EF2D28;stroke:color(display-p3 0.9373 0.1765 0.1569);stroke-opacity:1;" stroke-width="0.252383"/>
<path id="Vector_82" fill-rule="evenodd" clip-rule="evenodd" d="M77.1206 50.7478H87.6563L82.3885 56.4081L77.1206 50.7478Z" fill="white" stroke="#EF2D28" style="fill:white;fill-opacity:1;stroke:#EF2D28;stroke:color(display-p3 0.9373 0.1765 0.1569);stroke-opacity:1;" stroke-width="0.252383"/>
<path id="Vector_83" d="M82.3798 57.655C84.0379 57.655 85.3821 56.5323 85.3821 55.1473C85.3821 53.7623 84.0379 52.6395 82.3798 52.6395C80.7217 52.6395 79.3776 53.7623 79.3776 55.1473C79.3776 56.5323 80.7217 57.655 82.3798 57.655Z" fill="white" stroke="#EF2D28" style="fill:white;fill-opacity:1;stroke:#EF2D28;stroke:color(display-p3 0.9373 0.1765 0.1569);stroke-opacity:1;" stroke-width="0.336514"/>
</g>
<g id="Group_8">
<path id="Vector_84" d="M86.1641 73.9495H71.6949C71.2235 73.9495 70.8414 74.2434 70.8414 74.606V77.0724C70.8414 77.435 71.2235 77.7289 71.6949 77.7289H86.1641C86.6354 77.7289 87.0176 77.435 87.0176 77.0724V74.606C87.0176 74.2434 86.6354 73.9495 86.1641 73.9495Z" fill="white" stroke="#EF2D28" style="fill:white;fill-opacity:1;stroke:#EF2D28;stroke:color(display-p3 0.9373 0.1765 0.1569);stroke-opacity:1;" stroke-width="0.225198"/>
<path id="Vector_85" fill-rule="evenodd" clip-rule="evenodd" d="M91.9399 70.8088C89.9948 70.8088 88.4268 72.2816 88.4268 74.0915V76.9482C88.4136 77.3706 88.4943 77.7912 88.6642 78.1855C88.8341 78.5798 89.0898 78.9401 89.4166 79.2454C89.7434 79.5507 90.1346 79.795 90.5678 79.9642C91.0009 80.1334 91.4673 80.224 91.9399 80.2309C92.4125 80.224 92.8789 80.1334 93.312 79.9642C93.7451 79.795 94.1364 79.5507 94.4632 79.2454C94.7899 78.9401 95.0457 78.5798 95.2156 78.1855C95.3855 77.7912 95.4662 77.3706 95.453 76.9482V74.1092C95.4689 73.6853 95.3901 73.2629 95.2214 72.8665C95.0527 72.4702 94.7974 72.1078 94.4704 71.8006C94.1434 71.4933 93.7512 71.2474 93.3167 71.0771C92.8823 70.9069 92.4142 70.8157 91.9399 70.8088ZM91.9399 72.0509C90.7688 72.0509 89.836 73.2398 89.836 74.6948V76.345C89.836 77.8 90.7688 78.9711 91.9399 78.9711C93.1109 78.9711 94.0438 77.8 94.0438 76.345V74.6948C94.0438 73.2398 93.1109 72.0686 91.9399 72.0686V72.0509ZM73.6599 71.4299C72.469 71.4299 71.556 72.601 71.556 74.0737V76.9837C71.556 78.4387 72.4888 79.6098 73.6599 79.6098C74.8309 79.6098 75.7638 78.4387 75.7638 76.9837V74.056C75.7638 72.5832 74.8309 71.4121 73.6599 71.4121V71.4299ZM73.6599 70.1878C73.1873 70.1947 72.7209 70.2853 72.2878 70.4545C71.8546 70.6236 71.4633 70.868 71.1366 71.1733C70.8098 71.4786 70.5541 71.8389 70.3842 72.2332C70.2143 72.6275 70.1336 73.048 70.1468 73.4704V77.587C70.1336 78.0094 70.2143 78.43 70.3842 78.8243C70.5541 79.2186 70.8098 79.5789 71.1366 79.8842C71.4633 80.1895 71.8546 80.4338 72.2878 80.603C72.7209 80.7721 73.1873 80.8628 73.6599 80.8697C75.605 80.8697 77.173 79.3969 77.173 77.587V73.4704C77.1888 73.0466 77.1101 72.6241 76.9414 72.2277C76.7727 71.8314 76.5174 71.469 76.1904 71.1618C75.8634 70.8546 75.4712 70.6086 75.0367 70.4384C74.6023 70.2681 74.1342 70.1769 73.6599 70.17V70.1878Z" fill="white" stroke="#EF2D28" style="fill:white;fill-opacity:1;stroke:#EF2D28;stroke:color(display-p3 0.9373 0.1765 0.1569);stroke-opacity:1;" stroke-width="0.225198"/>
<path id="Vector_86" fill-rule="evenodd" clip-rule="evenodd" d="M68.023 72.6896C66.852 72.6896 65.9191 73.8607 65.9191 75.3157V76.0078C65.9191 77.4628 66.852 78.6339 68.023 78.6339C69.2139 78.6339 70.1468 77.4628 70.1468 76.0078V75.3157C70.1468 73.8607 69.1941 72.6896 68.023 72.6896ZM68.023 71.4475C67.5504 71.4544 67.0841 71.5451 66.6509 71.7142C66.2178 71.8834 65.8265 72.1277 65.4997 72.4331C65.173 72.7384 64.9172 73.0986 64.7473 73.493C64.5774 73.8873 64.4967 74.3078 64.5099 74.7302V76.6111C64.4967 77.0335 64.5774 77.454 64.7473 77.8483C64.9172 78.2426 65.173 78.6029 65.4997 78.9082C65.8265 79.2135 66.2178 79.4578 66.6509 79.627C67.0841 79.7962 67.5504 79.8868 68.023 79.8937C69.9681 79.8937 71.556 78.4209 71.556 76.6111V74.7302C71.5719 74.3049 71.4925 73.881 71.3226 73.4834C71.1527 73.0859 70.8956 72.7227 70.5665 72.4153C70.2373 72.1078 69.8428 71.8623 69.406 71.693C68.9692 71.5238 68.499 71.4343 68.023 71.4298V71.4475Z" fill="white" stroke="#EF2D28" style="fill:white;fill-opacity:1;stroke:#EF2D28;stroke:color(display-p3 0.9373 0.1765 0.1569);stroke-opacity:1;" stroke-width="0.225198"/>
<path id="Vector_87" fill-rule="evenodd" clip-rule="evenodd" d="M59.6114 70.954C57.4678 70.954 55.7887 72.2628 55.7887 73.8889V77.161C55.7887 78.7673 57.5036 80.0959 59.6114 80.0959C61.7193 80.0959 63.3984 78.7871 63.3984 77.1412V73.8889C63.3984 72.2628 61.6836 70.954 59.6114 70.954ZM59.6114 69.5658C58.7608 69.571 57.9205 69.6697 57.1391 69.8564C56.3577 70.0431 55.6508 70.3139 55.0593 70.6533C54.4679 70.9927 54.0036 71.3938 53.6934 71.8335C53.3832 72.2732 53.2332 72.7426 53.2521 73.2147V77.8154C53.2236 78.2891 53.3652 78.7612 53.6689 79.2042C53.9725 79.6472 54.4321 80.0522 55.0208 80.3956C55.6094 80.7389 56.3153 81.0138 57.0974 81.2041C57.8794 81.3944 58.7219 81.4963 59.5757 81.5039C63.1126 81.5039 65.935 79.858 65.935 77.8154V73.2147C65.9588 72.7426 65.8135 72.2726 65.5077 71.832C65.2018 71.3913 64.7415 70.9886 64.1533 70.6474C63.5652 70.3062 62.8609 70.0331 62.0812 69.8441C61.3016 69.655 60.4621 69.5537 59.6114 69.546V69.5658Z" fill="white" stroke="#EF2D28" style="fill:white;fill-opacity:1;stroke:#EF2D28;stroke:color(display-p3 0.9373 0.1765 0.1569);stroke-opacity:1;" stroke-width="0.239555"/>
<path id="Vector_88" fill-rule="evenodd" clip-rule="evenodd" d="M105.321 71.5751C103.178 71.5751 101.499 72.8839 101.499 74.51V77.7821C101.499 79.3884 103.214 80.717 105.321 80.717C107.429 80.717 109.108 79.4082 109.108 77.7623V74.51C109.108 72.8839 107.394 71.5751 105.321 71.5751ZM105.321 70.1869C104.471 70.1921 103.63 70.2908 102.849 70.4775C102.068 70.6642 101.361 70.935 100.769 71.2744C100.178 71.6138 99.7135 72.0149 99.4033 72.4546C99.0931 72.8943 98.9431 73.3637 98.9621 73.8358V78.4365C98.9335 78.9102 99.0752 79.3823 99.3788 79.8253C99.6825 80.2683 100.142 80.6733 100.731 81.0167C101.319 81.36 102.025 81.6349 102.807 81.8252C103.589 82.0155 104.432 82.1174 105.286 82.125C108.823 82.125 111.645 80.4791 111.645 78.4365V73.8358C111.669 73.3637 111.523 72.8937 111.218 72.453C110.912 72.0124 110.451 71.6097 109.863 71.2685C109.275 70.9273 108.571 70.6542 107.791 70.4652C107.012 70.2761 106.172 70.1748 105.321 70.1671V70.1869Z" fill="white" stroke="#EF2D28" style="fill:white;fill-opacity:1;stroke:#EF2D28;stroke:color(display-p3 0.9373 0.1765 0.1569);stroke-opacity:1;" stroke-width="0.239555"/>
<path id="Vector_89" d="M101.328 73.9495H93.8055C93.5534 73.9495 93.349 74.2434 93.349 74.606V77.0724C93.349 77.435 93.5534 77.7289 93.8055 77.7289H101.328C101.58 77.7289 101.784 77.435 101.784 77.0724V74.606C101.784 74.2434 101.58 73.9495 101.328 73.9495Z" fill="white" stroke="#EF2D28" style="fill:white;fill-opacity:1;stroke:#EF2D28;stroke:color(display-p3 0.9373 0.1765 0.1569);stroke-opacity:1;" stroke-width="0.225198"/>
<path id="Vector_90" d="M90.2726 73.3285H85.8663C85.7238 73.3285 85.6083 73.7178 85.6083 74.1979V77.4983C85.6083 77.9785 85.7238 78.3678 85.8663 78.3678H90.2726C90.4151 78.3678 90.5306 77.9785 90.5306 77.4983V74.1979C90.5306 73.7178 90.4151 73.3285 90.2726 73.3285Z" fill="white" stroke="#EF2D28" style="fill:white;fill-opacity:1;stroke:#EF2D28;stroke:color(display-p3 0.9373 0.1765 0.1569);stroke-opacity:1;" stroke-width="0.225198"/>
<path id="Vector_91" d="M67.0703 73.3285H62.664C62.5215 73.3285 62.406 73.7178 62.406 74.1979V77.4983C62.406 77.9785 62.5215 78.3678 62.664 78.3678H67.0703C67.2128 78.3678 67.3283 77.9785 67.3283 77.4983V74.1979C67.3283 73.7178 67.2128 73.3285 67.0703 73.3285Z" fill="white" stroke="#EF2D28" style="fill:white;fill-opacity:1;stroke:#EF2D28;stroke:color(display-p3 0.9373 0.1765 0.1569);stroke-opacity:1;" stroke-width="0.225198"/>
<path id="Vector_92" d="M56.2531 72.6897H47.4406C47.1556 72.6897 46.9246 73.1743 46.9246 73.7721V77.8887C46.9246 78.4865 47.1556 78.9711 47.4406 78.9711H56.2531C56.5381 78.9711 56.7692 78.4865 56.7692 77.8887V73.7721C56.7692 73.1743 56.5381 72.6897 56.2531 72.6897Z" fill="white" stroke="#EF2D28" style="fill:white;fill-opacity:1;stroke:#EF2D28;stroke:color(display-p3 0.9373 0.1765 0.1569);stroke-opacity:1;" stroke-width="0.225198"/>
<path id="Vector_93" d="M116.77 73.3285H108.612C108.338 73.3285 108.116 73.8131 108.116 74.4109V78.5275C108.116 79.1253 108.338 79.6099 108.612 79.6099H116.77C117.044 79.6099 117.266 79.1253 117.266 78.5275V74.4109C117.266 73.8131 117.044 73.3285 116.77 73.3285Z" fill="white" stroke="#EF2D28" style="fill:white;fill-opacity:1;stroke:#EF2D28;stroke:color(display-p3 0.9373 0.1765 0.1569);stroke-opacity:1;" stroke-width="0.225198"/>
</g>
</g>
</g>
</g>
</g>
</g>
<defs>
<clipPath id="clip0_2194_7343">
<rect width="640" height="480" fill="white" style="fill:white;fill-opacity:1;"/>
</clipPath>
</defs>
</svg>
