<svg width="640" height="480" viewBox="0 0 640 480" fill="none" xmlns="http://www.w3.org/2000/svg">
<g id="ph" clip-path="url(#clip0_2194_7514)">
<path id="Vector" d="M0 0H640V240H0V0Z" fill="#0038A8" style="fill:#0038A8;fill:color(display-p3 0.0000 0.2196 0.6588);fill-opacity:1;"/>
<path id="Vector_2" d="M0 240H640V480H0V240Z" fill="#CE1126" style="fill:#CE1126;fill:color(display-p3 0.8078 0.0667 0.1490);fill-opacity:1;"/>
<path id="Vector_3" d="M415.7 240L0 480V0" fill="white" style="fill:white;fill-opacity:1;"/>
<path id="Vector_4" d="M26.7 42.4L41 55L57.6 45.8L50.2 63.3L64.2 76.3L45.2 74.7L37.1 91.9L32.8 73.4L14 71L30.3 61L26.7 42.4ZM350.5 214.7L350.9 233.7L368.9 240L350.9 246.2L350.5 265.2L339 250.1L320.8 255.6L331.6 240L320.8 224.4L339 229.9L350.5 214.7ZM37.2 388.1L45.2 405.3L64.2 403.7L50.3 416.7L57.7 434.2L41.1 425.1L26.7 437.5L30.3 418.8L14 409L32.9 406.6L37.2 388.1ZM151.4 139.1L145.2 145.3L148.3 192.3L145.3 192.6L139.6 149.7L134.5 154.7L142.1 193.1C135.958 194.322 130.115 196.734 124.9 200.2L103.2 167.8H96L122.4 202.1L120 204.1L88.9 168.6H80.1V177.4L115.5 208.4L113.5 210.9L79.2 184.6V191.7L111.7 213.4C108.233 218.6 105.867 224.333 104.6 230.6L66.3 223L61.2 228L104.1 233.7C103.9 234.767 103.8 235.8 103.8 236.8L56.8 233.8L50.6 240L56.8 246.2L103.8 243.1L104.1 246.2L61.2 251.9L66.2 256.9L104.6 249.3C105.822 255.442 108.234 261.285 111.7 266.5L79.2 288.2V295.4L113.5 269.1L115.5 271.5L80.1 302.5V311.3H89L120 275.9L122.5 277.9L96 312.2H103.2L124.9 279.7C130.1 283.167 135.833 285.533 142.1 286.8L134.5 325.2L139.5 330.2L145.2 287.3C146.2 287.5 147.233 287.6 148.3 287.6L145.3 334.6L151.4 340.8L157.7 334.6L154.6 287.6L157.6 287.3L163.3 330.3L168.4 325.2L160.8 286.8C166.942 285.578 172.785 283.166 178 279.7L199.7 312.2H206.9L180.5 277.9L182.9 275.9L214 311.3H222.8V302.5L187.4 271.5L189.4 269.1L223.7 295.4V288.2L191.2 266.5C194.667 261.3 197.033 255.567 198.3 249.3L236.6 256.9L241.7 251.9L198.8 246.2C199 245.2 199.1 244.167 199.1 243.1L246.1 246.1L252.3 240L246.1 233.8L199.1 236.8L198.8 233.8L241.7 228.1L236.7 223.1L198.3 230.6C197.078 224.458 194.666 218.615 191.2 213.4L223.7 191.7V184.6L189.4 210.9L187.4 208.5L222.8 177.5V168.6H214L183 204.1L180.5 202.1L206.9 167.8H199.7L178 200.2C172.8 196.733 167.067 194.367 160.8 193.1L168.4 154.8L163.4 149.8L157.7 192.6L154.6 192.3L157.6 145.3L151.4 139.1Z" fill="#FCD116" style="fill:#FCD116;fill:color(display-p3 0.9882 0.8196 0.0863);fill-opacity:1;"/>
</g>
<defs>
<clipPath id="clip0_2194_7514">
<rect width="640" height="480" fill="white" style="fill:white;fill-opacity:1;"/>
</clipPath>
</defs>
</svg>
