<svg width="640" height="480" viewBox="0 0 640 480" fill="none" xmlns="http://www.w3.org/2000/svg">
<g id="pn" clip-path="url(#clip0_2194_7537)">
<path id="Vector" d="M0 0H640V480H0V0Z" fill="#00247D" style="fill:#00247D;fill:color(display-p3 0.0000 0.1412 0.4902);fill-opacity:1;"/>
<path id="Vector_2" d="M0 0H320V240H0V0Z" fill="#012169" style="fill:#012169;fill:color(display-p3 0.0039 0.1294 0.4118);fill-opacity:1;"/>
<path id="Vector_3" d="M37.5 0L159.5 90.5L281 0H320V31L200 120.5L320 209.5V240H280L160 150.5L40.5 240H0V210L119.5 121L0 32V0H37.5Z" fill="white" style="fill:white;fill-opacity:1;"/>
<path id="Vector_4" d="M212 140.5L320 220V240L184.5 140.5H212ZM120 150.5L123 168L27 240H0L120 150.5ZM320 0V1.5L195.5 95.5L196.5 73.5L295 0H320ZM0 0L119.5 88H89.5L0 21V0Z" fill="#C8102E" style="fill:#C8102E;fill:color(display-p3 0.7843 0.0627 0.1804);fill-opacity:1;"/>
<path id="Vector_5" d="M120.5 0V240H200.5V0H120.5ZM0 80V160H320V80H0Z" fill="white" style="fill:white;fill-opacity:1;"/>
<path id="Vector_6" d="M0 96.5V144.5H320V96.5H0ZM136.5 0V240H184.5V0H136.5Z" fill="#C8102E" style="fill:#C8102E;fill:color(display-p3 0.7843 0.0627 0.1804);fill-opacity:1;"/>
<path id="Vector_7" d="M410.1 252.3C401.112 259.442 394.489 269.131 391.1 280.1C385.4 307.4 377.8 313.5 366.1 307.6C366.1 322.3 379 323.4 384.6 314.9C384.6 328.6 389.6 340.5 400.8 350.7C405.6 355 406.5 352.1 404.2 347.3C402 342.6 402 327.3 397.5 318.5C404.7 323.6 415.3 320.7 414.5 306.5C405.2 311.9 396 311.7 395 298.8C393.9 283.8 399.7 261.8 410.1 252.3ZM399.1 143.7C399.8 138.2 398.6 132.7 394.6 129.2C387 122.5 379.5 124.7 373.9 130.2C365.6 125.6 361.1 141.6 351.7 138.9C353.2 144.1 355.7 146.3 360.5 144.5C355.5 149 360.5 154.5 354.6 159.9C365.2 163.3 370.8 157.4 370.4 147.2C371.339 148.066 372.442 148.736 373.644 149.17C374.845 149.605 376.121 149.795 377.397 149.73C378.673 149.664 379.923 149.345 381.074 148.791C382.225 148.236 383.254 147.457 384.1 146.5C378.5 144.7 378.5 139.8 380.7 135.3C384.1 128.5 400 128.8 399.1 143.7Z" fill="#F7E017" stroke="black" style="fill:#F7E017;fill:color(display-p3 0.9686 0.8784 0.0902);fill-opacity:1;stroke:black;stroke-opacity:1;" stroke-width="0.4"/>
<path id="Vector_8" d="M423.6 222.1C411.6 228.5 389.8 225.8 387.7 210.1C385.7 194.6 400.8 187.6 404.9 185.6C411.2 182.4 416.2 188.1 414.1 194.6C421.1 192.2 422.7 184 419.3 179.3C428.6 180 437.1 173 440.7 163.1C437.5 166.1 428.7 164.1 421.4 163.6C423.6 161.1 423.6 156.3 422.9 153.8C415.3 161.7 404.2 158.1 389.6 180.8C393.031 168.494 396.232 156.126 399.2 143.7C400 128.7 384.2 128.5 380.8 135.3C384.5 139.5 382.5 144.3 381.2 151.8C379.6 160.5 376.2 180.8 373.3 187.6C372.4 177 365.4 176.3 364.1 171.1C362.1 172.5 360.9 176.1 361.4 178.6C358.9 175.9 350.3 179.3 347.1 175.2C343.8 181.9 349.1 188.7 354.8 191.7C351.5 191.9 350.8 195.8 347.1 195.8C352 201.5 357 203.8 362.7 204.2C368.5 204.6 372.7 206.8 376.2 213.8C381.9 225.1 403.4 232.4 423.6 222.1Z" fill="#337321" stroke="black" style="fill:#337321;fill:color(display-p3 0.2000 0.4510 0.1294);fill-opacity:1;stroke:black;stroke-opacity:1;" stroke-width="0.4"/>
<path id="Vector_9" d="M453.4 208.4C446.6 227.1 428.1 240.4 419.8 242.4C405.6 245.9 376.6 260 368.8 267.2C367.659 266.977 366.573 266.536 365.6 265.9C361.8 263.2 358.6 254.4 365.4 246.9C386.6 227.1 409.4 235.7 423.6 222.1C411.6 228.4 389.8 225.7 387.8 210.1C397.498 212.621 407.701 212.444 417.306 209.589C426.911 206.734 435.553 201.309 442.3 193.9C446.409 198.382 450.091 203.236 453.3 208.4H453.4Z" fill="#F7E017" stroke="black" style="fill:#F7E017;fill:color(display-p3 0.9686 0.8784 0.0902);fill-opacity:1;stroke:black;stroke-opacity:1;" stroke-width="0.4"/>
<path id="Vector_10" d="M410.1 252.3C399.4 261.3 393.9 283.7 395 298.8C395.333 302.933 396.433 305.867 398.3 307.6C399.1 299 405 276.9 420.3 267C433.1 258.7 453.2 240 460.6 218.5C459.187 214.567 456.375 211.291 452.7 209.3C445.3 229.5 425.6 239.2 410.1 252.3Z" fill="#337321" stroke="black" style="fill:#337321;fill:color(display-p3 0.2000 0.4510 0.1294);fill-opacity:1;stroke:black;stroke-opacity:1;" stroke-width="0.4"/>
<path id="Vector_11" d="M446.5 199.7C441.193 207.099 433.967 212.907 425.6 216.5C427.177 214.581 428.059 212.184 428.1 209.7C414.918 213.46 400.971 213.632 387.7 210.2C397.413 212.74 407.636 212.573 417.26 209.718C426.885 206.862 435.544 201.426 442.3 194C444.013 195.649 445.433 197.576 446.5 199.7Z" fill="#316D3A" stroke="black" style="fill:#316D3A;fill:color(display-p3 0.1922 0.4275 0.2275);fill-opacity:1;stroke:black;stroke-opacity:1;" stroke-width="0.4"/>
<path id="Vector_12" d="M365.4 247C348.2 263 359.6 277.2 366.4 280.3C364.5 291.6 375.1 290.3 374.9 299.7C379.2 297.3 380.3 290.7 379.6 285.5C385.1 291.4 398.8 284.8 401.7 295.7C403.6 283.7 394.3 271.7 382.8 272.9C387.6 268.6 384.8 261.6 380.3 259.8C379.4 268.6 369.5 268.6 365.7 265.8C361.8 263.2 358.7 254.4 365.4 246.9V247Z" fill="#337321" stroke="black" style="fill:#337321;fill:color(display-p3 0.2000 0.4510 0.1294);fill-opacity:1;stroke:black;stroke-opacity:1;" stroke-width="0.4"/>
<path id="Vector_13" d="M402.7 349.6C400.9 350.6 401 353.1 402.2 354.6C404.5 357.8 400.5 365 408.2 366.5C410.4 367 412.2 365.5 413 363C415.4 355.9 407.8 355.1 407.1 351.7C406.5 348.3 404.3 348.7 402.7 349.6Z" fill="#F7E017" stroke="black" style="fill:#F7E017;fill:color(display-p3 0.9686 0.8784 0.0902);fill-opacity:1;stroke:black;stroke-opacity:1;" stroke-width="0.4"/>
<path id="Vector_14" d="M409.2 362.9C406.7 364.1 404.4 365.7 405.5 373.9C405.9 377.2 405.7 385.3 402.7 385.4C404.5 386.4 408.4 387.4 410 385.2C411.5 387.8 415 387 416.3 383.9C418.1 385.3 420.6 382.9 420.6 380.7C422.1 381.7 425.3 380.3 424.5 375.4C426.5 376.1 428.9 374.7 429.8 373.5C427 372.9 419.8 369.1 418.2 366.1C416.5 363 412.2 361.5 409.2 362.9Z" fill="#F7E017" stroke="black" style="fill:#F7E017;fill:color(display-p3 0.9686 0.8784 0.0902);fill-opacity:1;stroke:black;stroke-opacity:1;" stroke-width="0.4"/>
<path id="Vector_15" d="M370 134.7C371.2 133.1 372.533 131.567 374 130.1M413 164.6C415.067 163.533 417.867 163.2 421.4 163.6M410 385.2C409.2 384.1 408.9 379.4 409.4 376.5M416.3 383.9C415 382.9 412.7 379.6 412.3 376.8M420.6 380.7C417.676 378.413 415.485 375.318 414.3 371.8M424.5 375.4C422.6 375 416.9 371.3 414.5 367.4" stroke="black" style="stroke:black;stroke-opacity:1;" stroke-width="0.4"/>
<path id="Vector_16" d="M528.5 247.2C556.2 270.4 558 288.9 553.8 299.7C551.5 289.6 540 273.8 528 269.7L528.5 247.2Z" fill="#F7E017" stroke="black" style="fill:#F7E017;fill:color(display-p3 0.9686 0.8784 0.0902);fill-opacity:1;stroke:black;stroke-opacity:1;" stroke-width="0.4"/>
<path id="Vector_17" d="M478.9 234H530.3V295C530.3 346.9 501.5 377.5 472.1 393.8C454.12 384.443 439.137 370.215 428.862 352.743C418.588 335.271 413.438 315.261 414 295V234H450C450 237.2 450.4 242 454 246.7C462.6 245.9 472.2 239.5 478.9 234.1V234Z" fill="#337321" stroke="black" style="fill:#337321;fill:color(display-p3 0.2000 0.4510 0.1294);fill-opacity:1;stroke:black;stroke-opacity:1;" stroke-width="0.4"/>
<path id="Vector_18" d="M530.3 234V295C530.167 310.6 527.833 324.367 523.3 336.3L472 242.6L421 336.3C416.333 324.3 413.967 310.533 413.9 295V234H530.3Z" fill="#006EC7" stroke="black" style="fill:#006EC7;fill:color(display-p3 0.0000 0.4314 0.7804);fill-opacity:1;stroke:black;stroke-opacity:1;" stroke-width="0.4"/>
<path id="Vector_19" d="M524.8 331.9C523.688 335.29 522.42 338.627 521 341.9L472 251L423.3 342C422 339.2 420.4 334.7 419.5 332L472.2 234.4L524.8 331.9Z" fill="#F7E017" style="fill:#F7E017;fill:color(display-p3 0.9686 0.8784 0.0902);fill-opacity:1;"/>
<path id="Vector_20" d="M495.3 365.3L500.3 367.6C502.881 361.338 503.644 354.476 502.5 347.8C499.6 355.2 489.7 355 487 359.5C488.667 360.433 490.167 361.4 491.5 362.4C488.1 365.8 480.2 371.4 475.7 372.8V324.4C475.7 321 474.5 318.2 474.5 315.4V305.4C474.5 303.1 474.1 299.8 472.1 299.8C470.1 299.8 469.6 303.1 469.6 305.4V315.4C469.6 318.2 468.5 321.4 468.5 324.4V372.8C466 365.6 456.3 368 451.8 360.8C453.57 360.383 455.404 360.315 457.2 360.6C453.8 349.1 444.5 348.2 442.8 344.8C442.8 349.6 440.8 360.6 443.9 365.4C444.633 364.467 445.633 363.633 446.9 362.9C450.8 371.2 468 371.2 472.1 385C475.4 380 487.1 374 495.3 365.3Z" fill="#F7E017" stroke="black" style="fill:#F7E017;fill:color(display-p3 0.9686 0.8784 0.0902);fill-opacity:1;stroke:black;stroke-opacity:1;" stroke-width="0.4"/>
<path id="Vector_21" d="M472.1 325C475.9 325 488.1 323.8 492.5 323.8C493.7 323.8 494.6 322 494.6 319.9C494.6 317.8 493.7 316.1 492.6 316.1C488.1 316.1 476 314.9 472.1 314.9C468.2 314.9 456.1 316.1 451.7 316.1C450.5 316.1 449.6 317.8 449.6 319.9C449.6 322 450.6 323.8 451.6 323.8C456.1 323.8 468.3 325 472.1 325ZM469.6 305.2C468.8 304.533 467.8 304.2 466.6 304.2C464 304.2 461.9 306 461.9 308.3C461.9 310.7 464 312.6 466.6 312.6C469.1 312.6 471.2 310.6 471.2 308.3C471.2 306.5 473.8 306.5 473.8 308.3C473.8 312 470.6 315 466.6 315C462.6 315 459.3 312 459.3 308.3C459.3 304.7 462.6 301.7 466.6 301.7C467.745 301.727 468.87 302 469.9 302.5C469.767 303.167 469.667 304.067 469.6 305.2Z" fill="#F7E017" stroke="black" style="fill:#F7E017;fill:color(display-p3 0.9686 0.8784 0.0902);fill-opacity:1;stroke:black;stroke-opacity:1;" stroke-width="0.4"/>
<g id="Vector_22">
<path d="M451.7 323.8C452.8 323.8 453.7 322 453.7 319.9C453.7 317.8 452.8 316.1 451.7 316.1" fill="#F7E017" style="fill:#F7E017;fill:color(display-p3 0.9686 0.8784 0.0902);fill-opacity:1;"/>
<path d="M451.7 323.8C452.8 323.8 453.7 322 453.7 319.9C453.7 317.8 452.8 316.1 451.7 316.1" stroke="black" style="stroke:black;stroke-opacity:1;" stroke-width="0.4"/>
</g>
<g id="Vector_23">
<path d="M453.4 323.8C454.5 323.8 455.4 322 455.4 319.9C455.4 317.8 454.5 316.1 453.4 316.1M464.5 324.5C465.9 324.5 467 322.5 467 319.9C467 317.3 466 315.3 464.5 315.3M467.1 324.7C468.6 324.7 469.7 322.6 469.7 319.9C469.7 317.2 468.6 315.1 467.1 315.1M475.8 324.8C477.3 324.8 478.4 322.6 478.4 319.9C478.4 317.2 477.2 315 475.8 315M478.5 324.6C479.9 324.6 481.1 322.6 481.1 319.9C481.1 317.3 479.9 315.2 478.5 315.2M490.6 323.8C491.8 323.8 492.7 322.1 492.7 319.9C492.7 317.7 491.8 315.9 490.7 315.9M447 362.9C448.333 361.967 449.933 361.3 451.8 360.9ZM492.9 363.3L491.5 362.3ZM495.3 365.3C498.633 361.9 501.067 358 502.6 353.6Z" fill="#F7E017" style="fill:#F7E017;fill:color(display-p3 0.9686 0.8784 0.0902);fill-opacity:1;"/>
<path d="M453.4 323.8C454.5 323.8 455.4 322 455.4 319.9C455.4 317.8 454.5 316.1 453.4 316.1M464.5 324.5C465.9 324.5 467 322.5 467 319.9C467 317.3 466 315.3 464.5 315.3M467.1 324.7C468.6 324.7 469.7 322.6 469.7 319.9C469.7 317.2 468.6 315.1 467.1 315.1M475.8 324.8C477.3 324.8 478.4 322.6 478.4 319.9C478.4 317.2 477.2 315 475.8 315M478.5 324.6C479.9 324.6 481.1 322.6 481.1 319.9C481.1 317.3 479.9 315.2 478.5 315.2M490.6 323.8C491.8 323.8 492.7 322.1 492.7 319.9C492.7 317.7 491.8 315.9 490.7 315.9M447 362.9C448.333 361.967 449.933 361.3 451.8 360.9M492.9 363.3L491.5 362.3M495.3 365.3C498.633 361.9 501.067 358 502.6 353.6" stroke="black" style="stroke:black;stroke-opacity:1;" stroke-width="0.4"/>
</g>
<g id="Vector_24">
<path d="M461.8 277.2C461.8 276 462.7 275.6 463.8 274.8C465 273.8 465.5 273.4 466.7 273.4H481.5C482.433 273.333 482.866 273.767 482.8 274.7V294.7C482.933 295.633 482.5 296.1 481.5 296.1H461.8V276.9" fill="white" style="fill:white;fill-opacity:1;"/>
<path d="M461.8 277.2C461.8 276 462.7 275.6 463.8 274.8C465 273.8 465.5 273.4 466.7 273.4H481.5C482.433 273.333 482.866 273.767 482.8 274.7V294.7C482.933 295.633 482.5 296.1 481.5 296.1H461.8V276.9" stroke="black" style="stroke:black;stroke-opacity:1;" stroke-width="0.4"/>
</g>
<path id="Vector_25" d="M477.8 297.8C479.8 297.8 479.4 297.8 480.8 296.4C482.2 295 482.1 295.1 482.1 293.8V275.4C482.167 274.467 481.733 274.067 480.8 274.2H467.1C466.1 274.2 465.6 274.6 464.4 275.5C463.4 276.3 462.6 276.7 462.6 277.7V297.8H477.8Z" fill="#E5E5E5" stroke="black" style="fill:#E5E5E5;fill:color(display-p3 0.8980 0.8980 0.8980);fill-opacity:1;stroke:black;stroke-opacity:1;" stroke-width="0.4"/>
<path id="Vector_26" d="M479.3 297.4C479.367 298.333 478.9 298.767 477.9 298.7H463.1C462.1 298.767 461.667 298.333 461.8 297.4V277.3C461.667 276.367 462.1 275.933 463.1 276H477.9C478.9 275.933 479.367 276.367 479.3 277.3V297.4Z" fill="white" stroke="black" style="fill:white;fill-opacity:1;stroke:black;stroke-opacity:1;" stroke-width="0.4"/>
<path id="Vector_27" d="M508 222.3C510.8 225.5 511.8 229.8 510.2 234.1H506C507.8 228.6 506.7 223.5 499 222.8C487.6 221.8 474.2 244 454.1 246.7C448.3 239.7 448.6 226.4 456.1 220.1C452.24 209.446 446.213 199.708 438.4 191.5C434.865 190.919 431.281 190.684 427.7 190.8C430.7 184.4 439 177.8 445.8 175.1L449.2 170.6C449.9 161.9 491.2 165.9 499.9 171.3C499.9 181.1 503.8 213.5 508.1 222.3H508Z" fill="#96877D" stroke="black" style="fill:#96877D;fill:color(display-p3 0.5882 0.5294 0.4902);fill-opacity:1;stroke:black;stroke-opacity:1;" stroke-width="0.4"/>
<path id="Vector_28" d="M458 228.2C457 213.2 450.9 200.8 442.3 192.4C448.461 193.809 454.929 192.731 460.3 189.4C467.8 184.4 487.3 175.8 494.3 179.5C494.9 180.8 495.3 183.5 494.8 185.4C493.1 180.9 474.4 187.8 469.1 190C464.1 192.3 461.8 195.5 463.6 202.6C460.6 200.1 461.6 197.8 458.6 196C459.8 198.9 460.8 204.2 461.2 208.5C460 205.5 458 198.9 453.6 195C458.242 205.98 460.163 217.918 459.2 229.8C462.2 229.8 469 226.8 471.6 224.8C469.3 228.1 462.4 230.5 458.1 231.4C455.905 234.942 454.76 239.034 454.8 243.2C454.5 239 455.8 228.9 457.9 228.2H458ZM508 222.3C504.2 218.1 497.3 215.9 488.4 218.3C490.558 217.245 492.844 216.472 495.2 216C494.9 213.7 492.8 203.5 492.4 201L494.9 200C496.2 206.1 497.7 213.1 498.7 216C499.5 216.1 501.3 216.5 502.9 217.3C502.2 214.9 498.4 197.9 498.5 196.1L501.9 194.3C502.923 203.816 504.934 213.2 507.9 222.3H508Z" fill="black" style="fill:black;fill-opacity:1;"/>
<path id="Vector_29" d="M506 234C507.7 228.7 506.6 223.5 499 222.8C493 222.3 486.6 228.1 479 234.1L506 234ZM456.1 185.5C451.118 185.825 446.116 185.318 441.3 184C441.5 183.067 441.867 182 442.4 180.8C439.313 182.73 436.46 185.012 433.9 187.6C439.3 188.8 450.5 189.3 456.1 185.5Z" fill="#96877D" stroke="black" style="fill:#96877D;fill:color(display-p3 0.5882 0.5294 0.4902);fill-opacity:1;stroke:black;stroke-opacity:1;" stroke-width="0.4"/>
<path id="Vector_30" d="M456 220C457.266 223.733 457.966 227.167 458.1 230.3M445.7 175.1C443.7 178.1 441.9 181.3 441.3 184.1C446.13 185.332 451.124 185.805 456.1 185.5" stroke="black" style="stroke:black;stroke-opacity:1;" stroke-width="0.4"/>
<path id="Vector_31" d="M438.4 191.5C439.8 191.767 441.133 192.067 442.4 192.4C446.4 193.5 454.7 193.5 460.4 189.4C466.1 185.3 481.4 172.7 498.7 171.4" stroke="black" style="stroke:black;stroke-opacity:1;" stroke-width="0.4"/>
<path id="Vector_32" d="M433.9 187.6C439.3 188.8 450.5 189.3 456.1 185.5C467.295 177.129 480.582 172.008 494.5 170.7" stroke="black" style="stroke:black;stroke-opacity:1;" stroke-width="0.4"/>
<path id="Vector_33" d="M528.5 247.2C547.5 260.2 561.5 272.9 565.5 293.2C569.5 313.5 577.2 318.9 586.7 313.5C584.5 325.2 572.7 326.5 562.8 317.5C563.8 331.1 558.3 347.3 544.3 353.2C543.4 345.1 548.8 338.6 547.3 332C546.6 329 546.3 322.3 550.2 319.1C542.7 321.6 531 316.9 529.9 305.8C538.5 309.8 549.5 310.5 553.8 299.7C558.1 288.9 556.2 270.4 528.5 247.2ZM552.4 141.6C558.3 126.3 573.6 127.9 578.8 134.4C593.9 125.8 596 145.2 608.8 141.4C608.6 145 604.3 148.4 599.6 148.1C604.6 152.6 597.6 159.4 608.1 163.5C599.1 168 586.5 163.3 583.1 150.8C580.1 156.7 569.6 156.7 565.3 152C574.5 149.5 573.9 141 568.7 137.5C563.4 134.1 554.2 135.5 552.4 141.6ZM506.7 175.4C511.04 188.714 518.717 200.694 529 210.2C539.8 220.2 556.1 217.6 565.3 208.2C565.5 227 545.9 228.5 535.1 222.6C530.3 220 526.4 221.3 531 225.6C538 231.8 553.3 236.6 571.4 240.4C602.9 247.2 591.7 272.2 582.4 272C585.1 272 587.3 269.1 583.4 265.7C556 241 500.4 250.7 501.2 195.7C495.4 210.2 471.2 204.5 482.5 187.4C486.1 190.3 492.5 190.5 494.2 186C495.6 182.5 494.7 176.4 488.4 171.1C489.4 171.1 491.7 171.1 491.4 168.5C491.7 170.1 493.1 172.3 496.7 171.5C497.7 173.2 498.7 174.2 500.2 173.6C500.5 173.6 501.3 173.1 501 171.5C501.2 174.5 504.8 175.6 506.7 175.4Z" fill="#337321" stroke="black" style="fill:#337321;fill:color(display-p3 0.2000 0.4510 0.1294);fill-opacity:1;stroke:black;stroke-opacity:1;" stroke-width="0.4"/>
<path id="Vector_34" d="M535 222.6C548.1 231.1 563 231.1 576.5 215.4C580.8 210.4 587.5 206.1 592.3 205.7C597.1 205.2 596.8 200.7 600.4 199.7C598.2 199.1 597.3 196.4 593.9 196.7C602.4 193.8 599.9 187 604 183.7C600.6 185 595.4 180 590.5 186.4C591.8 183.4 590 180 588.8 178.6C589.3 182 582.2 182.6 580.8 191.2C580.1 196 577.4 195.8 577 188.3C576.7 182.9 574 167.8 571 160.1C567.8 152.5 567 141.9 571.3 140.4C570.672 139.27 569.78 138.31 568.7 137.6C563.4 134.2 554.2 135.6 552.4 141.6C546.6 157 563 165.8 561.7 182.5C559.2 170.1 539.1 166.9 539.3 154.7C532.8 157.7 533.7 163.1 536.2 167.4C532.2 161.1 522.9 171.4 515 162.9C514 174.2 524 178.4 532.1 178.9C528.1 186.1 533.5 192.2 538.9 194.2C539.1 181.6 565 186.7 565.3 208.4C565.5 226.9 545.6 228.4 535 222.6ZM571.4 240.4C602.9 247.2 591.7 272.2 582.4 272C576.5 271.8 570.9 266.9 570.6 262.6C563.8 266.2 565.6 273.3 570.8 276.1C556.6 274.5 550.6 283.8 550.3 294.1C552.9 289.3 560.7 289.1 563.7 290.1C566.7 291.1 574.2 291.6 577.2 288.1C574.7 290.3 578.8 295.3 575.2 299.1C587.2 298.7 592.3 287.6 590.2 282.8C605.6 268.8 602.7 246 571.4 240.4ZM547.3 347.6C549.3 348.8 549.1 351.6 547.7 353.3C544.9 356.7 549.1 364.8 540.5 366.3C537.9 366.5 536.167 365.1 535.3 362.1C532.9 354.1 541.4 353.5 542.3 349.8C543.2 346.1 545.6 346.5 547.3 347.6Z" fill="#F7E017" stroke="black" style="fill:#F7E017;fill:color(display-p3 0.9686 0.8784 0.0902);fill-opacity:1;stroke:black;stroke-opacity:1;" stroke-width="0.4"/>
<path id="Vector_35" d="M539.6 362.1C542.3 363.5 544.7 365.5 543.3 374.5C542.6 378.2 542.5 387.3 545.8 387.5C543.8 388.5 539.4 389.4 537.8 387C535.9 389.8 532.1 388.8 530.8 385.2C528.6 386.8 526 383.9 526.1 381.5C524.3 382.5 520.8 380.8 521.9 375.5C519.7 376.1 517 374.5 516.1 373.1C519.2 372.5 527.3 368.6 529.4 365.3C531.4 361.9 536.4 360.5 539.6 362.1Z" fill="#F7E017" stroke="black" style="fill:#F7E017;fill:color(display-p3 0.9686 0.8784 0.0902);fill-opacity:1;stroke:black;stroke-opacity:1;" stroke-width="0.4"/>
<path id="Vector_36" d="M537.7 387C538.7 385.8 539.2 380.5 538.7 377.3M530.7 385.2C532.2 384.2 534.9 380.7 535.5 377.5M526 381.5C529.332 379.029 531.897 375.666 533.4 371.8M521.9 375.5C523.9 375.1 530.5 371.2 533.3 366.9" stroke="black" style="stroke:black;stroke-opacity:1;" stroke-width="0.4"/>
<path id="Vector_37" d="M501.2 195.8C500.8 218.8 510.4 230.6 523.8 238.2C518.8 235.2 521 225.1 514.3 221.8C515.9 221.7 518.3 223.9 522.3 223C520.3 218.8 517.3 212.2 509.9 211.3C511.9 211.1 515.9 211.8 518.7 210.8C514.9 204.8 504.7 207.7 501.2 195.8ZM498.8 173.8C498 173.467 497.3 172.733 496.7 171.6C493.1 172.4 491.7 170.1 491.4 168.6C491.7 171.2 489.4 171.1 488.4 171.2C494.7 176.4 495.6 182.5 494.2 186C492.4 190.5 486.2 190.3 482.5 187.4C482 197 494.5 200.1 499 188.1C499 190.1 501.6 189.9 502.2 192.6C505.4 187.4 503 179.9 498.8 173.8Z" fill="#F7E017" stroke="black" style="fill:#F7E017;fill:color(display-p3 0.9686 0.8784 0.0902);fill-opacity:1;stroke:black;stroke-opacity:1;" stroke-width="0.4"/>
<path id="Vector_38" d="M479 128C473.949 122.999 471.075 116.207 471 109.1C471.2 104.1 473.2 98.8 480.5 101.1C478.2 101.1 479.8 105.5 477.5 106C479.3 106.7 481.9 105.1 482.3 104C482.7 105.6 485.7 105.2 485.9 107C487 106.1 485.8 101.7 484.1 100.8C485.3 100.1 486.1 96.6 485.5 94.9C484.3 95.1 482.6 96.7 482.3 99C482.9 97.2 482.2 92.7 479 92C478.1 93.2 477.9 96.3 479.1 98C476.2 97.3 471.9 99.2 470.9 101.7C471.1 98.7 471.5 94.4 473.4 91.7C474 90.9 472.4 89.3 471.3 91.4C469.1 87.1 463.3 84.9 460.6 87C458 89.2 454.6 86 452.4 89.4C450.2 92.8 443 93.1 443.4 96.7C443.6 98.9 443.1 102.2 442 103.4C439.4 106.3 443.3 108.4 444 111C443.5 102.5 457.1 85.8 470.8 92.3C469.134 95.9473 468.216 99.8917 468.1 103.9C467.5 111.6 468.7 122.4 476.1 128.8L479 128Z" fill="#337321" stroke="black" style="fill:#337321;fill:color(display-p3 0.2000 0.4510 0.1294);fill-opacity:1;stroke:black;stroke-opacity:1;" stroke-width="0.4"/>
<path id="Vector_39" d="M483 101.1C483 99.1 486.5 96.4 491.2 96.5C496.9 96.5 501.2 101.7 505.8 101.2C510.4 100.7 508.2 103.2 507.2 104C506.133 104.667 505.733 105.633 506 106.9C506.3 108.1 505.8 108.9 504 107.8C499.9 105.2 495.8 108.8 490.4 106.8C485.9 105.1 483.2 104.1 483 101.1Z" fill="#C8102E" stroke="black" style="fill:#C8102E;fill:color(display-p3 0.7843 0.0627 0.1804);fill-opacity:1;stroke:black;stroke-opacity:1;" stroke-width="0.4"/>
<path id="Vector_40" d="M459.8 154.4C456.835 147.296 451.546 141.408 444.8 137.7L444.6 133.9C448.275 131.804 451.668 129.25 454.7 126.3C471.7 134.3 494.7 122.9 505.3 111L509.3 113.4L507.3 116.1L505.2 115C500.521 120.132 495.438 124.88 490 129.2C493.9 130.2 499.3 130.9 500.8 130.8C510.2 124 517.7 117.9 521.3 117.5L524.3 121.5L521.6 123.5L519.5 122.2C508.06 133.083 499.12 146.322 493.3 161C487 159.6 464.4 160.5 459.8 154.4Z" fill="#96877D" stroke="black" style="fill:#96877D;fill:color(display-p3 0.5882 0.5294 0.4902);fill-opacity:1;stroke:black;stroke-opacity:1;" stroke-width="0.4"/>
<path id="Vector_41" d="M490 129.2C488.4 128.8 487.233 128.4 486.5 128C482.86 130.235 478.671 131.412 474.4 131.4" stroke="black" style="stroke:black;stroke-opacity:1;" stroke-width="0.4"/>
<path id="Vector_42" d="M460.7 151.9C459.2 143.5 461.7 134.1 465.9 131.3C471.208 134.36 477.243 135.928 483.369 135.84C489.495 135.752 495.483 134.011 500.7 130.8" stroke="black" style="stroke:black;stroke-opacity:1;" stroke-width="0.4"/>
<path id="Vector_43" d="M460.7 147.5C467.9 147.3 483.7 148.5 487.4 149C491.3 149.6 497.7 151.2 496.8 153.1M464 146.3L466.1 144.3L464.1 142.2L462 144.2L464 146.3Z" stroke="black" style="stroke:black;stroke-opacity:1;" stroke-width="0.4"/>
<path id="Vector_44" d="M469 104.3C466.4 100.7 459.2 99.4999 457.7 104.3C457 106.5 456 108.8 454.3 109.8C452.6 110.8 453 113.9 453.7 115.2C455.5 118.5 453.9 121.7 457.4 123.8C457.4 121.2 461.3 118.5 464.5 117.8C467.8 117.2 472.8 114.2 473.5 111C474.1 107.6 475.3 105 469 104.3Z" fill="#337321" stroke="black" style="fill:#337321;fill:color(display-p3 0.2000 0.4510 0.1294);fill-opacity:1;stroke:black;stroke-opacity:1;" stroke-width="0.4"/>
<path id="Vector_45" d="M452.7 136.8H453.7V142.9L454.2 143.2L459.5 140.2L460 140.9L454.6 144V144.6L460 147.6L459.5 148.4L454.1 145.4C453.967 145.533 453.8 145.633 453.6 145.7V151.9H452.7V145.7L452.2 145.4L446.9 148.5L446.4 147.7L451.7 144.7V144L446.4 141L446.9 140.2L452.2 143.2L452.7 142.9V136.8Z" fill="#96877D" stroke="black" style="fill:#96877D;fill:color(display-p3 0.5882 0.5294 0.4902);fill-opacity:1;stroke:black;stroke-opacity:1;" stroke-width="0.4"/>
<path id="Vector_46" d="M460.7 151.8C459.168 153.352 457.198 154.398 455.055 154.799C452.912 155.2 450.697 154.937 448.708 154.044C446.718 153.152 445.049 151.673 443.923 149.806C442.797 147.938 442.269 145.771 442.409 143.595C442.549 141.419 443.35 139.338 444.706 137.63C446.061 135.922 447.906 134.669 449.994 134.038C452.081 133.408 454.311 133.431 456.386 134.103C458.46 134.775 460.279 136.065 461.6 137.8C460.97 139.644 460.567 141.558 460.4 143.5C460.265 142.094 459.724 140.757 458.844 139.653C457.964 138.548 456.783 137.722 455.443 137.275C454.103 136.828 452.662 136.78 451.295 137.136C449.928 137.491 448.693 138.236 447.741 139.28C446.789 140.323 446.16 141.62 445.931 143.014C445.701 144.408 445.881 145.838 446.448 147.132C447.016 148.425 447.946 149.527 449.127 150.302C450.307 151.077 451.688 151.494 453.1 151.5C456.5 151.5 459.4 149.2 460.3 146.1C460.3 147.5 460.3 150.7 460.7 151.8Z" fill="#96877D" stroke="black" style="fill:#96877D;fill:color(display-p3 0.5882 0.5294 0.4902);fill-opacity:1;stroke:black;stroke-opacity:1;" stroke-width="0.4"/>
<path id="Vector_47" d="M448.6 162C448 161.2 446.7 159 446.9 157.5C448.303 157.54 449.648 158.071 450.7 159C450.6 157.8 450.1 155.4 450.4 154.2C451.6 154.7 454.2 156.2 455.1 157.8C454.9 156.7 454.4 153.8 454.9 152C456.2 152.8 458.5 154.9 458.9 156.4C459.1 154.1 459.9 150.4 460.5 149.4C461.5 150.4 463.1 151.4 464.1 152.8C464.3 150.9 465.3 148.8 466.6 148.3C467.6 149.3 469.2 152 469.6 154.9C470.6 154.6 471.9 152.9 472.5 151.9C473 152.9 473.6 154.4 473.2 156.4C474.5 155.2 476 153.7 476.2 152.3C477.2 153 478.9 154.7 479.3 156.5C479.1 155 479.3 152.4 478.8 150.9C480.4 151.9 481.8 153.4 482.1 155.1C482.6 153.5 483.6 150.7 484.5 150.1C485.4 151.9 486.3 154.1 486.2 155.8C486.8 154.7 487.6 152.6 488.5 152.2C489.3 153.4 489.2 156.2 489 157.6C489.8 156.5 491.3 155.1 492.2 154.6C492.2 155.4 492.4 156.7 492.2 157.7C493.636 156.223 494.729 154.448 495.4 152.5C497 153.3 498.6 156 498.7 157.4C499.9 156.9 502.1 154.9 502.7 153.8C502.7 154.6 503.1 156.8 502.7 158.4C503.4 157.7 504 156.4 504.4 155.8C504.8 156.9 504.4 159.6 504 161.1C504.946 160.253 506.137 159.728 507.4 159.6C507.114 162.345 506.263 165 504.9 167.4C494.1 164.4 471.4 163.3 448.6 162Z" fill="#337321" stroke="black" style="fill:#337321;fill:color(display-p3 0.2000 0.4510 0.1294);fill-opacity:1;stroke:black;stroke-opacity:1;" stroke-width="0.4"/>
<path id="Vector_48" d="M486.4 102.3C486.4 101.4 488.2 99.6 491.5 99.6C495.5 99.6 499.2 102.6 502.4 102.3C505.6 102 504 103.2 503.4 103.4C502.6 103.733 502.267 104.133 502.4 104.6C502.8 105.267 502.333 105.4 501 105C498.2 104 495.3 105.4 491.6 104.6C488.4 103.9 486.5 103.6 486.4 102.3Z" fill="#F7E017" style="fill:#F7E017;fill:color(display-p3 0.9686 0.8784 0.0902);fill-opacity:1;"/>
<path id="Vector_49" d="M452.1 168.8C448.8 172.8 445.4 172.2 444.7 169.6C444 167 446.5 165.8 445.6 163.5C444.7 161.2 447.1 160.2 448.2 161.2C449.3 162.2 453 159 454.5 162.4C456.1 165.8 457.3 168.1 456.5 169.4C455.5 170.8 452.8 170.1 452.1 168.8ZM466.7 162.7C466.1 161.2 469.6 158.3 471.4 160.4C473.2 162.4 476 158.2 477.6 161.4C479.2 164.6 479.6 166.3 480.5 168.1C481.2 169.9 476.2 170.8 474.6 169.3C474.8 170.3 470.2 171.2 469 168.1L466.7 162.7ZM490.1 164.6C489.3 163 493.4 160.7 495.6 163.6C496.1 162.4 500.2 162.2 500.5 165.6L501 172.5C501.1 173.8 498.5 175.1 496.7 171.6C493.3 172.3 491.8 170.4 491.4 168.5C491 166.6 490.6 165.5 490.1 164.5V164.6Z" fill="#F7E017" stroke="black" style="fill:#F7E017;fill:color(display-p3 0.9686 0.8784 0.0902);fill-opacity:1;stroke:black;stroke-opacity:1;" stroke-width="0.4"/>
<path id="Vector_50" d="M454.3 162.3C453.8 161.2 457.3 158.9 459.5 160.6C461.7 162.3 465 159.2 466.5 162.2C469.2 168.4 469.3 168.8 468.5 170C467.7 171.2 464 170.7 463.1 169C463 170.2 459.8 170 458.2 169.1C456.4 168.1 455.1 164.3 454.3 162.3ZM478 162.6C477.3 160.8 482.6 159.3 485 162.4C486.1 161.3 488.7 161.2 490.1 164.6C491.567 167.8 491.8 169.8 490.8 170.6C490 171.2 487.3 171.6 486.4 170.1C485.1 170.9 481.3 170.2 480.4 168.1C479.6 165.967 478.834 164.133 478.1 162.6H478ZM500.5 166C500.5 164.3 503.3 163.6 504.4 166C505.4 168.2 508.9 166.1 509.2 170C509.2 170.7 508.8 173.5 507.7 174.9C506.7 176.2 501.4 174.9 501 172L500.5 166Z" fill="#337321" stroke="black" style="fill:#337321;fill:color(display-p3 0.2000 0.4510 0.1294);fill-opacity:1;stroke:black;stroke-opacity:1;" stroke-width="0.4"/>
<path id="Vector_51" d="M452.1 168.8C450.9 167.1 449.2 164.4 447.1 167.3M463.2 169C462.4 168.1 461.5 166.5 461.2 165.3M474.6 169.3C473.8 168.7 472.6 167.6 472 166.4M473.6 163.4C475.6 163.6 476.9 165.4 477.5 166.3C478.1 167.2 479.5 168.7 480.5 168.8M486.4 170.1C485.6 169.033 485.1 168.1 484.9 167.3M485 162.4C485.6 163.333 486.1 164.2 486.5 165M496.6 171.6C495.846 169.982 494.628 168.624 493.1 167.7M496.2 165.4C496.3 168.7 500.7 169 500.9 171.4M504.4 166C504.8 166.667 505 167.667 505 169" stroke="black" style="stroke:black;stroke-opacity:1;" stroke-width="0.4"/>
</g>
<defs>
<clipPath id="clip0_2194_7537">
<rect width="640" height="480" fill="white" style="fill:white;fill-opacity:1;"/>
</clipPath>
</defs>
</svg>
