<svg width="640" height="480" viewBox="0 0 640 480" fill="none" xmlns="http://www.w3.org/2000/svg">
<g id="rw" clip-path="url(#clip0_2194_8397)">
<path id="Vector" d="M0 0H640V480H0V0Z" fill="#20603D" style="fill:#20603D;fill:color(display-p3 0.1255 0.3765 0.2392);fill-opacity:1;"/>
<path id="Vector_2" d="M0 0H640V360H0V0Z" fill="#FAD201" style="fill:#FAD201;fill:color(display-p3 0.9804 0.8235 0.0039);fill-opacity:1;"/>
<path id="Vector_3" d="M0 0H640V240H0V0Z" fill="#00A1DE" style="fill:#00A1DE;fill:color(display-p3 0.0000 0.6314 0.8706);fill-opacity:1;"/>
<g id="Group">
<g id="rw-b">
<path id="rw-a" d="M588.4 125.4L534.8 128.533L585.734 145.467L533.2 134.6L578.067 164.067L530.067 139.933L565.667 180.133L525.6 144.467L549.734 192.467L520.2 147.6L531 200.067L514.133 149.2L511 202.8L510.333 124.733L588.4 125.4Z" fill="#E5BE01" style="fill:#E5BE01;fill:color(display-p3 0.8980 0.7451 0.0039);fill-opacity:1;"/>
<path id="rw-a_2" d="M588.4 125.4L534.8 122.267L585.734 105.333L533.2 116.2L578.067 86.7331L530.067 110.867L565.667 70.6664L525.6 106.333L549.734 58.333L520.2 103.2L531 50.7329L514.133 101.6L511 47.9996L510.333 126.067L588.4 125.4Z" fill="#E5BE01" style="fill:#E5BE01;fill:color(display-p3 0.8980 0.7451 0.0039);fill-opacity:1;"/>
</g>
<g id="rw-b_2">
<path id="rw-a_3" d="M433.6 125.4L487.2 128.533L436.266 145.467L488.8 134.6L443.933 164.067L491.933 139.933L456.333 180.133L496.4 144.467L472.266 192.467L501.8 147.6L491 200.067L507.867 149.2L511 202.8L511.667 124.733L433.6 125.4Z" fill="#E5BE01" style="fill:#E5BE01;fill:color(display-p3 0.8980 0.7451 0.0039);fill-opacity:1;"/>
<path id="rw-a_4" d="M433.6 125.4L487.2 122.267L436.266 105.333L488.8 116.2L443.933 86.7331L491.933 110.867L456.333 70.6664L496.4 106.333L472.266 58.333L501.8 103.2L491 50.7329L507.867 101.6L511 47.9996L511.667 126.067L433.6 125.4Z" fill="#E5BE01" style="fill:#E5BE01;fill:color(display-p3 0.8980 0.7451 0.0039);fill-opacity:1;"/>
</g>
<path id="Vector_4" d="M511 148.267C523.629 148.267 533.867 138.029 533.867 125.4C533.867 112.771 523.629 102.533 511 102.533C498.371 102.533 488.133 112.771 488.133 125.4C488.133 138.029 498.371 148.267 511 148.267Z" fill="#E5BE01" stroke="#00A1DE" style="fill:#E5BE01;fill:color(display-p3 0.8980 0.7451 0.0039);fill-opacity:1;stroke:#00A1DE;stroke:color(display-p3 0.0000 0.6314 0.8706);stroke-opacity:1;" stroke-width="2.26668"/>
</g>
</g>
<defs>
<clipPath id="clip0_2194_8397">
<rect width="640" height="480" fill="white" style="fill:white;fill-opacity:1;"/>
</clipPath>
</defs>
</svg>
