<svg width="640" height="480" viewBox="0 0 640 480" fill="none" xmlns="http://www.w3.org/2000/svg">
<g id="sa" clip-path="url(#clip0_2194_8409)">
<g id="Clip path group">
<mask id="mask0_2194_8409" style="mask-type:luminance" maskUnits="userSpaceOnUse" x="0" y="0" width="640" height="480">
<g id="sa-a">
<path id="Vector" d="M0.03125 0H639.969V480H0.03125V0Z" fill="white" style="fill:white;fill-opacity:1;"/>
</g>
</mask>
<g mask="url(#mask0_2194_8409)">
<g id="Group">
<path id="Vector_2" fill-rule="evenodd" clip-rule="evenodd" d="M-40 0H680V480H-40V0Z" fill="#165D31" style="fill:#165D31;fill:color(display-p3 0.0863 0.3647 0.1922);fill-opacity:1;"/>
<path id="Vector_3" fill-rule="evenodd" clip-rule="evenodd" d="M141.406 136.031C140.656 147.281 139.531 166.969 149.188 169.031C160.719 170.156 154.344 149.531 158.563 145.781C159.313 143.906 160.719 143.906 160.813 146.25V163.781C160.813 169.406 164.563 171.094 167.375 172.219C170.375 172.031 172.438 172.219 173.563 175.031L175.063 205.313C175.063 205.313 182 207.375 182.375 188.344C182.656 177.094 180.125 167.813 181.625 165.656C181.625 163.5 184.438 163.406 186.313 164.438C189.313 166.5 190.625 169.125 195.313 168.188C202.438 166.125 206.75 162.656 206.844 157.219C206.703 151.875 205.591 146.602 203.563 141.656C203.938 140.719 202.25 138.188 202.625 137.25C203.844 139.313 205.813 139.125 206.188 137.25C204.969 133.313 203.094 129.469 200.094 127.875C197.563 125.625 193.813 126 192.594 130.688C191.844 136.031 194.469 142.313 198.313 147.563C199.156 149.531 200.281 152.906 199.813 155.906C197.688 157.031 195.719 156.656 193.906 154.781C193.906 154.781 188.281 150.563 188.281 149.531C189.781 139.969 188.563 138.844 187.719 136.125C187.156 132.469 185.375 131.25 183.969 128.813C182.563 127.313 180.688 127.313 179.75 128.813C177.219 133.125 178.438 142.406 180.219 146.625C181.531 150.469 183.5 152.906 182.563 152.906C181.813 155.063 180.219 154.5 179 151.969C177.632 146.641 176.97 141.157 177.031 135.656C176.563 131.344 176 122.156 173.094 119.719C171.406 117.469 168.875 118.594 167.938 120.656C167.688 124.844 167.782 129.046 168.219 133.219C170.094 140.156 170.75 146.344 171.688 153.375C171.969 162.844 166.25 157.5 166.531 152.719C167.761 146.708 167.665 140.501 166.25 134.531C165.313 132.094 164.281 131.531 161.938 131.906C160.156 131.906 155.563 136.875 154.25 145.313C154.25 145.313 153.125 149.625 152.656 153.469C152 157.781 149.188 160.969 147.125 152.906C145.438 147 144.313 132.656 141.5 136.031H141.406Z" fill="white" style="fill:white;fill-opacity:1;"/>
<path id="Vector_4" fill-rule="evenodd" clip-rule="evenodd" d="M172.812 182.062L142.812 196.5C143.094 189.656 156.969 177.375 166.531 177.281C172.625 177.375 171.125 179.625 172.719 182.062H172.812Z" fill="white" style="fill:white;fill-opacity:1;"/>
<path id="Vector_5" fill-rule="evenodd" clip-rule="evenodd" d="M167.469 191.438C151.719 232.219 204.5 237.938 210.406 193.125C210.969 191.25 213.219 189.469 213.594 192.469C212.375 233.063 172.719 235.781 165.969 223.031C164.383 218.644 163.589 214.009 163.625 209.344C162.688 201.375 158.469 204.469 157.813 212.344C157.156 216.75 157.344 217.969 157.344 222.188C159.406 254.25 210.5 240.469 218.844 214.031C223.25 199.406 218.094 188.625 220.438 188.625C225.5 194.063 232.625 189.375 234.219 187.5C234.875 186.563 236.563 185.906 237.688 187.125C241.625 189.938 248.563 188.625 250.063 183.656C250.938 178.656 251.5 173.594 251.75 168.469C248.469 169.406 246.125 170.063 245.844 171.469L245.188 175.781C244.906 177.188 242.188 177.188 242 175.406C240.781 169.781 235.719 169.125 232.625 177.75C230.656 179.438 226.906 179.813 226.531 177.281C227 171.469 224.656 170.719 219.969 173.438L215.469 139.5C217.344 139.5 219.219 140.906 221 138.656C219.125 132.563 214.906 120.188 212.563 119.25C211.531 117.938 210.594 118.781 209.094 119.156C206.656 119.906 204.406 121.969 205.156 126.094C207.969 143.719 209.844 157.125 212.75 174.844C213.219 176.813 211.531 179.531 209.281 179.25C205.531 176.719 204.594 171.563 198.031 171.75C193.344 171.75 188.094 176.906 187.438 181.781C186.594 185.719 186.313 189.938 187.438 193.313C190.719 197.25 194.656 196.875 198.125 196.031C200.938 194.813 203.281 192 204.313 192.656C204.969 193.5 204.406 202.875 190.906 210C182.75 213.75 176.188 214.5 172.719 207.844C170.563 203.625 172.906 187.781 167.469 191.438Z" fill="white" style="fill:white;fill-opacity:1;"/>
<path id="Vector_6" fill-rule="evenodd" clip-rule="evenodd" d="M234.688 150C237.781 148.875 252.781 131.625 252.781 131.625L250.531 129.75C249.719 129.063 249.719 128.375 250.531 127.688C254.281 125.438 253.063 120.75 251.188 118.5C249.909 117.9 248.511 117.597 247.099 117.613C245.686 117.63 244.296 117.965 243.031 118.594C240.406 121.125 239.844 125.156 241.906 127.594C243.875 128.531 245.844 130.594 244.531 131.719C238.344 138.281 221.563 149.625 223.531 150C223.906 150.563 234.312 150.563 234.594 150H234.688ZM143.75 210.938C138.125 219.938 137.656 233.344 140.75 237.375C142.438 239.25 145.156 240.094 147.125 239.438C150.688 237.938 152.281 230.719 151.438 228.188C150.313 226.313 149.188 226.094 148.063 227.531C145.625 232.594 144.594 229.125 144.313 226.313C144.044 221.549 144.295 216.771 145.063 212.063C145.719 208.125 145.063 209.25 143.75 210.938ZM384.781 196.594C379.344 184.781 371.75 173.156 369.406 168.75C362.1 157.201 354.344 145.942 346.156 135C340.344 128.063 355.719 137.906 344.281 124.031L335.938 117C334.063 115.688 329.562 113.25 328.812 117.188C328.437 120.75 328.625 122.625 329.187 125.531C329.656 127.406 332.469 130.688 333.875 132.563C353.095 158.02 369.976 185.161 384.313 213.656C386.75 212.438 386.188 198.563 384.781 196.594Z" fill="white" style="fill:white;fill-opacity:1;"/>
<path id="Vector_7" fill-rule="evenodd" clip-rule="evenodd" d="M360.875 235.781C359.75 237 363.5 242.156 368.375 242.156C376.437 241.219 383.562 236.719 390.125 224.719C392.792 220.727 394.493 216.169 395.094 211.406C395.888 188.648 394.063 165.873 389.656 143.531C389.375 141.656 389.656 139.406 389.844 138.844C390.406 138.188 392.187 138.844 393.125 137.25C394.531 135.844 389.375 124.125 386.562 119.719C385.625 117.656 385.156 116.344 383.469 119.906C381.432 123.837 380.463 128.234 380.656 132.656C384.5 159.375 385.719 182.719 388.156 209.438C388.437 212.063 388.062 215.813 386.281 217.313C379.211 225.193 370.552 231.487 360.875 235.781ZM470.094 235.688C464.281 239.063 464.281 242.906 468.969 243C477.031 242.063 486.594 241.406 493.156 231.469C495.474 226.788 496.814 221.684 497.094 216.469C498.274 194.061 496.795 171.591 492.687 149.531C492.5 147.656 491.656 143.25 491.937 142.688C492.5 141.375 495.125 142.781 496.062 141.281C497.375 139.875 489.219 129.375 486.312 124.875C485.375 122.813 485 121.5 483.219 125.063C481.312 129.024 480.72 133.491 481.531 137.813C485.844 166.875 489.031 188.625 489.687 214.313C489.312 216.75 489.219 218.063 488.094 221.156C485.562 224.344 482.75 228.469 480.125 230.438C477.5 232.313 471.875 234.188 470.094 235.688Z" fill="white" style="fill:white;fill-opacity:1;"/>
<path id="Vector_8" fill-rule="evenodd" clip-rule="evenodd" d="M474.406 209.719C474.469 202.906 474.437 196.969 474.312 191.906C474.252 187.539 473.295 183.231 471.5 179.25C469.812 175.406 470.844 172.312 470 168.187C469.25 164.062 469.437 157.875 468.312 153.094C467.937 151.219 467 145.125 467.281 144.469C467.75 143.156 469.531 144.469 470.469 142.969C471.781 141.562 465.781 126.094 462.781 121.687C461.75 119.719 459.687 120.375 457.344 123.562C455 125.719 455.844 130.5 456.781 135.094C462.5 165.375 466.906 192.844 465.969 221.625C465.594 224.062 474.406 214.312 474.406 209.719ZM431.562 172.219C427.906 172.031 420.312 165 418.062 160.969C417.694 159.983 417.537 158.932 417.602 157.882C417.666 156.832 417.951 155.808 418.437 154.875C419.844 153.937 421.906 153 423.5 153.937C423.5 153.937 425.094 156.187 424.812 156.469C426.687 157.406 427.625 156.937 427.812 156.094C427.906 154.687 427.25 153.844 427.25 152.344C428.094 148.031 432.875 147.375 434.75 150.094C436.062 151.781 436.625 155.25 436.719 157.594C436.719 158.812 434.844 157.406 433.625 157.594C432.594 157.969 432.312 159.281 432.219 160.406C432.031 163.5 431.656 168.469 431.562 172.125V172.219ZM364.25 217.219C365.187 208.031 363.875 191.625 363.781 186.187C363.28 172.203 362.122 158.25 360.312 144.375C359.187 136.5 363.5 145.219 362.937 140.625C361.531 132.844 357.219 127.5 352.062 120.469C350.469 118.125 350.469 117.656 347.937 121.031C345.125 127.312 347.562 131.719 348.312 136.687C351.969 152.812 354.125 167.625 355.156 182.344C356.237 197.633 356.362 212.976 355.531 228.281C358.344 228.375 362.656 223.875 364.25 217.219Z" fill="white" style="fill:white;fill-opacity:1;"/>
<path id="Vector_9" fill-rule="evenodd" clip-rule="evenodd" d="M486.875 202.5C480.406 191.625 470.75 180 468.125 175.594C459.432 163.454 450.301 151.633 440.75 140.156C432.781 131.719 444.5 138.75 439.25 132.187C434.844 127.406 433.625 125.812 429.781 122.906C427.906 121.687 426.781 119.344 426.031 123.375C425.732 126.867 425.67 130.375 425.844 133.875C425.844 135.469 427.531 138.562 429.031 140.437C448.438 164.344 469.719 188.719 486.781 219.375C489.219 218.156 488.375 204.375 486.781 202.5H486.875Z" fill="white" style="fill:white;fill-opacity:1;"/>
<path id="Vector_10" fill-rule="evenodd" clip-rule="evenodd" d="M194.938 182.531C194.469 183.375 193.438 184.406 193.813 185.438C194.438 186.313 195.25 186.719 196.25 186.656C197.281 186.656 198.781 186.938 199.063 186.375C199.688 185.625 199.875 184.594 199.625 183.281C198.5 180.469 195.5 181.594 194.938 182.531Z" fill="#165D31" style="fill:#165D31;fill:color(display-p3 0.0863 0.3647 0.1922);fill-opacity:1;"/>
<path id="Vector_11" fill-rule="evenodd" clip-rule="evenodd" d="M412.063 339.844C420.688 340.219 426.312 340.312 433.906 341.156L442.906 340.219C452.844 339.281 453.219 354.375 453.219 354.375C453.219 363.281 449.75 363.75 445.344 364.687C442.813 365.062 441.594 363.187 440.188 361.312C438.067 361.992 435.809 362.121 433.625 361.687C430 361.562 426.406 361.406 422.844 361.219C419.094 360.937 417.031 361.687 413.187 361.312C412.437 362.531 411.312 364.219 409.062 363.75C407.187 363.469 404.844 358.125 405.5 353.906C406.906 350.906 406.438 351.937 406.438 350.625C371.188 349.687 335.656 348.094 301.156 348.562C274.156 348.656 247.531 349.781 220.812 350.906C206.562 350.719 195.687 348.469 188.188 337.5C188.937 337.5 224.562 339.469 234.969 338.812C254.187 338.625 271.812 337.031 291.406 336.469C330.031 337.125 368.375 337.125 407 339.844C403.25 337.312 403.25 331.406 408.875 329.906C409.344 329.531 409.625 332.812 410.469 332.719C415.062 332.437 413 338.625 412.063 339.844ZM256.812 126.844C251 143.531 260.187 161.906 266.562 160.125C271.25 162 274.062 153.187 275.937 143.625C277.344 140.906 278.281 140.625 278.937 142.031C278.75 154.781 279.875 157.687 283.156 161.531C290.469 167.156 296.562 162.281 297.031 161.812L302.656 156.094C304.031 154.719 305.625 154.625 307.437 155.812C309.219 157.406 308.937 160.125 312.687 162C315.875 163.312 322.531 162.375 324.125 159.656C326.187 156 326.75 154.781 327.688 153.469C329.188 151.5 331.719 152.344 331.719 153C331.437 154.125 329.938 155.156 330.969 157.219C332.844 158.531 333.219 157.687 334.25 157.406C338 155.531 340.813 147.469 340.813 147.469C340.906 144.469 339.219 144.656 338.094 145.406L335.188 147.375C333.313 147.656 329.844 148.875 328.063 146.156C326.281 142.969 326.281 138.375 324.969 135.094C324.969 134.906 322.531 129.937 324.781 129.656C325.906 129.844 328.25 130.5 328.625 128.531C329.75 126.562 326.187 121.031 323.656 118.219C321.5 115.875 318.5 115.594 315.594 118.031C313.531 119.906 313.812 121.969 313.437 123.937C313.097 125.349 313.089 126.821 313.414 128.236C313.74 129.652 314.39 130.972 315.312 132.094C317.375 136.031 321.031 141.187 319.812 148.5C319.812 148.5 317.656 151.875 313.906 151.406C312.312 151.125 309.781 150.469 308.469 140.344C307.437 132.844 308.656 122.156 305.469 117.187C304.25 114.094 303.406 111.187 300.594 116.344C299.844 118.406 296.562 121.5 298.906 127.781C301.124 133.441 301.772 139.596 300.781 145.594C299.375 147.656 299.094 148.312 297.312 150.281C294.875 153.094 292.156 152.344 290.094 151.312C288.219 150.094 286.719 149.437 285.781 145.219C285.969 138.656 286.344 127.875 285.125 125.625C283.344 122.062 280.437 123.375 279.219 124.5C273.654 130.704 269.922 138.331 268.437 146.531C266.75 151.969 264.969 150.375 263.75 148.219C260.75 145.406 260.469 123.187 256.812 126.844Z" fill="white" style="fill:white;fill-opacity:1;"/>
<path id="Vector_12" fill-rule="evenodd" clip-rule="evenodd" d="M274.437 163.219C277.156 161.344 275.937 160.031 279.875 163.969C284.957 172.961 287.908 183 288.5 193.313C288.312 195.75 290 197.25 290.844 196.688C291.219 191.063 305 183.188 317.656 182.063C319.531 181.594 318.594 177.938 318.875 176.063C318.125 169.031 322.812 162.656 329.375 162.188C338.375 163.5 341.375 168.281 341.562 175.5C340.531 189.563 325.906 191.906 317.75 193.031C316.531 193.5 315.969 194.063 317.75 194.719L352.062 194.906L353.844 195.844C354.031 196.781 353.281 196.031 351.969 198.281C350.093 201.603 348.913 205.271 348.5 209.063C338.281 212.438 327.687 213.75 317 215.156C313.25 217.031 311.375 219.563 312.125 222.375C313.437 225.469 321.687 228.656 321.687 228.75C323.281 229.688 325.062 232.031 321.219 236.813C304.531 236.063 291.5 228.938 287 218.906C285.687 217.875 284.187 218.906 283.25 220.219C276.687 228.656 270.312 236.156 259.156 240.281C252.594 241.969 245.75 239.25 242.562 234.938C240.406 232.406 240.5 229.688 239.75 229.125C236.094 230.719 205.156 243.844 209.094 237.656C216.594 229.688 229.719 223.688 241.156 215.813C242 213.094 243.5 204.094 248 201.188C248.281 201.188 247.344 206.438 247.437 208.688C247.437 210.563 247.25 211.219 247.625 210.75C248.469 210.281 262.344 199.313 263.562 195.938C264.875 194.063 263.844 189.188 263.844 189C261.219 182.25 257.562 181.688 256.25 178.313C255.031 173.906 255.594 168.844 258.125 167.344C260.437 165.406 262.906 165.563 265.531 167.813C268.344 170.344 270.781 175.313 271.531 178.969C271.062 180.375 267.781 178.031 266.844 178.688C268.648 180.761 269.848 183.291 270.312 186C272.187 193.688 271.625 196.688 269.75 201.656C263.562 214.688 255.687 218.531 248.75 223.406C248.562 223.406 248.469 226.688 251 228.469C251.937 229.406 255.594 229.875 259.812 228.469C268.807 223.44 276.089 215.832 280.719 206.625C281.515 199.606 280.747 192.499 278.469 185.813C275.75 179.531 272.562 170.625 272.562 170.438C272.469 166.5 272.75 165.188 274.437 163.219ZM184.625 127.031C188.562 128.906 196.062 128.063 195.687 121.688L195.5 118.781C194.75 116.906 192.5 117.375 192.031 119.25C191.844 119.906 192.312 120.938 191.75 121.219C191.375 121.594 190.156 121.406 190.156 119.625C190.094 119 189.875 118.5 189.5 118.125C189.375 118 189.094 117.938 188.656 117.938C188.094 117.938 188.094 118.031 187.812 118.5C187.687 118.938 187.594 119.438 187.531 120C187.469 120.563 187.219 120.875 186.781 120.938C186.219 120.938 186.312 120.938 185.844 120.75C185.594 120.563 185.437 120.25 185.375 119.813L185.094 118.313C184.906 118.063 184.594 117.875 184.156 117.75C182 117.75 181.813 120.281 182 121.219C181.813 121.406 181.719 125.813 184.625 127.031Z" fill="white" style="fill:white;fill-opacity:1;"/>
<path id="Vector_13" fill-rule="evenodd" clip-rule="evenodd" d="M300.406 175.969C304.344 177.844 313.812 176.812 311.469 170.719L311.281 167.719C310.437 165.844 308.281 166.312 307.812 168.281C307.625 168.844 308.094 169.875 307.437 170.156C307.156 170.531 305.844 170.344 305.937 168.656C305.875 168.031 305.656 167.5 305.281 167.062C305.094 166.937 304.781 166.875 304.344 166.875C303.875 166.875 303.875 167.062 303.594 167.531C303.406 167.969 303.312 168.469 303.312 169.031C303.187 169.531 302.906 169.844 302.469 169.969C302 169.969 302.094 169.969 301.719 169.687C301.406 169.5 301.219 169.219 301.156 168.844L300.875 167.344C300.687 167.031 300.375 166.844 299.937 166.781C297.781 166.781 297.594 169.219 297.687 170.156C297.594 170.344 297.5 174.844 300.5 175.969H300.406ZM367.906 155.719C371.844 157.594 379.25 156.75 378.969 150.469L378.781 147.469C377.937 145.594 375.781 146.062 375.312 147.937C375.125 148.594 375.594 149.625 374.937 150C374.656 150.281 373.344 150.094 373.437 148.312C373.375 147.687 373.156 147.187 372.781 146.812C372.594 146.687 372.281 146.625 371.844 146.625C371.406 146.625 371.156 146.844 371.094 147.281L370.812 148.687C370.75 149.312 370.469 149.625 369.969 149.625C369.219 149.625 369.594 149.625 369.219 149.437C368.906 149.25 368.719 148.969 368.656 148.594C368.656 147.969 368.562 147.437 368.375 147C368.125 146.75 367.812 146.594 367.437 146.531C365.281 146.531 365.094 148.969 365.187 149.906C365.094 150.094 365 154.5 368 155.719H367.906ZM402.875 206.625C396.031 214.406 399.031 227.25 400.625 230.062C402.875 234.562 404.656 237.469 409.062 239.719C413.094 242.625 416.281 240.844 417.969 238.781C422 234.562 422.094 223.781 423.969 221.719C425.281 217.781 428.656 218.437 430.25 220.219C431.756 222.322 433.75 224.027 436.062 225.187C439.812 228.469 444.312 229.125 448.812 226.125C451.812 224.344 453.781 222.187 455.562 217.781C457.437 212.531 456.5 188.156 456.031 173.719L452.094 153.562C452.094 153.375 451.625 144 451.156 141.844C451.156 140.906 450.875 140.625 451.812 140.719C452.844 141.656 452.937 141.656 453.687 141.937C454.625 142.125 455.562 140.344 454.906 138.844L445.531 121.406C444.781 120.656 443.75 119.906 442.531 121.594C441.797 122.233 441.215 123.027 440.826 123.918C440.436 124.81 440.251 125.777 440.281 126.75C440.656 130.937 441.062 135.094 441.5 139.219L445.25 160.406C446.469 175.406 446.75 187.781 447.969 202.875C447.781 209.25 445.812 214.781 443.937 215.625C443.937 215.625 441.125 217.219 439.25 215.437C437.844 214.875 432.312 206.156 432.312 206.156C429.5 203.625 427.625 204.281 425.656 206.156C420.031 211.594 417.594 221.531 413.75 228.469C412.812 230.062 410 231.281 407 228.375C399.312 217.781 403.812 202.781 402.875 206.625ZM369.687 118.781C373.25 120.187 375.687 127.406 374.937 130.969C374.187 135.187 372.312 139.875 371 139.312C369.5 138.75 371.937 135 370.531 131.062C369.781 128.437 364.906 123.75 365.469 122.437C364.531 119.531 367.531 118.219 369.687 118.687V118.781Z" fill="white" style="fill:white;fill-opacity:1;"/>
<path id="Vector_14" fill-rule="evenodd" clip-rule="evenodd" d="M414.312 210.938C414.969 202.313 413.75 197.063 413.562 192C413.375 186.938 407.844 148.313 406.719 144.563C405.312 137.25 412.062 143.625 411.312 139.313C408.969 134.063 403.25 126.281 401.469 121.688C400.344 119.813 400.812 117.938 398.375 121.219C396.266 126.969 395.528 133.133 396.219 139.219C402.031 169.5 407.937 194.625 407 223.406C409.812 223.406 412.906 217.125 414.312 210.938ZM474.687 130.969C477.969 132.563 479.844 141.563 479.469 144.094C478.812 148.781 477.125 153.844 475.906 153.188C474.5 152.625 476.187 146.25 475.531 144.281C474.781 141.469 470.375 136.406 470.844 134.906C469.906 131.719 472.719 130.406 474.687 130.969ZM234.969 194.625C238.062 195.844 239.937 202.406 239.656 204.281C238.906 207.75 237.312 211.5 236.094 210.938C234.875 210.563 236.375 205.875 235.812 204.375C235.531 200.906 231.219 199.031 231.312 197.531C230.562 194.719 233.187 194.25 235.062 194.625H234.969Z" fill="white" style="fill:white;fill-opacity:1;"/>
<path id="Vector_15" fill-rule="evenodd" clip-rule="evenodd" d="M309.594 204.563C313.531 204.75 315.5 207.938 311.844 209.25C308.094 210.469 304.625 211.5 304.531 216.75C305.938 224.25 302.656 221.625 300.781 220.688C298.531 219 292.156 215.062 291.219 206.625C291.125 204.656 292.719 202.875 295.25 202.875C299 203.906 304.625 204 309.594 204.563Z" fill="#165D31" style="fill:#165D31;fill:color(display-p3 0.0863 0.3647 0.1922);fill-opacity:1;"/>
<path id="Vector_16" fill-rule="evenodd" clip-rule="evenodd" d="M152.563 116.625C157.063 117.937 157.344 124.687 157.063 126.656C156.406 130.219 154.813 134.062 153.688 133.594C152.375 133.125 153.688 128.25 153.031 126.75C152.375 124.687 148.531 120.75 148.906 119.625C148.063 117.281 150.781 116.156 152.563 116.625ZM242.469 148.125C238.906 150 237.594 155.625 239.75 159C241.813 161.812 245 160.781 245.375 160.781C248.844 161.156 250.906 154.312 250.906 154.312C250.906 154.312 251 152.437 246.969 156.094C245.188 156.375 245.094 155.719 244.625 154.781C244.196 152.996 244.36 151.12 245.094 149.437C245.75 147.75 244.438 147 242.469 148.125ZM268.719 114C266.844 115.219 263.375 118.875 263.281 123C263.188 125.344 262.719 125.344 264.219 126.75C265.438 128.437 266.469 128.344 268.719 127.125C269.283 126.776 269.767 126.312 270.139 125.763C270.511 125.213 270.762 124.591 270.875 123.937C271.438 121.312 268.063 125.25 267.688 122.25C266.938 119.437 269.094 118.312 271.156 115.687C271.156 113.812 271.156 112.594 268.625 114H268.719ZM289.719 117.75C288.895 121.164 288.393 124.648 288.219 128.156C287.656 130.781 291.031 131.906 292.438 128.531C294.688 122.437 294.688 119.812 294.875 117.281C294.219 113.25 291.5 113.344 289.719 117.75ZM422.844 185.531C423.219 185.062 441.594 172.031 441.594 172.031C443.469 171.375 443 178.781 442.156 178.687C436.456 184.177 429.902 188.705 422.75 192.094C421.813 192.75 420.969 187.125 422.75 185.531H422.844ZM439.437 185.344C442.719 186.937 444.031 196.406 443.656 198.937C443.656 204 440.563 207.937 439.25 207.375C437.938 206.719 439.438 201.094 438.781 199.125C438.031 196.312 435.313 191.156 435.781 189.656C434.844 186.469 437.469 184.781 439.531 185.344H439.437ZM330.688 226.031C332.208 224.256 333.976 222.709 335.938 221.437C337.813 220.5 339.5 222.187 339.406 222.094C339.688 223.969 338.281 225.562 338.75 228C339.125 228.937 339.406 230.062 341.188 229.687C344.094 227.344 346.813 227.156 349.625 227.062C351.969 227.156 352.063 231 350.563 231C345.219 232.125 342.875 233.625 339.031 235.031C337.156 236.156 335.656 234.75 335.656 234.656C335.656 234.562 334.625 233.625 335.281 231.187C335.469 229.187 334.719 228.25 333.031 228.375C331.906 229.125 330.781 229.5 330.219 228.094C329.844 227.219 330 226.531 330.688 226.031ZM458.75 231.094C459.5 232.031 460.062 232.969 458.656 234.656L455.188 237.656C454.625 238.594 454.25 240.281 456.125 240.75C459.5 241.687 467.375 236.531 467.375 236.437C468.688 235.5 468.313 233.625 468.125 233.625C467.375 232.781 465.688 233.344 464.563 233.156C464 233.156 462.219 232.969 463.063 231.281C463.697 230.456 464.203 229.539 464.563 228.562C465.125 227.5 464.5 226.656 462.688 226.031C460.719 225.656 459.875 225.844 457.719 226.031C456.719 226.156 456.125 226.875 455.938 228.187C456.031 230.344 457.344 230.25 458.75 231V231.094Z" fill="white" style="fill:white;fill-opacity:1;"/>
<path id="Vector_17" fill-rule="evenodd" clip-rule="evenodd" d="M331.344 177.844C330.875 178.781 329.188 178.781 327.594 177.844C326 176.906 325.063 175.406 325.625 174.562C326.188 173.719 327.781 173.719 329.375 174.562C330.969 175.406 331.813 177 331.344 177.844ZM247.906 127.594C246.969 127.875 245.656 127.031 245.094 125.719C244.531 124.406 244.813 123.281 245.75 123C246.688 122.719 247.906 123.656 248.563 124.875C249.219 126.094 248.844 127.406 247.813 127.687L247.906 127.594ZM413 351.562C421.813 351.937 430.063 351.562 438.781 352.031C440.375 353.437 439.25 356.719 438.219 356.531L430.906 356.25C430.813 353.437 423.688 353.906 423.875 356.344C420.031 356.812 416.563 356.25 412.625 356.062C411.5 354.656 411.688 352.125 413 351.562Z" fill="#165D31" style="fill:#165D31;fill:color(display-p3 0.0863 0.3647 0.1922);fill-opacity:1;"/>
</g>
</g>
</g>
</g>
<defs>
<clipPath id="clip0_2194_8409">
<rect width="640" height="480" fill="white" style="fill:white;fill-opacity:1;"/>
</clipPath>
</defs>
</svg>
