<svg width="640" height="480" viewBox="0 0 640 480" fill="none" xmlns="http://www.w3.org/2000/svg">
<g id="sh-hl" clip-path="url(#clip0_2194_9087)">
<path id="Vector" d="M640 480V0H0V480H640Z" fill="#000066" style="fill:#000066;fill:color(display-p3 0.0000 0.0000 0.4000);fill-opacity:1;"/>
<path id="Vector_2" d="M0 0H320V240H0V0Z" fill="#012169" style="fill:#012169;fill:color(display-p3 0.0039 0.1294 0.4118);fill-opacity:1;"/>
<path id="Vector_3" d="M37.5 0L159.5 90.5L281 0H320V31L200 120.5L320 209.5V240H280L160 150.5L40.5 240H0V210L119.5 121L0 32V0H37.5Z" fill="white" style="fill:white;fill-opacity:1;"/>
<path id="Vector_4" d="M212 140.5L320 220V240L184.5 140.5H212ZM120 150.5L123 168L27 240H0L120 150.5ZM320 0V1.5L195.5 95.5L196.5 73.5L295 0H320ZM0 0L119.5 88H89.5L0 21V0Z" fill="#C8102E" style="fill:#C8102E;fill:color(display-p3 0.7843 0.0627 0.1804);fill-opacity:1;"/>
<path id="Vector_5" d="M120.5 0V240H200.5V0H120.5ZM0 80V160H320V80H0Z" fill="white" style="fill:white;fill-opacity:1;"/>
<path id="Vector_6" d="M0 96.5V144.5H320V96.5H0ZM136.5 0V240H184.5V0H136.5Z" fill="#C8102E" style="fill:#C8102E;fill:color(display-p3 0.7843 0.0627 0.1804);fill-opacity:1;"/>
<path id="Vector_7" d="M581.1 197C580.9 264.8 570.1 338 481.7 372.8C393.2 337.9 382.4 264.8 382.2 197H581.1Z" fill="#128BBF" style="fill:#128BBF;fill:color(display-p3 0.0706 0.5451 0.7490);fill-opacity:1;"/>
<path id="Vector_8" d="M481.7 372.8C521.7 357 546.7 331.2 561 303.8C558.8 303 554.2 302.9 552.4 303.6C550.2 303.4 466.9 297.3 457.1 293.7C448.5 290.7 416.1 296.4 400.9 301.7C415 331 439.5 356.2 481.7 372.7V372.8Z" fill="#E8ECE9" style="fill:#E8ECE9;fill:color(display-p3 0.9098 0.9255 0.9137);fill-opacity:1;"/>
<path id="Vector_9" d="M419.8 330.7C421.2 330.3 423.8 330.4 424.8 330.5C426 330.8 426.2 330.9 426.6 329.5C427 328.3 428 328.6 428.8 329.2C429.5 329.9 431.5 329.6 432.3 328.5C432.9 327.567 433.467 327.5 434 328.3C434.8 329 435 328.8 435.9 328.6C436.6 328.4 437.9 327.6 438.6 326.3C439.2 325.1 440.2 324.7 440.7 325.3C441.233 325.967 441.867 326.3 442.6 326.3C443.4 326.1 443.6 326.9 443.5 327.8C443.4 328.7 443.8 329 445.6 327.5C447.3 329.1 447.8 328.5 447.8 326.8C447.847 323.77 447.511 320.746 446.8 317.8C446.1 316.9 445.4 314.5 445.3 312.5C445.1 308.8 445.1 308.6 440.6 306.4C440.6 305.1 440.3 304.5 437.2 304.7C437.2 304.3 436.7 303 436.1 302.5C435.5 302 435.3 301.7 435.6 300.2C436.9 300.3 438.4 300.1 439.1 299C439.8 297.9 442.4 298.2 443.9 298.8C445.3 299.467 447.433 299.567 450.3 299.1C451.5 298.3 453.167 297.333 455.3 296.2C457.2 295.2 457.7 294.7 457.8 293.2C458.1 289.3 456.8 284.9 455.7 282.8C454.6 280.7 454.2 278.2 452.7 274.9C451.1 271.4 451.1 270.5 449.2 268.4C448.7 267.8 448.2 267.3 448 266.1C447.926 264.587 447.283 263.158 446.2 262.1C442.9 259.1 441.6 249.5 440.3 242.3C439.6 238.3 440.1 228.6 438.3 227.1C435.4 224.7 434 225.1 432 224.4C430.6 222.4 430 218.6 428.7 215.1C426.7 215.5 425.2 217.6 423.7 218.4C422.4 219.1 422.1 219.1 422.1 221.1C422.1 223.1 421.1 225.7 419.1 228.7C417.1 231.7 413.9 230.9 411.1 235.4C405.1 228.2 405.1 226.1 404.6 224.1C404.1 222.1 403.2 221.6 399.8 218.7C399.8 217.8 399.4 214.4 399.8 212.4C397.2 210.4 395.4 210.7 394.2 212.2C393 213.7 392.2 216 390.2 216.9C389.2 218.3 385.8 221.8 383.1 225.9C385.6 263.6 394.1 300.9 419.8 330.7Z" fill="#69522B" style="fill:#69522B;fill:color(display-p3 0.4118 0.3216 0.1686);fill-opacity:1;"/>
<path id="Vector_10" d="M581.1 197C581.2 171.4 579.8 146.6 580.4 124.9C547.4 110.2 503.8 107.2 481.7 107.2C459.6 107.2 415.9 110.2 382.9 124.9C383.5 146.6 382.1 171.4 382.2 196.9L581.1 197Z" fill="#BCA76B" style="fill:#BCA76B;fill:color(display-p3 0.7373 0.6549 0.4196);fill-opacity:1;"/>
<path id="Vector_11" d="M387.6 226.6C388.6 228.3 390.6 231.3 390.8 232.9C391.6 231.3 392.2 230.6 392.3 229.7C392.4 228.8 393.6 226.7 393.3 225.7C392.8 224.7 392.5 223.9 393.6 224.7C394.8 225.4 394.6 226.7 394.4 228.7C393.6 234 391.4 235.1 391.1 238.7C394.3 246.1 391.9 248.8 395.4 256.2C395.9 256.5 397.4 255.9 397.8 256C399.7 254.7 401 255.2 403.7 255.7C406.3 256.3 407.7 258.1 407.7 259.7C407.7 261.3 407.7 261.7 408.2 262.7C408.7 263.7 409.9 265.2 409.6 266.3C409.4 267.3 409.9 268 410.2 268.6C410.5 269.2 410.1 270.3 409.7 271.1C409.233 271.767 409.6 272.867 410.8 274.4C412.1 276 415.2 282.8 415.2 286.8C415.2 290.8 415.4 292.7 417 293.4C418.7 294.2 419.2 294.8 419 296.5C418.8 298.2 419.8 307.2 420 308.6C420.2 310 420.7 309.7 421.4 310.5C422.1 311.3 422.4 312.1 424.6 312.1C426.8 312.1 428.9 311.8 430.3 312.1C432.3 314.7 433.5 318.4 433.9 320.6C434.4 322.9 434.3 326 435.1 326C435.9 326 436.6 326.1 436.4 323.3C436.2 320.5 436 320.1 435 318.7C434 317.3 433.5 316.7 434 315.7C434.506 314.678 434.647 313.513 434.4 312.4C434.2 311.4 433.9 309.7 435.7 311.9L438.7 315.3C439.167 316.233 439.367 317.4 439.3 318.8C439.233 320.133 439.533 320.533 440.2 320C441 319.3 441.9 320.4 441.5 321.8C441.1 323.2 441.567 324.1 442.9 324.5C444.167 324.833 444.9 325.4 445.1 326.2C445.4 327.2 446.5 327.6 446.5 325.7C446.5 323.7 445.8 319.7 445.2 318.3C444.7 317 444.2 314.3 444.2 312.6C444 311 443.7 310.6 442.9 310.2C442.1 309.933 441.6 309.4 441.4 308.6C441.3 307.9 440.6 307.6 440.2 307.6C439.667 307.6 439.267 307.267 439 306.6C438.733 306.2 438.367 306 437.9 306C437.3 306 436.5 306.3 436.2 305.4C435.9 304.5 435.5 303.4 435 302.6C434.5 301.8 434 301.7 433.9 299.3C433.9 296.9 433.8 296.5 433 295.7C432.3 294.8 431 292.5 430.4 291.6C429.9 290.6 429.4 289.6 429.4 291.6C429.4 293.7 429.4 294.8 430.6 295.6C431.9 296.3 432.3 296.3 431.7 297.4C431.2 298.4 431.7 299.2 431.9 300C432.2 300.7 432.6 301.5 431.9 302.3C431.2 303.1 430.6 302.8 430.7 301.6C430.7 300.267 430.433 299.067 429.9 298C429.3 297 428.9 296.4 428.2 297C427.6 297.5 427 296.9 427.5 296.4C427.833 296 427.833 295.667 427.5 295.4C427.167 295.133 427.167 294.7 427.5 294.1C428.1 293.4 428.1 293.1 427.8 291.6C427.5 290.1 425.1 282.5 424 280.8C422.9 279.1 423 277.8 424.4 279.5C425.8 281.2 427 282.7 427.2 284.1C427.267 285.433 427.533 286.367 428 286.9C428.467 287.5 428.8 287.233 429 286.1C429.2 284.9 430 285.3 428.6 283.1C427 280.8 424.2 277 423.1 270.1C422.1 263.4 421.6 258.9 420.5 257.1C419.5 255.1 419.1 254.8 419 253.1C418.9 251.4 419 249.6 418.2 248.3C417.5 247 416.9 246.8 416.8 248.7C416.8 250.7 416.9 255 417.5 255.7C418.1 256.4 417.7 258.4 417.5 259.5C417.5 260.5 415.8 261.7 419.3 263.8C420.7 264.7 420.5 265.8 420.3 266.6C420.233 267.467 419.833 267.3 419.1 266.1C418.367 264.9 417.6 263.967 416.8 263.3C416.1 262.6 415.9 262.2 416.1 260.7C416.1 259.2 416.5 258.1 416.1 257.6C415.7 257.1 415.4 257.5 415.1 258.3C415 259.2 414.8 261.6 414.3 262.2C413.967 262.867 413.633 262.467 413.3 261C412.967 259.533 413.3 257.533 414.3 255C415.195 252.326 415.368 249.462 414.8 246.7C414.1 243.4 414.4 242.4 411.9 239.7C409.4 237 406.6 234.5 405.4 231.1C404.2 227.7 404 224.8 402.7 223.3C401.465 221.732 399.978 220.38 398.3 219.3V214.3C398.367 213.1 397.7 212.533 396.3 212.6C395.033 213 394.033 214 393.3 215.6C392.3 217.3 391.7 216.6 390.5 219.3C389.3 222.2 387.5 223.6 387.5 226.6H387.6Z" fill="#CFA763" style="fill:#CFA763;fill:color(display-p3 0.8118 0.6549 0.3882);fill-opacity:1;"/>
<path id="Vector_12" d="M395.4 258.2C396.3 258.7 397.1 259.2 398.4 258.5C399.7 257.8 401.3 255.9 403 257.8C404.7 259.6 405.7 262.6 405.7 265C405.7 267.4 405.7 271.8 408.4 274.3C411.1 276.8 412.6 279.3 412.7 282.6C412.96 285.807 413.495 288.985 414.3 292.1C414.625 293.49 415.315 294.767 416.3 295.8C417.1 296.6 417.8 299.1 417.9 301.8C418 304.3 417.6 306.1 417.9 307.4C418.2 308.7 417.9 309.8 416.9 309.2C415.9 308.5 415.7 308.2 415.2 307.2C414.6 306 414 306.2 414.5 307.9C415 309.6 416.7 311 418.1 311C419.5 311 420 311.2 420.8 312C421.8 313 421.8 313.4 423.3 313.4C424.9 313.4 425.1 313.4 426.5 313.8C427.9 314.2 427.9 314 428.7 313.8C429.434 313.6 430.1 314.2 430.7 315.6C431.542 317.666 432.178 319.81 432.6 322C432.6 323 432.6 324.2 433.4 325.3C434.1 326.3 433.9 327.4 433 326.8C432.1 326.2 432.2 326.3 431.5 326.4C430.8 326.6 430.5 326.2 429.5 325.7C428.7 325.1 429.2 325.3 428.4 324C427.4 322.6 426.9 322.333 426.9 323.2C426.9 324.5 426.9 325.4 426.2 324.8C425.6 324.333 425.1 324.333 424.7 324.8C424.1 325.4 423.9 325.8 423.2 324.8C422.6 323.6 421.8 323.6 421.2 323.4C420.6 323.2 420.5 323.2 420.2 322.2C419.734 321.333 419 320.933 418 321C417.134 321 416.667 320.667 416.6 320C416.334 319.333 416 318.867 415.6 318.6C415.1 318.2 415.3 317.5 415.2 316.7C415.1 315.9 414.4 316.3 414 316.1C413.6 315.9 413.2 316 413.2 314.9C413.2 313.8 412.8 313.5 412.5 312.7C412.1 312 412.5 311.2 412.7 310.4C412.9 309.4 412.7 309 412.1 308.2C411.5 307.4 412.1 306.7 410.3 305.2C408.6 303.7 407.7 305 407.1 301.4C406.6 297.8 405.5 290.4 404.5 289.3C403.634 288.1 402.767 287.3 401.9 286.9C400.9 286.6 400.3 286.9 400.2 284.8C400.1 282.8 399.4 280.1 398.2 278.8L395.6 276.6C395 276 394.7 275 395.6 273.2C396.5 271.4 396.1 268.9 396 267.7C395.9 266.5 395.6 265 395.8 263.7C396 262.4 395.9 260.8 395.6 259.9C395.3 259 394.8 258.9 395.4 258.2Z" fill="#CFA763" style="fill:#CFA763;fill:color(display-p3 0.8118 0.6549 0.3882);fill-opacity:1;"/>
<path id="Vector_13" d="M428.5 317.3C427.8 318.6 427 318.1 426.4 317.5C425.8 316.9 425 316.8 425.3 315.6C425.6 314.4 425.5 314.2 424.7 313.6L424.3 313.4H423.3C421.8 313.4 421.7 312.9 420.8 312.1L420.3 311.6V312.4C420.3 313.6 420.3 313.4 419.1 313.7C417.9 314 418.1 312.5 417.9 311.5L417.7 311C416.4 310.7 415 309.3 414.5 307.9C414 306.3 414.6 306 415.2 307.1C415.8 308.2 415.9 308.5 416.9 309.1C417.9 309.7 418.2 308.7 417.9 307.4L417.8 306C417.6 305.6 417.267 305.267 416.8 305C415.1 304.3 415.6 304 415.8 302.7C415.867 301.367 415.4 301.133 414.4 302C413.467 302.8 413.067 302.067 413.2 299.8C413.4 296.4 411.8 297.6 411.5 299.1C411.2 300.6 410.6 299.7 410 297.5C409.4 295.3 408.4 294.8 408.3 296.9C408.3 298.633 407.733 299 406.6 298L407.1 301.4C407.7 305 408.6 303.7 410.3 305.2C412 306.7 411.5 307.4 412.1 308.2C412.767 308.867 412.967 309.6 412.7 310.4C412.5 311.2 412.1 312 412.5 312.7C412.8 313.5 413.2 313.8 413.2 314.9C413.2 315.9 413.6 315.9 414 316.1L414.9 316.2C415.1 315.8 415.367 315.467 415.7 315.2C417 313.8 419 315.2 419.7 316.8C420.367 318.533 421.133 318.8 422 317.6C423 316.3 422.7 316.6 423.8 317.7C424.8 318.9 425.3 318.7 425.3 318.7C425.3 318.7 426.3 318.2 427.2 318.9C427.9 319.5 428.4 319.4 429.8 317.4C431.2 315.4 429.1 316 428.5 317.3Z" fill="#D7C99C" style="fill:#D7C99C;fill:color(display-p3 0.8431 0.7882 0.6118);fill-opacity:1;"/>
<g id="Group">
<path id="Vector_14" d="M429.4 332.4C432 332.2 439.1 330.1 439.9 329.4C441.6 330.7 444.7 332.3 445.9 332.3C443.5 332.7 441.933 332.633 441.2 332.1C441.5 332.8 442.4 334 442.9 334.1C440.5 334 437.9 333.5 436.9 332.6C434.9 333.5 431.4 333.6 429.4 332.4ZM434.1 335.6C435.1 335.9 439.7 336.6 440.3 336.6C438.7 337.9 440 339.2 442.6 339C441.3 339.1 440 339.6 440.9 339.8C443.1 340.2 449.2 338.6 450.4 337.9C448.4 340.6 438.3 343 434.1 335.6ZM438.3 342.2C439.5 341.6 442.6 341.8 444.1 342.5C442.4 343.1 439.2 343.1 438.3 342.2Z" fill="#7FB8C1" style="fill:#7FB8C1;fill:color(display-p3 0.4980 0.7216 0.7569);fill-opacity:1;"/>
<path id="Vector_15" d="M443 342.1C445.2 341.7 451.5 343.2 453.7 341.9C452.9 343.9 449 344.1 447.6 343.7C446.2 343.3 444.9 342.7 444 342.8C444.5 342.5 443.7 342.5 443 342.1ZM445.2 345.1C446.9 345.4 452.9 344.7 454.8 344C456.8 344.6 460.6 345.7 461.5 345.5C459.6 346.7 456.1 346 454.9 345.5C453.368 346.195 451.697 346.529 450.015 346.477C448.334 346.425 446.686 345.988 445.2 345.2V345.1Z" fill="#7FB8C1" style="fill:#7FB8C1;fill:color(display-p3 0.4980 0.7216 0.7569);fill-opacity:1;"/>
<path id="Vector_16" d="M448.1 346.2C450.433 346.6 452.7 346.366 454.9 345.5C455.7 345.9 457.4 346.3 459.1 346.2C460.1 346.8 461.6 347.7 463.1 347.8C461.6 348.4 456.1 347.8 455.1 347.2C452.195 347.134 449.306 347.643 446.6 348.7C446.6 348 447 346.9 448.1 346.2ZM445.2 334C447.1 334.6 453.9 334.3 457.4 332.7C458.8 332.1 459.6 333.1 458 333.7C452.4 335.7 448 336.4 444.7 334.7C443.4 334 443.3 333.4 445.2 334ZM478.6 324.8C470.2 328.8 464.6 329.8 453 326.3C452 326 451.2 326.3 452.4 327.1C453.6 327.8 460 329.6 461.5 329.7C463.1 329.7 462.5 330.5 461.5 330.7C460.7 331 460.4 331.7 461.6 331.2C465.307 330.511 469.13 330.786 472.7 332C473.9 332.533 474.4 332.533 474.2 332C474.2 331.533 474.7 331.233 475.7 331.1C476.766 331.033 477 330.8 476.4 330.4C475.733 330.2 475.666 329.966 476.2 329.7C476.733 329.433 476.633 329.2 475.9 329C475.1 328.9 474.6 328.7 475.3 328.3C476.233 327.9 477.166 327.633 478.1 327.5C478.3 326.9 478 325.4 478.6 324.8Z" fill="#7FB8C1" style="fill:#7FB8C1;fill:color(display-p3 0.4980 0.7216 0.7569);fill-opacity:1;"/>
<path id="Vector_17" d="M464.7 325.8C469.5 326.1 478.3 324 483 319.4C484.6 320.4 486.9 321.4 488 321.7C489.3 321.9 490.4 323 488.5 323C486.6 323 484 322.2 482.9 321.7C476.6 325.5 469.4 326.7 464.8 326.3C463.5 326.3 463.2 325.7 464.7 325.8ZM457.1 312.3C456.5 312.4 453.7 313.1 452.9 313C452.2 313 451.4 313.2 451.5 313.7C451.5 314.2 451.7 314.6 450.5 314.5C449.5 314.3 448.5 314.8 448.2 315.1C447.9 315.4 447.7 315.8 448.9 315.9C450 315.9 450.6 316.1 451.9 315.5C453.2 314.9 454.5 314 455.9 313.9C457.3 313.9 458.7 312 457.1 312.3Z" fill="#7FB8C1" style="fill:#7FB8C1;fill:color(display-p3 0.4980 0.7216 0.7569);fill-opacity:1;"/>
<path id="Vector_18" d="M453.2 315.6C454.4 316.4 460.2 318.4 462.4 318.2C464.6 318 464.1 319.1 462.5 319.4C460.707 319.646 458.883 319.515 457.144 319.016C455.405 318.517 453.789 317.66 452.4 316.5C451 315.5 452.3 315.1 453.2 315.6Z" fill="#7FB8C1" style="fill:#7FB8C1;fill:color(display-p3 0.4980 0.7216 0.7569);fill-opacity:1;"/>
<path id="Vector_19" d="M481 318.5C476.6 319.9 472 319.5 470.1 318.9C468.3 318.5 466.6 318.3 467.8 319.5C469 320.7 473.1 321.5 475.4 320.9C467.3 322.8 465.2 322.6 463.2 322.3C460.743 322.019 458.264 321.986 455.8 322.2C454.6 322.2 452.9 322.2 452.2 321.7C451.5 321.2 451.3 320.4 453.4 320.7C455.5 320.9 455.8 320.4 454 320.2C452.1 319.9 449.6 320.7 452 322.2C454.6 323.8 460 322.2 463.5 323.1C466.601 323.926 469.856 323.994 472.989 323.298C476.122 322.602 479.041 321.162 481.5 319.1C481.8 318.9 482.5 318.1 481.1 318.5H481ZM470.6 314C469.6 314 468 313.5 467.1 313.1C466.2 312.7 465.1 312.7 465.9 313.9C466.9 315.2 470.9 315.9 472.3 315.3C473.7 314.7 473.1 314 474.5 314.9C475.9 315.8 477.5 316.3 478.5 316.3C479.5 316.3 479.9 316.3 478.7 315.7C477.567 315.233 476.967 314.767 476.9 314.3C476.9 313.8 476.6 313.5 477.7 313.8C478.7 314.1 479.9 314.8 480.7 314.3C481.5 313.8 483.1 312.9 484.4 312.9L484.8 312.1C482.8 311.9 481.5 312.5 481 312.7C480.4 312.967 479.533 313.033 478.4 312.9C477.4 312.7 476 312.6 475.7 312.4C475.3 312.133 475.5 311.9 476.3 311.7C477.1 311.5 477.4 310.9 476.3 311.2C475 311.4 471.8 311.2 470.1 310.7C468.4 310.2 467.7 310.1 467.1 310.4C466.3 310.7 466.4 311.4 467.5 311.4C468.5 311.5 470.8 311.8 471.6 312.5C472.467 313.233 472.4 313.367 471.4 312.9C470.5 312.6 468.8 312.8 470.6 314ZM509.9 311.1C506.7 313.5 502.8 314.1 498.1 314.3C496.7 314.4 497.1 314.8 498.3 314.9C503.2 315.4 508.8 313.6 510.7 311.7C511.2 311.1 511.2 310.2 509.9 311.1ZM487.7 316.6C490.39 316.97 493.036 317.607 495.6 318.5C496.733 318.367 497.167 318.067 496.9 317.6C496.7 317.2 496.5 316.7 498.7 316.8H506.7C507.5 316.6 509.2 315.3 510 315.2C508 315.3 499.9 315.8 498.8 315.6C497.933 315.533 497.2 315.667 496.6 316C496.133 316.467 495.533 316.533 494.8 316.2C493.9 315.9 492.5 315.5 491.7 316C490.9 316.5 489.2 316 487.7 316.6Z" fill="#7FB8C1" style="fill:#7FB8C1;fill:color(display-p3 0.4980 0.7216 0.7569);fill-opacity:1;"/>
<path id="Vector_20" d="M506.8 316.9C507.5 316.6 509.2 315.3 510 315.2C511.4 315.1 513 315.7 513.8 315.8C514.6 315.9 515.4 315.8 514.8 315.2C514.3 314.6 514.8 313.5 517 313.8C519.2 314.1 520.4 314.5 522.6 314.2C524.8 313.9 525.7 315.6 529.8 314C529.5 315.6 530.3 315.8 531 315.4C531.733 315 532.733 315.267 534 316.2C535.9 317.6 543.2 317.2 545 316.9C547 316.6 547.9 317.6 546.5 318C545.167 318.533 544.7 319.033 545.1 319.5C545.4 320 545.7 320.5 544 320.3C542.3 320.1 542 320.6 541 321.3C540.2 321.9 540 322.1 537.6 321.7C535.2 321.3 534.7 321.6 533.4 321.8C532.1 322 531.8 322 530.4 321.6C529.2 321.1 526.4 320.7 524.6 321.3C522.9 321.8 521.6 322.3 520.1 321.9C518.5 321.5 518.4 321.7 519.4 320.7C520.4 319.7 520.6 319.9 522.4 319.7C524.3 319.4 525.7 318.9 524.4 318.1C523.1 317.4 522.7 317.5 520.9 318.3C519.2 319.3 518.3 319.7 516.4 318.7C514.4 317.6 513.4 317.8 512.1 318.1C510.8 318.4 508.6 317.7 506.8 316.9ZM513.3 320.1C510.8 320.5 510.1 318.9 507.5 319.2C506.7 319.3 505.2 320.4 507.2 320.2C509.2 320 511.4 321.2 513.4 321C515.4 320.8 514.4 320 513.4 320.1H513.3ZM510.4 322.1C511.7 321.5 514.4 322.4 515.6 322.2C516.7 322 517.8 322.7 516.6 323.1C515.4 323.5 512.6 322.4 511.2 322.8C509.9 323.1 508.6 322.7 510.4 322V322.1ZM484.4 329C486.2 329 492.7 328.8 495.2 323.4C495.333 322.867 495.733 322.867 496.4 323.4C497.3 323.8 500.3 325.6 505.9 326.1C507.4 326.3 509.1 327.1 505.9 326.8C502.9 326.6 497.9 325.8 496.1 324.8C493.3 329.1 488.2 329.7 484.4 329.6C482.1 329.6 482.7 328.9 484.4 329Z" fill="#7FB8C1" style="fill:#7FB8C1;fill:color(display-p3 0.4980 0.7216 0.7569);fill-opacity:1;"/>
<path id="Vector_21" d="M498.4 321.6C497.5 322.8 494.5 324.9 493.2 325C491.8 325 487.7 324.7 486.7 324.3C485.7 323.9 484.4 324.1 485.9 325.1C487.4 326.1 491 326.8 492.5 326.5C493.9 326.2 495.6 325.7 496.8 326.4C498 327.1 500 328.4 501.3 328.2C502.816 327.876 504.384 327.876 505.9 328.2C506.7 328.7 508.1 329.8 506 329.2C503.9 328.6 502.2 329 501.2 328.6C502.2 330.1 504.7 332.6 506.8 332.6C507.3 332.6 507.7 333.4 506.6 333.9C507.6 334.4 510 334.8 511.3 333.6C510.967 334.067 511.1 334.4 511.7 334.6C512.2 334.9 512.9 335.2 511.9 335.3C510.9 335.5 508.7 335.7 508 335.5C511.992 337.796 516.655 338.644 521.2 337.9C522.3 337.7 522.9 337.2 521.2 337.3C517.5 337.4 517.3 337.3 516.7 337C515.967 336.6 516.133 336.267 517.2 336C518.2 335.6 520.8 335.2 521.9 335.2C522.9 335.2 524.1 334.8 521.9 334.8C519.7 334.8 516.9 334.8 515.9 334.4C514.7 334.1 513.9 333.6 515 332.8C516.2 332.1 517.4 332.3 518 331.6C514.3 331.6 510 329.6 512.4 327.9C513 327.567 512.8 327.4 511.8 327.4C510.9 327.3 508.2 326.5 507.1 325.8C505.9 325.2 506.7 324.7 507.6 324.5C505.5 324.9 501.2 323.7 498.4 321.6ZM530.4 321.6C528.4 323 524.7 323.6 523.1 323.6C521.5 323.733 521.333 323.967 522.6 324.3C523.8 324.4 525.2 324.6 525.7 324.4C526.2 324.2 526.6 324.2 527.4 324.6C528.683 325.09 530.094 325.125 531.4 324.7C533 324.2 535.5 324 536.5 324.1C537.5 324.2 538.7 324.1 536.6 323.6C534.6 323 531.2 323.4 530.4 323.6C529.6 323.8 527.4 323.6 528.5 323.3C529.521 322.955 530.495 322.485 531.4 321.9L530.4 321.6ZM529.3 325.7C527.384 327.162 525.098 328.062 522.7 328.3C524.9 329.1 526.9 331.4 528.3 331.3C527.567 331.833 526.733 332.233 525.8 332.5C527.2 332.9 529.6 332.5 531.6 331.4C534.8 332.3 539.1 331.7 540.5 330.4C538.4 330.4 535.8 329.7 534.7 328.8C535.767 328.667 536.6 328.233 537.2 327.5C534.7 328 530.5 326.8 529.3 325.7Z" fill="#7FB8C1" style="fill:#7FB8C1;fill:color(display-p3 0.4980 0.7216 0.7569);fill-opacity:1;"/>
<path id="Vector_22" d="M525.8 332.5C526.8 332.4 527.6 331.7 528.3 331.3C526.5 331.9 518.7 330.7 516.3 328.6C514 326.6 514 328.1 515.6 329.6C517.3 331 520.2 333.2 525.8 332.5ZM531.6 337.5C530.6 338 525.9 338.3 524.4 338C522.867 337.667 522.267 337.8 522.6 338.4C523 339 523.2 339.6 521.9 339.4C520.6 339.2 518.4 339.5 517.5 339.8C516.6 340.1 515.5 341 517.4 340.6C519.4 340.3 521.1 339.9 522.6 340.3C524.1 340.7 529.3 340.8 530.3 340.3C531.3 339.8 530.7 339.9 530.2 339.9C529.7 339.9 529.5 339.6 530.2 339.3C530.9 339 531.4 338 531.6 337.5ZM486.3 331.2C484.3 332.1 477.8 333.8 476.1 333.9C473.833 334.9 472.167 335.4 471.1 335.4C472.584 336.248 474.302 336.599 476 336.4C475.3 337 473.8 337.8 473.3 338.1C475 337.9 477.1 338.3 478 338.4C475.824 339.564 473.361 340.084 470.9 339.9C471.433 340.833 472.2 341.333 473.2 341.4C471.1 342 468.6 342 467.2 341.6C467.8 342.667 468.467 343.267 469.2 343.4C467.4 343.6 465.2 343.9 463.4 342.9C464.8 344.7 467.867 345.333 472.6 344.8C477.3 344.3 481.2 342.2 482.3 341.3C480.3 341.6 477.7 341.7 476.4 341.4C479.682 340.538 482.817 339.19 485.7 337.4C484.567 337.4 483.567 337.133 482.7 336.6C485.567 336.689 488.432 336.352 491.2 335.6C489.2 335.1 488.1 333.9 487.5 333.1C493.422 334.813 499.678 335.019 505.7 333.7C506.6 333.5 506.7 332.4 504.9 332.5C501.9 332.7 496 331.8 494.5 331.1C495.9 332.1 497.6 332.8 498.8 333.1C496 333.8 492.1 334.3 486.3 331.1V331.2Z" fill="#7FB8C1" style="fill:#7FB8C1;fill:color(display-p3 0.4980 0.7216 0.7569);fill-opacity:1;"/>
<path id="Vector_23" d="M473.3 338.1C473.8 337.8 475.3 337.1 476 336.4C474.302 336.599 472.585 336.248 471.1 335.4C472.167 335.4 473.833 334.9 476.1 333.9C472.1 333.8 469.5 333.8 468.1 333C466.6 332.3 464.1 332.5 463.1 332.7C462.1 332.9 462.4 334.5 466.5 334.1C463.98 335.298 461.159 335.716 458.4 335.3C458.933 336.833 459.033 338.033 458.7 338.9C462.206 340.566 466.02 341.486 469.9 341.6C467.3 340.6 465.9 339.5 468.1 339.3C470.2 339.1 471.4 338.6 473.3 338.1ZM466.5 345.1C471.7 344.7 478.7 344.6 484.3 339.9C485.7 338.7 486.6 339.1 485.3 340.4C482.3 343 475 346.5 468.1 346.6C465.2 346.6 463.9 345.3 466.5 345.1ZM505.5 336.6C504.2 337.1 500.5 337.6 499.5 337.6C498.5 337.3 496.8 337.3 496 337.8C494.933 338.4 495 338.733 496.2 338.8L499.7 339C498.7 339.5 498.1 340.3 497.9 340.6C499.6 340.2 502.9 340.9 503.7 341.4C502.967 341.6 502.3 341.5 501.7 341.1C504.6 344.1 513.3 344.1 514.7 343.6C514.033 344.2 513.367 344.566 512.7 344.7C515.2 345.2 518 345.1 520.8 343.5C519.8 343.7 517.1 343.4 516.4 343.3C516.991 342.734 517.712 342.322 518.5 342.1C517.5 341.9 514 342 513.2 342.4C513.6 341.733 514.133 341.166 514.8 340.7C510.5 340.7 505.3 340.7 503.4 339.7C506.4 339.9 509.8 338.2 511.2 338.2C508.8 338.1 506.2 337.6 505.5 336.6ZM494.6 339C492.5 339.4 489.3 340.3 488.4 340.7C487.5 341.2 486.6 341.5 488.5 341.5L489.2 341.3C488.4 341.3 487.5 341.3 488.9 340.9C490.4 340.4 492.2 339.4 494.6 338.9V339ZM490.3 344C491.1 344 494.3 344 495.7 342.9C497 343.9 499.7 345.3 501.3 345.3C503 345.3 502.9 345.8 501.3 345.9C499.9 346.1 497 345.2 495.6 344.1C493.6 344.9 492 344.3 490.3 344ZM465.1 358.5C468.5 359.8 473 360.8 476.2 359.7C478.1 361.3 481.9 361.4 483.9 361C486 360.6 487.9 360.3 490.1 361.1C492.3 361.9 497.1 361.9 498.4 363C497.2 363 494.7 363 494.1 363.2C493.5 363.333 493.767 363.666 494.9 364.2C490.692 364.116 486.541 365.188 482.9 367.3C483.6 365.6 485.7 363.3 489.2 363.3C487.2 362.7 480.9 362.6 478.9 363.8C478.326 363.198 477.883 362.482 477.6 361.7C474.3 363.6 467.7 360.9 465.1 358.5ZM456.5 352.5C460.5 351.9 463.2 350.6 464.5 349.5C465.1 350.1 468.1 350.7 471.3 349.8C470.6 350.2 470.6 351.2 470.8 351.7C468.8 351.7 464.7 352.7 463.3 353.4C462 354.1 458 354.6 456.7 353.9C455.367 353.166 455.3 352.7 456.5 352.5Z" fill="#7FB8C1" style="fill:#7FB8C1;fill:color(display-p3 0.4980 0.7216 0.7569);fill-opacity:1;"/>
<path id="Vector_24" d="M470.8 351.7C468.8 351.7 464.7 352.7 463.3 353.4C463.633 354.067 463.8 354.733 463.8 355.4C469.096 353.903 474.609 353.328 480.1 353.7C478.5 353.8 475.4 355.5 473.7 355.7C476.855 355.515 480.021 355.784 483.1 356.5C484.233 356.833 484.4 357.433 483.6 358.3C482.4 359.6 482.4 359.3 484.2 359.3C486 359.3 489.5 359.1 491.2 357.5C490.5 356.8 488.8 357.1 488.2 356.6C489.32 356.229 490.345 355.614 491.2 354.8C488.2 354.8 487.2 354.8 486.2 354.5C485.2 354.2 484.5 354 485.7 353.4C486.531 353.016 487.278 352.472 487.9 351.8C485.7 352.4 482.4 352.8 479.6 350.7C480.6 350.9 483.1 350.7 484 350.4C483.066 349.867 482.233 349.567 481.5 349.5C483.8 348.5 488.2 347.5 493.6 349.7C496.3 349.4 499.3 349.5 501.3 350.1C502.3 349.2 504.1 347.1 505 346.6C498.6 347.2 487 346 487.3 342.6C485.3 345.3 480.5 346.8 478.3 346.4C478.2 347.4 479 348.6 479.8 349.2C477.6 349.7 473.9 350 472.2 349.7C473.2 350.7 475 351.5 476.1 351.4C473.8 351.4 472.6 351.8 470.8 351.7Z" fill="#7FB8C1" style="fill:#7FB8C1;fill:color(display-p3 0.4980 0.7216 0.7569);fill-opacity:1;"/>
<path id="Vector_25" d="M484.2 359.3C485.9 359.3 489.5 359.1 491.2 357.5C490.5 356.8 488.8 357.1 488.2 356.6C489.321 356.229 490.345 355.614 491.2 354.8C495.8 354.5 499.9 354.7 501.8 354.1C503.7 353.5 508.8 353.8 509.8 353.5C505.4 354.2 504.6 354.6 504.3 355.3C504 356 505.7 356.6 506.8 356.6C504.8 356.6 502.4 358.6 502.2 359.4C499.5 357.9 498.3 359.6 498 360.2C497 359.8 493.3 359.9 491.5 361.5C489.1 360.8 487.5 360.4 485.1 360.8C486.6 360.4 486.3 359.5 484.1 359.3H484.2ZM505 346.6H510.9C510.156 346.946 509.48 347.42 508.9 348C512.6 347.5 517.7 347.3 519.1 347.5C517.3 347.2 515.5 348.4 514.6 349C513.6 349.5 514.2 350 515.4 350C516.7 350.2 518.4 351.2 516.1 350.9C513.8 350.6 509.3 350.6 508.2 350.7C507.2 350.9 506.5 350.4 508.1 350.1C509.633 349.833 510.767 349.467 511.5 349C510.2 349.3 507.7 349.3 506.9 349C506.1 348.7 505.7 348.4 506.6 348.2C507.5 348 506.8 347.7 505.9 347.8C504.9 347.8 502.6 348.8 501.3 350.1C502.767 348.567 504 347.4 505 346.6ZM488.5 349.1C490.1 351.1 492.5 352.167 495.7 352.3C496.4 352.3 497.7 353.3 496.1 353.3C491.5 353.5 489.2 352.4 487.2 349.5C486.8 348.9 487.6 348.1 488.5 349.1ZM546.5 324.5C545.1 325.5 543.3 327 544.5 329.3L544.9 329.1C550.11 322.84 554.73 316.111 558.7 309V308.3C557.259 309.534 555.641 310.545 553.9 311.3C554.5 312.9 551.5 315.3 549.9 315.9C550.5 316.9 550.3 318.6 548.9 318.9C549.2 319.9 548.1 319.9 546.9 320.4C545.567 320.867 544.733 321.4 544.4 322C545.1 321.6 546.1 321.3 546.6 321.5C547.1 321.7 547.3 322.5 546.3 322.7C545.3 322.967 544.633 323.333 544.3 323.8C545.8 323.3 547.8 323.6 546.4 324.5H546.5ZM450.5 299.9C452.2 301 455.1 302.9 458.8 302.6C460.7 304.1 463.5 305.3 464.8 305.6C462.3 306.6 459.6 307.5 458.9 308.3C457.8 307.3 456.3 307.3 455.9 306.8C454.967 307.733 454.9 308.367 455.7 308.7C458.155 309.475 460.728 309.814 463.3 309.7C464.6 309.3 465 310.4 463.9 310.7C460.9 311.8 455.2 310.8 453.3 307.7C451.4 304.6 449.6 303.4 444.3 306.3C443.7 304.7 443.7 304.3 442.7 304.3C441.7 304.3 439.7 303 441.2 303.1C442.7 303.1 447 302.5 450.5 299.9Z" fill="#7FB8C1" style="fill:#7FB8C1;fill:color(display-p3 0.4980 0.7216 0.7569);fill-opacity:1;"/>
<path id="Vector_26" d="M451.8 306.8C450.9 307.1 448.4 308.5 447.4 308.6C446.5 308.6 444.9 310 446.6 310C448.3 310 450.4 308.3 451.6 308C452.8 308 452.9 306.6 451.8 306.8ZM459 311.9V313.4C458.8 313.8 458.8 314.3 459.5 313.8C460.2 313.3 460.7 312.6 461.4 312.9C462.1 313.3 463.9 313.3 464.7 313.2C465.633 313.133 465.6 312.867 464.6 312.4C463.648 312.009 462.629 311.805 461.6 311.8C460.92 311.837 460.239 311.735 459.6 311.5C459 311.3 458.8 311.433 459 311.9ZM484.8 312.1L484.4 312.9C486.4 312.9 491.4 313.3 492.9 314.3C494.4 313.1 494.2 312.7 495.2 312.9C496.3 313.2 497.7 313.5 498.3 313.2C498.833 312.933 499.4 312.9 500 313.1C500.6 313.1 502 312.9 502.9 312.4C503.8 311.9 505.4 311.3 506.3 311.3C507.3 311.3 508.5 311.1 506.7 310.8C504.878 310.645 503.043 310.849 501.3 311.4C500.3 311.7 497.6 311.9 496 311.9C494.3 311.9 492.1 312.7 490.2 312.2C488.3 311.7 485.8 312.1 484.8 312.1ZM515.7 311.3C518.1 312.5 522.9 313.4 526.7 313.3C527.3 313.3 528.7 313.9 527 314.1C522.8 314.567 518.933 313.833 515.4 311.9C514.4 311.4 514.8 310.9 515.7 311.3ZM518.2 311.3C521.933 311.1 524.467 311.433 525.8 312.3C527.8 311.6 531.7 311.3 532.6 311.4C533.4 311.6 534.4 311.2 532.4 310.7C530.4 310.2 525.7 310.1 524.2 310.4C522.7 310.7 518.2 310.8 516.7 310.6C517.233 310.6 517.733 310.833 518.2 311.3ZM532.5 312.7C534.2 311.8 539.3 312.7 540.8 312C539.7 313.3 544.3 313.4 548.2 312.4C546.7 313.4 543.4 313.5 542 314.1C540.6 314.7 539.8 314.3 538.8 313.8C537.7 313.3 534.9 312.4 532.5 312.8V312.7Z" fill="#7FB8C1" style="fill:#7FB8C1;fill:color(display-p3 0.4980 0.7216 0.7569);fill-opacity:1;"/>
<path id="Vector_27" d="M548.2 312.4C544.2 313.4 539.7 313.4 540.8 312C539.3 312.7 534.2 311.8 532.5 312.7C534.3 311.7 535.7 312.5 537 310.3C537.8 310.5 539.7 310.6 540.3 309.7C541.5 310 543.5 310.5 544.1 311.1C544.7 311.7 545.6 310.9 544.9 310C546.6 309.3 545.5 310.7 549.7 309.7C550.6 309.5 552.7 309.1 553.4 309.1C551.804 310.402 550.058 311.51 548.2 312.4Z" fill="#7FB8C1" style="fill:#7FB8C1;fill:color(display-p3 0.4980 0.7216 0.7569);fill-opacity:1;"/>
</g>
<path id="Vector_28" d="M581.1 197C580.9 264.8 570.1 338 481.7 372.8C393.2 337.9 382.4 264.8 382.2 197H581.1Z" stroke="black" style="stroke:black;stroke-opacity:1;" stroke-width="2"/>
<g id="Group_2">
<path id="Vector_29" d="M421.7 227.5C420.284 229.433 418.561 231.122 416.6 232.5C414.6 233.9 411.9 235 413.4 237.5C414.8 239.9 416 240.2 416.3 242.1C416.6 244 417 245.5 418.5 246C419.9 246.4 420.5 246.1 420.5 249.1C420.5 252.1 420.5 253.3 421.8 254.4C423.1 255.6 423 256.8 423.5 259.4C424.1 262.2 424.1 268.1 425.9 272.2C427.6 276.2 431.5 283.8 431.1 285.4C430.6 287 430.1 288.1 431.8 290C433.5 291.9 434.8 294.6 434.8 296.2C435 297.8 435.3 298.4 437 297.8C438.219 297.467 439.324 296.81 440.2 295.9C440.867 295.233 442 295.333 443.6 296.2C445.2 297.1 447.6 297.9 449.1 297.1C450.5 296.1 451.2 294.9 452.5 294.9C454.5 293.5 455.3 290.4 455.7 289.6C456.2 288.7 455.9 288.7 455 287.8C454.1 286.9 454.6 285.5 454.4 284.1C454.4 282.767 453.6 280.5 452 277.3C450.2 274.2 449.2 270.3 448 269.3C446.9 268.3 446.3 265.8 446.2 264.7C446 263.5 444.7 262.5 443.8 261.7C443 260.7 442.1 259.5 441.1 254.4C440.1 249.3 439.3 245.8 439.3 244.9C439.433 244.233 439.1 243.833 438.3 243.7C437.5 243.4 437 241.9 437.3 241.2C437.6 240.5 437 239.8 436.7 238.9C436.4 238 436.7 236.5 437.3 235.6C437.9 234.7 437.8 232.3 437.2 230.3C436.6 228.3 436 226.5 433.7 226.3C431.4 225.9 430.9 225.3 430.1 223.5C429.2 221.6 428.3 218.3 428.1 217.5C427.7 216.9 427.3 216.7 425.6 218.2C423.8 219.6 423.3 220.1 423.3 222.8C423.3 224.5 423.5 225.1 424.1 226.1C424.7 227.1 424.8 227.4 425.3 230.1C425.8 232.8 428.2 237.1 425 239.6C421.8 242.1 422.2 242.6 422.4 244.4C422.6 246.2 421.5 247.2 420.9 244.8C420.367 242.467 420.967 240.8 422.7 239.8C424.4 238.6 426 237.2 424.8 235.6C423.74 233.415 423.16 231.028 423.1 228.6C423.1 226.667 422.633 226.333 421.7 227.6V227.5Z" fill="#CFA763" style="fill:#CFA763;fill:color(display-p3 0.8118 0.6549 0.3882);fill-opacity:1;"/>
<path id="Vector_30" d="M395.8 264.2C395.8 265.467 395.9 266.633 396.1 267.7C396.2 268.9 396.5 271.4 395.7 273.2C394.7 275.1 395 276 395.7 276.6C397.5 276.1 397.7 274.1 397.3 273.2C396.833 272.067 396.9 270.967 397.5 269.9C398.1 268.967 398.1 268.2 397.5 267.6C397.1 266.9 397.1 266.9 397.7 264.9C398.2 263.1 396.9 263.1 395.8 264.2ZM414.4 292.2C414 290.8 412.8 285.9 412.7 282.6C412.7 279.467 411.3 276.7 408.5 274.3C406.4 272.3 405.9 269.3 405.8 266.9C404.2 265.9 403.5 266.3 403.7 268.1C403.8 270.1 405.7 271 405.5 273.8C405.2 276.6 405.2 275.9 406.5 277.3C408.033 278.7 408.433 279.767 407.7 280.5C407 281.1 406.9 282.1 407.9 282.5C408.9 282.9 409 283.9 408.9 284.9C408.8 285.9 409.7 286.1 410.3 286.9C410.8 287.6 410.9 289.3 410.3 290.3C409.7 291.3 409.7 292.9 410.7 292C411.7 291.2 412.2 292 412.9 293.3C413.6 294.5 414.2 294.1 414.9 293.8L414.4 292.1V292.2ZM405.9 232.2C404.8 232.2 404.1 233.2 404.7 236.5C405.1 238.5 403.5 238 402.9 237C402.4 236 401.9 233.9 400.8 232C399.7 230.1 400.2 233.3 400 235C399.9 236.7 401 236.7 402 238.2C403 239.6 402.2 240.2 401 240.2C399.8 240.2 400.5 242.5 400.8 244.1C401.1 245.7 400.5 246 399.6 244.7C398.7 243.4 399.3 241.3 399.5 238.9C399.7 236.5 399.8 237 398.2 236.5C396.6 236 396.8 235.5 397.4 234.1C398 232.7 398.6 232 397.9 231.3C397.1 230.567 397.267 230.133 398.4 230C399.6 229.8 399.2 229 400.2 228.7C401.2 228.4 401.6 228.8 401.8 227C401.9 225.4 402.4 224.4 403.6 225C404.3 227.3 405.2 231 405.9 232.2ZM432.4 258C432.8 254.9 432.5 251.7 433.8 250.6C435.1 249.5 436.8 247.1 436.6 252C436.4 256.9 436.3 256.6 435.3 257.8C434.3 258.9 433.4 259.2 434.4 261.1C435.4 263 435.6 263.1 435.4 266C435.3 268.8 435.3 270 436.4 271.4C437.5 272.8 437.9 273 438.2 274.6C438.587 276.446 439.489 278.145 440.8 279.5C442.1 280.6 443.6 284 443.7 286.3C443.8 288.6 445.9 289.1 447.7 290.7C449.7 292.3 447.3 293.5 445.9 292.7C444.4 292 445 292.7 444.1 293.7C443.2 294.7 443 294.9 442.2 293.2C441.5 291.4 439.1 290.2 437.9 289.9C436.7 289.4 435.7 287.6 434.7 285.7C434.267 284.919 433.666 284.244 432.939 283.725C432.212 283.206 431.379 282.856 430.5 282.7C431.033 284.033 431.233 284.933 431.1 285.4C430.6 287 430.1 288.1 431.8 290C433.5 291.9 434.8 294.6 434.8 296.2C435 297.8 435.3 298.4 437 297.8C438.219 297.467 439.324 296.81 440.2 295.9C440.867 295.233 442 295.333 443.6 296.2C445.2 297.1 447.6 297.9 449.1 297.1C450.5 296.1 451.2 294.9 452.5 294.9C454.5 293.5 455.3 290.4 455.7 289.6C456.2 288.7 455.9 288.7 455 287.8C454.1 286.9 454.6 285.5 454.4 284.1C454.4 282.767 453.6 280.5 452 277.3C450.2 274.2 449.2 270.3 448 269.3C446.9 268.3 446.3 265.8 446.2 264.7C446 263.5 444.7 262.5 443.8 261.7C443 260.7 442.1 259.5 441.1 254.4L439.4 245.9C438.4 247.5 437.733 247.833 437.4 246.9C436.9 245.5 436.3 244.8 435.7 245.7C435.1 246.5 435 244.9 435 244.2C435 243.5 434.9 243.4 434.1 243.4C433.4 243.4 434 242.2 433.7 240.1C433.4 237.9 433 237.6 432.7 240.2C432.4 242.8 430.9 244.4 431.5 244.9C432.033 245.567 431.933 246.733 431.2 248.4C430.97 249.03 430.869 249.7 430.903 250.37C430.938 251.04 431.107 251.697 431.4 252.3C431.8 253.4 431.1 255.6 430.8 257.5C430.5 259.3 432 261.2 432.4 258ZM420.4 249.1C420.4 252.1 420.4 253.3 421.8 254.4C423.1 255.6 423 256.7 423.5 259.4C424 262.1 424.1 268.1 425.9 272.2L427.9 276.5C428.8 275.7 429.6 274.5 429.9 273.7C430.4 272.7 429.1 270.7 428 269C426.9 267.3 428.2 266.7 429.2 264.5C430.2 262.4 429.1 262.2 427.5 261.6C425.9 261.1 425.9 259.6 425 257.3C424.1 255 424.3 254 424.8 252.7C425.4 251.367 425.067 250.5 423.8 250.1C422.7 249.8 423 249 423.4 247.5C423.8 246.1 424.1 245.8 422.4 246.2C421.267 246.533 420.6 246.867 420.4 247.2V249.1Z" fill="#D7C99C" style="fill:#D7C99C;fill:color(display-p3 0.8431 0.7882 0.6118);fill-opacity:1;"/>
</g>
<path id="Vector_31" d="M447.9 248L444.4 286M458.4 271.2C456.888 277.931 455.12 284.603 453.1 291.2M503.8 252.9C506.5 255.4 510 255.9 513.9 257.9M521.3 269.8L519.3 284.4M519.3 270.4L515.9 285.4M456 271.7C454.267 277.9 452.3 283.833 450.1 289.5" stroke="black" style="stroke:black;stroke-opacity:1;" stroke-width="0.5"/>
<path id="Vector_32" d="M531.4 307L531.1 307.1H530.5L530.2 307.2H529.9L529.6 307.3L529.4 307.5L529.2 307.7L529 308L528.8 308.2L528.5 308.6L528.4 308.7L528.2 308.9L528.1 309.1C527.341 309.763 526.4 310.181 525.4 310.3C524.377 310.502 523.323 310.502 522.3 310.3C520.833 310.367 519.633 310.133 518.7 309.6C517.7 309.1 516.5 309.5 515.7 309.9C515.1 310.2 515 310.9 514.3 311C513.9 311.6 512.1 311.5 511.3 311.3C509.967 311.3 508.733 311.033 507.6 310.5C506.9 310 505.6 309.6 504.8 310.5C504.267 311.033 503.533 311.367 502.6 311.5C501.1 311.5 499.3 311.8 498.1 311.2C496.8 311.1 496.4 310.4 495.1 310C493.8 309.8 493.2 310.5 492.3 310.8C491.633 311.333 490.567 311.533 489.1 311.4C487.7 311.4 486.1 311.6 485.1 311C484.1 311 483.3 310.3 482.4 309.9C481.6 309.2 480.1 309.9 479.4 310.3C478.1 310.5 477.7 311.4 476.1 311.3C474.8 311.2 474 310.6 472.8 310.3C471.7 309.8 470.8 309 469 309.1C468.333 309.767 467.367 310.1 466.1 310.1C465.1 310.1 464.167 310.033 463.3 309.9C461.2 309.9 460.2 307.6 458.7 306.4L451 299C451.4 297.7 451.6 297.4 450.9 296.5C451.1 295.2 450.2 295 450.6 293.7C451.2 292.7 449.6 292.8 449.2 292.3C448.2 292.1 447.9 291.4 447 291.1L444.7 289.8L442.5 288.7C441.9 288.233 441.3 287.8 440.7 287.4L439 286C438.4 285.667 437.8 285.3 437.2 284.9C436.6 284.367 435.933 283.933 435.2 283.6C434.3 283.3 433.5 282.6 432.4 282.4C431.7 282.4 431.5 280.8 432.8 280.9C433.8 280.9 434.3 281.5 435 281.9C436.067 282.433 437.233 282.833 438.5 283.1L440.8 284.1C441.6 284.7 442.6 284.8 443.5 285.4C444.4 285.8 445.5 286.2 445.9 286.7C446.7 287 447.1 287.5 447.9 287.8C448.167 288.067 448.6 288.4 449.2 288.8C449.867 289 450.533 289.333 451.2 289.8C451.867 290.067 452.433 290.4 452.9 290.8C453.5 291 457.7 293.1 457.5 292.8C461.6 293.6 463.5 293.8 467.5 294.5L497.6 294.9L508.5 290.4L511.8 285.1L527.9 282.2C527.6 281.9 556.1 281.2 556.7 283.6C557 284.6 557.7 286.6 556.8 287.1C556.2 287.4 529.8 283.8 529.5 286.1C529.3 287.1 529.5 293.6 529.7 294.6L530.1 297.6L530.6 300.8L531 303.8L531.4 307Z" fill="#666666" style="fill:#666666;fill:color(display-p3 0.4000 0.4000 0.4000);fill-opacity:1;"/>
<g id="Group_3">
<path id="Vector_33" d="M449.8 266.6C445 272.1 440.2 276.5 435 280.7M476.5 244.1L492.2 230.6M469.5 257.5C472.6 259.7 476.1 261.6 480.9 262.8M467.3 237C469.3 240 471.5 243 478.3 244.9M462.8 206.2C460.139 209.472 456.748 212.075 452.9 213.8M468.5 225.2C470.992 227.294 473.884 228.859 477 229.8M468.5 272.3C469.758 279.134 471.326 285.908 473.2 292.6" stroke="black" style="stroke:black;stroke-opacity:1;" stroke-width="0.5"/>
<path id="Vector_34" d="M467.2 292.5C475.3 284.1 482.2 275.2 486.8 264.9M503.4 234.8C506 237.5 508.7 239.6 512.9 240.8M514.7 224.8C516.9 228.8 519.6 231.7 522.1 234.9M490.6 212.4C490.4 216.4 488 220.3 486.3 223.7" stroke="black" style="stroke:black;stroke-opacity:1;" stroke-width="0.5"/>
<path id="Vector_35" d="M496.3 214.3C493.3 217.6 490.6 221 486.6 223M496.8 200.3C494.61 201.787 492.262 203.028 489.8 204M526.4 230.2C524 233.1 521.6 236.4 517.7 238.9M526.9 253.9C523.8 256.9 521 260.3 517.5 262.5M527.4 282.3C533.467 279.033 539.2 275.2 544.6 270.8C540.1 275.2 535.4 279.6 530.4 282.8M528.8 230.8C529.8 233.4 532.1 236.3 534.4 238.1" stroke="black" style="stroke:black;stroke-opacity:1;" stroke-width="0.5"/>
</g>
<path id="Vector_36" d="M525.5 205L525 282.9L530.7 282.6L528.3 204.7L525.5 205Z" fill="#BCA76B" stroke="#472B1F" style="fill:#BCA76B;fill:color(display-p3 0.7373 0.6549 0.4196);fill-opacity:1;stroke:#472B1F;stroke:color(display-p3 0.2784 0.1686 0.1216);stroke-opacity:1;" stroke-width="0.4"/>
<g id="Group_4">
<path id="Vector_37" d="M529.2 305.4L532.3 308C535 310.4 536.5 310.4 540.1 308C541.4 308.2 542.7 309 544.1 308.7C545.5 308.633 546.8 308.467 548 308.2C549.4 307.8 549.7 306.1 550.2 304.8C550.9 303.5 551.5 301.8 552.6 300.7C553.9 299.7 555.3 298.9 556.2 297.5C557.067 296.3 557.3 294.9 556.9 293.3L556.6 289.3C556.4 287.4 557.9 286.1 557.6 284.3C556.9 283.6 555.4 283.3 554.3 283C552.226 282.518 550.121 282.184 548 282L542.7 281.7L537.7 281.4C535.7 281.333 533.767 281.367 531.9 281.5C530.6 281.8 528.9 281.7 527.7 282.3C527.274 283.592 527.038 284.94 527 286.3L526.7 289.9C526.7 292.2 526.4 294.4 527.1 296.5L528.1 301.7C528.1 303.1 528.1 304.4 529.1 305.4H529.2Z" fill="#333333" stroke="black" style="fill:#333333;fill:color(display-p3 0.2000 0.2000 0.2000);fill-opacity:1;stroke:black;stroke-opacity:1;" stroke-width="1.3"/>
<path id="Vector_38" d="M535.7 267.5L543.5 282M555 282.7C552.8 280.3 551 277.467 549.6 274.2" stroke="black" style="stroke:black;stroke-opacity:1;" stroke-width="0.5"/>
</g>
<path id="Vector_39" d="M554.5 260.2L557.1 262H557.2C556.4 261.3 555.6 260.4 554.5 260.2ZM549.2 260.9L548.9 261L545.3 275L549.2 260.9ZM566.2 261.5C565.333 261.567 564.466 261.833 563.6 262.3L565.1 261.8L567.1 261.5H566.1H566.2ZM549.6 274.2L548.9 274.3C549.538 274.271 550.168 274.446 550.7 274.8L549.6 274.2ZM551 274.9C551.866 275.567 552.8 276.1 553.8 276.5L551 274.9ZM559.3 275.7L554.5 276.7C556.166 276.567 557.766 276.233 559.3 275.7Z" fill="#472B1F" style="fill:#472B1F;fill:color(display-p3 0.2784 0.1686 0.1216);fill-opacity:1;"/>
<path id="Vector_40" d="M549.3 260L545.3 275L549.6 274.1L554.1 276.7L560.9 275.3L564.4 275.8C565.4 271 565.1 265.4 567.9 261.3L565.1 261.8L560.6 263.3L557 262L554.2 260H549.3Z" fill="white" style="fill:white;fill-opacity:1;"/>
<path id="Vector_41" d="M555.9 261.9C554.988 263.2 554.436 264.718 554.3 266.3L551.3 265.4H547.9V265.5L546.9 269.1C546.9 269.1 549.6 268.7 550.9 268.9C551.7 269 553.3 269.9 553.3 269.9L552 275.5L552.9 276L554.7 276.5L555.5 276.4C555.833 274.267 556.333 272.467 557 271C557 271 559.8 271.7 561.3 271.6L565.1 271.3L565.6 267.7C565.1 267.8 562.7 268.4 561.4 268.3C560.246 268.019 559.135 267.582 558.1 267C558.433 265.8 558.9 264.567 559.5 263.3L555.9 261.9Z" fill="#C8102E" style="fill:#C8102E;fill:color(display-p3 0.7843 0.0627 0.1804);fill-opacity:1;"/>
<path id="Vector_42" d="M546.4 260C544.5 255 542.3 246.9 541.4 240.4" stroke="black" style="stroke:black;stroke-opacity:1;" stroke-width="0.7"/>
<g id="Group_5">
<path id="Vector_43" d="M548 261.2C548 261.2 552.4 260.2 554.3 260.5C556.3 260.9 557.4 263.1 559.5 263.5C561.8 263.8 563.7 261.7 566.1 261.5L569.4 261.8L567.8 267.3L566.5 271.9V276C566.5 276 562.8 275 560.8 275.4C558.3 275.6 556.4 276.9 554 276.7C552.2 276.3 551.4 274.8 549.5 274.4C548.2 274 544.5 275 544.5 275L548 261.2Z" stroke="#472B1F" style="stroke:#472B1F;stroke:color(display-p3 0.2784 0.1686 0.1216);stroke-opacity:1;" stroke-width="1.3"/>
<g id="Group_6">
<path id="Vector_44" d="M548.8 261L547 261.1L541.4 281.1L544 281.3L548.8 261Z" fill="#BCA76B" stroke="#472B1F" style="fill:#BCA76B;fill:color(display-p3 0.7373 0.6549 0.4196);fill-opacity:1;stroke:#472B1F;stroke:color(display-p3 0.2784 0.1686 0.1216);stroke-opacity:1;" stroke-width="0.3"/>
<path id="Vector_45" d="M547 261.1C546.2 260.7 545.7 259.4 546 258.6C546.5 257.6 548 257.5 549 257.8C550.1 258.1 551.6 259.2 551.2 260.3C550.8 261.6 548.2 261.8 547 261.1Z" fill="#BCA76B" stroke="#472B1F" style="fill:#BCA76B;fill:color(display-p3 0.7373 0.6549 0.4196);fill-opacity:1;stroke:#472B1F;stroke:color(display-p3 0.2784 0.1686 0.1216);stroke-opacity:1;" stroke-width="0.3"/>
</g>
</g>
<path id="Vector_46" d="M567.7 261.6C565 265.6 565.2 270.9 564.2 275.6L566.5 276V272L567.9 267.3L569.4 261.9L567.7 261.6Z" fill="#472B1F" style="fill:#472B1F;fill:color(display-p3 0.2784 0.1686 0.1216);fill-opacity:1;"/>
<path id="Vector_47" d="M535.4 245.3C538.3 247.3 541.1 252.3 545.1 256.3M540.7 238C538.409 231.217 537.063 224.15 536.7 217M532.5 270.2L536.9 281.8M536.9 211.5C533 210.5 529.4 207.9 528.9 205.7M511.9 215.3C514.4 215.5 523.1 209.1 524.4 205.7M534 268.5L540.1 281.5M533.5 272.9L538 271.3M534.3 275.3L539 273.3M536.2 280.3L541.4 278.1M530.9 254.6L537.2 261.3M517.7 270.8L513.4 285.3M516.5 274H520.9M515.5 277.6L520.5 277.7M514.3 281.3L519.8 282.3" stroke="black" style="stroke:black;stroke-opacity:1;" stroke-width="0.5"/>
<g id="Group_7">
<path id="Vector_48" d="M528.8 203C527.8 202.7 525 202.6 523.9 203.5C523.4 203.9 523.9 205.5 524.6 205.5C526 205.5 527.9 205.5 528.6 205.2C529.1 204.7 529.5 203.2 528.8 203Z" fill="#BCA76B" stroke="#472B1F" style="fill:#BCA76B;fill:color(display-p3 0.7373 0.6549 0.4196);fill-opacity:1;stroke:#472B1F;stroke:color(display-p3 0.2784 0.1686 0.1216);stroke-opacity:1;" stroke-width="0.4"/>
<g id="Vector_49">
<path d="M513 215.2C514.9 222.8 522.9 221.5 522.6 214.6Z" fill="#BCA76B" style="fill:#BCA76B;fill:color(display-p3 0.7373 0.6549 0.4196);fill-opacity:1;"/>
<path d="M513 215.2C514.9 222.8 522.9 221.5 522.6 214.6" stroke="#472B1F" style="stroke:#472B1F;stroke:color(display-p3 0.2784 0.1686 0.1216);stroke-opacity:1;" stroke-width="0.5"/>
</g>
<g id="Vector_50">
<path d="M520.4 214.8C522.9 223.6 533.4 222.2 532.9 214.2Z" fill="#BCA76B" style="fill:#BCA76B;fill:color(display-p3 0.7373 0.6549 0.4196);fill-opacity:1;"/>
<path d="M520.4 214.8C522.9 223.6 533.4 222.2 532.9 214.2" stroke="#472B1F" style="stroke:#472B1F;stroke:color(display-p3 0.2784 0.1686 0.1216);stroke-opacity:1;" stroke-width="0.7"/>
</g>
<g id="Vector_51">
<path d="M529.3 214.7C531.7 221.1 535 219.9 539 214ZM541.3 211.7L511.7 213.4V215.4L541.7 213.8L541.3 211.7ZM514 241.4C516 249.6 524.3 248.4 524 240.8Z" fill="#BCA76B" style="fill:#BCA76B;fill:color(display-p3 0.7373 0.6549 0.4196);fill-opacity:1;"/>
<path d="M529.3 214.7C531.7 221.1 535 219.9 539 214M514 241.4C516 249.6 524.3 248.4 524 240.8M541.3 211.7L511.7 213.4V215.4L541.7 213.8L541.3 211.7Z" stroke="#472B1F" style="stroke:#472B1F;stroke:color(display-p3 0.2784 0.1686 0.1216);stroke-opacity:1;" stroke-width="0.5"/>
</g>
<g id="Vector_52">
<path d="M521.8 241C524.2 250.7 535.1 249.2 534.7 240.6Z" fill="#BCA76B" style="fill:#BCA76B;fill:color(display-p3 0.7373 0.6549 0.4196);fill-opacity:1;"/>
<path d="M521.8 241C524.2 250.7 535.1 249.2 534.7 240.6" stroke="#472B1F" style="stroke:#472B1F;stroke:color(display-p3 0.2784 0.1686 0.1216);stroke-opacity:1;" stroke-width="0.7"/>
</g>
<g id="Vector_53">
<path d="M531 241C533.4 248 536.8 246.7 541.1 240.4ZM543.5 238L512.8 239.2V241.4L543.8 240.3L543.5 238ZM513.3 264.9C515.3 273.5 523.8 272.1 523.5 264.2Z" fill="#BCA76B" style="fill:#BCA76B;fill:color(display-p3 0.7373 0.6549 0.4196);fill-opacity:1;"/>
<path d="M531 241C533.4 248 536.8 246.7 541.1 240.4M513.3 264.9C515.3 273.5 523.8 272.1 523.5 264.2M543.5 238L512.8 239.2V241.4L543.8 240.3L543.5 238Z" stroke="#472B1F" style="stroke:#472B1F;stroke:color(display-p3 0.2784 0.1686 0.1216);stroke-opacity:1;" stroke-width="0.5"/>
</g>
<g id="Vector_54">
<path d="M521.2 264.6C523.2 277.3 535 272.7 534.4 263.6Z" fill="#BCA76B" style="fill:#BCA76B;fill:color(display-p3 0.7373 0.6549 0.4196);fill-opacity:1;"/>
<path d="M521.2 264.6C523.2 277.3 535 272.7 534.4 263.6" stroke="#472B1F" style="stroke:#472B1F;stroke:color(display-p3 0.2784 0.1686 0.1216);stroke-opacity:1;" stroke-width="0.7"/>
</g>
<g id="Vector_55">
<path d="M530.6 264.3C533.3 271.5 536.8 270.1 541 263.5Z" fill="#BCA76B" style="fill:#BCA76B;fill:color(display-p3 0.7373 0.6549 0.4196);fill-opacity:1;"/>
<path d="M530.6 264.3C533.3 271.5 536.8 270.1 541 263.5" stroke="#472B1F" style="stroke:#472B1F;stroke:color(display-p3 0.2784 0.1686 0.1216);stroke-opacity:1;" stroke-width="0.7"/>
</g>
<path id="Vector_56" d="M543.5 261L512 262.8V265L543.8 263.3L543.5 261Z" fill="#BCA76B" stroke="#472B1F" style="fill:#BCA76B;fill:color(display-p3 0.7373 0.6549 0.4196);fill-opacity:1;stroke:#472B1F;stroke:color(display-p3 0.2784 0.1686 0.1216);stroke-opacity:1;" stroke-width="0.5"/>
<path id="Vector_57" d="M533 226.9L521.3 227.2V230.2L533.1 230.1L533 226.9ZM533 251.6L521.4 251.9V254.9L533.2 254.8L533 251.6Z" fill="#BCA76B" stroke="#472B1F" style="fill:#BCA76B;fill:color(display-p3 0.7373 0.6549 0.4196);fill-opacity:1;stroke:#472B1F;stroke:color(display-p3 0.2784 0.1686 0.1216);stroke-opacity:1;" stroke-width="0.3"/>
</g>
<g id="Group_8">
<path id="Vector_58" d="M503.7 265.1L512.4 285.9M460 271.7C459 278.2 457.5 286.5 455.8 292.8" stroke="black" style="stroke:black;stroke-opacity:1;" stroke-width="0.7"/>
<path id="Vector_59" d="M556.9 284.3C548.183 282.53 539.248 282.092 530.4 283C524.6 283.4 518.7 283.6 513.3 285.3C512.433 285.567 511.733 285.9 511.2 286.3C509.6 287.8 509.5 290.3 508.2 292C506.9 293.7 502.2 296.5 500.3 297.7C487.8 297.9 473.8 297.7 458 295.4L456 292.9L455 292L457.4 293H463L476.7 292.6C476.7 292.6 488.2 292.6 493.9 292.3L503.7 291.5C504.5 291.567 505.167 291.433 505.7 291.1C506.7 290.5 507 289.3 507.7 288.2C508.3 287.4 508.7 286.2 509.7 285.6C512.1 283.9 515.3 284 517.9 283.5C521.2 282.8 524.1 282.7 527.4 282.2L538.6 281.2C541 281.067 543.433 281.067 545.9 281.2C549.5 281.4 553.6 281.2 556.8 283C557.4 283.2 558.5 283.9 558.1 284.5C557.8 284.9 557.3 284.3 556.8 284.3H556.9Z" fill="black" stroke="black" style="fill:black;fill-opacity:1;stroke:black;stroke-opacity:1;" stroke-width="0.4"/>
<path id="Vector_60" d="M499.5 200.3C501.4 201.8 504.8 203 508.2 203.5M495.6 253C491.6 255.8 487.467 257.867 483.2 259.2M506.7 290L499.8 272M501.2 266.1L509.2 286.7M500.2 271.4L505.5 269.6" stroke="black" style="stroke:black;stroke-opacity:1;" stroke-width="0.5"/>
</g>
<path id="Vector_61" d="M496.6 197.6L495 293.4L500.7 293.1L499.7 197.7L496.6 197.6Z" fill="#BCA76B" stroke="#472B1F" style="fill:#BCA76B;fill:color(display-p3 0.7373 0.6549 0.4196);fill-opacity:1;stroke:#472B1F;stroke:color(display-p3 0.2784 0.1686 0.1216);stroke-opacity:1;" stroke-width="0.4"/>
<path id="Vector_62" d="M503.5 212.4C505.633 216.667 509.267 220 514.4 222.4" stroke="black" style="stroke:black;stroke-opacity:1;" stroke-width="0.7"/>
<g id="Group_9">
<g id="Vector_63">
<path d="M484.8 206.6C486.6 214.8 495.1 213.6 494.8 206Z" fill="#BCA76B" style="fill:#BCA76B;fill:color(display-p3 0.7373 0.6549 0.4196);fill-opacity:1;"/>
<path d="M484.8 206.6C486.6 214.8 495.1 213.6 494.8 206" stroke="#472B1F" style="stroke:#472B1F;stroke:color(display-p3 0.2784 0.1686 0.1216);stroke-opacity:1;" stroke-width="0.5"/>
</g>
<g id="Vector_64">
<path d="M492.6 206.3C494.9 215.9 505.8 214.4 505.4 205.8Z" fill="#BCA76B" style="fill:#BCA76B;fill:color(display-p3 0.7373 0.6549 0.4196);fill-opacity:1;"/>
<path d="M492.6 206.3C494.9 215.9 505.8 214.4 505.4 205.8" stroke="#472B1F" style="stroke:#472B1F;stroke:color(display-p3 0.2784 0.1686 0.1216);stroke-opacity:1;" stroke-width="0.7"/>
</g>
<g id="Vector_65">
<path d="M501.7 206.3C504.1 213.3 508.3 213.9 511.9 205.6ZM514.4 203.1L483.5 204.5V206.7L514.6 205.4L514.4 203.1ZM484.8 225.9C486.6 234.1 495.1 232.9 494.8 225.3Z" fill="#BCA76B" style="fill:#BCA76B;fill:color(display-p3 0.7373 0.6549 0.4196);fill-opacity:1;"/>
<path d="M501.7 206.3C504.1 213.3 508.3 213.9 511.9 205.6M484.8 225.9C486.6 234.1 495.1 232.9 494.8 225.3M514.4 203.1L483.5 204.5V206.7L514.6 205.4L514.4 203.1Z" stroke="#472B1F" style="stroke:#472B1F;stroke:color(display-p3 0.2784 0.1686 0.1216);stroke-opacity:1;" stroke-width="0.5"/>
</g>
<g id="Vector_66">
<path d="M492.6 225.6C494.9 235.2 505.8 233.7 505.4 225.1Z" fill="#BCA76B" style="fill:#BCA76B;fill:color(display-p3 0.7373 0.6549 0.4196);fill-opacity:1;"/>
<path d="M492.6 225.6C494.9 235.2 505.8 233.7 505.4 225.1" stroke="#472B1F" style="stroke:#472B1F;stroke:color(display-p3 0.2784 0.1686 0.1216);stroke-opacity:1;" stroke-width="0.7"/>
</g>
<g id="Vector_67">
<path d="M501.7 225.6C504.1 232.6 511.2 231.4 511.9 224.9ZM514.4 222.4L483.5 223.8V226L514.6 224.7L514.4 222.4Z" fill="#BCA76B" style="fill:#BCA76B;fill:color(display-p3 0.7373 0.6549 0.4196);fill-opacity:1;"/>
<path d="M501.7 225.6C504.1 232.6 511.2 231.4 511.9 224.9M514.4 222.4L483.5 223.8V226L514.6 224.7L514.4 222.4Z" stroke="#472B1F" style="stroke:#472B1F;stroke:color(display-p3 0.2784 0.1686 0.1216);stroke-opacity:1;" stroke-width="0.5"/>
</g>
</g>
<path id="Vector_68" d="M494 236.5C491.3 238.4 488.8 240.5 485.1 241.7" stroke="black" style="stroke:black;stroke-opacity:1;" stroke-width="0.7"/>
<g id="Group_10">
<g id="Vector_69">
<path d="M483.9 244C485.7 252.2 494.1 251 493.9 243.5Z" fill="#BCA76B" style="fill:#BCA76B;fill:color(display-p3 0.7373 0.6549 0.4196);fill-opacity:1;"/>
<path d="M483.9 244C485.7 252.2 494.1 251 493.9 243.5" stroke="#472B1F" style="stroke:#472B1F;stroke:color(display-p3 0.2784 0.1686 0.1216);stroke-opacity:1;" stroke-width="0.5"/>
</g>
<g id="Vector_70">
<path d="M491.6 243.6C494 253.3 504.9 251.9 504.6 243.2Z" fill="#BCA76B" style="fill:#BCA76B;fill:color(display-p3 0.7373 0.6549 0.4196);fill-opacity:1;"/>
<path d="M491.6 243.6C494 253.3 504.9 251.9 504.6 243.2" stroke="#472B1F" style="stroke:#472B1F;stroke:color(display-p3 0.2784 0.1686 0.1216);stroke-opacity:1;" stroke-width="0.7"/>
</g>
<g id="Vector_71">
<path d="M500.8 243.6C503.2 250.6 509.5 248.4 510.9 243.1ZM513.4 240.6L482.6 241.9V244.1L513.7 242.8L513.4 240.6Z" fill="#BCA76B" style="fill:#BCA76B;fill:color(display-p3 0.7373 0.6549 0.4196);fill-opacity:1;"/>
<path d="M500.8 243.6C503.2 250.6 509.5 248.4 510.9 243.1M513.4 240.6L482.6 241.9V244.1L513.7 242.8L513.4 240.6Z" stroke="#472B1F" style="stroke:#472B1F;stroke:color(display-p3 0.2784 0.1686 0.1216);stroke-opacity:1;" stroke-width="0.5"/>
</g>
</g>
<path id="Vector_72" d="M487.9 265.8C487.1 275.3 483.3 283.8 480.8 292.8M491.3 265.9C490.5 275.1 487.6 283.7 485.3 292.4M494.2 265.1C493.385 274.274 491.846 283.369 489.6 292.3" stroke="black" style="stroke:black;stroke-opacity:1;" stroke-width="0.5"/>
<g id="Group_11">
<g id="Vector_73">
<path d="M484.3 261.3C486.1 269.6 494.5 268.4 494.3 260.8Z" fill="#BCA76B" style="fill:#BCA76B;fill:color(display-p3 0.7373 0.6549 0.4196);fill-opacity:1;"/>
<path d="M484.3 261.3C486.1 269.6 494.5 268.4 494.3 260.8" stroke="#472B1F" style="stroke:#472B1F;stroke:color(display-p3 0.2784 0.1686 0.1216);stroke-opacity:1;" stroke-width="0.5"/>
</g>
<g id="Vector_74">
<path d="M492 261C494.4 270.6 505.3 269.2 504.9 260.5Z" fill="#BCA76B" style="fill:#BCA76B;fill:color(display-p3 0.7373 0.6549 0.4196);fill-opacity:1;"/>
<path d="M492 261C494.4 270.6 505.3 269.2 504.9 260.5" stroke="#472B1F" style="stroke:#472B1F;stroke:color(display-p3 0.2784 0.1686 0.1216);stroke-opacity:1;" stroke-width="0.7"/>
</g>
<g id="Vector_75">
<path d="M501.2 261C503.6 268 509.8 266.7 511.3 260.4ZM513.8 257.9L483 259.2V261.4L514 260.1L513.8 257.9Z" fill="#BCA76B" style="fill:#BCA76B;fill:color(display-p3 0.7373 0.6549 0.4196);fill-opacity:1;"/>
<path d="M501.2 261C503.6 268 509.8 266.7 511.3 260.4M513.8 257.9L483 259.2V261.4L514 260.1L513.8 257.9Z" stroke="#472B1F" style="stroke:#472B1F;stroke:color(display-p3 0.2784 0.1686 0.1216);stroke-opacity:1;" stroke-width="0.5"/>
</g>
<path id="Vector_76" d="M504 216L493 216.5V219.5H504V216ZM503.6 234.8L493.7 235V237.8H503.6V234.8ZM504.1 252.9L493.6 253.3V256.2H504.2L504.1 252.9Z" fill="#BCA76B" stroke="#472B1F" style="fill:#BCA76B;fill:color(display-p3 0.7373 0.6549 0.4196);fill-opacity:1;stroke:#472B1F;stroke:color(display-p3 0.2784 0.1686 0.1216);stroke-opacity:1;" stroke-width="0.3"/>
</g>
<path id="Vector_77" d="M487.7 269.3L493.4 270.4M486.4 274.6L493 274.8M485.3 278.5L492.2 280.5M483.5 284.5L491.5 284.2M482 289.5L490.5 289.3M480.1 265.6C479.1 275.3 485.4 284.5 488.5 292.6M506 287.6L511.4 285.9M504.7 284.6L510.8 282M502.8 280L509.1 278.1M501.3 275.6L507.5 274" stroke="black" style="stroke:black;stroke-opacity:1;" stroke-width="0.5"/>
<path id="Vector_78" d="M468 309.7C467.2 309.633 466.467 309.5 465.8 309.3L463.8 308.6C463.067 308.2 462.4 307.767 461.8 307.3L460.1 305.9L458.1 304L456.3 302C455.634 301.4 455.034 300.767 454.5 300.1C454 299.6 453.9 298.6 453.5 298.1C452.7 297.9 451.6 297.8 451.5 296.7C451.3 296.1 451.2 295.4 450.5 295.5C450.1 295.5 450 296 450.2 295.7C449.8 295.5 449.9 296.4 449.9 295.9L449.4 296.9C449 297.767 449.2 298.3 450 298.5C450.8 298.6 451 299.5 451.7 299.9C452.234 300.567 452.867 301.167 453.6 301.7L455.1 303.7C455.5 304.233 456 304.733 456.6 305.2L457.9 306.9L459.7 308.4L461.5 309.4C462.1 309.733 462.767 310.033 463.5 310.3C464.234 310.567 465.067 310.7 466 310.7C466.8 310.767 467.567 310.6 468.3 310.2C469 309.7 468.3 309.8 467.9 309.7H468ZM512.8 287.9C511.717 290.74 510.162 293.377 508.2 295.7C514.8 297 520.1 295.2 526 294.2C525.467 291.533 525.334 288.767 525.6 285.9C520.9 286.4 517.6 287.5 512.8 287.9Z" fill="black" style="fill:black;fill-opacity:1;"/>
<path id="Vector_79" d="M513.4 288.6C512.6 290.7 511.9 292.9 510.3 294.7C515.7 295.9 520.1 294.2 525 293.3C524 291.3 524.3 289.3 524.6 287.1C520.933 287.567 517.2 288.067 513.4 288.6Z" fill="#333333" style="fill:#333333;fill:color(display-p3 0.2000 0.2000 0.2000);fill-opacity:1;"/>
<path id="Vector_80" d="M456.5 298.2L475.6 299.6C491 300.1 508.6 299.4 523.8 297.6C524.4 297.6 525.5 297.4 525.7 298C525.9 298.6 524.9 299.6 524.2 299.7C506.7 302 489 301.1 471.4 301L461 299.9L456.5 298.2Z" fill="black" style="fill:black;fill-opacity:1;"/>
<path id="Vector_81" d="M463.5 255.3C458.5 259.1 453.7 262.9 448.1 265.1M464.2 237.2C459.7 240.5 455.2 244.5 450.5 246.4" stroke="black" style="stroke:black;stroke-opacity:1;" stroke-width="0.7"/>
<path id="Vector_82" d="M462.6 204.3L462.5 293.8L467.4 293.4L464.5 203.8L462.6 204.3Z" fill="#BCA76B" stroke="#472B1F" style="fill:#BCA76B;fill:color(display-p3 0.7373 0.6549 0.4196);fill-opacity:1;stroke:#472B1F;stroke:color(display-p3 0.2784 0.1686 0.1216);stroke-opacity:1;" stroke-width="0.4"/>
<path id="Vector_83" d="M464.5 203.8C468.5 208.2 471.7 210.6 475 213.4" stroke="black" style="stroke:black;stroke-opacity:1;" stroke-width="0.7"/>
<path id="Vector_84" d="M465.8 201.2C464.8 200.7 462.1 200.6 461.1 201.9C460.5 202.5 461 204.8 461.7 204.8C463.1 204.8 464.9 204.9 465.5 204.3C466.1 203.7 466.5 201.6 465.8 201.3V201.2Z" fill="#BCA76B" stroke="#472B1F" style="fill:#BCA76B;fill:color(display-p3 0.7373 0.6549 0.4196);fill-opacity:1;stroke:#472B1F;stroke:color(display-p3 0.2784 0.1686 0.1216);stroke-opacity:1;" stroke-width="0.5"/>
<path id="Vector_85" d="M463 305.3C463.2 304.633 463.667 304.3 464.4 304.3C465.333 304.167 466.1 304.2 466.7 304.4L468.1 305.1L469.4 306.1C471 306.6 470.2 304.8 471.1 304.7C472 304.6 472.7 304.4 473.3 304.7C473.833 304.9 474.233 305.233 474.5 305.7L475.4 306.5C475.5 307 477.3 307.8 477.4 306.7C477.7 306 477.5 304.7 478.7 304.8C480.033 304.867 481.267 305 482.4 305.2C483 305.4 483.567 305.733 484.1 306.2C484.6 306.4 484.5 307 484.9 306.9C486.2 307.9 485.9 306.2 486.3 305.6C486.6 305.1 487.5 305.3 487.9 304.9C488.7 304.633 489.567 304.5 490.5 304.5L492.3 305.5C492.7 305.767 493.033 306.2 493.3 306.8C493.4 307.4 494 307.9 494.5 307.4C494.8 306.8 495.3 306.8 495.8 306.4C496.333 306.333 496.733 306.067 497 305.6C497.3 305.6 497.6 304.9 498 304.6C498.6 304.333 499.4 304.2 500.4 304.2C501.4 304.4 502.167 304.667 502.7 305C502.967 305.4 503.3 305.733 503.7 306C504 306.5 504.7 306 505.1 305.8L506.5 305C506.9 304.6 507.533 304.367 508.4 304.3C509.4 304.2 509.9 304.7 510.6 304.8C511.467 305 512.133 305.267 512.6 305.6C513.267 306.133 513.867 306.2 514.4 305.8C515.1 305.8 514.6 304.5 514.8 304.2C515.6 303.6 517.5 303.6 518.5 304L520.9 304.2C521.3 304.4 521.567 304.8 521.7 305.4C522 305.9 523.5 305.9 524 305.5C524.4 305.5 523.9 304.8 523.7 304.6L522.9 303.6C523.6 303.2 523.9 303.9 524.6 304C524.933 304.2 525.333 304.467 525.8 304.8C526.267 305.133 526.933 305.267 527.8 305.2C528.6 305.5 528.3 306.7 527.3 306.4C526.6 306.7 525.4 306.4 524.6 306.5H520.4C519.6 306.567 518.733 306.667 517.8 306.8C517 306.867 516.2 306.9 515.4 306.9C514.4 307.033 513.4 307.067 512.4 307C511.6 307.133 510.767 307.233 509.9 307.3C509.167 307.367 508.367 307.4 507.5 307.4C506.3 307.7 504.8 307.4 503.5 307.5C502.633 307.633 501.867 307.7 501.2 307.7L498.7 307.9C497.767 307.967 496.9 308 496.1 308C494.6 308.3 493.1 308 491.6 308.1C490.8 308.1 489.967 308.033 489.1 307.9H487C486.4 307.6 485.3 307.9 484.7 307.6H474.8C474.3 307.3 473.3 307.6 472.5 307.4H468.8C467.8 307.2 466.8 307.4 465.9 307C464.6 306.8 462.9 306.4 463.1 305.3H463Z" fill="black" stroke="black" style="fill:black;fill-opacity:1;stroke:black;stroke-opacity:1;" stroke-width="0.9"/>
<g id="Group_12">
<g id="Vector_86">
<path d="M452.1 215.4C453.7 221.1 461.1 220.2 460.8 215Z" fill="#BCA76B" style="fill:#BCA76B;fill:color(display-p3 0.7373 0.6549 0.4196);fill-opacity:1;"/>
<path d="M452.1 215.4C453.7 221.1 461.1 220.2 460.8 215" stroke="#472B1F" style="stroke:#472B1F;stroke:color(display-p3 0.2784 0.1686 0.1216);stroke-opacity:1;" stroke-width="0.4"/>
</g>
<g id="Vector_87">
<path d="M458.8 215C460.9 221.8 470.5 220.9 470.1 214.8Z" fill="#BCA76B" style="fill:#BCA76B;fill:color(display-p3 0.7373 0.6549 0.4196);fill-opacity:1;"/>
<path d="M458.8 215C460.9 221.8 470.5 220.9 470.1 214.8" stroke="#472B1F" style="stroke:#472B1F;stroke:color(display-p3 0.2784 0.1686 0.1216);stroke-opacity:1;" stroke-width="0.5"/>
</g>
<g id="Vector_88">
<path d="M467 215C469 220 472.7 220.5 475.8 214.7ZM477.9 213L450.9 214V215.4L478.1 214.6L477.9 213Z" fill="#BCA76B" style="fill:#BCA76B;fill:color(display-p3 0.7373 0.6549 0.4196);fill-opacity:1;"/>
<path d="M467 215C469 220 472.7 220.5 475.8 214.7M477.9 213L450.9 214V215.4L478.1 214.6L477.9 213Z" stroke="#472B1F" style="stroke:#472B1F;stroke:color(display-p3 0.2784 0.1686 0.1216);stroke-opacity:1;" stroke-width="0.4"/>
</g>
</g>
<path id="Vector_89" d="M459.5 226C457.1 228 452.7 230.7 450.7 230.5" stroke="black" style="stroke:black;stroke-opacity:1;" stroke-width="0.7"/>
<path id="Vector_90" d="M454.7 218.5C448.948 240.263 442.106 261.724 434.2 282.8" stroke="black" style="stroke:black;stroke-opacity:1;" stroke-width="0.7"/>
<g id="Group_13">
<g id="Vector_91">
<path d="M451.9 232C453.4 238.3 461 237.3 460.8 231.6Z" fill="#BCA76B" style="fill:#BCA76B;fill:color(display-p3 0.7373 0.6549 0.4196);fill-opacity:1;"/>
<path d="M451.9 232C453.4 238.3 461 237.3 460.8 231.6" stroke="#472B1F" style="stroke:#472B1F;stroke:color(display-p3 0.2784 0.1686 0.1216);stroke-opacity:1;" stroke-width="0.4"/>
</g>
<g id="Vector_92">
<path d="M458.2 231.9C460.2 240.3 470.2 238.9 469.8 231.5Z" fill="#BCA76B" style="fill:#BCA76B;fill:color(display-p3 0.7373 0.6549 0.4196);fill-opacity:1;"/>
<path d="M458.2 231.9C460.2 240.3 470.2 238.9 469.8 231.5" stroke="#472B1F" style="stroke:#472B1F;stroke:color(display-p3 0.2784 0.1686 0.1216);stroke-opacity:1;" stroke-width="0.7"/>
</g>
<g id="Vector_93">
<path d="M467 231.8C469.3 237 473.7 237.5 477 231.5ZM478.2 228.9L450.7 230.2V232.2L478.5 231.2L478.2 228.9ZM450.3 248C452.1 255.7 460.3 254.5 460 247.5Z" fill="#BCA76B" style="fill:#BCA76B;fill:color(display-p3 0.7373 0.6549 0.4196);fill-opacity:1;"/>
<path d="M467 231.8C469.3 237 473.7 237.5 477 231.5M450.3 248C452.1 255.7 460.3 254.5 460 247.5M478.2 228.9L450.7 230.2V232.2L478.5 231.2L478.2 228.9Z" stroke="#472B1F" style="stroke:#472B1F;stroke:color(display-p3 0.2784 0.1686 0.1216);stroke-opacity:1;" stroke-width="0.5"/>
</g>
<g id="Vector_94">
<path d="M457.9 248C460.3 259 471.7 257.5 471.3 247.3Z" fill="#BCA76B" style="fill:#BCA76B;fill:color(display-p3 0.7373 0.6549 0.4196);fill-opacity:1;"/>
<path d="M457.9 248C460.3 259 471.7 257.5 471.3 247.3" stroke="#472B1F" style="stroke:#472B1F;stroke:color(display-p3 0.2784 0.1686 0.1216);stroke-opacity:1;" stroke-width="0.8"/>
</g>
<g id="Vector_95">
<path d="M466.8 247.8C469.2 254.2 473.4 254.8 476.7 247.3ZM479 244.9L447.5 246.2L447.7 248L479.3 247.1L479 244.9ZM449.8 266.6C451.6 274.8 460.5 273.6 460.3 266.2Z" fill="#BCA76B" style="fill:#BCA76B;fill:color(display-p3 0.7373 0.6549 0.4196);fill-opacity:1;"/>
<path d="M466.8 247.8C469.2 254.2 473.4 254.8 476.7 247.3M449.8 266.6C451.6 274.8 460.5 273.6 460.3 266.2M479 244.9L447.5 246.2L447.7 248L479.3 247.1L479 244.9Z" stroke="#472B1F" style="stroke:#472B1F;stroke:color(display-p3 0.2784 0.1686 0.1216);stroke-opacity:1;" stroke-width="0.5"/>
</g>
</g>
<path id="Vector_96" d="M473.1 270.9C475.034 278.7 477.2 285.933 479.6 292.6M470.7 270.6C471.7 278.2 473.8 285.5 476 292.6" stroke="black" style="stroke:black;stroke-opacity:1;" stroke-width="0.7"/>
<g id="Group_14">
<g id="Vector_97">
<path d="M457.9 266.3C460.1 277.3 471.7 276.4 471.5 265.8Z" fill="#BCA76B" style="fill:#BCA76B;fill:color(display-p3 0.7373 0.6549 0.4196);fill-opacity:1;"/>
<path d="M457.9 266.3C460.1 277.3 471.7 276.4 471.5 265.8" stroke="#472B1F" style="stroke:#472B1F;stroke:color(display-p3 0.2784 0.1686 0.1216);stroke-opacity:1;" stroke-width="0.7"/>
</g>
<g id="Vector_98">
<path d="M467.6 266.3C470.2 273.3 474.6 273.9 478.2 265.8ZM480.7 262.9L445.8 264.2V266.8L481.3 265.5L480.7 262.9Z" fill="#BCA76B" style="fill:#BCA76B;fill:color(display-p3 0.7373 0.6549 0.4196);fill-opacity:1;"/>
<path d="M467.6 266.3C470.2 273.3 474.6 273.9 478.2 265.8M480.7 262.9L445.8 264.2V266.8L481.3 265.5L480.7 262.9Z" stroke="#472B1F" style="stroke:#472B1F;stroke:color(display-p3 0.2784 0.1686 0.1216);stroke-opacity:1;" stroke-width="0.7"/>
</g>
<path id="Vector_99" d="M469.4 223.5L459.4 223.8V226H469.6L469.4 223.5ZM469.4 239.8L459.4 240V242.3H469.6L469.4 239.8ZM470.1 257.5L459.3 257.8V260H470.3L470.1 257.5Z" fill="#BCA76B" stroke="#472B1F" style="fill:#BCA76B;fill:color(display-p3 0.7373 0.6549 0.4196);fill-opacity:1;stroke:#472B1F;stroke:color(display-p3 0.2784 0.1686 0.1216);stroke-opacity:1;" stroke-width="0.3"/>
</g>
<g id="Group_15">
<path id="Vector_100" d="M474.1 273.2L468.4 274.4M475 277.5L469.3 278.7M476.3 282.3L470.5 282M478 286.8L472 287.8M451.2 285.9L457.2 287.1M452.9 281L458.3 282.2M454.3 277.2L459.3 278.5M455.3 273.8L459.8 274.7" stroke="black" style="stroke:black;stroke-opacity:1;" stroke-width="0.5"/>
<path id="Vector_101" d="M526.9 293.9C536.9 293.4 548.9 292.2 557.1 295.4M527.6 297.2C536.8 295.8 547.6 295.1 555.6 298.1M528.6 303.9C535.832 302.262 543.327 302.16 550.6 303.6M529.3 305.5C536.136 307.086 543.236 307.154 550.1 305.7" stroke="black" style="stroke:black;stroke-opacity:1;"/>
</g>
<path id="Vector_102" d="M431.5 282.1L453.2 295.1L453.7 294.6L446.9 289.9C441.9 286.9 437.1 283.9 431.5 282.1Z" fill="black" style="fill:black;fill-opacity:1;"/>
<g id="Group_16">
<path id="Vector_103" d="M535.7 292.8L535.5 285.6M537.9 285.6V293.1M541.9 293.1V285.4M546.5 286.1V293.5M549.2 286V293.6M552.8 286.8V293.8M554.6 286.7V294.6M536.6 296V302.8M534.3 296.3V302.8M540.3 296.1L540 302.6M542.5 296L542.4 302.5M545.8 296L545.4 302.2M548.9 296.8L547.7 302.6" stroke="black" style="stroke:black;stroke-opacity:1;" stroke-width="0.5"/>
<path id="Vector_104" d="M527 286C537 284.8 546.9 286.3 556.8 287.3" stroke="black" style="stroke:black;stroke-opacity:1;"/>
</g>
<path id="Vector_105" d="M581.1 197C581.2 171.4 579.8 146.6 580.4 124.9C547.4 110.2 503.8 107.2 481.7 107.2C459.6 107.2 415.9 110.2 382.9 124.9C383.5 146.6 382.1 171.4 382.2 196.9L581.1 197Z" stroke="black" style="stroke:black;stroke-opacity:1;" stroke-width="2"/>
<path id="Vector_106" d="M475.7 155.4C475.7 155.4 479.3 160.8 480.3 163.6C480.767 165.133 480.934 166.6 480.8 168C480.6 170.7 479.6 173.3 478.8 175.8C478.2 177.6 476.8 179 477.6 180.7C477.9 181.5 478.3 182.3 479.2 182.2C479.7 182.1 480 181.4 480.4 181L481.4 180.4C481.9 180.2 482.6 180.5 483 180.1C483.4 179.7 483.5 179.233 483.3 178.7C483 178.4 482.5 178.7 482 178.7C481.5 178.7 480.8 179.2 480.3 178.9C479.8 178.6 479.5 177.2 479.5 177.2L481.1 172.8C481.6 171.6 482.4 170.5 482.6 169.2V168C482.6 167.3 482.4 166.6 482.9 166C483.1 165.8 483.9 166.2 484.1 165.8C484.7 164.3 482 163.3 481.3 161.8C481.3 161.267 481.234 160.7 481.1 160.1C480.6 158.8 479.1 156.6 479.1 156.6L475.7 155.4Z" fill="#69737C" stroke="black" style="fill:#69737C;fill:color(display-p3 0.4118 0.4510 0.4863);fill-opacity:1;stroke:black;stroke-opacity:1;" stroke-width="0.7"/>
<path id="Vector_107" d="M486.9 159.6C486.9 159.6 490 163.6 490.4 165.9C490.266 166.367 490.133 166.9 490 167.5C490 168.3 490.5 169.1 490.5 170C490.3 172.7 488.9 175.2 488.2 177.8L486.8 184.5L488.8 184.3L489.2 180.9L490.7 175.1L491.7 171.1C492.166 170.3 492.6 169.467 493 168.6C493.2 167.4 493.6 166.1 493 165C492.733 164.667 492.4 164.433 492 164.3C491.345 163.551 490.806 162.708 490.4 161.8C489.9 160.8 489.4 158.8 489.4 158.8C488.9 159.1 486.9 159.6 486.9 159.6Z" fill="#66452B" stroke="black" style="fill:#66452B;fill:color(display-p3 0.4000 0.2706 0.1686);fill-opacity:1;stroke:black;stroke-opacity:1;" stroke-width="0.7"/>
<path id="Vector_108" d="M471.9 152.3L474.2 154.2L478 156.5L479.9 156.7L481.9 157.4L484.5 157.3L486.4 159.3L486.8 159.6L489 159.3L489.8 158.4L493.8 152.4L492.8 142.4L473.8 143.5L471.9 152.3Z" fill="white" style="fill:white;fill-opacity:1;"/>
<path id="Vector_109" d="M492.4 135.4C495.043 137.436 497.427 139.787 499.5 142.4C501 144.2 501.9 146.7 504.3 147.8C507.5 151.2 521.2 155.2 521.3 156.3C518.1 155 516.7 159.3 513.6 158.6C510.8 159.4 508.4 157.6 506 156.6C502.2 156.4 498.4 156.6 495.1 158.5C493.3 159.5 491.2 158 489.8 158.5L489.6 158.7L489.4 158.9M471.9 152.4C469.7 151.3 468.1 149.2 466 148C464.5 145.8 462.4 143.5 462.5 140.6C462.3 137.6 461.5 133.4 462.9 130.6C461.9 128.3 460.5 127.6 459.3 125.5C458.5 122.4 455.4 120.6 457.3 118.3C459.3 116.4 460.8 114.3 463.5 113.3C465.704 112.845 467.991 113.018 470.1 113.8C472.8 114.1 474.3 116.4 475.8 118.5C477.569 121.257 478.728 124.359 479.2 127.6C480.5 130.2 483.9 130.8 486.4 131.9C488.4 132.9 490.6 133.8 492.4 135.4" fill="white" style="fill:white;fill-opacity:1;"/>
<path id="Vector_110" d="M507.4 153.2C506.4 153.1 503.8 154.2 504.4 152.5C501.8 152.3 499 152.9 496.4 152C493.73 150.776 490.951 149.805 488.1 149.1C485.4 149.1 482.1 149.6 480 147.4C477.8 146.1 474.6 147 472.6 145.1C471.59 144.274 470.771 143.237 470.201 142.063C469.631 140.889 469.324 139.605 469.3 138.3C469 135.7 468 132.2 470.9 130.6C472.9 130 474.7 130.6 475.9 128.6C478.264 128.352 480.64 128.955 482.6 130.3C485.1 131.5 487.9 132.3 490.3 133.7C492.6 135.2 494.5 137.2 496.7 138.9C498.4 140.9 500.4 142.6 501.5 145C502.8 147.6 505.5 149 507.8 150.4C509.1 150.8 512.4 152.4 509.3 152.7C508.766 152.9 508.1 153.067 507.3 153.2H507.4Z" fill="black" style="fill:black;fill-opacity:1;"/>
<path id="Vector_111" d="M480.5 144.6C479.075 144.531 477.694 144.082 476.5 143.3C475.8 142.8 473.5 141.5 475 140.5C476.1 140.4 477.5 141 478.5 140.1C480.1 139.8 481.7 139.8 483.2 139.1C484.6 138.3 486.2 138.8 487.6 138.3C488.6 137.8 488.4 135.7 490 136.1C491.5 135.7 491 138.5 489.8 137.6C488.9 138.7 491.2 139.1 491.8 139.8C493 141.2 490.3 141.5 490.1 142.5C488.4 143 487.1 140.9 485.5 141.5C485.2 142 485.5 143.2 484.4 142.9C482.9 142 481.7 143 480.4 143.2C480.8 143.5 479.8 144.7 480.4 144.6H480.5ZM509.6 154.6C508.8 154.2 507.8 154.6 506.9 154.6C506.3 154.6 505.733 154.533 505.2 154.4C504.3 154.4 502.7 153.4 502.4 154.7C502.4 155.2 503.9 155.5 502.7 155.7C501.633 155.7 500.533 155.433 499.4 154.9C498.9 154.5 498 153.9 498.3 154.9C498.6 155.9 497.7 156.2 496.9 156.2C495.807 156.171 494.753 155.785 493.9 155.1C493.3 155.7 494.7 156.7 495.5 156.8C496.3 157.4 494.3 157.2 493.8 157.1C493.133 156.9 492.467 156.967 491.8 157.3C490.8 157.5 490.8 158.4 491.9 158.3C492.9 158.6 494.1 159 495.2 158.5C496.285 157.778 497.513 157.301 498.8 157.1L501.8 156.6H505.9C507.033 156.867 508.033 156.7 508.9 156.1C509.6 155.9 511.3 155.2 510.1 154.7C509.967 154.633 509.8 154.633 509.6 154.7V154.6Z" fill="#69737C" style="fill:#69737C;fill:color(display-p3 0.4118 0.4510 0.4863);fill-opacity:1;"/>
<path id="Vector_112" d="M506 156.5C506.534 156.5 507 156.433 507.4 156.3L509.1 155.7C509.8 155.7 510.1 154.7 509.4 154.6L508.1 153.9L506.7 153.1L507.7 151.9L509.2 151.6H510.4L512.1 152.3L513.8 153.1L515.3 153.5C515.834 153.767 516.4 153.967 517 154.1C517.6 154.3 517.8 154.9 518.5 154.8C519.167 154.933 519.767 155.167 520.3 155.5C520.834 155.7 521.167 156 521.3 156.4C520.8 156.4 520.3 155.9 519.8 156.1C519.3 156.1 519 156.6 518.5 156.5C518.3 157.1 517.5 157 517.1 157.6L515.2 158.7C514.948 158.81 514.676 158.867 514.4 158.867C514.125 158.867 513.852 158.81 513.6 158.7C512.933 158.633 512.334 158.567 511.8 158.5C511.134 158.633 510.5 158.6 509.9 158.4C509.3 158.2 508.834 157.9 508.5 157.5L506.4 156.8L505.8 156.5H506ZM465 113C464.534 113 464 113.067 463.4 113.2C462.467 113.4 461.667 113.867 461 114.6C460.247 115.515 459.372 116.322 458.4 117C457.908 117.338 457.498 117.783 457.2 118.3C457.934 118.767 458.567 118.7 459.1 118.1C459.767 117.367 460.534 116.8 461.4 116.4C462.2 116.2 463 116.6 463.8 116.6C464.401 117.009 465.083 117.282 465.8 117.4L467.4 117.7C468.134 117.967 468.867 118.167 469.6 118.3C470.534 118.433 471.4 118.433 472.2 118.3H472.8L472.6 118.9C472.6 119.433 472.767 119.933 473.1 120.4L473.9 121.7L474.6 123.3L475.2 124.6C475.267 125.133 475.5 125.567 475.9 125.9L476.9 127.3L477.7 128.6C478 128.9 478.4 129.4 478.9 129.3C479.434 129.3 479.967 129.233 480.5 129.1H480.3C479.834 128.767 479.5 128.333 479.3 127.8L479.1 126.3C479.1 125.767 478.967 125.267 478.7 124.8L478.3 123.6C478.034 123.067 477.867 122.633 477.8 122.3L477.1 120.8L476.4 119.4L475.6 118.1L475 117.6C475 117.4 474.9 117.167 474.7 116.9C474.234 116.433 473.867 115.933 473.6 115.4C472.867 114.733 472.034 114.3 471.1 114.1L468.1 113.2L465.6 113H465.1H465Z" fill="black" style="fill:black;fill-opacity:1;"/>
<path id="Vector_113" d="M474.6 126.5C474.6 125.8 473.6 126 473.3 126.5C472.9 127.033 472.467 127.533 472 128C471 128.7 470 128.8 469 129.4C468.667 130 468.167 130.5 467.5 130.9C466.7 131.233 466.1 131.733 465.7 132.4C465.6 132.9 465.2 133.7 465.7 134.1C466.4 134.4 465.7 135.1 465.8 135.5C466.1 136 467 136.2 467.5 135.9C468.167 135.433 468.767 134.933 469.3 134.4C469.967 133.533 470.734 132.867 471.6 132.4C472.191 132.228 472.715 131.879 473.1 131.4C473.6 131 473.1 130.4 473.9 130.2C474.5 129.867 474.934 129.433 475.2 128.9C475.6 128.3 474.9 127.8 475 127.2C475 127 474.9 126.767 474.7 126.5H474.6Z" fill="#69737C" style="fill:#69737C;fill:color(display-p3 0.4118 0.4510 0.4863);fill-opacity:1;"/>
<path id="Vector_114" d="M485.2 185H481.5C480.9 184.8 480.5 183.8 479.6 184.2C478.933 184.4 478.3 184.733 477.7 185.2C477.082 185.518 476.537 185.96 476.1 186.5C476 186.9 474.9 187.3 475.9 187.3C476.7 187.4 477.2 186.5 477.9 186.4C478.6 186.1 479.4 186.4 479.9 186.3H481.7L483.7 186.5C484.6 186.5 483.3 187.1 483 187.3C482.333 187.567 481.566 187.733 480.7 187.8C479.833 187.867 479.066 187.967 478.4 188.1C477.733 188.433 477.066 188.833 476.4 189.3C476 189.5 475 190 476 190C476.666 190 477.3 189.9 477.9 189.7L481.3 188.8C482.1 188.6 482.866 188.4 483.6 188.2C484.1 188.2 485.3 187.9 484.9 188.8C484.435 189.395 483.81 189.845 483.1 190.1C482.566 190.5 481.933 190.767 481.2 190.9C480.7 190.7 479.5 191.1 480.4 191.7C480.8 192.4 481.7 191.9 482.2 191.7L484.2 190.8L486.4 189.8C487.066 189.6 487.733 189.333 488.4 189C489.066 188.667 489.633 188.167 490.1 187.5C490.366 186.9 490.8 186.5 491.4 186.3C492.1 186.1 492.8 186.3 493.4 186.1C494.2 186.1 494 184.7 493.3 184.6L491.5 183.4C490.833 183.067 490.066 182.933 489.2 183C488.871 183.022 488.554 183.125 488.274 183.3C487.995 183.474 487.764 183.715 487.6 184C487.2 184.5 487.1 185.4 486.3 185.2C485.9 185.267 485.533 185.2 485.2 185ZM467.2 189.6C467.2 189.6 467.8 187.1 468.7 186.2C470.7 184.3 475.9 183 475.9 183C473.6 184 470.9 183.2 468.7 183.9C466.9 184.4 463.8 186.8 463.8 186.8C463.8 186.8 465 184.3 465.8 183.3C468.5 180.4 472.6 180.1 475.8 180.6L479.4 181C479.4 181 480 181.4 479.7 182C479.2 183.1 477.5 183.8 476.3 184.3C473.1 186 469.1 187.3 467.1 189.6H467.2Z" fill="#66452B" stroke="black" style="fill:#66452B;fill:color(display-p3 0.4000 0.2706 0.1686);fill-opacity:1;stroke:black;stroke-opacity:1;" stroke-width="0.7"/>
<path id="Vector_115" d="M478 180.6C475.1 182.5 468.5 186 468.7 186.2C468.7 186.2 474.4 184.9 477 183.6C477.9 183.2 479.2 182.9 479.5 181.9C479.566 181.367 479.4 180.9 479 180.5C478.848 180.412 478.675 180.366 478.5 180.366C478.324 180.366 478.152 180.412 478 180.5V180.6Z" fill="#69737C" stroke="black" style="fill:#69737C;fill:color(display-p3 0.4118 0.4510 0.4863);fill-opacity:1;stroke:black;stroke-opacity:1;" stroke-width="0.7"/>
<path id="Vector_116" d="M491.7 165.4C491.1 165.4 491 166.7 490.9 167.4C490.9 167.9 490.9 168.8 491.4 168.8C491.9 168.8 492.2 167.8 492.2 167.1C492.2 166.6 492.3 165.5 491.7 165.4Z" fill="#69737C" style="fill:#69737C;fill:color(display-p3 0.4118 0.4510 0.4863);fill-opacity:1;"/>
<path id="Vector_117" d="M488.8 184.3C488.8 183.8 488.1 184.1 487.8 184.2C487.133 184.333 486.5 184.633 485.9 185.1L484.5 186L481.6 187.5L480.3 188C480.033 188.133 480.067 188.2 480.4 188.2C481.067 188.4 481.733 188.367 482.4 188.1L484.6 187.4C485.133 187.133 485.667 186.9 486.2 186.7C486.5 186.5 487.5 186.3 487.8 186.2C488.4 185.8 488.2 185.4 488.9 185.4C489.4 185.4 489.4 184.7 488.9 184.6V184.3H488.8Z" fill="#69737C" stroke="black" style="fill:#69737C;fill:color(display-p3 0.4118 0.4510 0.4863);fill-opacity:1;stroke:black;stroke-opacity:1;" stroke-width="0.7"/>
<path id="Vector_118" d="M482.3 190.4C482.833 190.4 483.333 190.3 483.8 190.1L485.7 189.5L486.5 189.1C487.003 188.733 487.414 188.254 487.7 187.7L488.4 186.4C488.4 186 488.2 185.9 487.8 186.1L486.8 186.9L485.8 187.7C485.533 188.167 485.2 188.633 484.8 189.1L484.2 189.5L482.6 190.2L482.3 190.4Z" fill="#69737C" stroke="black" style="fill:#69737C;fill:color(display-p3 0.4118 0.4510 0.4863);fill-opacity:1;stroke:black;stroke-opacity:1;" stroke-width="0.7"/>
<path id="Vector_119" d="M489.2 152.9C489.4 153.233 489.533 153.567 489.6 153.9L489.8 155.4C489.8 155.9 489.3 156.2 489.2 156.7V157.7C489 158.2 489.2 158.7 489 159.3C488.7 159.8 488 159.4 487.5 159.5C486.967 159.7 486.6 159.6 486.4 159.2L485.2 158C484.667 157.533 484.233 157.033 483.9 156.5L483 155.1L482.8 154.6M484.5 157.3H481.9C481.6 157.3 480.9 157.3 480.7 157C480.433 157 480.167 156.9 479.9 156.7C479.633 156.633 479.4 156.633 479.2 156.7M479.2 156.7C478.933 156.233 478.633 155.867 478.3 155.6L477.6 155.1L477.1 154.5L476.6 153.7L476.2 152.9V152.7M479.2 156.7C479.1 157.2 478.4 156.7 478.1 156.5L477.3 156.2L476.6 155.8L475.8 155.3C475.4 155.1 475.067 154.933 474.8 154.8L473.8 154C473.267 153.733 472.867 153.4 472.6 153C472.133 152.8 471.9 152.467 471.9 152L471.6 150.8C471.533 150.667 471.5 150.5 471.5 150.3" stroke="black" style="stroke:black;stroke-opacity:1;" stroke-width="0.7"/>
<path id="Vector_120" d="M507.4 157L508.6 156.8L509.8 156.6C510.133 156.267 510.5 156.1 510.9 156.1C511.433 156.1 511.867 156.033 512.2 155.9C512.311 155.745 512.464 155.625 512.641 155.554C512.819 155.483 513.012 155.464 513.2 155.5C513.6 155.5 513.967 155.567 514.3 155.7L515.4 156L516.4 156.5C516.8 156.7 516.2 157 516.1 157.1C515.7 157.3 515.3 157.1 515 157.4C514.6 157.6 514.333 157.867 514.2 158.2C513.933 158.467 513.6 158.6 513.2 158.6H512.2C511.867 158.733 511.533 158.733 511.2 158.6L510.2 158.4C509.867 158.133 509.533 157.967 509.2 157.9L507.7 157.2L507.4 157Z" fill="#BCA76B" style="fill:#BCA76B;fill:color(display-p3 0.7373 0.6549 0.4196);fill-opacity:1;"/>
<path id="Vector_121" d="M459.6 122.7C458.7 122.5 457.8 122.9 457 122.9H451.8C450.5 123.2 449.2 123.8 447.9 123.9C446.1 123.967 444.334 124 442.6 124C441.3 124.1 442.6 122.5 443.4 122.5C445 121.967 446.634 121.567 448.3 121.3C449.634 121.1 450.867 120.867 452 120.6L455 119.8C456.134 119.533 457.2 119.467 458.2 119.6C459.267 119.333 460.367 119 461.5 118.6C462.5 118.1 463.5 118.4 464.5 117.8C465 117 466 117.1 467 117.1C468.067 117.233 468.9 117.7 469.5 118.5C470.2 119.5 468.1 119.4 468.7 120.5C468.234 120.767 467.7 120.9 467.1 120.9C466.2 120.9 466 120.9 465.6 120.7C464.8 120.3 464.067 119.867 463.4 119.4C462.6 119.2 462.5 120.7 461.6 120.5C460.4 121 459 120.8 457.7 120.9C458.567 121.167 459.367 121.567 460.1 122.1C460.4 122.5 459.9 122.5 459.6 122.6V122.7Z" fill="black" stroke="black" style="fill:black;fill-opacity:1;stroke:black;stroke-opacity:1;" stroke-width="0.5"/>
<path id="Vector_122" d="M464.8 119.1L465.6 118.8L466.1 118C466.1 118 466.8 119 466.4 119.4C466 119.8 464.8 119.1 464.8 119.1ZM467 117.1C467.1 117.1 466.3 116.5 467 116.3C467.6 115.6 468.6 116.2 469.4 116.4C471 116.8 472.333 117.6 473.4 118.8C474.9 120.4 475.2 122.6 476.4 124.5L477.4 127.3C477.7 128 478.8 128.8 478.2 129.6C477.5 130 476.8 129.4 476.2 129.3C475.2 129.2 475.7 130.2 476.2 130.3C476.9 130.6 477.2 131.6 476.2 131.5L473.6 131.2C472.9 130.8 473.8 130.2 474.2 129.9C474.6 129.6 475.4 129.2 475.2 128.5C475.2 127.3 474.4 126.2 474.2 125C474 124.067 473.7 123.167 473.3 122.3C472.9 120.3 471.1 119 469.3 118.4L467 117.3V117.1Z" fill="white" style="fill:white;fill-opacity:1;"/>
<path id="Vector_123" d="M473.5 118.1L474.3 118.5L475.1 119.7L475.3 120.4C475.366 120.667 475.533 120.9 475.8 121.1L476.1 122.1L476.5 123.1L476.8 123.8C477 124.133 476.933 124.333 476.6 124.4L476 124.1L475.3 123.1L475.1 122.5L474.8 121.5L474.4 120.8L474 119.8C473.9 119.5 473.3 118.7 473.4 118.3L473.5 118.1ZM467.6 115.9L467.2 115.6L466.6 115.3C466.2 115.4 466.5 115 466.3 115.1L466.1 114.6L465.8 114.2C465.8 114.2 465.6 114 465.8 114L466.4 114.1L466.9 114.2H468C468.133 114.267 468.233 114.3 468.3 114.3C468.5 114.367 468.633 114.5 468.7 114.7C468.833 114.833 468.933 115 469 115.2V115.6L468.5 115.8L467.9 116L467.6 115.9Z" fill="#BCA76B" style="fill:#BCA76B;fill:color(display-p3 0.7373 0.6549 0.4196);fill-opacity:1;"/>
<path id="Vector_124" d="M467.1 115.6C466.834 115.667 466.5 115.7 466.1 115.7L465.7 116.1L465.1 116.3L464.6 116L464.3 115.7L463.9 115.5C463.767 115.5 463.7 115.367 463.7 115.1V114.6L464.1 114.4H465.1C465.367 114.333 465.6 114.3 465.8 114.3L466.2 114.6L467.1 115.6ZM468.7 114.7L469.4 114.5L470.1 114.6C470.434 114.6 470.7 114.7 470.9 114.9L471.7 115.3L472.4 115.6L473.1 116L473.7 116.6C473.767 116.867 473.667 117 473.4 117L472.7 116.6C472.5 116.6 472.267 116.533 472 116.4L471.3 116.1L470.3 115.7L469.8 115.6L468.9 115.1C468.767 115.033 468.7 114.9 468.7 114.7Z" fill="white" style="fill:white;fill-opacity:1;"/>
<path id="Vector_125" d="M472.4 120C471.4 120 470.4 120.4 469.4 120C468.7 120 468.1 120.6 467.4 120.8C466.6 120.7 466.4 121.9 465.7 121.8C465 121.8 464.3 121.3 463.7 121.5C465.034 122.033 466.3 122.7 467.5 123.5C468.073 124.063 468.753 124.505 469.5 124.8C470.2 125.1 470.8 125.6 470.5 126.3C470.3 127.1 469.1 127.3 469.1 128.1C469 128.9 468.1 129.3 467.8 129.9C467.5 130.5 466.8 130.9 466.8 131.5C466.9 132.3 467.8 131.7 467.8 131.1C468 130.6 468.5 129.7 469.2 130.1C469.7 130.8 470.4 129.5 471 129.8C471.467 130.4 471.9 130.433 472.3 129.9C472.8 129.7 473.5 129.4 473 128.9C473 128.2 473.8 128.2 474.2 127.9C474.7 127.7 475.2 126.9 474.7 126.5C474.2 125.8 474.7 124.8 474.1 124.2C473.6 123.5 474.1 122.5 473.7 121.8C473.434 121 473.034 120.4 472.5 120H472.4Z" fill="black" style="fill:black;fill-opacity:1;"/>
<path id="Vector_126" d="M499.2 147.2C498.2 147.2 497.2 148.1 496 148.2C494.8 148.3 496.4 149 496.8 149.2C497.9 150 499.2 150.2 500.4 150.7C501.6 151.3 502.833 151.5 504.1 151.3C505.2 151 504.4 149.9 504.1 149.3C503.4 148.3 502.1 147.8 501.3 146.9C500.5 146.433 499.833 146.533 499.3 147.2H499.2Z" fill="#69737C" style="fill:#69737C;fill:color(display-p3 0.4118 0.4510 0.4863);fill-opacity:1;"/>
<path id="Vector_127" d="M498.4 149.7C498.067 149.767 497.667 149.8 497.2 149.8C496.667 149.933 496.167 149.9 495.7 149.7L494.3 149.2C493.833 149 493.467 148.733 493.2 148.4C492.9 148 493.5 148 493.8 148C494.267 147.8 494.8 147.733 495.4 147.8L497.1 148.6C497.633 148.8 498.067 149.067 498.4 149.4V149.7ZM504 149.3C504.1 149.8 503.3 149.3 503 149.5C502.449 149.549 501.895 149.445 501.4 149.2C500.467 148.733 499.567 148.4 498.7 148.2C498.3 148.1 497.4 147.7 498.1 147.2C498.566 146.758 499.162 146.478 499.8 146.4C500.4 146.533 501 146.733 501.6 147C502.2 147.267 502.767 147.6 503.3 148C503.833 148.4 504.1 148.833 504.1 149.3H504Z" fill="white" style="fill:white;fill-opacity:1;"/>
<path id="Vector_128" d="M488.6 143.8C487.756 144.304 486.782 144.547 485.8 144.5C484.9 144.8 483.5 144 483.2 145.1C482.8 146.1 483.9 146.5 484.5 146.9C486.3 147.9 488.3 147.9 490.2 147.9C490.8 147.9 492.5 147.7 491.6 147.1C490.6 146.3 489.767 145.4 489.1 144.4L488.6 143.8ZM498.4 144.4L497.2 144.1L495.8 143.3C495.134 142.9 494.467 142.567 493.8 142.3C493.467 142.033 493.467 141.833 493.8 141.7C494.2 141.7 494.4 141.2 494.8 141.6C495.2 141.8 495.567 142.133 495.9 142.6C496.234 143.067 496.7 143.333 497.3 143.4C497.7 143.7 498.3 143.9 498.3 144.4H498.4ZM497 146.2C497 146.2 495.3 146.7 494.5 146.4C493.834 146.267 493.234 146.067 492.7 145.8C491.9 145.467 491.234 145.033 490.7 144.5C490.2 144 490.7 143.1 491.5 143.3C491.9 143.2 491.7 142.3 492.5 142.7C493.3 143.1 494.2 143.5 494.9 144.1L496.4 145.4L497 146.2ZM483.8 133.8C485 134.1 486.4 134.6 487.1 135.8C488.1 136.9 486.1 137.7 485.1 136.9C483.634 136.167 482.134 135.5 480.6 134.9C479 135.2 481.2 136.1 481.6 136.4C482.467 137 482.9 137.667 482.9 138.4C481.9 139.2 480.6 138.4 479.5 138.2C478.3 138.1 477.5 137 476.8 136.2C476.2 135.533 475.534 135.333 474.8 135.6C474.8 136.6 475.6 136.9 476.1 137.8C476.5 138.3 478.1 139.6 476.6 139.7C475.391 139.357 474.356 138.572 473.7 137.5C473 136.8 472.5 135.3 473.9 135.1C475.234 134.433 476.634 134.1 478.1 134.1C479.6 133.9 481.2 134.1 482.8 133.7C483 133.7 484 133.2 483.8 133.7V133.8Z" fill="#69737C" style="fill:#69737C;fill:color(display-p3 0.4118 0.4510 0.4863);fill-opacity:1;"/>
<path id="Vector_129" d="M471.9 134.7L471.5 135.7V136.9L471.9 137.9C472.1 138.3 472.367 138.567 472.7 138.7C472.9 138.967 473.167 139.167 473.5 139.3L474.2 139.7L475.2 139.9C475.533 139.9 475.767 139.8 475.9 139.6C476.1 139.4 476.033 139.233 475.7 139.1C475.433 139.1 475.2 138.933 475 138.6L474.3 137.9C474.3 137.633 474.167 137.367 473.9 137.1L473.3 136.4L472.6 135.7L472 134.9L471.9 134.7ZM482.3 138.7L479.7 138.2C478.833 137.88 478.071 137.326 477.5 136.6C476.833 135.933 476.167 135.367 475.5 134.9C474.6 134.6 474.3 135.8 474.8 136.2L476.4 138.2L478.4 139.6C479.358 140.103 480.419 140.376 481.5 140.4C482.3 140.333 482.833 140 483.1 139.4C482.967 138.933 482.7 138.733 482.3 138.8V138.7ZM479.9 144.1C479.3 144.1 478.733 144 478.2 143.8C477.767 143.495 477.422 143.081 477.2 142.6C476.667 142 476.167 141.633 475.7 141.5C475.2 141.4 474.5 141.7 474.7 142.3C474.767 142.767 475.033 143.2 475.5 143.6C476.167 144.067 476.833 144.433 477.5 144.7C477.9 144.9 478.3 144.967 478.7 144.9C479.2 144.9 479.7 145.1 479.9 144.6V144.1ZM485.8 142.4C486.333 142.667 486.5 143.1 486.3 143.7C485.9 144.233 485.333 144.5 484.6 144.5L483 144.4L481.3 143.6C480.7 143.4 480.6 142.7 480.3 142.3C480 141.9 480.8 141.6 481.2 141.7C481.7 141.9 482.2 142.5 482.6 142.7L484.1 143.2C484.5 143.2 485.1 143.4 485.3 143L485.7 142.4H485.8ZM490.8 141.1C491.3 141.5 491 142.4 490.3 142.6C489.767 142.667 489.3 142.667 488.9 142.6L486.9 141.6C486.367 141.4 485.933 141.1 485.6 140.7C485.4 140.1 486.1 139.7 486.6 139.9C487.4 140.033 488.2 140.3 489 140.7C489.467 140.967 490.033 141.133 490.7 141.2L490.8 141.1Z" fill="white" style="fill:white;fill-opacity:1;"/>
<path id="Vector_130" d="M489.4 158.9L489.6 158.7L489.8 158.5C491.2 158 493.3 159.5 495.1 158.5C498.4 156.6 502.2 156.4 506 156.6C508.4 157.6 510.8 159.4 513.6 158.6C516.7 159.3 518.1 155 521.3 156.3C521.2 155.2 507.5 151.2 504.3 147.8C501.9 146.7 501 144.2 499.5 142.4C497.427 139.787 495.043 137.436 492.4 135.4C490.6 133.8 488.4 132.9 486.4 131.9C483.9 130.8 480.5 130.2 479.2 127.6C478.728 124.359 477.569 121.257 475.8 118.5C474.3 116.4 472.8 114.1 470.1 113.8C467.991 113.018 465.704 112.845 463.5 113.3C460.8 114.3 459.3 116.4 457.3 118.3C455.4 120.6 458.5 122.4 459.3 125.5C460.5 127.6 461.9 128.3 462.9 130.6C461.5 133.4 462.3 137.6 462.5 140.6C462.4 143.5 464.5 145.8 466 148C468.1 149.2 469.7 151.3 471.9 152.4" stroke="black" style="stroke:black;stroke-opacity:1;" stroke-width="0.7"/>
</g>
<defs>
<clipPath id="clip0_2194_9087">
<rect width="640" height="480" fill="white" style="fill:white;fill-opacity:1;"/>
</clipPath>
</defs>
</svg>
