<svg width="640" height="480" viewBox="0 0 640 480" fill="none" xmlns="http://www.w3.org/2000/svg">
<g id="sk" clip-path="url(#clip0_2194_9335)">
<path id="Vector" d="M0 0H640V480H0V0Z" fill="#EE1C25" style="fill:#EE1C25;fill:color(display-p3 0.9333 0.1098 0.1451);fill-opacity:1;"/>
<path id="Vector_2" d="M0 0H640V320H0V0Z" fill="#0B4EA2" style="fill:#0B4EA2;fill:color(display-p3 0.0431 0.3059 0.6353);fill-opacity:1;"/>
<path id="Vector_3" d="M0 0H640V160H0V0Z" fill="white" style="fill:white;fill-opacity:1;"/>
<path id="Vector_4" d="M233 370.8C190 350.1 128.4 308.9 128.4 227.6C128.4 146.2 132.4 109.2 132.4 109.2H333.7C333.7 109.2 337.6 146.2 337.6 227.6C337.6 309 276 350 233 370.8Z" fill="white" style="fill:white;fill-opacity:1;"/>
<path id="Vector_5" d="M233 360C193.5 341 137 303.2 137 228.6C137 154 140.6 120 140.6 120H325.4C325.4 120 328.9 154 328.9 228.6C329 303.3 272.5 341 233 360Z" fill="#EE1C25" style="fill:#EE1C25;fill:color(display-p3 0.9333 0.1098 0.1451);fill-opacity:1;"/>
<path id="Vector_6" d="M241.4 209C252.1 209.2 273 209.6 291.5 203.4C291.5 203.4 291.1 210.1 291.1 217.8C291.1 225.5 291.6 232.2 291.6 232.2C274.6 226.5 253.5 226.4 241.4 226.5V267.7H224.6V226.5C212.6 226.4 191.5 226.5 174.5 232.2C174.5 232.2 175 225.5 175 217.8C175 210.1 174.5 203.4 174.5 203.4C193 209.6 213.9 209.2 224.5 209V183.1C214.8 183.1 200.8 183.5 184.9 188.8C184.9 188.8 185.4 182.2 185.4 174.4C185.4 166.7 184.9 160 184.9 160C200.8 165.3 214.8 165.8 224.5 165.7C224 149.3 219.2 128.7 219.2 128.7C219.2 128.7 229.1 129.4 233 129.4C236.9 129.4 246.8 128.7 246.8 128.7C246.8 128.7 242 149.3 241.5 165.7C251.2 165.8 265.2 165.3 281.1 160C281.1 160 280.6 166.7 280.6 174.4C280.6 182.1 281.1 188.8 281.1 188.8C268.284 184.668 254.861 182.74 241.4 183.1V209.1V209Z" fill="white" style="fill:white;fill-opacity:1;"/>
<path id="Vector_7" d="M233 263.3C213.1 263.3 202.5 290.8 202.5 290.8C202.5 290.8 196.5 277.8 180.3 277.8C169.3 277.8 161.3 287.5 156.1 296.6C176.1 328.3 208 347.9 233 360C258 348 290 328.3 309.9 296.6C304.7 287.6 296.7 277.8 285.7 277.8C269.5 277.8 263.5 290.8 263.5 290.8C263.5 290.8 253 263.3 233 263.3Z" fill="#0B4EA2" style="fill:#0B4EA2;fill:color(display-p3 0.0431 0.3059 0.6353);fill-opacity:1;"/>
</g>
<defs>
<clipPath id="clip0_2194_9335">
<rect width="640" height="480" fill="white" style="fill:white;fill-opacity:1;"/>
</clipPath>
</defs>
</svg>
