<svg width="640" height="480" viewBox="0 0 640 480" fill="none" xmlns="http://www.w3.org/2000/svg">
<g id="st" clip-path="url(#clip0_2194_9440)">
<path id="Vector" d="M0 0H640V480H0V0Z" fill="#12AD2B" style="fill:#12AD2B;fill:color(display-p3 0.0706 0.6784 0.1686);fill-opacity:1;"/>
<path id="Vector_2" d="M0 137.1H640V343H0V137.1Z" fill="#FFCE00" style="fill:#FFCE00;fill:color(display-p3 1.0000 0.8078 0.0000);fill-opacity:1;"/>
<path id="Vector_3" d="M0 0V480L240 240" fill="#D21034" style="fill:#D21034;fill:color(display-p3 0.8235 0.0627 0.2039);fill-opacity:1;"/>
<g id="st-c">
<g id="st-b">
<path id="st-a" d="M351.6 171.428L330.41 236.644L363.018 247.239" fill="#000001" style="fill:#000001;fill:color(display-p3 0.0000 0.0000 0.0039);fill-opacity:1;"/>
<path id="st-a_2" d="M351.6 171.428L372.79 236.644L340.182 247.239" fill="#000001" style="fill:#000001;fill:color(display-p3 0.0000 0.0000 0.0039);fill-opacity:1;"/>
</g>
<g id="st-b_2">
<path id="st-a_3" d="M416.816 218.81H348.244V253.096" fill="#000001" style="fill:#000001;fill:color(display-p3 0.0000 0.0000 0.0039);fill-opacity:1;"/>
<path id="st-a_4" d="M416.816 218.81L361.34 259.116L341.187 231.378" fill="#000001" style="fill:#000001;fill:color(display-p3 0.0000 0.0000 0.0039);fill-opacity:1;"/>
</g>
<g id="st-b_3">
<path id="st-a_5" d="M391.906 295.476L370.716 230.26L338.108 240.855" fill="#000001" style="fill:#000001;fill:color(display-p3 0.0000 0.0000 0.0039);fill-opacity:1;"/>
<path id="st-a_6" d="M391.906 295.476L336.43 255.17L356.582 227.432" fill="#000001" style="fill:#000001;fill:color(display-p3 0.0000 0.0000 0.0039);fill-opacity:1;"/>
</g>
<g id="st-b_4">
<path id="st-a_7" d="M311.294 295.476L366.77 255.17L346.617 227.432" fill="#000001" style="fill:#000001;fill:color(display-p3 0.0000 0.0000 0.0039);fill-opacity:1;"/>
<path id="st-a_8" d="M311.294 295.476L332.484 230.26L365.092 240.855" fill="#000001" style="fill:#000001;fill:color(display-p3 0.0000 0.0000 0.0039);fill-opacity:1;"/>
</g>
<g id="st-b_5">
<path id="st-a_9" d="M286.384 218.81L341.86 259.116L362.013 231.378" fill="#000001" style="fill:#000001;fill:color(display-p3 0.0000 0.0000 0.0039);fill-opacity:1;"/>
<path id="st-a_10" d="M286.384 218.81H354.956V253.096" fill="#000001" style="fill:#000001;fill:color(display-p3 0.0000 0.0000 0.0039);fill-opacity:1;"/>
</g>
</g>
<g id="st-c_2">
<g id="st-b_6">
<path id="st-a_11" d="M528.4 171.428L507.21 236.644L539.818 247.239" fill="#000001" style="fill:#000001;fill:color(display-p3 0.0000 0.0000 0.0039);fill-opacity:1;"/>
<path id="st-a_12" d="M528.4 171.428L549.59 236.644L516.982 247.239" fill="#000001" style="fill:#000001;fill:color(display-p3 0.0000 0.0000 0.0039);fill-opacity:1;"/>
</g>
<g id="st-b_7">
<path id="st-a_13" d="M593.616 218.81H525.044V253.096" fill="#000001" style="fill:#000001;fill:color(display-p3 0.0000 0.0000 0.0039);fill-opacity:1;"/>
<path id="st-a_14" d="M593.616 218.81L538.14 259.116L517.987 231.378" fill="#000001" style="fill:#000001;fill:color(display-p3 0.0000 0.0000 0.0039);fill-opacity:1;"/>
</g>
<g id="st-b_8">
<path id="st-a_15" d="M568.706 295.476L547.516 230.26L514.908 240.855" fill="#000001" style="fill:#000001;fill:color(display-p3 0.0000 0.0000 0.0039);fill-opacity:1;"/>
<path id="st-a_16" d="M568.706 295.476L513.23 255.17L533.382 227.432" fill="#000001" style="fill:#000001;fill:color(display-p3 0.0000 0.0000 0.0039);fill-opacity:1;"/>
</g>
<g id="st-b_9">
<path id="st-a_17" d="M488.094 295.476L543.57 255.17L523.417 227.432" fill="#000001" style="fill:#000001;fill:color(display-p3 0.0000 0.0000 0.0039);fill-opacity:1;"/>
<path id="st-a_18" d="M488.094 295.476L509.284 230.26L541.892 240.855" fill="#000001" style="fill:#000001;fill:color(display-p3 0.0000 0.0000 0.0039);fill-opacity:1;"/>
</g>
<g id="st-b_10">
<path id="st-a_19" d="M463.184 218.81L518.66 259.116L538.813 231.378" fill="#000001" style="fill:#000001;fill:color(display-p3 0.0000 0.0000 0.0039);fill-opacity:1;"/>
<path id="st-a_20" d="M463.184 218.81H531.756V253.096" fill="#000001" style="fill:#000001;fill:color(display-p3 0.0000 0.0000 0.0039);fill-opacity:1;"/>
</g>
</g>
</g>
<defs>
<clipPath id="clip0_2194_9440">
<rect width="640" height="480" fill="white" style="fill:white;fill-opacity:1;"/>
</clipPath>
</defs>
</svg>
