<svg width="640" height="480" viewBox="0 0 640 480" fill="none" xmlns="http://www.w3.org/2000/svg">
<g id="sz" clip-path="url(#clip0_2194_10444)">
<path id="Vector" d="M0 0H640V480H0V0Z" fill="#3E5EB9" style="fill:#3E5EB9;fill:color(display-p3 0.2431 0.3686 0.7255);fill-opacity:1;"/>
<path id="Vector_2" d="M0 90H640V390H0V90Z" fill="#FFD900" style="fill:#FFD900;fill:color(display-p3 1.0000 0.8510 0.0000);fill-opacity:1;"/>
<path id="Vector_3" d="M0 120H640V360H0V120Z" fill="#B10C0C" style="fill:#B10C0C;fill:color(display-p3 0.6941 0.0471 0.0471);fill-opacity:1;"/>
<g id="Group">
<g id="sz-a">
<path id="Vector_4" d="M548.28 185.16L519.12 195.48L548.16 205.68L577.32 195.48L548.28 185.16Z" fill="white" stroke="black" style="fill:white;fill-opacity:1;stroke:black;stroke-opacity:1;" stroke-width="1.2"/>
<path id="Vector_5" d="M528.96 192H107.88C105.826 192 104.16 193.531 104.16 195.42C104.16 197.309 105.826 198.84 107.88 198.84H528.96C531.015 198.84 532.68 197.309 532.68 195.42C532.68 193.531 531.015 192 528.96 192Z" fill="#FFD900" stroke="black" style="fill:#FFD900;fill:color(display-p3 1.0000 0.8510 0.0000);fill-opacity:1;stroke:black;stroke-opacity:1;" stroke-width="1.2"/>
<g id="Vector_6">
<path d="M522.48 198.84C523.374 198.812 524.225 198.453 524.869 197.832C525.512 197.211 525.901 196.372 525.96 195.48C525.93 194.567 525.554 193.699 524.908 193.052C524.261 192.406 523.394 192.03 522.48 192M519.12 198.84C519.993 198.784 520.815 198.411 521.433 197.793C522.052 197.175 522.424 196.353 522.48 195.48C522.452 194.586 522.093 193.735 521.472 193.092C520.851 192.448 520.012 192.059 519.12 192M515.64 198.84C516.534 198.812 517.385 198.453 518.029 197.832C518.672 197.211 519.061 196.372 519.12 195.48C519.09 194.567 518.714 193.699 518.068 193.052C517.421 192.406 516.554 192.03 515.64 192" fill="#FFD900" style="fill:#FFD900;fill:color(display-p3 1.0000 0.8510 0.0000);fill-opacity:1;"/>
<path d="M522.48 198.84C523.374 198.812 524.225 198.453 524.869 197.832C525.512 197.211 525.901 196.372 525.96 195.48C525.93 194.567 525.554 193.699 524.908 193.052C524.261 192.406 523.394 192.03 522.48 192M519.12 198.84C519.993 198.784 520.815 198.411 521.433 197.793C522.052 197.175 522.424 196.353 522.48 195.48C522.452 194.586 522.093 193.735 521.472 193.092C520.851 192.448 520.012 192.059 519.12 192M515.64 198.84C516.534 198.812 517.385 198.453 518.029 197.832C518.672 197.211 519.061 196.372 519.12 195.48C519.09 194.567 518.714 193.699 518.068 193.052C517.421 192.406 516.554 192.03 515.64 192" stroke="black" style="stroke:black;stroke-opacity:1;" stroke-width="1.2"/>
</g>
</g>
<g id="sz-a_2">
<path id="Vector_7" d="M520.32 205.68L491.16 216L520.2 226.2L549.36 216L520.32 205.68Z" fill="white" stroke="black" style="fill:white;fill-opacity:1;stroke:black;stroke-opacity:1;" stroke-width="1.2"/>
<path id="Vector_8" d="M501 212.52H79.9202C77.8657 212.52 76.2002 214.051 76.2002 215.94C76.2002 217.829 77.8657 219.36 79.9202 219.36H501C503.055 219.36 504.72 217.829 504.72 215.94C504.72 214.051 503.055 212.52 501 212.52Z" fill="#FFD900" stroke="black" style="fill:#FFD900;fill:color(display-p3 1.0000 0.8510 0.0000);fill-opacity:1;stroke:black;stroke-opacity:1;" stroke-width="1.2"/>
<g id="Vector_9">
<path d="M494.52 219.36C495.414 219.332 496.265 218.973 496.909 218.352C497.552 217.731 497.941 216.892 498 216C497.97 215.087 497.594 214.219 496.948 213.572C496.301 212.926 495.434 212.55 494.52 212.52M491.16 219.36C492.033 219.304 492.855 218.931 493.473 218.313C494.092 217.695 494.464 216.873 494.52 216C494.492 215.106 494.133 214.255 493.512 213.612C492.891 212.968 492.052 212.579 491.16 212.52M487.68 219.36C488.574 219.332 489.425 218.973 490.069 218.352C490.712 217.731 491.101 216.892 491.16 216C491.13 215.087 490.754 214.219 490.108 213.572C489.461 212.926 488.594 212.55 487.68 212.52" fill="#FFD900" style="fill:#FFD900;fill:color(display-p3 1.0000 0.8510 0.0000);fill-opacity:1;"/>
<path d="M494.52 219.36C495.414 219.332 496.265 218.973 496.909 218.352C497.552 217.731 497.941 216.892 498 216C497.97 215.087 497.594 214.219 496.948 213.572C496.301 212.926 495.434 212.55 494.52 212.52M491.16 219.36C492.033 219.304 492.855 218.931 493.473 218.313C494.092 217.695 494.464 216.873 494.52 216C494.492 215.106 494.133 214.255 493.512 213.612C492.891 212.968 492.052 212.579 491.16 212.52M487.68 219.36C488.574 219.332 489.425 218.973 490.069 218.352C490.712 217.731 491.101 216.892 491.16 216C491.13 215.087 490.754 214.219 490.108 213.572C489.461 212.926 488.594 212.55 487.68 212.52" stroke="black" style="stroke:black;stroke-opacity:1;" stroke-width="1.2"/>
</g>
</g>
<path id="Vector_10" d="M606.36 234.84H33.6001C30.8165 234.84 28.5601 237.15 28.5601 240C28.5601 242.85 30.8165 245.16 33.6001 245.16H606.36C609.144 245.16 611.4 242.85 611.4 240C611.4 237.15 609.144 234.84 606.36 234.84Z" fill="#FFD900" stroke="black" style="fill:#FFD900;fill:color(display-p3 1.0000 0.8510 0.0000);fill-opacity:1;stroke:black;stroke-opacity:1;" stroke-width="1.32"/>
</g>
<path id="Vector_11" d="M488.2 240C453.9 274.3 408.2 342.9 316.8 342.9C236.8 342.9 179.7 274.3 145.4 240C179.6 205.7 236.8 137.1 316.8 137.1C408.2 137.1 453.9 205.7 488.2 240Z" fill="white" stroke="black" style="fill:white;fill-opacity:1;stroke:black;stroke-opacity:1;" stroke-width="1.2"/>
<path id="Vector_12" d="M304.8 173C314 183.2 306.3 187.3 316 188C326.2 188.7 320.4 198.8 329 199.2C335 199.4 328.4 223.4 334.1 231.2C340 239.5 344.9 233.7 345.1 239.6C345.1 245.8 329.1 245.1 328.8 264.1C328.3 275 315.2 275.7 314.6 282.7C313.8 289.3 340.4 293 340 298.9C339.7 304.9 311.3 303.9 310 310.6C309.4 316.6 349 321.6 352.2 339.1C346.2 341.1 329.5 342.8 316.8 342.9C236.8 342.9 179.7 274.3 145.4 239.9C179.7 205.7 236.8 137.1 316.8 137.1C316.8 137.1 293.1 158.8 304.8 172.9V173Z" fill="black" style="fill:black;fill-opacity:1;"/>
<g id="Group_2">
<g id="sz-d">
<g id="sz-c">
<g id="sz-b">
<path d="M213.6 230.88V203.4ZM230.16 203.4V230.88ZM246.72 203.4V230.88Z" fill="black" style="fill:black;fill-opacity:1;"/>
<path d="M213.6 230.88V203.4M230.16 203.4V230.88M246.72 203.4V230.88" stroke="white" style="stroke:white;stroke-opacity:1;" stroke-width="8.28"/>
</g>
<g id="sz-b_2">
<path d="M213.6 276.6V249.12ZM230.16 249.12V276.6ZM246.72 249.12V276.6Z" fill="black" style="fill:black;fill-opacity:1;"/>
<path d="M213.6 276.6V249.12M230.16 249.12V276.6M246.72 249.12V276.6" stroke="white" style="stroke:white;stroke-opacity:1;" stroke-width="8.28"/>
</g>
</g>
<g id="sz-c_2">
<g id="sz-b_3">
<path d="M263.52 230.88V203.4ZM280.08 203.4V230.88ZM296.64 203.4V230.88Z" fill="black" style="fill:black;fill-opacity:1;"/>
<path d="M263.52 230.88V203.4M280.08 203.4V230.88M296.64 203.4V230.88" stroke="white" style="stroke:white;stroke-opacity:1;" stroke-width="8.28"/>
</g>
<g id="sz-b_4">
<path d="M263.52 276.6V249.12ZM280.08 249.12V276.6ZM296.64 249.12V276.6Z" fill="black" style="fill:black;fill-opacity:1;"/>
<path d="M263.52 276.6V249.12M280.08 249.12V276.6M296.64 249.12V276.6" stroke="white" style="stroke:white;stroke-opacity:1;" stroke-width="8.28"/>
</g>
</g>
</g>
</g>
<g id="sz-d_2">
<g id="sz-c_3">
<g id="sz-b_5">
<path d="M339.36 230.88V203.4ZM355.92 203.4V230.88ZM372.48 203.4V230.88Z" fill="black" style="fill:black;fill-opacity:1;"/>
<path d="M339.36 230.88V203.4M355.92 203.4V230.88M372.48 203.4V230.88" stroke="black" style="stroke:black;stroke-opacity:1;" stroke-width="8.28"/>
</g>
<g id="sz-b_6">
<path d="M339.36 276.6V249.12ZM355.92 249.12V276.6ZM372.48 249.12V276.6Z" fill="black" style="fill:black;fill-opacity:1;"/>
<path d="M339.36 276.6V249.12M355.92 249.12V276.6M372.48 249.12V276.6" stroke="black" style="stroke:black;stroke-opacity:1;" stroke-width="8.28"/>
</g>
</g>
<g id="sz-c_4">
<g id="sz-b_7">
<path d="M389.28 230.88V203.4ZM405.84 203.4V230.88ZM422.4 203.4V230.88Z" fill="black" style="fill:black;fill-opacity:1;"/>
<path d="M389.28 230.88V203.4M405.84 203.4V230.88M422.4 203.4V230.88" stroke="black" style="stroke:black;stroke-opacity:1;" stroke-width="8.28"/>
</g>
<g id="sz-b_8">
<path d="M389.28 276.6V249.12ZM405.84 249.12V276.6ZM422.4 249.12V276.6Z" fill="black" style="fill:black;fill-opacity:1;"/>
<path d="M389.28 276.6V249.12M405.84 249.12V276.6M422.4 249.12V276.6" stroke="black" style="stroke:black;stroke-opacity:1;" stroke-width="8.28"/>
</g>
</g>
</g>
<g id="Group_3">
<path id="Vector_13" d="M570.4 236C565.2 244.9 574.4 233 596.8 248C599.06 249.897 600.915 252.229 602.255 254.857C603.595 257.486 604.392 260.357 604.6 263.3C603.6 262.6 602.7 261 601.6 260.1C600 261.7 603.2 269.1 603.6 272.6C600.1 270.6 600.4 269.8 599.3 267.4C599.5 270.2 598.6 278.2 600.1 281.4C597.3 280.6 597.5 278.4 596.1 277.9C597.1 281.4 595.2 285.1 595.7 289.1C594.1 287.5 592.3 286.2 591.6 285.6C591.4 287.6 588.5 292.4 588.4 294.2C587.383 293.483 586.67 292.414 586.4 291.2C583.225 294.982 580.537 299.148 578.4 303.6C573.7 299.6 561.8 289.6 560.2 284.2C558.8 287.2 556.8 288.2 553 290.4C551.4 282 545.5 272.6 548.6 265.3L542.5 269.5C544.316 262.144 547.781 255.297 552.631 249.476C557.482 243.655 563.592 239.013 570.5 235.9L570.4 236Z" fill="#333333" stroke="black" style="fill:#333333;fill:color(display-p3 0.2000 0.2000 0.2000);fill-opacity:1;stroke:black;stroke-opacity:1;"/>
<path id="Vector_14" d="M551 280.5C553.2 276.2 555.2 274.8 556.6 272C559 267.2 559.4 263.2 561.6 263.8C563.6 264.4 563.6 266.4 560.9 271.2C558.2 276 556.9 277 551 280.5ZM565.6 290.7C565.4 287.5 566.3 286.1 566.2 284C565.8 280.2 564.3 277.7 566.3 277.5C568.3 277.4 569.2 278.6 569.2 282.3C569.2 286.1 568.6 287.1 565.6 290.7ZM576.7 297.1C575.8 292.6 576.5 290.6 575.9 287.6C574.9 282.4 573 279 574.9 278.5C576.8 278 577.9 279.7 578.6 285C579.2 290.2 578.9 291.7 576.7 297.2V297.1ZM588.2 265.1C585.5 263.1 583.9 262.9 582.2 261.6C579.2 259.2 577.6 256.8 576.6 258C575.6 259.2 576.3 260.6 579.6 262.7C582.9 264.8 583.8 265 588.2 265.1ZM586.3 280.3C584.9 277.3 583.3 276.6 582.5 274.7C580.9 271.3 580.9 268.4 579 269.1C577.3 269.9 577.1 271.4 579 274.7C581 277.9 582 278.5 586.2 280.3H586.3Z" fill="#B3B3B3" style="fill:#B3B3B3;fill:color(display-p3 0.7020 0.7020 0.7020);fill-opacity:1;"/>
<path id="Vector_15" d="M53.8002 244.6C53.4002 242 54.0002 241.6 52.4002 239.6C54.8002 240.6 54.8002 243.3 57.7002 241.4C58.7002 240.9 59.2002 240.9 57.9002 237.9C60.9002 238.1 70.6002 241.4 72.2002 241.5C76.3002 241.7 83.8002 237.2 89.0002 242.7C94.0002 247.7 92.2002 253 92.2002 259.9C90.2002 258.9 91.2002 258.6 89.0002 256C90.6002 262.2 89.0002 273.1 89.0002 279.6C88.2002 278 88.3002 278.7 87.5002 277.1C85.5002 283 82.9002 284.1 82.9002 291.2C82.1002 288.4 82.9002 289 82.0002 287.6C80.0002 292.1 66.0002 295.9 71.4002 300.4C66.6002 297.6 64.4002 297.8 62.4002 295.4C61.4002 296 60.5335 297.067 59.8002 298.6C51.3002 294.8 54.3002 286.4 47.7002 280.7C46.5002 283.1 47.0002 282.8 45.7002 286.6C44.5002 281.3 44.1002 277.9 42.6002 274C41.3002 276.2 41.4002 275.3 39.0002 278.6C38.0002 272.2 36.5002 270.6 37.0002 266.3C34.6002 268.1 36.2002 267.3 33.7002 269.5C36.1002 253 46.3002 240.7 53.7002 244.5L53.8002 244.6Z" fill="#333333" stroke="black" style="fill:#333333;fill:color(display-p3 0.2000 0.2000 0.2000);fill-opacity:1;stroke:black;stroke-opacity:1;" stroke-width="1.3"/>
<path id="Vector_16" d="M43.4004 271.7C45.5004 266.3 47.4004 264.7 48.9004 261.3C51.4004 255.2 51.8004 250.3 53.9004 251C55.9004 251.8 55.9004 254.2 53.1004 260.2C50.3004 266.2 49.1004 267.4 43.4004 271.7ZM51.6004 285C52.4004 280.2 53.8004 278.6 54.4004 275.4C55.4004 270 54.9004 266 56.8004 266.2C58.8004 266.4 59.2004 268.5 57.9004 273.8C56.6004 279.3 55.7004 280.6 51.5004 285H51.6004ZM61.4004 294.4C61.7004 289.8 62.8004 287.9 63.0004 284.9C63.3004 279.7 62.2004 275.9 64.0004 275.9C66.0004 275.9 66.6004 277.8 66.0004 283C65.4004 288.2 64.8004 289.6 61.4004 294.4ZM82.6004 264C78.6004 260 76.2004 259.2 73.6004 256.6C69.0004 252 66.7004 247.8 65.0004 249.3C63.3004 250.8 64.4004 253 69.3004 257.3C74.1004 261.8 75.8004 262.4 82.7004 264H82.6004ZM80.2004 279.6C77.6004 275.6 75.6004 274.5 73.9004 271.8C70.9004 267.3 69.9004 263.4 68.2004 264.3C66.5004 265.2 66.9004 267.3 70.1004 271.8C73.3004 276.3 74.6004 277 80.2004 279.6Z" fill="#B3B3B3" style="fill:#B3B3B3;fill:color(display-p3 0.7020 0.7020 0.7020);fill-opacity:1;"/>
<path id="Vector_17" d="M261.4 155.4C256.6 164.6 269.7 152.4 290.2 167.8C295.205 173.116 298.422 179.864 299.4 187.1C295.224 185.763 291.202 183.986 287.4 181.8C287.4 181.8 296.4 191 296.4 201.4C293.2 199.4 291.6 199.7 290.4 197.3C290.4 200.6 293.4 202.8 293.4 208C291.431 206.413 289.322 205.007 287.1 203.8C290.1 209.1 281.6 219.3 285.9 222.6C282.298 222.081 278.837 220.839 275.727 218.949C272.616 217.058 269.92 214.559 267.8 211.6C266.2 212.6 266 214.3 265.9 216.2C266.2 216.3 254.6 207.5 255.7 204.2C254.371 205.851 253.6 207.882 253.5 210C249.128 206.338 245.813 201.573 243.9 196.2C242.1 198.6 241.9 198.6 240 201.2C238.6 192.5 238.6 192.8 241.4 185.4L235.8 189.7C237.263 182.444 240.318 175.604 244.745 169.672C249.172 163.741 254.86 158.866 261.4 155.4Z" fill="#333333" stroke="black" style="fill:#333333;fill:color(display-p3 0.2000 0.2000 0.2000);fill-opacity:1;stroke:black;stroke-opacity:1;"/>
<path id="Vector_18" d="M249.6 200.2C250.4 193.9 252 191.6 252.6 187.4C253.4 180.4 252.4 175 255 175.2C257.4 175.4 258.2 178 257 185.2C255.7 192.3 254.6 194 249.7 200.3L249.6 200.2ZM262.9 211.8C262.4 206.6 263.4 204.2 263 200.8C262.5 194.8 260.6 190.6 262.8 190.3C265 190 266.2 191.9 266.4 198.1C266.6 204.1 266.1 205.8 262.9 211.8ZM283.7 221.4C281.4 216.7 279.4 215.4 278 212.4C275.4 207.1 274.8 202.9 272.9 203.6C270.9 204.4 271 206.6 273.9 211.8C276.7 216.8 278 217.9 283.6 221.4H283.7ZM290.8 179.9C285 176.9 282.1 176.9 278.4 174.9C271.9 171.5 268.1 167.8 266.8 169.9C265.4 171.9 267.2 174 273.9 177.1C280.6 180.2 282.7 180.3 290.7 179.9H290.8ZM292.8 197.2C288.8 193.8 286.2 193.2 283.5 191C278.7 187 276.4 183.3 274.9 184.8C273.3 186.4 274.3 188.4 279.3 192.1C284.3 195.8 286 196.2 292.9 197.2H292.8Z" fill="#B3B3B3" style="fill:#B3B3B3;fill:color(display-p3 0.7020 0.7020 0.7020);fill-opacity:1;"/>
</g>
</g>
<defs>
<clipPath id="clip0_2194_10444">
<rect width="640" height="480" fill="white" style="fill:white;fill-opacity:1;"/>
</clipPath>
</defs>
</svg>
