<svg width="640" height="480" viewBox="0 0 640 480" fill="none" xmlns="http://www.w3.org/2000/svg">
<g id="ug" clip-path="url(#clip0_2194_10857)">
<g id="Clip path group">
<mask id="mask0_2194_10857" style="mask-type:luminance" maskUnits="userSpaceOnUse" x="0" y="0" width="640" height="480">
<g id="ug-a">
<path id="Vector" d="M0.03125 0H639.969V480H0.03125V0Z" fill="white" style="fill:white;fill-opacity:1;"/>
</g>
</mask>
<g mask="url(#mask0_2194_10857)">
<g id="Group">
<path id="Vector_2" fill-rule="evenodd" clip-rule="evenodd" d="M-40 320.062H680V400.031H-40V320.062Z" fill="#FFE700" style="fill:#FFE700;fill:color(display-p3 1.0000 0.9059 0.0000);fill-opacity:1;"/>
<path id="Vector_3" fill-rule="evenodd" clip-rule="evenodd" d="M-40 240H680V319.969H-40V240Z" fill="#000001" style="fill:#000001;fill:color(display-p3 0.0000 0.0000 0.0039);fill-opacity:1;"/>
<path id="Vector_4" fill-rule="evenodd" clip-rule="evenodd" d="M-40 160.031H680V240H-40V160.031Z" fill="#DE3908" style="fill:#DE3908;fill:color(display-p3 0.8706 0.2235 0.0314);fill-opacity:1;"/>
<path id="Vector_5" fill-rule="evenodd" clip-rule="evenodd" d="M-40 80.0625H680V160.031H-40V80.0625Z" fill="#FFE700" style="fill:#FFE700;fill:color(display-p3 1.0000 0.9059 0.0000);fill-opacity:1;"/>
<path id="Vector_6" fill-rule="evenodd" clip-rule="evenodd" d="M-40 0H680V79.9687H-40V0Z" fill="#000001" style="fill:#000001;fill:color(display-p3 0.0000 0.0000 0.0039);fill-opacity:1;"/>
<path id="Vector_7" fill-rule="evenodd" clip-rule="evenodd" d="M394.719 240C394.719 259.817 386.847 278.822 372.834 292.834C358.822 306.847 339.817 314.719 320 314.719C300.183 314.719 281.178 306.847 267.166 292.834C253.153 278.822 245.281 259.817 245.281 240C245.281 220.183 253.153 201.178 267.166 187.166C281.178 173.153 300.183 165.281 320 165.281C339.817 165.281 358.822 173.153 372.834 187.166C386.847 201.178 394.719 220.183 394.719 240Z" fill="#FFFDFF" stroke="black" style="fill:#FFFDFF;fill:color(display-p3 1.0000 0.9922 1.0000);fill-opacity:1;stroke:black;stroke-opacity:1;" stroke-width="0.9375"/>
<path id="Vector_8" fill-rule="evenodd" clip-rule="evenodd" d="M306.875 182.719L302 173.812C303.875 171.937 306.969 170.438 312.031 170.438L311.469 180.281L306.875 182.719Z" fill="#DE3108" stroke="black" style="fill:#DE3108;fill:color(display-p3 0.8706 0.1922 0.0314);fill-opacity:1;stroke:black;stroke-opacity:1;" stroke-width="0.9375"/>
<path id="Vector_9" fill-rule="evenodd" clip-rule="evenodd" d="M311.562 180.281L312.219 170.438C312.219 170.438 322.25 169.875 327.688 176.438L322.344 184.125L311.562 180.281Z" fill="#FFE700" stroke="black" style="fill:#FFE700;fill:color(display-p3 1.0000 0.9059 0.0000);fill-opacity:1;stroke:black;stroke-opacity:1;" stroke-width="0.9375"/>
<path id="Vector_10" fill-rule="evenodd" clip-rule="evenodd" d="M322.438 184.031L327.406 176.344C330.687 179.813 332.094 182.25 332.562 186C332.656 186.094 324.781 187.969 324.781 187.875L322.438 184.031Z" fill="#DE3108" stroke="black" style="fill:#DE3108;fill:color(display-p3 0.8706 0.1922 0.0314);fill-opacity:1;stroke:black;stroke-opacity:1;" stroke-width="0.9375"/>
<path id="Vector_11" fill-rule="evenodd" clip-rule="evenodd" d="M309.313 310.406C309.313 310.406 318.594 299.813 336.594 302.063C333.875 297.656 325.063 298.219 325.063 298.219C325.063 298.219 322.438 277.594 324.5 276.469C326.563 275.344 335.75 276.563 335.75 276.563C336.875 276.563 338.938 273.375 337.25 271.313C335.563 269.25 330.875 261.469 332.844 259.875C334.813 258.281 345.406 260.813 345.406 260.813L315.406 222.375C315.406 222.375 312.313 207.844 318.5 200.813C325.906 194.719 325.063 188.063 324.875 188.156C323.844 181.406 313.625 176.625 306.688 182.813C302.656 187.688 305.375 191.438 305.375 191.438C305.375 191.438 294.594 194.344 294.219 196.219C293.844 198.094 306.313 195.938 306.313 195.938L305.094 204.469C305.094 204.469 280.719 226.594 299.469 245.719L300.031 244.969C300.031 244.969 306.594 253.031 313.438 254.813C320 261.375 319.344 260.438 319.344 260.438C319.344 260.438 320.563 270.844 319.344 272.906C317.75 272.438 301.25 271.781 298.813 272.719C296.563 273.469 288.125 273 290.188 286.875L293.281 279.844C293.281 279.844 293 284.813 295.063 286.594C294.688 281.344 297.031 277.781 297.031 277.781C297.031 277.781 297.406 283.594 298.719 284.344C300.031 285.281 300.031 274.969 307.156 275.906C314.094 276.75 319.25 276.469 319.25 276.469C319.25 276.469 321.594 296.531 320.844 298.406C315.781 297.188 303.594 298.875 302.844 301.969C309.969 301.5 313.25 302.344 313.25 302.344C313.25 302.344 307.531 307.5 309.313 310.406Z" fill="black" stroke="black" style="fill:black;fill-opacity:1;stroke:black;stroke-opacity:1;" stroke-width="0.84375" stroke-linecap="round" stroke-linejoin="round"/>
<path id="Vector_12" fill-rule="evenodd" clip-rule="evenodd" d="M312.125 201.375C312.125 201.375 294.406 220.875 302.094 235.781C302.469 233.719 302.281 232.406 302.562 232.5C302.094 232.219 304.719 234.281 304.531 233.906C304.531 232.781 303.781 230.438 303.781 230.438L306.125 231.094L304.719 228.469L308.187 228.844C308.187 228.844 306.969 225.656 307.344 225.656L310.156 225.844C305.094 216.844 309.875 209.344 312.125 201.281V201.375Z" fill="#9CA69C" stroke="#9CA69C" style="fill:#9CA69C;fill:color(display-p3 0.6118 0.6510 0.6118);fill-opacity:1;stroke:#9CA69C;stroke:color(display-p3 0.6118 0.6510 0.6118);stroke-opacity:1;" stroke-width="0.84375" stroke-linecap="round" stroke-linejoin="round"/>
<path id="Vector_13" fill-rule="evenodd" clip-rule="evenodd" d="M318.312 184.594C318.312 184.594 319.25 191.344 315.5 193.219C315.031 193.688 312.687 194.438 313.062 195.844C313.437 197.719 314.469 197.344 315.875 196.969C319.719 196.313 324.219 188.156 318.312 184.594Z" fill="#9CA69C" stroke="#9CA69C" style="fill:#9CA69C;fill:color(display-p3 0.6118 0.6510 0.6118);fill-opacity:1;stroke:#9CA69C;stroke:color(display-p3 0.6118 0.6510 0.6118);stroke-opacity:1;" stroke-width="0.9375"/>
<path id="Vector_14" fill-rule="evenodd" clip-rule="evenodd" d="M311.75 190.312C311.75 190.685 311.602 191.043 311.338 191.307C311.074 191.571 310.717 191.719 310.344 191.719C309.971 191.719 309.613 191.571 309.349 191.307C309.086 191.043 308.938 190.685 308.938 190.312C308.938 189.94 309.086 189.582 309.349 189.318C309.613 189.054 309.971 188.906 310.344 188.906C310.717 188.906 311.074 189.054 311.338 189.318C311.602 189.582 311.75 189.94 311.75 190.312Z" fill="white" style="fill:white;fill-opacity:1;"/>
<path id="Vector_15" fill-rule="evenodd" clip-rule="evenodd" d="M306.031 195.938C305.094 196.781 300.219 201.844 305.094 203.719C310.063 202.406 308.656 201.469 309.781 200.344C309.781 198 307.344 197.438 306.031 196.031V195.938Z" fill="#DE3108" stroke="black" style="fill:#DE3108;fill:color(display-p3 0.8706 0.1922 0.0314);fill-opacity:1;stroke:black;stroke-opacity:1;" stroke-width="0.9375"/>
<path id="Vector_16" fill-rule="evenodd" clip-rule="evenodd" d="M316.813 244.219C316.531 245.344 315.406 249.469 316.906 252.656C321.219 250.781 323.188 251.344 324.594 252.281C321.125 249.469 319.719 248.25 316.813 244.219Z" fill="#9CA69C" stroke="#9CA69C" style="fill:#9CA69C;fill:color(display-p3 0.6118 0.6510 0.6118);fill-opacity:1;stroke:#9CA69C;stroke:color(display-p3 0.6118 0.6510 0.6118);stroke-opacity:1;" stroke-width="0.84375" stroke-linecap="round" stroke-linejoin="round"/>
<path id="Vector_17" fill-rule="evenodd" clip-rule="evenodd" d="M324.125 263.531L324.313 273.094C324.313 273.094 327.687 273.656 329.187 273.094C330.687 272.531 329.188 266.531 324.125 263.531Z" fill="white" stroke="white" style="fill:white;fill-opacity:1;stroke:white;stroke-opacity:1;" stroke-width="0.84375" stroke-linecap="round" stroke-linejoin="round"/>
<path id="Vector_18" fill-rule="evenodd" clip-rule="evenodd" d="M348.125 264.75C348.125 264.75 342.031 249.937 326.375 246.187C310.718 242.437 312.781 225.75 314 224.719C314.75 223.312 315.218 221.062 319.718 223.219C324.218 225.375 345.031 235.781 348.031 236.344C351.031 236.906 348.406 265.125 348.219 264.75H348.125Z" fill="#9CA69C" stroke="black" style="fill:#9CA69C;fill:color(display-p3 0.6118 0.6510 0.6118);fill-opacity:1;stroke:black;stroke-opacity:1;" stroke-width="0.9375"/>
<path id="Vector_19" fill-rule="evenodd" clip-rule="evenodd" d="M333.312 246.094C333.031 246.281 354.219 258.656 347.844 269.25C353.844 265.219 351.969 258.281 351.969 258.281C351.969 258.281 356.844 271.125 344.844 277.406C346.156 278.531 347 278.344 347 278.344L344.937 280.312C344.937 280.312 344 281.906 352.062 277.969C349.906 279.75 349.719 281.062 349.719 281.062C349.719 281.062 350.281 282.75 355.531 278.156C351.312 282.75 350.375 285.094 350.375 285C361.906 284.062 386.937 246.562 342.5 235.594L344.469 237.656L333.312 246.094Z" fill="#DE3108" stroke="black" style="fill:#DE3108;fill:color(display-p3 0.8706 0.1922 0.0314);fill-opacity:1;stroke:black;stroke-opacity:1;" stroke-width="0.84375" stroke-linejoin="round"/>
<path id="Vector_20" fill-rule="evenodd" clip-rule="evenodd" d="M334.25 242.438C337.062 244.5 338.094 245.25 338.469 246.188C335.844 245.625 333.5 245.813 333.5 245.813C333.5 245.813 327.781 240.375 326.75 239.906C326 239.906 321.5 237.094 321.5 237.094C319.344 235.969 317.281 228.375 325.437 230.531C328.566 232.163 331.79 233.603 335.094 234.844L345.125 238.031L350.937 244.5C350.937 244.5 340.625 239.438 339.312 239.344C342.125 241.594 343.719 244.781 343.719 244.781C340.437 243.844 337.625 242.906 334.25 242.438Z" fill="white" stroke="black" style="fill:white;fill-opacity:1;stroke:black;stroke-opacity:1;" stroke-width="0.84375" stroke-linecap="round" stroke-linejoin="round"/>
<path id="Vector_21" d="M294.125 196.781C294.125 196.781 303.969 194.344 305.188 194.719" stroke="white" style="stroke:white;stroke-opacity:1;" stroke-width="0.84375" stroke-linecap="round"/>
<path id="Vector_22" fill-rule="evenodd" clip-rule="evenodd" d="M-40 400.031H680V480H-40V400.031Z" fill="#DE3908" style="fill:#DE3908;fill:color(display-p3 0.8706 0.2235 0.0314);fill-opacity:1;"/>
</g>
</g>
</g>
</g>
<defs>
<clipPath id="clip0_2194_10857">
<rect width="640" height="480" fill="white" style="fill:white;fill-opacity:1;"/>
</clipPath>
</defs>
</svg>
