<svg width="640" height="480" viewBox="0 0 640 480" fill="none" xmlns="http://www.w3.org/2000/svg">
<g id="vg" clip-path="url(#clip0_2194_11554)">
<path id="Vector" d="M0 0H640V480H0V0Z" fill="#000066" style="fill:#000066;fill:color(display-p3 0.0000 0.0000 0.4000);fill-opacity:1;"/>
<path id="Vector_2" d="M0 0H320V240H0V0Z" fill="#012169" style="fill:#012169;fill:color(display-p3 0.0039 0.1294 0.4118);fill-opacity:1;"/>
<path id="Vector_3" d="M37.5 0L159.5 90.5L281 0H320V31L200 120.5L320 209.5V240H280L160 150.5L40.5 240H0V210L119.5 121L0 32V0H37.5Z" fill="white" style="fill:white;fill-opacity:1;"/>
<path id="Vector_4" d="M212 140.5L320 220V240L184.5 140.5H212ZM120 150.5L123 168L27 240H0L120 150.5ZM320 0V1.5L195.5 95.5L196.5 73.5L295 0H320ZM0 0L119.5 88H89.5L0 21V0Z" fill="#C8102E" style="fill:#C8102E;fill:color(display-p3 0.7843 0.0627 0.1804);fill-opacity:1;"/>
<path id="Vector_5" d="M120.5 0V240H200.5V0H120.5ZM0 80V160H320V80H0Z" fill="white" style="fill:white;fill-opacity:1;"/>
<path id="Vector_6" d="M0 96.5V144.5H320V96.5H0ZM136.5 0V240H184.5V0H136.5Z" fill="#C8102E" style="fill:#C8102E;fill:color(display-p3 0.7843 0.0627 0.1804);fill-opacity:1;"/>
<g id="Group">
<path id="Vector_7" d="M384.109 102.196L578.162 101.498L577.774 274.317C577.774 274.317 584.594 300.666 496.402 340.577C528.099 337.322 562.662 303.533 562.662 303.533C562.662 303.533 576.689 285.476 583.586 295.551C590.484 305.625 596.838 310.74 601.876 314.693C606.913 318.645 610.865 329.417 603.348 337.322C595.753 345.304 583.896 346.311 580.642 336.624C575.604 339.182 544.683 376.613 481.29 378.395C416.813 377.31 381.552 336.237 381.552 336.237C381.552 336.237 372.95 349.954 360.628 339.182C348.771 325.077 357.76 316.087 357.76 316.087C357.76 316.087 367.835 310.353 370.78 306.4C375.43 300.976 376.902 293.768 384.729 293.768C394.184 294.543 397.749 302.061 397.749 302.061C397.749 302.061 430.142 336.237 465.094 340.577C386.279 302.758 383.334 279.354 383.722 273.619L384.109 102.196Z" fill="white" style="fill:white;fill-opacity:1;"/>
<path id="Vector_8" d="M388.759 106.923L573.822 105.838V272.147C574.209 293.846 537.786 315.777 480.903 343.831C422.238 313.608 388.372 295.241 388.062 271.759L388.759 106.923Z" fill="#006129" stroke="black" style="fill:#006129;fill:color(display-p3 0.0000 0.3804 0.1608);fill-opacity:1;stroke:black;stroke-opacity:1;" stroke-width="1.47244"/>
<g id="vg-b">
<path id="Vector_9" d="M413.946 131.49L424.795 115.448L435.877 131.567" stroke="#FFC72C" style="stroke:#FFC72C;stroke:color(display-p3 1.0000 0.7804 0.1725);stroke-opacity:1;" stroke-width="1.47244"/>
<path id="Vector_10" d="M427.042 125.445C427.042 126.02 426.814 126.572 426.407 126.979C426 127.386 425.448 127.615 424.873 127.615C424.297 127.615 423.745 127.386 423.338 126.979C422.931 126.572 422.703 126.02 422.703 125.445C422.703 124.869 422.931 124.317 423.338 123.91C423.745 123.504 424.297 123.275 424.873 123.275C425.448 123.275 426 123.504 426.407 123.91C426.814 124.317 427.042 124.869 427.042 125.445Z" fill="#FFC72C" stroke="black" style="fill:#FFC72C;fill:color(display-p3 1.0000 0.7804 0.1725);fill-opacity:1;stroke:black;stroke-opacity:1;" stroke-width="0.697473"/>
<g id="Vector_11">
<path d="M415.96 143.347H432.932C432.932 143.347 433.165 141.177 431.15 139.859C440.062 138.619 437.737 130.87 445.099 130.405C446.649 130.637 441.225 133.737 441.225 133.737C441.225 133.737 436.807 136.837 438.9 138.464C440.45 139.782 441.225 137.689 441.38 136.139C441.534 134.589 448.587 133.582 447.579 129.165C445.952 125.522 436.187 131.644 436.187 131.644L429.212 131.567C428.747 130.792 426.888 127.692 424.873 127.692C422.548 127.692 420.843 131.567 420.843 131.567H405.111C405.111 131.567 404.568 135.674 412.551 136.449C414.333 138.774 415.728 139.394 417.355 140.014C416.322 140.841 415.857 141.952 415.96 143.347ZM417.2 139.937H431.305Z" fill="#FFC72C" style="fill:#FFC72C;fill:color(display-p3 1.0000 0.7804 0.1725);fill-opacity:1;"/>
<path d="M417.2 139.937H431.305M415.96 143.347H432.932C432.932 143.347 433.165 141.177 431.15 139.859C440.062 138.619 437.737 130.87 445.099 130.405C446.649 130.637 441.225 133.737 441.225 133.737C441.225 133.737 436.807 136.837 438.9 138.464C440.45 139.782 441.225 137.689 441.38 136.139C441.534 134.589 448.587 133.582 447.579 129.165C445.952 125.522 436.187 131.644 436.187 131.644L429.212 131.567C428.747 130.792 426.888 127.692 424.873 127.692C422.548 127.692 420.843 131.567 420.843 131.567H405.111C405.111 131.567 404.568 135.674 412.551 136.449C414.333 138.774 415.728 139.394 417.355 140.014C416.322 140.841 415.857 141.952 415.96 143.347Z" stroke="black" style="stroke:black;stroke-opacity:1;" stroke-width="0.697473"/>
</g>
<g id="Vector_12">
<path d="M410.768 131.645C410.768 131.645 411.853 138.232 417.123 139.782Z" fill="#FFC72C" style="fill:#FFC72C;fill:color(display-p3 1.0000 0.7804 0.1725);fill-opacity:1;"/>
<path d="M410.768 131.645C410.768 131.645 411.853 138.232 417.123 139.782" stroke="black" style="stroke:black;stroke-opacity:1;" stroke-width="0.697473"/>
</g>
<path id="Vector_13" d="M409.916 131.489C410.381 129.01 411.388 128.545 412.396 125.29C412.551 122.19 409.916 122.577 410.691 120.64C412.034 118.367 411.388 116.378 408.753 114.673C409.296 117.54 405.343 120.252 405.343 122.577C405.343 124.902 407.358 124.437 407.126 128.002C407.281 130.017 406.583 129.552 406.351 131.489H409.916Z" fill="url(#paint0_linear_2194_11554)" stroke="black" style="stroke:black;stroke-opacity:1;" stroke-width="0.697473"/>
<path id="Vector_14" d="M426.888 115.913C426.888 116.447 426.675 116.96 426.297 117.337C425.919 117.715 425.407 117.928 424.873 117.928C424.338 117.928 423.826 117.715 423.448 117.337C423.07 116.96 422.858 116.447 422.858 115.913C422.858 115.378 423.07 114.866 423.448 114.488C423.826 114.11 424.338 113.898 424.873 113.898C425.407 113.898 425.919 114.11 426.297 114.488C426.675 114.866 426.888 115.378 426.888 115.913Z" fill="#FFC72C" stroke="black" style="fill:#FFC72C;fill:color(display-p3 1.0000 0.7804 0.1725);fill-opacity:1;stroke:black;stroke-opacity:1;" stroke-width="0.697473"/>
</g>
<g id="vg-b_2">
<path id="Vector_15" d="M413.326 163.496L424.175 147.454L435.257 163.573" stroke="#FFC72C" style="stroke:#FFC72C;stroke:color(display-p3 1.0000 0.7804 0.1725);stroke-opacity:1;" stroke-width="1.47244"/>
<path id="Vector_16" d="M426.423 157.451C426.423 158.027 426.194 158.579 425.787 158.986C425.38 159.392 424.828 159.621 424.253 159.621C423.677 159.621 423.125 159.392 422.718 158.986C422.311 158.579 422.083 158.027 422.083 157.451C422.083 156.876 422.311 156.324 422.718 155.917C423.125 155.51 423.677 155.281 424.253 155.281C424.828 155.281 425.38 155.51 425.787 155.917C426.194 156.324 426.423 156.876 426.423 157.451Z" fill="#FFC72C" stroke="black" style="fill:#FFC72C;fill:color(display-p3 1.0000 0.7804 0.1725);fill-opacity:1;stroke:black;stroke-opacity:1;" stroke-width="0.697473"/>
<g id="Vector_17">
<path d="M415.341 175.353H432.312C432.312 175.353 432.545 173.183 430.53 171.866C439.442 170.626 437.117 162.876 444.479 162.411C446.029 162.643 440.605 165.743 440.605 165.743C440.605 165.743 436.187 168.843 438.28 170.471C439.83 171.788 440.605 169.696 440.76 168.146C440.915 166.596 447.967 165.588 446.959 161.171C445.332 157.529 435.567 163.651 435.567 163.651L428.592 163.573C428.127 162.798 426.268 159.698 424.253 159.698C421.928 159.698 420.223 163.573 420.223 163.573H404.491C404.491 163.573 403.948 167.681 411.931 168.456C413.713 170.781 415.108 171.401 416.735 172.021C415.702 172.847 415.237 173.958 415.341 175.353ZM416.58 171.943H430.685Z" fill="#FFC72C" style="fill:#FFC72C;fill:color(display-p3 1.0000 0.7804 0.1725);fill-opacity:1;"/>
<path d="M416.58 171.943H430.685M415.341 175.353H432.312C432.312 175.353 432.545 173.183 430.53 171.866C439.442 170.626 437.117 162.876 444.479 162.411C446.029 162.643 440.605 165.743 440.605 165.743C440.605 165.743 436.187 168.843 438.28 170.471C439.83 171.788 440.605 169.696 440.76 168.146C440.915 166.596 447.967 165.588 446.959 161.171C445.332 157.529 435.567 163.651 435.567 163.651L428.592 163.573C428.127 162.798 426.268 159.698 424.253 159.698C421.928 159.698 420.223 163.573 420.223 163.573H404.491C404.491 163.573 403.948 167.681 411.931 168.456C413.713 170.781 415.108 171.401 416.735 172.021C415.702 172.847 415.237 173.958 415.341 175.353Z" stroke="black" style="stroke:black;stroke-opacity:1;" stroke-width="0.697473"/>
</g>
<g id="Vector_18">
<path d="M410.148 163.651C410.148 163.651 411.233 170.238 416.503 171.788Z" fill="#FFC72C" style="fill:#FFC72C;fill:color(display-p3 1.0000 0.7804 0.1725);fill-opacity:1;"/>
<path d="M410.148 163.651C410.148 163.651 411.233 170.238 416.503 171.788" stroke="black" style="stroke:black;stroke-opacity:1;" stroke-width="0.697473"/>
</g>
<path id="Vector_19" d="M409.296 163.496C409.761 161.016 410.768 160.551 411.776 157.296C411.931 154.196 409.296 154.584 410.071 152.646C411.414 150.373 410.768 148.384 408.133 146.679C408.676 149.546 404.723 152.259 404.723 154.584C404.723 156.909 406.738 156.444 406.506 160.008C406.661 162.023 405.963 161.558 405.731 163.496H409.296Z" fill="url(#paint1_linear_2194_11554)" stroke="black" style="stroke:black;stroke-opacity:1;" stroke-width="0.697473"/>
<path id="Vector_20" d="M426.268 147.919C426.268 148.453 426.055 148.966 425.677 149.344C425.3 149.722 424.787 149.934 424.253 149.934C423.718 149.934 423.206 149.722 422.828 149.344C422.45 148.966 422.238 148.453 422.238 147.919C422.238 147.385 422.45 146.872 422.828 146.494C423.206 146.116 423.718 145.904 424.253 145.904C424.787 145.904 425.3 146.116 425.677 146.494C426.055 146.872 426.268 147.385 426.268 147.919Z" fill="#FFC72C" stroke="black" style="fill:#FFC72C;fill:color(display-p3 1.0000 0.7804 0.1725);fill-opacity:1;stroke:black;stroke-opacity:1;" stroke-width="0.697473"/>
</g>
<g id="vg-b_3">
<path id="Vector_21" d="M413.093 195.037L423.943 178.995L435.025 195.114" stroke="#FFC72C" style="stroke:#FFC72C;stroke:color(display-p3 1.0000 0.7804 0.1725);stroke-opacity:1;" stroke-width="1.47244"/>
<path id="Vector_22" d="M426.19 188.992C426.19 189.568 425.962 190.12 425.555 190.527C425.148 190.933 424.596 191.162 424.02 191.162C423.445 191.162 422.893 190.933 422.486 190.527C422.079 190.12 421.85 189.568 421.85 188.992C421.85 188.417 422.079 187.865 422.486 187.458C422.893 187.051 423.445 186.822 424.02 186.822C424.596 186.822 425.148 187.051 425.555 187.458C425.962 187.865 426.19 188.417 426.19 188.992Z" fill="#FFC72C" stroke="black" style="fill:#FFC72C;fill:color(display-p3 1.0000 0.7804 0.1725);fill-opacity:1;stroke:black;stroke-opacity:1;" stroke-width="0.697473"/>
<g id="Vector_23">
<path d="M415.108 206.894H432.08C432.08 206.894 432.312 204.724 430.297 203.407C439.21 202.167 436.885 194.417 444.247 193.952C445.797 194.185 440.372 197.285 440.372 197.285C440.372 197.285 435.955 200.384 438.047 202.012C439.597 203.329 440.372 201.237 440.527 199.687C440.682 198.137 447.734 197.13 446.727 192.712C445.099 189.07 435.335 195.192 435.335 195.192L428.36 195.115C427.895 194.34 426.035 191.24 424.02 191.24C421.695 191.24 419.99 195.115 419.99 195.115H404.259C404.259 195.115 403.716 199.222 411.698 199.997C413.481 202.322 414.876 202.942 416.503 203.562C415.47 204.388 415.005 205.499 415.108 206.894ZM416.348 203.484H430.452Z" fill="#FFC72C" style="fill:#FFC72C;fill:color(display-p3 1.0000 0.7804 0.1725);fill-opacity:1;"/>
<path d="M416.348 203.484H430.452M415.108 206.894H432.08C432.08 206.894 432.312 204.724 430.297 203.407C439.21 202.167 436.885 194.417 444.247 193.952C445.797 194.185 440.372 197.285 440.372 197.285C440.372 197.285 435.955 200.384 438.047 202.012C439.597 203.329 440.372 201.237 440.527 199.687C440.682 198.137 447.734 197.13 446.727 192.712C445.099 189.07 435.335 195.192 435.335 195.192L428.36 195.115C427.895 194.34 426.035 191.24 424.02 191.24C421.695 191.24 419.99 195.115 419.99 195.115H404.259C404.259 195.115 403.716 199.222 411.698 199.997C413.481 202.322 414.876 202.942 416.503 203.562C415.47 204.388 415.005 205.499 415.108 206.894Z" stroke="black" style="stroke:black;stroke-opacity:1;" stroke-width="0.697473"/>
</g>
<g id="Vector_24">
<path d="M409.916 195.192C409.916 195.192 411.001 201.779 416.271 203.329Z" fill="#FFC72C" style="fill:#FFC72C;fill:color(display-p3 1.0000 0.7804 0.1725);fill-opacity:1;"/>
<path d="M409.916 195.192C409.916 195.192 411.001 201.779 416.271 203.329" stroke="black" style="stroke:black;stroke-opacity:1;" stroke-width="0.697473"/>
</g>
<path id="Vector_25" d="M409.063 195.037C409.528 192.557 410.536 192.092 411.543 188.837C411.698 185.737 409.063 186.125 409.838 184.187C411.182 181.914 410.536 179.925 407.901 178.22C408.443 181.088 404.491 183.8 404.491 186.125C404.491 188.45 406.506 187.985 406.273 191.55C406.428 193.565 405.731 193.1 405.498 195.037H409.063Z" fill="url(#paint2_linear_2194_11554)" stroke="black" style="stroke:black;stroke-opacity:1;" stroke-width="0.697473"/>
<path id="Vector_26" d="M426.035 179.46C426.035 179.995 425.823 180.507 425.445 180.885C425.067 181.263 424.555 181.475 424.02 181.475C423.486 181.475 422.973 181.263 422.596 180.885C422.218 180.507 422.005 179.995 422.005 179.46C422.005 178.926 422.218 178.413 422.596 178.035C422.973 177.658 423.486 177.445 424.02 177.445C424.555 177.445 425.067 177.658 425.445 178.035C425.823 178.413 426.035 178.926 426.035 179.46Z" fill="#FFC72C" stroke="black" style="fill:#FFC72C;fill:color(display-p3 1.0000 0.7804 0.1725);fill-opacity:1;stroke:black;stroke-opacity:1;" stroke-width="0.697473"/>
</g>
<g id="vg-b_4">
<path id="Vector_27" d="M433.785 229.213L444.634 213.171L455.716 229.291" stroke="#FFC72C" style="stroke:#FFC72C;stroke:color(display-p3 1.0000 0.7804 0.1725);stroke-opacity:1;" stroke-width="1.47244"/>
<path id="Vector_28" d="M446.882 223.168C446.882 223.744 446.653 224.296 446.246 224.703C445.839 225.11 445.287 225.338 444.712 225.338C444.136 225.338 443.585 225.11 443.178 224.703C442.771 224.296 442.542 223.744 442.542 223.168C442.542 222.593 442.771 222.041 443.178 221.634C443.585 221.227 444.136 220.999 444.712 220.999C445.287 220.999 445.839 221.227 446.246 221.634C446.653 222.041 446.882 222.593 446.882 223.168Z" fill="#FFC72C" stroke="black" style="fill:#FFC72C;fill:color(display-p3 1.0000 0.7804 0.1725);fill-opacity:1;stroke:black;stroke-opacity:1;" stroke-width="0.697473"/>
<g id="Vector_29">
<path d="M435.8 241.07H452.772C452.772 241.07 453.004 238.901 450.989 237.583C459.901 236.343 457.576 228.593 464.939 228.128C466.489 228.361 461.064 231.461 461.064 231.461C461.064 231.461 456.646 234.561 458.739 236.188C460.289 237.506 461.064 235.413 461.219 233.863C461.374 232.313 468.426 231.306 467.418 226.888C465.791 223.246 456.026 229.368 456.026 229.368L449.052 229.291C448.587 228.516 446.727 225.416 444.712 225.416C442.387 225.416 440.682 229.291 440.682 229.291H424.95C424.95 229.291 424.408 233.398 432.39 234.173C434.172 236.498 435.567 237.118 437.195 237.738C436.161 238.565 435.696 239.675 435.8 241.07ZM437.04 237.661H451.144Z" fill="#FFC72C" style="fill:#FFC72C;fill:color(display-p3 1.0000 0.7804 0.1725);fill-opacity:1;"/>
<path d="M437.04 237.661H451.144M435.8 241.07H452.772C452.772 241.07 453.004 238.901 450.989 237.583C459.901 236.343 457.576 228.593 464.939 228.128C466.489 228.361 461.064 231.461 461.064 231.461C461.064 231.461 456.646 234.561 458.739 236.188C460.289 237.506 461.064 235.413 461.219 233.863C461.374 232.313 468.426 231.306 467.418 226.888C465.791 223.246 456.026 229.368 456.026 229.368L449.052 229.291C448.587 228.516 446.727 225.416 444.712 225.416C442.387 225.416 440.682 229.291 440.682 229.291H424.95C424.95 229.291 424.408 233.398 432.39 234.173C434.172 236.498 435.567 237.118 437.195 237.738C436.161 238.565 435.696 239.675 435.8 241.07Z" stroke="black" style="stroke:black;stroke-opacity:1;" stroke-width="0.697473"/>
</g>
<g id="Vector_30">
<path d="M430.607 229.368C430.607 229.368 431.692 235.955 436.962 237.505Z" fill="#FFC72C" style="fill:#FFC72C;fill:color(display-p3 1.0000 0.7804 0.1725);fill-opacity:1;"/>
<path d="M430.607 229.368C430.607 229.368 431.692 235.955 436.962 237.505" stroke="black" style="stroke:black;stroke-opacity:1;" stroke-width="0.697473"/>
</g>
<path id="Vector_31" d="M429.755 229.213C430.22 226.733 431.227 226.268 432.235 223.014C432.39 219.914 429.755 220.301 430.53 218.364C431.873 216.091 431.227 214.101 428.592 212.396C429.135 215.264 425.183 217.976 425.183 220.301C425.183 222.626 427.198 222.161 426.965 225.726C427.12 227.741 426.423 227.276 426.19 229.213H429.755Z" fill="url(#paint3_linear_2194_11554)" stroke="black" style="stroke:black;stroke-opacity:1;" stroke-width="0.697473"/>
<path id="Vector_32" d="M446.727 213.636C446.727 214.171 446.514 214.683 446.137 215.061C445.759 215.439 445.246 215.651 444.712 215.651C444.177 215.651 443.665 215.439 443.287 215.061C442.909 214.683 442.697 214.171 442.697 213.636C442.697 213.102 442.909 212.59 443.287 212.212C443.665 211.834 444.177 211.622 444.712 211.622C445.246 211.622 445.759 211.834 446.137 212.212C446.514 212.59 446.727 213.102 446.727 213.636Z" fill="#FFC72C" stroke="black" style="fill:#FFC72C;fill:color(display-p3 1.0000 0.7804 0.1725);fill-opacity:1;stroke:black;stroke-opacity:1;" stroke-width="0.697473"/>
</g>
<g id="vg-b_5">
<path id="Vector_33" d="M410.381 257.19L421.23 241.148L432.312 257.267" stroke="#FFC72C" style="stroke:#FFC72C;stroke:color(display-p3 1.0000 0.7804 0.1725);stroke-opacity:1;" stroke-width="1.47244"/>
<path id="Vector_34" d="M423.478 251.145C423.478 251.721 423.249 252.272 422.842 252.679C422.435 253.086 421.883 253.315 421.308 253.315C420.732 253.315 420.18 253.086 419.773 252.679C419.366 252.272 419.138 251.721 419.138 251.145C419.138 250.57 419.366 250.018 419.773 249.611C420.18 249.204 420.732 248.975 421.308 248.975C421.883 248.975 422.435 249.204 422.842 249.611C423.249 250.018 423.478 250.57 423.478 251.145Z" fill="#FFC72C" stroke="black" style="fill:#FFC72C;fill:color(display-p3 1.0000 0.7804 0.1725);fill-opacity:1;stroke:black;stroke-opacity:1;" stroke-width="0.697473"/>
<g id="Vector_35">
<path d="M412.396 269.047H429.367C429.367 269.047 429.6 266.877 427.585 265.56C436.497 264.32 434.172 256.57 441.535 256.105C443.084 256.337 437.66 259.437 437.66 259.437C437.66 259.437 433.242 262.537 435.335 264.165C436.885 265.482 437.66 263.39 437.815 261.84C437.97 260.29 445.022 259.282 444.014 254.865C442.387 251.223 432.622 257.345 432.622 257.345L425.648 257.267C425.183 256.492 423.323 253.393 421.308 253.393C418.983 253.393 417.278 257.267 417.278 257.267H401.546C401.546 257.267 401.004 261.375 408.986 262.15C410.768 264.475 412.163 265.095 413.791 265.715C412.757 266.541 412.292 267.652 412.396 269.047ZM413.636 265.637H427.74Z" fill="#FFC72C" style="fill:#FFC72C;fill:color(display-p3 1.0000 0.7804 0.1725);fill-opacity:1;"/>
<path d="M413.636 265.637H427.74M412.396 269.047H429.367C429.367 269.047 429.6 266.877 427.585 265.56C436.497 264.32 434.172 256.57 441.535 256.105C443.084 256.337 437.66 259.437 437.66 259.437C437.66 259.437 433.242 262.537 435.335 264.165C436.885 265.482 437.66 263.39 437.815 261.84C437.97 260.29 445.022 259.282 444.014 254.865C442.387 251.223 432.622 257.345 432.622 257.345L425.648 257.267C425.183 256.492 423.323 253.393 421.308 253.393C418.983 253.393 417.278 257.267 417.278 257.267H401.546C401.546 257.267 401.004 261.375 408.986 262.15C410.768 264.475 412.163 265.095 413.791 265.715C412.757 266.541 412.292 267.652 412.396 269.047Z" stroke="black" style="stroke:black;stroke-opacity:1;" stroke-width="0.697473"/>
</g>
<g id="Vector_36">
<path d="M407.203 257.345C407.203 257.345 408.288 263.932 413.558 265.482Z" fill="#FFC72C" style="fill:#FFC72C;fill:color(display-p3 1.0000 0.7804 0.1725);fill-opacity:1;"/>
<path d="M407.203 257.345C407.203 257.345 408.288 263.932 413.558 265.482" stroke="black" style="stroke:black;stroke-opacity:1;" stroke-width="0.697473"/>
</g>
<path id="Vector_37" d="M406.351 257.19C406.816 254.71 407.823 254.245 408.831 250.99C408.986 247.89 406.351 248.278 407.126 246.34C408.469 244.067 407.823 242.078 405.188 240.373C405.731 243.24 401.779 245.953 401.779 248.278C401.779 250.603 403.793 250.138 403.561 253.703C403.716 255.717 403.019 255.252 402.786 257.19H406.351Z" fill="url(#paint4_linear_2194_11554)" stroke="black" style="stroke:black;stroke-opacity:1;" stroke-width="0.697473"/>
<path id="Vector_38" d="M423.323 241.613C423.323 242.147 423.11 242.66 422.733 243.038C422.355 243.416 421.842 243.628 421.308 243.628C420.773 243.628 420.261 243.416 419.883 243.038C419.505 242.66 419.293 242.147 419.293 241.613C419.293 241.079 419.505 240.566 419.883 240.188C420.261 239.81 420.773 239.598 421.308 239.598C421.842 239.598 422.355 239.81 422.733 240.188C423.11 240.566 423.323 241.079 423.323 241.613Z" fill="#FFC72C" stroke="black" style="fill:#FFC72C;fill:color(display-p3 1.0000 0.7804 0.1725);fill-opacity:1;stroke:black;stroke-opacity:1;" stroke-width="0.697473"/>
</g>
<g id="vg-b_6">
<path id="Vector_39" d="M411.001 290.203L421.85 274.162L432.932 290.281" stroke="#FFC72C" style="stroke:#FFC72C;stroke:color(display-p3 1.0000 0.7804 0.1725);stroke-opacity:1;" stroke-width="1.47244"/>
<path id="Vector_40" d="M424.098 284.159C424.098 284.734 423.869 285.286 423.462 285.693C423.055 286.1 422.503 286.329 421.928 286.329C421.352 286.329 420.8 286.1 420.393 285.693C419.986 285.286 419.758 284.734 419.758 284.159C419.758 283.583 419.986 283.031 420.393 282.624C420.8 282.217 421.352 281.989 421.928 281.989C422.503 281.989 423.055 282.217 423.462 282.624C423.869 283.031 424.098 283.583 424.098 284.159Z" fill="#FFC72C" stroke="black" style="fill:#FFC72C;fill:color(display-p3 1.0000 0.7804 0.1725);fill-opacity:1;stroke:black;stroke-opacity:1;" stroke-width="0.697473"/>
<g id="Vector_41">
<path d="M413.016 302.061H429.987C429.987 302.061 430.22 299.891 428.205 298.573C437.117 297.333 434.792 289.584 442.154 289.119C443.704 289.351 438.28 292.451 438.28 292.451C438.28 292.451 433.862 295.551 435.955 297.178C437.505 298.496 438.28 296.403 438.435 294.853C438.59 293.303 445.642 292.296 444.634 287.879C443.007 284.236 433.242 290.359 433.242 290.359L426.268 290.281C425.803 289.506 423.943 286.406 421.928 286.406C419.603 286.406 417.898 290.281 417.898 290.281H402.166C402.166 290.281 401.623 294.388 409.606 295.163C411.388 297.488 412.783 298.108 414.41 298.728C413.377 299.555 412.912 300.666 413.016 302.061ZM414.255 298.651H428.36Z" fill="#FFC72C" style="fill:#FFC72C;fill:color(display-p3 1.0000 0.7804 0.1725);fill-opacity:1;"/>
<path d="M414.255 298.651H428.36M413.016 302.061H429.987C429.987 302.061 430.22 299.891 428.205 298.573C437.117 297.333 434.792 289.584 442.154 289.119C443.704 289.351 438.28 292.451 438.28 292.451C438.28 292.451 433.862 295.551 435.955 297.178C437.505 298.496 438.28 296.403 438.435 294.853C438.59 293.303 445.642 292.296 444.634 287.879C443.007 284.236 433.242 290.359 433.242 290.359L426.268 290.281C425.803 289.506 423.943 286.406 421.928 286.406C419.603 286.406 417.898 290.281 417.898 290.281H402.166C402.166 290.281 401.623 294.388 409.606 295.163C411.388 297.488 412.783 298.108 414.41 298.728C413.377 299.555 412.912 300.666 413.016 302.061Z" stroke="black" style="stroke:black;stroke-opacity:1;" stroke-width="0.697473"/>
</g>
<g id="Vector_42">
<path d="M407.823 290.358C407.823 290.358 408.908 296.946 414.178 298.496Z" fill="#FFC72C" style="fill:#FFC72C;fill:color(display-p3 1.0000 0.7804 0.1725);fill-opacity:1;"/>
<path d="M407.823 290.358C407.823 290.358 408.908 296.946 414.178 298.496" stroke="black" style="stroke:black;stroke-opacity:1;" stroke-width="0.697473"/>
</g>
<path id="Vector_43" d="M406.971 290.204C407.436 287.724 408.443 287.259 409.451 284.004C409.606 280.904 406.971 281.291 407.746 279.354C409.089 277.081 408.443 275.092 405.808 273.387C406.351 276.254 402.398 278.967 402.398 281.291C402.398 283.616 404.413 283.151 404.181 286.716C404.336 288.731 403.638 288.266 403.406 290.204H406.971Z" fill="url(#paint5_linear_2194_11554)" stroke="black" style="stroke:black;stroke-opacity:1;" stroke-width="0.697473"/>
<path id="Vector_44" d="M423.943 274.627C423.943 275.161 423.73 275.674 423.353 276.052C422.975 276.429 422.462 276.642 421.928 276.642C421.393 276.642 420.881 276.429 420.503 276.052C420.125 275.674 419.913 275.161 419.913 274.627C419.913 274.092 420.125 273.58 420.503 273.202C420.881 272.824 421.393 272.612 421.928 272.612C422.462 272.612 422.975 272.824 423.353 273.202C423.73 273.58 423.943 274.092 423.943 274.627Z" fill="#FFC72C" stroke="black" style="fill:#FFC72C;fill:color(display-p3 1.0000 0.7804 0.1725);fill-opacity:1;stroke:black;stroke-opacity:1;" stroke-width="0.697473"/>
</g>
<g id="vg-b_7">
<path id="Vector_45" d="M527.324 132.032L538.173 115.99L549.255 132.11" stroke="#FFC72C" style="stroke:#FFC72C;stroke:color(display-p3 1.0000 0.7804 0.1725);stroke-opacity:1;" stroke-width="1.47244"/>
<path id="Vector_46" d="M540.421 125.987C540.421 126.563 540.192 127.115 539.785 127.522C539.378 127.929 538.826 128.157 538.251 128.157C537.675 128.157 537.123 127.929 536.716 127.522C536.309 127.115 536.081 126.563 536.081 125.987C536.081 125.412 536.309 124.86 536.716 124.453C537.123 124.046 537.675 123.817 538.251 123.817C538.826 123.817 539.378 124.046 539.785 124.453C540.192 124.86 540.421 125.412 540.421 125.987Z" fill="#FFC72C" stroke="black" style="fill:#FFC72C;fill:color(display-p3 1.0000 0.7804 0.1725);fill-opacity:1;stroke:black;stroke-opacity:1;" stroke-width="0.697473"/>
<g id="Vector_47">
<path d="M529.339 143.889H546.31C546.31 143.889 546.543 141.719 544.528 140.402C553.44 139.162 551.115 131.412 558.477 130.947C560.027 131.18 554.603 134.279 554.603 134.279C554.603 134.279 550.185 137.379 552.278 139.007C553.828 140.324 554.603 138.232 554.758 136.682C554.913 135.132 561.965 134.124 560.957 129.707C559.33 126.065 549.565 132.187 549.565 132.187L542.591 132.109C542.126 131.334 540.266 128.235 538.251 128.235C535.926 128.235 534.221 132.109 534.221 132.109H518.489C518.489 132.109 517.946 136.217 525.929 136.992C527.711 139.317 529.106 139.937 530.733 140.557C529.7 141.383 529.235 142.494 529.339 143.889ZM530.578 140.479H544.683Z" fill="#FFC72C" style="fill:#FFC72C;fill:color(display-p3 1.0000 0.7804 0.1725);fill-opacity:1;"/>
<path d="M530.578 140.479H544.683M529.339 143.889H546.31C546.31 143.889 546.543 141.719 544.528 140.402C553.44 139.162 551.115 131.412 558.477 130.947C560.027 131.18 554.603 134.279 554.603 134.279C554.603 134.279 550.185 137.379 552.278 139.007C553.828 140.324 554.603 138.232 554.758 136.682C554.913 135.132 561.965 134.124 560.957 129.707C559.33 126.065 549.565 132.187 549.565 132.187L542.591 132.109C542.126 131.334 540.266 128.235 538.251 128.235C535.926 128.235 534.221 132.109 534.221 132.109H518.489C518.489 132.109 517.946 136.217 525.929 136.992C527.711 139.317 529.106 139.937 530.733 140.557C529.7 141.383 529.235 142.494 529.339 143.889Z" stroke="black" style="stroke:black;stroke-opacity:1;" stroke-width="0.697473"/>
</g>
<g id="Vector_48">
<path d="M524.146 132.187C524.146 132.187 525.231 138.774 530.501 140.324Z" fill="#FFC72C" style="fill:#FFC72C;fill:color(display-p3 1.0000 0.7804 0.1725);fill-opacity:1;"/>
<path d="M524.146 132.187C524.146 132.187 525.231 138.774 530.501 140.324" stroke="black" style="stroke:black;stroke-opacity:1;" stroke-width="0.697473"/>
</g>
<path id="Vector_49" d="M523.294 132.032C523.759 129.552 524.766 129.087 525.774 125.832C525.929 122.732 523.294 123.12 524.069 121.182C525.412 118.909 524.766 116.92 522.131 115.215C522.674 118.082 518.721 120.795 518.721 123.12C518.721 125.445 520.736 124.98 520.504 128.545C520.659 130.559 519.961 130.095 519.729 132.032H523.294Z" fill="url(#paint6_linear_2194_11554)" stroke="black" style="stroke:black;stroke-opacity:1;" stroke-width="0.697473"/>
<path id="Vector_50" d="M540.266 116.455C540.266 116.989 540.053 117.502 539.675 117.88C539.298 118.258 538.785 118.47 538.251 118.47C537.716 118.47 537.204 118.258 536.826 117.88C536.448 117.502 536.236 116.989 536.236 116.455C536.236 115.921 536.448 115.408 536.826 115.03C537.204 114.652 537.716 114.44 538.251 114.44C538.785 114.44 539.298 114.652 539.675 115.03C540.053 115.408 540.266 115.921 540.266 116.455Z" fill="#FFC72C" stroke="black" style="fill:#FFC72C;fill:color(display-p3 1.0000 0.7804 0.1725);fill-opacity:1;stroke:black;stroke-opacity:1;" stroke-width="0.697473"/>
</g>
<g id="vg-b_8">
<path id="Vector_51" d="M526.239 163.419L537.088 147.377L548.17 163.496" stroke="#FFC72C" style="stroke:#FFC72C;stroke:color(display-p3 1.0000 0.7804 0.1725);stroke-opacity:1;" stroke-width="1.47244"/>
<path id="Vector_52" d="M539.336 157.374C539.336 157.949 539.107 158.501 538.7 158.908C538.293 159.315 537.741 159.544 537.166 159.544C536.59 159.544 536.038 159.315 535.631 158.908C535.224 158.501 534.996 157.949 534.996 157.374C534.996 156.798 535.224 156.246 535.631 155.839C536.038 155.432 536.59 155.204 537.166 155.204C537.741 155.204 538.293 155.432 538.7 155.839C539.107 156.246 539.336 156.798 539.336 157.374Z" fill="#FFC72C" stroke="black" style="fill:#FFC72C;fill:color(display-p3 1.0000 0.7804 0.1725);fill-opacity:1;stroke:black;stroke-opacity:1;" stroke-width="0.697473"/>
<g id="Vector_53">
<path d="M528.254 175.275H545.225C545.225 175.275 545.458 173.106 543.443 171.788C552.355 170.548 550.03 162.798 557.392 162.333C558.942 162.566 553.518 165.666 553.518 165.666C553.518 165.666 549.1 168.766 551.193 170.393C552.743 171.711 553.518 169.618 553.673 168.068C553.828 166.518 560.88 165.511 559.872 161.094C558.245 157.451 548.48 163.573 548.48 163.573L541.506 163.496C541.041 162.721 539.181 159.621 537.166 159.621C534.841 159.621 533.136 163.496 533.136 163.496H517.404C517.404 163.496 516.862 167.603 524.844 168.378C526.626 170.703 528.021 171.323 529.649 171.943C528.615 172.77 528.15 173.881 528.254 175.275ZM529.494 171.866H543.598Z" fill="#FFC72C" style="fill:#FFC72C;fill:color(display-p3 1.0000 0.7804 0.1725);fill-opacity:1;"/>
<path d="M529.494 171.866H543.598M528.254 175.275H545.225C545.225 175.275 545.458 173.106 543.443 171.788C552.355 170.548 550.03 162.798 557.392 162.333C558.942 162.566 553.518 165.666 553.518 165.666C553.518 165.666 549.1 168.766 551.193 170.393C552.743 171.711 553.518 169.618 553.673 168.068C553.828 166.518 560.88 165.511 559.872 161.094C558.245 157.451 548.48 163.573 548.48 163.573L541.506 163.496C541.041 162.721 539.181 159.621 537.166 159.621C534.841 159.621 533.136 163.496 533.136 163.496H517.404C517.404 163.496 516.862 167.603 524.844 168.378C526.626 170.703 528.021 171.323 529.649 171.943C528.615 172.77 528.15 173.881 528.254 175.275Z" stroke="black" style="stroke:black;stroke-opacity:1;" stroke-width="0.697473"/>
</g>
<g id="Vector_54">
<path d="M523.061 163.573C523.061 163.573 524.146 170.161 529.416 171.711Z" fill="#FFC72C" style="fill:#FFC72C;fill:color(display-p3 1.0000 0.7804 0.1725);fill-opacity:1;"/>
<path d="M523.061 163.573C523.061 163.573 524.146 170.161 529.416 171.711" stroke="black" style="stroke:black;stroke-opacity:1;" stroke-width="0.697473"/>
</g>
<path id="Vector_55" d="M522.209 163.418C522.674 160.939 523.681 160.474 524.689 157.219C524.844 154.119 522.209 154.506 522.984 152.569C524.327 150.296 523.681 148.306 521.046 146.602C521.589 149.469 517.636 152.181 517.636 154.506C517.636 156.831 519.651 156.366 519.419 159.931C519.574 161.946 518.876 161.481 518.644 163.418H522.209Z" fill="url(#paint7_linear_2194_11554)" stroke="black" style="stroke:black;stroke-opacity:1;" stroke-width="0.697473"/>
<path id="Vector_56" d="M539.181 147.842C539.181 148.376 538.968 148.888 538.59 149.266C538.213 149.644 537.7 149.857 537.166 149.857C536.631 149.857 536.119 149.644 535.741 149.266C535.363 148.888 535.151 148.376 535.151 147.842C535.151 147.307 535.363 146.795 535.741 146.417C536.119 146.039 536.631 145.827 537.166 145.827C537.7 145.827 538.213 146.039 538.59 146.417C538.968 146.795 539.181 147.307 539.181 147.842Z" fill="#FFC72C" stroke="black" style="fill:#FFC72C;fill:color(display-p3 1.0000 0.7804 0.1725);fill-opacity:1;stroke:black;stroke-opacity:1;" stroke-width="0.697473"/>
</g>
<g id="vg-b_9">
<path id="Vector_57" d="M524.844 195.579L535.693 179.538L546.775 195.657" stroke="#FFC72C" style="stroke:#FFC72C;stroke:color(display-p3 1.0000 0.7804 0.1725);stroke-opacity:1;" stroke-width="1.47244"/>
<path id="Vector_58" d="M537.941 189.535C537.941 190.11 537.712 190.662 537.305 191.069C536.898 191.476 536.346 191.705 535.771 191.705C535.195 191.705 534.643 191.476 534.236 191.069C533.829 190.662 533.601 190.11 533.601 189.535C533.601 188.959 533.829 188.407 534.236 188C534.643 187.593 535.195 187.365 535.771 187.365C536.346 187.365 536.898 187.593 537.305 188C537.712 188.407 537.941 188.959 537.941 189.535Z" fill="#FFC72C" stroke="black" style="fill:#FFC72C;fill:color(display-p3 1.0000 0.7804 0.1725);fill-opacity:1;stroke:black;stroke-opacity:1;" stroke-width="0.697473"/>
<g id="Vector_59">
<path d="M526.859 207.437H543.831C543.831 207.437 544.063 205.267 542.048 203.949C550.96 202.709 548.635 194.96 555.998 194.495C557.547 194.727 552.123 197.827 552.123 197.827C552.123 197.827 547.705 200.927 549.798 202.554C551.348 203.872 552.123 201.779 552.278 200.229C552.433 198.679 559.485 197.672 558.477 193.255C556.85 189.612 547.085 195.735 547.085 195.735L540.111 195.657C539.646 194.882 537.786 191.782 535.771 191.782C533.446 191.782 531.741 195.657 531.741 195.657H516.009C516.009 195.657 515.467 199.764 523.449 200.539C525.231 202.864 526.626 203.484 528.254 204.104C527.22 204.931 526.755 206.042 526.859 207.437ZM528.099 204.027H542.203Z" fill="#FFC72C" style="fill:#FFC72C;fill:color(display-p3 1.0000 0.7804 0.1725);fill-opacity:1;"/>
<path d="M528.099 204.027H542.203M526.859 207.437H543.831C543.831 207.437 544.063 205.267 542.048 203.949C550.96 202.709 548.635 194.96 555.998 194.495C557.547 194.727 552.123 197.827 552.123 197.827C552.123 197.827 547.705 200.927 549.798 202.554C551.348 203.872 552.123 201.779 552.278 200.229C552.433 198.679 559.485 197.672 558.477 193.255C556.85 189.612 547.085 195.735 547.085 195.735L540.111 195.657C539.646 194.882 537.786 191.782 535.771 191.782C533.446 191.782 531.741 195.657 531.741 195.657H516.009C516.009 195.657 515.467 199.764 523.449 200.539C525.231 202.864 526.626 203.484 528.254 204.104C527.22 204.931 526.755 206.042 526.859 207.437Z" stroke="black" style="stroke:black;stroke-opacity:1;" stroke-width="0.697473"/>
</g>
<g id="Vector_60">
<path d="M521.666 195.734C521.666 195.734 522.751 202.322 528.021 203.872Z" fill="#FFC72C" style="fill:#FFC72C;fill:color(display-p3 1.0000 0.7804 0.1725);fill-opacity:1;"/>
<path d="M521.666 195.734C521.666 195.734 522.751 202.322 528.021 203.872" stroke="black" style="stroke:black;stroke-opacity:1;" stroke-width="0.697473"/>
</g>
<path id="Vector_61" d="M520.814 195.58C521.279 193.1 522.286 192.635 523.294 189.38C523.449 186.28 520.814 186.667 521.589 184.73C522.932 182.457 522.286 180.468 519.652 178.763C520.194 181.63 516.242 184.342 516.242 186.667C516.242 188.992 518.257 188.527 518.024 192.092C518.179 194.107 517.482 193.642 517.249 195.58H520.814Z" fill="url(#paint8_linear_2194_11554)" stroke="black" style="stroke:black;stroke-opacity:1;" stroke-width="0.697473"/>
<path id="Vector_62" d="M537.786 180.003C537.786 180.537 537.573 181.05 537.196 181.427C536.818 181.805 536.305 182.018 535.771 182.018C535.236 182.018 534.724 181.805 534.346 181.427C533.968 181.05 533.756 180.537 533.756 180.003C533.756 179.468 533.968 178.956 534.346 178.578C534.724 178.2 535.236 177.988 535.771 177.988C536.305 177.988 536.818 178.2 537.196 178.578C537.573 178.956 537.786 179.468 537.786 180.003Z" fill="#FFC72C" stroke="black" style="fill:#FFC72C;fill:color(display-p3 1.0000 0.7804 0.1725);fill-opacity:1;stroke:black;stroke-opacity:1;" stroke-width="0.697473"/>
</g>
<g id="vg-b_10">
<path id="Vector_63" d="M526.471 227.121L537.321 211.079L548.403 227.198" stroke="#FFC72C" style="stroke:#FFC72C;stroke:color(display-p3 1.0000 0.7804 0.1725);stroke-opacity:1;" stroke-width="1.47244"/>
<path id="Vector_64" d="M539.568 221.076C539.568 221.652 539.339 222.204 538.933 222.611C538.526 223.017 537.974 223.246 537.398 223.246C536.823 223.246 536.271 223.017 535.864 222.611C535.457 222.204 535.228 221.652 535.228 221.076C535.228 220.501 535.457 219.949 535.864 219.542C536.271 219.135 536.823 218.906 537.398 218.906C537.974 218.906 538.526 219.135 538.933 219.542C539.339 219.949 539.568 220.501 539.568 221.076Z" fill="#FFC72C" stroke="black" style="fill:#FFC72C;fill:color(display-p3 1.0000 0.7804 0.1725);fill-opacity:1;stroke:black;stroke-opacity:1;" stroke-width="0.697473"/>
<g id="Vector_65">
<path d="M528.486 238.978H545.458C545.458 238.978 545.69 236.808 543.676 235.491C552.588 234.251 550.263 226.501 557.625 226.036C559.175 226.269 553.75 229.368 553.75 229.368C553.75 229.368 549.333 232.468 551.425 234.096C552.975 235.413 553.75 233.321 553.905 231.771C554.06 230.221 561.112 229.214 560.105 224.796C558.477 221.154 548.713 227.276 548.713 227.276L541.738 227.199C541.273 226.424 539.413 223.324 537.398 223.324C535.073 223.324 533.368 227.199 533.368 227.199H517.637C517.637 227.199 517.094 231.306 525.076 232.081C526.859 234.406 528.254 235.026 529.881 235.646C528.848 236.472 528.383 237.583 528.486 238.978ZM529.726 235.568H543.831Z" fill="#FFC72C" style="fill:#FFC72C;fill:color(display-p3 1.0000 0.7804 0.1725);fill-opacity:1;"/>
<path d="M529.726 235.568H543.831M528.486 238.978H545.458C545.458 238.978 545.69 236.808 543.676 235.491C552.588 234.251 550.263 226.501 557.625 226.036C559.175 226.269 553.75 229.368 553.75 229.368C553.75 229.368 549.333 232.468 551.425 234.096C552.975 235.413 553.75 233.321 553.905 231.771C554.06 230.221 561.112 229.214 560.105 224.796C558.477 221.154 548.713 227.276 548.713 227.276L541.738 227.199C541.273 226.424 539.413 223.324 537.398 223.324C535.073 223.324 533.368 227.199 533.368 227.199H517.637C517.637 227.199 517.094 231.306 525.076 232.081C526.859 234.406 528.254 235.026 529.881 235.646C528.848 236.472 528.383 237.583 528.486 238.978Z" stroke="black" style="stroke:black;stroke-opacity:1;" stroke-width="0.697473"/>
</g>
<g id="Vector_66">
<path d="M523.294 227.276C523.294 227.276 524.379 233.863 529.649 235.413Z" fill="#FFC72C" style="fill:#FFC72C;fill:color(display-p3 1.0000 0.7804 0.1725);fill-opacity:1;"/>
<path d="M523.294 227.276C523.294 227.276 524.379 233.863 529.649 235.413" stroke="black" style="stroke:black;stroke-opacity:1;" stroke-width="0.697473"/>
</g>
<path id="Vector_67" d="M522.441 227.121C522.906 224.641 523.914 224.176 524.921 220.921C525.076 217.821 522.441 218.209 523.216 216.271C524.56 213.998 523.914 212.009 521.279 210.304C521.821 213.172 517.869 215.884 517.869 218.209C517.869 220.534 519.884 220.069 519.651 223.634C519.806 225.649 519.109 225.184 518.876 227.121H522.441Z" fill="url(#paint9_linear_2194_11554)" stroke="black" style="stroke:black;stroke-opacity:1;" stroke-width="0.697473"/>
<path id="Vector_68" d="M539.413 211.544C539.413 212.079 539.201 212.591 538.823 212.969C538.445 213.347 537.933 213.559 537.398 213.559C536.864 213.559 536.351 213.347 535.973 212.969C535.596 212.591 535.383 212.079 535.383 211.544C535.383 211.01 535.596 210.497 535.973 210.119C536.351 209.742 536.864 209.529 537.398 209.529C537.933 209.529 538.445 209.742 538.823 210.119C539.201 210.497 539.413 211.01 539.413 211.544Z" fill="#FFC72C" stroke="black" style="fill:#FFC72C;fill:color(display-p3 1.0000 0.7804 0.1725);fill-opacity:1;stroke:black;stroke-opacity:1;" stroke-width="0.697473"/>
</g>
<g id="vg-b_11">
<path id="Vector_69" d="M526.084 258.74L536.933 242.698L548.015 258.817" stroke="#FFC72C" style="stroke:#FFC72C;stroke:color(display-p3 1.0000 0.7804 0.1725);stroke-opacity:1;" stroke-width="1.47244"/>
<path id="Vector_70" d="M539.181 252.695C539.181 253.27 538.952 253.822 538.545 254.229C538.138 254.636 537.586 254.865 537.011 254.865C536.435 254.865 535.883 254.636 535.476 254.229C535.069 253.822 534.841 253.27 534.841 252.695C534.841 252.119 535.069 251.567 535.476 251.16C535.883 250.754 536.435 250.525 537.011 250.525C537.586 250.525 538.138 250.754 538.545 251.16C538.952 251.567 539.181 252.119 539.181 252.695Z" fill="#FFC72C" stroke="black" style="fill:#FFC72C;fill:color(display-p3 1.0000 0.7804 0.1725);fill-opacity:1;stroke:black;stroke-opacity:1;" stroke-width="0.697473"/>
<g id="Vector_71">
<path d="M528.099 270.597H545.07C545.07 270.597 545.303 268.427 543.288 267.109C552.2 265.869 549.875 258.12 557.238 257.655C558.787 257.887 553.363 260.987 553.363 260.987C553.363 260.987 548.945 264.087 551.038 265.714C552.588 267.032 553.363 264.94 553.518 263.39C553.673 261.84 560.725 260.832 559.717 256.415C558.09 252.772 548.325 258.895 548.325 258.895L541.351 258.817C540.886 258.042 539.026 254.942 537.011 254.942C534.686 254.942 532.981 258.817 532.981 258.817H517.249C517.249 258.817 516.707 262.925 524.689 263.7C526.471 266.024 527.866 266.644 529.494 267.264C528.46 268.091 527.995 269.202 528.099 270.597ZM529.339 267.187H543.443Z" fill="#FFC72C" style="fill:#FFC72C;fill:color(display-p3 1.0000 0.7804 0.1725);fill-opacity:1;"/>
<path d="M529.339 267.187H543.443M528.099 270.597H545.07C545.07 270.597 545.303 268.427 543.288 267.109C552.2 265.869 549.875 258.12 557.238 257.655C558.787 257.887 553.363 260.987 553.363 260.987C553.363 260.987 548.945 264.087 551.038 265.714C552.588 267.032 553.363 264.94 553.518 263.39C553.673 261.84 560.725 260.832 559.717 256.415C558.09 252.772 548.325 258.895 548.325 258.895L541.351 258.817C540.886 258.042 539.026 254.942 537.011 254.942C534.686 254.942 532.981 258.817 532.981 258.817H517.249C517.249 258.817 516.707 262.925 524.689 263.7C526.471 266.024 527.866 266.644 529.494 267.264C528.46 268.091 527.995 269.202 528.099 270.597Z" stroke="black" style="stroke:black;stroke-opacity:1;" stroke-width="0.697473"/>
</g>
<g id="Vector_72">
<path d="M522.906 258.895C522.906 258.895 523.991 265.482 529.261 267.032Z" fill="#FFC72C" style="fill:#FFC72C;fill:color(display-p3 1.0000 0.7804 0.1725);fill-opacity:1;"/>
<path d="M522.906 258.895C522.906 258.895 523.991 265.482 529.261 267.032" stroke="black" style="stroke:black;stroke-opacity:1;" stroke-width="0.697473"/>
</g>
<path id="Vector_73" d="M522.054 258.74C522.519 256.26 523.526 255.795 524.534 252.54C524.689 249.44 522.054 249.828 522.829 247.89C524.172 245.617 523.526 243.628 520.891 241.923C521.434 244.79 517.482 247.503 517.482 249.828C517.482 252.152 519.496 251.687 519.264 255.252C519.419 257.267 518.722 256.802 518.489 258.74H522.054Z" fill="url(#paint10_linear_2194_11554)" stroke="black" style="stroke:black;stroke-opacity:1;" stroke-width="0.697473"/>
<path id="Vector_74" d="M539.026 243.163C539.026 243.697 538.813 244.21 538.436 244.588C538.058 244.966 537.545 245.178 537.011 245.178C536.476 245.178 535.964 244.966 535.586 244.588C535.208 244.21 534.996 243.697 534.996 243.163C534.996 242.628 535.208 242.116 535.586 241.738C535.964 241.36 536.476 241.148 537.011 241.148C537.545 241.148 538.058 241.36 538.436 241.738C538.813 242.116 539.026 242.628 539.026 243.163Z" fill="#FFC72C" stroke="black" style="fill:#FFC72C;fill:color(display-p3 1.0000 0.7804 0.1725);fill-opacity:1;stroke:black;stroke-opacity:1;" stroke-width="0.697473"/>
</g>
<g id="vg-b_12">
<path id="Vector_75" d="M526.239 290.514L537.088 274.472L548.17 290.591" stroke="#FFC72C" style="stroke:#FFC72C;stroke:color(display-p3 1.0000 0.7804 0.1725);stroke-opacity:1;" stroke-width="1.47244"/>
<path id="Vector_76" d="M539.336 284.469C539.336 285.044 539.107 285.596 538.7 286.003C538.293 286.41 537.741 286.639 537.166 286.639C536.59 286.639 536.038 286.41 535.631 286.003C535.224 285.596 534.996 285.044 534.996 284.469C534.996 283.893 535.224 283.341 535.631 282.934C536.038 282.527 536.59 282.299 537.166 282.299C537.741 282.299 538.293 282.527 538.7 282.934C539.107 283.341 539.336 283.893 539.336 284.469Z" fill="#FFC72C" stroke="black" style="fill:#FFC72C;fill:color(display-p3 1.0000 0.7804 0.1725);fill-opacity:1;stroke:black;stroke-opacity:1;" stroke-width="0.697473"/>
<g id="Vector_77">
<path d="M528.254 302.371H545.225C545.225 302.371 545.458 300.201 543.443 298.883C552.355 297.643 550.03 289.894 557.392 289.429C558.942 289.661 553.518 292.761 553.518 292.761C553.518 292.761 549.1 295.861 551.193 297.488C552.743 298.806 553.518 296.713 553.673 295.163C553.828 293.614 560.88 292.606 559.872 288.189C558.245 284.546 548.48 290.669 548.48 290.669L541.506 290.591C541.041 289.816 539.181 286.716 537.166 286.716C534.841 286.716 533.136 290.591 533.136 290.591H517.404C517.404 290.591 516.862 294.699 524.844 295.473C526.626 297.798 528.021 298.418 529.649 299.038C528.615 299.865 528.15 300.976 528.254 302.371ZM529.494 298.961H543.598Z" fill="#FFC72C" style="fill:#FFC72C;fill:color(display-p3 1.0000 0.7804 0.1725);fill-opacity:1;"/>
<path d="M529.494 298.961H543.598M528.254 302.371H545.225C545.225 302.371 545.458 300.201 543.443 298.883C552.355 297.643 550.03 289.894 557.392 289.429C558.942 289.661 553.518 292.761 553.518 292.761C553.518 292.761 549.1 295.861 551.193 297.488C552.743 298.806 553.518 296.713 553.673 295.163C553.828 293.614 560.88 292.606 559.872 288.189C558.245 284.546 548.48 290.669 548.48 290.669L541.506 290.591C541.041 289.816 539.181 286.716 537.166 286.716C534.841 286.716 533.136 290.591 533.136 290.591H517.404C517.404 290.591 516.862 294.699 524.844 295.473C526.626 297.798 528.021 298.418 529.649 299.038C528.615 299.865 528.15 300.976 528.254 302.371Z" stroke="black" style="stroke:black;stroke-opacity:1;" stroke-width="0.697473"/>
</g>
<g id="Vector_78">
<path d="M523.061 290.669C523.061 290.669 524.146 297.256 529.416 298.806Z" fill="#FFC72C" style="fill:#FFC72C;fill:color(display-p3 1.0000 0.7804 0.1725);fill-opacity:1;"/>
<path d="M523.061 290.669C523.061 290.669 524.146 297.256 529.416 298.806" stroke="black" style="stroke:black;stroke-opacity:1;" stroke-width="0.697473"/>
</g>
<path id="Vector_79" d="M522.209 290.514C522.674 288.034 523.681 287.569 524.689 284.314C524.844 281.214 522.209 281.601 522.984 279.664C524.327 277.391 523.681 275.402 521.046 273.697C521.589 276.564 517.636 279.277 517.636 281.601C517.636 283.926 519.651 283.461 519.419 287.026C519.574 289.041 518.876 288.576 518.644 290.514H522.209Z" fill="url(#paint11_linear_2194_11554)" stroke="black" style="stroke:black;stroke-opacity:1;" stroke-width="0.697473"/>
<path id="Vector_80" d="M539.181 274.937C539.181 275.471 538.968 275.984 538.59 276.362C538.213 276.739 537.7 276.952 537.166 276.952C536.631 276.952 536.119 276.739 535.741 276.362C535.363 275.984 535.151 275.471 535.151 274.937C535.151 274.402 535.363 273.89 535.741 273.512C536.119 273.134 536.631 272.922 537.166 272.922C537.7 272.922 538.213 273.134 538.59 273.512C538.968 273.89 539.181 274.402 539.181 274.937Z" fill="#FFC72C" stroke="black" style="fill:#FFC72C;fill:color(display-p3 1.0000 0.7804 0.1725);fill-opacity:1;stroke:black;stroke-opacity:1;" stroke-width="0.697473"/>
</g>
<g id="Group_2">
<path id="Vector_81" d="M492.217 305.471C492.217 305.471 496.635 315.7 501.672 309.345C506.709 303.146 504.927 300.433 504.927 300.433L493.612 294.311L490.28 301.286L492.217 305.471Z" fill="#FFC72C" stroke="black" style="fill:#FFC72C;fill:color(display-p3 1.0000 0.7804 0.1725);fill-opacity:1;stroke:black;stroke-opacity:1;" stroke-width="0.697473"/>
<path id="Vector_82" d="M501.982 304.153C501.982 304.153 502.757 304.231 503.3 303.146C503.92 302.061 501.982 301.596 501.052 300.356L500.122 302.293L501.982 304.153ZM476.408 301.363L466.488 306.788C466.488 306.788 461.529 307.795 461.219 306.788C460.831 305.858 461.296 305.005 463.931 304.85C466.488 304.773 473.463 298.341 473.463 298.341L476.408 301.441V301.363ZM476.563 124.747L476.873 128.312C477.028 129.552 474.936 132.187 474.858 132.032C474.781 131.877 473.696 132.187 473.851 132.885C474.006 133.582 475.401 133.892 475.401 133.892C475.401 133.892 474.858 136.45 475.401 136.605C476.021 136.682 473.851 139.859 475.401 140.712C477.028 141.564 479.74 142.727 480.98 142.494C482.22 142.262 480.98 147.222 480.98 147.222L477.493 154.584L496.402 152.646L492.527 146.447C492.527 146.447 490.668 145.129 491.133 141.564C491.675 138.077 490.9 121.958 490.9 121.958L477.416 120.098L476.563 124.747ZM473.076 152.801C473.076 152.801 466.953 155.591 467.186 163.186C465.636 170.548 464.784 177.91 464.784 177.91C464.784 177.91 457.499 186.125 455.329 189.147C453.082 192.092 449.749 198.06 448.587 199.687C447.347 201.237 442.542 206.507 442.619 208.522C442.774 210.459 441.534 219.216 446.339 220.146C447.579 220.689 451.532 210.072 451.532 210.072C451.532 210.072 451.764 205.577 450.369 204.647C449.052 203.872 453.314 200.927 453.314 200.927L463.389 193.41C465.249 191.86 470.286 186.28 470.286 186.28L473.076 152.801Z" fill="#FFC6B5" stroke="black" style="fill:#FFC6B5;fill:color(display-p3 1.0000 0.7765 0.7098);fill-opacity:1;stroke:black;stroke-opacity:1;" stroke-width="0.697473"/>
<path id="Vector_83" d="M480.128 146.989C480.128 146.989 481.678 151.329 485.243 150.554C488.808 149.779 492.992 146.524 492.992 146.524C492.992 146.524 496.325 146.369 496.79 146.912C497.255 147.454 505.78 155.591 505.47 158.149C505.237 160.784 501.595 160.009 500.2 161.714C498.805 163.419 496.635 167.758 497.255 171.013C497.875 174.113 499.735 178.298 499.502 179.925C499.27 181.553 497.952 182.018 497.952 182.87C497.952 183.723 499.037 185.195 499.037 186.745C499.037 188.373 497.487 190.697 497.797 192.325C498.03 193.875 498.107 198.525 498.107 198.525L497.797 220.224C497.797 220.224 499.037 220.921 499.115 222.161C499.27 223.324 507.484 259.05 507.484 259.05C507.484 259.05 507.097 260.212 506.244 260.057C505.392 259.902 509.577 265.56 509.654 267.187C509.732 268.814 513.994 281.291 513.839 282.996C513.684 284.701 513.064 288.576 512.754 288.654C512.367 288.809 515.467 296.558 514.924 297.721C514.459 298.961 509.499 298.883 509.499 298.883L508.104 298.573C508.104 298.573 508.182 300.201 507.252 300.356C506.322 300.511 499.037 299.968 499.037 299.968C499.037 299.968 496.945 303.146 495.705 303.068C494.465 302.913 492.837 300.743 492.528 301.053C492.14 301.441 493.612 303.533 493.302 304.153C492.837 304.773 486.638 306.09 485.398 303.146C484.158 300.201 486.173 300.976 485.708 300.356C485.398 299.736 482.608 298.108 481.678 298.573C480.903 299.116 483.925 299.813 483.77 301.053C483.615 302.293 481.058 304.153 480.128 304.153C479.198 304.153 476.796 299.581 473.308 300.046C469.898 300.588 467.728 301.441 467.728 301.441C467.728 301.441 463.621 303.146 461.916 302.758C460.211 302.448 459.436 301.053 459.436 300.356C459.436 299.581 460.676 296.403 460.599 295.396C460.444 294.466 459.436 293.458 459.436 291.986C459.436 290.514 462.304 285.476 462.304 285.476L462.149 262.847C462.149 262.847 459.591 262.847 459.436 261.297C459.359 259.747 463.389 225.571 464.086 223.324L466.256 213.249C466.256 213.249 464.396 214.179 464.241 213.249C464.164 212.474 469.821 192.945 469.821 192.945C469.821 192.945 470.751 183.18 470.751 180.623C470.751 178.065 470.286 174.501 470.286 174.501C470.286 174.501 465.249 172.331 465.094 169.076C464.629 163.883 469.898 161.016 470.518 159.311L472.998 152.336C472.998 152.336 475.711 147.687 480.128 146.989Z" fill="white" stroke="black" style="fill:white;fill-opacity:1;stroke:black;stroke-opacity:1;" stroke-width="0.697473"/>
<path id="Vector_84" d="M478.268 302.913C478.268 302.913 466.334 309.113 464.629 309.655C462.924 310.198 461.839 307.563 463.544 307.098C465.249 306.555 467.961 306.323 467.961 306.323C467.961 306.323 463.931 303.146 464.086 302.991L469.666 300.976C469.821 300.976 471.371 304.075 472.456 303.92C473.995 303.173 475.45 302.264 476.796 301.208L478.268 302.913Z" fill="#FFC72C" stroke="black" style="fill:#FFC72C;fill:color(display-p3 1.0000 0.7804 0.1725);fill-opacity:1;stroke:black;stroke-opacity:1;" stroke-width="0.697473"/>
<path id="Vector_85" d="M495.007 306.323C496.17 307.796 496.557 310.275 499.192 308.803C501.75 307.331 497.875 304.618 497.875 304.618L495.007 306.323Z" fill="#FFC6B5" stroke="black" style="fill:#FFC6B5;fill:color(display-p3 1.0000 0.7765 0.7098);fill-opacity:1;stroke:black;stroke-opacity:1;" stroke-width="0.697473"/>
<path id="Vector_86" d="M499.735 306.09C499.735 306.09 500.975 307.098 502.06 305.935C503.145 304.85 499.89 302.525 499.89 302.525L498.262 304.385L499.735 306.09ZM505.005 158.769C505.16 158.769 509.034 170.858 509.577 173.958C510.042 177.058 511.669 189.302 511.049 191.007C510.429 192.712 504.152 200.927 503.455 203.019C502.757 205.112 498.262 213.094 498.262 213.094C498.262 213.094 497.177 220.999 496.712 221.309C496.247 221.619 497.952 223.634 497.797 224.254C497.565 225.028 494.233 228.438 492.76 228.128C491.288 227.818 488.885 226.036 488.885 224.409C488.653 222.859 488.885 217.511 490.048 216.194C491.133 214.799 496.945 201.237 497.255 200.384C497.642 199.454 502.525 188.76 502.68 186.977C502.835 185.195 501.13 180.855 499.425 179.305C495.55 167.913 497.1 161.093 505.005 158.769Z" fill="#FFC6B5" stroke="black" style="fill:#FFC6B5;fill:color(display-p3 1.0000 0.7765 0.7098);fill-opacity:1;stroke:black;stroke-opacity:1;" stroke-width="0.697473"/>
<path id="Vector_87" d="M476.098 124.05C476.098 124.05 478.888 124.437 480.36 123.585C481.833 122.733 483.538 122.345 484.778 124.05C486.018 125.755 486.87 125.6 486.87 125.6C486.87 125.6 485.01 130.25 486.87 130.715C488.653 131.18 489.583 131.18 489.66 131.8C489.738 132.42 488.11 133.737 488.575 134.357C489.04 134.977 489.893 135.675 490.048 136.217C490.203 136.759 488.963 138.774 489.273 139.317C489.66 139.782 490.823 141.719 491.52 141.719C492.295 141.719 491.753 144.819 494 144.044C496.17 143.269 496.092 141.332 496.092 141.332C496.092 141.332 498.417 141.022 499.037 138.929C499.657 136.837 501.052 136.294 501.052 136.294C501.052 136.294 503.997 134.745 500.122 132.265C500.122 115.06 488.808 116.92 488.808 116.92C488.808 116.92 487.49 113.82 485.243 114.208C482.995 114.595 482.918 117.153 481.368 116.92C479.74 116.688 479.353 115.603 479.276 115.68C479.121 115.835 477.726 118.315 477.726 118.858C477.726 119.478 473.463 118.083 473.851 121.183C474.238 124.437 476.331 124.282 476.176 124.05H476.098Z" fill="#9C5100" stroke="black" style="fill:#9C5100;fill:color(display-p3 0.6118 0.3176 0.0000);fill-opacity:1;stroke:black;stroke-opacity:1;" stroke-width="0.697473"/>
<g id="Group_3">
<path id="Vector_88" d="M496.092 151.794C496.092 151.794 485.165 158.769 485.398 161.249M498.572 153.034C498.572 153.034 496.092 155.746 495.937 155.746M501.827 155.979C501.827 155.979 496.402 160.396 497.255 163.186M476.331 151.174C476.331 151.174 474.703 154.506 475.091 155.591C475.478 156.676 478.191 160.861 478.501 163.419C478.888 166.053 478.501 167.836 478.501 167.836M473.463 157.296C473.463 157.296 473.928 161.171 474.703 161.946C475.478 162.721 477.416 166.054 477.648 167.371M472.456 173.648C472.456 173.648 475.711 175.198 478.656 169.076M483.383 164.814C483.305 164.814 481.058 170.781 485.01 173.028C488.963 175.276 491.908 174.966 493.535 174.346C495.317 173.803 497.177 172.641 497.177 172.641M481.678 172.176C481.678 172.176 481.91 180.235 493.845 188.218M482.22 179.77C482.22 179.77 482.065 186.9 486.715 190.078M479.741 171.401C479.741 171.401 476.176 182.018 473.308 183.025M478.656 179.15C478.656 179.15 478.501 186.745 477.493 189.458M476.563 191.318C476.563 191.318 478.966 194.417 481.678 194.107C484.39 193.797 485.553 190.698 487.335 191.163C489.195 191.705 490.9 193.177 495.162 192.79M489.04 195.967C489.04 195.967 489.04 202.245 490.203 202.865C491.288 203.485 490.745 209.219 490.745 209.219M474.083 193.022C474.083 193.022 473.928 198.912 473.231 201.005C472.533 203.097 470.983 206.662 471.293 209.762M466.566 213.172C467.186 212.939 469.278 211.079 469.278 211.079M470.363 212.397C470.363 212.397 465.094 235.026 466.566 248.51M471.603 213.559C471.603 213.559 468.891 230.454 470.131 233.708M470.286 213.017L480.593 213.792M482.065 212.397C482.065 212.397 484.855 213.947 488.808 213.637M480.825 220.689C480.825 220.689 480.361 249.595 479.586 256.028M495.937 227.276C495.937 227.276 499.115 252.695 500.975 255.02M489.815 230.454C489.815 230.454 491.753 252.928 492.915 254.943M461.916 262.77C461.916 262.77 465.791 261.53 469.201 257.887C473.076 263.157 479.121 258.12 479.121 258.12C479.121 258.12 488.42 264.475 492.605 257.345C499.037 261.53 502.215 256.725 502.215 256.725C502.215 256.725 504.54 260.29 506.245 259.902M496.092 262.382C496.092 262.382 500.82 284.856 507.949 291.211" stroke="black" style="stroke:black;stroke-opacity:1;" stroke-width="0.697473"/>
<path id="Vector_89" d="M471.448 260.057C471.448 260.057 471.991 278.812 473.076 292.064M470.518 281.291C470.518 281.291 469.898 293.536 469.201 294.466M463.311 295.628C463.311 295.628 464.629 300.976 471.371 296.016C478.113 291.134 478.268 297.876 478.501 298.573C478.733 299.348 479.818 304.618 482.375 300.201M487.8 292.994C487.8 292.994 486.715 303.843 496.402 295.938C506.089 287.956 507.717 295.783 508.027 298.263M487.955 119.865C487.955 119.865 487.103 125.29 492.837 124.748C492.062 127.77 494.387 128.7 494.387 128.7M498.572 132.032C498.727 132.032 501.207 133.582 498.572 135.597M490.28 136.295C490.28 136.295 491.52 137.845 492.837 137.457C494.232 137.07 496.402 138.774 496.402 138.774C496.402 138.774 498.262 139.394 498.495 139.007M482.763 140.944C482.763 140.944 486.948 142.572 489.738 135.985M475.091 133.97L477.493 134.125M447.812 211.467L448.044 216.814M442.774 211.002C442.774 211.002 446.262 216.814 445.874 219.836" stroke="black" style="stroke:black;stroke-opacity:1;" stroke-width="0.697473"/>
<path id="Vector_90" d="M475.401 136.45H477.648L475.711 137.302M489.04 223.091C489.04 223.091 491.598 222.781 491.52 227.121C493.147 221.696 496.48 221.619 496.48 221.619" stroke="black" style="stroke:black;stroke-opacity:1;" stroke-width="0.697473" stroke-linejoin="round"/>
<path id="Vector_91" d="M478.5 129.552C478.888 129.552 480.205 129.087 480.438 129.475C480.748 129.785 478.965 130.095 478.5 129.552Z" stroke="black" style="stroke:black;stroke-opacity:1;" stroke-width="1.31745" stroke-linejoin="round"/>
</g>
</g>
<g id="Group_4">
<path id="Vector_92" d="M480.206 346.001C512.563 344.502 543.049 330.399 565.142 306.71C564.832 306.4 572.039 296.326 577.774 297.721C583.509 299.116 591.801 316.088 601.876 319.73C606.913 327.635 600.481 334.842 598.311 336.237C596.141 337.632 586.376 341.662 584.981 335.927C583.509 330.115 580.642 331.277 580.642 331.277C580.642 331.277 534.531 376.225 481.29 374.443C426.268 374.753 380.854 331.199 380.854 331.199L376.902 335.539C376.902 335.539 372.562 340.189 370.392 339.879C368.222 339.569 358.845 333.369 358.148 327.247C357.45 321.125 363.883 317.173 363.883 317.173C363.883 317.173 379.769 304.928 381.552 298.496C385.194 294.853 392.014 300.976 392.014 300.976C392.014 300.976 433.785 348.869 480.206 345.924V346.001Z" fill="#FFC72C" stroke="black" style="fill:#FFC72C;fill:color(display-p3 1.0000 0.7804 0.1725);fill-opacity:1;stroke:black;stroke-opacity:1;" stroke-width="1.47244"/>
<path id="Vector_93" d="M362.875 318.102C362.875 318.102 367.137 317.017 368.687 318.8C370.237 320.582 381.087 331.199 381.087 331.199" stroke="black" style="stroke:black;stroke-opacity:1;" stroke-width="1.47244"/>
<path id="Vector_94" d="M372.64 323.14L368.3 326.317C368.3 326.317 379.149 328.487 376.669 335.617M598.001 317.793C598.001 317.793 595.909 316.63 592.576 319.11C589.166 321.668 580.719 331.122 580.719 331.122" stroke="black" style="stroke:black;stroke-opacity:1;" stroke-width="1.47244"/>
<path id="Vector_95" d="M588.391 322.83L593.041 326.395C593.041 326.395 583.354 327.092 585.446 336.237" stroke="black" style="stroke:black;stroke-opacity:1;" stroke-width="1.47244"/>
</g>
<path id="Vector_96" d="M417.743 329.572C417.433 330.347 416.658 329.572 416.038 329.727C414.488 329.727 413.093 330.812 411.698 331.587L397.439 339.879C397.077 339.672 397 339.362 397.206 338.949L401.081 321.125C401.236 320.117 401.546 318.8 400.539 318.025C400.151 317.715 400.771 317.172 401.081 317.715L408.366 322.907C408.133 323.605 407.668 323.062 407.281 322.83C406.273 321.822 405.033 322.752 405.111 323.992L402.476 335.694C405.731 333.834 408.986 331.923 412.241 329.959C413.326 329.494 414.178 327.944 413.016 327.015C412.551 326.705 411.776 326.007 412.551 325.852L417.743 329.572ZM422.858 354.371C422.703 354.836 422.444 354.913 422.083 354.603L413.558 349.954C413.61 349.437 413.842 349.334 414.256 349.644C415.031 350.186 416.27 350.419 416.89 349.489L419.99 343.831L424.33 335.927C424.95 334.919 424.253 333.757 423.323 333.369C423.013 333.214 422.548 333.059 422.935 332.749C423.09 332.517 423.555 332.982 423.788 333.059L432.002 337.554C431.899 338.019 431.667 338.097 431.305 337.787C430.53 337.244 429.29 337.012 428.67 337.942L425.57 343.599L421.23 351.504C420.61 352.434 421.308 353.673 422.238 354.061L422.858 354.371ZM455.871 346.621L453.547 353.131C452.539 353.053 453.237 351.814 452.927 351.194C452.773 349.709 452.172 348.307 451.203 347.172C450.234 346.037 448.943 345.224 447.502 344.839C445.177 344.219 442.852 345.381 441.457 347.241C439.437 350 438.253 353.282 438.047 356.696C437.976 357.669 438.169 358.644 438.605 359.517C439.042 360.389 439.706 361.128 440.527 361.656C441.893 362.509 443.491 362.915 445.099 362.818L446.727 357.936C446.959 356.851 445.797 356.153 444.944 355.921C444.789 355.611 445.099 355.146 445.487 355.533L454.012 358.633C454.012 359.641 452.772 358.478 452.074 358.943C451.067 359.331 450.989 360.571 450.524 361.501L449.517 364.446C445.59 364.704 441.87 363.877 438.357 361.966C435.18 359.951 432.932 355.998 433.63 352.124C434.095 348.791 436.187 345.691 439.21 344.219C442 342.669 445.409 342.746 448.354 343.909C449.904 344.529 451.299 345.407 452.539 346.544C453.314 347.551 454.709 347.551 455.329 346.466L455.871 346.621ZM469.743 368.94C469.743 369.25 469.743 369.638 469.278 369.405L459.514 367.933C459.462 367.468 459.617 367.313 459.979 367.468C460.754 367.623 461.994 367.623 462.304 366.693C462.665 365.35 462.924 364.006 463.079 362.663L464.784 351.349C465.016 350.574 464.784 349.644 463.931 349.334C463.414 349.179 462.898 349.049 462.381 348.946C462.278 348.584 462.433 348.429 462.846 348.481L472.611 350.031C472.714 350.444 472.559 350.599 472.146 350.496C471.371 350.264 470.208 350.341 469.821 351.271C469.459 352.563 469.201 353.88 469.046 355.223L467.341 366.538C467.109 367.313 467.341 368.32 468.271 368.63L469.821 368.94H469.743ZM496.247 362.586L495.86 369.483L478.346 370.335C478.242 369.922 478.397 369.741 478.811 369.793C479.663 369.793 480.825 369.405 480.98 368.398L480.748 363.283L480.205 352.898C480.283 351.891 479.431 351.116 478.423 351.194C478.113 351.039 477.261 351.504 477.338 350.961C477.183 350.496 477.881 350.729 478.113 350.651L487.878 350.109C487.981 350.625 487.8 350.832 487.335 350.729C486.483 350.729 485.32 350.884 485.01 351.969C485.01 353.467 485.062 354.939 485.165 356.386L485.708 367.235C485.708 368.088 486.483 368.94 487.413 368.785C488.808 368.708 490.28 368.785 491.675 368.398C493.612 367.855 494.62 365.918 495.162 364.136C495.55 363.671 495.162 362.431 495.937 362.586H496.247ZM509.809 345.691C509.344 345.691 509.577 346.311 509.422 346.621C508.699 352.459 507.924 358.246 507.097 363.981C506.942 365.298 506.632 366.77 505.392 367.39C504.927 367.623 505.315 368.32 505.78 367.933L511.592 366.15C511.514 365.221 510.352 366.15 509.732 365.918C508.414 365.918 508.182 364.291 508.414 363.283C508.414 362.56 508.492 361.862 508.647 361.191L515.312 359.176C516.19 360.209 517.042 361.294 517.869 362.431C518.489 363.516 517.094 363.981 516.319 364.213C515.854 364.213 516.164 364.988 516.552 364.678L525.309 362.043C525.309 361.036 524.069 362.043 523.526 361.268C521.821 360.106 520.659 358.401 519.341 356.851L509.809 345.691ZM509.809 352.666L514.459 358.323L508.802 360.028L509.809 352.666ZM539.723 332.672L542.281 337.322C541.506 338.097 541.041 336.469 540.343 336.237C539.749 335.761 539.028 335.47 538.27 335.401C537.512 335.332 536.751 335.488 536.081 335.849L534.531 336.702L542.126 350.884C542.513 352.046 543.986 352.279 544.993 351.659C545.355 351.245 545.613 351.271 545.768 351.736C544.476 352.511 543.133 353.234 541.738 353.906L536.701 356.618C536.391 356.257 536.494 355.998 537.011 355.843C537.284 355.744 537.531 355.582 537.73 355.371C537.93 355.159 538.077 354.904 538.16 354.625C538.243 354.346 538.259 354.051 538.208 353.765C538.156 353.479 538.038 353.208 537.863 352.976L530.346 339.027C528.951 339.802 527.246 340.421 526.859 342.126C526.471 343.289 527.014 344.606 527.014 345.536C526.626 346.001 526.471 345.381 526.239 345.071L524.146 341.041L539.723 332.672ZM551.58 325.62L556.385 332.052C557.47 331.277 558.4 330.037 558.09 328.642C558.245 327.557 556.695 326.317 557.238 325.542C557.548 325.387 557.78 326.162 558.013 326.395L563.592 333.757C562.817 334.532 562.352 332.904 561.577 332.672C560.492 331.897 559.02 331.509 557.858 332.362C557.083 332.672 557.005 333.111 557.625 333.679C558.865 335.384 560.157 337.063 561.5 338.717C562.275 339.492 563.36 338.717 564.057 338.097C565.917 336.857 567.545 334.842 567.467 332.517C567.622 331.432 566.925 330.347 566.925 329.417C567.39 328.874 567.467 329.727 567.7 330.037L570.335 334.687L556.695 344.994C556.153 344.606 556.695 344.296 557.083 344.064C558.322 343.289 557.935 341.661 557.083 340.809L548.248 329.262C547.473 328.254 546.078 328.797 545.381 329.494C544.993 329.959 544.605 329.107 545.148 329.029L557.935 319.342L561.422 323.992C560.647 324.767 559.872 322.985 559.02 322.907C557.315 321.977 555.3 322.675 553.905 323.837L551.503 325.62" fill="black" style="fill:black;fill-opacity:1;"/>
</g>
</g>
<defs>
<linearGradient id="paint0_linear_2194_11554" x1="407.515" y1="126.769" x2="398.7" y2="125.47" gradientUnits="userSpaceOnUse">
<stop stop-color="#FF0000" style="stop-color:#FF0000;stop-color:color(display-p3 1.0000 0.0000 0.0000);stop-opacity:1;"/>
<stop offset="1" stop-color="#FFFF00" style="stop-color:#FFFF00;stop-color:color(display-p3 1.0000 1.0000 0.0000);stop-opacity:1;"/>
</linearGradient>
<linearGradient id="paint1_linear_2194_11554" x1="406.895" y1="158.775" x2="398.08" y2="157.476" gradientUnits="userSpaceOnUse">
<stop stop-color="#FF0000" style="stop-color:#FF0000;stop-color:color(display-p3 1.0000 0.0000 0.0000);stop-opacity:1;"/>
<stop offset="1" stop-color="#FFFF00" style="stop-color:#FFFF00;stop-color:color(display-p3 1.0000 1.0000 0.0000);stop-opacity:1;"/>
</linearGradient>
<linearGradient id="paint2_linear_2194_11554" x1="406.662" y1="190.317" x2="397.848" y2="189.017" gradientUnits="userSpaceOnUse">
<stop stop-color="#FF0000" style="stop-color:#FF0000;stop-color:color(display-p3 1.0000 0.0000 0.0000);stop-opacity:1;"/>
<stop offset="1" stop-color="#FFFF00" style="stop-color:#FFFF00;stop-color:color(display-p3 1.0000 1.0000 0.0000);stop-opacity:1;"/>
</linearGradient>
<linearGradient id="paint3_linear_2194_11554" x1="427.354" y1="224.493" x2="418.539" y2="223.193" gradientUnits="userSpaceOnUse">
<stop stop-color="#FF0000" style="stop-color:#FF0000;stop-color:color(display-p3 1.0000 0.0000 0.0000);stop-opacity:1;"/>
<stop offset="1" stop-color="#FFFF00" style="stop-color:#FFFF00;stop-color:color(display-p3 1.0000 1.0000 0.0000);stop-opacity:1;"/>
</linearGradient>
<linearGradient id="paint4_linear_2194_11554" x1="403.95" y1="252.469" x2="395.135" y2="251.17" gradientUnits="userSpaceOnUse">
<stop stop-color="#FF0000" style="stop-color:#FF0000;stop-color:color(display-p3 1.0000 0.0000 0.0000);stop-opacity:1;"/>
<stop offset="1" stop-color="#FFFF00" style="stop-color:#FFFF00;stop-color:color(display-p3 1.0000 1.0000 0.0000);stop-opacity:1;"/>
</linearGradient>
<linearGradient id="paint5_linear_2194_11554" x1="404.57" y1="285.483" x2="395.755" y2="284.184" gradientUnits="userSpaceOnUse">
<stop stop-color="#FF0000" style="stop-color:#FF0000;stop-color:color(display-p3 1.0000 0.0000 0.0000);stop-opacity:1;"/>
<stop offset="1" stop-color="#FFFF00" style="stop-color:#FFFF00;stop-color:color(display-p3 1.0000 1.0000 0.0000);stop-opacity:1;"/>
</linearGradient>
<linearGradient id="paint6_linear_2194_11554" x1="520.893" y1="127.311" x2="512.078" y2="126.012" gradientUnits="userSpaceOnUse">
<stop stop-color="#FF0000" style="stop-color:#FF0000;stop-color:color(display-p3 1.0000 0.0000 0.0000);stop-opacity:1;"/>
<stop offset="1" stop-color="#FFFF00" style="stop-color:#FFFF00;stop-color:color(display-p3 1.0000 1.0000 0.0000);stop-opacity:1;"/>
</linearGradient>
<linearGradient id="paint7_linear_2194_11554" x1="519.808" y1="158.698" x2="510.993" y2="157.399" gradientUnits="userSpaceOnUse">
<stop stop-color="#FF0000" style="stop-color:#FF0000;stop-color:color(display-p3 1.0000 0.0000 0.0000);stop-opacity:1;"/>
<stop offset="1" stop-color="#FFFF00" style="stop-color:#FFFF00;stop-color:color(display-p3 1.0000 1.0000 0.0000);stop-opacity:1;"/>
</linearGradient>
<linearGradient id="paint8_linear_2194_11554" x1="518.413" y1="190.859" x2="509.598" y2="189.56" gradientUnits="userSpaceOnUse">
<stop stop-color="#FF0000" style="stop-color:#FF0000;stop-color:color(display-p3 1.0000 0.0000 0.0000);stop-opacity:1;"/>
<stop offset="1" stop-color="#FFFF00" style="stop-color:#FFFF00;stop-color:color(display-p3 1.0000 1.0000 0.0000);stop-opacity:1;"/>
</linearGradient>
<linearGradient id="paint9_linear_2194_11554" x1="520.041" y1="222.401" x2="511.226" y2="221.101" gradientUnits="userSpaceOnUse">
<stop stop-color="#FF0000" style="stop-color:#FF0000;stop-color:color(display-p3 1.0000 0.0000 0.0000);stop-opacity:1;"/>
<stop offset="1" stop-color="#FFFF00" style="stop-color:#FFFF00;stop-color:color(display-p3 1.0000 1.0000 0.0000);stop-opacity:1;"/>
</linearGradient>
<linearGradient id="paint10_linear_2194_11554" x1="519.653" y1="254.019" x2="510.838" y2="252.72" gradientUnits="userSpaceOnUse">
<stop stop-color="#FF0000" style="stop-color:#FF0000;stop-color:color(display-p3 1.0000 0.0000 0.0000);stop-opacity:1;"/>
<stop offset="1" stop-color="#FFFF00" style="stop-color:#FFFF00;stop-color:color(display-p3 1.0000 1.0000 0.0000);stop-opacity:1;"/>
</linearGradient>
<linearGradient id="paint11_linear_2194_11554" x1="519.808" y1="285.793" x2="510.993" y2="284.494" gradientUnits="userSpaceOnUse">
<stop stop-color="#FF0000" style="stop-color:#FF0000;stop-color:color(display-p3 1.0000 0.0000 0.0000);stop-opacity:1;"/>
<stop offset="1" stop-color="#FFFF00" style="stop-color:#FFFF00;stop-color:color(display-p3 1.0000 1.0000 0.0000);stop-opacity:1;"/>
</linearGradient>
<clipPath id="clip0_2194_11554">
<rect width="640" height="480" fill="white" style="fill:white;fill-opacity:1;"/>
</clipPath>
</defs>
</svg>
