<svg width="640" height="480" viewBox="0 0 640 480" fill="none" xmlns="http://www.w3.org/2000/svg">
<g id="vu" clip-path="url(#clip0_2194_11706)">
<path id="Vector" d="M0 0H640V480H0V0Z" fill="#009543" style="fill:#009543;fill:color(display-p3 0.0000 0.5843 0.2627);fill-opacity:1;"/>
<path id="Vector_2" d="M0 0H640V240H0V0Z" fill="#D21034" style="fill:#D21034;fill:color(display-p3 0.8235 0.0627 0.2039);fill-opacity:1;"/>
<g id="Clip path group">
<mask id="mask0_2194_11706" style="mask-type:luminance" maskUnits="userSpaceOnUse" x="0" y="0" width="640" height="481">
<g id="vu-a">
<path id="Vector_3" d="M0 0V480.002L298.666 282.948H639.999V197.053H298.666L0 0Z" fill="white" style="fill:white;fill-opacity:1;"/>
</g>
</mask>
<g mask="url(#mask0_2194_11706)">
<g id="Group">
<g id="Vector_4">
<path d="M0 0L298.666 197.053H639.999V282.948H298.666L0 480.002" fill="black" style="fill:black;fill-opacity:1;"/>
<path d="M0 0L298.666 197.053H639.999V282.948H298.666L0 480.002" stroke="#FDCE12" style="stroke:#FDCE12;stroke:color(display-p3 0.9922 0.8078 0.0706);stroke-opacity:1;" stroke-width="93.2472"/>
</g>
<path id="Vector_5" d="M0 0L298.666 197.053H639.999M639.999 282.948H298.666L0 480.002" stroke="black" style="stroke:black;stroke-opacity:1;" stroke-width="50.8621"/>
</g>
</g>
</g>
<g id="Group_2">
<path id="Vector_6" d="M86.0256 285.98V313.264C109.773 313.264 156.46 295.075 156.46 236.363C156.46 177.651 106.64 166.738 91.7857 166.738C76.9309 166.738 30.8507 177.449 30.8507 225.348C30.8507 273.45 76.0214 277.896 84.9141 277.896C93.8067 277.896 127.154 269.812 123.314 233.837C122.319 242.617 118.117 250.721 111.516 256.595C104.915 262.469 96.3778 265.7 87.5414 265.668C63.2887 265.668 48.1308 247.681 48.1308 229.896C48.1308 212.11 62.8845 188.262 88.4509 188.262C114.017 188.262 132.712 210.999 132.712 233.837C132.712 256.675 114.725 285.879 86.0256 285.879V285.98Z" fill="#FDCE12" style="fill:#FDCE12;fill:color(display-p3 0.9922 0.8078 0.0706);fill-opacity:1;"/>
<g id="vu-b">
<path id="Vector_7" d="M65.1077 250.308L66.5224 251.319C66.5224 251.319 77.8403 225.55 108.055 207.26C104.215 209.281 84.0046 219.386 65.1077 250.308Z" fill="#FDCE12" stroke="#FDCE12" style="fill:#FDCE12;fill:color(display-p3 0.9922 0.8078 0.0706);fill-opacity:1;stroke:#FDCE12;stroke:color(display-p3 0.9922 0.8078 0.0706);stroke-opacity:1;" stroke-width="0.808424"/>
<path id="Vector_8" d="M68.0382 245.862C68.0382 245.862 64.6024 238.788 67.634 235.555C70.6656 232.321 69.3519 243.942 69.3519 243.942L70.6656 242.022C70.6656 242.022 68.6445 233.331 70.8677 231.512C73.0908 229.693 72.0803 239.9 72.0803 239.9L73.4951 238.081C73.4951 238.081 71.9793 229.592 74.2024 227.976C76.4256 226.359 75.1119 236.06 75.1119 236.06L76.7288 234.039C76.7288 234.039 75.5161 225.954 78.2445 224.034C80.973 222.114 78.5477 231.715 78.5477 231.715L80.3667 229.693C80.3667 229.693 79.5582 222.317 81.8825 220.599C84.2067 218.982 82.2867 227.672 82.2867 227.672L83.9035 225.853C83.9035 225.853 83.3983 218.982 85.6214 217.365C87.8446 215.748 85.8235 223.933 85.8235 223.933L87.5414 222.317C87.5414 222.317 87.1372 215.344 89.9667 214.03C92.7962 212.717 89.4614 220.498 89.4614 220.498L91.4825 218.881C91.4825 218.881 91.9878 210.797 94.413 210.089C96.8383 209.281 93.4025 217.163 93.4025 217.163L95.1204 215.748C95.1204 215.748 96.0299 208.877 98.6573 208.068C101.386 207.159 97.0404 214.333 97.0404 214.333L98.7583 213.02C98.7583 213.02 100.678 206.148 103.205 205.34C105.63 204.632 100.577 211.908 100.577 211.908L102.295 210.695C102.295 210.695 105.024 204.43 107.348 204.026C109.47 203.622 104.72 209.18 104.72 209.18L106.843 207.967C106.843 207.967 110.379 201.5 111.693 203.42C113.007 205.34 106.64 208.371 106.64 208.371L104.619 209.584C104.619 209.584 112.198 205.946 113.108 207.765C114.017 209.584 102.699 210.797 102.699 210.797L100.88 212.009C100.88 212.009 108.459 209.988 107.55 211.908C106.64 213.828 99.0615 213.424 99.0615 213.424L97.3436 214.637C97.3436 214.637 104.923 212.818 103.912 214.637C102.901 216.253 95.5246 216.152 95.5246 216.152L93.7057 217.668C93.7057 217.668 101.083 215.647 99.9709 217.971C98.8594 220.296 90.472 220.093 90.472 220.093L88.4509 222.114C88.4509 222.114 96.232 219.386 95.5246 221.508C94.9183 223.529 86.0256 224.54 86.0256 224.54L84.0046 226.561C84.0046 226.561 92.392 223.832 89.8656 226.359C87.4404 228.986 81.2761 229.592 81.2761 229.592L78.9519 232.624C78.9519 232.624 87.2383 227.571 86.0256 230.401C84.813 233.23 76.7288 235.15 76.7288 235.15L75.1119 237.171C75.1119 237.171 82.5898 232.826 81.7814 235.15C81.074 237.677 73.0908 240.203 73.0908 240.203L71.7772 242.022C71.7772 242.022 80.5688 236.767 79.8614 239.496C79.053 242.123 70.6656 244.043 70.6656 244.043L69.655 245.761C69.655 245.761 77.7393 241.011 77.7393 243.336C77.9414 245.559 68.2403 247.782 68.2403 247.782L68.0382 245.862Z" fill="#FDCE12" style="fill:#FDCE12;fill:color(display-p3 0.9922 0.8078 0.0706);fill-opacity:1;"/>
</g>
<g id="vu-b_2">
<path id="Vector_9" d="M113.209 250.308L111.794 251.319C111.794 251.319 100.476 225.55 70.2614 207.26C74.1014 209.281 94.312 219.386 113.209 250.308Z" fill="#FDCE12" stroke="#FDCE12" style="fill:#FDCE12;fill:color(display-p3 0.9922 0.8078 0.0706);fill-opacity:1;stroke:#FDCE12;stroke:color(display-p3 0.9922 0.8078 0.0706);stroke-opacity:1;" stroke-width="0.808424"/>
<path id="Vector_10" d="M110.278 245.862C110.278 245.862 113.714 238.788 110.683 235.555C107.651 232.321 108.965 243.942 108.965 243.942L107.651 242.022C107.651 242.022 109.672 233.331 107.449 231.512C105.226 229.693 106.236 239.9 106.236 239.9L104.822 238.081C104.822 238.081 106.337 229.592 104.114 227.976C101.891 226.359 103.205 236.06 103.205 236.06L101.588 234.039C101.588 234.039 102.8 225.954 100.072 224.034C97.3436 222.114 99.7689 231.715 99.7689 231.715L97.9499 229.693C97.9499 229.693 98.7583 222.317 96.4341 220.599C94.1099 218.982 96.0299 227.672 96.0299 227.672L94.4131 225.853C94.4131 225.853 94.9183 218.982 92.6952 217.365C90.472 215.748 92.4931 223.933 92.4931 223.933L90.7752 222.317C90.7752 222.317 91.1794 215.344 88.3499 214.03C85.5204 212.717 88.8552 220.498 88.8552 220.498L86.8341 218.881C86.8341 218.881 86.3288 210.797 83.9036 210.089C81.4783 209.281 84.9141 217.163 84.9141 217.163L83.1962 215.748C83.1962 215.748 82.2867 208.877 79.6593 208.068C76.9309 207.159 81.2762 214.333 81.2762 214.333L79.5583 213.02C79.5583 213.02 77.6383 206.148 75.1119 205.34C72.6867 204.632 77.7393 211.908 77.7393 211.908L76.0214 210.695C76.0214 210.695 73.293 204.43 70.9688 204.026C68.8467 203.622 73.5962 209.18 73.5962 209.18L71.474 207.967C71.474 207.967 67.9372 201.5 66.6235 203.42C65.3098 205.34 71.6761 208.371 71.6761 208.371L73.6972 209.584C73.6972 209.584 66.1182 205.946 65.2088 207.765C64.2993 209.584 75.6172 210.797 75.6172 210.797L77.4362 212.009C77.4362 212.009 69.8572 209.988 70.7667 211.908C71.6761 213.828 79.2551 213.424 79.2551 213.424L80.973 214.637C80.973 214.637 73.394 212.818 74.4046 214.637C75.4151 216.253 82.792 216.152 82.792 216.152L84.6109 217.668C84.6109 217.668 77.2341 215.647 78.3456 217.971C79.4572 220.296 87.8446 220.093 87.8446 220.093L89.8657 222.114C89.8657 222.114 82.0846 219.386 82.792 221.508C83.3983 223.529 92.291 224.54 92.291 224.54L94.312 226.561C94.312 226.561 85.9246 223.832 88.4509 226.359C90.8762 228.986 97.0405 229.592 97.0405 229.592L99.3647 232.624C99.3647 232.624 91.0783 227.571 92.291 230.401C93.5036 233.23 101.588 235.15 101.588 235.15L103.205 237.171C103.205 237.171 95.7268 232.826 96.5352 235.15C97.2426 237.677 105.226 240.203 105.226 240.203L106.539 242.022C106.539 242.022 97.7478 236.767 98.4552 239.496C99.2636 242.123 107.651 244.043 107.651 244.043L108.662 245.761C108.662 245.761 100.577 241.011 100.577 243.336C100.375 245.559 110.076 247.782 110.076 247.782L110.278 245.862Z" fill="#FDCE12" style="fill:#FDCE12;fill:color(display-p3 0.9922 0.8078 0.0706);fill-opacity:1;"/>
</g>
</g>
</g>
<defs>
<clipPath id="clip0_2194_11706">
<rect width="640" height="480" fill="white" style="fill:white;fill-opacity:1;"/>
</clipPath>
</defs>
</svg>
